<svg xmlns="http://www.w3.org/2000/svg" viewBox="0 0 32 32"><!--! Font Icona - https://fonticona.com | License - https://fonticona.com/license | Copyright 2022 FontIcona.com --><path d="M1.108,27.302c-0.135,0-0.272-0.025-0.406-0.078C0.132,27-0.147,26.356,0.077,25.787L8.114,5.4c0.225-0.569,0.867-0.847,1.438-0.625c0.57,0.225,0.849,0.869,0.625,1.438L2.14,26.599C1.968,27.036,1.55,27.302,1.108,27.302z"/><path d="M17.183,27.302c-0.442,0-0.86-0.267-1.032-0.703L8.125,6.213C7.901,5.643,8.181,5,8.751,4.775c0.57-0.225,1.214,0.056,1.438,0.625l8.026,20.387c0.224,0.57-0.055,1.214-0.625,1.438C17.455,27.277,17.319,27.302,17.183,27.302z"/><path d="M14.666,20.905H3.625c-0.612,0-1.109-0.495-1.109-1.108c0-0.613,0.496-1.108,1.109-1.108h11.042c0.612,0,1.109,0.495,1.109,1.108C15.775,20.409,15.279,20.905,14.666,20.905z"/><path d="M25.978,26.558c-3.321,0-6.022-2.799-6.022-6.24c0-3.441,2.701-6.241,6.022-6.241S32,16.877,32,20.318C32,23.759,29.299,26.558,25.978,26.558z M25.978,16.295c-2.098,0-3.805,1.805-3.805,4.023s1.707,4.023,3.805,4.023s3.805-1.805,3.805-4.023S28.076,16.295,25.978,16.295z"/><path d="M30.891,27.301c-0.613,0-1.108-0.495-1.108-1.108V14.648c0-0.612,0.495-1.109,1.108-1.109c0.613,0,1.108,0.496,1.108,1.109v11.546C32,26.806,31.504,27.301,30.891,27.301z"/></svg>