<svg xmlns="http://www.w3.org/2000/svg" viewBox="0 0 32 32"><!--! Font Icona - https://fonticona.com | License - https://fonticona.com/license | Copyright 2022 FontIcona.com --><path d="M27.213,32c-0.405,0-0.787-0.249-0.937-0.65L16,3.856L5.723,31.35c-0.193,0.518-0.771,0.782-1.287,0.586c-0.518-0.193-0.78-0.77-0.586-1.287l11.213-30C15.209,0.259,15.583,0,16,0s0.791,0.259,0.937,0.65l11.213,30c0.193,0.517-0.069,1.093-0.586,1.287C27.448,31.98,27.33,32,27.213,32z"/><path d="M22.74,20.365H9.135c-0.552,0-1-0.448-1-1s0.448-1,1-1H22.74c0.552,0,1,0.448,1,1S23.292,20.365,22.74,20.365z"/></svg>