<svg xmlns="http://www.w3.org/2000/svg" viewBox="0 0 32 32"><!--! Font Icona - https://fonticona.com | License - https://fonticona.com/license | Copyright 2022 FontIcona.com --><path d="M17.24,32c-2.262,0-4.416-0.822-6.114-2.344c-0.422-0.378-0.812-0.799-1.158-1.251c-0.336-0.438-0.252-1.066,0.186-1.402c0.437-0.334,1.065-0.254,1.402,0.186c0.271,0.353,0.575,0.682,0.905,0.977c1.429,1.28,3.272,1.928,5.183,1.822c1.914-0.105,3.673-0.949,4.952-2.376s1.926-3.268,1.822-5.183c-0.105-1.914-0.949-3.673-2.376-4.952c-1.427-1.279-3.263-1.926-5.183-1.822c-1.914,0.105-3.673,0.949-4.952,2.376c-0.368,0.411-1,0.447-1.412,0.077c-0.411-0.369-0.446-1-0.077-1.412c1.636-1.825,3.885-2.904,6.333-3.038c2.451-0.14,4.801,0.693,6.626,2.329c1.825,1.636,2.905,3.885,3.039,6.333c0.134,2.447-0.693,4.801-2.33,6.626c-1.636,1.825-3.885,2.905-6.333,3.039C17.581,31.996,17.41,32,17.24,32z"/><path d="M15.027,9.555c-0.48,0-0.904-0.347-0.985-0.836c-0.091-0.544,0.277-1.06,0.822-1.15l7.011-1.167c0.549-0.09,1.06,0.277,1.15,0.822c0.091,0.544-0.277,1.06-0.822,1.15l-7.011,1.167C15.136,9.551,15.081,9.555,15.027,9.555z"/><path d="M11.105,14.21c-0.228,0-0.456-0.077-0.644-0.235c-0.422-0.356-0.476-0.987-0.12-1.409l3.922-4.655c0.356-0.421,0.986-0.476,1.409-0.12c0.422,0.356,0.476,0.987,0.12,1.409l-3.922,4.655C11.673,14.089,11.39,14.21,11.105,14.21z"/><path d="M25.295,25.3c-0.319,0-0.619-0.152-0.808-0.41c-0.191-0.261-0.244-0.599-0.141-0.906l2.624-7.867l-4.399,1.237c-0.532,0.149-1.083-0.161-1.233-0.692c-0.149-0.531,0.161-1.083,0.692-1.233l6.215-1.748c0.354-0.1,0.738,0.005,0.994,0.273s0.342,0.655,0.225,1.006l-2.776,8.322l2.148-0.028c0.592,0,1.005,0.436,1.013,0.987c0.007,0.552-0.435,1.005-0.987,1.013L25.308,25.3C25.304,25.3,25.299,25.3,25.295,25.3z"/><path d="M20.294,16.221c-0.278,0-0.555-0.115-0.752-0.341c-0.364-0.415-0.323-1.047,0.093-1.411c1.522-1.334,2.336-2.68,2.42-3.999c0.03-0.475-0.039-0.895-0.146-1.246l-4.55,6.052c-0.333,0.44-0.958,0.53-1.4,0.198c-0.441-0.332-0.53-0.959-0.198-1.4l5.479-7.287c0.179-0.237,0.453-0.383,0.75-0.397c0.296-0.013,0.584,0.103,0.786,0.321c0.057,0.062,1.401,1.551,1.279,3.833c-0.101,1.888-1.145,3.714-3.101,5.429C20.763,16.14,20.528,16.221,20.294,16.221z"/><path d="M25.216,8.177c-2.254,0-4.088-1.834-4.088-4.088S22.961,0,25.216,0s4.089,1.834,4.089,4.089S27.47,8.177,25.216,8.177z M25.216,2c-1.151,0-2.088,0.937-2.088,2.089c0,1.151,0.937,2.088,2.088,2.088c1.152,0,2.089-0.937,2.089-2.088C27.305,2.937,26.368,2,25.216,2z"/><path d="M8.783,14.599c-0.48,0-0.903-0.346-0.985-0.835c-0.091-0.544,0.276-1.06,0.821-1.151l2.322-0.389c0.547-0.091,1.06,0.277,1.151,0.821s-0.276,1.06-0.821,1.151l-2.322,0.389C8.893,14.595,8.837,14.599,8.783,14.599z"/><path d="M15.028,25.565H3.151c-0.552,0-1-0.448-1-1s0.448-1,1-1h11.877c0.552,0,1,0.448,1,1S15.58,25.565,15.028,25.565z"/><path d="M17.75,22.021H7.795c-0.552,0-1-0.448-1-1s0.448-1,1-1h9.955c0.552,0,1,0.448,1,1S18.302,22.021,17.75,22.021z"/></svg>