<svg xmlns="http://www.w3.org/2000/svg" viewBox="0 0 32 32"><!--! Font Icona - https://fonticona.com | License - https://fonticona.com/license | Copyright 2022 FontIcona.com --><path d="M23.725,20.48c-0.584,0-1.072-0.289-1.56-0.893c-0.544-0.673-1.076-1.355-1.607-2.038l-0.623-0.8c-1.424-1.817-2.695-3.491-3.968-5.165c-1.256-1.652-2.512-3.304-3.916-5.097c-0.136-0.172-0.236-0.304-0.32-0.444c-0.379-0.631-0.228-1.122-0.104-1.358c0.124-0.234,0.439-0.635,1.165-0.679c0.407-0.026,2.624-0.044,4.67-0.06l0.819-0.007c0.004,0,0.008,0,0.012,0h1.035c0.813,0,1.484,0.31,1.992,0.92c1.463,1.76,2.791,3.387,4.114,5.007c1.436,1.758,2.865,3.509,4.455,5.416c0.184,0.219,0.419,0.516,0.615,0.864c0.229,0.405,0.283,0.798,0.157,1.167c-0.126,0.369-0.412,0.649-0.85,0.831l-0.671,0.279c-1.476,0.612-2.949,1.226-4.428,1.831C24.35,20.404,24.024,20.48,23.725,20.48z M14.189,5.978c1.203,1.547,2.287,2.973,3.37,4.398c1.267,1.666,2.533,3.332,3.95,5.141l0.627,0.804c0.524,0.673,1.049,1.346,1.584,2.009c0.044,0.054,0.079,0.095,0.106,0.124c0.033-0.012,0.076-0.027,0.129-0.05c1.473-0.603,2.941-1.213,4.411-1.824c-0.004-0.005-0.009-0.01-0.013-0.016c-1.595-1.913-3.029-3.669-4.469-5.432c-1.32-1.616-2.645-3.238-4.104-4.993c-0.111-0.134-0.208-0.199-0.454-0.199l-1.852,0.007C16.693,5.954,15.251,5.964,14.189,5.978z"/><path d="M1,25.876c-0.383,0-0.735-0.22-0.902-0.568c-0.176-0.368-0.11-0.807,0.165-1.107l12.009-13.104c0.374-0.406,1.005-0.435,1.413-0.062c0.407,0.373,0.435,1.006,0.062,1.413L3.413,23.723l1.799-0.113c0.548-0.021,1.026,0.384,1.061,0.936c0.035,0.551-0.384,1.026-0.936,1.061l-4.275,0.269C1.042,25.875,1.021,25.876,1,25.876z"/><path d="M13.009,18.693c-0.249,0-0.499-0.093-0.692-0.278c-0.398-0.383-0.412-1.016-0.029-1.414l2.491-2.595c0.382-0.398,1.016-0.412,1.414-0.029c0.398,0.382,0.412,1.015,0.029,1.414l-2.491,2.595C13.534,18.591,13.271,18.693,13.009,18.693z"/><path d="M15.5,16.099c-0.305,0-0.605-0.138-0.801-0.401l-2.491-3.327c-0.331-0.442-0.241-1.069,0.201-1.399c0.443-0.332,1.069-0.241,1.399,0.201L16.3,14.5c0.331,0.442,0.241,1.069-0.201,1.399C15.919,16.034,15.709,16.099,15.5,16.099z"/><path d="M23.148,28.064c-0.431,0-0.797-0.091-0.997-0.142L8.316,24.386c-0.389-0.1-0.681-0.422-0.741-0.818c-0.06-0.397,0.123-0.792,0.465-1.002l7.297-4.487c0.232-0.143,0.512-0.185,0.776-0.116l3.211,0.837c0.226,0.059,0.424,0.195,0.561,0.385l2.112,2.942c0.29,0.284,0.729,0.377,1.113,0.226l3.823-1.589c0.204-0.085,0.432-0.1,0.647-0.041l3.683,1.005c0.388,0.106,0.674,0.434,0.728,0.832c0.054,0.399-0.138,0.791-0.484,0.994l-6.958,4.096C24.085,27.972,23.583,28.064,23.148,28.064z M11.098,23.033l11.544,2.951c0.491,0.123,0.679,0.088,0.832-0.02l4.978-2.933l-1.066-0.291l-3.523,1.465c-1.182,0.462-2.527,0.154-3.371-0.763c-0.027-0.029-0.053-0.061-0.076-0.094l-1.943-2.706l-2.449-0.639L11.098,23.033z"/></svg>