<svg xmlns="http://www.w3.org/2000/svg" viewBox="0 0 32 32"><!--! Font Icona - https://fonticona.com | License - https://fonticona.com/license | Copyright 2022 FontIcona.com --><path d="M15.711,32C8.727,32,3.045,26.317,3.045,19.333S8.727,6.667,15.711,6.667s12.667,5.682,12.667,12.667S22.696,32,15.711,32z M15.711,8.667c-5.881,0-10.667,4.785-10.667,10.667C5.045,25.215,9.83,30,15.711,30s10.667-4.785,10.667-10.667C26.378,13.452,21.592,8.667,15.711,8.667z"/><path d="M22.122,20.111H9.311c-0.552,0-1-0.448-1-1s0.448-1,1-1h12.811c0.552,0,1,0.448,1,1S22.675,20.111,22.122,20.111z"/><path d="M15.711,26.522c-0.552,0-1-0.448-1-1V12.7c0-0.552,0.448-1,1-1s1,0.448,1,1v12.822C16.711,26.074,16.263,26.522,15.711,26.522z"/><path d="M31,2H1C0.448,2,0,1.552,0,1s0.448-1,1-1h30c0.552,0,1,0.448,1,1S31.552,2,31,2z"/></svg>