<svg xmlns="http://www.w3.org/2000/svg" viewBox="0 0 32 32"><!--! Font Icona - https://fonticona.com | License - https://fonticona.com/license | Copyright 2022 FontIcona.com --><path d="M16.289,25.333c-6.984,0-12.667-5.682-12.667-12.667S9.304,0,16.289,0s12.667,5.682,12.667,12.667S23.273,25.333,16.289,25.333z M16.289,2C10.407,2,5.622,6.786,5.622,12.667s4.785,10.667,10.667,10.667c5.882,0,10.667-4.785,10.667-10.667S22.171,2,16.289,2z"/><path d="M22.689,13.889H9.878c-0.552,0-1-0.448-1-1s0.448-1,1-1h12.811c0.552,0,1,0.448,1,1S23.241,13.889,22.689,13.889z"/><path d="M16.289,20.3c-0.552,0-1-0.448-1-1V6.478c0-0.552,0.448-1,1-1s1,0.448,1,1V19.3C17.289,19.853,16.841,20.3,16.289,20.3z"/><path d="M31,32H1c-0.552,0-1-0.448-1-1s0.448-1,1-1h30c0.552,0,1,0.448,1,1S31.552,32,31,32z"/></svg>