<svg xmlns="http://www.w3.org/2000/svg" viewBox="0 0 32 32"><!--! Font Icona - https://fonticona.com | License - https://fonticona.com/license | Copyright 2022 FontIcona.com --><path d="M16,32C7.178,32,0,24.822,0,16S7.178,0,16,0s16,7.178,16,16S24.822,32,16,32z M16,2C8.28,2,2,8.28,2,16s6.28,14,14,14s14-6.28,14-14S23.72,2,16,2z"/><path d="M15.722,25.245c-0.552,0-1-0.448-1-1V7.755c0-0.552,0.448-1,1-1s1,0.448,1,1v16.489C16.722,24.797,16.274,25.245,15.722,25.245z"/><path d="M23.967,17H7.478c-0.552,0-1-0.448-1-1s0.448-1,1-1h16.489c0.552,0,1,0.448,1,1S24.519,17,23.967,17z"/></svg>