<svg xmlns="http://www.w3.org/2000/svg" viewBox="0 0 32 32"><!--! Font Icona - https://fonticona.com | License - https://fonticona.com/license | Copyright 2022 FontIcona.com --><path d="M19.333,28.956c-6.984,0-12.667-5.682-12.667-12.667S12.349,3.622,19.333,3.622S32,9.305,32,16.289S26.317,28.956,19.333,28.956z M19.333,5.622c-5.881,0-10.667,4.785-10.667,10.667c0,5.881,4.785,10.667,10.667,10.667S30,22.17,30,16.289C30,10.407,25.214,5.622,19.333,5.622z"/><path d="M19.111,23.689c-0.552,0-1-0.448-1-1V9.878c0-0.552,0.448-1,1-1s1,0.448,1,1v12.811C20.111,23.241,19.663,23.689,19.111,23.689z"/><path d="M25.522,17.289H12.7c-0.552,0-1-0.448-1-1s0.448-1,1-1h12.822c0.552,0,1,0.448,1,1S26.074,17.289,25.522,17.289z"/><path d="M1,32c-0.552,0-1-0.448-1-1V1c0-0.552,0.448-1,1-1s1,0.448,1,1v30C2,31.552,1.552,32,1,32z"/></svg>