<svg xmlns="http://www.w3.org/2000/svg" viewBox="0 0 32 32"><!--! Font Icona - https://fonticona.com | License - https://fonticona.com/license | Copyright 2022 FontIcona.com --><path d="M10.164,17.928c-2.408,0-4.368-1.96-4.368-4.368c0-2.409,1.96-4.369,4.368-4.369s4.368,1.96,4.368,4.369C14.532,15.968,12.572,17.928,10.164,17.928z M10.164,11.19c-1.306,0-2.368,1.062-2.368,2.369c0,1.306,1.062,2.368,2.368,2.368s2.368-1.062,2.368-2.368C12.532,12.253,11.47,11.19,10.164,11.19z"/><path d="M15.996,23.76H4.332c-0.553,0-1-0.447-1-1c0-3.768,3.064-6.832,6.832-6.832s6.832,3.064,6.832,6.832C16.996,23.312,16.549,23.76,15.996,23.76z M5.437,21.76h9.455c-0.462-2.187-2.406-3.832-4.728-3.832S5.898,19.573,5.437,21.76z"/><path d="M27.529,13.509h-7.748c-0.553,0-1-0.447-1-1s0.447-1,1-1h7.748c0.553,0,1,0.447,1,1S28.082,13.509,27.529,13.509z"/><path d="M27.529,17.476h-7.748c-0.553,0-1-0.447-1-1s0.447-1,1-1h7.748c0.553,0,1,0.447,1,1S28.082,17.476,27.529,17.476z"/><path d="M27.529,21.442h-7.748c-0.553,0-1-0.447-1-1s0.447-1,1-1h7.748c0.553,0,1,0.447,1,1S28.082,21.442,27.529,21.442z"/><path d="M29,28.157H3c-1.654,0-3-1.346-3-3V6.843c0-1.654,1.346-3,3-3h26c1.654,0,3,1.346,3,3v18.314C32,26.812,30.654,28.157,29,28.157z M3,5.843c-0.552,0-1,0.448-1,1v18.314c0,0.552,0.448,1,1,1h26c0.552,0,1-0.448,1-1V6.843c0-0.552-0.448-1-1-1H3z"/></svg>