<svg xmlns="http://www.w3.org/2000/svg" viewBox="0 0 32 32"><!--! Font Icona - https://fonticona.com | License - https://fonticona.com/license | Copyright 2022 FontIcona.com --><path d="M25.731,32H8.571c-1.654,0-3-1.346-3-3V3c0-1.654,1.346-3,3-3h17.161c1.654,0,3,1.346,3,3v26C28.731,30.655,27.386,32,25.731,32z M8.571,2c-0.551,0-1,0.448-1,1v26c0,0.552,0.449,1,1,1h17.161c0.551,0,1-0.448,1-1V3c0-0.552-0.449-1-1-1H8.571z"/><path d="M6.571,7.828H4.269c-0.552,0-1-0.447-1-1s0.448-1,1-1h2.302c0.552,0,1,0.447,1,1S7.123,7.828,6.571,7.828z"/><path d="M6.571,26.3H4.269c-0.552,0-1-0.447-1-1s0.448-1,1-1h2.302c0.552,0,1,0.447,1,1S7.123,26.3,6.571,26.3z"/><path d="M6.571,17.022H4.269c-0.552,0-1-0.447-1-1c0-0.553,0.448-1,1-1h2.302c0.552,0,1,0.447,1,1C7.571,16.575,7.123,17.022,6.571,17.022z"/><path d="M17.151,17.507c-2.632,0-4.774-2.142-4.774-4.774c0-2.632,2.142-4.773,4.774-4.773c2.632,0,4.773,2.142,4.773,4.773C21.925,15.366,19.783,17.507,17.151,17.507z M17.151,9.959c-1.53,0-2.774,1.244-2.774,2.773c0,1.53,1.244,2.774,2.774,2.774c1.529,0,2.773-1.244,2.773-2.774C19.925,11.203,18.681,9.959,17.151,9.959z"/><path d="M23.686,24.041H10.617c-0.552,0-1-0.447-1-1c0-4.154,3.38-7.534,7.534-7.534s7.534,3.38,7.534,7.534C24.686,23.594,24.238,24.041,23.686,24.041z M11.708,22.041h10.888c-0.472-2.576-2.734-4.534-5.444-4.534S12.18,19.465,11.708,22.041z"/></svg>