<svg xmlns="http://www.w3.org/2000/svg" viewBox="0 0 32 32"><!--! Font Icona - https://fonticona.com | License - https://fonticona.com/license | Copyright 2022 FontIcona.com --><path d="M16,32C7.178,32,0,24.822,0,16S7.178,0,16,0s16,7.178,16,16S24.822,32,16,32z M16,2C8.28,2,2,8.28,2,16s6.28,14,14,14s14-6.28,14-14S23.72,2,16,2z"/><path d="M7.61,24.167c-0.171,0-0.345-0.044-0.504-0.137c-0.477-0.279-0.637-0.891-0.357-1.368l8.389-14.333c0.279-0.477,0.889-0.639,1.368-0.357c0.477,0.279,0.637,0.891,0.357,1.368L8.474,23.672C8.288,23.99,7.954,24.167,7.61,24.167z"/><path d="M24.39,24.167c-0.344,0-0.678-0.177-0.864-0.495L15.137,9.339c-0.279-0.477-0.119-1.089,0.357-1.368c0.479-0.28,1.09-0.118,1.368,0.357l8.389,14.333c0.279,0.477,0.119,1.089-0.357,1.368C24.735,24.123,24.562,24.167,24.39,24.167z"/><path d="M20.97,18.364h-9.963c-0.552,0-1-0.448-1-1s0.448-1,1-1h9.963c0.552,0,1,0.448,1,1S21.522,18.364,20.97,18.364z"/></svg>