<svg xmlns="http://www.w3.org/2000/svg" viewBox="0 0 32 32"><!--! Font Icona - https://fonticona.com | License - https://fonticona.com/license | Copyright 2022 FontIcona.com --><path d="M22.502,32c-0.4,0-0.778-0.242-0.932-0.637l-5.454-13.972l-2.078,5.858h1.378c0.422,0,0.798,0.265,0.941,0.662l2.425,6.75c0.187,0.52-0.083,1.092-0.603,1.279c-0.52,0.188-1.093-0.083-1.279-0.603l-2.188-6.088l-2.09,0c-0.325,0-0.629-0.158-0.817-0.423c-0.188-0.265-0.234-0.605-0.125-0.911l3.448-9.723c0.14-0.394,0.509-0.659,0.927-0.666c0.462,0.002,0.795,0.248,0.947,0.636l6.431,16.474c0.201,0.515-0.054,1.095-0.568,1.295C22.746,31.978,22.623,32,22.502,32z"/><path d="M1.646,31.106c-0.115,0-0.231-0.02-0.345-0.062c-0.518-0.19-0.784-0.765-0.593-1.284L11.228,1.155c0.19-0.519,0.765-0.785,1.284-0.593c0.518,0.19,0.784,0.765,0.593,1.284L2.584,30.451C2.435,30.855,2.053,31.106,1.646,31.106z"/><path d="M30.354,31.106c-0.407,0-0.79-0.251-0.938-0.655L18.896,1.846c-0.191-0.519,0.075-1.093,0.593-1.284c0.519-0.19,1.093,0.075,1.284,0.593l10.521,28.605c0.191,0.519-0.075,1.093-0.593,1.284C30.586,31.086,30.469,31.106,30.354,31.106z"/><path d="M29,32h-6.498v-2H29c0.551,0,1-0.449,1-1V3c0-0.551-0.449-1-1-1H3C2.449,2,2,2.449,2,3v26c0,0.551,0.449,1,1,1h14.842v2H3c-1.654,0-3-1.346-3-3V3c0-1.654,1.346-3,3-3h26c1.654,0,3,1.346,3,3v26C32,30.654,30.654,32,29,32z"/></svg>