<svg xmlns="http://www.w3.org/2000/svg" viewBox="0 0 32 32"><!--! Font Icona - https://fonticona.com | License - https://fonticona.com/license | Copyright 2022 FontIcona.com --><path d="M29,32H3c-1.654,0-3-1.346-3-3V3c0-1.654,1.346-3,3-3h26c1.654,0,3,1.346,3,3v26C32,30.654,30.654,32,29,32z M3,2C2.448,2,2,2.449,2,3v26c0,0.551,0.448,1,1,1h26c0.552,0,1-0.449,1-1V3c0-0.551-0.448-1-1-1H3z"/><path d="M26.896,24.539c-0.553,0-1-0.448-1-1V5.987c0-0.552,0.447-1,1-1s1,0.448,1,1v17.552C27.896,24.091,27.448,24.539,26.896,24.539z"/><path d="M22.257,23.902c-3.108,0-5.638-3.009-5.638-6.707s2.529-6.707,5.638-6.707c3.109,0,5.639,3.008,5.639,6.707S25.366,23.902,22.257,23.902z M22.257,12.489c-2.006,0-3.638,2.111-3.638,4.707c0,2.596,1.632,4.707,3.638,4.707c2.007,0,3.639-2.111,3.639-4.707C25.896,14.6,24.264,12.489,22.257,12.489z"/><path d="M15.617,24.402c-0.203,0-0.408-0.062-0.585-0.19c-2.139-1.548-2.207-4.475-2.252-6.412c-0.01-0.411,0.007-0.853,0.025-1.309c0.052-1.323,0.105-2.691-0.551-3.517c-0.829-1.045-1.924-1.073-2.701-0.913c-1.437,0.298-2.852,1.463-3.155,2.596c-0.143,0.534-0.691,0.852-1.225,0.707c-0.533-0.143-0.85-0.691-0.707-1.225c0.495-1.85,2.507-3.585,4.68-4.037c1.844-0.383,3.549,0.209,4.675,1.627c1.118,1.407,1.043,3.31,0.982,4.84c-0.016,0.412-0.032,0.812-0.023,1.184c0.035,1.542,0.09,3.872,1.424,4.838c0.448,0.324,0.548,0.949,0.225,1.396C16.232,24.259,15.927,24.402,15.617,24.402z"/><path d="M9.007,23.833c-0.011,0-0.021,0-0.032,0c-2.391-0.01-4.13-1.039-4.652-2.753c-0.357-1.177-0.274-2.221,0.249-3.105c1.148-1.938,4.121-2.558,6.996-3.158c0.646-0.135,1.29-0.269,1.904-0.417c0.537-0.128,1.077,0.2,1.207,0.738c0.129,0.537-0.201,1.077-0.738,1.206c-0.634,0.152-1.298,0.292-1.965,0.431c-2.336,0.487-4.984,1.04-5.683,2.219c-0.229,0.386-0.247,0.877-0.057,1.503c0.375,1.231,2.197,1.334,2.746,1.336c0.009,0,0.017,0,0.024,0c1.856,0,3.687-0.85,4.004-1.863c0.164-0.527,0.722-0.822,1.253-0.655c0.527,0.165,0.82,0.726,0.655,1.253C14.246,22.715,11.441,23.833,9.007,23.833z"/><path d="M26.896,27.888H5.104c-0.553,0-1-0.448-1-1s0.447-1,1-1h21.791c0.553,0,1,0.448,1,1S27.448,27.888,26.896,27.888z"/></svg>