<svg xmlns="http://www.w3.org/2000/svg" viewBox="0 0 32 32"><!--! Font Icona - https://fonticona.com | License - https://fonticona.com/license | Copyright 2022 FontIcona.com --><circle cx="15.963" cy="10.632" r="1.79"/><path d="M27.265,27.522h-7.386c-0.554,0-1.003-0.449-1.003-1.003s0.449-1.003,1.003-1.003h7.052l-5.943-7.669c-0.491-0.587-0.623-1.326-0.332-1.949c0.296-0.633,0.968-1.011,1.797-1.011h0.227l-6.505-8.455c-0.109-0.132-0.182-0.156-0.183-0.156c-0.049,0.005-0.192,0.103-0.269,0.192l-6.479,8.531h0.229c0.826,0,1.473,0.338,1.776,0.927c0.179,0.347,0.379,1.068-0.288,2.001l-5.746,7.588h6.832c0.554,0,1.003,0.449,1.003,1.003s-0.449,1.003-1.003,1.003H4.661c-1.221,0-1.64-0.691-1.763-0.988c-0.265-0.639-0.063-1.37,0.553-2.014l5.691-7.515H8.913c-0.828,0-1.5-0.378-1.797-1.011c-0.292-0.623-0.159-1.361,0.354-1.977l6.686-8.803C14.256,5.092,14.958,4.271,16,4.271c0.455,0,1.127,0.158,1.747,0.915l6.733,8.75c0.688,0.962,0.488,1.683,0.31,2.03c-0.303,0.589-0.95,0.927-1.776,0.927h-0.224l5.941,7.668c0.69,0.964,0.49,1.686,0.312,2.033C28.738,27.184,28.091,27.522,27.265,27.522z M22.332,16.907L22.332,16.907L22.332,16.907z M8.792,14.985L8.792,14.985L8.792,14.985z M23.176,14.87"/><path d="M20.439,31.997h-9.288c-1.23,0-2.122-0.892-2.122-2.122v-3.133c0-0.554,0.449-1.003,1.003-1.003s1.003,0.449,1.003,1.003v3.133c0,0.067,0.013,0.097,0.016,0.104h0c0.004,0,0.035,0.012,0.099,0.012h9.288c0.067,0,0.097-0.013,0.104-0.016c-0.001-0.002,0.012-0.033,0.012-0.099v-3.356c0-0.554,0.449-1.003,1.003-1.003s1.003,0.449,1.003,1.003v3.356C22.562,31.105,21.669,31.997,20.439,31.997z M11.053,29.98h0.01H11.053z"/><path d="M17.003,12.121c-0.817,0-1.544-0.245-2.11-0.756l1.342-1.483c0.767,0.694,3.17-0.169,5.119-2.322c0.982-1.085,1.708-2.339,1.99-3.441c0.223-0.869,0.152-1.572-0.19-1.882c-0.766-0.694-3.17,0.169-5.119,2.322c-0.391,0.431-0.74,0.886-1.038,1.351L15.314,4.83c0.357-0.558,0.774-1.102,1.239-1.614c2.736-3.024,6.152-4.084,7.943-2.463c0.93,0.841,1.209,2.213,0.785,3.863c-0.366,1.427-1.234,2.949-2.444,4.286C20.964,10.971,18.773,12.121,17.003,12.121z"/></svg>