<svg xmlns="http://www.w3.org/2000/svg" viewBox="0 0 32 32"><!--! Font Icona - https://fonticona.com | License - https://fonticona.com/license | Copyright 2022 FontIcona.com --><path d="M16.584,32h-1.169c-1.378,0-2.5-1.122-2.5-2.5v-2.435c0-0.552,0.448-1,1-1h4.169c0.552,0,1,0.448,1,1V29.5C19.084,30.878,17.963,32,16.584,32z M14.916,28.065V29.5c0,0.276,0.224,0.5,0.5,0.5h1.169c0.276,0,0.5-0.224,0.5-0.5v-1.435H14.916z"/><path d="M18.084,25.463h-4.169c-0.261,0-0.511-0.102-0.698-0.284l-4.774-4.648c-3.836-3.852-5.267-8.318-4.263-13.288C5.337,1.514,12.417,0,16,0s10.663,1.514,11.819,7.243c1.003,4.969-0.427,9.436-4.252,13.277l-4.785,4.659C18.595,25.361,18.345,25.463,18.084,25.463z M14.322,23.463h3.356l4.482-4.365c3.313-3.327,4.561-7.186,3.698-11.459C25.023,3.501,19.505,2,16,2S6.977,3.501,6.142,7.639c-0.863,4.273,0.385,8.132,3.708,11.47L14.322,23.463z"/><path d="M15.234,25.105c-11.567-13.794-0.03-24.731,0.088-24.84l1.358,1.468c-0.423,0.394-10.236,9.775,0.086,22.087L15.234,25.105z"/><path d="M16.788,25.079l-1.576-1.231c10.207-13.065,0.549-21.729,0.133-22.092l1.309-1.512C16.77,0.344,28.19,10.483,16.788,25.079z"/></svg>