<svg xmlns="http://www.w3.org/2000/svg" viewBox="0 0 32 32"><!--! Font Icona - https://fonticona.com | License - https://fonticona.com/license | Copyright 2022 FontIcona.com --><path d="M28.417,15.435h-2v-1.306c0-0.227-0.399-0.569-1-0.569H6.583c-0.601,0-1,0.343-1,0.569v1.306h-2v-1.306c0-1.417,1.346-2.569,3-2.569h18.833c1.654,0,3,1.152,3,2.569V15.435z"/><path d="M18.72,9.525H13.28c-0.552,0-1-0.447-1-1s0.448-1,1-1h5.439c0.552,0,1,0.447,1,1S19.272,9.525,18.72,9.525z"/><path d="M24,17.621H8c-4.411,0-8-3.565-8-7.947V3c0-1.654,1.346-3,3-3h26c1.654,0,3,1.346,3,3v6.674C32,14.056,28.411,17.621,24,17.621z M3,2C2.449,2,2,2.448,2,3v6.674c0,3.279,2.691,5.947,6,5.947h16c3.309,0,6-2.668,6-5.947V3c0-0.552-0.449-1-1-1H3z"/><circle cx="4.928" cy="4.762" r="1.25"/><circle cx="5.011" cy="8.112" r="1.25"/><path d="M15.994,30.81c-0.552,0-1-0.447-1-1v-9.78c0-0.553,0.448-1,1-1s1,0.447,1,1v9.78C16.994,30.362,16.546,30.81,15.994,30.81z"/><path d="M15.994,32c-0.332,0-0.642-0.164-0.828-0.438l-1.615-2.381c-0.31-0.457-0.191-1.079,0.266-1.389c0.457-0.311,1.079-0.192,1.389,0.266l0.788,1.161l0.788-1.161c0.311-0.457,0.933-0.576,1.389-0.266c0.457,0.31,0.576,0.932,0.266,1.389l-1.615,2.381C16.636,31.836,16.326,32,15.994,32z"/><path d="M2.466,27.363c-0.325,0-0.643-0.158-0.835-0.449c-0.304-0.461-0.177-1.081,0.283-1.386c3.276-2.163,5.547-4.108,7.145-6.121c0.343-0.432,0.973-0.504,1.405-0.161c0.432,0.344,0.504,0.973,0.161,1.405c-1.733,2.183-4.151,4.264-7.609,6.547C2.847,27.31,2.655,27.363,2.466,27.363z"/><path d="M5.624,28.118c-0.016,0-0.032,0-0.048-0.001c-1.33-0.063-2.667-0.257-3.973-0.576c-0.266-0.065-0.494-0.237-0.63-0.475s-0.169-0.521-0.09-0.783c0.289-0.968,0.569-1.939,0.839-2.915c0.147-0.533,0.702-0.844,1.23-0.697c0.532,0.147,0.845,0.698,0.697,1.23c-0.178,0.642-0.359,1.28-0.545,1.918c0.851,0.159,1.71,0.26,2.566,0.3c0.551,0.026,0.978,0.494,0.952,1.046C6.596,27.701,6.154,28.118,5.624,28.118z"/><path d="M29.534,27.356c-0.189,0-0.38-0.054-0.55-0.165c-3.459-2.284-5.877-4.365-7.609-6.547c-0.343-0.433-0.271-1.062,0.162-1.405c0.431-0.342,1.061-0.271,1.405,0.161c1.597,2.013,3.867,3.957,7.145,6.121c0.46,0.305,0.587,0.925,0.283,1.386C30.177,27.198,29.858,27.356,29.534,27.356z"/><path d="M26.376,28.111c-0.531,0-0.973-0.418-0.998-0.953c-0.025-0.552,0.401-1.021,0.953-1.046c0.855-0.04,1.714-0.14,2.565-0.299c-0.186-0.638-0.368-1.277-0.545-1.918c-0.147-0.532,0.165-1.083,0.697-1.23c0.534-0.146,1.083,0.164,1.231,0.697c0.27,0.975,0.55,1.947,0.839,2.915c0.079,0.263,0.046,0.546-0.09,0.783s-0.364,0.409-0.63,0.475c-1.308,0.319-2.645,0.514-3.974,0.575C26.408,28.111,26.392,28.111,26.376,28.111z"/></svg>