<svg xmlns="http://www.w3.org/2000/svg" viewBox="0 0 32 32"><!--! Font Icona - https://fonticona.com | License - https://fonticona.com/license | Copyright 2022 FontIcona.com --><path d="M24.011,32c-1.556,0-3.193-0.375-4.591-1.095c-1.388-0.715-2.446-1.777-3.42-2.882c-0.974,1.105-2.032,2.167-3.42,2.882c-2.208,1.137-5.016,1.415-7.151,0.709c-1.516-0.5-2.666-1.475-3.327-2.817c-1.417-2.878,0.041-6.689,1.036-8.705c1.007-2.041,1.992-4.09,2.979-6.141c0.725-1.507,1.449-3.013,2.183-4.517l0.078-0.161c0.847-1.737,1.724-3.533,2.533-5.317C12.682,0.047,15.833,0,15.976,0c0.001,0,0.001,0,0.001,0h0.001c0.189,0,3.34,0.047,5.113,3.957c0.809,1.784,1.686,3.58,2.532,5.317l0.078,0.161c0.733,1.504,1.458,3.01,2.183,4.517c0.986,2.05,1.972,4.1,2.979,6.141c0.995,2.016,2.453,5.827,1.036,8.705c-0.661,1.343-1.812,2.317-3.327,2.817C25.787,31.874,24.912,32,24.011,32z M17.314,26.487c0.902,1.039,1.859,2.041,3.021,2.64c1.438,0.74,3.729,1.209,5.608,0.588c1.008-0.333,1.734-0.939,2.159-1.802c1.077-2.187-0.364-5.579-1.034-6.936c-1.011-2.047-1.999-4.104-2.988-6.16c-0.723-1.503-1.445-3.007-2.177-4.507l-0.079-0.161c-0.853-1.75-1.735-3.559-2.556-5.368C18.048,2.089,16.094,2.002,16.012,2c-0.105,0.002-2.06,0.089-3.28,2.783c-0.821,1.809-1.704,3.618-2.557,5.368l-0.079,0.161c-0.731,1.5-1.454,3.003-2.177,4.507c-0.989,2.056-1.978,4.112-2.988,6.159c-0.67,1.357-2.111,4.75-1.034,6.936c0.425,0.863,1.151,1.469,2.159,1.802c1.877,0.619,4.17,0.152,5.608-0.588c1.162-0.599,2.119-1.601,3.021-2.64c-0.957-1.15-1.974-2.484-2.769-3.96c-0.351-0.65-0.648-1.343-0.887-2.06c-0.556-1.682-0.674-3.168-0.35-4.42c0.58-2.247,2.717-3.764,5.315-3.773l0,0c0.009,0,0.018,0,0.025,0c2.587,0,4.715,1.514,5.298,3.773c0.324,1.251,0.206,2.738-0.35,4.419c-0.238,0.717-0.536,1.41-0.888,2.061C19.288,24.004,18.271,25.337,17.314,26.487z M16.004,14.274c-1.293,0.005-2.955,0.604-3.388,2.274c-0.222,0.861-0.114,1.999,0.312,3.291c0.201,0.605,0.453,1.191,0.749,1.74c0.656,1.218,1.5,2.354,2.322,3.359c0.822-1.006,1.666-2.141,2.321-3.359c0.297-0.549,0.549-1.135,0.75-1.741c0.427-1.291,0.534-2.429,0.312-3.29c-0.435-1.679-2.08-2.273-3.364-2.273C16.015,14.274,16.009,14.274,16.004,14.274L16.004,14.274z"/></svg>