<svg xmlns="http://www.w3.org/2000/svg" viewBox="0 0 32 32"><!--! Font Icona - https://fonticona.com | License - https://fonticona.com/license | Copyright 2022 FontIcona.com --><path d="M29,32H3c-1.654,0-3-1.346-3-3V3c0-1.654,1.346-3,3-3h26c1.654,0,3,1.346,3,3v26C32,30.654,30.654,32,29,32z M3,2C2.448,2,2,2.449,2,3v26c0,0.551,0.448,1,1,1h26c0.552,0,1-0.449,1-1V3c0-0.551-0.448-1-1-1H3z"/><path d="M16.326,26.162c-5.144,0-9.328-4.185-9.328-9.329s4.185-9.329,9.328-9.329c5.145,0,9.329,4.185,9.329,9.329S21.471,26.162,16.326,26.162z M16.326,9.505c-4.041,0-7.328,3.288-7.328,7.329s3.287,7.329,7.328,7.329s7.329-3.288,7.329-7.329S20.367,9.505,16.326,9.505z"/><path d="M16.577,18.2c-0.235,0-0.466-0.083-0.647-0.238c-0.224-0.19-0.353-0.468-0.353-0.762v-4.958c0-0.552,0.447-1,1-1c2.903,0,5.265,2.362,5.265,5.265c0,0.49-0.355,0.908-0.84,0.987l-4.265,0.694C16.685,18.195,16.631,18.2,16.577,18.2z M20.842,16.506h0.01H20.842z M17.577,13.398v2.626l2.157-0.351C19.45,14.597,18.63,13.737,17.577,13.398z"/><path d="M18.226,6.5h-3.799c-0.553,0-1-0.448-1-1s0.447-1,1-1h3.799c0.553,0,1,0.448,1,1S18.778,6.5,18.226,6.5z"/><path d="M7.039,10.963c-0.253,0-0.506-0.095-0.701-0.287C5.944,10.29,5.938,9.656,6.326,9.263l1.401-1.426c0.386-0.394,1.019-0.4,1.414-0.013c0.394,0.387,0.399,1.021,0.012,1.414l-1.401,1.426C7.557,10.863,7.298,10.963,7.039,10.963z"/></svg>