<svg xmlns="http://www.w3.org/2000/svg" viewBox="0 0 32 32"><!--! Font Icona - https://fonticona.com | License - https://fonticona.com/license | Copyright 2022 FontIcona.com --><path d="M30.423,2H1.577c-0.552,0-1-0.448-1-1s0.448-1,1-1h28.846c0.553,0,1,0.448,1,1S30.976,2,30.423,2z"/><path d="M21.577,12H10.423c-0.552,0-1-0.448-1-1s0.448-1,1-1h11.154c0.553,0,1,0.448,1,1S22.13,12,21.577,12z"/><path d="M25.808,22H6.192c-0.552,0-1-0.447-1-1s0.448-1,1-1h19.615c0.553,0,1,0.447,1,1S26.36,22,25.808,22z"/><path d="M23.5,32h-15c-0.552,0-1-0.447-1-1s0.448-1,1-1h15c0.553,0,1,0.447,1,1S24.053,32,23.5,32z"/></svg>