<svg xmlns="http://www.w3.org/2000/svg" viewBox="0 0 32 32"><!--! Font Icona - https://fonticona.com | License - https://fonticona.com/license | Copyright 2022 FontIcona.com --><path d="M25,2H7C6.448,2,6,1.552,6,1s0.448-1,1-1h18c0.553,0,1,0.448,1,1S25.553,2,25,2z"/><path d="M19,12H1c-0.552,0-1-0.448-1-1s0.448-1,1-1h18c0.553,0,1,0.448,1,1S19.553,12,19,12z"/><path d="M31,22H13c-0.552,0-1-0.447-1-1s0.448-1,1-1h18c0.553,0,1,0.447,1,1S31.553,22,31,22z"/><path d="M25,32H7c-0.552,0-1-0.447-1-1s0.448-1,1-1h18c0.553,0,1,0.447,1,1S25.553,32,25,32z"/></svg>