<svg xmlns="http://www.w3.org/2000/svg" viewBox="0 0 32 32"><!--! Font Icona - https://fonticona.com | License - https://fonticona.com/license | Copyright 2022 FontIcona.com --><path d="M30.423,2H1.577c-0.552,0-1-0.448-1-1s0.448-1,1-1h28.846c0.553,0,1,0.448,1,1S30.976,2,30.423,2z"/><path d="M30.423,12H1.577c-0.552,0-1-0.448-1-1s0.448-1,1-1h28.846c0.553,0,1,0.448,1,1S30.976,12,30.423,12z"/><path d="M30.423,22H1.577c-0.552,0-1-0.447-1-1s0.448-1,1-1h28.846c0.553,0,1,0.447,1,1S30.976,22,30.423,22z"/><path d="M30.423,32H1.577c-0.552,0-1-0.447-1-1s0.448-1,1-1h28.846c0.553,0,1,0.447,1,1S30.976,32,30.423,32z"/></svg>