<svg xmlns="http://www.w3.org/2000/svg" viewBox="0 0 32 32"><!--! Font Icona - https://fonticona.com | License - https://fonticona.com/license | Copyright 2022 FontIcona.com --><path d="M29.239,23.561c-0.124,0-0.248-0.036-0.356-0.133c-0.144-0.13-0.155-0.375-0.033-0.729c0.771-1.763,1.121-3.292,0.911-3.445c-0.512-0.357-2.915-0.166-3.451-0.044h-0.001c-0.398,0.088-0.715,0.158-0.871-0.157c-0.089-0.184-0.062-0.334-0.022-0.429c0.099-0.244,0.358-0.349,0.409-0.368c0.458-0.189,4.594-1.846,5.883-0.29c1.18,1.176-1.571,4.932-1.889,5.355l-0.053,0.052C29.646,23.461,29.443,23.561,29.239,23.561z"/><path d="M5.938,18.072c-0.553,0-1-0.447-1-1V7.541c0-0.553,0.447-1,1-1s1,0.447,1,1v9.531C6.938,17.625,6.491,18.072,5.938,18.072z"/><path d="M8.58,15.223c-0.145,0-0.291-0.01-0.438-0.031c-1.245-0.18-2.432-1.112-3.098-2.436c-0.248-0.493-0.05-1.094,0.444-1.343c0.489-0.248,1.094-0.05,1.343,0.444c0.364,0.725,1.006,1.27,1.596,1.354c0.357,0.048,0.683-0.08,0.985-0.403c0.75-0.801,1.081-2.375,0.723-3.436C9.919,8.73,9.278,8.549,8.915,8.497C8.078,8.379,7.163,8.71,6.759,9.289c-0.317,0.453-0.94,0.566-1.392,0.249C4.914,9.223,4.802,8.6,5.118,8.146c0.836-1.201,2.468-1.855,4.079-1.63c1.371,0.195,2.431,1.023,2.833,2.216c0.596,1.762,0.099,4.102-1.156,5.443C10.232,14.86,9.432,15.223,8.58,15.223z"/><path d="M15.815,14.966c-0.395,0-0.782-0.068-1.155-0.208c-1.173-0.441-1.845-1.41-1.754-2.529c0.102-1.238,1.113-2.325,2.405-2.582c1.153-0.231,2.173-0.013,3.16,0.2c0.54,0.115,0.914,0.653,0.798,1.193c-0.084,0.391-0.369,0.683-0.726,0.77c0.187,0.043,0.364,0.14,0.506,0.289c0.379,0.402,0.36,1.035-0.041,1.414C17.997,14.467,16.88,14.966,15.815,14.966z M16.327,11.548c-0.209,0-0.417,0.019-0.624,0.06c-0.465,0.093-0.778,0.479-0.803,0.784c-0.007,0.076-0.025,0.31,0.463,0.494c0.933,0.345,1.975-0.546,2.272-0.828c0.134-0.126,0.293-0.208,0.46-0.247c-0.019-0.003-0.044-0.009-0.044-0.009C17.432,11.668,16.872,11.548,16.327,11.548z"/><path d="M18.322,15.212c-0.553,0-1-0.447-1-1V8.98l0,0c-0.001,0-0.021-0.271-0.228-0.396c-0.161-0.1-0.844-0.354-2.784,0.523c-0.503,0.228-1.096,0.004-1.323-0.499s-0.004-1.096,0.499-1.323c2.091-0.946,3.63-1.068,4.703-0.375c1.101,0.71,1.133,1.934,1.133,2.07v5.231C19.322,14.765,18.875,15.212,18.322,15.212z"/><path d="M23.473,15.155c-0.398,0-0.775-0.24-0.931-0.634l-2.628-6.683c-0.202-0.515,0.051-1.095,0.564-1.297c0.512-0.199,1.094,0.05,1.297,0.564l2.628,6.683c0.202,0.515-0.051,1.095-0.564,1.297C23.719,15.133,23.595,15.155,23.473,15.155z"/><path d="M21.311,17.87c-0.371,0-0.759-0.068-1.154-0.209c-0.521-0.186-0.792-0.758-0.607-1.277c0.186-0.521,0.759-0.793,1.277-0.607c0.481,0.171,1.021,0.223,1.393-0.686c0.737-1.806,1.401-3.7,2.044-5.533c0.284-0.811,0.567-1.62,0.858-2.425c0.187-0.521,0.762-0.79,1.28-0.601c0.52,0.188,0.788,0.761,0.601,1.28c-0.288,0.799-0.57,1.603-0.853,2.407c-0.65,1.855-1.323,3.775-2.079,5.627C23.539,17.147,22.515,17.87,21.311,17.87z"/><path d="M0.983,18.527c1.094,0.575,7.002,4.123,15.356,3.768c7.998-0.391,11.476-2.246,11.872-2.382c0.17-0.089,0.99,0.12,0.391,0.711c-1.184,1.028-4.905,3.519-12.299,3.874C7.31,24.996,0.677,19.002,0.485,18.846C0.293,18.691-0.111,17.951,0.983,18.527z"/><path d="M15.241,24.777c-7.842,0-13.737-4.724-14.881-5.708c-0.188-0.155-0.484-0.568-0.301-0.848c0.23-0.346,0.775-0.054,1.039,0.083l0.262,0.142c4.778,2.607,9.819,3.813,14.968,3.599c3.267-0.16,7.928-0.685,11.574-2.273c0.109-0.048,0.185-0.08,0.228-0.095c0.182-0.102,0.646-0.002,0.838,0.26c0.087,0.118,0.241,0.438-0.19,0.865c-0.967,0.84-4.686,3.572-12.463,3.946C15.953,24.768,15.595,24.777,15.241,24.777z M0.619,18.63c0.008,0.009,0.016,0.016,0.022,0.021c1.216,1.046,7.464,6.053,15.647,5.597c7.618-0.366,11.225-3.011,12.148-3.812c0.114-0.113,0.132-0.187,0.13-0.199c-0.018-0.046-0.184-0.112-0.266-0.092c-0.046,0.018-0.108,0.045-0.199,0.085c-3.717,1.62-8.441,2.153-11.751,2.315c-5.254,0.216-10.372-1.009-15.23-3.659l-0.255-0.138C0.766,18.694,0.685,18.657,0.619,18.63z"/></svg>