<svg xmlns="http://www.w3.org/2000/svg" viewBox="0 0 32 32"><!--! Font Icona - https://fonticona.com | License - https://fonticona.com/license | Copyright 2022 FontIcona.com --><path d="M18.851,22.562c-0.181,0-0.36-0.049-0.52-0.146c-0.299-0.182-0.48-0.506-0.48-0.854v-0.791c-1.208,0.927-2.725,1.428-4.31,1.358c-1.576,0.095-3.233-0.479-4.582-1.618c-0.032-0.027-0.063-0.057-0.091-0.088c-1.101-1.201-1.731-2.833-1.731-4.478c0-2.687,1.186-6.045,6.833-6.781l3.679-0.477C17.438,8.073,16.896,7.7,15.653,7.7c-1.798,0-3.702,0.598-5.224,1.64C10.123,9.548,9.725,9.572,9.397,9.4C9.069,9.227,8.864,8.886,8.864,8.515V4.366c0-0.392,0.229-0.748,0.586-0.91c0.968-0.44,2.044-0.81,3.196-1.097c1.333-0.308,2.601-0.462,3.785-0.462c5.516,0,8.431,2.886,8.431,8.345v8.728c0,0.374-0.208,0.717-0.54,0.889L19.31,22.45C19.166,22.524,19.008,22.562,18.851,22.562z M10.3,19.025c0.958,0.791,2.074,1.17,3.221,1.106c1.875,0.046,3.513-0.856,4.365-2.419c0.176-0.32,0.512-0.521,0.878-0.521c0.553,0,1.086,0.447,1.086,1v1.727l3.013-1.558l-0.001-8.119c0-4.329-2.044-6.345-6.431-6.345c-1.033,0-2.15,0.137-3.318,0.407c-0.792,0.197-1.549,0.44-2.25,0.722v1.767C12.368,6.082,14.019,5.7,15.653,5.7c2.613,0,4.111,1.403,4.111,3.851c0,0.502-0.373,0.927-0.871,0.992l-4.666,0.605c-4.562,0.595-5.09,3.023-5.09,4.797C9.136,17.074,9.56,18.193,10.3,19.025z M14.703,17.896c-0.757,0-1.5-0.263-2.094-0.738c-0.029-0.023-0.057-0.048-0.083-0.074c-0.53-0.532-0.81-1.225-0.81-2.002c0-1.635,1.17-2.75,3.13-2.98l2.667-0.345c0.283-0.037,0.572,0.05,0.788,0.241c0.216,0.19,0.34,0.463,0.34,0.751v0.991c0.093,1.098-0.317,2.161-1.159,3C16.865,17.464,15.859,17.896,14.703,17.896z M13.906,15.632c0.234,0.172,0.508,0.263,0.797,0.263c0.326,0,0.93-0.067,1.314-0.515c0.352-0.354,0.693-0.845,0.629-1.495l-1.556,0.201c-1.375,0.162-1.375,0.746-1.375,0.995C13.716,15.315,13.773,15.483,13.906,15.632z"/><path d="M15.239,29.353c-7.845,0.001-13.737-4.724-14.88-5.709c-0.188-0.153-0.484-0.567-0.3-0.847c0.227-0.345,0.775-0.056,1.039,0.083l0.263,0.143c4.778,2.605,9.807,3.813,14.966,3.598c3.268-0.16,7.931-0.685,11.575-2.274c0.109-0.047,0.185-0.079,0.227-0.094c0.185-0.099,0.648-0.001,0.84,0.262c0.086,0.118,0.239,0.438-0.192,0.863c-0.967,0.84-4.686,3.572-12.462,3.946C15.952,29.343,15.593,29.353,15.239,29.353z"/><path d="M29.237,28.136c-0.123,0-0.247-0.036-0.354-0.132c-0.145-0.13-0.156-0.375-0.034-0.729c0.772-1.763,1.121-3.293,0.912-3.446c-0.513-0.357-2.916-0.166-3.452-0.044l0,0c-0.401,0.088-0.719,0.16-0.872-0.159c-0.088-0.182-0.061-0.332-0.022-0.427c0.1-0.244,0.36-0.349,0.411-0.367c0.457-0.189,4.592-1.849,5.881-0.291c1.18,1.177-1.57,4.932-1.888,5.355l-0.053,0.053C29.646,28.036,29.442,28.136,29.237,28.136z"/></svg>