<svg xmlns="http://www.w3.org/2000/svg" viewBox="0 0 32 32"><!--! Font Icona - https://fonticona.com | License - https://fonticona.com/license | Copyright 2022 FontIcona.com --><path d="M29.929,25.749h-1.993c-0.552,0-1-0.447-1-1s0.448-1,1-1h1.993c0.04,0,0.071-0.032,0.071-0.071v-4.184l-9.008-7.607l-18.92,0.001C2.032,11.888,2,11.92,2,11.959v11.719c0,0.039,0.032,0.071,0.071,0.071h0.868c0.552,0,1,0.447,1,1s-0.448,1-1,1H2.071C0.929,25.749,0,24.82,0,23.678V11.959c0-1.143,0.929-2.071,2.071-2.071h18.92c0.472,0,0.93,0.167,1.29,0.471l9.009,7.608c0.452,0.382,0.71,0.938,0.71,1.527v4.184C32,24.82,31.071,25.749,29.929,25.749z"/><path d="M21.882,25.749H9.025c-0.552,0-1-0.447-1-1s0.448-1,1-1h12.857c0.552,0,1,0.447,1,1S22.435,25.749,21.882,25.749z"/><path d="M24.914,28.771c-2.217,0-4.021-1.804-4.021-4.021s1.804-4.021,4.021-4.021s4.021,1.804,4.021,4.021S27.131,28.771,24.914,28.771z M24.914,22.728c-1.114,0-2.021,0.907-2.021,2.021s0.907,2.021,2.021,2.021c1.115,0,2.021-0.907,2.021-2.021S26.029,22.728,24.914,22.728z"/><path d="M5.971,28.771c-2.217,0-4.021-1.804-4.021-4.021s1.804-4.021,4.021-4.021s4.021,1.804,4.021,4.021S8.188,28.771,5.971,28.771z M5.971,22.728c-1.114,0-2.021,0.907-2.021,2.021s0.907,2.021,2.021,2.021c1.115,0,2.021-0.907,2.021-2.021S7.086,22.728,5.971,22.728z"/><path d="M11.146,21.267c-0.552,0-1-0.447-1-1V13.88c0-0.553,0.448-1,1-1s1,0.447,1,1v6.387C12.146,20.819,11.699,21.267,11.146,21.267z"/><path d="M14.325,18.088H7.968c-0.552,0-1-0.447-1-1s0.448-1,1-1h6.357c0.552,0,1,0.447,1,1S14.877,18.088,14.325,18.088z"/><path d="M20.285,11.888c-0.443,0-0.848-0.296-0.966-0.745l-0.33-1.249l-0.219,0.001l-0.299,1.229c-0.13,0.537-0.672,0.868-1.208,0.735c-0.537-0.131-0.866-0.671-0.735-1.208l0.375-1.543c0.009-0.036,0.02-0.071,0.032-0.106c0.233-0.639,0.822-1.072,1.501-1.106l0.842-0.001c0.724,0.03,1.328,0.483,1.547,1.13l0.427,1.608c0.141,0.534-0.178,1.081-0.711,1.222C20.456,11.877,20.37,11.888,20.285,11.888z"/><path d="M18.89,6.558c-0.552,0-1-0.447-1-1V4.229c0-0.553,0.448-1,1-1s1,0.447,1,1v1.328C19.89,6.11,19.442,6.558,18.89,6.558z"/><path d="M15.872,7.49c-0.256,0-0.512-0.098-0.708-0.293l-0.932-0.933c-0.39-0.391-0.39-1.023,0-1.414s1.024-0.391,1.415,0l0.932,0.933c0.39,0.391,0.39,1.023,0,1.414C16.383,7.393,16.127,7.49,15.872,7.49z"/><path d="M21.904,7.49c-0.258,0-0.515-0.099-0.711-0.297c-0.388-0.393-0.385-1.025,0.007-1.414l0.942-0.933c0.394-0.388,1.026-0.386,1.415,0.008c0.388,0.393,0.385,1.025-0.007,1.414l-0.942,0.933C22.412,7.394,22.158,7.49,21.904,7.49z"/><path d="M28.683,18.073h-7.18c-1.654,0-3-1.346-3-3v-4.186h2v4.186c0,0.552,0.449,1,1,1h7.18c0.552,0,1,0.447,1,1S29.235,18.073,28.683,18.073z"/></svg>