<svg xmlns="http://www.w3.org/2000/svg" viewBox="0 0 32 32"><!--! Font Icona - https://fonticona.com | License - https://fonticona.com/license | Copyright 2022 FontIcona.com --><path d="M19.144,15.644h1.805l-2.75-6.899h-1.977l-2.763,6.899h1.818l0.366-0.918h3.135L19.144,15.644z M16.313,13.047l0.897-2.249l0.898,2.249H16.313z"/><polygon points="25.631,15.644 23.821,15.644 22.509,12.034 22.509,15.635 20.83,15.635 20.83,8.745 23.064,8.745 24.763,13.253 25.986,8.745 28.28,8.745 28.28,15.635 26.602,15.635 26.628,12.195 "/><polygon points="19.883,18.346 19.883,16.667 14.663,16.667 14.663,22.307 14.741,23.147 19.883,23.147 19.883,21.468 16.342,21.468 16.342,20.746 19.804,20.746 19.804,19.067 16.342,19.067 16.342,18.346 "/><polygon points="27.753,16.676 25.501,16.676 23.884,18.572 22.266,16.705 20.014,16.705 22.78,19.867 20.014,23.11 22.212,23.11 23.901,21.148 25.555,23.038 27.753,23.038 25.005,19.867 "/><path d="M29,32H3c-1.654,0-3-1.346-3-3V3c0-1.654,1.346-3,3-3h26c1.654,0,3,1.346,3,3v26C32,30.654,30.654,32,29,32z M3,2C2.449,2,2,2.449,2,3v26c0,0.552,0.449,1,1,1h26c0.552,0,1-0.448,1-1V3c0-0.551-0.448-1-1-1H3z"/></svg>