<svg xmlns="http://www.w3.org/2000/svg" viewBox="0 0 32 32"><!--! Font Icona - https://fonticona.com | License - https://fonticona.com/license | Copyright 2022 FontIcona.com --><path d="M16,32c-0.314,0-0.61-0.148-0.8-0.399l-1.895-2.523c-5.146-1.976-7.122-4.803-7.871-6.844c-0.857-2.337-0.348-4.209-0.326-4.288c0.111-0.396,0.453-0.683,0.862-0.725c0.419-0.039,0.802,0.172,0.989,0.537c1.919,3.725,4.815,5.047,6.382,5.505V7.416c-0.931-0.779-1.49-1.982-1.49-3.267C11.852,1.861,13.713,0,16,0s4.148,1.861,4.148,4.149c0,1.284-0.56,2.488-1.49,3.267v15.848c1.564-0.458,4.462-1.779,6.382-5.505c0.187-0.365,0.568-0.577,0.989-0.537c0.409,0.042,0.751,0.329,0.862,0.725c0.021,0.073,1.909,7.255-8.197,11.132L16.8,31.601C16.61,31.852,16.314,32,16,32z M7.444,21.888c0.769,1.758,2.605,3.855,6.833,5.418c0.181,0.067,0.338,0.184,0.453,0.337L16,29.335l1.27-1.691c0.115-0.154,0.272-0.271,0.453-0.337c4.226-1.562,6.063-3.659,6.831-5.417c-3.064,3.222-6.618,3.582-6.807,3.599c-0.278,0.026-0.557-0.069-0.764-0.258s-0.325-0.457-0.325-0.738V6.904c0-0.351,0.184-0.675,0.483-0.856c0.611-0.369,1.007-1.114,1.007-1.899C18.148,2.964,17.185,2,16,2s-2.148,0.964-2.148,2.149c0,0.785,0.396,1.53,1.007,1.899c0.3,0.181,0.483,0.506,0.483,0.856v17.588c0,0.281-0.118,0.548-0.325,0.738c-0.206,0.189-0.483,0.286-0.764,0.258C14.064,25.471,10.51,25.111,7.444,21.888z"/><rect x="17.659" y="9.715" width="5.418" height="2"/><rect x="8.923" y="9.715" width="5.419" height="2"/><circle cx="8.923" cy="10.715" r="2"/><circle cx="23.077" cy="10.715" r="2"/></svg>