<svg xmlns="http://www.w3.org/2000/svg" viewBox="0 0 32 32"><!--! Font Icona - https://fonticona.com | License - https://fonticona.com/license | Copyright 2022 FontIcona.com --><path d="M23.634,25.469H8.366c-0.552,0-1-0.447-1-1V9.697c0-3.851,3.873-6.984,8.634-6.984s8.634,3.133,8.634,6.984v14.772C24.634,25.021,24.186,25.469,23.634,25.469z M9.366,23.469h13.268V9.697c0-2.748-2.976-4.984-6.634-4.984S9.366,6.949,9.366,9.697V23.469z"/><path d="M12.909,32c-1.595,0-2.893-1.468-2.893-3.271v-4.26c0-0.553,0.448-1,1-1s1,0.447,1,1v4.26c0,0.678,0.417,1.271,0.893,1.271s0.893-0.594,0.893-1.271v-4.26c0-0.553,0.448-1,1-1s1,0.447,1,1v4.26C15.801,30.532,14.503,32,12.909,32z"/><path d="M19.091,32c-1.595,0-2.893-1.468-2.893-3.271v-4.26c0-0.553,0.448-1,1-1s1,0.447,1,1v4.26c0,0.678,0.417,1.271,0.893,1.271s0.893-0.594,0.893-1.271v-4.26c0-0.553,0.448-1,1-1s1,0.447,1,1v4.26C21.984,30.532,20.686,32,19.091,32z"/><path d="M25.272,22.692c-1.455,0-2.639-1.33-2.639-2.966v-6.774c0-1.636,1.184-2.966,2.639-2.966s2.639,1.331,2.639,2.966v6.774C27.911,21.362,26.728,22.692,25.272,22.692z M25.272,11.986c-0.301,0-0.639,0.413-0.639,0.966v6.774c0,0.553,0.337,0.966,0.639,0.966s0.639-0.413,0.639-0.966v-6.774C25.911,12.399,25.574,11.986,25.272,11.986z"/><path d="M6.728,22.692c-1.455,0-2.639-1.33-2.639-2.966v-6.774c0-1.636,1.184-2.966,2.639-2.966s2.639,1.331,2.639,2.966v6.774C9.366,21.362,8.183,22.692,6.728,22.692z M6.728,11.986c-0.301,0-0.639,0.413-0.639,0.966v6.774c0,0.553,0.337,0.966,0.639,0.966s0.639-0.413,0.639-0.966v-6.774C7.366,12.399,7.029,11.986,6.728,11.986z"/><path d="M23.634,11.715H8.366c-0.552,0-1-0.448-1-1s0.448-1,1-1h15.268c0.552,0,1,0.448,1,1S24.186,11.715,23.634,11.715z"/><path d="M12.279,4.965c-0.352,0-0.693-0.186-0.876-0.516l-1.64-2.965C9.495,1,9.67,0.392,10.154,0.125c0.483-0.268,1.092-0.092,1.359,0.391l1.64,2.965c0.268,0.483,0.092,1.092-0.391,1.359C12.608,4.925,12.442,4.965,12.279,4.965z"/><path d="M19.721,4.965c-0.164,0-0.33-0.04-0.483-0.125c-0.483-0.267-0.659-0.875-0.391-1.359l1.64-2.965c0.268-0.483,0.876-0.659,1.359-0.391C22.33,0.392,22.505,1,22.237,1.484l-1.64,2.965C20.415,4.779,20.073,4.965,19.721,4.965z"/><circle cx="13.363" cy="7.345" r="1.25"/><circle cx="18.637" cy="7.345" r="1.25"/></svg>