<svg xmlns="http://www.w3.org/2000/svg" viewBox="0 0 32 32"><!--! Font Icona - https://fonticona.com | License - https://fonticona.com/license | Copyright 2022 FontIcona.com --><path d="M16,32c-5.288,0-9.589-4.302-9.589-9.589s4.302-9.589,9.589-9.589s9.589,4.302,9.589,9.589S21.288,32,16,32z M16,14.821c-4.185,0-7.589,3.405-7.589,7.589S11.815,30,16,30s7.589-3.405,7.589-7.589S20.185,14.821,16,14.821z"/><path d="M16,14.821c-0.552,0-1-0.448-1-1V1c0-0.552,0.448-1,1-1s1,0.448,1,1v12.821C17,14.374,16.552,14.821,16,14.821z"/><path d="M20.372,10.411h-8.743c-0.552,0-1-0.448-1-1s0.448-1,1-1h8.743c0.552,0,1,0.448,1,1S20.924,10.411,20.372,10.411z"/><path class="st0" d="M20.372,6.118c-0.256,0-0.512-0.098-0.707-0.293L16,2.161l-3.665,3.664c-0.391,0.391-1.023,0.391-1.414,0s-0.391-1.024,0-1.414l3.928-3.928c0.621-0.622,1.679-0.623,2.302,0l3.927,3.927c0.391,0.39,0.391,1.023,0,1.414C20.883,6.02,20.627,6.118,20.372,6.118z"/></svg>