<svg xmlns="http://www.w3.org/2000/svg" viewBox="0 0 32 32"><!--! Font Icona - https://fonticona.com | License - https://fonticona.com/license | Copyright 2022 FontIcona.com --><path d="M16.116,31.999c-0.264,0-0.528-0.01-0.793-0.029c-3.128-0.229-5.705-1.102-7.657-2.592c-2.582-1.971-4.191-5.929-2.415-9.141c0.776-1.403,1.807-1.799,2.535-1.884c1.18-0.13,2.459,0.45,3.508,1.609c1.393,1.538,4.156,4.589,2.265,6.579c-1.093,1.148-2.597,1.329-3.925,0.466c-1.616-1.047-2.329-3.03-2.358-3.114c-0.184-0.521,0.09-1.092,0.611-1.275c0.521-0.179,1.09,0.09,1.275,0.608c0.011,0.031,0.531,1.436,1.561,2.104c0.327,0.211,0.826,0.425,1.388-0.167c0.144-0.15,0.407-0.87-2.233-3.786c-0.667-0.736-1.337-1.105-1.86-1.036C7.635,20.385,7.293,20.676,7,21.205c-1.237,2.237,0.012,5.158,1.878,6.583c1.638,1.251,3.855,1.986,6.59,2.188c3.169,0.226,6.273-1.256,8.111-3.886c1.639-2.347,2.351-6.126,1.621-8.604c-0.47-1.596-2.13-2.333-3.936-3.007c-1.906-0.712-3.621-0.65-5.665-0.495c-0.661,0.05-0.857,0.574-0.902,0.734c-0.044,0.158-0.146,0.705,0.389,1.087c0.165,0.118,0.35,0.237,0.555,0.356c0.816,0.474,2.731,0.973,3.401,1.125l2.321,0.503c0.433,0.094,0.753,0.462,0.786,0.903c0.033,0.441-0.229,0.853-0.643,1.01c-1.532,0.579-1.971,1.849-1.989,1.902c-0.428,1.633,0.268,2.578,0.297,2.618c0.329,0.435,0.255,1.06-0.174,1.396c-0.43,0.337-1.042,0.275-1.387-0.146c-0.056-0.068-1.369-1.719-0.656-4.429c0.025-0.081,0.297-0.931,1.083-1.789l-0.072-0.016c-0.287-0.065-2.747-0.637-3.971-1.349c-0.264-0.152-0.501-0.306-0.713-0.457c-1.044-0.746-1.497-2.022-1.154-3.253c0.344-1.233,1.395-2.093,2.676-2.19c2.213-0.169,4.231-0.239,6.516,0.615c1.632,0.61,4.364,1.63,5.155,4.316c0.896,3.046,0.08,7.48-1.9,10.314C23.134,30.22,19.7,31.999,16.116,31.999z"/><path d="M22.447,14.865c-0.108,0-0.219-0.018-0.327-0.056c-0.522-0.181-0.798-0.75-0.618-1.272c0.023-0.067,2.308-6.673,2.681-8.614c0.4-2.083,0.115-2.688-0.195-2.829c-0.202,0-0.813,0.3-1.935,3.552l-0.121,0.347c-0.28,0.786-0.533,1.586-0.787,2.385c-0.484,1.527-0.985,3.106-1.67,4.599c-0.23,0.502-0.824,0.723-1.326,0.491c-0.502-0.23-0.722-0.824-0.491-1.326c0.634-1.38,1.094-2.832,1.582-4.368c0.26-0.822,0.521-1.643,0.808-2.451l0.115-0.329c0.679-1.97,1.524-4.123,2.967-4.743c0.551-0.238,1.134-0.229,1.687,0.022c2.11,0.961,1.543,3.915,1.33,5.026c-0.399,2.082-2.659,8.614-2.755,8.891C23.249,14.605,22.861,14.865,22.447,14.865z"/><path d="M12.363,15.334c-0.399,0-0.776-0.241-0.931-0.635c-0.682-1.735-1.323-4.225-1.889-6.422L9.117,6.648c-0.488-1.787-1.503-5.505,0.99-6.477c2.34-0.914,3.453,1.751,3.989,3.031l0.135,0.318c0.843,1.944,2.657,8.614,2.734,8.897c0.145,0.533-0.17,1.083-0.703,1.227c-0.537,0.146-1.083-0.17-1.227-0.703c-0.019-0.068-1.854-6.813-2.639-8.626l-0.145-0.341c-0.466-1.113-0.957-2.112-1.417-1.94c-0.305,0.119-0.683,0.808,0.212,4.087l0.433,1.657c0.552,2.142,1.177,4.569,1.813,6.189c0.202,0.514-0.051,1.094-0.565,1.296C12.608,15.312,12.484,15.334,12.363,15.334z"/><path d="M14.197,25.401c-0.6,0-1.2-0.157-1.722-0.563c-0.436-0.34-0.514-0.968-0.174-1.403c0.339-0.436,0.969-0.512,1.403-0.175c0.383,0.3,1.147,0.094,1.668-0.204c0.306-1.271-0.921-2.935-1.903-4.105c-0.15-0.18-0.307-0.373-0.471-0.575c-0.86-1.065-1.931-2.39-3.031-2.682c-0.455-0.121-0.979,0.342-1.274,0.821c-0.261,0.423,0.931,1.651,1.44,2.177c0.392,0.403,0.73,0.752,0.945,1.087c0.298,0.465,0.162,1.084-0.303,1.381c-0.465,0.299-1.084,0.161-1.381-0.303C9.29,20.691,8.99,20.383,8.7,20.084c-1.109-1.143-2.786-2.87-1.708-4.618c0.846-1.375,2.216-2.045,3.49-1.706c1.731,0.459,3.03,2.067,4.074,3.358c0.156,0.192,0.305,0.377,0.448,0.547c0.884,1.055,3.232,3.855,2.124,6.434c-0.07,0.162-0.181,0.303-0.321,0.407C16.194,24.962,15.198,25.401,14.197,25.401z"/></svg>