<svg xmlns="http://www.w3.org/2000/svg" viewBox="0 0 32 32"><!--! Font Icona - https://fonticona.com | License - https://fonticona.com/license | Copyright 2022 FontIcona.com --><path d="M16,32c-0.165,0-0.331-0.041-0.48-0.123L3.632,25.374c-0.284-0.155-0.476-0.438-0.513-0.761L0.964,6.183C0.91,5.721,1.181,5.283,1.618,5.126L15.661,0.06c0.22-0.079,0.459-0.079,0.679,0l14.042,5.066c0.437,0.157,0.708,0.595,0.654,1.057l-2.154,18.431c-0.038,0.322-0.229,0.605-0.513,0.761L16.48,31.877C16.331,31.959,16.165,32,16,32z M5.045,23.868L16,29.86l10.955-5.992l2.002-17.13L16,2.063L3.043,6.738L5.045,23.868z"/><path d="M8.819,24.819c-0.118,0-0.238-0.021-0.354-0.064c-0.516-0.196-0.776-0.773-0.581-1.29l0.014-0.035l2.278-6.013c0.002-0.006,0.005-0.013,0.007-0.02l4.882-12.882C15.212,4.126,15.584,3.87,16,3.87s0.788,0.257,0.935,0.646l4.878,12.874c0.008,0.019,0.016,0.038,0.022,0.058l2.281,6.019c0.196,0.517-0.064,1.094-0.581,1.29c-0.517,0.194-1.094-0.064-1.29-0.581l-2.047-5.402h-8.396l-2.047,5.402C9.603,24.573,9.223,24.819,8.819,24.819z M16,16.771h3.44L16,7.692l-3.44,9.08H16z"/></svg>