<svg xmlns="http://www.w3.org/2000/svg" viewBox="0 0 32 32"><!--! Font Icona - https://fonticona.com | License - https://fonticona.com/license | Copyright 2022 FontIcona.com --><path d="M17.975,32h-3.949c-0.274,0-0.536-0.112-0.724-0.311c-0.189-0.198-0.288-0.465-0.275-0.738l0.695-14.186l-5.576,1.008c-0.293,0.053-0.592-0.027-0.819-0.217c-0.228-0.19-0.359-0.472-0.359-0.768v-6.294c0-0.296,0.131-0.577,0.359-0.768c0.227-0.19,0.525-0.271,0.819-0.216l4.481,0.809c-1.056-1.712-1.855-3.603-1.52-5.777C11.452,2.31,13.372,0,15.987,0c2.369,0,4.513,1.995,4.906,4.541c0.336,2.178-0.466,4.072-1.519,5.777l4.479-0.809c0.291-0.054,0.591,0.026,0.819,0.216c0.227,0.19,0.358,0.471,0.358,0.768v6.294c0,0.296-0.132,0.577-0.358,0.768c-0.228,0.19-0.526,0.27-0.819,0.217l-5.575-1.008l0.694,14.188c0.013,0.273-0.086,0.54-0.274,0.738C18.51,31.888,18.248,32,17.975,32z M15.076,30h1.849L16.22,15.605c-0.015-0.305,0.11-0.599,0.339-0.8c0.229-0.202,0.537-0.286,0.837-0.232l5.636,1.018v-3.9l-5.636,1.018c-0.405,0.071-0.804-0.105-1.021-0.447c-0.218-0.342-0.208-0.783,0.026-1.114c1.415-2.002,2.863-4.05,2.515-6.301C18.705,3.472,17.487,2,16.014,2c-1.548,0-2.719,1.479-2.931,2.849c-0.347,2.248,1.1,4.296,2.499,6.277c0.234,0.332,0.253,0.784,0.035,1.126s-0.611,0.531-1.013,0.458l-5.637-1.018v3.9l5.637-1.018c0.299-0.055,0.608,0.031,0.837,0.232c0.229,0.201,0.354,0.496,0.339,0.8L15.076,30z"/></svg>