<svg xmlns="http://www.w3.org/2000/svg" viewBox="0 0 32 32"><!--! Font Icona - https://fonticona.com | License - https://fonticona.com/license | Copyright 2022 FontIcona.com --><path d="M8.994,25.894c-0.149,0-0.302-0.033-0.445-0.105c-0.494-0.246-0.695-0.847-0.448-1.341L16.979,6.66c0.247-0.493,0.845-0.695,1.341-0.448c0.494,0.247,0.695,0.847,0.448,1.341L9.89,25.34C9.715,25.69,9.361,25.894,8.994,25.894z"/><path d="M16.204,11.452c-0.375,0-0.734-0.211-0.905-0.573l-1.58-3.345c-0.235-0.5-0.022-1.096,0.478-1.332c0.5-0.237,1.096-0.022,1.331,0.477l1.58,3.345c0.235,0.5,0.022,1.096-0.478,1.332C16.492,11.421,16.347,11.452,16.204,11.452z"/><path d="M23.025,25.894c-0.375,0-0.734-0.212-0.905-0.573l-5.465-11.569c-0.235-0.5-0.022-1.096,0.478-1.332c0.5-0.235,1.095-0.021,1.331,0.477l5.465,11.57c0.235,0.499,0.022,1.095-0.478,1.331C23.313,25.863,23.168,25.894,23.025,25.894z"/><path d="M24.248,21.091h-3.493c-0.553,0-1-0.447-1-1s0.447-1,1-1h3.493c0.553,0,1,0.447,1,1S24.801,21.091,24.248,21.091z"/><path d="M17.962,21.091H7.752c-0.553,0-1-0.447-1-1s0.447-1,1-1h10.21c0.553,0,1,0.447,1,1S18.515,21.091,17.962,21.091z"/><path d="M29,32H3c-1.654,0-3-1.346-3-3V3c0-1.654,1.346-3,3-3h26c1.654,0,3,1.346,3,3v26C32,30.654,30.654,32,29,32z M3,2C2.448,2,2,2.449,2,3v26c0,0.552,0.448,1,1,1h26c0.552,0,1-0.448,1-1V3c0-0.551-0.448-1-1-1H3z"/></svg>