<svg xmlns="http://www.w3.org/2000/svg" viewBox="0 0 32 32"><!--! Font Icona - https://fonticona.com | License - https://fonticona.com/license | Copyright 2022 FontIcona.com --><path d="M16,32C7.178,32,0,24.822,0,16S7.178,0,16,0s16,7.178,16,16S24.822,32,16,32z M16,2C8.28,2,2,8.28,2,16s6.28,14,14,14s14-6.28,14-14S23.72,2,16,2z"/><path d="M8.994,24.894c-0.149,0-0.302-0.033-0.445-0.105c-0.494-0.246-0.695-0.847-0.448-1.341L16.979,5.66c0.246-0.493,0.845-0.695,1.341-0.448c0.494,0.247,0.695,0.847,0.448,1.341L9.89,24.34C9.715,24.69,9.361,24.894,8.994,24.894z"/><path d="M16.204,10.452c-0.375,0-0.734-0.211-0.905-0.573l-1.58-3.345c-0.235-0.5-0.022-1.096,0.478-1.332c0.501-0.236,1.095-0.022,1.331,0.477l1.58,3.345c0.235,0.5,0.022,1.096-0.478,1.332C16.492,10.421,16.347,10.452,16.204,10.452z"/><path d="M23.025,24.894c-0.375,0-0.734-0.212-0.905-0.573l-5.465-11.569c-0.235-0.5-0.022-1.096,0.478-1.332c0.499-0.235,1.096-0.022,1.331,0.477l5.465,11.57c0.235,0.499,0.022,1.095-0.478,1.331C23.313,24.863,23.168,24.894,23.025,24.894z"/><path d="M24.248,20.091h-3.493c-0.553,0-1-0.447-1-1s0.447-1,1-1h3.493c0.553,0,1,0.447,1,1S24.801,20.091,24.248,20.091z"/><path d="M17.962,20.091H7.752c-0.553,0-1-0.447-1-1s0.447-1,1-1h10.21c0.553,0,1,0.447,1,1S18.515,20.091,17.962,20.091z"/></svg>