<svg xmlns="http://www.w3.org/2000/svg" viewBox="0 0 32 32"><!--! Font Icona - https://fonticona.com | License - https://fonticona.com/license | Copyright 2022 FontIcona.com --><path d="M11.761,32c-0.824,0-1.63-0.291-2.408-0.869c-1.067-0.793-1.832-1.806-2.587-2.862c-1.534-2.143-2.579-4.633-3.106-7.395c-0.451-2.367-0.386-4.449,0.199-6.365c0.692-2.263,1.997-3.96,3.88-5.046c1.537-0.887,3.075-1.205,4.57-0.946c0.649,0.112,1.253,0.318,1.837,0.518c0.228,0.078,0.455,0.156,0.684,0.227c0.416,0.129,0.832,0.264,1.244,0.405c0.039,0.013,0.11,0.038,0.302-0.03l0.743-0.266c0.668-0.241,1.358-0.491,2.068-0.691c2.657-0.75,6.461,0.518,8.486,2.825c0.196,0.224,0.282,0.523,0.235,0.817c-0.047,0.294-0.223,0.552-0.479,0.704c-1.768,1.044-2.752,2.875-2.629,4.9c0.125,2.059,1.335,3.784,3.236,4.616c0.498,0.218,0.73,0.793,0.525,1.295L28.334,24.4c-0.18,0.453-0.359,0.906-0.564,1.348c-0.791,1.701-1.842,3.252-3.122,4.609c-0.931,0.985-1.997,1.524-3.169,1.601c-0.851,0.049-1.61-0.175-2.252-0.395c-0.201-0.068-0.4-0.14-0.6-0.212c-0.374-0.135-0.747-0.27-1.129-0.377c-0.827-0.235-1.728-0.145-2.922,0.292c-0.552,0.202-1.239,0.453-1.935,0.626C12.348,31.963,12.053,32,11.761,32z M11.289,10.428c-0.82,0-1.661,0.253-2.55,0.767c-1.45,0.836-2.42,2.111-2.966,3.898c-0.488,1.598-0.537,3.366-0.147,5.406c0.473,2.476,1.404,4.7,2.768,6.607c0.684,0.957,1.317,1.799,2.153,2.42c0.745,0.553,1.278,0.507,1.616,0.423c0.592-0.146,1.196-0.368,1.729-0.563c1.086-0.396,2.54-0.796,4.152-0.338c0.427,0.12,0.846,0.27,1.264,0.42c0.188,0.068,0.377,0.137,0.567,0.201c0.588,0.2,1.049,0.321,1.477,0.291c0.668-0.044,1.255-0.354,1.843-0.978c1.134-1.2,2.062-2.573,2.763-4.08c0.149-0.32,0.283-0.647,0.415-0.977c-2.078-1.248-3.419-3.426-3.567-5.881c-0.143-2.35,0.792-4.509,2.543-5.988c-1.618-1.248-4.002-1.911-5.617-1.455c-0.641,0.181-1.268,0.407-1.931,0.647l-0.764,0.273c-0.562,0.195-1.103,0.207-1.61,0.034c-0.395-0.135-0.791-0.264-1.189-0.387c-0.247-0.077-0.492-0.16-0.737-0.244c-0.534-0.182-1.038-0.354-1.531-0.439C11.743,10.447,11.517,10.428,11.289,10.428z"/><path d="M16.117,8.589c-0.064,0-0.128-0.001-0.193-0.003c-0.678-0.021-1.141-0.478-1.18-1.165c-0.097-1.675,0.435-3.247,1.581-4.67c1.237-1.534,2.871-2.455,4.857-2.738c0.058-0.008,0.202-0.015,0.258-0.012c0.49,0.015,0.951,0.386,1.015,0.873c0.103,0.799,0.04,1.62-0.186,2.439c-0.507,1.832-1.562,3.302-3.14,4.369C18.241,8.285,17.229,8.589,16.117,8.589z M20.46,2.21c-1.003,0.319-1.866,0.913-2.579,1.797c-0.65,0.808-1.021,1.641-1.121,2.528c0.451-0.08,0.863-0.248,1.247-0.507c1.188-0.806,1.951-1.867,2.333-3.246C20.394,2.588,20.434,2.398,20.46,2.21z"/></svg>