<svg xmlns="http://www.w3.org/2000/svg" viewBox="0 0 32 32"><!--! Font Icona - https://fonticona.com | License - https://fonticona.com/license | Copyright 2022 FontIcona.com --><path d="M18.861,32.001c-0.625,0-1.206-0.105-1.751-0.203c-0.938-0.171-1.831-0.221-2.88-0.061c-0.875,0.136-1.868,0.29-2.951-0.073c-1.047-0.348-2.048-1.008-3.059-2.018c-1.654-1.782-2.808-3.964-3.273-6.172c-0.629-2.516-1.417-7.259,0.479-10.364c0.856-1.403,2.144-2.314,3.829-2.708c1.593-0.399,3.1-0.235,4.56-0.077c0.76,0.083,1.478,0.16,2.206,0.162c0.652-0.028,1.339-0.113,2.065-0.203c2.144-0.265,4.574-0.566,6.596,0.687c4.079,2.718,3.077,9.069,2.674,10.952c-0.35,1.747-1.85,7.646-6.36,9.601C20.227,31.885,19.52,32.001,18.861,32.001z M15.485,29.605c0.742,0,1.4,0.119,1.981,0.224c1.021,0.185,1.758,0.318,2.706-0.129c3.647-1.581,4.921-6.663,5.226-8.184c0.696-3.25,0.588-7.274-1.797-8.864c-1.395-0.863-3.277-0.63-5.269-0.384c-0.742,0.092-1.509,0.187-2.25,0.217l-0.042,0.001c-0.843,0-1.655-0.088-2.441-0.173c-1.343-0.146-2.612-0.283-3.874,0.033c-1.175,0.275-2.018,0.865-2.593,1.806c-1.572,2.576-0.689,7.063-0.237,8.874c0.4,1.895,1.378,3.739,2.764,5.231c0.76,0.759,1.505,1.261,2.251,1.509c0.624,0.21,1.268,0.109,2.013-0.006C14.417,29.685,14.928,29.605,15.485,29.605z"/><path d="M15.419,12.445l-0.293-0.665c-0.913-2.069-0.952-4.363-0.11-6.458c0.834-2.078,2.437-3.726,4.512-4.641c1.244-0.565,2.688-0.779,4.272-0.637l0.591,0.054l0.236,0.543c1.258,2.891,0.88,6.049-1.011,8.452c-1.812,2.452-3.762,2.899-7.474,3.278L15.419,12.445z M22.865,2c-0.936,0-1.78,0.169-2.521,0.505c-3.065,1.353-4.591,4.736-3.641,7.793c2.976-0.344,4.117-0.783,5.313-2.406l0.02-0.026c1.313-1.663,1.662-3.818,0.974-5.865C22.961,2,22.913,2,22.865,2z"/><path d="M16.001,12.376c-0.065,0-0.131-0.006-0.197-0.02c-3.235-0.647-4.94-4.058-5.457-7.034c-0.094-0.544,0.27-1.062,0.814-1.156c0.543-0.093,1.062,0.271,1.156,0.814c0.385,2.216,1.632,4.965,3.879,5.415c0.542,0.108,0.893,0.635,0.784,1.177C16.885,12.047,16.468,12.376,16.001,12.376z"/></svg>