<svg xmlns="http://www.w3.org/2000/svg" viewBox="0 0 32 32"><!--! Font Icona - https://fonticona.com | License - https://fonticona.com/license | Copyright 2022 FontIcona.com --><path d="M13.773,21.893c-0.554,0-1.003-0.449-1.003-1.003v-8.16c0-0.554,0.449-1.003,1.003-1.003s1.003,0.449,1.003,1.003v8.16C14.776,21.443,14.327,21.893,13.773,21.893z"/><path d="M16.035,18.976c-0.143,0-0.286-0.01-0.431-0.031c-1.086-0.161-2.124-0.925-2.71-1.995c-0.267-0.485-0.089-1.095,0.397-1.36c0.483-0.265,1.096-0.089,1.36,0.397c0.282,0.514,0.783,0.905,1.246,0.974c0.291,0.044,0.536-0.044,0.772-0.276c0.581-0.569,0.84-1.681,0.565-2.426c-0.145-0.394-0.617-0.521-0.887-0.561c-0.697-0.1-1.458,0.137-1.777,0.559c-0.335,0.44-0.963,0.527-1.405,0.192c-0.44-0.335-0.527-0.964-0.192-1.405c0.767-1.008,2.246-1.538,3.671-1.329c1.205,0.18,2.106,0.854,2.473,1.852c0.544,1.478,0.096,3.434-1.043,4.55C17.501,18.679,16.789,18.976,16.035,18.976z"/><path d="M22.246,21.884c-0.355,0-0.705-0.062-1.042-0.188c-1.067-0.401-1.679-1.287-1.595-2.312c0.091-1.125,1.007-2.11,2.176-2.344c1.023-0.2,1.908-0.012,2.765,0.172c0.541,0.116,0.912,0.654,0.796,1.196c-0.057,0.264-0.205,0.481-0.406,0.623c0.065,0.042,0.126,0.093,0.182,0.152c0.38,0.403,0.361,1.038-0.042,1.417C24.185,21.442,23.193,21.884,22.246,21.884z M22.683,18.958c-0.171,0-0.338,0.015-0.505,0.048c-0.349,0.069-0.556,0.358-0.57,0.539c-0.003,0.038-0.013,0.155,0.303,0.273c0.717,0.271,1.554-0.451,1.794-0.678c0.018-0.017,0.035-0.032,0.054-0.048C23.379,19.017,23.025,18.958,22.683,18.958z"/><path d="M24.392,22.094c-0.554,0-1.003-0.449-1.003-1.003v-4.478c0,0.001,0,0.002,0,0.002c-0.002,0-0.02-0.154-0.126-0.218c-0.054-0.031-0.577-0.297-2.245,0.458c-0.505,0.228-1.099,0.004-1.327-0.501c-0.228-0.505-0.004-1.099,0.501-1.327c1.839-0.83,3.201-0.932,4.166-0.311c1.008,0.65,1.037,1.771,1.037,1.896v4.478C25.395,21.645,24.945,22.094,24.392,22.094z"/><path d="M28.784,22.104c-0.399,0-0.777-0.241-0.933-0.636l-2.25-5.72c-0.203-0.516,0.05-1.098,0.565-1.3c0.517-0.205,1.098,0.051,1.3,0.565l2.25,5.72c0.203,0.516-0.05,1.098-0.565,1.3C29.03,22.081,28.906,22.104,28.784,22.104z"/><path d="M26.938,24.372c-0.335,0-0.686-0.062-1.043-0.189c-0.521-0.186-0.794-0.759-0.608-1.28s0.759-0.796,1.28-0.608c0.431,0.152,0.751,0.122,1.008-0.506c0.63-1.543,1.198-3.164,1.747-4.731c0.243-0.693,0.486-1.387,0.734-2.075c0.188-0.521,0.767-0.787,1.284-0.603c0.521,0.188,0.79,0.763,0.603,1.284c-0.247,0.682-0.487,1.369-0.729,2.057c-0.558,1.592-1.135,3.237-1.783,4.826C28.951,23.72,28.026,24.372,26.938,24.372z"/><path d="M11.017,13.389c-2.211,1.305-1.964,4.504,0.349,5.516c-0.125,0.304-0.238,0.614-0.377,0.912c-0.364,0.784-0.844,1.493-1.437,2.122c-0.331,0.351-0.727,0.597-1.225,0.629c-0.316,0.02-0.615-0.067-0.91-0.167c-0.29-0.099-0.575-0.212-0.869-0.295c-0.593-0.167-1.164-0.052-1.727,0.154c-0.294,0.108-0.591,0.215-0.895,0.29c-0.442,0.11-0.84-0.022-1.198-0.288c-0.473-0.352-0.819-0.817-1.157-1.29c-0.738-1.031-1.198-2.181-1.435-3.42c-0.183-0.961-0.205-1.926,0.085-2.875c0.285-0.934,0.814-1.69,1.672-2.184c0.588-0.339,1.227-0.521,1.905-0.404c0.398,0.069,0.781,0.228,1.17,0.349c0.199,0.062,0.397,0.126,0.594,0.193c0.159,0.055,0.312,0.039,0.467-0.015c0.447-0.156,0.889-0.33,1.344-0.459C8.499,11.84,10.165,12.419,11.017,13.389L11.017,13.389z"/><path d="M8.481,8.631C8.526,8.974,8.494,9.306,8.404,9.63c-0.216,0.783-0.665,1.405-1.336,1.86c-0.383,0.259-0.813,0.372-1.276,0.357c-0.083-0.003-0.1-0.032-0.104-0.108c-0.043-0.74,0.208-1.381,0.665-1.947c0.531-0.659,1.223-1.041,2.061-1.161C8.433,8.628,8.453,8.631,8.481,8.631z"/></svg>