<svg xmlns="http://www.w3.org/2000/svg" viewBox="0 0 32 32"><!--! Font Icona - https://fonticona.com | License - https://fonticona.com/license | Copyright 2022 FontIcona.com --><path d="M27.542,32h-5.917c-0.552,0-1-0.448-1-1v-9.177c0-2.531-1.211-5.486-4.625-5.486s-4.625,2.955-4.625,5.486V31c0,0.552-0.448,1-1,1H4.458c-0.552,0-1-0.448-1-1V8.402c0-0.552,0.448-1,1-1h23.083c0.552,0,1,0.448,1,1V31C28.542,31.552,28.094,32,27.542,32z M22.625,30h3.917V9.402H5.458V30h3.917v-8.177c0-4.478,2.663-7.486,6.625-7.486s6.625,3.008,6.625,7.486V30z"/><path d="M27.542,9.402H4.458c-0.388,0-0.742-0.225-0.906-0.577L0.094,1.423c-0.145-0.31-0.122-0.672,0.062-0.96C0.34,0.175,0.658,0,1,0h30c0.342,0,0.66,0.175,0.844,0.463c0.184,0.289,0.207,0.651,0.062,0.96l-3.458,7.402C28.283,9.177,27.93,9.402,27.542,9.402z M5.095,7.402h21.81L29.429,2H2.571L5.095,7.402z"/><path d="M29.271,5.701H2.729c-0.552,0-1-0.448-1-1s0.448-1,1-1h26.542c0.552,0,1,0.448,1,1S29.823,5.701,29.271,5.701z"/></svg>