<svg xmlns="http://www.w3.org/2000/svg" viewBox="0 0 32 32"><!--! Font Icona - https://fonticona.com | License - https://fonticona.com/license | Copyright 2022 FontIcona.com --><path d="M12.077,13.089c-0.256,0-0.512-0.098-0.707-0.293L0.558,1.984c-0.391-0.391-0.391-1.023,0-1.414s1.023-0.391,1.414,0l10.812,10.812c0.391,0.391,0.391,1.023,0,1.414C12.589,12.991,12.333,13.089,12.077,13.089z"/><path d="M1,8.182c-0.552,0-1-0.448-1-1V1.627C0,0.715,0.715,0,1.627,0h5.555c0.552,0,1,0.448,1,1s-0.448,1-1,1H2v5.182C2,7.734,1.552,8.182,1,8.182z"/><path d="M1.265,31.723c-0.256,0-0.512-0.098-0.707-0.293c-0.391-0.391-0.391-1.023,0-1.414L11.37,19.204c0.391-0.391,1.023-0.391,1.414,0s0.391,1.023,0,1.414L1.972,31.43C1.777,31.625,1.521,31.723,1.265,31.723z"/><path d="M7.182,32H1.627C0.715,32,0,31.285,0,30.373v-5.555c0-0.553,0.448-1,1-1s1,0.447,1,1V30h5.182c0.552,0,1,0.447,1,1S7.734,32,7.182,32z"/><path d="M30.735,31.723c-0.256,0-0.512-0.098-0.707-0.293L19.216,20.618c-0.391-0.391-0.391-1.023,0-1.414s1.023-0.391,1.414,0l10.812,10.812c0.391,0.391,0.391,1.023,0,1.414C31.247,31.625,30.991,31.723,30.735,31.723z"/><path d="M30.373,32h-5.555c-0.553,0-1-0.447-1-1s0.447-1,1-1H30v-5.182c0-0.553,0.447-1,1-1s1,0.447,1,1v5.555C32,31.285,31.285,32,30.373,32z"/><path d="M19.923,13.089c-0.256,0-0.512-0.098-0.707-0.293c-0.391-0.391-0.391-1.023,0-1.414L30.028,0.57c0.391-0.391,1.023-0.391,1.414,0s0.391,1.023,0,1.414L20.63,12.796C20.435,12.991,20.179,13.089,19.923,13.089z"/><path d="M31,8.182c-0.553,0-1-0.448-1-1V2h-5.182c-0.553,0-1-0.448-1-1s0.447-1,1-1h5.555C31.285,0,32,0.715,32,1.627v5.555C32,7.734,31.553,8.182,31,8.182z M30.373,2h0.01H30.373z"/></svg>