<svg xmlns="http://www.w3.org/2000/svg" viewBox="0 0 32 32"><!--! Font Icona - https://fonticona.com | License - https://fonticona.com/license | Copyright 2022 FontIcona.com --><path d="M1,32c-0.552,0-1-0.447-1-1V1c0-0.552,0.448-1,1-1s1,0.448,1,1v30C2,31.553,1.552,32,1,32z"/><path d="M31,16.944H7.6c-0.552,0-1-0.448-1-1s0.448-1,1-1H31c0.553,0,1,0.448,1,1S31.553,16.944,31,16.944z"/><path d="M26.882,21.371c-0.256,0-0.512-0.098-0.707-0.293c-0.391-0.391-0.391-1.023,0-1.414L29.839,16l-3.664-3.664c-0.391-0.391-0.391-1.023,0-1.414s1.023-0.391,1.414,0l3.928,3.928C31.828,15.16,32,15.569,32,16s-0.172,0.84-0.484,1.151l-3.927,3.927C27.394,21.273,27.138,21.371,26.882,21.371z M30.104,16.265h0.01H30.104z"/></svg>