<svg xmlns="http://www.w3.org/2000/svg" viewBox="0 0 32 32"><!--! Font Icona - https://fonticona.com | License - https://fonticona.com/license | Copyright 2022 FontIcona.com --><path d="M31,32H1c-0.552,0-1-0.447-1-1s0.448-1,1-1h30c0.553,0,1,0.447,1,1S31.553,32,31,32z"/><path d="M16,25.4c-0.552,0-1-0.447-1-1V1c0-0.552,0.448-1,1-1s1,0.448,1,1v23.4C17,24.953,16.552,25.4,16,25.4z"/><path d="M20.371,6.13c-0.256,0-0.512-0.098-0.707-0.293L16,2.173l-3.664,3.664c-0.391,0.391-1.023,0.391-1.414,0c-0.391-0.39-0.391-1.023,0-1.414l3.923-3.924c0.67-0.669,1.64-0.669,2.309,0l3.924,3.924c0.391,0.391,0.391,1.023,0,1.414C20.883,6.032,20.627,6.13,20.371,6.13z"/></svg>