<svg xmlns="http://www.w3.org/2000/svg" viewBox="0 0 32 32"><!--! Font Icona - https://fonticona.com | License - https://fonticona.com/license | Copyright 2022 FontIcona.com --><path d="M26.739,26.403H7.154c-1.596,0-2.894-1.298-2.894-2.894v-10.67c0-0.552,0.448-1,1-1s1,0.448,1,1v10.67c0,0.493,0.401,0.894,0.894,0.894h19.585c0.553,0,1,0.447,1,1S27.292,26.403,26.739,26.403z"/><path d="M9.521,17.471c-0.256,0-0.512-0.098-0.707-0.293l-3.553-3.554l-3.554,3.554c-0.391,0.391-1.023,0.391-1.414,0c-0.391-0.39-0.391-1.023,0-1.414l3.828-3.829c0.638-0.638,1.64-0.639,2.279,0l3.828,3.829c0.391,0.391,0.391,1.024,0,1.414C10.033,17.373,9.777,17.471,9.521,17.471z"/><path d="M26.739,20.064c-0.553,0-1-0.447-1-1V8.491c0-0.493-0.4-0.894-0.894-0.894L5.261,7.596c-0.552,0-1-0.448-1-1s0.448-1,1-1l0,0l19.585,0.001c1.596,0,2.894,1.298,2.894,2.894v10.574C27.739,19.617,27.292,20.064,26.739,20.064z"/><path d="M26.739,20.444c-0.41,0-0.82-0.159-1.139-0.479l-3.829-3.829c-0.391-0.391-0.391-1.023,0-1.414s1.023-0.391,1.414,0l3.554,3.553l3.554-3.553c0.391-0.391,1.023-0.391,1.414,0c0.391,0.39,0.391,1.023,0,1.414l-3.828,3.829C27.559,20.285,27.148,20.444,26.739,20.444z"/></svg>