<svg xmlns="http://www.w3.org/2000/svg" viewBox="0 0 32 32"><!--! Font Icona - https://fonticona.com | License - https://fonticona.com/license | Copyright 2022 FontIcona.com --><path d="M13.875,30.986c-3.235,0-6.36-1.171-8.817-3.391c-5.855-5.524-6.709-14.55-2.001-21.009c0.178-0.237,0.347-0.435,0.516-0.633c0.142-0.165,0.284-0.33,0.426-0.519c2.386-2.668,5.596-4.207,9.094-4.397c3.499-0.192,6.856,0.989,9.46,3.322c3.684,3.359,5.546,8.362,4.988,13.388c-0.061,0.55-0.562,0.945-1.104,0.884c-0.549-0.062-0.944-0.556-0.884-1.104c0.488-4.392-1.135-8.76-4.341-11.684c-2.199-1.97-5.045-2.967-8.01-2.809c-2.964,0.161-5.685,1.464-7.66,3.668C5.427,6.862,5.26,7.059,5.091,7.255C4.949,7.421,4.807,7.587,4.664,7.776c-4.107,5.635-3.358,13.529,1.75,18.35c2.914,2.632,6.968,3.52,10.833,2.359c0.531-0.157,1.086,0.142,1.245,0.671c0.158,0.529-0.142,1.086-0.671,1.245C16.514,30.794,15.185,30.986,13.875,30.986z"/><path d="M26.598,19.911c-0.29,0-0.726-0.09-1.152-0.517l-3.955-3.955c-0.391-0.391-0.391-1.023,0-1.414s1.023-0.391,1.414,0l3.693,3.693l3.695-3.694c0.391-0.39,1.023-0.39,1.414,0s0.391,1.024,0,1.415l-3.957,3.955c-0.425,0.426-0.86,0.517-1.15,0.517C26.599,19.911,26.599,19.911,26.598,19.911z"/></svg>