<svg xmlns="http://www.w3.org/2000/svg" viewBox="0 0 32 32"><!--! Font Icona - https://fonticona.com | License - https://fonticona.com/license | Copyright 2022 FontIcona.com --><path d="M1,32c-0.552,0-1-0.447-1-1V1c0-0.552,0.448-1,1-1s1,0.448,1,1v30C2,31.553,1.553,32,1,32z"/><path d="M30.999,17.001H7.602c-0.552,0-1-0.448-1-1s0.448-1,1-1h23.397c0.553,0,1,0.448,1,1S31.552,17.001,30.999,17.001z"/><path d="M11.72,21.316c-0.256,0-0.512-0.098-0.707-0.293l-3.928-3.928c-0.646-0.645-0.646-1.656,0-2.301l3.928-3.928c0.391-0.391,1.023-0.391,1.414,0s0.391,1.023,0,1.414l-3.664,3.664l3.664,3.665c0.391,0.391,0.391,1.023,0,1.414C12.231,21.219,11.976,21.316,11.72,21.316z"/></svg>