<svg xmlns="http://www.w3.org/2000/svg" viewBox="0 0 32 32"><!--! Font Icona - https://fonticona.com | License - https://fonticona.com/license | Copyright 2022 FontIcona.com --><path d="M5.341,27.66c-0.08,0-0.162-0.01-0.243-0.029l-4.34-1.083c-0.35-0.088-0.625-0.356-0.722-0.703c-0.096-0.348,0.002-0.72,0.257-0.975l5.227-5.227c0.244-0.244,0.604-0.345,0.936-0.267l3.004,0.706c0.538,0.127,0.871,0.665,0.745,1.202c-0.127,0.538-0.673,0.868-1.202,0.745L6.54,21.451l-3.583,3.584l2.625,0.654c0.536,0.134,0.861,0.677,0.729,1.213C6.196,27.356,5.789,27.66,5.341,27.66z"/><path d="M28.251,10.173c-0.055,0-0.11-0.004-0.166-0.014c-0.484-0.081-0.838-0.502-0.835-0.993c0.012-1.627-1.388-2.938-1.402-2.952c-0.021-0.019-0.043-0.041-0.062-0.062l0,0c-0.013-0.014-1.315-1.402-2.934-1.402c-0.008,0-0.017,0-0.025,0c-0.488,0-0.905-0.353-0.986-0.835c-0.081-0.485,0.202-0.956,0.667-1.113l8.173-2.75c0.36-0.122,0.758-0.028,1.026,0.241c0.269,0.269,0.362,0.666,0.241,1.026l-2.75,8.173C29.06,9.904,28.674,10.173,28.251,10.173z M27.23,4.77c0.131,0.124,0.581,0.573,1.023,1.256L29.41,2.59l-3.437,1.156C26.657,4.188,27.106,4.638,27.23,4.77z"/><path d="M6.423,32c-0.089,0-0.179-0.012-0.268-0.036c-0.347-0.097-0.615-0.372-0.703-0.722l-1.083-4.34c-0.133-0.536,0.192-1.079,0.729-1.213c0.533-0.131,1.078,0.193,1.213,0.729l0.654,2.625l3.584-3.583L9.97,22.998c-0.126-0.537,0.207-1.075,0.745-1.202c0.53-0.125,1.075,0.207,1.202,0.745l0.706,3.004c0.079,0.337-0.021,0.69-0.267,0.936L7.13,31.707C6.939,31.897,6.685,32,6.423,32z"/><path d="M5.079,27.421c-0.128,0-0.256-0.049-0.354-0.146c-0.195-0.195-0.195-0.512,0-0.707l2.804-2.804c0.195-0.195,0.512-0.195,0.707,0s0.195,0.512,0,0.707l-2.804,2.804C5.335,27.372,5.207,27.421,5.079,27.421z"/><path d="M5.686,27.314c-0.256,0-0.512-0.098-0.707-0.293c-0.391-0.391-0.391-1.023,0-1.414L25.376,5.21c0.391-0.391,1.023-0.391,1.414,0s0.391,1.023,0,1.414L6.393,27.021C6.197,27.217,5.941,27.314,5.686,27.314z"/></svg>