<svg xmlns="http://www.w3.org/2000/svg" viewBox="0 0 32 32"><!--! Font Icona - https://fonticona.com | License - https://fonticona.com/license | Copyright 2022 FontIcona.com --><path d="M31,31.999H1c-0.552,0-1-0.447-1-1s0.448-1,1-1h30c0.553,0,1,0.447,1,1S31.553,31.999,31,31.999z"/><path d="M16.001,25.398c-0.552,0-1-0.447-1-1V1c0-0.552,0.448-1,1-1s1,0.448,1,1v23.398C17.001,24.951,16.553,25.398,16.001,25.398z"/><path d="M15.945,25.398c-0.431,0-0.84-0.172-1.152-0.484l-3.927-3.927c-0.391-0.391-0.391-1.023,0-1.414s1.023-0.391,1.414,0l3.664,3.664l3.665-3.664c0.391-0.391,1.023-0.391,1.414,0s0.391,1.023,0,1.414l-3.928,3.928C16.785,25.227,16.376,25.398,15.945,25.398z"/></svg>