<svg xmlns="http://www.w3.org/2000/svg" viewBox="0 0 32 32"><!--! Font Icona - https://fonticona.com | License - https://fonticona.com/license | Copyright 2022 FontIcona.com --><path d="M20.442,32c-0.553,0-1-0.447-1-1V4c0-1.103-0.897-2-2-2H7.187c-0.552,0-1-0.448-1-1s0.448-1,1-1h10.256c2.206,0,4,1.794,4,4v27C21.442,31.553,20.995,32,20.442,32z"/><path d="M20.442,32.002c-0.41,0-0.819-0.167-1.153-0.5l-3.925-3.925c-0.391-0.391-0.391-1.023,0-1.414s1.023-0.391,1.414,0l3.664,3.664l3.664-3.664c0.391-0.391,1.023-0.391,1.414,0s0.391,1.023,0,1.414l-3.924,3.924C21.262,31.835,20.852,32.002,20.442,32.002z"/></svg>