<svg xmlns="http://www.w3.org/2000/svg" viewBox="0 0 32 32"><!--! Font Icona - https://fonticona.com | License - https://fonticona.com/license | Copyright 2022 FontIcona.com --><path d="M31,17H1c-0.552,0-1-0.448-1-1s0.448-1,1-1h30c0.553,0,1,0.448,1,1S31.553,17,31,17z"/><path d="M16,32c-0.552,0-1-0.447-1-1V1c0-0.552,0.448-1,1-1s1,0.448,1,1v30C17,31.553,16.552,32,16,32z"/><path d="M20.371,6.118c-0.256,0-0.512-0.098-0.707-0.293L16,2.161l-3.665,3.664c-0.391,0.391-1.023,0.391-1.414,0s-0.391-1.024,0-1.414l3.928-3.928c0.645-0.646,1.655-0.646,2.301,0l3.928,3.928c0.391,0.391,0.391,1.023,0,1.414C20.883,6.02,20.627,6.118,20.371,6.118z"/><path d="M16,32c-0.431,0-0.84-0.172-1.151-0.484l-3.927-3.927c-0.391-0.391-0.391-1.023,0-1.414s1.023-0.391,1.414,0L16,29.839l3.664-3.664c0.391-0.391,1.023-0.391,1.414,0s0.391,1.023,0,1.414l-3.928,3.928C16.84,31.828,16.431,32,16,32z"/><path d="M26.882,21.428c-0.256,0-0.512-0.098-0.707-0.293c-0.391-0.391-0.391-1.023,0-1.414l3.664-3.665l-3.664-3.664c-0.391-0.391-0.391-1.023,0-1.414s1.023-0.391,1.414,0l3.928,3.928C31.828,15.216,32,15.625,32,16.057c0,0.431-0.172,0.84-0.484,1.151l-3.927,3.927C27.394,21.33,27.138,21.428,26.882,21.428z M30.104,16.321h0.01H30.104z"/><path d="M5.118,21.428c-0.256,0-0.512-0.098-0.707-0.293l-3.928-3.928c-0.646-0.645-0.646-1.656,0-2.301l3.928-3.928c0.391-0.391,1.023-0.391,1.414,0s0.391,1.024,0,1.414l-3.665,3.664l3.665,3.665c0.391,0.391,0.391,1.023,0,1.414C5.63,21.33,5.374,21.428,5.118,21.428z"/></svg>