<svg xmlns="http://www.w3.org/2000/svg" viewBox="0 0 32 32"><!--! Font Icona - https://fonticona.com | License - https://fonticona.com/license | Copyright 2022 FontIcona.com --><path d="M18.122,30.986c-1.31,0-2.637-0.191-3.945-0.584c-0.529-0.159-0.83-0.716-0.671-1.245s0.716-0.827,1.245-0.671c3.865,1.157,7.92,0.271,10.85-2.374c5.093-4.806,5.842-12.7,1.726-18.347c-0.132-0.175-0.273-0.339-0.415-0.504c-0.17-0.198-0.339-0.396-0.509-0.623c-1.921-2.139-4.641-3.442-7.605-3.603c-2.957-0.164-5.811,0.838-8.017,2.814c-3.2,2.917-4.822,7.285-4.333,11.678c0.061,0.549-0.334,1.043-0.883,1.104c-0.542,0.057-1.043-0.335-1.104-0.884C3.9,12.721,5.762,7.719,9.439,4.366c2.609-2.338,5.966-3.513,9.467-3.328c3.499,0.19,6.71,1.729,9.042,4.333c0.197,0.256,0.34,0.422,0.482,0.588c0.168,0.196,0.336,0.392,0.504,0.616c4.716,6.472,3.862,15.498-1.977,21.007C24.488,29.812,21.358,30.986,18.122,30.986z"/><path d="M5.401,19.911c-0.291,0-0.728-0.09-1.154-0.518l-3.955-3.954c-0.391-0.39-0.391-1.023,0-1.414s1.023-0.391,1.414,0l3.694,3.693l3.695-3.694c0.391-0.39,1.024-0.39,1.415,0c0.39,0.391,0.39,1.024,0,1.415l-3.957,3.955C6.128,19.821,5.692,19.911,5.401,19.911z"/></svg>