<svg xmlns="http://www.w3.org/2000/svg" viewBox="0 0 32 32"><!--! Font Icona - https://fonticona.com | License - https://fonticona.com/license | Copyright 2022 FontIcona.com --><path d="M31,32c-0.553,0-1-0.447-1-1V1c0-0.552,0.447-1,1-1s1,0.448,1,1v30C32,31.553,31.553,32,31,32z"/><path d="M24.4,17.057H1c-0.552,0-1-0.448-1-1s0.448-1,1-1h23.4c0.553,0,1,0.448,1,1S24.953,17.057,24.4,17.057z"/><path d="M5.118,21.371c-0.256,0-0.512-0.098-0.707-0.293L0.483,17.15c-0.645-0.645-0.645-1.656,0-2.301l3.928-3.928c0.391-0.391,1.023-0.391,1.414,0s0.391,1.024,0,1.414L2.161,16l3.665,3.664c0.391,0.391,0.391,1.023,0,1.414C5.63,21.273,5.374,21.371,5.118,21.371z"/></svg>