<svg xmlns="http://www.w3.org/2000/svg" viewBox="0 0 32 32"><!--! Font Icona - https://fonticona.com | License - https://fonticona.com/license | Copyright 2022 FontIcona.com --><path d="M31,2H1C0.448,2,0,1.552,0,1s0.448-1,1-1h30c0.553,0,1,0.448,1,1S31.553,2,31,2z"/><path d="M16.056,32c-0.552,0-1-0.447-1-1V7.6c0-0.552,0.448-1,1-1s1,0.448,1,1V31C17.057,31.553,16.608,32,16.056,32z"/><path d="M16,32c-0.431,0-0.84-0.172-1.151-0.484l-3.927-3.927c-0.391-0.391-0.391-1.023,0-1.414s1.023-0.391,1.414,0L16,29.839l3.664-3.664c0.391-0.391,1.023-0.391,1.414,0s0.391,1.023,0,1.414l-3.928,3.928C16.84,31.828,16.431,32,16,32z"/></svg>