<svg xmlns="http://www.w3.org/2000/svg" viewBox="0 0 32 32"><!--! Font Icona - https://fonticona.com | License - https://fonticona.com/license | Copyright 2022 FontIcona.com --><path d="M26.94,12.432H5.197c-0.552,0-1-0.448-1-1s0.448-1,1-1H26.94c0.553,0,1,0.448,1,1S27.493,12.432,26.94,12.432z"/><path d="M30,30.703H17c-1.103,0-2-0.897-2-2v-3.851h2v3.851h13V12.432H16v-2h14c1.103,0,2,0.897,2,2v16.271C32,29.806,31.103,30.703,30,30.703z"/><path d="M26.94,21.455H2c-1.103,0-2-0.897-2-2V3.297c0-1.103,0.897-2,2-2h13c1.103,0,2,0.897,2,2v3.85h-2v-3.85H2v16.158h24.94V21.455z"/><path d="M23.216,25.715c-0.256,0-0.512-0.098-0.707-0.293c-0.391-0.391-0.391-1.023,0-1.414l3.553-3.553l-3.553-3.553c-0.391-0.39-0.391-1.023,0-1.414s1.023-0.391,1.414,0l3.828,3.828c0.309,0.309,0.479,0.714,0.479,1.141c-0.001,0.427-0.171,0.832-0.479,1.14l-3.827,3.826C23.728,25.617,23.472,25.715,23.216,25.715z M26.337,20.729h0.01H26.337z M26.337,20.18C26.337,20.18,26.336,20.18,26.337,20.18L26.337,20.18z"/><path d="M8.738,16.491c-0.256,0-0.512-0.098-0.707-0.293L4.203,12.37c-0.308-0.308-0.478-0.712-0.478-1.139c0-0.426,0.169-0.831,0.478-1.139l3.828-3.828c0.391-0.391,1.023-0.391,1.414,0s0.391,1.023,0,1.414l-3.553,3.553l3.553,3.553c0.391,0.391,0.391,1.023,0,1.414C9.25,16.394,8.994,16.491,8.738,16.491z"/></svg>