<svg xmlns="http://www.w3.org/2000/svg" viewBox="0 0 32 32"><!--! Font Icona - https://fonticona.com | License - https://fonticona.com/license | Copyright 2022 FontIcona.com --><path d="M31,32c-0.553,0-1-0.447-1-1V1c0-0.552,0.447-1,1-1s1,0.448,1,1v30C32,31.553,31.553,32,31,32z"/><path d="M24.398,16.999H1.001c-0.552,0-1-0.448-1-1s0.448-1,1-1h23.397c0.553,0,1,0.448,1,1S24.951,16.999,24.398,16.999z"/><path d="M20.281,21.426c-0.256,0-0.512-0.098-0.707-0.293c-0.391-0.391-0.391-1.023,0-1.414l3.664-3.664l-3.664-3.664c-0.391-0.391-0.391-1.023,0-1.414s1.023-0.391,1.414,0l3.928,3.928c0.645,0.646,0.645,1.656,0.001,2.301l-3.929,3.928C20.793,21.328,20.537,21.426,20.281,21.426z M23.501,16.318h0.01H23.501z"/></svg>