<svg xmlns="http://www.w3.org/2000/svg" viewBox="0 0 32 32"><!--! Font Icona - https://fonticona.com | License - https://fonticona.com/license | Copyright 2022 FontIcona.com --><path d="M18.186,32c-4.411,0-8-4.187-8-9.333V1c0-0.552,0.448-1,1-1s1,0.448,1,1v21.667c0,4.043,2.691,7.333,6,7.333c3.364,0,6-3.221,6-7.333v-11c0-0.552,0.447-1,1-1s1,0.448,1,1v11C26.186,27.9,22.672,32,18.186,32z"/><path d="M15.557,6.13c-0.256,0-0.512-0.098-0.707-0.293l-3.664-3.665L7.521,5.837c-0.391,0.391-1.023,0.391-1.414,0c-0.391-0.39-0.391-1.023,0-1.414l3.924-3.924c0.644-0.644,1.665-0.644,2.309,0l3.924,3.924c0.391,0.391,0.391,1.024,0,1.414C16.068,6.033,15.812,6.13,15.557,6.13z"/></svg>