<svg xmlns="http://www.w3.org/2000/svg" viewBox="0 0 32 32"><!--! Font Icona - https://fonticona.com | License - https://fonticona.com/license | Copyright 2022 FontIcona.com --><path d="M15.944,32c-0.552,0-1-0.447-1-1V1c0-0.552,0.448-1,1-1s1,0.448,1,1v30C16.944,31.553,16.496,32,15.944,32z"/><path d="M20.371,6.118c-0.256,0-0.512-0.098-0.707-0.293L16,2.161l-3.664,3.665c-0.391,0.391-1.023,0.391-1.414,0s-0.391-1.023,0-1.414l3.928-3.928c0.645-0.646,1.656-0.646,2.301,0l3.928,3.928c0.391,0.391,0.391,1.023,0,1.414C20.883,6.021,20.627,6.118,20.371,6.118z"/></svg>