<svg xmlns="http://www.w3.org/2000/svg" viewBox="0 0 32 32"><!--! Font Icona - https://fonticona.com | License - https://fonticona.com/license | Copyright 2022 FontIcona.com --><path d="M31,2H1C0.448,2,0,1.552,0,1s0.448-1,1-1h30c0.553,0,1,0.448,1,1S31.553,2,31,2z"/><path d="M31,9.5H18.93c-0.553,0-1-0.448-1-1s0.447-1,1-1H31c0.553,0,1,0.448,1,1S31.553,9.5,31,9.5z"/><path d="M31,17H18.93c-0.553,0-1-0.448-1-1s0.447-1,1-1H31c0.553,0,1,0.448,1,1S31.553,17,31,17z"/><path d="M31,24.5H18.93c-0.553,0-1-0.447-1-1s0.447-1,1-1H31c0.553,0,1,0.447,1,1S31.553,24.5,31,24.5z"/><path d="M31,32H1c-0.552,0-1-0.447-1-1s0.448-1,1-1h30c0.553,0,1,0.447,1,1S31.553,32,31,32z"/><path d="M12.159,17H1c-0.552,0-1-0.448-1-1s0.448-1,1-1h11.159c0.552,0,1,0.448,1,1S12.711,17,12.159,17z"/><path d="M8.041,21.371c-0.256,0-0.512-0.098-0.707-0.293c-0.391-0.391-0.391-1.023,0-1.414L10.999,16l-3.665-3.665c-0.391-0.391-0.391-1.023,0-1.414s1.023-0.391,1.414,0l3.928,3.928c0.645,0.645,0.645,1.656,0,2.301l-3.928,3.928C8.553,21.273,8.297,21.371,8.041,21.371z M11.262,16.264h0.01H11.262z"/></svg>