<svg xmlns="http://www.w3.org/2000/svg" viewBox="0 0 32 32"><!--! Font Icona - https://fonticona.com | License - https://fonticona.com/license | Copyright 2022 FontIcona.com --><path d="M29,21.442H1c-0.552,0-1-0.447-1-1s0.448-1,1-1h28c0.552,0,1-0.448,1-1V7.187c0-0.552,0.447-1,1-1s1,0.448,1,1v11.256C32,20.097,30.654,21.442,29,21.442z"/><path d="M5.13,25.813c-0.256,0-0.512-0.098-0.707-0.293L0.5,21.597c-0.669-0.669-0.669-1.64,0-2.309l3.923-3.924c0.391-0.391,1.023-0.391,1.414,0s0.391,1.023,0,1.414l-3.664,3.664l3.664,3.664c0.391,0.391,0.391,1.023,0,1.414C5.642,25.716,5.386,25.813,5.13,25.813z"/></svg>