<svg xmlns="http://www.w3.org/2000/svg" viewBox="0 0 32 32"><!--! Font Icona - https://fonticona.com | License - https://fonticona.com/license | Copyright 2022 FontIcona.com --><path d="M31,2H1C0.448,2,0,1.552,0,1s0.448-1,1-1h30c0.553,0,1,0.448,1,1S31.553,2,31,2z"/><path d="M31,9.5H18.93c-0.553,0-1-0.448-1-1s0.447-1,1-1H31c0.553,0,1,0.448,1,1S31.553,9.5,31,9.5z"/><path d="M31,17H18.93c-0.553,0-1-0.448-1-1s0.447-1,1-1H31c0.553,0,1,0.448,1,1S31.553,17,31,17z"/><path d="M31,24.5H18.93c-0.553,0-1-0.447-1-1s0.447-1,1-1H31c0.553,0,1,0.447,1,1S31.553,24.5,31,24.5z"/><path d="M31,32H1c-0.552,0-1-0.447-1-1s0.448-1,1-1h30c0.553,0,1,0.447,1,1S31.553,32,31,32z"/><path d="M12.159,17H1c-0.552,0-1-0.448-1-1s0.448-1,1-1h11.159c0.552,0,1,0.448,1,1S12.711,17,12.159,17z"/><path d="M5.118,21.371c-0.256,0-0.512-0.098-0.707-0.293L0.483,17.15C0.172,16.84,0,16.431,0,16s0.172-0.84,0.483-1.151l3.927-3.927c0.391-0.391,1.023-0.391,1.414,0s0.391,1.023,0,1.414L2.161,16l3.664,3.664c0.391,0.391,0.391,1.023,0,1.414C5.629,21.273,5.374,21.371,5.118,21.371z"/></svg>