<svg xmlns="http://www.w3.org/2000/svg" viewBox="0 0 32 32"><!--! Font Icona - https://fonticona.com | License - https://fonticona.com/license | Copyright 2022 FontIcona.com --><path d="M27.504,32c-0.195,0-0.391-0.019-0.586-0.057l-13.595-2.633c-1.435-0.277-2.477-1.54-2.477-3.002V23.73c0-0.553,0.448-1,1-1c0.552,0,1,0.447,1,1v2.579c0,0.506,0.36,0.942,0.857,1.039l13.595,2.633c0.311,0.058,0.63-0.021,0.874-0.223c0.244-0.202,0.385-0.499,0.385-0.816V3.059c0-0.317-0.141-0.615-0.385-0.817c-0.244-0.201-0.562-0.283-0.874-0.222L13.704,4.653c-0.497,0.096-0.856,0.533-0.856,1.039v2.464c0,0.552-0.448,1-1,1c-0.552,0-1-0.448-1-1V5.692c0-1.462,1.042-2.726,2.477-3.003l13.595-2.633c0.901-0.173,1.82,0.061,2.527,0.643c0.707,0.584,1.112,1.443,1.112,2.36v25.882c0,0.916-0.405,1.776-1.112,2.359C28.892,31.757,28.207,32,27.504,32z"/><path d="M20.702,17H2.492c-0.552,0-1-0.448-1-1c0-0.552,0.448-1,1-1h18.21c0.553,0,1,0.448,1,1C21.702,16.552,21.255,17,20.702,17z"/><path d="M6.56,21.39c-0.256,0-0.512-0.098-0.707-0.293l-3.928-3.928c-0.311-0.311-0.483-0.719-0.483-1.15c0-0.431,0.171-0.839,0.483-1.151l3.928-3.928c0.391-0.391,1.023-0.391,1.414,0c0.391,0.391,0.391,1.023,0,1.414l-3.664,3.664l3.664,3.665c0.391,0.391,0.391,1.023,0,1.414C7.072,21.292,6.816,21.39,6.56,21.39z"/></svg>