<svg xmlns="http://www.w3.org/2000/svg" viewBox="0 0 32 32"><!--! Font Icona - https://fonticona.com | License - https://fonticona.com/license | Copyright 2022 FontIcona.com --><path d="M31,2H1C0.448,2,0,1.552,0,1s0.448-1,1-1h30c0.553,0,1,0.448,1,1S31.553,2,31,2z"/><path d="M16,32c-0.552,0-1-0.447-1-1V7.6c0-0.552,0.448-1,1-1s1,0.448,1,1V31C17,31.553,16.552,32,16,32z"/><path d="M20.371,12.73c-0.256,0-0.512-0.098-0.707-0.293L16,8.773l-3.664,3.665c-0.391,0.391-1.023,0.391-1.414,0c-0.391-0.39-0.391-1.023,0-1.414l3.924-3.924c0.644-0.644,1.665-0.644,2.309,0l3.924,3.924c0.391,0.391,0.391,1.024,0,1.414C20.883,12.633,20.627,12.73,20.371,12.73z"/></svg>