<svg xmlns="http://www.w3.org/2000/svg" viewBox="0 0 32 32"><!--! Font Icona - https://fonticona.com | License - https://fonticona.com/license | Copyright 2022 FontIcona.com --><path d="M4.496,32c-0.703,0-1.388-0.242-1.941-0.699c-0.707-0.583-1.112-1.442-1.112-2.359V3.059c0-0.917,0.405-1.777,1.112-2.36c0.706-0.583,1.626-0.816,2.527-0.643l13.595,2.633c1.435,0.277,2.477,1.541,2.477,3.003v2.464c0,0.552-0.447,1-1,1c-0.553,0-1-0.448-1-1V5.692c0-0.506-0.36-0.943-0.856-1.039L4.701,2.02C4.39,1.958,4.072,2.04,3.827,2.242c-0.245,0.202-0.385,0.5-0.385,0.817v25.882c0,0.317,0.14,0.615,0.385,0.816c0.245,0.202,0.565,0.282,0.874,0.223l13.595-2.633c0.497-0.097,0.857-0.533,0.857-1.039V23.73c0-0.553,0.447-1,1-1c0.553,0,1,0.447,1,1v2.579c0,1.462-1.042,2.725-2.477,3.002L5.081,31.944C4.886,31.982,4.691,32,4.496,32z"/><path d="M29.558,17H11.347c-0.552,0-1-0.448-1-1c0-0.552,0.448-1,1-1h18.211c0.553,0,1,0.448,1,1C30.558,16.552,30.111,17,29.558,17z"/><path d="M15.416,21.39c-0.256,0-0.512-0.098-0.707-0.293l-3.928-3.928c-0.645-0.645-0.645-1.655-0.001-2.301l3.929-3.928c0.391-0.391,1.023-0.391,1.414,0c0.391,0.391,0.391,1.023,0,1.414l-3.664,3.664l3.664,3.665c0.391,0.391,0.391,1.023,0,1.414C15.927,21.292,15.671,21.39,15.416,21.39z"/></svg>