<svg xmlns="http://www.w3.org/2000/svg" viewBox="0 0 32 32"><!--! Font Icona - https://fonticona.com | License - https://fonticona.com/license | Copyright 2022 FontIcona.com --><path d="M24.813,32H14.558c-2.206,0-4-1.794-4-4V1c0-0.552,0.448-1,1-1s1,0.448,1,1v27c0,1.103,0.897,2,2,2h10.256c0.553,0,1,0.447,1,1S25.366,32,24.813,32z"/><path d="M15.929,6.13c-0.256,0-0.512-0.098-0.707-0.293l-3.664-3.665L7.894,5.837c-0.391,0.391-1.023,0.391-1.414,0c-0.391-0.39-0.391-1.023,0-1.414l3.924-3.924c0.644-0.644,1.665-0.644,2.309,0l3.924,3.924c0.391,0.391,0.391,1.024,0,1.414C16.44,6.033,16.185,6.13,15.929,6.13z"/></svg>