<svg xmlns="http://www.w3.org/2000/svg" viewBox="0 0 32 32"><!--! Font Icona - https://fonticona.com | License - https://fonticona.com/license | Copyright 2022 FontIcona.com --><path d="M11.186,32c-0.552,0-1-0.447-1-1V9.333c0-5.146,3.589-9.333,8-9.333s8,4.187,8,9.333v11c0,0.553-0.447,1-1,1s-1-0.447-1-1v-11c0-4.043-2.691-7.333-6-7.333s-6,3.29-6,7.333V31C12.186,31.553,11.738,32,11.186,32z"/><path d="M11.186,32.002c-0.41,0-0.819-0.167-1.154-0.5l-3.924-3.925c-0.391-0.391-0.391-1.023,0-1.414s1.023-0.391,1.414,0l3.664,3.664l3.664-3.664c0.391-0.391,1.023-0.391,1.414,0s0.391,1.023,0,1.414l-3.924,3.924C12.005,31.835,11.595,32.002,11.186,32.002z"/></svg>