<svg xmlns="http://www.w3.org/2000/svg" viewBox="0 0 32 32"><!--! Font Icona - https://fonticona.com | License - https://fonticona.com/license | Copyright 2022 FontIcona.com --><path d="M22.667,26.186h-11c-0.552,0-1-0.447-1-1s0.448-1,1-1h11c4.043,0,7.333-2.691,7.333-6s-3.29-6-7.333-6H1c-0.552,0-1-0.448-1-1s0.448-1,1-1h21.667c5.146,0,9.333,3.589,9.333,8S27.813,26.186,22.667,26.186z"/><path d="M5.13,16.557c-0.256,0-0.512-0.098-0.707-0.293L0.499,12.34C0.177,12.018,0,11.608,0,11.186s0.177-0.833,0.499-1.154l3.924-3.924c0.391-0.391,1.023-0.391,1.414,0s0.391,1.024,0,1.414l-3.665,3.664l3.665,3.664c0.391,0.39,0.391,1.023,0,1.414C5.642,16.459,5.386,16.557,5.13,16.557z"/></svg>