<svg xmlns="http://www.w3.org/2000/svg" viewBox="0 0 32 32"><!--! Font Icona - https://fonticona.com | License - https://fonticona.com/license | Copyright 2022 FontIcona.com --><path d="M24.635,27.18H12.561c-1.654,0-3-1.346-3-3V10.688c0-0.552,0.448-1,1-1s1,0.448,1,1V24.18c0,0.551,0.449,1,1,1h12.075c0.551,0,1-0.449,1-1V3c0-0.551-0.449-1-1-1H10.561c-0.552,0-1-0.448-1-1s0.448-1,1-1h14.075c1.654,0,3,1.346,3,3v21.18C27.635,25.834,26.29,27.18,24.635,27.18z"/><path d="M19.439,32H7.365c-1.654,0-3-1.346-3-3V7.82c0-1.654,1.346-3,3-3h9.075c1.654,0,3,1.346,3,3v3.213c0,0.552-0.448,1-1,1s-1-0.448-1-1V7.82c0-0.551-0.449-1-1-1H7.365c-0.551,0-1,0.449-1,1V29c0,0.551,0.449,1,1,1h12.075c0.551,0,1-0.449,1-1v-2.82c0-0.552,0.448-1,1-1s1,0.448,1,1V29C22.439,30.654,21.094,32,19.439,32z"/><path d="M18.598,12.66c-0.265,0-0.52-0.105-0.707-0.293L15.43,9.906c-0.391-0.391-0.391-1.023,0-1.414s1.023-0.391,1.414,0l1.754,1.754l1.754-1.754c0.391-0.391,1.023-0.391,1.414,0c0.391,0.39,0.391,1.023,0,1.414l-2.461,2.461C19.118,12.555,18.863,12.66,18.598,12.66z"/></svg>