<svg xmlns="http://www.w3.org/2000/svg" viewBox="0 0 32 32"><!--! Font Icona - https://fonticona.com | License - https://fonticona.com/license | Copyright 2022 FontIcona.com --><path d="M14.949,31.997c-0.555,0-1.11-0.04-1.663-0.121c-3.71-0.546-6.957-2.819-8.909-6.236c-1.916-3.355-2.225-7.222-0.845-10.607l1.852,0.754c-1.146,2.813-0.88,6.043,0.73,8.861c1.645,2.881,4.365,4.794,7.463,5.25c3.19,0.471,6.521-0.734,8.894-3.224c2.381-2.496,3.431-5.878,2.809-9.045l1.963-0.385c0.746,3.803-0.496,7.844-3.324,10.81C21.505,30.586,18.245,31.997,14.949,31.997z"/><path d="M18.119,25.964c-1.114,0-2.19-0.577-2.886-1.571c-0.875,1.255-2.356,1.845-3.759,1.451c-0.574-0.161-1.061-0.447-1.489-0.7c-0.449-0.265-0.837-0.493-1.24-0.545c-0.547-0.071-0.934-0.573-0.863-1.121c0.071-0.548,0.569-0.925,1.121-0.863c0.808,0.105,1.44,0.478,1.998,0.807c0.354,0.209,0.69,0.406,1.014,0.497c0.749,0.212,1.414-0.318,1.717-0.897c0.104-0.197,0.27-0.354,0.472-0.446l0.616-0.28c0.264-0.119,0.564-0.119,0.828,0l0.616,0.28c0.202,0.092,0.368,0.249,0.472,0.445c0.303,0.58,0.975,1.109,1.716,0.898c0.325-0.091,0.661-0.288,1.016-0.498c0.558-0.328,1.189-0.7,1.997-0.806c0.549-0.062,1.05,0.315,1.121,0.863c0.07,0.548-0.316,1.05-0.863,1.121c-0.402,0.052-0.79,0.28-1.239,0.545c-0.429,0.253-0.916,0.539-1.491,0.7C18.702,25.925,18.409,25.964,18.119,25.964z"/><path d="M14.62,24.498c-0.136,0-0.274-0.027-0.407-0.086c-0.506-0.222-0.733-0.822-0.512-1.328c0.18-0.412,0.729-1.111,1.643-1.116c0.002,0,0.005,0,0.007,0c0.407,0,0.779,0.148,1.051,0.419c0.416,0.414,0.448,0.945,0.448,1.098c0,0.553-0.447,1-1,1c-0.229,0-0.438-0.076-0.606-0.205C15.067,24.421,14.848,24.498,14.62,24.498z M14.85,23.484c0,0.007,0,0.014,0,0.022C14.85,23.499,14.85,23.492,14.85,23.484z"/><path d="M15.233,29.625c-0.553,0-1-0.447-1-1v-1.281c0-0.553,0.447-1,1-1s1,0.447,1,1v1.281C16.233,29.178,15.786,29.625,15.233,29.625z"/><ellipse cx="18.6" cy="17.726" rx="1" ry="1.034"/><ellipse cx="12.229" cy="17.705" rx="1.041" ry="1.034"/><path d="M27.019,18.722c-1.23,0-2.462-0.354-3.404-1.05c-0.712-0.526-1.268-1.13-1.806-1.713c-0.631-0.684-1.227-1.33-2.018-1.782c-1.659-0.949-3.763-1.668-6.433-2.199c-1.459-0.289-2.97-0.354-4.569-0.423c-1.348-0.059-2.74-0.118-4.101-0.326c-2.142-0.327-3.794-1.485-4.42-3.098c-0.584-1.506-0.215-3.191,1.039-4.745c1.891-2.343,5.277-3.048,7.129-3.26c2.688-0.311,5.886-0.043,9,0.751c6.337,1.612,13.477,5.831,14.51,12.837c0.263,1.781-0.456,3.324-1.972,4.233C29.109,18.466,28.064,18.722,27.019,18.722z M10.733,2c-0.718,0-1.411,0.037-2.069,0.112c-1.246,0.143-4.304,0.675-5.8,2.529c-0.797,0.987-1.05,1.943-0.73,2.766C2.497,8.345,3.564,9.034,4.99,9.252c1.253,0.19,2.531,0.246,3.885,0.304c1.604,0.069,3.264,0.141,4.873,0.461c2.926,0.581,5.161,1.352,7.035,2.424c1.06,0.605,1.79,1.397,2.495,2.163c0.497,0.538,0.966,1.046,1.524,1.459c1.094,0.808,2.951,0.886,4.143,0.169c0.823-0.493,1.167-1.242,1.022-2.227c-0.891-6.033-7.312-9.736-13.025-11.19l0,0C14.833,2.277,12.691,2,10.733,2z"/><path d="M4.426,16.294c-0.112,0-0.226-0.009-0.342-0.028c-1.736-0.287-1.726-2.216-1.722-2.941c0.007-1.043-0.049-2.228-0.508-3.267l1.83-0.809c0.611,1.385,0.686,2.833,0.678,4.066c-0.001,0.251-0.005,0.865,0.104,1.021c0.123-0.018,0.646-0.346,0.869-0.485l0.204-0.127c1.941-1.18,4.24-1.126,6.27-1.069l0.775,0.017c1.71,0.024,3.419,0.206,5.071,0.381c1.34,0.142,2.725,0.288,4.076,0.346l-0.086,1.998c-1.413-0.061-2.83-0.21-4.2-0.355c-1.608-0.17-3.271-0.346-4.891-0.369l-0.798-0.018c-1.834-0.047-3.739-0.097-5.179,0.779l-0.181,0.112C5.884,15.867,5.203,16.294,4.426,16.294z"/><path d="M17.973,6.677c-0.274,0-0.549-0.113-0.746-0.334c-0.368-0.412-0.332-1.045,0.08-1.412c1.38-1.231,2.41-2.709,2.98-4.272c0.188-0.519,0.765-0.786,1.281-0.598c0.52,0.188,0.787,0.763,0.598,1.281c-0.683,1.874-1.902,3.631-3.527,5.081C18.447,6.593,18.21,6.677,17.973,6.677z"/></svg>