<svg xmlns="http://www.w3.org/2000/svg" viewBox="0 0 32 32"><!--! Font Icona - https://fonticona.com | License - https://fonticona.com/license | Copyright 2022 FontIcona.com --><path d="M16.665,20.323H3.188c-0.347,0-0.669-0.18-0.851-0.475c-0.183-0.295-0.199-0.663-0.044-0.974l6.738-13.45c0.34-0.677,1.449-0.677,1.789,0l6.738,13.45c0.155,0.311,0.139,0.679-0.044,0.974C17.334,20.144,17.012,20.323,16.665,20.323z M4.808,18.323h10.238L9.927,8.105L4.808,18.323z"/><path d="M27.78,32c-0.004,0-0.009,0-0.013,0c-0.372-0.005-0.711-0.216-0.88-0.549l-15.178-30c-0.156-0.31-0.142-0.679,0.041-0.976C11.933,0.18,12.255,0,12.603,0h4.964c1.296,0,2.771,0.933,3.43,2.169l8.319,15.625l0,0l2.209,4.149c0.641,1.204,0.638,3.018-0.008,4.219l-2.855,5.312C28.486,31.798,28.148,32,27.78,32z M14.229,2l13.578,26.838l1.947-3.623c0.327-0.609,0.329-1.721,0.004-2.332L19.23,3.109C18.897,2.485,18.062,2,17.566,2H14.229z"/><path d="M22.609,32H6.064c-1.305,0-2.769-0.951-3.405-2.213l-2.552-5.062c-0.156-0.311-0.141-0.679,0.041-0.975S0.653,23.274,1,23.274h18.24c0.379,0,0.725,0.214,0.895,0.552l3.369,6.726c0.155,0.311,0.139,0.679-0.044,0.974C23.278,31.82,22.956,32,22.609,32z M2.624,25.274l1.82,3.612C4.761,29.514,5.575,30,6.064,30H20.99l-2.367-4.726H2.624z"/></svg>