<svg xmlns="http://www.w3.org/2000/svg" viewBox="0 0 32 32"><!--! Font Icona - https://fonticona.com | License - https://fonticona.com/license | Copyright 2022 FontIcona.com --><path d="M9.249,32c-2.062,0-3.726-1.665-3.726-3.711c0-0.553,0.448-1,1-1s1,0.447,1,1C7.522,29.232,8.29,30,9.233,30c0.925-0.015,1.689-0.763,1.723-1.703c-0.04-1.875,0.842-3.741,2.358-4.938c3.218-2.338,4.64-4.761,4.38-7.43c-0.315-3.104-2.451-5.274-5.194-5.274c-2.855,0-5.178,2.322-5.178,5.178c0,0.553-0.448,1-1,1s-1-0.447-1-1c0-3.958,3.22-7.178,7.178-7.178c3.747,0,6.768,2.977,7.184,7.077c0.331,3.392-1.407,6.492-5.163,9.222c-0.995,0.785-1.592,2.05-1.565,3.358C12.882,30.374,11.254,31.97,9.249,32z"/><path d="M21.522,11.533c-0.425,0-0.819-0.273-0.954-0.7c-0.879-2.797-3.44-4.703-6.372-4.744c-0.552-0.008-0.994-0.462-0.986-1.014c0.008-0.548,0.454-0.986,1-0.986c0.005,0,0.01,0,0.015,0c3.796,0.053,7.112,2.522,8.251,6.145c0.166,0.526-0.127,1.088-0.654,1.254C21.723,11.519,21.622,11.533,21.522,11.533z"/><path d="M25.677,9.511c-0.424,0-0.817-0.271-0.953-0.697C23.45,4.805,19.768,2.066,15.562,2c-0.552-0.009-0.993-0.464-0.984-1.016C14.587,0.432,15.063,0.013,15.593,0c5.066,0.08,9.502,3.379,11.038,8.208c0.167,0.526-0.124,1.088-0.65,1.256C25.88,9.496,25.778,9.511,25.677,9.511z"/><path d="M9.271,23.536c-0.121,0-0.243-0.006-0.365-0.02c-0.549-0.059-0.947-0.551-0.888-1.101c0.058-0.549,0.542-0.949,1.1-0.888c0.79,0.074,1.5-0.487,1.589-1.274c0.042-0.76-0.556-1.485-1.365-1.596c-0.271-0.038-0.516-0.185-0.676-0.407c-0.16-0.222-0.222-0.5-0.171-0.77l0.159-0.841c-0.003-0.353,0.04-0.704,0.13-1.047c0.271-1.033,0.928-1.899,1.85-2.439c0.923-0.539,2-0.687,3.033-0.417c1.033,0.271,1.9,0.927,2.439,1.85c0.54,0.922,0.688,1.999,0.417,3.032c-0.14,0.534-0.682,0.853-1.221,0.715c-0.534-0.141-0.854-0.687-0.714-1.221c0.135-0.517,0.061-1.056-0.208-1.517c-0.27-0.461-0.703-0.789-1.22-0.924c-0.516-0.136-1.056-0.062-1.517,0.208c-0.461,0.27-0.79,0.703-0.925,1.22c-0.05,0.19-0.071,0.387-0.063,0.582c0.003,0.076-0.002,0.151-0.017,0.226l-0.012,0.066c1.296,0.604,2.157,1.96,2.073,3.448C12.496,22.228,10.998,23.536,9.271,23.536z"/></svg>