<svg xmlns="http://www.w3.org/2000/svg" viewBox="0 0 32 32"><!--! Font Icona - https://fonticona.com | License - https://fonticona.com/license | Copyright 2022 FontIcona.com --><path d="M16,32c-0.553,0-1-0.448-1-1V1c0-0.552,0.447-1,1-1s1,0.448,1,1v30C17,31.552,16.553,32,16,32z"/><path d="M2.989,24.462c-0.347,0-0.684-0.18-0.868-0.502c-0.275-0.479-0.109-1.09,0.37-1.365L28.515,7.67c0.477-0.274,1.09-0.109,1.364,0.37c0.275,0.479,0.109,1.09-0.37,1.365L3.485,24.33C3.329,24.42,3.158,24.462,2.989,24.462z"/><path d="M29.011,24.462c-0.169,0-0.34-0.042-0.496-0.132L2.491,9.405C2.012,9.13,1.846,8.519,2.121,8.04c0.274-0.479,0.887-0.646,1.364-0.37l26.023,14.925c0.479,0.275,0.646,0.886,0.37,1.365C29.694,24.282,29.357,24.462,29.011,24.462z"/></svg>