<svg xmlns="http://www.w3.org/2000/svg" viewBox="0 0 32 32"><!--! Font Icona - https://fonticona.com | License - https://fonticona.com/license | Copyright 2022 FontIcona.com --><path d="M20.855,17.993c-0.072,0-0.145-0.008-0.218-0.024c-0.539-0.12-0.879-0.654-0.759-1.193l1.775-7.99c0.12-0.539,0.654-0.879,1.193-0.759c0.539,0.12,0.879,0.654,0.759,1.193l-1.775,7.99C21.727,17.676,21.313,17.993,20.855,17.993z"/><path d="M14.1,32.001c-1.809,0-3.628-0.323-5.363-0.979c-3.283-1.428-5.764-4.091-7.029-7.517c-1.514-4.096-1.173-8.934,0.936-13.274c4.051-8.339,13.1-12.353,20.602-9.138c6.055,2.562,9.171,9.417,7.574,16.67c-0.036,0.165-0.924,4.096-3.755,5.908c-1.336,0.855-2.865,1.103-4.539,0.734c-1.809-0.452-2.495-2.241-2.706-4.055c-1.578,2.055-3.781,4.032-6.683,3.854c-1.764-0.107-3.236-0.829-4.257-2.087c-1.153-1.421-1.639-3.423-1.332-5.493c0.449-2.698,2.072-5.081,4.571-6.728c3.071-2.023,7.188-2.738,10.749-1.865c0.536,0.131,0.864,0.673,0.733,1.209c-0.131,0.536-0.677,0.862-1.209,0.733c-3.035-0.744-6.551-0.134-9.172,1.592c-1.436,0.946-3.242,2.646-3.696,5.369c-0.219,1.477,0.121,2.95,0.91,3.922c0.668,0.823,1.619,1.278,2.825,1.351c2.884,0.179,4.996-2.87,6.742-5.736c0.244-0.402,0.737-0.579,1.18-0.425c0.445,0.153,0.722,0.595,0.667,1.062c-0.278,2.37-0.042,5.055,1.136,5.35c4.467,0.986,5.827-4.877,5.883-5.126c1.387-6.296-1.247-12.218-6.404-14.4c-6.524-2.794-14.436,0.794-18.02,8.172c-1.871,3.853-2.184,8.12-0.858,11.707c1.075,2.91,3.173,5.168,5.907,6.358c3.788,1.433,8.102,1.01,11.493-1.147c0.465-0.296,1.084-0.159,1.38,0.307c0.296,0.466,0.159,1.084-0.307,1.38C19.675,31.226,16.901,32.001,14.1,32.001z"/></svg>