<svg xmlns="http://www.w3.org/2000/svg" viewBox="0 0 32 32"><!--! Font Icona - https://fonticona.com | License - https://fonticona.com/license | Copyright 2022 FontIcona.com --><path d="M5.127,29.844c-0.552,0-1-0.448-1-1V2.971C4.127,1.333,5.46,0,7.099,0h19.774c0.552,0,1,0.448,1,1v25.688c0,0.552-0.448,1-1,1H7.283c-0.552,0-1-0.448-1-1s0.448-1,1-1h18.589V2H7.099C6.563,2,6.127,2.436,6.127,2.971v25.873C6.127,29.396,5.68,29.844,5.127,29.844z"/><path d="M26.873,32H7.283c-1.74,0-3.156-1.416-3.156-3.156s1.416-3.156,3.156-3.156c0.552,0,1,0.448,1,1s-0.448,1-1,1c-0.637,0-1.156,0.519-1.156,1.156C6.127,29.481,6.646,30,7.283,30h18.589v-3.312c0-0.552,0.448-1,1-1s1,0.448,1,1V31C27.873,31.552,27.425,32,26.873,32z"/><path d="M16,22.944c-4.424,0-8.022-3.599-8.022-8.022S11.576,6.899,16,6.899s8.022,3.599,8.022,8.022S20.424,22.944,16,22.944z M16,8.899c-3.321,0-6.022,2.702-6.022,6.022s2.702,6.022,6.022,6.022s6.022-2.702,6.022-6.022S19.321,8.899,16,8.899z"/><path d="M15.313,22.664c-1.956-1.838-3.077-4.66-3.077-7.742s1.122-5.903,3.077-7.742l1.37,1.457c-1.555,1.462-2.447,3.752-2.447,6.285s0.892,4.823,2.447,6.285L15.313,22.664z"/><path d="M16.687,22.664l-1.37-1.457c1.555-1.462,2.447-3.752,2.447-6.285s-0.892-4.823-2.447-6.285l1.37-1.457c1.956,1.838,3.077,4.66,3.077,7.742S18.643,20.825,16.687,22.664z"/><rect x="8.982" y="13.922" width="14.036" height="2"/></svg>