<svg xmlns="http://www.w3.org/2000/svg" viewBox="0 0 32 32"><!--! Font Icona - https://fonticona.com | License - https://fonticona.com/license | Copyright 2022 FontIcona.com --><path d="M9.306,32H2.319c-0.869,0-1.597-0.365-1.999-1.002c-0.416-0.659-0.426-1.518-0.026-2.355l6.77-14.186c0.14-0.293,0.414-0.5,0.734-0.555c0.319-0.055,0.646,0.049,0.876,0.279c7.872,7.891,4.632,15.017,4.491,15.316C12.501,30.901,10.806,32,9.306,32z M8.237,16.641L2.099,29.504c-0.126,0.265-0.101,0.406-0.087,0.427C2.018,29.941,2.104,30,2.319,30h6.987c0.738,0,1.715-0.646,2.051-1.357C11.464,28.41,13.831,23.042,8.237,16.641z"/><path d="M29.682,32h-7.189c-1.444,0-3.224-0.968-4.053-2.202c-0.474-0.707-11.497-17.439-1.83-29.426c0.215-0.267,0.551-0.41,0.895-0.365c0.341,0.04,0.638,0.252,0.786,0.562l13.415,28.074c0.4,0.837,0.391,1.695-0.024,2.354C31.28,31.635,30.551,32,29.682,32z M17.211,2.948c-6.956,10.771,2.786,25.581,2.89,25.735C20.563,29.372,21.703,30,22.493,30h7.189c0.215,0,0.301-0.058,0.308-0.068c0.018-0.028,0.029-0.181-0.088-0.426L17.211,2.948z"/></svg>