<svg xmlns="http://www.w3.org/2000/svg" viewBox="0 0 32 32"><!--! Font Icona - https://fonticona.com | License - https://fonticona.com/license | Copyright 2022 FontIcona.com --><path d="M16,32c-5.138,0-9.162-7.028-9.162-16S10.862,0,16,0s9.162,7.028,9.162,16S21.138,32,16,32z M16,2c-3.882,0-7.162,6.411-7.162,14S12.118,30,16,30s7.162-6.411,7.162-14S19.882,2,16,2z"/><path d="M26.584,28.491c-4.758,0-11.608-3.17-16.964-7.274C3.686,16.669,0,11.569,0,7.907C0,6.521,0.537,5.377,1.551,4.6C5.542,1.539,15.277,5.34,22.38,10.783c5.934,4.548,9.62,9.647,9.62,13.31c0,1.386-0.537,2.53-1.551,3.308C29.467,28.153,28.137,28.491,26.584,28.491z M5.461,5.494c-1.167,0-2.09,0.231-2.693,0.694C2.251,6.583,2,7.146,2,7.907c0,2.464,2.732,7.044,8.837,11.722c7.915,6.066,15.902,8.096,18.396,6.184C29.749,25.417,30,24.854,30,24.093c0-2.464-2.732-7.044-8.837-11.722C15.162,7.772,9.119,5.494,5.461,5.494z"/><path d="M5.416,28.491c-1.553,0-2.882-0.337-3.865-1.09C0.537,26.623,0,25.479,0,24.093c0-3.662,3.686-8.762,9.62-13.31C16.723,5.341,26.456,1.54,30.449,4.6C31.463,5.377,32,6.521,32,7.907c0,3.662-3.686,8.762-9.62,13.31C17.025,25.32,10.174,28.491,5.416,28.491z M26.539,5.494c-3.658,0-9.7,2.278-15.702,6.877C4.732,17.049,2,21.629,2,24.093c0,0.762,0.251,1.324,0.768,1.72c2.492,1.913,10.48-0.117,18.396-6.184C27.268,14.951,30,10.371,30,7.907c0-0.762-0.251-1.324-0.768-1.72C28.63,5.725,27.705,5.494,26.539,5.494z"/><path d="M16,19.25c-1.896,0-3.438-1.458-3.438-3.25s1.542-3.25,3.438-3.25s3.438,1.458,3.438,3.25S17.896,19.25,16,19.25z M16,14.75c-0.792,0-1.438,0.561-1.438,1.25s0.645,1.25,1.438,1.25s1.438-0.561,1.438-1.25S16.792,14.75,16,14.75z"/></svg>