<svg xmlns="http://www.w3.org/2000/svg" viewBox="0 0 32 32"><!--! Font Icona - https://fonticona.com | License - https://fonticona.com/license | Copyright 2022 FontIcona.com --><path d="M15.999,25.003c-0.178,0-0.358-0.047-0.521-0.146l-15-9.174c-0.471-0.288-0.619-0.904-0.331-1.375c0.288-0.472,0.903-0.621,1.375-0.332l15,9.174c0.471,0.288,0.619,0.904,0.331,1.375C16.665,24.833,16.336,25.003,15.999,25.003z"/><path d="M16.001,25.003c-0.337,0-0.666-0.17-0.854-0.479c-0.288-0.471-0.14-1.087,0.331-1.375l15-9.174c0.472-0.289,1.087-0.14,1.375,0.332c0.288,0.471,0.14,1.087-0.331,1.375l-15,9.174C16.359,24.956,16.179,25.003,16.001,25.003z"/><path d="M25.815,14.434c-1.205-1.639-2.622-3.12-4.318-4.196c-1.687-1.082-3.663-1.699-5.707-1.743c-2.047-0.053-4.121,0.415-6.039,1.251c-1.918,0.838-3.71,2.027-5.186,3.559c1.354-1.641,3.071-2.989,4.973-4.002c1.903-1.009,4.027-1.676,6.236-1.79c2.206-0.132,4.486,0.371,6.468,1.433c1.994,1.051,3.69,2.57,5.136,4.239c0.362,0.418,0.317,1.05-0.101,1.412c-0.418,0.362-1.05,0.317-1.412-0.101C25.848,14.477,25.831,14.455,25.815,14.434z"/><path d="M22.11,16.757c-0.766-1.063-1.626-2.032-2.661-2.759c-1.028-0.73-2.242-1.181-3.53-1.25c-1.282-0.073-2.609,0.27-3.84,0.815c-1.232,0.554-2.396,1.309-3.395,2.261c0.879-1.066,1.961-1.974,3.166-2.7c1.207-0.715,2.571-1.266,4.055-1.365c1.471-0.107,3.001,0.248,4.318,0.961c1.326,0.706,2.45,1.708,3.432,2.767c0.377,0.405,0.355,1.039-0.049,1.416s-1.039,0.355-1.416-0.049C22.163,16.825,22.133,16.788,22.11,16.757z"/><path d="M18.446,18.885c-0.236-0.468-0.63-0.955-1.07-1.329c-0.449-0.376-0.947-0.659-1.517-0.711c-0.602-0.051-1.264,0.045-1.897,0.225c-0.631,0.19-1.263,0.449-1.79,0.887c0.413-0.552,0.993-0.976,1.602-1.329c0.619-0.344,1.286-0.624,2.044-0.744c0.798-0.132,1.638,0.078,2.337,0.414c0.712,0.347,1.341,0.793,1.914,1.418l0.026,0.029c0.377,0.412,0.349,1.052-0.063,1.43s-1.052,0.349-1.43-0.063C18.54,19.044,18.487,18.964,18.446,18.885z"/></svg>