<svg xmlns="http://www.w3.org/2000/svg" viewBox="0 0 32 32"><!--! Font Icona - https://fonticona.com | License - https://fonticona.com/license | Copyright 2022 FontIcona.com --><path d="M27.87,27.522H4.113c-0.338,0-0.654-0.171-0.838-0.455c-4.374-6.723-4.374-15.412,0-22.135c0.185-0.284,0.5-0.455,0.838-0.455H27.87c0.338,0,0.654,0.171,0.838,0.455c4.374,6.723,4.374,15.412,0,22.135C28.524,27.352,28.208,27.522,27.87,27.522z M4.665,25.522h22.654c3.561-5.842,3.561-13.203,0-19.045H4.665C1.104,12.319,1.104,19.681,4.665,25.522z"/><path d="M3.233,21.015c-0.214,0-0.429-0.068-0.611-0.209c-0.437-0.338-0.518-0.966-0.18-1.402l6.379-8.255c0.262-0.339,0.71-0.472,1.115-0.335c0.405,0.138,0.677,0.519,0.677,0.946v8.255c0,0.553-0.448,1-1,1s-1-0.447-1-1v-1.369H5.555l-1.53,1.98C3.828,20.881,3.532,21.015,3.233,21.015z M7.101,16.646h1.512v-1.956L7.101,16.646z"/><path d="M14.373,21.015h-1.897c-0.552,0-1-0.447-1-1V11.76c0-0.553,0.448-1,1-1h1.897c2.702,0,4.72,2.707,4.72,5.128C19.093,18.308,17.074,21.015,14.373,21.015z M13.475,19.015h0.897c1.507,0,2.72-1.711,2.72-3.127c0-1.417-1.213-3.128-2.72-3.128h-0.897V19.015z"/><path d="M19.636,21.004c-0.222,0-0.446-0.073-0.631-0.225c-0.428-0.349-0.492-0.979-0.144-1.407c1.645-2.019,1.645-4.95,0-6.97c-0.349-0.429-0.284-1.059,0.144-1.407c0.429-0.349,1.059-0.283,1.407,0.144c2.241,2.752,2.241,6.746,0,9.497C20.214,20.878,19.926,21.004,19.636,21.004z"/><path d="M22.938,21.004c-0.222,0-0.446-0.073-0.631-0.225c-0.428-0.349-0.492-0.979-0.144-1.407c1.645-2.019,1.645-4.95,0-6.97c-0.349-0.429-0.284-1.059,0.144-1.407c0.429-0.349,1.058-0.283,1.407,0.144c2.241,2.752,2.241,6.746,0,9.497C23.516,20.878,23.228,21.004,22.938,21.004z"/><path d="M26.24,21.004c-0.222,0-0.446-0.073-0.631-0.225c-0.428-0.349-0.492-0.979-0.144-1.407c1.645-2.019,1.645-4.95,0-6.97c-0.349-0.429-0.284-1.059,0.144-1.407s1.058-0.283,1.407,0.144c2.241,2.752,2.241,6.746,0,9.497C26.818,20.878,26.53,21.004,26.24,21.004z"/></svg>