<svg xmlns="http://www.w3.org/2000/svg" viewBox="0 0 32 32"><!--! Font Icona - https://fonticona.com | License - https://fonticona.com/license | Copyright 2022 FontIcona.com --><path d="M10.811,32H6.507c-0.318,0-0.618-0.151-0.806-0.408c-0.188-0.256-0.243-0.587-0.148-0.891l9.402-30c0.13-0.416,0.515-0.7,0.951-0.701c0.001,0,0.002,0,0.003,0c0.435,0,0.82,0.281,0.953,0.695l9.584,29.998c0.097,0.305,0.043,0.637-0.145,0.895c-0.188,0.258-0.488,0.41-0.808,0.41h-4.292c-0.437,0-0.823-0.284-0.954-0.7l-1.384-4.412l-5.727,0.034l-1.371,4.379C11.634,31.716,11.248,32,10.811,32z M7.868,30h2.208l1.37-4.375c0.13-0.415,0.513-0.698,0.948-0.701l7.196-0.042c0.437-0.001,0.828,0.281,0.96,0.7l1.385,4.416h2.189L15.918,4.314L7.868,30z"/><path d="M18.495,23.364h-4.991c-0.318,0-0.618-0.151-0.806-0.408c-0.188-0.257-0.243-0.589-0.147-0.893l2.496-7.922c0.131-0.416,0.517-0.699,0.954-0.699l0,0c0.437,0,0.823,0.283,0.954,0.699l2.495,7.922c0.096,0.305,0.041,0.636-0.147,0.893C19.113,23.213,18.813,23.364,18.495,23.364z M14.868,21.364h2.264L16,17.771L14.868,21.364z"/><path d="M8.099,26.92H1c-0.552,0-1-0.447-1-1V22.9c0-0.527,0.409-0.963,0.935-0.998l8.214-0.539c0.332-0.014,0.647,0.12,0.852,0.38c0.204,0.26,0.267,0.603,0.168,0.917l-1.115,3.559C8.923,26.636,8.536,26.92,8.099,26.92z M2,24.92h5.365l0.459-1.465L2,23.837V24.92z"/><path d="M31,26.92h-7.099c-0.437,0-0.824-0.284-0.954-0.701l-1.115-3.559c-0.099-0.314-0.036-0.657,0.168-0.917s0.515-0.393,0.852-0.38l8.214,0.539C31.591,21.938,32,22.373,32,22.9v3.02C32,26.473,31.552,26.92,31,26.92z M24.636,24.92H30v-1.083l-5.823-0.382L24.636,24.92z"/></svg>