<svg xmlns="http://www.w3.org/2000/svg" viewBox="0 0 32 32"><!--! Font Icona - https://fonticona.com | License - https://fonticona.com/license | Copyright 2022 FontIcona.com --><path d="M22.457,29.768H3.731c-1.198,0-2.278-0.492-2.964-1.352s-0.926-2.022-0.659-3.19l4.3-18.895c0.523-2.299,2.778-4.099,5.135-4.099h18.726c1.198,0,2.278,0.492,2.964,1.352s0.926,2.022,0.659,3.19l-4.3,18.895C27.068,27.968,24.813,29.768,22.457,29.768z M9.543,4.232c-1.412,0-2.871,1.164-3.186,2.542l-4.3,18.895c-0.132,0.581-0.035,1.113,0.273,1.5c0.308,0.386,0.806,0.599,1.4,0.599h18.726c1.412,0,2.871-1.164,3.186-2.542l4.3-18.895c0.132-0.581,0.035-1.113-0.273-1.5c-0.308-0.386-0.806-0.599-1.4-0.599H9.543z"/><path d="M13.072,25.815c-0.037,0-0.074-0.002-0.111-0.005c-0.434-0.037-0.819-0.285-1.032-0.664c-0.96-1.714-1.411-2.475-2.027-3.106c-0.616-0.677-1.349-1.173-3.002-2.233c-0.362-0.23-0.589-0.628-0.603-1.062c-0.014-0.433,0.188-0.842,0.536-1.095l1.359-0.98c0.438-0.273,0.901-0.297,1.304-0.105l2.166,0.979l0.836-1.001l-4.69-6.5C7.535,9.662,7.506,9.157,7.73,8.754l1.073-1.948c0.182-0.33,0.514-0.559,0.888-0.609c0.38-0.054,0.758,0.08,1.021,0.349l5.891,5.796l1.117-1.176c0.377-0.395,0.904-0.62,1.448-0.62c0.002,0,0.004,0,0.006,0c0.547,0.002,1.075,0.23,1.45,0.628l0.741,0.787c0.374,0.397,0.571,0.939,0.54,1.484c-0.031,0.546-0.288,1.062-0.705,1.414l-1.241,1.046l5.446,6.24c0.241,0.263,0.349,0.651,0.276,1.022c-0.073,0.371-0.32,0.689-0.662,0.853l-2.013,0.957c-0.418,0.196-0.914,0.138-1.271-0.15l-6.214-5.075l-1.051,0.774l0.856,2.241c0.159,0.387,0.108,0.85-0.146,1.215l-1.104,1.355C13.833,25.641,13.462,25.815,13.072,25.815z M12.53,24.072c0,0.001-0.001,0.001-0.002,0.002L12.53,24.072z M13.456,23.47c0.004,0.012,0.008,0.023,0.013,0.034L13.456,23.47z M23.891,23.45c0.008,0.009,0.015,0.017,0.022,0.025L23.891,23.45z M8.83,18.673c1.133,0.741,1.885,1.291,2.526,1.996c0.647,0.663,1.147,1.443,1.817,2.615l0.144-0.177l-1.211-3.17L9.014,18.54L8.83,18.673z M15.581,17.222l7.024,5.73l0.602-0.286l-6.096-6.982l2.798-2.353l-0.74-0.786l-2.516,2.651l-6.607-6.501L9.725,9.278l5.301,7.354l-2.166,2.597L15.581,17.222z M8.652,18.377c0.009,0.004,0.017,0.008,0.025,0.012L8.652,18.377z M7.976,18.12c0.002,0.002,0.004,0.003,0.006,0.004C7.979,18.123,7.978,18.122,7.976,18.12z M9.484,9.716L9.48,9.723C9.481,9.721,9.482,9.719,9.484,9.716z M9.297,7.958C9.303,7.964,9.309,7.97,9.315,7.977L9.297,7.958z"/></svg>