<svg xmlns="http://www.w3.org/2000/svg" viewBox="0 0 32 32"><!--! Font Icona - https://fonticona.com | License - https://fonticona.com/license | Copyright 2022 FontIcona.com --><path d="M16.036,22.357c-0.872,0-1.75-0.318-2.433-0.958c-0.155-0.118-0.437-0.187-0.709-0.136c-1.726,0.34-3.46-0.658-4.034-2.325c-0.1-0.278-0.324-0.504-0.612-0.61c-1.604-0.517-2.622-2.199-2.331-3.899c0.061-0.376-0.046-0.771-0.296-1.072c-1.035-1.271-1.035-3.107-0.005-4.372c0.245-0.298,0.352-0.683,0.297-1.06c-0.32-1.688,0.698-3.397,2.376-3.932c0.247-0.092,0.47-0.32,0.571-0.611c0.593-1.672,2.346-2.645,4.07-2.272c0.242,0.047,0.511-0.021,0.718-0.193c1.314-1.232,3.443-1.232,4.802,0.04c0.157,0.122,0.437,0.194,0.712,0.146c1.694-0.36,3.435,0.624,4.019,2.289c0.102,0.283,0.327,0.509,0.616,0.612c1.609,0.526,2.621,2.208,2.328,3.903c-0.061,0.379,0.047,0.779,0.299,1.085c0.483,0.579,0.759,1.321,0.772,2.083c0.02,0.821-0.251,1.626-0.764,2.268c-0.248,0.302-0.355,0.685-0.303,1.06c0.32,1.683-0.699,3.392-2.376,3.927c-0.24,0.093-0.47,0.327-0.576,0.622c-0.569,1.673-2.322,2.66-4.067,2.282c-0.235-0.042-0.505,0.026-0.711,0.2C17.748,22.048,16.895,22.357,16.036,22.357z M13.072,19.247c0.664,0,1.31,0.222,1.836,0.638c0.652,0.607,1.575,0.608,2.165,0.055c0.707-0.597,1.582-0.825,2.437-0.666c0.78,0.171,1.534-0.256,1.782-0.985c0.312-0.86,0.966-1.526,1.802-1.846c0.769-0.247,1.204-0.977,1.064-1.715c-0.138-0.974,0.127-1.921,0.721-2.644c0.211-0.265,0.328-0.61,0.318-0.963l0-0.011c-0.004-0.308-0.116-0.607-0.312-0.842C24.264,9.514,24,8.536,24.153,7.578c0.127-0.735-0.305-1.454-1.003-1.682c-0.881-0.314-1.547-0.981-1.854-1.836c-0.254-0.727-1.009-1.151-1.755-0.994C18.67,3.22,17.809,3,17.144,2.469c-0.651-0.605-1.58-0.606-2.173-0.051c-0.715,0.596-1.591,0.817-2.443,0.652c-0.77-0.167-1.524,0.255-1.78,0.976C10.452,4.898,9.792,5.57,8.94,5.884C8.182,6.127,7.747,6.856,7.886,7.595c0.143,0.975-0.123,1.928-0.722,2.656c-0.431,0.529-0.431,1.303,0.003,1.836c0.612,0.739,0.877,1.714,0.723,2.67c-0.126,0.735,0.309,1.454,1.01,1.68c0.883,0.324,1.542,0.989,1.846,1.837c0.254,0.739,1.016,1.172,1.767,1.024C12.7,19.264,12.887,19.247,13.072,19.247z"/><path d="M22.605,32c-0.334,0-0.653-0.168-0.84-0.457l-6.251-9.667c-0.3-0.464-0.167-1.083,0.297-1.383c0.464-0.3,1.083-0.167,1.383,0.297l4.695,7.261l0.255-2.607c0.029-0.301,0.194-0.573,0.447-0.739c0.254-0.166,0.569-0.207,0.856-0.115l2.576,0.833c-0.48-0.761-0.95-1.51-1.418-2.259c-0.937-1.497-1.874-2.994-2.905-4.585c-0.3-0.463-0.168-1.083,0.295-1.383c0.462-0.301,1.082-0.168,1.383,0.295c1.037,1.601,1.979,3.106,2.922,4.611c0.937,1.497,1.874,2.994,2.905,4.585c0.23,0.355,0.212,0.817-0.046,1.152c-0.258,0.336-0.698,0.475-1.101,0.343l-4.044-1.308l-0.413,4.223c-0.041,0.423-0.346,0.774-0.759,0.875C22.763,31.991,22.684,32,22.605,32z"/><path d="M9.428,32c-0.077,0-0.155-0.009-0.232-0.027c-0.413-0.099-0.719-0.447-0.763-0.869l-0.44-4.232l-4.052,1.311c-0.4,0.131-0.844-0.007-1.102-0.344c-0.257-0.336-0.275-0.798-0.044-1.153l5.917-9.104c0.301-0.463,0.92-0.594,1.383-0.293c0.463,0.301,0.595,0.92,0.293,1.383l-4.381,6.74l2.544-0.823c0.288-0.092,0.601-0.05,0.854,0.114c0.252,0.165,0.417,0.435,0.449,0.734l0.273,2.627l4.682-7.278c0.298-0.464,0.917-0.601,1.382-0.3c0.464,0.299,0.599,0.917,0.3,1.382l-6.223,9.673C10.083,31.832,9.763,32,9.428,32z"/></svg>