<svg xmlns="http://www.w3.org/2000/svg" viewBox="0 0 32 32"><!--! Font Icona - https://fonticona.com | License - https://fonticona.com/license | Copyright 2022 FontIcona.com --><path d="M8.862,16.442c-0.412,0-0.792-0.142-1.106-0.417c-0.811-0.708-0.922-2.048-0.962-3.249l-0.006-0.157c-0.015-0.344-0.013-0.725-0.01-1.122c0.009-1.214,0.02-2.725-0.583-3.325C6.109,8.086,5.888,7.834,5.09,7.832c-1.008,0.01-2.25,0.295-3.166,0.727c-0.489,0.229-1.078,0.021-1.31-0.472c-0.231-0.491-0.021-1.078,0.472-1.31c1.169-0.551,2.695-0.9,3.984-0.914C6.125,5.848,6.965,6.16,7.585,6.777c1.188,1.184,1.173,3.152,1.162,4.733c-0.003,0.363-0.006,0.711,0.008,1.024l0.006,0.175c0.038,1.127,0.156,1.58,0.248,1.762c0.474,0.027,0.87,0.396,0.92,0.883c0.055,0.541-0.34,1.023-0.88,1.079C8.985,16.439,8.924,16.442,8.862,16.442z"/><path d="M3.989,16.635c-0.012,0-0.024,0-0.037,0c-1.788-0.014-3.241-1.041-3.615-2.555c-0.457-1.851,0.976-3.643,2.547-4.095c1.568-0.448,3.487-0.228,5.268,0.607c0.492,0.23,0.704,0.816,0.473,1.309c-0.23,0.493-0.816,0.705-1.309,0.473c-1.356-0.637-2.773-0.819-3.889-0.496c-0.661,0.189-1.349,1.042-1.18,1.73c0.191,0.772,1.047,1.053,1.722,1.058c1.055-0.005,2.292-0.714,2.936-1.722c0.292-0.459,0.9-0.595,1.358-0.3c0.459,0.292,0.593,0.9,0.3,1.358C7.556,15.581,5.722,16.635,3.989,16.635z"/><path d="M13.343,16.442c-0.004,0-0.009,0-0.013,0c-0.432-0.006-0.81-0.293-0.932-0.707L9.817,6.943c-0.153-0.521,0.146-1.068,0.667-1.222c0.523-0.154,1.068,0.146,1.222,0.667l1.68,5.721l1.751-5.446c0.165-0.519,0.721-0.803,1.237-0.636c0.518,0.166,0.803,0.721,0.636,1.237l-2.73,8.494C14.148,16.167,13.77,16.442,13.343,16.442z"/><path d="M18.804,16.442c-0.427,0-0.806-0.275-0.937-0.684l-2.73-8.494c-0.167-0.517,0.118-1.071,0.636-1.237c0.516-0.167,1.072,0.118,1.237,0.636l1.751,5.446l1.68-5.721c0.153-0.521,0.698-0.821,1.222-0.667c0.521,0.153,0.82,0.7,0.667,1.222l-2.581,8.792c-0.122,0.414-0.5,0.701-0.932,0.707C18.812,16.442,18.808,16.442,18.804,16.442z"/><path d="M26.438,16.698c-1.054,0-2.089-0.403-2.862-1.159c-0.389-0.38-0.396-1.003-0.017-1.392c0.381-0.388,1.002-0.396,1.392-0.017c0.587,0.573,1.468,0.754,2.239,0.462c0.439-0.165,0.833-0.556,0.98-0.971c0.092-0.258,0.076-0.485-0.047-0.696c-0.261-0.447-1.001-0.636-1.716-0.818c-0.284-0.073-0.56-0.144-0.812-0.228c-1.325-0.435-2.541-1.7-2.299-3.276c0.191-1.244,0.986-2.214,2.179-2.662c1.388-0.521,3.057-0.249,4.156,0.674c0.416,0.35,0.471,0.971,0.121,1.387c-0.351,0.416-0.97,0.47-1.387,0.121c-0.556-0.467-1.479-0.61-2.198-0.34c-0.53,0.2-0.842,0.576-0.926,1.12c-0.075,0.487,0.442,0.935,0.968,1.106c0.214,0.071,0.446,0.129,0.685,0.19c1.005,0.256,2.255,0.575,2.931,1.735c0.414,0.71,0.485,1.544,0.2,2.346c-0.341,0.959-1.16,1.784-2.141,2.153C27.415,16.612,26.925,16.698,26.438,16.698z"/><path class="st0" d="M0.982,19.335c1.094,0.575,7.002,4.123,15.356,3.768c7.998-0.391,11.476-2.246,11.872-2.382c0.17-0.089,0.99,0.12,0.391,0.711c-1.184,1.028-4.905,3.519-12.299,3.874C7.309,25.804,0.676,19.81,0.484,19.654C0.292,19.499-0.112,18.759,0.982,19.335z"/><path class="st0" d="M15.241,25.586c-7.842,0-13.737-4.724-14.881-5.708c-0.188-0.154-0.485-0.567-0.301-0.848c0.228-0.345,0.777-0.056,1.039,0.084l0.262,0.141c4.778,2.606,9.817,3.812,14.968,3.599c3.267-0.16,7.928-0.685,11.574-2.273c0.109-0.048,0.185-0.08,0.228-0.095c0.181-0.103,0.646-0.003,0.839,0.26c0.086,0.118,0.24,0.438-0.191,0.865c-0.967,0.84-4.686,3.572-12.463,3.946C15.953,25.576,15.595,25.586,15.241,25.586z M0.618,19.438c0.009,0.009,0.017,0.017,0.023,0.022c1.216,1.046,7.462,6.057,15.647,5.597c7.618-0.366,11.225-3.011,12.148-3.812c0.114-0.113,0.132-0.187,0.13-0.199c-0.017-0.046-0.184-0.111-0.266-0.092c-0.046,0.018-0.108,0.045-0.199,0.085c-3.717,1.62-8.441,2.153-11.751,2.315c-5.256,0.214-10.372-1.009-15.23-3.659l-0.255-0.139C0.765,19.503,0.684,19.465,0.618,19.438z"/><path class="st0" d="M26.255,19.773c0.474-0.106,3.021-0.355,3.649,0.083c0.628,0.438-0.818,3.732-0.818,3.732s-0.13,0.378-0.036,0.462c0.213,0.19,0.569-0.071,0.569-0.071s2.972-3.971,1.896-5.047c-1.209-1.457-5.604,0.367-5.604,0.367s-0.397,0.144-0.249,0.45C25.728,19.883,25.864,19.86,26.255,19.773z"/><path class="st0" d="M29.239,24.369c-0.124,0-0.248-0.036-0.356-0.133c-0.144-0.13-0.155-0.375-0.033-0.729c0.771-1.763,1.121-3.292,0.911-3.445c-0.512-0.357-2.916-0.166-3.451-0.044h-0.001c-0.399,0.09-0.715,0.16-0.871-0.159c-0.088-0.181-0.061-0.332-0.022-0.427c0.099-0.244,0.359-0.35,0.411-0.368c0.455-0.189,4.593-1.847,5.881-0.29c1.18,1.176-1.57,4.932-1.888,5.355l-0.053,0.053C29.646,24.27,29.444,24.369,29.239,24.369z M28.334,19.357c0.707,0,1.392,0.07,1.713,0.294c0.718,0.501-0.272,2.99-0.732,4.037c-0.017,0.051-0.033,0.122-0.042,0.179c0.048-0.01,0.115-0.037,0.172-0.071c1.096-1.475,2.561-4.021,1.894-4.687c-0.907-1.094-4.155-0.066-5.331,0.42c-0.039,0.016-0.076,0.039-0.101,0.059c0.085-0.012,0.21-0.04,0.295-0.059C26.419,19.48,27.396,19.357,28.334,19.357z"/></svg>