<svg xmlns="http://www.w3.org/2000/svg" viewBox="0 0 32 32"><!--! Font Icona - https://fonticona.com | License - https://fonticona.com/license | Copyright 2022 FontIcona.com --><path d="M20.757,21.508c-0.452,0-0.861-0.308-0.972-0.767c-0.165-0.689-0.287-1.354-0.407-2.015c-0.147-0.81-0.287-1.574-0.506-2.37c-0.283-1.026-0.951-2.153-1.785-3.013c-0.528-0.545-1.138-1.017-1.664-1.407c-0.443-0.329-0.536-0.955-0.208-1.399c0.33-0.443,0.957-0.535,1.399-0.208c0.591,0.438,1.279,0.973,1.908,1.621c1.073,1.107,1.903,2.519,2.277,3.875c0.242,0.881,0.396,1.726,0.546,2.542c0.113,0.625,0.228,1.255,0.385,1.907c0.129,0.537-0.202,1.077-0.739,1.206C20.913,21.499,20.834,21.508,20.757,21.508z"/><path d="M16.018,12.133c-0.207,0-0.415-0.064-0.594-0.196l-0.666-0.485c-0.27-0.195-0.538-0.389-0.803-0.587l-0.768-0.574c-1.31-0.977-1.594-2.847-0.632-4.168l2.406-3.306c0.475-0.652,1.177-1.079,1.976-1.2c0.797-0.123,1.598,0.079,2.245,0.562l0.729,0.544c0.261,0.194,0.521,0.394,0.78,0.595c0.221,0.17,0.441,0.341,0.665,0.509c0.441,0.332,0.53,0.958,0.199,1.4c-0.333,0.442-0.96,0.53-1.4,0.199c-0.23-0.173-0.458-0.348-0.686-0.523c-0.251-0.194-0.502-0.387-0.754-0.575l-0.73-0.545c-0.215-0.161-0.479-0.229-0.748-0.188c-0.267,0.04-0.5,0.182-0.658,0.399l-2.406,3.305c-0.32,0.44-0.226,1.063,0.211,1.389l0.769,0.575c0.256,0.191,0.517,0.379,0.776,0.567l0.685,0.499c0.444,0.329,0.537,0.955,0.209,1.399C16.626,11.993,16.324,12.133,16.018,12.133z"/><path d="M20.758,21.508c-0.395,0-0.77-0.235-0.927-0.625c-0.207-0.512,0.039-1.095,0.552-1.302c5.014-2.03,8.635-6.676,9.48-12.037c-0.238,0.026-0.475,0.055-0.71,0.083c-0.815,0.098-1.659,0.198-2.563,0.224c-1.392,0.047-2.976-0.346-4.341-1.059c-0.802-0.418-1.509-0.926-2.095-1.367c-0.441-0.333-0.529-0.959-0.197-1.4c0.332-0.44,0.957-0.531,1.4-0.197c0.521,0.393,1.145,0.841,1.817,1.192c1.055,0.552,2.299,0.872,3.358,0.833c0.814-0.023,1.578-0.115,2.386-0.211c0.658-0.079,1.32-0.157,2.019-0.201c0.283-0.02,0.572,0.09,0.775,0.297s0.307,0.491,0.284,0.78c-0.523,6.602-4.787,12.457-10.864,14.918C21.01,21.484,20.883,21.508,20.758,21.508z"/><path d="M5.877,29.379c-0.204,0-0.41-0.062-0.588-0.191c-0.446-0.325-0.545-0.95-0.22-1.397l11.638-15.987c0.326-0.447,0.95-0.545,1.397-0.22c0.446,0.325,0.545,0.951,0.22,1.397L6.687,28.968C6.49,29.236,6.186,29.379,5.877,29.379z"/><path d="M22.379,6.725c-0.247,0-0.494-0.091-0.688-0.274c-0.401-0.38-0.418-1.013-0.038-1.414l1.167-1.233c-0.604-0.54-1.254-1.025-1.942-1.453l-0.842,1.539c-0.265,0.484-0.872,0.662-1.357,0.396c-0.484-0.266-0.662-0.873-0.396-1.357l1.302-2.378c0.262-0.48,0.948-0.683,1.434-0.426c1.433,0.764,2.737,1.738,3.879,2.895c0.381,0.386,0.389,1.096,0.014,1.487l-1.806,1.907C22.908,6.621,22.644,6.725,22.379,6.725z"/><path d="M2.706,27.012c-0.204,0-0.41-0.062-0.588-0.191c-0.446-0.325-0.545-0.95-0.22-1.397L13.592,9.36c0.326-0.447,0.95-0.545,1.397-0.22c0.446,0.325,0.545,0.951,0.22,1.397L3.516,26.601C3.319,26.869,3.015,27.012,2.706,27.012z"/><path d="M3.018,32c-0.564,0-1.104-0.176-1.555-0.513l-0.401-0.299c-1.2-0.896-1.414-2.673-0.477-3.96l2.055-2.823c0.324-0.447,0.951-0.546,1.396-0.221c0.447,0.325,0.546,0.95,0.221,1.396l-2.055,2.824c-0.291,0.4-0.266,0.94,0.056,1.181l0.401,0.299c0.164,0.123,0.346,0.125,0.473,0.106c0.239-0.036,0.466-0.181,0.623-0.396l2.056-2.823c0.326-0.445,0.95-0.543,1.397-0.22c0.446,0.325,0.545,0.951,0.22,1.397l-2.056,2.823c-0.47,0.645-1.178,1.081-1.942,1.196C3.292,31.99,3.154,32,3.018,32z"/><path d="M19.873,17.228c-0.331,0-0.655-0.164-0.846-0.464c-0.296-0.466-0.157-1.084,0.31-1.38c3.104-1.968,5.267-5.004,6.254-8.778c0.141-0.535,0.686-0.856,1.221-0.714c0.534,0.14,0.854,0.686,0.715,1.22c-1.118,4.272-3.579,7.717-7.119,9.962C20.241,17.178,20.057,17.228,19.873,17.228z"/></svg>