<svg xmlns="http://www.w3.org/2000/svg" viewBox="0 0 32 32"><!--! Font Icona - https://fonticona.com | License - https://fonticona.com/license | Copyright 2022 FontIcona.com --><path d="M16.773,32H7.369c-0.552,0-1-0.448-1-1V1c0-0.552,0.448-1,1-1h7.858c4.884,0,8.858,3.706,8.858,8.262c0,2.93-1.644,5.509-4.116,6.976c3.328,1.343,5.662,4.434,5.662,8.024c0,4.583-3.804,8.354-8.623,8.71C16.932,31.99,16.854,32,16.773,32z M8.369,30h7.889c4.065,0,7.373-3.023,7.373-6.738s-3.308-6.738-7.373-6.738H8.369V30z M8.369,14.524h6.858c3.781,0,6.858-2.809,6.858-6.262C22.085,4.809,19.008,2,15.227,2H8.369V14.524z"/></svg>