<svg xmlns="http://www.w3.org/2000/svg" viewBox="0 0 32 32"><!--! Font Icona - https://fonticona.com | License - https://fonticona.com/license | Copyright 2022 FontIcona.com --><path d="M16,11.804c-3.254,0-5.902-2.647-5.902-5.901c0-2.248,1.308-4.334,3.332-5.315C14.235,0.197,15.099,0,16,0c3.254,0,5.902,2.647,5.902,5.902C21.902,9.156,19.254,11.804,16,11.804z M16,2c-0.596,0-1.167,0.13-1.698,0.388c-1.359,0.658-2.204,2.005-2.204,3.515c0,2.151,1.75,3.901,3.902,3.901s3.902-1.75,3.902-3.901S18.151,2,16,2z"/><path d="M10.777,31.999c-0.298,0-0.593-0.133-0.79-0.387c-0.834-1.074-1.276-2.333-1.276-3.642c0-1.838,0.89-3.592,2.442-4.811c0.434-0.342,1.062-0.267,1.404,0.168c0.341,0.435,0.266,1.063-0.169,1.404c-1.066,0.838-1.678,2.018-1.678,3.238c0,0.86,0.296,1.695,0.855,2.415c0.339,0.436,0.26,1.064-0.176,1.403C11.208,31.931,10.992,31.999,10.777,31.999z"/><path d="M21.223,32c-0.215,0-0.431-0.068-0.613-0.21c-0.436-0.339-0.515-0.968-0.176-1.403c0.559-0.72,0.855-1.555,0.855-2.415c0-1.238-0.597-2.389-1.68-3.24c-0.435-0.341-0.51-0.97-0.168-1.404s0.969-0.511,1.404-0.168c1.553,1.22,2.444,2.975,2.444,4.812c0,1.309-0.441,2.567-1.276,3.642C21.816,31.867,21.521,32,21.223,32z"/><path d="M16,15.56c-4.32,0-8.253-2.719-9.789-6.767C6.016,8.276,6.275,7.699,6.792,7.504c0.516-0.198,1.093,0.063,1.29,0.58C9.324,11.359,12.506,13.56,16,13.56s6.676-2.2,7.918-5.476c0.197-0.517,0.775-0.778,1.29-0.58c0.517,0.195,0.776,0.772,0.581,1.289C24.253,12.841,20.32,15.56,16,15.56z"/><path d="M16,27.028c-3.326,0-6.031-2.706-6.031-6.031v-7.126c0-0.553,0.448-1,1-1s1,0.447,1,1v7.126c0,2.223,1.809,4.031,4.031,4.031s4.031-1.809,4.031-4.031v-7.126c0-0.553,0.448-1,1-1s1,0.447,1,1v7.126C22.031,24.322,19.326,27.028,16,27.028z"/><path d="M10.969,20.783c-0.418,0-0.808-0.264-0.948-0.682c-0.176-0.523,0.106-1.091,0.629-1.267c3.896-1.308,6.898-1.309,10.706,0.003c0.522,0.18,0.8,0.748,0.621,1.271c-0.181,0.522-0.752,0.799-1.271,0.62c-3.389-1.165-5.942-1.166-9.419,0.003C11.182,20.767,11.074,20.783,10.969,20.783z"/></svg>