<svg xmlns="http://www.w3.org/2000/svg" viewBox="0 0 32 32"><!--! Font Icona - https://fonticona.com | License - https://fonticona.com/license | Copyright 2022 FontIcona.com --><path d="M1,15.063c-0.553,0-1-0.448-1-1C0,8.785,4.131,4.229,10.045,2.982c0.537-0.114,1.07,0.231,1.185,0.772c0.114,0.541-0.231,1.071-0.772,1.185C5.478,5.989,2,9.741,2,14.063C2,14.616,1.553,15.063,1,15.063z"/><path d="M13.175,24.215C5.91,24.215,0,19.661,0,14.063c0-0.552,0.447-1,1-1h24.351c0.553,0,1,0.448,1,1C26.351,19.661,20.44,24.215,13.175,24.215z M2.084,15.063c0.678,4.024,5.394,7.151,11.091,7.151c5.698,0,10.414-3.127,11.092-7.151H2.084z"/><path d="M13.452,15.064c-0.438,0-0.842-0.292-0.964-0.736L9.286,2.644c-0.146-0.533,0.168-1.083,0.7-1.229c0.529-0.147,1.083,0.167,1.229,0.7l3.202,11.684c0.146,0.533-0.168,1.083-0.7,1.229C13.629,15.052,13.54,15.064,13.452,15.064z"/><path d="M25.351,15.063c-0.553,0-1-0.448-1-1c0-3.667,2.983-6.65,6.649-6.65c0.553,0,1,0.448,1,1s-0.447,1-1,1c-2.563,0-4.649,2.086-4.649,4.65C26.351,14.616,25.903,15.063,25.351,15.063z"/><path d="M7.167,30.621c-2.197,0-3.984-1.788-3.984-3.984s1.787-3.984,3.984-3.984s3.984,1.787,3.984,3.984S9.364,30.621,7.167,30.621z M7.167,24.652c-1.094,0-1.984,0.89-1.984,1.984c0,1.094,0.891,1.984,1.984,1.984s1.984-0.89,1.984-1.984C9.151,25.542,8.261,24.652,7.167,24.652z"/><path d="M19.463,30.621c-2.197,0-3.984-1.788-3.984-3.984s1.787-3.984,3.984-3.984s3.984,1.787,3.984,3.984S21.66,30.621,19.463,30.621z M19.463,24.652c-1.094,0-1.984,0.89-1.984,1.984c0,1.094,0.891,1.984,1.984,1.984s1.984-0.89,1.984-1.984C21.447,25.542,20.557,24.652,19.463,24.652z"/><path d="M12.438,14.213c-0.263,0-0.524-0.103-0.721-0.307L4.772,6.685C4.39,6.286,4.402,5.653,4.8,5.271C5.198,4.888,5.831,4.9,6.214,5.298l6.944,7.222c0.383,0.398,0.37,1.031-0.027,1.414C12.937,14.12,12.687,14.213,12.438,14.213z"/><path d="M12.583,14.213c-0.112,0-0.226-0.019-0.337-0.059l-9.938-3.557c-0.521-0.186-0.791-0.758-0.604-1.278c0.187-0.521,0.76-0.79,1.278-0.604l9.938,3.557c0.521,0.186,0.791,0.758,0.604,1.278C13.378,13.958,12.993,14.213,12.583,14.213z"/></svg>