<svg xmlns="http://www.w3.org/2000/svg" viewBox="0 0 32 32"><!--! Font Icona - https://fonticona.com | License - https://fonticona.com/license | Copyright 2022 FontIcona.com --><path d="M19.69,29.395c-0.391,0-0.78-0.114-1.117-0.342L1.672,17.658C1.119,17.286,0.789,16.666,0.789,16s0.33-1.286,0.883-1.658L18.573,2.947c0.614-0.414,1.404-0.455,2.057-0.107c0.654,0.349,1.061,1.024,1.061,1.766v22.789c0,0.741-0.406,1.417-1.061,1.766C20.335,29.317,20.012,29.395,19.69,29.395z M19.69,4.6L2.789,16L19.69,27.395V4.6z"/><path d="M30,29.395c-0.391,0-0.78-0.114-1.117-0.342l-8.751-5.897c-0.458-0.309-0.579-0.93-0.271-1.388c0.309-0.459,0.931-0.577,1.388-0.271L30,27.395V4.605l-8.751,5.897c-0.457,0.308-1.079,0.188-1.388-0.271c-0.309-0.458-0.188-1.079,0.271-1.388l8.751-5.897c0.614-0.414,1.404-0.455,2.057-0.107C31.594,3.188,32,3.864,32,4.605v22.789c0,0.741-0.406,1.417-1.061,1.766C30.645,29.317,30.321,29.395,30,29.395z"/><path d="M1,30.58c-0.553,0-1-0.447-1-1V2.42c0-0.553,0.447-1,1-1s1,0.447,1,1v27.16C2,30.133,1.553,30.58,1,30.58z"/></svg>