<svg xmlns="http://www.w3.org/2000/svg" viewBox="0 0 32 32"><!--! Font Icona - https://fonticona.com | License - https://fonticona.com/license | Copyright 2022 FontIcona.com --><path d="M19.385,29.783c-0.397,0-0.793-0.117-1.136-0.35L0.89,17.678C0.333,17.301,0,16.673,0,16s0.333-1.301,0.891-1.678L18.249,2.566c0.623-0.421,1.422-0.465,2.086-0.112C21,2.807,21.412,3.493,21.412,4.245v23.511c0,0.752-0.413,1.438-1.077,1.791C20.036,29.705,19.71,29.783,19.385,29.783z M19.411,4.231L2.011,15.978L19.37,27.777l0.042-23.533C19.412,4.237,19.411,4.232,19.411,4.231z"/><path d="M29.972,29.784c-0.397,0-0.793-0.117-1.135-0.349l-8.985-6.081c-0.458-0.31-0.577-0.931-0.268-1.389c0.31-0.457,0.931-0.577,1.389-0.268l8.985,6.081L30,4.244l-9.027,6.058c-0.458,0.31-1.079,0.19-1.389-0.268s-0.19-1.079,0.268-1.389l8.985-6.081c0.623-0.421,1.422-0.464,2.085-0.112C31.587,2.806,32,3.492,32,4.244v23.512c0,0.752-0.413,1.438-1.077,1.791C30.624,29.705,30.297,29.784,29.972,29.784z"/></svg>