<svg xmlns="http://www.w3.org/2000/svg" viewBox="0 0 32 32"><!--! Font Icona - https://fonticona.com | License - https://fonticona.com/license | Copyright 2022 FontIcona.com --><path d="M23.665,32H8.404c-2.133,0-3.868-1.735-3.868-3.868V15.176c0-6.34,5.158-11.498,11.498-11.498s11.498,5.158,11.499,11.498v12.956C27.533,30.265,25.798,32,23.665,32z M16.034,5.678c-5.237,0-9.498,4.261-9.498,9.498v12.956c0,1.03,0.838,1.868,1.868,1.868h15.261c1.03,0,1.868-0.838,1.868-1.868V15.176C25.532,9.939,21.271,5.678,16.034,5.678z"/><path d="M21.436,5.72h-2c0-2.051-1.525-3.72-3.401-3.72s-3.402,1.669-3.402,3.72h-2c0-3.154,2.423-5.72,5.402-5.72C19.013,0,21.436,2.566,21.436,5.72z"/><path d="M23.103,31h-2v-9.815c0-2.423-2.273-4.395-5.068-4.395c-2.795,0-5.069,1.972-5.069,4.395V31h-2v-9.815c0-3.526,3.171-6.395,7.069-6.395c3.897,0,7.068,2.868,7.068,6.395V31z"/><path d="M5.536,28.218h-1.57c-1.465,0-2.57-1.663-2.57-3.868v-3.175c0-2.205,1.105-3.868,2.57-3.868h1.57v2h-1.57c-0.135,0.066-0.57,0.729-0.57,1.868v3.175c0,1.139,0.435,1.802,0.607,1.874l1.533-0.006V28.218z"/><path d="M28.034,28.218h-1.57v-2h1.57c0.135-0.066,0.569-0.729,0.569-1.868v-3.175c0-1.14-0.434-1.802-0.606-1.874l-1.533,0.006v-2h1.57c1.465,0,2.569,1.663,2.569,3.868v3.175C30.604,26.555,29.499,28.218,28.034,28.218z"/><path d="M17.247,23.448c-0.155,0-0.31-0.036-0.452-0.108l-0.357-0.181l-0.357,0.181c-0.284,0.145-0.62,0.145-0.904,0l-0.357-0.181l-0.358,0.182c-0.284,0.144-0.62,0.144-0.904-0.001l-0.356-0.181l-0.357,0.181c-0.284,0.145-0.62,0.145-0.904,0l-0.357-0.181l-0.357,0.181c-0.284,0.145-0.62,0.145-0.904,0l-0.809-0.41l0.904-1.783l0.357,0.181l0.357-0.181c0.284-0.145,0.62-0.145,0.904,0l0.357,0.181l0.357-0.181c0.285-0.145,0.621-0.144,0.904,0l0.357,0.181l0.358-0.182c0.285-0.143,0.62-0.143,0.904,0.001l0.357,0.181l0.357-0.181c0.284-0.145,0.62-0.145,0.904,0l0.357,0.181l0.356-0.181c0.283-0.145,0.619-0.145,0.904,0l0.357,0.181l0.356-0.181c0.282-0.144,0.62-0.144,0.903-0.001l0.358,0.182l0.357-0.181c0.283-0.145,0.619-0.145,0.904,0l0.81,0.41L21.65,23.34l-0.357-0.181l-0.356,0.181c-0.282,0.145-0.619,0.145-0.903,0.001l-0.358-0.182l-0.357,0.181c-0.283,0.145-0.619,0.145-0.904,0l-0.357-0.181l-0.356,0.181C17.558,23.412,17.402,23.448,17.247,23.448z"/><rect x="17.548" y="22.448" width="2" height="2.847"/><circle cx="18.548" cy="25.968" r="1.25"/><path d="M18.425,12.847h-4.85c-1.045,0-1.895-0.839-1.895-1.87V9.672c0-1.031,0.85-1.87,1.895-1.87h4.85c1.045,0,1.896,0.839,1.896,1.87v1.305C20.32,12.008,19.47,12.847,18.425,12.847z M13.68,10.847h4.64V9.802h-4.64V10.847z"/></svg>