<svg xmlns="http://www.w3.org/2000/svg" viewBox="0 0 32 32"><!--! Font Icona - https://fonticona.com | License - https://fonticona.com/license | Copyright 2022 FontIcona.com --><path d="M2.707,26.521c-0.388,0-0.751-0.077-1.072-0.233c-0.667-0.324-1.094-0.959-1.169-1.739l-0.457-5.822c-0.11-1.42,0.83-2.737,2.235-3.132c1.479-0.414,3.126-1.112,4.896-2.076c0.887-0.484,1.738-1.003,2.562-1.505c0.979-0.597,1.905-1.16,2.884-1.671c1.037-0.537,2.019-0.944,3.004-1.245c0.763-0.232,1.535-0.374,2.281-0.511c0.379-0.069,0.758-0.139,1.131-0.221c1.895-0.414,3.354-1.135,4.339-2.141c0.921-0.943,2.458-0.998,3.437-0.131l4.1,3.637c0.627,0.485,1.042,1.276,1.113,2.126c0.069,0.826-0.186,1.589-0.719,2.146c-2.251,2.358-5.344,3.143-8.618,3.972c-1.174,0.298-2.388,0.605-3.564,0.992c-4.769,1.38-9.264,3.549-14.182,6.835C4.162,26.277,3.395,26.521,2.707,26.521z M25.128,7.475c-0.129,0-0.258,0.047-0.349,0.14c-1.271,1.299-3.068,2.206-5.352,2.706c-0.396,0.087-0.796,0.16-1.196,0.233c-0.723,0.133-1.405,0.258-2.059,0.457c-0.868,0.265-1.739,0.627-2.665,1.106c-0.917,0.479-1.815,1.025-2.767,1.604c-0.843,0.514-1.715,1.045-2.644,1.553c-1.903,1.036-3.69,1.792-5.313,2.246c-0.497,0.14-0.818,0.571-0.781,1.051l0.455,5.803c0.009,0.095,0.037,0.108,0.052,0.115c0.16,0.078,0.657,0.051,1.303-0.361c5.076-3.393,9.748-5.644,14.685-7.072c1.209-0.397,2.457-0.714,3.664-1.02c2.987-0.757,5.809-1.472,7.663-3.414c0.178-0.186,0.185-0.454,0.172-0.597c-0.024-0.291-0.166-0.58-0.354-0.72c-0.022-0.017-0.045-0.035-0.065-0.054l-4.128-3.661C25.361,7.513,25.244,7.475,25.128,7.475z"/><path d="M1.823,22.403l-0.936-1.768l1.016-0.539c1.804-0.959,3.107-1.651,5.029-2.562c0.418-0.197,1.138-0.533,1.835-0.857l1.574-0.736c1.237-0.584,2.483-1.08,3.688-1.561c1.312-0.522,2.553-1.017,3.724-1.595c0.951-0.47,1.896-0.927,2.989-1.36c0.617-0.186,1.092-0.331,1.562-0.479c1.381-0.311,2.705-0.908,3.985-1.485c0.736-0.332,1.498-0.676,2.245-0.955l0.701,1.873c-0.686,0.257-1.385,0.572-2.124,0.905c-1.373,0.619-2.792,1.259-4.292,1.593c-0.402,0.129-0.887,0.278-1.429,0.438c-0.936,0.375-1.841,0.813-2.754,1.264c-1.241,0.613-2.518,1.122-3.868,1.66c-1.176,0.469-2.393,0.953-3.574,1.511l-1.583,0.74c-0.692,0.322-1.409,0.656-1.824,0.854c-1.88,0.89-3.166,1.573-4.946,2.519L1.823,22.403z"/></svg>