<svg xmlns="http://www.w3.org/2000/svg" viewBox="0 0 32 32"><!--! Font Icona - https://fonticona.com | License - https://fonticona.com/license | Copyright 2022 FontIcona.com --><path d="M16,32C7.178,32,0,24.822,0,16S7.178,0,16,0s16,7.178,16,16S24.822,32,16,32z M16,2C8.28,2,2,8.28,2,16s6.28,14,14,14s14-6.28,14-14S23.72,2,16,2z"/><path d="M6.416,14.213c-0.736,0-1.473-0.28-2.033-0.841c-1.121-1.121-1.121-2.944,0-4.065l4.419-4.42c1.121-1.121,2.945-1.121,4.066,0c0,0,0,0,0.001,0c1.119,1.121,1.119,2.945,0,4.066l-4.421,4.419C7.888,13.932,7.151,14.213,6.416,14.213z M10.835,6.045c-0.225,0-0.448,0.085-0.619,0.256l-4.419,4.42c-0.341,0.341-0.341,0.896,0,1.237c0.343,0.342,0.896,0.342,1.237,0l4.42-4.419c0.341-0.341,0.341-0.897-0.001-1.238C11.283,6.13,11.059,6.045,10.835,6.045z"/><path d="M26.739,25.055c-0.769,0-1.49-0.3-2.033-0.843c-0.542-0.543-0.841-1.265-0.841-2.033s0.299-1.49,0.842-2.033l4.419-4.419c0.476-0.476,1.105-0.771,1.774-0.831c0.543-0.051,1.036,0.356,1.086,0.906c0.05,0.55-0.356,1.036-0.906,1.086c-0.144,0.013-0.354,0.067-0.54,0.253l-4.419,4.42c-0.165,0.165-0.256,0.385-0.256,0.618c0,0.234,0.091,0.454,0.256,0.619c0.331,0.331,0.908,0.329,1.237,0l1.817-1.817c0.391-0.391,1.023-0.391,1.414,0s0.391,1.023,0,1.414l-1.817,1.817C28.229,24.756,27.508,25.055,26.739,25.055z"/><path d="M10.506,20.971c-0.114,0-0.229-0.007-0.343-0.021c-0.763-0.091-1.445-0.473-1.92-1.075c-0.476-0.603-0.688-1.355-0.598-2.118l0.733-6.206c0.091-0.763,0.473-1.445,1.075-1.92c0.603-0.477,1.352-0.691,2.117-0.598l0,0l0,0c0,0,0,0,0.001,0c0.762,0.09,1.443,0.472,1.919,1.074c0.476,0.604,0.688,1.355,0.599,2.118l-0.734,6.207c-0.09,0.763-0.472,1.444-1.075,1.92C11.769,20.757,11.148,20.971,10.506,20.971z M11.232,11.013c-0.437,0-0.814,0.327-0.867,0.772l-0.733,6.206c-0.027,0.232,0.037,0.461,0.182,0.645s0.353,0.3,0.585,0.327c0.229,0.024,0.461-0.037,0.645-0.182c0.183-0.145,0.299-0.353,0.326-0.584l0.734-6.207c0.027-0.232-0.037-0.461-0.183-0.645c-0.145-0.184-0.352-0.3-0.584-0.327c0,0,0,0-0.001,0C11.302,11.015,11.267,11.013,11.232,11.013z"/><path d="M20.993,26.927c-1.144,0-2.228-0.687-2.675-1.812l-2.312-5.807c-0.586-1.474,0.136-3.148,1.607-3.734c0.714-0.286,1.494-0.274,2.2,0.03c0.706,0.304,1.251,0.864,1.535,1.578l2.311,5.806c0.587,1.474-0.135,3.148-1.607,3.734C21.705,26.861,21.346,26.927,20.993,26.927z M18.678,17.369c-0.109,0-0.219,0.021-0.323,0.062c-0.448,0.179-0.668,0.688-0.489,1.138l2.311,5.806c0.18,0.449,0.688,0.673,1.138,0.489c0.447-0.178,0.667-0.688,0.489-1.136l-2.312-5.807c-0.087-0.218-0.253-0.389-0.467-0.48C18.913,17.393,18.796,17.369,18.678,17.369z"/><path d="M9.785,29.792c-1.144,0-2.228-0.687-2.675-1.812l-2.312-5.807c-0.587-1.474,0.135-3.148,1.607-3.734c0.716-0.286,1.495-0.273,2.2,0.03c0.706,0.304,1.251,0.864,1.534,1.577l2.311,5.807c0.285,0.713,0.274,1.494-0.029,2.2s-0.864,1.251-1.577,1.534C10.497,29.726,10.138,29.792,9.785,29.792z M7.469,20.235c-0.107,0-0.217,0.02-0.322,0.062c-0.448,0.179-0.668,0.688-0.49,1.137l2.312,5.807c0.179,0.449,0.687,0.672,1.138,0.489c0.217-0.086,0.387-0.252,0.479-0.466c0.092-0.215,0.096-0.452,0.009-0.67l-2.311-5.807C8.146,20.444,7.816,20.235,7.469,20.235z"/><path d="M21.515,10.131c-0.424,0-0.845-0.095-1.237-0.282c-1.431-0.685-2.037-2.404-1.354-3.834l2.035-4.259c0.238-0.497,0.834-0.709,1.334-0.471c0.498,0.238,0.709,0.835,0.471,1.334l-2.035,4.258c-0.208,0.435-0.023,0.959,0.412,1.167c0.209,0.102,0.447,0.115,0.668,0.035c0.221-0.077,0.397-0.236,0.498-0.447l1.902-3.98c0.239-0.497,0.833-0.709,1.334-0.471c0.498,0.238,0.709,0.835,0.471,1.334L24.11,8.494c-0.331,0.692-0.912,1.215-1.636,1.471C22.161,10.076,21.837,10.131,21.515,10.131z"/><circle cx="3.698" cy="16.369" r="1.25"/><circle cx="16.5" cy="13.714" r="1.25"/><circle cx="25.611" cy="9.527" r="1.25"/><circle cx="17.5" cy="4.545" r="1.25"/><circle cx="28.304" cy="13.214" r="1.25"/><circle cx="23.864" cy="17.222" r="1.25"/><circle cx="14.359" cy="22.398" r="1.25"/><circle cx="16" cy="26.927" r="1.25"/><circle cx="13.429" cy="2.589" r="1.25"/><circle cx="16.5" cy="9.527" r="1.25"/><circle cx="22.188" cy="13.214" r="1.25"/></svg>