<svg xmlns="http://www.w3.org/2000/svg" viewBox="0 0 32 32"><!--! Font Icona - https://fonticona.com | License - https://fonticona.com/license | Copyright 2022 FontIcona.com --><path d="M7.568,32c-2.042,0-3.945-0.779-5.367-2.201c-2.991-2.991-2.933-7.916,0.13-10.979L18.82,2.331c3.062-3.063,7.986-3.122,10.979-0.13c2.991,2.992,2.933,7.917-0.13,10.979L13.18,29.669C11.706,31.144,9.751,31.972,7.677,32C7.641,32,7.604,32,7.568,32z M24.429,1.994c-1.506,0-3.029,0.585-4.194,1.751L3.745,20.234c-2.283,2.282-2.341,5.938-0.13,8.15C4.678,29.447,6.114,30.008,7.65,30c1.55-0.021,3.011-0.641,4.115-1.745l16.489-16.489c2.283-2.283,2.341-5.938,0.13-8.15C27.302,2.533,25.873,1.994,24.429,1.994z"/><path d="M18.449,23.985c-0.265,0-0.52-0.105-0.707-0.293l-9.435-9.435c-0.391-0.391-0.391-1.023,0-1.414l5.705-5.705c0.391-0.391,1.023-0.391,1.414,0l9.435,9.434c0.188,0.188,0.293,0.441,0.293,0.707s-0.105,0.52-0.293,0.707l-5.705,5.705C18.969,23.88,18.714,23.985,18.449,23.985z M10.429,13.551l8.021,8.021l4.291-4.291l-8.021-8.02L10.429,13.551z"/><circle cx="8.593" cy="23.409" r="1.25"/><circle cx="5.778" cy="23.095" r="1.25"/><circle cx="11.407" cy="23.72" r="1.25"/><circle cx="8.978" cy="26.15" r="1.25"/><circle cx="8.28" cy="20.593" r="1.25"/><circle cx="24.297" cy="7.703" r="1.25"/><circle cx="21.483" cy="7.391" r="1.25"/><circle cx="27.11" cy="8.015" r="1.25"/><circle cx="24.681" cy="10.444" r="1.25"/><circle cx="23.985" cy="4.89" r="1.25"/></svg>