<svg xmlns="http://www.w3.org/2000/svg" viewBox="0 0 32 32"><!--! Font Icona - https://fonticona.com | License - https://fonticona.com/license | Copyright 2022 FontIcona.com --><path d="M16,32C7.178,32,0,24.822,0,16S7.178,0,16,0s16,7.178,16,16S24.822,32,16,32z M16,2C8.28,2,2,8.28,2,16s6.28,14,14,14s14-6.28,14-14S23.72,2,16,2z"/><path d="M19.831,21.655H9.318c-0.317,0-0.615-0.15-0.804-0.405s-0.245-0.584-0.152-0.888l2.851-9.311c0.129-0.42,0.517-0.707,0.956-0.707h10.513c0.317,0,0.615,0.15,0.804,0.405s0.245,0.584,0.152,0.888l-2.851,9.311C20.658,21.368,20.271,21.655,19.831,21.655z M10.67,19.655h8.422l2.238-7.311h-8.422L10.67,19.655z"/></svg>