<svg xmlns="http://www.w3.org/2000/svg" viewBox="0 0 32 32"><!--! Font Icona - https://fonticona.com | License - https://fonticona.com/license | Copyright 2022 FontIcona.com --><path d="M9.932,21.57c-0.219,0-0.42-0.145-0.481-0.366l-1.475-5.3c-0.074-0.266,0.081-0.542,0.348-0.616c0.267-0.073,0.541,0.082,0.615,0.348l1.475,5.3c0.074,0.266-0.081,0.541-0.348,0.615C10.021,21.564,9.976,21.57,9.932,21.57z"/><path d="M9.22,18.833c-0.152,0-0.304-0.069-0.401-0.202c-0.165-0.222-0.118-0.535,0.104-0.699c0.34-0.252,0.69-0.527,0.918-0.871c0.197-0.299,0.355-0.792,0.279-1.099c-0.03-0.124-0.092-0.172-0.148-0.203c-0.245-0.134-0.708,0.27-0.944,0.614c-0.156,0.229-0.467,0.286-0.695,0.129c-0.228-0.156-0.285-0.468-0.129-0.695c0.535-0.78,1.439-1.368,2.249-0.924c0.325,0.178,0.547,0.468,0.639,0.838c0.157,0.632-0.096,1.405-0.416,1.891c-0.316,0.479-0.745,0.817-1.156,1.123C9.428,18.801,9.323,18.833,9.22,18.833z"/><path d="M9.444,21.262c-0.203,0-0.394-0.124-0.469-0.325c-0.097-0.259,0.035-0.547,0.294-0.644c0.772-0.288,1.185-0.522,1.434-1.078c0.182-0.402,0.273-1.012,0.088-1.35c-0.052-0.094-0.143-0.207-0.387-0.242c-0.273-0.04-0.463-0.293-0.424-0.566c0.039-0.275,0.297-0.467,0.566-0.423c0.504,0.073,0.892,0.333,1.121,0.751c0.388,0.706,0.214,1.648-0.053,2.24c-0.429,0.955-1.188,1.304-1.996,1.605C9.562,21.252,9.503,21.262,9.444,21.262z"/><path d="M12.648,20.382c-0.009,0-0.018,0-0.026-0.001c-0.276-0.015-0.487-0.25-0.473-0.525l0.295-5.505c0.012-0.222,0.169-0.409,0.385-0.46c0.216-0.051,0.44,0.047,0.55,0.241l2.538,4.495c0.136,0.24,0.051,0.546-0.189,0.682c-0.24,0.135-0.546,0.051-0.682-0.189l-1.695-3.002l-0.203,3.792C13.134,20.175,12.913,20.382,12.648,20.382z"/><path d="M12.318,19.824c-0.161,0-0.32-0.078-0.416-0.223c-0.153-0.23-0.091-0.54,0.139-0.693l2.442-1.626c0.228-0.153,0.54-0.093,0.693,0.139c0.153,0.23,0.091,0.54-0.139,0.693l-2.442,1.626C12.511,19.797,12.414,19.824,12.318,19.824z"/><path d="M16.825,18.83c-0.227,0-0.431-0.154-0.486-0.383l-1.148-4.78c-0.064-0.269,0.101-0.539,0.369-0.603c0.275-0.065,0.538,0.102,0.604,0.37l1.148,4.779c0.064,0.269-0.101,0.539-0.369,0.604C16.902,18.825,16.863,18.83,16.825,18.83z"/><path d="M18.95,18.03c-0.145,0-0.287-0.062-0.386-0.183l-3.273-3.98c-0.176-0.213-0.146-0.528,0.068-0.704c0.212-0.175,0.527-0.146,0.703,0.069l3.273,3.98c0.176,0.213,0.146,0.528-0.068,0.703C19.175,17.993,19.062,18.03,18.95,18.03z"/><path d="M18.95,18.03c-0.227,0-0.432-0.154-0.486-0.384l-1.154-4.811c-0.064-0.269,0.102-0.539,0.37-0.603c0.27-0.065,0.539,0.102,0.603,0.37l1.154,4.812c0.064,0.269-0.102,0.538-0.37,0.603C19.027,18.026,18.988,18.03,18.95,18.03z"/><path d="M21.066,17.235c-0.243,0-0.491-0.071-0.731-0.211c-0.614-0.358-1.129-1.14-1.375-2.09c-0.4-1.546,0.034-2.911,1.011-3.174c0.67-0.178,1.393,0.215,1.92,1.062c0.146,0.234,0.075,0.542-0.159,0.688c-0.231,0.147-0.542,0.076-0.688-0.159c-0.297-0.475-0.632-0.674-0.812-0.625c-0.301,0.081-0.575,0.903-0.302,1.957c0.213,0.823,0.623,1.31,0.91,1.477c0.076,0.045,0.192,0.097,0.287,0.067c0.683-0.184,0.471-1.219,0.39-1.531c-0.069-0.268,0.092-0.54,0.359-0.609c0.27-0.072,0.54,0.092,0.609,0.358c0.438,1.692-0.318,2.538-1.099,2.748C21.281,17.221,21.174,17.235,21.066,17.235z"/><path d="M21.061,15.158c-0.234,0-0.444-0.167-0.49-0.406c-0.052-0.271,0.126-0.533,0.397-0.585l1.351-0.258c0.266-0.051,0.533,0.125,0.585,0.397c0.052,0.271-0.126,0.533-0.397,0.585l-1.351,0.258C21.124,15.155,21.092,15.158,21.061,15.158z"/><path d="M11.399,29.962c-0.092,0-0.186-0.013-0.277-0.039c-0.509-0.147-0.815-0.665-0.699-1.182c0.355-1.58,0.362-3.658-0.161-3.969c-0.037-0.023-0.892-0.479-4.036,2.295c-0.387,0.341-0.972,0.331-1.348-0.023s-0.419-0.938-0.1-1.345C6.112,24,7.041,21.929,6.689,21.438c-0.008-0.01-0.68-0.855-5.358,0.783c-0.498,0.178-1.05-0.069-1.254-0.559s0.01-1.053,0.486-1.284c2.073-1.008,4.315-2.73,4.217-3.593c-0.044-0.392-0.873-1.027-3.061-1.529c-0.526-0.121-0.861-0.638-0.757-1.167c0.104-0.531,0.609-0.878,1.144-0.794c2.158,0.355,4.292,0.171,4.525-0.228c0-0.002,0.115-0.63-1.752-2.43c-0.366-0.353-0.408-0.925-0.099-1.328c0.31-0.405,0.873-0.512,1.31-0.248c0.895,0.539,3.746,1.889,5.093,1.04c0.953-0.601,0.997-2.347,0.866-3.705c-0.046-0.476,0.251-0.918,0.709-1.055c0.46-0.133,0.949,0.07,1.172,0.494c0.319,0.601,1.421,2.133,2.606,2.093c0.747-0.038,2.274-0.772,4.114-5.269c0.206-0.503,0.774-0.75,1.284-0.554c0.507,0.194,0.767,0.759,0.583,1.271c-0.641,1.787-1.09,4.608-0.27,5.261c0.55,0.438,2.295,0.167,5.532-1.912c0.463-0.295,1.076-0.164,1.377,0.294c0.3,0.459,0.174,1.075-0.282,1.38c-1.752,1.167-4.021,3.323-3.729,4.333c0.06,0.206,0.556,1.16,4.577,1.416c0.689,0.002,1.195,0.042,1.365,0.058c0.537,0.049,0.938,0.514,0.908,1.052c-0.03,0.537-0.487,0.927-1.02,0.944c-0.474-0.011-0.924-0.029-1.352-0.056c-2.005,0.006-4.479,0.394-5.143,1.575c-0.618,1.102,0.428,2.921,1.413,4.253c0.294,0.396,0.253,0.948-0.095,1.299s-0.901,0.396-1.3,0.103c-0.852-0.621-3.585-2.22-4.931-1.427c-0.965,0.566-1.294,2.514-0.928,5.48c0.062,0.507-0.267,0.979-0.764,1.096c-0.496,0.122-1.002-0.161-1.172-0.641c-0.431-1.22-1.328-2.584-1.886-2.584l0,0c-0.109,0-1.109,0.112-2.482,3.994C12.197,29.703,11.812,29.962,11.399,29.962z M10.057,22.724c0.45,0,0.857,0.11,1.226,0.329c0.593,0.352,0.951,0.935,1.156,1.607c0.733-0.917,1.519-1.359,2.385-1.359c0.001,0,0.003,0,0.004,0c0.665,0.001,1.244,0.279,1.735,0.689c0.199-1.857,0.862-3.101,1.999-3.768c1.236-0.725,2.734-0.536,4.044-0.085c-0.445-1.305-0.401-2.441,0.136-3.396c0.434-0.772,1.143-1.32,1.969-1.706c-0.787-0.447-1.274-1.026-1.483-1.745c-0.243-0.839-0.02-1.706,0.438-2.525c-1.096,0.174-1.975-0.016-2.662-0.564c-0.651-0.519-0.986-1.281-1.125-2.126c-1.017,1.186-2.094,1.796-3.249,1.852c-1.034,0.043-1.945-0.393-2.653-0.961c-0.24,1.31-0.817,2.257-1.729,2.83c-1.118,0.702-2.507,0.671-3.766,0.382c0.207,0.602,0.229,1.211-0.062,1.789c-0.381,0.758-1.207,1.164-2.163,1.362c0.271,0.351,0.458,0.758,0.512,1.232c0.107,0.946-0.383,1.854-1.11,2.657c1.276,0.021,2.146,0.338,2.659,1.058c0.558,0.779,0.516,1.792,0.207,2.801C9.084,22.84,9.594,22.724,10.057,22.724z"/></svg>