<svg xmlns="http://www.w3.org/2000/svg" viewBox="0 0 32 32"><!--! Font Icona - https://fonticona.com | License - https://fonticona.com/license | Copyright 2022 FontIcona.com --><path d="M31,17H7.628c-0.553,0-1-0.448-1-1s0.447-1,1-1H31c0.553,0,1,0.448,1,1S31.553,17,31,17z"/><path d="M24.372,4.945H1c-0.553,0-1-0.448-1-1s0.447-1,1-1h23.372c0.553,0,1,0.448,1,1S24.925,4.945,24.372,4.945z"/><path d="M24.372,29.055H1c-0.553,0-1-0.448-1-1s0.447-1,1-1h23.372c0.553,0,1,0.448,1,1S24.925,29.055,24.372,29.055z"/></svg>