<svg xmlns="http://www.w3.org/2000/svg" viewBox="0 0 32 32"><!--! Font Icona - https://fonticona.com | License - https://fonticona.com/license | Copyright 2022 FontIcona.com --><path d="M16,32C7.178,32,0,24.822,0,16S7.178,0,16,0s16,7.178,16,16S24.822,32,16,32z M16,2C8.28,2,2,8.28,2,16s6.28,14,14,14s14-6.28,14-14S23.72,2,16,2z"/><path d="M6.16,27.485l-1.554-1.26C13.45,15.311,5.041,6.694,4.678,6.333l1.409-1.42C6.188,5.013,16.162,15.141,6.16,27.485z"/><path d="M25.913,27.566c-0.102-0.101-10.075-10.229-0.073-22.573l1.554,1.259c-8.843,10.916-0.434,19.532-0.072,19.894L25.913,27.566z"/><path d="M5.99,11.491c-0.381,0-0.746-0.22-0.913-0.59C4.851,10.396,5.076,9.805,5.58,9.578l4.286-1.926c0.504-0.226,1.096-0.002,1.322,0.502c0.227,0.504,0.001,1.096-0.502,1.322L6.4,11.402C6.267,11.462,6.127,11.491,5.99,11.491z"/><path d="M7.483,15.488c-0.439,0-0.841-0.291-0.963-0.734c-0.147-0.533,0.166-1.083,0.698-1.23l4.286-1.183c0.531-0.15,1.083,0.166,1.23,0.698c0.147,0.533-0.166,1.083-0.698,1.23L7.75,15.451C7.661,15.476,7.571,15.488,7.483,15.488z"/><path d="M11.509,19.265H7.224c-0.552,0-1-0.447-1-1s0.448-1,1-1h4.286c0.552,0,1,0.447,1,1S12.062,19.265,11.509,19.265z"/><path d="M9.986,24.437c-0.117,0-0.235-0.021-0.351-0.063L5.35,22.769c-0.517-0.193-0.78-0.77-0.586-1.287s0.77-0.778,1.287-0.586l4.286,1.604c0.517,0.193,0.78,0.77,0.586,1.287C10.772,24.188,10.391,24.437,9.986,24.437z"/><path d="M21.61,24.437c-0.381,0-0.746-0.22-0.913-0.59c-0.227-0.504-0.001-1.096,0.502-1.322l4.286-1.927c0.504-0.225,1.096-0.001,1.322,0.502c0.227,0.504,0.001,1.096-0.502,1.322l-4.286,1.927C21.887,24.408,21.748,24.437,21.61,24.437z"/><path d="M20.116,19.695c-0.439,0-0.841-0.291-0.963-0.734c-0.147-0.532,0.166-1.083,0.698-1.229l4.286-1.183c0.531-0.149,1.083,0.165,1.23,0.698c0.147,0.532-0.166,1.083-0.698,1.229l-4.286,1.183C20.293,19.684,20.204,19.695,20.116,19.695z"/><path d="M24.662,14.735h-4.286c-0.552,0-1-0.448-1-1s0.448-1,1-1h4.286c0.552,0,1,0.448,1,1S25.214,14.735,24.662,14.735z"/><path d="M26.185,11.168c-0.117,0-0.235-0.021-0.351-0.064L21.548,9.5c-0.517-0.193-0.78-0.77-0.586-1.287c0.194-0.518,0.771-0.781,1.287-0.586l4.286,1.604c0.517,0.193,0.78,0.77,0.586,1.287C26.971,10.92,26.589,11.168,26.185,11.168z"/></svg>