<svg xmlns="http://www.w3.org/2000/svg" viewBox="0 0 32 32"><!--! Font Icona - https://fonticona.com | License - https://fonticona.com/license | Copyright 2022 FontIcona.com --><path d="M16,32C7.178,32,0,24.822,0,16S7.178,0,16,0s16,7.178,16,16S24.822,32,16,32z M16,2C8.28,2,2,8.28,2,16s6.28,14,14,14s14-6.28,14-14S23.72,2,16,2z"/><rect x="15" y="1" width="2" height="30"/><rect x="1" y="15" width="29.911" height="2"/><path d="M6.27,27.361l-1.554-1.26C13.522,15.233,5.149,6.652,4.788,6.292l1.409-1.42C6.298,4.973,16.234,15.063,6.27,27.361z"/><path d="M25.939,27.442c-0.102-0.101-10.037-10.19-0.073-22.489l1.554,1.259c-8.837,10.909-0.436,19.45-0.073,19.808L25.939,27.442z"/></svg>