<svg xmlns="http://www.w3.org/2000/svg" viewBox="0 0 32 32"><!--! Font Icona - https://fonticona.com | License - https://fonticona.com/license | Copyright 2022 FontIcona.com --><path d="M20.796,29.765h-9.592c-3.368,0-6.644-2.023-7.456-4.606l-1.228-3.906c-0.165-0.527,0.128-1.089,0.654-1.254c0.53-0.166,1.089,0.129,1.254,0.654l1.228,3.906c0.547,1.737,3.087,3.206,5.548,3.206h9.592c2.461,0,5.001-1.469,5.548-3.206l1.228-3.906c0.165-0.525,0.724-0.821,1.254-0.654c0.526,0.165,0.819,0.727,0.654,1.254l-1.228,3.906C27.439,27.742,24.164,29.765,20.796,29.765z"/><path d="M9.708,7.181c-0.561,0-1.102-0.245-1.495-0.68L7.126,5.302c0,0,0,0,0-0.001c-0.774-0.854-0.822-2.247-0.108-3.17l0.84-1.086c0.682-0.883,2.004-1.275,3.073-0.91l1.596,0.543c0.629,0.214,1.089,0.668,1.263,1.245c0.172,0.57,0.043,1.192-0.354,1.705l-2.111,2.732c-0.383,0.497-0.944,0.795-1.541,0.818C9.758,7.18,9.733,7.181,9.708,7.181z M8.608,3.958l1.088,1.2l2.058-2.626l-1.468-0.505c-0.255-0.083-0.689,0.037-0.847,0.24L8.6,3.354C8.479,3.51,8.483,3.821,8.608,3.958L8.608,3.958z"/><path d="M4.353,18.046c-0.553,0-1-0.447-1-1V3.679c0-0.553,0.447-1,1-1s1,0.447,1,1v13.367C5.353,17.599,4.905,18.046,4.353,18.046z"/><path d="M4.353,4.462c-0.553,0-1-0.447-1-1c0-1.652,1.355-2.997,3.021-2.997c0.553,0,1,0.447,1,1s-0.447,1-1,1c-0.563,0-1.021,0.447-1.021,0.997C5.353,4.015,4.905,4.462,4.353,4.462z"/><path d="M8.314,3.086c-0.205,0-0.413-0.063-0.592-0.194C7.55,2.768,6.937,2.429,6.469,2.46c-0.556,0.07-1.038-0.351-1.09-0.9c-0.053-0.55,0.351-1.038,0.9-1.09c1.314-0.131,2.498,0.714,2.629,0.811c0.444,0.327,0.54,0.953,0.213,1.398C8.925,2.946,8.622,3.086,8.314,3.086z"/><path d="M28.789,21.952H3.211c-1.643,0-2.979-1.325-2.979-2.953s1.336-2.953,2.979-2.953h25.578c1.643,0,2.979,1.325,2.979,2.953S30.432,21.952,28.789,21.952z M3.211,18.046c-0.54,0-0.979,0.428-0.979,0.953s0.438,0.953,0.979,0.953h25.578c0.54,0,0.979-0.428,0.979-0.953s-0.438-0.953-0.979-0.953H3.211z"/><path d="M16.021,8.141c-0.199,0-0.4-0.06-0.575-0.183L13.61,6.664c-0.451-0.318-0.56-0.942-0.241-1.394c0.317-0.452,0.943-0.559,1.394-0.241l1.836,1.294c0.451,0.318,0.56,0.942,0.241,1.394C16.646,7.993,16.336,8.141,16.021,8.141z"/><path d="M13.498,10.782c-0.383,0-0.747-0.22-0.913-0.591l-0.814-1.816c-0.227-0.504-0.001-1.096,0.503-1.321c0.505-0.227,1.096-0.001,1.321,0.503l0.814,1.816c0.227,0.504,0.001,1.096-0.503,1.321C13.773,10.753,13.635,10.782,13.498,10.782z"/><path d="M17.887,4.896c-0.021,0-0.04-0.001-0.061-0.002l-2.222-0.133c-0.552-0.033-0.972-0.507-0.938-1.058c0.032-0.552,0.513-0.962,1.058-0.938l2.222,0.133c0.552,0.033,0.972,0.507,0.938,1.058C18.853,4.487,18.412,4.896,17.887,4.896z"/><path d="M4.352,32c-0.18,0-0.361-0.048-0.524-0.149c-0.47-0.29-0.615-0.906-0.325-1.376l2.286-3.698c0.291-0.472,0.908-0.616,1.376-0.325c0.47,0.29,0.615,0.906,0.325,1.376l-2.286,3.698C5.014,31.832,4.687,32,4.352,32z"/><path d="M27.999,32c-0.335,0-0.662-0.168-0.852-0.475l-2.286-3.698c-0.29-0.47-0.145-1.086,0.325-1.376c0.467-0.291,1.085-0.146,1.376,0.325l2.286,3.698c0.29,0.47,0.145,1.086-0.325,1.376C28.36,31.952,28.179,32,27.999,32z"/><path d="M6.372,17.407c-0.165-0.43-0.249-0.879-0.249-1.336c0-2.249,2.041-4.079,4.551-4.079c1.152,0,2.233,0.38,3.063,1.062c1.021-0.346,2.225-0.235,3.141,0.283c1.055-0.882,2.462-1.39,3.925-1.39c3.157,0,5.727,2.288,5.727,5.1h-2c0-1.709-1.672-3.1-3.727-3.1c-1.219,0-2.365,0.504-3.066,1.349l-0.719,0.866l-0.775-0.815c-0.51-0.535-1.521-0.651-2.195-0.244l-0.728,0.438l-0.551-0.646c-0.481-0.565-1.264-0.903-2.095-0.903c-1.406,0-2.551,0.933-2.551,2.079c0,0.21,0.039,0.418,0.116,0.617L6.372,17.407z"/></svg>