<svg xmlns="http://www.w3.org/2000/svg" viewBox="0 0 32 32"><!--! Font Icona - https://fonticona.com | License - https://fonticona.com/license | Copyright 2022 FontIcona.com --><path d="M20.933,32h-9.865c-1.654,0-3-1.346-3-3V5.978c0-1.654,1.346-3,3-3h9.865c1.654,0,3,1.346,3,3V29C23.933,30.654,22.587,32,20.933,32z M11.067,4.978c-0.552,0-1,0.448-1,1V29c0,0.552,0.448,1,1,1h9.865c0.552,0,1-0.448,1-1V5.978c0-0.552-0.448-1-1-1H11.067z"/><path d="M18.196,4.978c-0.553,0-1-0.447-1-1V2h-2.393v1.978c0,0.553-0.447,1-1,1s-1-0.447-1-1V2c0-1.103,0.897-2,2-2h2.393c1.103,0,2,0.897,2,2v1.978C19.196,4.53,18.749,4.978,18.196,4.978z"/></svg>