<svg xmlns="http://www.w3.org/2000/svg" viewBox="0 0 32 32"><!--! Font Icona - https://fonticona.com | License - https://fonticona.com/license | Copyright 2022 FontIcona.com --><path d="M7.333,8.489c-0.482,0-0.907-0.349-0.986-0.84C6.258,7.104,6.628,6.59,7.173,6.501l2.466-0.4c0.544-0.085,1.059,0.282,1.147,0.827c0.088,0.545-0.282,1.059-0.827,1.147l-2.466,0.4C7.439,8.485,7.385,8.489,7.333,8.489z"/><path d="M7.4,20.041c-0.065,0-0.131-0.006-0.198-0.02c-0.542-0.109-0.893-0.636-0.784-1.177l2.4-11.952C8.928,6.35,9.454,5.999,9.997,6.108c0.542,0.109,0.893,0.636,0.784,1.177l-2.4,11.952C8.285,19.713,7.867,20.041,7.4,20.041z"/><path d="M10.392,26.96c-0.548,0-1.084-0.104-1.593-0.315c-1.341-0.553-2.294-1.759-2.686-3.395C5.75,21.732,5.919,20,6.591,18.375l0,0c0.671-1.626,1.773-2.973,3.103-3.792c1.431-0.882,2.958-1.063,4.298-0.51c1.341,0.553,2.294,1.759,2.686,3.395c0.364,1.519,0.194,3.25-0.478,4.876c-0.671,1.626-1.773,2.973-3.103,3.792C12.21,26.683,11.286,26.96,10.392,26.96z M8.431,19.135c-0.513,1.241-0.648,2.539-0.381,3.653c0.239,0.998,0.774,1.714,1.509,2.018s1.621,0.173,2.494-0.365c0.976-0.602,1.795-1.616,2.308-2.857s0.648-2.539,0.381-3.653c-0.239-0.998-0.774-1.714-1.509-2.018s-1.62-0.174-2.493,0.364C9.763,16.878,8.943,17.894,8.431,19.135L8.431,19.135z"/><path d="M16.632,8.489c-0.482,0-0.907-0.349-0.986-0.84c-0.088-0.545,0.282-1.059,0.827-1.147l2.467-0.4c0.548-0.088,1.059,0.283,1.147,0.827c0.088,0.545-0.282,1.059-0.827,1.147l-2.467,0.4C16.739,8.485,16.685,8.489,16.632,8.489z"/><path d="M16.523,20.922c-0.065,0-0.131-0.006-0.198-0.02c-0.542-0.109-0.893-0.636-0.784-1.177L18.12,6.892c0.108-0.542,0.637-0.894,1.177-0.784c0.542,0.109,0.893,0.636,0.784,1.177l-2.578,12.833C17.408,20.594,16.99,20.922,16.523,20.922z"/><path d="M19.794,27.015c-0.553,0-1.094-0.106-1.607-0.319c-1.346-0.559-2.302-1.772-2.692-3.416c-0.362-1.526-0.189-3.266,0.489-4.898h0c0.678-1.632,1.787-2.983,3.124-3.804c1.44-0.885,2.974-1.062,4.319-0.505c1.346,0.559,2.302,1.771,2.692,3.415c0.362,1.527,0.189,3.266-0.488,4.898c-0.678,1.632-1.787,2.983-3.124,3.805C21.616,26.738,20.69,27.015,19.794,27.015z M21.822,15.758c-0.532,0-1.103,0.177-1.668,0.525c-0.981,0.603-1.806,1.621-2.323,2.867c0,0,0,0,0,0c-0.517,1.246-0.656,2.549-0.39,3.669c0.238,1.003,0.776,1.724,1.513,2.03c0.738,0.307,1.627,0.177,2.506-0.362c0.981-0.603,1.806-1.621,2.323-2.867c0.518-1.246,0.656-2.549,0.39-3.669c-0.238-1.003-0.775-1.724-1.513-2.029C22.397,15.812,22.115,15.758,21.822,15.758z M16.907,18.766h0.01H16.907z"/><path d="M16,32C7.178,32,0,24.822,0,16S7.178,0,16,0s16,7.178,16,16S24.822,32,16,32z M16,2C8.28,2,2,8.28,2,16s6.28,14,14,14s14-6.28,14-14S23.72,2,16,2z"/></svg>