<svg xmlns="http://www.w3.org/2000/svg" viewBox="0 0 32 32"><!--! Font Icona - https://fonticona.com | License - https://fonticona.com/license | Copyright 2022 FontIcona.com --><path d="M8.163,22.564c-0.381,0-0.744-0.213-0.922-0.573c-0.994-2.018-0.815-4.472,0.479-6.565c1.649-2.666,4.755-4.269,8.31-4.288c3.539-0.042,6.62,1.559,8.282,4.222c1.324,2.12,1.513,4.6,0.506,6.633c-0.237,0.479-0.802,0.696-1.3,0.499c-4.83-1.918-10.149-1.917-14.976-0.001C8.418,22.541,8.29,22.564,8.163,22.564z M16.03,18.998c2.449,0,4.899,0.406,7.258,1.217c0.285-1.204,0.037-2.557-0.719-3.768c-1.274-2.041-3.692-3.255-6.476-3.255c-0.017,0-0.034,0-0.052,0c-2.842,0.016-5.3,1.255-6.573,3.314c-0.734,1.188-0.974,2.519-0.694,3.709C11.132,19.404,13.581,18.998,16.03,18.998z"/><path d="M16.036,20.869c-0.567,0-1.027-0.46-1.027-1.027v-3.043c0-0.567,0.46-1.027,1.027-1.027c0.567,0,1.027,0.46,1.027,1.027v3.043C17.063,20.409,16.603,20.869,16.036,20.869z"/><path d="M16.036,17.826c-3.096,0-5.43-1.433-5.43-3.333s2.335-3.333,5.43-3.333s5.431,1.433,5.431,3.333S19.132,17.826,16.036,17.826z M16.036,13.215c-2.061,0-3.376,0.839-3.376,1.278s1.315,1.278,3.376,1.278c2.062,0,3.376-0.839,3.376-1.278S18.097,13.215,16.036,13.215z"/><path d="M4.31,8.589c-0.228,0-0.456-0.075-0.647-0.23c-1.449-1.176-2.426-2.908-2.55-4.521c-0.081-1.054,0.204-1.974,0.824-2.66c1.853-2.051,5.639-1.189,8.086,0.784c0.441,0.356,0.511,1.003,0.154,1.445C9.821,3.847,9.174,3.918,8.732,3.561C6.861,2.052,4.35,1.573,3.461,2.556C3.167,2.881,3.136,3.347,3.162,3.681c0.081,1.052,0.786,2.263,1.797,3.083c0.44,0.358,0.508,1.005,0.15,1.445C4.905,8.459,4.609,8.589,4.31,8.589z"/><path d="M27.54,8.659c-0.302,0-0.601-0.133-0.805-0.388c-0.353-0.444-0.279-1.09,0.165-1.444c1.106-0.88,1.849-2.083,1.94-3.14c0.028-0.332-0.002-0.799-0.303-1.137c-0.203-0.228-0.63-0.375-1.17-0.405c-1.355-0.082-3.025,0.532-4.078,1.477c-0.422,0.379-1.073,0.344-1.451-0.078c-0.379-0.422-0.344-1.072,0.078-1.451c1.45-1.301,3.687-2.107,5.565-1.999c1.114,0.062,2.009,0.439,2.589,1.09c0.624,0.7,0.906,1.626,0.817,2.679c-0.139,1.625-1.151,3.335-2.708,4.574C27.99,8.586,27.764,8.659,27.54,8.659z"/><path d="M29.522,32c-0.567,0-1.027-0.46-1.027-1.027V14.328c-0.201-6.913-6.019-12.38-12.958-12.196C8.875,2.325,3.504,7.695,3.311,14.357l0.001,16.615C3.311,31.54,2.851,32,2.284,32s-1.027-0.46-1.027-1.027V14.328C1.482,6.549,7.728,0.303,15.477,0.078c8.045-0.223,14.837,6.144,15.072,14.22l0.001,16.675C30.55,31.54,30.09,32,29.522,32z"/><path d="M19.102,26.022c-0.121,0-0.243-0.022-0.363-0.067c-1.756-0.662-3.689-0.662-5.442,0c-0.525,0.198-1.114-0.062-1.319-0.585c-0.363-0.924-0.721-1.875-1.081-2.83l-0.503-1.331c-0.097-0.255-0.089-0.539,0.024-0.788c0.112-0.249,0.32-0.443,0.575-0.539c3.24-1.218,6.808-1.218,10.048,0c0.53,0.199,0.799,0.789,0.601,1.32c-0.521,1.401-1.053,2.813-1.586,4.167C19.899,25.774,19.512,26.022,19.102,26.022z M16.019,23.405c0.832,0,1.664,0.106,2.476,0.319c0.285-0.737,0.569-1.487,0.851-2.238c-2.174-0.614-4.475-0.615-6.65-0.001l0.125,0.332c0.241,0.64,0.481,1.278,0.723,1.907C14.355,23.511,15.187,23.405,16.019,23.405z"/><path d="M17.188,19.842l-1.153,4.726l-1.153-4.726c-0.174-0.612,0.182-1.25,0.795-1.423c0.023-0.007,0.046-0.012,0.07-0.017c0.613-0.172,1.249,0.185,1.422,0.798c0.007,0.026,0.014,0.052,0.019,0.078C17.229,19.463,17.229,19.656,17.188,19.842z"/><path d="M12.531,9.224h-2.398c-0.567,0-1.027-0.46-1.027-1.027s0.46-1.027,1.027-1.027h2.398c0.567,0,1.027,0.46,1.027,1.027S13.099,9.224,12.531,9.224z"/><path d="M21.107,9.224H18.71c-0.567,0-1.027-0.46-1.027-1.027s0.46-1.027,1.027-1.027h2.397c0.567,0,1.027,0.46,1.027,1.027S21.675,9.224,21.107,9.224z"/></svg>