<svg xmlns="http://www.w3.org/2000/svg" viewBox="0 0 32 32"><!--! Font Icona - https://fonticona.com | License - https://fonticona.com/license | Copyright 2022 FontIcona.com --><path d="M27.223,15.255c-0.552,0-1-0.448-1-1l0-6.977C19.511,4.688,12.271,4.68,6.157,7.254v6.888c0,0.552-0.448,1-1,1s-1-0.448-1-1V6.6c0-0.393,0.229-0.749,0.587-0.911c6.921-3.14,15.253-3.146,22.859-0.014c0.375,0.154,0.619,0.52,0.619,0.925l0,7.655C28.223,14.807,27.775,15.255,27.223,15.255z"/><path d="M15.258,13.903c-0.552,0-1-0.448-1-1v-1.708c0-0.3-0.254-0.554-0.554-0.554H9.848c-0.3,0-0.554,0.254-0.554,0.554v1.708c0,0.552-0.448,1-1,1s-1-0.448-1-1v-1.708c0-1.408,1.146-2.554,2.554-2.554h3.856c1.408,0,2.554,1.146,2.554,2.554v1.708C16.258,13.455,15.81,13.903,15.258,13.903z"/><path d="M24.225,13.903c-0.552,0-1-0.448-1-1v-1.708c0-0.3-0.254-0.554-0.554-0.554h-3.856c-0.301,0-0.555,0.254-0.555,0.554v1.708c0,0.552-0.448,1-1,1s-1-0.448-1-1v-1.708c0-1.408,1.146-2.554,2.555-2.554h3.856c1.408,0,2.554,1.146,2.554,2.554v1.708C25.225,13.455,24.777,13.903,24.225,13.903z"/><path d="M29,26.306H3c-1.654,0-3-1.346-3-3v-1.595c0-0.742,0.3-1.775,0.698-2.403l3.614-5.701c0.296-0.466,0.913-0.603,1.38-0.309c0.466,0.296,0.604,0.914,0.309,1.38l-3.614,5.7C2.192,20.687,2,21.347,2,21.711v1.595c0,0.552,0.449,1,1,1h26c0.551,0,1-0.448,1-1v-1.595c0-0.381-0.182-1.053-0.375-1.381l-3.265-5.569c-0.279-0.477-0.12-1.089,0.357-1.369c0.477-0.28,1.089-0.12,1.369,0.357l3.265,5.569C31.721,19.95,32,20.979,32,21.711v1.595C32,24.96,30.654,26.306,29,26.306z"/><path d="M27.222,15.142c-0.052,0-0.104-0.004-0.157-0.012c-7.216-1.143-14.533-1.143-21.749,0c-0.547,0.088-1.058-0.286-1.144-0.832s0.286-1.058,0.832-1.144c7.423-1.175,14.951-1.175,22.374,0c0.545,0.086,0.918,0.599,0.832,1.144C28.13,14.791,27.705,15.142,27.222,15.142z"/><path d="M30.956,22.23H1.046c-0.552,0-1-0.447-1-1s0.448-1,1-1h29.91c0.552,0,1,0.447,1,1S31.508,22.23,30.956,22.23z"/><path d="M4.987,28.687c-0.552,0-1-0.447-1-1v-2.381c0-0.553,0.448-1,1-1s1,0.447,1,1v2.381C5.987,28.239,5.54,28.687,4.987,28.687z"/><path d="M27.223,28.687c-0.552,0-1-0.447-1-1v-2.381c0-0.553,0.448-1,1-1s1,0.447,1,1v2.381C28.223,28.239,27.775,28.687,27.223,28.687z"/></svg>