<svg xmlns="http://www.w3.org/2000/svg" viewBox="0 0 32 32"><!--! Font Icona - https://fonticona.com | License - https://fonticona.com/license | Copyright 2022 FontIcona.com --><path d="M19.714,11.122h-7.603C9.914,11.114,8.116,9.323,8.1,7.129V6.556c0-2.212,1.799-4.011,4.011-4.011h7.566c0.015,0,0.03,0,0.045,0c2.18,0,3.975,1.771,4,3.967v0.619C23.706,9.323,21.908,11.114,19.714,11.122z M19.711,4.544c-0.007,0-0.015,0-0.022,0h-7.578c-1.109,0-2.011,0.902-2.011,2.011v0.566c0.008,1.096,0.912,1.996,2.015,2h7.596c1.099-0.004,2.002-0.903,2.011-2.005V6.556C21.71,5.432,20.81,4.544,19.711,4.544z"/><path d="M15.978,32c-0.006,0-0.012,0-0.018,0c-0.335-0.006-0.646-0.18-0.826-0.464c-0.282-0.445-0.958-0.822-1.612-1.188c-0.354-0.197-0.695-0.39-0.988-0.592c-4.41-3.102-3.636-9.3-3.381-11.336c0.407-3.252,0.953-7.607,4.794-9.22c0.51-0.214,1.096,0.026,1.309,0.535c0.214,0.509-0.025,1.095-0.535,1.309c-2.774,1.166-3.2,4.559-3.575,7.553c-0.61,4.876,0.197,7.878,2.529,9.519c0.237,0.163,0.525,0.322,0.822,0.487c0.492,0.275,1.024,0.572,1.49,0.95c0.466-0.375,0.986-0.669,1.468-0.941c0.296-0.167,0.583-0.328,0.829-0.499c2.324-1.624,3.133-4.625,2.545-9.447c-0.36-2.868-0.809-6.442-3.558-7.625c-0.507-0.218-0.742-0.806-0.523-1.313s0.806-0.744,1.313-0.523c3.801,1.635,4.351,6.017,4.753,9.216c0.433,3.549,0.552,8.582-3.386,11.333c-0.295,0.206-0.636,0.4-0.989,0.6c-0.646,0.365-1.314,0.742-1.637,1.213C16.615,31.838,16.307,32,15.978,32z"/><path d="M6.049,25.531c-1.259,0-2.524-0.414-3.578-1.265c-2.218-1.713-3.054-4.65-2.063-7.295c0.998-2.509,3.34-3.987,5.458-5.177c2.175-1.302,4.568-2.2,7.089-2.657c0.541-0.101,1.064,0.262,1.162,0.806c0.099,0.543-0.262,1.064-0.806,1.162c-2.284,0.414-4.451,1.228-6.443,2.419c-1.842,1.036-3.846,2.284-4.595,4.167c-0.674,1.799-0.099,3.819,1.438,5.005c1.604,1.297,3.938,1.049,5.221-0.538c0.036-0.044,0.074-0.109,0.111-0.168L9.14,21.84c0.308-0.458,0.929-0.582,1.388-0.273s0.581,0.929,0.273,1.388l-0.067,0.104c-0.079,0.125-0.167,0.259-0.245,0.357C9.363,24.808,7.713,25.531,6.049,25.531z"/><path d="M25.956,25.534c-1.664,0-3.317-0.723-4.444-2.117c-0.103-0.128-0.258-0.329-0.348-0.463c-0.309-0.458-0.188-1.079,0.269-1.388c0.458-0.311,1.08-0.188,1.388,0.269c0.064,0.095,0.176,0.237,0.248,0.326c1.28,1.583,3.614,1.833,5.202,0.549c1.554-1.2,2.129-3.22,1.448-5.038c-0.742-1.864-2.746-3.112-4.564-4.135c-2.015-1.205-4.183-2.019-6.466-2.432c-0.543-0.098-0.904-0.619-0.806-1.162s0.62-0.906,1.162-0.806c2.521,0.457,4.915,1.355,7.113,2.67c2.094,1.177,4.437,2.655,5.427,5.145c0.998,2.664,0.162,5.601-2.074,7.328C28.468,25.124,27.209,25.534,25.956,25.534z"/><path d="M17.645,16.2h-3.278c-0.552,0-1-0.448-1-1s0.448-1,1-1h3.278c0.552,0,1,0.448,1,1S18.197,16.2,17.645,16.2z"/><path d="M18.811,20.745H13.2c-0.552,0-1-0.448-1-1s0.448-1,1-1h5.611c0.552,0,1,0.448,1,1S19.363,20.745,18.811,20.745z"/><path d="M17.645,25.289h-3.278c-0.552,0-1-0.448-1-1s0.448-1,1-1h3.278c0.552,0,1,0.448,1,1S18.197,25.289,17.645,25.289z"/><circle cx="13.956" cy="6.833" r="1.25"/><circle cx="17.778" cy="6.833" r="1.25"/><path d="M13.522,4.544c-0.552,0-1-0.448-1-1V1c0-0.552,0.448-1,1-1s1,0.448,1,1v2.544C14.522,4.097,14.075,4.544,13.522,4.544z"/><path d="M18.444,4.544c-0.552,0-1-0.448-1-1V1c0-0.552,0.448-1,1-1s1,0.448,1,1v2.544C19.444,4.097,18.997,4.544,18.444,4.544z"/></svg>