<svg xmlns="http://www.w3.org/2000/svg" viewBox="0 0 32 32"><!--! Font Icona - https://fonticona.com | License - https://fonticona.com/license | Copyright 2022 FontIcona.com --><path d="M18.373,32h-8.167c-3.002,0-5.444-2.442-5.444-5.444V10.444h2v16.111c0,1.899,1.545,3.444,3.444,3.444h8.167c1.899,0,3.444-1.545,3.444-3.444V10.703h2v15.853C23.817,29.558,21.375,32,18.373,32z"/><path d="M9.906,11.755H5.717c-0.219,0-0.433-0.072-0.606-0.205c-1.137-0.867-1.843-1.975-1.988-3.119C3,7.47,3.279,6.523,3.931,5.694c0.903-1.022,2.184-1.5,3.475-1.338c0.726-0.005,0.934-0.09,0.994-0.141c0.229-0.828,0.811-2.836,2.885-2.836c0.486-0.01,0.92,0.113,1.27,0.214c0.535,0.153,0.653,0.159,0.841,0.044c0.289-0.169,0.534-0.335,0.77-0.494C14.997,0.581,15.858,0,17.25,0c1.7,0.151,3.174,1.055,4.035,2.423c0.224,0.297,0.418,0.648,0.59,0.958c0.338,0.61,0.546,0.986,1.118,1.24c1.797,0.516,2.97,2.284,2.738,4.147c-0.246,1.484-1.372,2.647-2.807,2.935c-0.064,0.013-0.13,0.02-0.196,0.02H13.55c-0.552,0-1-0.448-1-1s0.448-1,1-1h9.066c0.585-0.152,1.037-0.641,1.137-1.242c0.106-0.86-0.47-1.715-1.347-1.947c-0.044-0.012-0.087-0.026-0.129-0.044c-1.254-0.522-1.73-1.381-2.15-2.139c-0.156-0.281-0.303-0.546-0.491-0.801c-0.573-0.905-1.483-1.463-2.476-1.554C16.469,2,15.997,2.318,15.283,2.8c-0.27,0.181-0.55,0.37-0.861,0.552c-0.951,0.583-1.835,0.33-2.418,0.162c-0.265-0.076-0.498-0.137-0.696-0.137c-0.336,0-0.625,0.107-1.007,1.423c-0.454,1.555-2.275,1.555-2.96,1.555c-0.049,0-0.097-0.003-0.146-0.011c-0.649-0.093-1.294,0.14-1.729,0.63C5.182,7.339,5.051,7.748,5.106,8.179c0.067,0.525,0.415,1.088,0.968,1.577h3.832c0.552,0,1,0.448,1,1S10.458,11.755,9.906,11.755z"/><path d="M9.906,22.222c-0.552,0-1-0.448-1-1V10.755c0-0.552,0.448-1,1-1s1,0.448,1,1v10.467C10.906,21.774,10.458,22.222,9.906,22.222z"/><path d="M13.55,22.222c-0.552,0-1-0.448-1-1v-10.5c0-0.552,0.448-1,1-1s1,0.448,1,1v10.5C14.55,21.774,14.103,22.222,13.55,22.222z"/><path d="M11.729,24.045c-1.557,0-2.823-1.266-2.824-2.821c0-0.552,0.447-1,1-1h0c0.552,0,1,0.447,1,1c0,0.454,0.37,0.822,0.823,0.822c0.219,0,0.425-0.086,0.581-0.241s0.241-0.362,0.241-0.582c0-0.552,0.447-1,1-1h0c0.552,0,1,0.447,1,1c0,0.754-0.293,1.463-0.826,1.996S12.483,24.045,11.729,24.045z"/><path d="M25.684,25.633h-2.867v-2h2.867c0.674,0,1.222-0.548,1.222-1.222v-5.033c0-0.674-0.548-1.222-1.222-1.222h-2.867v-2h2.867c1.777,0,3.222,1.445,3.222,3.222v5.033C28.906,24.188,27.46,25.633,25.684,25.633z"/><rect x="5.867" y="25.89" width="16.844" height="2"/></svg>