<svg xmlns="http://www.w3.org/2000/svg" viewBox="0 0 32 32"><!--! Font Icona - https://fonticona.com | License - https://fonticona.com/license | Copyright 2022 FontIcona.com --><path d="M22.096,23.987c-3.208,0-5.817-2.95-5.817-6.576s2.61-6.576,5.817-6.576c3.208,0,5.818,2.95,5.818,6.576c0,0.553-0.448,1-1,1H18.37c0.382,2.044,1.907,3.576,3.726,3.576c1.249,0,2.423-0.739,3.14-1.977c0.276-0.478,0.887-0.643,1.366-0.364c0.478,0.276,0.641,0.889,0.364,1.366C25.887,22.875,24.066,23.987,22.096,23.987z M18.37,16.411h7.452c-0.382-2.044-1.907-3.576-3.726-3.576C20.277,12.835,18.752,14.367,18.37,16.411z"/><path d="M24.33,10.013h-4.468c-0.552,0-1-0.447-1-1s0.448-1,1-1h4.468c0.552,0,1,0.447,1,1S24.882,10.013,24.33,10.013z"/><path d="M11.285,23.987H5.086c-0.552,0-1-0.447-1-1V9.013c0-0.553,0.448-1,1-1h6.199c2.233,0,4.049,1.816,4.049,4.049c0,1.147-0.479,2.186-1.249,2.923c1.29,0.892,2.137,2.381,2.137,4.064C16.222,21.772,14.007,23.987,11.285,23.987z M6.086,21.987h5.199c1.62,0,2.937-1.317,2.937-2.938s-1.317-2.938-2.937-2.938c-0.552,0-1-0.447-1-1s0.448-1,1-1c1.13,0,2.049-0.92,2.049-2.05s-0.919-2.049-2.049-2.049H6.086V21.987z"/><path d="M11.285,16.112H5.086c-0.552,0-1-0.447-1-1s0.448-1,1-1h6.199c0.552,0,1,0.447,1,1S11.837,16.112,11.285,16.112z"/><path d="M29,32H3c-1.654,0-3-1.346-3-3V3c0-1.654,1.346-3,3-3h26c1.654,0,3,1.346,3,3v26C32,30.654,30.654,32,29,32z M3,2C2.449,2,2,2.448,2,3v26c0,0.552,0.449,1,1,1h26c0.551,0,1-0.448,1-1V3c0-0.552-0.449-1-1-1H3z"/></svg>