<svg xmlns="http://www.w3.org/2000/svg" viewBox="0 0 32 32"><!--! Font Icona - https://fonticona.com | License - https://fonticona.com/license | Copyright 2022 FontIcona.com --><path d="M24.379,26.603c-4.203,0-7.622-3.887-7.622-8.664s3.419-8.664,7.622-8.664c4.202,0,7.621,3.887,7.621,8.664c0,0.553-0.447,1-1,1H18.82c0.408,3.202,2.745,5.664,5.559,5.664c1.852,0,3.586-1.086,4.639-2.903c0.276-0.479,0.89-0.644,1.366-0.364c0.479,0.276,0.642,0.889,0.364,1.366C29.333,25.145,26.952,26.603,24.379,26.603z M18.82,16.938h11.116c-0.408-3.202-2.745-5.664-5.558-5.664C21.565,11.274,19.229,13.736,18.82,16.938z"/><path d="M28.056,7.397h-7.354c-0.553,0-1-0.447-1-1s0.447-1,1-1h7.354c0.553,0,1,0.447,1,1S28.608,7.397,28.056,7.397z"/><path d="M9.52,26.603H1c-0.553,0-1-0.447-1-1V6.397c0-0.553,0.447-1,1-1h8.52c2.862,0,5.19,2.328,5.19,5.19c0,1.645-0.768,3.112-1.964,4.064c1.903,1.112,3.185,3.179,3.185,5.539C15.931,23.727,13.055,26.603,9.52,26.603z M2,24.603h7.52c2.433,0,4.411-1.979,4.411-4.411s-1.979-4.412-4.411-4.412c-0.553,0-1-0.447-1-1s0.447-1,1-1c1.759,0,3.19-1.432,3.19-3.191c0-1.759-1.432-3.19-3.19-3.19H2V24.603z"/><path d="M9.52,15.779H1c-0.553,0-1-0.447-1-1s0.447-1,1-1h8.52c0.553,0,1,0.447,1,1S10.072,15.779,9.52,15.779z"/></svg>