<svg xmlns="http://www.w3.org/2000/svg" viewBox="0 0 32 32"><!--! Font Icona - https://fonticona.com | License - https://fonticona.com/license | Copyright 2022 FontIcona.com --><path d="M5.062,26.896c-0.906,0-1.798-0.608-2.144-1.536c-0.337-1.067,0.093-2.177,1.009-2.717c0.835-0.636,1.433-1.543,1.686-2.563c0.099-0.416,0.153-0.854,0.159-1.293v-3.579c0.133-4.269,2.721-7.979,6.594-9.482c1.23-0.385,2.44-0.587,3.66-0.623c1.278,0.036,2.487,0.238,3.653,0.6c2.454,0.862,4.453,2.747,5.666,5.319c0.628,1.306,0.963,2.709,0.994,4.166v3.614c0.005,0.428,0.06,0.869,0.162,1.3c0.251,1.016,0.854,1.928,1.697,2.563c0.894,0.565,1.285,1.65,0.952,2.66c-0.38,1.024-1.369,1.654-2.422,1.56L5.242,26.888C5.182,26.894,5.122,26.896,5.062,26.896z M16.026,7.102c-0.98,0.03-2.01,0.202-3.001,0.51c-3.058,1.19-5.146,4.193-5.253,7.627l0,3.562c-0.008,0.599-0.081,1.183-0.215,1.749c-0.371,1.499-1.252,2.821-2.485,3.734L4.953,24.36c-0.125,0.067-0.186,0.215-0.143,0.351c0.039,0.101,0.183,0.198,0.346,0.181l21.658-0.004c0.249,0.016,0.394-0.077,0.449-0.226c0.032-0.098-0.022-0.241-0.143-0.313l-0.081-0.054c-1.232-0.913-2.114-2.235-2.482-3.724c-0.138-0.584-0.21-1.172-0.218-1.758v-3.606c-0.024-1.147-0.293-2.273-0.799-3.326C22.553,9.789,20.96,8.271,19.051,7.6C18.094,7.304,17.064,7.132,16.026,7.102z"/><path d="M16,7.102c-1.958,0-3.551-1.593-3.551-3.551S14.042,0,16,0s3.551,1.593,3.551,3.551S17.958,7.102,16,7.102z M16,2c-0.855,0-1.551,0.695-1.551,1.551S15.145,5.102,16,5.102s1.551-0.695,1.551-1.551S16.855,2,16,2z"/><path d="M16,32c-2.043-0.001-3.706-1.664-3.706-3.706v-2.406h2v2.406c0,0.94,0.766,1.705,1.706,1.706c0.94,0,1.706-0.766,1.706-1.706v-2.406h2v2.406C19.706,30.338,18.043,32,16,32z"/><path d="M31,32c-0.256,0-0.512-0.098-0.707-0.293l-30-30c-0.391-0.391-0.391-1.023,0-1.414s1.023-0.391,1.414,0l30,30c0.391,0.391,0.391,1.023,0,1.414C31.512,31.902,31.256,32,31,32z"/></svg>