<svg xmlns="http://www.w3.org/2000/svg" viewBox="0 0 32 32"><!--! Font Icona - https://fonticona.com | License - https://fonticona.com/license | Copyright 2022 FontIcona.com --><path d="M5.028,26.892c-0.903,0-1.795-0.608-2.14-1.536c-0.338-1.068,0.092-2.178,1.009-2.717c0.835-0.637,1.433-1.545,1.686-2.563c0.099-0.418,0.153-0.856,0.159-1.294v-3.579c0.132-4.268,2.72-7.978,6.593-9.482c1.23-0.385,2.44-0.587,3.66-0.623c1.279,0.036,2.488,0.238,3.653,0.6c2.455,0.863,4.454,2.749,5.666,5.319c0.628,1.306,0.963,2.709,0.994,4.166v3.614c0.005,0.431,0.06,0.871,0.161,1.299c0.252,1.017,0.854,1.93,1.697,2.564c0.894,0.565,1.286,1.65,0.953,2.661c-0.381,1.025-1.375,1.644-2.425,1.559L5.211,26.883C5.15,26.889,5.089,26.892,5.028,26.892z M15.996,7.097c-0.98,0.03-2.01,0.202-3.001,0.51c-3.058,1.19-5.146,4.193-5.252,7.627l0,3.562c-0.008,0.597-0.081,1.181-0.215,1.749c-0.371,1.499-1.253,2.821-2.485,3.735l-0.121,0.076c-0.125,0.067-0.185,0.215-0.142,0.351c0.038,0.1,0.192,0.19,0.344,0.18l21.66-0.004c0.249,0.012,0.395-0.077,0.45-0.225c0.03-0.096-0.024-0.242-0.142-0.312l-0.082-0.055c-1.232-0.913-2.114-2.235-2.482-3.725c-0.138-0.58-0.21-1.168-0.218-1.758v-3.606c-0.024-1.147-0.293-2.273-0.799-3.326c-0.985-2.091-2.579-3.608-4.489-4.281C18.064,7.299,17.034,7.127,15.996,7.097z"/><path d="M16,7.102c-1.958,0-3.551-1.593-3.551-3.551S14.042,0,16,0s3.551,1.593,3.551,3.551S17.958,7.102,16,7.102z M16,2c-0.855,0-1.551,0.695-1.551,1.551S15.145,5.102,16,5.102s1.551-0.695,1.551-1.551S16.855,2,16,2z"/><path d="M16,32c-2.043,0-3.706-1.662-3.706-3.706v-2.406h2v2.406C14.294,29.234,15.059,30,16,30c0.941,0,1.707-0.766,1.707-1.706v-2.406h2v2.406C19.706,30.338,18.043,32,16,32z"/></svg>