<svg xmlns="http://www.w3.org/2000/svg" viewBox="0 0 32 32"><!--! Font Icona - https://fonticona.com | License - https://fonticona.com/license | Copyright 2022 FontIcona.com --><path d="M25.25,20.573c-0.552,0-1-0.448-1-1c0-3.93-2.799-7.304-6.656-8.022c-0.543-0.101-0.901-0.623-0.8-1.166c0.101-0.542,0.622-0.903,1.166-0.8c4.803,0.895,8.29,5.095,8.29,9.988C26.25,20.125,25.803,20.573,25.25,20.573z"/><path d="M6.931,20.573c-0.552,0-1-0.448-1-1c0-4.893,3.486-9.093,8.289-9.988c0.545-0.102,1.065,0.257,1.166,0.8c0.101,0.543-0.257,1.065-0.8,1.166c-3.856,0.718-6.655,4.092-6.655,8.022C7.931,20.125,7.483,20.573,6.931,20.573z"/><path d="M8.136,23.947H5.725c-0.817,0-1.482-0.665-1.482-1.482v-2.411c0-0.817,0.665-1.482,1.482-1.482h2.411c0.817,0,1.482,0.665,1.482,1.482v2.411C9.618,23.283,8.953,23.947,8.136,23.947z M6.243,21.947h1.375v-1.375H6.243V21.947z"/><path d="M17.295,13.1h-2.41c-0.817,0-1.482-0.665-1.482-1.482V9.208c0-0.817,0.665-1.482,1.482-1.482h2.41c0.817,0,1.482,0.665,1.482,1.482v2.411C18.778,12.436,18.113,13.1,17.295,13.1z M15.403,11.1h1.375V9.726h-1.375V11.1z"/><path d="M26.456,24.429h-2.411c-0.817,0-1.482-0.665-1.482-1.482v-2.411c0-0.817,0.665-1.482,1.482-1.482h2.411c0.817,0,1.482,0.665,1.482,1.482v2.411C27.938,23.765,27.273,24.429,26.456,24.429z M24.563,22.429h1.375v-1.375h-1.375V22.429z"/><path d="M14.402,11.413H4.685c-0.552,0-1-0.448-1-1s0.448-1,1-1h9.718c0.552,0,1,0.448,1,1S14.955,11.413,14.402,11.413z"/><path d="M2.842,13.255C1.275,13.255,0,11.98,0,10.413c0-1.567,1.275-2.842,2.842-2.842s2.842,1.275,2.842,2.842C5.685,11.98,4.41,13.255,2.842,13.255z M2.842,9.571C2.378,9.571,2,9.948,2,10.413s0.378,0.842,0.842,0.842s0.842-0.378,0.842-0.842S3.307,9.571,2.842,9.571z"/><path d="M29.158,13.41c-1.567,0-2.842-1.275-2.842-2.842s1.275-2.842,2.842-2.842S32,9,32,10.568S30.725,13.41,29.158,13.41z M29.158,9.726c-0.464,0-0.842,0.378-0.842,0.842s0.378,0.842,0.842,0.842S30,11.032,30,10.568S29.622,9.726,29.158,9.726z"/><path d="M27.315,11.568h-9.538c-0.552,0-1-0.448-1-1s0.448-1,1-1h9.538c0.552,0,1,0.448,1,1S27.868,11.568,27.315,11.568z"/></svg>