<svg xmlns="http://www.w3.org/2000/svg" viewBox="0 0 32 32"><!--! Font Icona - https://fonticona.com | License - https://fonticona.com/license | Copyright 2022 FontIcona.com --><path d="M12.93,22.662c-4.639,0-8.412-3.773-8.412-8.412s3.773-8.412,8.412-8.412c4.638,0,8.412,3.773,8.412,8.412S17.568,22.662,12.93,22.662z M12.93,7.838c-3.536,0-6.412,2.876-6.412,6.412c0,3.536,2.876,6.412,6.412,6.412c3.535,0,6.412-2.876,6.412-6.412C19.342,10.714,16.465,7.838,12.93,7.838z"/><path d="M12.93,32c-0.552,0-1-0.447-1-1v-9.338c0-0.553,0.448-1,1-1s1,0.447,1,1V31C13.93,31.553,13.482,32,12.93,32z"/><path d="M16.831,28.324H9.03c-0.552,0-1-0.447-1-1s0.448-1,1-1h7.801c0.553,0,1,0.447,1,1S17.384,28.324,16.831,28.324z"/><path d="M18.462,10.032c-0.256,0-0.512-0.098-0.707-0.293c-0.391-0.391-0.391-1.024,0-1.414l7.824-7.823c0.391-0.391,1.023-0.391,1.414,0s0.391,1.024,0,1.414l-7.824,7.823C18.974,9.935,18.718,10.032,18.462,10.032z"/><path class="st0" d="M26.482,8.139c-0.553,0-1-0.448-1-1V2h-5.14c-0.553,0-1-0.448-1-1s0.447-1,1-1h5.517c0.91,0,1.623,0.713,1.623,1.623v5.516C27.482,7.691,27.035,8.139,26.482,8.139z M25.859,2h0.01H25.859z"/></svg>