<svg xmlns="http://www.w3.org/2000/svg" viewBox="0 0 32 32"><!--! Font Icona - https://fonticona.com | License - https://fonticona.com/license | Copyright 2022 FontIcona.com --><path d="M5.127,29.844c-0.552,0-1-0.447-1-1V2.971C4.127,1.333,5.46,0,7.099,0h19.773c0.553,0,1,0.448,1,1v25.688c0,0.553-0.447,1-1,1H7.283c-0.552,0-1-0.447-1-1s0.448-1,1-1h18.589V2H7.099C6.563,2,6.127,2.436,6.127,2.971v25.873C6.127,29.396,5.679,29.844,5.127,29.844z"/><path d="M26.873,32H7.283c-1.74,0-3.156-1.416-3.156-3.156s1.416-3.155,3.156-3.155c0.552,0,1,0.447,1,1s-0.448,1-1,1c-0.638,0-1.156,0.519-1.156,1.155C6.127,29.481,6.646,30,7.283,30h18.59v-3.312c0-0.553,0.447-1,1-1s1,0.447,1,1V31C27.873,31.553,27.426,32,26.873,32z"/><path d="M16,18.181c-0.552,0-1-0.447-1-1V7.982c0-0.552,0.448-1,1-1s1,0.448,1,1v9.199C17,17.733,16.552,18.181,16,18.181z"/><path d="M19.131,12.431h-6.262c-0.552,0-1-0.448-1-1s0.448-1,1-1h6.262c0.553,0,1,0.448,1,1S19.684,12.431,19.131,12.431z"/></svg>