<svg xmlns="http://www.w3.org/2000/svg" viewBox="0 0 32 32"><!--! Font Icona - https://fonticona.com | License - https://fonticona.com/license | Copyright 2022 FontIcona.com --><path d="M6.939,32c-0.703,0-1.299-0.2-1.632-0.391L5.3,31.62c-6.95-4.088-5.416-9.493-4.435-11.627l0.005,0.001c0.039-0.137,0.106-0.265,0.2-0.376c1.37-1.613,3.297-2.301,5.571-1.996c0.015,0.002,0.883,0.126,1.678,0.396c0.628-0.749,1.497-1.488,2.662-1.917c1.902-0.7,4.095-0.405,6.528,0.874c-0.765-1.889-1.545-4.488-1.522-5.288c0.034-1.105-1.267-3.356-1.861-4.087c-0.114,0.084-0.219,0.151-0.305,0.192c-0.29,0.138-0.871,0.416-4.979,0.333C7.945,8.454,7.164,8.47,6.52,8.167C5.971,7.91,5.68,7.493,5.536,7.204C5.288,6.9,5.204,6.503,5.323,6.12c0.046-0.15,0.124-0.287,0.223-0.411C5.394,5.49,5.306,5.265,5.256,5.061C4.931,3.747,5.989,2.349,6.47,1.799c0.525-1.113,1.442-1.749,2.595-1.795c0.273-0.012,0.788-0.002,1.213,0.176c1.863,0.54,3.747,1.117,5.756,1.765c1.906,0.451,2.477,1.435,2.893,2.154c0.062,0.105,0.121,0.209,0.187,0.309c0.18,0.272,0.903,1.07,2.395,2.495c2.355,1.761,5.908,5.108,9.472,11.079c0.042,0.071,0.076,0.129,0.102,0.171c0.867,0.921,0.969,1.819,0.898,2.417c-0.184,1.54-1.633,2.598-2.249,2.983c-0.06,0.039-0.125,0.072-0.192,0.098c-0.82,0.312-2.749,1.704-4.153,2.801c-0.02,0.016-0.041,0.031-0.064,0.047l0.001,0.001c-6.585,4.72-13.094,4.236-13.367,4.209c-1.5-0.035-2.101,0.156-3.225,0.812C8.119,31.874,7.496,32,6.939,32z M6.275,29.873c0.125,0.055,0.781,0.305,1.451-0.082c1.357-0.791,2.305-1.132,4.342-1.079c0.113,0.011,6.119,0.433,12.075-3.827c0.988-0.773,3.304-2.53,4.582-3.063c0.597-0.385,1.208-0.982,1.269-1.488c0.012-0.096,0.047-0.39-0.403-0.848l0.001-0.001c-0.117-0.125-0.213-0.285-0.328-0.478c-3.397-5.69-6.741-8.849-8.949-10.497c-0.035-0.026-0.142-0.117-0.173-0.148c-1.465-1.398-2.367-2.354-2.696-2.852c-0.088-0.133-0.168-0.269-0.248-0.408c-0.322-0.557-0.555-0.959-1.701-1.232c-2.079-0.668-3.956-1.243-5.813-1.78C9.651,2.08,9.62,2.07,9.59,2.057C9.238,1.937,8.61,1.872,8.247,2.725C8.2,2.834,8.135,2.934,8.054,3.019c-0.478,0.519-0.917,1.318-0.857,1.56c0,0,0,0,0,0c0.008,0,0.113,0.089,0.446,0.156c0.504,0.101,0.85,0.568,0.799,1.079C8.428,5.951,8.388,6.078,8.326,6.192c0.141-0.047,0.305-0.068,0.519-0.069c3.416,0.072,4.071-0.122,4.134-0.144c1.163-0.886,2.008-0.359,2.406,0.032c0.669,0.65,2.664,3.726,2.602,5.733c-0.03,1.06,1.446,4.703,2.045,5.987c0.071,0.146,0.107,0.311,0.101,0.481c-0.02,0.464-0.355,0.853-0.811,0.94l-1.157,0.222c-0.247,0.047-0.501,0.001-0.714-0.132c-2.284-1.41-4.227-1.837-5.78-1.266c-0.973,0.357-1.664,1.071-2.121,1.722c-0.035,0.068-0.079,0.133-0.129,0.192c-0.41,0.633-0.593,1.163-0.596,1.174c-0.169,0.524-0.731,0.815-1.259,0.644c-0.525-0.17-0.814-0.733-0.644-1.259c0.012-0.036,0.1-0.301,0.283-0.687c-1.158-0.316-3.096-0.515-4.508,1.033c-0.004,0.01-0.009,0.021-0.014,0.03C1.748,22.861,0.975,26.734,6.275,29.873z"/><path d="M8.787,31.323c-0.229,0-0.459-0.078-0.647-0.237c-7.838-6.653-3.063-13.07-3.014-13.134c0.336-0.44,0.964-0.522,1.402-0.185c0.437,0.335,0.52,0.961,0.187,1.399c-0.161,0.216-3.624,5.011,2.719,10.394c0.421,0.357,0.473,0.988,0.115,1.41C9.352,31.203,9.071,31.323,8.787,31.323z"/><path d="M12.809,26.462c-0.686,0-1.389-0.11-2.09-0.375c-0.517-0.194-0.778-0.772-0.584-1.288c0.195-0.517,0.771-0.779,1.289-0.583c3.008,1.133,6.491-2.023,6.525-2.055c0.407-0.373,1.04-0.347,1.412,0.059c0.374,0.405,0.35,1.036-0.056,1.411C19.157,23.768,16.198,26.462,12.809,26.462z"/></svg>