<svg xmlns="http://www.w3.org/2000/svg" viewBox="0 0 32 32"><!--! Font Icona - https://fonticona.com | License - https://fonticona.com/license | Copyright 2022 FontIcona.com --><path d="M5.744,25.335C2.577,25.335,0,22.758,0,19.59c0-3.167,2.577-5.744,5.744-5.744c1.578,0,3.103,0.659,4.185,1.809l-1.456,1.371c-0.716-0.761-1.685-1.18-2.729-1.18C3.68,15.846,2,17.526,2,19.59c0,2.065,1.68,3.745,3.744,3.745c2.032,0,3.676-1.59,3.743-3.619l1.999,0.066C11.383,22.896,8.861,25.335,5.744,25.335z"/><path d="M26.256,25.335c-3.167,0-5.745-2.577-5.745-5.745c0-3.167,2.577-5.744,5.745-5.744S32,16.423,32,19.59C32,22.758,29.423,25.335,26.256,25.335z M26.256,15.846c-2.065,0-3.745,1.68-3.745,3.744c0,2.065,1.68,3.745,3.745,3.745c2.064,0,3.744-1.68,3.744-3.745C30,17.526,28.32,15.846,26.256,15.846z"/><path d="M26.256,20.59c-0.374,0-0.732-0.21-0.903-0.57L19.677,8.095c-0.237-0.499-0.025-1.096,0.473-1.333c0.499-0.235,1.095-0.025,1.333,0.474l5.676,11.925c0.237,0.499,0.025,1.096-0.473,1.333C26.547,20.559,26.4,20.59,26.256,20.59z"/><path d="M4.893,20.961c-0.412,0-0.784-0.253-0.933-0.64c-0.154-0.398-0.037-0.851,0.29-1.126l7.193-6.046c0.096-0.081,0.207-0.143,0.326-0.183l9.772-3.27c0.422-0.14,0.885,0.012,1.138,0.377c0.254,0.363,0.237,0.852-0.041,1.197l-7.183,8.944c-0.182,0.227-0.452,0.362-0.742,0.373L4.931,20.96C4.918,20.961,4.905,20.961,4.893,20.961z M12.583,14.803l-4.816,4.049l6.414-0.244l4.766-5.934L12.583,14.803z"/><rect x="11.055" y="8.946" transform="matrix(0.8705 -0.4921 0.4921 0.8705 -5.6421 7.8273)" width="2" height="11.381"/><path d="M7.263,10.81c-0.446,0-0.852-0.3-0.968-0.751c-0.138-0.535,0.184-1.08,0.719-1.218c1.464-0.376,3.013-0.377,4.479-0.001c0.535,0.138,0.857,0.683,0.72,1.217c-0.137,0.535-0.681,0.859-1.217,0.721c-1.14-0.293-2.345-0.291-3.484,0.001C7.429,10.8,7.345,10.81,7.263,10.81z"/><path d="M24.115,8.665H20.58c-0.552,0-1-0.447-1-1s0.448-1,1-1h3.535c0.552,0,1,0.447,1,1S24.667,8.665,24.115,8.665z"/><path d="M24.48,11.25c-0.552,0-1-0.447-1-1s0.448-1,1-1c0.486,0,0.704-0.105,0.751-0.162c-0.005-0.028-0.002-0.064,0.002-0.101c-0.137-0.113-0.561-0.322-1.235-0.322c-0.552,0-1-0.447-1-1s0.448-1,1-1c1.813,0,3.189,0.923,3.241,2.158c0.027,0.271,0.032,0.948-0.48,1.556C26.271,10.957,25.504,11.25,24.48,11.25z M25.273,9.029h0.01H25.273z"/></svg>