<svg xmlns="http://www.w3.org/2000/svg" viewBox="0 0 32 32"><!--! Font Icona - https://fonticona.com | License - https://fonticona.com/license | Copyright 2022 FontIcona.com --><path d="M7.533,27.413c-3.026,0-5.396-1.811-5.396-4.122s2.371-4.123,5.396-4.123s5.396,1.812,5.396,4.123S10.559,27.413,7.533,27.413z M7.533,21.168c-1.841,0-3.396,0.973-3.396,2.123s1.555,2.122,3.396,2.122s3.396-0.972,3.396-2.122S9.375,21.168,7.533,21.168z"/><path d="M2.275,16.604c-0.063,0-0.126-0.006-0.191-0.018c-0.542-0.105-0.896-0.629-0.792-1.172c0.366-1.891,1.75-3.017,2.514-3.507L4.24,8.283c0.217-2.679,2.376-4.295,5.776-4.295c0.021,0,0.042,0,0.063,0c0.071,0,2.808,0.02,4.405,1.731C15,6.274,15.335,6.945,15.478,7.7c0.165-0.013,0.34-0.021,0.52-0.021c0.552,0,1,0.448,1,1s-0.448,1-1,1c-0.629,0-1.211,0.137-1.217,0.139c-0.312,0.073-0.637-0.004-0.88-0.209c-0.243-0.206-0.374-0.515-0.352-0.832c0.049-0.706-0.124-1.26-0.527-1.693c-0.849-0.91-2.502-1.096-2.899-1.096C8.398,5.985,6.398,6.404,6.229,8.483l-0.497,4.159c-0.041,0.344-0.257,0.642-0.57,0.788c-0.011,0.005-1.601,0.786-1.906,2.365C3.163,16.272,2.745,16.604,2.275,16.604z"/><path d="M7.533,28.03C3.379,28.03,0,25.5,0,22.391c0-0.062,0.006-0.124,0.017-0.185l1.274-6.786c0.102-0.542,0.622-0.9,1.167-0.798c0.543,0.102,0.9,0.625,0.798,1.167l-1.255,6.687c0.071,1.936,2.576,3.555,5.532,3.555c3,0,5.533-1.667,5.533-3.64V19.56c0-0.553,0.448-1,1-1s1,0.447,1,1v2.831C15.066,25.5,11.687,28.03,7.533,28.03z"/><path d="M24.467,27.413c-3.026,0-5.396-1.811-5.396-4.122s2.371-4.123,5.396-4.123s5.396,1.812,5.396,4.123S27.493,27.413,24.467,27.413z M24.467,21.168c-1.841,0-3.396,0.973-3.396,2.123s1.555,2.122,3.396,2.122s3.396-0.972,3.396-2.122S26.308,21.168,24.467,21.168z"/><path d="M29.615,16.586c-0.47,0-0.888-0.332-0.981-0.81c-0.305-1.578-1.89-2.356-1.906-2.364c-0.313-0.146-0.529-0.444-0.57-0.788l-0.493-4.122C25.61,7.847,25.458,5.97,21.888,5.97c-0.017,0-0.033,0-0.049,0c-0.602,0-2.158,0.19-2.968,1.059c-0.406,0.435-0.58,1.001-0.529,1.73c0.022,0.316-0.108,0.624-0.349,0.829c-0.24,0.206-0.564,0.284-0.874,0.215c-0.006-0.001-0.623-0.141-1.259-0.141c-0.552,0-1-0.448-1-1s0.448-1,1-1c0.188,0,0.372,0.009,0.547,0.022c0.14-0.773,0.477-1.458,1-2.02c1.562-1.675,4.247-1.694,4.36-1.694c0.019,0,0.038,0,0.056,0c3.504,0,5.606,1.577,5.83,4.333l0.43,3.586c0.764,0.49,2.148,1.617,2.514,3.507c0.105,0.542-0.25,1.067-0.792,1.172C29.742,16.581,29.678,16.586,29.615,16.586z"/><path d="M24.467,28.03c-4.154,0-7.533-2.53-7.533-5.641v-2.832c0-0.553,0.448-1,1-1s1,0.447,1,1v2.832c0,1.974,2.534,3.641,5.533,3.641c2.953,0,5.455-1.616,5.531-3.549l-1.362-6.696c-0.11-0.541,0.239-1.069,0.781-1.179c0.537-0.112,1.069,0.239,1.179,0.781l1.384,6.803C31.993,22.256,32,22.322,32,22.39C32,25.5,28.621,28.03,24.467,28.03z"/><path d="M15.998,20.869c-2.55,0-4.473-1.217-4.473-2.831c0-1.614,1.923-2.831,4.473-2.831s4.473,1.217,4.473,2.831C20.471,19.652,18.548,20.869,15.998,20.869z M15.998,17.207c-1.604,0-2.44,0.64-2.473,0.833c0.032,0.19,0.866,0.829,2.473,0.829c1.602,0,2.436-0.635,2.473-0.831C18.432,17.842,17.596,17.207,15.998,17.207z"/><path d="M3.46,14.458c-0.29,0-0.577-0.125-0.774-0.367c-0.35-0.427-0.287-1.057,0.141-1.407c0.832-0.681,3.136-1.992,4.297-2.259c2.036-0.469,4.215-0.421,6.134,0.133c0.588,0.17,1.089,0.433,1.531,0.665c0.279,0.146,0.557,0.294,0.858,0.413c0.275,0.109,0.485,0.029,1.11-0.325c0.233-0.132,0.47-0.264,0.719-0.375c0.942-0.418,2.213-0.706,3.486-0.788c2.328-0.149,6.11,0.972,7.926,2.354c0.439,0.334,0.525,0.962,0.19,1.401c-0.335,0.439-0.961,0.524-1.401,0.19c-1.452-1.104-4.71-2.071-6.587-1.95c-1.046,0.067-2.068,0.293-2.803,0.62c-0.189,0.084-0.369,0.188-0.546,0.288c-0.686,0.387-1.623,0.917-2.827,0.445c-0.37-0.146-0.713-0.324-1.056-0.503c-0.393-0.206-0.764-0.401-1.157-0.515c-1.573-0.455-3.443-0.493-5.128-0.105c-0.693,0.16-2.742,1.253-3.48,1.858C3.907,14.384,3.683,14.458,3.46,14.458z"/></svg>