<svg xmlns="http://www.w3.org/2000/svg" viewBox="0 0 32 32"><!--! Font Icona - https://fonticona.com | License - https://fonticona.com/license | Copyright 2022 FontIcona.com --><path d="M21.431,32c-2.001,0-3.703-0.557-5.431-1.79C14.272,31.443,12.57,32,10.569,32c-2.516,0-4.957-0.945-6.873-2.661c-0.39-0.35-0.445-0.94-0.125-1.355c0.319-0.416,0.905-0.513,1.342-0.225c0.725,0.478,1.556,0.73,2.402,0.73c2.519,0,4.568-2.173,4.568-4.843c0-2.671-2.049-4.844-4.568-4.844s-4.568,2.173-4.568,4.844c0,0.512,0.078,1.022,0.232,1.517c0.155,0.5-0.102,1.036-0.589,1.228c-0.49,0.19-1.041-0.025-1.268-0.499C0.378,24.338,0,22.679,0,20.959c0-4.008,2.121-7.721,5.457-9.653c-0.019-0.258-0.028-0.501-0.028-0.74c0-4.82,2.951-9.045,7.342-10.514c0.479-0.162,1.002,0.062,1.22,0.518c0.218,0.456,0.061,1.002-0.365,1.274c-1.392,0.888-2.223,2.438-2.223,4.149c0,2.616,2.008,4.786,4.477,4.837c0.002,0,0.004,0.001,0.005,0c0.002,0.01,0.036,0.001,0.054,0.003c0.069,0.003,0.088,0.001,0.137-0.001c0.012,0,0.038,0.003,0.037-0.001h0c0.001,0,0.003,0,0.004,0c2.469-0.051,4.476-2.221,4.476-4.837c0-1.711-0.831-3.262-2.223-4.149c-0.426-0.271-0.582-0.818-0.364-1.274c0.218-0.456,0.744-0.677,1.22-0.518c4.392,1.47,7.343,5.695,7.343,10.514c0,0.237-0.009,0.48-0.028,0.739C29.88,13.238,32,16.951,32,20.959c0,1.721-0.378,3.38-1.123,4.933c-0.227,0.473-0.78,0.688-1.268,0.498c-0.488-0.192-0.745-0.729-0.588-1.229c0.153-0.491,0.231-1.001,0.231-1.516c0-2.67-2.05-4.843-4.568-4.843s-4.567,2.173-4.567,4.843c0,2.671,2.049,4.844,4.567,4.844c0.847,0,1.677-0.253,2.401-0.73c0.44-0.288,1.023-0.19,1.343,0.225c0.319,0.414,0.266,1.006-0.124,1.354C26.388,31.054,23.948,32,21.431,32z M16.158,27.994c0.178,0.02,0.351,0.086,0.495,0.202C18.232,29.461,19.661,30,21.431,30c0.247,0,0.493-0.012,0.737-0.034c-2.376-1.03-4.051-3.476-4.051-6.321c0-3.773,2.946-6.843,6.567-6.843c2.111,0,3.993,1.043,5.195,2.66c-0.466-2.893-2.263-5.427-4.84-6.693c-0.382-0.188-0.604-0.597-0.551-1.02c0.056-0.457,0.082-0.832,0.082-1.183c0-2.252-0.778-4.345-2.107-5.95c0.087,0.447,0.132,0.908,0.132,1.376c0,3.598-2.735,6.599-6.153,6.825c-0.062,0.012-0.125,0.018-0.19,0.018c-0.024,0-0.111-0.004-0.135-0.006l-0.089,0.006l-0.168-0.005l-0.111,0.005c-0.065,0-0.129-0.006-0.192-0.019c-3.417-0.226-6.152-3.227-6.152-6.824c0-0.469,0.045-0.929,0.132-1.376c-1.329,1.605-2.107,3.697-2.107,5.95c0,0.355,0.026,0.73,0.082,1.182c0.053,0.423-0.168,0.833-0.551,1.021c-2.578,1.267-4.374,3.802-4.841,6.695c1.202-1.618,3.084-2.661,5.195-2.661c3.622,0,6.568,3.07,6.568,6.844c0,2.844-1.674,5.288-4.049,6.319C10.077,29.988,10.323,30,10.569,30c1.769,0,3.198-0.54,4.778-1.804C15.582,28.008,15.877,27.938,16.158,27.994z"/><path d="M16,20.275c-1.752,0-3.178-1.474-3.178-3.285c0-1.811,1.426-3.285,3.178-3.285c1.752,0,3.178,1.474,3.178,3.285C19.178,18.802,17.752,20.275,16,20.275z M16,15.705c-0.65,0-1.178,0.577-1.178,1.285c0,0.709,0.528,1.285,1.178,1.285c0.649,0,1.178-0.576,1.178-1.285C17.178,16.282,16.649,15.705,16,15.705z"/></svg>