<svg xmlns="http://www.w3.org/2000/svg" viewBox="0 0 32 32"><!--! Font Icona - https://fonticona.com | License - https://fonticona.com/license | Copyright 2022 FontIcona.com --><circle cx="23.273" cy="5.775" r="1.25"/><path d="M13.038,27.843c-0.622,0-1.218-0.218-1.698-0.625c-0.537-0.455-0.864-1.092-0.923-1.793c-0.011-0.146-0.011-0.287,0-0.427l-0.001-0.801c-0.597-0.077-1.189-0.183-1.771-0.316c-1.389-0.3-2.7-0.863-3.887-1.672c-0.16-0.114-0.332-0.223-0.515-0.341c-0.977-0.626-2.313-1.483-2.451-2.854c-0.028-0.281,0.064-0.561,0.254-0.771c0.265-0.292,0.653-0.335,1.099-0.322c0.243,0.007,0.727,0.021,0.922-0.044c0-0.014,0.001-0.033,0-0.058c-0.016-0.203-0.304-0.651-0.535-1.012c-0.204-0.318-0.416-0.648-0.558-0.991C1.191,12.09,5.83,8.457,7.295,7.433c2.418-1.454,4.918-2.672,7.489-3.66c0.688-0.315,1.366-0.669,2.015-1.051c0.347-0.216,0.712-0.474,1.082-0.734c1.377-0.968,2.912-2.055,4.884-1.983c2.825,0.13,5.971,2.572,5.971,5.869c0.007,1.424-0.526,2.786-1.503,3.83c-0.882,0.922-2.03,1.542-3.271,1.777c0.574,1.044,0.902,2.214,0.948,3.427c0.002,0.038,0.001,0.076-0.002,0.114c-0.191,2.517-1.459,4.831-3.476,6.349c-1.209,0.992-2.613,1.759-4.141,2.253c-0.494,0.211-1.045,0.382-1.62,0.502v0.948c0.055,0.619-0.164,1.301-0.619,1.837c-0.455,0.537-1.092,0.865-1.793,0.922C13.186,27.84,13.111,27.843,13.038,27.843z M4.701,19.772c0.224,0.157,0.447,0.301,0.621,0.412c0.213,0.137,0.412,0.265,0.579,0.384c0.955,0.65,2.03,1.112,3.178,1.36c0.799,0.183,1.606,0.307,2.413,0.37c0.521,0.041,0.922,0.475,0.922,0.997v1.779c-0.006,0.115-0.006,0.154-0.003,0.193c0.014,0.163,0.093,0.316,0.222,0.426s0.301,0.162,0.462,0.148c0.35-0.029,0.609-0.336,0.58-0.685l-0.003-1.883c0-0.51,0.384-0.938,0.892-0.994c0.7-0.077,1.384-0.254,2.031-0.528c1.37-0.447,2.555-1.094,3.603-1.953c1.575-1.186,2.55-2.95,2.712-4.871c-0.067-1.406-0.646-2.732-1.635-3.739c-0.349-0.354-0.384-0.91-0.083-1.306c0.291-0.383,0.811-0.504,1.242-0.29c0.275,0.046,0.561,0.039,0.832-0.024c1.014-0.136,1.873-0.571,2.514-1.24c0.618-0.661,0.961-1.534,0.956-2.45c0-2.113-2.144-3.788-4.06-3.875c-1.293-0.061-2.42,0.76-3.645,1.621c-0.401,0.282-0.798,0.561-1.196,0.808c-0.738,0.436-1.487,0.826-2.248,1.173c-0.019,0.009-0.038,0.017-0.057,0.024c-2.474,0.948-4.878,2.12-7.147,3.481c-0.752,0.529-4.737,3.477-3.582,5.894c0.095,0.226,0.257,0.479,0.414,0.723c0.373,0.582,0.797,1.241,0.85,2.008c0.015,0.825-0.299,1.299-0.563,1.56C5.265,19.528,4.99,19.678,4.701,19.772z M15.172,4.695h0.01H15.172z"/><path d="M17.575,32c-0.033,0-0.066-0.001-0.101-0.005l-4.561-0.456l-2.381,0.287c-0.538,0.067-1.046-0.324-1.112-0.873c-0.065-0.548,0.325-1.046,0.874-1.112l1.643-0.198l0.107-2.837c0.021-0.552,0.48-0.992,1.037-0.962c0.539,0.021,0.962,0.464,0.962,0.999c0,0.013,0,0.026-0.001,0.039l-0.104,2.751l3.734,0.373c0.55,0.055,0.95,0.545,0.896,1.095C18.518,31.615,18.083,32,17.575,32z"/><path d="M31,20.648c-0.39,0-0.76-0.229-0.921-0.611L25.581,9.409c-0.215-0.508,0.022-1.095,0.531-1.311c0.505-0.214,1.096,0.022,1.311,0.531l4.498,10.628c0.215,0.508-0.022,1.095-0.531,1.311C31.263,20.622,31.131,20.648,31,20.648z"/></svg>