<svg xmlns="http://www.w3.org/2000/svg" viewBox="0 0 32 32"><!--! Font Icona - https://fonticona.com | License - https://fonticona.com/license | Copyright 2022 FontIcona.com --><path d="M11.466,32H9.204c-1.633,0-2.961-1.329-2.961-2.962V15.492c0-1.633,1.329-2.961,2.961-2.961h2.262c1.633,0,2.961,1.328,2.961,2.961v13.546C14.427,30.671,13.099,32,11.466,32z M9.204,14.531c-0.53,0-0.961,0.431-0.961,0.961v13.546c0,0.53,0.431,0.962,0.961,0.962h2.262c0.53,0,0.961-0.432,0.961-0.962V15.492c0-0.53-0.431-0.961-0.961-0.961H9.204z"/><path d="M10.405,10.826c-0.838,0-1.668-0.188-2.442-0.56C7.02,9.743,6.417,8.881,6.255,7.874C6.249,7.836,6.245,7.798,6.244,7.76C6.167,6,6.721,4.267,7.804,2.877c0.298-0.475,0.682-1.01,1.088-1.517l0.757-0.974C9.84,0.142,10.127,0.001,10.443,0c0.31,0.001,0.602,0.146,0.791,0.393l0.75,0.98c0.396,0.493,0.781,1.031,1.133,1.58c1.022,1.321,1.567,3.055,1.483,4.811c-0.002,0.037-0.006,0.073-0.012,0.109c-0.161,1.008-0.764,1.87-1.654,2.366C12.118,10.632,11.258,10.826,10.405,10.826z M8.239,7.608c0.076,0.376,0.308,0.696,0.644,0.883c0.958,0.46,2.119,0.459,3.13-0.027c0.286-0.161,0.516-0.48,0.591-0.856c0.046-1.262-0.352-2.504-1.123-3.505c-0.355-0.549-0.692-1.02-1.048-1.466c-0.354,0.443-0.69,0.912-0.998,1.395C8.604,5.104,8.199,6.346,8.239,7.608z"/><rect x="6.936" y="16.957" transform="matrix(0.9099 -0.4149 0.4149 0.9099 -6.5191 5.9067)" width="6.799" height="2.001"/><rect x="6.938" y="24.071" transform="matrix(0.9102 -0.4141 0.4141 0.9102 -9.454 6.5302)" width="6.794" height="2"/><path d="M22.577,32h-2.261c-1.633,0-2.962-1.329-2.962-2.962V15.492c0-1.633,1.329-2.961,2.962-2.961h2.261c1.633,0,2.961,1.328,2.961,2.961v13.546C25.539,30.671,24.21,32,22.577,32z M20.316,14.531c-0.53,0-0.962,0.431-0.962,0.961v13.546c0,0.53,0.432,0.962,0.962,0.962h2.261c0.53,0,0.961-0.432,0.961-0.962V15.492c0-0.53-0.431-0.961-0.961-0.961H20.316z"/><path d="M21.563,10.826c-0.838,0-1.668-0.188-2.442-0.56c-0.943-0.523-1.546-1.386-1.708-2.393c-0.006-0.035-0.009-0.07-0.011-0.105c-0.092-1.752,0.443-3.486,1.507-4.882c0.304-0.481,0.688-1.019,1.097-1.528l0.771-0.978c0.191-0.242,0.482-0.42,0.792-0.381c0.309,0.002,0.599,0.147,0.787,0.393l0.75,0.98c0.396,0.493,0.781,1.031,1.133,1.58c1.032,1.309,1.59,3.043,1.518,4.804c-0.001,0.039-0.005,0.078-0.012,0.117c-0.162,1.007-0.765,1.869-1.654,2.365C23.275,10.632,22.416,10.826,21.563,10.826z M19.396,7.605c0.074,0.377,0.307,0.698,0.645,0.886c0.958,0.46,2.119,0.459,3.13-0.027c0.285-0.16,0.515-0.479,0.59-0.854c0.037-1.265-0.37-2.505-1.151-3.501c-0.362-0.559-0.701-1.031-1.059-1.48c-0.358,0.449-0.696,0.92-1.003,1.402C19.735,5.102,19.344,6.346,19.396,7.605z"/><rect x="18.047" y="16.957" transform="matrix(0.9099 -0.4149 0.4149 0.9099 -5.5176 10.5168)" width="6.799" height="2.001"/><rect x="18.049" y="24.071" transform="matrix(0.9102 -0.4141 0.4141 0.9102 -8.4566 11.1314)" width="6.794" height="2"/></svg>