<svg xmlns="http://www.w3.org/2000/svg" viewBox="0 0 32 32"><!--! Font Icona - https://fonticona.com | License - https://fonticona.com/license | Copyright 2022 FontIcona.com --><path d="M16.057,18.6c-4.409,0-7.6-6.245-7.6-10.455c-0.082-2.143,0.729-4.285,2.228-5.841C12.115,0.818,14.022,0,16.057,0c2.035,0,3.946,0.821,5.382,2.312c1.495,1.553,2.307,3.685,2.229,5.852C23.659,12.373,20.465,18.6,16.057,18.6z M16.057,2c-1.485,0-2.881,0.601-3.931,1.69c-1.123,1.167-1.731,2.776-1.669,4.416c0,3.729,2.716,8.493,5.6,8.493c2.837,0,5.611-4.842,5.611-8.455l0-0.038c0.062-1.634-0.547-3.24-1.671-4.407C18.943,2.604,17.543,2,16.057,2z"/><path d="M21.835,20.512c-1.029,0-2.05-0.211-2.987-0.616c-0.716-0.357-1.905-1.068-2.401-2.085c-0.242-0.496-0.036-1.095,0.46-1.337c0.495-0.243,1.095-0.037,1.337,0.46c0.164,0.335,0.746,0.797,1.449,1.15c0.738,0.317,1.608,0.47,2.469,0.418c1.737-0.127,3.693-1.282,4.856-2.874c0.612-0.838,1.264-2.154,0.899-3.671c-0.297-0.982-0.886-1.913-1.687-2.637c-0.837-0.729-2.295-1.188-3.466-1.08c-0.548,0.053-1.037-0.354-1.088-0.903c-0.051-0.55,0.353-1.037,0.903-1.089c1.716-0.15,3.712,0.475,4.978,1.576c1.085,0.98,1.873,2.225,2.29,3.61c0.439,1.818,0.003,3.707-1.214,5.373c-1.513,2.07-4,3.519-6.337,3.689C22.143,20.507,21.989,20.512,21.835,20.512z"/><path d="M10.164,20.512c-0.148,0-0.296-0.005-0.444-0.014c-2.357-0.172-4.85-1.625-6.363-3.702c-1.212-1.664-1.644-3.55-1.215-5.31c0.438-1.449,1.239-2.695,2.333-3.658c1.3-1.155,3.306-1.775,5.115-1.578c0.549,0.061,0.945,0.554,0.885,1.103c-0.06,0.55-0.556,0.944-1.103,0.886C8.33,8.123,6.822,8.416,5.799,9.325c-0.818,0.721-1.415,1.648-1.73,2.688c-0.353,1.457,0.295,2.771,0.903,3.605c1.163,1.597,3.124,2.756,4.879,2.885c0.84,0.047,1.716-0.103,2.509-0.443c0.589-0.281,1.273-0.831,1.375-1.057c0.219-0.486,0.797-0.757,1.294-0.56c0.496,0.195,0.768,0.705,0.597,1.21c-0.425,1.256-2.358,2.188-2.44,2.228C12.216,20.3,11.187,20.512,10.164,20.512z"/><path d="M16.057,32c-0.552,0-1-0.447-1-1V17.6c0-0.553,0.448-1,1-1s1,0.447,1,1V31C17.057,31.553,16.609,32,16.057,32z"/><path d="M16.056,30.345c-0.17,0-0.343-0.043-0.5-0.135c-0.478-0.277-0.641-0.889-0.364-1.367l5.7-9.834c0.278-0.477,0.891-0.64,1.367-0.363c0.478,0.277,0.641,0.889,0.364,1.367l-5.7,9.834C16.736,30.166,16.401,30.345,16.056,30.345z"/><path d="M16.058,30.822c-0.36,0-0.708-0.195-0.887-0.536l-5.2-9.934c-0.256-0.489-0.067-1.094,0.422-1.35c0.49-0.259,1.094-0.066,1.35,0.422l5.2,9.934c0.256,0.489,0.067,1.094-0.422,1.35C16.373,30.786,16.214,30.822,16.058,30.822z"/></svg>