<svg xmlns="http://www.w3.org/2000/svg" viewBox="0 0 32 32"><!--! Font Icona - https://fonticona.com | License - https://fonticona.com/license | Copyright 2022 FontIcona.com --><path d="M24.15,32H7.951c-1.529,0-2.844-1.186-2.995-2.701l-0.701-7.405l1.991-0.187l0.7,7.4C6.994,29.58,7.463,30,7.951,30H24.15c0.496,0,0.956-0.412,1.005-0.899l0.801-7.506l1.988,0.213l-0.8,7.5C26.993,30.815,25.677,32,24.15,32z"/><path d="M11.763,24.412c-1.455,0-1.994-1.466-2.323-2.359c-0.12-0.326-0.343-0.934-0.495-1.034c0,0.006-0.104,0.016-0.291,0.098c-0.418,0.193-0.604,0.373-0.82,0.582c-0.331,0.319-0.741,0.715-1.67,0.881c-1.495,0.372-3.281-0.479-4.007-1.931l-0.045-0.105c-0.351-0.967-0.589-3.412,0.188-4.841c0.395-0.726,0.939-0.985,1.327-1.075c8.11-1.52,16.639-1.521,24.708-0.008c0.428,0.098,0.972,0.356,1.366,1.082c0.777,1.43,0.54,3.875,0.189,4.841c-0.732,1.618-2.432,2.441-4.084,2.028c-0.939-0.152-1.391-0.84-1.688-1.295c-0.223-0.34-0.301-0.432-0.443-0.471c-0.149,0.143-0.381,0.554-0.524,0.81c-0.447,0.796-1.048,1.894-2.283,1.783c-1.234-0.103-1.652-1.298-1.957-2.17c-0.101-0.287-0.262-0.747-0.39-0.919c-0.136,0.051-0.345,0.266-0.645,0.595c-0.463,0.505-1.097,1.197-2.125,1.197c-1.407,0-1.584-1.36-1.65-1.872c-0.013-0.098-0.031-0.238-0.053-0.346c-0.012,0.002-0.026,0.004-0.041,0.006c-0.064,0.12-0.025,0.777-0.002,1.171c0.055,0.923,0.117,1.97-0.541,2.699c-0.248,0.274-0.703,0.608-1.47,0.642C11.914,24.408,11.837,24.412,11.763,24.412z M8.965,19.028c0.271,0,0.528,0.052,0.77,0.154c0.925,0.394,1.289,1.384,1.582,2.18c0.123,0.334,0.35,0.954,0.507,1.05c0.166-0.014,0.198-0.026,0.198-0.026c0.05-0.128,0.01-0.804-0.014-1.208c-0.062-1.043-0.177-2.985,1.694-3.265c0.631-0.099,1.165,0.007,1.579,0.316c0.606,0.453,0.725,1.164,0.791,1.666c0.106-0.101,0.22-0.225,0.328-0.342c0.484-0.528,1.146-1.252,2.25-1.252c1.392,0.104,1.847,1.405,2.147,2.266c0.066,0.189,0.162,0.463,0.252,0.662c0.122-0.178,0.261-0.424,0.357-0.596c0.454-0.808,1.14-2.03,2.495-1.821c1.104,0.17,1.576,0.891,1.889,1.367c0.245,0.373,0.295,0.413,0.423,0.435c0.799,0.196,1.518-0.15,1.826-0.827c0.303-0.843,0.216-2.914-0.168-3.235c-7.734-1.435-16.008-1.436-23.836,0.032c-0.285,0.284-0.374,2.277-0.064,3.219c0.327,0.588,1.143,0.991,1.716,0.833l0.1-0.021c0.35-0.059,0.408-0.115,0.656-0.354c0.273-0.264,0.646-0.624,1.388-0.967C8.234,19.116,8.612,19.028,8.965,19.028z"/><path d="M8.251,15.501c-0.552,0-1-0.448-1-1v-5.1c0-0.552,0.448-1,1-1c0.552,0,1,0.448,1,1v5.1C9.251,15.053,8.803,15.501,8.251,15.501z"/><path d="M16.05,15.476c-0.552,0-1-0.448-1-1V8.801c0-0.552,0.448-1,1-1c0.552,0,1,0.448,1,1v5.675C17.05,15.028,16.602,15.476,16.05,15.476z"/><path d="M23.849,15.601c-0.553,0-1-0.448-1-1v-5.1c0-0.552,0.447-1,1-1s1,0.448,1,1v5.1C24.849,15.153,24.402,15.601,23.849,15.601z"/><path d="M23.833,7.501c-0.53,0-1.053-0.119-1.541-0.353c-0.669-0.372-1.084-0.966-1.194-1.661c-0.006-0.037-0.01-0.075-0.012-0.113c-0.048-1.082,0.293-2.148,0.959-3.003c0.15-0.243,0.37-0.549,0.605-0.843l0.42-0.54c0.19-0.245,0.435-0.39,0.793-0.386c0.311,0.001,0.602,0.146,0.79,0.393l0.416,0.544c0.224,0.278,0.446,0.587,0.651,0.909c0.61,0.785,0.944,1.852,0.893,2.931c-0.002,0.037-0.006,0.073-0.012,0.108c-0.11,0.694-0.525,1.289-1.141,1.632C24.931,7.375,24.378,7.5,23.833,7.501z M23.082,5.213c0.021,0.067,0.067,0.125,0.131,0.16c0.384,0.182,0.889,0.183,1.327-0.028c0.019-0.012,0.058-0.065,0.078-0.133c0.012-0.582-0.176-1.153-0.532-1.616c-0.081-0.124-0.156-0.236-0.229-0.341c-0.062,0.088-0.122,0.178-0.18,0.269C23.265,4.058,23.073,4.631,23.082,5.213z"/><path d="M8.234,7.5c-0.53,0-1.053-0.119-1.54-0.353C6.025,6.776,5.609,6.182,5.498,5.488C5.492,5.45,5.488,5.411,5.487,5.373C5.44,4.29,5.781,3.224,6.447,2.37c0.149-0.242,0.369-0.548,0.605-0.843L7.47,0.988C7.66,0.745,7.951,0.602,8.26,0.602c0.001,0,0.002,0,0.004,0c0.31,0.001,0.602,0.146,0.79,0.393L9.47,1.539c0.224,0.277,0.446,0.587,0.651,0.909c0.61,0.785,0.945,1.851,0.893,2.93c-0.002,0.038-0.006,0.075-0.012,0.111c-0.112,0.693-0.527,1.287-1.14,1.63C9.333,7.374,8.779,7.5,8.234,7.5z M7.483,5.212C7.504,5.28,7.55,5.337,7.613,5.373c0.385,0.183,0.888,0.183,1.329-0.028C8.959,5.333,8.999,5.279,9.019,5.21C9.03,4.629,8.842,4.058,8.486,3.596C8.405,3.472,8.33,3.359,8.256,3.254c-0.061,0.088-0.12,0.178-0.178,0.268C7.667,4.057,7.474,4.63,7.483,5.212z"/><path d="M16.084,6.9c-0.53,0-1.053-0.119-1.541-0.353c-0.667-0.37-1.083-0.964-1.195-1.659c-0.006-0.038-0.01-0.077-0.012-0.115c-0.047-1.083,0.294-2.149,0.96-3.003c0.149-0.241,0.369-0.548,0.605-0.843l0.418-0.539c0.19-0.245,0.446-0.41,0.793-0.387c0.31,0.001,0.602,0.146,0.79,0.392l0.416,0.544c0.225,0.279,0.446,0.588,0.651,0.908c0.61,0.787,0.944,1.853,0.893,2.932c-0.002,0.037-0.006,0.073-0.012,0.108c-0.11,0.695-0.526,1.29-1.142,1.633C17.182,6.775,16.629,6.9,16.084,6.9z M15.332,4.612c0.021,0.068,0.067,0.125,0.13,0.16c0.386,0.184,0.89,0.184,1.328-0.028c0.018-0.011,0.057-0.066,0.077-0.133c0.012-0.581-0.175-1.153-0.532-1.616c-0.081-0.124-0.156-0.235-0.229-0.34c-0.061,0.088-0.121,0.178-0.178,0.269C15.517,3.457,15.324,4.03,15.332,4.612z"/></svg>