<svg xmlns="http://www.w3.org/2000/svg" viewBox="0 0 32 32"><!--! Font Icona - https://fonticona.com | License - https://fonticona.com/license | Copyright 2022 FontIcona.com --><path d="M10.003,23.554c-3.671,0-6.658-2.987-6.658-6.658s2.987-6.658,6.658-6.658s6.658,2.987,6.658,6.658S13.675,23.554,10.003,23.554z M10.003,12.237c-2.568,0-4.658,2.09-4.658,4.658s2.09,4.658,4.658,4.658s4.658-2.09,4.658-4.658S12.572,12.237,10.003,12.237z"/><path d="M10.003,32c-0.552,0-1-0.447-1-1v-8.446c0-0.553,0.448-1,1-1s1,0.447,1,1V31C11.003,31.553,10.556,32,10.003,32z"/><path d="M13.229,27.777H6.777c-0.552,0-1-0.447-1-1s0.448-1,1-1h6.453c0.552,0,1,0.447,1,1S13.782,27.777,13.229,27.777z"/><path d="M21.997,23.554c-3.671,0-6.658-2.987-6.658-6.658s2.987-6.658,6.658-6.658s6.658,2.987,6.658,6.658S25.668,23.554,21.997,23.554z M21.997,12.237c-2.568,0-4.658,2.09-4.658,4.658s2.09,4.658,4.658,4.658s4.658-2.09,4.658-4.658S24.565,12.237,21.997,12.237z"/><path d="M21.997,32c-0.552,0-1-0.447-1-1v-8.446c0-0.553,0.448-1,1-1s1,0.447,1,1V31C22.997,31.553,22.549,32,21.997,32z"/><path d="M25.223,27.777h-6.453c-0.552,0-1-0.447-1-1s0.448-1,1-1h6.453c0.552,0,1,0.447,1,1S25.775,27.777,25.223,27.777z"/><path d="M16.414,18.575c-3.792,0-6.878-3.085-6.878-6.878c0-3.792,3.085-6.877,6.878-6.877s6.878,3.085,6.878,6.877C23.292,15.49,20.206,18.575,16.414,18.575z M16.414,6.82c-2.69,0-4.878,2.188-4.878,4.877s2.188,4.878,4.878,4.878s4.878-2.188,4.878-4.878S19.104,6.82,16.414,6.82z"/><path d="M20.801,8.561c-0.256,0-0.512-0.098-0.707-0.293c-0.391-0.391-0.391-1.023,0-1.414l6.204-6.204c0.391-0.391,1.023-0.391,1.414,0s0.391,1.023,0,1.414l-6.204,6.204C21.312,8.463,21.057,8.561,20.801,8.561z"/><path class="st0" d="M27.387,8.108c-0.552,0-1-0.447-1-1V2h-5.109c-0.552,0-1-0.447-1-1s0.448-1,1-1h5.489c0.909,0,1.62,0.712,1.62,1.62v5.488C28.387,7.661,27.939,8.108,27.387,8.108z M26.767,2h0.01H26.767z"/></svg>