<svg xmlns="http://www.w3.org/2000/svg" viewBox="0 0 32 32"><!--! Font Icona - https://fonticona.com | License - https://fonticona.com/license | Copyright 2022 FontIcona.com --><path d="M23.981,26.395c-0.552,0-1-0.447-1-1c0-1.44-0.67-2.396-1.114-2.396H10.133c-0.443,0-1.114,0.956-1.114,2.396c0,0.553-0.448,1-1,1s-1-0.447-1-1c0-2.465,1.368-4.396,3.114-4.396h11.734c1.746,0,3.114,1.932,3.114,4.396C24.981,25.947,24.533,26.395,23.981,26.395z"/><path d="M23.546,32H8.454c-1.654,0-3-1.346-3-3v-1.401c0-1.654,1.346-3,3-3h15.093c1.654,0,3,1.346,3,3V29C26.546,30.654,25.201,32,23.546,32z M8.454,26.599c-0.551,0-1,0.448-1,1V29c0,0.552,0.449,1,1,1h15.093c0.551,0,1-0.448,1-1v-1.401c0-0.552-0.449-1-1-1H8.454z"/><path d="M20.396,22.612c-1.391-2.272-2.321-5.02-2.842-8.398l1.977-0.305c0.48,3.111,1.321,5.616,2.572,7.658L20.396,22.612z"/><path d="M11.048,22.615l-1.701-1.051c1.365-2.208,2.267-4.86,2.681-7.882l1.981,0.271C13.557,17.255,12.561,20.169,11.048,22.615z"/><path d="M15.723,15.07c-2.064,0-6.865-0.231-6.865-2.374s4.801-2.374,6.865-2.374s6.865,0.231,6.865,2.374S17.787,15.07,15.723,15.07z M11.808,12.696c0.861,0.199,2.189,0.374,3.915,0.374s3.054-0.175,3.915-0.374c-0.861-0.199-2.189-0.374-3.915-0.374S12.669,12.497,11.808,12.696z"/><path d="M18.29,12.322h-4.58c-0.192,0-0.38-0.056-0.542-0.159c-0.176-0.113-1.721-1.151-1.936-2.772c-0.082-0.611,0.004-1.542,0.87-2.501c0.361-0.474,1.318-1.777,1.866-2.737c-0.381-0.446-0.599-1.012-0.599-1.608C13.371,1.142,14.549,0,15.998,0s2.627,1.142,2.627,2.544c0,0.595-0.217,1.158-0.596,1.605c0.54,0.943,1.482,2.23,1.896,2.771c0.84,0.948,0.922,1.865,0.842,2.47c-0.215,1.621-1.76,2.659-1.936,2.772C18.67,12.267,18.482,12.322,18.29,12.322z M14.041,10.322h3.918c0.31-0.257,0.766-0.727,0.826-1.199c0.013-0.104,0.054-0.421-0.373-0.894c-0.018-0.02-0.034-0.039-0.05-0.06C18.176,7.928,16.648,5.928,16,4.587c-0.648,1.341-2.177,3.342-2.362,3.583c-0.477,0.532-0.436,0.849-0.423,0.953C13.275,9.595,13.729,10.063,14.041,10.322z M15.998,2c-0.346,0-0.627,0.244-0.627,0.544c0,0.187,0.116,0.358,0.31,0.46c0.127,0.066,0.234,0.156,0.318,0.263c0.084-0.106,0.191-0.196,0.317-0.264c0.193-0.102,0.309-0.273,0.309-0.459C16.625,2.244,16.343,2,15.998,2z"/></svg>