<svg xmlns="http://www.w3.org/2000/svg" viewBox="0 0 32 32"><!--! Font Icona - https://fonticona.com | License - https://fonticona.com/license | Copyright 2022 FontIcona.com --><path d="M24.807,30.097H7.193c-1.414,0-2.723-1.078-2.98-2.454L0.057,5.449C-0.113,4.544,0.108,3.64,0.664,2.971c0.563-0.679,1.429-1.068,2.374-1.068h25.925c0.945,0,1.81,0.39,2.374,1.068c0.556,0.669,0.777,1.572,0.607,2.478l-4.156,22.194C27.53,29.019,26.221,30.097,24.807,30.097z M3.038,3.903c-0.354,0-0.65,0.123-0.835,0.346c-0.177,0.213-0.241,0.509-0.18,0.833l4.156,22.194c0.081,0.43,0.564,0.821,1.015,0.821h17.614c0.451,0,0.934-0.392,1.015-0.821l4.156-22.194c0.061-0.324-0.003-0.62-0.18-0.833c-0.185-0.223-0.481-0.346-0.835-0.346H3.038z"/><path d="M18.42,22.129h-4.84c-1.413,0-2.722-1.077-2.98-2.453l-1.171-6.258c-0.169-0.905,0.052-1.809,0.607-2.478c0.563-0.679,1.428-1.068,2.373-1.068h7.183c0.945,0,1.81,0.39,2.373,1.068c0.556,0.669,0.777,1.572,0.607,2.478L21.4,19.674C21.142,21.051,19.833,22.129,18.42,22.129z M12.409,11.872c-0.353,0-0.649,0.123-0.834,0.346c-0.177,0.213-0.241,0.509-0.18,0.833l1.171,6.257c0.081,0.43,0.564,0.821,1.015,0.821h4.84c0.45,0,0.934-0.392,1.015-0.822l1.171-6.256c0.061-0.324-0.003-0.62-0.18-0.833c-0.185-0.223-0.481-0.346-0.834-0.346H12.409z"/></svg>