<svg xmlns="http://www.w3.org/2000/svg" viewBox="0 0 32 32"><!--! Font Icona - https://fonticona.com | License - https://fonticona.com/license | Copyright 2022 FontIcona.com --><path d="M17.445,28.347H8.893c-0.552,0-1-0.447-1-1V4.695c0-0.552,0.448-1,1-1h5.778c3.674,0,6.663,2.989,6.663,6.663c0,1.933-0.827,3.676-2.146,4.894c2.831,0.768,4.919,3.36,4.919,6.431C24.107,25.357,21.119,28.347,17.445,28.347z M9.893,26.347h7.552c2.571,0,4.663-2.092,4.663-4.663s-2.092-4.662-4.663-4.662H9.893V26.347z M9.893,15.021h4.778c2.571,0,4.663-2.092,4.663-4.663c0-2.571-2.092-4.663-4.663-4.663H9.893V15.021z"/><path d="M15.574,32c-0.552,0-1-0.447-1-1v-3.653c0-0.553,0.448-1,1-1s1,0.447,1,1V31C16.574,31.553,16.126,32,15.574,32z"/><path d="M15.574,5.408c-0.552,0-1-0.448-1-1V1c0-0.552,0.448-1,1-1s1,0.448,1,1v3.408C16.574,4.96,16.126,5.408,15.574,5.408z"/><path d="M11.534,32c-0.552,0-1-0.447-1-1v-3.408c0-0.553,0.448-1,1-1s1,0.447,1,1V31C12.534,31.553,12.086,32,11.534,32z"/><path d="M11.534,5.408c-0.552,0-1-0.448-1-1V1c0-0.552,0.448-1,1-1s1,0.448,1,1v3.408C12.534,4.96,12.086,5.408,11.534,5.408z"/></svg>