<svg xmlns="http://www.w3.org/2000/svg" viewBox="0 0 32 32"><!--! Font Icona - https://fonticona.com | License - https://fonticona.com/license | Copyright 2022 FontIcona.com --><path d="M9.617,13.671h-4.72c-0.319,0-0.619-0.152-0.808-0.41s-0.242-0.591-0.145-0.895l0.948-2.962C5.026,8.99,5.411,8.709,5.846,8.709h3.771c1.368,0,2.48,1.113,2.48,2.481S10.985,13.671,9.617,13.671z M6.268,11.671h3.35c0.265,0,0.48-0.216,0.48-0.48c0-0.266-0.216-0.481-0.48-0.481H6.575L6.268,11.671z"/><path d="M8.524,19.437H3.806c-0.319,0-0.619-0.152-0.808-0.41s-0.242-0.591-0.145-0.895l0.947-2.962c0.132-0.414,0.518-0.695,0.952-0.695h3.771c1.368,0,2.481,1.112,2.481,2.48S9.893,19.437,8.524,19.437z M5.176,17.437h3.349c0.266,0,0.481-0.216,0.481-0.481c0-0.265-0.216-0.48-0.481-0.48H5.483L5.176,17.437z"/><path d="M26.714,16.29h-4.72c-0.319,0-0.619-0.152-0.808-0.41c-0.188-0.258-0.242-0.591-0.145-0.895l0.948-2.962c0.133-0.414,0.518-0.695,0.952-0.695h3.771c1.368,0,2.48,1.113,2.48,2.481S28.082,16.29,26.714,16.29z M23.364,14.29h3.35c0.265,0,0.48-0.216,0.48-0.48c0-0.266-0.216-0.481-0.48-0.481h-3.042L23.364,14.29z"/><path d="M25.621,22.056h-4.719c-0.319,0-0.619-0.152-0.808-0.41s-0.242-0.591-0.145-0.895l0.947-2.962c0.132-0.414,0.518-0.695,0.952-0.695h3.771c1.368,0,2.481,1.112,2.481,2.48S26.989,22.056,25.621,22.056z M22.272,20.056h3.349c0.266,0,0.481-0.216,0.481-0.481c0-0.265-0.216-0.48-0.481-0.48H22.58L22.272,20.056z"/><path d="M18.595,13.671h-4.72c-0.319,0-0.619-0.152-0.808-0.41s-0.242-0.591-0.145-0.895l0.948-2.962c0.133-0.414,0.518-0.695,0.952-0.695h3.771c1.368,0,2.48,1.113,2.48,2.481S19.963,13.671,18.595,13.671z M15.245,11.671h3.35c0.265,0,0.48-0.216,0.48-0.48c0-0.266-0.216-0.481-0.48-0.481h-3.042L15.245,11.671z"/><path d="M17.354,19.421h-4.719c-0.319,0-0.619-0.152-0.808-0.41s-0.242-0.591-0.145-0.895l0.947-2.962c0.132-0.414,0.518-0.695,0.952-0.695h3.771c1.368,0,2.481,1.112,2.481,2.48S18.723,19.421,17.354,19.421z M14.006,17.421h3.349c0.266,0,0.481-0.216,0.481-0.481c0-0.265-0.216-0.48-0.481-0.48h-3.041L14.006,17.421z"/><path d="M16.012,25.17h-4.719c-0.319,0-0.619-0.152-0.808-0.41s-0.242-0.591-0.145-0.895l0.947-2.962c0.132-0.414,0.518-0.695,0.952-0.695h3.771c1.368,0,2.481,1.112,2.481,2.48S17.38,25.17,16.012,25.17z M12.663,23.17h3.349c0.266,0,0.481-0.216,0.481-0.481c0-0.265-0.216-0.48-0.481-0.48h-3.041L12.663,23.17z"/><path d="M16,32C7.178,32,0,24.822,0,16S7.178,0,16,0s16,7.178,16,16S24.822,32,16,32z M16,2C8.28,2,2,8.28,2,16s6.28,14,14,14s14-6.28,14-14S23.72,2,16,2z"/></svg>