<svg xmlns="http://www.w3.org/2000/svg" viewBox="0 0 32 32"><!--! Font Icona - https://fonticona.com | License - https://fonticona.com/license | Copyright 2022 FontIcona.com --><path d="M10.505,22.322c-1.095-0.043-1.962-0.832-2.102-1.878L7.265,7.22C7.163,6.171,7.941,5.223,9,5.118l0.127-0.007h10.278c0.582,0.036,1.053,0.27,1.393,0.658c0.34,0.388,0.508,0.886,0.474,1.401L20.068,20.4c-0.092,1.036-0.945,1.861-1.984,1.92L10.505,22.322z M9.263,7.111l1.128,13.114c0.006,0.033,0.073,0.094,0.154,0.098l7.483-0.001c-0.001-0.002,0.043-0.045,0.048-0.1v-0.002L19.27,7.111H9.263z M9.127,7.111l0,0.006l0.01-0.006H9.127z"/><path d="M19.405,32H9.127c-0.662-0.027-1.209-0.28-1.544-0.693c-0.265-0.327-0.375-0.727-0.309-1.125l1.129-8.349c0.07-0.559,0.438-1.511,2.102-1.511h7.522c1.337,0.026,1.923,0.787,2.033,1.49l1.201,8.391c0.065,0.385-0.057,0.809-0.338,1.141C20.576,31.755,20.008,32,19.405,32z M19.281,30.479c0.001,0.011,0.002,0.021,0.004,0.031L19.281,30.479z M9.256,30.445l-0.004,0.033C9.253,30.468,9.255,30.457,9.256,30.445z M10.355,22.325l-1.039,7.676L19.213,30l-1.099-7.672c-0.029-0.003-0.064-0.005-0.106-0.006h-7.502C10.446,22.322,10.396,22.323,10.355,22.325z M10.387,22.091l0,0.003C10.387,22.093,10.387,22.092,10.387,22.091z"/><path d="M21.028,7.111H7.494c-0.514,0-0.944-0.39-0.995-0.9C6.491,6.128,6.311,4.152,7.668,2.704c0.799-0.853,1.923-1.327,3.349-1.416l0.128-0.525C11.254,0.315,11.656,0,12.117,0h4.267c0.455,0,0.853,0.308,0.968,0.748l0.141,0.539c1.437,0.087,2.568,0.563,3.37,1.421c1.355,1.449,1.169,3.422,1.161,3.506C21.97,6.724,21.541,7.111,21.028,7.111z M8.583,5.111h11.359c-0.086-0.344-0.249-0.729-0.552-1.049c-0.536-0.563-1.422-0.824-2.639-0.786c-0.475,0.027-0.885-0.293-1.003-0.747L15.61,2h-2.708l-0.125,0.515c-0.113,0.461-0.548,0.79-1.007,0.762c-1.216-0.041-2.095,0.222-2.632,0.784C8.834,4.38,8.67,4.767,8.583,5.111z"/><path d="M19.54,11.357c-1.926-0.917-3.541-1.575-5.287-0.997c-0.889,0.319-1.887,0.632-3.004,0.704c-1.016,0.033-1.714-0.316-2.333-0.614c-0.252-0.122-0.511-0.249-0.803-0.348l0.64-1.895c0.392,0.132,0.731,0.296,1.031,0.44c0.517,0.249,0.892,0.422,1.38,0.418c0.827-0.055,1.664-0.319,2.439-0.597C16.28,7.585,18.66,8.723,20.4,9.553L19.54,11.357z"/><circle cx="14.183" cy="26.155" r="2"/><path d="M19.349,18.267c-0.541,0-0.985-0.431-0.999-0.975c-0.014-0.552,0.422-1.011,0.974-1.025c1.606-0.041,3.678-1.154,4.047-2.583c0.101-0.322,0.144-0.599,0.144-0.878c-0.001-0.624-0.391-1.285-1.067-1.812c-0.69-0.538-1.568-0.859-2.348-0.859c-0.004-0.001-0.007-0.001-0.009,0c-0.551,0-0.999-0.446-1-0.998c-0.001-0.556,0.459-1.052,1.009-1.002c1.229,0,2.532,0.467,3.578,1.282c1.182,0.922,1.834,2.123,1.837,3.385c0.001,0.487-0.074,0.972-0.223,1.438c-0.615,2.39-3.555,3.968-5.917,4.028C19.366,18.267,19.357,18.267,19.349,18.267z"/><path d="M10.928,15.921H8.931c-0.552,0-1-0.447-1-1s0.448-1,1-1h1.997c0.552,0,1,0.447,1,1S11.48,15.921,10.928,15.921z"/><path d="M12.594,19.167H9.21c-0.552,0-1-0.447-1-1s0.448-1,1-1h3.384c0.552,0,1,0.447,1,1S13.146,19.167,12.594,19.167z"/></svg>