<svg xmlns="http://www.w3.org/2000/svg" viewBox="0 0 32 32"><!--! Font Icona - https://fonticona.com | License - https://fonticona.com/license | Copyright 2022 FontIcona.com --><path d="M29,32H3c-1.654,0-3-1.346-3-3V3c0-1.654,1.346-3,3-3h26c1.654,0,3,1.346,3,3v26C32,30.654,30.654,32,29,32z M3,2C2.448,2,2,2.448,2,3v26c0,0.552,0.448,1,1,1h26c0.552,0,1-0.448,1-1V3c0-0.552-0.448-1-1-1H3z"/><path d="M19.99,26.5h-7.98c-3.59,0-6.51-2.904-6.51-6.474v-8.053C5.5,8.404,8.42,5.5,12.01,5.5h5.795c1.893,0,5.484,1.332,5.528,6.371c0.012,0.193,0.115,0.599,0.267,0.724c0.016,0.014,0.06,0.044,0.211,0.024c0.261-0.03,1.402-0.105,2.128,0.55c0.362,0.327,0.562,0.785,0.562,1.29v5.567C26.5,23.595,23.58,26.5,19.99,26.5z M17.798,7.5H12.01c-2.486,0-4.51,2.007-4.51,4.474v8.053c0,2.467,2.023,4.474,4.51,4.474h7.98c2.486,0,4.51-2.007,4.51-4.474v-5.396c-0.127-0.027-0.316-0.038-0.457-0.026c-0.818,0.115-1.391-0.196-1.727-0.477c-0.898-0.751-0.977-2.061-0.982-2.207C21.296,7.673,18.155,7.505,17.798,7.5z"/><path d="M17.375,13.334h-5.967c-0.553,0-1-0.447-1-1s0.447-1,1-1h5.967c0.553,0,1,0.447,1,1S17.928,13.334,17.375,13.334z"/><path d="M19.625,20.709h-8.217c-0.553,0-1-0.447-1-1s0.447-1,1-1h8.217c0.553,0,1,0.447,1,1S20.178,20.709,19.625,20.709z"/></svg>