<svg xmlns="http://www.w3.org/2000/svg" viewBox="0 0 32 32"><!--! Font Icona - https://fonticona.com | License - https://fonticona.com/license | Copyright 2022 FontIcona.com --><path d="M22.3,32H9.7C4.352,32,0,27.674,0,22.358V9.642C0,4.325,4.352,0,9.7,0h9.149c0.081,0,8.067,0.108,8.15,9.485c-0.008,0.3,0.062,1.052,0.466,1.445c0.223,0.216,0.536,0.326,0.988,0.298c0.409-0.055,1.847-0.188,2.789,0.617C31.738,12.268,32,12.864,32,13.566v8.792C32,27.674,27.648,32,22.3,32z M18.845,2H9.7C5.454,2,2,5.428,2,9.642v12.716C2,26.572,5.454,30,9.7,30h12.6c4.246,0,7.7-3.428,7.7-7.642v-8.792c0-0.151-0.036-0.183-0.056-0.199c-0.212-0.181-0.873-0.212-1.238-0.154l-0.104,0.012c-1.3,0.067-2.105-0.439-2.548-0.877c-1.096-1.084-1.062-2.713-1.054-2.895C24.935,2.139,19.094,2.002,18.845,2z"/><path d="M17.75,13.175h-7.2c-1.544,0-2.8-1.251-2.8-2.788v-0.248c0-1.537,1.256-2.788,2.8-2.788h7.2c1.544,0,2.8,1.251,2.8,2.788v0.248C20.55,11.924,19.294,13.175,17.75,13.175z M10.55,9.351c-0.441,0-0.8,0.354-0.8,0.788v0.248c0,0.435,0.358,0.788,0.8,0.788h7.2c0.441,0,0.8-0.354,0.8-0.788v-0.248c0-0.435-0.358-0.788-0.8-0.788H10.55z"/><path d="M21.6,24.5H10.55c-1.544,0-2.8-1.251-2.8-2.788v-0.248c0-1.537,1.256-2.788,2.8-2.788H21.6c1.544,0,2.801,1.251,2.801,2.788v0.248C24.4,23.249,23.144,24.5,21.6,24.5z M10.55,20.675c-0.441,0-0.8,0.354-0.8,0.788v0.248c0,0.435,0.358,0.788,0.8,0.788H21.6c0.441,0,0.801-0.354,0.801-0.788v-0.248c0-0.435-0.359-0.788-0.801-0.788H10.55z"/></svg>