<svg xmlns="http://www.w3.org/2000/svg" viewBox="0 0 32 32"><!--! Font Icona - https://fonticona.com | License - https://fonticona.com/license | Copyright 2022 FontIcona.com --><path d="M4.882,27.444c-1.592,0-2.973-1.204-3.143-2.797c-0.087-0.817,0.156-1.621,0.685-2.262c0.547-0.663,1.326-1.07,2.195-1.145c0.98-0.082,1.863,0.16,2.48,0.69c0.533,0.457,0.84,1.091,0.889,1.834c0.037,0.551-0.38,1.027-0.931,1.064c-0.546,0.026-1.028-0.381-1.064-0.932c-0.018-0.267-0.121-0.385-0.196-0.449c-0.201-0.172-0.573-0.253-1.006-0.216c-0.329,0.028-0.621,0.179-0.823,0.424c-0.184,0.224-0.269,0.5-0.24,0.778c0.065,0.608,0.638,1.059,1.254,1.005c3.663-0.317,7.344-0.459,11.06-0.476c0.552,0,1,0.448,1,1.001c0,0.552-0.448,0.999-1,0.999h0c-0.022,0-0.044,0-0.066,0c-3.597,0-7.237,0.157-10.821,0.468C5.063,27.44,4.972,27.444,4.882,27.444z"/><path d="M2.732,25.541c-0.506,0-0.94-0.383-0.994-0.897L0.03,8.121C-0.027,7.571,0.372,7.08,0.921,7.023c0.554-0.061,1.041,0.343,1.098,0.892l1.709,16.524c0.057,0.549-0.342,1.04-0.892,1.098C2.801,25.539,2.767,25.541,2.732,25.541z"/><path d="M6.989,24.832c-0.521,0-0.96-0.403-0.997-0.931L4.849,7.533C4.811,6.981,5.226,6.504,5.777,6.465c0.555-0.041,1.029,0.377,1.067,0.928l1.144,16.37c0.039,0.551-0.377,1.028-0.928,1.067C7.036,24.831,7.013,24.832,6.989,24.832z"/><path d="M1.009,8.882c-0.504,0-0.938-0.381-0.993-0.894C-0.066,7.22,0.172,6.454,0.686,5.83c0.59-0.716,1.492-1.175,2.474-1.26c0.978-0.088,1.948,0.211,2.652,0.815c0.614,0.526,0.98,1.24,1.032,2.011c0.037,0.551-0.38,1.028-0.931,1.064C5.351,8.5,4.886,8.081,4.849,7.53c-0.02-0.295-0.195-0.503-0.338-0.626C4.212,6.647,3.782,6.525,3.333,6.562C2.882,6.602,2.48,6.798,2.229,7.102c-0.12,0.146-0.256,0.38-0.225,0.674c0.059,0.549-0.339,1.042-0.888,1.1C1.08,8.88,1.044,8.882,1.009,8.882z"/><path d="M27.118,27.444c-0.09,0-0.181-0.004-0.272-0.012c-3.584-0.311-7.225-0.468-10.821-0.468c-0.022,0-0.044,0-0.066,0h0c-0.552,0-1-0.447-1-0.999c-0.001-0.575,0.477-1.008,1.066-1.001c3.654,0,7.353,0.16,10.994,0.476c0.631,0.053,1.188-0.397,1.254-1.006c0.029-0.277-0.056-0.554-0.24-0.777c-0.202-0.245-0.494-0.396-0.823-0.424c-0.456-0.039-0.858,0.05-1.079,0.24c-0.123,0.105-0.183,0.236-0.195,0.425c-0.036,0.551-0.523,0.959-1.064,0.932c-0.551-0.037-0.968-0.514-0.931-1.064c0.048-0.727,0.355-1.353,0.888-1.81c0.639-0.549,1.544-0.807,2.554-0.715c0.869,0.074,1.648,0.481,2.195,1.145c0.528,0.641,0.772,1.444,0.685,2.261C30.091,26.24,28.71,27.444,27.118,27.444z"/><path d="M29.268,25.541c-0.034,0-0.069-0.002-0.104-0.005c-0.549-0.058-0.949-0.549-0.892-1.098l1.709-16.524c0.057-0.549,0.542-0.954,1.098-0.892c0.549,0.057,0.949,0.548,0.892,1.098l-1.709,16.523C30.208,25.158,29.774,25.541,29.268,25.541z"/><path d="M25.011,24.832c-0.023,0-0.047-0.001-0.071-0.002c-0.551-0.039-0.966-0.517-0.928-1.067l1.144-16.37c0.038-0.55,0.51-0.967,1.067-0.928c0.551,0.039,0.966,0.516,0.928,1.067l-1.144,16.369C25.971,24.429,25.531,24.832,25.011,24.832z"/><path d="M30.991,8.882c-0.036,0-0.071-0.002-0.107-0.006c-0.549-0.058-0.947-0.551-0.888-1.1c0.031-0.293-0.105-0.528-0.225-0.674c-0.25-0.304-0.652-0.5-1.103-0.54c-0.448-0.033-0.879,0.085-1.179,0.341c-0.143,0.123-0.318,0.331-0.338,0.626C27.114,8.081,26.643,8.5,26.086,8.46c-0.551-0.037-0.968-0.513-0.931-1.064c0.051-0.771,0.417-1.484,1.032-2.011c0.704-0.604,1.673-0.9,2.653-0.815c0.981,0.084,1.883,0.544,2.474,1.26c0.514,0.624,0.752,1.39,0.67,2.158C31.929,8.501,31.496,8.882,30.991,8.882z"/><path d="M26.154,8.463c-0.023,0-0.047-0.001-0.071-0.002c-6.69-0.468-13.477-0.468-20.167,0c-0.56,0.027-1.029-0.377-1.067-0.928C4.811,6.982,5.226,6.504,5.777,6.465c6.784-0.475,13.662-0.475,20.446,0c0.551,0.039,0.966,0.517,0.928,1.067C27.114,8.06,26.675,8.463,26.154,8.463z"/></svg>