<svg xmlns="http://www.w3.org/2000/svg" viewBox="0 0 32 32"><!--! Font Icona - https://fonticona.com | License - https://fonticona.com/license | Copyright 2022 FontIcona.com --><path d="M11.872,32c-1.323,0-2.666-0.065-3.993-0.195c-0.512-0.05-0.902-0.48-0.902-0.995V1.342c0-0.495,0.363-0.916,0.853-0.989c1.745-0.26,3.526-0.379,5.303-0.349c6.044,0,9.52,2.78,9.52,7.629c0,3.09-1.592,5.451-4.389,6.793c4.359,1.279,6.761,4.161,6.761,8.325c0,5.781-4.5,9.233-12.036,9.233C12.618,31.995,12.246,32,11.872,32z M8.976,29.892c1.326,0.1,2.662,0.133,3.984,0.093c3.045,0,10.063-0.705,10.063-7.233c0-6.152-6.659-7.071-10.629-7.071H11.93c-0.552,0-1-0.447-1-1s0.448-1,1-1c5.543,0,8.722-2.204,8.722-6.047c0-4.652-4.098-5.629-7.536-5.629c-1.39-0.024-2.775,0.049-4.14,0.213V29.892z"/></svg>