<svg xmlns="http://www.w3.org/2000/svg" viewBox="0 0 32 32"><!--! Font Icona - https://fonticona.com | License - https://fonticona.com/license | Copyright 2022 FontIcona.com --><path d="M10.99,32c-0.152,0-0.307-0.035-0.45-0.107c-0.442-0.224-0.654-0.738-0.497-1.209l4.354-13.064H7.598c-0.355,0-0.684-0.188-0.863-0.495s-0.183-0.685-0.009-0.995l8.779-15.62c0.231-0.414,0.72-0.608,1.175-0.463c0.451,0.144,0.74,0.584,0.692,1.056l-1.018,9.885h8.048c0.373,0,0.716,0.208,0.888,0.54c0.172,0.332,0.145,0.731-0.07,1.037L11.809,31.576C11.615,31.85,11.307,32,10.99,32z M9.307,15.62h6.478c0.321,0,0.623,0.154,0.812,0.415c0.188,0.261,0.239,0.596,0.137,0.901l-2.646,7.942l8.388-11.891h-7.228c-0.283,0-0.553-0.12-0.742-0.33s-0.281-0.491-0.253-0.772l0.639-6.197L9.307,15.62z"/></svg>