<svg xmlns="http://www.w3.org/2000/svg" viewBox="0 0 32 32"><!--! Font Icona - https://fonticona.com | License - https://fonticona.com/license | Copyright 2022 FontIcona.com --><path d="M11.086,32C5.533,32,1.015,27.482,1.015,21.929c0-4.122,2.483-7.78,6.251-9.32v-2.384c0-0.552,0.448-1,1-1h5.64c0.552,0,1,0.448,1,1v2.384c3.769,1.54,6.252,5.198,6.252,9.32C21.158,27.482,16.64,32,11.086,32z M9.266,11.224v2.082c0,0.433-0.278,0.816-0.689,0.951c-3.327,1.087-5.562,4.171-5.562,7.672c0,4.45,3.621,8.071,8.072,8.071s8.072-3.621,8.072-8.071c0-3.501-2.235-6.585-5.562-7.672c-0.411-0.135-0.689-0.518-0.689-0.951v-2.082H9.266z"/><path d="M21.201,11.323c-0.805,0-1.84-0.281-3.012-1.251c-0.433-0.359-0.841-0.816-1.273-1.301c-0.764-0.856-1.718-1.924-2.379-1.748c-0.98,0.253-2.268,1.724-2.458,3.239c-0.069,0.549-0.582,0.93-1.117,0.868c-0.548-0.069-0.937-0.569-0.868-1.117c0.28-2.227,2.048-4.437,3.941-4.926c1.847-0.476,3.248,1.092,4.373,2.353c0.38,0.427,0.74,0.83,1.057,1.092c0.778,0.646,1.473,0.901,2.062,0.752c0.743-0.184,1.464-1.04,2.032-2.409c0.212-0.51,0.796-0.753,1.307-0.541c0.51,0.211,0.752,0.796,0.541,1.307c-1.047,2.527-2.426,3.344-3.398,3.585C21.775,11.283,21.504,11.323,21.201,11.323z"/><path d="M23.789,5.229c-0.35,0-0.689-0.184-0.873-0.51l-0.938-1.667c-0.271-0.481-0.1-1.091,0.381-1.362c0.48-0.272,1.091-0.1,1.362,0.381l0.938,1.667c0.271,0.481,0.1,1.091-0.381,1.362C24.124,5.188,23.955,5.229,23.789,5.229z"/><path d="M26.13,5.125c-0.159,0-0.32-0.038-0.47-0.118c-0.487-0.26-0.671-0.866-0.412-1.353l1.667-3.125c0.259-0.488,0.866-0.673,1.353-0.412c0.487,0.26,0.671,0.866,0.412,1.353l-1.667,3.125C26.834,4.933,26.488,5.125,26.13,5.125z"/><path d="M29.986,7.619c-0.065,0-0.131-0.006-0.197-0.02l-3.021-0.604c-0.542-0.108-0.893-0.635-0.785-1.176c0.108-0.542,0.636-0.893,1.176-0.785l3.021,0.604c0.542,0.108,0.893,0.635,0.785,1.176C30.871,7.29,30.454,7.619,29.986,7.619z"/></svg>