<svg xmlns="http://www.w3.org/2000/svg" viewBox="0 0 32 32"><!--! Font Icona - https://fonticona.com | License - https://fonticona.com/license | Copyright 2022 FontIcona.com --><path d="M9.056,31.999c-1.18,0-2.297-0.464-3.253-1.37c-0.875-0.829-1.36-1.848-1.449-3.034c-0.281-0.033-0.568-0.076-0.859-0.149c-1.898-0.473-3.328-2.191-3.48-4.176c-0.106-1.383,0.343-2.689,1.266-3.676c0.918-0.982,2.182-1.523,3.564-1.523c0.03,0,0.062,0.001,0.093,0c0.399,0,0.801-0.036,1.2-0.071l0.144-0.013c0.721-0.062,1.384-0.367,2.031-0.936c1.002-0.881,1.947-1.806,2.908-2.754c1.666-1.643,3.316-3.301,4.966-4.96c0.616-0.619,1.095-1.246,1.465-1.918c0.317-0.575,0.398-1.245,0.428-2.139l0.004-0.149c0.019-0.613,0.04-1.308,0.302-2.015c0.556-1.505,1.83-2.623,3.409-2.989c1.573-0.364,3.203,0.075,4.36,1.178c0.897,0.856,1.397,1.878,1.492,3.05c0.751,0.067,1.458,0.305,2.112,0.71c1.324,0.819,2.159,2.255,2.234,3.841c0.074,1.572-0.611,3.064-1.834,3.991c-0.963,0.73-2.059,1.067-3.254,1c-0.421-0.023-0.843-0.006-1.266-0.02c-0.685-0.013-1.332,0.208-1.957,0.703c-0.604,0.48-1.069,0.887-1.466,1.28c-2.127,2.105-4.245,4.219-6.348,6.345c-0.456,0.46-0.864,0.955-1.35,1.556c-0.477,0.588-0.681,1.31-0.643,2.272l0.013,0.284c0.021,0.413,0.042,0.841-0.003,1.293c-0.191,1.953-1.292,3.398-3.101,4.067C10.202,31.891,9.622,31.999,9.056,31.999z M6.356,26.82l-0.01,0.146c-0.052,0.906,0.22,1.63,0.834,2.212c0.867,0.823,1.818,1.026,2.912,0.623c1.097-0.406,1.688-1.188,1.805-2.388c0.03-0.305,0.013-0.642-0.004-0.998l-0.014-0.303c-0.058-1.457,0.298-2.639,1.088-3.611c0.503-0.622,0.963-1.18,1.482-1.703c2.107-2.131,4.23-4.25,6.362-6.359c0.448-0.445,0.966-0.897,1.629-1.424c0.997-0.792,2.108-1.162,3.267-1.137c0.438,0.015,0.872,0,1.309,0.022c0.72,0.04,1.356-0.156,1.938-0.597C29.66,10.767,30.04,9.927,29.997,9c-0.044-0.928-0.525-1.763-1.288-2.235c-0.585-0.362-1.218-0.494-1.946-0.402c-0.285,0.039-0.587-0.057-0.805-0.258c-0.217-0.201-0.334-0.487-0.319-0.783l0.008-0.16c0.092-1.004-0.186-1.756-0.87-2.41c-0.677-0.645-1.6-0.894-2.527-0.676c-0.921,0.213-1.664,0.861-1.985,1.734c-0.148,0.401-0.162,0.856-0.179,1.382l-0.005,0.153c-0.029,0.932-0.108,2.014-0.674,3.04c-0.462,0.837-1.051,1.61-1.799,2.362c-1.655,1.664-3.31,3.327-4.98,4.974c-0.943,0.931-1.951,1.916-2.993,2.832c-0.966,0.85-2.037,1.329-3.181,1.426l-0.14,0.013c-0.464,0.041-0.95,0.076-1.441,0.079c-0.868-0.001-1.588,0.309-2.128,0.888c-0.536,0.573-0.796,1.34-0.733,2.158c0.085,1.12,0.914,2.125,1.97,2.388c0.29,0.073,0.621,0.106,0.972,0.143c0.07,0.007,0.14,0.014,0.211,0.021c0.019-0.004,0.038-0.008,0.057-0.01c0.515-0.085,1.014,0.261,1.126,0.776C6.371,26.56,6.375,26.692,6.356,26.82z"/><path d="M13.367,14.577c-0.516,0-0.954-0.397-0.996-0.919c-0.044-0.551,0.366-1.033,0.916-1.077l3.163-0.255c0.548-0.051,1.032,0.366,1.078,0.916c0.044,0.551-0.366,1.033-0.917,1.077l-3.163,0.255C13.421,14.576,13.393,14.577,13.367,14.577z"/><path d="M16,17.407c-0.056,0-0.113-0.005-0.17-0.015c-0.544-0.094-0.91-0.611-0.816-1.155l0.531-3.084c0.093-0.544,0.608-0.914,1.155-0.816c0.544,0.094,0.91,0.611,0.816,1.155l-0.531,3.084C16.901,17.063,16.479,17.407,16,17.407z"/><path d="M20.246,17.406H16c-0.552,0-1-0.447-1-1c0-0.552,0.448-1,1-1h4.247c0.553,0,1,0.448,1,1C21.246,16.958,20.799,17.406,20.246,17.406z"/><path d="M13.368,9.139c-0.552,0-1-0.448-1-1v-3.75c0-0.552,0.448-1,1-1s1,0.448,1,1v3.75C14.368,8.691,13.92,9.139,13.368,9.139z"/><path d="M5.635,13.62c-0.52,0-0.959-0.402-0.997-0.929c-0.039-0.551,0.375-1.029,0.926-1.069l3.5-0.25c0.558-0.028,1.03,0.376,1.069,0.926c0.039,0.551-0.375,1.029-0.926,1.069l-3.5,0.25C5.683,13.619,5.659,13.62,5.635,13.62z"/><path d="M11.252,11.254c-0.256,0-0.512-0.098-0.707-0.293l-2.99-2.99c-0.391-0.391-0.391-1.024,0-1.414c0.391-0.391,1.023-0.391,1.414,0l2.99,2.99c0.391,0.391,0.391,1.024,0,1.414C11.764,11.156,11.508,11.254,11.252,11.254z"/></svg>