<svg xmlns="http://www.w3.org/2000/svg" viewBox="0 0 32 32"><!--! Font Icona - https://fonticona.com | License - https://fonticona.com/license | Copyright 2022 FontIcona.com --><path d="M23.011,20.2c-0.265,0-0.528-0.104-0.725-0.312c-0.381-0.4-0.364-1.033,0.036-1.413l2-1.901c0.361-0.345,0.923-0.368,1.313-0.056c0.121,0.097,0.275,0.106,0.402,0.033c0.098-0.138,0.066-0.334-0.008-0.427l-2.739-2.831c-0.112-0.112-0.237-0.122-0.373,0.013c-0.026,0.026-0.054,0.051-0.082,0.074c-0.022,0.032-0.028,0.189,0.056,0.295c0.339,0.423,0.277,1.04-0.137,1.389l-1.899,1.6c-0.376,0.316-0.925,0.313-1.295-0.005c-0.592-0.507-1.854-1.133-2.813-1.395c-0.435-0.119-0.736-0.514-0.736-0.965V5.2c0-0.489,0.354-0.906,0.835-0.986c0.696-0.116,1.125-0.651,1.068-1.331C17.867,2.42,17.305,2,16.711,2h-4.2c-0.954,0-1.498,0.33-1.616,0.979c-0.043,0.575,0.481,1.078,1.007,1.125c0.515,0.047,0.909,0.479,0.909,0.996v9.1c0,0.552-0.448,1-1,1s-1-0.448-1-1V5.869c-1.208-0.51-2.012-1.768-1.896-3.152C9.221,1.004,10.595,0,12.511,0h4.2c1.64,0,3.043,1.186,3.195,2.701c0.121,1.439-0.646,2.688-1.895,3.238v7.635c0.747,0.276,1.528,0.661,2.152,1.059l0.725-0.61c-0.189-0.789,0.039-1.644,0.654-2.166c0.888-0.849,2.301-0.838,3.176,0.037l2.812,2.912c0.799,0.991,0.723,2.367-0.112,3.202c-0.026,0.026-0.054,0.051-0.082,0.073c-0.623,0.498-1.421,0.638-2.142,0.425l-1.495,1.42C23.506,20.109,23.258,20.2,23.011,20.2z"/><path d="M8.81,32c-0.207,0-0.415-0.063-0.593-0.196C5.52,29.812,3.911,26.67,3.911,23.4c0-4.689,3.14-8.829,7.635-10.065c0.533-0.147,1.083,0.167,1.229,0.699s-0.167,1.083-0.699,1.229c-3.63,0.998-6.165,4.344-6.165,8.136c0,2.638,1.306,5.178,3.494,6.796c0.444,0.328,0.538,0.954,0.21,1.398C9.419,31.859,9.116,32,8.81,32z"/><path d="M19.935,32c-0.313,0-0.622-0.146-0.817-0.422c-0.318-0.45-0.212-1.075,0.238-1.395c2.192-1.553,3.555-4.191,3.555-6.884c0-1.369-0.268-2.598-0.794-3.652c-0.247-0.494-0.047-1.095,0.447-1.342c0.494-0.245,1.095-0.047,1.342,0.447c0.667,1.335,1.005,2.864,1.005,4.547c0,3.33-1.686,6.594-4.398,8.517C20.336,31.94,20.135,32,19.935,32z"/><path d="M19.934,32H8.811c-0.552,0-1-0.447-1-1s0.448-1,1-1h11.123c0.553,0,1,0.447,1,1S20.487,32,19.934,32z"/><path d="M18.842,23.683c-1.375,0-2.726-0.295-3.959-0.878l-1.086-0.494c-1.708-0.81-3.671-0.972-5.398-0.452l-3.03,0.808c-0.535,0.146-1.083-0.175-1.224-0.708c-0.142-0.534,0.175-1.082,0.708-1.224l3-0.8c2.166-0.651,4.651-0.449,6.786,0.562l1.085,0.493c1.627,0.769,3.588,0.896,5.398,0.352l2.291-0.668c0.536-0.156,1.086,0.15,1.24,0.68c0.154,0.53-0.149,1.086-0.68,1.24l-2.283,0.666C20.75,23.542,19.79,23.683,18.842,23.683z"/></svg>