<svg xmlns="http://www.w3.org/2000/svg" viewBox="0 0 32 32"><!--! Font Icona - https://fonticona.com | License - https://fonticona.com/license | Copyright 2022 FontIcona.com --><path d="M17.333,13.222c-0.129,0-0.259-0.025-0.383-0.076c-0.374-0.155-0.617-0.52-0.617-0.924V1c0-0.552,0.448-1,1-1s1,0.448,1,1v8.808l1.737-1.737c0.381-0.381,0.995-0.392,1.389-0.024l1.651,1.541V1c0-0.552,0.448-1,1-1s1,0.448,1,1v10.889c0,0.398-0.236,0.758-0.602,0.917c-0.364,0.158-0.789,0.086-1.081-0.186l-2.627-2.452l-2.761,2.761C17.849,13.121,17.594,13.222,17.333,13.222z"/><path d="M25.889,32H6.111c-1.654,0-3-1.346-3-3V3c0-1.654,1.346-3,3-3h19.777c1.654,0,3,1.346,3,3v26C28.889,30.654,27.543,32,25.889,32z M6.111,2c-0.551,0-1,0.449-1,1v26c0,0.551,0.449,1,1,1h19.777c0.551,0,1-0.449,1-1V3c0-0.551-0.449-1-1-1H6.111z"/></svg>