<svg xmlns="http://www.w3.org/2000/svg" viewBox="0 0 32 32"><!--! Font Icona - https://fonticona.com | License - https://fonticona.com/license | Copyright 2022 FontIcona.com --><path d="M16.002,28.524c-0.268,0-0.535-0.043-0.79-0.128L0.691,23.559c-0.524-0.173-0.81-0.738-0.637-1.263s0.736-0.811,1.263-0.638l4.339,1.43l10.19,3.412c0.101,0.033,0.211,0.033,0.312,0l13.847-4.615V6.593c0-0.553,0.448-1,1-1s1,0.447,1,1v16.016c0,0.432-0.277,0.814-0.687,0.949l-14.526,4.839C16.537,28.481,16.27,28.524,16.002,28.524z"/><path d="M1.004,23.608c-0.552,0-1-0.447-1-1V6.593c0-0.553,0.448-1,1-1s1,0.447,1,1v16.016C2.004,23.161,1.557,23.608,1.004,23.608z"/><path d="M16.001,24.651c-0.272,0-0.544-0.043-0.804-0.13L4.706,21.009C3.985,20.768,3.5,20.095,3.5,19.333V5.243c0-0.566,0.274-1.104,0.735-1.435C4.694,3.477,5.29,3.384,5.828,3.566l10.009,3.35c0.109,0.037,0.23,0.037,0.34,0l10.009-3.35c0.537-0.18,1.133-0.09,1.593,0.242c0.46,0.331,0.735,0.867,0.735,1.435v14.09c0,0.762-0.485,1.435-1.207,1.676l-10.5,3.513C16.546,24.608,16.274,24.651,16.001,24.651z M5.5,19.165l10.333,3.46c0.109,0.037,0.23,0.037,0.34,0l10.342-3.46v-13.6l-9.703,3.247c-0.52,0.174-1.09,0.174-1.608,0L5.5,5.565V19.165z"/><rect x="15.004" y="8.027" width="2" height="15.709"/></svg>