<svg xmlns="http://www.w3.org/2000/svg" viewBox="0 0 32 32"><!--! Font Icona - https://fonticona.com | License - https://fonticona.com/license | Copyright 2022 FontIcona.com --><path d="M8.734,26.636c-3.067,0-5.563-2.496-5.563-5.563s2.496-5.563,5.563-5.563s5.563,2.496,5.563,5.563S11.802,26.636,8.734,26.636z M8.734,17.509c-1.965,0-3.563,1.599-3.563,3.563s1.599,3.563,3.563,3.563s3.563-1.599,3.563-3.563S10.699,17.509,8.734,17.509z"/><path d="M23.282,26.636c-3.067,0-5.563-2.496-5.563-5.563s2.496-5.563,5.563-5.563s5.563,2.496,5.563,5.563S26.35,26.636,23.282,26.636z M23.282,17.509c-1.965,0-3.563,1.599-3.563,3.563s1.599,3.563,3.563,3.563s3.563-1.599,3.563-3.563S25.247,17.509,23.282,17.509z"/><path d="M29,30.123H3c-1.654,0-3-1.346-3-3V11.108c0-1.654,1.346-3,3-3h26c1.654,0,3,1.346,3,3v16.015C32,28.777,30.654,30.123,29,30.123z M3,10.108c-0.552,0-1,0.449-1,1v16.015c0,0.552,0.448,1,1,1h26c0.552,0,1-0.448,1-1V11.108c0-0.551-0.448-1-1-1H3z"/><path d="M25.193,9.933c-0.553,0-1-0.448-1-1V4.877c0-0.551-0.448-1-1-1H8.807c-0.552,0-1,0.449-1,1v4.056c0,0.552-0.447,1-1,1s-1-0.448-1-1V4.877c0-1.654,1.346-3,3-3h14.387c1.654,0,3,1.346,3,3v4.056C26.193,9.485,25.746,9.933,25.193,9.933z"/><path d="M31,14.08H1c-0.553,0-1-0.448-1-1s0.447-1,1-1h30c0.553,0,1,0.448,1,1S31.553,14.08,31,14.08z"/><circle cx="8.734" cy="21.072" r="1.25"/><circle cx="23.282" cy="21.072" r="1.25"/><path d="M13.298,8.846h-2.312c-0.553,0-1-0.448-1-1s0.447-1,1-1h2.312c0.553,0,1,0.448,1,1S13.851,8.846,13.298,8.846z"/><path d="M17.156,9.564h-2.312c-0.553,0-1-0.448-1-1s0.447-1,1-1h2.312c0.553,0,1,0.448,1,1S17.709,9.564,17.156,9.564z"/><path d="M21.031,8.846h-2.312c-0.553,0-1-0.448-1-1s0.447-1,1-1h2.312c0.553,0,1,0.448,1,1S21.584,8.846,21.031,8.846z"/></svg>