<svg xmlns="http://www.w3.org/2000/svg" viewBox="0 0 32 32"><!--! Font Icona - https://fonticona.com | License - https://fonticona.com/license | Copyright 2022 FontIcona.com --><path d="M11.202,24.862c-0.162,0-0.261-0.002-0.285-0.002c-6.865-0.253-10.279-3.014-10.421-3.131c-0.18-0.148-0.302-0.354-0.345-0.584c-0.023-0.122-0.549-3.012,1.256-4.7c1.238-1.158,3.161-1.408,5.716-0.742c0.083,0.021,0.162,0.054,0.236,0.095c0.14,0.076,3.552,1.869,6.903-1.432c0.451-0.796,3.17-5.69,3.487-8.548c0.037-0.327,0.232-0.616,0.523-0.771c0.291-0.156,0.64-0.157,0.933-0.005c1.475,0.768,5.855,2.481,8.359,1.205c0.231-0.118,0.568-0.393,0.618-0.609c0.011-0.049,0.026-0.097,0.044-0.144c0.162-0.409,0.635-1.364,1.534-1.402c0.26-0.018,0.902,0.054,1.318,0.892c0.111,0.225,0.134,0.483,0.064,0.725c-0.016,0.054-1.564,5.468-0.498,9.954c1.171,4.921,0.466,5.706,0.234,5.965c-0.637,0.742-3.217,1.3-7.656,1.642c-2.668,0.218-4.87,0.793-4.892,0.799C15.665,24.805,12.213,24.862,11.202,24.862z M2.071,20.401c0.908,0.601,3.87,2.274,8.899,2.46c0.021-0.001,4.019,0.056,6.839-0.725c0.108-0.028,2.408-0.63,5.256-0.862c2.444-0.188,5.36-0.601,6.217-0.952c0.043-0.399,0.05-1.532-0.583-4.197c-0.686-2.882-0.433-6-0.081-8.176c-0.079,0.046-0.136,0.074-0.16,0.087c-2.913,1.483-6.97,0.167-8.972-0.668c-0.873,3.461-3.435,7.9-3.558,8.112c-0.042,0.073-0.094,0.141-0.153,0.2c-3.495,3.542-7.514,2.842-9.271,1.929c-1.252-0.312-2.874-0.499-3.727,0.292C2.094,18.536,2.021,19.706,2.071,20.401z M29.448,20.238L29.448,20.238L29.448,20.238z"/><path d="M29.348,11.453c-0.062,0-0.125-0.006-0.188-0.018c-0.542-0.104-0.898-0.627-0.795-1.169c0.288-1.514,1.331-2.744,1.927-3.343c0.389-0.39,1.023-0.393,1.414-0.003c0.392,0.391,0.393,1.023,0.003,1.415c-0.435,0.436-1.191,1.315-1.379,2.304C30.238,11.119,29.818,11.453,29.348,11.453z"/><path d="M8.583,27.909c-0.91,0-1.825-0.066-2.745-0.229c-0.116-0.021-0.29-0.045-0.502-0.074c-2.619-0.371-4.141-0.753-4.686-1.71c-0.06-0.105-1.449-2.604,0.024-4.932c0.294-0.466,0.912-0.606,1.379-0.31c0.467,0.295,0.605,0.913,0.31,1.38c-0.825,1.303,0.016,2.856,0.024,2.872c0.142,0.104,0.869,0.385,3.228,0.719c0.242,0.034,0.44,0.062,0.571,0.086c2.591,0.46,5.301,0.023,7.922-0.396l0.919-0.146c2.975-0.465,5.834-0.477,9.562-0.043c1.631,0.189,3.352,0.35,5.01,0.1c0.241-0.611,0.513-1.858-0.575-3.052c-0.372-0.408-0.343-1.041,0.065-1.413c0.409-0.372,1.041-0.344,1.413,0.065c1.995,2.188,1.277,4.767,0.619,5.825c-0.146,0.234-0.381,0.397-0.652,0.452c-2.088,0.419-4.164,0.235-6.11,0.009c-3.539-0.411-6.237-0.401-9.023,0.033l-0.91,0.145C12.518,27.596,10.564,27.909,8.583,27.909z"/><circle cx="20.513" cy="9.862" r="1.25"/><circle cx="19.45" cy="13.226" r="1.25"/><circle cx="17.325" cy="16.713" r="1.25"/><path d="M20.44,11.052c-0.352-0.106-0.825-0.112-1.326-0.118c-0.942-0.012-2.009-0.025-2.911-0.704c-0.837-0.631-1.161-1.588-0.843-2.498c0.337-0.966,1.295-1.604,2.397-1.604c0.025,0,0.051,0.001,0.076,0.001l-0.053,2c-0.322-0.025-0.495,0.155-0.532,0.262c-0.028,0.08,0.07,0.175,0.158,0.241c0.378,0.285,1.036,0.293,1.732,0.302c0.618,0.008,1.256,0.016,1.88,0.204L20.44,11.052z"/><path d="M19.18,14.377c-0.4-0.112-0.92-0.118-1.471-0.125c-0.994-0.012-2.12-0.024-3.062-0.682c-0.809-0.565-1.137-1.448-0.856-2.305c0.351-1.068,1.626-1.819,2.875-1.818l-0.049,2c-0.496-0.054-0.845,0.278-0.915,0.416c0.015,0.008,0.043,0.034,0.09,0.067c0.436,0.304,1.167,0.312,1.94,0.321c0.657,0.008,1.335,0.016,1.989,0.199L19.18,14.377z"/><path d="M17.194,17.677c-0.176-0.031-0.454-0.055-0.788-0.086c-1.995-0.186-4.727-0.439-4.938-2.268c-0.097-0.84,0.306-1.608,1.076-2.055c0.999-0.578,2.424-0.558,3.246,0.05l-1.187,1.609c-0.069-0.045-0.384-0.122-0.76-0.038c-0.162,0.037-0.273,0.092-0.335,0.134c0.577,0.343,2.439,0.516,3.083,0.576c0.401,0.037,0.736,0.069,0.947,0.106L17.194,17.677z"/><rect x="3.605" y="23.309" width="2" height="2.822"/><rect x="7.755" y="23.861" width="2" height="2.502"/><rect x="22.729" y="23.11" width="2" height="2.953"/><rect x="25.983" y="22.313" width="2" height="3.817"/></svg>