<svg xmlns="http://www.w3.org/2000/svg" viewBox="0 0 32 32"><!--! Font Icona - https://fonticona.com | License - https://fonticona.com/license | Copyright 2022 FontIcona.com --><path d="M17.312,24.728h-7.198c-0.553,0-1-0.447-1-1V8.272c0-0.553,0.447-1,1-1h7.198c2.505,0,4.542,1.962,4.542,4.373c0,1.285-0.579,2.442-1.499,3.243c1.522,0.957,2.53,2.609,2.53,4.484C22.886,22.326,20.386,24.728,17.312,24.728z M11.114,22.728h6.198c1.971,0,3.573-1.505,3.573-3.355s-1.603-3.355-3.573-3.355c-0.553,0-1-0.447-1-1s0.447-1,1-1c1.401,0,2.542-1.064,2.542-2.372c0-1.309-1.141-2.373-2.542-2.373h-6.198V22.728z"/><path d="M17.312,16.017h-7.198c-0.553,0-1-0.447-1-1s0.447-1,1-1h7.198c0.553,0,1,0.447,1,1S17.865,16.017,17.312,16.017z"/><path d="M29,32H3c-1.654,0-3-1.346-3-3V3c0-1.654,1.346-3,3-3h26c1.654,0,3,1.346,3,3v26C32,30.654,30.654,32,29,32z M3,2C2.448,2,2,2.448,2,3v26c0,0.552,0.448,1,1,1h26c0.552,0,1-0.448,1-1V3c0-0.552-0.448-1-1-1H3z"/></svg>