<svg xmlns="http://www.w3.org/2000/svg" viewBox="0 0 32 32"><!--! Font Icona - https://fonticona.com | License - https://fonticona.com/license | Copyright 2022 FontIcona.com --><path d="M16.042,32c-0.027,0-0.057,0-0.084,0c-0.014,0-0.028,0-0.042,0h-0.012c-0.005,0-0.01,0-0.015,0c-3.105-0.016-5.283-1.08-6.302-3.083c-0.988-1.941-0.983-4.229-0.979-6.065c0.003-1.92,0.081-3.861,0.156-5.739l0.072-1.854c0.083-2.297,0.312-4.725,1.409-6.914c0.266-0.531,0.686-1.041,1.091-1.533c1.25-1.518,1.218-1.78,0.809-2.146c-0.412-0.367-0.448-1-0.08-1.412c0.367-0.412,1-0.446,1.412-0.08c1.987,1.772,0.307,3.813-0.597,4.909c-0.335,0.407-0.682,0.828-0.847,1.158c-0.875,1.744-1.112,3.696-1.199,6.09l-0.072,1.861c-0.074,1.859-0.151,3.781-0.154,5.663c-0.004,1.623-0.008,3.642,0.763,5.155c0.667,1.312,2.195,1.981,4.543,1.989h0.172c2.348-0.008,3.876-0.677,4.543-1.989c0.771-1.514,0.767-3.532,0.763-5.155c-0.003-1.882-0.08-3.804-0.154-5.663l-0.072-1.861c-0.087-2.394-0.324-4.346-1.198-6.09c-0.166-0.33-0.513-0.751-0.848-1.158c-0.903-1.096-2.584-3.137-0.597-4.909c0.412-0.366,1.044-0.332,1.412,0.08s0.332,1.045-0.08,1.412c-0.409,0.365-0.441,0.628,0.809,2.146c0.405,0.492,0.825,1.002,1.092,1.533c1.097,2.189,1.325,4.617,1.408,6.914l0.072,1.854c0.075,1.878,0.153,3.819,0.156,5.739c0.004,1.837,0.009,4.124-0.979,6.065C21.394,30.92,19.216,31.984,16.11,32c-0.005,0-0.01,0-0.015,0h-0.012C16.07,32,16.056,32,16.042,32z"/><path d="M18.517,5.076h-5.033c-1.321,0-2.396-1.107-2.396-2.469V2.47c0-1.361,1.074-2.47,2.396-2.47h5.033c1.321,0,2.396,1.108,2.396,2.47v0.138C20.912,3.969,19.838,5.076,18.517,5.076z M13.483,2c-0.215,0-0.396,0.215-0.396,0.47v0.138c0,0.254,0.181,0.469,0.396,0.469h5.033c0.215,0,0.396-0.215,0.396-0.469V2.47c0-0.255-0.181-0.47-0.396-0.47H13.483z"/><path d="M16,13.267c-1.61,0-4.01-0.215-5.472-0.819c-0.511-0.211-0.753-0.796-0.542-1.306c0.212-0.511,0.798-0.751,1.306-0.542c0.966,0.398,2.857,0.667,4.708,0.667c2.651,0,4.01-0.357,4.684-0.656c0.506-0.227,1.097,0.002,1.319,0.507c0.225,0.504-0.002,1.095-0.507,1.319C20.242,12.995,18.444,13.267,16,13.267z"/></svg>