<svg xmlns="http://www.w3.org/2000/svg" viewBox="0 0 32 32"><!--! Font Icona - https://fonticona.com | License - https://fonticona.com/license | Copyright 2022 FontIcona.com --><path d="M10.944,13.556c-0.552,0-1-0.448-1-1c0-1.953,0.996-3.616,2.664-4.45c0.396-0.198,0.447-0.458,0.447-0.661V2.333c0-0.552,0.448-1,1-1s1,0.448,1,1v5.111c0,1.063-0.566,1.956-1.553,2.45c-0.991,0.495-1.559,1.465-1.559,2.661C11.944,13.108,11.497,13.556,10.944,13.556z"/><path d="M21.056,13.556c-0.552,0-1-0.448-1-1c0-1.075-0.687-2.17-1.669-2.661c-0.987-0.494-1.553-1.387-1.553-2.45V2.333c0-0.552,0.448-1,1-1s1,0.448,1,1v5.111c0,0.204,0.051,0.463,0.447,0.661c1.66,0.83,2.775,2.618,2.775,4.45C22.056,13.108,21.608,13.556,21.056,13.556z"/><rect x="10.944" y="15" width="10" height="2"/><rect x="10.944" y="24" width="10" height="2"/><path d="M19.056,32h-6.111c-1.654,0-3-1.346-3-3V12.556c0-0.552,0.448-1,1-1s1,0.448,1,1V29c0,0.551,0.449,1,1,1h6.111c0.551,0,1-0.449,1-1V12.556c0-0.552,0.448-1,1-1s1,0.448,1,1V29C22.056,30.654,20.71,32,19.056,32z"/><path d="M18.833,3.222h-2V2h-1.778v1.222h-2V2c0-1.103,0.897-2,2-2h1.778c1.103,0,2,0.897,2,2V3.222z"/></svg>