<svg xmlns="http://www.w3.org/2000/svg" viewBox="0 0 32 32"><!--! Font Icona - https://fonticona.com | License - https://fonticona.com/license | Copyright 2022 FontIcona.com --><path d="M21.238,12.967c-0.027,0-0.055-0.001-0.083-0.003c-0.55-0.045-0.96-0.528-0.915-1.078c0.082-0.999-0.079-1.752-0.521-2.444c-1.231-1.925-3.078-2.873-4.708-3.71C13.013,4.706,10.946,3.645,10.946,1c0-0.552,0.447-1,1-1s1,0.448,1,1c0,1.36,1.021,1.948,2.979,2.953c1.763,0.905,3.956,2.031,5.479,4.41c0.676,1.055,0.947,2.261,0.831,3.686C22.191,12.571,21.754,12.967,21.238,12.967z"/><path d="M11.946,32.001c-0.553,0-1-0.447-1-1c0-2.646,2.066-3.706,4.065-4.732c1.629-0.837,3.476-1.785,4.706-3.709c0.45-0.703,0.61-1.471,0.519-2.488c-0.049-0.551,0.356-1.036,0.906-1.086c0.575-0.061,1.036,0.356,1.086,0.906c0.13,1.448-0.14,2.674-0.825,3.746c-1.522,2.378-3.716,3.505-5.479,4.41c-1.957,1.005-2.979,1.593-2.979,2.953C12.946,31.554,12.499,32.001,11.946,32.001z"/><path d="M11.946,13.019c-0.553,0-1-0.448-1-1V1c0-0.552,0.447-1,1-1s1,0.448,1,1v11.02C12.946,12.571,12.499,13.019,11.946,13.019z"/><path d="M11.946,32.001c-0.553,0-1-0.447-1-1v-11.02c0-0.553,0.447-1,1-1s1,0.447,1,1v11.02C12.946,31.554,12.499,32.001,11.946,32.001z"/><path d="M2.793,17c-0.34,0-0.671-0.173-0.858-0.485l-1.791-2.981c-0.186-0.309-0.19-0.694-0.013-1.008c0.177-0.313,0.51-0.507,0.87-0.507h5.746c0.347,0,0.668,0.179,0.851,0.474l1.263,2.039c0.29,0.469,0.146,1.086-0.324,1.376s-1.086,0.146-1.377-0.324L6.19,14.019H2.769l0.881,1.466c0.284,0.474,0.131,1.088-0.343,1.373C3.146,16.954,2.968,17,2.793,17z"/><path d="M24.996,19.98c-0.315,0-0.622-0.148-0.815-0.419c-0.285-0.4-0.237-0.948,0.112-1.293c0.828-0.817,0.786-2.207,0.785-2.221c-0.001-0.03-0.001-0.061,0-0.091c0.001-0.034,0.036-1.416-0.785-2.226c-0.35-0.345-0.397-0.893-0.112-1.293c0.286-0.398,0.819-0.534,1.259-0.314l6.004,2.981c0.341,0.169,0.556,0.516,0.556,0.896s-0.215,0.727-0.556,0.896l-6.004,2.98C25.298,19.946,25.146,19.98,24.996,19.98z M27.077,16c0.003,0.119,0.003,0.438-0.057,0.858L28.75,16l-1.729-0.859C27.08,15.562,27.08,15.881,27.077,16z"/><path d="M6.747,19.98H1.001c-0.36,0-0.693-0.194-0.87-0.508c-0.178-0.313-0.173-0.698,0.013-1.007l1.791-2.981c0.284-0.474,0.898-0.627,1.372-0.342c0.474,0.284,0.627,0.898,0.343,1.372L2.769,17.98H6.19l0.969-1.565c0.291-0.47,0.907-0.614,1.377-0.324c0.47,0.291,0.614,0.907,0.324,1.377l-1.263,2.038C7.415,19.802,7.094,19.98,6.747,19.98z"/><path d="M5.587,16.5H2.504c-0.276,0-0.5-0.224-0.5-0.5s0.224-0.5,0.5-0.5h3.083c0.276,0,0.5,0.224,0.5,0.5S5.863,16.5,5.587,16.5z"/><path d="M25.594,17H3.171c-0.553,0-1-0.448-1-1s0.447-1,1-1h22.423c0.553,0,1,0.448,1,1S26.146,17,25.594,17z"/></svg>