<svg xmlns="http://www.w3.org/2000/svg" viewBox="0 0 32 32"><!--! Font Icona - https://fonticona.com | License - https://fonticona.com/license | Copyright 2022 FontIcona.com --><path d="M18.81,32c-0.001,0-0.001,0-0.002,0l-2.81-0.001L13.191,32c0,0,0,0,0,0c-0.308,0-0.598-0.142-0.787-0.384c-3.641-4.648-4.53-9.986-2.441-14.646c0.363-0.812,0.877-1.599,1.375-2.359c0.666-1.018,1.354-2.07,1.569-3.052c0.246-1.124,0.039-2.168-0.201-3.377c-0.105-0.532-0.211-1.07-0.282-1.627c-0.306-2.367-0.028-4.061,0.848-5.176c0.62-0.788,1.5-1.25,2.617-1.374c0.072-0.008,0.146-0.008,0.219,0c1.117,0.123,1.997,0.585,2.616,1.373c1.168,1.484,1.045,3.666,0.851,5.178c-0.071,0.557-0.178,1.096-0.283,1.629c-0.239,1.208-0.446,2.252-0.201,3.375c0.215,0.981,0.904,2.032,1.57,3.048c0.499,0.761,1.015,1.549,1.379,2.364c2.089,4.657,1.2,9.996-2.441,14.644C19.407,31.858,19.117,32,18.81,32z M15.998,2.008c-0.515,0.076-0.893,0.275-1.154,0.607c-0.52,0.662-0.667,1.902-0.437,3.686c0.065,0.511,0.164,1.004,0.261,1.492c0.26,1.309,0.528,2.663,0.193,4.195c-0.294,1.341-1.085,2.55-1.849,3.719c-0.476,0.727-0.925,1.414-1.223,2.082C10.067,21.623,10.762,26.05,13.686,30l2.312-0.001c0,0,0,0,0,0L18.314,30c2.924-3.95,3.618-8.377,1.898-12.211c-0.3-0.67-0.75-1.357-1.227-2.084c-0.766-1.168-1.557-2.375-1.851-3.717c-0.335-1.53-0.067-2.883,0.192-4.191c0.097-0.488,0.196-0.982,0.261-1.494c0.229-1.786,0.083-3.026-0.438-3.688C16.89,2.283,16.512,2.084,15.998,2.008z"/><path d="M18.152,9.742h-4.321c-0.552,0-1-0.448-1-1s0.448-1,1-1h4.321c0.553,0,1,0.448,1,1S18.705,9.742,18.152,9.742z"/><path d="M18.023,12.773h-4.14c-0.552,0-1-0.448-1-1s0.448-1,1-1h4.14c0.553,0,1,0.448,1,1S18.576,12.773,18.023,12.773z"/></svg>