<svg xmlns="http://www.w3.org/2000/svg" viewBox="0 0 32 32"><!--! Font Icona - https://fonticona.com | License - https://fonticona.com/license | Copyright 2022 FontIcona.com --><path d="M26.472,19.712c-0.375,0-0.733-0.211-0.904-0.571c-0.237-0.499-0.024-1.096,0.475-1.332c0.192-0.092,0.355-0.155,0.502-0.213c0.288-0.111,0.34-0.132,0.516-0.332c0.048-0.055,0.086-0.104,0.116-0.146c-0.116-0.019-0.272-0.015-0.505-0.005c-0.431,0.021-0.957,0.042-1.531-0.197c-0.795-0.331-1.148-1.037-1.406-1.554c-0.297-0.592-0.326-0.594-0.496-0.575c-0.029,0.003-0.116,0.032-0.18,0.054c-0.3,0.104-0.802,0.273-1.415,0.029c-0.571-0.23-0.91-0.666-1.157-0.984c-0.103-0.131-0.198-0.255-0.276-0.32c-0.24-0.203-0.589-0.329-0.954-0.346c-0.141-0.008-0.281-0.002-0.422,0.001c-0.568,0.013-1.282,0.027-1.973-0.421c-0.797-0.518-1.158-0.465-1.383-0.364c-0.148,0.068-0.306,0.241-0.487,0.441c-0.224,0.246-0.502,0.552-0.889,0.784c-1.071,0.644-1.837,0.111-2.205-0.146c-0.129-0.09-0.23-0.16-0.324-0.188c-0.156-0.045-0.483-0.015-0.587,0.041c-0.154,0.086-0.439,0.389-0.493,0.523c-0.055,0.304-0.241,0.541-0.514,0.684c-0.273,0.143-0.592,0.13-0.871,0.002c-0.536-0.243-1.213-0.5-1.681-0.327c-0.145,0.054-0.249,0.178-0.471,0.469c-0.155,0.203-0.331,0.434-0.572,0.654c-0.289,0.264-0.643,0.472-0.984,0.672c-0.773,0.454-0.983,0.642-0.935,0.835c0.029,0.114,0.28,0.516,2.298,0.846c0.545,0.09,0.914,0.604,0.825,1.149c-0.091,0.545-0.605,0.911-1.149,0.825c-1.125-0.185-3.468-0.569-3.913-2.331c-0.429-1.704,1.061-2.578,1.861-3.049c0.253-0.148,0.514-0.302,0.647-0.424c0.13-0.118,0.229-0.257,0.331-0.391c0.28-0.368,0.665-0.872,1.367-1.132c0.812-0.298,1.629-0.188,2.352,0.047c0.295-0.356,0.65-0.646,0.928-0.8c0.582-0.324,1.46-0.41,2.134-0.21c0.401,0.12,0.687,0.318,0.895,0.464c0.021,0.015,0.042,0.03,0.062,0.045c0.149-0.104,0.271-0.237,0.407-0.389c0.274-0.301,0.615-0.676,1.136-0.914c1.487-0.68,2.856,0.213,3.306,0.506c0.164,0.107,0.431,0.104,0.838,0.098c0.186-0.003,0.374-0.008,0.557,0.001c0.81,0.037,1.574,0.326,2.153,0.815c0.237,0.201,0.411,0.424,0.564,0.621c0.08,0.103,0.193,0.248,0.271,0.317c0.026-0.009,0.052-0.019,0.078-0.027c0.154-0.053,0.366-0.125,0.621-0.151c1.574-0.159,2.168,1.03,2.488,1.671c0.118,0.235,0.279,0.558,0.387,0.603c0.154,0.063,0.356,0.059,0.675,0.045c0.504-0.021,1.202-0.053,1.895,0.409c0.438,0.292,0.714,0.723,0.778,1.212c0.056,0.42-0.02,1.081-0.693,1.848c-0.497,0.567-0.92,0.731-1.293,0.877c-0.108,0.042-0.229,0.088-0.37,0.155C26.761,19.681,26.615,19.712,26.472,19.712z"/><path d="M16.208,15.196c-0.124,0-0.25-0.022-0.372-0.071c-0.513-0.206-0.762-0.788-0.557-1.301l5.284-13.196c0.206-0.513,0.788-0.762,1.301-0.557c0.513,0.206,0.762,0.788,0.557,1.301l-5.284,13.196C16.979,14.959,16.604,15.196,16.208,15.196z"/><path d="M19.672,17.073c-0.233,0-0.468-0.081-0.657-0.246c-0.416-0.363-0.46-0.995-0.097-1.411l6.759-7.754c0.365-0.416,0.997-0.458,1.411-0.097c0.416,0.363,0.46,0.995,0.097,1.411l-6.759,7.754C20.228,16.957,19.95,17.073,19.672,17.073z"/><path d="M21.628,32H10.372c-0.146,0-0.291-0.032-0.424-0.095c-8.464-3.962-7.48-13.217-7.47-13.31c0.06-0.504,0.486-0.884,0.993-0.884h25.057c0.507,0,0.934,0.38,0.993,0.884c0.011,0.093,0.994,9.348-7.47,13.31C21.919,31.968,21.774,32,21.628,32z M10.599,30h10.803c5.55-2.718,6.155-8.158,6.167-10.288H4.424C4.42,21.845,4.992,27.258,10.599,30z"/></svg>