<svg xmlns="http://www.w3.org/2000/svg" viewBox="0 0 32 32"><!--! Font Icona - https://fonticona.com | License - https://fonticona.com/license | Copyright 2022 FontIcona.com --><path d="M16,32C7.178,32,0,24.822,0,16S7.178,0,16,0s16,7.178,16,16S24.822,32,16,32z M16,2C8.28,2,2,8.28,2,16s6.28,14,14,14s14-6.28,14-14S23.72,2,16,2z"/><path d="M12.586,12.999c-1.666,0-3.021-1.355-3.021-3.021s1.355-3.021,3.021-3.021s3.021,1.355,3.021,3.021S14.252,12.999,12.586,12.999z M12.586,8.957c-0.563,0-1.021,0.458-1.021,1.021s0.458,1.021,1.021,1.021c0.563,0,1.021-0.458,1.021-1.021S13.149,8.957,12.586,8.957z"/><path d="M19.192,18.938c-1.666,0-3.021-1.355-3.021-3.021c0-1.666,1.355-3.021,3.021-3.021s3.021,1.355,3.021,3.021C22.214,17.582,20.858,18.938,19.192,18.938z M19.192,14.896c-0.563,0-1.021,0.458-1.021,1.021c0,0.562,0.458,1.021,1.021,1.021c0.563,0,1.021-0.458,1.021-1.021C20.214,15.354,19.756,14.896,19.192,14.896z"/><path d="M21.214,10.978c-1.666,0-3.021-1.355-3.021-3.021s1.355-3.021,3.021-3.021s3.021,1.355,3.021,3.021S22.88,10.978,21.214,10.978z M21.214,6.936c-0.563,0-1.021,0.458-1.021,1.021s0.458,1.021,1.021,1.021c0.563,0,1.021-0.458,1.021-1.021S21.777,6.936,21.214,6.936z"/></svg>