<svg xmlns="http://www.w3.org/2000/svg" viewBox="0 0 32 32"><!--! Font Icona - https://fonticona.com | License - https://fonticona.com/license | Copyright 2022 FontIcona.com --><path d="M20.215,29.083h-7.529c-0.329,0-0.637-0.162-0.823-0.433s-0.229-0.615-0.111-0.923c0.172-0.452,0.178-0.824,0.02-1.139c-0.313-0.621-1.223-0.984-1.45-1.048c-0.039-0.011-0.078-0.024-0.115-0.04c-8.837-3.684-7.931-11.376-7.921-11.453c0.138-1.043,1.07-1.86,2.122-1.86h24.086c1.052,0,1.984,0.817,2.122,1.86c0.01,0.077,0.917,7.77-7.92,11.453c-0.046,0.02-0.093,0.035-0.141,0.047c-0.261,0.069-1.025,0.38-1.34,0.949c-0.191,0.347-0.206,0.768-0.044,1.289c0.094,0.304,0.039,0.634-0.15,0.89S20.533,29.083,20.215,29.083z M17.973,27.083h1.088c0.009-0.677,0.207-1.204,0.414-1.573c0.723-1.286,2.124-1.768,2.509-1.879c7.324-3.085,6.68-9.072,6.649-9.326c-0.005-0.043-0.09-0.117-0.138-0.117H4.408c-0.048,0-0.133,0.074-0.14,0.123c-0.03,0.248-0.675,6.24,6.66,9.324c0.38,0.118,1.931,0.671,2.629,2.054c0.171,0.34,0.328,0.81,0.328,1.395H17.973z"/><path d="M2.104,11.339c-0.52,0-0.958-0.401-0.997-0.928C1.067,9.86,1.481,9.382,2.032,9.342L30.927,7.24c0.552-0.042,1.03,0.374,1.07,0.925c0.04,0.551-0.374,1.029-0.925,1.069L2.177,11.336C2.152,11.338,2.128,11.339,2.104,11.339z"/><path d="M29.5,12.474c-0.084,0-0.171-0.011-0.257-0.033L0.744,4.884C0.21,4.742-0.108,4.194,0.033,3.661C0.175,3.128,0.721,2.81,1.256,2.95l28.499,7.557c0.534,0.142,0.852,0.689,0.71,1.223C30.347,12.178,29.942,12.474,29.5,12.474z"/><rect x="11.25" y="23.812" width="10.557" height="2"/></svg>