<svg xmlns="http://www.w3.org/2000/svg" viewBox="0 0 32 32"><!--! Font Icona - https://fonticona.com | License - https://fonticona.com/license | Copyright 2022 FontIcona.com --><path d="M9.249,32c-0.54,0-1.045-0.214-1.423-0.602L0.575,23.93c-0.765-0.784-0.765-2.062,0.001-2.848l6.858-7.061c0.238-0.245,0.511-0.817,0.551-1.155l0.004,0c0.013-0.101,0.038-0.287,0.09-0.631l0.404-4.313c0.459-2.688,1.685-4.92,3.462-6.36c1.524-1.236,3.8-1.337,5.377-0.355c2.866-1.447,5.296-1.58,8.014-0.469c3.555,1.455,6.212,4.821,6.612,8.377c0.387,3.445-1.531,7.332-5.132,10.399c-1.178,1.003-2.943,2.435-4.679,3.297c-2.008,0.998-3.421,1.065-3.576,1.07c-0.295,0.008-0.825,0.241-1.032,0.454l-6.857,7.061C10.294,31.786,9.789,32,9.249,32z M9.969,13.116c-0.095,0.764-0.567,1.749-1.101,2.298L2.01,22.476l7.25,7.528l6.836-7.063c0.576-0.592,1.589-1.036,2.409-1.06c0.003,0,1.126-0.058,2.744-0.861c1.538-0.764,3.175-2.095,4.271-3.028c2.389-2.035,4.808-5.376,4.44-8.653c-0.37-3.293-2.97-5.763-5.382-6.75c-2.026-0.828-3.741-0.797-5.856,0.163c0.174,0.378,0.256,0.773,0.246,1.183c-0.039,1.535-1.397,2.779-2.489,3.778c-0.198,0.181-0.39,0.356-0.565,0.526c-0.8,0.774-0.847,0.869-0.838,1.702c0.005,0.525,0.218,1.582,0.344,1.824c0.256,0.487,0.071,1.094-0.415,1.351c-0.487,0.256-1.088,0.078-1.348-0.407c-0.345-0.644-0.575-2.058-0.582-2.748c-0.016-1.577,0.429-2.174,1.448-3.16c0.188-0.182,0.394-0.37,0.605-0.564c0.769-0.704,1.822-1.668,1.84-2.353c0.002-0.082,0.008-0.329-0.37-0.712c-0.007-0.007-0.015-0.015-0.022-0.022c-0.021-0.018-0.042-0.038-0.062-0.058c-0.887-0.79-2.48-0.648-3.31,0.025c-1.4,1.134-2.373,2.934-2.741,5.069L9.969,13.116z"/><path d="M25.441,16.615c-3.902,0-7.276-4.705-9.445-7.731c-0.356-0.496-0.679-0.947-0.966-1.322l1.589-1.215c0.297,0.389,0.633,0.856,1.002,1.372c3.035,4.232,6.26,8.215,9.407,6.446c1.232-0.692,2.681-2.608,2.981-3.941l1.951,0.438c-0.429,1.91-2.203,4.263-3.954,5.247C27.133,16.4,26.275,16.615,25.441,16.615z"/><path d="M17.523,23.911c-0.316,0-0.628-0.149-0.822-0.429c-2.337-3.362-5.176-6.284-8.438-8.687c-0.444-0.328-0.54-0.954-0.212-1.398c0.329-0.444,0.953-0.539,1.398-0.212c3.438,2.533,6.43,5.612,8.893,9.154c0.315,0.454,0.203,1.077-0.25,1.393C17.918,23.853,17.72,23.911,17.523,23.911z"/><path d="M9.621,25.746c-0.008,0-0.015,0-0.022,0c-0.552-0.013-0.99-0.47-0.978-1.022l0.096-4.302c0.012-0.552,0.508-0.991,1.021-0.977c0.552,0.013,0.99,0.47,0.978,1.022l-0.096,4.302C10.609,25.313,10.163,25.746,9.621,25.746z"/><path d="M7.579,23.644c-0.541,0-0.987-0.433-0.999-0.977c-0.013-0.553,0.424-1.011,0.977-1.023l4.178-0.097c0.551-0.025,1.01,0.425,1.022,0.977c0.013,0.553-0.424,1.011-0.977,1.023l-4.178,0.097C7.595,23.644,7.587,23.644,7.579,23.644z"/></svg>