<svg xmlns="http://www.w3.org/2000/svg" viewBox="0 0 32 32"><!--! Font Icona - https://fonticona.com | License - https://fonticona.com/license | Copyright 2022 FontIcona.com --><path d="M23.429,26.103c-0.01,0-0.02,0-0.029,0c-2.456-0.022-5.083-1.229-7.407-2.439c-2.322,1.21-4.945,2.417-7.386,2.439c-0.01,0-0.02,0-0.029,0c-2.571,0-4.877-0.923-6.337-2.535c-2.057-2.29-3.147-6.193-1.258-9.229c1.465-2.354,4.808-2.638,7.222-2.165c3.533,0.661,6.201,2.839,7.787,4.503c1.585-1.663,4.256-3.84,7.813-4.505c2.406-0.471,5.748-0.187,7.213,2.167c1.89,3.035,0.799,6.939-1.255,9.227C28.299,25.18,25.992,26.103,23.429,26.103z M15.992,21.534c0.16,0,0.321,0.039,0.467,0.116c1.609,0.85,4.604,2.431,6.952,2.452c0.009,0,0.017,0,0.024,0c1.994,0,3.76-0.684,4.842-1.878c1.552-1.729,2.41-4.632,1.043-6.83c-0.869-1.395-3.206-1.639-5.14-1.259c-3.61,0.674-6.2,3.223-7.423,4.682c-0.381,0.453-1.153,0.453-1.532,0c-1.226-1.46-3.816-4.011-7.397-4.68C5.885,13.755,3.548,14,2.68,15.395c-1.368,2.199-0.51,5.103,1.046,6.834c1.078,1.19,2.845,1.874,4.845,1.874c0.009,0,0.017,0,0.024,0c2.15-0.02,4.705-1.276,6.93-2.452C15.671,21.573,15.832,21.534,15.992,21.534z"/><path d="M8.638,30c-1.345,0-2.608-0.218-3.677-0.636c-0.136-0.061-2.194-1.012-2.836-2.972c-0.367-1.12-0.209-2.302,0.471-3.511c0.271-0.48,0.88-0.653,1.362-0.382c0.481,0.271,0.652,0.881,0.382,1.362c-0.397,0.706-0.501,1.327-0.317,1.899c0.361,1.12,1.706,1.756,1.72,1.762c0.859,0.335,1.977,0.508,3.179,0.473c2.237-0.073,5.017-1.264,6.678-1.975c0.503-0.222,1.095,0.016,1.312,0.525c0.218,0.508-0.018,1.096-0.525,1.312c-2.315,0.992-4.988,2.058-7.405,2.136C8.866,29.999,8.752,30,8.638,30z"/><path d="M23.349,30c-0.112,0-0.226-0.001-0.34-0.004c-2.422-0.079-5.095-1.145-7.41-2.137c-0.508-0.217-0.743-0.805-0.525-1.312c0.217-0.509,0.809-0.745,1.312-0.525c1.661,0.711,4.44,1.901,6.683,1.976c1.207,0.027,2.315-0.139,3.226-0.495l0,0c-0.005,0,1.312-0.635,1.668-1.74c0.185-0.572,0.081-1.193-0.316-1.899c-0.271-0.481-0.1-1.091,0.382-1.362c0.482-0.271,1.092-0.099,1.362,0.382c0.68,1.209,0.838,2.39,0.471,3.511c-0.643,1.96-2.701,2.911-2.788,2.951C25.958,29.78,24.69,30,23.349,30z"/><path d="M5.352,14.011c-0.52,0-0.958-0.401-0.996-0.928C4.111,9.742,3.898,6.367,3.722,3.053C3.692,2.502,4.116,2.03,4.668,2.001C5.22,1.979,5.689,2.396,5.72,2.947c0.175,3.301,0.388,6.662,0.63,9.991c0.04,0.551-0.373,1.029-0.925,1.069C5.4,14.01,5.376,14.011,5.352,14.011z"/><path d="M27.188,14.093c-0.026,0-0.054-0.001-0.081-0.003c-0.551-0.045-0.961-0.526-0.917-1.077c0.271-3.36,0.507-6.72,0.705-9.986c0.033-0.551,0.519-0.953,1.059-0.938c0.551,0.033,0.971,0.507,0.938,1.059c-0.198,3.279-0.437,6.652-0.707,10.025C28.142,13.696,27.703,14.093,27.188,14.093z"/></svg>