<svg xmlns="http://www.w3.org/2000/svg" viewBox="0 0 32 32"><!--! Font Icona - https://fonticona.com | License - https://fonticona.com/license | Copyright 2022 FontIcona.com --><path d="M9.481,32c-2.294,0-4.734-1.28-5.234-3.705C3.92,26.678,4.23,25.137,4.53,23.646c0.254-1.267,0.495-2.464,0.319-3.594c-0.344-2.268-2.605-2.921-3.562-3.097c-0.475-0.087-0.819-0.501-0.819-0.983s0.345-0.896,0.819-0.983c0.956-0.176,3.217-0.824,3.562-3.04c0.176-1.132-0.064-2.329-0.319-3.596C4.23,6.863,3.92,5.322,4.247,3.709c0.564-2.755,3.627-4.034,6.147-3.64c0.545,0.086,0.918,0.598,0.833,1.143c-0.085,0.546-0.594,0.917-1.143,0.834C8.682,1.821,6.552,2.42,6.207,4.108C5.96,5.324,6.218,6.604,6.49,7.959c0.278,1.384,0.566,2.814,0.335,4.298c-0.244,1.57-1.148,2.862-2.537,3.719c1.392,0.867,2.295,2.178,2.538,3.772c0.23,1.479-0.057,2.909-0.335,4.293c-0.272,1.355-0.53,2.635-0.283,3.854c0.347,1.685,2.481,2.283,3.877,2.06c0.549-0.082,1.058,0.288,1.143,0.834c0.085,0.545-0.288,1.057-0.833,1.143C10.096,31.977,9.79,32,9.481,32z"/><path d="M17.376,22.646c-0.844,0-1.653-0.358-2.22-0.982l-4.57-5.03c-0.371-0.409-0.341-1.042,0.068-1.413c0.409-0.37,1.042-0.34,1.413,0.067l4.569,5.03c0.192,0.212,0.455,0.328,0.74,0.328c0,0,0.001,0,0.001,0c0.286-0.001,0.549-0.118,0.741-0.33L29.79,7.385c0.369-0.41,1.002-0.443,1.412-0.072c0.41,0.37,0.442,1.002,0.072,1.412L19.603,21.656c-0.566,0.628-1.376,0.988-2.221,0.99C17.379,22.646,17.377,22.646,17.376,22.646z"/></svg>