<svg xmlns="http://www.w3.org/2000/svg" viewBox="0 0 32 32"><!--! Font Icona - https://fonticona.com | License - https://fonticona.com/license | Copyright 2022 FontIcona.com --><path d="M16.616,22.435c-0.5,0-1.007-0.035-1.517-0.106c-0.901-0.125-1.816-0.23-2.735-0.337c-1.906-0.221-3.878-0.449-5.77-0.855c-1.706-0.366-5.702-1.225-6.464-5.051c-0.757-3.805,1.977-7.93,4.547-10.307c2.771-2.562,6.452-3.862,10.938-3.862c0.018,0,0.034,0,0.051,0c9.351,0.021,15.419,4.228,16.231,11.254c0.216,1.853,0.087,3.181-0.394,4.057c-0.167,0.305-0.394,0.58-0.673,0.818c-0.001,0.001-0.002,0.002-0.002,0.003c-1.137,0.961-2.881,1.082-4.155,1.17l-0.335,0.024c-1.47,0.113-2.946,0.644-4.155,1.492C20.596,21.85,18.659,22.435,16.616,22.435z M15.616,3.916c-3.967,0-7.19,1.12-9.581,3.331c-2.364,2.186-4.5,5.646-3.943,8.447c0.42,2.107,2.271,2.917,4.923,3.487c1.798,0.386,3.721,0.608,5.58,0.823c0.934,0.108,1.864,0.217,2.78,0.344c2.087,0.287,4.098-0.153,5.661-1.25c1.498-1.052,3.327-1.709,5.15-1.85l0.35-0.025c0.941-0.064,2.363-0.163,3-0.701c0.094-0.08,0.164-0.164,0.215-0.256c0.152-0.279,0.376-1.02,0.161-2.866c-0.988-8.533-10.294-9.476-14.249-9.484C15.647,3.916,15.632,3.916,15.616,3.916z M30.184,17.284h0.01H30.184z"/><path d="M22.502,30.084c-1.365,0-2.257-0.822-2.829-1.479c-0.199-0.229-0.386-0.489-0.574-0.754c-0.267-0.376-0.518-0.73-0.794-0.934c-0.303-0.222-0.723-0.365-1.168-0.517c-0.458-0.155-0.977-0.332-1.454-0.63c-1.995-1.238-2.119-2.614-2.275-4.356c-0.049-0.55,0.353-1.085,0.902-1.135c0.556-0.044,1.031,0.309,1.081,0.857l0.009,0.099c0.143,1.589,0.19,2.124,1.339,2.837c0.284,0.177,0.652,0.302,1.043,0.436c0.542,0.184,1.156,0.394,1.707,0.798c0.536,0.394,0.911,0.922,1.242,1.389c0.148,0.208,0.293,0.415,0.45,0.596c0.661,0.76,1.072,0.854,1.592,0.771c0.792-0.131,1.602-0.677,1.605-0.974c0.004-0.354,0.005-0.4-0.765-0.807l-0.286-0.153c-1.048-0.572-1.854-1.536-2.156-2.578c-0.598-2.06-0.602-2.828,0.494-4.703c0.278-0.475,0.89-0.638,1.368-0.358c0.477,0.278,0.637,0.891,0.358,1.368c-0.764,1.306-0.78,1.481-0.301,3.136c0.155,0.533,0.613,1.063,1.195,1.382l0.261,0.139c0.78,0.412,1.85,0.978,1.831,2.598c-0.021,1.74-2.022,2.717-3.279,2.924C22.89,30.068,22.691,30.084,22.502,30.084z"/><path d="M24.291,24.281c-1.17,0-2.243-0.373-3.039-1.075c-0.414-0.365-0.454-0.997-0.089-1.411c0.365-0.415,1-0.453,1.411-0.089c0.558,0.491,1.422,0.682,2.357,0.519c0.96-0.165,1.801-0.669,2.143-1.284c0.324-0.585,0.48-1.339,0.339-1.645c-0.017-0.038-0.049-0.108-0.269-0.153c-0.541-0.111-0.89-0.64-0.778-1.181c0.11-0.541,0.642-0.888,1.181-0.778c1.001,0.206,1.469,0.808,1.684,1.276c0.504,1.097,0.096,2.545-0.408,3.451c-0.634,1.142-1.995,2.017-3.551,2.285C24.939,24.253,24.611,24.281,24.291,24.281z"/><path d="M19.013,21.574c-0.026,0-0.052-0.001-0.078-0.003c-0.524-0.041-1.442-0.348-1.825-1.026c-0.529-0.939,0.033-2.076,0.301-2.521c0.282-0.475,0.897-0.628,1.371-0.344c0.474,0.283,0.628,0.897,0.344,1.371c-0.104,0.174-0.174,0.352-0.209,0.477c0.064,0.025,0.132,0.046,0.175,0.05c0.544,0.057,0.954,0.542,0.904,1.087C19.948,21.183,19.523,21.574,19.013,21.574z"/><path d="M13.305,22.073c-1.34,0-1.976-1.796-2.061-2.646c-0.185-1.851,0.446-3.058,1.985-3.798c0.498-0.238,1.096-0.03,1.335,0.468s0.029,1.096-0.468,1.335c-0.674,0.323-0.975,0.675-0.862,1.796c0.023,0.233,0.193,0.671,0.325,0.865c0.42,0.091,0.749,0.448,0.785,0.898c0.043,0.551-0.367,1.032-0.918,1.076C13.386,22.071,13.345,22.073,13.305,22.073z M13.618,20.165h0.01H13.618z"/><path d="M2.348,18.607c-0.13,0-0.263-0.025-0.39-0.079c-0.507-0.216-0.745-0.798-0.53-1.306c0.352-0.833,1.43-1.649,2.354-1.782c0.822-0.121,1.493,0.199,1.982,0.432c0.242,0.115,0.471,0.224,0.646,0.249c0.547,0.076,0.929,0.581,0.853,1.128c-0.075,0.547-0.579,0.933-1.128,0.853c-0.481-0.066-0.88-0.257-1.231-0.424c-0.378-0.18-0.611-0.29-0.837-0.258C3.814,17.456,3.35,17.816,3.27,18C3.106,18.379,2.736,18.607,2.348,18.607z"/><path d="M14.733,11.051c-0.47,0-0.888-0.332-0.98-0.81C13.647,9.7,14.002,9.175,14.544,9.07c0.244-0.047,0.57-1.11,0.443-1.937c-0.05-0.326-0.12-0.63-0.188-0.923C14.562,5.173,14.293,4,15.016,2.615c0.256-0.49,0.862-0.679,1.35-0.423c0.489,0.256,0.679,0.86,0.424,1.349c-0.365,0.698-0.265,1.242-0.04,2.221c0.078,0.34,0.158,0.693,0.215,1.068c0.229,1.49-0.261,3.857-2.039,4.202C14.86,11.045,14.797,11.051,14.733,11.051z"/><path d="M22.52,10.145c-0.528,0-0.97-0.414-0.998-0.947c-0.028-0.552,0.395-1.022,0.946-1.051l0.328-0.015c0.973-0.042,1.168-0.083,1.445-0.488c0.425-0.623,0.749-1.589,0.708-2.111c-0.043-0.55,0.368-1.032,0.919-1.075c0.545-0.035,1.032,0.368,1.075,0.919c0.09,1.144-0.481,2.561-1.05,3.394c-0.863,1.267-2.004,1.316-3.011,1.36l-0.31,0.014C22.556,10.145,22.537,10.145,22.52,10.145z"/><path d="M23.948,17.165c-0.399,0-0.776-0.241-0.931-0.636c-0.202-0.514,0.052-1.095,0.566-1.296c0.579-0.227,0.798-0.784,0.757-1.205c-0.029-0.286-0.18-0.648-0.734-0.746c-0.544-0.096-0.907-0.615-0.811-1.159c0.097-0.543,0.614-0.904,1.158-0.811c1.315,0.233,2.248,1.221,2.377,2.518c0.139,1.403-0.69,2.745-2.019,3.265C24.193,17.143,24.069,17.165,23.948,17.165z"/><path d="M5.215,13.23c-0.99,0-1.641-0.5-2.14-0.883c-0.362-0.278-0.599-0.452-0.896-0.503c-0.544-0.095-0.908-0.613-0.813-1.157C1.46,10.143,1.969,9.78,2.522,9.873c0.797,0.139,1.338,0.555,1.772,0.888c0.521,0.402,0.728,0.538,1.191,0.438c0.101-0.021,0.167-0.072,0.375-0.264c0.183-0.167,0.409-0.375,0.729-0.549c1.536-0.83,2.877-0.063,3.859,0.497c0.199,0.114,0.396,0.228,0.592,0.325c0.495,0.245,0.698,0.845,0.453,1.34c-0.245,0.494-0.844,0.699-1.34,0.452c-0.23-0.114-0.463-0.246-0.698-0.38c-0.943-0.541-1.412-0.747-1.913-0.475c-0.104,0.056-0.204,0.148-0.33,0.264c-0.28,0.256-0.663,0.607-1.31,0.746C5.657,13.208,5.429,13.23,5.215,13.23z"/><path d="M6.694,12.454c-0.189,0-0.382-0.054-0.552-0.167c-0.461-0.305-0.586-0.926-0.28-1.386c0.117-0.176,0.117-0.522,0.051-0.616c-0.318-0.451-0.211-1.075,0.24-1.394c0.453-0.318,1.075-0.21,1.395,0.24c0.632,0.896,0.462,2.15-0.02,2.876C7.336,12.297,7.019,12.454,6.694,12.454z"/><path d="M10.039,9.597c-0.238,0-0.478-0.084-0.668-0.256C8.96,8.972,8.926,8.34,9.295,7.929c0.501-0.558,0.737-1.212,0.646-1.796C9.863,5.624,9.545,5.202,8.997,4.879C8.521,4.599,8.363,3.986,8.644,3.51c0.28-0.477,0.894-0.635,1.369-0.354c1.06,0.624,1.736,1.573,1.905,2.671c0.183,1.179-0.231,2.432-1.135,3.438C10.586,9.485,10.312,9.597,10.039,9.597z"/><path d="M26.73,11.605c-0.258,0-0.516-0.099-0.712-0.297c-0.697-0.707-2.149-2.178-1.453-4.12c0.187-0.521,0.757-0.792,1.279-0.604c0.52,0.187,0.79,0.759,0.604,1.279c-0.203,0.567,0.048,1.082,0.994,2.04c0.388,0.393,0.384,1.026-0.01,1.414C27.238,11.509,26.984,11.605,26.73,11.605z"/><path d="M18.874,9.461c-0.315,0-0.625-0.148-0.819-0.426l-0.177-0.257c-0.275-0.406-0.298-0.439-0.634-0.568c-0.12-0.046-0.248-0.086-0.378-0.127c-0.511-0.161-1.146-0.362-1.618-0.884c-0.369-0.41-0.337-1.042,0.073-1.412s1.041-0.338,1.413,0.073c0.106,0.118,0.454,0.228,0.733,0.316c0.171,0.054,0.338,0.107,0.494,0.167c0.921,0.354,1.223,0.798,1.571,1.313l0.158,0.231c0.317,0.452,0.208,1.076-0.244,1.393C19.272,9.403,19.072,9.461,18.874,9.461z"/><path d="M21.14,7.258c-0.442,0-0.848-0.297-0.966-0.746c-0.29-1.101,0.755-1.623,1.148-1.82c0.102-0.051,0.206-0.096,0.285-0.155c0.086-0.063,0.104-0.077,0.08-0.503c-0.029-0.552,0.394-1.023,0.945-1.053c0.508-0.035,1.022,0.392,1.052,0.944c0.029,0.524,0.082,1.5-0.885,2.218c-0.165,0.122-0.373,0.233-0.583,0.338c-0.039,0.019-0.078,0.038-0.116,0.056c-0.095,0.325-0.354,0.594-0.705,0.687C21.311,7.247,21.225,7.258,21.14,7.258z"/><path d="M10.231,17.049c-1.19,0-1.908-0.706-2.543-1.329l-0.166-0.162c-0.396-0.384-0.406-1.018-0.021-1.414c0.386-0.397,1.019-0.406,1.414-0.021l0.175,0.171c0.45,0.442,0.697,0.664,0.958,0.732c0.003-0.023,0.007-0.049,0.009-0.078c0.04-0.551,0.528-0.96,1.069-0.925c0.551,0.04,0.965,0.519,0.925,1.07c-0.083,1.152-0.792,1.938-1.764,1.956C10.269,17.049,10.25,17.049,10.231,17.049z"/><path d="M20.402,15.856c-0.367,0-0.739-0.096-1.101-0.291c-1.397-0.753-2.346-2.875-2.199-4.131c0.064-0.548,0.561-0.942,1.108-0.877c0.549,0.064,0.942,0.56,0.878,1.109c-0.058,0.498,0.517,1.792,1.161,2.139c0.136,0.073,0.187,0.075,0.322-0.04c0.425-0.356,1.057-0.299,1.409,0.123c0.355,0.423,0.301,1.054-0.122,1.409C21.416,15.667,20.915,15.856,20.402,15.856z"/><path d="M16.25,17.072c-0.546,0-0.992-0.438-1-0.986c-0.008-0.552,0.434-1.006,0.985-1.014c0.648-0.009,1.45-0.227,1.584-1.208c0.075-0.547,0.579-0.934,1.127-0.855c0.547,0.075,0.93,0.579,0.855,1.126c-0.24,1.758-1.629,2.911-3.537,2.938C16.26,17.072,16.255,17.072,16.25,17.072z"/><path d="M12.096,8.731c-0.341,0-0.692-0.094-1.025-0.287c-0.876-0.505-1.321-1.519-1.059-2.41c0.155-0.529,0.71-0.833,1.241-0.676c0.521,0.153,0.822,0.692,0.685,1.213c0.017,0.042,0.067,0.098,0.116,0.131c0.39-0.323,0.969-0.313,1.34,0.044c0.395,0.381,0.414,1.004,0.035,1.402C13.063,8.533,12.591,8.731,12.096,8.731z"/><path d="M30.613,16.146c-0.159,0-0.32-0.038-0.47-0.118l-2.827-1.51c-0.486-0.26-0.671-0.866-0.41-1.353c0.26-0.487,0.868-0.671,1.353-0.411l2.827,1.51c0.486,0.26,0.671,0.866,0.41,1.353C31.316,15.954,30.971,16.146,30.613,16.146z"/></svg>