<svg xmlns="http://www.w3.org/2000/svg" viewBox="0 0 32 32"><!--! Font Icona - https://fonticona.com | License - https://fonticona.com/license | Copyright 2022 FontIcona.com --><path d="M19.873,32.003c-1.474,0-2.949-0.333-4.167-0.804c-2.021-0.773-2.364-1.33-3.011-2.625c-0.489-0.979-1.229-2.458-3.616-5.271c-0.965-1.012-0.965-2.663,0.038-3.718c1.092-1.061,2.719-1.066,3.752-0.1l0.448,0.283v-9.453c0.001-1.492,1.215-2.706,2.707-2.706c0.723,0,1.402,0.281,1.913,0.792c0.512,0.511,0.793,1.191,0.792,1.914v5.748c0.038-0.001,0.077-0.001,0.114-0.002c0.003,0,0.007,0,0.01,0c0.654,0,1.274,0.242,1.754,0.657c0.325-0.136,0.676-0.21,1.033-0.214c0.772,0.007,1.476,0.326,1.975,0.852c0.269-0.088,0.562-0.139,0.844-0.131c1.487,0,2.701,1.214,2.701,2.706c0,0.419,0.008,0.851,0.017,1.29c0.059,3.074,0.126,6.558-2.419,8.994c-0.25,0.223-0.473,0.408-0.707,0.581c-0.004,0.003-0.009,0.006-0.013,0.009C22.824,31.669,21.349,32.003,19.873,32.003z M11.042,20.766c-0.168,0-0.337,0.062-0.468,0.189c-0.277,0.291-0.277,0.731-0.009,1.012c2.582,3.041,3.418,4.714,3.918,5.714c0.498,0.997,0.562,1.125,1.94,1.652c1.864,0.721,4.666,1.11,6.444-0.152c0.184-0.136,0.358-0.282,0.533-0.437c1.884-1.804,1.828-4.692,1.774-7.485c-0.009-0.452-0.017-0.896-0.017-1.328c0-0.391-0.339-0.711-0.71-0.706c-0.178,0-0.347,0.069-0.469,0.19c-0.248,0.243-0.604,0.339-0.939,0.258c-0.336-0.083-0.606-0.333-0.713-0.664c-0.097-0.299-0.372-0.501-0.686-0.504c-0.185,0.002-0.385,0.09-0.526,0.24c-0.229,0.243-0.562,0.357-0.893,0.3c-0.329-0.055-0.609-0.271-0.747-0.575c-0.112-0.249-0.36-0.409-0.633-0.409c-0.002,0-0.004,0-0.007,0c-0.172,0-0.329,0.059-0.452,0.165c-0.296,0.256-0.714,0.317-1.071,0.154s-0.585-0.518-0.585-0.91v-7.156c0-0.189-0.073-0.366-0.207-0.5s-0.311-0.207-0.499-0.207c-0.389,0-0.707,0.317-0.707,0.706v11.267c0,0.364-0.198,0.7-0.517,0.876c-0.319,0.175-0.708,0.164-1.017-0.03l-2.071-1.308c-0.067-0.042-0.129-0.093-0.185-0.15C11.395,20.834,11.219,20.766,11.042,20.766z"/><circle cx="15.801" cy="5.652" r="1.001"/><circle cx="15.801" cy="1.01" r="1.001"/><circle cx="21.727" cy="8.41" r="1.001"/><circle cx="10.007" cy="8.41" r="1.001"/><circle cx="26.192" cy="5.652" r="1.001"/><circle cx="5.808" cy="5.652" r="1.001"/><circle cx="21.727" cy="3.602" r="1.001"/><circle cx="10.007" cy="3.602" r="1.001"/></svg>