<svg xmlns="http://www.w3.org/2000/svg" viewBox="0 0 32 32"><!--! Font Icona - https://fonticona.com | License - https://fonticona.com/license | Copyright 2022 FontIcona.com --><path d="M27.642,29.743H3.585c-1.158,0-2.199-0.477-2.856-1.307s-0.883-1.952-0.618-3.078l0.926-3.941c0.127-0.538,0.664-0.87,1.202-0.745c0.538,0.126,0.871,0.665,0.745,1.202l-0.926,3.941c-0.126,0.536-0.041,1.026,0.238,1.38c0.28,0.354,0.738,0.548,1.289,0.548h24.057c0.551,0,1.009-0.194,1.289-0.549c0.279-0.353,0.364-0.843,0.238-1.379l-1-4.258c-0.126-0.537,0.207-1.076,0.745-1.202c0.534-0.124,1.075,0.207,1.202,0.745l1,4.258c0.265,1.126,0.039,2.248-0.618,3.078S28.799,29.743,27.642,29.743z"/><path d="M2.011,22.646c-0.076,0-0.152-0.009-0.229-0.026c-0.538-0.126-0.871-0.665-0.745-1.202l1.415-6.026c0.681-2.896,3.445-5.251,6.162-5.251h14c2.718,0,5.481,2.355,6.161,5.251l1.342,5.71c0.126,0.537-0.207,1.075-0.745,1.202c-0.537,0.121-1.075-0.207-1.202-0.745l-1.342-5.71c-0.472-2.01-2.401-3.708-4.214-3.708h-14c-1.812,0-3.742,1.698-4.215,3.708l-1.415,6.026C2.875,22.335,2.464,22.646,2.011,22.646z"/><path d="M8.761,11.997c-0.095,0-0.192-0.014-0.288-0.042c-0.529-0.159-0.829-0.717-0.67-1.246c0.66-2.192,0.378-2.97-0.048-4.148C7.438,5.687,7.614,4.646,8.224,3.777c0.668-0.952,1.722-1.521,2.818-1.521h8.523c1.162,0,2.202,0.536,2.855,1.47c0.6,0.859,0.762,1.908,0.433,2.808c-0.426,1.161-0.707,1.927-0.075,4.086c0.155,0.53-0.149,1.086-0.679,1.241c-0.533,0.153-1.086-0.149-1.241-0.679c-0.816-2.792-0.363-4.027,0.117-5.337c0.102-0.277,0.025-0.659-0.194-0.974c-0.16-0.229-0.532-0.615-1.216-0.615h-8.523c-0.445,0-0.888,0.25-1.182,0.669c-0.229,0.326-0.316,0.7-0.225,0.955c0.479,1.326,0.933,2.578,0.083,5.404C9.588,11.718,9.191,11.997,8.761,11.997z"/><path d="M31,17.393h-3.018c-0.553,0-1-0.447-1-1s0.447-1,1-1H31c0.553,0,1,0.447,1,1S31.553,17.393,31,17.393z"/><path d="M23.723,26.163c-1.607,0-2.916-1.309-2.916-2.916s1.309-2.916,2.916-2.916s2.916,1.309,2.916,2.916S25.33,26.163,23.723,26.163z M23.723,22.331c-0.505,0-0.916,0.411-0.916,0.916s0.411,0.916,0.916,0.916s0.916-0.411,0.916-0.916S24.228,22.331,23.723,22.331z"/><path d="M8.591,21.104c-0.553,0-1-0.447-1-1V15.51c0-0.553,0.447-1,1-1s1,0.447,1,1v4.595C9.591,20.657,9.144,21.104,8.591,21.104z"/><path d="M11.656,21.104c-0.553,0-1-0.447-1-1V15.51c0-0.553,0.447-1,1-1s1,0.447,1,1v4.595C12.656,20.657,12.209,21.104,11.656,21.104z"/><path d="M14.722,21.104c-0.553,0-1-0.447-1-1V15.51c0-0.553,0.447-1,1-1s1,0.447,1,1v4.595C15.722,20.657,15.274,21.104,14.722,21.104z"/></svg>