<svg xmlns="http://www.w3.org/2000/svg" viewBox="0 0 32 32"><!--! Font Icona - https://fonticona.com | License - https://fonticona.com/license | Copyright 2022 FontIcona.com --><path d="M9.877,32.002c-0.876,0-2.781-0.155-4.181-1.341c-0.981-0.831-1.526-1.982-1.621-3.423c-0.003-0.146-0.148-9.348-2.876-14.028C0.04,11.22-0.3,8.892,0.269,6.823c0.505-1.841,1.666-3.311,3.357-4.25c3.504-1.947,7.985-2.387,12.307-2.572l0.043-0.002l0.092,0.002c4.321,0.186,8.803,0.625,12.307,2.572c1.691,0.939,2.853,2.409,3.357,4.25c0.568,2.068,0.229,4.396-0.931,6.387c-2.728,4.681-2.873,13.883-2.874,13.976c-0.097,1.493-0.642,2.645-1.623,3.476c-1.867,1.582-4.642,1.328-4.756,1.316l-11.194,0.005C10.349,31.985,10.171,32.001,9.877,32.002z M15.981,1.999C11.942,2.174,7.738,2.576,4.597,4.322c-1.21,0.673-2.04,1.721-2.399,3.031c-0.427,1.554-0.161,3.321,0.73,4.85c2.993,5.139,3.141,14.561,3.146,14.959c0.057,0.834,0.354,1.495,0.909,1.969c1.215,1.036,3.253,0.855,3.275,0.857l11.389-0.005c0.115,0.008,2.157,0.184,3.371-0.853c0.555-0.474,0.853-1.135,0.911-2.022c0.003-0.345,0.15-9.767,3.144-14.905c0.892-1.528,1.157-3.296,0.73-4.85c-0.359-1.311-1.189-2.358-2.399-3.031C24.262,2.576,20.058,2.174,15.981,1.999z"/><circle cx="10.208" cy="17.25" r="1.25"/><circle cx="17" cy="19.75" r="1.25"/><circle cx="22.494" cy="16" r="1.25"/><circle cx="24.994" cy="8.958" r="1.25"/><circle cx="16" cy="12.281" r="1.25"/><circle cx="16.417" cy="6.3" r="1.25"/><circle cx="20.975" cy="25.462" r="1.25"/><circle cx="11.458" cy="24.75" r="1.25"/><circle cx="8.958" cy="8.958" r="1.25"/></svg>