<svg xmlns="http://www.w3.org/2000/svg" viewBox="0 0 32 32"><!--! Font Icona - https://fonticona.com | License - https://fonticona.com/license | Copyright 2022 FontIcona.com --><path d="M15.531,23.653H0v-6.96h15.531V23.653z M2,21.653h11.531v-2.96H2V21.653z"/><path d="M32,23.653H17.149v-6.96H32V23.653z M19.149,21.653H30v-2.96H19.149V21.653z"/><path d="M15.531,6.96H0V0h15.531V6.96z M2,4.96h11.531V2H2V4.96z"/><path d="M32,6.96H17.149V0H32V6.96z M19.149,4.96H30V2H19.149V4.96z"/><path d="M7.591,32H0v-6.96h7.591V32z M2,30h3.591v-2.96H2V30z"/><path d="M32,32h-7.953v-6.96H32V32z M26.047,30H30v-2.96h-3.953V30z"/><path d="M22.572,32H9.246v-6.96h13.326V32z M11.246,30h9.326v-2.96h-9.326V30z"/><path d="M7.591,15.307H0v-6.96h7.591V15.307z M2,13.307h3.591v-2.96H2V13.307z"/><path d="M32,15.307h-7.953v-6.96H32V15.307z M26.047,13.307H30v-2.96h-3.953V13.307z"/><path d="M22.572,15.307H9.246v-6.96h13.326V15.307z M11.246,13.307h9.326v-2.96h-9.326V13.307z"/></svg>