<svg xmlns="http://www.w3.org/2000/svg" viewBox="0 0 32 32"><!--! Font Icona - https://fonticona.com | License - https://fonticona.com/license | Copyright 2022 FontIcona.com --><path d="M23.088,32c-0.402,0-0.781-0.245-0.934-0.643l-6.182-16.142L9.8,31.357c-0.197,0.516-0.778,0.774-1.291,0.577c-0.516-0.197-0.774-0.775-0.577-1.291l7.105-18.583c0.148-0.387,0.52-0.643,0.934-0.643c0.415,0,0.786,0.255,0.935,0.643l7.117,18.583c0.197,0.516-0.061,1.094-0.577,1.292C23.329,31.979,23.208,32,23.088,32z"/><path d="M28.002,32H3.941c-0.552,0-1-0.448-1-1s0.448-1,1-1h24.061c0.552,0,1,0.448,1,1S28.555,32,28.002,32z"/><path d="M16.107,12.853c-2.034,0-3.688-1.655-3.688-3.688s1.655-3.688,3.688-3.688s3.688,1.655,3.688,3.688S18.141,12.853,16.107,12.853z M16.107,7.476c-0.931,0-1.688,0.757-1.688,1.688s0.757,1.688,1.688,1.688s1.688-0.757,1.688-1.688S17.039,7.476,16.107,7.476z"/><path d="M18.965,21.63H13.25c-0.552,0-1-0.448-1-1s0.448-1,1-1h5.716c0.552,0,1,0.448,1,1S19.518,21.63,18.965,21.63z"/><path d="M21.157,27.097H10.742c-0.552,0-1-0.448-1-1s0.448-1,1-1h10.415c0.552,0,1,0.448,1,1S21.709,27.097,21.157,27.097z"/><path d="M27.861,9.786h-5.222c-0.552,0-1-0.448-1-1s0.448-1,1-1h5.222c0.552,0,1,0.448,1,1S28.413,9.786,27.861,9.786z"/><path d="M26.958,16.27c-0.193,0-0.389-0.056-0.561-0.173l-4.32-2.934c-0.457-0.31-0.576-0.932-0.265-1.389c0.311-0.456,0.932-0.576,1.389-0.265l4.32,2.934c0.457,0.31,0.576,0.932,0.265,1.389C27.592,16.116,27.278,16.27,26.958,16.27z"/><path d="M22.638,6.476c-0.241,0-0.483-0.087-0.675-0.263C21.556,5.84,21.528,5.207,21.901,4.8l3.528-3.85c0.373-0.406,1.004-0.435,1.413-0.062c0.407,0.373,0.435,1.006,0.062,1.413l-3.528,3.85C23.179,6.366,22.909,6.476,22.638,6.476z"/><path d="M9.742,9.786L9.742,9.786l-5.222,0c-0.552,0-1-0.448-1-1s0.448-1,1-1l0,0l5.222,0c0.552,0,1,0.448,1,1S10.294,9.786,9.742,9.786z"/><path d="M5.423,16.27c-0.32,0-0.635-0.153-0.828-0.438c-0.311-0.457-0.191-1.079,0.265-1.389l4.32-2.934c0.458-0.31,1.079-0.191,1.389,0.265c0.311,0.457,0.191,1.079-0.265,1.389l-4.32,2.934C5.812,16.214,5.616,16.27,5.423,16.27z"/><path d="M9.742,6.476c-0.271,0-0.541-0.109-0.738-0.324l-3.528-3.85c-0.373-0.407-0.346-1.04,0.062-1.413C5.946,0.515,6.579,0.544,6.951,0.95l3.528,3.85c0.373,0.407,0.346,1.04-0.062,1.413C10.225,6.389,9.983,6.476,9.742,6.476z"/></svg>