<svg xmlns="http://www.w3.org/2000/svg" viewBox="0 0 32 32"><!--! Font Icona - https://fonticona.com | License - https://fonticona.com/license | Copyright 2022 FontIcona.com --><path d="M15.942,32c-0.118,0-0.236-0.021-0.35-0.062c0,0-1.238-0.463-1.311-0.494c-1.154-0.5-2.241-1.059-3.229-1.661c-2.332-1.421-4.486-3.246-6.23-5.277C2.268,21.53,0.655,18.752,0.03,16.25c-0.08-0.317,0.002-0.654,0.217-0.9c0.216-0.246,0.538-0.371,0.864-0.336c3.224,0.361,6.161-0.268,9.531-2.039c2.364-1.239,5.902-3.097,8.66-0.332c2.754,2.763,0.903,6.31-0.321,8.656c-1.776,3.404-2.403,6.355-2.044,9.591c0.038,0.346-0.105,0.686-0.379,0.899C16.378,31.928,16.161,32,15.942,32z M2.405,17.108c0.732,1.856,2.05,3.9,3.935,6.095c1.609,1.874,3.599,3.56,5.754,4.873c0.842,0.513,1.765,0.993,2.747,1.429c-0.064-3.038,0.687-5.909,2.354-9.107c1.416-2.713,2.286-4.741,0.69-6.342h0c-1.592-1.6-3.612-0.727-6.29,0.679C8.355,16.435,5.472,17.191,2.405,17.108z"/><path d="M5.613,22.605c-0.672,0-1.383-0.104-2.115-0.337c-0.526-0.167-0.817-0.729-0.65-1.256c0.167-0.526,0.732-0.817,1.256-0.65c2.184,0.69,4.027-0.183,4.651-1.359c0.257-0.487,0.862-0.675,1.352-0.416c0.488,0.258,0.674,0.863,0.416,1.352C9.749,21.401,7.899,22.605,5.613,22.605z"/><path d="M8.934,27.713c-0.526,0-0.967-0.411-0.998-0.943c-0.031-0.552,0.391-1.023,0.942-1.055c2.328-0.133,4.139-2.242,4.545-4.206c0.111-0.54,0.641-0.886,1.182-0.777c0.541,0.112,0.889,0.641,0.777,1.182c-0.551,2.667-2.979,5.604-6.391,5.798C8.973,27.712,8.953,27.713,8.934,27.713z"/><path d="M18.401,21.172c-0.256,0-0.513-0.098-0.708-0.294c-0.319-0.32-0.455-0.562-0.575-0.8c-0.062-0.123-0.085-0.169-0.206-0.29c-0.122-0.122-0.167-0.145-0.289-0.207c-0.239-0.12-0.479-0.256-0.8-0.577c-0.319-0.319-0.455-0.561-0.575-0.8c-0.062-0.123-0.085-0.169-0.206-0.289c-0.121-0.121-0.167-0.145-0.288-0.206c-0.238-0.121-0.479-0.257-0.799-0.577c-0.319-0.319-0.455-0.561-0.575-0.8c-0.062-0.122-0.085-0.169-0.207-0.29c-0.12-0.12-0.166-0.143-0.287-0.204c-0.239-0.121-0.479-0.256-0.8-0.577c-0.32-0.32-0.455-0.562-0.576-0.801c-0.062-0.122-0.085-0.168-0.206-0.289c-0.39-0.391-0.389-1.023,0.001-1.414c0.392-0.39,1.025-0.39,1.415,0.002c0.319,0.32,0.454,0.561,0.575,0.8c0.062,0.123,0.085,0.169,0.206,0.289c0.121,0.121,0.166,0.144,0.287,0.205c0.239,0.121,0.479,0.256,0.8,0.577c0.319,0.32,0.455,0.562,0.575,0.8c0.062,0.122,0.085,0.168,0.206,0.289s0.167,0.145,0.288,0.206c0.238,0.121,0.479,0.257,0.799,0.577c0.319,0.319,0.455,0.561,0.575,0.8c0.062,0.123,0.085,0.169,0.206,0.289c0.121,0.122,0.167,0.145,0.289,0.207c0.239,0.12,0.479,0.256,0.8,0.577c0.32,0.319,0.455,0.562,0.576,0.801c0.062,0.123,0.085,0.169,0.206,0.29c0.39,0.392,0.389,1.024-0.002,1.414C18.912,21.075,18.656,21.172,18.401,21.172z"/><path d="M20.579,15.236l-1.417-1.412L29.916,3.033c0.146-0.146,0.106-0.513-0.165-0.784C29.596,2.093,29.396,2,29.214,2l0,0c-0.102,0-0.181,0.027-0.235,0.082L18.224,12.873l-1.417-1.412L27.562,0.67C27.994,0.238,28.58,0,29.214,0c0,0,0,0,0.001,0c0.712,0,1.424,0.305,1.953,0.836c1.037,1.041,1.111,2.659,0.165,3.608L20.579,15.236z"/></svg>