<svg xmlns="http://www.w3.org/2000/svg" viewBox="0 0 32 32"><!--! Font Icona - https://fonticona.com | License - https://fonticona.com/license | Copyright 2022 FontIcona.com --><circle cx="27.329" cy="7.309" r="1.25"/><circle cx="23.604" cy="7.309" r="1.25"/><circle cx="19.879" cy="7.309" r="1.25"/><path d="M29,29H3c-1.654,0-3-1.346-3-3V6c0-1.654,1.346-3,3-3h26c1.654,0,3,1.346,3,3v20C32,27.654,30.654,29,29,29z M3,5C2.448,5,2,5.449,2,6v20c0,0.551,0.448,1,1,1h26c0.552,0,1-0.449,1-1V6c0-0.551-0.448-1-1-1H3z"/><rect x="1" y="9.541" width="30" height="2"/></svg>