<svg xmlns="http://www.w3.org/2000/svg" viewBox="0 0 32 32"><!--! Font Icona - https://fonticona.com | License - https://fonticona.com/license | Copyright 2022 FontIcona.com --><path d="M22.209,31.986h-1.707c-0.315,0-0.611-0.148-0.8-0.4l-0.45-0.6l-0.142,0.364c-0.15,0.384-0.52,0.636-0.932,0.636h-3.507c-0.41,0-0.77-0.249-0.923-0.615c-0.154,0.37-0.517,0.615-0.923,0.615H9.764c-0.552,0-1-0.448-1-1V17.318c0-0.529,0.413-0.966,0.941-0.998c0.645-0.04,2.632-0.359,3.274-1.28c0.143-0.205,0.309-0.555,0.106-1.23c-0.13-0.454-3.048-10.877,2.391-13.71c0.287-0.151,0.631-0.151,0.919-0.002c5.461,2.808,2.59,13.253,2.465,13.696c-0.2,0.665-0.04,1,0.097,1.197c0.64,0.916,2.653,1.231,3.308,1.27c0.529,0.031,0.943,0.469,0.943,0.999v13.728C23.209,31.539,22.761,31.986,22.209,31.986z M21.002,29.986h0.207v-11.84c-1.134-0.19-2.966-0.693-3.887-2.005c-0.401-0.572-0.792-1.54-0.381-2.906c0.685-2.439,1.76-8.959-0.999-11.067c-2.743,2.12-1.637,8.629-0.937,11.08c0.414,1.379,0.017,2.362-0.389,2.942c-0.919,1.312-2.729,1.82-3.852,2.013v11.784h1.344l0.943-2.777c0.146-0.429,0.561-0.703,1.014-0.676c0.452,0.03,0.828,0.361,0.914,0.807l0.516,2.647h2l0.548-1.402c0.132-0.338,0.437-0.578,0.797-0.627c0.358-0.054,0.717,0.101,0.935,0.391L21.002,29.986z"/><path d="M22.104,21.798H9.764c-0.552,0-1-0.448-1-1s0.448-1,1-1h12.34c0.552,0,1,0.448,1,1S22.656,21.798,22.104,21.798z"/></svg>