<svg xmlns="http://www.w3.org/2000/svg" viewBox="0 0 32 32"><!--! Font Icona - https://fonticona.com | License - https://fonticona.com/license | Copyright 2022 FontIcona.com --><path d="M15.266,8.883c-5.643,0-15.191-0.936-15.191-4.441S9.623,0,15.266,0s15.191,0.936,15.191,4.441S20.908,8.883,15.266,8.883z M15.266,2C7.194,2,2.385,3.612,2.069,4.477c0.315,0.794,5.125,2.406,13.196,2.406c7.962,0,12.75-1.569,13.181-2.441C28.016,3.569,23.228,2,15.266,2z"/><path d="M15.243,31.971c-4.133,0-8.258-1.136-10.894-3.407c-0.186-0.16-0.306-0.382-0.339-0.624C2.803,18.96,1.593,11.852,0.465,5.508C0.368,4.964,0.73,4.445,1.274,4.349c0.542-0.097,1.063,0.267,1.159,0.81C3.55,11.432,4.745,18.451,5.94,27.283c4.576,3.609,14.018,3.607,18.65-0.003c1.195-8.82,2.391-15.844,3.507-22.122c0.096-0.543,0.615-0.909,1.159-0.81c0.544,0.097,0.906,0.615,0.81,1.159c-1.128,6.35-2.339,13.462-3.546,22.432c-0.033,0.244-0.155,0.468-0.343,0.628C23.51,30.837,19.372,31.971,15.243,31.971z"/><path d="M24.048,25.062c-0.084,0-0.169-0.001-0.254-0.003c-3.497-0.085-7.317-1.977-10.22-5.061c-1.17-1.244-2.142-2.613-2.887-4.07c-0.251-0.491-0.057-1.094,0.436-1.346c0.489-0.251,1.093-0.058,1.346,0.436c0.659,1.288,1.521,2.503,2.562,3.609c2.543,2.703,5.838,4.36,8.812,4.433c1.779,0.046,3.344-0.5,4.456-1.571c2.415-2.329,2.099-7.366-0.737-11.717C27.26,9.31,27.391,8.69,27.854,8.389c0.46-0.301,1.083-0.171,1.384,0.292c3.404,5.224,3.594,11.216,0.45,14.248C28.236,24.328,26.29,25.062,24.048,25.062z"/><path d="M15.307,12.58c-4.539,0-9.092-0.605-13.348-1.815c-0.531-0.151-0.84-0.704-0.688-1.235c0.15-0.531,0.702-0.844,1.235-0.688c8.163,2.322,17.463,2.321,25.517,0.001c0.537-0.153,1.086,0.155,1.238,0.684c0.153,0.531-0.153,1.085-0.684,1.238C24.374,11.975,19.848,12.58,15.307,12.58z"/><path d="M9.642,16.693c-0.237,0-0.476-0.084-0.666-0.254c-0.412-0.368-0.447-1-0.08-1.412c1.258-1.407,3.21-1.886,4.975-1.215c0.517,0.195,0.776,0.772,0.58,1.289c-0.195,0.517-0.776,0.779-1.289,0.58c-0.984-0.371-2.072-0.108-2.773,0.678C10.189,16.581,9.916,16.693,9.642,16.693z"/></svg>