<svg xmlns="http://www.w3.org/2000/svg" viewBox="0 0 32 32"><!--! Font Icona - https://fonticona.com | License - https://fonticona.com/license | Copyright 2022 FontIcona.com --><path d="M16,32C7.178,32,0,24.822,0,16S7.178,0,16,0s16,7.178,16,16S24.822,32,16,32z M16,2C8.28,2,2,8.28,2,16s6.28,14,14,14s14-6.28,14-14S23.72,2,16,2z"/><path d="M23.146,27.933c-0.019,0-0.036,0-0.055-0.001c-0.551-0.03-0.975-0.501-0.945-1.053c0.165-3.071-1.646-5.873-4.459-7.006l-3.021,2.953c-0.387,0.378-1.003,0.38-1.391,0.007l-3.052-2.924c-1.108,0.431-3.791,1.931-4.17,6.431c-0.046,0.55-0.529,0.968-1.081,0.912c-0.55-0.046-0.959-0.53-0.913-1.08c0.6-7.104,5.993-8.323,6.223-8.372c0.321-0.068,0.66,0.027,0.898,0.257l2.779,2.663l2.774-2.713c0.263-0.258,0.642-0.349,0.997-0.24c3.999,1.246,6.636,5.037,6.412,9.22C24.114,27.52,23.673,27.933,23.146,27.933z"/><path d="M13.856,18.589c-3.143,0-5.7-2.557-5.7-5.7s2.557-5.7,5.7-5.7s5.7,2.557,5.7,5.7S16.999,18.589,13.856,18.589z M13.856,9.189c-2.041,0-3.7,1.66-3.7,3.7c0,2.04,1.66,3.7,3.7,3.7c2.04,0,3.7-1.66,3.7-3.7C17.556,10.849,15.896,9.189,13.856,9.189z"/><rect x="13.372" y="18.1" transform="matrix(0.007 -1 1 0.007 -12.5991 41.0561)" width="2" height="17.544"/><path d="M17.634,17.022c-0.345,0-0.688-0.055-1.015-0.163l0.629-1.898c0.18,0.059,0.374,0.075,0.561,0.049l0.149-0.011c0.003,0,0.006,0,0.01,0c1.141,0,2.237-0.539,2.934-1.443c1.243-1.616,0.94-3.944-0.677-5.188c-0.782-0.602-1.749-0.865-2.733-0.737c-0.98,0.127-1.852,0.629-2.455,1.412l-1.585-1.22c0.929-1.207,2.271-1.979,3.781-2.176c1.511-0.195,3.007,0.207,4.213,1.135c2.49,1.917,2.957,5.502,1.041,7.993c-1.062,1.378-2.726,2.205-4.462,2.223C17.895,17.015,17.764,17.022,17.634,17.022z"/><path d="M26.656,24.565h-4.047c-0.553,0-1-0.447-1-1s0.447-1,1-1h2.851c-0.428-1.288-1.576-3.117-3.668-3.99l-1.763,1.724c-0.394,0.387-1.028,0.379-1.414-0.016c-0.387-0.396-0.379-1.028,0.016-1.414l2.212-2.163c0.262-0.257,0.646-0.351,0.996-0.239c4.111,1.28,5.817,5.254,5.817,7.098C27.656,24.118,27.209,24.565,26.656,24.565z"/></svg>