<svg xmlns="http://www.w3.org/2000/svg" viewBox="0 0 32 32"><!--! Font Icona - https://fonticona.com | License - https://fonticona.com/license | Copyright 2022 FontIcona.com --><path d="M16,15.56c-0.464,0-0.928-0.09-1.306-0.269L1.553,9.098C0.708,8.7,0.617,8.043,0.617,7.779s0.091-0.921,0.936-1.318l13.142-6.194c0.757-0.357,1.854-0.357,2.61,0l13.143,6.194c0.845,0.397,0.936,1.055,0.936,1.318S31.292,8.7,30.447,9.098l-13.142,6.193C16.927,15.47,16.463,15.56,16,15.56z M3.446,7.779l12.101,5.703c0.211,0.1,0.692,0.1,0.904,0h0.001l12.101-5.703L16.453,2.075c-0.211-0.1-0.694-0.1-0.906,0L3.446,7.779z"/><path d="M16,23.802c-0.463,0-0.927-0.089-1.305-0.268L1.553,17.34c-0.845-0.397-0.936-1.055-0.936-1.318s0.091-0.921,0.936-1.318l1.906-0.69c0.52-0.188,1.092,0.083,1.279,0.604c0.187,0.52-0.083,1.092-0.603,1.279L3.592,16.09l11.955,5.636c0.211,0.1,0.694,0.1,0.906,0c0.5-0.236,1.095-0.021,1.331,0.479s0.021,1.096-0.479,1.33C16.927,23.713,16.463,23.802,16,23.802z"/><path d="M8.251,16.796c-0.143,0-0.288-0.03-0.426-0.096l-2.061-0.972c-0.286-0.135-0.745-0.148-0.873-0.105l-0.758,0.272c-0.522,0.187-1.092-0.084-1.279-0.604c-0.186-0.52,0.084-1.092,0.604-1.278l0.756-0.271c0.666-0.239,1.674-0.165,2.401,0.179l2.062,0.972c0.5,0.235,0.714,0.831,0.478,1.331C8.986,16.584,8.626,16.796,8.251,16.796z"/><path d="M16,20.205c-0.463,0-0.927-0.089-1.305-0.268L7.826,16.7c-0.5-0.235-0.714-0.831-0.479-1.331c0.236-0.499,0.833-0.714,1.331-0.478l6.869,3.237c0.211,0.099,0.694,0.101,0.906,0c0.5-0.238,1.095-0.021,1.331,0.479s0.021,1.096-0.479,1.33C16.927,20.116,16.463,20.205,16,20.205z"/><path d="M16,20.205c-0.463,0-0.927-0.089-1.305-0.268c-0.5-0.234-0.714-0.83-0.479-1.33c0.235-0.501,0.831-0.716,1.331-0.479c0.212,0.1,0.694,0.1,0.906,0l7.133-3.362c0.498-0.236,1.095-0.021,1.331,0.478c0.235,0.5,0.021,1.096-0.479,1.331l-7.134,3.362C16.927,20.116,16.463,20.205,16,20.205z"/><path d="M24.013,16.671c-0.375,0-0.734-0.212-0.905-0.573c-0.235-0.5-0.021-1.096,0.479-1.331l1.796-0.847c0.726-0.342,1.753-0.411,2.445-0.163l0.804,0.288c0.52,0.188,0.79,0.76,0.603,1.279c-0.187,0.521-0.76,0.789-1.279,0.604l-0.802-0.288c-0.158-0.058-0.643-0.039-0.918,0.089l-1.796,0.847C24.301,16.641,24.156,16.671,24.013,16.671z"/><path d="M16,23.802c-0.463,0-0.927-0.089-1.305-0.268c-0.5-0.234-0.714-0.83-0.479-1.33s0.831-0.715,1.331-0.479c0.212,0.1,0.694,0.1,0.906,0l11.956-5.636l-0.454-0.162c-0.52-0.188-0.79-0.76-0.603-1.279c0.187-0.52,0.761-0.789,1.279-0.604l1.728,0.621c0.933,0.435,1.024,1.092,1.024,1.355s-0.091,0.921-0.936,1.318l-13.142,6.194C16.927,23.713,16.463,23.802,16,23.802z"/><path d="M16,32.001c-0.463,0-0.927-0.089-1.305-0.268L1.553,25.539c-0.845-0.397-0.936-1.055-0.936-1.318s0.091-0.921,0.936-1.318l1.906-0.69c0.52-0.188,1.092,0.083,1.279,0.604c0.187,0.52-0.083,1.092-0.603,1.279l-0.543,0.194l11.955,5.636c0.211,0.099,0.694,0.101,0.906,0c0.5-0.238,1.095-0.022,1.331,0.479c0.235,0.5,0.021,1.096-0.479,1.33C16.927,31.912,16.463,32.001,16,32.001z"/><path d="M8.251,24.995c-0.143,0-0.288-0.03-0.426-0.096l-2.061-0.972c-0.286-0.134-0.742-0.148-0.871-0.105l-0.76,0.272c-0.522,0.188-1.092-0.084-1.279-0.604c-0.186-0.52,0.084-1.092,0.604-1.278l0.758-0.271c0.663-0.238,1.672-0.165,2.399,0.179l2.062,0.972c0.5,0.235,0.714,0.831,0.478,1.331C8.986,24.783,8.626,24.995,8.251,24.995z"/><path d="M16,28.404c-0.463,0-0.927-0.089-1.305-0.268l-6.87-3.237c-0.5-0.235-0.714-0.831-0.479-1.331c0.236-0.499,0.833-0.714,1.331-0.478l6.869,3.237c0.211,0.1,0.694,0.1,0.906,0c0.5-0.238,1.095-0.021,1.331,0.479s0.021,1.096-0.479,1.33C16.927,28.315,16.463,28.404,16,28.404z"/><path d="M16,28.404c-0.463,0-0.927-0.089-1.305-0.268c-0.5-0.234-0.714-0.83-0.479-1.33s0.831-0.715,1.331-0.479c0.212,0.1,0.694,0.1,0.906,0l7.133-3.362c0.498-0.237,1.095-0.021,1.331,0.478c0.235,0.5,0.021,1.096-0.479,1.331l-7.134,3.362C16.927,28.315,16.463,28.404,16,28.404z"/><path d="M24.013,24.87c-0.375,0-0.734-0.212-0.905-0.573c-0.235-0.5-0.021-1.096,0.479-1.331l1.796-0.847c0.726-0.342,1.753-0.411,2.445-0.163l0.804,0.289c0.52,0.188,0.79,0.76,0.603,1.279c-0.187,0.52-0.76,0.791-1.279,0.604l-0.804-0.29c-0.159-0.056-0.643-0.038-0.917,0.09l-1.796,0.847C24.301,24.84,24.156,24.87,24.013,24.87z"/><path d="M16,32.001c-0.463,0-0.927-0.089-1.305-0.268c-0.5-0.234-0.714-0.83-0.479-1.33s0.831-0.715,1.331-0.479c0.212,0.1,0.694,0.1,0.906,0l11.955-5.636l-0.453-0.161c-0.52-0.187-0.79-0.76-0.604-1.279c0.186-0.52,0.759-0.789,1.279-0.604l1.728,0.62c0.933,0.435,1.024,1.092,1.024,1.355s-0.091,0.921-0.936,1.318l-13.142,6.194C16.927,31.912,16.463,32.001,16,32.001z"/></svg>