<svg xmlns="http://www.w3.org/2000/svg" viewBox="0 0 32 32"><!--! Font Icona - https://fonticona.com | License - https://fonticona.com/license | Copyright 2022 FontIcona.com --><path d="M16.003,29.319c-5.352-0.019-9.227-4.396-9.221-10.407c0-2.456,0.642-4.979,1.807-7.106l1.754,0.961c-1.006,1.837-1.561,4.02-1.561,6.146c-0.005,4.936,2.965,8.392,7.221,8.406c4.25-0.015,7.22-3.471,7.215-8.405c0-2.127-0.555-4.31-1.561-6.147l1.754-0.961c1.165,2.127,1.807,4.651,1.807,7.107C25.224,24.924,21.349,29.301,16.003,29.319z"/><path d="M24.271,14.571c-0.211,0-0.421-0.067-0.597-0.197c-4.359-3.24-10.936-3.24-15.295,0c-0.299,0.222-0.697,0.26-1.032,0.098s-0.553-0.497-0.563-0.869c-0.089-2.816,0.959-5.557,2.873-7.518c1.719-1.76,4.029-2.725,6.377-2.702c2.379,0.021,4.645,0.942,6.363,2.702c1.914,1.961,2.962,4.701,2.873,7.518c-0.011,0.372-0.229,0.707-0.563,0.869C24.567,14.538,24.419,14.571,24.271,14.571z M16.026,9.959c2.468,0,4.935,0.571,7.098,1.712c-0.302-1.585-1.049-3.053-2.159-4.189c-1.335-1.368-3.124-2.093-4.932-2.1c-0.016,0-0.032,0-0.049,0c-1.842,0-3.574,0.744-4.896,2.1c-1.11,1.137-1.857,2.604-2.159,4.189C11.092,10.53,13.559,9.959,16.026,9.959z"/><path d="M16,29.319c-0.553,0-1-0.447-1-1V11.158c0-0.552,0.447-1,1-1s1,0.448,1,1v17.161C17,28.872,16.553,29.319,16,29.319z"/><path d="M24.219,17.233c-0.312,0-0.62-0.146-0.815-0.42c-0.32-0.45-0.216-1.074,0.234-1.395l3.291-2.343l0.875-3.646c0.129-0.537,0.668-0.871,1.206-0.739c0.537,0.129,0.868,0.668,0.739,1.206l-0.963,4.01c-0.057,0.235-0.196,0.441-0.393,0.581l-3.596,2.561C24.622,17.173,24.419,17.233,24.219,17.233z"/><path d="M7.974,17.233c-0.2,0-0.403-0.061-0.579-0.186L3.8,14.487c-0.196-0.14-0.336-0.346-0.393-0.581l-0.964-4.01C2.314,9.359,2.646,8.819,3.183,8.69C3.72,8.561,4.26,8.892,4.389,9.429l0.876,3.646l3.29,2.343c0.45,0.32,0.555,0.945,0.234,1.395C8.594,17.087,8.286,17.233,7.974,17.233z"/><path d="M29.285,32c-0.379,0-0.741-0.216-0.909-0.582l-1.838-3.995l-3.49-2.912c-0.424-0.354-0.481-0.984-0.127-1.408c0.353-0.424,0.982-0.481,1.408-0.127l3.664,3.057c0.114,0.095,0.206,0.215,0.268,0.35l1.932,4.2c0.231,0.502,0.012,1.096-0.49,1.326C29.566,31.971,29.425,32,29.285,32z"/><path d="M2.961,32c-0.14,0-0.281-0.029-0.417-0.092c-0.502-0.23-0.722-0.824-0.49-1.326l1.932-4.2c0.062-0.135,0.153-0.255,0.268-0.35l3.664-3.057c0.426-0.354,1.057-0.297,1.408,0.127c0.354,0.424,0.297,1.055-0.127,1.408l-3.49,2.912L3.87,31.418C3.702,31.784,3.34,32,2.961,32z"/><path d="M30.999,21.646c-0.147,0-0.298-0.033-0.439-0.103l-2.484-1.22l-3.448,0.744c-0.537,0.121-1.071-0.226-1.188-0.767c-0.116-0.54,0.227-1.072,0.767-1.188l3.788-0.817c0.22-0.047,0.45-0.021,0.651,0.08l2.796,1.373c0.496,0.243,0.7,0.843,0.457,1.338C31.724,21.44,31.368,21.646,30.999,21.646z"/><path d="M1.001,21.646c-0.369,0-0.725-0.205-0.898-0.56c-0.243-0.495-0.039-1.095,0.457-1.338l2.796-1.373c0.201-0.101,0.432-0.127,0.651-0.08l3.788,0.817c0.54,0.116,0.883,0.648,0.767,1.188c-0.117,0.541-0.649,0.888-1.188,0.767l-3.448-0.744l-2.484,1.22C1.299,21.612,1.148,21.646,1.001,21.646z"/><path d="M18.862,8.78c-0.312,0-0.62-0.146-0.814-0.419c-0.321-0.45-0.217-1.074,0.232-1.395c2.417-1.726,4.338-3.942,5.555-6.409c0.244-0.495,0.842-0.696,1.339-0.455c0.495,0.244,0.699,0.844,0.454,1.339c-1.361,2.762-3.501,5.235-6.186,7.152C19.267,8.72,19.063,8.78,18.862,8.78z"/><path d="M12.969,8.796c-0.221,0-0.443-0.073-0.629-0.223C9.887,6.585,7.928,4.112,6.677,1.421c-0.232-0.5-0.016-1.095,0.485-1.328c0.503-0.234,1.096-0.015,1.329,0.485c1.123,2.416,2.89,4.643,5.108,6.44c0.429,0.348,0.495,0.977,0.147,1.406C13.549,8.669,13.261,8.796,12.969,8.796z"/></svg>