<svg xmlns="http://www.w3.org/2000/svg" viewBox="0 0 32 32"><!--! Font Icona - https://fonticona.com | License - https://fonticona.com/license | Copyright 2022 FontIcona.com --><path d="M11.883,32c-0.164,0-0.327-0.04-0.476-0.12l-8.633-4.667C2.452,27.038,2.25,26.7,2.25,26.333V13.244c0-0.438,0.286-0.826,0.705-0.956l8.633-2.666c0.303-0.093,0.633-0.038,0.889,0.151c0.255,0.188,0.406,0.487,0.406,0.805V31c0,0.353-0.186,0.679-0.488,0.859C12.237,31.953,12.06,32,11.883,32z M4.25,25.737l6.633,3.585V11.934L4.25,13.982V25.737z"/><path d="M11.883,32c-0.164,0-0.327-0.04-0.476-0.12l-8.633-4.667C2.452,27.038,2.25,26.7,2.25,26.333V13.244c0-0.438,0.286-0.826,0.705-0.956l8.633-2.666c0.303-0.093,0.633-0.038,0.889,0.151c0.255,0.188,0.406,0.487,0.406,0.805V31c0,0.353-0.186,0.679-0.488,0.859C12.237,31.953,12.06,32,11.883,32z M4.25,25.737l6.633,3.585V11.934L4.25,13.982V25.737z"/><path d="M11.883,32c-0.216,0-0.43-0.07-0.605-0.204c-0.249-0.189-0.395-0.483-0.395-0.796V10.578c0-0.292,0.128-0.57,0.351-0.76c0.222-0.189,0.517-0.272,0.806-0.228l16.867,2.666c0.486,0.077,0.844,0.496,0.844,0.988v13.089c0,0.449-0.3,0.844-0.733,0.964L12.15,31.963C12.062,31.988,11.972,32,11.883,32z M12.883,11.749v17.937l14.867-4.113V14.099L12.883,11.749z M28.75,26.333h0.01H28.75z"/><path d="M3.25,18.522c-0.548,0-0.994-0.44-1-0.989c-0.006-0.553,0.437-1.005,0.99-1.011l8.633-0.09c0.003,0,0.007,0,0.01,0c0.548,0,0.994,0.441,1,0.989c0.006,0.553-0.437,1.005-0.99,1.011l-8.633,0.09C3.257,18.522,3.254,18.522,3.25,18.522z"/><path d="M11.884,24.477c-0.065,0-0.131-0.006-0.198-0.02l-8.633-1.733c-0.541-0.108-0.893-0.636-0.784-1.178c0.109-0.541,0.637-0.894,1.177-0.783l8.633,1.733c0.541,0.108,0.893,0.636,0.784,1.178C12.768,24.149,12.351,24.477,11.884,24.477z"/><path d="M28.75,18.833c-0.008,0-0.016,0-0.023,0l-16.867-0.4c-0.552-0.014-0.989-0.472-0.976-1.023c0.013-0.552,0.478-1.007,1.023-0.976l16.866,0.4c0.553,0.013,0.989,0.471,0.977,1.023C29.736,18.4,29.292,18.833,28.75,18.833z"/><path d="M17.461,30.343c-0.552,0-1-0.447-1-1V11.467c0-0.552,0.448-1,1-1c0.553,0,1,0.448,1,1v17.876C18.461,29.896,18.014,30.343,17.461,30.343z"/><path d="M11.883,11.578c-0.552,0-1-0.448-1-1V1c0-0.552,0.448-1,1-1s1,0.448,1,1v9.578C12.883,11.131,12.435,11.578,11.883,11.578z"/><path d="M6.94,5.256c-0.325,0-0.644-0.158-0.836-0.45C5.8,4.345,5.928,3.725,6.389,3.421l4.944-3.256c0.463-0.305,1.082-0.176,1.385,0.285c0.304,0.461,0.176,1.081-0.285,1.385L7.489,5.091C7.32,5.203,7.129,5.256,6.94,5.256z"/><path d="M6.939,29.327c-0.552,0-1-0.447-1-1V4.256c0-0.552,0.448-1,1-1s1,0.448,1,1v24.071C7.939,28.88,7.491,29.327,6.939,29.327z"/><path d="M23.238,7.5c-0.146,0-0.295-0.032-0.435-0.1L11.447,1.9c-0.497-0.241-0.705-0.839-0.464-1.336c0.241-0.498,0.839-0.706,1.336-0.464l11.356,5.5c0.497,0.241,0.705,0.839,0.465,1.336C23.967,7.293,23.61,7.5,23.238,7.5z"/><path d="M23.239,28.856c-0.553,0-1-0.447-1-1V6.5c0-0.552,0.447-1,1-1c0.553,0,1,0.448,1,1v21.356C24.239,28.409,23.792,28.856,23.239,28.856z"/><path d="M11.882,24.477c-0.506,0-0.941-0.383-0.994-0.897c-0.057-0.55,0.343-1.041,0.893-1.098l16.866-1.733c0.553-0.051,1.04,0.343,1.098,0.893c0.056,0.55-0.344,1.041-0.893,1.098l-16.867,1.733C11.95,24.475,11.916,24.477,11.882,24.477z"/></svg>