<svg xmlns="http://www.w3.org/2000/svg" viewBox="0 0 32 32"><!--! Font Icona - https://fonticona.com | License - https://fonticona.com/license | Copyright 2022 FontIcona.com --><path d="M10.545,27.551c-0.552,0-1-0.447-1-1v-8.408c0-0.391-0.341-0.708-0.759-0.708c-0.418,0-0.759,0.317-0.759,0.708v8.408c0,0.553-0.448,1-1,1s-1-0.447-1-1v-8.408c0-1.493,1.238-2.708,2.759-2.708c1.521,0,2.759,1.215,2.759,2.708v8.408C11.545,27.104,11.097,27.551,10.545,27.551z"/><path d="M17.759,27.551c-0.553,0-1-0.447-1-1v-8.408c0-0.391-0.34-0.708-0.759-0.708c-0.418,0-0.759,0.317-0.759,0.708v8.408c0,0.553-0.448,1-1,1s-1-0.447-1-1v-8.408c0-1.493,1.238-2.708,2.759-2.708c1.521,0,2.759,1.215,2.759,2.708v8.408C18.759,27.104,18.311,27.551,17.759,27.551z"/><path d="M24.972,27.551c-0.553,0-1-0.447-1-1v-8.408c0-0.391-0.341-0.708-0.759-0.708c-0.418,0-0.759,0.317-0.759,0.708v8.408c0,0.553-0.447,1-1,1c-0.553,0-1-0.447-1-1v-8.408c0-1.493,1.237-2.708,2.759-2.708c1.521,0,2.759,1.215,2.759,2.708v8.408C25.972,27.104,25.524,27.551,24.972,27.551z"/><path d="M28.229,27.564c-0.553,0-1-0.447-1-1V14.025l-22.459-0.01v12.549c0,0.553-0.448,1-1,1s-1-0.447-1-1V14.025c0-1.108,0.897-2.01,2-2.01h22.459c1.102,0,2,0.901,2,2.01v12.539C29.229,27.117,28.782,27.564,28.229,27.564z"/><path d="M29.621,10.467H2.378c-1.056,0-1.343-0.617-1.417-0.882c-0.074-0.266-0.15-0.942,0.754-1.492l12.747-7.728c0.795-0.483,1.951-0.486,2.749-0.013l13.057,7.743c0,0,0.001,0,0.001,0c0.913,0.542,0.842,1.22,0.768,1.486C30.965,9.848,30.681,10.467,29.621,10.467z M4.959,8.465l22.016,0.002L16.191,2.072c-0.159-0.095-0.533-0.093-0.692,0.003L4.959,8.465z"/><path d="M30.997,32H1.002c-0.552,0-1-0.447-1-1v-2.786c0-1.462,1.413-2.65,3.151-2.65h25.696c1.737,0,3.15,1.188,3.15,2.65l-0.001,2.787C31.997,31.553,31.549,32,30.997,32z M2.002,30h27.996l0.001-1.786c0-0.266-0.448-0.65-1.15-0.65H3.153c-0.703,0-1.151,0.385-1.151,0.65V30z"/><path d="M15.785,10.46c-2.751,0-4.988-2.238-4.988-4.988s2.238-4.988,4.988-4.988s4.988,2.238,4.988,4.988S18.536,10.46,15.785,10.46z M15.785,2.483c-1.648,0-2.988,1.341-2.988,2.988s1.341,2.988,2.988,2.988c1.647,0,2.988-1.341,2.988-2.988S17.432,2.483,15.785,2.483z"/></svg>