<svg xmlns="http://www.w3.org/2000/svg" viewBox="0 0 32 32"><!--! Font Icona - https://fonticona.com | License - https://fonticona.com/license | Copyright 2022 FontIcona.com --><path d="M16,32C7.178,32,0,24.823,0,16S7.178,0,16,0s16,7.178,16,16S24.822,32,16,32z M16,2C8.28,2,2,8.281,2,16s6.28,14,14,14s14-6.28,14-14S23.72,2,16,2z"/><path d="M16,24.585c-4.734,0-8.586-3.852-8.586-8.585c0-4.734,3.852-8.586,8.586-8.586s8.586,3.852,8.586,8.586C24.586,20.734,20.734,24.585,16,24.585z M16,9.414c-3.632,0-6.586,2.954-6.586,6.586c0,3.631,2.954,6.585,6.586,6.585s6.586-2.954,6.586-6.585C22.586,12.368,19.632,9.414,16,9.414z"/><path d="M16,18.887c-1.592,0-2.887-1.295-2.887-2.887s1.295-2.887,2.887-2.887s2.887,1.295,2.887,2.887S17.592,18.887,16,18.887z M16,15.114c-0.489,0-0.887,0.397-0.887,0.887c0,0.489,0.397,0.887,0.887,0.887S16.887,16.49,16.887,16C16.887,15.511,16.489,15.114,16,15.114z"/></svg>