<svg xmlns="http://www.w3.org/2000/svg" viewBox="0 0 32 32"><!--! Font Icona - https://fonticona.com | License - https://fonticona.com/license | Copyright 2022 FontIcona.com --><path d="M29.65,13.353h-2v-2.044c0-4.221-5.226-7.654-11.65-7.654S4.35,7.088,4.35,11.309v2.044h-2v-2.044c0-5.323,6.124-9.654,13.65-9.654s13.65,4.331,13.65,9.654V13.353z"/><path d="M29,19.15H3c-1.654,0-3-1.346-3-3v-0.963c0-1.654,1.346-3,3-3h26c1.654,0,3,1.346,3,3v0.963C32,17.805,30.654,19.15,29,19.15z M3,14.188c-0.551,0-1,0.448-1,1v0.963c0,0.552,0.449,1,1,1h26c0.551,0,1-0.448,1-1v-0.963c0-0.552-0.449-1-1-1H3z"/><path d="M29,24.114h-4.739v-2H29c0.551,0,1-0.448,1-1V20.15c0-0.552-0.449-1-1-1H3c-0.551,0-1,0.448-1,1v0.964c0,0.552,0.449,1,1,1h18.262v2H3c-1.654,0-3-1.346-3-3V20.15c0-1.654,1.346-3,3-3h26c1.654,0,3,1.346,3,3v0.964C32,22.769,30.654,24.114,29,24.114z"/><path d="M25.15,30.346H6.85c-2.537,0-4.6-1.847-4.6-4.116v-3.115h2v3.115c0,1.147,1.191,2.116,2.6,2.116h18.3c1.409,0,2.6-0.969,2.6-2.116v-3.115h2v3.115C29.75,28.499,27.687,30.346,25.15,30.346z"/><path d="M15.346,8.375c-0.263,0-0.525-0.103-0.721-0.308c-0.382-0.397-0.37-1.031,0.028-1.413l1.035-0.994c0.397-0.384,1.031-0.372,1.414,0.028c0.382,0.397,0.37,1.031-0.028,1.413l-1.035,0.994C15.845,8.282,15.596,8.375,15.346,8.375z"/><path d="M9.856,8.375c-0.263,0-0.525-0.103-0.721-0.308C8.753,7.67,8.765,7.036,9.164,6.654l1.035-0.994c0.398-0.384,1.031-0.372,1.414,0.028c0.382,0.397,0.37,1.031-0.028,1.413l-1.035,0.994C10.355,8.282,10.106,8.375,9.856,8.375z"/><path d="M20.836,8.375c-0.263,0-0.525-0.103-0.721-0.308c-0.382-0.397-0.37-1.031,0.028-1.413l1.035-0.994c0.397-0.384,1.031-0.372,1.414,0.028c0.382,0.397,0.37,1.031-0.028,1.413l-1.035,0.994C21.335,8.282,21.085,8.375,20.836,8.375z"/><path d="M14.161,11.638c-0.246,0-0.491-0.09-0.685-0.271l-1.059-0.994c-0.402-0.378-0.422-1.011-0.044-1.414c0.378-0.403,1.011-0.421,1.414-0.045l1.059,0.994c0.402,0.378,0.422,1.011,0.044,1.414C14.693,11.532,14.427,11.638,14.161,11.638z"/><path d="M9.234,11.638c-0.246,0-0.491-0.09-0.685-0.271L7.49,10.373C7.088,9.995,7.068,9.362,7.446,8.959c0.379-0.403,1.011-0.421,1.414-0.045l1.059,0.994c0.402,0.378,0.422,1.011,0.044,1.414C9.766,11.532,9.5,11.638,9.234,11.638z"/><path d="M19.088,11.638c-0.246,0-0.491-0.09-0.685-0.271l-1.059-0.994c-0.402-0.378-0.422-1.011-0.044-1.414c0.378-0.403,1.012-0.421,1.414-0.045l1.059,0.994c0.402,0.378,0.422,1.011,0.044,1.414C19.621,11.532,19.354,11.638,19.088,11.638z"/><path d="M24.015,11.638c-0.246,0-0.491-0.09-0.685-0.271l-1.059-0.994c-0.402-0.378-0.422-1.011-0.044-1.414c0.379-0.403,1.011-0.421,1.414-0.045L24.7,9.908c0.402,0.378,0.422,1.011,0.044,1.414C24.547,11.532,24.281,11.638,24.015,11.638z"/><path d="M23.578,26.513c-0.266,0-0.525-0.106-0.716-0.302l-7.175-7.362c-0.385-0.396-0.377-1.029,0.019-1.414c0.396-0.386,1.028-0.378,1.414,0.018l5.819,5.971l0.98-5.449c0.098-0.544,0.613-0.904,1.162-0.808c0.543,0.098,0.905,0.618,0.807,1.161l-1.325,7.362c-0.066,0.369-0.333,0.67-0.691,0.779C23.774,26.498,23.675,26.513,23.578,26.513z"/></svg>