<svg xmlns="http://www.w3.org/2000/svg" viewBox="0 0 32 32"><!--! Font Icona - https://fonticona.com | License - https://fonticona.com/license | Copyright 2022 FontIcona.com --><path d="M15.937,16.786c-2.362,0-4.72-0.345-7.012-1.032c-1.11-0.371-1.808-1.302-1.808-2.382V6.036c0-1.214,0.881-2.095,2.095-2.095h13.467c1.214,0,2.095,0.881,2.095,2.095v7.336c0,1.08-0.698,2.011-1.778,2.372C20.681,16.438,18.307,16.786,15.937,16.786z M9.212,5.941L9.117,6.036v7.336c0,0.313,0.315,0.443,0.412,0.476c4.188,1.254,8.645,1.256,12.863-0.01c0.067-0.022,0.382-0.152,0.382-0.466V6.036l-0.095-0.095H9.212z"/><path d="M1,12.108c-0.552,0-1-0.447-1-1V4.613c0-0.553,0.448-1,1-1h2.628c0.552,0,1,0.447,1,1s-0.448,1-1,1H2v5.495C2,11.661,1.552,12.108,1,12.108z"/><path d="M31,12.108c-0.552,0-1-0.447-1-1V5.613h-1.628c-0.552,0-1-0.447-1-1s0.448-1,1-1H31c0.552,0,1,0.447,1,1v6.495C32,11.661,31.552,12.108,31,12.108z"/><circle cx="10.307" cy="20.883" r="2"/><circle cx="21.693" cy="20.883" r="2"/><path d="M21.913,15.796c-0.552,0-1-0.447-1-1c0-0.764-0.646-1.409-1.409-1.409s-1.409,0.646-1.409,1.409c0,0.553-0.448,1-1,1s-1-0.447-1-1c0-1.88,1.529-3.409,3.409-3.409c1.88,0,3.409,1.529,3.409,3.409C22.913,15.349,22.465,15.796,21.913,15.796z"/><path d="M20.848,28.811h-2v-2.178h-5.696v2.178h-2v-2.666c0-0.862,0.597-1.512,1.389-1.512h6.919c0.792,0,1.389,0.649,1.389,1.512V28.811z"/><path d="M23.664,31.672h-1.095c-1.134,0-1.978-0.77-2.083-1.861h-9.081c-0.105,1.092-0.949,1.861-2.083,1.861H8.117c-1.134,0-1.978-0.77-2.083-1.861H5.379c-1.214,0-2.095-0.882-2.095-2.096V4.723c-0.072-0.821,0.214-1.693,0.81-2.371c0.583-0.663,1.398-1.069,2.297-1.144c0.202-0.03,6.292-0.88,9.608-0.88s9.407,0.85,9.665,0.886c0.842,0.068,1.658,0.475,2.241,1.138c0.596,0.678,0.882,1.55,0.807,2.454l0.003,22.909c0,1.214-0.881,2.096-2.095,2.096h-0.873C25.642,30.902,24.798,31.672,23.664,31.672z M11.183,27.811h9.525c0.991,0,1.767,0.775,1.767,1.766l0.095,0.096h1.095l0.095-0.096v-0.766c0-0.553,0.448-1,1-1h1.861l0.095-0.096V4.723c0.033-0.441-0.079-0.785-0.312-1.051c-0.239-0.272-0.58-0.439-0.96-0.472C25.325,3.186,19.177,2.328,16,2.328S6.675,3.186,6.614,3.194C6.177,3.232,5.836,3.399,5.597,3.672C5.364,3.938,5.251,4.281,5.281,4.64l0.003,23.075l0.095,0.096h1.643c0.552,0,1,0.447,1,1v0.766l0.095,0.096h1.205l0.095-0.096C9.416,28.586,10.192,27.811,11.183,27.811z"/></svg>