<svg xmlns="http://www.w3.org/2000/svg" viewBox="0 0 32 32"><!--! Font Icona - https://fonticona.com | License - https://fonticona.com/license | Copyright 2022 FontIcona.com --><path d="M31,32h-8.536c-0.45,0-0.844-0.301-0.964-0.734l-2.049-7.425l-9.266,7.919C10.004,31.915,9.774,32,9.536,32H1c-0.318,0-0.618-0.151-0.806-0.408s-0.243-0.588-0.148-0.892l9.434-30C9.611,0.283,9.998,0,10.434,0h10.982c0.435,0,0.82,0.281,0.953,0.695l9.584,30c0.097,0.305,0.043,0.637-0.145,0.895C31.619,31.848,31.319,32,31,32z M23.226,30h6.405L20.686,2h-9.518L2.363,30h6.804l8.121-6.941h-5.456c-0.315,0-0.611-0.148-0.8-0.399c-0.189-0.252-0.249-0.578-0.16-0.88l4.193-14.392c0.125-0.428,0.516-0.721,0.96-0.721c0.002,0,0.005,0,0.007,0c0.447,0.003,0.838,0.303,0.957,0.734L23.226,30z M13.165,21.059h5.518l-2.684-9.728L13.165,21.059z"/></svg>