<svg xmlns="http://www.w3.org/2000/svg" viewBox="0 0 32 32"><!--! Font Icona - https://fonticona.com | License - https://fonticona.com/license | Copyright 2022 FontIcona.com --><path d="M16.381,25.75c-4.304,0-7.806-4.374-7.806-9.75s3.502-9.75,7.806-9.75c2.951,0,5.615,2.038,6.953,5.319c0.208,0.511-0.038,1.095-0.549,1.304c-0.514,0.208-1.095-0.038-1.304-0.549c-1.024-2.513-2.979-4.074-5.1-4.074c-3.202,0-5.806,3.477-5.806,7.75s2.604,7.75,5.806,7.75c2.136,0,4.097-1.575,5.117-4.11c0.206-0.513,0.787-0.761,1.301-0.555c0.513,0.206,0.761,0.789,0.555,1.301C22.022,23.695,19.351,25.75,16.381,25.75z"/></svg>