<svg xmlns="http://www.w3.org/2000/svg" viewBox="0 0 32 32"><!--! Font Icona - https://fonticona.com | License - https://fonticona.com/license | Copyright 2022 FontIcona.com --><path d="M16.653,32C9.668,32,3.986,24.822,3.986,16S9.668,0,16.653,0c4.763,0,9.077,3.323,11.257,8.673c0.208,0.511-0.038,1.095-0.549,1.304c-0.513,0.208-1.095-0.038-1.304-0.549C24.19,4.846,20.587,2,16.653,2C10.771,2,5.986,8.28,5.986,16s4.785,14,10.667,14c3.96,0,7.575-2.872,9.434-7.494c0.206-0.512,0.789-0.761,1.301-0.555c0.513,0.206,0.761,0.789,0.555,1.301C25.772,28.648,21.446,32,16.653,32z"/></svg>