<svg xmlns="http://www.w3.org/2000/svg" viewBox="0 0 32 32"><!--! Font Icona - https://fonticona.com | License - https://fonticona.com/license | Copyright 2022 FontIcona.com --><path d="M3.359,22.729c-0.356,0-0.694-0.191-0.874-0.514c-0.22-0.396-0.146-0.89,0.179-1.205c3.978-3.851,7.646-7.992,10.903-12.311c0.15-0.198,0.369-0.334,0.614-0.38c0.373-0.07,0.737-0.132,1.091-0.188c0.545-0.081,1.058,0.289,1.143,0.834c0.085,0.546-0.288,1.057-0.834,1.143c-0.214,0.033-0.432,0.069-0.653,0.107c-2.518,3.312-5.272,6.52-8.219,9.573c6.75-1.95,13.226-4.556,19.307-7.769c-0.604-0.754-1.877-1.754-4.508-2.105c-0.547-0.073-0.932-0.576-0.858-1.124c0.073-0.547,0.571-0.93,1.124-0.858c4.874,0.652,6.248,3.298,6.554,4.093c0.18,0.469-0.005,1.025-0.446,1.265c-7.557,4.096-15.725,7.261-24.278,9.408C3.521,22.719,3.44,22.729,3.359,22.729z"/><path d="M28.686,24.948c-0.503,0-0.936-0.378-0.993-0.89L26.41,12.521c-0.061-0.549,0.335-1.043,0.884-1.104c0.554-0.056,1.044,0.335,1.104,0.884l1.282,11.537c0.061,0.549-0.335,1.043-0.884,1.104C28.76,24.946,28.723,24.948,28.686,24.948z"/><path d="M4.881,32c-0.427,0-0.821-0.274-0.955-0.702c-0.079-0.255-1.939-6.271-1.561-9.68c0.062-0.549,0.568-0.935,1.104-0.884c0.549,0.062,0.944,0.556,0.884,1.104c-0.333,2.992,1.464,8.805,1.482,8.863C6,31.229,5.706,31.79,5.179,31.955C5.079,31.985,4.979,32,4.881,32z"/><path d="M4.88,32c-0.483,0-0.908-0.351-0.986-0.842c-0.087-0.546,0.284-1.059,0.829-1.146c9.39-1.503,15.53-3.615,23.577-6.986c0.512-0.216,1.096,0.026,1.309,0.535c0.214,0.51-0.026,1.096-0.535,1.309c-8.19,3.433-14.446,5.583-24.034,7.117C4.985,31.996,4.933,32,4.88,32z"/><path d="M5.11,27.378c-0.84,0-1.661-0.415-2.177-0.906c-0.4-0.381-0.416-1.014-0.035-1.414c0.381-0.399,1.016-0.413,1.414-0.035c0.255,0.242,0.674,0.399,0.895,0.345c0.17-0.045,0.19-0.066,0.363-0.382c0.223-0.406,0.596-1.086,1.603-1.343c0.938-0.249,1.62,0.098,2.07,0.325c0.374,0.188,0.472,0.228,0.671,0.17c0.136-0.039,0.15-0.043,0.312-0.376c0.203-0.418,0.542-1.119,1.529-1.418c0.922-0.289,1.614,0.032,2.072,0.244c0.375,0.173,0.463,0.202,0.647,0.143c0.128-0.043,0.142-0.048,0.287-0.386c0.185-0.426,0.492-1.14,1.459-1.479c0.909-0.327,1.608-0.032,2.07,0.163c0.387,0.162,0.462,0.178,0.624,0.116c0.12-0.046,0.133-0.051,0.264-0.393c0.164-0.434,0.44-1.159,1.384-1.538c0.896-0.366,1.6-0.097,2.067,0.083c0.385,0.149,0.453,0.157,0.602,0.094c0.111-0.049,0.123-0.054,0.237-0.399c0.146-0.44,0.389-1.177,1.311-1.594c0.854-0.393,1.619-0.165,2.124-0.015c0.435,0.129,0.572,0.155,0.729,0.079c0.5-0.243,1.095-0.029,1.334,0.469c0.239,0.497,0.029,1.095-0.469,1.334c-0.873,0.418-1.651,0.187-2.166,0.035c-0.43-0.129-0.568-0.153-0.722-0.083c-0.115,0.052-0.129,0.059-0.242,0.401c-0.147,0.446-0.395,1.193-1.343,1.607c-0.922,0.396-1.638,0.121-2.111-0.062c-0.38-0.146-0.453-0.156-0.601-0.097c-0.121,0.049-0.137,0.055-0.266,0.396c-0.167,0.439-0.447,1.176-1.419,1.551c-0.938,0.354-1.647,0.055-2.117-0.144c-0.383-0.162-0.466-0.18-0.622-0.12c-0.131,0.046-0.146,0.051-0.291,0.387c-0.188,0.433-0.5,1.156-1.492,1.49c-0.956,0.314-1.656-0.01-2.121-0.226c-0.369-0.17-0.466-0.201-0.645-0.146c-0.138,0.042-0.155,0.047-0.315,0.378c-0.206,0.425-0.55,1.135-1.563,1.428c-0.971,0.271-1.665-0.078-2.121-0.31c-0.373-0.188-0.471-0.224-0.666-0.174c-0.161,0.041-0.177,0.052-0.351,0.369c-0.224,0.407-0.599,1.09-1.61,1.354C5.514,27.354,5.312,27.378,5.11,27.378z"/><path d="M18.553,13.812c-2.3,0-4.171-1.871-4.171-4.171s1.871-4.171,4.171-4.171s4.171,1.871,4.171,4.171S20.853,13.812,18.553,13.812z M18.553,7.47c-1.197,0-2.171,0.974-2.171,2.171s0.974,2.171,2.171,2.171s2.171-0.974,2.171-2.171S19.75,7.47,18.553,7.47z"/><path d="M18.804,8.92c-0.069,0-0.139-0.007-0.209-0.021c-0.54-0.115-0.885-0.646-0.771-1.187c0.536-2.521,0.039-4.645-1.397-5.979c-0.404-0.376-0.428-1.009-0.052-1.413c0.378-0.404,1.011-0.426,1.413-0.052c1.973,1.833,2.68,4.624,1.993,7.86C19.681,8.598,19.266,8.92,18.804,8.92z"/></svg>