<svg xmlns="http://www.w3.org/2000/svg" viewBox="0 0 32 32"><!--! Font Icona - https://fonticona.com | License - https://fonticona.com/license | Copyright 2022 FontIcona.com --><path d="M18.065,13.285c-0.707-0.09-1.423-0.132-2.121-0.131c-0.682-0.002-1.347,0.043-2.018,0.131l-0.259-1.983c0.757-0.099,1.475-0.152,2.274-0.147c0.75-0.003,1.582,0.046,2.375,0.147L18.065,13.285z"/><path d="M15.995,25.186c-6.227,0-11.104-3.084-11.104-7.021c0-2.42,1.892-4.629,5.062-5.909l0.749,1.854c-2.386,0.963-3.811,2.479-3.811,4.055c0,2.722,4.169,5.021,9.104,5.021c4.94,0,9.114-2.299,9.114-5.021c0-1.548-1.444-3.093-3.769-4.034l0.75-1.854c3.143,1.271,5.019,3.472,5.019,5.888C27.109,22.102,22.228,25.186,15.995,25.186z"/><path d="M15.995,32c-6.227,0-11.104-2.581-11.104-5.875v-7.961h2v7.961c0,1.829,3.894,3.875,9.104,3.875c5.371,0,9.114-2.042,9.114-3.875v-7.96h2v7.96C27.109,29.475,22.331,32,15.995,32z"/><path d="M12.117,19.925H12.02c-1.481,0-2.687-1.205-2.687-2.687v-6.356c0-1.481,1.206-2.687,2.687-2.687c1.579,0,2.784,1.206,2.784,2.687v6.356c0.001,0.716-0.278,1.391-0.785,1.898C13.511,19.645,12.836,19.925,12.117,19.925z M12.117,10.195c-0.476,0-0.784,0.308-0.784,0.687v6.356c0,0.379,0.308,0.687,0.687,0.687h0.097c0.184,0,0.357-0.071,0.487-0.202c0.129-0.129,0.2-0.301,0.2-0.483v-6.357C12.804,10.503,12.496,10.195,12.117,10.195z"/><path d="M20.029,19.925h-0.098c-1.481,0-2.687-1.205-2.687-2.687v-6.356c0-1.481,1.205-2.687,2.687-2.687c1.579,0,2.784,1.206,2.784,2.687v6.356C22.716,18.72,21.511,19.925,20.029,19.925z M20.029,10.195c-0.477,0-0.784,0.308-0.784,0.687v6.356c0,0.379,0.308,0.687,0.687,0.687h0.098c0.379,0,0.687-0.308,0.687-0.687v-6.356C20.716,10.503,20.408,10.195,20.029,10.195z"/><path d="M12.312,7.328c-0.003,0-0.005,0-0.008,0l-0.239-0.002c-0.005,0-0.01,0-0.014,0c-0.803,0-1.526-0.276-2.026-0.778C9.593,6.116,9.359,5.535,9.364,4.913c-0.005-0.125-0.007-0.2-0.004-0.276c0.007-0.67,0.16-1.354,0.454-1.996c0.436-0.804,0.885-1.528,1.365-2.214c0.165-0.235,0.423-0.389,0.709-0.42c0.288-0.029,0.571,0.062,0.784,0.255c1.231,1.122,1.978,2.655,2.103,4.318c0.048,0.737-0.209,1.455-0.703,1.98C13.604,7.056,12.98,7.328,12.312,7.328z M12.069,5.326l0.246,0.002c0,0,0.001,0,0.001,0c0.109,0,0.21-0.046,0.297-0.139c0.115-0.122,0.176-0.298,0.165-0.471c-0.055-0.735-0.289-1.437-0.676-2.051c-0.174,0.286-0.341,0.576-0.501,0.869c-0.146,0.323-0.237,0.735-0.242,1.161c0.004,0.126,0.006,0.185,0.005,0.242c-0.001,0.103,0.039,0.158,0.078,0.198c0.118,0.119,0.351,0.189,0.622,0.189C12.065,5.326,12.067,5.326,12.069,5.326z"/><path d="M20.224,7.328c-0.003,0-0.006,0-0.008,0l-0.239-0.002c-0.004,0-0.009,0-0.014,0c-0.804,0-1.527-0.276-2.027-0.779c-0.431-0.433-0.665-1.014-0.659-1.636c-0.006-0.122-0.008-0.204-0.003-0.287c0.006-0.655,0.158-1.339,0.451-1.982c0.436-0.804,0.885-1.528,1.366-2.216c0.165-0.235,0.423-0.389,0.709-0.42c0.283-0.03,0.57,0.061,0.784,0.255c1.23,1.122,1.978,2.655,2.103,4.318c0.048,0.738-0.209,1.456-0.704,1.981C21.517,7.056,20.892,7.328,20.224,7.328z M19.981,5.326l0.246,0.002c0,0,0,0,0.001,0c0.109,0,0.211-0.047,0.298-0.139c0.114-0.122,0.176-0.298,0.165-0.472c-0.056-0.735-0.289-1.437-0.677-2.051c-0.175,0.286-0.342,0.576-0.502,0.869c-0.145,0.324-0.237,0.736-0.241,1.16c0.003,0.127,0.006,0.182,0.005,0.237c-0.001,0.109,0.038,0.165,0.077,0.203c0.118,0.119,0.351,0.189,0.622,0.189C19.978,5.326,19.979,5.326,19.981,5.326z"/></svg>