<svg xmlns="http://www.w3.org/2000/svg" viewBox="0 0 32 32"><!--! Font Icona - https://fonticona.com | License - https://fonticona.com/license | Copyright 2022 FontIcona.com --><path d="M25.128,32H6.872c-1.654,0-3-1.346-3-3V3c0-1.654,1.346-3,3-3h18.256c1.654,0,3,1.346,3,3v26C28.128,30.654,26.782,32,25.128,32z M6.872,2c-0.551,0-1,0.448-1,1v26c0,0.552,0.449,1,1,1h18.256c0.551,0,1-0.448,1-1V3c0-0.552-0.449-1-1-1H6.872z"/><path d="M21.329,11.4H10.394c-1.654,0-2.999-1.445-2.999-3.223v-1c0-1.777,1.345-3.223,2.999-3.223h10.935c1.654,0,2.999,1.445,2.999,3.223v1C24.328,9.955,22.982,11.4,21.329,11.4z M10.394,5.955c-0.551,0-0.999,0.549-0.999,1.223v1c0,0.674,0.448,1.223,0.999,1.223h10.935c0.551,0,0.999-0.549,0.999-1.223v-1c0-0.674-0.448-1.223-0.999-1.223H10.394z"/><circle cx="9.85" cy="15.845" r="2"/><circle cx="9.85" cy="20.944" r="2"/><circle cx="9.85" cy="26.045" r="2"/><circle cx="21.872" cy="15.845" r="2"/><circle cx="21.872" cy="20.944" r="2"/><circle cx="21.872" cy="26.045" r="2"/><circle cx="15.861" cy="15.845" r="2"/><circle cx="15.861" cy="20.944" r="2"/><circle cx="15.861" cy="26.045" r="2"/></svg>