<svg xmlns="http://www.w3.org/2000/svg" viewBox="0 0 32 32"><!--! Font Icona - https://fonticona.com | License - https://fonticona.com/license | Copyright 2022 FontIcona.com --><path d="M28.283,32H3.717c-1.654,0-3-1.346-3-3V5.845c0-1.654,1.346-3,3-3h24.566c1.654,0,3,1.346,3,3V29C31.283,30.654,29.938,32,28.283,32z M3.717,4.845c-0.551,0-1,0.448-1,1V29c0,0.552,0.449,1,1,1h24.566c0.551,0,1-0.448,1-1V5.845c0-0.552-0.449-1-1-1H3.717z"/><path d="M6.761,7.566c-0.552,0-1-0.447-1-1V1c0-0.553,0.448-1,1-1s1,0.447,1,1v5.566C7.761,7.119,7.313,7.566,6.761,7.566z"/><path d="M25.239,7.566c-0.552,0-1-0.447-1-1V1c0-0.553,0.448-1,1-1s1,0.447,1,1v5.566C26.239,7.119,25.791,7.566,25.239,7.566z"/><path d="M30.283,13.312H1.717c-0.552,0-1-0.447-1-1s0.448-1,1-1h28.566c0.552,0,1,0.447,1,1S30.835,13.312,30.283,13.312z"/><circle cx="6.606" cy="19.711" r="1.25"/><circle cx="13.028" cy="19.711" r="1.25"/><circle cx="19.45" cy="19.711" r="1.25"/><circle cx="25.872" cy="19.711" r="1.25"/><circle cx="6.606" cy="25.267" r="1.25"/><circle cx="13.028" cy="25.267" r="1.25"/><circle cx="19.45" cy="25.267" r="1.25"/><circle cx="25.872" cy="25.267" r="1.25"/></svg>