<svg xmlns="http://www.w3.org/2000/svg" viewBox="0 0 32 32"><!--! Font Icona - https://fonticona.com | License - https://fonticona.com/license | Copyright 2022 FontIcona.com --><path d="M8.255,7.045c-0.552,0-1-0.447-1-1V1c0-0.553,0.448-1,1-1s1,0.447,1,1v5.045C9.255,6.598,8.808,7.045,8.255,7.045z"/><path d="M24.178,7.045c-0.552,0-1-0.447-1-1V1c0-0.553,0.448-1,1-1s1,0.447,1,1v5.045C25.178,6.598,24.73,7.045,24.178,7.045z"/><path d="M28.278,32H3.722c-1.654,0-3-1.346-3-3V5.6c0-1.654,1.346-3,3-3h24.556c1.654,0,3,1.346,3,3V29C31.278,30.654,29.932,32,28.278,32z M3.722,4.6c-0.551,0-1,0.448-1,1V29c0,0.552,0.449,1,1,1h24.556c0.551,0,1-0.448,1-1V5.6c0-0.552-0.449-1-1-1H3.722z"/><path d="M16,19.3c-1.103,0-2-0.897-2-2s0.897-2,2-2s2,0.897,2,2S17.103,19.3,16,19.3z M16,17.3L16,17.3L16,17.3z"/><path d="M11.894,21.744c-0.286,0-0.569-0.122-0.767-0.357c-0.354-0.424-0.299-1.054,0.124-1.409l0.214-0.18c0.424-0.355,1.055-0.299,1.409,0.124c0.355,0.424,0.299,1.054-0.124,1.409l-0.214,0.18C12.349,21.668,12.121,21.744,11.894,21.744z"/><path d="M19.896,15.03c-0.285,0-0.569-0.121-0.767-0.357c-0.355-0.423-0.3-1.054,0.124-1.408l4.623-3.879c0.422-0.354,1.054-0.301,1.409,0.123c0.355,0.423,0.3,1.054-0.124,1.408l-4.623,3.879C20.351,14.953,20.123,15.03,19.896,15.03z"/><path d="M12.117,15.021c-0.227,0-0.456-0.077-0.643-0.234l-0.214-0.18c-0.423-0.355-0.478-0.986-0.123-1.409s0.987-0.477,1.409-0.122l0.214,0.18c0.423,0.355,0.478,0.986,0.123,1.409C12.686,14.899,12.402,15.021,12.117,15.021z"/><path d="M26.885,27.412c-0.227,0-0.455-0.077-0.642-0.234l-6.979-5.856c-0.423-0.354-0.479-0.985-0.124-1.408c0.355-0.425,0.986-0.478,1.409-0.123l6.979,5.856c0.423,0.354,0.479,0.985,0.124,1.408C27.454,27.291,27.17,27.412,26.885,27.412z"/></svg>