<svg xmlns="http://www.w3.org/2000/svg" viewBox="0 0 32 32"><!--! Font Icona - https://fonticona.com | License - https://fonticona.com/license | Copyright 2022 FontIcona.com --><path d="M16,32C7.178,32,0,24.822,0,16S7.178,0,16,0s16,7.178,16,16S24.822,32,16,32z M16,2C8.28,2,2,8.28,2,16s6.28,14,14,14s14-6.28,14-14S23.72,2,16,2z"/><rect x="0.151" y="11.701" transform="matrix(0.8614 -0.5079 0.5079 0.8614 -5.2497 6.1604)" width="17.028" height="2"/><rect x="15.025" y="17.829" transform="matrix(0.8519 -0.5237 0.5237 0.8519 -6.3575 15.173)" width="17.252" height="1.999"/><rect x="13.883" y="-0.684" transform="matrix(0.4898 -0.8718 0.8718 0.4898 0.8352 16.9312)" width="2.001" height="16.871"/><rect x="16.325" y="15.673" transform="matrix(0.4901 -0.8717 0.8717 0.4901 -12.1768 27.3943)" width="2.001" height="16.863"/><rect x="21.238" y="2.095" width="2" height="17.424"/><rect x="8.976" y="11.884" width="2" height="17.856"/></svg>