<svg xmlns="http://www.w3.org/2000/svg" viewBox="0 0 32 32"><!--! Font Icona - https://fonticona.com | License - https://fonticona.com/license | Copyright 2022 FontIcona.com --><path d="M29,27.139H3c-1.654,0-3-1.346-3-3V12.306c0-1.654,1.346-3,3-3h6.897c0.211,0,0.414-0.065,0.585-0.189l5.096-3.687c0.516-0.372,1.124-0.568,1.758-0.568H29c1.654,0,3,1.346,3,3v16.277C32,25.793,30.654,27.139,29,27.139z M3,11.306c-0.551,0-1,0.448-1,1v11.833c0,0.552,0.449,1,1,1h26c0.551,0,1-0.448,1-1V7.861c0-0.552-0.449-1-1-1H17.336c-0.212,0-0.415,0.065-0.587,0.19l-5.094,3.685c-0.514,0.372-1.122,0.569-1.758,0.569H3z"/><path d="M20.889,23.438c-4.185,0-7.589-3.404-7.589-7.589s3.405-7.589,7.589-7.589s7.589,3.404,7.589,7.589S25.074,23.438,20.889,23.438z M20.889,10.261c-3.082,0-5.589,2.507-5.589,5.589s2.507,5.589,5.589,5.589c3.082,0,5.589-2.507,5.589-5.589S23.971,10.261,20.889,10.261z"/><path d="M8.911,7.072H1.633c-0.552,0-1-0.447-1-1s0.448-1,1-1h7.278c0.552,0,1,0.447,1,1S9.463,7.072,8.911,7.072z"/></svg>