<svg xmlns="http://www.w3.org/2000/svg" viewBox="0 0 32 32"><!--! Font Icona - https://fonticona.com | License - https://fonticona.com/license | Copyright 2022 FontIcona.com --><path d="M16,26.213c-7.227,0-13.106-5.88-13.106-13.106S8.773,0,16,0s13.106,5.88,13.106,13.106S23.227,26.213,16,26.213z M16,2C9.876,2,4.894,6.983,4.894,13.107S9.876,24.213,16,24.213s11.106-4.982,11.106-11.106S22.124,2,16,2z"/><path d="M16,19.894c-3.742,0-6.787-3.045-6.787-6.787S12.258,6.319,16,6.319s6.787,3.045,6.787,6.787S19.742,19.894,16,19.894z M16,8.319c-2.64,0-4.787,2.147-4.787,4.787S13.36,17.894,16,17.894s4.787-2.147,4.787-4.787S18.64,8.319,16,8.319z"/><path d="M16,16.144c-1.675,0-3.037-1.362-3.037-3.037s1.362-3.037,3.037-3.037s3.037,1.362,3.037,3.037S17.675,16.144,16,16.144z M16,12.069c-0.572,0-1.037,0.465-1.037,1.037s0.465,1.037,1.037,1.037s1.037-0.465,1.037-1.037S16.572,12.069,16,12.069z"/><rect x="3.902" y="12.107" width="6.311" height="2"/><rect x="21.787" y="12.107" width="6.319" height="2"/><circle cx="16.064" cy="4.072" r="1.25"/><path d="M27.373,32H4.492c-0.321,0-0.622-0.153-0.81-0.413c-0.188-0.26-0.24-0.594-0.14-0.898c0.062-0.188,1.581-4.609,8.375-7.012c0.521-0.186,1.092,0.088,1.276,0.609c0.184,0.521-0.089,1.092-0.609,1.275C8.929,26.855,7.065,28.741,6.173,30h19.585c-0.83-1.247-2.62-3.141-6.289-4.438c-0.521-0.184-0.793-0.755-0.609-1.275c0.184-0.521,0.754-0.796,1.276-0.609c6.82,2.411,8.146,6.863,8.199,7.052c0.085,0.302,0.024,0.625-0.165,0.875S27.686,32,27.373,32z"/></svg>