<svg xmlns="http://www.w3.org/2000/svg" viewBox="0 0 32 32"><!--! Font Icona - https://fonticona.com | License - https://fonticona.com/license | Copyright 2022 FontIcona.com --><path d="M14.513,20.626c-5.338,0-14.371-0.938-14.371-4.452c0-3.514,9.033-4.451,14.371-4.451v2c-8.201,0-12.174,1.766-12.373,2.469c0.199,0.668,4.171,2.435,12.373,2.435s12.174-1.767,12.374-2.47c-0.054-0.153-0.753-0.833-3.184-1.458l0.498-1.938c3.108,0.8,4.684,1.948,4.684,3.413C28.885,19.689,19.851,20.626,14.513,20.626z"/><path d="M14.479,32c-4.44,0-7.765-0.91-7.904-0.948c-4.811-1.065-5.841-4.274-5.706-5.82l-0.004-7.55h2v7.637c-0.009,0.186-0.112,2.839,4.194,3.793C7.141,29.133,10.326,30,14.479,30c4.33,0,7.324-0.862,7.354-0.871c4.372-0.972,4.27-3.625,4.263-3.738l-0.002-7.709h2v7.637c0.13,1.459-0.9,4.668-5.762,5.746C22.266,31.086,19.117,32,14.479,32z"/><path d="M21.928,15.471c-0.858,0-1.734-0.048-2.609-0.143c-3.735-0.405-8.1-2.51-9.432-6.298c-0.447-1.27-0.536-3.259,0.158-4.605c1.318-2.558,3.942-4.117,7.387-4.393c2.182-0.175,4.678,0.328,7.639,1.534c2.208,0.899,4.481,2.886,4.242,5.763c-0.13,1.561-0.989,2.33-1.688,2.702c-1.632,0.866-3.973,0.431-5.593-0.152c0.019,0.407,0.105,0.8,0.268,1.148c0.28,0.602,0.797,1.095,1.581,1.508c0.09,0.048,0.218,0.087,0.354,0.134c0.579,0.202,1.3,0.453,1.604,1.134l0.421,0.942l-0.955,0.392c-0.813,0.333-1.832,0.324-2.625,0.33l-0.419,0.002C22.149,15.471,22.038,15.471,21.928,15.471z M18.289,1.999c-0.238,0-0.471,0.009-0.699,0.027c-1.931,0.153-4.5,0.854-5.768,3.314c-0.396,0.769-0.345,2.185-0.049,3.025c1.038,2.951,4.75,4.646,7.759,4.974c0.731,0.079,1.461,0.123,2.177,0.13c-0.536-0.465-0.945-0.999-1.225-1.599c-1.081-2.323-0.168-5.564,1.993-7.079c0.782-0.548,1.69-0.878,2.639-0.984c-0.263-0.15-0.533-0.28-0.801-0.39C21.977,2.466,19.997,1.999,18.289,1.999z M22.438,7.9c1.35,0.534,3.283,0.88,4.247,0.365c0.264-0.14,0.574-0.392,0.633-1.102c0.035-0.418-0.025-0.81-0.157-1.173c-1.233-0.407-2.547-0.254-3.536,0.44C23.12,6.785,22.714,7.308,22.438,7.9z"/><path d="M28.459,12.73c-1.653,0-2.997-1.345-2.997-2.997h2c0,0.55,0.447,0.997,0.997,0.997s0.997-0.447,0.997-0.997s-0.447-0.997-0.997-0.997v-2c1.653,0,2.997,1.345,2.997,2.997S30.112,12.73,28.459,12.73z"/><path d="M17.43,31.837c-0.552,0-1-0.447-1-1V19.695c0-0.553,0.448-1,1-1s1,0.447,1,1v11.143C18.43,31.39,17.982,31.837,17.43,31.837z"/><path d="M22.947,30.869c-0.552,0-1-0.447-1-1V18.819c0-0.553,0.448-1,1-1s1,0.447,1,1v11.051C23.947,30.422,23.5,30.869,22.947,30.869z"/><path d="M11.914,31.837c-0.552,0-1-0.447-1-1V19.855c0-0.553,0.448-1,1-1s1,0.447,1,1v10.982C12.914,31.39,12.466,31.837,11.914,31.837z"/><path d="M6.396,30.963c-0.552,0-1-0.447-1-1V19.341c0-0.553,0.448-1,1-1s1,0.447,1,1v10.622C7.396,30.516,6.949,30.963,6.396,30.963z"/></svg>