<svg xmlns="http://www.w3.org/2000/svg" viewBox="0 0 32 32"><!--! Font Icona - https://fonticona.com | License - https://fonticona.com/license | Copyright 2022 FontIcona.com --><path d="M16,24.5c-0.373,0-0.716-0.208-0.888-0.539l-1.273-2.454l-4.107,0.7c-0.311,0.055-0.63-0.043-0.859-0.263c-0.229-0.219-0.34-0.532-0.301-0.846l0.234-1.884l-4.768-3.862c-0.228-0.185-0.362-0.46-0.37-0.753c-0.007-0.292,0.114-0.573,0.333-0.77l0.864-0.774l-0.792-2.475c-0.108-0.339-0.029-0.709,0.209-0.974c0.237-0.264,0.6-0.38,0.945-0.311l2.286,0.472l0.843-1.104c0.171-0.224,0.43-0.365,0.71-0.389c0.283-0.029,0.56,0.071,0.766,0.264l0.792,0.735l-0.522-3.657c-0.054-0.379,0.112-0.755,0.429-0.97c0.316-0.214,0.729-0.229,1.059-0.039l1.219,0.698l0.116-0.035l2.128-4.685C15.214,0.229,15.569,0,15.962,0s0.824,0.229,0.986,0.587l2.128,4.685l0.116,0.035l1.219-0.698c0.332-0.19,0.743-0.175,1.059,0.039c0.316,0.215,0.482,0.591,0.429,0.97l-0.522,3.657l0.792-0.735c0.206-0.192,0.483-0.295,0.766-0.264c0.28,0.023,0.539,0.165,0.71,0.389l0.843,1.104l2.286-0.472c0.35-0.069,0.708,0.047,0.945,0.311c0.238,0.265,0.317,0.635,0.209,0.974l-0.792,2.475l0.864,0.774c0.219,0.196,0.34,0.478,0.333,0.77c-0.008,0.293-0.143,0.568-0.37,0.753l-4.768,3.862l0.234,1.884c0.039,0.313-0.072,0.627-0.301,0.846c-0.229,0.22-0.548,0.317-0.859,0.263l-4.107-0.7l-1.273,2.454C16.716,24.292,16.373,24.5,16,24.5z M14.39,19.398c0.369,0,0.714,0.204,0.888,0.539L16,21.33l0.723-1.393c0.2-0.385,0.624-0.598,1.056-0.524l3.5,0.597l-0.137-1.1c-0.043-0.342,0.095-0.683,0.362-0.9l4.287-3.473l-0.473-0.424c-0.294-0.264-0.405-0.675-0.285-1.05l0.468-1.462l-1.226,0.253c-0.376,0.075-0.764-0.067-0.997-0.372l-0.556-0.729l-2.055,1.91c-0.312,0.288-0.771,0.351-1.144,0.153c-0.376-0.196-0.587-0.607-0.527-1.027l0.636-4.452c-0.198,0.065-0.409,0.068-0.61,0.008l-0.962-0.294c-0.274-0.084-0.5-0.281-0.618-0.543L16,3.334l-1.442,3.175c-0.118,0.262-0.344,0.459-0.618,0.543l-0.962,0.294c-0.202,0.061-0.413,0.058-0.61-0.008l0.636,4.452c0.06,0.42-0.151,0.831-0.527,1.027c-0.373,0.197-0.833,0.135-1.144-0.153l-2.055-1.91l-0.556,0.729c-0.233,0.305-0.621,0.447-0.997,0.372l-1.226-0.253l0.468,1.462c0.12,0.375,0.009,0.786-0.285,1.05l-0.473,0.424l4.287,3.473c0.268,0.218,0.405,0.559,0.362,0.9l-0.137,1.1l3.5-0.597C14.278,19.403,14.334,19.398,14.39,19.398z"/><path d="M16,32c-0.553,0-1-0.447-1-1v-8.075c0-0.553,0.447-1,1-1s1,0.447,1,1V31C17,31.553,16.553,32,16,32z"/></svg>