<svg xmlns="http://www.w3.org/2000/svg" viewBox="0 0 32 32"><!--! Font Icona - https://fonticona.com | License - https://fonticona.com/license | Copyright 2022 FontIcona.com --><path d="M24.863,22.511H7.159c-1.654,0-3-1.346-3-3V8.783c0-1.654,1.346-3,3-3h17.704c1.654,0,3,1.346,3,3v10.728C27.863,21.165,26.517,22.511,24.863,22.511z M7.159,7.783c-0.551,0-1,0.448-1,1v10.728c0,0.552,0.449,1,1,1h17.704c0.551,0,1-0.448,1-1V8.783c0-0.552-0.449-1-1-1H7.159z"/><path d="M27.501,26.068H4.499c-0.552,0-1-0.447-1-1s0.448-1,1-1h23.003c0.552,0,1,0.447,1,1S28.054,26.068,27.501,26.068z"/><path d="M6.212,32c-0.177,0-0.356-0.047-0.519-0.146c-0.472-0.287-0.621-0.902-0.334-1.374l3.61-5.932c0.286-0.472,0.902-0.622,1.374-0.335c0.472,0.287,0.621,0.902,0.334,1.374l-3.61,5.932C6.879,31.829,6.549,32,6.212,32z"/><path d="M25.777,32c-0.338,0-0.668-0.171-0.856-0.481l-3.6-5.932c-0.287-0.472-0.136-1.087,0.336-1.373c0.473-0.287,1.088-0.137,1.374,0.336l3.6,5.932c0.287,0.472,0.136,1.087-0.336,1.373C26.133,31.953,25.954,32,25.777,32z"/><path d="M15.798,30.978c-0.552,0-1-0.447-1-1v-4.909c0-0.553,0.448-1,1-1s1,0.447,1,1v4.909C16.798,30.53,16.35,30.978,15.798,30.978z"/><path d="M22.177,4.226H9.823c-0.552,0-1-0.447-1-1s0.448-1,1-1h12.354c0.552,0,1,0.447,1,1S22.729,4.226,22.177,4.226z"/><path d="M16,4.098c-0.552,0-1-0.447-1-1V1c0-0.553,0.448-1,1-1s1,0.447,1,1v2.098C17,3.65,16.552,4.098,16,4.098z"/></svg>