<svg xmlns="http://www.w3.org/2000/svg" viewBox="0 0 32 32"><!--! Font Icona - https://fonticona.com | License - https://fonticona.com/license | Copyright 2022 FontIcona.com --><path d="M1.916,25.509c-0.402,0-0.774-0.244-0.928-0.63C0.94,24.758-3.666,12.792,7.69,7.833c0.047-0.021,0.095-0.037,0.144-0.051c0.111-0.026,10.843-2.735,15.637,8.453c0.15,0.351,0.088,0.757-0.161,1.046c-0.176,0.204-4.48,5.013-21.205,8.21C2.042,25.503,1.979,25.509,1.916,25.509z M8.415,9.7c-8.043,3.564-6.562,11.185-5.83,13.66c12.534-2.5,17.387-5.817,18.762-6.969C17.289,7.868,9.312,9.485,8.415,9.7z"/><path d="M24.598,22.971c-0.454,0-0.934-0.021-1.442-0.065l-8.008-1.112c-0.547-0.076-0.929-0.581-0.853-1.128c0.075-0.547,0.579-0.936,1.128-0.853l7.957,1.106c3.417,0.293,5.147-0.64,5.981-1.421l-7.069-1.903c-0.533-0.144-0.85-0.692-0.706-1.226c0.144-0.533,0.694-0.85,1.226-0.706l8.448,2.274c0.269,0.072,0.495,0.254,0.625,0.5s0.151,0.535,0.059,0.798C31.886,19.399,30.554,22.971,24.598,22.971z"/><path d="M1.156,22.415c-0.445,0-0.852-0.3-0.968-0.751c-0.138-0.535,0.185-1.08,0.72-1.218l3.28-0.844c0.53-0.135,1.08,0.185,1.218,0.72s-0.185,1.08-0.72,1.218l-3.28,0.844C1.323,22.406,1.239,22.415,1.156,22.415z"/><path d="M5.352,9.729C5.146,9.103,5.197,8.434,5.495,7.845S6.303,6.82,6.93,6.615C7.555,6.41,8.225,6.46,8.813,6.758c0.588,0.298,1.025,0.808,1.229,1.435l-1.9,0.621C8.09,8.654,7.974,8.575,7.909,8.542C7.844,8.509,7.713,8.46,7.552,8.515c-0.161,0.053-0.24,0.169-0.272,0.233c-0.033,0.064-0.08,0.197-0.027,0.357L5.352,9.729z"/><path d="M16.488,20.011c-1.729-5.211-4.431-8.69-8.03-10.343L9.292,7.85c4.124,1.894,7.184,5.773,9.095,11.532L16.488,20.011z"/><path d="M8.374,23.214c-2.016-2.832-5.45-11.768-1.245-15.112l1.244,1.564c-2.807,2.233-0.216,9.794,1.63,12.388L8.374,23.214z"/></svg>