<svg xmlns="http://www.w3.org/2000/svg" viewBox="0 0 32 32"><!--! Font Icona - https://fonticona.com | License - https://fonticona.com/license | Copyright 2022 FontIcona.com --><rect x="14.998" y="22.072" width="2" height="6.505"/><path d="M25.499,29.577L6.9,29.567l0.001-2L25.5,27.577c2.481,0,4.5-2.019,4.5-4.501V22.06c0-2.482-2.019-4.5-4.501-4.5H21.51v-2.001h3.989c3.584,0,6.501,2.916,6.501,6.5v1.017C32,26.661,29.084,29.577,25.499,29.577z"/><rect x="12.575" y="9.99" transform="matrix(0.7071 -0.7071 0.7071 0.7071 -7.3366 14.2845)" width="2" height="12.017"/><path d="M7.215,29.577c-1.737,0-3.369-0.676-4.596-1.905l-0.718-0.718c-2.534-2.535-2.534-6.659,0-9.194L15.337,4.324c2.534-2.535,6.657-2.536,9.194,0l0.718,0.718c1.228,1.228,1.905,2.86,1.905,4.597c0,1.736-0.677,3.369-1.905,4.596L11.812,27.673C10.584,28.901,8.952,29.577,7.215,29.577z M19.934,4.422c-1.153,0-2.306,0.439-3.183,1.316L3.315,19.176c-1.754,1.755-1.754,4.61,0,6.365l0.719,0.718c0.849,0.851,1.979,1.319,3.182,1.319s2.332-0.468,3.183-1.319l13.436-13.438c0.851-0.85,1.319-1.98,1.319-3.182c0-1.202-0.468-2.332-1.319-3.183l-0.718-0.718C22.239,4.861,21.085,4.422,19.934,4.422z"/><path d="M15.615,11.479c-0.253,0-0.505-0.095-0.7-0.286c-0.394-0.387-0.4-1.02-0.014-1.414l2.164-2.207c1.266-1.283,3.347-1.312,4.645-0.063c0.398,0.383,0.41,1.016,0.027,1.414c-0.383,0.398-1.016,0.41-1.414,0.027c-0.51-0.491-1.332-0.482-1.832,0.024l-2.162,2.205C16.133,11.379,15.874,11.479,15.615,11.479z"/><path d="M6.673,20.377c-0.256,0-0.512-0.098-0.708-0.293c-0.39-0.391-0.39-1.024,0-1.414l2.024-2.023c0.391-0.39,1.024-0.39,1.415,0c0.39,0.391,0.39,1.024,0,1.414L7.38,20.084C7.185,20.279,6.929,20.377,6.673,20.377z"/><path d="M25.124,21.313h-2.861c-0.553,0-1-0.447-1-1s0.447-1,1-1h2.861c0.553,0,1,0.447,1,1S25.677,21.313,25.124,21.313z"/></svg>