<svg xmlns="http://www.w3.org/2000/svg" viewBox="0 0 32 32"><!--! Font Icona - https://fonticona.com | License - https://fonticona.com/license | Copyright 2022 FontIcona.com --><path d="M25.835,16.391c-0.466,0-0.883-0.327-0.979-0.801c-0.492-2.426-1.462-5.721-1.472-5.754c-0.025-0.069-0.096-0.12-0.133-0.125L8.683,9.711c0.002,0.004-0.068,0.056-0.086,0.09c-0.018,0.067-0.988,3.364-1.479,5.788c-0.11,0.541-0.633,0.891-1.18,0.781c-0.541-0.11-0.891-0.638-0.781-1.179c0.51-2.511,1.474-5.785,1.515-5.923c0.195-0.833,1.051-1.525,1.977-1.558l14.643,0c0.961,0.033,1.816,0.726,2.025,1.611c0.027,0.085,0.991,3.359,1.501,5.87c0.109,0.541-0.24,1.069-0.781,1.179C25.968,16.385,25.9,16.391,25.835,16.391z"/><path d="M8.402,27.348c-0.024,0-0.048-0.001-0.069-0.002l-3.727,0c-0.84,0.023-1.361-0.348-1.619-0.66c-0.438-0.53-0.425-1.155-0.388-1.442l0.002-6.994c-0.007-0.042-0.072-1.179,0.905-2.288c1.092-1.239,3.003-1.925,5.681-2.038l13.556-0.001c2.72,0.114,4.631,0.8,5.723,2.039c0.978,1.109,0.912,2.246,0.901,2.372l0.006,6.908c0.037,0.288,0.052,0.912-0.387,1.443c-0.258,0.312-0.736,0.697-1.643,0.66l-3.704,0.001c-0.21,0.008-0.567-0.021-0.912-0.289c-0.379-0.295-0.594-0.752-0.637-1.361L22.09,25.46H9.885v0.165c-0.045,0.679-0.259,1.137-0.638,1.432C8.937,27.297,8.615,27.348,8.402,27.348z M7.872,25.659L7.872,25.659L7.872,25.659z M24.101,25.658h0.01H24.101z M23.43,25.361c-0.001,0-0.001,0-0.002,0C23.429,25.361,23.429,25.361,23.43,25.361z M8.542,25.361c0.001,0,0.002,0,0.003,0C8.544,25.361,8.543,25.361,8.542,25.361z M4.6,25.346h3.287L7.885,24.46c0-0.552,0.447-1,1-1h14.203c0.553,0,1,0.448,1,1v0.886l3.278,0c0.002,0,0.005,0,0.007,0c0-0.008,0-0.017,0-0.025l-0.002-7.07c0.003-0.14-0.01-2.131-4.67-2.329L9.229,15.922c-4.618,0.197-4.631,2.188-4.63,2.272v7.125C4.6,25.328,4.6,25.337,4.6,25.346z"/><path d="M3.781,17.974H2.54c-1.4,0-2.54-1.157-2.54-2.579v-0.15c0-1.422,1.14-2.579,2.54-2.579h2.126c1.104,0,2.102,0.748,2.428,1.82c0.16,0.528-0.138,1.087-0.666,1.248c-0.529,0.163-1.087-0.137-1.248-0.666c-0.071-0.236-0.283-0.402-0.514-0.402H2.54c-0.293,0-0.54,0.265-0.54,0.579v0.15c0,0.313,0.247,0.579,0.54,0.579h1.241c0.553,0,1,0.448,1,1S4.334,17.974,3.781,17.974z"/><path d="M29.452,17.974h-1.233c-0.553,0-1-0.448-1-1s0.447-1,1-1h1.233c0.297,0,0.548-0.265,0.548-0.579v-0.15c0-0.313-0.251-0.579-0.548-0.579h-2.138c-0.234,0-0.449,0.167-0.522,0.405c-0.162,0.527-0.719,0.826-1.25,0.662c-0.528-0.163-0.824-0.722-0.662-1.25c0.334-1.087,1.312-1.817,2.435-1.817h2.138c1.405,0,2.548,1.157,2.548,2.579v0.15C32,16.817,30.857,17.974,29.452,17.974z"/><ellipse cx="8.451" cy="18.665" rx="1.5" ry="1.448"/><ellipse cx="23.62" cy="18.665" rx="1.5" ry="1.448"/><path d="M20.78,25.46c-0.553,0-1-0.448-1-1v-1.648H12.22v1.648c0,0.552-0.447,1-1,1s-1-0.448-1-1v-2.648c0-0.552,0.447-1,1-1h9.561c0.553,0,1,0.448,1,1v2.648C21.78,25.012,21.333,25.46,20.78,25.46z"/><path d="M19.181,9.722h-6.389c-0.553,0-1-0.448-1-1v-3.07c0-0.552,0.447-1,1-1h6.389c0.553,0,1,0.448,1,1v3.07C20.181,9.274,19.733,9.722,19.181,9.722z M13.792,7.722h4.389v-1.07h-4.389V7.722z"/></svg>