<svg xmlns="http://www.w3.org/2000/svg" viewBox="0 0 32 32"><!--! Font Icona - https://fonticona.com | License - https://fonticona.com/license | Copyright 2022 FontIcona.com --><path d="M5.207,22.616c-0.329,0-0.651-0.162-0.842-0.459c-0.855-1.33-1.958-3.315-2.733-4.747c-0.636-1.175-0.428-2.601,0.519-3.547l9.282-9.282c0.947-0.947,2.42-1.152,3.586-0.497c1.403,0.787,3.351,1.903,4.669,2.751c0.464,0.298,0.599,0.917,0.3,1.382c-0.298,0.464-0.917,0.6-1.382,0.3c-1.276-0.82-3.187-1.915-4.565-2.688c-0.388-0.217-0.878-0.148-1.193,0.167l-9.282,9.282c-0.315,0.315-0.385,0.79-0.174,1.181c0.758,1.401,1.835,3.339,2.657,4.618c0.298,0.464,0.164,1.083-0.301,1.382C5.58,22.564,5.392,22.616,5.207,22.616z"/><path d="M11.191,32.03c-0.388,0-0.776-0.155-1.086-0.464l-5.379-5.379c-0.046-0.037-0.892-0.814-0.97-2.305c-0.087-1.657,0.792-3.49,2.611-5.447l9.496-9.496c1.983-1.845,3.808-2.719,5.473-2.637c1.491,0.078,2.269,0.924,2.352,1.02l5.332,5.329c0.619,0.62,0.619,1.554,0,2.172l-2.955,2.955c-0.595,0.598-1.574,0.599-2.172,0l-0.277-0.277l-8.587,8.587l0.278,0.278c0.298,0.298,0.463,0.683,0.463,1.085c0,0.402-0.164,0.788-0.463,1.087l-3.03,3.03C11.968,31.875,11.58,32.03,11.191,32.03z M21.1,8.299c-0.802,0-2.056,0.411-3.848,2.078l-9.444,9.445c-3.162,3.401-1.758,4.862-1.696,4.922l5.08,5.079l2.374-2.374l-0.657-0.657c-0.391-0.391-0.391-1.023,0-1.414L22.91,15.377c0.391-0.391,1.023-0.391,1.414,0l0.657,0.656l2.298-2.298l-5.051-5.051C22.186,8.642,21.831,8.299,21.1,8.299z M13.894,27.778h0.01H13.894z"/><path d="M2.745,26.747c-0.042,0-0.083-0.001-0.125-0.003c-0.66-0.032-1.284-0.31-1.758-0.785l-0.074-0.073c-1.019-1.019-1.052-2.639-0.078-3.613l1.516-1.516c0.775-0.776,1.998-0.979,2.972-0.49c0.494,0.247,0.694,0.848,0.447,1.341c-0.247,0.494-0.848,0.696-1.341,0.447c-0.203-0.101-0.5-0.048-0.664,0.116l-1.516,1.516c-0.211,0.211-0.131,0.575,0.076,0.783l0.074,0.073c0.122,0.123,0.282,0.196,0.441,0.203c0.14,0.009,0.254-0.035,0.343-0.125l0.758-0.758c0.391-0.39,1.024-0.39,1.415,0c0.39,0.391,0.39,1.024,0,1.415l-0.758,0.757C4.013,26.496,3.402,26.747,2.745,26.747z"/><path d="M18.693,8.221c-0.367,0-0.72-0.202-0.896-0.553c-0.487-0.975-0.286-2.197,0.49-2.973l1.515-1.516c0.491-0.49,1.14-0.742,1.854-0.708c0.66,0.032,1.284,0.31,1.758,0.785l0.075,0.076c0.475,0.474,0.753,1.098,0.785,1.758c0.033,0.705-0.218,1.363-0.709,1.854L22.809,7.7c-0.391,0.391-1.024,0.39-1.415,0c-0.391-0.391-0.391-1.024,0-1.415l0.757-0.758c0.09-0.09,0.132-0.206,0.125-0.344c-0.007-0.159-0.081-0.319-0.201-0.438L22,4.67c-0.208-0.208-0.571-0.289-0.783-0.076l-1.515,1.515c-0.165,0.165-0.216,0.462-0.115,0.664c0.247,0.494,0.047,1.095-0.447,1.342C18.996,8.187,18.843,8.221,18.693,8.221z"/><path d="M9.376,24.603c-0.535,0-1.037-0.208-1.415-0.586c-0.377-0.376-0.585-0.879-0.585-1.414c0-0.534,0.208-1.036,0.586-1.414c0.779-0.78,2.049-0.78,2.828,0c0.78,0.78,0.78,2.048,0,2.828C10.412,24.395,9.91,24.603,9.376,24.603z M9.375,22.604L9.375,22.604L9.375,22.604z M9.375,22.604L9.375,22.604L9.375,22.604z M9.375,22.604L9.375,22.604L9.375,22.604z M9.375,22.604L9.375,22.604C9.375,22.604,9.375,22.604,9.375,22.604z M9.376,22.604L9.376,22.604L9.376,22.604z M9.376,22.603L9.376,22.603C9.376,22.604,9.376,22.604,9.376,22.603z M9.376,22.603L9.376,22.603L9.376,22.603z"/><path d="M20.134,13.844c-0.512,0-1.024-0.195-1.414-0.585c-0.78-0.78-0.78-2.048,0-2.828c0.779-0.78,2.049-0.78,2.828,0c0.78,0.78,0.78,2.048,0,2.828C21.159,13.649,20.646,13.844,20.134,13.844z"/><path d="M15.455,25.075c-0.426,0-0.869-0.188-1.239-0.557l-1.064-1.064c-0.296-0.296-0.479-0.683-0.517-1.09c-0.041-0.452,0.099-0.875,0.385-1.16l5.638-5.638c0.329-0.329,0.785-0.477,1.25-0.403c0.361,0.057,0.707,0.242,1,0.535l1.063,1.063c0.293,0.292,0.478,0.638,0.535,1c0.073,0.465-0.074,0.921-0.403,1.25l-5.638,5.638C16.181,24.934,15.824,25.075,15.455,25.075z M14.79,22.263l0.617,0.617l4.928-4.928l-0.617-0.618L14.79,22.263z"/><path d="M31,21.906h-5.487c-0.552,0-1-0.448-1-1s0.448-1,1-1H31c0.552,0,1,0.448,1,1S31.552,21.906,31,21.906z"/><path d="M27.089,28.089c-0.256,0-0.512-0.098-0.707-0.293l-3.88-3.88c-0.391-0.391-0.391-1.023,0-1.414s1.023-0.391,1.414,0l3.88,3.88c0.391,0.391,0.391,1.023,0,1.414C27.601,27.992,27.345,28.089,27.089,28.089z"/><path d="M20.906,32c-0.552,0-1-0.448-1-1v-5.487c0-0.552,0.448-1,1-1s1,0.448,1,1V31C21.906,31.552,21.458,32,20.906,32z"/></svg>