<svg xmlns="http://www.w3.org/2000/svg" viewBox="0 0 32 32"><!--! Font Icona - https://fonticona.com | License - https://fonticona.com/license | Copyright 2022 FontIcona.com --><path d="M6.533,25.122c-0.35,0-0.705-0.04-1.061-0.122c-1.548-0.321-2.832-1.472-3.342-2.975c-0.224-0.077-0.447-0.162-0.67-0.246c-0.676-0.241-1.178-0.818-1.32-1.511c-0.219-0.87-0.186-1.825,0.104-2.719c0.466-1.512,1.454-2.817,2.782-3.675c1.505-0.979,3.169-1.63,4.943-1.931c0.174-0.213,0.407-0.479,0.641-0.743c2.17-2.474,5.165-3.976,8.438-4.234c1.201-0.115,2.437-0.115,3.655,0.001c1.37,0.098,2.745,0.385,4.062,0.851c2.281,0.761,4.25,2.316,5.527,4.373c1.351,2.286,1.925,4.975,1.629,7.591c-0.038,0.786-0.542,1.539-1.31,1.901c-0.385,0.171-0.768,0.318-1.151,0.444c-0.888,2.269-3.405,3.492-5.759,2.746c-1.251-0.397-2.259-1.289-2.809-2.452H10.722C9.966,24.083,8.322,25.122,6.533,25.122z M3.008,20.21c0.498,0.123,0.883,0.531,0.971,1.041c0.217,0.867,0.978,1.6,1.923,1.796c1.335,0.308,2.644-0.414,3.09-1.678c0.15-0.583,0.699-0.992,1.306-0.948h11.286c0.447,0,0.84,0.297,0.962,0.728c0.245,0.866,0.903,1.545,1.761,1.818c1.392,0.441,2.879-0.32,3.339-1.699c0.121-0.487,0.506-0.866,1.002-0.978c0.338-0.103,0.742-0.252,1.132-0.426c0.079-0.038,0.144-0.135,0.15-0.244c0.252-2.25-0.228-4.498-1.348-6.392c-1.021-1.643-2.611-2.898-4.466-3.518c-1.166-0.412-2.365-0.662-3.58-0.75c-1.115-0.107-2.222-0.107-3.314-0.002c-2.767,0.219-5.284,1.481-7.103,3.555c-0.281,0.317-0.553,0.623-0.847,0.905c-0.264,0.247-0.579,0.412-0.92,0.487c-1.551,0.264-2.96,0.815-4.237,1.646c-0.938,0.606-1.634,1.526-1.961,2.593c-0.002,0.005-0.003,0.011-0.005,0.016C1.973,18.7,1.953,19.276,2.09,19.826c0.006,0.002,0.07,0.081,0.076,0.083C2.448,20.015,2.728,20.121,3.008,20.21z M29.216,22.205c-0.021,0.007-0.042,0.013-0.063,0.019C29.174,22.219,29.195,22.213,29.216,22.205z M2.023,21.661c0.004,0.025,0.01,0.05,0.019,0.075C2.036,21.711,2.029,21.686,2.023,21.661z M1.198,17.851h0.01H1.198z"/></svg>