<svg xmlns="http://www.w3.org/2000/svg" viewBox="0 0 32 32"><!--! Font Icona - https://fonticona.com | License - https://fonticona.com/license | Copyright 2022 FontIcona.com --><path d="M29,28.245H3c-1.654,0-3-1.346-3-3V9.627c0-1.654,1.346-3,3-3h26c1.654,0,3,1.346,3,3v15.618C32,26.899,30.654,28.245,29,28.245z M3,8.627c-0.551,0-1,0.449-1,1v15.618c0,0.551,0.449,1,1,1h26c0.551,0,1-0.449,1-1V9.627c0-0.551-0.449-1-1-1H3z"/><path d="M11.05,14.562H4.921c-0.552,0-1-0.448-1-1s0.448-1,1-1h6.129c0.552,0,1,0.448,1,1S11.603,14.562,11.05,14.562z"/><path d="M27.119,14.56h-6.118c-0.552,0-1-0.448-1-1s0.448-1,1-1h6.118c0.552,0,1,0.448,1,1S27.671,14.56,27.119,14.56z"/><path d="M24.06,17.619c-0.552,0-1-0.448-1-1v-6.118c0-0.552,0.448-1,1-1s1,0.448,1,1v6.118C25.06,17.171,24.612,17.619,24.06,17.619z"/><path d="M11.05,8.627c-0.552,0-1-0.448-1-1V6.899c0-0.631-0.564-1.144-1.257-1.144H7.178c-0.693,0-1.257,0.513-1.257,1.144v0.728c0,0.552-0.448,1-1,1s-1-0.448-1-1V6.899c0-1.733,1.461-3.144,3.257-3.144h1.615c1.796,0,3.257,1.411,3.257,3.144v0.728C12.05,8.179,11.603,8.627,11.05,8.627z"/><path d="M27.119,8.627c-0.552,0-1-0.448-1-1V6.755c0-0.551-0.558-1-1.244-1h-1.63c-0.686,0-1.244,0.449-1.244,1v0.872c0,0.552-0.448,1-1,1s-1-0.448-1-1V6.755c0-1.654,1.455-3,3.244-3h1.63c1.789,0,3.244,1.346,3.244,3v0.872C28.119,8.179,27.671,8.627,27.119,8.627z"/></svg>