<svg xmlns="http://www.w3.org/2000/svg" viewBox="0 0 32 32"><!--! Font Icona - https://fonticona.com | License - https://fonticona.com/license | Copyright 2022 FontIcona.com --><path d="M6.144,14.804c-0.07,0-0.142-0.007-0.213-0.023c-0.54-0.117-0.882-0.65-0.765-1.189c0.337-1.55,0.96-3.732,1.424-5.29c0.38-1.28,1.536-2.141,2.875-2.141h13.127c1.338,0,2.525,0.898,2.887,2.184c0.436,1.547,1.024,3.713,1.357,5.247c0.117,0.54-0.225,1.072-0.765,1.189c-0.54,0.12-1.072-0.225-1.189-0.765c-0.323-1.485-0.9-3.609-1.328-5.129c-0.12-0.428-0.516-0.726-0.961-0.726H9.464c-0.446,0-0.831,0.286-0.958,0.711c-0.454,1.525-1.063,3.655-1.387,5.145C7.018,14.484,6.604,14.804,6.144,14.804z"/><path d="M27.786,25.839h-4.179c-0.875,0-1.536-0.66-1.536-1.536v-0.393H9.928v0.393c0,0.875-0.66,1.536-1.536,1.536H4.107c-0.875,0-1.536-0.66-1.536-1.536v-7.607c-0.006-0.059-0.055-1.206,0.944-2.315c1.11-1.234,3.027-1.909,5.699-2.006l13.429,0c2.708,0.098,4.625,0.772,5.735,2.006c0.999,1.109,0.95,2.256,0.941,2.384l0.002,7.539C29.322,25.179,28.662,25.839,27.786,25.839z M24.072,23.839h3.25v-7.143c0.001-0.127-0.038-2.152-4.715-2.322l-13.357,0c-4.641,0.169-4.68,2.194-4.68,2.281l0.001,7.184h3.357v-0.929c0-0.552,0.448-1,1-1h14.144c0.552,0,1,0.448,1,1V23.839z"/><path d="M3.571,16.411H2.5c-1.378,0-2.5-1.169-2.5-2.607v-0.107c0-1.438,1.122-2.607,2.5-2.607h2.143c1.097,0,2.104,0.722,2.449,1.755c0.175,0.524-0.108,1.09-0.632,1.265c-0.526,0.173-1.091-0.108-1.265-0.632c-0.071-0.214-0.318-0.388-0.551-0.388H2.5c-0.299,0-0.5,0.314-0.5,0.607v0.107c0,0.293,0.201,0.607,0.5,0.607h1.072c0.552,0,1,0.448,1,1S4.124,16.411,3.571,16.411z"/><path d="M29.5,16.411h-1.072c-0.552,0-1-0.448-1-1s0.448-1,1-1H29.5c0.299,0,0.5-0.314,0.5-0.607v-0.107c0-0.293-0.201-0.607-0.5-0.607h-2.143c-0.233,0-0.48,0.174-0.551,0.388c-0.175,0.524-0.744,0.806-1.265,0.632c-0.524-0.175-0.807-0.741-0.632-1.265c0.345-1.033,1.352-1.755,2.449-1.755H29.5c1.378,0,2.5,1.169,2.5,2.607v0.107C32,15.241,30.879,16.411,29.5,16.411z"/><circle cx="8.393" cy="17.45" r="2"/><circle cx="23.607" cy="17.45" r="2"/><path d="M19.933,23.911h-7.974c-0.868,0-1.499-0.708-1.499-1.684v-1.504c0-0.913,0.686-1.684,1.499-1.684h7.974c0.868,0,1.499,0.708,1.499,1.684v1.504C21.432,23.202,20.801,23.911,19.933,23.911z M12.461,21.911h6.97l0.001-0.873h-6.971V21.911z M19.933,21.038h0.01H19.933z"/></svg>