<svg xmlns="http://www.w3.org/2000/svg" viewBox="0 0 32 32"><!--! Font Icona - https://fonticona.com | License - https://fonticona.com/license | Copyright 2022 FontIcona.com --><path d="M27.63,29.898H14.931c-1.66,0-3.011-1.351-3.011-3.011V3.011C11.92,1.351,13.271,0,14.931,0H27.63c1.661,0,3.012,1.351,3.012,3.011v23.875C30.642,28.547,29.291,29.898,27.63,29.898z M14.931,2c-0.558,0-1.011,0.454-1.011,1.011v23.875c0,0.558,0.453,1.011,1.011,1.011H27.63c0.558,0,1.012-0.454,1.012-1.011V3.011C28.642,2.454,28.188,2,27.63,2H14.931z"/><path d="M8.269,32c-0.596,0-1.179-0.178-1.685-0.521c-0.667-0.452-1.117-1.135-1.27-1.922L1.412,9.247C1.261,8.459,1.427,7.658,1.879,6.991c0.452-0.667,1.135-1.118,1.923-1.27l8.458-1.625c0.539-0.105,1.065,0.25,1.171,0.793c0.104,0.542-0.251,1.066-0.794,1.17L4.179,7.685C3.916,7.736,3.687,7.888,3.534,8.112C3.382,8.337,3.326,8.606,3.377,8.869L7.279,29.18c0.05,0.263,0.202,0.492,0.427,0.645c0.224,0.151,0.492,0.208,0.756,0.158l10.753-2.066c0.54-0.107,1.065,0.25,1.171,0.793c0.104,0.542-0.251,1.066-0.794,1.17L8.84,31.946C8.649,31.982,8.459,32,8.269,32z"/><path d="M21.28,20.726L21.28,20.726c-0.272,0-0.534-0.111-0.723-0.309c-0.411-0.43-0.853-0.847-1.297-1.267c-1.097-1.038-2.23-2.11-3.059-3.459c-0.806-1.312-1.066-2.963-0.666-4.207c0.304-0.941,0.949-1.642,1.867-2.025c1.303-0.546,2.778-0.209,3.877,0.165c1.101-0.374,2.576-0.71,3.879-0.165c0.917,0.384,1.562,1.084,1.866,2.025c0.4,1.244,0.14,2.896-0.666,4.208c-0.828,1.349-1.964,2.422-3.061,3.46c-0.444,0.42-0.886,0.836-1.297,1.266C21.813,20.615,21.553,20.726,21.28,20.726z M18.923,11.173c-0.267,0-0.523,0.037-0.747,0.13c-0.379,0.158-0.612,0.411-0.735,0.794c-0.223,0.69-0.031,1.738,0.467,2.547c0.689,1.124,1.726,2.104,2.728,3.053c0.217,0.205,0.434,0.409,0.646,0.615c0.212-0.205,0.428-0.409,0.644-0.613c1.004-0.949,2.041-1.93,2.73-3.054c0.498-0.81,0.689-1.857,0.467-2.548c-0.123-0.383-0.356-0.636-0.734-0.794c-0.888-0.371-2.297,0.149-2.761,0.319c-0.223,0.082-0.469,0.082-0.691,0C20.588,11.496,19.713,11.173,18.923,11.173z"/><path d="M12.826,22.902c-0.275,0-0.551-0.114-0.748-0.336l-4.333-4.885c-0.246-0.277-0.318-0.667-0.188-1.014l2.285-6.116c0.123-0.329,0.408-0.569,0.754-0.633c0.346-0.065,0.698,0.057,0.931,0.319l2.147,2.421c0.366,0.413,0.329,1.045-0.084,1.412c-0.413,0.366-1.046,0.328-1.412-0.084l-1.045-1.177l-1.492,3.996l3.934,4.435c0.366,0.413,0.329,1.045-0.084,1.412C13.3,22.819,13.062,22.902,12.826,22.902z"/></svg>