<svg xmlns="http://www.w3.org/2000/svg" viewBox="0 0 32 32"><!--! Font Icona - https://fonticona.com | License - https://fonticona.com/license | Copyright 2022 FontIcona.com --><path d="M21.344,25.828c-0.296,0-0.595-0.062-0.881-0.189c-0.785-0.351-1.272-1.102-1.27-1.962V8.314c0-0.858,0.487-1.609,1.271-1.958c0.786-0.349,1.669-0.209,2.306,0.366l8.522,7.683C31.742,14.813,32,15.393,32,15.999c0,0.605-0.259,1.185-0.708,1.591l-8.521,7.683C22.365,25.639,21.86,25.828,21.344,25.828z M21.431,23.789l0.67,0.742L21.431,23.789l8.521-7.684C29.985,16.076,30,16.04,30,15.998c0-0.043-0.017-0.079-0.048-0.108l-8.521-7.683c-0.021-0.018-0.068-0.062-0.153-0.024s-0.085,0.103-0.085,0.13v15.365c0,0.03,0,0.096,0.085,0.133C21.365,23.85,21.411,23.806,21.431,23.789z"/><path d="M10.66,25.833c-0.515,0-1.019-0.189-1.424-0.555l-8.53-7.692C0.258,17.182,0,16.603,0,15.998s0.258-1.184,0.707-1.589l8.524-7.685c0,0,0,0,0,0c0.638-0.575,1.521-0.716,2.308-0.365c0.784,0.35,1.271,1.1,1.27,1.958v15.373c0,0.857-0.487,1.606-1.27,1.955C11.254,25.771,10.955,25.833,10.66,25.833z M10.57,8.208l-8.524,7.685C2.015,15.921,2,15.956,2,15.998s0.016,0.077,0.046,0.104l8.529,7.692c0.02,0.018,0.067,0.062,0.151,0.023c0.083-0.037,0.083-0.101,0.083-0.128V8.315c0-0.028,0-0.093-0.084-0.13C10.641,8.146,10.589,8.19,10.57,8.208L10.57,8.208z"/></svg>