<svg xmlns="http://www.w3.org/2000/svg" viewBox="0 0 32 32"><!--! Font Icona - https://fonticona.com | License - https://fonticona.com/license | Copyright 2022 FontIcona.com --><path d="M21.343,25.832c-0.295,0-0.594-0.062-0.879-0.189c-0.785-0.349-1.272-1.1-1.272-1.958V8.316c0-0.859,0.488-1.609,1.272-1.958c0.786-0.349,1.669-0.208,2.307,0.367l8.521,7.684C31.742,14.814,32,15.394,32,16s-0.258,1.186-0.708,1.592l-8.521,7.684h0C22.365,25.641,21.859,25.832,21.343,25.832z M21.341,8.17c-0.019,0-0.04,0.004-0.064,0.015c-0.085,0.038-0.085,0.104-0.085,0.131v15.367c0,0.028,0,0.093,0.085,0.131s0.134-0.006,0.155-0.025c0,0,0,0,0,0l8.521-7.684C29.984,16.078,30,16.042,30,16s-0.016-0.078-0.047-0.106L21.432,8.21C21.417,8.196,21.387,8.17,21.341,8.17z"/><path d="M10.657,25.832c-0.516,0-1.021-0.19-1.428-0.556l-8.521-7.684C0.258,17.186,0,16.606,0,16s0.258-1.186,0.708-1.592l8.521-7.684h0c0.638-0.575,1.522-0.716,2.307-0.367s1.272,1.1,1.272,1.958v15.367c0,0.859-0.488,1.609-1.272,1.958C11.25,25.769,10.952,25.832,10.657,25.832z M10.659,8.17c-0.046,0-0.076,0.026-0.09,0.04c0,0,0,0,0,0l-8.521,7.684C2.016,15.922,2,15.958,2,16s0.016,0.078,0.047,0.106l8.521,7.684c0.021,0.019,0.068,0.062,0.155,0.025c0.085-0.038,0.085-0.104,0.085-0.131V8.316c0-0.028,0-0.093-0.085-0.131C10.699,8.174,10.678,8.17,10.659,8.17z M9.899,7.467h0.01H9.899z"/><path d="M16,31.716c-0.552,0-1-0.448-1-1V1.284c0-0.552,0.448-1,1-1s1,0.448,1,1v29.432C17,31.268,16.552,31.716,16,31.716z"/></svg>