<svg xmlns="http://www.w3.org/2000/svg" viewBox="0 0 32 32"><!--! Font Icona - https://fonticona.com | License - https://fonticona.com/license | Copyright 2022 FontIcona.com --><path d="M25.927,32c-0.591,0-1.181-0.168-1.695-0.502c-0.001,0-0.001,0-0.001,0L4.379,18.605c-0.888-0.576-1.417-1.553-1.417-2.611c0-1.058,0.53-2.034,1.418-2.609L24.233,0.502c0.957-0.622,2.176-0.669,3.178-0.125c1.004,0.545,1.627,1.593,1.627,2.735v25.776c0,1.142-0.623,2.19-1.626,2.735C26.947,31.875,26.436,32,25.927,32z M25.321,29.82c0.346,0.225,0.771,0.243,1.136,0.045c0.364-0.197,0.581-0.563,0.581-0.977V3.112c0-0.414-0.217-0.779-0.581-0.977c-0.365-0.199-0.79-0.182-1.135,0.044L5.469,15.063c-0.322,0.209-0.506,0.548-0.506,0.932c0,0.384,0.184,0.724,0.506,0.932L25.321,29.82z"/></svg>