<svg xmlns="http://www.w3.org/2000/svg" viewBox="0 0 32 32"><!--! Font Icona - https://fonticona.com | License - https://fonticona.com/license | Copyright 2022 FontIcona.com --><path d="M15.995,29.038C15.995,29.038,15.995,29.038,15.995,29.038c-1.058,0-2.034-0.53-2.61-1.418L0.503,7.768C-0.119,6.81-0.167,5.591,0.378,4.588c0.545-1.003,1.593-1.626,2.735-1.626h25.775c1.142,0,2.19,0.624,2.735,1.627c0.545,1.004,0.497,2.222-0.125,3.18L18.605,27.621C18.029,28.508,17.053,29.038,15.995,29.038z M3.113,4.962c-0.414,0-0.779,0.217-0.977,0.581C1.938,5.907,1.955,6.331,2.181,6.679l12.882,19.854c0.209,0.321,0.548,0.506,0.932,0.506l0,0c0.384,0,0.723-0.185,0.932-0.507L29.819,6.679v0c0.226-0.347,0.242-0.771,0.045-1.135c-0.197-0.364-0.563-0.581-0.977-0.581H3.113z"/></svg>