<svg xmlns="http://www.w3.org/2000/svg" viewBox="0 0 32 32"><!--! Font Icona - https://fonticona.com | License - https://fonticona.com/license | Copyright 2022 FontIcona.com --><path d="M31,32H1c-0.552,0-1-0.447-1-1s0.448-1,1-1h30c0.553,0,1,0.447,1,1S31.553,32,31,32z"/><path d="M28.886,26.072H3.115c-1.142,0-2.189-0.623-2.734-1.627c-0.545-1.003-0.497-2.222,0.125-3.179c0-0.001,0-0.001,0-0.001L13.396,1.417C13.972,0.53,14.947,0,16.005,0c1.059,0,2.034,0.53,2.61,1.417l12.88,19.85c0.621,0.956,0.669,2.175,0.125,3.178C31.075,25.449,30.027,26.072,28.886,26.072z M2.183,22.355c-0.226,0.347-0.242,0.771-0.044,1.136c0.197,0.364,0.562,0.581,0.977,0.581h25.771c0.414,0,0.778-0.217,0.977-0.581c0.197-0.364,0.181-0.788-0.045-1.135l-12.88-19.85c-0.417-0.643-1.447-0.644-1.864,0L2.183,22.355z"/></svg>