<svg xmlns="http://www.w3.org/2000/svg" viewBox="0 0 32 32"><!--! Font Icona - https://fonticona.com | License - https://fonticona.com/license | Copyright 2022 FontIcona.com --><path d="M15.999,32C15.999,32,15.999,32,15.999,32c-0.606,0-1.187-0.259-1.592-0.708l-7.683-8.521c0,0,0,0,0-0.001c-0.575-0.638-0.715-1.521-0.366-2.307c0.35-0.784,1.099-1.271,1.956-1.271c0.001,0,0.001,0,0.002,0h15.367c0.859,0,1.609,0.487,1.959,1.272c0.349,0.784,0.208,1.668-0.367,2.306l-7.684,8.521C17.186,31.742,16.605,32,15.999,32z M8.209,21.431l7.683,8.521C15.921,29.984,15.957,30,15.999,30l0,0c0.043,0,0.079-0.017,0.108-0.048l7.684-8.521c0.019-0.021,0.062-0.068,0.023-0.153c-0.037-0.085-0.103-0.085-0.131-0.085H8.316c-0.053-0.003-0.093,0-0.13,0.084C8.147,21.362,8.191,21.41,8.209,21.431L8.209,21.431z"/><path d="M23.684,12.808c-0.001,0-0.001,0-0.002,0H8.316c-0.858,0-1.608-0.487-1.958-1.271c-0.35-0.785-0.209-1.668,0.365-2.307l7.684-8.521C14.814,0.258,15.394,0,16,0c0,0,0,0,0.001,0c0.605,0,1.186,0.259,1.591,0.708l7.684,8.521c0.001,0,0.001,0,0.001,0c0.575,0.638,0.715,1.522,0.365,2.308C25.292,12.321,24.542,12.808,23.684,12.808z M16,2c-0.043,0-0.079,0.016-0.108,0.048l-7.683,8.52c-0.018,0.021-0.062,0.069-0.024,0.155c0.038,0.085,0.103,0.085,0.13,0.085h15.367c0.03,0.008,0.094,0.001,0.132-0.085c0.038-0.085-0.006-0.134-0.024-0.155l-7.684-8.521C16.078,2.016,16.042,2,16,2L16,2z"/></svg>