<svg xmlns="http://www.w3.org/2000/svg" viewBox="0 0 32 32"><!--! Font Icona - https://fonticona.com | License - https://fonticona.com/license | Copyright 2022 FontIcona.com --><path d="M16,32c-0.606,0-1.186-0.258-1.592-0.708l-7.684-8.521v0c-0.575-0.638-0.716-1.522-0.367-2.307s1.1-1.272,1.958-1.272h15.367c0.859,0,1.609,0.488,1.958,1.272s0.208,1.669-0.367,2.307l-7.684,8.521C17.186,31.742,16.606,32,16,32z M8.316,21.191c-0.028,0-0.093,0-0.131,0.085c-0.038,0.085,0.006,0.134,0.025,0.155c0,0,0,0,0,0l7.684,8.521c0.057,0.062,0.156,0.062,0.213,0l7.684-8.521c0.019-0.021,0.062-0.07,0.025-0.155c-0.038-0.085-0.104-0.085-0.131-0.085H8.316z"/><path d="M23.684,12.809H8.316c-0.859,0-1.609-0.488-1.958-1.272S6.149,9.867,6.725,9.229l7.684-8.521c0.812-0.9,2.372-0.9,3.184,0l7.684,8.521v0c0.575,0.638,0.716,1.522,0.367,2.307S24.542,12.809,23.684,12.809z M16,2c-0.042,0-0.078,0.016-0.106,0.047L8.21,10.568c-0.019,0.021-0.062,0.07-0.025,0.155c0.038,0.085,0.104,0.085,0.131,0.085h15.367c0.028,0,0.093,0,0.131-0.085c0.038-0.085-0.006-0.134-0.025-0.155c0,0,0,0,0,0l-7.684-8.521C16.078,2.016,16.042,2,16,2z"/><path d="M30.716,17H1.284c-0.552,0-1-0.448-1-1s0.448-1,1-1h29.432c0.552,0,1,0.448,1,1S31.268,17,30.716,17z"/></svg>