<svg xmlns="http://www.w3.org/2000/svg" viewBox="0 0 32 32"><!--! Font Icona - https://fonticona.com | License - https://fonticona.com/license | Copyright 2022 FontIcona.com --><path d="M28.888,29.038H3.112c-1.142,0-2.19-0.623-2.735-1.627c-0.545-1.003-0.497-2.222,0.125-3.179c0-0.001,0-0.001,0-0.001L13.395,4.379c0.576-0.887,1.552-1.417,2.61-1.417c0,0,0,0,0,0c1.058,0,2.034,0.53,2.61,1.418l12.882,19.853c0.621,0.956,0.669,2.175,0.125,3.178C31.078,28.415,30.03,29.038,28.888,29.038z M2.18,25.321c-0.226,0.347-0.242,0.772-0.044,1.136c0.197,0.364,0.563,0.581,0.977,0.581h25.775c0.414,0,0.778-0.217,0.977-0.581c0.197-0.364,0.181-0.788-0.045-1.135L16.938,5.469c-0.209-0.322-0.549-0.506-0.932-0.506c0,0,0,0,0,0c-0.383,0-0.723,0.184-0.932,0.506L2.18,25.321z"/></svg>