<svg xmlns="http://www.w3.org/2000/svg" viewBox="0 0 32 32"><!--! Font Icona - https://fonticona.com | License - https://fonticona.com/license | Copyright 2022 FontIcona.com --><polygon points="21.095,25.759 2.075,25.759 2.075,6.306 21.095,6.306 21.095,8.306 4.075,8.306 4.075,23.759 21.095,23.759 "/><path d="M3.005,8.306H1c-0.553,0-1-0.447-1-1s0.447-1,1-1h2.005c0.553,0,1,0.447,1,1S3.558,8.306,3.005,8.306z"/><path d="M3.005,11.214H1c-0.553,0-1-0.447-1-1s0.447-1,1-1h2.005c0.553,0,1,0.447,1,1S3.558,11.214,3.005,11.214z"/><path d="M2.812,14.123H1c-0.553,0-1-0.447-1-1s0.447-1,1-1h1.812c0.553,0,1,0.447,1,1S3.365,14.123,2.812,14.123z"/><path d="M3.005,19.94H1c-0.553,0-1-0.447-1-1s0.447-1,1-1h2.005c0.553,0,1,0.447,1,1S3.558,19.94,3.005,19.94z"/><path d="M3.005,17.032H1c-0.553,0-1-0.447-1-1s0.447-1,1-1h2.005c0.553,0,1,0.447,1,1S3.558,17.032,3.005,17.032z"/><path d="M3.005,22.85H1c-0.553,0-1-0.447-1-1s0.447-1,1-1h2.005c0.553,0,1,0.447,1,1S3.558,22.85,3.005,22.85z"/><path d="M2.812,25.759H1c-0.553,0-1-0.447-1-1s0.447-1,1-1h1.812c0.553,0,1,0.447,1,1S3.365,25.759,2.812,25.759z"/><polygon points="29.925,25.759 10.905,25.759 10.905,23.759 27.925,23.759 27.925,8.306 10.905,8.306 10.905,6.306 29.925,6.306 "/><path d="M31,25.759h-2.005c-0.553,0-1-0.447-1-1s0.447-1,1-1H31c0.553,0,1,0.447,1,1S31.553,25.759,31,25.759z"/><path d="M31,22.85h-2.005c-0.553,0-1-0.447-1-1s0.447-1,1-1H31c0.553,0,1,0.447,1,1S31.553,22.85,31,22.85z"/><path d="M31,19.94h-1.812c-0.553,0-1-0.447-1-1s0.447-1,1-1H31c0.553,0,1,0.447,1,1S31.553,19.94,31,19.94z"/><path d="M31,14.123h-2.005c-0.553,0-1-0.447-1-1s0.447-1,1-1H31c0.553,0,1,0.447,1,1S31.553,14.123,31,14.123z"/><path d="M31,17.032h-2.005c-0.553,0-1-0.447-1-1s0.447-1,1-1H31c0.553,0,1,0.447,1,1S31.553,17.032,31,17.032z"/><path d="M31,11.214h-2.005c-0.553,0-1-0.447-1-1s0.447-1,1-1H31c0.553,0,1,0.447,1,1S31.553,11.214,31,11.214z"/><path d="M31,8.306h-1.812c-0.553,0-1-0.447-1-1s0.447-1,1-1H31c0.553,0,1,0.447,1,1S31.553,8.306,31,8.306z"/><path d="M16,25.509c-0.309,0-0.601-0.143-0.79-0.387l-6.583-8.477c-0.282-0.363-0.279-0.873,0.006-1.234l6.583-8.314C15.405,6.857,15.694,6.718,16,6.718l0,0c0.306,0,0.595,0.14,0.784,0.379l6.582,8.314c0.285,0.361,0.288,0.871,0.006,1.234l-6.582,8.477C16.601,25.366,16.309,25.509,16,25.509z M10.688,16.038L16,22.878l5.312-6.84L16,9.329L10.688,16.038z"/><circle cx="23.923" cy="8.492" r="1.25"/><circle cx="23.923" cy="12.843" r="1.25"/><circle cx="21.747" cy="10.667" r="1.25"/><circle cx="26.098" cy="10.667" r="1.25"/><circle cx="8.07" cy="8.492" r="1.25"/><circle cx="8.07" cy="12.843" r="1.25"/><circle cx="5.895" cy="10.667" r="1.25"/><circle cx="10.246" cy="10.667" r="1.25"/><circle cx="23.923" cy="19.157" r="1.25"/><circle cx="23.923" cy="23.508" r="1.25"/><circle cx="21.747" cy="21.333" r="1.25"/><circle cx="26.098" cy="21.333" r="1.25"/><circle cx="8.07" cy="19.157" r="1.25"/><circle cx="8.07" cy="23.508" r="1.25"/><circle cx="5.895" cy="21.333" r="1.25"/><circle cx="10.246" cy="21.333" r="1.25"/></svg>