<svg xmlns="http://www.w3.org/2000/svg" viewBox="0 0 32 32"><!--! Font Icona - https://fonticona.com | License - https://fonticona.com/license | Copyright 2022 FontIcona.com --><path d="M16,32c-0.305,0-0.594-0.14-0.784-0.378c-4.757-5.998-4.911-16.07-4.915-16.496c-0.042-2.33,0.571-4.137,1.824-5.364c1.556-1.524,3.536-1.569,3.863-1.555c0.298-0.015,2.321,0.03,3.886,1.562c1.253,1.227,1.867,3.032,1.824,5.365c-0.004,0.417-0.158,10.489-4.915,16.487C16.594,31.86,16.305,32,16,32z M15.946,10.207c-0.133,0-1.458,0.025-2.439,1.002c-0.832,0.827-1.238,2.136-1.206,3.89c0.001,0.099,0.136,8.615,3.699,14.18c3.562-5.564,3.698-14.081,3.699-14.172c0.032-1.757-0.374-3.063-1.206-3.891c-1.038-1.032-2.452-1.01-2.472-1.009c-0.019,0-0.044,0-0.063,0l0,0C15.956,10.207,15.953,10.207,15.946,10.207z"/><path d="M14.343,10.523c-0.35,0-0.689-0.184-0.873-0.51c-0.725-1.289-1.491-3.359-1.83-4.379c-0.437-0.97-0.67-2.145-0.639-3.308c0.026-1.113,0.807-2.058,1.897-2.294c0.033-0.007,0.066-0.013,0.1-0.017c1.219-0.133,2.312,0.632,3.024,1.304c0.722-0.652,1.772-1.314,2.961-1.17c1.183,0.252,1.964,1.197,1.991,2.312c0.029,1.155-0.199,2.328-0.66,3.389c-0.339,1.039-1.201,3.056-1.843,4.157c-0.278,0.478-0.891,0.64-1.367,0.36c-0.477-0.278-0.639-0.89-0.36-1.367c0.563-0.966,1.364-2.836,1.704-3.863c0.378-0.88,0.549-1.759,0.527-2.626c-0.005-0.191-0.138-0.352-0.324-0.393c-0.398-0.032-1.2,0.468-1.862,1.293c-0.192,0.239-0.5,0.372-0.791,0.374c-0.307-0.003-0.596-0.148-0.783-0.392C14.604,2.595,13.773,2,13.285,2c-0.002,0-0.005,0-0.008,0c-0.161,0.056-0.271,0.205-0.276,0.378c-0.023,0.869,0.15,1.745,0.502,2.535c0.445,1.326,1.145,3.113,1.71,4.12c0.271,0.481,0.1,1.091-0.381,1.362C14.677,10.482,14.509,10.523,14.343,10.523z"/><path d="M20.629,14.717h-3.852c-0.552,0-1-0.448-1-1s0.448-1,1-1h3.852c0.552,0,1,0.448,1,1S21.181,14.717,20.629,14.717z"/><path d="M14.905,19.186h-3.363c-0.552,0-1-0.448-1-1s0.448-1,1-1h3.363c0.552,0,1,0.448,1,1S15.457,19.186,14.905,19.186z"/><path d="M20.09,21.34c-0.13,0-0.26-0.06-0.36-0.15c-0.09-0.09-0.14-0.22-0.14-0.35c0-0.07,0.01-0.13,0.04-0.19c0.02-0.07,0.06-0.12,0.1-0.17c0.05-0.04,0.1-0.08,0.17-0.1c0.18-0.08,0.4-0.04,0.54,0.1c0.05,0.05,0.08,0.1,0.11,0.17c0.02,0.06,0.04,0.12,0.04,0.19c0,0.06-0.02,0.13-0.04,0.19c-0.03,0.06-0.06,0.11-0.11,0.16C20.34,21.28,20.22,21.34,20.09,21.34z"/><path d="M19.524,24.362h-2.747c-0.552,0-1-0.448-1-1s0.448-1,1-1h2.747c0.552,0,1,0.448,1,1S20.076,24.362,19.524,24.362z"/></svg>