<svg xmlns="http://www.w3.org/2000/svg" viewBox="0 0 32 32"><!--! Font Icona - https://fonticona.com | License - https://fonticona.com/license | Copyright 2022 FontIcona.com --><path d="M27.342,19.465H11.278c-0.552,0-1-0.447-1-1s0.448-1,1-1h16.063c0.49,0,0.927-0.329,1.062-0.801l1.552-5.436c0.091-0.316,0.036-0.654-0.149-0.925c-0.185-0.271-0.479-0.445-0.806-0.477L7.25,7.746c-0.55-0.053-0.953-0.541-0.9-1.091c0.053-0.55,0.535-0.954,1.091-0.9l21.751,2.081c0.92,0.088,1.747,0.577,2.268,1.341c0.521,0.764,0.675,1.712,0.421,2.602l-1.553,5.437C29.946,18.539,28.72,19.465,27.342,19.465z"/><ellipse transform="matrix(1 -0.0035 0.0035 1 -0.0995 0.0506)" cx="14.263" cy="28.162" rx="1.841" ry="1.841"/><ellipse transform="matrix(1 -0.0035 0.0035 1 -0.0994 0.0886)" cx="25.015" cy="28.162" rx="1.841" ry="1.841"/><path d="M27.525,25.025H12.198c-1.029,0-1.989-0.509-2.567-1.36c-0.579-0.852-0.697-1.932-0.318-2.889l0.759-1.964c0.092-0.239,0.098-0.506,0.017-0.749L5.611,4.728C5.491,4.371,5.202,4.103,4.837,4.01L0.752,2.966C0.217,2.83-0.105,2.285,0.031,1.75C0.167,1.215,0.71,0.89,1.248,1.029l4.084,1.043C6.356,2.333,7.169,3.087,7.506,4.09l4.478,13.336c0.23,0.684,0.213,1.432-0.046,2.106l-0.763,1.973c-0.14,0.354-0.099,0.729,0.11,1.036c0.209,0.307,0.542,0.483,0.913,0.483h15.327c0.553,0,1,0.447,1,1S28.078,25.025,27.525,25.025z"/></svg>