<svg xmlns="http://www.w3.org/2000/svg" viewBox="0 0 32 32"><!--! Font Icona - https://fonticona.com | License - https://fonticona.com/license | Copyright 2022 FontIcona.com --><path d="M10.032,11.802c-0.446,0-0.853-0.3-0.968-0.753L7.686,5.652C7.528,5.033,6.812,4.469,6.185,4.469H1c-0.552,0-1-0.448-1-1s0.448-1,1-1h5.185c1.543,0,3.054,1.181,3.438,2.688l1.377,5.397c0.137,0.535-0.187,1.08-0.722,1.216C10.197,11.792,10.113,11.802,10.032,11.802z"/><polygon points="27.111,24.781 12.569,24.781 9.063,11.049 11.001,10.554 14.123,22.781 27.111,22.781 "/><path d="M26.472,20.657H12.293c-0.552,0-1-0.447-1-1s0.448-1,1-1h14.179c0.461,0,0.86-0.312,0.971-0.761l2.587-10.455c0.133-0.537,0.674-0.864,1.211-0.73c0.536,0.133,0.863,0.675,0.73,1.211l-2.587,10.455C29.052,19.72,27.854,20.657,26.472,20.657z"/><path d="M27.111,29.531c-1.846,0-3.347-1.514-3.347-3.375s1.501-3.375,3.347-3.375c1.845,0,3.346,1.514,3.346,3.375S28.956,29.531,27.111,29.531z M27.111,24.781c-0.742,0-1.347,0.617-1.347,1.375s0.604,1.375,1.347,1.375s1.346-0.617,1.346-1.375S27.854,24.781,27.111,24.781z"/><path d="M13.382,29.531c-1.845,0-3.346-1.514-3.346-3.375s1.501-3.375,3.346-3.375c1.845,0,3.346,1.514,3.346,3.375S15.227,29.531,13.382,29.531z M13.382,24.781c-0.742,0-1.346,0.617-1.346,1.375s0.604,1.375,1.346,1.375s1.346-0.617,1.346-1.375S14.124,24.781,13.382,24.781z"/><path d="M19.994,14.561c-0.553,0-1-0.448-1-1V4.037c0-0.552,0.447-1,1-1s1,0.448,1,1v9.524C20.994,14.113,20.547,14.561,19.994,14.561z"/><path d="M15.623,9.155c-0.256,0-0.512-0.098-0.707-0.293c-0.391-0.391-0.391-1.023,0-1.414l3.928-3.928c0.623-0.622,1.678-0.622,2.301,0l3.928,3.928c0.391,0.391,0.391,1.023,0,1.414s-1.023,0.391-1.414,0l-3.664-3.665L16.33,8.862C16.134,9.057,15.878,9.155,15.623,9.155z"/></svg>