<svg xmlns="http://www.w3.org/2000/svg" viewBox="0 0 32 32"><!--! Font Icona - https://fonticona.com | License - https://fonticona.com/license | Copyright 2022 FontIcona.com --><path d="M10.031,11.802c-0.446,0-0.853-0.301-0.968-0.753L7.687,5.652C7.528,5.033,6.812,4.469,6.186,4.469H1c-0.553,0-1-0.447-1-1s0.447-1,1-1h5.186c1.543,0,3.053,1.181,3.438,2.688l1.377,5.397c0.137,0.535-0.187,1.079-0.722,1.216C10.196,11.792,10.113,11.802,10.031,11.802z"/><polygon points="27.111,24.781 12.569,24.781 9.063,11.049 11.001,10.555 14.122,22.781 27.111,22.781 "/><path d="M26.472,20.656H12.293c-0.553,0-1-0.447-1-1s0.447-1,1-1h14.179c0.461,0,0.86-0.312,0.971-0.76l2.587-10.455c0.132-0.536,0.675-0.859,1.211-0.73c0.536,0.133,0.863,0.675,0.73,1.211l-2.587,10.455C29.052,19.719,27.854,20.656,26.472,20.656z"/><path d="M27.111,29.531c-1.845,0-3.346-1.514-3.346-3.375s1.501-3.375,3.346-3.375s3.346,1.514,3.346,3.375S28.956,29.531,27.111,29.531z M27.111,24.781c-0.742,0-1.346,0.617-1.346,1.375s0.604,1.375,1.346,1.375s1.346-0.617,1.346-1.375S27.854,24.781,27.111,24.781z"/><path d="M13.383,29.531c-1.845,0-3.346-1.514-3.346-3.375s1.501-3.375,3.346-3.375s3.346,1.514,3.346,3.375S15.228,29.531,13.383,29.531z M13.383,24.781c-0.742,0-1.346,0.617-1.346,1.375s0.604,1.375,1.346,1.375s1.346-0.617,1.346-1.375S14.125,24.781,13.383,24.781z"/><path d="M19.962,14.241c-0.272,0-0.535-0.111-0.725-0.311l-3.503-3.68c-0.381-0.4-0.365-1.033,0.035-1.414c0.399-0.379,1.032-0.365,1.414,0.035l2.633,2.767l5.241-7.997c0.303-0.462,0.924-0.592,1.384-0.288c0.462,0.302,0.591,0.922,0.288,1.384l-5.932,9.052c-0.167,0.256-0.441,0.421-0.746,0.448C20.022,14.24,19.992,14.241,19.962,14.241z"/></svg>