<svg xmlns="http://www.w3.org/2000/svg" viewBox="0 0 32 32"><!--! Font Icona - https://fonticona.com | License - https://fonticona.com/license | Copyright 2022 FontIcona.com --><path d="M28.237,27.797H3.763C1.688,27.797,0,26.244,0,24.335V8.799C0,6.89,1.688,5.337,3.763,5.337h3.213v2H3.763C2.808,7.337,2,8.007,2,8.799v15.536c0,0.792,0.808,1.462,1.763,1.462h24.475c0.955,0,1.763-0.67,1.763-1.462V8.799c0-0.792-0.808-1.462-1.763-1.462h-2.364v-2h2.364C30.312,5.337,32,6.89,32,8.799v15.536C32,26.244,30.312,27.797,28.237,27.797z"/><path d="M8.482,21.509c-2.256,0-4.092-1.836-4.092-4.092c0-2.256,1.836-4.092,4.092-4.092s4.092,1.836,4.092,4.092C12.574,19.673,10.738,21.509,8.482,21.509z M8.482,15.325c-1.153,0-2.092,0.938-2.092,2.092c0,1.153,0.938,2.092,2.092,2.092s2.092-0.938,2.092-2.092C10.574,16.263,9.636,15.325,8.482,15.325z"/><path d="M23.942,21.509c-2.256,0-4.092-1.836-4.092-4.092c0-2.256,1.836-4.092,4.092-4.092s4.092,1.836,4.092,4.092C28.034,19.673,26.198,21.509,23.942,21.509z M23.942,15.325c-1.153,0-2.092,0.938-2.092,2.092c0,1.153,0.938,2.092,2.092,2.092s2.092-0.938,2.092-2.092C26.034,16.263,25.096,15.325,23.942,15.325z"/><rect x="8.482" y="13.325" width="15.46" height="2"/><rect x="8.482" y="19.509" width="15.46" height="2"/><circle cx="27.52" cy="23.484" r="1.25"/><circle cx="4.196" cy="23.484" r="1.25"/><path d="M23.313,10.078H8.687c-1.304,0-2.579-0.988-2.905-2.25L5.419,6.421C5.275,5.867,5.382,5.303,5.713,4.875s0.85-0.672,1.424-0.672h17.727c0.574,0,1.093,0.245,1.424,0.672s0.438,0.991,0.294,1.546l-0.362,1.406C25.893,9.09,24.617,10.078,23.313,10.078z M7.428,6.203l0.29,1.125c0.1,0.386,0.57,0.75,0.969,0.75h14.627c0.398,0,0.869-0.364,0.968-0.75h0.001l0.29-1.125H7.428z"/></svg>