<svg xmlns="http://www.w3.org/2000/svg" viewBox="0 0 32 32"><!--! Font Icona - https://fonticona.com | License - https://fonticona.com/license | Copyright 2022 FontIcona.com --><path d="M7.545,28.735c-0.155,0-0.312-0.036-0.459-0.112c-1.8-0.935-3.011-2.858-3.084-4.901c0.054-2.013,1.492-3.706,2.882-5.344c2.306-2.717,3.162-4.083,1.675-5.764c-0.604-0.689-1.231-0.913-1.927-0.692C5.459,12.3,4.27,13.903,4.136,15.288c-0.088,0.909,0.331,1.141,0.468,1.216c0.483,0.267,0.66,0.875,0.393,1.358c-0.267,0.484-0.874,0.659-1.359,0.394c-1.085-0.599-1.629-1.75-1.493-3.16c0.21-2.181,1.948-4.458,3.874-5.077c1.471-0.477,2.907-0.021,4.041,1.275c2.786,3.149,0.325,6.049-1.652,8.378C7.241,21.046,6.035,22.468,6,23.713c0.048,1.271,0.835,2.527,2.006,3.135c0.49,0.255,0.682,0.858,0.427,1.349C8.255,28.539,7.907,28.735,7.545,28.735z"/><path d="M16.241,31.999c-1.396,0-2.808-0.082-4.23-0.318c-1.102-0.142-2.171-0.522-3.143-1.126c-0.695-0.428-1.938-1.371-2.404-2.856c-0.011-0.035-0.02-0.071-0.027-0.108c-0.881-4.511,3.192-8.314,5.887-10.831l0.386-0.361c0.34-0.311,0.695-0.615,1.058-0.927c1.257-1.08,2.558-2.196,3.184-3.51c0.4-0.844,0.483-1.986,0.563-3.093c0.042-0.576,0.083-1.142,0.164-1.669c0.678-4.596,6.271-7.019,6.508-7.12c0.382-0.16,0.827-0.071,1.115,0.231c0.287,0.301,0.357,0.749,0.176,1.124c-0.106,0.229-0.346,0.956-0.141,1.486C25.444,3.2,25.681,3.412,26.06,3.57c1.89,0.789,2.903,2.964,3.1,4.795c0.374,0.452,0.921,1.33,0.639,2.357c-0.32,1.166-1.523,1.949-3.678,2.394c-0.181,0.042-0.383,0.081-0.597,0.122c-1.562,0.297-1.794,0.504-1.745,0.885c0.069,0.536,0.237,1.09,0.416,1.676c0.429,1.41,0.915,3.008,0.338,5.157c-0.396,1.479-1.437,5.36-0.333,5.912c0.467,0.083,1.812,0.409,2.502,1.502c0.309,0.489,0.595,1.317,0.208,2.485c-0.136,0.408-0.519,0.685-0.949,0.685c-1.605,0-3.238,0.116-4.817,0.229C19.537,31.883,17.899,31.999,16.241,31.999z M8.388,27.148c0.21,0.608,0.778,1.242,1.531,1.705c0.731,0.453,1.532,0.738,2.384,0.85c2.913,0.48,5.724,0.282,8.699,0.07c1.326-0.095,2.689-0.191,4.063-0.223c-0.018-0.054-0.04-0.089-0.053-0.11c-0.229-0.367-0.917-0.57-1.214-0.611c-0.068-0.009-0.142-0.026-0.207-0.05c-2.946-1.052-1.723-5.614-0.992-8.341c0.428-1.597,0.064-2.792-0.32-4.058c-0.194-0.639-0.395-1.299-0.486-2.004c-0.307-2.407,2.167-2.878,3.355-3.104c0.189-0.036,0.369-0.07,0.528-0.107c0.009-0.002,0.018-0.004,0.027-0.006c1.588-0.326,2.11-0.774,2.165-0.966c0.045-0.157-0.186-0.509-0.358-0.672c-0.188-0.178-0.307-0.428-0.319-0.686c-0.062-1.299-0.75-2.939-1.902-3.421c-0.89-0.371-1.522-0.991-1.826-1.791c-0.098-0.259-0.156-0.519-0.186-0.771c-1.435,0.93-3.311,2.524-3.623,4.642c-0.073,0.482-0.109,0.995-0.147,1.518c-0.089,1.229-0.19,2.623-0.752,3.808c-0.809,1.696-2.338,3.01-3.687,4.168c-0.346,0.297-0.686,0.588-1.002,0.877l-0.38,0.355C11.188,20.555,7.77,23.747,8.388,27.148z"/></svg>