<svg xmlns="http://www.w3.org/2000/svg" viewBox="0 0 32 32"><!--! Font Icona - https://fonticona.com | License - https://fonticona.com/license | Copyright 2022 FontIcona.com --><path d="M28,26.022H4c-2.206,0-4-1.794-4-4V9.978c0-2.206,1.794-4,4-4h24c2.206,0,4,1.794,4,4v12.045C32,24.229,30.206,26.022,28,26.022z M4,7.978c-1.103,0-2,0.897-2,2v12.045c0,1.103,0.897,2,2,2h24c1.103,0,2-0.897,2-2V9.978c0-1.103-0.897-2-2-2H4z"/><path d="M14.082,21.018c-0.552,0-1-0.447-1-1v-6.705c0-0.553,0.448-1,1-1s1,0.447,1,1v6.705C15.082,20.57,14.634,21.018,14.082,21.018z"/><path d="M15.94,18.622c-0.125,0-0.252-0.01-0.38-0.028c-0.945-0.14-1.848-0.802-2.356-1.729c-0.266-0.483-0.088-1.092,0.396-1.357c0.485-0.268,1.091-0.088,1.358,0.396c0.203,0.37,0.571,0.663,0.895,0.711c0.182,0.024,0.332-0.028,0.486-0.18c0.425-0.417,0.623-1.262,0.422-1.806c-0.091-0.248-0.442-0.325-0.588-0.348c-0.502-0.074-1.072,0.097-1.295,0.391c-0.333,0.439-0.961,0.526-1.401,0.192c-0.44-0.334-0.526-0.961-0.192-1.401c0.667-0.878,1.946-1.347,3.185-1.159c1.055,0.157,1.846,0.753,2.169,1.635c0.469,1.274,0.083,2.961-0.899,3.924C17.234,18.359,16.606,18.622,15.94,18.622z"/><path d="M21.044,21.012c-0.313,0-0.621-0.055-0.918-0.166c-0.955-0.358-1.5-1.155-1.425-2.079c0.082-1.001,0.893-1.878,1.929-2.085c0.877-0.175,1.66-0.006,2.351,0.143c0.54,0.116,0.901,0.652,0.785,1.192c-0.039,0.182-0.124,0.342-0.239,0.471c0.002,0.002,0.005,0.005,0.008,0.008c0.378,0.402,0.36,1.035-0.042,1.413C22.724,20.633,21.868,21.012,21.044,21.012z M20.7,18.919c0.015,0,0.057,0.027,0.129,0.054c0.313,0.119,0.721-0.066,1.061-0.324c-0.306-0.047-0.593-0.061-0.868-0.006c-0.203,0.041-0.317,0.208-0.327,0.278C20.696,18.92,20.698,18.919,20.7,18.919z"/><path d="M22.807,21.184c-0.552,0-1-0.447-1-1v-3.68c-0.019-0.027-0.4-0.229-1.7,0.359c-0.503,0.229-1.096,0.004-1.323-0.499s-0.004-1.096,0.499-1.323c1.57-0.71,2.745-0.789,3.592-0.243c0.688,0.444,0.932,1.197,0.932,1.706v3.68C23.807,20.736,23.359,21.184,22.807,21.184z"/><path d="M26.417,21.191c-0.399,0-0.776-0.24-0.931-0.634l-1.849-4.7c-0.202-0.514,0.051-1.095,0.564-1.297c0.516-0.2,1.095,0.052,1.297,0.564l1.849,4.7c0.202,0.514-0.051,1.095-0.564,1.297C26.663,21.169,26.539,21.191,26.417,21.191z"/><path d="M24.909,23.058c-0.297,0-0.607-0.055-0.924-0.167c-0.521-0.185-0.792-0.757-0.608-1.277c0.185-0.52,0.758-0.791,1.277-0.607c0.259,0.091,0.429,0.118,0.606-0.315c0.515-1.262,0.98-2.59,1.43-3.873c0.201-0.573,0.401-1.146,0.607-1.714c0.187-0.52,0.76-0.791,1.28-0.601c0.52,0.188,0.788,0.761,0.601,1.28c-0.203,0.562-0.401,1.129-0.6,1.695c-0.458,1.308-0.932,2.659-1.466,3.968C26.688,22.482,25.872,23.058,24.909,23.058z"/><path d="M11.816,13.855c-1.817,1.072-1.614,3.702,0.287,4.533c-0.103,0.25-0.196,0.505-0.31,0.75c-0.299,0.644-0.693,1.227-1.181,1.744c-0.272,0.288-0.597,0.491-1.006,0.517c-0.26,0.017-0.506-0.055-0.748-0.138c-0.238-0.081-0.472-0.175-0.714-0.243c-0.487-0.137-0.957-0.043-1.42,0.127c-0.242,0.089-0.486,0.176-0.735,0.238c-0.363,0.09-0.69-0.018-0.985-0.237c-0.389-0.289-0.673-0.671-0.951-1.06c-0.606-0.848-0.985-1.792-1.179-2.81c-0.151-0.79-0.169-1.582,0.07-2.362c0.235-0.767,0.669-1.388,1.374-1.795c0.483-0.279,1.008-0.428,1.565-0.332c0.327,0.057,0.642,0.187,0.961,0.287c0.163,0.051,0.326,0.103,0.488,0.159c0.131,0.045,0.256,0.032,0.384-0.013c0.367-0.128,0.731-0.271,1.105-0.377C9.746,12.581,11.116,13.057,11.816,13.855L11.816,13.855z"/><path d="M9.732,9.944c0.036,0.282,0.01,0.555-0.063,0.821c-0.178,0.643-0.546,1.154-1.098,1.528c-0.314,0.213-0.668,0.306-1.049,0.294c-0.068-0.002-0.082-0.026-0.085-0.089c-0.035-0.608,0.171-1.134,0.546-1.6c0.436-0.542,1.005-0.855,1.694-0.954C9.692,9.942,9.709,9.944,9.732,9.944z"/></svg>