<svg xmlns="http://www.w3.org/2000/svg" viewBox="0 0 32 32"><!--! Font Icona - https://fonticona.com | License - https://fonticona.com/license | Copyright 2022 FontIcona.com --><path d="M28,26.022H4c-2.206,0-4-1.794-4-4V9.978c0-2.206,1.794-4,4-4h24c2.206,0,4,1.794,4,4v12.045C32,24.229,30.206,26.022,28,26.022z M4,7.978c-1.103,0-2,0.897-2,2v12.045c0,1.103,0.897,2,2,2h24c1.103,0,2-0.897,2-2V9.978c0-1.103-0.897-2-2-2C28,7.978,4,7.978,4,7.978z"/><path d="M8.67,18.272c-0.552,0-1-0.447-1-1v-6.943c0-0.553,0.448-1,1-1s1,0.447,1,1v6.943C9.67,17.825,9.223,18.272,8.67,18.272z"/><path d="M10.598,16.197c-0.119,0-0.239-0.009-0.359-0.025c-0.994-0.144-1.937-0.88-2.461-1.922c-0.249-0.493-0.05-1.094,0.443-1.343c0.495-0.248,1.095-0.05,1.343,0.444c0.225,0.445,0.619,0.791,0.959,0.841c0.115,0.014,0.276,0.008,0.481-0.211c0.486-0.52,0.7-1.541,0.467-2.23c-0.106-0.313-0.422-0.421-0.669-0.456c-0.516-0.079-1.076,0.126-1.311,0.463c-0.315,0.454-0.938,0.564-1.392,0.249c-0.453-0.315-0.564-0.938-0.249-1.392c0.667-0.958,1.966-1.479,3.234-1.301c1.102,0.157,1.955,0.829,2.282,1.797c0.47,1.394,0.091,3.176-0.901,4.237C11.945,15.903,11.292,16.197,10.598,16.197z"/><path d="M15.868,16.011c-0.32,0-0.636-0.056-0.94-0.17c-0.972-0.365-1.529-1.177-1.453-2.117c0.083-1.021,0.911-1.916,1.969-2.127c0.896-0.182,1.702-0.007,2.413,0.146c0.54,0.116,0.905,0.653,0.79,1.192c-0.042,0.194-0.134,0.363-0.261,0.495c0.011,0.011,0.021,0.021,0.032,0.032c0.379,0.401,0.361,1.034-0.041,1.413C17.59,15.621,16.712,16.011,15.868,16.011z M15.469,13.887c0.007,0,0.05,0.039,0.162,0.081c0.36,0.137,0.826-0.092,1.197-0.391c-0.352-0.059-0.676-0.084-0.992-0.02C15.588,13.607,15.469,13.815,15.469,13.887L15.469,13.887z"/><path d="M17.691,16.188c-0.552,0-1-0.447-1-1v-3.811c0,0.024-0.015-0.044-0.036-0.058c-0.005-0.002-0.409-0.221-1.774,0.397c-0.505,0.228-1.096,0.004-1.323-0.499c-0.228-0.503-0.004-1.096,0.499-1.323c1.614-0.729,2.818-0.813,3.686-0.254c0.701,0.452,0.949,1.218,0.949,1.736v3.811C18.691,15.741,18.244,16.188,17.691,16.188z"/><path d="M21.444,16.147c-0.399,0-0.776-0.24-0.931-0.634l-1.915-4.867c-0.202-0.514,0.051-1.095,0.564-1.297c0.515-0.201,1.095,0.051,1.297,0.564l1.915,4.867c0.202,0.514-0.051,1.095-0.564,1.297C21.689,16.125,21.565,16.147,21.444,16.147z"/><path d="M19.881,18.129c-0.303,0-0.62-0.056-0.944-0.171c-0.52-0.186-0.792-0.757-0.606-1.277c0.185-0.521,0.757-0.793,1.277-0.607c0.271,0.097,0.478,0.128,0.671-0.347c0.533-1.306,1.014-2.678,1.479-4.006c0.209-0.595,0.417-1.189,0.631-1.78c0.187-0.52,0.759-0.792,1.28-0.601c0.52,0.188,0.789,0.761,0.601,1.28c-0.211,0.585-0.417,1.174-0.625,1.763c-0.474,1.351-0.963,2.748-1.515,4.1C21.698,17.541,20.864,18.129,19.881,18.129z"/><path d="M5.06,18.332c0.797,0.419,5.101,3.004,11.187,2.745c5.826-0.285,8.36-1.636,8.649-1.735c0.124-0.065,0.721,0.087,0.285,0.518c-0.863,0.749-3.573,2.564-8.96,2.822C9.67,23.045,4.838,18.678,4.698,18.565C4.557,18.452,4.263,17.913,5.06,18.332z"/><path d="M15.445,22.953c-5.739,0-10.047-3.455-10.883-4.176c-0.132-0.107-0.398-0.449-0.231-0.704c0.198-0.302,0.651-0.064,0.845,0.037l0.192,0.104c3.47,1.893,7.121,2.782,10.867,2.612c2.377-0.116,5.767-0.497,8.41-1.652c0.081-0.035,0.136-0.059,0.167-0.069c0.154-0.084,0.525-0.01,0.689,0.216c0.073,0.1,0.205,0.37-0.146,0.717c-0.712,0.618-3.44,2.621-9.124,2.894C15.967,22.946,15.704,22.953,15.445,22.953z M5.34,18.768c1.53,1.194,5.661,3.965,10.866,3.664c5.525-0.264,8.14-2.18,8.81-2.76c0.062-0.062,0.071-0.1,0.071-0.1c-0.007,0.022-0.071,0.005-0.109,0.005c-0.003,0-0.006,0-0.009,0.001c-0.018,0.009-0.061,0.027-0.124,0.056c-2.712,1.185-6.167,1.574-8.587,1.693C12.497,21.488,8.828,20.626,5.34,18.768z"/><path d="M25.643,22.067c-0.104,0-0.21-0.031-0.303-0.114c-0.127-0.113-0.143-0.316-0.043-0.604c0.487-1.113,0.8-2.247,0.676-2.445c-0.32-0.221-2.009-0.107-2.447-0.009l0,0c-0.296,0.066-0.573,0.127-0.71-0.15c-0.075-0.157-0.051-0.286-0.019-0.368c0.083-0.204,0.297-0.291,0.339-0.306c0.334-0.141,3.389-1.362,4.36-0.191c0.876,0.874-0.99,3.474-1.374,3.985l-0.053,0.053C25.972,21.988,25.81,22.067,25.643,22.067z"/></svg>