<svg xmlns="http://www.w3.org/2000/svg" viewBox="0 0 32 32"><!--! Font Icona - https://fonticona.com | License - https://fonticona.com/license | Copyright 2022 FontIcona.com --><path d="M28,26.022H4c-2.206,0-4-1.794-4-4V9.978c0-2.206,1.794-4,4-4h24c2.206,0,4,1.794,4,4v12.045C32,24.229,30.206,26.022,28,26.022z M4,7.978c-1.103,0-2,0.897-2,2v12.045c0,1.103,0.897,2,2,2h24c1.103,0,2-0.897,2-2V9.978c0-1.103-0.897-2-2-2H4z"/><path d="M14.388,22.988c-3.854,0-6.989-3.135-6.989-6.988s3.135-6.988,6.989-6.988s6.988,3.135,6.988,6.988S18.242,22.988,14.388,22.988z M14.388,11.012c-2.751,0-4.989,2.237-4.989,4.988s2.238,4.988,4.989,4.988c2.75,0,4.988-2.237,4.988-4.988S17.139,11.012,14.388,11.012z"/><path d="M13.215,13.18c-1.107,0.458-1.885,1.548-1.885,2.82s0.779,2.362,1.885,2.82V13.18z"/><path d="M13.215,19.07c-0.032,0-0.065-0.006-0.096-0.019c-1.239-0.514-2.04-1.711-2.04-3.052s0.801-2.538,2.04-3.052c0.077-0.032,0.166-0.022,0.235,0.023c0.069,0.047,0.111,0.125,0.111,0.208v5.641c0,0.083-0.042,0.161-0.111,0.208C13.312,19.056,13.264,19.07,13.215,19.07z M12.965,13.582C12.113,14.08,11.58,14.992,11.58,16s0.533,1.92,1.386,2.418V13.582z"/><path d="M15.489,18.82c1.107-0.458,1.885-1.548,1.885-2.82s-0.779-2.362-1.885-2.82V18.82z"/><path d="M15.489,19.07c-0.049,0-0.097-0.015-0.139-0.042c-0.069-0.047-0.111-0.125-0.111-0.208V13.18c0-0.083,0.042-0.161,0.111-0.208c0.069-0.046,0.157-0.057,0.235-0.023c1.239,0.514,2.04,1.711,2.04,3.052s-0.801,2.538-2.04,3.052C15.554,19.064,15.521,19.07,15.489,19.07z M15.739,13.582v4.836c0.853-0.498,1.386-1.41,1.386-2.418S16.592,14.08,15.739,13.582z"/><path d="M16.337,22.988h-1.949v-2h1.949c3.454,0,6.264-2.234,6.264-4.98c0-2.755-2.81-4.996-6.264-4.996h-1.949v-2h1.949c4.557,0,8.264,3.139,8.264,6.996C24.601,19.856,20.894,22.988,16.337,22.988z"/></svg>