<svg xmlns="http://www.w3.org/2000/svg" viewBox="0 0 32 32"><!--! Font Icona - https://fonticona.com | License - https://fonticona.com/license | Copyright 2022 FontIcona.com --><path d="M28,26.022H4c-2.206,0-4-1.794-4-4V9.978c0-2.206,1.794-4,4-4h24c2.206,0,4,1.794,4,4v12.045C32,24.229,30.206,26.022,28,26.022z M4,7.978c-1.103,0-2,0.897-2,2v12.045c0,1.103,0.897,2,2,2h24c1.103,0,2-0.897,2-2V9.978c0-1.103-0.897-2-2-2H4z"/><path d="M3.326,14.571c0.31-0.05,0.716-0.078,1.143-0.078c0.71,0,1.171,0.128,1.532,0.399c0.389,0.289,0.633,0.749,0.633,1.41c0,0.716-0.261,1.209-0.621,1.515C5.618,18.144,5.018,18.3,4.286,18.3c-0.438,0-0.749-0.028-0.96-0.056V14.571z M4.175,17.623c0.072,0.016,0.188,0.016,0.294,0.016c0.766,0.006,1.266-0.416,1.266-1.309c0.005-0.777-0.45-1.187-1.177-1.187c-0.189,0-0.311,0.017-0.383,0.033V17.623z"/><path d="M4.286,18.45c-0.369,0-0.698-0.02-0.979-0.058l-0.13-0.018v-3.931l0.125-0.021c0.315-0.051,0.73-0.08,1.167-0.08c0.727,0,1.227,0.133,1.622,0.43c0.453,0.337,0.692,0.866,0.692,1.53c0,0.874-0.367,1.368-0.674,1.629C5.694,18.275,5.082,18.45,4.286,18.45z M3.476,18.111c0.238,0.025,0.51,0.038,0.81,0.038c0.714,0,1.277-0.154,1.63-0.447c0.37-0.314,0.567-0.799,0.567-1.399c0-0.573-0.192-1.007-0.572-1.29c-0.34-0.256-0.785-0.369-1.442-0.369c-0.365,0-0.711,0.02-0.993,0.058V18.111z M4.484,17.79c-0.124-0.003-0.25,0.001-0.343-0.021l-0.116-0.027v-2.686l0.116-0.027c0.074-0.017,0.206-0.037,0.417-0.037c0.409,0,0.748,0.123,0.979,0.356c0.23,0.231,0.351,0.571,0.348,0.982c0,0.471-0.13,0.839-0.386,1.094C5.257,17.663,4.907,17.79,4.484,17.79z M4.325,17.488c0.052,0.001,0.103,0,0.159,0.001c0.347,0,0.617-0.093,0.803-0.278c0.197-0.195,0.297-0.492,0.297-0.881c0.002-0.335-0.085-0.594-0.261-0.771c-0.173-0.175-0.438-0.267-0.766-0.267c-0.098,0-0.174,0.004-0.233,0.011V17.488z"/><path d="M8.039,14.521v3.74H7.19v-3.74H8.039z"/><path d="M8.189,18.411H7.04V14.37h1.149V18.411z M7.34,18.11h0.549v-3.439H7.34V18.11z"/><path d="M8.8,17.39c0.228,0.117,0.577,0.233,0.938,0.233c0.388,0,0.594-0.161,0.594-0.405c0-0.233-0.178-0.366-0.627-0.527c-0.622-0.216-1.027-0.56-1.027-1.104c0-0.638,0.533-1.126,1.415-1.126c0.422,0,0.732,0.089,0.954,0.189l-0.189,0.683c-0.15-0.072-0.416-0.178-0.782-0.178c-0.366,0-0.544,0.167-0.544,0.361c0,0.239,0.211,0.344,0.694,0.527c0.661,0.244,0.971,0.588,0.971,1.115c0,0.627-0.483,1.16-1.509,1.16c-0.427,0-0.849-0.111-1.06-0.228L8.8,17.39z"/><path d="M9.688,18.467c-0.471,0-0.917-0.128-1.132-0.246l-0.101-0.056L8.7,17.169l0.169,0.087c0.099,0.052,0.453,0.217,0.869,0.217c0.166,0,0.444-0.033,0.444-0.255c0-0.104-0.041-0.211-0.528-0.386c-0.747-0.261-1.125-0.68-1.125-1.246c0-0.751,0.644-1.276,1.565-1.276c0.376,0,0.718,0.068,1.016,0.202l0.117,0.053l-0.271,0.979l-0.162-0.078c-0.224-0.107-0.466-0.162-0.717-0.162c-0.239,0-0.394,0.083-0.394,0.211c0,0.127,0.123,0.207,0.597,0.387c0.728,0.269,1.068,0.667,1.068,1.255C11.347,17.761,10.912,18.467,9.688,18.467z M8.802,18.006c0.21,0.086,0.548,0.16,0.885,0.16c0.838,0,1.359-0.387,1.359-1.01c0-0.457-0.261-0.748-0.873-0.974c-0.425-0.162-0.792-0.301-0.792-0.668c0-0.255,0.214-0.512,0.694-0.512c0.237,0,0.466,0.042,0.683,0.123l0.107-0.389c-0.23-0.085-0.49-0.127-0.774-0.127c-0.757,0-1.265,0.392-1.265,0.976c0,0.431,0.303,0.745,0.926,0.963c0.369,0.132,0.728,0.292,0.728,0.669c0,0.269-0.195,0.556-0.744,0.556c-0.342,0-0.642-0.093-0.835-0.172L8.802,18.006z"/><path d="M14.517,18.156c-0.155,0.078-0.505,0.161-0.96,0.161c-1.293,0-1.959-0.805-1.959-1.87c0-1.276,0.91-1.987,2.042-1.987c0.439,0,0.771,0.089,0.921,0.167l-0.172,0.671c-0.172-0.072-0.411-0.139-0.71-0.139c-0.671,0-1.193,0.405-1.193,1.238c0,0.749,0.444,1.22,1.199,1.22c0.255,0,0.538-0.055,0.704-0.122L14.517,18.156z"/><path d="M13.557,18.467c-1.281,0-2.108-0.793-2.108-2.021c0-1.277,0.881-2.137,2.192-2.137c0.47,0,0.819,0.096,0.99,0.185l0.105,0.055l-0.245,0.955l-0.16-0.067c-0.2-0.085-0.42-0.127-0.652-0.127c-0.653,0-1.043,0.406-1.043,1.087s0.382,1.07,1.049,1.07c0.254,0,0.515-0.058,0.649-0.111l0.168-0.066l0.184,0.949l-0.102,0.051C14.421,18.371,14.055,18.467,13.557,18.467z M13.64,14.61c-1.149,0-1.892,0.721-1.892,1.836c0,1.061,0.693,1.72,1.809,1.72c0.369,0,0.637-0.055,0.79-0.104l-0.072-0.373c-0.181,0.048-0.399,0.078-0.589,0.078c-0.832,0-1.349-0.525-1.349-1.371c0-0.843,0.527-1.388,1.343-1.388c0.212,0,0.415,0.031,0.606,0.091l0.098-0.384C14.234,14.665,13.979,14.61,13.64,14.61z"/><path d="M20.236,18.261l-1.198-3.74h0.926l0.455,1.582c0.127,0.444,0.244,0.871,0.333,1.337h0.017c0.094-0.449,0.211-0.893,0.338-1.321l0.478-1.598h0.899l-1.26,3.74H20.236z"/><path d="M21.332,18.411h-1.205l-1.294-4.041h1.245l0.487,1.69c0.065,0.226,0.135,0.474,0.2,0.737c0.06-0.236,0.127-0.478,0.2-0.722l0.509-1.706h1.22L21.332,18.411z M20.345,18.11h0.771l1.159-3.439h-0.578l-0.446,1.491c-0.134,0.449-0.247,0.89-0.335,1.309L20.89,17.59h-0.246l-0.04-0.122c-0.091-0.483-0.218-0.937-0.329-1.324l-0.424-1.473h-0.608L20.345,18.11z"/><path d="M25.11,16.68h-1.376v0.888h1.537v0.694h-2.386v-3.74h2.308v0.694h-1.459v0.777h1.376V16.68z"/><path d="M25.421,18.411h-2.686V14.37h2.608v0.995h-1.459v0.476h1.375v0.989h-1.375v0.587h1.537V18.411z M23.035,18.11h2.086v-0.393h-1.537v-1.188h1.375v-0.388h-1.375v-1.077h1.459v-0.394h-2.009V18.11z"/><path d="M25.85,14.571c0.272-0.044,0.677-0.078,1.126-0.078c0.555,0,0.943,0.083,1.209,0.294c0.222,0.178,0.344,0.438,0.344,0.783c0,0.477-0.338,0.804-0.66,0.921v0.017c0.261,0.105,0.405,0.355,0.499,0.699c0.117,0.422,0.233,0.91,0.305,1.054h-0.866c-0.061-0.105-0.15-0.411-0.261-0.871c-0.1-0.466-0.261-0.594-0.605-0.6h-0.255v1.471H25.85V14.571z M26.687,16.18h0.333c0.422,0,0.671-0.211,0.671-0.539c0-0.344-0.233-0.516-0.622-0.521c-0.205,0-0.322,0.017-0.383,0.028V16.18z"/><path d="M28.917,18.411h-1.196l-0.043-0.075c-0.042-0.073-0.117-0.247-0.277-0.911c-0.092-0.432-0.217-0.48-0.461-0.484h-0.103v1.471H25.7v-3.967l0.125-0.021c0.308-0.051,0.727-0.08,1.151-0.08c0.616,0,1.017,0.101,1.303,0.327c0.262,0.21,0.4,0.521,0.4,0.9c0,0.429-0.237,0.756-0.522,0.942c0.204,0.182,0.299,0.449,0.356,0.654c0.032,0.115,0.063,0.235,0.095,0.353c0.076,0.286,0.154,0.583,0.2,0.674L28.917,18.411z M27.904,18.11h0.556c-0.042-0.139-0.09-0.318-0.142-0.515c-0.031-0.115-0.062-0.234-0.094-0.349c-0.093-0.339-0.22-0.523-0.411-0.6l-0.094-0.038v-0.207l0.099-0.053c0.279-0.102,0.561-0.381,0.561-0.779c0-0.289-0.097-0.513-0.288-0.666c-0.228-0.181-0.572-0.261-1.116-0.261c-0.353,0-0.7,0.021-0.977,0.057v3.41h0.538V16.64h0.405c0.438,0.008,0.641,0.202,0.751,0.719C27.8,17.797,27.865,18.009,27.904,18.11z M27.021,16.331h-0.483v-1.31L26.662,15c0.113-0.021,0.247-0.03,0.408-0.03c0.484,0.008,0.772,0.259,0.772,0.672C27.842,16.061,27.52,16.331,27.021,16.331z M26.837,16.03h0.183c0.157,0,0.521-0.037,0.521-0.389c0-0.09,0-0.364-0.475-0.371c-0.085,0-0.162,0.003-0.23,0.009V16.03z"/><path d="M16.878,18.415c-1.148,0-2.082-0.934-2.082-2.082s0.934-2.082,2.082-2.082s2.082,0.934,2.082,2.082S18.026,18.415,16.878,18.415z M16.878,15.176c-0.638,0-1.157,0.519-1.157,1.157c0,0.638,0.519,1.157,1.157,1.157c0.638,0,1.157-0.519,1.157-1.157C18.034,15.695,17.516,15.176,16.878,15.176z"/><path d="M16.877,18.565c-1.23,0-2.231-1.002-2.231-2.232s1.001-2.232,2.231-2.232c1.231,0,2.232,1.002,2.232,2.232S18.108,18.565,16.877,18.565z M16.877,14.401c-1.065,0-1.932,0.866-1.932,1.932s0.867,1.932,1.932,1.932c1.065,0,1.932-0.866,1.932-1.932S17.943,14.401,16.877,14.401z M16.877,17.64c-0.72,0-1.306-0.586-1.306-1.307s0.586-1.307,1.306-1.307c0.721,0,1.307,0.586,1.307,1.307S17.598,17.64,16.877,17.64z M16.877,15.327c-0.555,0-1.006,0.451-1.006,1.006s0.452,1.006,1.006,1.006c0.555,0,1.007-0.451,1.007-1.006S17.433,15.327,16.877,15.327z"/></svg>