<svg xmlns="http://www.w3.org/2000/svg" viewBox="0 0 32 32"><!--! Font Icona - https://fonticona.com | License - https://fonticona.com/license | Copyright 2022 FontIcona.com --><path d="M28,26.022H4c-2.206,0-4-1.794-4-4V9.978c0-2.206,1.794-4,4-4h24c2.206,0,4,1.794,4,4v12.045C32,24.229,30.206,26.022,28,26.022z M4,7.978c-1.103,0-2,0.897-2,2v12.045c0,1.103,0.897,2,2,2h24c1.103,0,2-0.897,2-2V9.978c0-1.103-0.897-2-2-2H4z"/><path d="M12.259,22.604c-3.74,0-6.782-3.043-6.782-6.782c0-3.74,3.042-6.783,6.782-6.783c3.74,0,6.783,3.043,6.783,6.783C19.042,19.561,16,22.604,12.259,22.604z M12.259,11.038c-2.637,0-4.782,2.146-4.782,4.783c0,2.637,2.146,4.782,4.782,4.782c2.637,0,4.783-2.146,4.783-4.782C17.042,13.184,14.896,11.038,12.259,11.038z"/><path d="M19.741,22.604c-3.74,0-6.783-3.043-6.783-6.782c0-3.74,3.042-6.783,6.783-6.783c3.74,0,6.782,3.043,6.782,6.783C26.523,19.561,23.48,22.604,19.741,22.604z M19.741,11.038c-2.637,0-4.783,2.146-4.783,4.783c0,2.637,2.146,4.782,4.783,4.782c2.637,0,4.782-2.146,4.782-4.782C24.523,13.184,22.377,11.038,19.741,11.038z"/></svg>