<svg xmlns="http://www.w3.org/2000/svg" viewBox="0 0 32 32"><!--! Font Icona - https://fonticona.com | License - https://fonticona.com/license | Copyright 2022 FontIcona.com --><path d="M28,26.022H4c-2.206,0-4-1.794-4-4V9.978c0-2.206,1.794-4,4-4h24c2.206,0,4,1.794,4,4v12.044C32,24.229,30.206,26.022,28,26.022z M4,7.978c-1.103,0-2,0.897-2,2v12.044c0,1.103,0.897,2,2,2h24c1.103,0,2-0.897,2-2V9.978c0-1.103-0.897-2-2-2H4z"/><path d="M15.392,21.921h-3.111c-0.438,0-0.847-0.187-1.124-0.512s-0.394-0.76-0.323-1.192l1.652-10.024c0.132-0.788,0.831-1.379,1.625-1.379l4.12,0.001c1.574-0.033,2.79,0.444,3.527,1.34c0.879,1.066,0.755,2.337,0.701,2.68c-0.118,1.525-0.698,2.736-1.726,3.6c-1.795,1.508-4.327,1.351-4.674,1.32L15.392,21.921z M12.91,19.921h0.777l0.439-2.735c0.022-0.219,0.115-0.622,0.484-0.964c0.386-0.358,0.922-0.516,1.592-0.463c0.042,0.004,2.021,0.18,3.253-0.862c0.612-0.519,0.943-1.255,1.013-2.253l0.018-0.125l0,0c-0.001,0,0.104-0.651-0.279-1.103c-0.424-0.501-1.272-0.604-1.971-0.601l-3.824-0.001L12.91,19.921z"/><path d="M16.295,23.728h-1.724c-0.438,0-0.847-0.187-1.124-0.512c-0.276-0.324-0.394-0.759-0.323-1.191l0.299-1.813l1.974,0.326l-0.197,1.19h0.79l0.264-1.674c0.058-0.619,0.393-1.022,0.662-1.242c0.619-0.504,1.383-0.452,1.531-0.436c0.017,0,0.034,0,0.052,0c1.885,0,2.433-1.502,2.438-1.518c0.292-0.858,0.479-1.986-0.301-2.435l0.998-1.733c0.712,0.41,2.253,1.699,1.194,4.819c-0.044,0.126-1.039,2.861-4.399,2.861c-0.059,0-0.121-0.003-0.167-0.003c-0.013,0-0.023,0-0.034,0.001l-0.309,1.971C17.793,23.132,17.095,23.728,16.295,23.728z"/></svg>