<svg xmlns="http://www.w3.org/2000/svg" viewBox="0 0 32 32"><!--! Font Icona - https://fonticona.com | License - https://fonticona.com/license | Copyright 2022 FontIcona.com --><path d="M5.609,15.259c-0.367-0.105-0.597-0.264-0.582-0.363c0.223-0.869,2.532,0.074,2.546,0.079L7.56,13.339c-0.164-0.054-2.004-0.694-3.104-0.14c-0.488,0.246-0.836,0.654-1.006,1.171c-0.038,0.112-0.209,0.702,0.128,1.347c0.281,0.538,0.81,0.921,1.572,1.138c0.548,0.157,0.989,0.521,0.986,0.675c-0.001,0.062-0.005,0.121-0.154,0.204c-0.772,0.433-2.343-0.384-2.343-0.384v1.661c0.447,0.32,1.147,0.499,1.763,0.499c0.47,0,0.939-0.096,1.329-0.293c0.668-0.337,1.056-0.944,1.066-1.665C7.814,16.406,6.71,15.574,5.609,15.259z"/><path d="M10.001,17.854c-0.085-0.061-0.135-0.297-0.131-0.466v-2.648h1.272V13.08H9.871v-1.337l-1.661,0.195l0.001,5.406c-0.006,0.123-0.04,1.222,0.801,1.845c0.331,0.246,0.727,0.368,1.182,0.368c0.372,0,0.784-0.082,1.234-0.246l-0.569-1.561C10.332,17.943,10.072,17.905,10.001,17.854z"/><rect x="15.244" y="13.261" width="1.661" height="5.918"/><polygon points="15.244,12.639 16.905,12.306 16.905,10.977 15.244,11.309 "/><path d="M28.341,14.022c-0.372-0.429-1.082-0.94-2.311-0.94c-0.002,0-0.003,0-0.005,0c-0.157-0.013-1.577-0.059-2.474,1.039c-0.679,0.831-0.818,2.028-0.415,3.555l0.031,0.092c0.045,0.115,0.477,1.135,1.665,1.564c0.334,0.121,0.689,0.181,1.063,0.181c0.756,0,1.591-0.247,2.492-0.741l-0.797-1.457c-0.888,0.485-1.637,0.642-2.173,0.462c-0.433-0.148-0.64-0.493-0.692-0.592c-0.009-0.034-0.017-0.067-0.025-0.101h4.19l0.103-0.712C29.013,16.231,29.166,14.974,28.341,14.022z M24.69,15.422c0.038-0.092,0.085-0.174,0.142-0.244c0.369-0.461,1.102-0.434,1.145-0.437c0.52,0,0.891,0.122,1.103,0.362c0.083,0.093,0.141,0.204,0.183,0.32H24.69z"/><path d="M20.148,13.236c-0.339,0-0.661,0.081-0.959,0.217v-0.191h-1.661v7.761h1.661v-1.931c0.298,0.137,0.62,0.217,0.959,0.217c1.446,0,2.621-1.363,2.621-3.037S21.594,13.236,20.148,13.236z M20.148,17.648c-0.52,0-0.959-0.63-0.959-1.376c0-0.745,0.439-1.376,0.959-1.376c0.52,0,0.96,0.63,0.96,1.376C21.108,17.018,20.668,17.648,20.148,17.648z"/><path d="M13.349,13.605v-0.343h-1.661v5.918h1.661v-3.676c0.356-0.248,0.956-0.58,1.443-0.509l0.255-1.642C14.429,13.258,13.845,13.397,13.349,13.605z"/><path d="M28,26.022H4c-2.206,0-4-1.794-4-4V9.978c0-2.206,1.794-4,4-4h24c2.206,0,4,1.794,4,4v12.045C32,24.229,30.206,26.022,28,26.022z M4,7.978c-1.103,0-2,0.897-2,2v12.045c0,1.103,0.897,2,2,2h24c1.103,0,2-0.897,2-2V9.978c0-1.103-0.897-2-2-2H4z"/></svg>