<svg xmlns="http://www.w3.org/2000/svg" viewBox="0 0 32 32"><!--! Font Icona - https://fonticona.com | License - https://fonticona.com/license | Copyright 2022 FontIcona.com --><path d="M25.466,13.59c0.087,0,0.174,0.003,0.258,0.004c0.005,0,0.01,0,0.015,0c0.047,0,0.103-0.003,0.16-0.003c0.09,0,0.183,0.008,0.247,0.047c0.171,0.105,0.119,0.374,0.145,0.541c0.099,0.639,0.258,1.272,0.382,1.907c0.052,0.266,0.105,0.532,0.156,0.798c0.078,0.407,0.156,0.813,0.238,1.219c0.001,0.005,0.001,0.01,0.003,0.015c0.065,0.258,0.067,0.266-0.195,0.266c-0.008,0-0.017,0-0.026,0c-0.123,0-0.247-0.001-0.37-0.001c-0.102,0-0.204,0.001-0.306,0.004c-0.004,0-0.009,0-0.013,0c-0.096,0-0.134-0.032-0.146-0.141c-0.019-0.167-0.06-0.333-0.111-0.494c-0.014-0.045-0.094-0.098-0.144-0.099c-0.271-0.004-0.543-0.007-0.814-0.007c-0.205,0-0.409,0.002-0.614,0.005c-0.209,0.004-0.263,0.34-0.263,0.34s-0.033,0.239-0.127,0.331c-0.026,0.025-0.076,0.059-0.118,0.06c-0.079,0.003-0.159,0.004-0.238,0.004c-0.088,0-0.175-0.001-0.263-0.001c-0.003,0-0.007,0-0.01,0c-0.1,0-0.201,0.001-0.301,0.001c-0.065,0-0.13,0-0.195-0.001c-0.117-0.002-0.136-0.044-0.087-0.149c0.141-0.305,0.275-0.613,0.413-0.92c0.128-0.284,0.261-0.566,0.387-0.851c0.122-0.277,0.236-0.557,0.357-0.835c0.083-0.191,0.17-0.38,0.254-0.57c0.128-0.29,0.253-0.581,0.383-0.87c0.136-0.304,0.292-0.527,0.636-0.578C25.257,13.594,25.362,13.59,25.466,13.59 M24.942,16.505c0.072,0,0.144-0.001,0.216-0.001v0c0.073,0,0.147,0,0.22,0c0.049,0,0.097,0,0.146,0c0,0,0.001,0,0.001,0c0.097,0,0.141-0.049,0.131-0.144c-0.006-0.058-0.015-0.116-0.027-0.173c-0.053-0.241-0.108-0.48-0.16-0.721c-0.037-0.171-0.067-0.343-0.104-0.513c-0.002-0.01-0.011-0.014-0.021-0.014c-0.015,0-0.033,0.007-0.033,0.007s-0.026-0.011-0.048-0.011c-0.012,0-0.023,0.003-0.027,0.013c-0.097,0.226-0.193,0.452-0.284,0.68c-0.091,0.228-0.174,0.459-0.266,0.687c-0.047,0.116-0.011,0.184,0.117,0.188C24.851,16.505,24.897,16.505,24.942,16.505 M25.466,11.59c-0.225,0-0.417,0.013-0.603,0.04c-0.679,0.1-1.607,0.484-2.169,1.74l-0.239,0.543l-0.148,0.336l-0.099,0.221c-0.054,0.121-0.109,0.242-0.161,0.363l-0.159,0.374c-0.063,0.15-0.126,0.299-0.192,0.448c-0.072,0.163-0.146,0.325-0.22,0.486l-0.159,0.349l-0.162,0.362c-0.081,0.182-0.162,0.363-0.245,0.544c-0.313,0.679-0.274,1.415,0.107,2.019c0.381,0.604,1.025,0.956,1.768,0.967l0.224,0.001l0.167,0l0.135,0l0.129,0l0.143,0.001c0.105,0,0.211-0.001,0.316-0.005c0.452-0.018,0.814-0.174,1.076-0.342c0.338,0.221,0.744,0.347,1.183,0.347c0.018,0,0.049,0,0.067-0.001c0.084-0.002,0.168-0.003,0.252-0.003l0.184,0.001l0.185,0.001c0.803,0,1.407-0.271,1.823-0.804c0.59-0.757,0.432-1.565,0.353-1.893c-0.079-0.395-0.155-0.785-0.229-1.176l-0.128-0.66L28.636,15.7c-0.047-0.241-0.099-0.483-0.152-0.724c-0.078-0.36-0.151-0.701-0.205-1.028c-0.049-1.149-0.618-1.728-1.09-2.017c-0.375-0.229-0.797-0.34-1.29-0.34l-0.144,0.002l-0.07-0.001L25.466,11.59L25.466,11.59z"/><path d="M4.894,13.606l2.255,0.001c0.002,0,0.004,0,0.007,0c0.346,0,0.555,0.246,0.605,0.57c0.056,0.358,0.13,0.713,0.195,1.069c0.004,0.02,0.009,0.039,0.012,0.059c0.045,0.31,0.087,0.621,0.135,0.931c0.027,0.172,0.062,0.343,0.098,0.513c0.006,0.03,0.031,0.071,0.056,0.078c0.002,0.001,0.005,0.001,0.007,0.001c0.024,0,0.063-0.023,0.075-0.045c0.07-0.131,0.139-0.263,0.198-0.399c0.145-0.336,0.288-0.674,0.426-1.013c0.122-0.298,0.235-0.6,0.355-0.898c0.104-0.257,0.21-0.514,0.323-0.767c0.018-0.041,0.08-0.088,0.123-0.088c0.323-0.006,0.69-0.011,1.023-0.011c0.043,0,0.086,0,0.128,0c-0.654,1.557-1.305,3.178-2.054,4.691c-0.02,0.041-0.089,0.082-0.137,0.082c-0.146,0.003-0.292,0.003-0.438,0.003c-0.142,0-0.285-0.001-0.427-0.001c-0.062,0-0.125,0-0.187,0c0,0-0.002,0-0.002,0c-0.106,0-0.157-0.042-0.181-0.151c-0.165-0.757-0.357-1.529-0.528-2.293c-0.164-0.735-0.15-1.607-0.94-1.967c-0.184-0.084-0.383-0.15-0.579-0.201C5.409,13.762,4.894,13.606,4.894,13.606 M4.894,11.606c-0.992,0-1.836,0.726-1.981,1.708c-0.145,0.982,0.451,1.921,1.401,2.206c0,0,0.412,0.124,0.567,0.169c0.011,0.06,0.022,0.121,0.03,0.173c0.03,0.173,0.061,0.346,0.098,0.513c0.078,0.348,0.16,0.699,0.242,1.049c0.097,0.413,0.194,0.825,0.283,1.233c0.225,1.033,1.083,1.726,2.135,1.726l0.19,0l0.209,0l0.218,0c0.158,0,0.316-0.001,0.474-0.004c0.797-0.014,1.54-0.483,1.893-1.195c0.65-1.314,1.221-2.684,1.773-4.008l0.332-0.796c0.259-0.616,0.193-1.32-0.176-1.878s-0.991-0.894-1.659-0.897l-0.137,0c-0.345,0-0.724,0.005-1.058,0.011c-0.422,0.008-0.833,0.15-1.177,0.39c-0.402-0.256-0.879-0.4-1.396-0.4l-2.261-0.001H4.894L4.894,11.606z"/><path d="M19.499,13.544c0.381,0,0.77,0.072,1.173,0.163c0.03,0.007,0.065,0.069,0.067,0.108c0.004,0.074-0.009,0.15-0.024,0.223c-0.035,0.165-0.073,0.33-0.115,0.493c-0.019,0.072-0.064,0.102-0.127,0.102c-0.034,0-0.072-0.009-0.115-0.025c-0.263-0.098-0.528-0.171-0.797-0.171c-0.179,0-0.359,0.032-0.54,0.112c-0.159,0.069-0.286,0.204-0.284,0.375c0.003,0.41,0.74,0.638,1.028,0.815c0.405,0.249,0.708,0.577,0.725,1.075c0.027,0.792-0.648,1.407-1.374,1.572c-0.222,0.05-0.442,0.071-0.659,0.071c-0.424,0-0.844-0.077-1.271-0.159c-0.412-0.079-0.042-1.022-0.042-1.022c0.39,0.112,0.751,0.252,1.13,0.252c0.151,0,0.305-0.022,0.464-0.077c0.43-0.149,0.738-0.437,0.283-0.823c-0.422-0.357-1.052-0.465-1.365-0.949c-0.396-0.613-0.027-1.401,0.544-1.765C18.627,13.64,19.058,13.544,19.499,13.544 M19.499,11.544c-0.867,0-1.666,0.23-2.376,0.684c-0.795,0.508-1.364,1.315-1.559,2.214c-0.114,0.522-0.094,1.049,0.053,1.541c-0.139,0.164-0.253,0.353-0.335,0.563c-0.272,0.694-0.492,1.71,0.004,2.609c0.319,0.579,0.874,0.982,1.523,1.106c0.429,0.082,1.016,0.195,1.648,0.195c0.384,0,0.745-0.039,1.102-0.12c1.755-0.398,2.987-1.908,2.931-3.59c-0.009-0.278-0.061-0.661-0.231-1.077c0.122-0.19,0.216-0.403,0.277-0.634c0.051-0.193,0.095-0.389,0.137-0.585c0.036-0.168,0.081-0.429,0.065-0.742c-0.05-0.945-0.717-1.748-1.623-1.953C20.651,11.651,20.097,11.544,19.499,11.544L19.499,11.544z"/><path d="M14.463,13.612c0.15,0,0.299,0,0.448,0c-0.315,1.524-0.786,3.022-1.04,4.558c-0.03,0.18-0.051,0.211-0.238,0.212c-0.182,0.001-0.365,0.001-0.547,0.001c-0.108,0-0.217,0-0.325,0c-0.131,0-0.149-0.039-0.116-0.167c0.386-1.489,0.716-2.984,1.056-4.483c0.01-0.044,0.051-0.115,0.079-0.116C14.008,13.613,14.236,13.612,14.463,13.612 M14.463,11.612c-0.24,0-0.482,0.001-0.724,0.006c-0.951,0.018-1.769,0.706-1.989,1.672l-0.146,0.644c-0.282,1.246-0.573,2.534-0.896,3.78c-0.237,0.914,0.119,1.557,0.352,1.859c0.233,0.302,0.762,0.808,1.695,0.81l0.33,0l0.554-0.001c1.151-0.004,2.016-0.744,2.204-1.886c0.134-0.813,0.34-1.63,0.557-2.495c0.161-0.642,0.328-1.306,0.468-1.984c0.122-0.589-0.028-1.201-0.408-1.668c-0.38-0.466-0.949-0.737-1.551-0.737l-0.22,0L14.463,11.612L14.463,11.612z"/><path d="M28,26.022H4c-2.206,0-4-1.794-4-4V9.978c0-2.206,1.794-4,4-4h24c2.206,0,4,1.794,4,4v12.045C32,24.229,30.206,26.022,28,26.022z M4,7.978c-1.103,0-2,0.897-2,2v12.045c0,1.103,0.897,2,2,2h24c1.103,0,2-0.897,2-2V9.978c0-1.103-0.897-2-2-2H4z"/></svg>