<svg xmlns="http://www.w3.org/2000/svg" viewBox="0 0 32 32"><!--! Font Icona - https://fonticona.com | License - https://fonticona.com/license | Copyright 2022 FontIcona.com --><path d="M16.859,19.773c-2.25,0-4.081-1.831-4.081-4.082c0-2.25,1.831-4.081,4.081-4.081c2.251,0,4.082,1.831,4.082,4.081C20.941,17.942,19.11,19.773,16.859,19.773z M16.859,13.61c-1.147,0-2.081,0.934-2.081,2.081c0,1.148,0.934,2.082,2.081,2.082c1.148,0,2.082-0.934,2.082-2.082C18.941,14.544,18.008,13.61,16.859,13.61z"/><path d="M12.403,26.251c-1.309,0-2.073-0.222-2.163-0.249l-0.626-0.193l-0.183-1.625C8.494,15.92,7.79,7.683,10.307,5.648c0.458-0.371,1.235-0.73,2.34-0.361c16.13,5.42,13.72,13.937,13.609,14.297l-0.083,0.27l-0.213,0.188C19.94,25.338,15.055,26.251,12.403,26.251z M11.445,24.194c1.661,0.178,6.529,0.104,12.95-5.443c0.215-1.293,0.436-7.26-12.386-11.567l0,0c-0.298-0.101-0.387-0.028-0.445,0.02C9.69,8.718,10.946,19.79,11.419,23.958L11.445,24.194z"/><path d="M16,32C7.178,32,0,24.822,0,16S7.178,0,16,0s16,7.178,16,16S24.822,32,16,32z M16,2C8.28,2,2,8.28,2,16s6.28,14,14,14s14-6.28,14-14S23.72,2,16,2z"/></svg>