<svg xmlns="http://www.w3.org/2000/svg" viewBox="0 0 32 32"><!--! Font Icona - https://fonticona.com | License - https://fonticona.com/license | Copyright 2022 FontIcona.com --><path d="M25.032,32c-0.365,0-0.717-0.2-0.893-0.548C19.98,23.246,22.517,1.789,22.627,0.88c0.066-0.548,0.573-0.933,1.113-0.873c0.548,0.066,0.939,0.564,0.873,1.113c-0.026,0.217-2.575,21.762,1.31,29.428c0.25,0.493,0.053,1.095-0.44,1.344C25.338,31.966,25.184,32,25.032,32z"/><path d="M22.829,20.093c-0.003,0-0.006,0-0.01,0L6.959,19.938c-0.552-0.006-0.996-0.457-0.99-1.01c0.005-0.549,0.452-0.99,1-0.99c0.003,0,0.006,0,0.01,0l15.859,0.154c0.552,0.006,0.996,0.457,0.99,1.01C23.823,19.651,23.376,20.093,22.829,20.093z"/><path d="M6.969,32c-0.552,0-1-0.447-1-1V18.938c0-0.553,0.448-1,1-1s1,0.447,1,1V31C7.969,31.553,7.521,32,6.969,32z"/><path d="M23.085,25.688H6.969c-0.552,0-1-0.447-1-1s0.448-1,1-1h16.116c0.552,0,1,0.447,1,1S23.638,25.688,23.085,25.688z"/></svg>