<svg xmlns="http://www.w3.org/2000/svg" viewBox="0 0 32 32"><!--! Font Icona - https://fonticona.com | License - https://fonticona.com/license | Copyright 2022 FontIcona.com --><path d="M6.009,14.939c-2.098,0-3.805-1.709-3.805-3.81c0-2.102,1.707-3.811,3.805-3.811c2.098,0,3.804,1.709,3.804,3.811C9.813,13.23,8.106,14.939,6.009,14.939z M6.009,9.319c-0.995,0-1.805,0.812-1.805,1.811s0.81,1.81,1.805,1.81c0.995,0,1.804-0.812,1.804-1.81S7.003,9.319,6.009,9.319z"/><path d="M9.017,32H3c-1.654,0-3-1.346-3-3v-9.201c0-2.283,2.639-4.071,6.009-4.071c3.369,0,6.008,1.849,6.008,4.208V29C12.017,30.654,10.671,32,9.017,32z M6.009,17.728C3.714,17.728,2,18.821,2,19.799V29c0,0.552,0.449,1,1,1h6.017c0.551,0,1-0.448,1-1v-9.064C10.017,18.892,8.371,17.728,6.009,17.728z"/><path d="M13.729,23.445c-0.143,0-0.287-0.01-0.43-0.03c-0.957-0.14-1.793-0.736-2.236-1.596l-1.468-2.854c-0.253-0.491-0.06-1.094,0.432-1.347c0.492-0.253,1.094-0.059,1.347,0.433l1.468,2.854c0.15,0.29,0.421,0.484,0.746,0.531c0.324,0.044,0.639-0.061,0.866-0.297l3.671-3.827c0.382-0.399,1.016-0.41,1.414-0.029c0.398,0.383,0.412,1.016,0.029,1.414l-3.672,3.827C15.326,23.116,14.54,23.445,13.729,23.445z"/><path d="M29,18.551h-4.726c-0.552,0-1-0.447-1-1s0.448-1,1-1H29c0.551,0,1-0.45,1-1.004V3.004C30,2.45,29.551,2,29,2H3C2.449,2,2,2.45,2,3.004v2.378c0,0.553-0.448,1-1,1s-1-0.447-1-1V3.004C0,1.348,1.346,0,3,0h26c1.654,0,3,1.348,3,3.004v12.543C32,17.203,30.654,18.551,29,18.551z"/></svg>