<svg xmlns="http://www.w3.org/2000/svg" viewBox="0 0 32 32"><!--! Font Icona - https://fonticona.com | License - https://fonticona.com/license | Copyright 2022 FontIcona.com --><path d="M7.866,19.378c-0.169,0-0.34-0.043-0.497-0.133C6.89,18.97,6.725,18.358,7,17.88L8.9,14.569l-1.97-0.576c-0.317-0.093-0.568-0.337-0.67-0.65c-0.102-0.314-0.042-0.659,0.16-0.921l3.189-4.133c0.336-0.438,0.964-0.518,1.402-0.181c0.438,0.338,0.518,0.966,0.181,1.403l-2.294,2.974l1.784,0.521c0.294,0.086,0.533,0.303,0.647,0.587s0.092,0.605-0.061,0.871l-2.533,4.411C8.549,19.198,8.212,19.378,7.866,19.378z"/><path d="M13.989,32H3.622c-1.103,0-2-0.897-2-2v-1.178c0-1.103,0.897-2,2-2h10.367c1.103,0,2,0.897,2,2V30C15.989,31.103,15.092,32,13.989,32z M3.622,28.822H3.621L3.622,30h10.367v-1.178H3.622z"/><path d="M13.733,28.833c-0.552,0-1-0.447-1-1V3.389C12.727,2.615,12.059,2.01,11.32,2H6.3C5.543,2.003,4.918,2.626,4.911,3.388v24.435c0,0.553-0.448,1-1,1s-1-0.447-1-1V3.378C2.928,1.52,4.446,0.008,6.295,0h5.016c0.01,0,0.021,0,0.03,0c1.853,0,3.375,1.505,3.392,3.369v24.464C14.733,28.386,14.286,28.833,13.733,28.833z"/><path d="M21.961,31.838c-1.072,0-2.106-0.355-2.963-1.026c-1.014-0.795-1.658-1.937-1.812-3.216c-0.044-0.363-0.047-0.732-0.007-1.097v-6.365c0-1.746-1.42-3.167-3.167-3.167c-0.552,0-1-0.447-1-1s0.448-1,1-1c2.849,0,5.167,2.318,5.167,5.167v6.422c0,0.04-0.002,0.08-0.007,0.12c-0.027,0.226-0.027,0.454,0,0.68c0.091,0.748,0.467,1.417,1.061,1.882c0.593,0.464,1.331,0.674,2.081,0.579c0.749-0.09,1.417-0.467,1.882-1.06c0.465-0.594,0.671-1.332,0.581-2.081c-0.005-0.04-0.007-0.08-0.007-0.12V12.944c0-0.553,0.448-1,1-1s1,0.447,1,1v13.555c0.282,2.614-1.596,4.986-4.214,5.304C22.354,31.826,22.157,31.838,21.961,31.838z"/><path d="M29.378,13.478h-7.222c-0.552,0-1-0.447-1-1V8.389c0-0.553,0.448-1,1-1h7.222c0.552,0,1,0.447,1,1v4.089C30.378,13.03,29.93,13.478,29.378,13.478z M23.156,11.478h5.222V9.389h-5.222V11.478z"/><path d="M23.6,9.389c-0.552,0-1-0.447-1-1V4.911c0-0.553,0.448-1,1-1s1,0.447,1,1v3.478C24.6,8.941,24.152,9.389,23.6,9.389z"/><path d="M27.933,9.389c-0.552,0-1-0.447-1-1V4.911c0-0.553,0.448-1,1-1s1,0.447,1,1v3.478C28.933,8.941,28.485,9.389,27.933,9.389z"/></svg>