<svg xmlns="http://www.w3.org/2000/svg" viewBox="0 0 32 32"><!--! Font Icona - https://fonticona.com | License - https://fonticona.com/license | Copyright 2022 FontIcona.com --><path d="M14.255,32C6.56,32,0.3,25.74,0.3,18.045S6.56,4.089,14.255,4.089c0.552,0,1,0.447,1,1v11.956h11.956c0.552,0,1,0.447,1,1C28.211,25.74,21.951,32,14.255,32z M13.255,6.13C7.129,6.64,2.3,11.789,2.3,18.045C2.3,24.637,7.663,30,14.255,30c6.255,0,11.404-4.829,11.914-10.955H14.255c-0.552,0-1-0.447-1-1V6.13z"/><path d="M30.7,14H18.689c-0.552,0-1-0.447-1-1V1c0-0.553,0.448-1,1-1C25.856,0,31.693,5.831,31.7,12.999c0,0.266-0.105,0.52-0.292,0.708C31.22,13.895,30.965,14,30.7,14z M19.689,12h9.965c-0.482-5.27-4.695-9.479-9.965-9.955V12z"/></svg>