<svg xmlns="http://www.w3.org/2000/svg" viewBox="0 0 32 32"><!--! Font Icona - https://fonticona.com | License - https://fonticona.com/license | Copyright 2022 FontIcona.com --><path d="M29,31.402H3c-1.654,0-3-1.346-3-3v-1.695c0-0.553,0.447-1,1-1s1,0.447,1,1v1.695c0,0.552,0.448,1,1,1h26c0.552,0,1-0.448,1-1v-2.136c0-0.553,0.447-1,1-1s1,0.447,1,1v2.136C32,30.056,30.654,31.402,29,31.402z"/><path d="M1,29.334c-0.553,0-1-0.447-1-1v-7.925c0-0.323,0.079-0.643,0.229-0.929l2.283-5.797c0.455-1.154,1.551-1.9,2.791-1.9h2.814c0.553,0,1,0.447,1,1s-0.447,1-1,1H5.303c-0.407,0-0.781,0.255-0.93,0.633l-2.307,5.855c-0.019,0.047-0.04,0.092-0.065,0.136L2,28.334C2,28.886,1.553,29.334,1,29.334z"/><path d="M31,29.334c-0.553,0-1-0.447-1-1v-7.925c-0.025-0.043-0.048-0.091-0.066-0.137l-2.31-5.855c-0.151-0.385-0.517-0.634-0.93-0.634h-2.812c-0.553,0-1-0.447-1-1s0.447-1,1-1h2.812c1.24,0,2.335,0.745,2.791,1.899l2.286,5.798C31.921,19.766,32,20.086,32,20.409v7.925C32,28.886,31.553,29.334,31,29.334z"/><path d="M31,21.409H1c-0.553,0-1-0.447-1-1s0.447-1,1-1h30c0.553,0,1,0.447,1,1S31.553,21.409,31,21.409z"/><path d="M16,13.783c-3.635,0-6.592-2.957-6.592-6.592c0-3.636,2.957-6.593,6.592-6.593s6.592,2.957,6.592,6.593C22.592,10.826,19.635,13.783,16,13.783z M16,2.598c-2.532,0-4.592,2.061-4.592,4.593s2.06,4.592,4.592,4.592s4.592-2.06,4.592-4.592S18.532,2.598,16,2.598z"/><path d="M23.883,17.595H8.117c-0.553,0-1-0.447-1-1s0.447-1,1-1h15.766c0.553,0,1,0.447,1,1S24.436,17.595,23.883,17.595z"/></svg>