<svg xmlns="http://www.w3.org/2000/svg" viewBox="0 0 32 32"><!--! Font Icona - https://fonticona.com | License - https://fonticona.com/license | Copyright 2022 FontIcona.com --><path d="M5.522,32H3c-1.654,0-3-1.346-3-3V9c0-1.654,1.346-3,3-3h2.522c1.654,0,3,1.346,3,3v20C8.522,30.654,7.176,32,5.522,32z M3,8C2.449,8,2,8.449,2,9v20c0,0.552,0.449,1,1,1h2.522c0.551,0,1-0.448,1-1V9c0-0.551-0.449-1-1-1H3z"/><path d="M29,32h-2.522c-1.654,0-3-1.346-3-3V3c0-1.654,1.346-3,3-3H29c1.654,0,3,1.346,3,3v26C32,30.654,30.654,32,29,32z M26.478,2c-0.552,0-1,0.449-1,1v26c0,0.552,0.448,1,1,1H29c0.552,0,1-0.448,1-1V3c0-0.551-0.448-1-1-1H26.478z"/><path d="M17.261,32h-2.522c-1.654,0-3-1.346-3-3V15c0-1.654,1.346-3,3-3h2.522c1.654,0,3,1.346,3,3v14C20.261,30.654,18.915,32,17.261,32z M14.739,14c-0.551,0-1,0.449-1,1v14c0,0.552,0.449,1,1,1h2.522c0.552,0,1-0.448,1-1V15c0-0.551-0.448-1-1-1H14.739z"/></svg>