<svg xmlns="http://www.w3.org/2000/svg" viewBox="0 0 32 32"><!--! Font Icona - https://fonticona.com | License - https://fonticona.com/license | Copyright 2022 FontIcona.com --><path d="M10.919,14.495c-1.835,0-3.328-1.493-3.328-3.328s1.493-3.328,3.328-3.328s3.328,1.493,3.328,3.328S12.754,14.495,10.919,14.495z M10.919,9.839c-0.732,0-1.328,0.596-1.328,1.328s0.596,1.328,1.328,1.328c0.732,0,1.328-0.596,1.328-1.328S11.651,9.839,10.919,9.839z"/><path d="M20.264,26.467c-1.835,0-3.328-1.493-3.328-3.328s1.493-3.328,3.328-3.328s3.328,1.493,3.328,3.328S22.099,26.467,20.264,26.467z M20.264,21.811c-0.732,0-1.328,0.596-1.328,1.328s0.596,1.328,1.328,1.328c0.732,0,1.328-0.596,1.328-1.328S20.997,21.811,20.264,21.811z"/><path d="M3.328,31.896C1.493,31.896,0,30.402,0,28.567s1.493-3.328,3.328-3.328s3.328,1.493,3.328,3.328S5.163,31.896,3.328,31.896z M3.328,27.239C2.596,27.239,2,27.835,2,28.567s0.596,1.328,1.328,1.328s1.328-0.596,1.328-1.328S4.061,27.239,3.328,27.239z"/><path d="M28.672,6.761c-1.835,0-3.328-1.493-3.328-3.328s1.493-3.328,3.328-3.328S32,1.598,32,3.433S30.507,6.761,28.672,6.761z M28.672,2.104c-0.732,0-1.328,0.596-1.328,1.328s0.596,1.328,1.328,1.328S30,4.165,30,3.433S29.404,2.104,28.672,2.104z"/><rect x="-0.047" y="18.872" transform="matrix(0.3818 -0.9242 0.9242 0.3818 -13.9599 18.8742)" width="14.352" height="2"/><rect x="16.201" y="12.356" transform="matrix(0.37 -0.929 0.929 0.37 3.09 31.2699)" width="16.803" height="2"/><rect x="14.559" y="11.894" transform="matrix(0.7867 -0.6174 0.6174 0.7867 -7.2842 13.2693)" width="2" height="10.562"/></svg>