<svg xmlns="http://www.w3.org/2000/svg" viewBox="0 0 32 32"><!--! Font Icona - https://fonticona.com | License - https://fonticona.com/license | Copyright 2022 FontIcona.com --><path d="M10.449,27.402c-0.845,0-1.654-0.359-2.222-0.984l-7.968-8.775c-0.372-0.408-0.341-1.041,0.068-1.412c0.41-0.37,1.042-0.341,1.413,0.068l7.968,8.775c0.192,0.211,0.455,0.328,0.741,0.328c0,0,0.001,0,0.001,0c0.286-0.001,0.549-0.118,0.741-0.33L30.258,3.948c0.369-0.41,1.002-0.444,1.412-0.072c0.41,0.37,0.442,1.002,0.072,1.412L12.675,26.412c-0.566,0.628-1.377,0.988-2.223,0.99C10.451,27.402,10.45,27.402,10.449,27.402z"/></svg>