<svg xmlns="http://www.w3.org/2000/svg" viewBox="0 0 32 32"><!--! Font Icona - https://fonticona.com | License - https://fonticona.com/license | Copyright 2022 FontIcona.com --><path d="M16.311,32c-3.245,0-6.542-1.009-9.628-3.011c-0.778-0.506-1.273-1.376-1.326-2.329l-0.176-3.154c-0.156-2.829-0.182-3.285-0.368-6.889c-0.029-0.552,0.395-1.022,0.947-1.05c0.534-0.035,1.022,0.394,1.05,0.947c0.187,3.6,0.212,4.055,0.368,6.882l0.176,3.152c0.018,0.32,0.174,0.605,0.419,0.763c5.009,3.252,10.625,3.558,15.408,0.838c0.324-0.185,0.527-0.503,0.542-0.85l0.309-7.214c0.054-1.226,0.088-2.021,0.195-4.751c0.021-0.552,0.529-0.974,1.038-0.96c0.552,0.021,0.981,0.486,0.96,1.038c-0.107,2.735-0.142,3.53-0.195,4.76l-0.309,7.214c-0.045,1.039-0.625,1.974-1.55,2.501C21.689,31.298,19.017,32,16.311,32z"/><path d="M25.493,16.377c-1.711,0-3.455-0.787-4.543-1.549c-0.452-0.317-0.561-0.941-0.244-1.393c0.316-0.452,0.939-0.562,1.392-0.245c1.224,0.858,2.821,1.331,3.875,1.153c1.49-0.307,2.923-1.815,3.617-3.837c0.717-2.089,0.477-4.188-0.625-5.478c-0.994-1.191-2.288-1.272-3.212-1.133c-1.719,0.263-3.347,1.475-3.956,2.949c-0.211,0.511-0.797,0.75-1.305,0.542C19.982,7.175,19.74,6.59,19.951,6.08c0.877-2.121,3.088-3.793,5.502-4.161c2.017-0.309,3.806,0.338,5.041,1.819c1.552,1.816,1.934,4.662,0.989,7.417c-0.933,2.719-2.903,4.694-5.14,5.153C26.062,16.355,25.779,16.377,25.493,16.377z"/><path d="M10.427,9.644c-0.07,0-0.14-0.007-0.211-0.022c-0.54-0.116-0.884-0.647-0.767-1.187c0.516-2.399,1.295-6.024,4.472-7.67c2.97-1.53,6.167-0.761,9.511,2.277c0.408,0.371,0.438,1.004,0.067,1.412c-0.371,0.41-1.003,0.438-1.413,0.068c-2.738-2.489-5.04-3.118-7.249-1.981c-2.159,1.118-2.856,3.625-3.434,6.313C11.302,9.324,10.888,9.644,10.427,9.644z"/><path d="M7.584,17.572c-1.751,0-3.231-0.309-4.352-0.928c-2.421-1.385-3.434-4.681-3.192-7.223c0.263-2.976,2.286-5.596,5.28-6.829c2.605-1.073,5.256-0.788,7.092,0.763c0.422,0.356,0.475,0.987,0.119,1.409c-0.356,0.422-0.988,0.475-1.409,0.119C9.868,3.823,7.984,3.657,6.082,4.441C3.816,5.374,2.226,7.4,2.032,9.603c-0.18,1.891,0.586,4.385,2.181,5.298c1.684,0.928,4.91,0.883,8.617-0.129c0.532-0.146,1.082,0.168,1.228,0.701c0.145,0.533-0.169,1.082-0.701,1.228C11.23,17.282,9.279,17.572,7.584,17.572z"/><path d="M16.343,26.495c-3.533,0-7.124-0.62-10.494-1.853c-0.518-0.19-0.785-0.764-0.595-1.283s0.765-0.783,1.282-0.596c5.857,2.145,12.419,2.31,18.006,0.447c0.522-0.171,1.09,0.109,1.264,0.634c0.174,0.523-0.109,1.09-0.634,1.264C22.393,26.035,19.389,26.495,16.343,26.495z"/></svg>