<svg xmlns="http://www.w3.org/2000/svg" viewBox="0 0 32 32"><!--! Font Icona - https://fonticona.com | License - https://fonticona.com/license | Copyright 2022 FontIcona.com --><path d="M14.585,29.076c-0.256,0-0.512-0.098-0.707-0.293c-0.391-0.391-0.391-1.023,0-1.414l15.795-15.795C29.884,11.364,30,11.083,30,10.785c0-0.298-0.116-0.579-0.328-0.79l-7.667-7.667c-0.423-0.421-1.157-0.421-1.579,0L4.63,18.122c-0.391,0.391-1.023,0.391-1.414,0s-0.391-1.023,0-1.414L19.011,0.913c1.176-1.177,3.23-1.179,4.408,0l7.667,7.667C31.676,9.169,32,9.952,32,10.785c0,0.833-0.324,1.616-0.913,2.204L15.292,28.784C15.097,28.979,14.841,29.076,14.585,29.076z"/><path d="M21.795,16.783c-0.141,0-0.284-0.018-0.428-0.055c-1.281-0.327-2.282-2.032-2.633-2.888c-0.363-0.882-0.694-1.809-0.343-2.421c0.147-0.258,0.402-0.425,0.717-0.47c0.877-0.126,1.664,0.818,2.188,1.443l0.156,0.185c0.25,0.287,0.48,0.583,0.707,0.886c0.038,0.051,0.091,0.127,0.155,0.222c0.378,0.549,0.625,0.849,0.785,1.008c-0.013-0.229-0.119-0.463-0.229-0.707c-0.142-0.312-0.303-0.667-0.334-1.047c-0.016-0.185,0.071-0.361,0.226-0.462c0.154-0.099,0.352-0.107,0.514-0.018c0.19,0.104,0.377,0.24,0.543,0.392c-0.01-0.103-0.018-0.197-0.023-0.28l-0.017-0.204c-0.047-0.554-0.105-1.243,0.277-1.768c0.215-0.295,0.615-0.578,1.328-0.309c-0.024-0.104-0.046-0.207-0.062-0.312c-0.026-0.177,0.044-0.354,0.185-0.465c0.141-0.109,0.329-0.137,0.495-0.072c0,0,0.009,0.004,0.025,0.011c-0.051-0.104-0.099-0.205-0.14-0.304c-0.112-0.27-0.226-0.558-0.272-0.863c-0.031-0.21-0.088-0.595,0.167-0.861c0.139-0.146,0.333-0.216,0.542-0.191c0.293,0.028,0.524,0.244,0.709,0.417c0.04,0.038,0.076,0.073,0.107,0.098c0.219,0.168,0.261,0.481,0.093,0.7c-0.116,0.151-0.299,0.217-0.475,0.19c0.017,0.042,0.034,0.084,0.052,0.126c0.057,0.137,0.13,0.279,0.204,0.424c0.174,0.341,0.354,0.692,0.415,1.069c0.026,0.164-0.03,0.33-0.151,0.444c-0.12,0.113-0.291,0.158-0.452,0.124c-0.027-0.007-0.069-0.016-0.37-0.131c0.007,0.389-0.163,0.582-0.308,0.677c-0.334,0.219-0.695,0.05-0.959-0.074c-0.268-0.124-0.333-0.115-0.334-0.115c-0.154,0.229-0.114,0.692-0.08,1.101l0.017,0.219c0.03,0.424,0.079,0.742,0.159,1.033c0.047,0.174-0.002,0.36-0.131,0.487c-0.128,0.127-0.317,0.173-0.489,0.125l-0.35-0.101c0.12,0.329,0.19,0.684,0.09,1.061c-0.147,0.557-0.487,0.695-0.677,0.729c-0.121,0.021-0.238,0.012-0.353-0.021c0.072,0.195,0.017,0.423-0.154,0.561C22.554,16.645,22.183,16.783,21.795,16.783z M19.276,11.938c-0.009,0-0.018,0.001-0.026,0.002c-0.029,0.052-0.072,0.351,0.385,1.459c0.367,0.896,1.199,2.161,1.98,2.36c0.233,0.058,0.431,0.01,0.64-0.16c0.072-0.059,0.156-0.095,0.242-0.107c-0.34-0.299-0.672-0.754-1.006-1.24l-0.132-0.188c-0.212-0.283-0.427-0.56-0.661-0.829l-0.168-0.198C20.299,12.76,19.609,11.938,19.276,11.938z"/><path d="M8.872,18.683c-0.256,0-0.512-0.098-0.707-0.293c-0.391-0.391-0.391-1.023,0-1.414l3.989-3.989c0.391-0.391,1.023-0.391,1.414,0s0.391,1.023,0,1.414L9.579,18.39C9.383,18.585,9.127,18.683,8.872,18.683z"/><path d="M11.492,21.303c-0.256,0-0.512-0.098-0.707-0.293c-0.391-0.391-0.391-1.023,0-1.414l3.923-3.924c0.391-0.391,1.023-0.391,1.414,0c0.391,0.391,0.391,1.023,0,1.414l-3.923,3.924C12.003,21.205,11.748,21.303,11.492,21.303z"/><path d="M14.112,23.923c-0.256,0-0.512-0.098-0.707-0.293c-0.391-0.391-0.391-1.023,0-1.414l3.923-3.923c0.391-0.391,1.023-0.391,1.414,0s0.391,1.023,0,1.414l-3.923,3.923C14.624,23.826,14.368,23.923,14.112,23.923z"/><path d="M10.785,31.998c-0.798,0-1.596-0.304-2.204-0.911l-7.668-7.668c-1.215-1.216-1.215-3.192,0-4.408l2.304-2.303c0.391-0.391,1.023-0.391,1.414,0s0.391,1.023,0,1.414l-2.303,2.303c-0.435,0.436-0.435,1.145,0,1.58l7.667,7.668c0.436,0.435,1.144,0.435,1.58,0l2.303-2.304c0.391-0.391,1.023-0.391,1.414,0s0.391,1.023,0,1.414l-2.303,2.304C12.381,31.695,11.583,31.998,10.785,31.998z"/><path d="M13.796,29.866c-0.256,0-0.512-0.098-0.707-0.293L2.531,19.015c-0.391-0.391-0.391-1.023,0-1.414s1.023-0.391,1.414,0l10.558,10.558c0.391,0.391,0.391,1.023,0,1.414C14.308,29.768,14.052,29.866,13.796,29.866z"/></svg>