<svg xmlns="http://www.w3.org/2000/svg" viewBox="0 0 32 32"><!--! Font Icona - https://fonticona.com | License - https://fonticona.com/license | Copyright 2022 FontIcona.com --><path d="M18.561,32h-5.121c-0.553,0-1-0.447-1-1V15.954H6.408c-0.553,0-1-0.447-1-1v-5.12c0-0.553,0.447-1,1-1h6.031V1c0-0.553,0.447-1,1-1h5.121c0.553,0,1,0.447,1,1v7.834h6.031c0.553,0,1,0.447,1,1v5.12c0,0.553-0.447,1-1,1h-6.031V31C19.561,31.553,19.113,32,18.561,32z M14.439,30h3.121V14.954c0-0.553,0.447-1,1-1h6.031v-3.12h-6.031c-0.553,0-1-0.447-1-1V2h-3.121v7.834c0,0.553-0.447,1-1,1H7.408v3.12h6.031c0.553,0,1,0.447,1,1V30z"/></svg>