<svg xmlns="http://www.w3.org/2000/svg" viewBox="0 0 32 32"><!--! Font Icona - https://fonticona.com | License - https://fonticona.com/license | Copyright 2022 FontIcona.com --><path d="M15.943,8.482c-0.552,0-1-0.447-1-1V1c0-0.553,0.448-1,1-1s1,0.447,1,1v6.482C16.943,8.035,16.496,8.482,15.943,8.482z"/><path d="M18.047,4.5H13.84c-0.552,0-1-0.447-1-1s0.448-1,1-1h4.207c0.552,0,1,0.447,1,1S18.599,4.5,18.047,4.5z"/><path d="M21.688,30.062c-0.552,0-1-0.447-1-1V12.337l-4.736-3.599l-4.735,3.599v16.725c0,0.553-0.448,1-1,1s-1-0.447-1-1V11.841c0-0.312,0.146-0.607,0.395-0.796l5.735-4.358c0.357-0.271,0.853-0.271,1.21,0l5.736,4.358c0.249,0.188,0.395,0.483,0.395,0.796v17.221C22.688,29.614,22.241,30.062,21.688,30.062z"/><path d="M0.999,22.13c-0.155,0-0.312-0.035-0.458-0.111c-0.486-0.253-0.681-0.847-0.433-1.335c0.08-0.157,2.039-3.88,9.29-5.978c0.53-0.151,1.085,0.152,1.238,0.683c0.154,0.531-0.152,1.086-0.683,1.239c-6.331,1.831-8.05,4.938-8.067,4.969C1.707,21.936,1.358,22.13,0.999,22.13z"/><path d="M9.676,29.166H4.352c-1.654,0-3-1.346-3-3v-5.882c0-0.553,0.448-1,1-1s1,0.447,1,1v5.882c0,0.552,0.449,1,1,1h5.325c0.552,0,1,0.447,1,1S10.229,29.166,9.676,29.166z"/><path d="M31.001,22.136c-0.362,0-0.711-0.197-0.889-0.539c-0.036-0.065-1.771-3.147-8.066-4.969c-0.531-0.153-0.836-0.708-0.683-1.239c0.153-0.53,0.71-0.832,1.238-0.683c7.251,2.098,9.21,5.82,9.29,5.978c0.25,0.492,0.053,1.094-0.439,1.344C31.308,22.102,31.153,22.136,31.001,22.136z"/><path d="M27.648,29.166h-5.325c-0.552,0-1-0.447-1-1s0.448-1,1-1h5.325c0.551,0,1-0.448,1-1v-5.882c0-0.553,0.448-1,1-1s1,0.447,1,1v5.882C30.648,27.82,29.303,29.166,27.648,29.166z"/><path d="M10.486,23.32c-0.239,0-0.48-0.086-0.671-0.259c-0.409-0.371-0.44-1.004-0.069-1.413c1.568-1.729,3.823-2.722,6.186-2.722c2.284,0,4.487,0.937,6.045,2.57c0.381,0.4,0.366,1.033-0.034,1.414c-0.398,0.381-1.033,0.366-1.414-0.033c-1.183-1.24-2.858-1.951-4.598-1.951c-1.799,0-3.514,0.753-4.704,2.065C11.03,23.21,10.759,23.32,10.486,23.32z"/><path d="M21.687,15.191c-0.24,0-0.481-0.086-0.673-0.261c-1.336-1.217-3.234-1.943-5.079-1.943c-1.945,0-3.73,0.684-5.026,1.926c-0.398,0.381-1.031,0.368-1.414-0.029c-0.382-0.399-0.369-1.032,0.03-1.414c1.67-1.601,3.946-2.482,6.41-2.482c2.329,0,4.731,0.922,6.425,2.465c0.408,0.372,0.438,1.005,0.066,1.413C22.229,15.081,21.958,15.191,21.687,15.191z"/><path d="M15.87,32c-0.001,0-0.003,0-0.005,0c-0.552-0.003-0.998-0.453-0.995-1.005l0.057-10.943c0.003-0.551,0.45-0.995,1-0.995c0.001,0,0.003,0,0.005,0c0.552,0.003,0.998,0.453,0.995,1.005L16.87,31.005C16.867,31.556,16.42,32,15.87,32z"/><path d="M15.87,32c-0.107,0-0.217-0.018-0.324-0.054l-5.653-1.938c-0.522-0.18-0.801-0.748-0.622-1.271c0.179-0.522,0.746-0.798,1.27-0.622l5.653,1.938c0.522,0.18,0.801,0.748,0.622,1.271C16.674,31.739,16.286,32,15.87,32z"/><path d="M21.688,30.062h-5.051c-0.552,0-1-0.447-1-1s0.448-1,1-1h5.051c0.552,0,1,0.447,1,1S22.241,30.062,21.688,30.062z"/></svg>