<svg xmlns="http://www.w3.org/2000/svg" viewBox="0 0 32 32"><!--! Font Icona - https://fonticona.com | License - https://fonticona.com/license | Copyright 2022 FontIcona.com --><path d="M16,16.847c-4.321,0-7.837-3.516-7.837-7.837c0-4.32,3.516-7.836,7.837-7.836s7.837,3.516,7.837,7.836C23.837,13.331,20.321,16.847,16,16.847z M16,3.174c-3.218,0-5.837,2.618-5.837,5.836c0,3.219,2.619,5.837,5.837,5.837s5.837-2.618,5.837-5.837C21.837,5.792,19.218,3.174,16,3.174z"/><path d="M24.061,30.826c-4.377,0-7.938-3.562-7.938-7.938s3.561-7.938,7.938-7.938S32,18.511,32,22.888S28.438,30.826,24.061,30.826z M24.061,16.949c-3.274,0-5.938,2.664-5.938,5.938s2.664,5.938,5.938,5.938c3.275,0,5.939-2.664,5.939-5.938S27.336,16.949,24.061,16.949z"/><path d="M7.939,30.826C3.562,30.826,0,27.265,0,22.888s3.562-7.938,7.939-7.938s7.938,3.562,7.938,7.938S12.316,30.826,7.939,30.826z M7.939,16.949C4.664,16.949,2,19.613,2,22.888s2.664,5.938,5.939,5.938c3.274,0,5.938-2.664,5.938-5.938S11.213,16.949,7.939,16.949z"/></svg>