<svg xmlns="http://www.w3.org/2000/svg" viewBox="0 0 32 32"><!--! Font Icona - https://fonticona.com | License - https://fonticona.com/license | Copyright 2022 FontIcona.com --><path d="M16,32C7.178,32,0,24.822,0,16S7.178,0,16,0s16,7.178,16,16S24.822,32,16,32z M16,2C8.28,2,2,8.28,2,16s6.28,14,14,14s14-6.28,14-14S23.72,2,16,2z"/><path d="M13.212,17.022H4.029l0.004-1.004c0.015-4.28,2.338-8.249,6.063-10.355l0.864-0.489l4.579,7.974l-0.797,0.515c-0.833,0.538-1.378,1.45-1.457,2.44L13.212,17.022z M6.088,15.022h5.363c0.249-0.932,0.755-1.783,1.454-2.447l-2.664-4.639C7.906,9.587,6.388,12.179,6.088,15.022z"/><path d="M27.925,17.045h-9.227l-0.062-0.934c-0.065-0.991-0.6-1.908-1.43-2.453l-0.787-0.519l4.576-7.942l0.863,0.488c3.727,2.107,6.05,6.076,6.063,10.356L27.925,17.045z M20.482,15.045h5.385c-0.299-2.844-1.818-5.437-4.154-7.087l-2.664,4.624C19.743,13.252,20.242,14.109,20.482,15.045z"/><path d="M15.961,27.905c-2.065,0-4.13-0.531-5.972-1.595l-0.872-0.504l4.672-7.957l0.854,0.478c0.41,0.229,0.875,0.359,1.343,0.373l0.041,0.003c0.532,0.035,1.07-0.041,1.563-0.228l0.794-0.3L22.8,25.81l-0.866,0.501C20.092,27.374,18.026,27.905,15.961,27.905z M11.888,25.037c2.587,1.159,5.568,1.16,8.153-0.003l-2.571-4.446c-0.514,0.108-1.045,0.148-1.566,0.111c-0.451-0.017-0.9-0.096-1.331-0.233L11.888,25.037z"/><path d="M15.955,20.7c-2.579,0-4.678-2.099-4.678-4.678s2.099-4.678,4.678-4.678c2.58,0,4.679,2.099,4.679,4.678S18.535,20.7,15.955,20.7z M15.955,13.345c-1.477,0-2.678,1.201-2.678,2.678s1.201,2.678,2.678,2.678s2.679-1.201,2.679-2.678S17.432,13.345,15.955,13.345z"/></svg>