<svg xmlns="http://www.w3.org/2000/svg" viewBox="0 0 32 32"><!--! Font Icona - https://fonticona.com | License - https://fonticona.com/license | Copyright 2022 FontIcona.com --><path d="M21.512,21.35c-5.783,0-10.488-4.705-10.488-10.488S15.729,0.374,21.512,0.374S32,5.079,32,10.862S27.295,21.35,21.512,21.35z M21.512,2.374c-4.68,0-8.488,3.808-8.488,8.488c0,4.68,3.808,8.488,8.488,8.488c4.681,0,8.488-3.808,8.488-8.488C30,6.181,26.192,2.374,21.512,2.374z"/><path d="M10.488,21.35C4.705,21.35,0,16.645,0,10.862S4.705,0.374,10.488,0.374s10.488,4.705,10.488,10.488S16.271,21.35,10.488,21.35z M10.488,2.374C5.808,2.374,2,6.181,2,10.862c0,4.68,3.808,8.488,8.488,8.488s8.488-3.808,8.488-8.488C18.976,6.181,15.168,2.374,10.488,2.374z"/><path d="M16,31.626c-5.783,0-10.488-4.704-10.488-10.487S10.217,10.65,16,10.65s10.488,4.705,10.488,10.488S21.783,31.626,16,31.626z M16,12.65c-4.68,0-8.488,3.808-8.488,8.488c0,4.68,3.808,8.487,8.488,8.487c4.681,0,8.488-3.808,8.488-8.487C24.488,16.458,20.681,12.65,16,12.65z"/></svg>