<svg xmlns="http://www.w3.org/2000/svg" viewBox="0 0 32 32"><!--! Font Icona - https://fonticona.com | License - https://fonticona.com/license | Copyright 2022 FontIcona.com --><path d="M15.977,32c-0.425,0-0.815-0.002-1.134-0.005c-0.457-0.005-0.941-0.2-1.265-0.512c-0.63-0.605-1.249-1.223-1.867-1.84l-0.799-0.796c-0.089-0.089-0.179-0.176-0.278-0.248c-0.19-0.138-0.33-0.168-0.4-0.156c-0.085,0.019-0.192,0.126-0.286,0.289c-0.145,0.251-0.262,0.518-0.386,0.797c-0.068,0.151-0.137,0.306-0.211,0.464c-0.138,0.294-0.412,0.503-0.732,0.56c-0.319,0.052-0.649-0.048-0.879-0.277c-0.701-0.699-1.491-1.472-2.266-2.23c-0.556-0.544-1.105-1.082-1.61-1.581c-0.399-0.394-0.591-0.864-0.586-1.438c0.012-1.202,0.014-2.405-0.001-3.607c-0.002-0.178-0.012-0.433-0.073-0.597c-0.03-0.082-0.059-0.095-0.069-0.1c-0.05-0.021-0.2-0.037-0.44,0.054c-0.275,0.104-0.544,0.228-0.826,0.355l-0.447,0.2c-0.31,0.133-0.664,0.106-0.945-0.076c-0.282-0.183-0.454-0.495-0.457-0.831c0,0-0.035-3.858-0.017-5.59c0.006-0.454,0.204-0.937,0.517-1.263c0.388-0.403,0.784-0.799,1.18-1.195c0.498-0.498,0.996-0.996,1.477-1.509c0.175-0.188,0.312-0.414,0.358-0.592c-0.015-0.01-0.126-0.146-0.53-0.33C2.79,9.848,2.563,9.771,2.326,9.689l-0.397-0.14C1.612,9.433,1.375,9.163,1.298,8.834C1.223,8.505,1.318,8.16,1.552,7.916c0.484-0.503,1.004-1.054,1.532-1.614C3.889,5.449,4.713,4.576,5.46,3.819c0.375-0.379,0.909-0.52,1.284-0.525c0.695-0.011,1.391-0.012,2.09-0.011c0.585,0.002,1.168,0.002,1.752-0.006c0.113-0.001,0.417-0.005,0.571-0.066c0.083-0.033,0.117-0.059,0.126-0.066C11.278,3.139,11.302,3,11.2,2.64c-0.062-0.221-0.176-0.458-0.307-0.733c-0.072-0.151-0.146-0.308-0.217-0.47c-0.134-0.307-0.106-0.661,0.076-0.942c0.182-0.282,0.493-0.454,0.828-0.458c0,0,3.871-0.047,5.627-0.033c0.433,0.005,0.894,0.195,1.206,0.498c0.391,0.379,0.776,0.764,1.161,1.148c0.517,0.517,1.034,1.033,1.565,1.534c0.178,0.168,0.406,0.306,0.594,0.359c0.052,0.008,0.103-0.041,0.179-0.167c0.157-0.259,0.288-0.563,0.426-0.885c0.067-0.156,0.135-0.312,0.206-0.467c0.001-0.002,0.059-0.149,0.06-0.151c0.123-0.311,0.394-0.54,0.722-0.609c0.329-0.068,0.669,0.03,0.907,0.264c0,0,2.741,2.682,3.952,3.921c0.316,0.325,0.517,0.823,0.524,1.301c0.012,0.695,0.012,1.392,0.011,2.088c0,0.573-0.001,1.147,0.006,1.721c0.002,0.188,0.013,0.458,0.076,0.626c0.019,0.052,0.076,0.2,0.488,0.044c0.669-0.252,1.037-0.437,1.175-0.506c0.015-0.007,0.086-0.042,0.101-0.048c0.307-0.137,0.662-0.109,0.945,0.073c0.283,0.182,0.456,0.493,0.459,0.829c0,0,0.045,3.861,0.028,5.605c-0.005,0.442-0.197,0.915-0.503,1.233c-0.572,0.593-1.153,1.175-1.733,1.757l-0.927,0.933c-0.105,0.106-0.205,0.223-0.29,0.347c-0.191,0.28-0.118,0.335,0.014,0.434c0.209,0.157,0.6,0.336,0.944,0.493c0.196,0.09,0.384,0.177,0.548,0.26c0.009,0.005,0.019,0.01,0.027,0.015c0.468,0.256,0.664,0.842,0.428,1.323c-0.066,0.135-0.162,0.247-0.275,0.334c-0.688,0.691-1.439,1.458-2.179,2.213l-1.58,1.607c-0.398,0.402-0.865,0.591-1.436,0.592c-1.202-0.012-2.404-0.013-3.606,0.001c-0.182,0.002-0.442,0.012-0.609,0.072c-0.078,0.027-0.091,0.055-0.096,0.066c-0.029,0.063-0.034,0.216,0.049,0.436c0.104,0.276,0.227,0.545,0.356,0.828l0.2,0.446c0.136,0.308,0.107,0.662-0.075,0.944s-0.494,0.454-0.83,0.458C20.426,31.974,17.861,32,15.977,32z M14.917,29.996c1.026,0.008,2.739,0,3.98-0.01c-0.257-0.691-0.252-1.39,0.014-1.965c0.238-0.516,0.678-0.91,1.237-1.109c0.443-0.159,0.906-0.185,1.259-0.189c1.216-0.015,2.433-0.013,3.65-0.001l1.567-1.6c0.426-0.435,0.856-0.873,1.275-1.299c-0.192-0.104-0.376-0.215-0.54-0.338c-1.037-0.776-1.225-2.047-0.468-3.161c0.148-0.216,0.322-0.426,0.519-0.625l0.934-0.939c0.554-0.556,1.108-1.111,1.654-1.675c0.008-1.035-0.003-2.746-0.014-3.982c-1.342,0.498-2.596,0.002-3.054-1.213c-0.173-0.458-0.201-0.94-0.205-1.309c-0.007-0.582-0.006-1.164-0.006-1.746c0-0.684,0.001-1.368-0.011-2.052c-0.693-0.7-1.95-1.937-2.844-2.814c-0.073,0.148-0.153,0.297-0.243,0.444c-0.558,0.918-1.488,1.32-2.435,1.054c-0.5-0.142-1.004-0.437-1.42-0.828c-0.545-0.515-1.076-1.045-1.606-1.575c-0.356-0.355-0.711-0.711-1.072-1.062c-1.045-0.005-2.753,0.006-3.984,0.018c0.008,0.024,0.015,0.05,0.022,0.075c0.55,1.943-0.531,2.696-1.224,2.972c-0.438,0.176-0.898,0.205-1.29,0.21c-0.593,0.007-1.184,0.007-1.777,0.006c-0.672,0.002-1.345-0.001-2.018,0.01c-0.719,0.73-1.506,1.565-2.276,2.383C4.367,7.857,4.196,8.038,4.026,8.218c1.604,0.811,1.603,1.929,1.452,2.536c-0.172,0.691-0.601,1.226-0.84,1.482c-0.497,0.529-1.01,1.042-1.522,1.555c-0.373,0.373-0.746,0.746-1.112,1.125c-0.01,1.026-0.002,2.741,0.006,3.981c0.688-0.256,1.38-0.254,1.951,0.003c0.513,0.233,0.911,0.667,1.118,1.224c0.167,0.451,0.194,0.916,0.199,1.271c0.015,1.217,0.013,2.434,0.001,3.65c0.495,0.493,1.041,1.028,1.595,1.57c0.425,0.416,0.854,0.836,1.271,1.246c0.023-0.043,0.047-0.085,0.071-0.127c0.492-0.854,1.144-1.149,1.604-1.247c0.462-0.099,1.184-0.093,1.991,0.494c0.182,0.132,0.352,0.287,0.513,0.448l0.802,0.798C13.718,28.821,14.312,29.414,14.917,29.996z M23.531,2.243l0.929,0.369L23.531,2.243z"/><path d="M15.912,22.474c-3.57,0-6.474-2.904-6.474-6.474c0-3.57,2.904-6.475,6.474-6.475c3.57,0,6.475,2.904,6.475,6.475C22.387,19.57,19.482,22.474,15.912,22.474z M15.912,11.526c-2.467,0-4.474,2.007-4.474,4.475c0,2.467,2.007,4.474,4.474,4.474c2.467,0,4.475-2.007,4.475-4.474C20.387,13.533,18.379,11.526,15.912,11.526z"/></svg>