<svg xmlns="http://www.w3.org/2000/svg" viewBox="0 0 32 32"><!--! Font Icona - https://fonticona.com | License - https://fonticona.com/license | Copyright 2022 FontIcona.com --><path d="M16,32C7.178,32,0,24.822,0,16S7.178,0,16,0s16,7.178,16,16S24.822,32,16,32z M16,2C8.28,2,2,8.28,2,16s6.28,14,14,14s14-6.28,14-14S23.72,2,16,2z"/><path d="M9.9,22.822c-0.256,0-0.512-0.098-0.707-0.293c-0.391-0.391-0.391-1.023,0-1.414L20.837,9.471c0.391-0.391,1.023-0.391,1.414,0s0.391,1.023,0,1.414L10.607,22.529C10.412,22.725,10.156,22.822,9.9,22.822z"/><path d="M21.544,22.822c-0.256,0-0.512-0.098-0.707-0.293L9.193,10.885c-0.391-0.391-0.391-1.023,0-1.414s1.023-0.391,1.414,0l11.645,11.645c0.391,0.391,0.391,1.023,0,1.414C22.056,22.725,21.8,22.822,21.544,22.822z"/></svg>