<svg xmlns="http://www.w3.org/2000/svg" viewBox="0 0 32 32"><!--! Font Icona - https://fonticona.com | License - https://fonticona.com/license | Copyright 2022 FontIcona.com --><path d="M23.788,31h-2V8.505c0-0.552-0.449-1-1-1H9.915v-2h10.874c1.654,0,3,1.346,3,3V31z"/><path d="M28.789,32H9.451v-2h19.338c0.551,0,1-0.448,1-1V13.671c0-0.552-0.449-1-1-1H22.58v-2h6.209c1.654,0,3,1.346,3,3V29C31.789,30.655,30.443,32,28.789,32z"/><rect x="1.203" y="15.919" width="29.586" height="2"/><rect x="1.203" y="10.702" width="21.881" height="2"/><rect x="1.203" y="20.392" width="29.595" height="2"/><rect x="1.203" y="15.919" width="29.595" height="2"/><rect x="1.203" y="24.866" width="29.595" height="2"/><rect x="1.203" y="5.505" width="8.76" height="2"/><path d="M26.958,11.662c-0.552,0-1-0.447-1-1V6.505c0-0.553,0.448-1,1-1s1,0.447,1,1v4.157C27.958,11.215,27.51,11.662,26.958,11.662z"/><path d="M17.475,30.359h-2V17.919H8.516v12.439h-2V17.919c0-1.103,0.897-2,2-2h6.959c1.103,0,2,0.897,2,2V30.359z"/><path d="M11.996,32H3.203c-1.654,0-3-1.346-3-3V3c0-1.654,1.346-3,3-3h6.793c1.654,0,3,1.346,3,3v13.833h-2V3c0-0.552-0.449-1-1-1H3.203c-0.551,0-1,0.448-1,1v26c0,0.552,0.449,1,1,1h8.793V32z"/></svg>