<svg xmlns="http://www.w3.org/2000/svg" viewBox="0 0 32 32"><!--! Font Icona - https://fonticona.com | License - https://fonticona.com/license | Copyright 2022 FontIcona.com --><path d="M21.39,18.042H10.61c-0.552,0-1-0.447-1-1s0.448-1,1-1H21.39c0.552,0,1,0.447,1,1S21.942,18.042,21.39,18.042z"/><path d="M16,23.497c-0.552,0-1-0.447-1-1v-10.91c0-0.553,0.448-1,1-1s1,0.447,1,1v10.91C17,23.05,16.552,23.497,16,23.497z"/><path class="st0" d="M24.432,32H7.568c-1.654,0-3-1.346-3-3V5.226c0-1.654,1.346-3,3-3h2.817c0.552,0,1,0.447,1,1s-0.448,1-1,1H7.568c-0.551,0-1,0.448-1,1V29c0,0.552,0.449,1,1,1h16.864c0.551,0,1-0.448,1-1V5.226c0-0.552-0.449-1-1-1h-2.618c-0.552,0-1-0.447-1-1s0.448-1,1-1h2.618c1.654,0,3,1.346,3,3V29C27.432,30.654,26.086,32,24.432,32z"/><path class="st0" d="M20.814,6.386h-9.429c-1.103,0-2-0.897-2-2V2c0-1.103,0.897-2,2-2h9.429c1.103,0,2,0.897,2,2v2.386C22.814,5.488,21.917,6.386,20.814,6.386z M11.385,2v2.386h9.429V2H11.385z"/></svg>