<svg xmlns="http://www.w3.org/2000/svg" viewBox="0 0 32 32"><!--! Font Icona - https://fonticona.com | License - https://fonticona.com/license | Copyright 2022 FontIcona.com --><path d="M22.372,8.66h-2V4.702c0-0.551-0.448-1-1-1h-1.617v-2h1.617c1.654,0,3,1.346,3,3V8.66z"/><path d="M10.628,26.043H6.564c-1.654,0-3-1.346-3-3V4.702c0-1.654,1.346-3,3-3h2.043c0.552,0,1,0.448,1,1s-0.448,1-1,1H6.564c-0.551,0-1,0.449-1,1v18.341c0,0.552,0.449,1,1,1h4.064c0.552,0,1,0.447,1,1S11.18,26.043,10.628,26.043z"/><path d="M25.436,32H12.734c-1.654,0-3-1.346-3-3V10.766c0-1.654,1.346-3,3-3h12.702c1.654,0,3,1.346,3,3V29C28.436,30.654,27.09,32,25.436,32z M12.734,9.766c-0.551,0-1,0.449-1,1V29c0,0.552,0.449,1,1,1h12.702c0.552,0,1-0.448,1-1V10.766c0-0.551-0.448-1-1-1H12.734z"/><path d="M16.755,5.511H9.606c-1.103,0-2-0.897-2-2V2c0-1.103,0.897-2,2-2h7.149c1.103,0,2,0.897,2,2v1.511C18.755,4.614,17.857,5.511,16.755,5.511z M9.606,2v1.511h7.149V2H9.606z"/><path d="M21.585,24.979c-0.392,0-0.749-0.229-0.911-0.589l-1.516-3.359l-1.442,3.344c-0.162,0.376-0.513,0.611-0.945,0.604c-0.409-0.012-0.77-0.271-0.911-0.653l-2.553-6.914c-0.191-0.519,0.074-1.093,0.592-1.285c0.518-0.192,1.093,0.074,1.284,0.592l1.687,4.568l1.35-3.129c0.156-0.364,0.514-0.602,0.91-0.604c0.002,0,0.005,0,0.008,0c0.393,0,0.75,0.23,0.911,0.589l1.424,3.156l1.617-4.567c0.184-0.52,0.753-0.794,1.276-0.609c0.521,0.185,0.793,0.756,0.608,1.277l-2.447,6.914c-0.136,0.385-0.492,0.648-0.9,0.665C21.612,24.979,21.599,24.979,21.585,24.979z"/></svg>