<svg xmlns="http://www.w3.org/2000/svg" viewBox="0 0 32 32"><!--! Font Icona - https://fonticona.com | License - https://fonticona.com/license | Copyright 2022 FontIcona.com --><path d="M22.372,8.66h-2V4.702c0-0.551-0.448-1-1-1h-1.617v-2h1.617c1.654,0,3,1.346,3,3V8.66z"/><path d="M10.628,26.043H6.564c-1.654,0-3-1.346-3-3V4.702c0-1.654,1.346-3,3-3h2.043c0.552,0,1,0.448,1,1s-0.448,1-1,1H6.564c-0.551,0-1,0.449-1,1v18.341c0,0.552,0.449,1,1,1h4.064c0.552,0,1,0.447,1,1S11.18,26.043,10.628,26.043z"/><path d="M25.436,32H12.734c-1.654,0-3-1.346-3-3V10.766c0-1.654,1.346-3,3-3h12.702c1.654,0,3,1.346,3,3V29C28.436,30.654,27.09,32,25.436,32z M12.734,9.766c-0.551,0-1,0.449-1,1V29c0,0.552,0.449,1,1,1h12.702c0.552,0,1-0.448,1-1V10.766c0-0.551-0.448-1-1-1H12.734z"/><path d="M16.756,5.511h-7.15c-1.103,0-2-0.897-2-2V2c0-1.103,0.897-2,2-2h7.15c1.103,0,2,0.897,2,2v1.511C18.756,4.614,17.858,5.511,16.756,5.511z M9.606,2v1.511h7.15V2H9.606z"/><path d="M22.436,17.318h-6.702c-0.552,0-1-0.447-1-1s0.448-1,1-1h6.702c0.553,0,1,0.448,1,1S22.988,17.318,22.436,17.318z"/><path d="M19.032,24.979c-0.553,0-1-0.447-1-1v-7.66c0-0.552,0.447-1,1-1s1,0.448,1,1v7.66C20.032,24.531,19.585,24.979,19.032,24.979z"/></svg>