<svg xmlns="http://www.w3.org/2000/svg" viewBox="0 0 32 32"><!--! Font Icona - https://fonticona.com | License - https://fonticona.com/license | Copyright 2022 FontIcona.com --><path d="M16,32C7.178,32,0,24.822,0,16S7.178,0,16,0s16,7.178,16,16S24.822,32,16,32z M16,2C8.28,2,2,8.28,2,16s6.28,14,14,14s14-6.28,14-14S23.72,2,16,2z"/><path d="M16,17c-0.552,0-1-0.448-1-1V8.2c0-0.552,0.448-1,1-1s1,0.448,1,1V16C17,16.552,16.552,17,16,17z"/><path d="M23.567,24.567c-0.256,0-0.512-0.098-0.707-0.293l-7.567-7.567c-0.391-0.391-0.391-1.023,0-1.414s1.023-0.391,1.414,0l7.567,7.567c0.391,0.391,0.391,1.023,0,1.414C24.079,24.469,23.823,24.567,23.567,24.567z"/><path d="M16,28.367C9.181,28.367,3.633,22.819,3.633,16S9.181,3.633,16,3.633S28.367,9.181,28.367,16S22.819,28.367,16,28.367z M16,5.633c-5.716,0-10.367,4.65-10.367,10.367S10.284,26.367,16,26.367S26.367,21.716,26.367,16S21.716,5.633,16,5.633z"/></svg>