<svg xmlns="http://www.w3.org/2000/svg" viewBox="0 0 32 32"><!--! Font Icona - https://fonticona.com | License - https://fonticona.com/license | Copyright 2022 FontIcona.com --><path d="M29.889,26.889H2.111C0.947,26.889,0,25.942,0,24.778V7.222c0-1.164,0.947-2.111,2.111-2.111h27.778C31.053,5.111,32,6.058,32,7.222v17.556C32,25.942,31.053,26.889,29.889,26.889z M2.111,7.111C2.05,7.111,2,7.161,2,7.222v17.556c0,0.061,0.05,0.111,0.111,0.111h27.778c0.061,0,0.111-0.05,0.111-0.111V7.222c0-0.061-0.05-0.111-0.111-0.111H2.111z"/><path d="M10.691,21.444c-1.219,0-2.395-0.406-3.366-1.174c-1.141-0.902-1.862-2.194-2.031-3.639c-0.169-1.444,0.235-2.868,1.137-4.009c1.862-2.355,5.292-2.756,7.647-0.895c0.372,0.294,0.705,0.637,0.99,1.019c0.33,0.442,0.239,1.069-0.204,1.399c-0.442,0.331-1.07,0.238-1.399-0.204c-0.18-0.242-0.391-0.458-0.626-0.645c-1.49-1.178-3.66-0.924-4.838,0.566c-0.571,0.722-0.826,1.623-0.719,2.536c0.107,0.914,0.563,1.731,1.285,2.302c0.722,0.571,1.622,0.827,2.537,0.719c0.914-0.107,1.731-0.563,2.302-1.285c0.344-0.434,0.972-0.507,1.405-0.165c0.433,0.343,0.507,0.972,0.165,1.405c-0.902,1.141-2.194,1.862-3.639,2.031C11.12,21.432,10.905,21.444,10.691,21.444z"/><path d="M22.247,21.444c-1.219,0-2.395-0.406-3.366-1.174c-1.141-0.902-1.862-2.194-2.031-3.639c-0.169-1.444,0.235-2.868,1.137-4.009c1.862-2.355,5.292-2.756,7.647-0.895c0.372,0.294,0.705,0.637,0.99,1.019c0.33,0.442,0.239,1.069-0.204,1.399c-0.442,0.331-1.069,0.238-1.399-0.204c-0.18-0.242-0.391-0.458-0.626-0.645c-1.49-1.178-3.661-0.924-4.838,0.566c-0.571,0.722-0.826,1.623-0.719,2.536c0.107,0.914,0.563,1.731,1.285,2.302c0.722,0.571,1.622,0.827,2.537,0.719c0.914-0.107,1.731-0.563,2.302-1.285c0.343-0.434,0.972-0.507,1.405-0.165c0.433,0.343,0.507,0.972,0.165,1.405c-0.902,1.141-2.194,1.862-3.639,2.031C22.675,21.432,22.46,21.444,22.247,21.444z"/></svg>