<svg xmlns="http://www.w3.org/2000/svg" viewBox="0 0 32 32"><!--! Font Icona - https://fonticona.com | License - https://fonticona.com/license | Copyright 2022 FontIcona.com --><path d="M8.973,20.089c-0.021,0-0.042,0-0.064-0.002c-3.582-0.225-6.847-2.008-8.734-4.77c-0.224-0.328-0.232-0.757-0.021-1.094c0.209-0.336,0.602-0.517,0.994-0.459c0.057,0.009,5.763,0.8,9.678-2.425c2.318-1.91,3.587-4.879,3.772-8.826c0.017-0.357,0.223-0.678,0.54-0.842c0.316-0.164,0.697-0.147,0.999,0.047c1.223,0.784,2.246,1.771,3.04,2.934c1.804,2.64,2.18,6.152,0.956,8.947c-0.222,0.506-0.812,0.736-1.317,0.515c-0.506-0.221-0.737-0.811-0.515-1.317c0.953-2.179,0.649-4.933-0.775-7.018c-0.32-0.469-0.688-0.903-1.099-1.3c-0.501,3.63-1.957,6.455-4.342,8.414c-2.87,2.357-6.414,2.899-8.746,2.963c1.53,1.293,3.541,2.099,5.697,2.234c0.551,0.035,0.97,0.51,0.935,1.061C9.937,19.682,9.496,20.089,8.973,20.089z"/><path class="st0" d="M10.432,30.44l-0.215-0.006c-3.116-0.137-5.549-2.795-5.412-5.923c-0.001-2.252,1.795-4.137,3.677-5.111c-0.001-0.034-0.001-0.068-0.001-0.102c0.005-1.318,0.562-2.576,1.53-3.458c1.542-1.406,3.773-1.59,5.496-0.61c0.833-1.487,2.212-2.619,3.873-3.134l0,0c0.645-0.2,1.302-0.295,1.993-0.302c3.707,0,6.724,3.014,6.727,6.721c0,0.215-0.01,0.43-0.032,0.644C30.138,20.02,32,21.982,32,24.528c0,3.206-1.997,5.625-4.856,5.882L10.432,30.44z M13.176,16.613c-0.649,0-1.3,0.232-1.817,0.703c-0.555,0.507-0.875,1.229-0.878,1.981c0,0.168,0.019,0.344,0.053,0.514c0.096,0.475-0.163,0.95-0.614,1.128c-1.51,0.595-3.115,2.063-3.115,3.615c-0.09,2.071,1.486,3.792,3.513,3.882l0.131,0.004l16.604-0.026C29.205,28.216,30,26.196,30,24.528c0-1.866-1.707-3.314-3.313-3.729c-0.532-0.138-0.854-0.679-0.719-1.212c0.087-0.348,0.132-0.708,0.131-1.07c-0.002-2.605-2.123-4.723-4.727-4.723c-0.001,0-0.001,0-0.003,0c-0.475,0-0.945,0.072-1.397,0.212l0,0c-1.485,0.461-2.648,1.623-3.111,3.108c-0.106,0.342-0.388,0.601-0.737,0.678c-0.35,0.077-0.715-0.038-0.956-0.302C14.637,16.908,13.907,16.613,13.176,16.613z"/></svg>