<svg xmlns="http://www.w3.org/2000/svg" viewBox="0 0 32 32"><!--! Font Icona - https://fonticona.com | License - https://fonticona.com/license | Copyright 2022 FontIcona.com --><path d="M15.915,27.571c-0.916,0-1.768-0.41-2.341-1.124l-2.466-3.077c-0.345-0.431-0.276-1.061,0.155-1.406c0.43-0.346,1.061-0.277,1.406,0.155l2.466,3.077c0.191,0.239,0.476,0.375,0.781,0.375c0,0,0.001,0,0.002,0c0.306,0,0.59-0.138,0.78-0.377l7.204-9.06c0.343-0.432,0.974-0.504,1.405-0.16c0.432,0.344,0.504,0.973,0.16,1.405l-7.204,9.059c-0.57,0.718-1.424,1.131-2.342,1.133C15.919,27.571,15.917,27.571,15.915,27.571z"/><path d="M6.512,25.041c-0.002,0-0.005,0-0.008,0l-0.218-0.006c-1.758-0.078-3.377-0.833-4.562-2.127s-1.795-2.973-1.718-4.726c-0.001-2.65,2.156-4.863,4.383-5.979c-0.004-0.08-0.006-0.16-0.006-0.239c0.005-1.511,0.646-2.957,1.758-3.973c1.821-1.663,4.483-1.841,6.484-0.604c1.332-2.536,3.958-4.162,6.908-4.164c0.002,0,0.004,0,0.005,0c4.309,0,7.814,3.503,7.817,7.812c0.001,0.296-0.016,0.593-0.051,0.889C29.76,12.892,32,15.193,32,18.193c0,3.773-2.253,6.511-5.608,6.812c-0.552,0.047-1.036-0.357-1.085-0.907c-0.049-0.55,0.356-1.036,0.907-1.085c2.3-0.206,3.787-2.098,3.787-4.82c0-2.317-2.105-4.112-4.085-4.624c-0.533-0.138-0.854-0.679-0.72-1.212c0.108-0.431,0.163-0.875,0.161-1.318c-0.002-3.209-2.611-5.816-5.817-5.816c-0.001,0-0.002,0-0.004,0c-2.558,0.002-4.788,1.644-5.549,4.086c-0.106,0.342-0.388,0.601-0.737,0.678c-0.351,0.078-0.714-0.037-0.956-0.302C11.029,8.301,8.875,8.204,7.49,9.468c-0.701,0.639-1.104,1.549-1.107,2.498c0,0.214,0.022,0.436,0.066,0.654c0.094,0.474-0.165,0.947-0.614,1.125c-1.903,0.75-3.83,2.53-3.83,4.481c-0.112,2.562,1.846,4.7,4.364,4.812l0.151,0.004c0.552,0.004,0.997,0.456,0.992,1.008C7.508,24.598,7.061,25.041,6.512,25.041z"/></svg>