<svg xmlns="http://www.w3.org/2000/svg" viewBox="0 0 32 32"><!--! Font Icona - https://fonticona.com | License - https://fonticona.com/license | Copyright 2022 FontIcona.com --><path d="M8.002,17.658c-1.414-1.305-2.225-3.156-2.225-5.078c0-3.809,3.099-6.908,6.908-6.908c3.809,0,6.907,3.099,6.907,6.908c0,0.171-0.006,0.341-0.018,0.509l-1.995-0.142c0.009-0.121,0.013-0.244,0.013-0.368c0-2.706-2.201-4.908-4.907-4.908S7.777,9.874,7.777,12.58c0,1.366,0.576,2.681,1.581,3.608L8.002,17.658z"/><path d="M1,16.552c-0.447,0-0.854-0.301-0.969-0.753c-0.136-0.535,0.188-1.08,0.723-1.216l2.571-0.654c0.536-0.138,1.079,0.187,1.216,0.723c0.136,0.535-0.188,1.08-0.723,1.216l-2.571,0.654C1.164,16.542,1.082,16.552,1,16.552z"/><path d="M4.518,8.917c-0.168,0-0.338-0.042-0.495-0.132L1.719,7.469C1.24,7.195,1.073,6.584,1.347,6.104c0.274-0.479,0.885-0.645,1.364-0.372l2.303,1.316c0.479,0.274,0.646,0.885,0.372,1.364C5.202,8.736,4.865,8.917,4.518,8.917z"/><path d="M10.049,4.553c-0.433,0-0.832-0.284-0.959-0.721L8.347,1.286c-0.155-0.53,0.15-1.085,0.68-1.24c0.53-0.155,1.085,0.149,1.24,0.68l0.743,2.546c0.155,0.53-0.15,1.085-0.68,1.24C10.236,4.54,10.142,4.553,10.049,4.553z"/><path d="M17.059,5.255c-0.157,0-0.316-0.037-0.464-0.115c-0.489-0.257-0.677-0.862-0.42-1.351l1.235-2.348c0.256-0.489,0.861-0.679,1.351-0.42c0.489,0.257,0.677,0.862,0.42,1.351l-1.235,2.348C17.766,5.061,17.418,5.255,17.059,5.255z"/><path d="M21.615,10.631c-0.42,0-0.811-0.267-0.95-0.687c-0.173-0.524,0.112-1.09,0.636-1.263L23.82,7.85c0.526-0.173,1.09,0.112,1.263,0.636c0.173,0.524-0.112,1.09-0.636,1.263l-2.519,0.831C21.824,10.615,21.718,10.631,21.615,10.631z"/><path d="M8.434,32l-0.216-0.005c-3.381-0.149-6.008-3.02-5.859-6.398c-0.001-2.455,1.979-4.507,4.037-5.554c-0.002-0.057-0.003-0.114-0.003-0.17c0.005-1.417,0.605-2.771,1.646-3.722c0.997-0.91,2.29-1.38,3.637-1.316c0.848,0.039,1.655,0.284,2.363,0.708c0.897-1.652,2.41-2.911,4.241-3.479c0.696-0.216,1.42-0.326,2.153-0.327c0.002,0,0.004,0,0.005,0c1.943,0,3.771,0.756,5.146,2.129c1.376,1.375,2.135,3.203,2.137,5.148c0.001,0.256-0.013,0.513-0.041,0.768C29.946,20.699,32,22.833,32,25.61c0,3.521-2.106,6.075-5.24,6.356L8.434,32z M11.442,16.829c-0.763,0-1.488,0.28-2.056,0.798c-0.629,0.575-0.992,1.393-0.995,2.245c0.001,0.193,0.021,0.393,0.059,0.585c0.095,0.475-0.164,0.949-0.614,1.126c-1.687,0.665-3.48,2.312-3.48,4.057c-0.102,2.321,1.669,4.255,3.947,4.356L8.44,30l18.229-0.029C29.105,29.749,30,27.482,30,25.61c0-2.096-1.91-3.721-3.707-4.185c-0.533-0.138-0.854-0.68-0.72-1.213c0.099-0.389,0.147-0.791,0.146-1.195c-0.002-2.914-2.372-5.281-5.283-5.281c-0.001,0-0.002,0-0.004,0c-0.532,0-1.057,0.08-1.561,0.237c0,0,0,0,0,0c-1.66,0.515-2.96,1.813-3.478,3.473c-0.106,0.342-0.388,0.601-0.737,0.679c-0.352,0.076-0.715-0.038-0.956-0.302c-0.55-0.603-1.302-0.955-2.117-0.992C11.537,16.83,11.49,16.829,11.442,16.829z M18.576,13.018h0.01H18.576z"/></svg>