<svg xmlns="http://www.w3.org/2000/svg" viewBox="0 0 32 32"><!--! Font Icona - https://fonticona.com | License - https://fonticona.com/license | Copyright 2022 FontIcona.com --><path d="M14.405,30.125c-0.552,0-1-0.448-1-1v-8c0-0.552,0.448-1,1-1s1,0.448,1,1v8C15.405,29.677,14.958,30.125,14.405,30.125z"/><path d="M18.405,26.125h-8c-0.552,0-1-0.448-1-1s0.448-1,1-1h8c0.552,0,1,0.448,1,1S18.958,26.125,18.405,26.125z"/><path d="M11.577,28.953c-0.256,0-0.512-0.098-0.707-0.293c-0.391-0.391-0.391-1.023,0-1.414l5.657-5.657c0.391-0.391,1.023-0.391,1.414,0s0.391,1.023,0,1.414l-5.657,5.657C12.088,28.855,11.833,28.953,11.577,28.953z"/><path d="M17.234,28.953c-0.256,0-0.512-0.098-0.707-0.293l-5.657-5.657c-0.391-0.391-0.391-1.023,0-1.414s1.023-0.391,1.414,0l5.657,5.657c0.391,0.391,0.391,1.023,0,1.414C17.746,28.855,17.49,28.953,17.234,28.953z"/><path d="M21.325,20.625c-0.552,0-1-0.448-1-1v-6.84c0-0.552,0.448-1,1-1s1,0.448,1,1v6.84C22.325,20.177,21.877,20.625,21.325,20.625z"/><path d="M24.745,17.205h-6.84c-0.552,0-1-0.448-1-1s0.448-1,1-1h6.84c0.552,0,1,0.448,1,1S25.297,17.205,24.745,17.205z"/><path d="M18.907,19.623c-0.256,0-0.512-0.098-0.707-0.293c-0.391-0.391-0.391-1.023,0-1.414l4.836-4.836c0.391-0.391,1.023-0.391,1.414,0s0.391,1.023,0,1.414l-4.836,4.836C19.419,19.525,19.163,19.623,18.907,19.623z"/><path d="M23.744,19.623c-0.256,0-0.512-0.098-0.707-0.293L18.2,14.493c-0.391-0.391-0.391-1.023,0-1.414s1.023-0.391,1.414,0l4.836,4.836c0.391,0.391,0.391,1.023,0,1.414C24.255,19.525,24,19.623,23.744,19.623z"/><path d="M10.077,17.731c-0.552,0-1-0.448-1-1v-2.213c0-0.552,0.448-1,1-1s1,0.448,1,1v2.213C11.077,17.283,10.629,17.731,10.077,17.731z"/><path d="M11.184,16.625H8.97c-0.552,0-1-0.448-1-1s0.448-1,1-1h2.213c0.552,0,1,0.448,1,1S11.736,16.625,11.184,16.625z"/><path class="st2" d="M6.511,23.693c-0.005,0-0.011,0-0.016,0l-0.217-0.006c-3.616-0.16-6.431-3.234-6.271-6.854c-0.001-2.651,2.156-4.863,4.383-5.979c-0.003-0.079-0.005-0.158-0.006-0.237c0.005-1.513,0.646-2.959,1.759-3.975c1.822-1.663,4.482-1.842,6.484-0.604c1.332-2.536,3.957-4.162,6.908-4.164c0.001,0,0.004,0,0.006,0c4.307,0,7.813,3.502,7.817,7.811c0.001,0.296-0.016,0.594-0.052,0.889C29.76,11.545,32,13.847,32,16.846c0,3.773-2.253,6.511-5.607,6.812c-0.551,0.042-1.036-0.356-1.085-0.907c-0.049-0.55,0.356-1.036,0.907-1.085c2.3-0.207,3.786-2.099,3.786-4.82c0-2.317-2.105-4.112-4.086-4.624c-0.533-0.138-0.854-0.68-0.719-1.213c0.109-0.431,0.164-0.875,0.162-1.317c-0.003-3.209-2.612-5.816-5.817-5.816c-0.001,0-0.003,0-0.004,0c-2.558,0.001-4.788,1.644-5.549,4.085c-0.106,0.342-0.388,0.601-0.737,0.679c-0.352,0.078-0.715-0.037-0.956-0.302C11.029,6.955,8.875,6.856,7.491,8.12C6.79,8.76,6.386,9.67,6.383,10.618c0.001,0.217,0.023,0.438,0.065,0.653c0.095,0.475-0.164,0.949-0.614,1.126c-1.903,0.749-3.83,2.529-3.83,4.48c-0.112,2.562,1.846,4.701,4.364,4.812l0.157,0.004c0.552,0.009,0.993,0.463,0.984,1.016C7.502,23.256,7.056,23.693,6.511,23.693z"/></svg>