<svg xmlns="http://www.w3.org/2000/svg" viewBox="0 0 32 32"><!--! Font Icona - https://fonticona.com | License - https://fonticona.com/license | Copyright 2022 FontIcona.com --><path d="M16.026,29.853c-0.553,0-1-0.448-1-1v-9.689l-2.584,3.062c-0.357,0.421-0.987,0.476-1.409,0.119c-0.234-0.198-0.355-0.479-0.355-0.764c0-0.228,0.077-0.458,0.235-0.646l4.349-5.152c0.002,0,0.002-0.002,0.003-0.002c0.123-0.145,0.28-0.248,0.453-0.304c0.048-0.016,0.097-0.027,0.146-0.036c0,0,0,0,0.001,0c0,0,0,0,0.001,0c0,0,0,0,0.001,0l0,0c0.146-0.024,0.3-0.015,0.446,0.029h0.001l0.001,0c0.001,0,0.002,0,0.002,0l0,0c0.031,0.009,0.061,0.02,0.09,0.032l0,0c0.001,0,0.001,0,0.002,0c0.164,0.067,0.303,0.176,0.407,0.311l0,0l4.049,5.206c0.339,0.436,0.261,1.064-0.175,1.403c-0.437,0.34-1.063,0.26-1.403-0.176l-2.26-2.905v9.51C17.026,29.405,16.579,29.853,16.026,29.853z"/><path d="M6.512,26.244c-0.005,0-0.011,0-0.016,0l-0.218-0.006c-3.616-0.159-6.432-3.234-6.272-6.854c-0.001-2.65,2.156-4.862,4.383-5.979c-0.004-0.079-0.006-0.158-0.006-0.237c0.006-1.514,0.647-2.96,1.76-3.975c1.822-1.664,4.482-1.84,6.483-0.603c1.331-2.536,3.957-4.162,6.907-4.164c0.002,0,0.005,0,0.007,0c2.085,0,4.046,0.812,5.522,2.285c1.478,1.476,2.292,3.438,2.294,5.525c0.001,0.297-0.017,0.594-0.052,0.89c2.456,0.97,4.695,3.271,4.695,6.27c0,3.774-2.254,6.511-5.608,6.812c-0.565,0.042-1.035-0.358-1.085-0.907c-0.049-0.55,0.356-1.036,0.907-1.085c2.3-0.206,3.786-2.098,3.786-4.819c0-2.317-2.105-4.112-4.086-4.624c-0.533-0.138-0.854-0.681-0.72-1.214c0.109-0.429,0.164-0.872,0.162-1.316c-0.001-1.557-0.607-3.017-1.707-4.115c-1.099-1.097-2.558-1.701-4.109-1.701c-0.002,0-0.004,0-0.005,0c-2.559,0.001-4.788,1.644-5.549,4.085c-0.106,0.342-0.388,0.601-0.737,0.679c-0.35,0.077-0.715-0.037-0.956-0.302c-1.264-1.384-3.418-1.481-4.802-0.219c-0.701,0.639-1.104,1.55-1.108,2.499c0.001,0.215,0.023,0.437,0.066,0.65c0.096,0.475-0.163,0.951-0.614,1.128c-1.903,0.75-3.83,2.53-3.83,4.481c-0.111,2.562,1.847,4.701,4.364,4.812l0.158,0.004c0.553,0.009,0.993,0.464,0.984,1.016C7.503,25.806,7.057,26.244,6.512,26.244z"/></svg>