<svg xmlns="http://www.w3.org/2000/svg" viewBox="0 0 32 32"><!--! Font Icona - https://fonticona.com | License - https://fonticona.com/license | Copyright 2022 FontIcona.com --><path d="M6.512,24.667c-0.002,0-0.005,0-0.008,0l-0.218-0.006c-1.758-0.078-3.377-0.833-4.562-2.127s-1.795-2.973-1.718-4.726c-0.001-2.65,2.156-4.863,4.383-5.979c-0.004-0.08-0.006-0.16-0.006-0.239c0.005-1.51,0.646-2.957,1.758-3.973c1.821-1.663,4.483-1.841,6.484-0.603c1.332-2.536,3.958-4.162,6.908-4.164c0.002,0,0.004,0,0.006,0c2.086,0,4.047,0.812,5.523,2.285c1.478,1.476,2.292,3.438,2.293,5.526c0.001,0.296-0.016,0.593-0.051,0.889C29.76,12.518,32,14.819,32,17.819c0,3.773-2.253,6.511-5.608,6.812c-0.552,0.042-1.036-0.357-1.085-0.907c-0.049-0.55,0.356-1.036,0.907-1.085c2.3-0.206,3.787-2.098,3.787-4.82c0-2.317-2.105-4.112-4.085-4.624c-0.533-0.138-0.854-0.679-0.72-1.212c0.108-0.431,0.163-0.875,0.161-1.318c-0.001-1.557-0.607-3.018-1.707-4.115c-1.099-1.097-2.558-1.701-4.11-1.701c-0.001,0-0.003,0-0.004,0c-2.558,0.002-4.788,1.644-5.55,4.086c-0.106,0.342-0.388,0.601-0.737,0.678c-0.351,0.077-0.714-0.038-0.956-0.302C11.028,7.927,8.875,7.83,7.49,9.093c-0.7,0.64-1.104,1.55-1.107,2.498c0,0.214,0.022,0.436,0.066,0.654c0.094,0.474-0.165,0.947-0.614,1.125c-1.903,0.75-3.83,2.53-3.83,4.481c-0.055,1.264,0.37,2.431,1.194,3.332c0.825,0.9,1.95,1.426,3.17,1.48l0.151,0.004c0.552,0.004,0.997,0.456,0.992,1.008C7.508,24.224,7.061,24.667,6.512,24.667z"/><path d="M17.409,29.001h-1.992c-0.41,0-0.762-0.293-0.836-0.697c-0.049-0.268-0.11-0.542-0.17-0.812c-0.021-0.091-0.041-0.181-0.06-0.271c-0.162-0.063-0.323-0.129-0.482-0.199c-0.043,0.027-0.085,0.055-0.128,0.082c-0.268,0.172-0.535,0.344-0.794,0.527c-0.341,0.243-0.808,0.2-1.099-0.1c-0.464-0.475-0.928-0.949-1.392-1.402c-0.291-0.284-0.339-0.735-0.116-1.075c0.206-0.313,0.413-0.632,0.611-0.957c-0.065-0.165-0.134-0.33-0.206-0.493c-0.221-0.052-0.443-0.1-0.657-0.146l-0.461-0.101c-0.387-0.088-0.662-0.432-0.662-0.829v-1.992c0-0.404,0.285-0.752,0.68-0.833c0.369-0.075,0.749-0.156,1.112-0.242c0.017-0.041,0.034-0.082,0.051-0.123c0.047-0.116,0.095-0.232,0.146-0.348c-0.078-0.119-0.154-0.239-0.231-0.359c-0.125-0.195-0.25-0.391-0.379-0.585c-0.225-0.337-0.18-0.786,0.106-1.072l1.268-1.268c0.049-0.049,0.104-0.092,0.165-0.128l0.213-0.127c0.255-0.152,0.57-0.161,0.833-0.022l0.537,0.32c0.184,0.118,0.369,0.237,0.556,0.352l0.341-0.135l0.055-0.254c0.063-0.286,0.127-0.57,0.173-0.858c0.066-0.413,0.421-0.716,0.839-0.716h2.013c0.41,0,0.762,0.293,0.836,0.697c0.067,0.365,0.145,0.741,0.229,1.1c0.152,0.065,0.306,0.127,0.459,0.188c0.264-0.162,0.526-0.328,0.783-0.5l0.191-0.124c0.328-0.212,0.758-0.174,1.042,0.093l0.16,0.149c0.38,0.4,0.744,0.753,1.076,1.075l0.169,0.169c0.29,0.29,0.332,0.745,0.099,1.083l-0.117,0.17c-0.178,0.257-0.339,0.521-0.499,0.784c0.064,0.159,0.13,0.317,0.199,0.473c0.361,0.089,0.727,0.164,1.092,0.225c0.41,0.068,0.711,0.423,0.711,0.838v2.002c0,0.404-0.284,0.751-0.68,0.833c-0.371,0.076-0.752,0.157-1.121,0.248c-0.066,0.153-0.131,0.306-0.193,0.461c0.197,0.322,0.404,0.641,0.616,0.959c0.229,0.343,0.178,0.801-0.121,1.086c-0.472,0.451-0.934,0.913-1.396,1.385c-0.285,0.292-0.739,0.34-1.079,0.114c-0.19-0.126-0.381-0.247-0.573-0.367c-0.13-0.082-0.26-0.164-0.39-0.247c-0.125,0.054-0.26,0.111-0.443,0.187c-0.029,0.129-0.062,0.271-0.099,0.437l-0.156,0.686C18.15,28.726,17.806,29.001,17.409,29.001z M16.109,27.301l0.627-0.027c0.082-0.359,0.137-0.602,0.192-0.857c0.06-0.276,0.253-0.505,0.516-0.61c0.615-0.246,0.798-0.328,1.125-0.475l0.1-0.044c0.27-0.122,0.585-0.092,0.831,0.077c0.241,0.167,0.486,0.32,0.73,0.474c0.006,0.004,0.012,0.008,0.018,0.011c0.147-0.147,0.295-0.294,0.443-0.44c-0.17-0.266-0.334-0.533-0.492-0.804c-0.128-0.221-0.15-0.487-0.061-0.726c0.165-0.44,0.352-0.869,0.539-1.298c0.103-0.235,0.306-0.411,0.553-0.479c0.303-0.083,0.622-0.16,0.941-0.231v-0.61c-0.312-0.066-0.623-0.141-0.929-0.225c-0.236-0.064-0.433-0.228-0.54-0.448c-0.212-0.436-0.392-0.883-0.571-1.341c-0.097-0.25-0.071-0.53,0.07-0.758l0.196-0.32c0.096-0.157,0.192-0.315,0.291-0.471c-0.132-0.129-0.267-0.263-0.402-0.399c-0.264,0.168-0.533,0.333-0.803,0.494c-0.222,0.131-0.491,0.155-0.733,0.065c-0.446-0.167-0.892-0.346-1.326-0.546c-0.23-0.106-0.401-0.311-0.465-0.557c-0.077-0.293-0.149-0.604-0.217-0.919h-0.614c-0.018,0.081-0.036,0.162-0.054,0.243l-0.084,0.472c0,0.322-0.182,0.616-0.469,0.76l-0.17,0.085l-1.004,0.403c-0.1,0.04-0.207,0.06-0.314,0.06h-0.139c-0.142,0-0.282-0.036-0.407-0.104l-0.117-0.064c-0.271-0.159-0.518-0.317-0.762-0.474l-0.47,0.471c0.005,0.009,0.011,0.018,0.017,0.026c0.156,0.244,0.31,0.486,0.471,0.722c0.176,0.257,0.197,0.59,0.055,0.868c-0.114,0.222-0.207,0.451-0.3,0.678c-0.077,0.188-0.154,0.375-0.239,0.558c-0.106,0.231-0.311,0.402-0.557,0.466c-0.293,0.077-0.605,0.149-0.92,0.219v0.618c0.301,0.065,0.61,0.135,0.907,0.216c0.239,0.065,0.438,0.231,0.545,0.456c0.207,0.436,0.399,0.897,0.573,1.372c0.087,0.237,0.063,0.5-0.063,0.719c-0.157,0.269-0.32,0.535-0.487,0.798c0.144,0.144,0.287,0.288,0.43,0.434c0.084-0.055,0.168-0.109,0.253-0.163c0.168-0.108,0.337-0.217,0.505-0.329c0.251-0.167,0.573-0.189,0.844-0.057c0.385,0.188,0.786,0.354,1.192,0.493c0.289,0.099,0.502,0.345,0.56,0.645c0.043,0.226,0.095,0.46,0.148,0.697C16.083,27.182,16.096,27.241,16.109,27.301z"/><path d="M16.493,23.036c-0.827,0-1.5-0.673-1.5-1.5c0-0.827,0.673-1.5,1.5-1.5s1.5,0.673,1.5,1.5C17.993,22.363,17.32,23.036,16.493,23.036z M16.493,21.336c-0.11,0-0.2,0.09-0.2,0.2c0,0.222,0.4,0.222,0.4,0C16.693,21.426,16.603,21.336,16.493,21.336z"/></svg>