<svg xmlns="http://www.w3.org/2000/svg" viewBox="0 0 32 32"><!--! Font Icona - https://fonticona.com | License - https://fonticona.com/license | Copyright 2022 FontIcona.com --><path d="M6.514,22.236l-0.235-0.006c-3.616-0.159-6.432-3.234-6.272-6.854c-0.001-2.65,2.156-4.862,4.383-5.979C4.385,9.318,4.383,9.239,4.383,9.16C4.389,7.646,5.03,6.2,6.143,5.185c1.822-1.664,4.482-1.84,6.483-0.603c1.331-2.536,3.957-4.162,6.907-4.164c0.002,0,0.005,0,0.007,0c2.085,0,4.046,0.812,5.522,2.285c1.478,1.476,2.292,3.438,2.294,5.525c0.001,0.297-0.016,0.594-0.052,0.889c1.332,0.525,2.534,1.42,3.385,2.539c0.334,0.44,0.249,1.067-0.19,1.401c-0.438,0.334-1.068,0.249-1.401-0.19c-0.771-1.013-1.931-1.78-3.184-2.104c-0.533-0.138-0.854-0.681-0.72-1.214c0.109-0.429,0.164-0.872,0.162-1.316c-0.003-3.209-2.611-5.815-5.817-5.815c-0.001,0-0.003,0-0.004,0c-2.559,0.001-4.788,1.644-5.549,4.085c-0.106,0.342-0.388,0.601-0.737,0.679c-0.351,0.078-0.715-0.038-0.956-0.302c-1.264-1.383-3.418-1.482-4.802-0.219C6.79,7.301,6.387,8.212,6.383,9.161c0.001,0.215,0.023,0.437,0.066,0.65c0.096,0.475-0.163,0.951-0.614,1.128c-1.903,0.75-3.83,2.53-3.83,4.481c-0.111,2.562,1.847,4.701,4.364,4.812l0.158,0.004l1.21-0.002c0.001,0,0.001,0,0.002,0c0.552,0,0.999,0.446,1,0.998c0.001,0.552-0.445,1.001-0.998,1.002L6.514,22.236z"/><path d="M18.659,18.589h-2.938c-0.553,0-1-0.448-1-1s0.447-1,1-1h2.938c1.073,0,1.947-0.874,1.947-1.948c0-1.074-0.874-1.947-1.947-1.947s-1.947,0.874-1.947,1.947c0,0.552-0.447,1-1,1s-1-0.448-1-1c0-2.177,1.771-3.947,3.947-3.947s3.947,1.771,3.947,3.947S20.836,18.589,18.659,18.589z"/><path d="M15.722,18.589h-4.795c-0.553,0-1-0.448-1-1s0.447-1,1-1h4.795c0.553,0,1,0.448,1,1S16.274,18.589,15.722,18.589z"/><path d="M28.053,22.233h-2.962c-0.553,0-1-0.448-1-1s0.447-1,1-1h2.962c1.073,0,1.947-0.874,1.947-1.947s-0.874-1.947-1.947-1.947s-1.947,0.874-1.947,1.947c0,0.552-0.447,1-1,1s-1-0.448-1-1c0-2.177,1.771-3.947,3.947-3.947S32,16.109,32,18.286S30.229,22.233,28.053,22.233z"/><path d="M25.091,22.233H7.739c-0.553,0-1-0.448-1-1s0.447-1,1-1h17.352c0.553,0,1,0.448,1,1S25.644,22.233,25.091,22.233z"/><path d="M19.222,25.687h-8.465c-0.553,0-1-0.448-1-1s0.447-1,1-1h8.465c0.553,0,1,0.448,1,1S19.774,25.687,19.222,25.687z"/><path d="M22.158,31.582c-2.177,0-3.947-1.771-3.947-3.947c0-0.552,0.447-1,1-1s1,0.448,1,1c0,1.074,0.874,1.947,1.947,1.947s1.947-0.874,1.947-1.947s-0.874-1.947-1.947-1.947h-2.937c-0.553,0-1-0.448-1-1s0.447-1,1-1h2.937c2.177,0,3.947,1.771,3.947,3.947S24.335,31.582,22.158,31.582z"/></svg>