<svg xmlns="http://www.w3.org/2000/svg" viewBox="0 0 32 32"><!--! Font Icona - https://fonticona.com | License - https://fonticona.com/license | Copyright 2022 FontIcona.com --><path d="M6.514,26.909l-0.228-0.006c-1.758-0.078-3.377-0.833-4.562-2.127s-1.795-2.973-1.718-4.727c-0.001-2.65,2.156-4.863,4.383-5.978c-0.004-0.08-0.006-0.16-0.006-0.239c0.005-1.51,0.646-2.957,1.758-3.973c1.821-1.664,4.483-1.841,6.484-0.603c1.332-2.536,3.958-4.162,6.908-4.164c0.002,0,0.004,0,0.006,0c2.086,0,4.047,0.812,5.523,2.285c1.478,1.476,2.292,3.438,2.293,5.526c0.001,0.296-0.016,0.593-0.051,0.889C29.76,14.76,32,17.062,32,20.061c0,3.773-2.253,6.511-5.608,6.812c-0.029,0.002-0.059,0.004-0.088,0.004L6.514,26.909z M26.303,25.877h0.01H26.303z M9.78,10.448c-0.818,0-1.64,0.293-2.29,0.887c-0.7,0.64-1.104,1.55-1.107,2.498c0,0.214,0.022,0.436,0.066,0.654c0.094,0.474-0.165,0.947-0.614,1.125c-1.903,0.75-3.83,2.53-3.83,4.48c-0.055,1.264,0.37,2.432,1.194,3.332c0.825,0.9,1.95,1.426,3.17,1.48l0.151,0.004l19.735-0.032C28.532,24.652,30,22.766,30,20.061c0-2.317-2.105-4.112-4.085-4.624c-0.533-0.138-0.854-0.679-0.72-1.212c0.108-0.431,0.163-0.875,0.161-1.318c-0.001-1.557-0.607-3.018-1.707-4.115c-1.099-1.097-2.558-1.701-4.11-1.701c-0.001,0-0.003,0-0.004,0c-2.558,0.002-4.788,1.644-5.55,4.086c-0.106,0.342-0.388,0.601-0.737,0.678c-0.351,0.078-0.714-0.037-0.956-0.302C11.623,10.82,10.703,10.448,9.78,10.448z"/></svg>