<svg xmlns="http://www.w3.org/2000/svg" viewBox="0 0 32 32"><!--! Font Icona - https://fonticona.com | License - https://fonticona.com/license | Copyright 2022 FontIcona.com --><path d="M12,28.391c-0.552,0-1-0.448-1-1v-9.394c0-0.552,0.448-1,1-1s1,0.448,1,1v9.394C13,27.943,12.552,28.391,12,28.391z"/><path d="M20,28.391c-0.552,0-1-0.448-1-1v-9.394c0-0.552,0.448-1,1-1s1,0.448,1,1v9.394C21,27.943,20.552,28.391,20,28.391z"/><path d="M16,30.306c-0.552,0-1-0.448-1-1V15.718c0-0.552,0.448-1,1-1s1,0.448,1,1v13.587C17,29.858,16.552,30.306,16,30.306z"/><path class="st2" d="M6.511,23.512c-0.005,0-0.011,0-0.016,0l-0.217-0.006c-3.616-0.161-6.431-3.235-6.271-6.854c-0.001-2.65,2.156-4.863,4.383-5.979c-0.003-0.079-0.005-0.158-0.006-0.237c0.005-1.512,0.646-2.958,1.759-3.975c1.822-1.665,4.482-1.842,6.484-0.604c1.332-2.536,3.958-4.162,6.908-4.164c0.002,0,0.005,0,0.007,0c4.307,0,7.812,3.502,7.816,7.811c0.001,0.296-0.016,0.594-0.052,0.889C29.76,11.364,32,13.666,32,16.664c0,3.773-2.253,6.511-5.607,6.812c-0.556,0.047-1.036-0.357-1.085-0.907c-0.049-0.55,0.356-1.036,0.907-1.085c2.3-0.206,3.786-2.098,3.786-4.82c0-2.317-2.105-4.111-4.086-4.624c-0.532-0.138-0.854-0.68-0.719-1.213c0.109-0.432,0.164-0.875,0.162-1.317c-0.001-1.557-0.608-3.018-1.707-4.116c-1.1-1.098-2.55-1.725-4.114-1.7c-2.558,0.001-4.788,1.644-5.549,4.085c-0.106,0.342-0.388,0.601-0.737,0.678c-0.353,0.078-0.715-0.038-0.956-0.302c-1.264-1.383-3.418-1.482-4.802-0.218c-0.701,0.64-1.104,1.55-1.107,2.498c0.001,0.217,0.023,0.439,0.065,0.652c0.095,0.475-0.164,0.949-0.614,1.126c-1.903,0.75-3.83,2.53-3.83,4.481c-0.112,2.562,1.846,4.7,4.364,4.812l0.157,0.004c0.552,0.009,0.993,0.463,0.984,1.016C7.502,23.075,7.056,23.512,6.511,23.512z"/></svg>