<svg xmlns="http://www.w3.org/2000/svg" viewBox="0 0 32 32"><!--! Font Icona - https://fonticona.com | License - https://fonticona.com/license | Copyright 2022 FontIcona.com --><path class="st2" d="M8.713,21.49l-0.224-0.006c-1.612-0.071-3.107-0.769-4.202-1.965c-1.096-1.196-1.659-2.747-1.587-4.367c-0.001-2.426,1.953-4.455,3.986-5.492C6.685,9.606,6.684,9.553,6.684,9.5c0.005-1.403,0.599-2.744,1.629-3.685c1.666-1.519,4.086-1.701,5.931-0.607c0.889-1.629,2.383-2.871,4.189-3.432c0.001,0,0.001,0,0.001,0c0.688-0.213,1.404-0.322,2.128-0.323c0.002,0,0.003,0,0.005,0c3.971,0,7.202,3.229,7.207,7.199c0.001,0.251-0.013,0.502-0.04,0.751C29.973,10.312,32,12.423,32,15.167c0,3.483-2.084,6.011-5.186,6.29L8.713,21.49z M11.686,6.507c-0.724,0-1.449,0.259-2.024,0.784C9.043,7.856,8.687,8.661,8.684,9.499c0.001,0.191,0.021,0.388,0.058,0.577c0.095,0.474-0.164,0.948-0.614,1.125c-1.661,0.655-3.428,2.278-3.428,3.995c-0.049,1.13,0.329,2.17,1.062,2.972c0.734,0.802,1.737,1.27,2.823,1.318l0.141,0.004l17.997-0.028C29.119,19.242,30,17.011,30,15.167c0-2.064-1.882-3.664-3.651-4.122c-0.532-0.138-0.854-0.679-0.72-1.212c0.097-0.385,0.146-0.782,0.145-1.18c-0.003-2.87-2.339-5.202-5.206-5.202c-0.001,0-0.002,0-0.003,0c-0.523,0.001-1.041,0.079-1.539,0.233c-1.635,0.508-2.916,1.787-3.426,3.423c-0.107,0.342-0.389,0.601-0.738,0.678s-0.714-0.037-0.955-0.302C13.314,6.836,12.502,6.507,11.686,6.507z"/><path d="M19.469,30.548h-9.168c-0.553,0-1-0.448-1-1s0.447-1,1-1h9.168c0.553,0,1,0.448,1,1S20.021,30.548,19.469,30.548z"/><path d="M28.77,30.548h-4.663c-0.553,0-1-0.448-1-1s0.447-1,1-1h4.663c0.553,0,1,0.448,1,1S29.322,30.548,28.77,30.548z"/><path d="M5.664,30.548H1c-0.553,0-1-0.448-1-1s0.447-1,1-1h4.664c0.553,0,1,0.448,1,1S6.217,30.548,5.664,30.548z"/><path d="M31,26.061H5.545c-0.553,0-1-0.448-1-1s0.447-1,1-1H31c0.553,0,1,0.448,1,1S31.553,26.061,31,26.061z"/></svg>