<svg xmlns="http://www.w3.org/2000/svg" viewBox="0 0 32 32"><!--! Font Icona - https://fonticona.com | License - https://fonticona.com/license | Copyright 2022 FontIcona.com --><path d="M26.354,24.916h-1.204c-0.553,0-1-0.448-1-1s0.447-1,1-1h1.131c2.125-0.332,3.72-2.355,3.72-4.737c0-2.627-1.944-4.765-4.335-4.765c-0.151,0-0.302,0.009-0.45,0.025c-0.271,0.034-0.546-0.052-0.757-0.229c-0.21-0.177-0.338-0.433-0.354-0.707c-0.198-3.446-2.829-6.146-5.988-6.146c-2.777,0-5.176,2.06-5.831,5.009c-0.097,0.432-0.466,0.75-0.907,0.78c-2.578,0.179-4.597,2.541-4.597,5.378c0,2.972,2.203,5.39,4.912,5.39c0.553,0,1,0.448,1,1s-0.447,1-1,1c-3.812,0-6.912-3.315-6.912-7.39c0-3.62,2.465-6.68,5.732-7.282c1.068-3.5,4.105-5.886,7.603-5.886c3.912,0,7.212,3.034,7.878,7.065C29.335,11.607,32,14.567,32,18.179c0,3.398-2.368,6.29-5.509,6.727C26.445,24.913,26.399,24.916,26.354,24.916z"/><path d="M14.701,27.794c-0.184,0-0.369-0.05-0.536-0.156c-0.466-0.297-0.604-0.915-0.307-1.381l3.216-5.053c0.297-0.466,0.914-0.602,1.381-0.307c0.466,0.297,0.604,0.915,0.307,1.381l-3.216,5.053C15.355,27.631,15.031,27.794,14.701,27.794z"/><path d="M16.436,31.577c-0.184,0-0.369-0.05-0.536-0.156c-0.466-0.297-0.604-0.915-0.307-1.381l5.644-8.864c0.297-0.466,0.915-0.602,1.381-0.307c0.466,0.297,0.604,0.915,0.307,1.381l-5.644,8.864C17.09,31.413,16.766,31.577,16.436,31.577z"/><path d="M5.518,16.561c-0.377,0-0.737-0.213-0.907-0.577c-1.262-2.705-0.779-5.852,1.259-8.215C7.92,5.39,10.98,4.445,13.856,5.3c0.529,0.157,0.831,0.714,0.674,1.244c-0.158,0.528-0.709,0.831-1.244,0.673c-2.525-0.75-4.703,0.468-5.902,1.858c-1.188,1.378-2.065,3.695-0.961,6.063c0.233,0.5,0.017,1.096-0.483,1.329C5.803,16.531,5.659,16.561,5.518,16.561z"/><path d="M4.391,7.682c-0.228,0-0.457-0.078-0.646-0.237L1.176,5.27C0.755,4.913,0.702,4.282,1.059,3.861c0.357-0.421,0.986-0.475,1.41-0.117l2.569,2.175c0.421,0.357,0.474,0.988,0.117,1.409C4.957,7.562,4.675,7.682,4.391,7.682z"/><path d="M10.417,4.104c-0.491,0-0.919-0.361-0.989-0.861L9.191,1.562C9.114,1.016,9.495,0.51,10.042,0.433c0.56-0.084,1.053,0.304,1.13,0.851l0.236,1.681c0.077,0.547-0.304,1.053-0.851,1.129C10.51,4.102,10.463,4.104,10.417,4.104z"/><path d="M0.999,14.387c-0.481,0-0.905-0.348-0.985-0.838c-0.09-0.545,0.279-1.059,0.824-1.149l1.279-0.21c0.546-0.087,1.06,0.28,1.148,0.825c0.09,0.545-0.279,1.059-0.824,1.149l-1.279,0.21C1.107,14.383,1.053,14.387,0.999,14.387z"/></svg>