<svg xmlns="http://www.w3.org/2000/svg" viewBox="0 0 32 32"><!--! Font Icona - https://fonticona.com | License - https://fonticona.com/license | Copyright 2022 FontIcona.com --><path d="M14.57,27.048c-0.184,0-0.37-0.051-0.536-0.156c-0.466-0.297-0.603-0.915-0.307-1.381l3.055-4.799c0.298-0.466,0.914-0.601,1.381-0.307c0.466,0.297,0.604,0.915,0.307,1.381l-3.055,4.799C15.224,26.885,14.9,27.048,14.57,27.048z"/><path d="M16.217,30.64c-0.184,0-0.37-0.051-0.536-0.156c-0.466-0.297-0.603-0.915-0.307-1.381l5.36-8.418c0.297-0.466,0.917-0.601,1.381-0.307c0.466,0.297,0.604,0.915,0.307,1.381l-5.36,8.418C16.871,30.477,16.548,30.64,16.217,30.64z"/><path d="M5.492,16.199c-0.038,0-0.075-0.002-0.113-0.006c-2.078-0.232-3.969-1.328-5.188-3.006c-0.207-0.285-0.249-0.657-0.111-0.98s0.436-0.551,0.784-0.599c1.762-0.242,2.996-0.938,3.772-2.125c1.724-2.636,0.571-6.808,0.559-6.85C5.109,2.332,5.17,2.006,5.36,1.756C5.549,1.507,5.844,1.36,6.157,1.36c0.001,0,0.002,0,0.003,0c2.51,0.009,4.617,0.835,6.094,2.389c1.592,1.675,2.112,3.835,2.067,4.804c-0.026,0.552-0.492,0.971-1.046,0.952c-0.551-0.026-0.978-0.495-0.952-1.046c0.02-0.423-0.315-2.065-1.519-3.331c-0.863-0.908-2.003-1.469-3.4-1.676c0.272,1.733,0.44,4.773-1.089,7.119c-0.792,1.215-1.92,2.083-3.368,2.592c0.767,0.57,1.682,0.936,2.654,1.044c0.549,0.061,0.944,0.556,0.882,1.105C6.427,15.821,5.994,16.199,5.492,16.199z"/><path class="st0" d="M9.496,24.313c-0.01,0-0.02,0-0.03,0l-0.164-0.005c-3.26-0.145-5.784-2.901-5.642-6.147c-0.001-2.347,1.881-4.31,3.846-5.318c-0.001-0.044-0.002-0.089-0.002-0.134c0.004-1.363,0.581-2.666,1.584-3.582c0.959-0.876,2.21-1.326,3.5-1.267c0.799,0.036,1.559,0.262,2.23,0.655c1.208-2.201,3.52-3.605,6.113-3.607c0.001,0,0.003,0,0.005,0c3.85,0,6.984,3.131,6.987,6.982c0.001,0.235-0.012,0.47-0.036,0.703C30.049,13.479,32,15.523,32,18.177c0,3.328-2.07,5.838-5.035,6.104c-0.583,0.054-1.036-0.357-1.086-0.906c-0.049-0.551,0.356-1.036,0.906-1.086C29.158,22.076,30,19.94,30,18.177c0-1.974-1.802-3.504-3.497-3.942c-0.532-0.138-0.854-0.679-0.72-1.213c0.093-0.368,0.14-0.748,0.139-1.129c-0.002-2.75-2.239-4.985-4.987-4.985c-0.001,0-0.002,0-0.003,0c-2.193,0.001-4.105,1.409-4.758,3.502c-0.106,0.342-0.388,0.601-0.737,0.679c-0.352,0.077-0.715-0.038-0.956-0.302c-0.516-0.564-1.221-0.895-1.984-0.929c-0.755-0.037-1.496,0.229-2.061,0.746c-0.59,0.54-0.931,1.306-0.933,2.104c0,0.182,0.02,0.37,0.055,0.55c0.095,0.475-0.164,0.949-0.614,1.126c-1.593,0.628-3.286,2.181-3.286,3.822c-0.095,2.188,1.572,4.01,3.716,4.104l0.15,0.004c0.552,0.017,0.986,0.478,0.97,1.029C10.479,23.885,10.035,24.313,9.496,24.313z"/></svg>