<svg xmlns="http://www.w3.org/2000/svg" viewBox="0 0 32 32"><!--! Font Icona - https://fonticona.com | License - https://fonticona.com/license | Copyright 2022 FontIcona.com --><path d="M12.773,28.324c-0.082,0-0.166-0.01-0.25-0.031c-0.535-0.138-0.857-0.683-0.719-1.218l2.85-11.08c0.137-0.534,0.681-0.858,1.217-0.719c0.535,0.137,0.857,0.683,0.719,1.217l-2.85,11.08C13.625,28.024,13.219,28.324,12.773,28.324z"/><path d="M18.146,28.324c-0.083,0-0.167-0.01-0.251-0.031c-0.534-0.139-0.856-0.684-0.719-1.219l2.859-11.08c0.139-0.535,0.686-0.856,1.219-0.718c0.534,0.138,0.856,0.684,0.719,1.218l-2.859,11.08C18.997,28.025,18.591,28.324,18.146,28.324z"/><path d="M11.881,20.104c-0.552,0-1-0.447-1-0.999c0-0.553,0.447-1.001,0.999-1.001l11.08-0.01h0.001c0.552,0,0.999,0.447,1,0.999c0.001,0.553-0.447,1.001-0.999,1.001L11.881,20.104C11.881,20.104,11.881,20.104,11.881,20.104z"/><path d="M21.897,25.477H10.817c-0.552,0-1-0.447-1-1s0.448-1,1-1h11.081c0.553,0,1,0.447,1,1S22.45,25.477,21.897,25.477z"/><path d="M6.511,25.493c-0.005,0-0.011,0-0.016,0l-0.217-0.006c-3.616-0.16-6.431-3.234-6.271-6.854c-0.001-2.65,2.156-4.863,4.383-5.979c-0.003-0.079-0.005-0.158-0.006-0.237c0.005-1.512,0.646-2.958,1.759-3.975c1.822-1.665,4.482-1.842,6.484-0.604c1.332-2.536,3.957-4.162,6.907-4.164c0.002,0,0.004,0,0.007,0c2.085,0,4.046,0.812,5.522,2.286c1.478,1.475,2.292,3.438,2.294,5.525c0.001,0.296-0.017,0.593-0.052,0.89C29.76,13.345,32,15.646,32,18.646c0,3.772-2.253,6.511-5.606,6.812c-0.536,0.059-1.036-0.356-1.086-0.906s0.356-1.036,0.906-1.086c2.3-0.207,3.786-2.099,3.786-4.82c0-2.317-2.105-4.112-4.086-4.624c-0.532-0.138-0.854-0.679-0.72-1.212c0.109-0.434,0.164-0.877,0.162-1.318c-0.001-1.557-0.607-3.017-1.707-4.115c-1.099-1.097-2.558-1.701-4.109-1.701c-0.002,0-0.004,0-0.005,0c-2.558,0.002-4.788,1.644-5.549,4.086c-0.106,0.342-0.388,0.601-0.737,0.678c-0.352,0.078-0.715-0.037-0.956-0.302C11.029,8.754,8.875,8.656,7.491,9.92c-0.701,0.64-1.104,1.55-1.107,2.498c0.001,0.217,0.023,0.438,0.065,0.653c0.095,0.475-0.164,0.949-0.614,1.126c-1.903,0.75-3.83,2.53-3.83,4.481c-0.112,2.562,1.846,4.7,4.364,4.812l0.157,0.004c0.552,0.009,0.993,0.464,0.984,1.016C7.502,25.056,7.056,25.493,6.511,25.493z"/></svg>