<svg xmlns="http://www.w3.org/2000/svg" viewBox="0 0 32 32"><!--! Font Icona - https://fonticona.com | License - https://fonticona.com/license | Copyright 2022 FontIcona.com --><path d="M15.843,23.095c-1.515,0-2.702-1.617-2.702-3.682c0-2.063,1.186-3.681,2.702-3.681c1.516,0,2.702,1.617,2.702,3.681C18.545,21.477,17.358,23.095,15.843,23.095z M15.843,17.232c-0.567,0-1.202,0.933-1.202,2.181c0,1.249,0.634,2.182,1.202,2.182c0.567,0,1.202-0.933,1.202-2.182C17.045,18.165,16.41,17.232,15.843,17.232z"/><path d="M9.732,23.094c-1.515,0-2.702-1.617-2.702-3.682c0-2.063,1.187-3.681,2.702-3.681c1.033,0,1.958,0.77,2.414,2.009c0.144,0.389-0.056,0.819-0.444,0.963c-0.388,0.143-0.82-0.056-0.963-0.445c-0.23-0.623-0.625-1.026-1.007-1.026c-0.567,0-1.202,0.933-1.202,2.181c0,1.249,0.635,2.182,1.202,2.182c0.409,0,0.83-0.462,1.048-1.149c0.125-0.394,0.548-0.614,0.942-0.487c0.395,0.125,0.613,0.547,0.488,0.942C11.786,22.232,10.814,23.094,9.732,23.094z"/><path d="M24.219,23.094h-3.836c-0.306,0-0.58-0.186-0.695-0.468c-0.114-0.283-0.046-0.607,0.173-0.82l3.172-3.079c0.068-0.079,0.193-0.276,0.193-0.551c0-0.52-0.47-0.943-1.047-0.943s-1.047,0.423-1.047,0.943c0,0.414-0.336,0.75-0.75,0.75c-0.414,0-0.75-0.336-0.75-0.75c0-1.347,1.143-2.443,2.547-2.443s2.547,1.096,2.547,2.443c0,0.585-0.218,1.149-0.612,1.59l-1.882,1.828h1.987c0.414,0,0.75,0.336,0.75,0.75S24.634,23.094,24.219,23.094z"/><path class="st0" d="M6.514,26.908l-0.236-0.006c-3.616-0.16-6.43-3.234-6.272-6.853c-0.001-2.65,2.156-4.863,4.383-5.979c-0.003-0.079-0.005-0.158-0.006-0.237c0.005-1.513,0.646-2.959,1.759-3.974c1.065-0.973,2.446-1.471,3.886-1.406c0.936,0.042,1.825,0.32,2.599,0.801c1.332-2.535,3.957-4.16,6.907-4.162c0.002,0,0.005,0,0.007,0c4.307,0,7.811,3.502,7.816,7.811c0.001,0.296-0.017,0.593-0.052,0.89c2.455,0.97,4.695,3.27,4.695,6.269c0,3.772-2.254,6.511-5.607,6.812c-0.029,0.003-0.059,0.004-0.088,0.004L6.514,26.908z M26.302,25.878h0.01H26.302z M9.779,10.446c-0.85,0-1.657,0.312-2.288,0.889c-0.7,0.64-1.104,1.55-1.107,2.498c0.001,0.215,0.023,0.437,0.066,0.654c0.094,0.474-0.165,0.947-0.614,1.124c-1.903,0.75-3.829,2.531-3.829,4.481c-0.111,2.561,1.847,4.7,4.364,4.811l0.157,0.004l19.728-0.03C28.531,24.652,30,22.766,30,20.061c0-2.317-2.105-4.111-4.086-4.623c-0.532-0.138-0.853-0.679-0.72-1.212c0.109-0.434,0.164-0.877,0.162-1.318c-0.003-3.209-2.612-5.816-5.817-5.816c-0.001,0-0.003,0-0.004,0c-2.558,0.001-4.788,1.644-5.55,4.086c-0.106,0.342-0.388,0.601-0.737,0.678c-0.351,0.076-0.714-0.038-0.956-0.302c-0.612-0.67-1.448-1.062-2.355-1.103C9.884,10.448,9.831,10.446,9.779,10.446z"/></svg>