<svg xmlns="http://www.w3.org/2000/svg" viewBox="0 0 32 32"><!--! Font Icona - https://fonticona.com | License - https://fonticona.com/license | Copyright 2022 FontIcona.com --><path d="M8.473,12.152c-2.01,0-3.645-1.755-3.645-3.911S6.463,4.33,8.473,4.33c1.22,0,2.353,0.649,3.03,1.737c0.292,0.469,0.149,1.086-0.319,1.378c-0.471,0.293-1.086,0.148-1.378-0.319C9.495,6.628,8.997,6.33,8.473,6.33c-0.907,0-1.645,0.857-1.645,1.911s0.737,1.911,1.645,1.911c0.495,0,0.959-0.258,1.274-0.706c0.317-0.451,0.94-0.562,1.393-0.244c0.452,0.317,0.562,0.941,0.244,1.393C10.689,11.585,9.628,12.152,8.473,12.152z"/><path d="M8.241,16.482C3.697,16.482,0,12.785,0,8.241S3.697,0,8.241,0s8.241,3.697,8.241,8.241S12.785,16.482,8.241,16.482z M8.241,2C4.8,2,2,4.8,2,8.241s2.8,6.241,6.241,6.241s6.241-2.8,6.241-6.241S11.683,2,8.241,2z"/><path d="M8.241,24.271L8.241,24.271c-0.313,0-0.609-0.147-0.798-0.397L5.614,21.45c-0.333-0.44-0.245-1.068,0.195-1.4c0.44-0.334,1.067-0.247,1.4,0.195l1.031,1.366l1.032-1.366c0.332-0.442,0.959-0.529,1.4-0.195c0.44,0.333,0.528,0.96,0.195,1.4l-1.83,2.423C8.851,24.123,8.555,24.271,8.241,24.271z"/><path d="M8.241,27.67c-0.553,0-1-0.447-1-1v-3.399c0-0.553,0.447-1,1-1s1,0.447,1,1v3.399C9.241,27.223,8.794,27.67,8.241,27.67z"/><path d="M8.241,32C3.697,32,0,28.303,0,23.759s3.697-8.241,8.241-8.241s8.241,3.697,8.241,8.241S12.785,32,8.241,32z M8.241,17.518C4.8,17.518,2,20.317,2,23.759S4.8,30,8.241,30s6.241-2.8,6.241-6.241S11.683,17.518,8.241,17.518z"/><path d="M22.066,27.67c-0.553,0-1-0.447-1-1v-5.822c0-0.553,0.447-1,1-1s1,0.447,1,1v5.822C23.066,27.223,22.619,27.67,22.066,27.67z"/><path d="M22.067,24.697c-0.285,0-0.568-0.121-0.766-0.355c-0.356-0.423-0.302-1.054,0.121-1.409l3.385-2.85c0.423-0.358,1.054-0.301,1.408,0.12c0.356,0.423,0.302,1.054-0.121,1.409l-3.385,2.85C22.522,24.62,22.294,24.697,22.067,24.697z"/><path d="M25.451,27.67c-0.234,0-0.47-0.082-0.66-0.249l-3.385-2.973c-0.415-0.364-0.456-0.996-0.091-1.411c0.364-0.414,0.996-0.455,1.411-0.091l3.385,2.973c0.415,0.364,0.456,0.996,0.091,1.411C26.005,27.555,25.729,27.67,25.451,27.67z"/><path d="M23.759,32c-4.544,0-8.241-3.697-8.241-8.241s3.697-8.241,8.241-8.241S32,19.215,32,23.759S28.303,32,23.759,32z M23.759,17.518c-3.441,0-6.241,2.8-6.241,6.241S20.317,30,23.759,30S30,27.2,30,23.759S27.2,17.518,23.759,17.518z"/><path d="M26.005,12.152c-0.553,0-1-0.447-1-1V7.524l-0.589,0.509c-0.397,0.343-0.991,0.322-1.361-0.049l-0.543-0.469v3.631c0,0.553-0.447,1-1,1s-1-0.447-1-1V5.33c0-0.392,0.229-0.747,0.584-0.909c0.354-0.165,0.773-0.104,1.07,0.153l1.596,1.38l1.589-1.374c0.297-0.257,0.713-0.317,1.07-0.153c0.355,0.162,0.584,0.518,0.584,0.909v5.816C27.005,11.705,26.558,12.152,26.005,12.152z"/><path d="M23.759,16.482c-4.544,0-8.241-3.697-8.241-8.241S19.215,0,23.759,0S32,3.697,32,8.241S28.303,16.482,23.759,16.482z M23.759,2c-3.441,0-6.241,2.8-6.241,6.241s2.8,6.241,6.241,6.241S30,11.683,30,8.241S27.2,2,23.759,2z"/></svg>