<svg xmlns="http://www.w3.org/2000/svg" viewBox="0 0 32 32"><!--! Font Icona - https://fonticona.com | License - https://fonticona.com/license | Copyright 2022 FontIcona.com --><path d="M7.964,8.786c-2.422,0-4.393-1.971-4.393-4.393C3.571,1.971,5.542,0,7.964,0c2.422,0,4.393,1.971,4.393,4.393C12.357,6.815,10.386,8.786,7.964,8.786z M7.964,2C6.645,2,5.571,3.074,5.571,4.393s1.074,2.393,2.393,2.393s2.393-1.073,2.393-2.393S9.284,2,7.964,2z"/><path d="M7.964,32c-2.422,0-4.393-1.971-4.393-4.393c0-2.423,1.971-4.394,4.393-4.394c2.422,0,4.393,1.971,4.393,4.394C12.357,30.029,10.386,32,7.964,32z M7.964,25.214c-1.319,0-2.393,1.074-2.393,2.394S6.645,30,7.964,30s2.393-1.073,2.393-2.393S9.284,25.214,7.964,25.214z"/><path d="M24.036,8.786c-2.422,0-4.393-1.971-4.393-4.393C19.643,1.971,21.614,0,24.036,0c2.422,0,4.393,1.971,4.393,4.393C28.429,6.815,26.458,8.786,24.036,8.786z M24.036,2c-1.319,0-2.393,1.074-2.393,2.393s1.073,2.393,2.393,2.393s2.393-1.073,2.393-2.393S25.355,2,24.036,2z"/><rect x="6.964" y="7.786" width="2" height="16.428"/><path d="M6.971,24.391c-0.452-3.835,1.147-7.377,4.074-9.024c0.936-0.562,1.98-0.843,3.169-0.843c0.876,0,1.655,0.273,2.342,0.515c0.458,0.161,0.89,0.312,1.321,0.38c1.334,0.035,2.49-0.472,3.437-1.519c1.331-1.474,2.026-3.85,1.732-5.914l1.979-0.283c0.38,2.66-0.494,5.618-2.227,7.537c-1.356,1.501-3.102,2.23-5.053,2.175l-0.101-0.01c-0.642-0.091-1.205-0.289-1.75-0.48c-0.614-0.216-1.145-0.402-1.68-0.402c-0.827,0-1.514,0.182-2.164,0.572c-2.723,1.532-3.364,4.759-3.093,7.061L6.971,24.391z"/></svg>