<svg xmlns="http://www.w3.org/2000/svg" viewBox="0 0 32 32"><!--! Font Icona - https://fonticona.com | License - https://fonticona.com/license | Copyright 2022 FontIcona.com --><path d="M8.678,22.479c-0.196,0-0.395-0.058-0.569-0.178L0.43,16.978C0.165,16.793,0.004,16.492,0,16.169s0.148-0.629,0.409-0.82l7.679-5.634C8.533,9.387,9.159,9.485,9.485,9.93c0.327,0.445,0.23,1.071-0.215,1.398l-6.548,4.804l6.527,4.524c0.454,0.315,0.567,0.938,0.252,1.392C9.307,22.328,8.995,22.479,8.678,22.479z"/><path d="M23.322,22.479c-0.308,0-0.611-0.142-0.807-0.408c-0.327-0.445-0.23-1.071,0.215-1.398l6.548-4.804l-6.527-4.524c-0.454-0.315-0.567-0.938-0.252-1.392s0.938-0.566,1.392-0.253l7.679,5.323c0.266,0.185,0.426,0.485,0.43,0.809s-0.148,0.629-0.409,0.82l-7.679,5.634C23.734,22.416,23.527,22.479,23.322,22.479z"/><path d="M12.304,28.459c-0.102,0-0.205-0.016-0.307-0.048c-0.525-0.17-0.814-0.733-0.645-1.259l7.393-22.918c0.169-0.526,0.733-0.812,1.259-0.646c0.525,0.17,0.814,0.733,0.645,1.259l-7.393,22.918C13.119,28.189,12.726,28.459,12.304,28.459z"/></svg>