<svg xmlns="http://www.w3.org/2000/svg" viewBox="0 0 32 32"><!--! Font Icona - https://fonticona.com | License - https://fonticona.com/license | Copyright 2022 FontIcona.com --><path d="M8.9,24.5c-0.2,0-0.5-0.1-0.7-0.3L0.3,17C0.1,16.8,0,16.5,0,16.2c0-0.3,0.1-0.5,0.3-0.7l7.9-7.2c0.4-0.4,1-0.3,1.4,0.1c0.4,0.4,0.3,1-0.1,1.4l-7.1,6.5l7.1,6.5c0.4,0.4,0.4,1,0.1,1.4C9.4,24.4,9.1,24.5,8.9,24.5z"/><path d="M23.1,24.5c-0.3,0-0.5-0.1-0.7-0.3c-0.4-0.4-0.3-1,0.1-1.4l7.1-6.5l-7.1-6.5c-0.4-0.4-0.4-1-0.1-1.4s1-0.4,1.4-0.1l7.9,7.2c0.2,0.2,0.3,0.5,0.3,0.7s-0.1,0.5-0.3,0.7l-7.9,7.2C23.6,24.4,23.4,24.5,23.1,24.5z"/><path class="st0" d="M16,25.4c-0.6,0-1-0.4-1-1V1c0-0.6,0.4-1,1-1s1,0.4,1,1v23.4C17,25,16.6,25.4,16,25.4z"/><circle class="st0" cx="16" cy="30.8" r="1.2"/></svg>