<svg xmlns="http://www.w3.org/2000/svg" viewBox="0 0 32 32"><!--! Font Icona - https://fonticona.com | License - https://fonticona.com/license | Copyright 2022 FontIcona.com --><path d="M16.128,32c-0.184,0-0.368-0.051-0.53-0.152L0.602,22.481c-0.289-0.18-0.466-0.495-0.47-0.836L0,10.578c-0.004-0.344,0.169-0.666,0.459-0.853L15.323,0.16c0.325-0.21,0.742-0.212,1.071-0.008L31.39,9.518c0.289,0.181,0.466,0.496,0.47,0.837l0.132,11.068c0.004,0.344-0.169,0.666-0.459,0.853l-14.864,9.565C16.504,31.948,16.316,32,16.128,32z M2.125,21.075l13.995,8.742l13.866-8.923l-0.119-9.969L15.872,2.184L2.006,11.107L2.125,21.075z"/><path d="M30.429,21.934l-14.44-9.832L1.563,21.934l-1.126-1.652l14.988-10.216c0.338-0.233,0.786-0.233,1.126,0l15.004,10.216L30.429,21.934z"/><rect x="14.926" y="1" transform="matrix(0.9999 -0.0125 0.0125 0.9999 -0.0733 0.2001)" width="2" height="9.892"/><path d="M16.012,21.675c-0.196,0-0.393-0.058-0.563-0.174L0.445,11.287l1.126-1.652l14.44,9.831l14.426-9.831l1.126,1.652L16.575,21.501C16.405,21.618,16.208,21.675,16.012,21.675z"/><rect x="15.074" y="20.675" transform="matrix(0.9999 -0.0125 0.0125 0.9999 -0.3199 0.2035)" width="2" height="9.893"/></svg>