<svg xmlns="http://www.w3.org/2000/svg" viewBox="0 0 32 32"><!--! Font Icona - https://fonticona.com | License - https://fonticona.com/license | Copyright 2022 FontIcona.com --><path d="M2.82,29.078c-0.863,0-1.55-0.255-2.06-0.765c-2.77-2.77,2.712-11.149,9.559-17.995C17.165,3.472,25.546-2.007,28.314,0.76l0,0l0,0c1.325,1.324,0.926,3.854-1.186,7.517c-1.848,3.206-4.822,6.927-8.373,10.479s-7.272,6.524-10.478,8.373C6.023,28.427,4.198,29.078,2.82,29.078z M26.253,1.983c-1.981,0-7.58,2.809-14.521,9.75C3.733,19.732,1.222,25.948,2.174,26.9c0.316,0.314,1.788,0.407,5.104-1.505c3.058-1.763,6.631-4.623,10.062-8.054c3.431-3.432,6.291-7.005,8.054-10.063c1.912-3.315,1.82-4.788,1.505-5.104l0,0C26.774,2.048,26.556,1.983,26.253,1.983z"/><path d="M5.743,32c-0.863,0-1.551-0.254-2.057-0.76L0.76,28.314c-0.391-0.391-0.391-1.023,0-1.414s1.023-0.391,1.414,0L5.1,29.826c0.229,0.228,1.013,0.306,2.476-0.233c3.286-1.21,8.149-4.784,12.691-9.326c7.999-7.999,10.51-14.215,9.559-15.167L26.9,2.174c-0.391-0.391-0.391-1.023,0-1.414s1.023-0.391,1.414,0l2.926,2.926c2.77,2.77-2.712,11.149-9.559,17.995c-4.806,4.806-9.82,8.465-13.415,9.789C7.307,31.824,6.464,32,5.743,32z"/><path d="M20.975,21.974c-0.256,0-0.512-0.098-0.707-0.293l-2.927-2.926c-0.391-0.391-0.391-1.023,0-1.414c0.39-0.391,1.023-0.391,1.414,0l2.927,2.926c0.391,0.391,0.391,1.023,0,1.414C21.487,21.876,21.23,21.974,20.975,21.974z"/><path d="M25.26,17.261c-0.256,0-0.512-0.098-0.707-0.293l-2.902-2.901c-0.391-0.391-0.391-1.023,0-1.414s1.023-0.391,1.414,0l2.902,2.901c0.391,0.391,0.391,1.023,0,1.414C25.772,17.163,25.516,17.261,25.26,17.261z"/><path d="M28.477,12.873c-0.256,0-0.512-0.098-0.707-0.293l-2.871-2.871c-0.391-0.391-0.391-1.023,0-1.414c0.391-0.391,1.023-0.391,1.414,0l2.871,2.871c0.391,0.391,0.391,1.023,0,1.414C28.989,12.776,28.733,12.873,28.477,12.873z"/><path d="M30.468,9.09c-0.256,0-0.512-0.098-0.707-0.293l-2.845-2.845c-0.391-0.391-0.391-1.023,0-1.414s1.023-0.391,1.414,0l2.845,2.845c0.391,0.391,0.391,1.023,0,1.414C30.979,8.993,30.724,9.09,30.468,9.09z"/><path d="M20.975,21.974c-0.256,0-0.512-0.098-0.707-0.293l-2.927-2.926c-0.391-0.391-0.391-1.023,0-1.414c0.39-0.391,1.023-0.391,1.414,0l2.927,2.926c0.391,0.391,0.391,1.023,0,1.414C21.487,21.876,21.23,21.974,20.975,21.974z"/><path d="M16.261,26.26c-0.256,0-0.512-0.098-0.707-0.293l-2.902-2.901c-0.391-0.391-0.391-1.023,0-1.414s1.023-0.391,1.414,0l2.902,2.901c0.391,0.391,0.391,1.023,0,1.414C16.773,26.162,16.517,26.26,16.261,26.26z"/><path d="M11.873,29.477c-0.256,0-0.512-0.098-0.707-0.293l-2.871-2.871c-0.391-0.391-0.391-1.023,0-1.414s1.023-0.391,1.414,0l2.871,2.871c0.391,0.391,0.391,1.023,0,1.414C12.385,29.379,12.129,29.477,11.873,29.477z"/><path d="M8.09,31.467c-0.256,0-0.512-0.098-0.707-0.293l-2.845-2.845c-0.391-0.391-0.391-1.023,0-1.414s1.023-0.391,1.414,0l2.845,2.845c0.391,0.391,0.391,1.023,0,1.414C8.602,31.369,8.346,31.467,8.09,31.467z"/></svg>