<svg xmlns="http://www.w3.org/2000/svg" viewBox="0 0 32 32"><!--! Font Icona - https://fonticona.com | License - https://fonticona.com/license | Copyright 2022 FontIcona.com --><path d="M16,32C7.178,32,0,24.822,0,16S7.178,0,16,0s16,7.178,16,16S24.822,32,16,32z M16,2C8.28,2,2,8.28,2,16s6.28,14,14,14s14-6.28,14-14S23.72,2,16,2z"/><path d="M16,28.333C9.199,28.333,3.667,22.801,3.667,16S9.199,3.667,16,3.667S28.333,9.199,28.333,16S22.801,28.333,16,28.333z M16,5.667C10.303,5.667,5.667,10.303,5.667,16S10.303,26.333,16,26.333S26.333,21.697,26.333,16S21.697,5.667,16,5.667z"/><path d="M19.368,5.656c-0.094,0-0.189-0.013-0.284-0.041c-0.53-0.157-0.832-0.714-0.675-1.243l0.901-3.036c0.157-0.528,0.713-0.832,1.243-0.675s0.832,0.714,0.675,1.243L20.327,4.94C20.198,5.375,19.8,5.656,19.368,5.656z"/><path d="M11.73,31.38c-0.094,0-0.189-0.013-0.284-0.041c-0.53-0.157-0.832-0.714-0.675-1.243l0.901-3.036c0.157-0.529,0.713-0.833,1.243-0.675c0.53,0.157,0.832,0.714,0.675,1.243l-0.901,3.036C12.561,31.099,12.162,31.38,11.73,31.38z"/><path d="M30.38,21.27c-0.094,0-0.189-0.013-0.284-0.041l-3.036-0.901c-0.53-0.157-0.832-0.714-0.675-1.243s0.712-0.832,1.243-0.675l3.036,0.901c0.53,0.157,0.832,0.714,0.675,1.243C31.21,20.988,30.812,21.27,30.38,21.27z"/><path d="M4.656,13.632c-0.094,0-0.189-0.013-0.284-0.041l-3.036-0.901c-0.53-0.157-0.832-0.714-0.675-1.243s0.713-0.834,1.243-0.675l3.036,0.901c0.53,0.157,0.832,0.714,0.675,1.243C5.486,13.351,5.088,13.632,4.656,13.632z"/><path d="M26.404,11.36c-0.355,0-0.699-0.189-0.88-0.523c-0.264-0.485-0.083-1.093,0.402-1.355l2.784-1.509c0.486-0.263,1.093-0.083,1.355,0.402c0.264,0.485,0.083,1.093-0.402,1.355l-2.784,1.509C26.729,11.321,26.565,11.36,26.404,11.36z"/><path d="M2.813,24.148c-0.355,0-0.699-0.189-0.88-0.523C1.67,23.14,1.851,22.532,2.336,22.27l2.784-1.509c0.485-0.263,1.093-0.083,1.355,0.402c0.264,0.485,0.083,1.093-0.402,1.355l-2.784,1.509C3.138,24.109,2.975,24.148,2.813,24.148z"/><path d="M23.149,30.188c-0.355,0-0.699-0.189-0.88-0.523l-1.509-2.784c-0.264-0.485-0.083-1.093,0.402-1.355s1.093-0.083,1.355,0.402l1.509,2.784c0.264,0.485,0.083,1.093-0.402,1.355C23.474,30.148,23.311,30.188,23.149,30.188z"/><path d="M10.361,6.597c-0.355,0-0.699-0.189-0.88-0.523L7.973,3.289C7.709,2.804,7.89,2.196,8.375,1.934S9.468,1.851,9.73,2.336l1.509,2.784c0.264,0.485,0.083,1.093-0.402,1.355C10.686,6.558,10.522,6.597,10.361,6.597z"/></svg>