<svg xmlns="http://www.w3.org/2000/svg" viewBox="0 0 32 32"><!--! Font Icona - https://fonticona.com | License - https://fonticona.com/license | Copyright 2022 FontIcona.com --><path d="M14.142,27.2c-2.394,0-4.787-0.91-6.609-2.732c-3.644-3.645-3.644-9.574,0-13.219c2.877-2.876,7.238-3.567,10.86-1.717l-0.91,1.781c-2.843-1.451-6.273-0.911-8.536,1.35c-2.863,2.864-2.863,7.526,0,10.391c2.866,2.865,7.526,2.863,10.391,0c2.261-2.262,2.804-5.692,1.35-8.538l1.781-0.91c1.85,3.621,1.16,7.986-1.717,10.862C18.929,26.29,16.535,27.2,14.142,27.2z"/><path d="M14.142,32C6.344,32,0,25.656,0,17.858S6.344,3.717,14.142,3.717c1.992,0,3.92,0.406,5.729,1.209l-0.811,1.828c-1.553-0.688-3.208-1.037-4.919-1.037C7.446,5.717,2,11.163,2,17.858S7.446,30,14.142,30s12.142-5.446,12.142-12.142c0-1.711-0.349-3.366-1.037-4.919l1.828-0.811c0.803,1.81,1.209,3.737,1.209,5.729C28.283,25.656,21.939,32,14.142,32z"/><rect x="20.598" y="22.721" transform="matrix(0.7071 -0.7071 0.7071 0.7071 -11.5742 22.6863)" width="2" height="5.187"/><rect x="5.65" y="7.823" transform="matrix(0.7071 -0.7071 0.7071 0.7071 -5.3827 7.7385)" width="2" height="5.086"/><rect x="4.089" y="24.317" transform="matrix(0.7071 -0.7071 0.7071 0.7071 -15.9438 12.141)" width="5.19" height="2"/><rect x="13.142" y="26.061" width="2" height="4.937"/><rect x="13.142" y="4.72" width="2" height="4.739"/><rect x="1" y="16.858" width="5.038" height="2"/><rect x="22.494" y="16.858" width="4.789" height="2"/><path d="M16.119,16.881c-0.261,0-0.517-0.103-0.707-0.293c-0.268-0.268-0.361-0.664-0.241-1.023l4.961-14.881c0.109-0.329,0.381-0.577,0.719-0.657c0.337-0.078,0.691,0.022,0.937,0.267l9.92,9.92c0.245,0.245,0.346,0.6,0.267,0.937c-0.08,0.338-0.328,0.609-0.657,0.719l-14.881,4.961C16.332,16.864,16.225,16.881,16.119,16.881z M21.517,2.852L17.7,14.3l11.448-3.816L21.517,2.852z"/><path d="M14.142,21.291c-1.893,0-3.433-1.54-3.433-3.433s1.54-3.433,3.433-3.433s3.433,1.54,3.433,3.433S16.034,21.291,14.142,21.291z M14.142,16.426c-0.79,0-1.433,0.643-1.433,1.433s0.643,1.433,1.433,1.433s1.433-0.643,1.433-1.433S14.932,16.426,14.142,16.426z"/></svg>