<svg xmlns="http://www.w3.org/2000/svg" viewBox="0 0 32 32"><!--! Font Icona - https://fonticona.com | License - https://fonticona.com/license | Copyright 2022 FontIcona.com --><path d="M5.911,32H3c-1.654,0-3-1.346-3-3V3c0-1.654,1.346-3,3-3h2.911c1.654,0,3,1.346,3,3v26C8.911,30.654,7.565,32,5.911,32z M3,2C2.449,2,2,2.449,2,3v26c0,0.552,0.449,1,1,1h2.911c0.551,0,1-0.448,1-1V3c0-0.551-0.449-1-1-1H3z"/><path d="M17.455,32h-2.911c-1.654,0-3-1.346-3-3V3c0-1.654,1.346-3,3-3h2.911c1.654,0,3,1.346,3,3v26C20.455,30.654,19.109,32,17.455,32z M14.544,2c-0.551,0-1,0.449-1,1v26c0,0.552,0.449,1,1,1h2.911c0.552,0,1-0.448,1-1V3c0-0.551-0.448-1-1-1H14.544z"/><path d="M29,32h-2.911c-1.654,0-3-1.346-3-3V3c0-1.654,1.346-3,3-3H29c1.654,0,3,1.346,3,3v26C32,30.654,30.654,32,29,32z M26.089,2c-0.552,0-1,0.449-1,1v26c0,0.552,0.448,1,1,1H29c0.552,0,1-0.448,1-1V3c0-0.551-0.448-1-1-1H26.089z"/></svg>