<svg xmlns="http://www.w3.org/2000/svg" viewBox="0 0 32 32"><!--! Font Icona - https://fonticona.com | License - https://fonticona.com/license | Copyright 2022 FontIcona.com --><path d="M20.9,21.79c-0.159,0-0.319-0.038-0.465-0.115l-4.434-2.332l-4.412,2.332c-0.336,0.178-0.746,0.15-1.054-0.075c-0.309-0.224-0.463-0.603-0.399-0.979l0.845-4.925l-3.589-3.488c-0.273-0.266-0.372-0.663-0.254-1.025c0.117-0.362,0.43-0.626,0.807-0.681l4.958-0.725l2.201-4.472c0.168-0.342,0.516-0.558,0.896-0.559c0,0,0,0,0.001,0c0.38,0,0.728,0.216,0.896,0.557l2.212,4.474l4.948,0.725c0.376,0.055,0.689,0.319,0.806,0.681s0.019,0.759-0.253,1.025l-3.578,3.487l0.854,4.925c0.065,0.375-0.089,0.755-0.397,0.979C21.314,21.726,21.107,21.79,20.9,21.79z M16,17.212c0.16,0,0.32,0.038,0.465,0.115l3.102,1.632l-0.597-3.442c-0.056-0.325,0.051-0.657,0.288-0.887l2.506-2.443l-3.465-0.507c-0.325-0.047-0.606-0.251-0.751-0.546l-1.546-3.127l-1.538,3.125c-0.146,0.295-0.427,0.5-0.753,0.548l-3.471,0.507l2.512,2.442c0.237,0.23,0.345,0.562,0.289,0.886l-0.59,3.442l3.082-1.628C15.679,17.251,15.839,17.212,16,17.212z M13.567,10.69h0.01H13.567z"/><path d="M5.622,32c-0.213,0-0.425-0.068-0.603-0.202c-0.326-0.246-0.469-0.666-0.362-1.06l1.709-6.3c-3.747-2.306-6.134-6.375-6.288-10.803C0.078,6.101,7.255,0,16.078,0c2.644,0.103,5.188,0.654,7.601,1.642c4.924,1.946,8.165,6.637,8.243,11.944c0,0.001,0,0.002,0,0.004c0.039,3.688-1.583,7.134-4.448,9.455c-3.293,2.768-6.986,3.208-11.123,3.465c-1.521,0.1-2.489,0.691-3.831,1.508l-6.382,3.839C5.978,31.953,5.8,32,5.622,32z M16.039,1.999C8.358,2,2.078,7.204,2.078,13.6c0.138,3.951,2.409,7.594,5.927,9.474c0.411,0.219,0.616,0.694,0.494,1.144l-1.26,4.644l4.241-2.551c1.404-0.856,2.729-1.664,4.744-1.797c3.915-0.244,7.133-0.621,9.978-3.012c2.402-1.945,3.754-4.816,3.721-7.89c-0.068-4.493-2.811-8.462-6.99-10.114C20.725,2.594,18.41,2.092,16.039,1.999z"/></svg>