<svg xmlns="http://www.w3.org/2000/svg" viewBox="0 0 32 32"><!--! Font Icona - https://fonticona.com | License - https://fonticona.com/license | Copyright 2022 FontIcona.com --><path d="M5.622,32c-0.213,0-0.425-0.068-0.603-0.202c-0.326-0.246-0.469-0.666-0.362-1.06l1.709-6.301c-3.747-2.306-6.134-6.375-6.288-10.803C0.078,6.101,7.255,0,16.078,0c2.644,0.103,5.188,0.654,7.601,1.641c4.925,1.947,8.165,6.637,8.244,11.944c0,0.001,0,0.003,0,0.004c0.039,3.688-1.583,7.135-4.448,9.455c-3.293,2.768-6.986,3.207-11.123,3.465c-1.52,0.101-2.489,0.691-3.831,1.509l-6.383,3.84C5.978,31.953,5.8,32,5.622,32z M16.039,1.999C8.358,2,2.078,7.203,2.078,13.6c0.138,3.951,2.409,7.595,5.927,9.474c0.411,0.22,0.616,0.693,0.494,1.144l-1.26,4.645l4.241-2.552c1.404-0.855,2.729-1.663,4.744-1.797c3.915-0.243,7.133-0.62,9.978-3.012c2.402-1.945,3.754-4.816,3.721-7.89c-0.068-4.493-2.811-8.463-6.99-10.115C20.725,2.594,18.409,2.092,16.039,1.999z"/><ellipse cx="16.077" cy="13.322" rx="2.022" ry="1.744"/><ellipse cx="21.966" cy="13.422" rx="2.022" ry="1.744"/><ellipse cx="10.189" cy="13.122" rx="2.022" ry="1.744"/></svg>