<svg xmlns="http://www.w3.org/2000/svg" viewBox="0 0 32 32"><!--! Font Icona - https://fonticona.com | License - https://fonticona.com/license | Copyright 2022 FontIcona.com --><path d="M10.556,19.844c-0.256,0-0.512-0.098-0.707-0.293c-0.391-0.391-0.391-1.023,0-1.414L20.737,7.249c0.391-0.391,1.023-0.391,1.414,0s0.391,1.023,0,1.414L11.263,19.551C11.068,19.746,10.812,19.844,10.556,19.844z"/><path d="M21.444,19.844c-0.256,0-0.512-0.098-0.707-0.293L9.849,8.663c-0.391-0.391-0.391-1.023,0-1.414s1.023-0.391,1.414,0l10.888,10.888c0.391,0.391,0.391,1.023,0,1.414C21.956,19.746,21.7,19.844,21.444,19.844z"/><path d="M5.622,32c-0.213,0-0.425-0.068-0.603-0.202c-0.326-0.246-0.469-0.666-0.362-1.06l1.71-6.3c-3.747-2.307-6.135-6.376-6.289-10.804C0.078,6.101,7.255,0,16.078,0c2.646,0.103,5.19,0.655,7.601,1.642c4.925,1.947,8.164,6.637,8.243,11.944c0,0.001,0,0.002,0,0.004c0.04,3.688-1.582,7.133-4.448,9.455c-3.293,2.768-6.986,3.207-11.123,3.465c-1.519,0.1-2.487,0.69-3.828,1.507l-6.386,3.842C5.978,31.953,5.799,32,5.622,32z M16.039,1.999C8.358,2,2.078,7.204,2.078,13.6c0.138,3.952,2.409,7.595,5.927,9.474c0.411,0.22,0.616,0.694,0.494,1.144l-1.26,4.644l4.244-2.554c1.403-0.854,2.728-1.662,4.741-1.795c3.915-0.243,7.132-0.62,9.978-3.012c2.403-1.945,3.754-4.817,3.721-7.89c-0.068-4.492-2.812-8.462-6.989-10.114C20.728,2.595,18.411,2.092,16.039,1.999z"/></svg>