<svg xmlns="http://www.w3.org/2000/svg" viewBox="0 0 32 32"><!--! Font Icona - https://fonticona.com | License - https://fonticona.com/license | Copyright 2022 FontIcona.com --><path d="M20.142,9.948H7.053c-0.552,0-1-0.448-1-1s0.448-1,1-1h13.089c0.553,0,1,0.448,1,1S20.694,9.948,20.142,9.948z"/><path d="M20.142,14.804H7.053c-0.552,0-1-0.448-1-1s0.448-1,1-1h13.089c0.553,0,1,0.448,1,1S20.694,14.804,20.142,14.804z"/><path d="M4.835,27.326c-0.213,0-0.425-0.068-0.603-0.202c-0.326-0.246-0.469-0.666-0.362-1.06l1.413-5.206C2.133,18.873,0.13,15.422,0,11.671C0,5.22,6.129,0,13.663,0c2.258,0.088,4.423,0.558,6.476,1.397c4.214,1.667,6.987,5.682,7.056,10.225c0,0.001,0,0.003,0,0.004c0.033,3.161-1.356,6.114-3.813,8.104c-2.814,2.366-5.958,2.741-9.478,2.96c-1.245,0.082-2.05,0.573-3.165,1.252l-5.387,3.241C5.191,27.279,5.013,27.326,4.835,27.326z M13.624,1.999C7.231,2,2,6.323,2,11.637c0.114,3.275,2,6.301,4.921,7.861c0.411,0.22,0.616,0.694,0.494,1.144l-0.962,3.546l3.245-1.952c1.203-0.733,2.339-1.427,4.079-1.541c3.275-0.204,5.967-0.518,8.333-2.507c1.993-1.614,3.112-3.992,3.086-6.537c-0.056-3.729-2.334-7.026-5.803-8.398C17.545,2.497,15.608,2.077,13.624,1.999z"/><path d="M28.191,32c-0.178,0-0.356-0.047-0.516-0.143l-3.95-2.377c-0.811-0.494-1.346-0.819-2.192-0.875c-2.622-0.164-4.968-0.445-7.102-2.237c-1.356-1.099-2.319-2.657-2.696-4.379l1.953-0.428c0.281,1.279,0.997,2.438,2.015,3.264c1.687,1.417,3.532,1.633,5.957,1.784c1.34,0.088,2.197,0.609,3.104,1.162l1.809,1.089l-0.529-1.952c-0.122-0.449,0.082-0.924,0.493-1.144c2.055-1.098,3.382-3.226,3.463-5.554c-0.001-2.468-1.668-4.76-4.353-5.946l0.809-1.829C29.876,13.946,32,16.939,32,20.246c-0.097,2.8-1.543,5.354-3.827,6.869l0.983,3.623c0.107,0.394-0.036,0.813-0.362,1.06C28.617,31.932,28.404,32,28.191,32z"/></svg>