<svg xmlns="http://www.w3.org/2000/svg" viewBox="0 0 32 32"><!--! Font Icona - https://fonticona.com | License - https://fonticona.com/license | Copyright 2022 FontIcona.com --><path d="M24.298,14.4h-5.687c-0.553,0-1-0.448-1-1s0.447-1,1-1h5.687c0.553,0,1,0.448,1,1S24.851,14.4,24.298,14.4z"/><path d="M13.389,14.4H7.702c-0.552,0-1-0.448-1-1s0.448-1,1-1h5.687c0.552,0,1,0.448,1,1S13.941,14.4,13.389,14.4z"/><path d="M18.611,19.917h-5.222c-0.552,0-1-0.447-1-1s0.448-1,1-1h5.222c0.553,0,1,0.447,1,1S19.164,19.917,18.611,19.917z"/><path d="M9.68,19.917H7.702c-0.552,0-1-0.447-1-1s0.448-1,1-1H9.68c0.552,0,1,0.447,1,1S10.232,19.917,9.68,19.917z"/><path d="M24.298,19.917H22.32c-0.553,0-1-0.447-1-1s0.447-1,1-1h1.978c0.553,0,1,0.447,1,1S24.851,19.917,24.298,19.917z"/><path d="M18.611,8.883h-5.222c-0.552,0-1-0.448-1-1s0.448-1,1-1h5.222c0.553,0,1,0.448,1,1S19.164,8.883,18.611,8.883z"/><path d="M9.68,8.883H7.702c-0.552,0-1-0.448-1-1s0.448-1,1-1H9.68c0.552,0,1,0.448,1,1S10.232,8.883,9.68,8.883z"/><path d="M24.298,8.883H22.32c-0.553,0-1-0.448-1-1s0.447-1,1-1h1.978c0.553,0,1,0.448,1,1S24.851,8.883,24.298,8.883z"/><path d="M5.622,32c-0.213,0-0.425-0.068-0.603-0.202c-0.326-0.246-0.469-0.666-0.362-1.06l1.71-6.3c-3.747-2.307-6.135-6.376-6.289-10.804C0.078,6.101,7.255,0,16.078,0c2.646,0.103,5.19,0.655,7.601,1.642c4.925,1.947,8.164,6.637,8.243,11.944c0,0.001,0,0.002,0,0.004c0.04,3.688-1.582,7.133-4.448,9.455c-3.293,2.768-6.986,3.207-11.123,3.465c-1.519,0.1-2.487,0.69-3.828,1.507l-6.386,3.842C5.978,31.953,5.799,32,5.622,32z M16.039,1.999C8.358,2,2.078,7.204,2.078,13.6c0.138,3.952,2.409,7.595,5.927,9.474c0.411,0.22,0.616,0.694,0.494,1.144l-1.26,4.644l4.244-2.554c1.403-0.854,2.728-1.662,4.741-1.795c3.915-0.243,7.132-0.62,9.978-3.012c2.403-1.945,3.754-4.817,3.721-7.89c-0.068-4.492-2.812-8.462-6.989-10.114C20.728,2.595,18.411,2.092,16.039,1.999z"/></svg>