<svg xmlns="http://www.w3.org/2000/svg" viewBox="0 0 32 32"><!--! Font Icona - https://fonticona.com | License - https://fonticona.com/license | Copyright 2022 FontIcona.com --><path d="M15.513,32c-0.649,0-1.298-0.002-1.947-0.008c-2.832-0.031-5.453-1.137-7.193-3.033c-1.382-1.506-2.066-3.376-1.925-5.265l0.184-2.704c0.293-4.3,0.597-8.747,0.837-13.109C5.751,3.531,9.537,0,13.907,0h4.032c4.367,0,8.175,3.525,8.487,7.858c0.245,3.967,0.546,7.998,0.836,11.896l0.289,3.907c0.147,1.877-0.525,3.739-1.896,5.245c-1.734,1.907-4.355,3.027-7.191,3.073C17.479,31.994,16.496,32,15.513,32z M13.907,2c-3.336,0-6.227,2.692-6.442,6c-0.24,4.365-0.544,8.819-0.838,13.125l-0.185,2.71c-0.1,1.339,0.399,2.676,1.404,3.771c1.368,1.491,3.46,2.36,5.739,2.386c1.613,0.015,3.23,0.011,4.85-0.012c2.283-0.036,4.377-0.918,5.741-2.419c0.995-1.093,1.485-2.423,1.381-3.744c0-0.001,0-0.003,0-0.005l-0.29-3.909c-0.29-3.904-0.591-7.941-0.836-11.911C24.193,4.693,21.28,2,17.939,2H13.907z"/><path d="M15.898,13.111c-0.905,0-1.718-0.334-2.294-0.917c-0.543-0.55-0.838-1.269-0.829-2.023l0.031-3.305c0.017-1.606,1.367-2.912,3.01-2.912c1.702,0.001,3.056,1.304,3.083,2.903l0.048,3.309c0.013,0.755-0.278,1.475-0.82,2.026C17.552,12.775,16.739,13.111,15.898,13.111z M15.877,5.953c-0.604,0-1.066,0.426-1.071,0.931l-0.031,3.308c-0.003,0.278,0.135,0.477,0.252,0.595c0.203,0.206,0.497,0.323,0.806,0.323c0.374,0,0.666-0.117,0.866-0.322c0.116-0.117,0.252-0.315,0.247-0.59c0,0,0-0.001,0-0.001l-0.048-3.311C16.89,6.382,16.422,5.954,15.877,5.953z"/><path d="M15.866,5.954c-0.551,0-0.999-0.446-1-0.998l-0.01-3.954C14.854,0.45,15.301,0.002,15.854,0c0.001,0,0.002,0,0.002,0c0.551,0,0.999,0.446,1,0.998l0.01,3.954c0.001,0.552-0.445,1.001-0.998,1.002C15.868,5.954,15.867,5.954,15.866,5.954z"/><path d="M15.866,16.242c-0.551,0-0.998-0.445-1-0.997l-0.01-3.13c-0.001-0.552,0.445-1.001,0.997-1.003c0.001,0,0.002,0,0.003,0c0.551,0,0.999,0.446,1,0.997l0.01,3.129c0.002,0.552-0.444,1.001-0.997,1.003C15.869,16.242,15.867,16.242,15.866,16.242z"/></svg>