<svg xmlns="http://www.w3.org/2000/svg" viewBox="0 0 32 32"><!--! Font Icona - https://fonticona.com | License - https://fonticona.com/license | Copyright 2022 FontIcona.com --><path d="M9.25,30.607c-0.531,0-1.03-0.207-1.404-0.581L5.88,28.061c-0.676-0.675-0.928-1.857-0.587-2.75c0.012-0.041,0.101-0.361-0.14-0.602c-0.254-0.254-0.597-0.141-0.601-0.139c-0.892,0.338-2.075,0.087-2.75-0.587l-1.221-1.222C0.206,22.387,0,21.888,0,21.357c0-0.532,0.207-1.03,0.581-1.405L19.953,0.581c0.774-0.774,2.033-0.775,2.808,0l1.221,1.221c0.675,0.675,0.928,1.857,0.588,2.75c-0.013,0.042-0.101,0.362,0.139,0.601c0,0,0,0,0,0c0.256,0.256,0.599,0.142,0.602,0.139c0.892-0.34,2.075-0.088,2.75,0.588l1.965,1.965c0.774,0.774,0.774,2.034,0,2.808L10.654,30.026C10.28,30.4,9.781,30.607,9.25,30.607z M4.742,22.547c0.573,0,1.253,0.176,1.825,0.748c0.934,0.934,0.813,2.154,0.594,2.729c-0.061,0.159,0.012,0.502,0.132,0.622l1.966,1.967L28.612,9.24l-1.965-1.945c-0.121-0.12-0.463-0.192-0.623-0.133c-0.575,0.22-1.796,0.339-2.729-0.593l0,0c-0.934-0.934-0.812-2.155-0.593-2.729c0.06-0.159-0.013-0.503-0.134-0.624l-1.221-1.221L1.995,21.367l1.221,1.201c0.12,0.12,0.464,0.192,0.625,0.133C4.062,22.616,4.38,22.547,4.742,22.547z"/><path d="M11.444,24.55L11.444,24.55c-0.265,0-0.52-0.105-0.707-0.293L6.35,19.869c-0.391-0.391-0.391-1.023,0-1.414l1.956-1.956c0.375-0.375,1.039-0.375,1.414,0l4.388,4.388c0.391,0.391,0.391,1.023,0,1.414l-1.956,1.956C11.964,24.444,11.709,24.55,11.444,24.55z M8.471,19.162l2.973,2.974l0.542-0.542L9.013,18.62L8.471,19.162z"/><path d="M16.519,19.476c-0.265,0-0.52-0.105-0.707-0.293l-4.387-4.388c-0.391-0.391-0.391-1.023,0-1.414l1.956-1.956c0.391-0.391,1.023-0.391,1.414,0l4.388,4.387c0.391,0.39,0.391,1.023,0,1.414l-1.956,1.957C17.039,19.37,16.784,19.476,16.519,19.476z M13.546,14.087l2.973,2.974l0.542-0.542l-2.974-2.973L13.546,14.087z"/><path d="M21.594,14.4L21.594,14.4c-0.265,0-0.52-0.105-0.707-0.293L16.5,9.72c-0.391-0.391-0.391-1.023,0-1.414l1.956-1.956c0.391-0.391,1.023-0.391,1.414,0l4.388,4.387c0.188,0.188,0.293,0.442,0.293,0.707s-0.105,0.52-0.293,0.707l-1.956,1.956C22.113,14.295,21.859,14.4,21.594,14.4z M18.621,9.013l2.973,2.974l0.542-0.542l-2.974-2.973L18.621,9.013z"/><path d="M12.639,32c-0.519,0-1.038-0.197-1.434-0.592l-0.947-0.947c-0.382-0.382-0.593-0.891-0.593-1.434c0-0.542,0.21-1.052,0.592-1.435l17.335-17.334c0.791-0.792,2.077-0.791,2.868,0l0.946,0.946C31.79,11.587,32,12.097,32,12.639s-0.21,1.052-0.593,1.434L14.073,31.407C13.678,31.803,13.158,32,12.639,32z M29.027,11.666c-0.007,0-0.015,0.002-0.02,0.007L11.673,29.007l0.946,0.986l17.374-17.334l-0.946-0.986C29.042,11.668,29.035,11.666,29.027,11.666z"/><path d="M28.779,16.287c-0.256,0-0.512-0.098-0.707-0.293l-2.4-2.4c-0.391-0.391-0.391-1.023,0-1.414s1.023-0.391,1.414,0l2.4,2.4c0.391,0.391,0.391,1.023,0,1.414C29.291,16.189,29.035,16.287,28.779,16.287z"/><path d="M25.432,19.635c-0.256,0-0.512-0.098-0.707-0.293l-2.4-2.4c-0.391-0.391-0.391-1.024,0-1.414c0.391-0.391,1.023-0.391,1.414,0l2.4,2.4c0.391,0.391,0.391,1.023,0,1.414C25.943,19.537,25.688,19.635,25.432,19.635z"/><path d="M22.083,22.982c-0.256,0-0.512-0.098-0.707-0.293l-2.4-2.4c-0.391-0.391-0.391-1.023,0-1.414s1.023-0.391,1.414,0l2.4,2.4c0.391,0.391,0.391,1.023,0,1.414C22.595,22.885,22.339,22.982,22.083,22.982z"/><path d="M18.736,26.33c-0.256,0-0.512-0.098-0.707-0.293l-2.4-2.4c-0.391-0.391-0.391-1.023,0-1.414s1.023-0.391,1.414,0l2.4,2.4c0.391,0.391,0.391,1.023,0,1.414C19.248,26.232,18.992,26.33,18.736,26.33z"/><path d="M15.388,29.678c-0.256,0-0.512-0.098-0.707-0.293l-2.4-2.399c-0.391-0.391-0.391-1.023,0-1.414s1.023-0.391,1.414,0l2.4,2.399c0.391,0.391,0.391,1.023,0,1.414C15.9,29.58,15.644,29.678,15.388,29.678z"/></svg>