<svg xmlns="http://www.w3.org/2000/svg" viewBox="0 0 32 32"><!--! Font Icona - https://fonticona.com | License - https://fonticona.com/license | Copyright 2022 FontIcona.com --><path d="M11.809,12.821c-0.256,0-0.512-0.098-0.707-0.293L0.281,1.707c-0.391-0.391-0.391-1.023,0-1.414s1.023-0.391,1.414,0l10.82,10.821c0.391,0.391,0.391,1.023,0,1.414C12.32,12.723,12.064,12.821,11.809,12.821z"/><path d="M11.089,13.085H6.794c-0.552,0-1-0.448-1-1s0.448-1,1-1h4.274l0.006-4.279c0-0.552,0.448-1,1-1s1,0.448,1,1v4.295C13.074,12.251,12.239,13.085,11.089,13.085z"/><path d="M0.988,32c-0.256,0-0.512-0.098-0.707-0.293c-0.391-0.391-0.391-1.023,0-1.414l10.82-10.821c0.391-0.391,1.023-0.391,1.414,0s0.391,1.023,0,1.414L1.695,31.707C1.5,31.902,1.244,32,0.988,32z"/><path d="M12.074,26.194c-0.552,0-1-0.448-1-1V20.92l-4.28-0.006c-0.552,0-1-0.448-1-1s0.448-1,1-1h4.295c1.15,0,1.984,0.834,1.984,1.984v4.295C13.074,25.746,12.626,26.194,12.074,26.194z"/><path d="M31.012,32c-0.256,0-0.512-0.098-0.707-0.293l-10.82-10.821c-0.391-0.391-0.391-1.023,0-1.414s1.023-0.391,1.414,0l10.82,10.821c0.391,0.391,0.391,1.023,0,1.414C31.523,31.902,31.268,32,31.012,32z"/><path d="M19.926,26.194c-0.552,0-1-0.448-1-1v-4.295c0-1.15,0.834-1.984,1.984-1.984h4.295c0.552,0,1,0.448,1,1s-0.448,1-1,1h-4.274l-0.006,4.279C20.926,25.746,20.479,26.194,19.926,26.194z"/><path d="M20.191,12.821c-0.256,0-0.512-0.098-0.707-0.293c-0.391-0.391-0.391-1.023,0-1.414l10.82-10.821c0.391-0.391,1.023-0.391,1.414,0s0.391,1.023,0,1.414l-10.82,10.821C20.703,12.723,20.447,12.821,20.191,12.821z"/><path d="M25.206,13.085h-4.295c-1.15,0-1.984-0.834-1.984-1.984V6.806c0-0.552,0.448-1,1-1s1,0.448,1,1v4.273l4.28,0.006c0.552,0,1,0.448,1,1S25.758,13.085,25.206,13.085z"/></svg>