<svg xmlns="http://www.w3.org/2000/svg" viewBox="0 0 32 32"><!--! Font Icona - https://fonticona.com | License - https://fonticona.com/license | Copyright 2022 FontIcona.com --><path d="M29,30.375H3c-1.654,0-3-1.346-3-3V8.297c0-1.654,1.346-3,3-3h26c1.654,0,3,1.346,3,3v19.078C32,29.029,30.654,30.375,29,30.375z M3,7.297c-0.552,0-1,0.449-1,1v19.078c0,0.552,0.448,1,1,1h26c0.552,0,1-0.448,1-1V8.297c0-0.551-0.448-1-1-1H3z"/><path d="M2.547,13.147H1.938c-0.553,0-1-0.448-1-1s0.447-1,1-1h0.608c0.553,0,1,0.448,1,1S3.1,13.147,2.547,13.147z"/><path d="M2.547,10.303H1.938c-0.553,0-1-0.448-1-1s0.447-1,1-1h0.608c0.553,0,1,0.448,1,1S3.1,10.303,2.547,10.303z"/><path d="M2.547,15.992H1.938c-0.553,0-1-0.448-1-1s0.447-1,1-1h0.608c0.553,0,1,0.448,1,1S3.1,15.992,2.547,15.992z"/><path d="M9.131,7.284c-0.553,0-1-0.448-1-1v-1c0-0.552,0.447-1,1-1s1,0.448,1,1v1C10.131,6.836,9.684,7.284,9.131,7.284z"/><path d="M5.573,7.284c-0.553,0-1-0.448-1-1v-1c0-0.552,0.447-1,1-1s1,0.448,1,1v1C6.573,6.836,6.126,7.284,5.573,7.284z"/><path d="M28.646,6.284H17.271c-0.553,0-1-0.448-1-1s0.447-1,1-1h11.375c0.553,0,1,0.448,1,1S29.199,6.284,28.646,6.284z"/><path d="M26.981,16.849h-5.828c-0.553,0-1-0.448-1-1v-5.828c0-0.552,0.447-1,1-1h5.828c0.553,0,1,0.448,1,1v5.828C27.981,16.401,27.534,16.849,26.981,16.849z M22.153,14.849h3.828v-3.828h-3.828V14.849z"/><path d="M7.756,17.989c-0.553,0-1-0.447-1-1v-2.228c0-0.552,0.447-1,1-1s1,0.448,1,1v2.228C8.756,17.542,8.309,17.989,7.756,17.989z"/><path d="M7.756,12.557c-0.553,0-1-0.448-1-1V9.329c0-0.552,0.447-1,1-1s1,0.448,1,1v2.228C8.756,12.109,8.309,12.557,7.756,12.557z"/><path d="M5.574,24.388c-0.265,0-0.52-0.105-0.707-0.293s-0.293-0.441-0.293-0.707v-3.091c0-0.552,0.447-1,1-1l12.757-0.002c0.552,0,1,0.447,1,1l0.001,3.09c0,0.265-0.105,0.52-0.293,0.707s-0.441,0.293-0.707,0.293L5.574,24.388z M6.574,21.297v1.091l10.758-0.003l-0.001-1.09L6.574,21.297z"/><path d="M5.575,27.481c-0.552,0-1-0.447-1-1l-0.001-3.091c0-0.265,0.105-0.52,0.293-0.707s0.441-0.293,0.707-0.293l12.757-0.002c0.552,0,1,0.447,1,1l0.001,3.09c0,0.265-0.105,0.52-0.293,0.707s-0.441,0.293-0.707,0.293L5.575,27.481z M6.574,24.391l0.001,1.091l10.757-0.003l-0.001-1.09L6.574,24.391z"/><path d="M18.332,22.842c-0.552,0-1-0.447-1-0.999c0-0.553,0.447-1,0.999-1.001l1.109-0.001h0.001c0.552,0,1,0.447,1,0.999c0,0.553-0.447,1.001-0.999,1.001L18.332,22.842L18.332,22.842z"/><path d="M18.332,25.936c-0.552,0-1-0.447-1-0.999c0-0.553,0.447-1,0.999-1.001l1.11-0.001h0.001c0.552,0,1,0.447,1,0.999c0,0.553-0.447,1.001-0.999,1.001L18.332,25.936L18.332,25.936z"/><path d="M4.464,22.842c-0.552,0-1-0.447-1-0.999c0-0.553,0.447-1,0.999-1.001l1.109-0.001h0.001c0.552,0,1,0.447,1,0.999c0,0.553-0.447,1.001-0.999,1.001L4.464,22.842L4.464,22.842z"/><path d="M4.464,25.936c-0.552,0-1-0.447-1-0.999c0-0.553,0.447-1,0.999-1.001l1.11-0.001h0.001c0.552,0,1,0.447,1,0.999c0,0.553-0.447,1.001-0.999,1.001L4.464,25.936L4.464,25.936z"/><path d="M25.614,27.266c-0.553,0-1-0.447-1-1V20.51c0-0.553,0.447-1,1-1s1,0.447,1,1v5.756C26.614,26.818,26.167,27.266,25.614,27.266z"/><path d="M22.521,27.266c-0.553,0-1-0.447-1-1V20.51c0-0.553,0.447-1,1-1s1,0.447,1,1v5.756C23.521,26.818,23.073,27.266,22.521,27.266z"/><path d="M14.594,15.688c-1.518,0-2.753-1.235-2.753-2.753c0-1.518,1.235-2.752,2.753-2.752s2.753,1.235,2.753,2.752C17.347,14.453,16.111,15.688,14.594,15.688z M14.594,12.183c-0.415,0-0.753,0.337-0.753,0.752s0.338,0.753,0.753,0.753s0.753-0.338,0.753-0.753S15.009,12.183,14.594,12.183z"/><rect x="26.359" y="8.902" class="st2" width="4.574" height="4.257"/></svg>