<svg xmlns="http://www.w3.org/2000/svg" viewBox="0 0 32 32"><!--! Font Icona - https://fonticona.com | License - https://fonticona.com/license | Copyright 2022 FontIcona.com --><path d="M15.978,32.004c-2.649,0-5.272-0.665-7.662-1.974c-3.748-2.053-6.472-5.441-7.67-9.543c-1.199-4.101-0.729-8.423,1.324-12.171c2.053-3.748,5.441-6.472,9.543-7.671c4.102-1.199,8.426-0.728,12.172,1.324c7.736,4.237,10.583,13.978,6.346,21.715c-2.053,3.748-5.441,6.472-9.543,7.67C19.001,31.789,17.485,32.004,15.978,32.004z M16.021,1.996c-1.319,0-2.646,0.188-3.947,0.569C8.485,3.614,5.52,5.998,3.724,9.277s-2.207,7.062-1.158,10.65c1.048,3.588,3.432,6.554,6.711,8.35s7.062,2.208,10.65,1.158c3.588-1.048,6.554-3.432,8.35-6.711c3.707-6.77,1.217-15.293-5.553-19C20.634,2.579,18.339,1.996,16.021,1.996z"/><path d="M15.992,21.502c-0.91,0-1.812-0.229-2.634-0.679c-1.288-0.705-2.225-1.87-2.637-3.28s-0.251-2.896,0.455-4.185c1.455-2.659,4.804-3.64,7.465-2.182l0,0c2.659,1.457,3.638,4.805,2.182,7.465c-0.705,1.288-1.87,2.225-3.28,2.637C17.032,21.428,16.511,21.502,15.992,21.502z M16.006,12.501c-1.238,0-2.439,0.657-3.075,1.818c-0.449,0.82-0.552,1.765-0.289,2.663c0.262,0.897,0.857,1.638,1.678,2.087c0.821,0.449,1.766,0.554,2.663,0.289c0.896-0.262,1.638-0.857,2.087-1.678c0.927-1.692,0.304-3.823-1.389-4.75C17.148,12.64,16.573,12.501,16.006,12.501z"/><rect x="19.933" y="11.762" transform="matrix(0.9585 -0.2852 0.2852 0.9585 -2.5933 7.7125)" width="10.512" height="2"/><rect x="1.279" y="17.302" transform="matrix(0.9585 -0.285 0.285 0.9585 -4.9453 2.6219)" width="10.514" height="2"/><rect x="13.843" y="5.757" transform="matrix(0.3061 -0.952 0.952 0.3061 6.8151 22.8647)" width="10.499" height="2"/><rect x="7.88" y="24.316" transform="matrix(0.3057 -0.9521 0.9521 0.3057 -14.9877 30.0793)" width="10.5" height="2"/></svg>