<svg xmlns="http://www.w3.org/2000/svg" viewBox="0 0 32 32"><!--! Font Icona - https://fonticona.com | License - https://fonticona.com/license | Copyright 2022 FontIcona.com --><path d="M29,25.665H5.694c-1.654,0-3-1.346-3-3V10.958c0-1.654,1.346-3,3-3H29c1.654,0,3,1.346,3,3v11.707C32,24.319,30.654,25.665,29,25.665z M5.694,9.958c-0.552,0-1,0.448-1,1v11.707c0,0.552,0.448,1,1,1H29c0.552,0,1-0.448,1-1V10.958c0-0.552-0.448-1-1-1H5.694z"/><path d="M4.974,29.817c-0.553,0-1-0.447-1-1v-4.181c0-0.553,0.447-1,1-1s1,0.447,1,1v4.181C5.974,29.37,5.526,29.817,4.974,29.817z"/><path d="M28.812,13.929h-9.973c-0.553,0-1-0.447-1-1s0.447-1,1-1h9.973c0.553,0,1,0.447,1,1S29.364,13.929,28.812,13.929z"/><path d="M28.812,21.693h-9.973c-0.553,0-1-0.447-1-1s0.447-1,1-1h9.973c0.553,0,1,0.447,1,1S29.364,21.693,28.812,21.693z"/><path d="M28.812,17.812h-8.952c-0.553,0-1-0.447-1-1s0.447-1,1-1h8.952c0.553,0,1,0.447,1,1S29.364,17.812,28.812,17.812z"/><path d="M13.896,28.29h-3.714c-0.553,0-1-0.447-1-1s0.447-1,1-1h3.714c0.553,0,1,0.447,1,1S14.449,28.29,13.896,28.29z"/><path d="M28.462,28.29h-10.15c-0.553,0-1-0.447-1-1s0.447-1,1-1h10.15c0.553,0,1,0.447,1,1S29.015,28.29,28.462,28.29z"/><path d="M11.724,22.437c-3.102,0-5.625-2.523-5.625-5.625c0-3.103,2.523-5.626,5.625-5.626c3.103,0,5.626,2.523,5.626,5.626C17.35,19.913,14.826,22.437,11.724,22.437z M11.724,13.186c-1.999,0-3.625,1.627-3.625,3.626s1.626,3.625,3.625,3.625s3.626-1.626,3.626-3.625S13.723,13.186,11.724,13.186z"/><path d="M4.974,9.958c-0.553,0-1-0.447-1-1V3.182c0-0.553,0.447-1,1-1s1,0.447,1,1v5.776C5.974,9.511,5.526,9.958,4.974,9.958z"/><path d="M4.974,4.182H1c-0.553,0-1-0.447-1-1s0.447-1,1-1h3.974c0.553,0,1,0.447,1,1S5.526,4.182,4.974,4.182z"/><path d="M3.694,14.554H2.06c-0.553,0-1-0.447-1-1s0.447-1,1-1h1.635c0.553,0,1,0.447,1,1S4.247,14.554,3.694,14.554z"/><path d="M3.694,17.871H2.06c-0.553,0-1-0.447-1-1s0.447-1,1-1h1.635c0.553,0,1,0.447,1,1S4.247,17.871,3.694,17.871z"/><circle cx="11.786" cy="16.811" r="1.25"/></svg>