<svg xmlns="http://www.w3.org/2000/svg" viewBox="0 0 32 32"><!--! Font Icona - https://fonticona.com | License - https://fonticona.com/license | Copyright 2022 FontIcona.com --><path d="M29,30.379H3c-1.654,0-3-1.346-3-3V11.294c0-1.654,1.346-3,3-3h26c1.654,0,3,1.346,3,3v16.085C32,29.033,30.654,30.379,29,30.379z M3,10.294c-0.551,0-1,0.449-1,1v16.085c0,0.552,0.449,1,1,1h26c0.551,0,1-0.448,1-1V11.294c0-0.551-0.449-1-1-1H3z"/><path d="M30.844,11.516c-0.354,0-0.696-0.188-0.878-0.519L26.205,4.14c-0.175-0.32-0.512-0.519-0.876-0.519H6.675c-0.366,0-0.702,0.2-0.877,0.521L2.287,10.57c-0.265,0.485-0.873,0.665-1.357,0.398c-0.484-0.265-0.663-0.872-0.398-1.357l3.51-6.428C4.568,2.22,5.577,1.621,6.675,1.621h18.653c1.095,0,2.103,0.597,2.63,1.557l3.762,6.857c0.266,0.484,0.088,1.092-0.396,1.358C31.171,11.476,31.006,11.516,30.844,11.516z"/><path d="M21.292,25.315c-3.353,0-6.08-2.682-6.08-5.979s2.728-5.979,6.08-5.979s6.08,2.682,6.08,5.979S24.645,25.315,21.292,25.315z M21.292,15.358c-2.25,0-4.08,1.785-4.08,3.979c0,2.193,1.83,3.979,4.08,3.979s4.08-1.785,4.08-3.979C25.372,17.143,23.542,15.358,21.292,15.358z"/><path d="M21.292,22.36c-1.69,0-3.065-1.356-3.065-3.023c0-1.668,1.375-3.024,3.065-3.024s3.066,1.356,3.066,3.024C24.358,21.004,22.982,22.36,21.292,22.36z M21.292,18.312c-0.587,0-1.065,0.46-1.065,1.024s0.478,1.023,1.065,1.023c0.588,0,1.066-0.459,1.066-1.023S21.88,18.312,21.292,18.312z"/><path d="M21.292,18.312c-0.552,0-1-0.447-1-1v-2.955c0-0.552,0.448-1,1-1s1,0.448,1,1v2.955C22.292,17.865,21.844,18.312,21.292,18.312z"/><path d="M21.292,25.315c-0.552,0-1-0.447-1-1V21.36c0-0.553,0.448-1,1-1s1,0.447,1,1v2.955C22.292,24.868,21.844,25.315,21.292,25.315z"/><path d="M26.372,20.337h-3.014c-0.552,0-1-0.447-1-1s0.448-1,1-1h3.014c0.552,0,1,0.447,1,1S26.924,20.337,26.372,20.337z"/><path d="M19.227,20.337h-3.015c-0.552,0-1-0.447-1-1s0.448-1,1-1h3.015c0.552,0,1,0.447,1,1S19.779,20.337,19.227,20.337z"/><path d="M11.314,27.505H4.034c-0.552,0-1-0.447-1-1v-4.097c0-0.314,0.148-0.611,0.4-0.801l1.719-1.288c0.173-0.129,0.383-0.199,0.6-0.199h3.843c0.216,0,0.427,0.07,0.6,0.2l1.719,1.288c0.252,0.188,0.4,0.485,0.4,0.8v4.097C12.314,27.058,11.867,27.505,11.314,27.505z M5.034,25.505h5.281v-2.597L9.263,22.12H6.086l-1.052,0.788V25.505z"/><circle cx="27.622" cy="12.172" r="1.25"/><circle cx="27.622" cy="26.505" r="1.25"/><circle cx="14.962" cy="12.172" r="1.25"/><circle cx="14.962" cy="26.505" r="1.25"/><path d="M10.314,19.12H5.034c-1.103,0-2-0.897-2-2v-3.948c0-1.103,0.897-2,2-2h5.281c1.103,0,2,0.897,2,2v3.948C12.314,18.223,11.417,19.12,10.314,19.12z M5.034,13.172v3.948h5.282l-0.001-3.948H5.034z"/></svg>