<svg xmlns="http://www.w3.org/2000/svg" viewBox="0 0 32 32"><!--! Font Icona - https://fonticona.com | License - https://fonticona.com/license | Copyright 2022 FontIcona.com --><path d="M16,32C7.178,32,0,24.823,0,16S7.178,0,16,0s16,7.178,16,16S24.822,32,16,32z M16,2C8.28,2,2,8.281,2,16s6.28,14,14,14s14-6.28,14-14S23.72,2,16,2z"/><path d="M6.645,24.19c-0.304,0-0.6-0.139-0.793-0.391c-0.271-0.354-0.276-0.846-0.011-1.204l7.3-9.865c0.111-0.15,0.262-0.267,0.436-0.335L24.987,7.88c0.417-0.165,0.89-0.034,1.161,0.32c0.271,0.354,0.276,0.846,0.011,1.204l-7.3,9.865c-0.111,0.15-0.262,0.267-0.436,0.335L7.013,24.119C6.893,24.167,6.768,24.19,6.645,24.19z M14.578,14.149l-5.05,6.824l7.894-3.122l5.05-6.824L14.578,14.149z"/><circle cx="16" cy="16" r="1.25"/><path d="M16,4.42c-0.553,0-1-0.447-1-1V1c0-0.553,0.447-1,1-1s1,0.447,1,1v2.42C17,3.973,16.553,4.42,16,4.42z"/><path d="M16,32c-0.553,0-1-0.447-1-1v-2.42c0-0.553,0.447-1,1-1s1,0.447,1,1V31C17,31.553,16.553,32,16,32z"/><path d="M31,17h-2.42c-0.553,0-1-0.447-1-1c0-0.553,0.447-1,1-1H31c0.553,0,1,0.447,1,1C32,16.553,31.553,17,31,17z"/><path d="M3.42,17H1c-0.553,0-1-0.447-1-1c0-0.553,0.447-1,1-1h2.42c0.553,0,1,0.447,1,1C4.42,16.553,3.973,17,3.42,17z"/></svg>