<svg xmlns="http://www.w3.org/2000/svg" viewBox="0 0 32 32"><!--! Font Icona - https://fonticona.com | License - https://fonticona.com/license | Copyright 2022 FontIcona.com --><path d="M27.046,29.147h-7.834c-0.979,0-1.775-0.812-1.775-1.81V4.663c0-0.998,0.796-1.81,1.775-1.81h7.834c0.613,0,1.44,0.236,1.967,0.562l1.847,1.143C31.521,4.968,32,5.84,32,6.631v18.738c0,0.792-0.48,1.664-1.141,2.072l-1.844,1.143C28.487,28.91,27.66,29.147,27.046,29.147z M19.438,27.147h7.609c0.238,0,0.709-0.135,0.916-0.263l1.844-1.143C29.887,25.684,30,25.468,30,25.369V6.631c0-0.1-0.114-0.316-0.196-0.375l-1.842-1.14c-0.206-0.128-0.677-0.263-0.915-0.263h-7.609V27.147z"/><path d="M27.821,28.752c-0.552,0-1-0.447-1-1V4.248c0-0.553,0.448-1,1-1s1,0.447,1,1v23.504C28.821,28.305,28.373,28.752,27.821,28.752z"/><path d="M22.962,18.839c-1.683,0-3.052-1.369-3.052-3.052s1.369-3.052,3.052-3.052s3.051,1.369,3.051,3.052S24.645,18.839,22.962,18.839z M22.962,14.735c-0.58,0-1.052,0.472-1.052,1.052c0,0.58,0.472,1.052,1.052,1.052c0.58,0,1.051-0.472,1.051-1.052C24.013,15.207,23.542,14.735,22.962,14.735z"/><circle cx="22.962" cy="7.463" r="1.25"/><ellipse cx="22.962" cy="23.601" rx="1.25" ry="1.205"/><path d="M12.788,29.147H4.954c-0.613,0-1.44-0.236-1.967-0.562L1.14,27.441C0.48,27.033,0,26.161,0,25.369V6.631C0,5.84,0.479,4.968,1.139,4.559l1.847-1.144C3.513,3.09,4.34,2.854,4.954,2.854h7.834c0.979,0,1.775,0.812,1.775,1.81v22.674C14.562,28.335,13.766,29.147,12.788,29.147z M4.954,4.854c-0.238,0-0.709,0.135-0.916,0.263L2.193,6.259C2.114,6.315,2,6.531,2,6.631v18.738c0,0.099,0.113,0.314,0.195,0.373l1.844,1.143c0.206,0.127,0.676,0.262,0.915,0.262h7.609V4.854H4.954z M12.788,4.854h0.01H12.788z"/><path d="M4.179,28.752c-0.552,0-1-0.447-1-1V4.248c0-0.553,0.448-1,1-1s1,0.447,1,1v23.504C5.179,28.305,4.731,28.752,4.179,28.752z"/><path d="M9.038,18.839c-1.683,0-3.051-1.369-3.051-3.052s1.369-3.052,3.051-3.052s3.052,1.369,3.052,3.052S10.721,18.839,9.038,18.839z M9.038,14.735c-0.58,0-1.051,0.472-1.051,1.052c0,0.58,0.472,1.052,1.051,1.052c0.58,0,1.052-0.472,1.052-1.052C10.09,15.207,9.618,14.735,9.038,14.735z"/><circle cx="9.038" cy="7.463" r="1.25"/><ellipse cx="9.038" cy="23.601" rx="1.25" ry="1.205"/></svg>