<svg xmlns="http://www.w3.org/2000/svg" viewBox="0 0 32 32"><!--! Font Icona - https://fonticona.com | License - https://fonticona.com/license | Copyright 2022 FontIcona.com --><path d="M30.12,19.95H1.88v-1C1.88,12.447,8.214,7.157,16,7.157s14.12,5.291,14.12,11.793V19.95z M3.943,17.95h24.114C27.435,13.018,22.265,9.157,16,9.157S4.565,13.018,3.943,17.95z"/><path d="M31,29.061H1c-0.552,0-1-0.448-1-1v-1.956c0-2.206,1.794-4,4-4h24c2.206,0,4,1.794,4,4v1.956C32,28.613,31.552,29.061,31,29.061z M2,27.061h28v-0.956c0-1.103-0.897-2-2-2H4c-1.103,0-2,0.897-2,2V27.061z"/><path d="M16,9.021c-0.552,0-1-0.448-1-1V3.939c0-0.552,0.448-1,1-1s1,0.448,1,1v4.082C17,8.573,16.552,9.021,16,9.021z"/><path d="M16,24.032c-0.552,0-1-0.448-1-1v-3.66c0-0.552,0.448-1,1-1s1,0.448,1,1v3.66C17,23.584,16.552,24.032,16,24.032z"/><path d="M19.805,4.939h-7.609c-0.552,0-1-0.448-1-1s0.448-1,1-1h7.609c0.552,0,1,0.448,1,1S20.357,4.939,19.805,4.939z"/></svg>