<svg xmlns="http://www.w3.org/2000/svg" viewBox="0 0 32 32"><!--! Font Icona - https://fonticona.com | License - https://fonticona.com/license | Copyright 2022 FontIcona.com --><path d="M27.064,32H4.936c-1.654,0-3-1.346-3-3v-2.215c0-1.654,1.346-3,3-3h22.129c1.654,0,3,1.346,3,3V29C30.064,30.654,28.719,32,27.064,32z M4.936,25.785c-0.551,0-1,0.448-1,1V29c0,0.552,0.449,1,1,1h22.129c0.551,0,1-0.448,1-1v-2.215c0-0.552-0.449-1-1-1H4.936z"/><path d="M24.662,25.09L17.625,3.089c-0.217-0.68-0.689-1.061-0.832-1.09L15.185,2c-0.12,0.028-0.592,0.409-0.81,1.089L7.338,25.09L5.433,24.48L12.47,2.479C12.864,1.248,13.923,0,15.185,0h1.631c1.261,0,2.32,1.248,2.715,2.479l7.037,22.001L24.662,25.09z"/><rect x="12.078" y="5.988" width="7.878" height="2"/><rect x="10.036" y="11.893" width="11.86" height="2"/><rect x="7.973" y="17.886" width="16.061" height="2"/></svg>