<svg xmlns="http://www.w3.org/2000/svg" viewBox="0 0 32 32"><!--! Font Icona - https://fonticona.com | License - https://fonticona.com/license | Copyright 2022 FontIcona.com --><path d="M18.25,15.133c-7.234,0-15.801-5.287-16.262-5.575C1.562,9.291,1.399,8.748,1.61,8.291l3.458-7.5c0.231-0.499,0.822-0.72,1.324-0.49l7.149,3.271c5.518,2.256,7.825-2.76,7.921-2.974c0.116-0.262,0.34-0.463,0.612-0.549c0.272-0.089,0.57-0.054,0.816,0.093l7.104,4.252c0.36,0.217,0.548,0.635,0.468,1.048c-0.816,4.236-6.333,8.004-6.567,8.163C22.269,14.703,20.313,15.133,18.25,15.133z M3.805,8.308c2.925,1.673,13.575,7.282,18.972,3.639c0.047-0.031,4.438-3.035,5.544-6.224l-5.557-3.326c-1.486,2.359-4.861,5.117-10.017,3.01l-6.28-2.872L3.805,8.308z"/><path d="M9.62,31.999c-0.179,0-0.355-0.048-0.512-0.141l-7.104-4.253c-0.36-0.217-0.548-0.635-0.468-1.048c0.816-4.236,6.333-8.004,6.567-8.162c7.807-5.062,21.351,3.682,21.925,4.057c0.414,0.271,0.567,0.806,0.36,1.256l-3.458,7.5c-0.23,0.499-0.821,0.722-1.324,0.49l-7.149-3.271c-5.521-2.259-7.825,2.761-7.921,2.975c-0.116,0.262-0.34,0.463-0.612,0.549C9.825,31.984,9.723,31.999,9.62,31.999z M3.68,26.277l5.557,3.327c1.485-2.361,4.86-5.12,10.017-3.011l6.28,2.872l2.669-5.789c-2.836-1.689-13.214-7.358-18.994-3.612C9.176,20.086,4.785,23.088,3.68,26.277z"/></svg>