<svg xmlns="http://www.w3.org/2000/svg" viewBox="0 0 32 32"><!--! Font Icona - https://fonticona.com | License - https://fonticona.com/license | Copyright 2022 FontIcona.com --><path d="M28.999,32h-6.241c-0.453,0-0.849-0.305-0.966-0.741c-0.117-0.438,0.074-0.899,0.467-1.125c3.42-1.971,5.312-5.739,4.844-9.627l-4.24,0.56c-0.534,2.881-2.568,5.048-5.158,5.388l-0.642,0.085c-1.673,0.221-3.343-0.342-4.699-1.585c-1.308-1.198-2.163-2.891-2.41-4.764l-0.879-6.669c-0.248-1.874,0.14-3.73,1.092-5.226c0.988-1.552,2.454-2.528,4.128-2.749l0.643-0.085c2.586-0.342,5.115,1.224,6.377,3.868l4.242-0.56c-0.411-2.867-2.069-5.384-4.562-6.918c-0.381-0.234-0.56-0.693-0.438-1.124C20.68,0.297,21.072,0,21.52,0h7.479c1.654,0,3,1.346,3,3v26C31.999,30.654,30.653,32,28.999,32z M25.704,30h3.295c0.552,0,1-0.448,1-1V3c0-0.551-0.448-1-1-1h-4.646c1.736,1.791,2.867,4.094,3.2,6.617l0.115,0.885c0.071,0.547-0.313,1.049-0.86,1.121l-5.99,0.79c-0.459,0.065-0.912-0.209-1.071-0.653c-0.793-2.201-2.663-3.564-4.548-3.315l-0.643,0.085c-1.079,0.142-2.038,0.795-2.703,1.84c-0.7,1.1-0.983,2.482-0.797,3.891l0.879,6.669c0.186,1.409,0.817,2.67,1.778,3.551c0.913,0.837,2.01,1.221,3.086,1.077l0.643-0.085c1.886-0.248,3.339-2.049,3.534-4.38c0.039-0.469,0.399-0.847,0.865-0.908l5.99-0.79c0.26-0.038,0.528,0.036,0.739,0.198c0.211,0.161,0.349,0.399,0.383,0.662l0.116,0.883C29.559,23.833,28.272,27.452,25.704,30z"/><path d="M10.481,31.999h-7.48c-1.654,0-3-1.346-3-3V3c0-1.654,1.346-3,3-3h6.241c0.453,0,0.849,0.304,0.966,0.742c0.117,0.438-0.075,0.899-0.467,1.125c-3.451,1.986-5.347,5.807-4.83,9.734L6.43,23.12c0.384,2.913,2.052,5.475,4.575,7.027c0.381,0.234,0.56,0.693,0.438,1.124C11.322,31.702,10.929,31.999,10.481,31.999z M3.001,2c-0.551,0-1,0.449-1,1v25.999c0,0.552,0.449,1,1,1h4.646c-1.736-1.791-2.867-4.094-3.199-6.617l0,0l-1.519-11.52C2.442,8.165,3.728,4.547,6.294,2H3.001z"/></svg>