<svg xmlns="http://www.w3.org/2000/svg" viewBox="0 0 32 32"><!--! Font Icona - https://fonticona.com | License - https://fonticona.com/license | Copyright 2022 FontIcona.com --><path d="M17.527,32.002c-0.831,0-1.678-0.059-2.538-0.178h-0.001c-5.119-0.711-9.607-3.213-12.315-6.862c-2.199-2.965-3.068-6.394-2.513-9.916C1.462,6.785,9.044,0.035,17.063,0c7.999-0.036,14.72,7.725,14.933,17.345c0.098,4.43-1.52,8.357-4.556,11.062C24.796,30.763,21.342,32.002,17.527,32.002z M15.263,29.844c4.224,0.582,8.072-0.458,10.847-2.93c2.591-2.309,3.972-5.691,3.887-9.524C29.808,8.886,24.051,2,17.147,2c-0.024,0-0.048,0-0.073,0C10.112,2.031,3.272,8.148,2.136,15.357c-0.47,2.98,0.271,5.89,2.144,8.413C6.669,26.992,10.673,29.205,15.263,29.844L15.263,29.844z"/><path d="M24.446,15.056c-0.061,0-0.121-0.002-0.182-0.006c-0.697-0.049-1.333-0.365-1.792-0.893c-0.458-0.526-0.684-1.2-0.635-1.896c0.1-1.438,1.354-2.515,2.789-2.427c0.697,0.049,1.333,0.365,1.791,0.893c0.458,0.526,0.684,1.2,0.636,1.896C26.956,13.999,25.805,15.056,24.446,15.056z M24.445,11.828c-0.32,0-0.59,0.248-0.613,0.571c-0.011,0.163,0.042,0.321,0.149,0.445c0.107,0.124,0.257,0.198,0.42,0.209c0.354,0.02,0.632-0.231,0.656-0.569c0.011-0.163-0.042-0.321-0.149-0.445s-0.257-0.198-0.42-0.209C24.473,11.829,24.459,11.828,24.445,11.828z"/><circle cx="20.128" cy="3.072" r="1.25"/><circle cx="23.418" cy="22.295" r="1.25"/><circle cx="11.569" cy="7.855" r="1.25"/><circle cx="7.672" cy="17.161" r="1.25"/><circle cx="9.808" cy="24.644" r="1.25"/><path d="M14.866,18.14c-0.046,0-0.092-0.001-0.139-0.004l-0.002-0.001c-1.1-0.077-1.933-1.035-1.856-2.134c0.037-0.533,0.28-1.021,0.684-1.37c0.403-0.351,0.92-0.527,1.453-0.485c0.531,0.036,1.018,0.278,1.369,0.681c0.351,0.403,0.524,0.919,0.487,1.452C16.788,17.332,15.906,18.14,14.866,18.14z"/><path d="M18.55,29.715c-0.08,0-0.16-0.003-0.241-0.009c-1.841-0.133-3.235-1.785-3.108-3.683c0.062-0.941,0.482-1.795,1.182-2.404c0.67-0.582,1.521-0.867,2.397-0.806c1.84,0.134,3.234,1.787,3.109,3.684c-0.063,0.942-0.483,1.796-1.184,2.404C20.097,29.431,19.339,29.715,18.55,29.715z M18.544,24.805c-0.308,0-0.606,0.113-0.848,0.323c-0.295,0.257-0.472,0.622-0.5,1.028c-0.053,0.804,0.511,1.501,1.258,1.556h0c0.338,0.017,0.673-0.089,0.939-0.319c0.295-0.257,0.473-0.622,0.5-1.028c0.053-0.804-0.511-1.502-1.258-1.557C18.604,24.806,18.574,24.805,18.544,24.805z"/><path d="M5.074,12.545c-0.061,0-0.121-0.002-0.182-0.007c-0.677-0.047-1.294-0.354-1.74-0.866c-0.445-0.512-0.665-1.167-0.618-1.844c0.097-1.396,1.313-2.448,2.71-2.359C6.643,7.568,7.7,8.783,7.604,10.18c-0.047,0.678-0.355,1.296-0.867,1.741C6.27,12.327,5.686,12.545,5.074,12.545z M5.068,9.463c-0.281,0-0.519,0.219-0.539,0.504c-0.01,0.144,0.037,0.283,0.131,0.393c0.095,0.108,0.227,0.174,0.37,0.184l0.001,0.001c0.146-0.003,0.284-0.037,0.393-0.132s0.174-0.227,0.185-0.37c0.021-0.298-0.205-0.557-0.503-0.578C5.093,9.464,5.081,9.463,5.068,9.463z"/></svg>