<svg xmlns="http://www.w3.org/2000/svg" viewBox="0 0 32 32"><!--! Font Icona - https://fonticona.com | License - https://fonticona.com/license | Copyright 2022 FontIcona.com --><path d="M16,32C7.178,32,0,24.823,0,16S7.178,0,16,0s16,7.178,16,16S24.822,32,16,32z M16,2C8.28,2,2,8.281,2,16s6.28,14,14,14s14-6.28,14-14S23.72,2,16,2z"/><path d="M16.072,24.384c-4.623,0-8.384-3.761-8.384-8.384s3.761-8.384,8.384-8.384c2.53,0,4.9,1.126,6.501,3.089c0.35,0.428,0.286,1.058-0.143,1.406c-0.429,0.351-1.059,0.284-1.406-0.143c-1.221-1.495-3.025-2.353-4.952-2.353c-3.521,0-6.384,2.863-6.384,6.384s2.863,6.384,6.384,6.384c1.955,0,3.775-0.878,4.995-2.408c0.344-0.432,0.974-0.504,1.405-0.159s0.503,0.974,0.159,1.405C21.03,23.232,18.64,24.384,16.072,24.384z"/></svg>