<svg xmlns="http://www.w3.org/2000/svg" viewBox="0 0 32 32"><!--! Font Icona - https://fonticona.com | License - https://fonticona.com/license | Copyright 2022 FontIcona.com --><path d="M19.24,21.844H3c-1.654,0-3-1.346-3-3v-3.376c0-1.654,1.346-3,3-3h0.535c1.346,0,2.441,1.095,2.441,2.441v1.738h-2v-1.738c0-0.243-0.198-0.441-0.441-0.441h-0.46c-0.626,0-1.075,0.449-1.075,1v3.376c0,0.552,0.449,1,1,1h16.24V21.844z"/><path d="M16.99,16.698h-2v-5.685c0-0.551-0.449-1-1-1H5.535c-0.551,0-1,0.449-1,1v2.455h-2v-2.455c0-1.654,1.346-3,3-3h8.455c1.654,0,3,1.346,3,3V16.698z"/><path d="M29,21.844H12.593v-2H29c0.551,0,1-0.448,1-1v-3.63c0-0.411-0.334-0.746-0.746-0.746h-0.79c-0.411,0-0.746,0.334-0.746,0.746v1.434h-2v-1.434c0-1.514,1.231-2.746,2.746-2.746h0.79c1.514,0,2.746,1.231,2.746,2.746v3.63C32,20.498,30.654,21.844,29,21.844z"/><path d="M17.01,16.698h-2v-5.685c0-1.654,1.346-3,3-3h8.455c1.654,0,3,1.346,3,3v2.455h-2v-2.455c0-0.551-0.449-1-1-1H18.01c-0.551,0-1,0.449-1,1V16.698z"/><path d="M4.75,23.987c-0.552,0-1-0.447-1-1v-1.758c0-0.553,0.448-1,1-1s1,0.447,1,1v1.758C5.75,23.54,5.302,23.987,4.75,23.987z"/><path d="M27.25,23.987c-0.552,0-1-0.447-1-1v-1.758c0-0.553,0.448-1,1-1s1,0.447,1,1v1.758C28.25,23.54,27.802,23.987,27.25,23.987z"/><path d="M27.049,21.844H4.951c-1.509,0-2.017-2.307-2.017-3.359c0-1.052,0.508-3.359,2.017-3.359h22.098c1.509,0,2.017,2.307,2.017,3.359C29.065,19.537,28.558,21.844,27.049,21.844z M16.027,19.844h10.729c0.136-0.266,0.309-0.827,0.309-1.359s-0.172-1.093-0.309-1.359H5.244c-0.137,0.267-0.309,0.827-0.309,1.359s0.173,1.094,0.309,1.359H16.027z"/></svg>