<svg xmlns="http://www.w3.org/2000/svg" viewBox="0 0 32 32"><!--! Font Icona - https://fonticona.com | License - https://fonticona.com/license | Copyright 2022 FontIcona.com --><path d="M9.174,27.065c-1.545,0-4.786-0.293-6.995-2.526c-1.755-1.774-2.455-4.337-2.082-7.617c0.015-0.102,1.102-6.867,8.796-7.057h6.41l-0.973,4.012c-0.137,0.919-1.035,2.606-3.586,2.896l-0.086,0.009l-0.087-0.005c-0.03,0.001-3.114-0.15-3.722,1.62c-0.008,0.205,0.001,0.845,0.378,1.275c0.276,0.316,0.74,0.487,1.378,0.506h1.297c0.299-0.018,1.193-0.023,1.768,0.669c0.294,0.355,0.579,0.995,0.261,2.025l-1.217,4.089l-0.665,0.068C10,27.034,9.676,27.065,9.174,27.065z M8.918,11.865c-5.957,0.146-6.805,5.109-6.838,5.32c-0.296,2.606,0.211,4.617,1.514,5.939c1.696,1.722,4.372,1.937,5.599,1.938l0.825-2.771c0.014-0.046,0.025-0.086,0.033-0.119c-0.002,0-0.005,0-0.007,0l-1.467,0.005c-1.259-0.037-2.216-0.445-2.874-1.212c-1.01-1.18-0.854-2.711-0.833-2.882L4.9,17.93c0.911-3.169,4.977-3.163,5.693-3.155c1.551-0.202,1.745-1.109,1.762-1.214l0.02-0.104l0.386-1.593H8.918z"/><path d="M14.674,27.063h-4.571l0.263-1.257l4.926-18.511c0.352-1.322,1.699-2.358,3.067-2.358l5.346,0.002C28.297,5.048,32,8.818,32,13.436c0,4.686-3.812,8.498-8.499,8.498h-5.002l-0.751,2.777C17.391,26.03,16.041,27.063,14.674,27.063z M12.633,25.063h2.042c0.466,0,1.021-0.425,1.143-0.874l3.877-14.324h3.679c1.993,0,3.614,1.621,3.614,3.613c0,1.989-1.616,3.609-3.604,3.614l-0.269,0.005c-1.454,0.025-2.089,0.141-2.258,0.789l-0.532,2.048h3.178c3.583,0,6.499-2.915,6.499-6.498c0-3.584-2.915-6.499-6.499-6.499h-5.142c-0.464,0-1.016,0.424-1.135,0.872L12.633,25.063z M21.224,11.865L20.2,15.65c0.906-0.519,2.061-0.538,2.879-0.552l0.294-0.006c0.89,0,1.614-0.725,1.614-1.614s-0.724-1.613-1.614-1.613H21.224z"/></svg>