<svg xmlns="http://www.w3.org/2000/svg" viewBox="0 0 32 32"><!--! Font Icona - https://fonticona.com | License - https://fonticona.com/license | Copyright 2022 FontIcona.com --><path d="M14.73,15.557H4.825V5.336h9.906V15.557z M6.825,13.557h5.906V7.336H6.825V13.557z"/><path d="M12.73,32H6.825c-1.103,0-2-0.897-2-2v-2.63h2V30h5.906v-2.471h2V30C14.73,31.103,13.833,32,12.73,32z"/><polygon points="14.73,28.384 12.73,28.384 12.73,23.778 6.825,23.778 6.825,28.224 4.825,28.224 4.825,21.778 14.73,21.778 "/><path d="M14.73,23.778H4.825V13.557h9.906V23.778z M6.825,21.778h5.906v-6.222H6.825V21.778z"/><rect x="26.575" y="5.528" width="2" height="9.028"/><path d="M27.065,26.581c-0.047,0-0.095-0.001-0.143-0.003c-0.88-0.039-1.691-0.43-2.282-1.101c-1.195-1.355-1.105-3.471,0.2-4.715c0.488-0.464,1.093-0.755,1.734-0.85v-1.994c0-0.553,0.448-1,1-1s1,0.447,1,1v3.026c0,0.308-0.142,0.599-0.384,0.788c-0.243,0.189-0.56,0.255-0.857,0.183c-0.41-0.102-0.806,0.002-1.114,0.295c-0.537,0.512-0.572,1.384-0.079,1.944c0.229,0.259,0.537,0.41,0.869,0.425c0.325,0.022,0.646-0.107,0.894-0.343c0.4-0.379,1.033-0.365,1.414,0.035c0.381,0.399,0.365,1.032-0.035,1.414C28.674,26.267,27.891,26.581,27.065,26.581z"/><path d="M29.157,18.447h-3.164c-0.552,0-1-0.447-1-1v-3.291c0-0.553,0.448-1,1-1h3.164c0.552,0,1,0.447,1,1v3.291C30.157,18,29.709,18.447,29.157,18.447z M26.993,16.447h1.164v-1.291h-1.164V16.447z"/><path d="M1.029,12.981c-0.552,0-1-0.447-1-1V6.336c0-0.553,0.448-1,1-1s1,0.447,1,1v5.646C2.029,12.534,1.582,12.981,1.029,12.981z"/><rect x="1.029" y="10.981" width="4.795" height="2"/><rect x="8.521" y="1.994" width="2" height="4.342"/><path d="M31,7.336H12.172c-0.552,0-1-0.447-1-1s0.448-1,1-1H31c0.552,0,1,0.447,1,1S31.552,7.336,31,7.336z"/><path d="M22.254,7.336c-0.129,0-0.259-0.024-0.386-0.077L9.602,2.123L4.496,5.336h2.708c0.552,0,1,0.447,1,1s-0.448,1-1,1H1.029c-0.445,0-0.837-0.295-0.961-0.723C-0.055,6.185,0.12,5.727,0.497,5.489l8.48-5.336c0.276-0.173,0.62-0.201,0.919-0.076l12.745,5.336c0.509,0.214,0.75,0.8,0.536,1.309C23.016,7.105,22.645,7.336,22.254,7.336z"/><path d="M13.73,15.557c-0.257,0-0.514-0.099-0.709-0.296L4.859,7.04C4.47,6.648,4.472,6.016,4.864,5.626c0.392-0.388,1.025-0.388,1.414,0.006l8.162,8.221c0.389,0.392,0.387,1.024-0.005,1.414C14.24,15.46,13.985,15.557,13.73,15.557z"/><path d="M5.825,23.778c-0.25,0-0.499-0.093-0.693-0.279c-0.398-0.383-0.41-1.016-0.027-1.414l7.906-8.222c0.384-0.398,1.016-0.409,1.414-0.027c0.398,0.383,0.41,1.016,0.027,1.414l-7.906,8.222C6.349,23.676,6.087,23.778,5.825,23.778z"/><path d="M13.73,32c-0.262,0-0.524-0.103-0.721-0.307l-7.906-8.222c-0.383-0.398-0.371-1.031,0.027-1.414c0.399-0.382,1.032-0.371,1.414,0.027l7.906,8.222c0.383,0.398,0.371,1.031-0.027,1.414C14.229,31.907,13.98,32,13.73,32z"/><path d="M16.911,32H2.132c-0.552,0-1-0.447-1-1s0.448-1,1-1h14.779c0.552,0,1,0.447,1,1S17.463,32,16.911,32z"/></svg>