<svg xmlns="http://www.w3.org/2000/svg" viewBox="0 0 32 32"><!--! Font Icona - https://fonticona.com | License - https://fonticona.com/license | Copyright 2022 FontIcona.com --><path d="M16.333,25.645c-4.115,0-7.463-4.326-7.463-9.645s3.348-9.645,7.463-9.645c2.716,0,5.217,1.897,6.528,4.952c0.218,0.508-0.017,1.096-0.524,1.313c-0.51,0.219-1.096-0.018-1.313-0.524c-0.99-2.308-2.787-3.741-4.69-3.741c-3.012,0-5.463,3.43-5.463,7.645s2.451,7.645,5.463,7.645c2.047,0,3.909-1.596,4.859-4.165c0.192-0.518,0.768-0.784,1.285-0.591c0.518,0.191,0.783,0.767,0.591,1.284C21.82,23.548,19.239,25.645,16.333,25.645z"/><path d="M16,32C7.178,32,0,24.823,0,16S7.178,0,16,0s16,7.178,16,16S24.822,32,16,32z M16,2C8.28,2,2,8.281,2,16s6.28,14,14,14s14-6.28,14-14S23.72,2,16,2z"/><path d="M26.647,27.566c-0.255,0-0.509-0.097-0.705-0.29L4.648,6.144C4.257,5.754,4.254,5.121,4.643,4.73c0.39-0.393,1.021-0.395,1.415-0.006l21.294,21.132c0.392,0.39,0.394,1.022,0.005,1.414C27.161,27.467,26.904,27.566,26.647,27.566z"/></svg>