<svg xmlns="http://www.w3.org/2000/svg" viewBox="0 0 32 32"><!--! Font Icona - https://fonticona.com | License - https://fonticona.com/license | Copyright 2022 FontIcona.com --><path d="M16,32C7.178,32,0,24.823,0,16S7.178,0,16,0s16,7.178,16,16S24.822,32,16,32z M16,2C8.28,2,2,8.281,2,16s6.28,14,14,14s14-6.28,14-14S23.72,2,16,2z"/><path d="M16,11.14c-1.925,0-3.491-1.566-3.491-3.491S14.075,4.158,16,4.158s3.491,1.566,3.491,3.491S17.925,11.14,16,11.14z M16,6.158c-0.822,0-1.491,0.669-1.491,1.491S15.178,9.14,16,9.14s1.491-0.669,1.491-1.491S16.822,6.158,16,6.158z"/><path d="M19.247,20.169c-0.048,0-0.097,0-0.144,0l-6.055-0.001l-0.151,0.001c-0.555,0.001-1.188,0.006-1.658-0.46c-0.188-0.187-0.412-0.52-0.412-1.043v-5.02c0-1.104,0.996-2.004,2.22-2.004h5.904c1.224,0,2.22,0.899,2.22,2.004v5.02c0,0.523-0.224,0.856-0.412,1.043C20.331,20.136,19.767,20.169,19.247,20.169z M12.828,18.663v0.003C12.828,18.665,12.828,18.664,12.828,18.663z M13.048,13.643c-0.147,0-0.228,0.063-0.239,0.079l0.017,4.447c0.021,0,0.041,0,0.06,0l6.067-0.001l0.163,0.001c0.019,0,0.038,0,0.058,0v-4.51c-0.007,0.037-0.085-0.017-0.22-0.017H13.048z"/><path d="M16.813,27.447h-1.627c-1.224,0-2.22-0.899-2.22-2.004v-6.002c0-0.553,0.448-1,1-1s1,0.447,1,1v5.989c0.005-0.04,0.085,0.017,0.22,0.017h1.627c0.147,0,0.228-0.063,0.239-0.079l-0.019-5.927c0-0.553,0.448-1,1-1s1,0.447,1,1v6.002C19.034,26.547,18.038,27.447,16.813,27.447z"/></svg>