<svg xmlns="http://www.w3.org/2000/svg" viewBox="0 0 32 32"><!--! Font Icona - https://fonticona.com | License - https://fonticona.com/license | Copyright 2022 FontIcona.com --><path d="M16,32C7.178,32,0,24.823,0,16S7.178,0,16,0s16,7.178,16,16S24.822,32,16,32z M16,2C8.28,2,2,8.281,2,16s6.28,14,14,14s14-6.28,14-14S23.72,2,16,2z"/><path d="M26.647,27.566c-0.255,0-0.51-0.097-0.704-0.29L4.648,6.144C4.256,5.754,4.254,5.121,4.643,4.73c0.39-0.393,1.024-0.394,1.414-0.006l21.295,21.132c0.393,0.39,0.395,1.022,0.006,1.414C27.162,27.467,26.904,27.566,26.647,27.566z"/><path d="M16.624,26.563c-5.377,0-9.751-4.738-9.751-10.562c0-5.825,4.374-10.563,9.751-10.563c2.769,0,5.416,1.282,7.265,3.517c0.353,0.426,0.292,1.057-0.133,1.408c-0.426,0.354-1.058,0.291-1.408-0.133c-1.468-1.774-3.554-2.792-5.724-2.792c-4.273,0-7.751,3.842-7.751,8.563s3.478,8.562,7.751,8.562c2.44,0,4.768-1.295,6.226-3.465c0.308-0.458,0.929-0.582,1.388-0.272c0.459,0.308,0.58,0.93,0.272,1.388C22.68,24.937,19.731,26.563,16.624,26.563z"/><path d="M20.712,14.244H5.428c-0.553,0-1-0.447-1-1s0.447-1,1-1h15.284c0.553,0,1,0.447,1,1S21.265,14.244,20.712,14.244z"/><path d="M19.604,18.858H4.32c-0.553,0-1-0.447-1-1s0.447-1,1-1h15.284c0.553,0,1,0.447,1,1S20.157,18.858,19.604,18.858z"/></svg>