<svg xmlns="http://www.w3.org/2000/svg" viewBox="0 0 32 32"><!--! Font Icona - https://fonticona.com | License - https://fonticona.com/license | Copyright 2022 FontIcona.com --><path d="M16,32C7.178,32,0,24.823,0,16S7.178,0,16,0s16,7.178,16,16S24.822,32,16,32z M16,2C8.28,2,2,8.281,2,16s6.28,14,14,14s14-6.28,14-14S23.72,2,16,2z"/><path d="M21.167,14.666H10.833c-0.553,0-1-0.447-1-1s0.447-1,1-1h10.334c0.553,0,1,0.447,1,1S21.72,14.666,21.167,14.666z"/><path d="M21.167,19.333H10.833c-0.553,0-1-0.447-1-1s0.447-1,1-1h10.334c0.553,0,1,0.447,1,1S21.72,19.333,21.167,19.333z"/></svg>