<svg xmlns="http://www.w3.org/2000/svg" viewBox="0 0 32 32"><!--! Font Icona - https://fonticona.com | License - https://fonticona.com/license | Copyright 2022 FontIcona.com --><path d="M16,32C7.178,32,0,24.823,0,16S7.178,0,16,0s16,7.178,16,16S24.822,32,16,32z M16,2C8.28,2,2,8.281,2,16s6.28,14,14,14s14-6.28,14-14S23.72,2,16,2z"/><path d="M8.626,22.568c-0.141,0-0.281-0.029-0.413-0.089L4.11,20.621c-0.357-0.162-0.587-0.519-0.587-0.911v-4.558c0-0.405,0.245-0.771,0.62-0.925l3.482-1.43V8.35c0-0.395,0.232-0.753,0.593-0.913l4.803-2.139c0.256-0.113,0.545-0.115,0.801-0.006l9.113,3.904c0.368,0.157,0.606,0.519,0.606,0.919v4.805c0,0.395-0.231,0.752-0.592,0.913l-4.179,1.868c-0.248,0.11-0.531,0.115-0.785,0.014l-3.558-1.447v3.231c0,0.399-0.237,0.761-0.604,0.918l-4.803,2.068C8.896,22.54,8.761,22.568,8.626,22.568z M5.523,19.065l3.112,1.41l3.793-1.634v-4.06c0-0.333,0.166-0.644,0.441-0.83c0.277-0.185,0.625-0.221,0.936-0.097l4.539,1.847l3.197-1.43v-3.497l-8.105-3.473L9.626,8.999v4.469c0,0.405-0.245,0.771-0.62,0.925l-3.482,1.43V19.065z"/><path d="M23.293,24.438c-0.007,0-0.015,0-0.021,0c-0.131-0.003-0.256-0.031-0.37-0.08l-9.844-3.93c-0.513-0.205-0.763-0.786-0.558-1.3s0.786-0.763,1.3-0.558l8.493,3.392V18.74c0-0.399,0.238-0.761,0.604-0.919l4.184-1.8c0.31-0.131,0.664-0.101,0.945,0.084s0.45,0.499,0.45,0.835v4.628c0,0.395-0.231,0.752-0.592,0.913l-4.164,1.861c-0.123,0.059-0.261,0.093-0.405,0.096C23.308,24.438,23.301,24.438,23.293,24.438z M24.293,19.398v2.498l2.184-0.977v-2.461L24.293,19.398z"/><path d="M23.293,19.74c-0.123,0-0.247-0.022-0.368-0.07l-4.93-1.951c-0.514-0.203-0.765-0.784-0.562-1.298c0.203-0.515,0.785-0.764,1.298-0.562l4.93,1.951c0.514,0.203,0.765,0.784,0.562,1.298C24.067,19.5,23.69,19.74,23.293,19.74z"/><path d="M27.477,17.94c-0.127,0-0.255-0.023-0.379-0.074l-4.935-2.02c-0.511-0.21-0.756-0.793-0.547-1.305c0.21-0.511,0.798-0.754,1.305-0.547l4.935,2.02c0.511,0.21,0.756,0.793,0.547,1.305C28.243,17.705,27.87,17.94,27.477,17.94z"/></svg>