<svg xmlns="http://www.w3.org/2000/svg" viewBox="0 0 32 32"><!--! Font Icona - https://fonticona.com | License - https://fonticona.com/license | Copyright 2022 FontIcona.com --><path d="M16,32C7.178,32,0,24.823,0,16S7.178,0,16,0s16,7.178,16,16S24.822,32,16,32z M16,2C8.28,2,2,8.281,2,16s6.28,14,14,14s14-6.28,14-14S23.72,2,16,2z"/><path d="M15.02,25.903c-0.516,0-0.947-0.392-0.996-0.906l-0.546-5.773l-0.501,5.595c-0.046,0.514-0.474,0.907-0.989,0.911c-0.002,0-0.005,0-0.007,0c-0.512,0-0.941-0.387-0.995-0.896l-0.662-6.337l-0.489,3.923c-0.061,0.486-0.466,0.857-0.956,0.875c-0.493,0.035-0.921-0.322-1.017-0.805l-0.903-4.553c-0.18,0.304-0.507,0.49-0.86,0.49H3.712c-0.552,0-1-0.447-1-1s0.448-1,1-1h1.809l1.035-1.795c0.208-0.361,0.623-0.561,1.029-0.487c0.411,0.067,0.737,0.383,0.818,0.792l0.215,1.083L9.42,9.581c0.062-0.501,0.488-0.876,0.992-0.876c0.003,0,0.006,0,0.01,0c0.508,0.005,0.932,0.391,0.985,0.896l0.498,4.767l0.55-6.144c0.046-0.515,0.477-0.91,0.994-0.911c0.001,0,0.001,0,0.002,0c0.516,0,0.947,0.393,0.996,0.906l0.489,5.169l0.508-6.371c0.042-0.518,0.471-0.917,0.989-0.921c0.003,0,0.005,0,0.008,0c0.515,0,0.947,0.392,0.996,0.905l0.668,7.009l0.381-3.645c0.053-0.508,0.479-0.894,0.989-0.896c0.002,0,0.004,0,0.005,0c0.508,0,0.935,0.381,0.994,0.886l0.598,5.197l0.453-4.147c0.054-0.496,0.465-0.876,0.963-0.892c0.502-0.014,0.932,0.338,1.017,0.83l1.115,6.454l0.673-1.102c0.182-0.298,0.505-0.479,0.854-0.479h2.142c0.552,0,1,0.447,1,1s-0.448,1-1,1h-1.581l-1.766,2.894c-0.217,0.355-0.629,0.539-1.041,0.462c-0.409-0.078-0.727-0.401-0.798-0.812l-0.36-2.082l-0.65,5.951c-0.055,0.507-0.482,0.89-0.991,0.892c-0.001,0-0.002,0-0.003,0c-0.508,0-0.936-0.381-0.994-0.886l-0.576-5.005l-0.475,4.542c-0.053,0.51-0.483,0.896-0.995,0.896c-0.001,0-0.003,0-0.004,0c-0.514-0.002-0.942-0.394-0.991-0.905l-0.534-5.604l-0.512,6.422c-0.042,0.518-0.471,0.917-0.99,0.921C15.024,25.903,15.022,25.903,15.02,25.903z"/></svg>