<svg xmlns="http://www.w3.org/2000/svg" viewBox="0 0 32 32"><!--! Font Icona - https://fonticona.com | License - https://fonticona.com/license | Copyright 2022 FontIcona.com --><path d="M16,32C7.178,32,0,24.823,0,16S7.178,0,16,0s16,7.178,16,16S24.822,32,16,32z M16,2C8.28,2,2,8.281,2,16s6.28,14,14,14s14-6.28,14-14S23.72,2,16,2z"/><path d="M15.496,25.903c-0.516,0-0.947-0.392-0.996-0.906l-0.546-5.775l-0.501,5.597c-0.046,0.514-0.474,0.907-0.989,0.911c-0.002,0-0.005,0-0.007,0c-0.512,0-0.941-0.387-0.995-0.896l-0.661-6.335l-0.489,3.921c-0.061,0.486-0.466,0.857-0.956,0.875c-0.477,0.035-0.921-0.322-1.017-0.805l-0.903-4.554c-0.18,0.305-0.507,0.491-0.861,0.491H4.188c-0.552,0-1-0.447-1-1s0.448-1,1-1h1.809l1.035-1.795c0.208-0.361,0.62-0.561,1.029-0.487c0.411,0.067,0.737,0.383,0.818,0.792l0.215,1.082l0.802-6.437c0.062-0.501,0.488-0.876,0.992-0.876c0.003,0,0.006,0,0.01,0c0.508,0.005,0.932,0.391,0.985,0.896l0.498,4.767l0.55-6.144c0.046-0.515,0.477-0.91,0.994-0.911c0.001,0,0.001,0,0.002,0c0.516,0,0.947,0.393,0.996,0.906l0.489,5.171l0.508-6.373c0.042-0.518,0.471-0.917,0.989-0.921c0.003,0,0.005,0,0.008,0c0.515,0,0.947,0.392,0.996,0.905l1.164,12.217l0.762-2.314c0.172-0.524,0.737-0.811,1.262-0.638c0.524,0.173,0.81,0.738,0.637,1.263l-2.254,6.852c-0.147,0.45-0.59,0.729-1.061,0.682c-0.47-0.053-0.839-0.428-0.884-0.899l-0.534-5.602l-0.512,6.42c-0.042,0.518-0.471,0.917-0.99,0.921C15.501,25.903,15.499,25.903,15.496,25.903z"/><path d="M27.812,18.217h-5.085c-0.552,0-1-0.447-1-1s0.448-1,1-1h5.085c0.552,0,1,0.447,1,1S28.364,18.217,27.812,18.217z"/><path d="M25.269,20.76c-0.552,0-1-0.447-1-1v-5.086c0-0.553,0.448-1,1-1s1,0.447,1,1v5.086C26.269,20.313,25.821,20.76,25.269,20.76z"/><path d="M22.726,18.217h-1.938c-0.552,0-1-0.447-1-1s0.448-1,1-1h1.938c0.552,0,1,0.447,1,1S23.278,18.217,22.726,18.217z"/></svg>