<svg xmlns="http://www.w3.org/2000/svg" viewBox="0 0 32 32"><!--! Font Icona - https://fonticona.com | License - https://fonticona.com/license | Copyright 2022 FontIcona.com --><path d="M16,32C7.178,32,0,24.823,0,16S7.178,0,16,0s16,7.178,16,16S24.822,32,16,32z M16,2C8.28,2,2,8.281,2,16s6.28,14,14,14s14-6.28,14-14S23.72,2,16,2z"/><path d="M10.596,22.489c-2.814,0-5.104-2.91-5.104-6.488s2.29-6.489,5.104-6.489c1.873,0,3.59,1.29,4.48,3.366c0.218,0.508-0.017,1.096-0.525,1.313c-0.508,0.22-1.096-0.018-1.313-0.524c-0.57-1.329-1.583-2.155-2.643-2.155c-1.682,0-3.104,2.056-3.104,4.489c0,2.433,1.421,4.488,3.104,4.488c1.126,0,2.203-0.944,2.743-2.405c0.192-0.518,0.767-0.785,1.285-0.591c0.518,0.191,0.783,0.767,0.591,1.284C14.368,21.067,12.598,22.489,10.596,22.489z"/><path d="M21.827,22.489c-2.814,0-5.104-2.91-5.104-6.488s2.29-6.489,5.104-6.489c1.874,0,3.59,1.29,4.48,3.367c0.218,0.507-0.017,1.095-0.525,1.312c-0.507,0.22-1.095-0.017-1.313-0.525c-0.57-1.329-1.583-2.154-2.643-2.154c-1.682,0-3.104,2.056-3.104,4.489c0,2.433,1.421,4.488,3.104,4.488c1.126,0,2.203-0.944,2.743-2.405c0.192-0.518,0.767-0.785,1.285-0.591c0.518,0.191,0.783,0.767,0.591,1.284C25.6,21.067,23.83,22.489,21.827,22.489z"/></svg>