<svg xmlns="http://www.w3.org/2000/svg" viewBox="0 0 32 32"><!--! Font Icona - https://fonticona.com | License - https://fonticona.com/license | Copyright 2022 FontIcona.com --><path d="M8.895,18.485L8.895,18.485c-0.281,0-0.544-0.136-0.708-0.364l-2.27-3.185c-0.189-0.265-0.214-0.613-0.065-0.902c0.149-0.29,0.447-0.471,0.772-0.471h4.541c0.326,0,0.624,0.182,0.772,0.471c0.149,0.29,0.124,0.638-0.065,0.903l-2.271,3.184C9.439,18.35,9.176,18.485,8.895,18.485z"/><path d="M16,32C7.178,32,0,24.822,0,16S7.178,0,16,0s16,7.178,16,16S24.822,32,16,32z M16,2C8.28,2,2,8.28,2,16s6.28,14,14,14s14-6.28,14-14S23.72,2,16,2z"/><path d="M15.951,26.5c-2.716,0-5.242-1.721-6.759-4.603c-0.257-0.489-0.07-1.094,0.419-1.351c0.492-0.257,1.094-0.068,1.351,0.419c1.165,2.213,3.03,3.534,4.989,3.534c3.396,0,6.159-3.813,6.159-8.5c0-4.687-2.763-8.5-6.159-8.5c-2.957,0-5.566,3.034-6.07,7.056c-0.068,0.548-0.575,0.935-1.116,0.868c-0.548-0.068-0.937-0.568-0.868-1.116C8.535,9.204,11.922,5.5,15.951,5.5c4.499,0,8.159,4.71,8.159,10.5C24.11,21.79,20.45,26.5,15.951,26.5z"/></svg>