<svg xmlns="http://www.w3.org/2000/svg" viewBox="0 0 32 32"><!--! Font Icona - https://fonticona.com | License - https://fonticona.com/license | Copyright 2022 FontIcona.com --><path d="M16,32C7.178,32,0,24.823,0,16S7.178,0,16,0s16,7.178,16,16S24.822,32,16,32z M16,2C8.28,2,2,8.281,2,16s6.28,14,14,14s14-6.28,14-14S23.72,2,16,2z"/><path d="M26.647,27.566c-0.255,0-0.509-0.097-0.705-0.29L4.648,6.144C4.257,5.754,4.254,5.121,4.643,4.73c0.389-0.393,1.021-0.395,1.415-0.006l21.294,21.132c0.392,0.39,0.394,1.022,0.005,1.414C27.161,27.467,26.904,27.566,26.647,27.566z"/><path d="M16,27.654c-0.552,0-1-0.447-1-1V15.978L8.873,7.691c-0.328-0.444-0.234-1.07,0.21-1.398c0.444-0.33,1.07-0.234,1.398,0.209L16,13.966l5.519-7.465c0.329-0.442,0.955-0.538,1.398-0.209c0.444,0.328,0.538,0.954,0.21,1.398L17,15.978v10.676C17,27.206,16.552,27.654,16,27.654z"/><path d="M20.004,23.706h-8.009c-0.552,0-1-0.447-1-1s0.448-1,1-1h8.009c0.552,0,1,0.447,1,1S20.557,23.706,20.004,23.706z"/><path d="M20.004,18.364h-8.009c-0.552,0-1-0.447-1-1s0.448-1,1-1h8.009c0.552,0,1,0.447,1,1S20.557,18.364,20.004,18.364z"/></svg>