<svg xmlns="http://www.w3.org/2000/svg" viewBox="0 0 32 32"><!--! Font Icona - https://fonticona.com | License - https://fonticona.com/license | Copyright 2022 FontIcona.com --><path d="M16,32C7.178,32,0,24.823,0,16S7.178,0,16,0s16,7.178,16,16S24.822,32,16,32z M16,2C8.28,2,2,8.281,2,16s6.28,14,14,14s14-6.28,14-14S23.72,2,16,2z"/><path d="M16,23.996c-3.35,0-6.074-3.587-6.074-7.996S12.65,8.003,16,8.003s6.074,3.588,6.074,7.997S19.35,23.996,16,23.996z M16,10.003c-2.208,0-4.074,2.746-4.074,5.997c0,3.25,1.866,5.996,4.074,5.996S20.074,19.25,20.074,16C20.074,12.749,18.208,10.003,16,10.003z"/><path d="M12.759,22.385c-0.176,0-0.354-0.046-0.515-0.144c-0.473-0.284-0.626-0.898-0.341-1.372l6.479-10.77c0.284-0.474,0.899-0.627,1.372-0.341c0.474,0.284,0.626,0.898,0.341,1.372l-6.479,10.77C13.429,22.212,13.098,22.385,12.759,22.385z"/></svg>