<svg xmlns="http://www.w3.org/2000/svg" viewBox="0 0 32 32"><!--! Font Icona - https://fonticona.com | License - https://fonticona.com/license | Copyright 2022 FontIcona.com --><path d="M16,32C7.178,32,0,24.823,0,16S7.178,0,16,0s16,7.178,16,16S24.822,32,16,32z M16,2C8.28,2,2,8.281,2,16s6.28,14,14,14s14-6.28,14-14S23.72,2,16,2z"/><path d="M12.095,17.592H8.622c-0.553,0-1-0.447-1-1s0.447-1,1-1h3.473c1.111,0,2.015-0.903,2.015-2.015c0-1.11-0.903-2.014-2.015-2.014H8.622c-0.553,0-1-0.447-1-1s0.447-1,1-1h3.473c2.214,0,4.015,1.801,4.015,4.014C16.109,15.791,14.309,17.592,12.095,17.592z"/><path d="M8.622,22.437c-0.553,0-1-0.447-1-1V10.564c0-0.553,0.447-1,1-1s1,0.447,1,1v10.873C9.622,21.99,9.175,22.437,8.622,22.437z"/><path d="M19.397,22.437c-0.553,0-1-0.447-1-1s0.447-1,1-1c2.446,0,4.437-1.99,4.437-4.437s-1.99-4.437-4.437-4.437c-0.553,0-1-0.447-1-1s0.447-1,1-1c3.549,0,6.437,2.888,6.437,6.437S22.946,22.437,19.397,22.437z"/><path d="M19.397,11.564h-1.409c-0.553,0-1-0.447-1-1s0.447-1,1-1h1.409c0.553,0,1,0.447,1,1S19.95,11.564,19.397,11.564z"/><path d="M19.397,22.437h-1.409c-0.553,0-1-0.447-1-1s0.447-1,1-1h1.409c0.553,0,1,0.447,1,1S19.95,22.437,19.397,22.437z"/><path d="M17.988,22.437c-0.553,0-1-0.447-1-1V10.564c0-0.553,0.447-1,1-1s1,0.447,1,1v10.873C18.988,21.99,18.541,22.437,17.988,22.437z"/></svg>