<svg xmlns="http://www.w3.org/2000/svg" viewBox="0 0 32 32"><!--! Font Icona - https://fonticona.com | License - https://fonticona.com/license | Copyright 2022 FontIcona.com --><path d="M16,32C7.178,32,0,24.823,0,16S7.178,0,16,0s16,7.178,16,16S24.822,32,16,32z M16,2C8.28,2,2,8.281,2,16s6.28,14,14,14s14-6.28,14-14S23.72,2,16,2z"/><path d="M22.188,24.875h-8.25c-0.553,0-1-0.447-1-1v-4.333c0-0.553,0.447-1,1-1s1,0.447,1,1v3.333h6.25v-9.417h-3.125c-0.553,0-1-0.447-1-1s0.447-1,1-1h4.125c0.553,0,1,0.447,1,1v11.417C23.188,24.428,22.74,24.875,22.188,24.875z"/><path d="M18.062,20.541h-8.25c-0.553,0-1-0.447-1-1V8.125c0-0.553,0.447-1,1-1h8.25c0.553,0,1,0.447,1,1v11.416C19.062,20.094,18.615,20.541,18.062,20.541z M10.812,18.541h6.25V9.125h-6.25V18.541z"/></svg>