<svg xmlns="http://www.w3.org/2000/svg" viewBox="0 0 32 32"><!--! Font Icona - https://fonticona.com | License - https://fonticona.com/license | Copyright 2022 FontIcona.com --><path d="M12.979,32.002c-1.119,0-2.237-0.426-3.089-1.277L1.275,22.11C0.453,21.287,0,20.191,0,19.021s0.453-2.267,1.275-3.089L15.932,1.276C16.754,0.453,17.852,0,19.021,0s2.267,0.453,3.089,1.275l8.615,8.614C31.547,10.713,32,11.81,32,12.979c0,1.17-0.453,2.267-1.275,3.089L16.068,30.725C15.216,31.576,14.098,32.002,12.979,32.002z M19.021,2c-0.635,0-1.23,0.244-1.675,0.689L2.689,17.346C2.245,17.79,2,18.385,2,19.021s0.245,1.23,0.689,1.675l8.615,8.615c0.924,0.922,2.426,0.924,3.35,0l14.657-14.657C29.755,14.209,30,13.615,30,12.979c0-0.635-0.245-1.229-0.689-1.675L20.696,2.69C20.251,2.244,19.656,2,19.021,2z"/><rect x="-0.412" y="12.321" transform="matrix(0.7071 -0.7071 0.7071 0.7071 -5.5177 13.3204)" width="27.464" height="2"/><path d="M25.2,16.101c-0.91,0-1.82-0.347-2.513-1.039c-0.671-0.672-1.041-1.564-1.041-2.514s0.37-1.842,1.041-2.513c1.342-1.343,3.684-1.345,5.027,0l0,0l0,0c0,0,0,0,0,0c0.671,0.671,1.041,1.563,1.041,2.513s-0.37,1.842-1.041,2.514C27.021,15.754,26.11,16.101,25.2,16.101z M25.2,10.993c-0.416,0-0.806,0.162-1.099,0.456c-0.294,0.294-0.456,0.684-0.456,1.099s0.162,0.806,0.456,1.1c0.606,0.605,1.592,0.605,2.198,0c0.293-0.294,0.455-0.685,0.455-1.1s-0.162-0.805-0.455-1.099h0C26.005,11.156,25.615,10.993,25.2,10.993z"/><path d="M22.633,18.559c-0.95,0-1.843-0.37-2.514-1.042c-0.671-0.671-1.041-1.563-1.041-2.513c0-0.95,0.37-1.843,1.041-2.514s1.564-1.041,2.513-1.041v2c-0.415,0-0.806,0.162-1.099,0.455c-0.293,0.294-0.455,0.684-0.455,1.1c0,0.415,0.162,0.805,0.455,1.099c0.587,0.587,1.61,0.588,2.198,0c0.294-0.294,0.456-0.684,0.456-1.099h2c0,0.948-0.37,1.841-1.041,2.513C24.476,18.189,23.583,18.559,22.633,18.559z"/><path d="M9.855,25.814c-0.256,0-0.512-0.098-0.707-0.293c-0.391-0.391-0.391-1.023,0-1.414l3.176-3.176c0.391-0.391,1.023-0.391,1.414,0s0.391,1.023,0,1.414l-3.176,3.176C10.367,25.716,10.111,25.814,9.855,25.814z"/><path d="M12.318,28.278c-0.256,0-0.512-0.098-0.707-0.293c-0.391-0.391-0.391-1.023,0-1.414l6.484-6.484c0.391-0.391,1.023-0.391,1.414,0s0.391,1.023,0,1.414l-6.484,6.484C12.83,28.18,12.574,28.278,12.318,28.278z"/></svg>