<svg xmlns="http://www.w3.org/2000/svg" viewBox="0 0 32 32"><!--! Font Icona - https://fonticona.com | License - https://fonticona.com/license | Copyright 2022 FontIcona.com --><path d="M9.028,24.056c-2.841,0-6.977-2.122-8.297-4.403c-2.065-3.567,0.787-7.628,1.71-8.788C2.97,10.198,3.6,9.527,4.313,8.867l1.357,1.469c-0.638,0.59-1.198,1.187-1.665,1.773c-0.725,0.91-2.975,4.069-1.544,6.541c1.012,1.748,5.078,3.705,7.024,3.37c0.545-0.093,0.587-0.312,0.612-0.442c0.669-3.522,3.593-4.721,5.734-5.316l0.535,1.928c-2.656,0.738-3.943,1.863-4.304,3.762c-0.207,1.09-1.024,1.834-2.241,2.041C9.571,24.035,9.306,24.056,9.028,24.056z"/><path d="M19.299,17.533l-0.451-1.949c0.781-0.181,1.684-0.412,2.461-0.764c2.244-1.016,3.202-3.165,2.848-6.388c-0.144-1.307-0.826-2.311-1.974-2.905c-1.263-0.653-2.763-0.934-4.459-0.839l-0.114-1.996c2.062-0.115,3.908,0.239,5.493,1.06c1.745,0.903,2.825,2.487,3.042,4.462c0.446,4.062-0.979,7.056-4.012,8.429C21.197,17.066,20.175,17.33,19.299,17.533z"/><path d="M6.944,30.308c-0.428,0-0.931-0.115-1.505-0.43c-3.248-1.781-3.683-6.358-3.971-9.388l-0.019-0.2l1.991-0.189l0.019,0.2c0.248,2.609,0.623,6.552,2.941,7.823c0.221,0.121,0.519,0.244,0.685,0.146c0.378-0.224,1.021-1.515,1.028-4.937l2,0.004c-0.009,3.684-0.667,5.86-2.011,6.654C7.817,30.16,7.429,30.308,6.944,30.308z"/><path d="M29.197,16.119c-1.283,0-2.979-0.513-5.123-1.543l0.866-1.803c3.08,1.481,4.521,1.467,4.888,1.221c0.163-0.107,0.181-0.431,0.168-0.683c-0.136-2.643-3.522-4.695-5.763-6.054l-0.17-0.104l1.038-1.709l0.169,0.103c2.602,1.577,6.534,3.96,6.723,7.662c0.072,1.396-0.536,2.103-1.058,2.45C30.476,15.966,29.898,16.119,29.197,16.119z"/><path d="M18.28,19.688c-0.249,0-0.493-0.093-0.681-0.268c-0.088-0.082-8.879-8.213-14.078-9.369C3.166,9.972,2.882,9.706,2.779,9.357C2.676,9.008,2.771,8.63,3.027,8.371c0.23-0.232,5.732-5.712,14.312-6.673c0.516-0.054,0.993,0.291,1.093,0.803c0.082,0.419,1.991,10.329,0.831,16.375c-0.068,0.357-0.325,0.648-0.671,0.762C18.489,19.671,18.384,19.688,18.28,19.688z M5.74,8.667c4.215,1.694,9.35,5.891,11.799,8.019c0.387-4.575-0.517-10.595-0.905-12.874C11.521,4.618,7.64,7.176,5.74,8.667z"/></svg>