<svg xmlns="http://www.w3.org/2000/svg" viewBox="0 0 32 32"><!--! Font Icona - https://fonticona.com | License - https://fonticona.com/license | Copyright 2022 FontIcona.com --><path d="M23.982,25.972H8.006c-1.103,0-2-0.897-2-2V7.996c0-1.103,0.897-2,2-2h15.976c1.103,0,2,0.897,2,2v15.976C25.982,25.075,25.085,25.972,23.982,25.972z M8.006,7.996H8.005l0.001,15.976h15.976V7.996H8.006z"/><path d="M7.006,5.291c-0.552,0-1-0.448-1-1V1.337c0-0.552,0.448-1,1-1s1,0.448,1,1v2.954C8.006,4.843,7.559,5.291,7.006,5.291z"/><path d="M3.955,7.996H1c-0.552,0-1-0.448-1-1s0.448-1,1-1h2.955c0.552,0,1,0.448,1,1S4.507,7.996,3.955,7.996z"/><path d="M24.982,31.663c-0.552,0-1-0.448-1-1v-2.954c0-0.552,0.448-1,1-1s1,0.448,1,1v2.954C25.982,31.215,25.535,31.663,24.982,31.663z"/><path d="M31,26.004h-2.965c-0.552,0-1-0.448-1-1s0.448-1,1-1H31c0.552,0,1,0.448,1,1S31.552,26.004,31,26.004z"/></svg>