<svg xmlns="http://www.w3.org/2000/svg" viewBox="0 0 32 32"><!--! Font Icona - https://fonticona.com | License - https://fonticona.com/license | Copyright 2022 FontIcona.com --><path d="M16,28.509C9.103,28.509,3.491,22.897,3.491,16S9.103,3.491,16,3.491S28.509,9.103,28.509,16S22.897,28.509,16,28.509z M16,5.491C10.206,5.491,5.491,10.205,5.491,16S10.206,26.509,16,26.509S26.509,21.795,26.509,16S21.794,5.491,16,5.491z"/><path d="M16,21.868c-3.236,0-5.868-2.633-5.868-5.868s2.632-5.868,5.868-5.868s5.868,2.633,5.868,5.868S19.236,21.868,16,21.868z M16,12.132c-2.133,0-3.868,1.735-3.868,3.868s1.735,3.868,3.868,3.868s3.868-1.735,3.868-3.868S18.133,12.132,16,12.132z"/><path d="M16,5.491c-0.552,0-1-0.447-1-1V1c0-0.553,0.448-1,1-1s1,0.447,1,1v3.491C17,5.044,16.552,5.491,16,5.491z"/><path d="M16,32c-0.552,0-1-0.447-1-1v-3.491c0-0.553,0.448-1,1-1s1,0.447,1,1V31C17,31.553,16.552,32,16,32z"/><path d="M31,17h-3.491c-0.552,0-1-0.447-1-1s0.448-1,1-1H31c0.552,0,1,0.447,1,1S31.552,17,31,17z"/><path d="M4.491,17H1c-0.552,0-1-0.447-1-1s0.448-1,1-1h3.491c0.552,0,1,0.447,1,1S5.043,17,4.491,17z"/></svg>