<svg xmlns="http://www.w3.org/2000/svg" viewBox="0 0 32 32"><!--! Font Icona - https://fonticona.com | License - https://fonticona.com/license | Copyright 2022 FontIcona.com --><path d="M16,27.74C9.526,27.74,4.26,22.474,4.26,16S9.526,4.26,16,4.26S27.74,9.526,27.74,16S22.474,27.74,16,27.74z M16,6.26c-5.371,0-9.74,4.369-9.74,9.74s4.37,9.74,9.74,9.74s9.74-4.369,9.74-9.74S21.371,6.26,16,6.26z"/><path d="M16,10.52c-0.552,0-1-0.447-1-1V1c0-0.553,0.448-1,1-1s1,0.447,1,1v8.52C17,10.072,16.552,10.52,16,10.52z"/><path d="M16,32c-0.552,0-1-0.447-1-1v-8.52c0-0.553,0.448-1,1-1s1,0.447,1,1V31C17,31.553,16.552,32,16,32z"/><path d="M31,17h-8.52c-0.552,0-1-0.447-1-1s0.448-1,1-1H31c0.552,0,1,0.447,1,1S31.552,17,31,17z"/><path d="M9.52,17H1c-0.552,0-1-0.447-1-1s0.448-1,1-1h8.52c0.552,0,1,0.447,1,1S10.072,17,9.52,17z"/><circle cx="16" cy="16" r="1.25"/></svg>