<svg xmlns="http://www.w3.org/2000/svg" viewBox="0 0 32 32"><!--! Font Icona - https://fonticona.com | License - https://fonticona.com/license | Copyright 2022 FontIcona.com --><path d="M4.941,25.129c-0.003,0-0.007,0-0.011,0c-0.333-0.002-0.66-0.059-0.971-0.17c-0.563-0.198-0.992-0.648-1.176-1.232c-0.026-0.083-0.046-0.167-0.062-0.251C2.54,23.475,2.36,23.46,2.184,23.414c-0.645-0.172-1.216-0.561-1.612-1.095c-0.962-1.305-0.683-3.147,0.62-4.108C2.415,17.265,12.952,9.456,17.212,6.7c0.453-2.432,2.107-4.495,4.409-5.455c0.511-0.221,1.053-0.355,1.64-0.33c0.905,0.011,1.782,0.298,2.513,0.815h0.386c1.688-0.056,3.399,0.502,4.761,1.569c0.992,0.822,1.338,2.166,0.879,3.363c-0.36,0.935-1.22,1.628-2.245,1.809c-0.953,0.169-1.862,0.536-2.339,0.824c0.233,2.056,0.563,9.01-4.969,11.687c-2.091,1.041-4.422,1.597-6.789,1.552c-0.005,0-0.01,0-0.015,0c-1.05,0-2.112-0.105-3.152-0.315l-6.196,2.673C5.724,25.05,5.337,25.129,4.941,25.129z M4.747,23.12c0.05,0,0.115,0.03,0.194,0.009c0.124,0,0.251-0.025,0.366-0.075l6.482-2.796c0.192-0.084,0.406-0.104,0.613-0.059c1.004,0.224,2.061,0.317,3.065,0.335c2.067,0.046,4.078-0.442,5.897-1.348c4.358-2.109,4.058-7.941,3.862-9.678c-0.087-0.768,0.287-1.524,0.954-1.926c0.788-0.475,1.946-0.889,3.023-1.08c0.335-0.06,0.62-0.278,0.728-0.558c0.153-0.399,0.049-0.827-0.267-1.088c-0.973-0.762-2.216-1.171-3.474-1.126l-0.759,0c-0.237,0-0.467-0.084-0.648-0.238c-0.43-0.365-0.978-0.57-1.543-0.577c-0.287,0.016-0.573,0.056-0.841,0.171c-1.797,0.75-3.048,2.408-3.276,4.331c-0.035,0.3-0.205,0.567-0.46,0.729C14.747,10.613,3.668,18.824,2.398,19.807c-0.434,0.32-0.523,0.908-0.216,1.324c0.126,0.17,0.309,0.294,0.515,0.35l1.514-1.027c0.402-0.268,0.938-0.208,1.273,0.139c0.335,0.348,0.374,0.885,0.093,1.278L4.695,23.1l0,0c-0.005,0.007-0.005,0.022-0.003,0.028C4.704,23.122,4.723,23.12,4.747,23.12z"/><ellipse cx="23.091" cy="6.013" rx="1" ry="1.222"/><path d="M12.501,31.088c-0.335,0-0.661-0.168-0.851-0.473c-0.292-0.47-0.147-1.086,0.322-1.377l2.851-1.77l-0.951-3.348c-0.101-0.355,0.002-0.736,0.267-0.992l2.502-2.418c0.397-0.384,1.03-0.373,1.414,0.023c0.384,0.398,0.373,1.03-0.023,1.414l-2.072,2.002l0.841,2.96l5.484,1.625c0.528,0.157,0.831,0.712,0.676,1.24c-0.154,0.529-0.704,0.837-1.239,0.679l-5.611-1.63l-3.083,1.913C12.863,31.039,12.681,31.088,12.501,31.088z"/></svg>