<svg xmlns="http://www.w3.org/2000/svg" viewBox="0 0 32 32"><!--! Font Icona - https://fonticona.com | License - https://fonticona.com/license | Copyright 2022 FontIcona.com --><path d="M23.292,17.568c-0.321,0-0.623-0.125-0.849-0.353l-7.661-7.661c-0.465-0.468-0.465-1.225-0.002-1.691l5.343-5.343c0.391-0.391,1.023-0.391,1.414,0s0.391,1.023,0,1.414l-4.773,4.773l6.527,6.527l4.773-4.773c0.391-0.391,1.023-0.391,1.414,0s0.391,1.023,0,1.414l-5.341,5.341C23.914,17.443,23.612,17.568,23.292,17.568z M22.725,15.802c-0.001,0.001-0.002,0.002-0.003,0.003L22.725,15.802z M23.855,15.8l0.004,0.003C23.858,15.802,23.857,15.801,23.855,15.8z"/><path d="M30.999,13.563c-0.184,0-0.369-0.05-0.535-0.156c-4.751-3.016-8.855-7.121-11.871-11.872c-0.296-0.466-0.157-1.084,0.309-1.38c0.466-0.295,1.084-0.158,1.381,0.309c2.857,4.504,6.749,8.396,11.254,11.254c0.466,0.296,0.604,0.914,0.309,1.38C31.654,13.399,31.33,13.563,30.999,13.563z"/><path d="M2.277,30.723c-0.256,0-0.512-0.098-0.707-0.293c-0.391-0.391-0.391-1.023,0-1.414l8.685-8.685c0.391-0.391,1.023-0.391,1.414,0s0.391,1.023,0,1.414L2.984,30.43C2.789,30.625,2.533,30.723,2.277,30.723z"/><path d="M11.121,22.004c-0.3,0-0.588-0.115-0.799-0.326c-0.264-0.264-0.378-0.646-0.306-1.022l1.853-9.484c0.062-0.31,0.236-0.633,0.454-0.85l2.319-2.32c0.391-0.391,1.023-0.391,1.414,0c0.391,0.39,0.391,1.023,0,1.414l-2.245,2.247l-1.584,8.11l8.111-1.584l2.245-2.246c0.391-0.391,1.023-0.391,1.414,0c0.391,0.39,0.391,1.023,0,1.415l-2.321,2.321c-0.217,0.217-0.54,0.39-0.842,0.451l-9.488,1.853C11.271,21.997,11.196,22.004,11.121,22.004z M13.74,11.733l-0.005,0.005C13.737,11.736,13.739,11.734,13.74,11.733z"/><path d="M2.812,32c-0.256,0-0.512-0.098-0.707-0.293l-1.812-1.812c-0.391-0.391-0.391-1.023,0-1.414s1.023-0.391,1.414,0l1.812,1.812c0.391,0.391,0.391,1.023,0,1.414C3.323,31.902,3.067,32,2.812,32z"/></svg>