<svg xmlns="http://www.w3.org/2000/svg" viewBox="0 0 32 32"><!--! Font Icona - https://fonticona.com | License - https://fonticona.com/license | Copyright 2022 FontIcona.com --><path d="M16.535,32c-0.122,0-0.244-0.022-0.36-0.067L5.206,27.691c-0.35-0.135-0.594-0.453-0.634-0.825l-0.84-7.797c-0.03-0.282,0.061-0.564,0.25-0.775s0.46-0.332,0.744-0.332h5.427c0.507,0,0.934,0.38,0.993,0.884l0.392,3.333l4.964,2.209l4.204-2.181l0.856-5.609L4.661,16.57c-0.518-0.001-0.948-0.396-0.994-0.912l-0.396-4.48c-0.024-0.279,0.069-0.557,0.259-0.764c0.189-0.206,0.457-0.324,0.737-0.324h18.256l0.547-3.427H3.962c-0.496,0-0.917-0.363-0.989-0.854L2.284,1.147c-0.042-0.288,0.042-0.58,0.232-0.8C2.706,0.127,2.982,0,3.273,0h25.453c0.279,0,0.547,0.117,0.736,0.323c0.188,0.205,0.283,0.481,0.26,0.76l-0.84,10.087l-1.224,15.817c-0.029,0.379-0.271,0.708-0.623,0.85l-10.127,4.09C16.79,31.976,16.662,32,16.535,32z M6.495,26.045l10.032,3.88l9.186-3.71l1.176-15.203c0-0.002,0-0.004,0.001-0.006L27.64,2H4.432l0.394,2.662h19.417c0.293,0,0.57,0.128,0.761,0.351s0.272,0.518,0.227,0.807l-0.865,5.427c-0.077,0.485-0.496,0.843-0.987,0.843H5.359l0.22,2.482l17.149,0.027c0.291,0,0.567,0.128,0.757,0.349c0.189,0.222,0.273,0.515,0.229,0.803l-1.108,7.261c-0.048,0.315-0.244,0.589-0.527,0.736l-5.083,2.637c-0.271,0.141-0.591,0.15-0.867,0.026l-5.924-2.637c-0.323-0.144-0.546-0.447-0.587-0.798l-0.354-3.015H5.84L6.495,26.045z M26.662,26.911h0.01H26.662z"/></svg>