<svg xmlns="http://www.w3.org/2000/svg" viewBox="0 0 32 32"><!--! Font Icona - https://fonticona.com | License - https://fonticona.com/license | Copyright 2022 FontIcona.com --><path d="M16,32c-0.184,0-0.367-0.051-0.528-0.151C15.178,31.667,15,31.346,15,31V16.233c0-0.376,0.211-0.721,0.547-0.892l15-7.622c0.31-0.158,0.679-0.144,0.976,0.039C31.819,7.941,32,8.264,32,8.611v15c0,0.381-0.216,0.729-0.558,0.897l-15,7.389C16.302,31.966,16.151,32,16,32z M17,16.847v12.545l13-6.403V10.241L17,16.847z"/><path d="M16,32c-0.151,0-0.302-0.034-0.442-0.103l-15-7.389C0.216,24.34,0,23.992,0,23.611v-15c0-0.348,0.181-0.67,0.477-0.853C0.773,7.576,1.143,7.562,1.453,7.72l15,7.622C16.789,15.512,17,15.857,17,16.233V31c0,0.346-0.178,0.667-0.472,0.849C16.367,31.949,16.184,32,16,32z M2,22.989l13,6.403V16.847L2,10.241V22.989z"/><path d="M30.999,9.611c-0.152,0-0.307-0.035-0.452-0.108L16,2.122L1.453,9.503c-0.494,0.25-1.095,0.053-1.344-0.439c-0.25-0.493-0.053-1.095,0.439-1.344l15-7.611c0.285-0.145,0.62-0.145,0.905,0l15,7.611c0.492,0.25,0.689,0.852,0.439,1.344C31.715,9.411,31.364,9.611,30.999,9.611z"/></svg>