<svg xmlns="http://www.w3.org/2000/svg" viewBox="0 0 32 32"><!--! Font Icona - https://fonticona.com | License - https://fonticona.com/license | Copyright 2022 FontIcona.com --><path d="M23.385,25.75c-0.553,0-1-0.447-1-1V1c0-0.552,0.447-1,1-1s1,0.448,1,1v23.75C24.385,25.303,23.938,25.75,23.385,25.75z"/><path d="M16,25.75c-4.624,0-8.385-4.43-8.385-9.875S11.376,6,16,6c4.623,0,8.385,4.43,8.385,9.875S20.623,25.75,16,25.75z M16,8c-3.521,0-6.385,3.533-6.385,7.875c0,4.343,2.864,7.875,6.385,7.875s6.385-3.532,6.385-7.875C22.385,11.533,19.521,8,16,8z"/></svg>