<svg xmlns="http://www.w3.org/2000/svg" viewBox="0 0 32 32"><!--! Font Icona - https://fonticona.com | License - https://fonticona.com/license | Copyright 2022 FontIcona.com --><path d="M16.483,32c-0.008,0-0.017,0-0.025,0C5.868,31.737,3.717,27.947,3.507,27.516c-0.066-0.137-0.101-0.287-0.101-0.438V5.444c0-0.089,0.012-0.178,0.036-0.264C3.575,4.692,5.075,0.404,16.448,0C28.136,0.375,28.582,4.905,28.594,5.42l0,21.658c0,0.073-0.008,0.145-0.023,0.216C28.47,27.747,27.28,31.732,16.508,32C16.5,32,16.492,32,16.483,32z M5.406,26.778C5.895,27.387,8.332,29.793,16.483,30c8.255-0.209,9.875-2.636,10.111-3.103V5.444v0c-0.007,0-0.539-3.135-10.143-3.445C7.601,2.315,5.698,5.09,5.406,5.645V26.778z"/><path d="M15.502,17.869c-2.993,0-5.987-0.651-8.714-1.904c-1.242-0.566-2.341-1.438-3.175-2.521c-0.337-0.438-0.255-1.065,0.182-1.403c0.438-0.336,1.064-0.256,1.403,0.182c0.635,0.825,1.473,1.49,2.422,1.922c2.75,1.263,5.795,1.845,8.813,1.7c4.143-0.171,7.25-0.881,8.992-2.053c0.515-0.353,0.952-0.806,1.292-1.34c0.297-0.466,0.915-0.604,1.38-0.308c0.466,0.296,0.604,0.915,0.308,1.38c-0.486,0.764-1.11,1.411-1.857,1.922c-2.085,1.403-5.455,2.208-10.023,2.396C16.184,17.86,15.843,17.869,15.502,17.869z"/><path d="M15.489,24.936c-2.991,0-5.982-0.656-8.704-1.917c-1.241-0.558-2.343-1.432-3.175-2.524c-0.334-0.439-0.25-1.066,0.189-1.401c0.439-0.334,1.067-0.249,1.401,0.189c0.63,0.827,1.465,1.49,2.414,1.917c2.75,1.274,5.793,1.868,8.807,1.713c4.139-0.171,7.25-0.882,9.006-2.055c0.513-0.351,0.95-0.804,1.289-1.338c0.297-0.466,0.915-0.604,1.38-0.308c0.466,0.296,0.604,0.915,0.308,1.38c-0.486,0.764-1.11,1.411-1.857,1.922c-2.101,1.404-5.474,2.208-10.035,2.396C16.172,24.927,15.83,24.936,15.489,24.936z"/><path d="M15.983,14.078c-0.552,0-1-0.448-1-1V4.433c0-0.552,0.448-1,1-1s1,0.448,1,1v8.645C16.983,13.63,16.536,14.078,15.983,14.078z"/><path d="M20.306,9.755h-8.645c-0.552,0-1-0.448-1-1s0.448-1,1-1h8.645c0.552,0,1,0.448,1,1S20.858,9.755,20.306,9.755z"/></svg>