<svg xmlns="http://www.w3.org/2000/svg" viewBox="0 0 32 32"><!--! Font Icona - https://fonticona.com | License - https://fonticona.com/license | Copyright 2022 FontIcona.com --><path d="M16.483,32c-0.008,0-0.017,0-0.025,0C5.812,31.735,3.406,27.792,3.406,27.077V5.444c0-0.089,0.012-0.178,0.036-0.264C3.575,4.692,5.075,0.404,16.447,0c11.688,0.375,12.134,4.904,12.146,5.419v21.659c0,0.072-0.008,0.145-0.023,0.216C28.47,27.747,27.279,31.732,16.508,32C16.5,32,16.491,32,16.483,32z M5.406,26.772C5.919,27.411,8.374,29.793,16.483,30c8.255-0.21,9.875-2.636,10.111-3.104V5.444v0c-0.007,0-0.539-3.135-10.143-3.445C7.602,2.315,5.698,5.089,5.406,5.644V26.772z"/><path d="M15.506,17.869c-2.994,0-5.99-0.652-8.717-1.905c-1.241-0.564-2.339-1.437-3.175-2.521c-0.337-0.438-0.256-1.065,0.182-1.402c0.436-0.337,1.064-0.257,1.402,0.182c0.637,0.826,1.475,1.491,2.422,1.922c2.75,1.263,5.799,1.845,8.814,1.701c4.143-0.171,7.25-0.881,8.993-2.053c0.515-0.354,0.952-0.806,1.29-1.339c0.296-0.467,0.913-0.604,1.381-0.309c0.466,0.296,0.604,0.914,0.309,1.38c-0.485,0.764-1.109,1.411-1.856,1.923c-2.086,1.403-5.457,2.207-10.025,2.396C16.186,17.86,15.846,17.869,15.506,17.869z"/><path d="M15.488,24.937c-2.99,0-5.981-0.656-8.702-1.918c-1.24-0.557-2.341-1.431-3.175-2.523c-0.335-0.438-0.251-1.066,0.188-1.401c0.439-0.337,1.066-0.251,1.402,0.188c0.632,0.828,1.468,1.491,2.415,1.917c2.751,1.274,5.791,1.866,8.807,1.713c4.139-0.171,7.25-0.881,9.006-2.054c0.514-0.353,0.95-0.805,1.288-1.338c0.295-0.467,0.912-0.606,1.38-0.31c0.467,0.296,0.605,0.914,0.31,1.38c-0.484,0.764-1.108,1.41-1.856,1.924c-2.102,1.403-5.475,2.207-10.035,2.396C16.172,24.928,15.83,24.937,15.488,24.937z"/><path d="M20.306,9.756h-8.645c-0.552,0-1-0.448-1-1s0.448-1,1-1h8.645c0.553,0,1,0.448,1,1S20.858,9.756,20.306,9.756z"/></svg>