<svg xmlns="http://www.w3.org/2000/svg" viewBox="0 0 32 32"><!--! Font Icona - https://fonticona.com | License - https://fonticona.com/license | Copyright 2022 FontIcona.com --><path d="M16.483,32c-0.008,0-0.017,0-0.025,0C5.868,31.736,3.717,27.947,3.507,27.517C3.44,27.38,3.406,27.23,3.406,27.078V5.444c0-0.089,0.012-0.178,0.036-0.265c0.133-0.487,1.633-4.776,13.006-5.179C28.136,0.376,28.582,4.904,28.594,5.42l0,21.658c0,0.072-0.008,0.146-0.023,0.216C28.47,27.748,27.279,31.732,16.508,32C16.5,32,16.492,32,16.483,32z M5.406,26.779C5.895,27.388,8.333,29.792,16.483,30c8.255-0.21,9.875-2.636,10.111-3.104V5.444l0,0c-0.007,0-0.539-3.135-10.143-3.445C7.601,2.315,5.698,5.09,5.406,5.645V26.779z"/><path d="M15.507,17.869c-2.996,0-5.992-0.651-8.719-1.904c-1.241-0.565-2.34-1.438-3.175-2.521c-0.337-0.438-0.255-1.065,0.182-1.402c0.438-0.339,1.064-0.257,1.403,0.182c0.636,0.826,1.474,1.491,2.421,1.923c2.749,1.263,5.795,1.854,8.814,1.7c4.142-0.171,7.249-0.881,8.991-2.054c0.515-0.353,0.952-0.805,1.292-1.339c0.297-0.466,0.915-0.603,1.38-0.308c0.466,0.296,0.604,0.914,0.308,1.38c-0.486,0.765-1.111,1.411-1.857,1.922c-2.085,1.403-5.455,2.208-10.023,2.396C16.186,17.86,15.846,17.869,15.507,17.869z"/><path d="M15.487,24.937c-2.99,0-5.98-0.656-8.702-1.918c-1.242-0.558-2.344-1.433-3.175-2.524c-0.335-0.438-0.25-1.066,0.189-1.401c0.44-0.335,1.067-0.249,1.401,0.19c0.63,0.827,1.465,1.489,2.414,1.916c2.75,1.274,5.789,1.864,8.807,1.713c4.139-0.171,7.25-0.881,9.006-2.055c0.513-0.352,0.95-0.804,1.289-1.338c0.297-0.466,0.915-0.604,1.38-0.308c0.466,0.296,0.604,0.914,0.308,1.38c-0.486,0.765-1.111,1.411-1.857,1.922c-2.1,1.404-5.473,2.208-10.034,2.396C16.171,24.928,15.829,24.937,15.487,24.937z"/><path d="M15.871,12.823c-0.628,0-1.276-0.092-1.901-0.274c-2.015-0.616-3.822-1.633-5.385-3.024L8.403,9.381C8.166,9.19,8.028,8.903,8.028,8.6c0-0.283,0.12-0.63,0.33-0.819c1.55-1.4,3.337-2.455,5.311-3.137c0.772-0.248,1.559-0.355,2.34-0.354c0.773-0.017,1.536,0.104,2.284,0.349c0.007,0.003,0.013,0.005,0.02,0.007c1.963,0.686,3.736,1.746,5.269,3.151c0.207,0.189,0.324,0.457,0.324,0.737c0,0.267-0.106,0.6-0.295,0.787l-0.167,0.166c-1.604,1.427-3.413,2.439-5.414,3.049c-0.67,0.2-1.355,0.293-2.048,0.287C15.945,12.823,15.908,12.823,15.871,12.823z M10.548,8.557c1.212,0.941,2.544,1.632,3.995,2.076c0.455,0.132,0.941,0.205,1.435,0.189c0.531,0.005,1.003-0.062,1.475-0.202c1.444-0.439,2.773-1.125,3.96-2.042c-1.129-0.88-2.386-1.564-3.749-2.042c-0.536-0.172-1.105-0.266-1.653-0.247c-0.617-0.008-1.166,0.076-1.709,0.252C12.949,7.008,11.688,7.686,10.548,8.557z"/><circle cx="15.983" cy="8.556" r="1.25"/></svg>