<svg xmlns="http://www.w3.org/2000/svg" viewBox="0 0 32 32"><!--! Font Icona - https://fonticona.com | License - https://fonticona.com/license | Copyright 2022 FontIcona.com --><path d="M16.483,32c-0.008,0-0.017,0-0.025,0C5.868,31.736,3.717,27.947,3.507,27.517C3.44,27.38,3.406,27.23,3.406,27.078V5.444c0-0.089,0.012-0.178,0.036-0.265c0.133-0.487,1.633-4.776,13.006-5.179C28.136,0.376,28.582,4.904,28.594,5.42l0,21.658c0,0.072-0.008,0.146-0.023,0.216C28.47,27.748,27.279,31.732,16.508,32C16.5,32,16.492,32,16.483,32z M5.406,26.779C5.895,27.388,8.333,29.792,16.483,30c8.255-0.21,9.875-2.636,10.111-3.104V5.444l0,0c-0.007,0-0.539-3.135-10.143-3.445C7.601,2.315,5.698,5.09,5.406,5.645V26.779z"/><path d="M15.507,17.869c-2.996,0-5.992-0.651-8.719-1.904c-1.241-0.565-2.34-1.438-3.175-2.521c-0.337-0.438-0.255-1.065,0.182-1.402c0.438-0.339,1.064-0.258,1.403,0.182c0.636,0.826,1.474,1.491,2.421,1.923c2.749,1.263,5.795,1.853,8.814,1.7c4.142-0.171,7.249-0.881,8.991-2.054c0.515-0.353,0.952-0.805,1.292-1.339c0.297-0.466,0.915-0.604,1.38-0.308c0.466,0.296,0.604,0.914,0.308,1.38c-0.486,0.765-1.111,1.411-1.857,1.922c-2.085,1.403-5.455,2.208-10.023,2.396C16.186,17.86,15.846,17.869,15.507,17.869z"/><path d="M15.487,24.937c-2.99,0-5.98-0.656-8.702-1.918c-1.242-0.558-2.344-1.433-3.175-2.524c-0.335-0.438-0.25-1.066,0.189-1.401c0.44-0.335,1.067-0.249,1.401,0.19c0.63,0.827,1.465,1.489,2.414,1.916c2.75,1.274,5.789,1.864,8.807,1.713c4.139-0.171,7.25-0.881,9.006-2.055c0.513-0.352,0.95-0.804,1.289-1.338c0.297-0.467,0.915-0.603,1.38-0.308c0.466,0.296,0.604,0.914,0.308,1.38c-0.486,0.765-1.111,1.411-1.857,1.922c-2.1,1.404-5.473,2.208-10.034,2.396C16.171,24.928,15.829,24.937,15.487,24.937z"/><path d="M15.983,14.444c-0.552,0-1-0.447-1-1V4.211c0-0.553,0.448-1,1-1s1,0.447,1,1v9.233C16.983,13.997,16.536,14.444,15.983,14.444z"/><path d="M15.983,14.444c-0.256,0-0.513-0.098-0.708-0.294l-3.811-3.822c-0.39-0.391-0.389-1.024,0.002-1.414c0.392-0.39,1.024-0.39,1.414,0.002l3.811,3.822c0.39,0.391,0.389,1.024-0.002,1.414C16.494,14.347,16.239,14.444,15.983,14.444z"/><path d="M15.983,14.444c-0.256,0-0.512-0.098-0.707-0.293c-0.391-0.391-0.391-1.023,0-1.414l3.822-3.822c0.391-0.391,1.023-0.391,1.414,0s0.391,1.023,0,1.414l-3.822,3.822C16.495,14.347,16.239,14.444,15.983,14.444z"/></svg>