<svg xmlns="http://www.w3.org/2000/svg" viewBox="0 0 32 32"><!--! Font Icona - https://fonticona.com | License - https://fonticona.com/license | Copyright 2022 FontIcona.com --><path d="M16,19.179c-5.288,0-9.589-4.302-9.589-9.589S10.712,0,16,0s9.589,4.302,9.589,9.589S21.288,19.179,16,19.179z M16,2c-4.185,0-7.589,3.405-7.589,7.589s3.405,7.589,7.589,7.589s7.589-3.405,7.589-7.589S20.185,2,16,2z"/><path d="M16,32c-0.552,0-1-0.447-1-1V18.179c0-0.553,0.448-1,1-1s1,0.447,1,1V31C17,31.553,16.552,32,16,32z"/><path d="M16,25.589h-4.733c-0.552,0-1-0.447-1-1s0.448-1,1-1H16c0.552,0,1,0.447,1,1S16.552,25.589,16,25.589z"/></svg>