<svg xmlns="http://www.w3.org/2000/svg" viewBox="0 0 32 32"><!--! Font Icona - https://fonticona.com | License - https://fonticona.com/license | Copyright 2022 FontIcona.com --><path d="M11.739,32C5.327,32,0.111,26.71,0.111,20.208S5.327,8.417,11.739,8.417s11.628,5.29,11.628,11.792S18.151,32,11.739,32z M11.739,10.417c-5.309,0-9.628,4.393-9.628,9.792S6.431,30,11.739,30s9.628-4.393,9.628-9.792S17.048,10.417,11.739,10.417z"/><path d="M19.671,13.612c-0.253,0-0.507-0.096-0.702-0.288c-0.393-0.387-0.397-1.021-0.011-1.414L30.176,0.52c0.388-0.394,1.02-0.399,1.415-0.011c0.393,0.387,0.397,1.021,0.011,1.414L20.384,13.314C20.188,13.513,19.93,13.612,19.671,13.612z"/><path class="st0" d="M30.888,2.222c-0.232,0-0.452-0.081-0.627-0.222h-5.289c-0.553,0-1-0.448-1-1s0.447-1,1-1h5.514c0.799,0,1.275,0.524,1.381,1.011c0.116,0.54-0.227,1.072-0.767,1.188C31.028,2.214,30.958,2.222,30.888,2.222z M30.485,2h0.01H30.485z M29.911,1.433c0,0.001,0,0.002,0.001,0.002C29.911,1.435,29.911,1.434,29.911,1.433z"/></svg>