<svg xmlns="http://www.w3.org/2000/svg" viewBox="0 0 32 32"><!--! Font Icona - https://fonticona.com | License - https://fonticona.com/license | Copyright 2022 FontIcona.com --><path d="M6.303,2C6.479,2,6.621,2.256,6.77,2.602c0.276,0.644,0.558,1.365,0.586,2.075C7.366,4.944,7.259,5.216,7.32,5.484c0.149,0.657,1.059,0.794,1.598,0.945c1.119,0.314,2.034,0.976,2.893,1.737c0.853,0.756,1.651,1.643,2.794,1.905c0.351,0.081,0.709,0.115,1.068,0.115c0.662,0,1.329-0.116,1.966-0.27c1.116-0.27,2.22-0.624,3.307-0.996c1.009-0.345,2.096-0.771,3.179-0.771c0.347,0,0.694,0.044,1.037,0.148c1.119,0.339,2.014,1.288,2.541,2.326c0.2,0.394,0.334,0.781,0.418,1.165c0.258,1.172,0.058,2.32-0.112,3.584c-0.012,0.099-0.197,1.646-0.047,2.199c0.331,0.782,0.836,1.457,1.436,2.062c0.218,0.221,0.493,0.359,0.554,0.717c0.088,0.513,0.062,1.006-0.138,1.486c-0.025,0.06-0.076,0.108-0.111,0.157c-0.036-0.012-0.066-0.013-0.07-0.024c-0.205-0.602-0.636-1.112-0.679-1.784c-0.011-0.165-0.102-0.348-0.209-0.479c-0.311-0.38-0.642-0.744-0.98-1.1c-0.065-0.069-0.219-0.144-0.286-0.144c-0.012,0-0.021,0.002-0.026,0.007c-0.096,0.088-0.195,0.247-0.186,0.37c0.047,0.63,0.093,1.264,0.206,1.884c0.135,0.738,0.35,1.461,0.507,2.195c0.101,0.475,0.079,0.934-0.208,1.369c-0.116,0.176-0.146,0.43-0.159,0.651c-0.052,0.871-0.08,1.744-0.12,2.615c-0.004,0.096-0.006,0.208-0.052,0.285c-0.341,0.566-0.676,1.137-1.05,1.679c-0.119,0.172-0.34,0.336-0.537,0.372c-0.43,0.079-0.872,0.11-1.31,0.11c-0.025,0-0.051,0-0.076,0c-0.188-0.002-0.39-0.122-0.559-0.232c-0.331-0.215-0.369-0.461-0.107-0.766c0.333-0.388,0.702-0.744,1.036-1.131c0.1-0.116,0.164-0.283,0.197-0.437c0.125-0.587,0.234-1.178,0.342-1.768c0.052-0.289,0.123-0.581,0.124-0.871c0.001-0.803-0.028-1.607-0.051-2.41c-0.003-0.096-0.02-0.2-0.062-0.285c-0.32-0.645-0.645-1.288-0.975-1.928c-0.058-0.112-0.13-0.231-0.227-0.304c-0.06-0.046-0.162-0.086-0.239-0.086c-0.025,0-0.046,0.004-0.064,0.013c-0.077,0.041-0.148,0.2-0.132,0.292c0.039,0.232,0.118,0.459,0.2,0.68c0.424,1.148,0.424,1.18-0.427,2.052c-0.384,0.394-0.791,0.766-1.172,1.164c-0.09,0.094-0.156,0.249-0.164,0.381c-0.024,0.386,0.008,0.775-0.026,1.159c-0.017,0.196-0.08,0.431-0.207,0.565c-0.655,0.695-1.154,1.498-1.607,2.331c-0.213,0.393-0.516,0.583-0.935,0.583c-0.01,0-0.021,0-0.031,0c-0.34-0.007-0.686-0.002-1.016-0.07c-0.608-0.125-0.763-0.517-0.419-1.046c0.366-0.562,0.765-1.101,1.151-1.649c0.21-0.298,0.401-0.613,0.636-0.889c0.638-0.751,0.821-1.69,1.06-2.603c0.047-0.181-0.012-0.421-0.091-0.601c-0.347-0.785-0.717-1.559-1.086-2.334c-0.14-0.295-0.373-0.449-0.675-0.449c-0.037,0-0.074,0.002-0.113,0.007c-0.599,0.07-1.194,0.164-1.793,0.233c-0.909,0.106-1.82,0.193-2.728,0.307c-0.138,0.017-0.315,0.1-0.387,0.211c-1.18,1.806-1.951,4.874,0.063,6.429c0.442,0.341,0.471,0.402,0.106,0.838c-0.411,0.49-0.851,0.955-1.271,1.436c-0.097,0.112-0.195,0.174-0.298,0.174c-0.079,0-0.161-0.037-0.25-0.116c-0.029-0.026-0.064-0.046-0.097-0.066c-0.127-0.077-0.221-0.117-0.293-0.117c-0.117,0-0.176,0.106-0.22,0.337c-0.114,0.591-0.113,0.626-0.689,0.65c-0.224,0.009-0.449,0.013-0.674,0.013c-0.486,0-0.972-0.017-1.458-0.031c-0.269-0.008-0.405-0.216-0.3-0.476c0.129-0.318,0.272-0.643,0.471-0.918c0.6-0.827,0.935-1.729,1.137-2.749c0.41-2.065,0.247-4.069-0.273-6.075c-0.166-0.64-0.315-1.283-0.465-1.927c-0.361-1.511-0.839-2.57-0.839-2.57c-0.413-0.788-1.075-1.686-1.8-1.686c-0.238,0-0.483,0.097-0.729,0.326c-0.455,0.425-0.917,0.784-1.509,0.995c-0.232,0.082-0.515,0.129-0.806,0.129c-0.673,0-1.391-0.247-1.621-0.864c-0.424-1.135,0.562-2.727,0.693-3.867c0.079-0.687,0.18-1.37,0.398-2.026c0.207-0.62,0.521-1.08,0.024-1.648C2.877,5.916,2.55,5.501,2.497,4.948C2.448,4.441,2.35,2.443,3.142,2.441c0,0,0,0,0,0c0.415,0,0.635,0.937,0.765,1.261C4.076,4.12,4.223,4.601,4.531,4.939c0.171,0.188,0.302,0.264,0.402,0.264c0.359,0,0.325-0.976,0.359-1.279c0.059-0.526,0.336-1.082,0.599-1.534C6.052,2.113,6.185,2,6.303,2 M6.303,0C6.303,0,6.303,0,6.303,0C6.303,0,6.303,0,6.303,0C5.795,0,5.11,0.167,4.51,0.884C4.158,0.62,3.712,0.441,3.143,0.441C2.446,0.443,1.805,0.73,1.333,1.251C0.436,2.24,0.388,3.911,0.506,5.139c0.086,0.892,0.49,1.578,0.843,2.044C1.332,7.229,1.316,7.276,1.3,7.324C1.021,8.161,0.9,8.987,0.812,9.754c-0.023,0.2-0.157,0.598-0.275,0.95c-0.368,1.093-0.825,2.453-0.305,3.846c0.499,1.335,1.838,2.164,3.495,2.164c0.516,0,1.027-0.084,1.476-0.244c0.584-0.207,1.072-0.5,1.478-0.804c0.028,0.048,0.057,0.099,0.087,0.154c0.086,0.203,0.429,1.046,0.696,2.165l0.027,0.115c0.144,0.618,0.289,1.236,0.448,1.85c0.486,1.876,0.567,3.572,0.247,5.184c-0.164,0.827-0.409,1.433-0.794,1.963c-0.321,0.441-0.528,0.904-0.705,1.339c-0.297,0.73-0.227,1.545,0.189,2.181c0.414,0.634,1.127,1.025,1.907,1.047l0.24,0.007c0.424,0.012,0.849,0.025,1.274,0.025c0.253,0,0.505-0.004,0.757-0.015c0.914-0.038,1.497-0.326,1.877-0.725c0.403-0.075,0.926-0.284,1.394-0.82c0.162-0.185,0.327-0.368,0.491-0.55c0.273-0.302,0.545-0.604,0.806-0.916c0.041-0.049,0.092-0.11,0.147-0.181c0.015,0.355,0.104,0.647,0.188,0.848c0.195,0.466,0.714,1.288,2.007,1.554c0.465,0.096,0.892,0.103,1.235,0.108l0.14,0.003l0.022,0l0.053,0c0.911,0,1.717-0.373,2.292-1.043c0.112,0.423,0.395,1.019,1.112,1.486C23.21,31.7,23.75,31.994,24.451,32l0.093,0c0.594,0,1.157-0.048,1.672-0.143c0.71-0.131,1.39-0.58,1.82-1.202c0.362-0.524,0.68-1.053,0.986-1.564l0.132-0.22c0.305-0.507,0.327-0.998,0.336-1.207l0.04-0.922c0.023-0.542,0.045-1.085,0.077-1.627c0.162-0.298,0.278-0.611,0.348-0.937l0.514,0.167l0.829-1.143c0.116-0.143,0.253-0.332,0.364-0.597c0.331-0.796,0.42-1.668,0.263-2.59c-0.167-0.978-0.787-1.514-1.051-1.742l-0.06-0.053c-0.402-0.406-0.702-0.807-0.908-1.213c-0.008-0.3,0.029-0.889,0.091-1.392l0.042-0.304c0.172-1.247,0.35-2.536,0.038-3.952c-0.124-0.564-0.322-1.116-0.588-1.64c-0.839-1.653-2.204-2.868-3.745-3.335c-0.512-0.155-1.056-0.234-1.617-0.234c-1.301,0-2.468,0.406-3.498,0.765l-0.329,0.114c-0.921,0.315-2.013,0.674-3.129,0.944c-0.604,0.146-1.079,0.214-1.496,0.214c-0.227,0-0.435-0.022-0.62-0.064c-0.441-0.101-0.921-0.543-1.476-1.054c-0.146-0.134-0.292-0.269-0.439-0.399c-0.871-0.772-2.077-1.716-3.68-2.165c-0.035-0.01-0.072-0.02-0.11-0.03c-0.062-0.963-0.391-1.846-0.74-2.66C8.092,0.61,7.316,0,6.303,0L6.303,0L6.303,0z M15.26,21.808c0.286-0.032,0.572-0.063,0.858-0.094c0.384-0.041,0.767-0.083,1.15-0.127c0.308-0.036,0.615-0.078,0.922-0.12c0.189,0.4,0.376,0.801,0.558,1.205c-0.149,0.585-0.287,1.085-0.538,1.38c-0.237,0.279-0.423,0.555-0.587,0.797c-0.053,0.079-0.107,0.159-0.162,0.237l-0.331,0.465c-0.273,0.383-0.546,0.766-0.805,1.159c-0.11-0.966-0.793-1.493-1.121-1.747C14.454,24.383,14.719,22.928,15.26,21.808L15.26,21.808z"/><polygon points="12.494,13.079 13.08,14.289 14.392,14.483 13.443,15.424 13.667,16.753 12.494,16.126 11.321,16.753 11.545,15.424 10.596,14.483 11.907,14.289 "/><path d="M11.321,17.253c-0.103,0-0.205-0.031-0.292-0.094c-0.155-0.111-0.233-0.302-0.201-0.489l0.181-1.073l-0.765-0.759c-0.134-0.134-0.182-0.332-0.123-0.512s0.215-0.311,0.402-0.339l1.05-0.154l0.472-0.972c0.083-0.173,0.258-0.282,0.45-0.282l0,0c0.192,0,0.366,0.109,0.45,0.282l0.471,0.972l1.05,0.154c0.188,0.028,0.343,0.159,0.402,0.339s0.011,0.378-0.123,0.512l-0.765,0.759l0.181,1.073c0.032,0.188-0.046,0.378-0.201,0.489c-0.155,0.112-0.358,0.124-0.528,0.035l-0.937-0.501l-0.938,0.501C11.482,17.233,11.401,17.253,11.321,17.253z M11.658,14.831l0.239,0.237c0.115,0.115,0.168,0.278,0.141,0.438l-0.055,0.325l0.275-0.147c0.147-0.078,0.324-0.078,0.472,0l0.274,0.147l-0.055-0.325c-0.027-0.16,0.026-0.323,0.141-0.438l0.239-0.237l-0.322-0.047c-0.164-0.024-0.305-0.128-0.377-0.277l-0.137-0.281l-0.137,0.281c-0.072,0.149-0.213,0.253-0.377,0.277L11.658,14.831z"/><polygon points="18.73,13.079 19.316,14.289 20.628,14.483 19.679,15.424 19.903,16.753 18.73,16.126 17.557,16.753 17.781,15.424 16.832,14.483 18.143,14.289 "/><path d="M19.902,17.253c-0.081,0-0.162-0.02-0.236-0.059l-0.937-0.501l-0.937,0.501c-0.168,0.089-0.373,0.077-0.528-0.035c-0.155-0.111-0.233-0.302-0.201-0.489l0.181-1.073l-0.765-0.759c-0.134-0.134-0.182-0.332-0.123-0.512s0.215-0.311,0.402-0.339l1.05-0.154l0.471-0.972c0.167-0.346,0.732-0.346,0.899,0l0.471,0.972l1.05,0.154c0.188,0.028,0.343,0.159,0.402,0.339s0.012,0.378-0.123,0.511l-0.765,0.76l0.181,1.073c0.032,0.188-0.046,0.378-0.201,0.489C20.107,17.222,20.005,17.253,19.902,17.253z M18.729,15.626c0.081,0,0.162,0.02,0.236,0.059l0.275,0.147l-0.055-0.325c-0.027-0.16,0.026-0.323,0.141-0.438l0.239-0.238l-0.323-0.047c-0.164-0.024-0.305-0.128-0.377-0.277l-0.137-0.281l-0.137,0.281c-0.072,0.149-0.213,0.253-0.377,0.277l-0.322,0.047l0.239,0.237c0.115,0.115,0.168,0.278,0.141,0.438l-0.055,0.325l0.274-0.147C18.567,15.646,18.648,15.626,18.729,15.626z"/><polygon points="24.965,13.079 25.552,14.289 26.863,14.483 25.914,15.424 26.138,16.753 24.965,16.126 23.792,16.753 24.016,15.424 23.067,14.483 24.379,14.289 "/><path d="M23.792,17.253c-0.103,0-0.205-0.031-0.292-0.094c-0.155-0.111-0.233-0.302-0.201-0.489l0.181-1.073l-0.765-0.76c-0.135-0.133-0.182-0.331-0.123-0.511s0.215-0.311,0.402-0.339l1.05-0.154l0.471-0.972c0.167-0.346,0.732-0.346,0.899,0l0.471,0.972l1.05,0.154c0.188,0.028,0.343,0.159,0.402,0.339s0.011,0.378-0.123,0.512l-0.765,0.759l0.181,1.073c0.032,0.188-0.046,0.378-0.201,0.489c-0.154,0.112-0.359,0.124-0.528,0.035l-0.937-0.501l-0.938,0.501C23.954,17.233,23.873,17.253,23.792,17.253z M24.129,14.831l0.239,0.238c0.115,0.114,0.168,0.277,0.141,0.438l-0.055,0.325l0.275-0.147c0.147-0.078,0.324-0.078,0.472,0l0.274,0.147l-0.055-0.325c-0.027-0.16,0.026-0.323,0.141-0.438l0.239-0.237l-0.322-0.047c-0.164-0.024-0.305-0.128-0.377-0.277l-0.137-0.281l-0.137,0.281c-0.072,0.149-0.213,0.253-0.377,0.277L24.129,14.831z"/></svg>