<svg xmlns="http://www.w3.org/2000/svg" viewBox="0 0 32 32"><!--! Font Icona - https://fonticona.com | License - https://fonticona.com/license | Copyright 2022 FontIcona.com --><path d="M3.231,27.876c-0.553,0-1-0.447-1-1V8.893c0-0.553,0.447-1,1-1s1,0.447,1,1v17.983C4.231,27.429,3.784,27.876,3.231,27.876z"/><path d="M26.632,25.71h-9.355c-1.654,0-3-1.346-3-3V7.752c0-0.553,0.447-1,1-1s1,0.447,1,1V22.71c0,0.552,0.448,1,1,1h9.355c0.552,0,1-0.448,1-1V7.752c0-0.553,0.447-1,1-1s1,0.447,1,1V22.71C29.632,24.365,28.286,25.71,26.632,25.71z"/><path d="M17.25,27.876c-0.553,0-1-0.447-1-1v-1.554c0-0.553,0.447-1,1-1s1,0.447,1,1v1.554C18.25,27.429,17.803,27.876,17.25,27.876z"/><path d="M26.658,27.876c-0.553,0-1-0.447-1-1v-1.554c0-0.553,0.447-1,1-1s1,0.447,1,1v1.554C27.658,27.429,27.211,27.876,26.658,27.876z"/><path d="M30.207,8.752H1.793C0.805,8.752,0,7.948,0,6.958V5.917c0-0.988,0.805-1.793,1.793-1.793h28.414C31.195,4.124,32,4.929,32,5.917v1.041C32,7.948,31.195,8.752,30.207,8.752z M2,6.752h28V6.124H2V6.752z"/><rect x="15.276" y="12.416" width="13.355" height="2"/><rect x="15.276" y="18.208" width="13.355" height="2"/><path d="M23.042,11.561h-2.209c-0.553,0-1-0.447-1-1s0.447-1,1-1h2.209c0.553,0,1,0.447,1,1S23.595,11.561,23.042,11.561z"/><path d="M23.059,17.186H20.85c-0.553,0-1-0.447-1-1c0-0.553,0.447-1,1-1h2.209c0.553,0,1,0.447,1,1C24.059,16.739,23.611,17.186,23.059,17.186z"/><path d="M23.059,23.102H20.85c-0.553,0-1-0.447-1-1s0.447-1,1-1h2.209c0.553,0,1,0.447,1,1S23.611,23.102,23.059,23.102z"/></svg>