<svg xmlns="http://www.w3.org/2000/svg" viewBox="0 0 32 32"><!--! Font Icona - https://fonticona.com | License - https://fonticona.com/license | Copyright 2022 FontIcona.com --><path d="M8.025,32c-0.166,0-0.33-0.041-0.479-0.122c-0.233-0.127-0.406-0.342-0.481-0.598L5.813,27c-0.065-0.225-0.051-0.465,0.043-0.68l4.691-10.754H5.239c-0.553,0-1-0.447-1-1V8.47c0-0.553,0.447-1,1-1h8.871l2.124-4.853c0.105-0.24,0.301-0.43,0.545-0.527l5.048-2.019c0.26-0.104,0.554-0.095,0.808,0.029c0.253,0.123,0.443,0.347,0.522,0.616l1.453,4.926c0.067,0.228,0.052,0.473-0.045,0.689l-4.073,9.167h6.269c0.553,0,1,0.447,1,1v6.708c0,0.553-0.447,1-1,1H16.625l-2.518,5.665c-0.004,0.008-0.007,0.016-0.011,0.023c-0.104,0.216-0.274,0.379-0.477,0.475c-0.036,0.018-0.074,0.032-0.114,0.046c-0.011,0.003-0.021,0.007-0.033,0.01L8.31,31.959C8.217,31.986,8.121,32,8.025,32z M7.835,26.787l0.868,2.969l3.764-1.117l2.593-5.838c0.17-0.379,0.534-0.595,0.937-0.594h9.765v-4.708h-6.807c-0.339,0-0.654-0.171-0.839-0.455c-0.184-0.284-0.213-0.642-0.075-0.951l4.548-10.237l-1.038-3.52l-3.647,1.459l-2.222,5.076c-0.159,0.363-0.519,0.599-0.916,0.599H6.239v4.097h5.836c0.337,0,0.651,0.17,0.837,0.452c0.185,0.282,0.215,0.639,0.08,0.947L7.835,26.787z"/></svg>