<svg xmlns="http://www.w3.org/2000/svg" viewBox="0 0 32 32"><!--! Font Icona - https://fonticona.com | License - https://fonticona.com/license | Copyright 2022 FontIcona.com --><path d="M16,30.628C7.935,30.628,1.372,24.066,1.372,16S7.935,1.372,16,1.372S30.628,7.934,30.628,16S24.065,30.628,16,30.628z M16,3.372C9.037,3.372,3.372,9.037,3.372,16S9.037,28.628,16,28.628S28.628,22.963,28.628,16S22.963,3.372,16,3.372z"/><path d="M16,4.744c-1.308,0-2.372-1.064-2.372-2.372S14.692,0,16,0s2.372,1.064,2.372,2.372S17.308,4.744,16,4.744z M16,2c-0.205,0-0.372,0.167-0.372,0.372S15.795,2.744,16,2.744s0.372-0.167,0.372-0.372S16.205,2,16,2z"/><path d="M16,32c-1.308,0-2.372-1.064-2.372-2.372s1.064-2.372,2.372-2.372s2.372,1.064,2.372,2.372S17.308,32,16,32z M16,29.256c-0.205,0-0.372,0.167-0.372,0.372S15.795,30,16,30s0.372-0.167,0.372-0.372S16.205,29.256,16,29.256z"/><path d="M29.628,18.372c-1.308,0-2.372-1.064-2.372-2.372s1.064-2.372,2.372-2.372S32,14.692,32,16S30.936,18.372,29.628,18.372z M29.628,15.628c-0.205,0-0.372,0.167-0.372,0.372s0.167,0.372,0.372,0.372S30,16.205,30,16S29.833,15.628,29.628,15.628z"/><path d="M2.372,18.372C1.064,18.372,0,17.308,0,16s1.064-2.372,2.372-2.372S4.744,14.692,4.744,16S3.68,18.372,2.372,18.372z M2.372,15.628C2.167,15.628,2,15.795,2,16s0.167,0.372,0.372,0.372S2.744,16.205,2.744,16S2.577,15.628,2.372,15.628z"/><path d="M25.587,8.687c-0.629,0-1.222-0.244-1.669-0.687c-0.45-0.445-0.7-1.04-0.703-1.674c-0.003-0.633,0.241-1.23,0.687-1.681c0.919-0.928,2.424-0.937,3.354-0.018c0.93,0.922,0.938,2.427,0.018,3.356c-0.446,0.45-1.041,0.7-1.674,0.703C25.595,8.687,25.591,8.687,25.587,8.687z M25.588,5.943c-0.096,0-0.192,0.037-0.265,0.11c-0.095,0.095-0.108,0.206-0.108,0.264c0.001,0.058,0.016,0.168,0.11,0.262c0.095,0.094,0.204,0.108,0.262,0.108c0.001,0,0.002,0,0.002,0c0.058,0,0.169-0.015,0.263-0.11c0.145-0.146,0.144-0.382-0.003-0.527C25.776,5.979,25.683,5.943,25.588,5.943z"/><path d="M6.412,28.056c-0.603,0-1.206-0.228-1.668-0.684c-0.93-0.922-0.938-2.427-0.018-3.356c0.446-0.45,1.041-0.7,1.674-0.703c0.005,0,0.009,0,0.013,0c0.629,0,1.222,0.244,1.669,0.687c0.45,0.445,0.7,1.04,0.703,1.674c0.003,0.633-0.241,1.23-0.687,1.681C7.636,27.822,7.024,28.056,6.412,28.056z M6.413,25.313c-0.001,0-0.002,0-0.002,0c-0.058,0-0.169,0.015-0.263,0.11c-0.145,0.146-0.144,0.382,0.003,0.527c0.145,0.143,0.381,0.143,0.525-0.003c0.095-0.095,0.108-0.206,0.108-0.264c-0.001-0.058-0.016-0.168-0.11-0.262C6.58,25.327,6.471,25.313,6.413,25.313z"/><path d="M25.685,27.959c-0.629,0-1.221-0.243-1.668-0.686l-0.001,0c-0.929-0.92-0.937-2.425-0.017-3.354c0.445-0.45,1.04-0.7,1.674-0.704c0.005,0,0.009,0,0.013,0c0.63,0,1.222,0.244,1.669,0.687c0.45,0.445,0.7,1.04,0.703,1.674c0.003,0.633-0.241,1.23-0.687,1.681s-1.04,0.7-1.674,0.704C25.693,27.959,25.688,27.959,25.685,27.959z M25.424,25.852c0.146,0.145,0.384,0.142,0.525-0.003c0.095-0.096,0.108-0.207,0.108-0.264c-0.001-0.058-0.016-0.168-0.11-0.262c-0.097-0.096-0.204-0.114-0.264-0.108c-0.058,0-0.168,0.015-0.263,0.11C25.276,25.471,25.277,25.708,25.424,25.852L25.424,25.852z"/><path d="M6.314,8.785c-0.629,0-1.221-0.243-1.668-0.686l0,0C4.195,7.653,3.945,7.059,3.942,6.425c-0.003-0.633,0.241-1.23,0.687-1.681s1.04-0.7,1.674-0.704c0.641,0.018,1.23,0.241,1.681,0.686c0.93,0.921,0.938,2.426,0.018,3.355c-0.445,0.45-1.04,0.7-1.674,0.704C6.322,8.785,6.318,8.785,6.314,8.785z M6.315,6.041c-0.096,0-0.192,0.037-0.265,0.11C5.956,6.247,5.942,6.357,5.942,6.415c0.001,0.058,0.016,0.168,0.11,0.262l0.001,0c0.096,0.095,0.207,0.103,0.263,0.107c0.058,0,0.168-0.015,0.263-0.11c0.145-0.146,0.144-0.382-0.003-0.527C6.504,6.077,6.41,6.041,6.315,6.041z"/><path d="M16,11.796c-0.873,0-1.583-0.71-1.583-1.583c0-0.873,0.71-1.583,1.583-1.583s1.583,0.71,1.583,1.583C17.583,11.086,16.873,11.796,16,11.796z M16,9.796c-0.229,0-0.417,0.187-0.417,0.417s0.188,0.417,0.417,0.417s0.417-0.188,0.417-0.417S16.229,9.796,16,9.796z"/><path d="M16,23.369c-0.873,0-1.583-0.71-1.583-1.583c0-0.873,0.71-1.583,1.583-1.583s1.583,0.71,1.583,1.583C17.583,22.659,16.873,23.369,16,23.369z M16,21.369c-0.229,0-0.417,0.188-0.417,0.417s0.188,0.417,0.417,0.417s0.417-0.187,0.417-0.417S16.229,21.369,16,21.369z"/><path d="M21.786,17.583c-0.872,0-1.582-0.71-1.582-1.583s0.71-1.583,1.582-1.583c0.873,0,1.583,0.71,1.583,1.583S22.659,17.583,21.786,17.583z M21.786,15.583c-0.229,0-0.417,0.188-0.417,0.417s0.188,0.417,0.417,0.417c0.23,0,0.418-0.188,0.418-0.417S22.017,15.583,21.786,15.583z"/><path d="M10.214,17.583c-0.873,0-1.583-0.71-1.583-1.583s0.71-1.583,1.583-1.583c0.872,0,1.582,0.71,1.582,1.583S11.086,17.583,10.214,17.583z M10.214,15.583c-0.23,0-0.418,0.188-0.418,0.417s0.188,0.417,0.418,0.417c0.229,0,0.417-0.188,0.417-0.417S10.443,15.583,10.214,15.583z"/><path d="M20.07,13.47c-0.419,0-0.814-0.162-1.112-0.458c-0.619-0.614-0.625-1.617-0.015-2.237c0.3-0.302,0.697-0.469,1.119-0.471c0.003,0,0.006,0,0.008,0c0.421,0,0.815,0.163,1.114,0.459c0.3,0.296,0.467,0.693,0.469,1.116c0.002,0.422-0.16,0.819-0.456,1.119l0,0c-0.297,0.301-0.693,0.468-1.116,0.471C20.078,13.47,20.074,13.47,20.07,13.47z M19.772,11.595c-0.076,0.078-0.12,0.186-0.119,0.295c0,0.11,0.046,0.217,0.124,0.295c0.162,0.161,0.427,0.16,0.589-0.003c0.163-0.166,0.161-0.429-0.001-0.59c-0.078-0.078-0.186-0.122-0.294-0.122C19.984,11.449,19.852,11.515,19.772,11.595z"/><path d="M11.93,21.695c-0.421,0-0.815-0.163-1.114-0.459c-0.3-0.296-0.467-0.693-0.469-1.116s0.161-0.821,0.459-1.122c0.294-0.299,0.69-0.466,1.113-0.469c0.003,0,0.007,0,0.011,0c0.419,0,0.814,0.162,1.112,0.458c0.619,0.614,0.625,1.617,0.015,2.237l-0.003,0.002c-0.297,0.3-0.694,0.466-1.116,0.468C11.935,21.695,11.932,21.695,11.93,21.695z M11.631,19.821c-0.16,0.163-0.158,0.426,0.004,0.587c0.079,0.079,0.224,0.114,0.297,0.122c0.109,0,0.217-0.045,0.294-0.124L11.631,19.821z M11.93,19.695c-0.107,0-0.215,0.041-0.296,0.123l0.593,0.588c0,0,0.001-0.001,0.002-0.002c0.075-0.076,0.119-0.184,0.118-0.294c0-0.11-0.046-0.217-0.124-0.295C12.142,19.735,12.036,19.695,11.93,19.695z"/><path d="M20.112,21.652c-0.402,0-0.805-0.152-1.112-0.456l-0.002-0.001c-0.619-0.614-0.624-1.618-0.011-2.237c0.298-0.301,0.695-0.467,1.117-0.469c0.003,0,0.006,0,0.008,0c0.421,0,0.815,0.163,1.114,0.459c0.3,0.296,0.467,0.693,0.469,1.116s-0.161,0.821-0.459,1.122C20.928,21.496,20.521,21.652,20.112,21.652z M19.818,20.367C19.819,20.367,19.819,20.368,19.818,20.367c0.164,0.161,0.429,0.161,0.59-0.002c0.162-0.164,0.161-0.428-0.002-0.59L19.818,20.367z M20.112,19.653c-0.107,0-0.215,0.042-0.297,0.124c-0.077,0.077-0.121,0.185-0.12,0.295c0,0.109,0.045,0.217,0.123,0.294l0.586-0.594C20.324,19.693,20.218,19.653,20.112,19.653z"/><path d="M11.888,13.512c-0.42,0-0.815-0.163-1.113-0.458l0,0c-0.301-0.297-0.468-0.694-0.47-1.117s0.161-0.821,0.459-1.122c0.613-0.618,1.617-0.624,2.236-0.012c0.621,0.615,0.626,1.619,0.013,2.239c-0.298,0.301-0.695,0.467-1.117,0.469C11.893,13.512,11.89,13.512,11.888,13.512z M11.888,11.512c-0.107,0-0.215,0.041-0.296,0.123c-0.162,0.164-0.161,0.428,0.002,0.59c0.165,0.163,0.43,0.162,0.591-0.002c0.077-0.077,0.121-0.185,0.12-0.295c0-0.11-0.046-0.217-0.124-0.295l0.001,0.001C12.101,11.553,11.994,11.512,11.888,11.512z"/><path d="M16,21.562c-3.066,0-5.562-2.495-5.562-5.562s2.495-5.562,5.562-5.562s5.562,2.495,5.562,5.562S19.066,21.562,16,21.562z M16,12.438c-1.964,0-3.562,1.598-3.562,3.562s1.598,3.562,3.562,3.562s3.562-1.598,3.562-3.562S17.964,12.438,16,12.438z"/><rect x="15" y="20.562" width="2" height="9.066"/><rect x="15" y="2.372" width="2" height="9.066"/><rect x="2.372" y="15" width="9.066" height="2"/><rect x="20.562" y="15" width="9.066" height="2"/><rect x="5.036" y="21.431" transform="matrix(0.7071 -0.7071 0.7071 0.7071 -13.0584 13.3361)" width="9.066" height="2"/><rect x="17.898" y="8.569" transform="matrix(0.7071 -0.7071 0.7071 0.7071 -0.1964 18.6639)" width="9.066" height="2"/><rect x="8.569" y="5.036" transform="matrix(0.7071 -0.7071 0.7071 0.7071 -3.9637 9.5694)" width="2" height="9.066"/><rect x="21.431" y="17.898" transform="matrix(0.7071 -0.7071 0.7071 0.7071 -9.2911 22.4323)" width="2" height="9.066"/></svg>