<svg xmlns="http://www.w3.org/2000/svg" viewBox="0 0 32 32"><!--! Font Icona - https://fonticona.com | License - https://fonticona.com/license | Copyright 2022 FontIcona.com --><path d="M16,10.334L9.997,4.183L12.079,0h7.843l2.082,4.183L16,10.334z M12.42,3.802L16,7.471l3.58-3.669L18.683,2h-5.366L12.42,3.802z"/><path d="M13.466,7.417l-0.44-1.951c0.28-0.063,0.563-0.118,0.851-0.163l0.312,1.975C13.946,7.316,13.705,7.363,13.466,7.417z"/><path d="M16,32C8.593,32,2.567,25.975,2.567,18.567c0-6.321,4.301-11.709,10.458-13.102l0.441,1.951c-5.157,1.166-8.899,5.855-8.899,11.15C4.567,24.871,9.696,30,16,30s11.433-5.129,11.433-11.433c0-5.656-4.047-10.404-9.622-11.29l0.313-1.975c6.553,1.041,11.309,6.619,11.309,13.265C29.433,25.975,23.407,32,16,32z"/></svg>