<svg xmlns="http://www.w3.org/2000/svg" viewBox="0 0 32 32"><!--! Font Icona - https://fonticona.com | License - https://fonticona.com/license | Copyright 2022 FontIcona.com --><path d="M21.933,32c-0.312,0-0.619-0.146-0.814-0.418c-0.961-1.342-1.968-2.758-2.975-4.176c-0.72-1.013-1.44-2.026-2.144-3.014c-0.704,0.987-1.424,2.001-2.144,3.014c-1.007,1.418-2.014,2.834-2.975,4.176c-0.321,0.448-0.946,0.553-1.395,0.231L3.738,27.7c-0.441-0.316-0.55-0.926-0.246-1.375l4.996-7.364L0.68,16.32c-0.514-0.174-0.796-0.727-0.634-1.245l2.137-6.856c0.08-0.257,0.26-0.47,0.5-0.593c0.239-0.122,0.517-0.142,0.773-0.058l7.618,2.552l0.311-9.154c0.019-0.538,0.46-0.966,1-0.966h7.275c0.541,0,0.983,0.43,1,0.97l0.276,9.148l7.613-2.55c0.255-0.084,0.534-0.064,0.773,0.058c0.24,0.123,0.419,0.336,0.5,0.593l2.137,6.856c0.162,0.519-0.12,1.071-0.634,1.245l-7.809,2.641l4.996,7.364c0.305,0.449,0.195,1.059-0.246,1.375l-5.748,4.113C22.338,31.939,22.134,32,21.933,32z M16.018,21.663c0.3,0,0.591,0.138,0.781,0.406c0.973,1.359,1.975,2.77,2.976,4.179c0.805,1.132,1.608,2.264,2.389,3.356l4.141-2.964l-5.186-7.645c-0.175-0.259-0.22-0.584-0.12-0.88s0.332-0.529,0.627-0.629l8.129-2.749l-1.542-4.949l-7.921,2.653c-0.299,0.103-0.629,0.054-0.889-0.128c-0.26-0.181-0.418-0.474-0.428-0.79L18.687,2h-5.338l-0.323,9.528c-0.011,0.315-0.17,0.607-0.429,0.787c-0.26,0.18-0.589,0.228-0.888,0.127L3.788,9.789l-1.542,4.949l8.129,2.749c0.296,0.1,0.528,0.333,0.627,0.629s0.055,0.621-0.12,0.88l-5.186,7.645l4.141,2.964c0.781-1.093,1.584-2.225,2.389-3.356c1.001-1.409,2.003-2.819,2.961-4.157c0.067-0.095,0.15-0.175,0.243-0.239C15.611,21.726,15.816,21.663,16.018,21.663z"/></svg>