<svg xmlns="http://www.w3.org/2000/svg" viewBox="0 0 32 32"><!--! Font Icona - https://fonticona.com | License - https://fonticona.com/license | Copyright 2022 FontIcona.com --><path d="M29,32H3c-1.654,0-3-1.346-3-3V3c0-1.654,1.346-3,3-3h26c1.654,0,3,1.346,3,3v26C32,30.654,30.654,32,29,32z M3,2C2.448,2,2,2.449,2,3v26c0,0.551,0.448,1,1,1h26c0.552,0,1-0.449,1-1V3c0-0.551-0.448-1-1-1H3z"/><path d="M7.501,11.06c-1.93,0-3.5-1.57-3.5-3.5s1.57-3.5,3.5-3.5s3.5,1.57,3.5,3.5S9.431,11.06,7.501,11.06z M7.501,6.06c-0.827,0-1.5,0.673-1.5,1.5s0.673,1.5,1.5,1.5s1.5-0.673,1.5-1.5S8.328,6.06,7.501,6.06z"/><path d="M24.499,27.852c-1.93,0-3.5-1.57-3.5-3.5s1.57-3.5,3.5-3.5s3.5,1.57,3.5,3.5S26.429,27.852,24.499,27.852z M24.499,22.852c-0.827,0-1.5,0.673-1.5,1.5s0.673,1.5,1.5,1.5s1.5-0.673,1.5-1.5S25.326,22.852,24.499,22.852z"/><path d="M24.396,10.957c-1.93,0-3.5-1.57-3.5-3.5s1.57-3.5,3.5-3.5s3.5,1.57,3.5,3.5S26.325,10.957,24.396,10.957z M24.396,5.957c-0.827,0-1.5,0.673-1.5,1.5s0.673,1.5,1.5,1.5s1.5-0.673,1.5-1.5S25.223,5.957,24.396,5.957z"/><path d="M16.277,19.5c-1.93,0-3.5-1.57-3.5-3.5s1.57-3.5,3.5-3.5s3.5,1.57,3.5,3.5S18.207,19.5,16.277,19.5z M16.277,14.5c-0.827,0-1.5,0.673-1.5,1.5s0.673,1.5,1.5,1.5s1.5-0.673,1.5-1.5S17.104,14.5,16.277,14.5z"/><path d="M7.604,27.955c-1.93,0-3.5-1.57-3.5-3.5s1.57-3.5,3.5-3.5s3.5,1.57,3.5,3.5S9.534,27.955,7.604,27.955z M7.604,22.955c-0.827,0-1.5,0.673-1.5,1.5s0.673,1.5,1.5,1.5s1.5-0.673,1.5-1.5S8.432,22.955,7.604,22.955z"/></svg>