<svg xmlns="http://www.w3.org/2000/svg" viewBox="0 0 32 32"><!--! Font Icona - https://fonticona.com | License - https://fonticona.com/license | Copyright 2022 FontIcona.com --><path d="M8.278,21.131c-0.174,0-0.351-0.045-0.511-0.141c-0.475-0.283-0.63-0.896-0.348-1.371l7.57-12.714c0.283-0.476,0.897-0.631,1.371-0.348c0.475,0.282,0.63,0.896,0.348,1.371l-7.57,12.714C8.951,20.957,8.619,21.131,8.278,21.131z"/><path d="M2.463,10.062c-0.498,0-0.93-0.371-0.991-0.878c-0.067-0.548,0.322-1.047,0.87-1.114l13.386-1.645c0.562-0.082,1.048,0.322,1.114,0.87c0.067,0.548-0.322,1.047-0.87,1.114L2.586,10.054C2.544,10.06,2.503,10.062,2.463,10.062z"/><path d="M8.28,21.131c-0.359,0-0.707-0.194-0.887-0.535L1.578,9.526C1.321,9.038,1.51,8.434,1.999,8.176C2.488,7.922,3.092,8.107,3.35,8.597l5.815,11.069c0.257,0.488,0.068,1.093-0.421,1.351C8.596,21.094,8.437,21.131,8.28,21.131z"/><path d="M2.464,24.861c-0.553,0-1-0.447-1-1v-14.8c0-0.553,0.447-1,1-1s1,0.447,1,1v14.8C3.464,24.414,3.017,24.861,2.464,24.861z"/><path d="M2.465,24.861c-0.329,0-0.651-0.162-0.843-0.46c-0.298-0.465-0.163-1.084,0.302-1.382l5.815-3.73c0.464-0.3,1.083-0.164,1.382,0.302c0.298,0.465,0.163,1.084-0.302,1.382l-5.815,3.73C2.837,24.811,2.649,24.861,2.465,24.861z"/><path d="M15.999,32c-0.157,0-0.316-0.037-0.466-0.115L1.997,24.746c-0.488-0.258-0.676-0.862-0.418-1.352c0.259-0.488,0.86-0.675,1.352-0.418l13.536,7.139c0.488,0.258,0.676,0.862,0.418,1.352C16.705,31.807,16.358,32,15.999,32z"/><path d="M16.001,32c-0.313,0-0.621-0.146-0.816-0.421L7.464,20.71C7.145,20.26,7.25,19.636,7.7,19.315c0.451-0.321,1.074-0.214,1.395,0.236l7.721,10.869c0.319,0.45,0.214,1.074-0.236,1.395C16.403,31.94,16.201,32,16.001,32z"/><path d="M2.465,10.062c-0.34,0-0.672-0.174-0.859-0.486C1.322,9.101,1.477,8.486,1.95,8.203l13.482-8.062c0.474-0.282,1.088-0.128,1.372,0.345c0.283,0.475,0.129,1.089-0.345,1.372L2.978,9.92C2.816,10.016,2.64,10.062,2.465,10.062z"/><path d="M23.722,21.146c-0.337,0-0.665-0.17-0.854-0.478L15.094,7.971c-0.289-0.472-0.141-1.087,0.33-1.375c0.472-0.289,1.087-0.14,1.375,0.33l7.774,12.697c0.289,0.472,0.141,1.087-0.33,1.375C24.08,21.098,23.899,21.146,23.722,21.146z"/><path d="M29.537,10.091c-0.04,0-0.081-0.002-0.122-0.008L15.729,8.409c-0.549-0.066-0.938-0.565-0.871-1.113c0.066-0.548,0.561-0.952,1.113-0.871l13.687,1.674c0.549,0.066,0.938,0.565,0.871,1.113C30.467,9.719,30.035,10.091,29.537,10.091z"/><path d="M23.72,21.146c-0.157,0-0.316-0.037-0.465-0.115c-0.488-0.257-0.677-0.861-0.419-1.351l5.815-11.055c0.257-0.488,0.863-0.676,1.351-0.419c0.488,0.257,0.677,0.861,0.419,1.351l-5.815,11.055C24.427,20.951,24.079,21.146,23.72,21.146z"/><path d="M29.536,24.87c-0.553,0-1-0.447-1-1V9.091c0-0.553,0.447-1,1-1s1,0.447,1,1V23.87C30.536,24.423,30.089,24.87,29.536,24.87z"/><path d="M29.535,24.87c-0.185,0-0.371-0.051-0.538-0.158l-5.815-3.725c-0.466-0.298-0.601-0.916-0.303-1.381c0.297-0.466,0.915-0.602,1.381-0.303l5.815,3.725c0.466,0.298,0.601,0.916,0.303,1.381C30.188,24.707,29.864,24.87,29.535,24.87z"/><path d="M16.001,32c-0.359,0-0.707-0.194-0.886-0.534c-0.258-0.488-0.07-1.093,0.419-1.351l13.536-7.13c0.487-0.257,1.094-0.069,1.351,0.419c0.258,0.488,0.07,1.093-0.419,1.351l-13.536,7.13C16.317,31.963,16.158,32,16.001,32z"/><path d="M15.999,32c-0.2,0-0.402-0.06-0.579-0.186c-0.449-0.319-0.555-0.944-0.234-1.395l7.721-10.854c0.318-0.449,0.941-0.559,1.395-0.234c0.449,0.319,0.555,0.944,0.234,1.395L16.814,31.58C16.62,31.854,16.312,32,15.999,32z"/><path d="M29.535,10.091c-0.174,0-0.351-0.045-0.511-0.141l-13.59-8.091c-0.475-0.282-0.63-0.896-0.348-1.371c0.283-0.475,0.897-0.631,1.371-0.348l13.59,8.091c0.475,0.282,0.63,0.896,0.348,1.371C30.208,9.917,29.876,10.091,29.535,10.091z"/><path d="M23.665,21.131H8.279c-0.553,0-1-0.447-1-1s0.447-1,1-1h15.386c0.553,0,1,0.447,1,1S24.218,21.131,23.665,21.131z"/><path d="M15.946,8.417c-0.553,0-1-0.447-1-1V1.16c0-0.553,0.447-1,1-1s1,0.447,1,1v6.257C16.946,7.97,16.499,8.417,15.946,8.417z"/></svg>