<svg xmlns="http://www.w3.org/2000/svg" viewBox="0 0 32 32"><!--! Font Icona - https://fonticona.com | License - https://fonticona.com/license | Copyright 2022 FontIcona.com --><path d="M7.855,22.585H0v-11.3h7.855V22.585z M2,20.585h3.855v-7.3H2V20.585z"/><rect x="5.855" y="6.085" width="2" height="6.2"/><rect x="10.2" y="10.996" width="2" height="11.721"/><rect x="10.2" y="6.085" width="2" height="3.257"/><path d="M22.109,22.585h-7.855v-11.3h7.855V22.585z M16.254,20.585h3.855v-7.3h-3.855V20.585z"/><polygon points="22.109,26.915 14.256,26.915 14.256,24.915 20.109,24.915 20.109,21.585 22.109,21.585 "/><path d="M32,22.585h-7.855v-11.3H32V22.585z M26.145,20.585H30v-7.3h-3.855V20.585z"/><polygon points="32,26.915 24.147,26.915 24.147,24.915 30,24.915 30,21.585 32,21.585 "/></svg>