<svg xmlns="http://www.w3.org/2000/svg" viewBox="0 0 32 32"><!--! Font Icona - https://fonticona.com | License - https://fonticona.com/license | Copyright 2022 FontIcona.com --><path d="M16,32c-0.552,0-1-0.447-1-1v-6.063c0-0.553,0.448-1,1-1c4.376,0,7.936-3.561,7.936-7.937S20.376,8.063,16,8.063S8.064,11.624,8.064,16c0,0.553-0.448,1-1,1H1c-0.552,0-1-0.447-1-1C0,7.178,7.178,0,16,0s16,7.178,16,16S24.822,32,16,32z M17,25.887v4.078C24.254,29.45,30,23.383,30,16c0-7.72-6.28-14-14-14C8.617,2,2.55,7.745,2.035,15h4.079C6.617,9.988,10.859,6.063,16,6.063c5.479,0,9.936,4.457,9.936,9.937C25.936,21.142,22.011,25.384,17,25.887z"/><path d="M5.894,25.812H2.17c-0.552,0-1-0.447-1-1v-3.724c0-0.553,0.448-1,1-1h3.723c0.552,0,1,0.447,1,1v3.724C6.894,25.365,6.446,25.812,5.894,25.812z M3.17,23.812h1.723v-1.724H3.17V23.812z"/><path d="M10.415,30.227H5.894c-0.552,0-1-0.447-1-1v-4.414c0-0.553,0.448-1,1-1h4.521c0.552,0,1,0.447,1,1v4.414C11.415,29.779,10.967,30.227,10.415,30.227z M6.894,28.227h2.521v-2.414H6.894V28.227z"/><path d="M16,25.812h-5.585c-0.552,0-1-0.447-1-1v-6.384c0-0.553,0.448-1,1-1H16c0.552,0,1,0.447,1,1v6.384C17,25.365,16.552,25.812,16,25.812z M11.415,23.812H15v-4.384h-3.585V23.812z"/></svg>