<svg xmlns="http://www.w3.org/2000/svg" viewBox="0 0 32 32"><!--! Font Icona - https://fonticona.com | License - https://fonticona.com/license | Copyright 2022 FontIcona.com --><path d="M15.266,32c-0.552,0-1-0.447-1-1v-7.083c0-0.553,0.448-1,1-1s1,0.447,1,1V31C16.266,31.553,15.818,32,15.266,32z"/><path d="M15.266,17c-0.552,0-1-0.447-1-1v-4.236c0-0.553,0.448-1,1-1s1,0.447,1,1V16C16.266,16.553,15.818,17,15.266,17z"/><path d="M15.266,5.889c-0.552,0-1-0.447-1-1V1c0-0.553,0.448-1,1-1s1,0.447,1,1v3.889C16.266,5.441,15.818,5.889,15.266,5.889z"/><path d="M22.678,12.764H8.7c-0.721,0-1.418-0.26-1.964-0.731c0-0.001-0.001-0.001-0.001-0.001L4.205,9.838c-0.438-0.38-0.689-0.931-0.689-1.511c0-0.581,0.251-1.132,0.69-1.512l2.529-2.193C7.28,4.149,7.978,3.889,8.7,3.889h13.978c1.654,0,3,1.346,3,3v2.875C25.678,11.418,24.332,12.764,22.678,12.764z M8.044,10.52c0.183,0.157,0.416,0.244,0.656,0.244h13.978c0.551,0,1-0.448,1-1V6.889c0-0.552-0.449-1-1-1H8.7c-0.24,0-0.473,0.087-0.655,0.245L5.516,8.327L8.044,10.52z"/><path d="M23.3,23.875H9.322c-1.654,0-3-1.346-3-3V18c0-1.654,1.346-3,3-3H23.3c0.722,0,1.419,0.261,1.965,0.733l2.529,2.192c0.439,0.381,0.69,0.932,0.69,1.512s-0.251,1.131-0.689,1.511l-2.53,2.193C24.72,23.614,24.022,23.875,23.3,23.875z M9.322,17c-0.551,0-1,0.448-1,1v2.875c0,0.552,0.449,1,1,1H23.3c0.24,0,0.473-0.087,0.655-0.245l2.53-2.192l-2.529-2.192c0,0,0,0,0,0C23.773,17.087,23.541,17,23.3,17H9.322z"/></svg>