<svg xmlns="http://www.w3.org/2000/svg" viewBox="0 0 32 32"><!--! Font Icona - https://fonticona.com | License - https://fonticona.com/license | Copyright 2022 FontIcona.com --><path d="M16,32H0V16C0,7.178,7.178,0,16,0s16,7.178,16,16S24.822,32,16,32z M2,30h14c7.72,0,14-6.28,14-14S23.72,2,16,2S2,8.28,2,16V30z M5.453,26.35l1.686-6.805C6.685,18.416,6.454,17.225,6.454,16c0-5.264,4.282-9.546,9.546-9.546s9.546,4.282,9.546,9.546S21.264,25.546,16,25.546c-1.097,0-2.172-0.187-3.201-0.555L5.453,26.35z M16,8.454c-4.161,0-7.546,3.385-7.546,7.546c0,1.061,0.218,2.088,0.649,3.055l0.14,0.314l-1.103,4.449l4.848-0.896l0.267,0.104c0.878,0.345,1.801,0.52,2.745,0.52c4.161,0,7.546-3.385,7.546-7.546S20.161,8.454,16,8.454z"/></svg>