<svg xmlns="http://www.w3.org/2000/svg" viewBox="0 0 32 32"><!--! Font Icona - https://fonticona.com | License - https://fonticona.com/license | Copyright 2022 FontIcona.com --><path d="M29,27.799H3c-1.654,0-3-1.346-3-3v-8.182c0-1.654,1.346-3,3-3h3.67c0.552,0,1,0.448,1,1s-0.448,1-1,1H3c-0.551,0-1,0.449-1,1v8.182c0,0.551,0.449,1,1,1h26c0.551,0,1-0.449,1-1v-8.182c0-0.551-0.449-1-1-1h-3.669c-0.552,0-1-0.448-1-1s0.448-1,1-1H29c1.654,0,3,1.346,3,3v8.182C32,26.453,30.654,27.799,29,27.799z"/><path d="M27.083,19.756H4.917c-0.552,0-1-0.448-1-1s0.448-1,1-1h22.167c0.552,0,1,0.448,1,1S27.636,19.756,27.083,19.756z"/><path d="M23.636,19.756c-0.177,0-0.356-0.047-0.518-0.145c-0.472-0.287-0.623-0.902-0.336-1.374c0.75-1.235,1.146-2.655,1.146-4.108c0-4.372-3.557-7.928-7.928-7.928s-7.928,3.557-7.928,7.928c0,1.453,0.396,2.873,1.146,4.108c0.287,0.472,0.136,1.087-0.336,1.374c-0.471,0.286-1.087,0.137-1.374-0.336c-0.939-1.548-1.436-3.327-1.436-5.146c0-5.475,4.454-9.928,9.928-9.928s9.928,4.454,9.928,9.928c0,1.819-0.497,3.598-1.436,5.146C24.304,19.585,23.974,19.756,23.636,19.756z"/><path d="M16,17.946c-2.104,0-3.816-1.712-3.816-3.817s1.712-3.816,3.816-3.816s3.816,1.712,3.816,3.816S18.104,17.946,16,17.946z M16,12.313c-1.001,0-1.816,0.815-1.816,1.816c0,1.002,0.815,1.817,1.816,1.817s1.816-0.815,1.816-1.817C17.816,13.128,17.001,12.313,16,12.313z"/></svg>