<svg xmlns="http://www.w3.org/2000/svg" viewBox="0 0 32 32"><!--! Font Icona - https://fonticona.com | License - https://fonticona.com/license | Copyright 2022 FontIcona.com --><path d="M31,17H1c-0.553,0-1-0.448-1-1s0.447-1,1-1h30c0.553,0,1,0.448,1,1S31.553,17,31,17z"/><path d="M16,11.631c-2.636,0-4.779-2.144-4.779-4.779S13.364,2.073,16,2.073s4.779,2.144,4.779,4.779S18.636,11.631,16,11.631z M16,4.073c-1.532,0-2.779,1.247-2.779,2.779S14.468,9.631,16,9.631s2.779-1.247,2.779-2.779S17.532,4.073,16,4.073z"/><path d="M16,29.927c-2.636,0-4.779-2.144-4.779-4.779s2.144-4.779,4.779-4.779s4.779,2.144,4.779,4.779S18.636,29.927,16,29.927z M16,22.369c-1.532,0-2.779,1.247-2.779,2.779s1.247,2.779,2.779,2.779s2.779-1.247,2.779-2.779S17.532,22.369,16,22.369z"/></svg>