<svg xmlns="http://www.w3.org/2000/svg" viewBox="0 0 32 32"><!--! Font Icona - https://fonticona.com | License - https://fonticona.com/license | Copyright 2022 FontIcona.com --><path d="M16,22.65c-8.005,0-14.041-7.452-14.041-17.333c0-0.552,0.447-1,1-1s1,0.448,1,1C3.959,14.059,9.136,20.65,16,20.65s12.041-6.592,12.041-15.333c0-0.552,0.447-1,1-1s1,0.448,1,1C30.041,15.199,24.005,22.65,16,22.65z"/><path d="M22.805,32H9.152c-0.937,0-1.803-0.425-2.375-1.167S6.013,29.146,6.25,28.24l2.262-8.644c0.141-0.535,0.688-0.857,1.221-0.714c0.534,0.14,0.854,0.686,0.715,1.22l-2.262,8.644c-0.079,0.302-0.016,0.617,0.176,0.864C8.552,29.858,8.84,30,9.152,30h13.652c0.312,0,0.6-0.141,0.79-0.387c0.191-0.246,0.256-0.561,0.179-0.863l-2.222-8.652c-0.137-0.535,0.186-1.08,0.72-1.217c0.536-0.135,1.08,0.185,1.218,0.72l2.222,8.653c0.231,0.905,0.036,1.848-0.536,2.585S23.738,32,22.805,32z"/><path d="M16.356,22.63c-0.041,0-0.083-0.002-0.126-0.008C9.604,21.79,6.132,9.571,6.108,4.541C6.105,3.989,6.552,3.539,7.104,3.537c0.002,0,0.004,0,0.005,0c0.55,0,0.997,0.445,1,0.996c0.021,4.601,3.206,15.457,8.372,16.105c0.548,0.069,0.936,0.569,0.867,1.117C17.284,22.26,16.854,22.63,16.356,22.63z"/><path d="M15.644,22.63c-0.497,0-0.928-0.37-0.991-0.875c-0.068-0.548,0.319-1.048,0.867-1.117c5.166-0.649,8.351-11.505,8.372-16.105c0.003-0.552,0.411-1,1.005-0.996c0.552,0.002,0.998,0.452,0.995,1.004c-0.023,5.03-3.495,17.249-10.122,18.081C15.727,22.627,15.685,22.63,15.644,22.63z"/><path d="M16.133,22.632c-0.118,0-0.238-0.021-0.354-0.063c-3.456-1.266-3.826-17.864-3.826-18.031c-0.001-0.552,0.446-1,0.998-1.001c0.001,0,0.001,0,0.002,0c0.552,0,0.999,0.447,1,0.999c0.01,5.924,1.337,15.292,2.562,16.179c0.519,0.19,0.761,0.752,0.571,1.271C16.938,22.388,16.544,22.632,16.133,22.632z"/><path d="M15.878,22.63c-0.407,0-0.791-0.251-0.939-0.657c-0.189-0.519,0.077-1.093,0.596-1.283c1.177-0.864,2.504-10.231,2.514-16.156c0.001-0.552,0.448-0.999,1-0.999c0.001,0,0.001,0,0.002,0c0.552,0.001,0.999,0.449,0.998,1.001c0,0.167-0.37,16.765-3.826,18.031C16.108,22.61,15.992,22.63,15.878,22.63z"/><path d="M29.104,5.537H2.896C1.3,5.537,0,4.294,0,2.768S1.3,0,2.896,0h26.207C30.7,0,32,1.242,32,2.768S30.7,5.537,29.104,5.537z M2.896,2C2.41,2,2,2.352,2,2.768s0.41,0.769,0.896,0.769h26.207C29.59,3.537,30,3.185,30,2.768S29.59,2,29.104,2H2.896z"/></svg>