<svg xmlns="http://www.w3.org/2000/svg" viewBox="0 0 32 32"><!--! Font Icona - https://fonticona.com | License - https://fonticona.com/license | Copyright 2022 FontIcona.com --><path d="M14.632,22.961c-0.417,0-0.82-0.021-1.204-0.049c-0.551-0.041-0.964-0.521-0.923-1.071c0.041-0.552,0.521-0.972,1.071-0.923c2.615,0.194,4.254-0.295,5.649-1.689c2.28-2.279,1.826-5.232,1.301-8.651c-0.149-0.97-0.304-1.973-0.399-2.994c-0.259-2.771,0.362-4.787,2.217-7.19c0.337-0.438,0.965-0.521,1.402-0.182c0.438,0.338,0.519,0.966,0.182,1.402c-1.548,2.007-2.021,3.52-1.809,5.784c0.09,0.962,0.239,1.936,0.384,2.876c0.558,3.625,1.134,7.373-1.863,10.369C18.739,22.544,16.543,22.961,14.632,22.961z"/><path d="M1.001,24.139c-0.289,0-0.574-0.124-0.772-0.363c-0.352-0.427-0.291-1.057,0.135-1.408c2.309-1.904,4.267-2.507,7.214-2.234c0.55,0.052,0.954,0.539,0.903,1.089c-0.052,0.55-0.544,0.949-1.089,0.903c-2.438-0.229-3.841,0.205-5.755,1.785C1.45,24.064,1.225,24.139,1.001,24.139z"/><path d="M8.863,32.003c-0.228,0-0.456-0.077-0.644-0.235c-0.422-0.355-0.476-0.986-0.12-1.409c1.559-1.85,2.007-3.3,1.777-5.747c-0.089-0.962-0.238-1.934-0.383-2.874c-0.556-3.627-1.132-7.378,1.866-10.375c2.32-2.319,5.084-2.429,7.234-2.265c0.551,0.042,0.963,0.522,0.921,1.073c-0.042,0.55-0.534,0.958-1.073,0.921c-2.628-0.197-4.271,0.287-5.668,1.685c-2.281,2.281-1.828,5.236-1.303,8.658c0.148,0.969,0.302,1.971,0.397,2.991c0.28,2.994-0.327,4.951-2.24,7.222C9.432,31.882,9.148,32.003,8.863,32.003z"/><path d="M25.641,11.936c-0.391,0-0.797-0.021-1.222-0.06c-0.55-0.052-0.954-0.539-0.903-1.089c0.052-0.551,0.545-0.955,1.089-0.903c2.377,0.224,3.88-0.247,5.762-1.79c0.427-0.352,1.057-0.287,1.407,0.14c0.35,0.427,0.288,1.057-0.14,1.407C29.679,11.244,27.918,11.936,25.641,11.936z"/><path d="M29.197,11.089c-0.256,0-0.512-0.098-0.707-0.293l-7.255-7.255c-0.391-0.391-0.391-1.023,0-1.414s1.023-0.391,1.414,0l7.255,7.255c0.391,0.391,0.391,1.023,0,1.414C29.709,10.992,29.453,11.089,29.197,11.089z"/><path d="M10.106,30.212c-0.256,0-0.512-0.098-0.707-0.293l-7.307-7.309c-0.391-0.391-0.391-1.023,0-1.414s1.023-0.391,1.414,0l7.307,7.309c0.391,0.391,0.391,1.023,0,1.414C10.618,30.115,10.362,30.212,10.106,30.212z"/><path d="M21.438,18.671c-0.256,0-0.512-0.098-0.707-0.293l-7.106-7.106c-0.391-0.391-0.391-1.023,0-1.414s1.023-0.391,1.414,0l7.106,7.106c0.391,0.391,0.391,1.023,0,1.414C21.95,18.574,21.694,18.671,21.438,18.671z"/><path d="M17.825,22.285c-0.256,0-0.512-0.098-0.707-0.293l-7.172-7.172c-0.391-0.391-0.391-1.023,0-1.414s1.023-0.391,1.414,0l7.172,7.172c0.391,0.391,0.391,1.023,0,1.414C18.337,22.188,18.081,22.285,17.825,22.285z"/></svg>