<svg xmlns="http://www.w3.org/2000/svg" viewBox="0 0 32 32"><!--! Font Icona - https://fonticona.com | License - https://fonticona.com/license | Copyright 2022 FontIcona.com --><path d="M19.507,32H4.539c-0.553,0-1-0.447-1-1V1c0-0.553,0.447-1,1-1h11.338c0.553,0,1,0.447,1,1v4.676c0,0.553-0.447,1-1,1h-5.663v18.648h9.293c1.045,0,2.214-1.461,2.214-3.415v-9.455c0-0.553,0.447-1,1-1h4.676c0.553,0,1,0.447,1,1v9.455C28.396,27.474,24.408,32,19.507,32z M5.539,30h13.968c3.799,0,6.89-3.63,6.89-8.091v-8.455h-2.676v8.455c0,2.986-1.891,5.415-4.214,5.415H9.214c-0.553,0-1-0.447-1-1V5.676c0-0.553,0.447-1,1-1h5.663V2H5.539V30z"/><path d="M27.461,10.377h-8.377c-0.553,0-1-0.447-1-1V1c0-0.404,0.243-0.77,0.617-0.924c0.375-0.155,0.804-0.068,1.09,0.217l8.377,8.377c0.286,0.286,0.372,0.716,0.217,1.09C28.23,10.134,27.865,10.377,27.461,10.377z M20.084,8.377h4.963l-4.963-4.963V8.377z"/></svg>