<svg xmlns="http://www.w3.org/2000/svg" viewBox="0 0 32 32"><!--! Font Icona - https://fonticona.com | License - https://fonticona.com/license | Copyright 2022 FontIcona.com --><path d="M23.794,12.622c-1.639,0-3.296-0.491-4.456-1.243c-0.463-0.3-0.596-0.919-0.295-1.383c0.299-0.463,0.919-0.597,1.383-0.295c1.707,1.105,5.151,1.442,6.412-0.357c0.361-0.515,0.39-0.879,0.348-0.975c-0.015-0.032-0.134-0.111-0.411-0.146c-0.205-0.029-0.438-0.045-0.689-0.063c-1.009-0.073-2.265-0.165-3.064-0.867c-0.38-0.36-0.569-0.751-0.721-1.064c-0.132-0.273-0.22-0.445-0.34-0.537c-0.444-0.295-0.994-0.525-1.581-0.646c-0.427-0.088-0.745-0.442-0.792-0.869C19.47,3.839,18.8,2.873,18.474,2.402c-0.28-0.403-0.513-0.746-0.606-0.922c-0.26-0.487-0.076-1.093,0.412-1.354c0.489-0.257,1.094-0.074,1.353,0.412c0.074,0.139,0.264,0.405,0.485,0.724c0.602,0.867,1.01,1.479,1.239,1.967c0.627,0.188,1.221,0.469,1.771,0.837C23.681,4.49,23.923,4.99,24.1,5.355c0.094,0.194,0.183,0.378,0.271,0.461c0.265,0.232,1.263,0.305,1.86,0.349c0.301,0.021,0.579,0.043,0.81,0.075c1.282,0.164,1.788,0.898,1.975,1.321c0.372,0.842,0.175,1.91-0.54,2.931C27.408,12.018,25.612,12.622,23.794,12.622z M19.596,4.199h0.01H19.596z M19.582,4.084c0,0.001,0,0.002,0,0.002S19.582,4.085,19.582,4.084z"/><path d="M21.802,32.007c-0.678,0-1.255-0.083-1.516-0.145c-2.266-0.533-3.384-2.378-4.178-4.111c-0.552-1.528-1.259-2.903-2.135-4.168c-0.314-0.454-0.201-1.077,0.253-1.392s1.076-0.201,1.392,0.253c0.975,1.408,1.762,2.939,2.341,4.552c0.688,1.492,1.442,2.604,2.786,2.919c0.861,0.204,2.397,0.076,2.653-0.218c0.034-0.077,0.035-0.145,0.035-0.146c-0.088-0.104-0.68-0.356-1.033-0.508c-0.654-0.279-1.396-0.596-1.906-1.164c-0.478-0.638-0.726-1.307-0.775-2.008c-0.026-1.947,0.462-3.812,1.409-5.448c0.729-1.34,1.359-2.673,0.925-4.011c-0.115-0.322-0.269-0.668-0.422-1.015c-0.555-1.254-1.183-2.674-0.643-4.318c0.173-0.524,0.735-0.811,1.263-0.638c0.524,0.173,0.81,0.738,0.638,1.263c-0.301,0.913,0.104,1.826,0.571,2.884c0.174,0.394,0.347,0.786,0.487,1.181c0.688,2.118-0.195,4.018-1.075,5.634c-0.78,1.348-1.175,2.856-1.156,4.386c0.02,0.263,0.134,0.568,0.325,0.827c0.155,0.166,0.68,0.391,1.144,0.588c0.84,0.358,1.792,0.765,2.133,1.695c0.199,0.543,0.14,1.138-0.175,1.77C24.496,31.75,22.993,32.007,21.802,32.007z"/><path d="M12.337,31.892c-1.003,0-2.046-0.201-3.067-0.624c-2.969-1.225-3.449-4.538-2.908-7.229c0.674-3.402,2.844-5.586,4.942-7.698c0.389-0.392,0.781-0.785,1.167-1.191c1.158-1.381,1.986-3.101,2.354-4.928c0.159-0.725,0.393-1.417,0.699-2.073c0.337-0.937,0.849-1.782,1.522-2.516c0.013-0.014,0.026-0.028,0.039-0.041c-0.025-0.152-0.047-0.308-0.063-0.464c-0.065-0.73-0.04-1.449,0.074-2.153c0.035-0.177,0.045-0.334,0.059-0.497c0.058-0.678,0.145-1.702,1.04-2.299c0.459-0.306,1.08-0.183,1.387,0.277c0.306,0.46,0.182,1.08-0.277,1.387c-0.093,0.062-0.139,0.602-0.156,0.804c-0.021,0.243-0.043,0.477-0.084,0.683c-0.08,0.504-0.1,1.057-0.051,1.604c0.02,0.183,0.052,0.383,0.094,0.582c0.163,0.844-0.321,1.246-0.504,1.397c-0.022,0.019-0.051,0.039-0.08,0.07c-0.504,0.549-0.883,1.18-1.129,1.88c-0.012,0.032-0.025,0.064-0.04,0.096c-0.252,0.533-0.445,1.098-0.572,1.675c-0.43,2.138-1.406,4.166-2.821,5.85c-0.438,0.462-0.84,0.867-1.238,1.269c-2.062,2.074-3.843,3.867-4.4,6.68c-0.133,0.663-0.675,4.006,1.71,4.989c2.297,0.951,5.288,0.489,6.329-1.929c0.218-0.506,0.805-0.738,1.313-0.523c0.507,0.219,0.742,0.807,0.523,1.314C17.214,30.57,14.908,31.892,12.337,31.892z"/><path d="M10.064,31.511c-0.059,0-0.119-0.005-0.179-0.016C6.925,30.958,4.421,29,3.187,26.256c-1.27-3.661,1.001-7.483,2.66-10.273l0.301-0.508c0.28-0.476,0.893-0.633,1.369-0.354c0.476,0.28,0.634,0.894,0.354,1.369l-0.304,0.514c-1.54,2.591-3.455,5.814-2.521,8.516c0.93,2.059,2.886,3.588,5.197,4.007c0.543,0.099,0.904,0.619,0.806,1.163C10.96,31.172,10.539,31.511,10.064,31.511z"/></svg>