<svg xmlns="http://www.w3.org/2000/svg" viewBox="0 0 32 32"><!--! Font Icona - https://fonticona.com | License - https://fonticona.com/license | Copyright 2022 FontIcona.com --><path d="M16,32C7.178,32,0,24.823,0,16S7.178,0,16,0s16,7.178,16,16S24.822,32,16,32z M16,2C8.28,2,2,8.281,2,16s6.28,14,14,14s14-6.28,14-14S23.72,2,16,2z"/><path d="M26.647,27.566c-0.255,0-0.509-0.097-0.705-0.29L4.648,6.144C4.257,5.754,4.254,5.121,4.643,4.73c0.39-0.393,1.021-0.395,1.415-0.006l21.294,21.132c0.392,0.39,0.394,1.022,0.005,1.414C27.161,27.467,26.904,27.566,26.647,27.566z"/><path class="st0" d="M16,8.921c-0.552,0-1-0.447-1-1v-2.6c0-0.553,0.448-1,1-1s1,0.447,1,1v2.6C17,8.474,16.552,8.921,16,8.921z"/><path class="st0" d="M16,27.678c-0.552,0-1-0.447-1-1v-2.274c0-0.553,0.448-1,1-1s1,0.447,1,1v2.274C17,27.231,16.552,27.678,16,27.678z"/><path class="st0" d="M16,25.076c-1.099,0-2.198-0.173-3.245-0.52c-1.87-0.619-3.126-2.358-3.126-4.328v-0.661c0-0.553,0.448-1,1-1s1,0.447,1,1v0.661c0,1.105,0.705,2.082,1.755,2.43c1.687,0.56,3.546,0.558,5.232,0c1.049-0.349,1.755-1.325,1.755-2.43c0-1.221-0.826-2.285-2.008-2.589l-5.223-1.341c-2.067-0.531-3.511-2.393-3.511-4.526c0-1.971,1.256-3.71,3.126-4.327c2.092-0.694,4.396-0.694,6.489,0c1.87,0.619,3.126,2.358,3.126,4.327v0.667c0,0.553-0.448,1-1,1s-1-0.447-1-1v-0.667c0-1.105-0.705-2.081-1.755-2.429c-1.687-0.559-3.544-0.559-5.232,0c-1.05,0.347-1.755,1.323-1.755,2.429c0,1.221,0.826,2.285,2.008,2.589l5.223,1.341c2.067,0.531,3.511,2.393,3.511,4.526c0,1.969-1.256,3.708-3.125,4.328C18.199,24.903,17.099,25.076,16,25.076z"/></svg>