<svg xmlns="http://www.w3.org/2000/svg" viewBox="0 0 32 32"><!--! Font Icona - https://fonticona.com | License - https://fonticona.com/license | Copyright 2022 FontIcona.com --><path d="M4.106,25.372c-0.256,0-0.512-0.098-0.707-0.293c-0.391-0.391-0.391-1.023,0-1.414c1.378-1.379,1.17-4.503-0.405-6.079c-0.391-0.391-0.391-1.023,0-1.414s1.023-0.391,1.414,0c2.35,2.35,2.55,6.762,0.405,8.907C4.618,25.274,4.362,25.372,4.106,25.372z"/><path d="M21.057,6.308c-0.132,0-0.265-0.003-0.399-0.011c-1.73-0.094-3.362-0.786-4.475-1.899c-0.391-0.391-0.391-1.023,0-1.414s1.023-0.391,1.414,0c0.77,0.77,1.924,1.249,3.169,1.316c1.184,0.07,2.275-0.276,2.91-0.911c0.391-0.391,1.023-0.391,1.414,0s0.391,1.023,0,1.414C24.124,5.77,22.67,6.308,21.057,6.308z"/><path d="M28.3,16.101c-0.256,0-0.512-0.098-0.707-0.293c-1.096-1.096-1.768-2.71-1.842-4.429c-0.076-1.751,0.478-3.353,1.521-4.395c0.391-0.391,1.023-0.391,1.414,0s0.391,1.023,0,1.414c-0.637,0.638-0.987,1.719-0.937,2.894c0.053,1.225,0.512,2.355,1.258,3.102c0.391,0.391,0.391,1.023,0,1.414C28.812,16.003,28.556,16.101,28.3,16.101z"/><path d="M15.112,29.289c-0.256,0-0.512-0.098-0.707-0.293c-0.746-0.745-1.878-1.202-3.105-1.252c-1.174-0.045-2.268,0.308-2.911,0.95c-0.391,0.391-1.023,0.391-1.414,0s-0.391-1.023,0-1.414c1.046-1.046,2.66-1.604,4.406-1.534c1.724,0.07,3.341,0.739,4.438,1.836c0.391,0.391,0.391,1.023,0,1.414C15.624,29.191,15.368,29.289,15.112,29.289z"/><path d="M11.55,31.999c-0.001,0-0.002-0.001-0.003-0.001c-0.818,0-1.585-0.319-2.163-0.898l-8.486-8.516c-1.188-1.192-1.187-3.13,0.004-4.319l17.37-17.37c1.154-1.154,3.168-1.154,4.323,0l8.501,8.501c0.577,0.577,0.896,1.345,0.896,2.161s-0.318,1.584-0.895,2.162L13.711,31.104C13.134,31.681,12.366,31.998,11.55,31.999z M20.434,1.999c-0.282,0-0.547,0.109-0.747,0.31L2.316,19.679l0,0c-0.412,0.411-0.412,1.081-0.001,1.493l8.486,8.516c0.199,0.2,0.465,0.311,0.748,0.311c0,0,0.001,0,0.001,0c0.283,0.001,0.548-0.109,0.748-0.309l17.385-17.385c0.199-0.2,0.31-0.466,0.31-0.748s-0.11-0.548-0.31-0.747l-8.501-8.501C20.981,2.108,20.716,1.999,20.434,1.999z M1.609,18.972h0.01H1.609z"/><path d="M21.674,22.686c-0.256,0-0.512-0.098-0.707-0.293L9.578,11.003c-0.391-0.391-0.391-1.023,0-1.414s1.023-0.391,1.414,0l11.389,11.39c0.391,0.391,0.391,1.023,0,1.414C22.186,22.588,21.93,22.686,21.674,22.686z"/><path d="M16.925,21.44c-0.787,0-1.562-0.307-2.146-0.891l-0.267-0.268c-0.391-0.391-0.391-1.023,0-1.414s1.023-0.391,1.414,0l0.268,0.268c0.318,0.317,0.798,0.393,1.198,0.193c0.827-0.415,1.511-1.1,1.927-1.927c0.201-0.399,0.123-0.882-0.193-1.198c-0.356-0.357-0.907-0.425-1.34-0.17l-2.656,1.57c-1.219,0.722-2.769,0.525-3.771-0.476c-0.928-0.928-1.155-2.339-0.566-3.511c0.606-1.208,1.606-2.208,2.816-2.815c1.171-0.59,2.582-0.361,3.51,0.564l0.271,0.272c0.39,0.392,0.389,1.024-0.002,1.414s-1.024,0.39-1.415-0.002l-0.27-0.271c-0.316-0.315-0.796-0.394-1.197-0.191c-0.828,0.416-1.512,1.1-1.927,1.926c-0.201,0.4-0.124,0.883,0.193,1.199c0.355,0.354,0.905,0.423,1.34,0.169l2.656-1.57c1.221-0.723,2.771-0.525,3.772,0.477c0.927,0.927,1.154,2.338,0.566,3.51c-0.608,1.21-1.608,2.21-2.816,2.816C17.854,21.335,17.388,21.44,16.925,21.44z"/></svg>