<svg xmlns="http://www.w3.org/2000/svg" viewBox="0 0 32 32"><!--! Font Icona - https://fonticona.com | License - https://fonticona.com/license | Copyright 2022 FontIcona.com --><path d="M16,32c-0.552,0-1-0.448-1-1V1c0-0.552,0.448-1,1-1s1,0.448,1,1v30C17,31.552,16.552,32,16,32z"/><path d="M16,28.345c-1.501,0-3.002-0.237-4.431-0.71c-2.46-0.815-4.113-3.104-4.113-5.696V21.01c0-0.552,0.448-1,1-1s1,0.448,1,1v0.929c0,1.728,1.102,3.254,2.742,3.797c2.451,0.812,5.152,0.812,7.604,0c1.64-0.543,2.742-2.069,2.742-3.797c0-1.9-1.285-3.556-3.125-4.028l-7.336-1.884c-2.725-0.699-4.628-3.153-4.628-5.966c0-2.592,1.653-4.881,4.113-5.696c2.857-0.946,6.005-0.946,8.862,0c2.46,0.815,4.113,3.104,4.113,5.696v0.937c0,0.552-0.448,1-1,1s-1-0.448-1-1v-0.937c0-1.728-1.102-3.254-2.742-3.797c-2.452-0.812-5.152-0.812-7.604,0c-1.64,0.543-2.742,2.069-2.742,3.797c0,1.9,1.285,3.556,3.125,4.028l7.336,1.884c2.725,0.699,4.628,3.153,4.628,5.966c0,2.592-1.653,4.881-4.113,5.696C19.002,28.108,17.501,28.345,16,28.345z"/></svg>