<svg xmlns="http://www.w3.org/2000/svg" viewBox="0 0 32 32"><!--! Font Icona - https://fonticona.com | License - https://fonticona.com/license | Copyright 2022 FontIcona.com --><path d="M22.143,29.041c-0.144,0-0.291-0.008-0.441-0.024c-0.447-0.048-1.808-0.194-3.25-4.526c-1.006-3.021-1.945-2.781-4.213-2.206c-1.588,0.402-3.565,0.903-5.737-0.053l-0.48-0.209c-1.525-0.663-3.423-1.488-4.551-2.654c-2.293-2.372-5.434-5.621-1.89-9.774c1.892-2.217,4.64-4.122,7.539-5.226C15.04,2.114,21.65,2.572,26.802,5.593c1.294,0.758,2.352,1.828,3.128,2.676c0.558,0.608,1.157,1.467,1.528,2.186c1.754,3.403-1.083,6.064-3.155,8.008c-0.715,0.671-1.391,1.305-1.802,1.869c-0.394,0.542-0.628,1.295-0.716,2.302c-0.018,0.203-0.032,0.432-0.047,0.676c-0.101,1.636-0.24,3.877-1.619,5.04C23.574,28.809,22.911,29.041,22.143,29.041z M16.165,19.942c1.58,0,3.139,0.773,4.185,3.918c0.651,1.956,1.352,3.042,1.642,3.188c0.451,0.032,0.7-0.11,0.839-0.228c0.725-0.611,0.838-2.431,0.913-3.635c0.016-0.262,0.032-0.507,0.051-0.726c0.12-1.379,0.477-2.459,1.09-3.304c0.522-0.718,1.265-1.415,2.051-2.152c2.3-2.157,3.734-3.715,2.745-5.633c0,0,0,0,0,0c-0.291-0.565-0.783-1.27-1.224-1.75c-0.682-0.744-1.601-1.679-2.665-2.303C21.155,4.6,15.19,4.197,9.831,6.238c-2.596,0.988-5.049,2.685-6.729,4.655c-2.25,2.637-0.78,4.41,1.806,7.085c0.852,0.881,2.548,1.618,3.911,2.21l0.489,0.214c1.542,0.68,3.016,0.305,4.439-0.056C14.512,20.152,15.341,19.942,16.165,19.942z"/><path d="M16.291,15.936c-3.777,0-6.736-1.926-6.736-4.384c0-2.459,2.958-4.385,6.736-4.385s6.736,1.926,6.736,4.385C23.027,14.01,20.068,15.936,16.291,15.936z M16.291,9.167c-2.791,0-4.736,1.257-4.736,2.385s1.945,2.384,4.736,2.384s4.736-1.256,4.736-2.384S19.082,9.167,16.291,9.167z"/><path d="M14.71,27.057c-5.85,0-9.819-1.861-12.063-5.63c-0.831-1.396-1.099-2.516-1.383-3.701c-0.117-0.486-0.24-1.004-0.415-1.589l1.916-0.572c0.187,0.623,0.319,1.176,0.444,1.695c0.269,1.122,0.481,2.009,1.157,3.144c2.413,4.053,7.46,5.438,15.435,4.234l0.298,1.979C18.152,26.909,16.356,27.057,14.71,27.057z"/><path d="M24.744,25.508c-0.42,0-0.812-0.267-0.95-0.688c-0.173-0.524,0.112-1.09,0.637-1.263c1.673-0.55,2.84-1.373,3.903-2.752c1.357-1.76,1.364-3.675,1.373-6.099l0.001-0.41c0.003-0.551,0.45-0.995,1-0.995c0.002,0,0.003,0,0.005,0c0.552,0.003,0.998,0.453,0.995,1.005l-0.001,0.407c-0.009,2.58-0.018,5.018-1.789,7.313c-1.308,1.697-2.808,2.755-4.862,3.432C24.953,25.492,24.847,25.508,24.744,25.508z"/><circle cx="8.594" cy="8.168" r="1.25"/><circle cx="10.892" cy="17.68" r="1.25"/><circle cx="22.027" cy="14.935" r="1.25"/><circle cx="14.947" cy="15.694" r="1.25"/><circle cx="27.726" cy="13.059" r="1.25"/><circle cx="18.553" cy="5.949" r="1.25"/><circle cx="23.422" cy="8.168" r="1.25"/><circle cx="21.273" cy="20.957" r="1.25"/><circle cx="5.912" cy="12.563" r="1.25"/></svg>