<svg xmlns="http://www.w3.org/2000/svg" viewBox="0 0 32 32"><!--! Font Icona - https://fonticona.com | License - https://fonticona.com/license | Copyright 2022 FontIcona.com --><path d="M23.211,32H8.789c-1.654,0-3-1.346-3-3v-0.53c0-0.553,0.448-1,1-1s1,0.447,1,1V29c0,0.552,0.449,1,1,1h14.423c0.551,0,1-0.448,1-1V3c0-0.552-0.449-1-1-1H8.789c-0.551,0-1,0.448-1,1v2.612c0,0.553-0.448,1-1,1s-1-0.447-1-1V3c0-1.654,1.346-3,3-3h14.423c1.654,0,3,1.346,3,3v26C26.211,30.655,24.866,32,23.211,32z"/><path d="M6.789,29.47c-0.552,0-1-0.447-1-1v-3.66c0-0.553,0.448-1,1-1s1,0.447,1,1v3.66C7.789,29.023,7.341,29.47,6.789,29.47z"/><path d="M6.789,25.81c-0.552,0-1-0.447-1-1V9.541c0-0.553,0.448-1,1-1s1,0.447,1,1V24.81C7.789,25.363,7.341,25.81,6.789,25.81z"/><path d="M6.789,10.541c-0.552,0-1-0.447-1-1V5.613c0-0.553,0.448-1,1-1s1,0.447,1,1v3.929C7.789,10.094,7.341,10.541,6.789,10.541z"/><path d="M15.491,18.642c-0.398,0-0.774-0.238-0.93-0.631c-0.204-0.514,0.047-1.095,0.56-1.299c0.601-0.238,1.252-0.288,1.89-0.145c0.539,0.123,0.876,0.658,0.753,1.197c-0.123,0.538-0.656,0.876-1.197,0.754c-0.239-0.056-0.485-0.036-0.708,0.053C15.739,18.619,15.614,18.642,15.491,18.642z"/><path d="M17.138,20.506c-0.552,0-1-0.447-1-1v-3.458c0-0.553,0.448-1,1-1s1,0.447,1,1v3.458C18.138,20.059,17.69,20.506,17.138,20.506z"/><path d="M8.148,31.888c-0.412,0-0.797-0.256-0.942-0.666c-0.185-0.521,0.088-1.092,0.608-1.276l10.653-3.776c0.398-0.141,0.666-0.52,0.666-0.942V6.797c0-0.438-0.281-0.822-0.699-0.953L7.312,2.34C6.785,2.174,6.493,1.613,6.659,1.085c0.166-0.526,0.729-0.817,1.254-0.653l11.122,3.504c1.255,0.395,2.099,1.545,2.099,2.861v18.43c0,1.269-0.803,2.405-1.998,2.827L8.482,31.83C8.372,31.869,8.259,31.888,8.148,31.888z"/></svg>