<svg xmlns="http://www.w3.org/2000/svg" viewBox="0 0 32 32"><!--! Font Icona - https://fonticona.com | License - https://fonticona.com/license | Copyright 2022 FontIcona.com --><path d="M23.211,32H8.789c-1.654,0-3-1.346-3-3v-0.53c0-0.553,0.448-1,1-1s1,0.447,1,1V29c0,0.552,0.449,1,1,1h14.423c0.551,0,1-0.448,1-1V3c0-0.552-0.449-1-1-1H8.789c-0.551,0-1,0.448-1,1v2.612c0,0.553-0.448,1-1,1s-1-0.447-1-1V3c0-1.654,1.346-3,3-3h14.423c1.654,0,3,1.346,3,3v26C26.211,30.655,24.866,32,23.211,32z"/><path d="M6.789,29.47c-0.552,0-1-0.447-1-1v-3.66c0-0.553,0.448-1,1-1s1,0.447,1,1v3.66C7.789,29.023,7.341,29.47,6.789,29.47z"/><path d="M6.789,25.81c-0.552,0-1-0.447-1-1V9.541c0-0.553,0.448-1,1-1s1,0.447,1,1V24.81C7.789,25.363,7.341,25.81,6.789,25.81z"/><path d="M6.789,10.541c-0.552,0-1-0.447-1-1V5.613c0-0.553,0.448-1,1-1s1,0.447,1,1v3.929C7.789,10.094,7.341,10.541,6.789,10.541z"/><path d="M22.134,19.265c-0.098,0-0.197-0.014-0.295-0.044c-0.603-0.186-1.241-0.186-1.843,0c-0.53,0.161-1.087-0.133-1.25-0.662c-0.163-0.527,0.133-1.087,0.661-1.25c0.989-0.303,2.033-0.303,3.021,0c0.528,0.163,0.824,0.723,0.661,1.25C22.957,18.99,22.562,19.265,22.134,19.265z"/><path d="M22.138,22.506c-0.552,0-1-0.447-1-1v-5.834c0-0.553,0.448-1,1-1s1,0.447,1,1v5.834C23.138,22.059,22.69,22.506,22.138,22.506z"/><path d="M8.128,7.25H6.789c-0.552,0-1-0.447-1-1s0.448-1,1-1h1.339c0.552,0,1,0.447,1,1S8.68,7.25,8.128,7.25z"/><path d="M8.128,26.25H6.789c-0.552,0-1-0.447-1-1s0.448-1,1-1h1.339c0.552,0,1,0.447,1,1S8.68,26.25,8.128,26.25z"/></svg>