<svg xmlns="http://www.w3.org/2000/svg" viewBox="0 0 32 32"><!--! Font Icona - https://fonticona.com | License - https://fonticona.com/license | Copyright 2022 FontIcona.com --><path d="M8.167,30.086c-0.552,0-1-0.447-1-1V15.04c0-5.268,3.899-9.554,8.693-9.554c0.552,0,1,0.447,1,1s-0.448,1-1,1c-3.69,0-6.693,3.389-6.693,7.554v14.046C9.167,29.639,8.72,30.086,8.167,30.086z"/><path d="M3.514,29.361c-0.552,0-1-0.447-1-1V14.728C2.514,6.607,8.501,0,15.86,0c0.552,0,1,0.447,1,1s-0.448,1-1,1C9.604,2,4.514,7.71,4.514,14.728v13.633C4.514,28.913,4.066,29.361,3.514,29.361z"/><path d="M7.167,32H5.514c-1.654,0-3-1.346-3-3v-4.215c0-0.553,0.448-1,1-1s1,0.447,1,1V29c0,0.552,0.449,1,1,1h1.654v-5.159c0-0.553,0.448-1,1-1s1,0.447,1,1V30C9.167,31.103,8.271,32,7.167,32z"/><path d="M23.833,30.086c-0.552,0-1-0.447-1-1V15.04c0-4.165-3.002-7.554-6.693-7.554c-0.552,0-1-0.447-1-1s0.448-1,1-1c4.793,0,8.693,4.286,8.693,9.554v14.046C24.833,29.639,24.385,30.086,23.833,30.086z"/><path d="M28.486,30c-0.552,0-1-0.447-1-1V14.728C27.486,7.71,22.396,2,16.14,2c-0.552,0-1-0.447-1-1s0.448-1,1-1c7.359,0,13.347,6.606,13.347,14.728V29C29.486,29.553,29.039,30,28.486,30z"/><path d="M26.486,32H26.25c-0.552,0-1-0.447-1-1s0.448-1,1-1h0.237c0.551,0,1-0.448,1-1v-4.215c0-0.553,0.448-1,1-1s1,0.447,1,1V29C29.486,30.655,28.141,32,26.486,32z"/><path d="M26.486,32h-1.654c-1.103,0-2-0.897-2-2v-5.159c0-0.553,0.448-1,1-1s1,0.447,1,1V30h1.654c0.552,0,1,0.447,1,1S27.039,32,26.486,32z"/><path d="M16.005,20.692c-0.552,0-1-0.447-1-1V6.98c0-0.553,0.448-1,1-1s1,0.447,1,1v12.712C17.005,20.244,16.558,20.692,16.005,20.692z"/><path d="M16.005,32c-0.552,0-1-0.447-1-1v-5.278c0-0.553,0.448-1,1-1s1,0.447,1,1V31C17.005,31.553,16.558,32,16.005,32z"/><path d="M23.438,16.002H8.167c-0.552,0-1-0.447-1-1s0.448-1,1-1h15.271c0.552,0,1,0.447,1,1S23.991,16.002,23.438,16.002z"/><path d="M25.475,32H5.75c-0.552,0-1-0.447-1-1s0.448-1,1-1h19.725c0.552,0,1,0.447,1,1S26.027,32,25.475,32z"/><path d="M13.504,23.608H8.481c-0.552,0-1-0.447-1-1s0.448-1,1-1h5.023c0.552,0,1,0.447,1,1S14.057,23.608,13.504,23.608z"/><path d="M23.833,26.722H13.504c-0.552,0-1-0.447-1-1v-5.821c0-0.553,0.448-1,1-1h10.328c0.552,0,1,0.447,1,1v5.821C24.833,26.275,24.385,26.722,23.833,26.722z M14.504,24.722h8.328v-3.821h-8.328V24.722z"/><path d="M23.078,23.811h-2.242c-0.552,0-1-0.447-1-1s0.448-1,1-1h2.242c0.552,0,1,0.447,1,1S23.63,23.811,23.078,23.811z"/><path d="M21.353,9.759c-0.239,0-0.479-0.085-0.67-0.259c-0.41-0.37-0.441-1.003-0.071-1.412l3.449-3.812c0.372-0.409,1.003-0.442,1.413-0.07c0.41,0.37,0.441,1.003,0.071,1.412L22.095,9.43C21.897,9.648,21.625,9.759,21.353,9.759z"/><path d="M10.581,9.406c-0.273,0-0.544-0.111-0.742-0.329L6.709,5.618C6.339,5.209,6.371,4.576,6.78,4.206c0.41-0.372,1.041-0.339,1.413,0.07l3.129,3.458c0.37,0.409,0.339,1.042-0.071,1.412C11.06,9.321,10.82,9.406,10.581,9.406z"/><path d="M8.167,19.666H3.514c-0.552,0-1-0.447-1-1s0.448-1,1-1h4.654c0.552,0,1,0.447,1,1S8.72,19.666,8.167,19.666z"/><path d="M28.486,19.666h-4.654c-0.552,0-1-0.447-1-1s0.448-1,1-1h4.654c0.552,0,1,0.447,1,1S29.039,19.666,28.486,19.666z"/></svg>