<svg xmlns="http://www.w3.org/2000/svg" viewBox="0 0 32 32"><!--! Font Icona - https://fonticona.com | License - https://fonticona.com/license | Copyright 2022 FontIcona.com --><path d="M7.748,32c-0.119,0-0.238-0.021-0.353-0.064c-2.578-0.973-4.005-3.719-3.318-6.387c0.306-1.221,1.318-1.457,1.699-1.546c2.523-0.499,4.938-1.491,7.063-2.892c-1.917-0.766-3.723-1.773-5.39-3.008c-3.492-2.359-5.942-6.132-6.686-10.325C0.565,6.736,0.521,5.672,0.478,4.643C0.461,4.244,0.444,3.845,0.418,3.449C0.394,3.073,0.583,2.715,0.908,2.523c0.326-0.191,0.73-0.184,1.047,0.018c4.256,2.721,8.882,4.795,13.751,6.166c0.384,0.118,0.751,0.205,1.119,0.292c0.535,0.127,1.088,0.259,1.644,0.46c2.409,0.628,4.188,2.764,4.454,5.256c0.22-0.219,0.431-0.45,0.63-0.689c0.156-0.174,0.27-0.329,0.383-0.481c0.171-0.229,0.363-0.487,0.601-0.726c0.997-1.079,2.197-1.642,3.424-1.582c1.265,0.055,2.444,0.744,3.413,1.993c0.192,0.247,0.257,0.57,0.176,0.872s-0.299,0.549-0.589,0.667l-0.981,0.399c-0.621,0.253-1.063,0.824-1.153,1.489c-0.294,1.754-0.757,3.451-1.381,5.073c-1.158,3.466-4.541,5.725-8.242,5.429c-1.414-0.017-2.91,0.045-4.387,0.192c-2.27,0.277-4.329,1.533-5.625,3.444c-0.151,0.188-0.238,0.306-0.327,0.423l-0.217,0.284c-0.073,0.093-0.156,0.179-0.247,0.256C8.214,31.917,7.982,32,7.748,32z M2.505,5.226c0.037,0.758,0.09,1.485,0.225,2.191c0.652,3.675,2.792,6.971,5.875,9.054c2.021,1.496,4.224,2.616,6.583,3.354c0.342,0.106,0.6,0.388,0.678,0.737c0.078,0.349-0.037,0.713-0.301,0.955l-0.098,0.09c-0.247,0.227-0.437,0.398-0.634,0.553c-2.566,1.881-5.544,3.188-8.635,3.798c-0.147,0.034-0.197,0.062-0.206,0.066c-0.353,1.465,0.264,2.949,1.479,3.725c0.042-0.053,0.083-0.104,0.125-0.155c1.562-2.31,4.136-3.881,7.001-4.229c1.575-0.157,3.15-0.224,4.699-0.202c2.846,0.223,5.388-1.473,6.269-4.108c0.591-1.538,1.019-3.104,1.285-4.696c0.16-1.184,0.891-2.24,1.941-2.832c-0.275-0.165-0.583-0.277-0.916-0.292c-0.023-0.001-0.048-0.001-0.072-0.001c-0.762,0-1.408,0.523-1.821,0.97c-0.18,0.181-0.308,0.359-0.439,0.536c-0.152,0.204-0.307,0.408-0.478,0.597c-0.468,0.563-1.021,1.112-1.614,1.597c-0.831,0.59-1.43,0.419-1.717,0.271c-0.292-0.151-0.783-0.552-0.783-1.535c0.118-2.02-1.176-3.804-3.075-4.303c-0.535-0.19-1.009-0.303-1.511-0.422c-0.409-0.097-0.818-0.195-1.221-0.319C10.718,9.38,6.47,7.565,2.505,5.226z"/><path d="M21.694,14.75c-0.447,0-0.854-0.302-0.969-0.755c-0.117-0.466-0.522-1.037-0.951-1.641c-1.048-1.478-2.481-3.499-1.605-6.536c0.174-0.912,0.39-1.856,0.609-2.788c-1.86,1.23-3.559,2.9-4.322,5.484c-0.156,0.53-0.713,0.832-1.242,0.676c-0.53-0.156-0.833-0.713-0.676-1.242c1.241-4.2,4.378-6.318,7.283-7.835c0.345-0.181,0.766-0.144,1.073,0.094c0.31,0.238,0.451,0.635,0.364,1.015c-0.119,0.524-0.245,1.051-0.369,1.576c-0.273,1.146-0.555,2.332-0.765,3.44c-0.006,0.033-0.014,0.065-0.023,0.098c-0.631,2.133,0.309,3.458,1.305,4.861c0.539,0.761,1.049,1.479,1.259,2.308c0.135,0.536-0.189,1.079-0.725,1.215C21.858,14.741,21.775,14.75,21.694,14.75z"/></svg>