<svg xmlns="http://www.w3.org/2000/svg" viewBox="0 0 32 32"><!--! Font Icona - https://fonticona.com | License - https://fonticona.com/license | Copyright 2022 FontIcona.com --><path d="M16.019,14.092c-2.936,0-5.325-2.389-5.325-5.325s2.389-5.325,5.325-5.325s5.325,2.389,5.325,5.325S18.955,14.092,16.019,14.092z M16.019,5.443c-1.833,0-3.325,1.492-3.325,3.325s1.492,3.325,3.325,3.325s3.325-1.492,3.325-3.325S17.852,5.443,16.019,5.443z"/><path d="M19.191,4.821h-2V3.512c0-0.82-0.537-1.512-1.172-1.512s-1.172,0.692-1.172,1.512v1.309h-2V3.512C12.847,1.576,14.27,0,16.019,0s3.172,1.576,3.172,3.512V4.821z"/><circle cx="16.019" cy="8.768" r="1.25"/><path d="M24.772,29.727c-1.179,0-2.301-0.695-2.785-1.849l-5.992-14.282c-0.213-0.509,0.026-1.095,0.536-1.309c0.509-0.213,1.095,0.026,1.309,0.536l5.992,14.282c0.217,0.517,0.814,0.76,1.329,0.543l0.31-0.13c0.248-0.104,0.441-0.3,0.545-0.553c0.103-0.252,0.103-0.528-0.001-0.776l-6.699-15.966c-0.213-0.509,0.026-1.095,0.536-1.309c0.508-0.213,1.096,0.026,1.309,0.536l6.698,15.966c0.311,0.74,0.314,1.56,0.008,2.307c-0.305,0.747-0.882,1.33-1.623,1.641l-0.31,0.13C25.555,29.652,25.16,29.727,24.772,29.727z"/><path d="M27.172,32c-0.378,0-0.74-0.215-0.909-0.581l-1.189-2.577c-0.231-0.501-0.012-1.096,0.489-1.327c0.502-0.231,1.096-0.012,1.327,0.489l1.189,2.577c0.231,0.501,0.012,1.096-0.489,1.327C27.455,31.971,27.312,32,27.172,32z"/><path d="M7.265,29.727c-0.389,0-0.783-0.075-1.163-0.234l-0.31-0.13c-0.741-0.311-1.317-0.894-1.622-1.641c-0.306-0.747-0.303-1.566,0.008-2.307L10.877,9.45c0.213-0.509,0.799-0.75,1.309-0.536c0.509,0.214,0.749,0.8,0.536,1.309L6.023,26.189c-0.217,0.517,0.027,1.113,0.543,1.329l0.31,0.13c0.516,0.217,1.113-0.026,1.329-0.543l5.992-14.282c0.213-0.51,0.801-0.75,1.309-0.536c0.509,0.214,0.749,0.8,0.536,1.309L10.05,27.878C9.566,29.032,8.444,29.727,7.265,29.727z"/><path d="M4.865,32c-0.14,0-0.283-0.029-0.418-0.092c-0.501-0.231-0.72-0.826-0.489-1.327l1.189-2.577c0.231-0.501,0.826-0.72,1.327-0.489c0.501,0.231,0.72,0.826,0.489,1.327l-1.189,2.577C5.604,31.785,5.243,32,4.865,32z"/><path d="M28.912,24.052h-2.929c-0.552,0-1-0.448-1-1s0.448-1,1-1h2.929c0.552,0,1,0.448,1,1S29.464,24.052,28.912,24.052z"/><path d="M21.047,24.052H10.99c-0.552,0-1-0.448-1-1s0.448-1,1-1h10.057c0.552,0,1,0.448,1,1S21.599,24.052,21.047,24.052z"/><path d="M6.054,24.052H3.088c-0.552,0-1-0.448-1-1s0.448-1,1-1h2.966c0.552,0,1,0.448,1,1S6.606,24.052,6.054,24.052z"/><path d="M16.178,25.563c-0.552,0-1-0.448-1-1v-3.149c0-0.552,0.448-1,1-1s1,0.448,1,1v3.149C17.178,25.116,16.73,25.563,16.178,25.563z"/></svg>