<svg xmlns="http://www.w3.org/2000/svg" viewBox="0 0 32 32"><!--! Font Icona - https://fonticona.com | License - https://fonticona.com/license | Copyright 2022 FontIcona.com --><path d="M10.564,12.894c-1.806,0-3.276-1.475-3.276-3.287s1.47-3.287,3.276-3.287s3.275,1.475,3.275,3.287S12.37,12.894,10.564,12.894z M10.564,8.32c-0.704,0-1.276,0.577-1.276,1.287s0.572,1.287,1.276,1.287c0.703,0,1.275-0.577,1.275-1.287S11.267,8.32,10.564,8.32z"/><path d="M22.249,29.574c-0.296,0-0.589-0.131-0.787-0.382c-0.341-0.435-0.266-1.063,0.168-1.404l4.167-3.274l-4.167-3.274c-0.435-0.341-0.51-0.97-0.168-1.404s0.97-0.51,1.404-0.168l5.168,4.061c0.241,0.189,0.382,0.479,0.382,0.786s-0.141,0.597-0.382,0.786l-5.168,4.061C22.683,29.505,22.465,29.574,22.249,29.574z"/><path d="M22.248,29.574c-0.552,0-1-0.447-1-1v-8.121c0-0.553,0.448-1,1-1s1,0.447,1,1v8.121C23.248,29.127,22.8,29.574,22.248,29.574z"/><path d="M22.248,25.513H6.844c-0.381,0-0.729-0.217-0.897-0.56c-0.168-0.342-0.127-0.75,0.106-1.052l8.499-11.001c3.174-5.239,0.384-7.281,0.263-7.365C12.516,4.268,9.77,8.461,9.742,8.503c-0.296,0.467-0.914,0.606-1.38,0.31c-0.466-0.295-0.605-0.913-0.31-1.38c0.152-0.239,3.765-5.844,7.81-3.598c0.113,0.07,4.629,3.174,0.368,10.154c-0.019,0.031-0.04,0.062-0.062,0.091L8.88,23.513h13.368c0.552,0,1,0.447,1,1S22.8,25.513,22.248,25.513z"/><path d="M15.376,25.513c-0.18,0-0.361-0.048-0.525-0.149c-0.469-0.291-0.615-0.907-0.324-1.377l6.564-10.609c1.242-2.17,1.24-4.129-0.024-6.134c-1.388-2.2-4.211-3.117-6.136-2.733c-1.005,0.199-4.061,0.806-5.14,3.925C9.611,8.956,9.042,9.231,8.52,9.053c-0.521-0.181-0.798-0.75-0.618-1.272c0.964-2.789,3.198-4.549,6.639-5.231c3.005-0.6,6.536,0.962,8.218,3.628c1.655,2.625,1.672,5.392,0.051,8.224L16.228,25.04C16.039,25.345,15.711,25.513,15.376,25.513z"/><path d="M1.697,17.894H1c-0.552,0-1-0.447-1-1v-5.669c0-0.553,0.448-1,1-1h0.697c2.158,0,3.913,1.72,3.913,3.834S3.854,17.894,1.697,17.894z M2,12.249v3.622c0.911-0.14,1.61-0.898,1.61-1.812C3.61,13.147,2.911,12.388,2,12.249z"/><path d="M28.087,17.894H27.39c-0.552,0-1-0.447-1-1v-5.669c0-0.553,0.448-1,1-1h0.697c2.158,0,3.913,1.72,3.913,3.834S30.245,17.894,28.087,17.894z M28.39,12.249v3.622c0.911-0.14,1.61-0.898,1.61-1.812C30,13.147,29.301,12.388,28.39,12.249z"/></svg>