<svg xmlns="http://www.w3.org/2000/svg" viewBox="0 0 32 32"><!--! Font Icona - https://fonticona.com | License - https://fonticona.com/license | Copyright 2022 FontIcona.com --><ellipse transform="matrix(0.4755 -0.8797 0.8797 0.4755 1.1355 23.6778)" cx="20.424" cy="10.887" rx="1.436" ry="1.914"/><path d="M22.254,31.355H4.294c-0.384,0-0.734-0.22-0.901-0.566c-2.342-4.87-1.657-9.321-0.414-12.522L1.64,19.381C1.331,19.64,0.897,19.685,0.54,19.5c-0.357-0.185-0.569-0.567-0.536-0.968c0.402-4.986,3.145-7.712,5.405-9.129L4.389,9.214c-0.334-0.062-0.613-0.29-0.743-0.604C3.518,8.296,3.557,7.938,3.751,7.66c0.046-0.066,4.468-6.263,12.358-4.776l0.126-1.333c0.034-0.361,0.262-0.676,0.594-0.821s0.717-0.101,1.007,0.119c1.496,1.136,2.607,2.677,3.214,4.456l0.005,0.015l0.791,0.048c1.042,0.063,2.021,0.443,2.834,1.098l0.515,0.415c1.041,0.839,1.588,2.132,1.496,3.437l4.856,3.177c0.352,0.23,0.522,0.655,0.426,1.064l-1.321,5.659c-0.079,0.339-0.329,0.612-0.66,0.722c-0.33,0.11-0.694,0.04-0.96-0.186l-2.035-1.712c-1.222-1.021-2.7-1.692-4.273-1.941l-0.644-0.102l0.94,1.282c0.555,0.757,1.224,1.417,1.988,1.962l2.366,1.687c0.272,0.194,0.43,0.512,0.419,0.847s-0.188,0.642-0.473,0.818l-1.803,1.117l-1.731,1.84c-0.233,0.249-0.577,0.364-0.913,0.298c-0.335-0.063-0.615-0.292-0.743-0.608l-0.782-1.936c-0.292-0.463-0.706-0.832-1.201-1.071l-2.057-0.992c-0.159-0.077-0.294-0.194-0.393-0.34l-2.082-3.071l0.227,0.567c0.953,2.381,2.28,4.579,3.945,6.529l3.226,3.78c0.253,0.296,0.311,0.713,0.147,1.068C22.999,31.128,22.644,31.355,22.254,31.355z M4.937,29.355h15.149l-1.818-2.131c-1.807-2.117-3.247-4.5-4.281-7.085l-0.862-2.157c-0.164-0.411-0.039-0.882,0.309-1.156c0.544-0.429,1.248-0.614,1.933-0.508c0.685,0.106,1.3,0.496,1.689,1.069l2.147,3.168l1.815,0.875c0.87,0.42,1.591,1.08,2.086,1.908c0.026,0.044,0.049,0.091,0.069,0.139l0.228,0.564l0.75-0.798c0.06-0.063,0.127-0.119,0.202-0.165l0.637-0.395l-1.143-0.814c-0.938-0.668-1.758-1.479-2.439-2.408l-2.375-3.239c-0.239-0.327-0.258-0.766-0.047-1.112c0.211-0.345,0.605-0.532,1.01-0.467l3.041,0.479c1.932,0.305,3.745,1.129,5.245,2.382l0.796,0.665l0.791-3.387l-4.812-3.148c-0.36-0.235-0.529-0.674-0.42-1.09c0.203-0.777-0.069-1.605-0.695-2.109l-0.515-0.415c-0.488-0.393-1.076-0.621-1.701-0.659l-1.459-0.089C19.86,7.25,19.51,6.983,19.379,6.599L19.157,5.95c-0.262-0.769-0.644-1.48-1.13-2.114l-0.035,0.374c-0.028,0.294-0.185,0.561-0.427,0.729c-0.243,0.167-0.55,0.219-0.833,0.142C11.675,3.69,8.18,6.016,6.511,7.574l2.383,0.442C9.36,8.103,9.702,8.504,9.711,8.979c0.009,0.474-0.315,0.89-0.777,0.996c-0.221,0.052-4.786,1.185-6.412,6.069l3.488-2.905c0.402-0.335,0.995-0.302,1.36,0.076c0.364,0.377,0.373,0.973,0.022,1.363C7.143,14.854,1.466,21.308,4.937,29.355z"/></svg>