<svg xmlns="http://www.w3.org/2000/svg" viewBox="0 0 32 32"><!--! Font Icona - https://fonticona.com | License - https://fonticona.com/license | Copyright 2022 FontIcona.com --><path d="M29,32H3c-1.654,0-3-1.346-3-3V12.118c0-1.654,1.346-3,3-3h15.138v2H3c-0.551,0-1,0.448-1,1V29c0,0.552,0.449,1,1,1h26c0.551,0,1-0.448,1-1V12.118c0-0.552-0.449-1-1-1h-3.303v-2H29c1.654,0,3,1.346,3,3V29C32,30.654,30.654,32,29,32z"/><rect x="9.262" y="10.118" width="2" height="20.882"/><path d="M5.597,28.037c-1.599,0-2.9-1.3-2.9-2.898c0-1.598,1.301-2.897,2.9-2.897s2.9,1.3,2.9,2.897C8.498,26.737,7.196,28.037,5.597,28.037z M5.597,24.241c-0.497,0-0.9,0.402-0.9,0.897s0.404,0.898,0.9,0.898s0.9-0.403,0.9-0.898S6.094,24.241,5.597,24.241z"/><path d="M6.479,15.264H4.715c-0.552,0-1-0.447-1-1s0.448-1,1-1h1.765c0.552,0,1,0.447,1,1S7.032,15.264,6.479,15.264z"/><path d="M6.479,18.247H4.715c-0.552,0-1-0.447-1-1s0.448-1,1-1h1.765c0.552,0,1,0.447,1,1S7.032,18.247,6.479,18.247z"/><rect x="25.723" y="2.63" transform="matrix(0.7072 -0.707 0.707 0.7072 4.0933 20.4385)" class="st0" width="2" height="5.294"/><path class="st0" d="M14.833,18.288c-0.294,0-0.582-0.115-0.795-0.33c-0.312-0.312-0.41-0.781-0.251-1.193l1.948-5.089c0.235-0.612,0.588-1.156,1.05-1.618l9.41-9.411c0.863-0.861,2.265-0.861,3.125,0l2.033,2.032C31.771,3.097,32.001,3.652,32,4.243c0,0.59-0.23,1.145-0.648,1.562l-9.41,9.41c-0.461,0.462-1.006,0.815-1.618,1.05l-5.092,1.949C15.103,18.264,14.968,18.288,14.833,18.288z M15.655,17.479l-0.001,0.003C15.654,17.48,15.654,17.479,15.655,17.479z M27.759,2c-0.054,0-0.108,0.021-0.149,0.062l-9.41,9.41c-0.262,0.263-0.463,0.572-0.597,0.92l-1.245,3.251l3.252-1.245c0.347-0.134,0.656-0.334,0.918-0.597h0l9.411-9.411C29.99,4.339,30,4.281,30,4.241c0-0.039-0.011-0.098-0.062-0.148l-2.032-2.032C27.866,2.02,27.812,2,27.759,2z"/></svg>