<svg xmlns="http://www.w3.org/2000/svg" viewBox="0 0 32 32"><!--! Font Icona - https://fonticona.com | License - https://fonticona.com/license | Copyright 2022 FontIcona.com --><path d="M10.928,5.207c-0.505,0-0.938-0.381-0.993-0.894c-0.103-0.955-0.39-1.289-0.393-1.292C9.273,2.793,9.17,2.463,9.229,2.116s0.32-0.615,0.648-0.742l3.357-1.306c0.514-0.201,1.095,0.054,1.294,0.569c0.2,0.515-0.055,1.094-0.569,1.294l-2.303,0.896c0.114,0.342,0.212,0.761,0.267,1.273c0.06,0.549-0.338,1.042-0.888,1.101C10.999,5.205,10.963,5.207,10.928,5.207z"/><path d="M16.186,32c-5.385,0-8.682-1.098-8.819-1.145c-0.361-0.123-0.621-0.44-0.67-0.818c-0.626-4.805,0.245-9.851,2.521-14.593l0.288-0.594c1.259-2.583,1.846-4.005,0.34-5.602c-1.418-1.502-0.75-3-0.309-3.991c0.186-0.416,0.361-0.81,0.398-1.156c0.059-0.55,0.557-0.953,1.1-0.889c0.55,0.059,0.947,0.551,0.889,1.1c-0.07,0.661-0.33,1.245-0.56,1.76c-0.459,1.03-0.521,1.32-0.063,1.804c2.525,2.677,1.243,5.308,0.003,7.851L11.02,16.31c-2.004,4.178-2.834,8.596-2.415,12.821C9.739,29.426,12.431,30,16.186,30c0.553,0,1,0.447,1,1S16.738,32,16.186,32z"/><path d="M16.165,3.646c-2.168,0-3.568-1.038-3.568-2.646c0-0.553,0.447-1,1-1s1,0.447,1,1c0,0.474,0.938,0.646,1.568,0.646c0.553,0,1,0.447,1,1S16.718,3.646,16.165,3.646z"/><path d="M21.072,5.207c-0.035,0-0.071-0.002-0.107-0.006c-0.55-0.059-0.947-0.552-0.888-1.101c0.055-0.513,0.152-0.932,0.267-1.273l-2.303-0.896c-0.515-0.2-0.77-0.779-0.569-1.294c0.199-0.516,0.779-0.771,1.294-0.569l3.357,1.306c0.328,0.127,0.565,0.418,0.624,0.765c0.058,0.346-0.068,0.697-0.335,0.926c0.001-0.001,0.002-0.001,0.002-0.001c0.01,0-0.252,0.349-0.349,1.25C22.011,4.826,21.577,5.207,21.072,5.207z"/><path d="M15.814,32c-0.553,0-1-0.447-1-1s0.447-1,1-1c3.755,0,6.446-0.574,7.581-0.869c0.419-4.226-0.411-8.644-2.415-12.821l-0.283-0.583c-1.24-2.543-2.522-5.174,0.003-7.851c0.457-0.483,0.396-0.773-0.063-1.804c-0.229-0.515-0.489-1.099-0.56-1.76c-0.059-0.549,0.339-1.041,0.889-1.1c0.542-0.059,1.042,0.34,1.1,0.889c0.037,0.347,0.213,0.74,0.398,1.156c0.441,0.991,1.109,2.489-0.309,3.991c-1.506,1.597-0.919,3.019,0.34,5.602l0.288,0.594c2.275,4.742,3.146,9.788,2.521,14.593c-0.049,0.378-0.309,0.695-0.67,0.818C24.496,30.902,21.199,32,15.814,32z M24.312,29.908h0.01H24.312z"/><path d="M15.835,3.646c-0.553,0-1-0.447-1-1s0.447-1,1-1c0.631,0,1.568-0.172,1.568-0.646c0-0.553,0.447-1,1-1s1,0.447,1,1C19.403,2.607,18.003,3.646,15.835,3.646z"/></svg>