<svg xmlns="http://www.w3.org/2000/svg" viewBox="0 0 32 32"><!--! Font Icona - https://fonticona.com | License - https://fonticona.com/license | Copyright 2022 FontIcona.com --><path d="M16,32C7.178,32,0,24.822,0,16S7.178,0,16,0s16,7.178,16,16S24.822,32,16,32z M16,2C8.28,2,2,8.28,2,16s6.28,14,14,14s14-6.28,14-14S23.72,2,16,2z"/><path d="M22.424,29.231C19.257,12.603,10.568,2.536,10.48,2.437l1.503-1.319c0.371,0.423,9.13,10.546,12.405,27.739L22.424,29.231z"/><path d="M1.475,15.171c-0.264,0-0.434-0.003-0.495-0.004l0.041-2c0.189,0.001,18.628,0.278,25.131-8.044l1.576,1.232C21.157,14.762,4.622,15.171,1.475,15.171z"/><path d="M6.459,27.321l-1.718-1.023c0.083-0.139,8.485-13.868,26.42-10.275l-0.393,1.961C14.237,14.668,6.77,26.804,6.459,27.321z"/></svg>