<svg xmlns="http://www.w3.org/2000/svg" viewBox="0 0 32 32"><!--! Font Icona - https://fonticona.com | License - https://fonticona.com/license | Copyright 2022 FontIcona.com --><path d="M11.666,27.264c-3.092,0-5.606-2.741-5.606-6.11c0-3.37,2.515-6.111,5.606-6.111c1.254,0,2.439,0.441,3.429,1.275c0.423,0.356,0.476,0.987,0.12,1.409c-0.357,0.421-0.987,0.476-1.409,0.12c-0.624-0.526-1.364-0.805-2.14-0.805c-1.988,0-3.606,1.845-3.606,4.111s1.618,4.11,3.606,4.11s3.605-1.844,3.605-4.11c0-0.553,0.447-1,1-1s1,0.447,1,1C17.271,24.522,14.757,27.264,11.666,27.264z"/><path d="M20.564,26.429c-1.398,0-2.733-0.837-3.938-2.455c-0.495,0.848-1.075,1.589-1.76,2.159c-0.426,0.355-1.056,0.297-1.408-0.127c-0.354-0.425-0.297-1.055,0.127-1.408c0.738-0.616,1.337-1.532,1.829-2.604c-0.038-0.073-0.075-0.147-0.113-0.223c-1.346-2.715-2.151-5.431-2.396-8.071c-0.235-2.558-0.529-5.742,0.605-8.246c0.649-1.432,2.122-2.219,3.669-1.97c1.525,0.251,2.613,1.446,2.772,3.045c0.199,1.987,0.075,4.235-0.39,7.074l-0.057,0.347c-0.354,2.184-0.854,5.261-1.881,7.916c1.022,1.723,2.13,2.637,3.079,2.557c1.237-0.112,1.932-2.111,2.078-3.345c0.09-0.758,0.101-1.534,0.111-2.355c0.01-0.651,0.02-1.303,0.067-1.946c0.007-0.095,0.003-0.224,0-0.369c-0.015-0.812-0.035-1.925,0.788-2.446c1.012-0.641,1.803,0.121,2.183,0.486c0.398,0.383,0.893,0.858,1.904,1.16c0.529,0.157,0.831,0.714,0.673,1.243c-0.156,0.529-0.712,0.832-1.243,0.673c-1.108-0.329-1.822-0.833-2.307-1.252c0,0.036,0.001,0.069,0.002,0.1c0.004,0.219,0.005,0.414-0.006,0.555c-0.045,0.604-0.053,1.214-0.062,1.825c-0.012,0.836-0.023,1.7-0.125,2.562c-0.285,2.391-1.596,4.895-3.884,5.102C20.778,26.424,20.671,26.429,20.564,26.429z M16.622,5.438c-0.461,0-1.006,0.214-1.289,0.84c-0.917,2.022-0.65,4.914-0.436,7.237c0.174,1.887,0.67,3.826,1.478,5.784c0.559-1.986,0.898-4.084,1.156-5.672l0.057-0.349c0.437-2.661,0.555-4.743,0.374-6.553c-0.1-0.998-0.807-1.22-1.106-1.27C16.781,5.445,16.703,5.438,16.622,5.438z"/><path d="M29,32H3c-1.654,0-3-1.346-3-3V3c0-1.654,1.346-3,3-3h26c1.654,0,3,1.346,3,3v26C32,30.654,30.654,32,29,32z M3,2C2.448,2,2,2.448,2,3v26c0,0.552,0.448,1,1,1h26c0.552,0,1-0.448,1-1V3c0-0.552-0.448-1-1-1H3z"/></svg>