<svg xmlns="http://www.w3.org/2000/svg" viewBox="0 0 32 32"><!--! Font Icona - https://fonticona.com | License - https://fonticona.com/license | Copyright 2022 FontIcona.com --><path d="M15.665,32c-4.104,0-7.45-1.878-9.674-5.436c-2.49-3.983-2.493-8.213-0.006-12.23c1.613-2.607,3.429-5.286,5.186-7.876c1.315-1.938,2.674-3.943,3.918-5.875c0.071-0.157,0.183-0.298,0.333-0.402c0.193-0.136,0.422-0.188,0.649-0.166c0.222,0.016,0.432,0.104,0.598,0.253c0.055,0.047,0.106,0.101,0.151,0.16c0.042,0.055,0.077,0.112,0.105,0.173c1.241,1.927,2.596,3.925,3.907,5.857c1.756,2.59,3.572,5.269,5.186,7.876c2.486,4.018,2.483,8.247-0.007,12.23C23.786,30.121,20.44,32,16.331,32c-0.022,0-0.044,0-0.067,0h-0.532C15.709,32,15.687,32,15.665,32z M16,2.848c-1.035,1.576-2.119,3.176-3.175,4.733c-1.745,2.572-3.549,5.233-5.14,7.806c-2.087,3.373-2.087,6.776,0.002,10.117C9.551,28.487,12.237,30,15.668,30c0.02,0,0.039,0,0.058,0h0.542c0.019,0,0.039,0,0.058,0c3.437,0,6.122-1.512,7.987-4.496c2.089-3.341,2.089-6.744,0.002-10.117c-1.592-2.572-3.396-5.233-5.141-7.806C18.119,6.023,17.035,4.424,16,2.848z"/><path d="M16,19.079c-0.552,0-1-0.447-1-1v-4.975c0-0.553,0.448-1,1-1s1,0.447,1,1v4.975C17,18.632,16.552,19.079,16,19.079z"/><path d="M18.487,16.592h-4.975c-0.552,0-1-0.447-1-1s0.448-1,1-1h4.975c0.552,0,1,0.447,1,1S19.04,16.592,18.487,16.592z"/><path d="M18.487,24.524h-4.975c-0.552,0-1-0.447-1-1s0.448-1,1-1h4.975c0.552,0,1,0.447,1,1S19.04,24.524,18.487,24.524z"/><path d="M31,32c-0.256,0-0.512-0.098-0.707-0.293l-5.513-5.513c-0.391-0.391-0.391-1.023,0-1.414s1.023-0.391,1.414,0l5.513,5.513c0.391,0.391,0.391,1.023,0,1.414C31.512,31.902,31.256,32,31,32z"/><path d="M9.991,10.991c-0.256,0-0.512-0.098-0.707-0.293L0.293,1.707c-0.391-0.391-0.391-1.023,0-1.414s1.023-0.391,1.414,0l8.991,8.991c0.391,0.391,0.391,1.023,0,1.414C10.502,10.894,10.247,10.991,9.991,10.991z"/></svg>