<svg xmlns="http://www.w3.org/2000/svg" viewBox="0 0 32 32"><!--! Font Icona - https://fonticona.com | License - https://fonticona.com/license | Copyright 2022 FontIcona.com --><path d="M20.932,24.778c-0.368,0-0.722-0.203-0.896-0.556l-4.002-8.058l-4.002,8.058c-0.245,0.496-0.846,0.698-1.34,0.451c-0.495-0.245-0.697-0.846-0.451-1.34l4.897-9.861c0.338-0.682,1.453-0.682,1.791,0l4.897,9.861c0.246,0.494,0.044,1.095-0.451,1.34C21.232,24.745,21.081,24.778,20.932,24.778z"/><rect x="12.258" y="20.513" width="7.551" height="2"/><path d="M16.554,32c-0.105,0-0.21-0.001-0.315-0.004h-0.505c-3.976,0.086-7.73-1.994-9.748-5.461c-2.48-3.677-2.48-8.5,0.035-12.233c1.558-2.499,3.324-5.102,5.032-7.618c1.383-2.038,2.813-4.146,4.117-6.178c0.145-0.25,0.393-0.436,0.688-0.489c0.477-0.088,0.956,0.203,1.134,0.64c1.215,1.895,2.538,3.853,3.818,5.749c1.765,2.61,3.588,5.31,5.193,7.934c2.491,3.696,2.491,8.52-0.024,12.252C24.059,29.928,20.455,32,16.554,32z M16.267,29.996c3.29,0.127,6.376-1.615,8.018-4.463c2.095-3.113,2.095-7.06,0.037-10.114c-1.605-2.622-3.416-5.302-5.168-7.895c-1.038-1.537-2.104-3.114-3.122-4.672c-1.082,1.65-2.218,3.324-3.324,4.954c-1.697,2.501-3.452,5.087-5.009,7.583c-2.077,3.084-2.077,7.03-0.02,10.084c1.647,2.826,4.611,4.525,7.808,4.525c0.074,0,0.147-0.001,0.223-0.003H16.267z"/></svg>