<svg xmlns="http://www.w3.org/2000/svg" viewBox="0 0 32 32"><!--! Font Icona - https://fonticona.com | License - https://fonticona.com/license | Copyright 2022 FontIcona.com --><path d="M23.5,12.362c-0.154,0-0.308-0.039-0.446-0.116l-7.5-4.16c-0.293-0.162-0.475-0.47-0.475-0.805s0.182-0.643,0.475-0.805l7.5-4.161c0.277-0.154,0.615-0.154,0.893,0l7.5,4.161c0.293,0.162,0.475,0.47,0.475,0.805s-0.182,0.643-0.475,0.805l-7.5,4.16C23.808,12.323,23.654,12.362,23.5,12.362z M17.897,7.281l5.603,3.107l5.603-3.107L23.5,4.173L17.897,7.281z"/><path d="M8.5,12.362c-0.154,0-0.308-0.039-0.446-0.116l-7.5-4.16c-0.293-0.162-0.475-0.47-0.475-0.805s0.182-0.643,0.475-0.805l7.5-4.161c0.277-0.154,0.615-0.154,0.893,0l7.5,4.161c0.293,0.162,0.475,0.47,0.475,0.805s-0.182,0.643-0.475,0.805l-7.5,4.16C8.808,12.323,8.654,12.362,8.5,12.362z M2.897,7.281L8.5,10.389l5.603-3.107L8.5,4.173L2.897,7.281z"/><path d="M23.5,21.037c-0.154,0-0.308-0.039-0.446-0.116l-7.5-4.16c-0.293-0.162-0.475-0.47-0.475-0.805s0.182-0.643,0.475-0.805l7.5-4.161c0.277-0.154,0.615-0.154,0.893,0l7.5,4.161c0.293,0.162,0.475,0.47,0.475,0.805s-0.182,0.643-0.475,0.805l-7.5,4.16C23.808,20.998,23.654,21.037,23.5,21.037z M17.897,15.956l5.603,3.107l5.603-3.107L23.5,12.848L17.897,15.956z"/><path d="M8.5,21.037c-0.154,0-0.308-0.039-0.446-0.116l-7.5-4.16c-0.293-0.162-0.475-0.47-0.475-0.805s0.182-0.643,0.475-0.805l7.5-4.161c0.277-0.154,0.615-0.154,0.893,0l7.5,4.161c0.293,0.162,0.475,0.47,0.475,0.805s-0.182,0.643-0.475,0.805l-7.5,4.16C8.808,20.998,8.654,21.037,8.5,21.037z M2.897,15.956L8.5,19.063l5.603-3.107L8.5,12.848L2.897,15.956z"/><path d="M16,29.828c-0.093,0-0.186-0.014-0.275-0.041L5.031,26.545c-0.399-0.121-0.673-0.489-0.673-0.907v-6.95c0-0.523,0.425-0.948,0.948-0.948s0.948,0.425,0.948,0.948v6.247L16,27.89l9.745-2.955v-6.247c0-0.523,0.425-0.948,0.948-0.948s0.948,0.425,0.948,0.948v6.95c0,0.418-0.273,0.786-0.673,0.907l-10.693,3.242C16.186,29.814,16.093,29.828,16,29.828z"/></svg>