<svg xmlns="http://www.w3.org/2000/svg" viewBox="0 0 32 32"><!--! Font Icona - https://fonticona.com | License - https://fonticona.com/license | Copyright 2022 FontIcona.com --><path d="M10.016,32c-0.754,0-1.452-0.442-1.882-1.232c-0.034-0.063-0.062-0.129-0.082-0.198c-0.347-1.189-1.495-1.943-2.72-1.79c-0.166,0.021-0.335-0.001-0.492-0.063c-1.148-0.456-1.794-1.362-1.729-2.423c0.082-1.332,1.242-2.482,2.957-2.931c0.058-0.015,0.117-0.025,0.176-0.03c0.542-0.042,1.07-0.171,1.57-0.382c0.864-0.617,1.458-1.819,2.032-2.982c0.318-0.645,0.646-1.311,1.03-1.899l1.676,1.091c-0.319,0.49-0.607,1.075-0.913,1.693c-0.673,1.364-1.436,2.91-2.784,3.809c-0.047,0.032-0.097,0.059-0.149,0.082c-0.703,0.312-1.445,0.505-2.209,0.575c-0.927,0.265-1.371,0.796-1.389,1.097c-0.009,0.149,0.132,0.269,0.28,0.353c2.065-0.127,3.912,1.15,4.546,3.116c0.063,0.097,0.107,0.123,0.107,0.123c-0.002-0.009,0.143-0.065,0.317-0.289c0.248-0.319,0.473-0.902,0.38-1.601c-0.232-0.727-0.349-1.482-0.346-2.246c0-0.055,0.005-0.11,0.014-0.164c0.291-1.717,1.562-3.406,2.684-4.896c0.338-0.45,0.662-0.878,0.931-1.276l1.657,1.119c-0.286,0.424-0.629,0.881-0.99,1.36c-0.964,1.281-2.053,2.729-2.295,3.95c0.007,0.547,0.098,1.088,0.271,1.608c0.017,0.051,0.03,0.103,0.039,0.155c0.293,1.812-0.615,3.678-2.024,4.16C10.456,31.963,10.233,32,10.016,32z"/><path d="M16.134,21.178c-0.199,0-0.395-0.007-0.589-0.022c-1.989-0.145-5.32-0.388-5.072-4.297c0-0.008,0.001-0.016,0.002-0.023c0.045-0.522,0.086-1.071,0.127-1.636c0.351-4.747,0.787-10.654,4.899-13.703c2.245-1.689,5.125-1.973,7.894-0.771c2.988,1.296,5.127,4.081,5.45,7.094c0.331,2.945-1.013,6.229-3.687,9.006C22.535,19.549,19.131,21.178,16.134,21.178z M12.467,16.997c-0.097,1.58,0.479,1.965,3.224,2.165c2.559,0.196,5.632-1.237,8.025-3.723c2.227-2.312,3.4-5.079,3.14-7.401c-0.248-2.314-1.919-4.462-4.258-5.477c-2.09-0.906-4.242-0.711-5.9,0.538c-3.382,2.508-3.781,7.909-4.102,12.248C12.554,15.917,12.513,16.47,12.467,16.997z"/></svg>