<svg xmlns="http://www.w3.org/2000/svg" viewBox="0 0 32 32"><!--! Font Icona - https://fonticona.com | License - https://fonticona.com/license | Copyright 2022 FontIcona.com --><path d="M10,32c-0.751,0-1.446-0.439-1.874-1.226c-0.034-0.062-0.062-0.128-0.082-0.197c-0.349-1.191-1.497-1.948-2.729-1.796c-0.167,0.021-0.335-0.001-0.491-0.063c-1.145-0.455-1.789-1.363-1.721-2.427c0.083-1.313,1.267-2.485,2.946-2.917c0.052-0.014,0.104-0.023,0.158-0.027c0.543-0.05,1.072-0.182,1.572-0.393c0.862-0.611,1.457-1.809,2.033-2.968c0.321-0.646,0.653-1.315,1.041-1.904l1.671,1.099c-0.321,0.488-0.612,1.074-0.92,1.695c-0.675,1.36-1.441,2.901-2.787,3.792c-0.047,0.031-0.097,0.058-0.149,0.081c-0.696,0.307-1.433,0.502-2.19,0.581c-0.918,0.256-1.359,0.786-1.378,1.088c-0.009,0.15,0.128,0.269,0.274,0.352c2.048-0.118,3.917,1.154,4.553,3.122c0.05,0.076,0.088,0.109,0.102,0.117c-0.005-0.01,0.142-0.067,0.318-0.292c0.248-0.319,0.475-0.9,0.389-1.595c-0.24-0.727-0.359-1.483-0.354-2.249c0-0.055,0.005-0.109,0.014-0.163c0.288-1.677,1.554-3.362,2.671-4.849c0.348-0.464,0.681-0.906,0.954-1.313l1.661,1.114c-0.292,0.434-0.645,0.906-1.017,1.4c-0.959,1.277-2.044,2.721-2.284,3.908c0.006,0.542,0.099,1.078,0.276,1.592c0.02,0.056,0.034,0.114,0.043,0.173c0.284,1.813-0.633,3.677-2.044,4.155C10.436,31.963,10.215,32,10,32z"/><path d="M15.943,21.172c-0.122,0-0.244-0.002-0.366-0.006c-2.158-0.155-5.361-0.387-5.118-4.287c0.052-0.569,0.095-1.136,0.141-1.722c0.363-4.712,0.816-10.578,4.918-13.663c2.268-1.688,5.148-1.967,7.905-0.767c2.973,1.293,5.11,4.076,5.443,7.09c0.132,1.555-0.125,3.105-0.741,4.51c-0.116,0.264-0.339,0.465-0.614,0.552c-0.274,0.086-0.573,0.052-0.819-0.097c-0.556-0.336-1.192-0.515-1.841-0.519c-2.007,0-3.645,1.638-3.645,3.65c0,0,0,0,0,0.001c-0.001,0.786,0.258,1.565,0.729,2.195c0.168,0.225,0.234,0.511,0.181,0.787c-0.053,0.276-0.22,0.517-0.459,0.664C19.93,20.619,17.962,21.172,15.943,21.172z M20.032,1.999c-1.196,0-2.338,0.369-3.316,1.097C13.34,5.635,12.926,11,12.594,15.311c-0.046,0.596-0.091,1.172-0.141,1.722c-0.103,1.668,0.556,1.944,3.23,2.137c1.38,0.049,2.785-0.244,4.062-0.846c-0.352-0.751-0.539-1.579-0.538-2.411c0-3.115,2.535-5.649,5.65-5.649c0.609,0.003,1.209,0.105,1.779,0.299c0.23-0.827,0.312-1.693,0.24-2.551c-0.253-2.289-1.923-4.438-4.25-5.45C21.76,2.185,20.882,1.999,20.032,1.999z M20.206,15.914h0.01H20.206z"/></svg>