<svg xmlns="http://www.w3.org/2000/svg" viewBox="0 0 32 32"><!--! Font Icona - https://fonticona.com | License - https://fonticona.com/license | Copyright 2022 FontIcona.com --><path d="M16,18.379c-7.706,0-16-1.545-16-4.938s8.294-4.938,16-4.938s16,1.545,16,4.938S23.706,18.379,16,18.379z M16,10.503c-9.237,0-14,2.06-14,2.938s4.763,2.938,14,2.938c9.237,0,14-2.06,14-2.938S25.237,10.503,16,10.503z"/><rect y="13.441" width="2" height="13.621"/><path d="M16,32c-7.706,0-16-1.545-16-4.938h2C2,27.94,6.763,30,16,30c9.237,0,14-2.06,14-2.938V13.441h2v13.621C32,30.455,23.706,32,16,32z"/><rect x="7.978" y="16.921" width="2" height="13.582"/><rect x="22.022" y="16.921" width="2" height="13.676"/><path d="M11.406,13.493c-0.283,0-0.564-0.12-0.762-0.352L0.866,1.648c-0.358-0.42-0.307-1.052,0.114-1.41C1.4-0.12,2.032-0.068,2.39,0.352l9.778,11.493c0.358,0.42,0.307,1.052-0.114,1.41C11.866,13.415,11.635,13.493,11.406,13.493z"/><ellipse cx="12.381" cy="13.669" rx="1.5" ry="1.491"/><path d="M19.902,13.493c-0.229,0-0.46-0.078-0.648-0.238c-0.42-0.358-0.471-0.989-0.113-1.41l9.777-11.493c0.358-0.422,0.99-0.471,1.41-0.114c0.42,0.358,0.471,0.989,0.113,1.41l-9.777,11.493C20.466,13.374,20.185,13.493,19.902,13.493z"/><ellipse cx="18.927" cy="13.669" rx="1.5" ry="1.491"/></svg>