<svg xmlns="http://www.w3.org/2000/svg" viewBox="0 0 32 32"><!--! Font Icona - https://fonticona.com | License - https://fonticona.com/license | Copyright 2022 FontIcona.com --><path d="M16.243,32c-0.088,0-0.177-0.001-0.266-0.003c-3.751-0.086-7.179-1.83-9.402-4.786c-2.113-2.809-2.816-6.349-1.928-9.712c0.938-3.551,3.101-6.449,5.299-9.053c0.396-0.468,0.81-0.931,1.227-1.396c1.752-1.955,3.407-3.802,3.842-6.228C15.101,0.346,15.516,0,16,0s0.899,0.347,0.984,0.823c0.436,2.426,2.09,4.272,3.842,6.228c0.417,0.465,0.832,0.928,1.227,1.396c2.198,2.604,4.361,5.502,5.299,9.052c0,0.001,0,0.001,0,0.001c0.929,3.52,0.148,7.206-2.145,10.112C23.001,30.41,19.746,32,16.243,32z M16,3.986c-0.866,1.642-2.115,3.035-3.337,4.399c-0.404,0.45-0.805,0.898-1.188,1.352c-2.047,2.424-4.057,5.104-4.894,8.272c-0.73,2.767-0.15,5.683,1.592,7.999c1.853,2.464,4.714,3.917,7.85,3.988c2.964,0.069,5.745-1.253,7.615-3.624c1.899-2.409,2.549-5.457,1.781-8.364v0.001c-0.837-3.168-2.847-5.849-4.894-8.272c-0.383-0.453-0.784-0.901-1.188-1.352C18.115,7.021,16.866,5.628,16,3.986z"/><path d="M20.137,31.238c-0.302,0-0.601-0.137-0.798-0.396c-0.333-0.44-0.248-1.067,0.192-1.401c2.79-2.116,1.575-4.964,1.303-5.514c-1.495-3.023-4-5.354-6.422-7.608c-0.258-0.24-0.515-0.472-0.766-0.699c-2.064-1.861-4.199-3.787-3.167-7.407c0.152-0.531,0.706-0.841,1.236-0.688c0.531,0.151,0.839,0.705,0.688,1.236c-0.66,2.313,0.432,3.434,2.583,5.374c0.259,0.233,0.523,0.472,0.789,0.719c2.436,2.267,5.195,4.835,6.853,8.187c1.089,2.201,1.249,5.616-1.887,7.994C20.56,31.172,20.347,31.238,20.137,31.238z"/><path d="M13.291,31.606c-0.16,0-0.322-0.039-0.472-0.12c-1.797-0.969-4.725-4.097-2.943-8.998c1.168-3.213,4.651-7.104,4.799-7.269c0.369-0.412,1-0.443,1.412-0.074c0.41,0.369,0.444,1.001,0.074,1.412c-0.033,0.037-3.371,3.768-4.405,6.614c-1.627,4.477,1.868,6.475,2.018,6.557c0.481,0.267,0.659,0.873,0.396,1.356C13.986,31.417,13.644,31.606,13.291,31.606z"/></svg>