<svg xmlns="http://www.w3.org/2000/svg" viewBox="0 0 32 32"><!--! Font Icona - https://fonticona.com | License - https://fonticona.com/license | Copyright 2022 FontIcona.com --><path d="M2.884,18.705H1.011C0,18.705,0,17.91,0,16.705v-1.41c0-1.204,0-2,1.011-2h1.873v2H2v1.41h0.884V18.705z"/><path d="M6.308,23.361H3.884c-1.103,0-2-0.897-2-2V10.312c0-1.103,0.897-2,2-2h2.424v2H3.884v11.049h2.424V23.361z"/><path d="M8.745,26.607H7.308c-1.103,0-2-0.897-2-2V7.394c0-1.103,0.897-2,2-2h1.438c1.103,0,2,0.897,2,2v17.213C10.745,25.709,9.848,26.607,8.745,26.607z M7.308,7.394v17.213h1.438V7.394H7.308z"/><path d="M30.989,18.705h-1.873v-2H30v-1.41h-0.884v-2h1.873c1.011,0,1.011,0.796,1.011,2v1.41C32,17.91,32,18.705,30.989,18.705z"/><path d="M28.116,23.689h-2.424v-2h2.424v-11.05h-2.424v-2h2.424c1.103,0,2,0.897,2,2v11.05C30.116,22.791,29.219,23.689,28.116,23.689z"/><path d="M24.692,26.607h-1.438c-1.103,0-2-0.897-2-2V7.394c0-1.103,0.897-2,2-2h1.438c1.103,0,2,0.897,2,2v17.213C26.692,25.709,25.795,26.607,24.692,26.607z M23.255,7.394v17.213h1.438V7.394H23.255z"/><path d="M23.255,18.39H8.745v-5.107h14.51V18.39z M10.745,16.39h10.51v-1.107h-10.51V16.39z"/></svg>