<svg xmlns="http://www.w3.org/2000/svg" viewBox="0 0 32 32"><!--! Font Icona - https://fonticona.com | License - https://fonticona.com/license | Copyright 2022 FontIcona.com --><path d="M12.117,32H5.628c-2.46,0-4.461-2.001-4.461-4.461s2.001-4.462,4.461-4.462h6.488c5.4,0,9.793-3.175,9.793-7.077c0-3.901-4.394-7.076-9.793-7.076H10.09v2.262c0,2.46-2.001,4.462-4.461,4.462s-4.461-2.002-4.461-4.462V4.462C1.167,2.002,3.168,0,5.628,0h6.488c10.32,0,18.716,7.178,18.716,16S22.437,32,12.117,32z M5.628,25.077c-1.357,0-2.461,1.104-2.461,2.462S4.271,30,5.628,30h6.488c9.217,0,16.716-6.28,16.716-14S21.334,2,12.117,2H5.628C4.271,2,3.167,3.104,3.167,4.462v6.724c0,1.357,1.104,2.462,2.461,2.462s2.461-1.104,2.461-2.462V6.924h4.027c6.503,0,11.793,4.071,11.793,9.076s-5.291,9.077-11.793,9.077H5.628z"/></svg>