<svg xmlns="http://www.w3.org/2000/svg" viewBox="0 0 32 32"><!--! Font Icona - https://fonticona.com | License - https://fonticona.com/license | Copyright 2022 FontIcona.com --><path d="M16,25.75c-4.572,0-8.292-4.374-8.292-9.75S11.428,6.25,16,6.25s8.292,4.374,8.292,9.75c0,0.552-0.448,1-1,1s-1-0.448-1-1c0-4.273-2.822-7.75-6.292-7.75S9.708,11.727,9.708,16s2.822,7.75,6.292,7.75c1.118,0,2.217-0.368,3.177-1.064c0.447-0.324,1.072-0.224,1.396,0.223c0.324,0.447,0.225,1.072-0.223,1.396C19.047,25.25,17.542,25.75,16,25.75z"/><path d="M23.292,17H8.708c-0.552,0-1-0.448-1-1s0.448-1,1-1h14.583c0.552,0,1,0.448,1,1S23.844,17,23.292,17z"/></svg>