<svg xmlns="http://www.w3.org/2000/svg" viewBox="0 0 32 32"><!--! Font Icona - https://fonticona.com | License - https://fonticona.com/license | Copyright 2022 FontIcona.com --><path d="M8.738,32c-0.552,0-1-0.448-1-1V1c0-0.552,0.448-1,1-1s1,0.448,1,1v30C9.738,31.552,9.291,32,8.738,32z"/><path d="M23.262,2H8.738c-0.552,0-1-0.448-1-1s0.448-1,1-1h14.523c0.552,0,1,0.448,1,1S23.814,2,23.262,2z"/><path d="M18.976,17H8.738c-0.552,0-1-0.448-1-1s0.448-1,1-1h10.238c0.552,0,1,0.448,1,1S19.528,17,18.976,17z"/><path d="M23.262,32H8.738c-0.552,0-1-0.448-1-1s0.448-1,1-1h14.523c0.552,0,1,0.448,1,1S23.814,32,23.262,32z"/></svg>