<svg xmlns="http://www.w3.org/2000/svg" viewBox="0 0 32 32"><!--! Font Icona - https://fonticona.com | License - https://fonticona.com/license | Copyright 2022 FontIcona.com --><path d="M11.617,21.033c-0.552,0-1-0.447-1-1s0.448-1,1-1c1.667,0,3.022-1.355,3.022-3.022c0-0.553,0.448-1,1-1s1,0.447,1,1C16.639,18.78,14.386,21.033,11.617,21.033z"/><path d="M21.35,11.333c-0.547,0-0.994-0.44-1-0.989c-0.011-1.054-0.432-2.04-1.185-2.777c-0.753-0.736-1.732-1.121-2.801-1.125c-1.855,0.02-3.424,1.3-3.814,3.114c-0.116,0.54-0.65,0.883-1.188,0.767c-0.54-0.116-0.883-0.648-0.767-1.188c0.588-2.733,2.952-4.663,5.748-4.692c1.592-0.003,3.087,0.586,4.222,1.696c1.134,1.111,1.769,2.597,1.785,4.185c0.006,0.553-0.437,1.005-0.989,1.011C21.357,11.333,21.354,11.333,21.35,11.333z"/><path d="M11.855,32c-2.645,0-4.783-2.139-4.783-4.767c0-0.553,0.448-1,1-1s1,0.447,1,1c0,1.525,1.241,2.767,2.767,2.767c1.498-0.025,2.726-1.231,2.778-2.745c0.174-2.151,0.688-4.797,3.167-6.598c4.491-3.197,6.572-6.786,6.192-10.671C23.537,5.533,20.343,2.3,16.383,2.3c-4.185,0-7.589,3.404-7.589,7.589c0,0.553-0.448,1-1,1s-1-0.447-1-1c0-5.287,4.302-9.589,9.589-9.589c5.01,0,9.041,3.991,9.584,9.49c0.455,4.651-1.905,8.854-7.015,12.491c-1.451,1.054-2.13,2.529-2.339,5.089C16.527,29.902,14.436,31.957,11.855,32z"/><path d="M31,32c-0.256,0-0.512-0.098-0.707-0.293l-30-30c-0.391-0.391-0.391-1.023,0-1.414s1.023-0.391,1.414,0l30,30c0.391,0.391,0.391,1.023,0,1.414C31.512,31.902,31.256,32,31,32z"/></svg>