<svg xmlns="http://www.w3.org/2000/svg" viewBox="0 0 32 32"><!--! Font Icona - https://fonticona.com | License - https://fonticona.com/license | Copyright 2022 FontIcona.com --><path d="M8.948,21.387c-1.173,0-2.319-0.236-3.361-0.705c-1.839-0.828-3.138-2.274-3.658-4.072s-0.192-3.714,0.922-5.395c1.081-1.63,2.781-2.847,4.788-3.427C8.17,7.637,8.725,7.94,8.878,8.472c0.153,0.53-0.153,1.085-0.684,1.238c-1.552,0.448-2.857,1.375-3.676,2.609c-0.785,1.184-1.022,2.511-0.668,3.735s1.262,2.22,2.557,2.803c1.351,0.608,2.949,0.697,4.501,0.247c0.531-0.153,1.085,0.152,1.238,0.684c0.154,0.53-0.152,1.085-0.683,1.238C10.63,21.268,9.782,21.387,8.948,21.387z"/><path d="M12.583,22.014c-1.074,0-2.123-0.859-2.491-2.137L7.091,9.492C6.897,8.822,6.914,8.121,7.139,7.52c0.259-0.696,0.78-1.203,1.427-1.391c1.243-0.36,2.608,0.564,3.041,2.058l3.001,10.387l0,0c0.431,1.495-0.23,3.004-1.475,3.363C12.951,21.989,12.767,22.014,12.583,22.014z M9.132,8.049c-0.004,0-0.008,0.001-0.011,0.002C9.113,8.053,9.059,8.094,9.013,8.218c-0.075,0.2-0.075,0.462,0,0.72l3.001,10.385c0.152,0.526,0.497,0.721,0.564,0.692c0.064-0.019,0.26-0.36,0.108-0.887l-3-10.386C9.546,8.263,9.223,8.049,9.132,8.049z"/><path d="M7.796,32.001c-0.399,0-0.794-0.102-1.154-0.3c-0.561-0.31-0.967-0.817-1.144-1.43L1.922,16.585c-0.139-0.534,0.181-1.081,0.715-1.221c0.538-0.138,1.081,0.182,1.221,0.715l3.568,13.662c0.032,0.109,0.127,0.179,0.181,0.209c0.054,0.027,0.162,0.072,0.298,0.034l0.154-0.044c0.246-0.071,0.435-0.374,0.39-0.624l-1.792-8.848c-0.11-0.541,0.24-1.068,0.781-1.179c0.541-0.113,1.069,0.24,1.179,0.782l1.797,8.872c0.229,1.29-0.564,2.562-1.799,2.917l-0.153,0.044C8.242,31.969,8.019,32.001,7.796,32.001z"/><path d="M23.033,15.333c-0.818,0-1.659-0.114-2.498-0.356c-0.531-0.153-0.836-0.708-0.684-1.238c0.153-0.531,0.708-0.837,1.238-0.684c3.144,0.908,6.31-0.46,7.059-3.05c0.354-1.225,0.117-2.552-0.667-3.735c-0.819-1.234-2.124-2.162-3.676-2.61c-0.53-0.153-0.836-0.708-0.683-1.238c0.153-0.531,0.707-0.837,1.238-0.684c2.007,0.58,3.707,1.798,4.788,3.428c1.114,1.681,1.442,3.597,0.922,5.395C29.227,13.481,26.317,15.333,23.033,15.333z"/><path d="M19.417,15.963c-0.184,0-0.368-0.024-0.549-0.077c-1.245-0.359-1.906-1.868-1.475-3.363l0,0l3-10.385c0.433-1.495,1.796-2.422,3.041-2.059c0.647,0.188,1.168,0.694,1.427,1.391c0.225,0.602,0.241,1.303,0.047,1.973l-3,10.385C21.539,15.104,20.49,15.963,19.417,15.963z M19.314,13.077c-0.152,0.526,0.044,0.868,0.108,0.887c0.083,0.023,0.42-0.191,0.565-0.692l3-10.385c0.075-0.257,0.075-0.52,0-0.719c-0.046-0.124-0.1-0.165-0.108-0.167c-0.055-0.018-0.412,0.163-0.565,0.691L19.314,13.077z"/><path d="M24.2,25.95c-0.218,0-0.44-0.03-0.66-0.094l-0.157-0.046c-1.233-0.356-2.025-1.627-1.802-2.893l1.802-8.896c0.109-0.542,0.636-0.894,1.179-0.782c0.541,0.11,0.891,0.638,0.781,1.179l-1.797,8.872c-0.04,0.226,0.15,0.529,0.394,0.6l0.156,0.046c0.205,0.06,0.426-0.065,0.485-0.27l3.562-13.637c0.139-0.533,0.684-0.853,1.221-0.715c0.534,0.14,0.854,0.687,0.715,1.221l-3.568,13.661C26.201,25.264,25.24,25.95,24.2,25.95z"/></svg>