<svg xmlns="http://www.w3.org/2000/svg" viewBox="0 0 32 32"><!--! Font Icona - https://fonticona.com | License - https://fonticona.com/license | Copyright 2022 FontIcona.com --><path d="M15.978,32.002c-2.142,0-4.234-0.634-6.052-1.855c-4.983-3.35-6.313-10.13-2.964-15.113c1.623-2.415,4.088-4.052,6.942-4.612c2.858-0.56,5.756,0.026,8.17,1.648c2.414,1.623,4.052,4.088,4.612,6.943c0.56,2.854-0.026,5.756-1.648,8.17v0c-1.623,2.415-4.088,4.052-6.942,4.612C17.39,31.934,16.681,32.002,15.978,32.002z M16.013,12.222c-2.863,0-5.677,1.378-7.391,3.928c-2.734,4.068-1.649,9.603,2.419,12.337c4.07,2.736,9.604,1.648,12.337-2.419v0c1.325-1.97,1.803-4.339,1.346-6.669s-1.794-4.343-3.765-5.667C19.44,12.711,17.718,12.222,16.013,12.222z"/><path d="M14.406,25.583c-0.593,0-1.113-0.289-1.432-0.465c-0.104-0.058-0.208-0.117-0.312-0.165c-0.08-0.037-0.327-0.06-0.507-0.077c-0.688-0.065-2.117-0.201-2.416-1.885c-0.027-0.153-0.17-0.406-0.295-0.629c-0.23-0.41-0.492-0.875-0.527-1.43c-0.103-1.592,1.591-1.991,2.711-2.255c0.337-0.079,0.859-0.202,1.126-0.324c-0.022-0.044-0.055-0.098-0.099-0.164c-0.027-0.033-0.166-0.111-0.259-0.163c-0.222-0.124-0.497-0.277-0.748-0.547c-0.099-0.105-0.194-0.226-0.284-0.356c-0.712-1.045-0.647-2.451,0.158-3.502c0.274-0.357,0.587-0.68,0.957-0.986c0.299-0.247,0.6-0.429,0.865-0.59c0.635-0.384,0.762-0.493,0.792-0.879l1.994,0.156c-0.113,1.443-1.06,2.016-1.75,2.434c-0.207,0.125-0.425,0.253-0.627,0.42c-0.256,0.211-0.461,0.422-0.645,0.662c-0.274,0.358-0.314,0.833-0.097,1.153c0.029,0.041,0.062,0.086,0.098,0.124c0.037,0.04,0.156,0.106,0.261,0.165c0.278,0.155,0.658,0.367,0.945,0.796c0.491,0.732,0.618,1.412,0.38,2.019c-0.397,1.009-1.573,1.286-2.61,1.53c-0.338,0.08-0.863,0.204-1.126,0.325c0.058,0.13,0.155,0.304,0.228,0.433c0.203,0.362,0.435,0.773,0.521,1.26c0.017,0.091,0.038,0.136,0.045,0.146c0.071,0.048,0.396,0.079,0.592,0.098c0.358,0.034,0.764,0.073,1.153,0.251c0.149,0.069,0.299,0.151,0.447,0.233c0.117,0.065,0.283,0.158,0.387,0.197c0.267-0.309,0.378-1.105,0.446-1.589l0.051-0.352c0.035-0.219,0.062-0.449,0.089-0.684c0.1-0.854,0.212-1.822,0.693-2.649c0.338-0.58,0.777-0.906,1.306-0.97c0.846-0.1,1.437,0.508,1.868,0.954l0.177,0.18c0.254,0.249,0.252,0.25,0.716,0.195c0.285-0.032,0.677-0.077,1.158-0.029c0.904,0.091,1.729,0.607,2.385,1.492c0.31,0.418,0.631,0.609,0.727,0.614c0.408-0.317,0.448-1.686,0.468-2.343l0.011-0.314l1.998,0.079l-0.01,0.294c-0.035,1.193-0.088,2.996-1.295,3.889c-0.65,0.481-1.465,0.523-2.235,0.113c-0.611-0.326-1.059-0.855-1.271-1.143c-0.217-0.292-0.562-0.65-0.979-0.692c-0.266-0.029-0.491-0.002-0.729,0.026c-0.593,0.067-1.41,0.163-2.345-0.755l-0.214-0.217c-0.036-0.038-0.079-0.082-0.124-0.127c-0.182,0.453-0.251,1.051-0.319,1.633c-0.03,0.264-0.061,0.521-0.1,0.765l-0.046,0.318c-0.121,0.863-0.287,2.043-1.057,2.774C15.265,25.443,14.818,25.583,14.406,25.583z M12.813,18.494L12.813,18.494L12.813,18.494z"/><path d="M15.242,31.116l-1.766-0.941c0.611-1.146,1.233-1.851,2.604-2.062c0.44-0.068,0.82-0.014,1.098,0.027c0.063,0.009,0.116,0.017,0.158,0.022c-0.034-0.172-0.093-0.372-0.122-0.469l-0.078-0.263c-0.312-0.975-0.13-1.681,0.543-2.099c0.304-0.189,0.949-0.422,1.844,0.155c0.045,0.029,0.092,0.062,0.138,0.098c0.151-0.483,0.359-1.142,0.979-1.475c1.965-1.056,3.757-0.868,5.043,0.531l-1.471,1.354c-0.397-0.43-1.087-0.908-2.517-0.181c-0.041,0.094-0.092,0.258-0.128,0.374c-0.151,0.484-0.358,1.148-0.984,1.48c-0.493,0.262-0.939,0.211-1.294,0.069c0.133,0.671,0.149,1.562-0.631,2.083c-0.688,0.458-1.339,0.361-1.771,0.299c-0.198-0.029-0.356-0.053-0.504-0.03C15.902,30.164,15.712,30.234,15.242,31.116z"/><path d="M17.434,10.78c-0.623,0-1.23-0.138-1.791-0.418c-0.383-0.191-0.601-0.604-0.544-1.028c0.251-1.859,1.275-3.631,2.741-4.74c1.568-1.187,3.393-1.452,4.887-0.703c0.383,0.191,0.601,0.604,0.544,1.028c-0.251,1.86-1.275,3.631-2.741,4.74l0,0C19.551,10.399,18.471,10.78,17.434,10.78z M17.268,8.771c0.652,0.056,1.376-0.194,2.055-0.708c0,0,0,0,0,0c0.831-0.627,1.464-1.557,1.782-2.582c-0.648-0.05-1.378,0.193-2.058,0.708C18.23,6.806,17.59,7.75,17.268,8.771z"/><path d="M15.68,10.235c-0.077,0-0.154-0.009-0.232-0.027c-1.51-0.359-2.912-1.746-3.752-3.71c-0.803-1.877-0.989-4.035-0.498-5.77c0.146-0.516,0.67-0.826,1.193-0.7c1.51,0.359,2.912,1.746,3.752,3.71c0.802,1.877,0.988,4.034,0.498,5.769C16.518,9.946,16.117,10.235,15.68,10.235z M12.933,2.532c-0.039,1.032,0.169,2.167,0.602,3.179c0.398,0.932,0.892,1.579,1.371,1.992c0.038-1.032-0.17-2.167-0.603-3.179C13.904,3.592,13.411,2.945,12.933,2.532z"/></svg>