<svg xmlns="http://www.w3.org/2000/svg" viewBox="0 0 32 32"><!--! Font Icona - https://fonticona.com | License - https://fonticona.com/license | Copyright 2022 FontIcona.com --><path d="M3.887,19.906C1.744,19.906,0,18.091,0,15.861s1.744-4.046,3.887-4.046s3.886,1.815,3.886,4.046c0,0.553-0.448,1-1,1H2.241c0.324,0.623,0.94,1.045,1.646,1.045c0.53,0,0.95-0.156,1.361-0.508c0.419-0.357,1.05-0.309,1.41,0.111c0.358,0.42,0.309,1.052-0.111,1.41C5.779,19.574,4.885,19.906,3.887,19.906z M2.241,14.861h3.291c-0.323-0.624-0.939-1.046-1.645-1.046S2.564,14.237,2.241,14.861z"/><path d="M12.261,19.906c-2.143,0-3.887-1.814-3.887-4.045s1.744-4.046,3.887-4.046s3.887,1.815,3.887,4.046S14.404,19.906,12.261,19.906z M12.261,13.815c-1.041,0-1.887,0.918-1.887,2.046s0.846,2.045,1.887,2.045s1.887-0.917,1.887-2.045S13.301,13.815,12.261,13.815z"/><path d="M9.374,19.906c-0.552,0-1-0.447-1-1v-8.56c0-0.553,0.448-1,1-1s1,0.447,1,1v8.56C10.374,19.459,9.926,19.906,9.374,19.906z"/><path d="M27.816,19.906c-0.362,0-0.71-0.196-0.889-0.539l-3.16-6.091c-0.254-0.49-0.063-1.094,0.427-1.349c0.491-0.253,1.094-0.062,1.348,0.427l3.16,6.091c0.254,0.49,0.063,1.094-0.427,1.349C28.128,19.87,27.971,19.906,27.816,19.906z"/><path d="M26.57,22.654c-0.15,0-0.303-0.034-0.447-0.106c-0.494-0.247-0.693-0.848-0.446-1.342l4.429-8.839c0.247-0.493,0.847-0.693,1.342-0.445c0.494,0.247,0.693,0.848,0.446,1.342l-4.429,8.839C27.29,22.452,26.937,22.654,26.57,22.654z"/><path d="M22.701,19.906c-0.021,0-0.042-0.001-0.064-0.002c-0.551-0.035-0.97-0.51-0.935-1.062c0.099-1.574,0.042-3.616-0.225-4.17c-0.19-0.395-0.603-0.689-1.105-0.788c-0.508-0.103-0.998,0.02-1.341,0.329c-0.412,0.369-1.042,0.337-1.413-0.074c-0.369-0.411-0.336-1.043,0.075-1.412c0.817-0.736,1.931-1.029,3.067-0.806c1.116,0.221,2.058,0.925,2.52,1.884c0.627,1.304,0.458,4.53,0.418,5.164C23.665,19.499,23.225,19.906,22.701,19.906z"/><path d="M19.679,19.948c-0.104,0-0.203-0.004-0.297-0.01c-1.137-0.076-2.931-0.757-3.213-2.323c-0.226-1.252,0.604-2.374,2.166-2.928c1.827-0.646,4.442,0.317,4.734,0.43c0.503,0.192,0.76,0.747,0.589,1.253c0.059,0.129,0.09,0.272,0.089,0.424c-0.009,0.786-0.329,1.492-0.924,2.043C21.927,19.664,20.634,19.948,19.679,19.948z M19.775,16.465c-0.292,0-0.558,0.031-0.774,0.108c-0.456,0.161-0.905,0.463-0.864,0.688c0.052,0.291,0.761,0.641,1.378,0.682c0.621,0.047,1.483-0.142,1.949-0.574c0.188-0.174,0.276-0.354,0.282-0.583C21.145,16.612,20.403,16.465,19.775,16.465z"/></svg>