<svg xmlns="http://www.w3.org/2000/svg" viewBox="0 0 32 32"><!--! Font Icona - https://fonticona.com | License - https://fonticona.com/license | Copyright 2022 FontIcona.com --><path d="M16.265,32C7.422,32,0.229,24.806,0.229,15.964c0-0.472,0.029-0.957,0.086-1.45c-0.013-0.115-0.005-0.235,0.025-0.354c0.005-0.019,0.017-0.063,0.038-0.133c0.482-3.257,2.09-6.8,4.236-9.144C6.392,2.94,9.521,1.151,12.399,0.43c4.754-1.188,10.309,0.11,14.509,3.384c3.637,2.834,5.674,8.455,4.543,12.53c-0.829,2.986-3.177,4.859-6.611,5.275c-0.049,0.006-5.128,0.481-6.511-1.589c-0.272-0.408-0.631-1.271,0.037-2.455c0.602-1.064,0.557-1.853,0.323-3.278c-0.122-0.747-0.33-1.357-0.634-1.867c-1.283-2.153-4.947-3.865-7.695-3.581c-5.979,0.607-7.703,4.675-8.025,5.622c-0.07,0.513-0.106,1.013-0.106,1.492c0,6.578,4.549,12.114,10.666,13.627c-0.998-0.545-1.971-1.267-2.796-2.221c-2.867-3.314-2.245-8.213-0.356-11.597c1.259-2.253,2.595-3.594,4.332-4.35c0.438-0.191,0.949-0.045,1.221,0.349c0.272,0.393,0.228,0.923-0.105,1.266c-2.414,2.482-1.611,4.953-0.918,6.205c1.471,2.653,5.302,4.902,9.172,4.064c0.918-0.198,1.872-0.517,2.714-0.797c1.813-0.606,3.013-1.006,3.747-0.199c0.421,0.462,0.453,1.107,0.097,1.916c-0.019,0.042-0.039,0.082-0.063,0.12c-1.761,2.865-4.322,5.072-7.408,6.383c-0.272,0.115-0.547,0.223-0.823,0.323c-0.019,0.007-0.037,0.014-0.057,0.02C19.927,31.688,18.119,32,16.265,32z M11.573,16.598c-0.028,0.049-0.057,0.1-0.085,0.149c-1.549,2.774-2.111,6.73,0.123,9.313c1.247,1.441,3.256,2.497,5.657,2.974c1.811,0.356,3.444,0.167,3.821,0.114c0.221-0.081,0.44-0.168,0.658-0.26c2.364-1.004,4.445-2.682,5.946-4.777c-0.304,0.095-0.624,0.202-0.904,0.295c-0.891,0.298-1.9,0.635-2.925,0.855c-4.354,0.939-9.229-1.233-11.343-5.051C11.869,19.032,11.556,17.804,11.573,16.598z M10.971,6.819c3.366,0,7.248,1.977,8.804,4.588c0.434,0.728,0.725,1.567,0.889,2.567c0.26,1.582,0.383,2.925-0.555,4.585c-0.106,0.188-0.14,0.326-0.116,0.36c0.406,0.608,3.172,0.894,4.607,0.714c2.615-0.316,4.317-1.639,4.924-3.824c0.919-3.307-0.842-8.077-3.844-10.417c-3.672-2.86-8.692-4.047-12.795-3.022c-2.529,0.634-5.261,2.187-6.796,3.863c-0.705,0.771-1.349,1.704-1.9,2.723c1.434-1.007,3.37-1.832,5.969-2.097C10.424,6.833,10.695,6.819,10.971,6.819z"/><path d="M19.678,15.136c-0.375,0-0.733-0.211-0.904-0.571c-0.447-0.942-1.012-1.52-1.679-1.718c-1.029-0.301-2.081,0.335-2.092,0.341c-0.469,0.287-1.084,0.146-1.375-0.319c-0.291-0.466-0.155-1.078,0.309-1.372c0.072-0.047,1.8-1.123,3.7-0.574c1.247,0.36,2.238,1.297,2.943,2.785c0.237,0.499,0.024,1.096-0.475,1.332C19.967,15.105,19.821,15.136,19.678,15.136z"/></svg>