<svg xmlns="http://www.w3.org/2000/svg" viewBox="0 0 32 32"><!--! Font Icona - https://fonticona.com | License - https://fonticona.com/license | Copyright 2022 FontIcona.com --><path d="M15.929,31.999c-1.067,0-2.123-0.127-3.154-0.381c-3.514-0.863-6.198-2.761-7.978-5.641c-1.428-2.312-1.93-4.917-1.492-7.742l0.1-0.66c0.129-0.87,0.263-1.771,0.495-2.661c0.32-1.231,0.733-2.491,1.227-3.744c0.72-1.824,1.642-3.563,2.739-5.169c1.218-1.784,2.425-3.122,3.798-4.21c1.141-0.905,2.271-1.462,3.455-1.702c1.085-0.224,2.165-0.04,3.397,0.562c1.974,0.966,3.366,2.472,4.358,3.676c1.529,1.854,2.78,3.954,3.72,6.242c0.404,0.985,0.919,2.288,1.313,3.631c0.597,2.03,0.887,3.982,0.941,6.33v0.05c-0.113,4.249-2.521,7.807-6.779,10.017c-1.181,0.612-2.543,1.024-4.166,1.259C17.242,31.951,16.583,31.999,15.929,31.999z M16.005,1.999c-0.166,0-0.328,0.017-0.488,0.05c-0.881,0.179-1.71,0.595-2.611,1.309c-1.21,0.96-2.287,2.158-3.389,3.771c-1.015,1.483-1.865,3.09-2.529,4.774c-0.465,1.178-0.853,2.36-1.152,3.515c-0.205,0.787-0.325,1.596-0.452,2.451l-0.102,0.674c-0.368,2.373,0.03,4.462,1.217,6.384c1.494,2.418,3.767,4.016,6.753,4.75c1.414,0.348,2.883,0.413,4.366,0.2c1.397-0.203,2.553-0.548,3.53-1.056c3.627-1.882,5.598-4.741,5.701-8.27c-0.052-2.154-0.317-3.94-0.859-5.787c-0.369-1.255-0.859-2.495-1.245-3.436c-0.863-2.103-2.012-4.03-3.413-5.73c-0.918-1.113-2.075-2.357-3.694-3.15C17.018,2.145,16.495,1.999,16.005,1.999z"/></svg>