<svg xmlns="http://www.w3.org/2000/svg" viewBox="0 0 32 32"><!--! Font Icona - https://fonticona.com | License - https://fonticona.com/license | Copyright 2022 FontIcona.com --><path d="M6.482,32H2c-1.103,0-2-0.897-2-2V2.067c0-1.103,0.897-2,2-2h4.482c1.103,0,2,0.897,2,2V30C8.482,31.102,7.585,32,6.482,32z M2,2.067V30h4.482V2.067H2z"/><path d="M30,32H13.608c-1.103,0-2-0.897-2-2v-4.55c0-1.103,0.897-2,2-2H30c1.103,0,2,0.897,2,2V30C32,31.102,31.103,32,30,32z M13.608,25.45V30H30v-4.55H13.608z"/><path d="M30,20.308H13.608c-1.103,0-2-0.897-2-2v-4.55c0-1.103,0.897-2,2-2H30c1.103,0,2,0.897,2,2v4.55C32,19.411,31.103,20.308,30,20.308z M13.608,13.758v4.55H30v-4.55H13.608z"/><path d="M30,8.55H13.608c-1.103,0-2-0.897-2-2V2c0-1.103,0.897-2,2-2H30c1.103,0,2,0.897,2,2V6.55C32,7.653,31.103,8.55,30,8.55z M13.608,2V6.55H30V2H13.608z"/></svg>