<svg xmlns="http://www.w3.org/2000/svg" viewBox="0 0 32 32"><!--! Font Icona - https://fonticona.com | License - https://fonticona.com/license | Copyright 2022 FontIcona.com --><path d="M4.196,20.063C1.882,20.063,0,18.181,0,15.868c0-2.314,1.882-4.196,4.196-4.196s4.196,1.882,4.196,4.196C8.392,18.181,6.509,20.063,4.196,20.063z M4.196,13.671C2.985,13.671,2,14.657,2,15.868s0.985,2.196,2.196,2.196s2.196-0.985,2.196-2.196S5.407,13.671,4.196,13.671z"/><path d="M27.804,20.329c-2.313,0-4.196-1.882-4.196-4.196c0-2.313,1.882-4.196,4.196-4.196S32,13.819,32,16.132C32,18.446,30.118,20.329,27.804,20.329z M27.804,13.937c-1.211,0-2.196,0.985-2.196,2.196s0.985,2.196,2.196,2.196S30,17.343,30,16.132S29.015,13.937,27.804,13.937z"/><path d="M15.993,20.329c-2.313,0-4.196-1.882-4.196-4.196c0-2.313,1.882-4.196,4.196-4.196s4.196,1.882,4.196,4.196C20.188,18.446,18.306,20.329,15.993,20.329z M15.993,13.937c-1.211,0-2.196,0.985-2.196,2.196s0.985,2.196,2.196,2.196s2.196-0.985,2.196-2.196S17.204,13.937,15.993,13.937z"/></svg>