<svg xmlns="http://www.w3.org/2000/svg" viewBox="0 0 32 32"><!--! Font Icona - https://fonticona.com | License - https://fonticona.com/license | Copyright 2022 FontIcona.com --><path d="M16,32C7.178,32,0,24.822,0,16S7.178,0,16,0s16,7.178,16,16S24.822,32,16,32z M16,2C8.28,2,2,8.28,2,16s6.28,14,14,14s14-6.28,14-14S23.72,2,16,2z"/><path d="M16,26.948c-4.094,0-7.8-2.217-9.913-5.93c-0.273-0.48-0.105-1.091,0.374-1.364s1.09-0.105,1.364,0.374c1.753,3.081,4.81,4.92,8.175,4.92s6.422-1.839,8.175-4.92c0.273-0.479,0.885-0.647,1.364-0.374s0.647,0.884,0.374,1.364C23.8,24.731,20.094,26.948,16,26.948z"/></svg>