<svg xmlns="http://www.w3.org/2000/svg" viewBox="0 0 32 32"><!--! Font Icona - https://fonticona.com | License - https://fonticona.com/license | Copyright 2022 FontIcona.com --><path d="M6.688,10.122c-0.196,0-0.395-0.058-0.569-0.178L0.43,6C0.165,5.815,0.004,5.514,0,5.191c-0.004-0.323,0.147-0.628,0.408-0.82l5.689-4.178c0.444-0.327,1.07-0.23,1.398,0.214c0.327,0.445,0.231,1.071-0.214,1.398l-4.56,3.348L7.259,8.3c0.454,0.314,0.567,0.938,0.252,1.392C7.316,9.972,7.005,10.122,6.688,10.122z"/><path d="M25.312,10.122c-0.308,0-0.611-0.141-0.807-0.408c-0.327-0.445-0.231-1.071,0.214-1.398l4.56-3.348l-4.538-3.146c-0.454-0.314-0.567-0.938-0.252-1.392c0.315-0.454,0.937-0.566,1.392-0.252l5.689,3.944c0.266,0.184,0.426,0.485,0.43,0.808c0.004,0.323-0.147,0.628-0.408,0.82l-5.689,4.178C25.725,10.059,25.517,10.122,25.312,10.122z"/><path d="M16.133,32c-0.552,0-1-0.448-1-1V16.122c0-0.552,0.448-1,1-1s1,0.448,1,1V31C17.133,31.552,16.686,32,16.133,32z"/><path d="M20.467,32c-0.552,0-1-0.448-1-1V20.578c0-0.552,0.448-1,1-1s1,0.448,1,1V31C21.467,31.552,21.019,32,20.467,32z"/><path d="M24.811,32c-0.552,0-1-0.448-1-1v-4.6c0-0.552,0.448-1,1-1s1,0.448,1,1V31C25.811,31.552,25.363,32,24.811,32z"/><path d="M7.444,32c-0.552,0-1-0.448-1-1v-4.6c0-0.552,0.448-1,1-1s1,0.448,1,1V31C8.444,31.552,7.997,32,7.444,32z"/><path d="M29.156,32c-0.552,0-1-0.448-1-1v-2.3c0-0.552,0.448-1,1-1s1,0.448,1,1V31C30.156,31.552,29.708,32,29.156,32z"/><path d="M3.1,32c-0.552,0-1-0.448-1-1v-2.3c0-0.552,0.448-1,1-1s1,0.448,1,1V31C4.1,31.552,3.652,32,3.1,32z"/><path d="M11.789,32c-0.552,0-1-0.448-1-1V20.578c0-0.552,0.448-1,1-1s1,0.448,1,1V31C12.789,31.552,12.341,32,11.789,32z"/></svg>