<svg xmlns="http://www.w3.org/2000/svg" viewBox="0 0 32 32"><!--! Font Icona - https://fonticona.com | License - https://fonticona.com/license | Copyright 2022 FontIcona.com --><path d="M6.688,10.15c-0.197,0-0.395-0.058-0.569-0.179L0.43,6.026C0.165,5.843,0.004,5.542,0,5.219S0.147,4.59,0.408,4.399l5.689-4.178c0.444-0.328,1.07-0.231,1.398,0.214c0.327,0.445,0.231,1.071-0.214,1.397l-4.56,3.349l4.538,3.147c0.454,0.314,0.566,0.938,0.252,1.392C7.316,10,7.005,10.15,6.688,10.15z"/><path d="M25.312,10.15c-0.308,0-0.611-0.142-0.807-0.408c-0.327-0.445-0.231-1.071,0.214-1.397l4.56-3.349l-4.538-3.147c-0.454-0.314-0.566-0.938-0.252-1.392c0.315-0.452,0.938-0.568,1.392-0.251l5.689,3.945c0.266,0.184,0.426,0.484,0.43,0.808s-0.147,0.629-0.408,0.819l-5.689,4.178C25.725,10.087,25.517,10.15,25.312,10.15z"/><path d="M12.313,31.973H3.668c-0.552,0-1-0.447-1-1s0.448-1,1-1h8.645c0.552,0,1,0.447,1,1S12.865,31.973,12.313,31.973z"/><rect x="24.084" y="16.592" transform="matrix(0.5001 -0.866 0.866 0.5001 -3.7344 31.1169)" width="2" height="4.401"/><path d="M18.094,31.999c-0.19,0-0.381-0.049-0.552-0.148c-0.375-0.218-0.588-0.637-0.542-1.068l0.47-4.505c0.058-0.559,0.237-1.109,0.517-1.593l5.532-9.581c0.268-0.465,0.701-0.797,1.219-0.936c0.518-0.138,1.058-0.066,1.522,0.202l2.068,1.193c0.464,0.268,0.796,0.7,0.935,1.218s0.067,1.059-0.2,1.522l-5.532,9.582c-0.285,0.493-0.663,0.912-1.122,1.244l-3.667,2.66C18.549,31.929,18.322,31.999,18.094,31.999z M18.99,30.988l0,0.004C18.99,30.991,18.99,30.989,18.99,30.988z M25.259,16.102l-5.54,9.584c-0.141,0.242-0.23,0.519-0.259,0.799l-0.261,2.503l2.037-1.478c0.231-0.167,0.42-0.377,0.563-0.624l5.532-9.582L25.259,16.102z"/></svg>