<svg xmlns="http://www.w3.org/2000/svg" viewBox="0 0 32 32"><!--! Font Icona - https://fonticona.com | License - https://fonticona.com/license | Copyright 2022 FontIcona.com --><path d="M6.119,9.31c-0.196,0-0.395-0.058-0.569-0.178l-5.12-3.55C0.165,5.397,0.004,5.097,0,4.773s0.147-0.629,0.408-0.819l5.12-3.76c0.444-0.327,1.07-0.23,1.398,0.214c0.327,0.445,0.231,1.071-0.214,1.397L2.721,4.736L6.69,7.487c0.454,0.315,0.567,0.938,0.252,1.392C6.748,9.159,6.436,9.31,6.119,9.31z"/><path d="M25.881,9.31c-0.308,0-0.611-0.142-0.807-0.408c-0.327-0.445-0.231-1.071,0.214-1.397l3.991-2.931L25.31,1.822c-0.454-0.315-0.567-0.938-0.252-1.392c0.315-0.453,0.938-0.566,1.392-0.253l5.12,3.55c0.266,0.185,0.426,0.485,0.43,0.809s-0.147,0.629-0.408,0.819l-5.12,3.76C26.293,9.246,26.086,9.31,25.881,9.31z"/><path d="M12.429,31.998c-0.357,0-0.714-0.093-1.042-0.277c-0.675-0.381-1.078-1.071-1.078-1.846v-11.02c0-0.774,0.402-1.464,1.077-1.845s1.474-0.368,2.135,0.03l9.144,5.505c0.643,0.388,1.026,1.066,1.026,1.815s-0.383,1.427-1.024,1.814l-9.143,5.514C13.182,31.895,12.806,31.998,12.429,31.998z M12.429,18.735c-0.017,0-0.037,0.004-0.06,0.017c-0.06,0.034-0.06,0.085-0.06,0.104v11.02c0,0.019,0,0.069,0.061,0.104c0.061,0.033,0.104,0.009,0.119-0.002l9.144-5.514c0.016-0.009,0.058-0.034,0.058-0.102s-0.042-0.093-0.058-0.103l-9.143-5.505c0,0,0,0,0,0C12.479,18.748,12.458,18.735,12.429,18.735z"/></svg>