<svg xmlns="http://www.w3.org/2000/svg" viewBox="0 0 32 32"><!--! Font Icona - https://fonticona.com | License - https://fonticona.com/license | Copyright 2022 FontIcona.com --><path d="M6.688,10.122c-0.196,0-0.395-0.058-0.569-0.178L0.43,6C0.165,5.815,0.004,5.515,0,5.191s0.147-0.629,0.408-0.819l5.689-4.178c0.444-0.328,1.07-0.23,1.398,0.214c0.327,0.445,0.231,1.071-0.214,1.397l-4.56,3.349L7.259,8.3c0.454,0.315,0.567,0.938,0.252,1.392C7.316,9.972,7.005,10.122,6.688,10.122z"/><path d="M25.312,10.122c-0.308,0-0.611-0.142-0.807-0.408c-0.327-0.445-0.231-1.071,0.214-1.397l4.56-3.349l-4.538-3.146c-0.454-0.315-0.567-0.938-0.252-1.392c0.315-0.454,0.937-0.566,1.392-0.253l5.689,3.944c0.266,0.185,0.426,0.485,0.43,0.809S31.853,5.56,31.592,5.75l-5.689,4.178C25.725,10.059,25.517,10.122,25.312,10.122z"/><path d="M28.033,32H3.778c-0.858,0-1.556-0.698-1.556-1.556V16.066c0-0.857,0.698-1.556,1.556-1.556h24.255c0.858,0,1.556,0.698,1.556,1.556v14.378C29.589,31.302,28.891,32,28.033,32z M4.222,30h23.367V16.511H4.222V30z M28.033,16.511h0.01H28.033z"/><path d="M3.37,31.818c-0.223,0-0.446-0.074-0.632-0.226c-0.428-0.349-0.492-0.979-0.142-1.407l4.94-6.052c0.349-0.429,0.979-0.49,1.407-0.142c0.428,0.349,0.492,0.979,0.142,1.407l-4.94,6.052C3.948,31.693,3.66,31.818,3.37,31.818z"/><path d="M12.388,28.878c-0.211,0-0.424-0.066-0.605-0.205l-4.078-3.111c-0.439-0.335-0.523-0.963-0.188-1.401c0.334-0.439,0.961-0.524,1.401-0.188l4.078,3.111c0.439,0.335,0.523,0.963,0.188,1.401C12.987,28.742,12.689,28.878,12.388,28.878z"/><path d="M12.389,28.878c-0.277,0-0.553-0.114-0.75-0.339c-0.365-0.414-0.326-1.046,0.088-1.411l8.278-7.3c0.415-0.367,1.046-0.326,1.412,0.089c0.365,0.414,0.326,1.046-0.088,1.411l-8.278,7.3C12.86,28.796,12.624,28.878,12.389,28.878z"/><path d="M28.588,25.233c-0.14,0-0.283-0.029-0.418-0.092l-7.922-3.655c-0.501-0.231-0.72-0.825-0.489-1.327c0.232-0.502,0.826-0.72,1.327-0.489l7.922,3.655c0.501,0.231,0.72,0.825,0.489,1.327C29.328,25.019,28.966,25.233,28.588,25.233z"/><circle cx="11.556" cy="21.2" r="1.2"/><circle cx="6.689" cy="19.367" r="1.2"/></svg>