<svg xmlns="http://www.w3.org/2000/svg" viewBox="0 0 32 32"><!--! Font Icona - https://fonticona.com | License - https://fonticona.com/license | Copyright 2022 FontIcona.com --><path d="M4.415,21.541c-0.594,0-1.134-0.204-1.57-0.595c-0.297-0.267-0.531-0.613-0.689-1.009c-0.545-0.086-1.041-0.222-1.419-0.325c-0.533-0.146-0.847-0.696-0.701-1.229c0.146-0.533,0.7-0.841,1.229-0.701c0.256,0.07,0.496,0.132,0.722,0.183c0.182-1.091,0.763-2.107,1.841-2.432c0.784-0.236,1.571-0.007,2.058,0.596c0.532,0.659,0.6,1.626,0.168,2.406c-0.084,0.152-0.176,0.291-0.272,0.418c0.36-0.232,0.7-0.469,0.902-0.61c0.273-0.189,0.513-0.355,0.692-0.468c0.47-0.294,1.086-0.151,1.378,0.317c0.293,0.469,0.15,1.085-0.317,1.378c-0.159,0.1-0.37,0.247-0.611,0.415c-1.301,0.904-2.367,1.601-3.263,1.651C4.512,21.54,4.463,21.541,4.415,21.541z M4.328,17.4c-0.088,0.069-0.166,0.185-0.229,0.329c0.079-0.073,0.146-0.16,0.203-0.263C4.314,17.444,4.323,17.422,4.328,17.4z"/><path d="M22.562,21.627c-0.253,0-0.507-0.038-0.756-0.125c-0.302-0.105-0.669-0.312-0.991-0.713c-1.046,0.402-1.95,0.641-2.82,0.743c-0.557,0.066-1.045-0.327-1.11-0.876c-0.064-0.549,0.327-1.046,0.876-1.11c0.708-0.083,1.464-0.286,2.362-0.634c-0.07-0.904,0.153-1.807,0.439-2.439c0.447-0.987,1.676-1.571,2.68-1.277c0.726,0.213,1.236,0.755,1.402,1.488c0.175,0.769-0.057,1.66-0.569,2.284c0.149-0.094,0.276-0.179,0.364-0.236c0.461-0.306,1.08-0.18,1.386,0.282c0.305,0.46,0.179,1.08-0.282,1.386C24.815,20.881,23.688,21.627,22.562,21.627z M22.687,17.103c-0.083,0.004-0.266,0.113-0.303,0.194c-0.098,0.215-0.17,0.451-0.216,0.688c0.114-0.075,0.222-0.156,0.318-0.243C22.655,17.59,22.742,17.213,22.687,17.103z"/><path d="M26.034,21.488c-0.014,0-0.026,0-0.04-0.001c-0.317-0.013-0.609-0.175-0.787-0.438c-0.659-0.971-0.188-2.233,0.124-3.068c0.053-0.142,0.103-0.271,0.138-0.383l0.108-0.319c0.085-0.24,0.261-0.741,0.228-0.909c-0.172-0.525,0.116-1.086,0.641-1.258c0.531-0.17,1.092,0.12,1.263,0.644c0.022,0.069,0.041,0.139,0.056,0.208c0.323-0.197,0.635-0.265,0.957-0.208c0.455,0.075,0.82,0.403,0.976,0.876c0.155,0.47,0.064,0.917-0.024,1.286c0.158-0.143,0.343-0.339,0.423-0.509c0.233-0.499,0.826-0.716,1.33-0.48c0.5,0.234,0.715,0.83,0.48,1.33c-0.313,0.668-1.096,1.479-1.984,1.738c-0.557,0.163-1.113,0.092-1.569-0.196c-0.31-0.196-0.502-0.434-0.617-0.685c-0.159,0.32-0.303,0.681-0.444,1.108c-0.104,0.314-0.281,0.647-0.476,0.89C26.624,21.351,26.337,21.488,26.034,21.488z"/><path d="M8.012,21.25c-0.307,0-0.604-0.111-0.843-0.323c-0.198-0.175-0.802-0.707-0.221-2.598c0.075-0.246,0.171-0.494,0.268-0.745c0.202-0.521,0.393-1.013,0.32-1.408c-0.1-0.543,0.26-1.063,0.804-1.163c0.543-0.102,1.064,0.261,1.163,0.803c0.009,0.049,0.017,0.097,0.023,0.146c0.146-0.131,0.32-0.237,0.527-0.302c0.438-0.137,0.878-0.051,1.202,0.238c0.031,0.028,0.062,0.057,0.089,0.087c0.274-0.318,0.572-0.542,0.909-0.653c0.445-0.145,0.908-0.085,1.305,0.174c1.075,0.701,0.568,2.104,0.352,2.704L13.85,18.38c-0.044,0.137-0.108,0.337-0.159,0.53c0.478-0.286,1.05-0.724,1.222-0.919c0.363-0.411,0.995-0.46,1.41-0.101s0.468,0.979,0.112,1.398c-0.281,0.329-2.098,1.906-3.354,1.887c-0.435-0.015-0.809-0.204-1.053-0.533c-0.191-0.258-0.303-0.532-0.359-0.809c-0.003,0.009-0.007,0.017-0.01,0.024c-0.153,0.438-0.357,1.016-0.924,1.215c-0.343,0.122-0.783,0.037-1.053-0.201c-0.145-0.127-0.249-0.266-0.314-0.449C9.02,20.89,8.683,21.13,8.298,21.217C8.202,21.239,8.106,21.25,8.012,21.25z"/><path d="M17.038,21.792c-0.185,0-0.371-0.021-0.559-0.062c-0.627-0.141-1.125-0.49-1.438-1.011c-0.555-0.918-0.361-2.077-0.197-2.686c0.001-0.002,0.002-0.005,0.002-0.007c0.301-1.081,1.405-2.352,2.665-2.519c0.859-0.114,1.64,0.294,2.133,1.124c0.731,1.233,0.362,2.914-0.381,3.938C18.69,21.358,17.886,21.792,17.038,21.792z M16.774,18.558c-0.148,0.552-0.115,0.971-0.021,1.126c0.016,0.026,0.039,0.065,0.166,0.094c0.259,0.06,0.5-0.072,0.726-0.384c0.413-0.569,0.488-1.389,0.279-1.741c-0.081-0.137-0.137-0.166-0.137-0.166C17.603,17.417,16.929,18.007,16.774,18.558z"/><path d="M15.673,20.16C15.673,20.16,15.673,20.16,15.673,20.16c-0.553,0-1-0.448-1-1.001c0.001-0.814,0.106-1.681,0.21-2.52c0.061-0.497,0.121-0.987,0.155-1.446l0.02-0.282c0.051-0.741,0.107-1.58,0.4-2.384c0.309-0.85,1.44-2.16,2.68-2.306c0.737-0.095,1.404,0.238,1.834,0.889c0.958,1.451-0.188,3.321-0.724,4.058c-0.266,0.363-0.58,0.722-0.9,1.085c-0.486,0.552-0.99,1.121-1.242,1.683c-0.088,0.194-0.229,0.347-0.399,0.448c-0.021,0.27-0.033,0.53-0.033,0.777C16.673,19.713,16.225,20.16,15.673,20.16z M18.308,12.221c-0.291,0.095-0.847,0.649-0.971,0.989c-0.158,0.435-0.217,0.93-0.257,1.455c0.196-0.225,0.386-0.449,0.552-0.676C18.244,13.148,18.418,12.419,18.308,12.221z"/></svg>