<svg xmlns="http://www.w3.org/2000/svg" viewBox="0 0 32 32"><!--! Font Icona - https://fonticona.com | License - https://fonticona.com/license | Copyright 2022 FontIcona.com --><path d="M6.688,10.122c-0.196,0-0.395-0.058-0.569-0.178L0.43,6C0.165,5.815,0.004,5.514,0,5.191c-0.004-0.323,0.147-0.628,0.408-0.82l5.689-4.178c0.444-0.328,1.07-0.231,1.398,0.214c0.327,0.445,0.231,1.071-0.214,1.398l-4.56,3.348L7.259,8.3c0.454,0.314,0.567,0.938,0.252,1.392C7.316,9.972,7.005,10.122,6.688,10.122z"/><path d="M25.312,10.122c-0.308,0-0.611-0.141-0.807-0.408c-0.327-0.445-0.231-1.071,0.214-1.398l4.56-3.348l-4.538-3.146c-0.454-0.314-0.567-0.938-0.252-1.392c0.315-0.454,0.937-0.567,1.392-0.252l5.689,3.944c0.266,0.184,0.426,0.485,0.43,0.808c0.004,0.323-0.147,0.628-0.408,0.82l-5.689,4.178C25.725,10.059,25.517,10.122,25.312,10.122z"/><path d="M23.411,18.667H9.078c-0.552,0-1-0.448-1-1s0.448-1,1-1h14.333c0.552,0,1,0.448,1,1S23.963,18.667,23.411,18.667z"/><path d="M23.411,25.333H9.078c-0.552,0-1-0.448-1-1s0.448-1,1-1h14.333c0.552,0,1,0.448,1,1S23.963,25.333,23.411,25.333z"/><path d="M23.411,32H9.078c-0.552,0-1-0.448-1-1s0.448-1,1-1h14.333c0.552,0,1,0.448,1,1S23.963,32,23.411,32z"/></svg>