<svg xmlns="http://www.w3.org/2000/svg" viewBox="0 0 32 32"><!--! Font Icona - https://fonticona.com | License - https://fonticona.com/license | Copyright 2022 FontIcona.com --><path d="M20.604,6.157c-0.553,0-1-0.447-1-1c0-0.452,0.301-0.835,0.713-0.958c0.137-0.137,0.322-0.442,0.342-0.576c0-0.025-0.001-0.049-0.003-0.07h-9.312c-0.001,0.014-0.001,0.027-0.001,0.042c0.025,0.137,0.227,0.418,0.369,0.536c0.436,0.108,0.759,0.502,0.759,0.971c0,0.553-0.447,1-1,1c-1.027,0-2.128-1.441-2.128-2.455c0-1.197,0.724-2.094,1.646-2.094h10.021c0.923,0,1.646,0.896,1.646,2.042C22.657,4.592,21.697,6.157,20.604,6.157z M11.758,4.163L11.758,4.163L11.758,4.163z"/><path d="M13.313,3.279c-0.393,0-0.766-0.233-0.925-0.62c-0.21-0.511,0.034-1.095,0.545-1.305l3.11-1.278c0.508-0.206,1.095,0.033,1.305,0.545c0.21,0.511-0.034,1.095-0.545,1.305l-3.11,1.278C13.569,3.254,13.44,3.279,13.313,3.279z"/><path d="M19.991,32h-7.982c-1.654,0-3-1.346-3-3V7.025c0-1.612,1.261-2.924,2.811-2.924h8.361c1.55,0,2.811,1.312,2.811,2.924V29C22.991,30.655,21.646,32,19.991,32z M11.819,6.101c-0.439,0-0.811,0.423-0.811,0.924V29c0,0.552,0.448,1,1,1h7.982c0.552,0,1-0.448,1-1V7.025c0-0.501-0.371-0.924-0.811-0.924H11.819z"/><path d="M13.79,18.293c-0.214,0-0.43-0.068-0.611-0.21c-0.437-0.338-0.517-0.966-0.178-1.402l4.418-5.7c0.337-0.437,0.968-0.517,1.402-0.178c0.437,0.338,0.517,0.966,0.178,1.402l-4.418,5.7C14.385,18.16,14.089,18.293,13.79,18.293z"/><path d="M18.209,18.293h-4.418c-0.553,0-1-0.447-1-1s0.447-1,1-1h4.418c0.553,0,1,0.447,1,1S18.762,18.293,18.209,18.293z"/><path d="M13.79,25.508c-0.178,0-0.358-0.048-0.521-0.147c-0.471-0.288-0.619-0.903-0.33-1.375l4.418-7.215c0.287-0.47,0.903-0.619,1.375-0.33c0.471,0.288,0.619,0.903,0.33,1.375l-4.418,7.215C14.455,25.338,14.127,25.508,13.79,25.508z"/></svg>