<svg xmlns="http://www.w3.org/2000/svg" viewBox="0 0 32 32"><!--! Font Icona - https://fonticona.com | License - https://fonticona.com/license | Copyright 2022 FontIcona.com --><path d="M30.257,31.255c-0.178,0-0.358-0.048-0.521-0.147l-13.903-8.52L2.261,31.099c-0.468,0.295-1.085,0.152-1.378-0.315c-0.293-0.468-0.152-1.085,0.316-1.378l14.096-8.841c0.321-0.203,0.73-0.205,1.054-0.006l14.432,8.844c0.471,0.288,0.619,0.904,0.33,1.375C30.922,31.085,30.593,31.255,30.257,31.255z"/><path d="M12.859,24.188c-0.169,0-0.34-0.043-0.497-0.133l-11.86-6.812c-0.479-0.275-0.644-0.887-0.369-1.365c0.276-0.479,0.887-0.643,1.365-0.369l11.86,6.812c0.479,0.275,0.644,0.887,0.369,1.365C13.542,24.008,13.206,24.188,12.859,24.188z"/><path d="M19.217,24.406c-0.337,0-0.666-0.17-0.854-0.479c-0.288-0.471-0.14-1.087,0.332-1.375l11.501-7.031c0.471-0.288,1.086-0.14,1.375,0.332c0.288,0.471,0.14,1.087-0.332,1.375L19.737,24.26C19.575,24.359,19.395,24.406,19.217,24.406z"/><path d="M23.675,21.626c-0.021,0-0.042-0.001-0.062-0.002c-0.551-0.034-0.971-0.509-0.937-1.06l0.527-8.552L9.208,11.155l-0.56,9.053c-0.034,0.552-0.509,0.96-1.06,0.937c-0.551-0.034-0.971-0.509-0.937-1.06l0.621-10.051c0.034-0.551,0.513-0.958,1.059-0.937l15.992,0.98c0.265,0.017,0.512,0.137,0.688,0.336c0.176,0.198,0.266,0.459,0.249,0.724l-0.589,9.55C24.64,21.218,24.199,21.626,23.675,21.626z"/><path d="M29,31.71H3c-1.654,0-3-1.346-3-3V11.254c0-0.849,0.357-1.66,0.979-2.226c2.807-2.557,5.847-4.907,9.035-6.987c3.416-2.233,7.889-2.324,11.394-0.228c0.335,0.225,7.144,4.828,9.655,7.178C31.659,9.55,32,10.344,32,11.172V28.71C32,30.364,30.654,31.71,29,31.71z M15.911,2.296c-1.674,0-3.355,0.473-4.803,1.42c-3.1,2.021-6.054,4.307-8.783,6.791C2.119,10.695,2,10.967,2,11.254V28.71c0,0.552,0.449,1,1,1h26c0.551,0,1-0.448,1-1V11.172c0-0.28-0.108-0.536-0.304-0.721c-2.396-2.241-9.292-6.903-9.361-6.95C18.99,2.697,17.453,2.296,15.911,2.296z"/></svg>