<svg xmlns="http://www.w3.org/2000/svg" viewBox="0 0 32 32"><!--! Font Icona - https://fonticona.com | License - https://fonticona.com/license | Copyright 2022 FontIcona.com --><path class="st0" d="M30.257,31.254c-0.178,0-0.358-0.048-0.521-0.147l-13.904-8.52l-13.57,8.512c-0.469,0.295-1.086,0.152-1.378-0.315c-0.294-0.468-0.152-1.085,0.315-1.378l14.096-8.842c0.32-0.203,0.729-0.206,1.054-0.006l14.433,8.844c0.471,0.288,0.619,0.904,0.33,1.375C30.922,31.084,30.594,31.254,30.257,31.254z"/><path class="st0" d="M12.859,24.188c-0.169,0-0.34-0.043-0.497-0.133l-11.86-6.813c-0.479-0.275-0.645-0.887-0.369-1.365c0.274-0.479,0.885-0.644,1.365-0.369l11.86,6.813c0.479,0.275,0.645,0.887,0.369,1.365C13.543,24.008,13.206,24.188,12.859,24.188z"/><path class="st0" d="M19.217,24.406c-0.337,0-0.666-0.17-0.854-0.479c-0.288-0.471-0.14-1.087,0.332-1.375l11.501-7.031c0.473-0.288,1.088-0.14,1.375,0.332c0.288,0.471,0.14,1.087-0.332,1.375l-11.501,7.031C19.574,24.359,19.395,24.406,19.217,24.406z"/><path class="st0" d="M29,31.709H3c-1.654,0-3-1.346-3-3V11.254c0-0.849,0.356-1.66,0.978-2.227c2.813-2.56,5.854-4.91,9.037-6.986c3.417-2.233,7.889-2.323,11.394-0.228c0.335,0.225,7.144,4.828,9.654,7.178C31.658,9.55,32,10.345,32,11.172v17.537C32,30.364,30.654,31.709,29,31.709z M15.911,2.295c-1.675,0-3.355,0.474-4.804,1.421c-3.095,2.019-6.05,4.303-8.783,6.79C2.118,10.695,2,10.967,2,11.254v17.455c0,0.552,0.448,1,1,1h26c0.552,0,1-0.448,1-1V11.172c0-0.28-0.108-0.536-0.305-0.721c-2.396-2.241-9.291-6.903-9.36-6.95C18.99,2.698,17.453,2.295,15.911,2.295z"/></svg>