<svg xmlns="http://www.w3.org/2000/svg" viewBox="0 0 32 32"><!--! Font Icona - https://fonticona.com | License - https://fonticona.com/license | Copyright 2022 FontIcona.com --><path d="M16,17.232c-0.658,0-1.317-0.218-1.866-0.655L1.036,6.165C0.604,5.821,0.531,5.192,0.875,4.76C1.22,4.328,1.849,4.254,2.28,4.599l13.098,10.412c0.367,0.291,0.877,0.291,1.244,0L29.721,4.598c0.432-0.346,1.061-0.271,1.405,0.161c0.344,0.432,0.271,1.061-0.161,1.405L17.866,16.577C17.317,17.014,16.658,17.232,16,17.232z"/><path d="M29,28.139H3c-1.654,0-3-1.346-3-3V6.861c0-1.654,1.346-3,3-3h26c1.654,0,3,1.346,3,3v18.277C32,26.793,30.654,28.139,29,28.139z M3,5.861c-0.552,0-1,0.449-1,1v18.277c0,0.551,0.448,1,1,1h26c0.552,0,1-0.449,1-1V6.861c0-0.551-0.448-1-1-1H3z"/></svg>