<svg xmlns="http://www.w3.org/2000/svg" viewBox="0 0 32 32"><!--! Font Icona - https://fonticona.com | License - https://fonticona.com/license | Copyright 2022 FontIcona.com --><path d="M16.381,19.126c-1.724,0-3.126-1.402-3.126-3.126s1.402-3.126,3.126-3.126s3.126,1.402,3.126,3.126S18.104,19.126,16.381,19.126z M16.381,14.874c-0.621,0-1.126,0.505-1.126,1.126s0.505,1.126,1.126,1.126s1.126-0.505,1.126-1.126S17.002,14.874,16.381,14.874z"/><path d="M16.385,26.115c-0.058,0-0.114,0-0.172-0.001c-5.576-0.093-10.038-4.705-9.946-10.282c0.092-5.52,4.612-9.948,10.112-9.948c0.057,0,0.112,0,0.17,0.001c2.701,0.045,5.224,1.139,7.102,3.081c1.879,1.942,2.889,4.499,2.844,7.2c-0.045,2.702-1.139,5.224-3.081,7.103C21.513,25.108,19.022,26.115,16.385,26.115z M16.379,7.885c-4.413,0-8.038,3.552-8.112,7.981c-0.074,4.474,3.506,8.174,7.979,8.249c2.174,0.041,4.219-0.774,5.776-2.281c1.559-1.508,2.437-3.531,2.472-5.699l0,0c0.036-2.167-0.773-4.219-2.28-5.776c-1.508-1.558-3.531-2.436-5.698-2.472C16.471,7.885,16.424,7.885,16.379,7.885z"/><path d="M22.278,23.95c-0.268,0-0.535-0.107-0.731-0.318c-0.377-0.404-0.354-1.037,0.05-1.413l8.722-8.125c0.403-0.377,1.037-0.354,1.413,0.05c0.377,0.404,0.354,1.037-0.05,1.413l-8.722,8.125C22.768,23.861,22.522,23.95,22.278,23.95z"/><path d="M1,18.907c-0.268,0-0.535-0.107-0.731-0.318c-0.377-0.404-0.354-1.037,0.05-1.413L9.04,9.051c0.403-0.376,1.038-0.355,1.413,0.05c0.377,0.404,0.354,1.037-0.05,1.413l-8.722,8.125C1.489,18.818,1.244,18.907,1,18.907z"/></svg>