<svg xmlns="http://www.w3.org/2000/svg" viewBox="0 0 32 32"><!--! Font Icona - https://fonticona.com | License - https://fonticona.com/license | Copyright 2022 FontIcona.com --><path d="M18.643,31.944c-1.072,0-2.161-0.205-3.211-0.639c-0.164-0.068-0.321-0.139-0.476-0.215l-4.845-2.264c-4.41-2.049-6.48-7.203-4.712-11.734l4.905-11.838c1.777-4.301,6.724-6.357,11.025-4.581c0.162,0.068,0.317,0.138,0.471,0.212l4.861,2.267c4.427,2.065,6.486,7.242,4.688,11.785l-4.892,11.788C25.115,29.976,21.961,31.944,18.643,31.944z M18.115,2.035c-2.531,0-4.939,1.502-5.964,3.984l0,0.001L7.253,17.839c-1.377,3.531,0.245,7.569,3.702,9.175l4.866,2.273c0.137,0.067,0.257,0.12,0.378,0.171c3.277,1.352,7.054-0.214,8.41-3.498l4.887-11.774c1.403-3.545-0.211-7.602-3.681-9.221L20.94,2.691c-0.134-0.065-0.255-0.119-0.378-0.17C19.762,2.191,18.932,2.035,18.115,2.035z M11.227,5.638h0.01H11.227z"/><path d="M25.521,27.376c-0.141,0-0.285-0.029-0.421-0.093l-19.192-8.92c-0.501-0.233-0.718-0.828-0.485-1.329c0.232-0.501,0.828-0.719,1.328-0.485l19.192,8.92c0.501,0.233,0.718,0.828,0.485,1.329C26.259,27.162,25.898,27.376,25.521,27.376z"/><path d="M18.375,31.967H1c-0.552,0-1-0.447-1-1s0.448-1,1-1h17.375c0.552,0,1,0.447,1,1S18.927,31.967,18.375,31.967z"/></svg>