<svg xmlns="http://www.w3.org/2000/svg" viewBox="0 0 32 32"><!--! Font Icona - https://fonticona.com | License - https://fonticona.com/license | Copyright 2022 FontIcona.com --><path d="M7.061,25.625H1c-0.552,0-1-0.448-1-1V7.375c0-0.552,0.448-1,1-1h6.061c0.372,0,0.712,0.207,0.885,0.536C8.119,7.24,8.094,7.638,7.883,7.944c-0.255,0.369-6.172,9.115-0.072,16.02c0.26,0.295,0.324,0.715,0.162,1.073S7.454,25.625,7.061,25.625z M2,23.625h3.053C1.32,17.796,3.821,11.295,5.33,8.375H2V23.625z"/><path d="M31,25.625h-6.061c-0.393,0-0.75-0.23-0.912-0.589s-0.098-0.778,0.162-1.073c0.986-1.116,1.714-2.35,2.164-3.667c0.179-0.522,0.745-0.802,1.27-0.623c0.522,0.179,0.802,0.747,0.623,1.27c-0.319,0.935-0.754,1.832-1.299,2.682H30V8.375h-3.314c0.781,1.49,1.819,3.914,2.138,6.726c0.062,0.549-0.332,1.044-0.881,1.106c-0.552,0.06-1.044-0.333-1.106-0.881c-0.462-4.074-2.697-7.349-2.72-7.382c-0.211-0.306-0.236-0.704-0.063-1.033c0.173-0.33,0.514-0.536,0.885-0.536H31c0.552,0,1,0.448,1,1v17.251C32,25.178,31.552,25.625,31,25.625z"/><path d="M17.375,24.451c-0.011,0-0.022,0-0.034,0c-1.994-0.013-3.758-1.111-5.243-3.263c-0.07-0.104-1.633-2.445-1.391-5.921c0.037-0.523,0.472-0.93,0.997-0.93l16.144-0.008h0c0.552,0,1,0.447,1,1s-0.447,1-1,1l-15.16,0.007c0.092,2.241,1.051,3.709,1.062,3.726c1.084,1.572,2.297,2.379,3.599,2.389c0.009,0,0.018,0,0.026,0c2.989,0,5.798-3.895,5.826-3.934c0.28-0.392,0.798-0.531,1.236-0.328l3.282,1.523c0.501,0.233,0.719,0.827,0.486,1.328c-0.233,0.501-0.828,0.717-1.328,0.486l-2.562-1.189C23.22,21.653,20.521,24.451,17.375,24.451z"/><path d="M19.188,12.319h-7.003c-0.552,0-1-0.448-1-1c0-2.482,2.02-4.502,4.501-4.502c2.482,0,4.502,2.02,4.502,4.502C20.188,11.871,19.741,12.319,19.188,12.319z M13.394,10.319h4.586c-0.387-0.883-1.269-1.502-2.293-1.502C14.663,8.817,13.78,9.436,13.394,10.319z"/></svg>