<svg xmlns="http://www.w3.org/2000/svg" viewBox="0 0 32 32"><!--! Font Icona - https://fonticona.com | License - https://fonticona.com/license | Copyright 2022 FontIcona.com --><path d="M19.981,29.586h-7.963c-1.103,0-2-0.897-2-2v-2.43l-3.03-0.003c-1.093-0.006-1.985-0.898-1.991-1.989l-0.002-2.461H2c-1.103,0-2-0.897-2-2V4.415c0-1.103,0.897-2,2-2h28c1.103,0,2,0.897,2,2v14.289c0,1.103-0.897,2-2,2h-2.995l-0.003,2.462c-0.006,1.091-0.898,1.983-1.989,1.989l-3.031,0.002v2.43C21.981,28.688,21.084,29.586,19.981,29.586z M19.981,27.586v1V27.586L19.981,27.586L19.981,27.586z M2,4.415v14.289h2.995c1.103,0,2,0.897,2,2l0.002,2.452l3.021,0.001c1.103,0,2,0.897,2,2v2.43h7.96l0.003-2.43c0-1.103,0.897-2,2-2l3.023-0.002v-2.451c0-1.103,0.897-2,2-2H30V4.415H2z"/><path d="M26.49,15.535c-0.553,0-1-0.448-1-1V8.04c0-0.552,0.447-1,1-1s1,0.448,1,1v6.496C27.49,15.087,27.043,15.535,26.49,15.535z"/><path d="M22.294,15.535c-0.553,0-1-0.448-1-1V8.04c0-0.552,0.447-1,1-1s1,0.448,1,1v6.496C23.294,15.087,22.847,15.535,22.294,15.535z"/><path d="M18.098,15.535c-0.553,0-1-0.448-1-1V8.04c0-0.552,0.447-1,1-1s1,0.448,1,1v6.496C19.098,15.087,18.65,15.535,18.098,15.535z"/><path d="M13.902,15.535c-0.553,0-1-0.448-1-1V8.04c0-0.552,0.447-1,1-1s1,0.448,1,1v6.496C14.902,15.087,14.455,15.535,13.902,15.535z"/><path d="M9.706,15.535c-0.553,0-1-0.448-1-1V8.04c0-0.552,0.447-1,1-1s1,0.448,1,1v6.496C10.706,15.087,10.259,15.535,9.706,15.535z"/><path d="M5.51,15.535c-0.553,0-1-0.448-1-1V8.04c0-0.552,0.447-1,1-1s1,0.448,1,1v6.496C6.51,15.087,6.062,15.535,5.51,15.535z"/></svg>