<svg xmlns="http://www.w3.org/2000/svg" viewBox="0 0 32 32"><!--! Font Icona - https://fonticona.com | License - https://fonticona.com/license | Copyright 2022 FontIcona.com --><path d="M7.617,16.283c-0.172,0-0.347-0.044-0.506-0.138c-0.476-0.28-0.635-0.893-0.355-1.369L15.15,0.493c0.28-0.476,0.893-0.634,1.369-0.355c0.476,0.28,0.635,0.893,0.355,1.369L8.48,15.79C8.293,16.107,7.959,16.283,7.617,16.283z"/><path d="M24.383,16.283c-0.343,0-0.678-0.177-0.864-0.495l-8.37-14.283c-0.279-0.476-0.119-1.089,0.357-1.368c0.475-0.281,1.088-0.12,1.368,0.357l8.37,14.283c0.279,0.476,0.119,1.089-0.357,1.368C24.729,16.239,24.555,16.283,24.383,16.283z"/><path d="M15.987,21.198c-0.172,0-0.346-0.044-0.505-0.138l-8.37-4.915c-0.476-0.28-0.636-0.893-0.356-1.369c0.279-0.477,0.892-0.635,1.369-0.356l8.37,4.915c0.476,0.279,0.636,0.893,0.356,1.369C16.664,21.021,16.33,21.198,15.987,21.198z"/><path d="M15.989,21.198c-0.344,0-0.678-0.177-0.864-0.495c-0.279-0.477-0.119-1.089,0.357-1.368l8.395-4.915c0.477-0.28,1.09-0.119,1.368,0.357c0.279,0.477,0.119,1.089-0.357,1.368l-8.395,4.916C16.334,21.154,16.16,21.198,15.989,21.198z"/><path d="M24.382,16.283c-0.141,0-0.284-0.03-0.42-0.093L15.567,12.3c-0.501-0.232-0.719-0.827-0.487-1.328c0.231-0.502,0.827-0.72,1.328-0.487l8.395,3.891c0.501,0.232,0.719,0.827,0.487,1.328C25.121,16.069,24.759,16.283,24.382,16.283z"/><path d="M7.618,16.283c-0.377,0-0.738-0.214-0.907-0.579c-0.233-0.5-0.016-1.095,0.485-1.328l8.37-3.891c0.501-0.233,1.096-0.016,1.328,0.485c0.233,0.5,0.016,1.095-0.485,1.328l-8.37,3.891C7.903,16.253,7.759,16.283,7.618,16.283z"/><path d="M15.988,21.198c0,0-0.001,0-0.001,0c-0.552-0.001-0.999-0.449-0.999-1.001l0.024-19.199c0-0.552,0.448-0.999,1-0.999c0,0,0.001,0,0.001,0c0.552,0,0.999,0.449,0.999,1.001l-0.024,19.198C16.987,20.751,16.54,21.198,15.988,21.198z"/><path d="M16.012,32c-0.325,0-0.63-0.158-0.817-0.424L6.801,19.68c-0.273-0.387-0.237-0.913,0.086-1.259c0.325-0.348,0.847-0.417,1.251-0.171l7.873,4.801l7.849-4.801c0.404-0.248,0.927-0.177,1.251,0.17c0.324,0.346,0.361,0.871,0.088,1.259l-8.37,11.896C16.643,31.842,16.338,32,16.012,32L16.012,32z M11.217,22.47l4.794,6.794l4.777-6.79l-4.254,2.603c-0.32,0.195-0.723,0.196-1.042,0L11.217,22.47z"/><path d="M16.012,32c-0.552,0-1-0.447-1-1v-6.777c0-0.553,0.448-1,1-1s1,0.447,1,1V31C17.012,31.553,16.564,32,16.012,32z"/></svg>