<svg xmlns="http://www.w3.org/2000/svg" viewBox="0 0 32 32"><!--! Font Icona - https://fonticona.com | License - https://fonticona.com/license | Copyright 2022 FontIcona.com --><path d="M26.946,32H4.096c-0.552,0-1-0.447-1-1v-3.072c0-0.551,0.447-0.998,0.999-1c1.24-0.004,2.552-0.4,2.552-0.771V6.336c0-0.001,0-0.001,0-0.002C6.584,6.261,6.339,6.095,5.752,6.002c-0.037-0.006-0.074-0.014-0.11-0.024L3.829,5.475C3.396,5.355,3.096,4.96,3.096,4.511V1.219c0-0.273,0.112-0.535,0.31-0.724C3.604,0.307,3.862,0.216,4.143,0.22c0.116,0.005,11.736,0.54,22.432-0.218c0.283-0.017,0.566,0.083,0.771,0.284c0.204,0.2,0.313,0.479,0.299,0.765l-0.487,9.565c-0.027,0.532-0.467,0.949-0.999,0.949h-1.394c-0.424,0-0.802-0.267-0.942-0.667l-1.425-4.032c-0.023-0.068-0.334-0.807-1.896-0.788c-2.724-0.165-5.836-0.268-7.167-0.203v7.688l4.478-0.151c0.086-0.012,0.551-0.104,0.68-0.634l0.673-2.448c0.119-0.434,0.514-0.735,0.964-0.735h1.608c0.553,0,1,0.448,1,1v11.4c0,0.553-0.447,1-1,1h-1.551c-0.421,0-0.797-0.264-0.94-0.659l-0.879-2.425c-0.028-0.079-0.047-0.16-0.055-0.244c-0.034-0.164-0.254-0.253-0.658-0.222c-0.034,0.003-0.067,0.004-0.104,0.003l-4.314-0.124l-0.053,6.71c0.012,0.368,0.19,1.022,1.243,1.022h6.851c0.053-0.003,1.976-0.1,2.839-2.121l1.434-3.197c0.144-0.32,0.444-0.542,0.793-0.584l1.441-0.173c0.309-0.037,0.604,0.067,0.821,0.281s0.324,0.515,0.292,0.817l-0.958,9.026C27.887,31.614,27.458,32,26.946,32z M5.096,30h20.951l0.623-5.87l-0.721,1.607c-1.374,3.215-4.518,3.315-4.65,3.318h-6.871c-2.379,0-3.243-1.812-3.243-3.03l0.061-7.738c0.002-0.269,0.112-0.525,0.306-0.712c0.194-0.186,0.456-0.273,0.723-0.28l5.287,0.151c1.726-0.107,2.566,1.009,2.723,1.877l0.455,1.256v-8.425l-0.31,1.125c-0.38,1.563-1.759,2.077-2.512,2.129l-5.548,0.188c-0.26,0.011-0.534-0.092-0.729-0.281c-0.195-0.188-0.305-0.448-0.305-0.719V5.078c0-0.276,0.135-0.582,0.336-0.771c0.326-0.306,0.771-0.724,8.879-0.228c0.029,0,0.059,0,0.088,0c3.047,0,3.644,2.106,3.668,2.196l0.935,2.639l0.349-6.842C16.987,2.608,8.084,2.368,5.096,2.26v1.491l1.029,0.285c2.11,0.357,2.571,1.634,2.521,2.346v19.774c0,1.726-1.745,2.512-3.551,2.716V30z M6.656,6.197C6.656,6.197,6.656,6.197,6.656,6.197C6.656,6.197,6.656,6.197,6.656,6.197z M6.657,6.194c0,0.001,0,0.001,0,0.002C6.656,6.195,6.657,6.195,6.657,6.194z M6.657,6.192c0,0,0,0.001,0,0.002C6.657,6.193,6.657,6.192,6.657,6.192z"/></svg>