<svg xmlns="http://www.w3.org/2000/svg" viewBox="0 0 32 32"><!--! Font Icona - https://fonticona.com | License - https://fonticona.com/license | Copyright 2022 FontIcona.com --><path d="M20.84,32c-1.103,0-2.195-0.233-3.132-0.78c-1.179-0.689-1.982-1.945-2.204-3.445c-0.237-1.599,0.225-3.203,1.235-4.292c0.612-0.658,1.567-1.144,2.543-1.231c-1.13-0.209-1.978-0.745-2.591-1.376c-0.462,1.034-1.193,1.857-2.177,2.443c-1.077,0.644-2.42,0.764-3.991,0.353c-0.693-0.18-1.459-0.466-2.275-0.849c-0.684-0.322-1.339-0.748-1.898-1.231c-1.327-1.15-2.317-2.813-2.944-4.941c-0.37-1.253-0.443-2.533-0.467-3.619c-0.023-1.049,0.092-2.541,1.353-3.377c0.561-0.373,1.268-0.582,2.025-0.569c0.001,0,4.054,0.033,4.054,0.033c0.86,0,1.058-0.603,1.098-0.962L11.466,3.37c0-1.075,0.318-1.928,0.944-2.534c0.869-0.84,1.978-0.819,2.101-0.824c2.835-0.154,4.147,1.175,4.617,2.336c1.912,0.167,4.508,0.759,4.922,0.856c5.391,0.716,5.232,8.714,5.193,9.671c0.972,9.769-1.073,14.369-1.161,14.56c-0.279,0.608-0.636,1.315-1.16,1.935c-0.436,0.516-1.026,1.016-1.663,1.407C24.065,31.509,22.442,32,20.84,32z M19.591,24.235c-0.486,0-1.064,0.262-1.386,0.608c-0.592,0.638-0.869,1.649-0.723,2.638c0.133,0.897,0.583,1.631,1.235,2.012c1.54,0.901,4.003,0.494,5.491-0.421c0.46-0.283,0.881-0.636,1.184-0.994c0.369-0.437,0.647-0.992,0.869-1.478c0.018-0.039,1.91-4.394,0.982-13.599c-0.005-0.05-0.006-0.103-0.004-0.153c0.004-0.072,0.333-7.198-3.491-7.666c-0.036-0.004-0.072-0.011-0.107-0.02c-0.035-0.008-3.531-0.828-5.317-0.857c-0.522-0.009-0.948-0.417-0.981-0.937c-0.026-0.232-0.289-1.488-2.815-1.357c-0.44,0.003-1.064,0.182-1.064,1.359l-0.002,4.883c-0.096,1.201-0.997,2.866-3.102,2.866l-4.06-0.033c-0.354-0.006-0.671,0.081-0.904,0.236c-0.334,0.221-0.48,0.751-0.459,1.666c0.021,0.955,0.083,2.069,0.387,3.097c0.517,1.756,1.303,3.1,2.336,3.994c0.416,0.36,0.927,0.692,1.439,0.934c0.703,0.33,1.353,0.573,1.928,0.723c1.033,0.269,1.862,0.224,2.462-0.134c0.66-0.395,1.142-0.956,1.43-1.67c0.199-0.49,0.353-1.087,0.456-1.774c0.072-0.48,0.477-0.838,0.961-0.852c0.47,0.011,0.904,0.319,1.005,0.789c0.048,0.212,0.518,2.019,2.58,2.229c0.163,0.017,4.073,0.438,4.712,3.65c0.429,1.6,0.015,4.369-2.944,5.187c-1.296,0.36-3.075-0.298-3.569-1.808c-0.532-1.63,0.741-2.535,1.425-3.022c0.044-0.031,0.087-0.063,0.13-0.093C19.648,24.236,19.619,24.235,19.591,24.235z M21.396,22.846c0.326,0.288,0.523,0.684,0.553,1.117c0.038,0.572-0.223,1.173-0.68,1.567c-0.168,0.146-0.363,0.286-0.564,0.43c-0.758,0.539-0.731,0.621-0.683,0.771c0.121,0.371,0.764,0.604,1.133,0.501c1.993-0.551,1.624-2.439,1.53-2.812C22.533,23.657,21.982,23.163,21.396,22.846z"/><path d="M24.573,16.172c0.131-0.209,0.211-0.44,0.211-0.688c0-0.878-0.924-1.589-2.065-1.589c-1.061,0-1.924,0.618-2.041,1.411C21.856,15.689,23.186,15.981,24.573,16.172z"/><path d="M3.512,8.732c-0.309,0-0.612-0.135-0.804-0.39C2.412,7.949,2.423,7.412,2.767,7.058l6.381-6.564c0.35-0.361,0.914-0.405,1.317-0.102c0.395,0.297,0.513,0.836,0.282,1.27c-0.017,0.036-0.142,0.327-0.129,0.864l0,3.766c0.016,0.251,0.004,0.914-0.478,1.475c-0.264,0.308-0.76,0.681-1.622,0.71l-4.07,0.001C4.269,8.517,4.068,8.576,4.001,8.611C3.848,8.692,3.679,8.732,3.512,8.732z M8.618,3.908L6.12,6.478l2.364,0c0.109-0.004,0.16-0.032,0.16-0.032C8.639,6.407,8.617,6.371,8.617,6.331L8.618,3.908z"/></svg>