<svg xmlns="http://www.w3.org/2000/svg" viewBox="0 0 32 32"><!--! Font Icona - https://fonticona.com | License - https://fonticona.com/license | Copyright 2022 FontIcona.com --><path d="M15.625,27.107H3.667C1.645,27.107,0,25.473,0,23.463v-0.341c0-2.01,1.645-3.645,3.667-3.645h11.958c2.021,0,3.667,1.635,3.667,3.645v0.341C19.292,25.473,17.647,27.107,15.625,27.107z M3.667,21.478C2.748,21.478,2,22.215,2,23.122v0.341c0,0.907,0.748,1.645,1.667,1.645h11.958c0.919,0,1.667-0.737,1.667-1.645v-0.341c0-0.907-0.748-1.645-1.667-1.645H3.667z"/><ellipse cx="14.682" cy="23.293" rx="1.25" ry="1.239"/><ellipse cx="9.646" cy="23.293" rx="1.25" ry="1.239"/><ellipse cx="4.717" cy="23.293" rx="1.25" ry="1.239"/><path d="M17.937,19.985H3.875c-1.103,0-2-0.897-2-2v-5.506c0-1.103,0.897-2,2-2h4.362V6.893c0-1.103,0.897-2,2-2h2.786c0.831,0,1.846,0.44,2.414,1.047l2.692,2.88c0.552,0.589,0.952,1.604,0.952,2.413v6.753C19.081,18.635,19.081,19.985,17.937,19.985z M8.359,17.985h8.722v-6.753c0-0.295-0.212-0.833-0.413-1.047l-2.692-2.88c-0.188-0.2-0.678-0.413-0.953-0.413h-2.786v3.587c0,1.103-0.897,2-2,2H3.875v5.506H8.359z"/><path d="M28.906,22.892c-0.095,0-0.192-0.002-0.291-0.007l-6.398,0.001c-0.552,0-1-0.447-1-1s0.448-1,1-1h6.443c0.768,0.026,1.15-0.11,1.261-0.257c0.124-0.163,0.079-0.504,0.032-0.676l-2.191-4.484c-0.243-0.497-0.037-1.096,0.459-1.338c0.497-0.244,1.095-0.037,1.337,0.459l2.267,4.652c0.054,0.149,0.504,1.489-0.292,2.569C31.006,22.529,30.123,22.892,28.906,22.892z"/><path d="M22.216,22.886c-0.214,0-0.43-0.068-0.612-0.21c-0.437-0.338-0.517-0.966-0.178-1.402l5.254-6.781c0.339-0.438,0.967-0.516,1.403-0.178c0.437,0.338,0.517,0.966,0.178,1.402l-5.254,6.781C22.81,22.753,22.515,22.886,22.216,22.886z"/><path d="M18.082,18.099c-0.272,0-0.542-0.11-0.74-0.326c-0.372-0.408-0.342-1.041,0.066-1.413l6.168-5.619c0.229-0.207,0.539-0.297,0.846-0.246c0.305,0.054,0.568,0.245,0.712,0.519l2.136,4.048c0.258,0.488,0.071,1.094-0.417,1.352c-0.489,0.257-1.093,0.071-1.351-0.418l-1.534-2.905l-5.213,4.749C18.563,18.013,18.322,18.099,18.082,18.099z"/><path d="M28.903,16.527c-0.372,0-0.729-0.208-0.901-0.565l-3.727-7.716l-5.46,5.905c-0.374,0.404-1.006,0.432-1.413,0.056c-0.406-0.375-0.431-1.008-0.056-1.413l6.457-6.983c0.225-0.242,0.554-0.355,0.882-0.311c0.327,0.049,0.609,0.257,0.753,0.555l4.365,9.038c0.24,0.497,0.032,1.095-0.465,1.335C29.198,16.495,29.049,16.527,28.903,16.527z"/><path d="M9.237,19.985c-0.552,0-1-0.447-1-1V9.423c0-0.553,0.448-1,1-1s1,0.447,1,1v9.562C10.237,19.538,9.789,19.985,9.237,19.985z"/></svg>