<svg xmlns="http://www.w3.org/2000/svg" viewBox="0 0 32 32"><!--! Font Icona - https://fonticona.com | License - https://fonticona.com/license | Copyright 2022 FontIcona.com --><path d="M8.333,22.769c-0.189,0-0.382-0.01-0.577-0.033c-1.503-0.174-3.048-1.144-3.643-1.553c-0.925-0.637-1.821-1.49-2.524-2.403c-1.223-1.589-2.173-4.087-1.171-6.332c1.145-2.567,4.327-2.935,5.686-3.091c1.881-0.218,3.839-0.154,5.823,0.188c0.334,0.058,0.666,0.133,0.992,0.225c0.249,0.07,0.494,0.148,0.74,0.227c0.925,0.294,1.584,0.405,2.269,0.412c0.7-0.004,1.326-0.086,1.914-0.25c0.221-0.062,0.44-0.13,0.66-0.199c0.5-0.156,1.016-0.317,1.574-0.414c1.982-0.343,3.942-0.407,5.823-0.188c1.359,0.157,4.541,0.524,5.686,3.092c1.002,2.245,0.052,4.742-1.171,6.331c-0.703,0.913-1.6,1.767-2.524,2.403c-0.595,0.409-2.14,1.379-3.643,1.553c-2.278,0.264-4.218-1.091-5.48-2.132l-0.262-0.217C17.69,19.71,16.853,19.013,16,18.939c-0.853,0.073-1.69,0.771-2.502,1.447l-0.262,0.217C12.082,21.556,10.36,22.769,8.333,22.769z M8.321,11.23c-0.672,0-1.336,0.038-1.988,0.113c-1.686,0.195-3.489,0.575-4.089,1.92C1.6,14.707,2.342,16.48,3.173,17.56c0.571,0.741,1.327,1.461,2.073,1.976c0.952,0.655,2.027,1.131,2.739,1.214c1.173,0.135,2.399-0.385,3.979-1.688l0.254-0.211c0.882-0.735,1.948-1.623,3.263-1.857c0.102-0.037,0.211-0.058,0.326-0.059c0.065,0,0.13,0,0.194,0.002c0.064-0.003,0.128-0.004,0.194-0.002c0.114,0.001,0.224,0.022,0.326,0.059c1.315,0.234,2.381,1.123,3.263,1.857l0.254,0.211c1.58,1.303,2.81,1.828,3.979,1.688c0.711-0.082,1.787-0.558,2.739-1.213c0.747-0.514,1.502-1.234,2.073-1.976c0.832-1.08,1.574-2.853,0.93-4.296c-0.6-1.345-2.403-1.726-4.089-1.92c-1.692-0.195-3.459-0.137-5.253,0.173c-0.428,0.074-0.86,0.209-1.317,0.352c-0.239,0.075-0.478,0.149-0.719,0.216c-0.761,0.212-1.559,0.318-2.437,0.324c-1.152-0.001-2.13-0.264-2.878-0.502c-0.236-0.076-0.46-0.147-0.686-0.211c-0.26-0.073-0.523-0.134-0.79-0.18C10.483,11.326,9.391,11.23,8.321,11.23z"/><path d="M8.687,18.563c-0.338,0-0.678-0.034-1.016-0.104c-1.746-0.365-3.178-1.645-3.736-3.34l-0.181-0.549l0.385-0.43c1.19-1.33,3.011-1.93,4.76-1.566l0,0c1.745,0.365,3.175,1.645,3.733,3.34l0.181,0.549l-0.385,0.43C11.469,17.965,10.097,18.563,8.687,18.563z M6.087,15.057c0.424,0.734,1.147,1.268,1.992,1.444c0.843,0.178,1.719-0.024,2.401-0.526c-0.424-0.733-1.146-1.267-1.99-1.443l0,0C7.647,14.355,6.77,14.554,6.087,15.057z"/><path d="M23.313,18.563c-1.41,0-2.782-0.598-3.742-1.671l-0.385-0.43l0.181-0.549c0.558-1.695,1.988-2.975,3.733-3.34l0,0c1.748-0.366,3.571,0.235,4.76,1.566l0.385,0.43l-0.181,0.549c-0.558,1.696-1.99,2.976-3.735,3.34C23.992,18.529,23.651,18.563,23.313,18.563z M21.52,15.975c0.682,0.502,1.558,0.703,2.401,0.526c0.845-0.176,1.567-0.71,1.992-1.444c-0.682-0.502-1.557-0.702-2.403-0.525C22.665,14.708,21.943,15.241,21.52,15.975z"/></svg>