<svg xmlns="http://www.w3.org/2000/svg" viewBox="0 0 32 32"><!--! Font Icona - https://fonticona.com | License - https://fonticona.com/license | Copyright 2022 FontIcona.com --><path d="M19.947,22.722c-0.454,0-0.865-0.311-0.973-0.772c-0.126-0.538,0.208-1.076,0.746-1.202l0.822-0.192c1.661-0.688,3.26-1.54,4.753-2.533c1.184-0.793,2.331-1.663,3.42-2.592c-1.102-0.929-2.265-1.795-3.469-2.583c-0.894-0.596-1.824-1.141-2.773-1.624c-1.106-0.59-2.251-1.093-3.421-1.503c-2.554-0.805-5.709-0.854-8.409-0.124c-0.527,0.143-1.081-0.17-1.226-0.704c-0.145-0.533,0.171-1.083,0.704-1.227c3.054-0.827,6.63-0.768,9.562,0.157c1.296,0.454,2.535,0.998,3.714,1.627c1.001,0.51,1.999,1.094,2.951,1.728c1.599,1.046,3.135,2.229,4.559,3.511c0.218,0.196,0.339,0.479,0.331,0.771c-0.009,0.293-0.146,0.568-0.374,0.751l-0.111,0.089c-1.332,1.203-2.81,2.354-4.348,3.384c-1.628,1.083-3.368,2.007-5.177,2.75c-0.049,0.021-0.101,0.037-0.152,0.049l-0.901,0.211C20.1,22.714,20.022,22.722,19.947,22.722z"/><path d="M19.558,22.188c-0.267,0-0.533-0.106-0.73-0.317c-0.377-0.403-0.356-1.036,0.047-1.414c2.162-2.022,2.755-5.574,1.349-8.085c-1.688-3.016-5.895-4.136-9.007-2.395c-0.481,0.27-1.091,0.098-1.361-0.384c-0.27-0.482-0.098-1.091,0.385-1.361c4.11-2.302,9.481-0.852,11.729,3.163c1.864,3.333,1.122,7.857-1.728,10.523C20.048,22.098,19.803,22.188,19.558,22.188z"/><path d="M26.729,32c-0.309,0-0.612-0.142-0.809-0.41l-21.922-30C3.673,1.144,3.77,0.519,4.216,0.192C4.662-0.134,5.287-0.035,5.613,0.41l21.922,30c0.325,0.446,0.229,1.071-0.218,1.397C27.14,31.938,26.933,32,26.729,32z"/><path d="M17.084,28.489c-0.309,0-0.612-0.142-0.809-0.41l-15-20.533C0.95,7.1,1.047,6.474,1.493,6.148C1.939,5.822,2.564,5.92,2.891,6.366l15,20.533c0.325,0.446,0.229,1.072-0.218,1.397C17.495,28.426,17.288,28.489,17.084,28.489z"/><path d="M9.262,26.689c-0.309,0-0.612-0.142-0.809-0.41l-7.5-10.267c-0.325-0.446-0.229-1.072,0.218-1.397c0.446-0.326,1.071-0.227,1.397,0.218l7.5,10.267c0.325,0.446,0.229,1.072-0.218,1.397C9.673,26.626,9.466,26.689,9.262,26.689z"/></svg>