<svg xmlns="http://www.w3.org/2000/svg" viewBox="0 0 32 32"><!--! Font Icona - https://fonticona.com | License - https://fonticona.com/license | Copyright 2022 FontIcona.com --><path d="M16,24.416c-4.523,0-8.204-3.68-8.204-8.204S11.477,8.009,16,8.009s8.204,3.68,8.204,8.204S20.523,24.416,16,24.416z M16,10.009c-3.421,0-6.204,2.783-6.204,6.204s2.783,6.204,6.204,6.204s6.204-2.783,6.204-6.204S19.421,10.009,16,10.009z"/><path d="M16,25.647c-1.565,0-3.119-0.281-4.575-0.831c-2.283-0.848-4.396-2.069-6.274-3.627c-1.601-1.289-3.096-2.749-4.433-4.332c-0.062-0.059-0.16-0.183-0.247-0.315L0.07,15.927l0.814-0.984c2-2.322,4.312-4.319,6.883-5.951c1.702-1.107,3.579-1.902,5.569-2.356c2.569-0.543,5.194-0.307,7.609,0.682c2.104,0.843,4.064,2.007,5.816,3.458c1.65,1.313,3.191,2.809,4.563,4.433l0.67,0.891l-1.176,1.252c-0.507,0.544-1.017,1.09-1.547,1.622c-1.923,1.963-4.136,3.619-6.571,4.915c-1.631,0.857-3.379,1.419-5.2,1.672C17.002,25.618,16.5,25.647,16,25.647z M2.617,15.998c1.159,1.32,2.435,2.543,3.8,3.643c1.716,1.423,3.633,2.531,5.709,3.302c1.629,0.614,3.4,0.833,5.123,0.633c1.569-0.219,3.096-0.71,4.518-1.457c2.25-1.196,4.298-2.729,6.084-4.553c0.521-0.521,1.014-1.051,1.505-1.579l0.001-0.001c-1.155-1.307-2.458-2.547-3.856-3.659c-1.607-1.33-3.388-2.388-5.307-3.157c-2.049-0.84-4.271-1.039-6.428-0.582c-1.746,0.399-3.405,1.102-4.918,2.086C6.522,12.151,4.43,13.939,2.617,15.998z"/></svg>