<svg xmlns="http://www.w3.org/2000/svg" viewBox="0 0 32 32"><!--! Font Icona - https://fonticona.com | License - https://fonticona.com/license | Copyright 2022 FontIcona.com --><path d="M14.505,25.75c-0.553,0-1-0.448-1-1V5.418c0-0.105,0.023-2.606,2.04-4.193c1.636-1.286,4.023-1.562,7.093-0.817c0.537,0.13,0.866,0.67,0.736,1.207c-0.129,0.537-0.672,0.868-1.207,0.736c-2.434-0.589-4.238-0.444-5.37,0.434c-1.255,0.974-1.292,2.624-1.292,2.64V24.75C15.505,25.302,15.058,25.75,14.505,25.75z"/><path d="M18.453,12.721h-7.896c-0.553,0-1-0.448-1-1s0.447-1,1-1h7.896c0.553,0,1,0.448,1,1S19.006,12.721,18.453,12.721z"/></svg>