<svg xmlns="http://www.w3.org/2000/svg" viewBox="0 0 32 32"><!--! Font Icona - https://fonticona.com | License - https://fonticona.com/license | Copyright 2022 FontIcona.com --><path d="M29,32h-7.755c-0.552,0-1-0.448-1-1v-8.456c0-0.552,0.448-1,1-1h3.162l1.207-3.378h-3.258c-0.552,0-1-0.448-1-1c0-0.333-0.017-0.676-0.033-1.016c-0.082-1.735-0.206-4.358,2.634-4.899c0.062-0.012,0.125-0.018,0.188-0.018h1.222V8.12c-2.871-0.767-5.04-0.625-6.454,0.423c-1.777,1.314-1.969,3.795-1.969,4.801v4.022c0,0.552-0.448,1-1,1h-3.855v3.178h3.645c0.552,0,1,0.448,1,1V31c0,0.56-0.421,1.003-1.022,1c-0.007,0-0.015,0-0.022,0H3c-1.654,0-3-1.346-3-3V3c0-1.654,1.346-3,3-3h26c1.654,0,3,1.346,3,3v26C32,30.654,30.654,32,29,32z M22.245,30H29c0.551,0,1-0.449,1-1V3c0-0.551-0.449-1-1-1H3C2.449,2,2,2.449,2,3v26c0,0.551,0.449,1,1,1h11.733v-6.456h-3.645c-0.552,0-1-0.448-1-1v-5.178c0-0.552,0.448-1,1-1h3.855v-3.022c0-1.309,0.271-4.553,2.779-6.409c2.066-1.529,5.072-1.705,8.936-0.525c0.42,0.129,0.708,0.517,0.708,0.957v4.867c0,0.552-0.448,1-1,1h-2.121c-0.869,0.194-1.025,0.708-0.925,2.822c0.001,0.037,0.003,0.074,0.005,0.111h3.708c0.325,0,0.63,0.158,0.817,0.424c0.188,0.266,0.234,0.606,0.125,0.913l-1.922,5.378c-0.143,0.398-0.52,0.664-0.942,0.664h-2.867V30z"/></svg>