<svg xmlns="http://www.w3.org/2000/svg" viewBox="0 0 32 32"><!--! Font Icona - https://fonticona.com | License - https://fonticona.com/license | Copyright 2022 FontIcona.com --><path d="M16,32C7.178,32,0,24.822,0,16S7.178,0,16,0s16,7.178,16,16S24.822,32,16,32z M16,2C8.28,2,2,8.28,2,16s6.28,14,14,14s14-6.28,14-14S23.72,2,16,2z"/><path d="M11.929,18.429C10.038,18.429,8.5,16.891,8.5,15s1.538-3.429,3.429-3.429c1.89,0,3.428,1.538,3.428,3.429S13.819,18.429,11.929,18.429z M11.929,13.571c-0.788,0-1.429,0.641-1.429,1.429s0.641,1.429,1.429,1.429s1.428-0.641,1.428-1.429S12.716,13.571,11.929,13.571z"/><path d="M20.071,18.429c-1.89,0-3.428-1.538-3.428-3.429s1.538-3.429,3.428-3.429c1.891,0,3.429,1.538,3.429,3.429S21.962,18.429,20.071,18.429z M20.071,13.571c-0.788,0-1.428,0.641-1.428,1.429s0.641,1.429,1.428,1.429S21.5,15.788,21.5,15S20.859,13.571,20.071,13.571z"/><path d="M24.475,12.554c-1.875,0-3.401-1.526-3.401-3.402c-0.005-0.081-0.125-3.146,2.267-5.887l0.573-0.657l0.729,0.479c0.136,0.089,3.337,2.235,3.233,6.092l0,0C27.825,11.071,26.331,12.554,24.475,12.554z M24.253,5.359C23,7.255,23.071,9.083,23.072,9.103c0.001,0.822,0.629,1.451,1.402,1.451c0.765,0,1.38-0.627,1.402-1.429l1,0.027l-1-0.027C25.924,7.348,24.958,6.059,24.253,5.359z"/><path d="M22.557,25.819c-0.234,0-0.469-0.082-0.659-0.249l-1.618-1.421l-1.619,1.421c-0.377,0.332-0.943,0.331-1.32,0l-1.614-1.419l-1.613,1.419c-0.378,0.332-0.943,0.332-1.321,0l-1.613-1.419L9.57,25.57c-0.415,0.365-1.047,0.325-1.412-0.089c-0.365-0.415-0.325-1.046,0.089-1.412l2.271-2c0.378-0.333,0.944-0.333,1.322,0l1.613,1.419l1.613-1.419c0.378-0.332,0.944-0.332,1.321,0l1.615,1.42l1.618-1.42c0.377-0.331,0.942-0.331,1.319,0l2.278,2c0.415,0.364,0.456,0.996,0.092,1.411C23.111,25.704,22.834,25.819,22.557,25.819z"/></svg>