<svg xmlns="http://www.w3.org/2000/svg" viewBox="0 0 32 32"><!--! Font Icona - https://fonticona.com | License - https://fonticona.com/license | Copyright 2022 FontIcona.com --><path d="M16,32C7.178,32,0,24.822,0,16S7.178,0,16,0s16,7.178,16,16S24.822,32,16,32z M16,2C8.28,2,2,8.28,2,16s6.28,14,14,14s14-6.28,14-14S23.72,2,16,2z"/><path d="M22.071,18.429c-1.89,0-3.428-1.538-3.428-3.429s1.538-3.429,3.428-3.429c1.891,0,3.429,1.538,3.429,3.429S23.962,18.429,22.071,18.429z M22.071,13.571c-0.788,0-1.428,0.641-1.428,1.429s0.641,1.429,1.428,1.429S23.5,15.788,23.5,15S22.859,13.571,22.071,13.571z"/><path d="M9.929,20.869c-3.236,0-5.869-2.633-5.869-5.869s2.633-5.869,5.869-5.869c3.236,0,5.869,2.633,5.869,5.869S13.165,20.869,9.929,20.869z M9.929,11.131c-2.133,0-3.869,1.735-3.869,3.869s1.736,3.869,3.869,3.869s3.869-1.735,3.869-3.869S12.062,11.131,9.929,11.131z"/><path d="M1.201,22.038c-0.572-2.245,0.654-4.928,3.051-6.675l1.178,1.615c-2.012,1.468-2.6,3.351-2.29,4.565L1.201,22.038z"/><path d="M14.045,12.135l-1.354-1.473c3.987-3.664,9.108-5.207,15.652-4.724l-0.147,1.994C22.151,7.488,17.653,8.82,14.045,12.135z"/><path d="M16.448,25.877c-1.936,0-3.87-0.592-5.343-1.773c-0.431-0.346-0.5-0.976-0.154-1.406s0.977-0.498,1.406-0.154c2.256,1.811,5.927,1.812,8.183,0c0.43-0.344,1.061-0.276,1.406,0.154c0.346,0.431,0.277,1.061-0.154,1.406C20.318,25.285,18.383,25.877,16.448,25.877z"/></svg>