<svg xmlns="http://www.w3.org/2000/svg" viewBox="0 0 32 32"><!--! Font Icona - https://fonticona.com | License - https://fonticona.com/license | Copyright 2022 FontIcona.com --><path d="M16,32C7.178,32,0,24.822,0,16S7.178,0,16,0s16,7.178,16,16S24.822,32,16,32z M16,2C8.28,2,2,8.28,2,16s6.28,14,14,14s14-6.28,14-14S23.72,2,16,2z"/><path d="M9.21,18.799c-2.287,0-4.147-2.345-4.147-5.228s1.86-5.228,4.147-5.228s4.147,2.345,4.147,5.228S11.497,18.799,9.21,18.799z M9.21,10.344c-1.164,0-2.147,1.478-2.147,3.228s0.983,3.228,2.147,3.228s2.147-1.478,2.147-3.228S10.374,10.344,9.21,10.344z"/><path d="M22.492,18.799c-2.45,0-4.444-2.345-4.444-5.228s1.994-5.228,4.444-5.228c2.451,0,4.445,2.345,4.445,5.228S24.943,18.799,22.492,18.799z M22.492,10.344c-1.348,0-2.444,1.448-2.444,3.228s1.097,3.228,2.444,3.228c1.349,0,2.445-1.448,2.445-3.228S23.841,10.344,22.492,10.344z"/><path d="M16,28.553c-5.531,0-6.692-2.221-6.692-4.083c0-2.895,3.002-5.25,6.692-5.25s6.692,2.355,6.692,5.25C22.692,26.333,21.531,28.553,16,28.553z M16,21.22c-2.544,0-4.692,1.488-4.692,3.25c0,1.382,1.579,2.083,4.692,2.083s4.692-0.701,4.692-2.083C20.692,22.708,18.544,21.22,16,21.22z"/></svg>