<svg xmlns="http://www.w3.org/2000/svg" viewBox="0 0 32 32"><!--! Font Icona - https://fonticona.com | License - https://fonticona.com/license | Copyright 2022 FontIcona.com --><circle cx="9.957" cy="12.57" r="1.25"/><circle cx="22.043" cy="12.57" r="1.25"/><path d="M16,32C7.178,32,0,24.822,0,16S7.178,0,16,0s16,7.178,16,16S24.822,32,16,32z M16,2C8.28,2,2,8.28,2,16s6.28,14,14,14s14-6.28,14-14S23.72,2,16,2z"/><path d="M16,26.416c-4.081,0-7.807-2.403-9.491-6.121c-0.228-0.503-0.005-1.096,0.498-1.323c0.504-0.229,1.096-0.004,1.324,0.498c1.361,3.005,4.371,4.946,7.669,4.946c3.44,0,6.375-1.886,7.659-4.923c0.215-0.509,0.802-0.747,1.311-0.532s0.746,0.802,0.531,1.31C23.898,24.061,20.258,26.416,16,26.416z"/></svg>