<svg xmlns="http://www.w3.org/2000/svg" viewBox="0 0 32 32"><!--! Font Icona - https://fonticona.com | License - https://fonticona.com/license | Copyright 2022 FontIcona.com --><path d="M12.691,8.314c-0.17,0-0.341-0.017-0.512-0.05c-1.426-0.279-2.361-1.675-2.085-3.112c0.135-0.699,0.532-1.304,1.121-1.702c0.585-0.393,1.284-0.534,1.976-0.4c1.425,0.279,2.36,1.675,2.085,3.11l0,0c-0.135,0.701-0.532,1.306-1.121,1.704C13.716,8.16,13.209,8.314,12.691,8.314z M12.685,5.001c-0.124,0-0.244,0.036-0.35,0.107c-0.145,0.098-0.242,0.247-0.275,0.421c-0.069,0.358,0.158,0.704,0.506,0.772c0.165,0.032,0.331-0.001,0.471-0.096c0.145-0.098,0.242-0.247,0.275-0.421V5.783c0.069-0.356-0.158-0.702-0.506-0.771C12.766,5.005,12.725,5.001,12.685,5.001z"/><path d="M20.369,10.889c-0.169,0-0.339-0.017-0.509-0.05c-1.427-0.281-2.362-1.677-2.087-3.112c0.135-0.701,0.533-1.305,1.122-1.702c0.584-0.394,1.288-0.534,1.974-0.401c1.426,0.28,2.361,1.677,2.087,3.111v0.002c-0.136,0.7-0.534,1.304-1.122,1.701C21.394,10.734,20.887,10.889,20.369,10.889z M20.364,7.574c-0.123,0-0.244,0.037-0.35,0.107c-0.146,0.098-0.243,0.248-0.276,0.422c-0.069,0.357,0.158,0.704,0.508,0.772c0.158,0.031,0.329-0.003,0.469-0.097c0.145-0.098,0.243-0.247,0.276-0.422C21.06,8,20.832,7.654,20.483,7.586C20.444,7.578,20.404,7.574,20.364,7.574z"/><path d="M19.535,15.021c-0.283,0-0.564-0.12-0.763-0.353c-1.981-2.336-5.779-3.055-8.461-1.608c-0.488,0.265-1.094,0.08-1.355-0.404C8.693,12.169,8.875,11.562,9.36,11.3c3.47-1.874,8.376-0.943,10.938,2.073c0.357,0.422,0.306,1.053-0.115,1.41C19.994,14.942,19.765,15.021,19.535,15.021z"/><path d="M16.671,30.97c-0.698,0-1.403-0.048-2.095-0.144l0.271-1.98c0.603,0.082,1.216,0.124,1.823,0.124C24.021,28.97,30,22.921,30,15.485S24.021,2,16.671,2C9.797,2,4.096,7.211,3.41,14.12l-1.99-0.197C2.207,5.985,8.764,0,16.671,0C25.123,0,32,6.946,32,15.485C32,24.023,25.123,30.97,16.671,30.97z"/><path d="M10.529,32c-2.692,0-6.111-1.37-7.63-4.07c-1.096-1.949-1.001-4.07-0.91-6.122c0.086-1.936,0.167-3.765-0.797-5.216c-0.057-0.085-0.146-0.185-0.241-0.296c-0.432-0.505-1.021-1.195-0.944-2.045c0.027-0.31,0.159-0.759,0.627-1.14c1.226-0.997,3.416-0.593,4.529,0.083c1.252,0.761,1.825,2.047,2.331,3.181c0.09,0.201,0.178,0.4,0.27,0.593c0.56,1.178,0.841,1.322,2.007,1.029c2.307-0.574,6.795-1.982,6.84-1.997c0.529-0.166,1.088,0.129,1.254,0.654c0.165,0.527-0.127,1.088-0.654,1.254c-0.187,0.059-4.59,1.44-6.955,2.03c-2.119,0.527-3.325-0.063-4.298-2.113c-0.099-0.206-0.193-0.42-0.29-0.636c-0.424-0.951-0.824-1.85-1.543-2.286c-0.535-0.326-1.51-0.476-2.004-0.343c0.108,0.152,0.261,0.33,0.352,0.437c0.155,0.182,0.294,0.35,0.387,0.489c1.324,1.994,1.225,4.239,1.129,6.41c-0.082,1.853-0.16,3.602,0.656,5.053c1.16,2.063,4.024,3.123,6.058,3.048c1.143-0.035,3.718-0.698,4.36-1.789c0.128-0.217,0.236-0.54-0.062-1.12c-0.252-0.491-0.059-1.094,0.433-1.347c0.492-0.254,1.094-0.058,1.347,0.433c0.694,1.352,0.386,2.404,0.005,3.051c-1.162,1.971-4.622,2.729-6.021,2.772C10.686,31.999,10.607,32,10.529,32z"/><path d="M13.115,29.129c-0.462,0-0.877-0.321-0.978-0.792c-0.114-0.54,0.23-1.071,0.771-1.187c0.946-0.201,1.649-0.44,2.007-0.953c0.279-0.399,0.4-1.05,0.314-1.216c-0.511-0.209-0.738-0.775-0.529-1.286c0.21-0.512,0.808-0.736,1.322-0.529c0.557,0.228,0.959,0.678,1.133,1.268c0.291,0.99-0.106,2.202-0.6,2.908c-0.776,1.111-2.012,1.506-3.231,1.766C13.254,29.122,13.185,29.129,13.115,29.129z"/><path d="M12.122,26.377c-0.533,0-0.976-0.421-0.998-0.958c-0.023-0.553,0.405-1.019,0.957-1.041c1.01-0.042,2.397-0.47,2.974-1.112c0.114-0.128,0.237-0.298,0.176-0.387c-0.168-0.243-0.664-0.381-0.872-0.326l-2.535,0.846c-0.527,0.175-1.091-0.108-1.265-0.632c-0.175-0.524,0.108-1.09,0.632-1.265l2.479-0.827c0.049-0.019,0.098-0.035,0.148-0.05l0.915-0.305c0.052-0.017,3.084-0.958,4.446-1.82c0.468-0.296,1.085-0.157,1.38,0.31c0.296,0.467,0.157,1.085-0.31,1.38c-0.9,0.57-2.314,1.135-3.394,1.524c0.007,0.01,0.015,0.021,0.021,0.031c0.605,0.879,0.481,1.946-0.334,2.855c-1.024,1.144-2.938,1.716-4.379,1.775C12.15,26.377,12.137,26.377,12.122,26.377z"/><path d="M19.44,20.51c-0.378,0-0.738-0.214-0.908-0.578c-0.232-0.501-0.015-1.096,0.485-1.329c0.218-0.101,0.358-0.327,0.358-0.576c0-0.349-0.271-0.632-0.604-0.632c-0.107,0.025-0.905,0.282-1.529,0.503c-0.521,0.182-1.092-0.09-1.276-0.61c-0.184-0.521,0.09-1.092,0.61-1.276c1.748-0.616,2.05-0.616,2.195-0.616c1.436,0,2.604,1.181,2.604,2.632c0,1.024-0.595,1.963-1.515,2.391C19.725,20.48,19.581,20.51,19.44,20.51z"/></svg>