<svg xmlns="http://www.w3.org/2000/svg" viewBox="0 0 32 32"><!--! Font Icona - https://fonticona.com | License - https://fonticona.com/license | Copyright 2022 FontIcona.com --><path d="M16,32C7.178,32,0,24.822,0,16S7.178,0,16,0s16,7.178,16,16S24.822,32,16,32z M16,2C8.28,2,2,8.28,2,16s6.28,14,14,14s14-6.28,14-14S23.72,2,16,2z"/><path d="M9.929,18.429C8.038,18.429,6.5,16.891,6.5,15s1.538-3.429,3.429-3.429c1.89,0,3.428,1.538,3.428,3.429S11.819,18.429,9.929,18.429z M9.929,13.571C9.141,13.571,8.5,14.212,8.5,15s0.641,1.429,1.429,1.429s1.428-0.641,1.428-1.429S10.716,13.571,9.929,13.571z"/><path d="M22.071,18.429c-1.89,0-3.428-1.538-3.428-3.429s1.538-3.429,3.428-3.429c1.891,0,3.429,1.538,3.429,3.429S23.962,18.429,22.071,18.429z M22.071,13.571c-0.788,0-1.428,0.641-1.428,1.429s0.641,1.429,1.428,1.429S23.5,15.788,23.5,15S22.859,13.571,22.071,13.571z"/><path d="M16,25.95c-2.097,0-4.195-0.64-5.792-1.921c-0.431-0.346-0.5-0.976-0.154-1.406c0.347-0.431,0.976-0.497,1.406-0.154c2.503,2.01,6.576,2.01,9.079,0c0.43-0.345,1.061-0.276,1.406,0.154c0.346,0.431,0.277,1.061-0.154,1.406C20.195,25.311,18.097,25.95,16,25.95z"/><path d="M16,8.547c-5.976,0-16-0.406-16-3.126C0,4.445,0.568,3.348,7.351,2.68C7.907,2.633,8.39,3.027,8.444,3.577C8.499,4.126,8.097,4.616,7.547,4.67c-2.31,0.228-3.79,0.511-4.666,0.753C4.792,5.943,9.192,6.547,16,6.547s11.208-0.604,13.119-1.124c-0.876-0.242-2.356-0.525-4.666-0.753c-0.549-0.054-0.951-0.544-0.897-1.093c0.054-0.55,0.541-0.944,1.093-0.897C31.432,3.348,32,4.445,32,5.421C32,6.588,29.921,8.547,16,8.547z"/></svg>