<svg xmlns="http://www.w3.org/2000/svg" viewBox="0 0 32 32"><!--! Font Icona - https://fonticona.com | License - https://fonticona.com/license | Copyright 2022 FontIcona.com --><path d="M16,32C7.178,32,0,24.822,0,16S7.178,0,16,0s16,7.178,16,16S24.822,32,16,32z M16,2C8.28,2,2,8.28,2,16s6.28,14,14,14s14-6.28,14-14S23.72,2,16,2z"/><path d="M16.006,28.022c-2.981-0.017-5.626-1.381-6.914-3.561c-0.886-1.499-0.982-3.193-0.256-4.531c0.248-0.454,0.799-0.645,1.276-0.44c3.708,1.607,7.97,1.619,11.689,0.038c0.003-0.002,0.006-0.003,0.01-0.005l0.068-0.029c0.476-0.212,1.036-0.021,1.285,0.437c0.726,1.338,0.63,3.032-0.256,4.531C21.62,26.642,18.975,28.006,16.006,28.022z M10.352,21.733c-0.036,0.541,0.12,1.133,0.461,1.711c0.731,1.236,2.479,2.562,5.192,2.578c2.702-0.016,4.45-1.342,5.181-2.578c0.342-0.578,0.498-1.17,0.461-1.711C18.006,23.027,13.992,23.026,10.352,21.733z"/><path d="M10.312,18.567c-0.117,0-0.235-0.021-0.35-0.063l-4.739-1.772c-3.963-1.609-4.286-3.924-4.127-5.161c0.157-1.226,0.894-2.229,2.075-2.824c1.183-0.599,2.638-0.689,3.926-0.281c0.748-1.125,1.937-1.97,3.232-2.248c1.291-0.277,2.496,0.039,3.387,0.895c0.9,0.863,2.104,2.867,0.045,6.584l-2.588,4.381C10.989,18.388,10.657,18.567,10.312,18.567z M5.469,10.215c-0.492,0-0.979,0.105-1.397,0.316c-0.403,0.203-0.903,0.593-0.993,1.293c-0.188,1.476,1.457,2.47,2.871,3.044l3.928,1.469l2.147-3.635c0.725-1.311,1.38-3.117,0.306-4.147c-0.508-0.487-1.14-0.478-1.583-0.382c-0.977,0.21-1.89,0.99-2.273,1.941C8.367,10.38,8.15,10.588,7.88,10.684c-0.271,0.095-0.569,0.069-0.82-0.07C6.585,10.349,6.024,10.215,5.469,10.215z"/><path d="M21.688,18.567c-0.346,0-0.677-0.18-0.861-0.491l-2.573-4.356c-2.073-3.741-0.87-5.745,0.03-6.608c0.892-0.855,2.097-1.172,3.388-0.895c1.295,0.278,2.484,1.123,3.232,2.248c1.288-0.407,2.743-0.316,3.926,0.281c1.181,0.596,1.918,1.599,2.075,2.824c0.158,1.237-0.165,3.552-4.101,5.151l-4.765,1.782C21.923,18.547,21.805,18.567,21.688,18.567z M20.785,8.121c-0.363,0-0.769,0.101-1.117,0.434c-1.074,1.03-0.418,2.837,0.321,4.172l2.133,3.61l3.954-1.479c1.387-0.564,3.033-1.559,2.844-3.034c-0.09-0.7-0.589-1.09-0.993-1.293c-0.892-0.45-2.092-0.418-2.988,0.082c-0.251,0.141-0.55,0.166-0.82,0.07c-0.271-0.096-0.487-0.304-0.595-0.569c-0.383-0.951-1.297-1.731-2.273-1.941C21.112,8.143,20.953,8.121,20.785,8.121z"/></svg>