<svg xmlns="http://www.w3.org/2000/svg" viewBox="0 0 32 32"><!--! Font Icona - https://fonticona.com | License - https://fonticona.com/license | Copyright 2022 FontIcona.com --><path d="M16,32C7.178,32,0,24.822,0,16S7.178,0,16,0s16,7.178,16,16S24.822,32,16,32z M16,2C8.28,2,2,8.28,2,16s6.28,14,14,14s14-6.28,14-14S23.72,2,16,2z"/><path d="M9.929,18.429C8.038,18.429,6.5,16.891,6.5,15s1.538-3.429,3.429-3.429c1.89,0,3.428,1.538,3.428,3.429S11.819,18.429,9.929,18.429z M9.929,13.571C9.141,13.571,8.5,14.212,8.5,15s0.641,1.429,1.429,1.429s1.428-0.641,1.428-1.429S10.716,13.571,9.929,13.571z"/><path d="M22.071,18.429c-1.89,0-3.428-1.538-3.428-3.429s1.538-3.429,3.428-3.429c1.891,0,3.429,1.538,3.429,3.429S23.962,18.429,22.071,18.429z M22.071,13.571c-0.788,0-1.428,0.641-1.428,1.429s0.641,1.429,1.428,1.429S23.5,15.788,23.5,15S22.859,13.571,22.071,13.571z"/><path d="M16,25.951c-2.097,0-4.195-0.641-5.792-1.922c-0.431-0.346-0.5-0.975-0.154-1.406c0.345-0.43,0.976-0.499,1.406-0.154c2.503,2.009,6.576,2.009,9.079,0c0.43-0.346,1.061-0.277,1.406,0.154c0.346,0.431,0.277,1.06-0.154,1.406C20.195,25.31,18.097,25.951,16,25.951z"/></svg>