<svg xmlns="http://www.w3.org/2000/svg" viewBox="0 0 32 32"><!--! Font Icona - https://fonticona.com | License - https://fonticona.com/license | Copyright 2022 FontIcona.com --><path d="M16,32C7.178,32,0,24.822,0,16S7.178,0,16,0s16,7.178,16,16S24.822,32,16,32z M16,2C8.28,2,2,8.28,2,16s6.28,14,14,14s14-6.28,14-14S23.72,2,16,2z"/><path d="M9.929,18.429C8.038,18.429,6.5,16.891,6.5,15s1.538-3.429,3.429-3.429s3.429,1.538,3.429,3.429S11.819,18.429,9.929,18.429z M9.929,13.571C9.141,13.571,8.5,14.212,8.5,15s0.641,1.429,1.429,1.429s1.429-0.641,1.429-1.429S10.717,13.571,9.929,13.571z"/><path d="M22.071,18.429c-1.891,0-3.429-1.538-3.429-3.429s1.538-3.429,3.429-3.429S25.5,13.109,25.5,15S23.962,18.429,22.071,18.429z M22.071,13.571c-0.788,0-1.429,0.641-1.429,1.429s0.641,1.429,1.429,1.429S23.5,15.788,23.5,15S22.859,13.571,22.071,13.571z"/><path d="M16,25.528c-2.098,0-4.194-0.641-5.791-1.923c-0.431-0.346-0.5-0.975-0.154-1.406c0.347-0.43,0.976-0.499,1.406-0.154c2.502,2.009,6.576,2.009,9.078,0c0.43-0.346,1.059-0.277,1.406,0.154c0.346,0.431,0.276,1.06-0.154,1.406C20.194,24.887,18.098,25.528,16,25.528z"/><path d="M19.866,30.077c-0.322,0-0.647-0.049-0.965-0.149c-0.817-0.257-1.486-0.817-1.883-1.577l-1.394-2.669c-0.255-0.49-0.065-1.094,0.424-1.35c0.488-0.253,1.093-0.066,1.35,0.424l1.394,2.669c0.149,0.287,0.401,0.498,0.709,0.594c0.309,0.097,0.637,0.067,0.921-0.082c0.286-0.149,0.497-0.401,0.594-0.709c0.097-0.308,0.067-0.635-0.082-0.921l-1.128-2.161c-0.255-0.49-0.065-1.094,0.424-1.35c0.489-0.255,1.094-0.065,1.35,0.424l1.128,2.161c0.818,1.568,0.209,3.51-1.359,4.329C20.883,29.954,20.377,30.077,19.866,30.077z"/></svg>