<svg xmlns="http://www.w3.org/2000/svg" viewBox="0 0 32 32"><!--! Font Icona - https://fonticona.com | License - https://fonticona.com/license | Copyright 2022 FontIcona.com --><path d="M16,32C7.178,32,0,24.822,0,16S7.178,0,16,0s16,7.178,16,16S24.822,32,16,32z M16,2C8.28,2,2,8.28,2,16s6.28,14,14,14s14-6.28,14-14S23.72,2,16,2z"/><path d="M16.003,25.271c-0.717,0-1.433-0.257-2.004-0.77l-1.454-1.307c-0.334-0.3-0.83-0.341-1.207-0.099l-2.642,1.69c-0.465,0.296-1.084,0.161-1.381-0.304c-0.298-0.466-0.162-1.084,0.303-1.382l2.641-1.689c1.132-0.724,2.622-0.604,3.622,0.295l1.454,1.307c0.381,0.342,0.955,0.341,1.337,0l1.452-1.306c1-0.899,2.49-1.021,3.624-0.294l2.635,1.688c0.465,0.298,0.601,0.916,0.302,1.382c-0.298,0.465-0.917,0.601-1.381,0.302l-2.635-1.688c-0.377-0.241-0.874-0.201-1.208,0.098l-1.453,1.307C17.437,25.015,16.72,25.271,16.003,25.271z"/><path d="M12.72,15.254c-0.209,0-0.42-0.065-0.6-0.201l-5.711-4.296c-0.441-0.332-0.53-0.959-0.198-1.4c0.332-0.44,0.959-0.53,1.4-0.198l5.711,4.296c0.441,0.332,0.53,0.959,0.198,1.4C13.324,15.116,13.024,15.254,12.72,15.254z"/><path d="M7.011,19.601c-0.304,0-0.604-0.138-0.8-0.398c-0.332-0.441-0.243-1.068,0.198-1.4l5.711-4.297c0.443-0.332,1.069-0.243,1.4,0.198c0.332,0.441,0.243,1.068-0.198,1.4l-5.711,4.296C7.431,19.535,7.22,19.601,7.011,19.601z"/><path d="M19.28,15.254c-0.304,0-0.604-0.138-0.8-0.399c-0.332-0.441-0.243-1.068,0.198-1.4l5.711-4.296c0.442-0.331,1.068-0.242,1.4,0.198c0.332,0.441,0.243,1.068-0.198,1.4l-5.711,4.296C19.7,15.188,19.489,15.254,19.28,15.254z"/><path d="M24.989,19.601c-0.209,0-0.42-0.065-0.6-0.201l-5.711-4.296c-0.441-0.332-0.53-0.959-0.198-1.4s0.958-0.53,1.4-0.198l5.711,4.297c0.441,0.332,0.53,0.959,0.198,1.4C25.593,19.463,25.293,19.601,24.989,19.601z"/></svg>