<svg xmlns="http://www.w3.org/2000/svg" viewBox="0 0 32 32"><!--! Font Icona - https://fonticona.com | License - https://fonticona.com/license | Copyright 2022 FontIcona.com --><path d="M27.774,11.333c-0.097,0-0.196-0.014-0.294-0.044c-0.528-0.162-0.825-0.722-0.663-1.25c0.663-2.157,0.735-4.128,0.613-5.644c-1.741,2.638-4.38,3.754-4.528,3.814c-0.512,0.209-1.095-0.034-1.305-0.544c-0.21-0.511,0.033-1.094,0.542-1.305c0.074-0.032,3.866-1.678,4.654-5.561c0.088-0.436,0.455-0.761,0.898-0.798c0.444-0.032,0.858,0.225,1.016,0.642c0.07,0.183,1.689,4.55,0.021,9.982C28.597,11.057,28.202,11.333,27.774,11.333z"/><path d="M4.226,11.333c-0.428,0-0.823-0.276-0.956-0.706c-1.668-5.433-0.048-9.8,0.021-9.982c0.159-0.417,0.577-0.672,1.016-0.642c0.444,0.037,0.81,0.362,0.898,0.798c0.798,3.932,4.614,5.544,4.652,5.56c0.511,0.21,0.754,0.795,0.544,1.306c-0.21,0.51-0.793,0.753-1.305,0.544C8.951,8.149,6.316,7.036,4.575,4.402c-0.122,1.521-0.051,3.492,0.608,5.637c0.162,0.528-0.135,1.088-0.663,1.25C4.422,11.319,4.323,11.333,4.226,11.333z"/><path d="M14.062,20.134c-0.18,0-0.363-0.049-0.527-0.151L7.409,16.17c-0.469-0.292-0.612-0.908-0.321-1.377c0.291-0.47,0.907-0.614,1.377-0.32l6.125,3.812c0.469,0.292,0.612,0.908,0.321,1.377C14.722,19.967,14.396,20.134,14.062,20.134z"/><path d="M17.938,20.134c-0.334,0-0.661-0.167-0.85-0.472c-0.292-0.469-0.148-1.085,0.321-1.377l6.125-3.812c0.469-0.294,1.086-0.149,1.377,0.32c0.292,0.469,0.148,1.085-0.321,1.377l-6.125,3.812C18.301,20.085,18.119,20.134,17.938,20.134z"/><path d="M16.261,27.799c-3.079,0-6.158-1.152-8.503-3.457c-0.394-0.387-0.399-1.02-0.012-1.414s1.02-0.399,1.415-0.012c3.916,3.849,10.287,3.848,14.201,0c0.394-0.388,1.027-0.383,1.415,0.012c0.387,0.394,0.381,1.027-0.012,1.414C22.419,26.646,19.34,27.799,16.261,27.799z"/><path d="M16,32C7.178,32,0,24.822,0,16c0-3.329,1.013-6.521,2.929-9.229l1.633,1.154C2.886,10.295,2,13.087,2,16c0,7.72,6.28,14,14,14s14-6.28,14-14c0-2.913-0.886-5.706-2.562-8.076L29.07,6.77C30.987,9.479,32,12.671,32,16C32,24.822,24.822,32,16,32z"/><path d="M25.253,5.493C22.697,3.24,19.411,2,16,2c-3.41,0-6.695,1.239-9.25,3.49l-1.322-1.5C8.349,1.417,12.104,0,16,0c3.898,0,7.654,1.418,10.575,3.993L25.253,5.493z"/></svg>