<svg xmlns="http://www.w3.org/2000/svg" viewBox="0 0 32 32"><!--! Font Icona - https://fonticona.com | License - https://fonticona.com/license | Copyright 2022 FontIcona.com --><path d="M16,32C7.178,32,0,24.822,0,16S7.178,0,16,0s16,7.178,16,16S24.822,32,16,32z M16,2C8.28,2,2,8.28,2,16s6.28,14,14,14s14-6.28,14-14S23.72,2,16,2z"/><path d="M8.083,21.917c-3.813,0-6.916-3.103-6.916-6.917S4.27,8.083,8.083,8.083s6.916,3.103,6.916,6.917S11.896,21.917,8.083,21.917z M8.083,10.083c-2.711,0-4.916,2.206-4.916,4.917s2.205,4.917,4.916,4.917s4.916-2.206,4.916-4.917S10.794,10.083,8.083,10.083z"/><path d="M23.917,21.917c-3.813,0-6.916-3.103-6.916-6.917s3.103-6.917,6.916-6.917s6.916,3.103,6.916,6.917S27.73,21.917,23.917,21.917z M23.917,10.083c-2.711,0-4.916,2.206-4.916,4.917s2.205,4.917,4.916,4.917s4.916-2.206,4.916-4.917S26.628,10.083,23.917,10.083z"/><path d="M21,24.47H11c-0.553,0-1-0.448-1-1s0.447-1,1-1h10c0.553,0,1,0.448,1,1S21.553,24.47,21,24.47z"/><circle cx="8.083" cy="15" r="1"/><circle cx="23.917" cy="15" r="1"/></svg>