<svg xmlns="http://www.w3.org/2000/svg" viewBox="0 0 32 32"><!--! Font Icona - https://fonticona.com | License - https://fonticona.com/license | Copyright 2022 FontIcona.com --><path d="M16,32C7.178,32,0,24.822,0,16S7.178,0,16,0s16,7.178,16,16S24.822,32,16,32z M16,2C8.28,2,2,8.28,2,16s6.28,14,14,14s14-6.28,14-14S23.72,2,16,2z"/><path d="M9.929,18.429C8.038,18.429,6.5,16.891,6.5,15s1.538-3.429,3.429-3.429s3.429,1.538,3.429,3.429S11.819,18.429,9.929,18.429z M9.929,13.571C9.141,13.571,8.5,14.212,8.5,15s0.641,1.429,1.429,1.429s1.429-0.641,1.429-1.429S10.717,13.571,9.929,13.571z"/><path d="M22.071,18.429c-1.891,0-3.429-1.538-3.429-3.429s1.538-3.429,3.429-3.429S25.5,13.109,25.5,15S23.962,18.429,22.071,18.429z M22.071,13.571c-0.788,0-1.429,0.641-1.429,1.429s0.641,1.429,1.429,1.429S23.5,15.788,23.5,15S22.859,13.571,22.071,13.571z"/><path d="M17.688,29.255c-0.516,0-0.954-0.396-0.996-0.92c-0.044-0.55,0.366-1.033,0.917-1.077c0.276-0.022,0.528-0.151,0.708-0.363s0.267-0.48,0.244-0.757c-0.046-0.571-0.536-0.994-1.12-0.953c-0.562,0.054-1.033-0.366-1.077-0.917c-0.002-0.027-0.003-0.055-0.003-0.082c0-0.516,0.396-0.953,0.92-0.995c0.571-0.046,0.999-0.549,0.953-1.121c-0.047-0.571-0.541-0.992-1.12-0.953c-0.556,0.056-1.033-0.366-1.077-0.917s0.366-1.033,0.917-1.077c1.646-0.141,3.139,1.115,3.274,2.786c0.062,0.782-0.178,1.52-0.622,2.097c0.53,0.499,0.886,1.188,0.949,1.969c0.065,0.81-0.188,1.596-0.715,2.214c-0.526,0.618-1.262,0.995-2.071,1.06C17.741,29.254,17.714,29.255,17.688,29.255z"/></svg>