<svg xmlns="http://www.w3.org/2000/svg" viewBox="0 0 32 32"><!--! Font Icona - https://fonticona.com | License - https://fonticona.com/license | Copyright 2022 FontIcona.com --><path d="M16,32C7.178,32,0,24.822,0,16S7.178,0,16,0s16,7.178,16,16S24.822,32,16,32z M16,2C8.28,2,2,8.28,2,16s6.28,14,14,14s14-6.28,14-14S23.72,2,16,2z"/><path d="M19.23,24.47H12.77c-0.553,0-1-0.447-1-1s0.447-1,1-1h6.461c0.553,0,1,0.447,1,1S19.783,24.47,19.23,24.47z"/><path d="M11.32,19.231c-1.485,0-2.966-0.514-4.144-1.521c-0.419-0.358-0.469-0.99-0.109-1.41c0.36-0.419,0.992-0.467,1.41-0.109c1.466,1.254,3.617,1.39,5.231,0.332c0.462-0.304,1.083-0.174,1.385,0.287c0.303,0.462,0.175,1.082-0.287,1.385C13.749,18.89,12.533,19.231,11.32,19.231z"/><path d="M20.906,19.229c-1.225,0-2.453-0.349-3.518-1.056c-0.46-0.306-0.585-0.927-0.279-1.387s0.926-0.585,1.387-0.279c1.606,1.068,3.761,0.944,5.234-0.302c0.422-0.359,1.055-0.304,1.409,0.118c0.356,0.422,0.304,1.053-0.118,1.409C23.848,18.726,22.379,19.229,20.906,19.229z"/></svg>