<svg xmlns="http://www.w3.org/2000/svg" viewBox="0 0 32 32"><!--! Font Icona - https://fonticona.com | License - https://fonticona.com/license | Copyright 2022 FontIcona.com --><path d="M16,32C7.178,32,0,24.822,0,16S7.178,0,16,0s16,7.178,16,16S24.822,32,16,32z M16,2C8.28,2,2,8.28,2,16s6.28,14,14,14s14-6.28,14-14S23.72,2,16,2z"/><path d="M16,25.95c-2.097,0-4.195-0.64-5.792-1.921c-0.431-0.346-0.5-0.976-0.154-1.406c0.345-0.431,0.976-0.498,1.406-0.154c2.503,2.01,6.576,2.01,9.079,0c0.431-0.345,1.06-0.276,1.406,0.154s0.277,1.061-0.154,1.406C20.195,25.311,18.097,25.95,16,25.95z"/><path d="M26.383,18.041c-0.232,0-0.462-0.08-0.648-0.238c-0.88-0.748-1.81-1.472-2.771-2.155c-0.961,0.684-1.891,1.407-2.771,2.155c-0.331,0.281-0.805,0.316-1.172,0.09c-0.369-0.228-0.549-0.666-0.447-1.087c0.271-1.119,0.57-2.244,0.893-3.355l-3.31-1.754c-0.385-0.204-0.594-0.635-0.516-1.063c0.079-0.429,0.426-0.758,0.858-0.812c1.4-0.177,2.825-0.297,4.243-0.358c0.403-1.151,0.837-2.305,1.293-3.436C22.19,5.648,22.557,5.4,22.965,5.4s0.775,0.248,0.927,0.626c0.456,1.131,0.89,2.284,1.293,3.436c1.418,0.062,2.843,0.182,4.243,0.358c0.442,0.056,0.793,0.397,0.862,0.837c0.069,0.44-0.161,0.873-0.564,1.062c-1.118,0.522-2.216,1.092-3.274,1.698c0.326,1.122,0.629,2.259,0.902,3.389c0.102,0.421-0.079,0.859-0.447,1.087C26.746,17.992,26.564,18.041,26.383,18.041z M22.965,13.428c0.198,0,0.396,0.059,0.566,0.176c0.379,0.26,0.754,0.526,1.124,0.798c-0.11-0.389-0.224-0.776-0.34-1.162c-0.133-0.439,0.05-0.912,0.444-1.147c0.339-0.203,0.683-0.401,1.03-0.597c-0.452-0.026-0.903-0.046-1.354-0.059c-0.417-0.013-0.783-0.283-0.917-0.678c-0.178-0.522-0.362-1.046-0.552-1.567c-0.19,0.521-0.375,1.045-0.552,1.567c-0.134,0.395-0.5,0.665-0.917,0.678c-0.479,0.014-0.958,0.035-1.438,0.063l1.069,0.566c0.422,0.225,0.627,0.716,0.489,1.173c-0.116,0.386-0.23,0.773-0.34,1.162c0.37-0.271,0.745-0.538,1.124-0.798C22.569,13.486,22.767,13.428,22.965,13.428z"/><path d="M5.96,18.041c-0.181,0-0.363-0.049-0.524-0.148c-0.369-0.228-0.549-0.666-0.447-1.087c0.273-1.13,0.576-2.267,0.902-3.389c-1.058-0.606-2.156-1.176-3.273-1.698c-0.404-0.189-0.634-0.622-0.564-1.062c0.069-0.44,0.421-0.781,0.863-0.837c1.407-0.177,2.831-0.297,4.242-0.358C7.56,8.315,7.994,7.163,8.451,6.026C8.604,5.648,8.971,5.4,9.379,5.4c0.408,0,0.775,0.248,0.927,0.626c0.458,1.137,0.893,2.289,1.293,3.436c1.412,0.062,2.835,0.182,4.243,0.358c0.442,0.056,0.793,0.396,0.863,0.837c0.069,0.439-0.161,0.873-0.564,1.062c-1.118,0.522-2.216,1.092-3.274,1.698c0.328,1.128,0.631,2.265,0.903,3.389c0.102,0.421-0.079,0.86-0.448,1.087c-0.369,0.227-0.841,0.191-1.172-0.09c-0.88-0.748-1.81-1.472-2.771-2.155c-0.961,0.684-1.891,1.407-2.771,2.155C6.423,17.961,6.192,18.041,5.96,18.041z M9.379,13.428c0.198,0,0.396,0.059,0.566,0.176c0.379,0.26,0.754,0.526,1.124,0.798c-0.111-0.389-0.225-0.776-0.341-1.162c-0.133-0.439,0.05-0.912,0.444-1.147c0.339-0.202,0.683-0.401,1.03-0.597c-0.452-0.026-0.904-0.046-1.354-0.059c-0.417-0.013-0.783-0.283-0.917-0.679C9.754,10.237,9.57,9.714,9.379,9.191c-0.19,0.522-0.375,1.046-0.552,1.567c-0.134,0.395-0.5,0.665-0.917,0.678c-0.45,0.013-0.901,0.032-1.354,0.059c0.347,0.195,0.69,0.395,1.03,0.597c0.394,0.235,0.577,0.708,0.444,1.147c-0.116,0.386-0.23,0.773-0.34,1.162c0.37-0.271,0.745-0.538,1.124-0.798C8.983,13.486,9.181,13.428,9.379,13.428z"/></svg>