<svg xmlns="http://www.w3.org/2000/svg" viewBox="0 0 32 32"><!--! Font Icona - https://fonticona.com | License - https://fonticona.com/license | Copyright 2022 FontIcona.com --><path d="M16,32C7.178,32,0,24.822,0,16S7.178,0,16,0s16,7.178,16,16S24.822,32,16,32z M16,2C8.28,2,2,8.28,2,16s6.28,14,14,14s14-6.28,14-14S23.72,2,16,2z"/><path d="M9.929,18.429C8.038,18.429,6.5,16.891,6.5,15s1.538-3.429,3.429-3.429s3.429,1.538,3.429,3.429S11.819,18.429,9.929,18.429z M9.929,13.571C9.141,13.571,8.5,14.212,8.5,15s0.641,1.429,1.429,1.429s1.429-0.641,1.429-1.429S10.717,13.571,9.929,13.571z"/><path d="M22.071,18.429c-1.891,0-3.429-1.538-3.429-3.429s1.538-3.429,3.429-3.429S25.5,13.109,25.5,15S23.962,18.429,22.071,18.429z M22.071,13.571c-0.788,0-1.429,0.641-1.429,1.429s0.641,1.429,1.429,1.429S23.5,15.788,23.5,15S22.859,13.571,22.071,13.571z"/><path d="M18.204,24.711c-1.146,0-2.003-0.418-2.757-0.786c-1.145-0.558-2.05-1-4.055-0.145c-0.506,0.214-1.096-0.018-1.312-0.527c-0.217-0.508,0.02-1.096,0.527-1.312c2.844-1.212,4.437-0.437,5.717,0.188c1.205,0.588,2.077,1.011,4.197-0.146c0.488-0.266,1.092-0.085,1.356,0.399c0.265,0.485,0.086,1.092-0.399,1.356C20.155,24.46,19.093,24.711,18.204,24.711z"/></svg>