<svg xmlns="http://www.w3.org/2000/svg" viewBox="0 0 32 32"><!--! Font Icona - https://fonticona.com | License - https://fonticona.com/license | Copyright 2022 FontIcona.com --><path d="M18.7,32h-6.789c-0.552,0-1-0.448-1-1v-9.422H6.188c-0.552,0-1-0.448-1-1v-6.367c0-0.552,0.448-1,1-1h4.978V9.255c0-1.578,0.324-5.488,3.323-7.707c2.482-1.835,6.116-2.039,10.803-0.604C25.713,1.072,26,1.46,26,1.899v5.989c0,0.552-0.448,1-1,1h-2.631c-1.383,0.306-1.473,1.292-1.363,3.752c0.005,0.105,0.009,0.21,0.014,0.315h4.792c0.325,0,0.629,0.158,0.817,0.423c0.188,0.265,0.234,0.605,0.125,0.911l-2.367,6.667c-0.142,0.399-0.519,0.666-0.942,0.666H19.7V31C19.7,31.552,19.252,32,18.7,32z M12.911,30H17.7v-9.378c0-0.552,0.448-1,1-1h4.039l1.657-4.667h-4.351c-0.552,0-1-0.448-1-1c0-0.402-0.019-0.814-0.037-1.226c-0.098-2.188-0.231-5.185,3.069-5.823c0.062-0.012,0.126-0.018,0.19-0.018H24V2.65c-3.695-1.016-6.492-0.847-8.321,0.506c-2.268,1.678-2.513,4.824-2.513,6.099v4.956c0,0.552-0.448,1-1,1H7.188v4.367h4.723c0.552,0,1,0.448,1,1V30z"/></svg>