<svg xmlns="http://www.w3.org/2000/svg" viewBox="0 0 32 32"><!--! Font Icona - https://fonticona.com | License - https://fonticona.com/license | Copyright 2022 FontIcona.com --><path d="M16,32C7.178,32,0,24.822,0,16S7.178,0,16,0s16,7.178,16,16S24.822,32,16,32z M16,2C8.28,2,2,8.28,2,16s6.28,14,14,14s14-6.28,14-14S23.72,2,16,2z"/><path d="M9.929,18.429C8.038,18.429,6.5,16.891,6.5,15s1.538-3.429,3.429-3.429c1.89,0,3.428,1.538,3.428,3.429S11.819,18.429,9.929,18.429z M9.929,13.571C9.141,13.571,8.5,14.212,8.5,15s0.641,1.429,1.429,1.429s1.428-0.641,1.428-1.429S10.716,13.571,9.929,13.571z"/><path d="M22.071,18.429c-1.89,0-3.428-1.538-3.428-3.429s1.538-3.429,3.428-3.429c1.891,0,3.429,1.538,3.429,3.429S23.962,18.429,22.071,18.429z M22.071,13.571c-0.788,0-1.428,0.641-1.428,1.429s0.641,1.429,1.428,1.429S23.5,15.788,23.5,15S22.859,13.571,22.071,13.571z"/><path d="M21.165,25.966c-0.22,0-0.441-0.072-0.625-0.22c-2.503-2.009-6.576-2.009-9.079,0c-0.43,0.346-1.06,0.277-1.406-0.154c-0.346-0.431-0.277-1.06,0.154-1.406c3.193-2.563,8.39-2.563,11.583,0c0.431,0.346,0.5,0.975,0.154,1.406C21.748,25.838,21.458,25.966,21.165,25.966z"/><path d="M25.598,23.819c-1.554,0-2.819-1.265-2.819-2.819c-0.004-0.053-0.099-2.469,1.776-4.618l0.573-0.657l0.729,0.479c0.107,0.071,2.641,1.769,2.558,4.823C28.374,22.593,27.136,23.819,25.598,23.819z M25.472,18.525c-0.724,1.256-0.694,2.413-0.693,2.426c0.001,0.5,0.368,0.868,0.82,0.868c0.446,0,0.806-0.372,0.819-0.846l0,0C26.446,19.886,25.934,19.052,25.472,18.525z"/></svg>