<svg xmlns="http://www.w3.org/2000/svg" viewBox="0 0 32 32"><!--! Font Icona - https://fonticona.com | License - https://fonticona.com/license | Copyright 2022 FontIcona.com --><path d="M16,32C7.178,32,0,24.822,0,16S7.178,0,16,0s16,7.178,16,16S24.822,32,16,32z M16,2C8.28,2,2,8.28,2,16s6.28,14,14,14s14-6.28,14-14S23.72,2,16,2z"/><path d="M9.929,18.429C8.038,18.429,6.5,16.891,6.5,15s1.538-3.429,3.429-3.429s3.429,1.538,3.429,3.429S11.819,18.429,9.929,18.429z M9.929,13.571C9.141,13.571,8.5,14.212,8.5,15s0.641,1.429,1.429,1.429s1.429-0.641,1.429-1.429S10.717,13.571,9.929,13.571z"/><path d="M22.071,18.429c-1.891,0-3.429-1.538-3.429-3.429s1.538-3.429,3.429-3.429S25.5,13.109,25.5,15S23.962,18.429,22.071,18.429z M22.071,13.571c-0.788,0-1.429,0.641-1.429,1.429s0.641,1.429,1.429,1.429S23.5,15.788,23.5,15S22.859,13.571,22.071,13.571z"/><path d="M11.102,25.476c-0.465,0-0.882-0.326-0.979-0.799c-0.111-0.541,0.237-1.07,0.778-1.181l9.795-2.011c0.538-0.114,1.07,0.238,1.181,0.778c0.111,0.541-0.237,1.07-0.778,1.181l-9.795,2.011C11.236,25.469,11.168,25.476,11.102,25.476z"/></svg>