<svg xmlns="http://www.w3.org/2000/svg" viewBox="0 0 32 32"><!--! Font Icona - https://fonticona.com | License - https://fonticona.com/license | Copyright 2022 FontIcona.com --><path d="M16.008,31.998c-6.883,0-13.257-4.482-15.331-11.406c-1.227-4.093-0.786-8.418,1.241-12.18c2.027-3.762,5.397-6.508,9.49-7.735c4.092-1.227,8.418-0.786,12.18,1.241c3.762,2.027,6.508,5.397,7.735,9.49c2.532,8.449-2.282,17.383-10.731,19.915C19.066,31.78,17.525,31.998,16.008,31.998z M16.019,1.998c-1.35,0-2.707,0.197-4.036,0.596C8.401,3.666,5.452,6.069,3.679,9.36c-1.773,3.292-2.159,7.076-1.086,10.657c1.073,3.581,3.476,6.53,6.768,8.304c3.291,1.774,7.076,2.16,10.657,1.086c7.393-2.216,11.604-10.032,9.389-17.425l0,0c-1.073-3.581-3.476-6.53-6.767-8.303C20.57,2.564,18.305,1.998,16.019,1.998z"/><path d="M8.894,20.521c-0.61,0-1.215-0.151-1.767-0.449c-0.878-0.473-1.52-1.26-1.806-2.216c-0.591-1.973,0.533-4.059,2.506-4.65c1.97-0.591,4.059,0.534,4.65,2.506c0.591,1.973-0.533,4.059-2.505,4.65C9.616,20.469,9.254,20.521,8.894,20.521z M8.897,15.049c-0.165,0-0.332,0.024-0.497,0.073c-0.916,0.274-1.438,1.244-1.164,2.16c0.274,0.916,1.244,1.44,2.16,1.164c0.917-0.274,1.438-1.243,1.164-2.16C10.335,15.536,9.644,15.049,8.897,15.049z"/><path d="M19.345,14.236c-1.626,0-3.235-0.73-4.296-2.119c-1.808-2.366-1.354-5.761,1.012-7.569c2.367-1.809,5.762-1.353,7.569,1.012l0,0c1.808,2.366,1.354,5.761-1.012,7.569C21.641,13.875,20.488,14.236,19.345,14.236z M19.335,5.44c-0.72,0-1.445,0.227-2.061,0.697c-1.489,1.138-1.775,3.276-0.637,4.766c1.138,1.489,3.275,1.776,4.766,0.637c1.489-1.138,1.775-3.276,0.637-4.765l0,0C21.372,5.9,20.359,5.44,19.335,5.44z"/><circle cx="17.347" cy="7.839" r="1.25"/><circle cx="8.383" cy="17.583" r="1.25"/><path d="M13.213,28.427c-0.048,0-0.098-0.003-0.146-0.011c-1.804-0.265-3.118-1.175-4.017-2.783c-0.27-0.482-0.098-1.092,0.384-1.361l12.109-6.774c0.232-0.13,0.505-0.161,0.761-0.092c0.256,0.072,0.473,0.243,0.602,0.475c0.848,1.516,0.886,3.347,0.106,5.154c-0.741,1.716-2.144,3.219-3.952,4.23c0.106-0.065,0.214-0.187,0.291-0.342c-0.1,0.183-0.28,0.363-0.593,0.506c-0.504,0.227-1.096,0.006-1.324-0.498c-0.228-0.503-0.005-1.096,0.498-1.324l0.028-0.013c0.039-0.025,0.081-0.051,0.125-0.076c1.424-0.797,2.522-1.961,3.09-3.275c0.365-0.846,0.475-1.681,0.331-2.433l-10.122,5.663c0.51,0.537,1.146,0.844,1.973,0.965c0.546,0.08,0.925,0.588,0.844,1.135C14.128,28.069,13.701,28.427,13.213,28.427z"/><path d="M15.81,31.536c-1.832,0-3.346-1.392-3.396-3.143l-0.202-5.05l1.998-0.08l0.202,5.062c0.02,0.691,0.667,1.271,1.438,1.21c0.4-0.011,0.778-0.173,1.037-0.446c0.218-0.23,0.334-0.522,0.326-0.821l-0.204-7.621l1.999-0.053l0.204,7.619c0.024,0.831-0.286,1.632-0.872,2.251c-0.621,0.656-1.509,1.046-2.437,1.071C15.872,31.535,15.841,31.536,15.81,31.536z"/></svg>