<svg xmlns="http://www.w3.org/2000/svg" viewBox="0 0 32 32"><!--! Font Icona - https://fonticona.com | License - https://fonticona.com/license | Copyright 2022 FontIcona.com --><path d="M16,32C7.178,32,0,24.822,0,16S7.178,0,16,0s16,7.178,16,16S24.822,32,16,32z M16,2C8.28,2,2,8.28,2,16s6.28,14,14,14s14-6.28,14-14S23.72,2,16,2z"/><path d="M21.439,17.157c-1.148,0-2.297-0.34-3.3-1.021c-0.456-0.311-0.575-0.933-0.265-1.389c0.311-0.456,0.931-0.575,1.39-0.265c1.32,0.898,3.028,0.898,4.349,0c0.457-0.311,1.08-0.191,1.39,0.264c0.311,0.457,0.191,1.079-0.265,1.389C23.736,16.817,22.588,17.157,21.439,17.157z"/><path d="M10.09,17.157c-1.148,0-2.297-0.34-3.299-1.022c-0.456-0.311-0.575-0.932-0.265-1.389c0.311-0.456,0.934-0.575,1.39-0.264c1.32,0.897,3.028,0.898,4.349,0c0.459-0.311,1.08-0.191,1.39,0.265c0.311,0.457,0.191,1.079-0.265,1.389C12.387,16.817,11.238,17.157,10.09,17.157z"/><path d="M16,27.537c-2.676,0-4.854-2.417-4.854-5.388c0-0.553,0.447-1,1-1h7.707c0.553,0,1,0.447,1,1C20.854,25.12,18.676,27.537,16,27.537z M13.273,23.149c0.36,1.382,1.446,2.388,2.727,2.388s2.366-1.006,2.727-2.388H13.273z"/><path d="M18.022,10.896c-0.384,0-0.75-0.222-0.915-0.595c-0.224-0.505,0.004-1.096,0.509-1.32l4.73-2.099c0.506-0.227,1.096,0.004,1.319,0.508c0.224,0.505-0.004,1.096-0.509,1.32l-4.73,2.099C18.295,10.869,18.157,10.896,18.022,10.896z"/><path d="M22.752,8.798c-0.133,0-0.267-0.026-0.396-0.082L19.13,7.325c-0.507-0.219-0.74-0.807-0.521-1.314c0.219-0.507,0.802-0.742,1.314-0.522l3.226,1.391c0.507,0.219,0.74,0.807,0.521,1.314C23.507,8.571,23.139,8.798,22.752,8.798z"/><path d="M21.246,12.288c-0.132,0-0.266-0.026-0.396-0.082l-3.226-1.391c-0.507-0.219-0.74-0.807-0.521-1.314c0.219-0.508,0.805-0.741,1.314-0.522l3.226,1.391c0.507,0.219,0.74,0.807,0.521,1.314C22.002,12.061,21.634,12.288,21.246,12.288z"/><path d="M24.871,6.924c-0.358,0-0.705-0.193-0.885-0.532c-0.259-0.488-0.072-1.093,0.415-1.352l5.935-3.146c0.487-0.261,1.093-0.074,1.353,0.415c0.259,0.488,0.072,1.093-0.415,1.352l-5.935,3.146C25.189,6.887,25.029,6.924,24.871,6.924z"/><path d="M30.805,3.778c-0.109,0-0.222-0.019-0.331-0.057l-4.303-1.508c-0.521-0.183-0.795-0.753-0.612-1.274c0.182-0.521,0.754-0.795,1.274-0.613l4.303,1.508c0.521,0.183,0.795,0.753,0.612,1.274C31.604,3.521,31.218,3.778,30.805,3.778z"/><path d="M29.173,8.433c-0.109,0-0.222-0.019-0.331-0.057l-4.303-1.508c-0.521-0.183-0.795-0.753-0.612-1.274C24.108,5.072,24.68,4.8,25.201,4.98l4.303,1.508c0.521,0.183,0.795,0.753,0.612,1.274C29.973,8.175,29.586,8.433,29.173,8.433z"/><path d="M11.023,13.008c-0.297,0-0.591-0.131-0.788-0.383c-0.341-0.434-0.265-1.063,0.17-1.404l3.609-2.833c0.434-0.341,1.063-0.265,1.404,0.169s0.265,1.063-0.17,1.404l-3.609,2.833C11.457,12.938,11.239,13.008,11.023,13.008z"/><path d="M14.633,10.175c-0.053,0-0.105-0.004-0.16-0.013l-3.074-0.494c-0.545-0.087-0.916-0.601-0.828-1.146s0.589-0.918,1.146-0.829l3.074,0.494c0.545,0.087,0.916,0.601,0.828,1.146C15.54,9.826,15.115,10.175,14.633,10.175z"/><path d="M14.099,13.502c-0.053,0-0.105-0.004-0.159-0.013l-3.075-0.494c-0.546-0.087-0.917-0.601-0.829-1.146c0.088-0.546,0.599-0.92,1.146-0.829l3.075,0.494c0.546,0.087,0.917,0.601,0.829,1.146C15.006,13.152,14.581,13.502,14.099,13.502z"/></svg>