<svg xmlns="http://www.w3.org/2000/svg" viewBox="0 0 32 32"><!--! Font Icona - https://fonticona.com | License - https://fonticona.com/license | Copyright 2022 FontIcona.com --><path d="M15.979,31.993c-3.302,0-6.631-1.016-9.484-3.123C-0.601,23.628-2.11,13.591,3.13,6.495C8.372-0.6,18.41-2.11,25.505,3.131l0,0c7.096,5.24,8.605,15.277,3.365,22.374C25.736,29.747,20.888,31.993,15.979,31.993z M16.018,2.006c-4.295,0-8.537,1.965-11.278,5.677c-4.586,6.208-3.265,14.991,2.943,19.577c6.21,4.585,14.994,3.264,19.578-2.943c4.586-6.21,3.265-14.993-2.943-19.578l0,0C21.82,2.896,18.906,2.006,16.018,2.006z"/><path d="M16.339,27.507c-2.321,0-4.662-0.715-6.668-2.196c-0.444-0.328-0.539-0.954-0.211-1.398L21.637,7.424c0.157-0.214,0.394-0.356,0.656-0.396c0.265-0.037,0.53,0.027,0.743,0.185c4.99,3.685,6.052,10.742,2.367,15.732C23.199,25.928,19.791,27.506,16.339,27.507z M11.695,24.252c4.021,2.351,9.269,1.335,12.099-2.495c2.829-3.831,2.255-9.145-1.173-12.298L11.695,24.252z"/><path d="M4.834,18.543c-0.263,0-0.525-0.103-0.722-0.308c-0.382-0.398-0.369-1.031,0.029-1.414l3.203-3.074c0.397-0.383,1.031-0.369,1.414,0.029c0.382,0.398,0.369,1.032-0.029,1.414l-3.203,3.074C5.333,18.45,5.083,18.543,4.834,18.543z"/><path d="M11.972,10.141c-0.151,0-0.305-0.034-0.448-0.107c-0.494-0.248-0.692-0.849-0.444-1.343l1.995-3.964c0.248-0.494,0.852-0.693,1.343-0.443c0.494,0.248,0.692,0.849,0.444,1.343L12.866,9.59C12.69,9.939,12.338,10.141,11.972,10.141z"/></svg>