<svg xmlns="http://www.w3.org/2000/svg" viewBox="0 0 32 32"><!--! Font Icona - https://fonticona.com | License - https://fonticona.com/license | Copyright 2022 FontIcona.com --><path d="M16,32C7.178,32,0,24.822,0,16S7.178,0,16,0s16,7.178,16,16S24.822,32,16,32z M16,2C8.28,2,2,8.28,2,16s6.28,14,14,14s14-6.28,14-14S23.72,2,16,2z"/><path d="M9.404,18.349c-2.857,0-5.182-2.325-5.182-5.182c0-2.857,2.325-5.182,5.182-5.182s5.182,2.325,5.182,5.182C14.585,16.024,12.261,18.349,9.404,18.349z M9.404,9.985c-1.754,0-3.182,1.427-3.182,3.182s1.427,3.182,3.182,3.182s3.182-1.428,3.182-3.182S11.158,9.985,9.404,9.985z"/><path d="M22.595,18.349c-2.857,0-5.182-2.325-5.182-5.182c0-2.857,2.325-5.182,5.182-5.182c2.857,0,5.182,2.325,5.182,5.182C27.777,16.024,25.453,18.349,22.595,18.349z M22.595,9.985c-1.754,0-3.182,1.427-3.182,3.182s1.427,3.182,3.182,3.182s3.182-1.428,3.182-3.182S24.35,9.985,22.595,9.985z"/><path d="M17.755,12.742c-1.066-0.91-2.615-0.911-3.683,0l-1.299-1.521c1.819-1.555,4.461-1.555,6.281,0L17.755,12.742z"/><rect x="1.68" y="10.522" width="3.542" height="2"/><rect x="26.44" y="10.522" width="3.88" height="2"/><path d="M15.834,25.951c-2.097,0-4.194-0.641-5.791-1.922c-0.431-0.346-0.5-0.976-0.154-1.406s0.976-0.497,1.406-0.154c2.502,2.01,6.575,2.01,9.079,0c0.43-0.344,1.061-0.276,1.406,0.154c0.346,0.431,0.277,1.061-0.154,1.406C20.029,25.311,17.932,25.951,15.834,25.951z"/><path d="M18.135,28.656h-4.271c-1.654,0-3-1.346-3-3v-1.549c0-0.553,0.448-1,1-1s1,0.447,1,1v1.549c0,0.552,0.449,1,1,1h4.271c0.551,0,1-0.448,1-1v-1.549c0-0.553,0.448-1,1-1s1,0.447,1,1v1.549C21.135,27.311,19.79,28.656,18.135,28.656z"/><path d="M16,28.347c-0.552,0-1-0.447-1-1V25.32c0-0.553,0.448-1,1-1s1,0.447,1,1v2.026C17,27.899,16.552,28.347,16,28.347z"/></svg>