<svg xmlns="http://www.w3.org/2000/svg" viewBox="0 0 32 32"><!--! Font Icona - https://fonticona.com | License - https://fonticona.com/license | Copyright 2022 FontIcona.com --><path d="M16,32C7.178,32,0,24.822,0,16S7.178,0,16,0s16,7.178,16,16S24.822,32,16,32z M16,2C8.28,2,2,8.28,2,16s6.28,14,14,14s14-6.28,14-14S23.72,2,16,2z"/><path d="M18.64,25.432c-0.114,0-0.229-0.02-0.342-0.061l-5.279-1.922c-0.519-0.189-0.786-0.763-0.597-1.282c0.188-0.519,0.762-0.787,1.282-0.597l5.279,1.922c0.519,0.189,0.786,0.763,0.597,1.282C19.432,25.179,19.048,25.432,18.64,25.432z"/><circle cx="25.785" cy="11.564" r="1.198"/><circle cx="12.426" cy="11.564" r="1.198"/><path d="M22.567,17.602c-3.194,0-5.854-2.532-5.984-5.752c-0.036-0.899,0.129-1.778,0.49-2.614c0.152-0.353,0.494-0.587,0.878-0.602l8.986-0.361c0.372-0.02,0.743,0.19,0.923,0.53c0.428,0.804,0.663,1.667,0.699,2.566c0.064,1.6-0.498,3.129-1.583,4.305c-1.086,1.176-2.564,1.859-4.164,1.923C22.729,17.601,22.648,17.602,22.567,17.602z M18.709,10.605c-0.101,0.38-0.144,0.771-0.128,1.166c0.088,2.199,1.951,3.914,4.15,3.829c1.066-0.043,2.051-0.498,2.774-1.282c0.723-0.784,1.098-1.802,1.055-2.868c-0.016-0.395-0.09-0.78-0.221-1.151L18.709,10.605z"/><path d="M9.423,18.13c-1.509,0-2.942-0.559-4.058-1.589c-1.176-1.085-1.859-2.564-1.923-4.164c-0.037-0.899,0.128-1.779,0.491-2.615C4.085,9.411,4.426,9.177,4.81,9.162l8.986-0.361c0.383-0.005,0.744,0.191,0.923,0.53c0.427,0.805,0.662,1.668,0.698,2.566c0.064,1.599-0.498,3.127-1.583,4.304c-1.085,1.176-2.564,1.859-4.164,1.923C9.587,18.128,9.505,18.13,9.423,18.13z M5.567,11.133c-0.101,0.38-0.144,0.77-0.128,1.165c0.043,1.066,0.498,2.051,1.282,2.774s1.799,1.093,2.868,1.055c1.065-0.043,2.051-0.498,2.774-1.282s1.098-1.802,1.055-2.868c-0.016-0.394-0.09-0.779-0.221-1.151L5.567,11.133z"/></svg>