<svg xmlns="http://www.w3.org/2000/svg" viewBox="0 0 32 32"><!--! Font Icona - https://fonticona.com | License - https://fonticona.com/license | Copyright 2022 FontIcona.com --><path d="M16,32C7.178,32,0,24.822,0,16S7.178,0,16,0s16,7.178,16,16S24.822,32,16,32z M16,2C8.28,2,2,8.28,2,16s6.28,14,14,14s14-6.28,14-14S23.72,2,16,2z"/><path d="M9.929,15.429C8.038,15.429,6.5,13.891,6.5,12s1.538-3.429,3.429-3.429c1.89,0,3.428,1.538,3.428,3.429S11.819,15.429,9.929,15.429z M9.929,10.571C9.141,10.571,8.5,11.212,8.5,12s0.641,1.429,1.429,1.429s1.428-0.641,1.428-1.429S10.716,10.571,9.929,10.571z"/><path d="M22.071,15.429c-1.89,0-3.428-1.538-3.428-3.429s1.538-3.429,3.428-3.429c1.891,0,3.429,1.538,3.429,3.429S23.962,15.429,22.071,15.429z M22.071,10.571c-0.788,0-1.428,0.641-1.428,1.429s0.641,1.429,1.428,1.429S23.5,12.788,23.5,12S22.859,10.571,22.071,10.571z"/><path d="M16,28.221c-4.416,0-7.875-2.087-7.875-4.752c0-0.553,0.448-1,1-1h13.75c0.552,0,1,0.447,1,1C23.875,26.134,20.416,28.221,16,28.221z M10.59,24.469c0.875,0.947,2.907,1.752,5.41,1.752s4.534-0.805,5.41-1.752H10.59z"/><path d="M16,24.337c-2.896,0-5.252-2.356-5.252-5.252s2.356-5.252,5.252-5.252s5.252,2.356,5.252,5.252S18.896,24.337,16,24.337z M16,15.833c-1.793,0-3.252,1.459-3.252,3.252s1.459,3.252,3.252,3.252s3.252-1.459,3.252-3.252S17.793,15.833,16,15.833z"/><path d="M3.276,8.774c-1.643,0-2.979-1.337-2.979-2.979c0-0.511,0.129-1.002,0.368-1.436c-0.27-0.387-0.422-0.853-0.422-1.343c0-1.295,1.053-2.348,2.348-2.348c0.288,0,0.568,0.052,0.829,0.15C3.969,0.304,4.704,0,5.483,0C7.146,0,8.5,1.354,8.5,3.017c0,0.553-0.448,1-1,1s-1-0.447-1-1C6.5,2.456,6.044,2,5.483,2C5.086,2,4.724,2.234,4.559,2.597c-0.145,0.317-0.443,0.536-0.79,0.579c-0.348,0.04-0.689-0.1-0.905-0.373c-0.032-0.04-0.122-0.134-0.273-0.134c-0.192,0-0.348,0.156-0.348,0.348c0,0.166,0.112,0.275,0.208,0.317c0.319,0.143,0.541,0.44,0.585,0.787C3.08,4.467,2.94,4.812,2.668,5.029C2.432,5.218,2.297,5.497,2.297,5.795c0,0.54,0.439,0.979,0.979,0.979c0.552,0,1,0.447,1,1S3.828,8.774,3.276,8.774z"/><path d="M28.967,8.774c-0.552,0-1-0.447-1-1s0.448-1,1-1c0.54,0,0.979-0.439,0.979-0.979c0-0.298-0.135-0.577-0.371-0.766c-0.272-0.218-0.412-0.562-0.367-0.908c0.044-0.347,0.266-0.645,0.585-0.787C29.888,3.292,30,3.183,30,3.017c0-0.191-0.156-0.348-0.348-0.348c-0.151,0-0.241,0.094-0.273,0.134c-0.216,0.273-0.558,0.413-0.905,0.373c-0.346-0.043-0.645-0.262-0.79-0.579C27.519,2.234,27.156,2,26.76,2c-0.561,0-1.017,0.456-1.017,1.017c0,0.553-0.448,1-1,1s-1-0.447-1-1C23.743,1.354,25.096,0,26.76,0c0.779,0,1.514,0.304,2.063,0.819c0.261-0.099,0.541-0.15,0.829-0.15C30.947,0.669,32,1.722,32,3.017c0,0.49-0.153,0.956-0.422,1.343c0.239,0.434,0.368,0.925,0.368,1.436C31.946,7.438,30.609,8.774,28.967,8.774z"/><rect x="5.495" y="11.011" transform="matrix(0.4052 -0.9142 0.9142 0.4052 -11.4561 15.9051)" width="2" height="11.491"/><rect x="19.769" y="15.757" transform="matrix(0.9177 -0.3973 0.3973 0.9177 -4.5484 11.5616)" width="11.713" height="2.001"/></svg>