<svg xmlns="http://www.w3.org/2000/svg" viewBox="0 0 32 32"><!--! Font Icona - https://fonticona.com | License - https://fonticona.com/license | Copyright 2022 FontIcona.com --><path d="M16,32C7.178,32,0,24.822,0,16S7.178,0,16,0s16,7.178,16,16S24.822,32,16,32z M16,2C8.28,2,2,8.28,2,16s6.28,14,14,14s14-6.28,14-14S23.72,2,16,2z"/><path d="M9.404,19.182c-2.857,0-5.182-2.325-5.182-5.182c0-2.857,2.325-5.182,5.182-5.182c2.857,0,5.182,2.325,5.182,5.182C14.586,16.857,12.261,19.182,9.404,19.182z M9.404,10.818c-1.754,0-3.182,1.428-3.182,3.182s1.427,3.182,3.182,3.182s3.182-1.427,3.182-3.182S11.158,10.818,9.404,10.818z"/><path d="M22.596,19.182c-2.857,0-5.182-2.325-5.182-5.182c0-2.857,2.324-5.182,5.182-5.182s5.183,2.325,5.183,5.182C27.778,16.857,25.453,19.182,22.596,19.182z M22.596,10.818c-1.754,0-3.182,1.428-3.182,3.182s1.428,3.182,3.182,3.182c1.755,0,3.183-1.427,3.183-3.182S24.351,10.818,22.596,10.818z"/><path d="M21,24.47H11c-0.552,0-1-0.447-1-1s0.448-1,1-1h10c0.553,0,1,0.447,1,1S21.553,24.47,21,24.47z"/><path d="M9.404,15.5c-1.654,0-3-1.346-3-3s1.346-3,3-3s3,1.346,3,3S11.058,15.5,9.404,15.5z M9.404,11.5c-0.551,0-1,0.449-1,1s0.449,1,1,1s1-0.449,1-1S9.955,11.5,9.404,11.5z"/><path d="M22.596,15.5c-1.654,0-3-1.346-3-3s1.346-3,3-3s3,1.346,3,3S24.25,15.5,22.596,15.5z M22.596,11.5c-0.552,0-1,0.449-1,1s0.448,1,1,1s1-0.449,1-1S23.147,11.5,22.596,11.5z"/></svg>