<svg xmlns="http://www.w3.org/2000/svg" viewBox="0 0 32 32"><!--! Font Icona - https://fonticona.com | License - https://fonticona.com/license | Copyright 2022 FontIcona.com --><path d="M16,32C7.178,32,0,24.822,0,16S7.178,0,16,0s16,7.178,16,16S24.822,32,16,32z M16,2C8.28,2,2,8.28,2,16s6.28,14,14,14s14-6.28,14-14S23.72,2,16,2z"/><path d="M23.298,25.002c-1.197,0-1.853-0.621-2.286-1.032c-0.378-0.358-0.528-0.482-0.908-0.482c-0.381,0-0.531,0.124-0.909,0.483c-0.434,0.41-1.088,1.031-2.285,1.031s-1.852-0.621-2.285-1.032c-0.378-0.358-0.527-0.482-0.907-0.482s-0.53,0.124-0.908,0.482c-0.434,0.411-1.088,1.032-2.285,1.032s-1.852-0.621-2.285-1.032c-0.378-0.358-0.527-0.482-0.907-0.482c-0.553,0-1-0.447-1-1s0.447-1,1-1c1.196,0,1.851,0.621,2.284,1.032c0.378,0.358,0.528,0.482,0.908,0.482s0.53-0.124,0.908-0.482c0.434-0.411,1.088-1.032,2.285-1.032c1.196,0,1.851,0.621,2.284,1.032c0.378,0.358,0.528,0.482,0.908,0.482s0.53-0.124,0.908-0.482c0.434-0.411,1.089-1.032,2.286-1.032s1.852,0.621,2.285,1.031c0.378,0.359,0.528,0.483,0.909,0.483c0.553,0,1,0.447,1,1S23.851,25.002,23.298,25.002z"/><path d="M9.739,19.272c-3.425,0-6.211-2.787-6.211-6.212S6.314,6.85,9.739,6.85s6.211,2.786,6.211,6.211S13.164,19.272,9.739,19.272z M9.739,8.85c-2.322,0-4.211,1.889-4.211,4.211s1.889,4.212,4.211,4.212s4.211-1.89,4.211-4.212S12.062,8.85,9.739,8.85z"/><path d="M22.298,19.484c-3.425,0-6.211-2.787-6.211-6.212s2.786-6.211,6.211-6.211s6.211,2.786,6.211,6.211S25.723,19.484,22.298,19.484z M22.298,9.062c-2.322,0-4.211,1.889-4.211,4.211s1.889,4.212,4.211,4.212s4.211-1.89,4.211-4.212S24.62,9.062,22.298,9.062z"/><circle cx="22.642" cy="15.523" r="1.25"/><circle cx="10.346" cy="10.863" r="1.25"/></svg>