<svg xmlns="http://www.w3.org/2000/svg" viewBox="0 0 32 32"><!--! Font Icona - https://fonticona.com | License - https://fonticona.com/license | Copyright 2022 FontIcona.com --><path d="M16,32C7.178,32,0,24.822,0,16S7.178,0,16,0s16,7.178,16,16S24.822,32,16,32z M16,2C8.28,2,2,8.28,2,16s6.28,14,14,14s14-6.28,14-14S23.72,2,16,2z"/><path d="M1.258,12.192c-0.458,0-0.871-0.317-0.976-0.783c-0.119-0.539,0.221-1.073,0.76-1.193C5.137,9.305,9.34,8.768,13.534,8.617c0.546-0.021,1.017,0.411,1.035,0.964c0.021,0.552-0.411,1.015-0.963,1.035c-4.073,0.146-8.154,0.668-12.131,1.552C1.402,12.184,1.33,12.192,1.258,12.192z"/><path d="M7.632,18.042c-3.336,0-6.411-2.715-7.346-6.617c-0.129-0.537,0.203-1.077,0.74-1.206c0.536-0.125,1.076,0.203,1.205,0.74c0.767,3.206,3.311,5.374,5.911,5.052c2.587-0.337,4.493-3.078,4.428-6.375c-0.011-0.552,0.428-1.008,0.98-1.02c0.007,0,0.014,0,0.02,0c0.544,0,0.989,0.435,1,0.98c0.085,4.317-2.569,7.927-6.175,8.397C8.141,18.026,7.885,18.042,7.632,18.042z"/><path d="M30.742,12.192c-0.072,0-0.145-0.008-0.218-0.024c-3.977-0.884-8.058-1.406-12.131-1.552c-0.552-0.02-0.983-0.483-0.963-1.035c0.02-0.553,0.479-0.99,1.035-0.964c4.194,0.15,8.397,0.688,12.492,1.599c0.539,0.12,0.879,0.654,0.76,1.193C31.614,11.875,31.2,12.192,30.742,12.192z"/><path d="M24.371,18.043c-0.253,0-0.507-0.016-0.762-0.048c-3.61-0.471-6.265-4.081-6.18-8.398c0.011-0.545,0.456-0.98,1-0.98c0.006,0,0.013,0,0.02,0c0.553,0.011,0.991,0.467,0.98,1.02c-0.065,3.296,1.841,6.037,4.433,6.375c2.613,0.329,5.141-1.847,5.906-5.052c0.129-0.536,0.671-0.865,1.205-0.74c0.537,0.129,0.869,0.668,0.74,1.206C30.779,15.327,27.703,18.043,24.371,18.043z"/><path d="M10.934,10.762c-0.519,0-0.957-0.4-0.996-0.925C9.896,9.286,10.31,8.806,10.86,8.765c3.089-0.231,6.225-0.253,9.322-0.065c0.551,0.033,0.971,0.507,0.938,1.059s-0.508,0.979-1.059,0.938c-3.007-0.182-6.053-0.161-9.053,0.063C10.983,10.761,10.959,10.762,10.934,10.762z"/><path d="M17.926,24.956c-3.182,0-6.459-1.638-8.119-4.311c-0.291-0.469-0.147-1.086,0.322-1.377s1.086-0.146,1.377,0.322c1.693,2.727,5.531,4.079,8.562,3.016c0.519-0.184,1.092,0.09,1.274,0.612c0.184,0.521-0.091,1.092-0.612,1.274C19.836,24.808,18.885,24.956,17.926,24.956z"/></svg>