<svg xmlns="http://www.w3.org/2000/svg" viewBox="0 0 32 32"><!--! Font Icona - https://fonticona.com | License - https://fonticona.com/license | Copyright 2022 FontIcona.com --><path d="M16,32C7.178,32,0,24.822,0,16S7.178,0,16,0s16,7.178,16,16S24.822,32,16,32z M16,2C8.28,2,2,8.28,2,16s6.28,14,14,14s14-6.28,14-14S23.72,2,16,2z"/><path d="M16,25.951c-2.097,0-4.195-0.641-5.792-1.922c-0.431-0.346-0.5-0.975-0.154-1.406c0.345-0.431,0.976-0.5,1.406-0.154c2.503,2.009,6.576,2.009,9.079,0c0.43-0.346,1.061-0.278,1.406,0.154c0.346,0.431,0.277,1.06-0.154,1.406C20.195,25.31,18.097,25.951,16,25.951z"/><path d="M7.125,18.355c-0.228,0-0.456-0.077-0.644-0.235l-2.375-2c-0.422-0.356-0.477-0.987-0.121-1.409c0.357-0.423,0.988-0.476,1.409-0.121l2.375,2C8.191,16.946,8.246,17.577,7.89,18C7.692,18.234,7.409,18.355,7.125,18.355z"/><path d="M24.75,18.355c-0.285,0-0.567-0.121-0.766-0.356c-0.355-0.422-0.301-1.053,0.121-1.409l2.375-2c0.421-0.355,1.052-0.302,1.409,0.121c0.355,0.422,0.301,1.053-0.121,1.409l-2.375,2C25.207,18.278,24.978,18.355,24.75,18.355z"/><path d="M7.765,12.563c-0.157,0-0.317-0.037-0.465-0.116c-0.489-0.257-0.676-0.862-0.418-1.351c0.782-1.482,2.308-2.403,3.982-2.403c1.609,0,3.106,0.868,3.906,2.265c0.274,0.479,0.108,1.09-0.371,1.365s-1.09,0.108-1.365-0.371c-0.445-0.777-1.277-1.259-2.171-1.259c-0.931,0-1.779,0.512-2.214,1.336C8.472,12.369,8.125,12.563,7.765,12.563z"/><path d="M17.746,12.563c-0.157,0-0.316-0.037-0.465-0.115c-0.488-0.258-0.676-0.862-0.418-1.351c0.781-1.482,2.307-2.403,3.982-2.403c1.609,0,3.106,0.868,3.907,2.265c0.274,0.479,0.109,1.09-0.37,1.365c-0.481,0.274-1.09,0.109-1.365-0.37c-0.445-0.777-1.277-1.26-2.171-1.26c-0.931,0-1.779,0.512-2.213,1.336C18.452,12.369,18.105,12.563,17.746,12.563z"/></svg>