<svg xmlns="http://www.w3.org/2000/svg" viewBox="0 0 32 32"><!--! Font Icona - https://fonticona.com | License - https://fonticona.com/license | Copyright 2022 FontIcona.com --><path d="M16,32C7.178,32,0,24.822,0,16S7.178,0,16,0s16,7.178,16,16S24.822,32,16,32z M16,2C8.28,2,2,8.28,2,16s6.28,14,14,14s14-6.28,14-14S23.72,2,16,2z"/><path d="M9.929,15.429C8.038,15.429,6.5,13.891,6.5,12s1.538-3.429,3.429-3.429s3.429,1.538,3.429,3.429S11.819,15.429,9.929,15.429z M9.929,10.571C9.141,10.571,8.5,11.212,8.5,12s0.641,1.429,1.429,1.429s1.429-0.641,1.429-1.429S10.717,10.571,9.929,10.571z"/><path d="M22.071,15.429c-1.891,0-3.429-1.538-3.429-3.429s1.538-3.429,3.429-3.429S25.5,10.109,25.5,12S23.962,15.429,22.071,15.429z M22.071,10.571c-0.788,0-1.429,0.641-1.429,1.429s0.641,1.429,1.429,1.429S23.5,12.788,23.5,12S22.859,10.571,22.071,10.571z"/><path d="M9.573,19.906c-3.153-0.022-7.513-1.087-9.423-4.018l1.676-1.092c1.375,2.108,4.986,3.09,7.761,3.109L9.573,19.906z"/><path d="M24.434,27.938c-0.884-1.67-2.379-2.333-2.395-2.339l0.773-1.846c0.087,0.037,2.16,0.926,3.389,3.249L24.434,27.938z"/><path d="M16.192,30.232c-0.064,0-0.128,0-0.192-0.002c-6.196,0.092-8.512-5.613-8.868-8.666l-0.007-0.116c0-1.018,0.395-1.939,1.141-2.665c2.265-2.203,7.196-2.125,7.763-2.116c0.498-0.009,5.438-0.089,7.706,2.116c0.746,0.726,1.141,1.647,1.141,2.665l-0.007,0.116C24.516,24.585,22.247,30.231,16.192,30.232z M16,28.23h0.021c0.056,0.001,0.112,0.002,0.167,0.002c5.572,0.001,6.586-6.122,6.686-6.843c-0.013-0.458-0.184-0.832-0.534-1.173c-1.415-1.376-5.039-1.593-6.312-1.55c-1.338-0.042-4.96,0.179-6.369,1.551c-0.35,0.341-0.521,0.715-0.533,1.172c0.099,0.712,1.11,6.843,6.686,6.843c0.055,0,0.11-0.001,0.167-0.002H16z"/><path d="M22.427,19.906l-0.014-2c2.774-0.02,6.386-1.001,7.761-3.109l1.676,1.092C29.939,18.819,25.58,19.884,22.427,19.906z"/><path d="M6.566,27.938l-1.768-0.936c1.229-2.323,3.302-3.212,3.389-3.249l0.778,1.843C8.951,25.604,7.449,26.27,6.566,27.938z"/><rect x="9.317" y="24.45" width="13.576" height="2"/><rect x="8.268" y="20.588" width="15.533" height="2"/></svg>