<svg xmlns="http://www.w3.org/2000/svg" viewBox="0 0 32 32"><!--! Font Icona - https://fonticona.com | License - https://fonticona.com/license | Copyright 2022 FontIcona.com --><path d="M16,32C7.178,32,0,24.822,0,16S7.178,0,16,0s16,7.178,16,16S24.822,32,16,32z M16,2C8.28,2,2,8.28,2,16s6.28,14,14,14s14-6.28,14-14S23.72,2,16,2z"/><path d="M22.071,18.429c-1.891,0-3.429-1.538-3.429-3.429s1.538-3.429,3.429-3.429S25.5,13.109,25.5,15S23.962,18.429,22.071,18.429z M22.071,13.571c-0.788,0-1.429,0.641-1.429,1.429s0.641,1.429,1.429,1.429S23.5,15.788,23.5,15S22.859,13.571,22.071,13.571z"/><path d="M17.686,26.641c-3.183,0-6.461-1.638-8.122-4.311c-0.291-0.469-0.147-1.086,0.322-1.377s1.086-0.147,1.377,0.322c1.694,2.727,5.537,4.08,8.563,3.017c0.523-0.184,1.092,0.092,1.274,0.612c0.184,0.521-0.091,1.092-0.612,1.274C19.594,26.492,18.644,26.641,17.686,26.641z"/><path d="M12.842,16H7.984c-0.553,0-1-0.448-1-1s0.447-1,1-1h4.857c0.553,0,1,0.448,1,1S13.395,16,12.842,16z"/></svg>