<svg xmlns="http://www.w3.org/2000/svg" viewBox="0 0 32 32"><!--! Font Icona - https://fonticona.com | License - https://fonticona.com/license | Copyright 2022 FontIcona.com --><path d="M16,32C7.178,32,0,24.822,0,16S7.178,0,16,0s16,7.178,16,16S24.822,32,16,32z M16,2C8.28,2,2,8.28,2,16s6.28,14,14,14s14-6.28,14-14S23.72,2,16,2z"/><path d="M15.958,26.668c-2.098,0-4.195-0.641-5.792-1.922c-0.431-0.347-0.5-0.976-0.154-1.406c0.346-0.431,0.976-0.497,1.406-0.154c2.502,2.01,6.575,2.01,9.079,0c0.43-0.344,1.06-0.276,1.406,0.154c0.346,0.431,0.277,1.06-0.154,1.406C20.153,26.027,18.056,26.668,15.958,26.668z"/><path class="st0" d="M20.426,20.44c-0.084,0-0.17-0.011-0.255-0.033c-0.534-0.141-0.853-0.688-0.712-1.222L22.531,7.53c0.141-0.533,0.684-0.852,1.222-0.712c0.534,0.141,0.853,0.688,0.712,1.222l-3.072,11.655C21.274,20.144,20.87,20.44,20.426,20.44z"/><path class="st0" d="M22.147,19.195c-1.209,0-2.413-0.354-3.425-1.015c-1.089-0.709-1.598-2.03-1.267-3.288l0.095-0.361c0.141-0.533,0.688-0.852,1.222-0.711s0.853,0.688,0.711,1.223l-0.095,0.36c-0.111,0.421,0.06,0.863,0.425,1.102c0.762,0.497,1.683,0.745,2.591,0.683c0.435-0.027,0.802-0.328,0.913-0.75c0.125-0.474-0.087-0.971-0.515-1.21l-2.658-1.483c-1.226-0.684-1.832-2.108-1.474-3.467c0.331-1.256,1.425-2.154,2.722-2.236c1.327-0.083,2.687,0.273,3.808,1.004c1.089,0.709,1.598,2.03,1.267,3.288l-0.096,0.364c-0.141,0.534-0.689,0.852-1.222,0.712c-0.534-0.141-0.853-0.688-0.711-1.222l0.096-0.364c0.111-0.422-0.06-0.865-0.425-1.103c-0.763-0.497-1.682-0.733-2.591-0.684c-0.435,0.027-0.802,0.329-0.913,0.75c-0.125,0.474,0.087,0.972,0.515,1.211l2.658,1.483c1.226,0.684,1.832,2.108,1.474,3.466c-0.331,1.257-1.425,2.155-2.723,2.236C22.402,19.191,22.274,19.195,22.147,19.195z"/><path class="st0" d="M11.75,20.44c-0.435,0-0.834-0.285-0.96-0.724L7.456,8.134C7.303,7.604,7.609,7.049,8.14,6.896c0.533-0.15,1.085,0.153,1.238,0.685l3.334,11.583c0.153,0.53-0.154,1.085-0.684,1.237C11.935,20.428,11.842,20.44,11.75,20.44z"/><path class="st0" d="M9.885,19.236c-0.081,0-0.162-0.002-0.243-0.005c-1.299-0.051-2.414-0.925-2.772-2.174l-0.104-0.359c-0.153-0.53,0.153-1.084,0.684-1.237c0.53-0.15,1.084,0.153,1.238,0.685l0.104,0.359c0.121,0.418,0.494,0.711,0.93,0.729c0.917,0.031,1.824-0.229,2.575-0.741c0.359-0.246,0.52-0.693,0.399-1.111c-0.136-0.472-0.557-0.809-1.062-0.776l-3.042,0.089c-1.417,0.015-2.654-0.873-3.042-2.223C5.19,11.222,5.669,9.89,6.742,9.155c1.104-0.756,2.45-1.138,3.784-1.089c1.299,0.051,2.413,0.925,2.772,2.175l0.104,0.361c0.153,0.53-0.154,1.085-0.685,1.237c-0.528,0.153-1.085-0.153-1.237-0.685l-0.104-0.361c-0.121-0.419-0.494-0.712-0.93-0.729c-0.918-0.035-1.824,0.228-2.575,0.741c-0.359,0.246-0.52,0.693-0.399,1.111c0.136,0.472,0.56,0.822,1.062,0.776l3.042-0.089c1.437-0.003,2.654,0.874,3.042,2.223c0.36,1.248-0.119,2.581-1.192,3.315C12.388,18.853,11.14,19.236,9.885,19.236z"/></svg>