<svg xmlns="http://www.w3.org/2000/svg" viewBox="0 0 32 32"><!--! Font Icona - https://fonticona.com | License - https://fonticona.com/license | Copyright 2022 FontIcona.com --><path d="M28.889,32H3.111c-1.654,0-3-1.346-3-3v-4.852c0-1.276,0.81-2.416,2.016-2.834l12.869-4.469c0.916-0.318,1.933-0.171,2.723,0.389c0.741,0.527,1.202,1.364,1.256,2.267l10.895,3.772c1.208,0.419,2.019,1.559,2.019,2.836V29C31.889,30.654,30.543,32,28.889,32z M18.98,30h9.908c0.551,0,1-0.448,1-1v-2.891c0-0.426-0.271-0.807-0.673-0.945L18.98,21.619V30z M15.984,18.678c-0.11,0-0.222,0.02-0.331,0.057L2.784,23.203c-0.402,0.14-0.672,0.52-0.672,0.945V29c0,0.552,0.449,1,1,1H16.98v-9.762c0-0.016,0-0.031,0-0.047V19.68c0-0.328-0.153-0.625-0.42-0.815C16.387,18.741,16.188,18.678,15.984,18.678z"/><path d="M28.719,24.934c-0.529,0-0.971-0.415-0.998-0.949l-0.936-18.37h-3.062l-0.833,16.007c-0.029,0.552-0.516,0.97-1.05,0.947c-0.552-0.029-0.976-0.499-0.947-1.051l0.882-16.955c0.027-0.532,0.466-0.948,0.999-0.948h4.961c0.533,0,0.972,0.417,0.999,0.949l0.984,19.319c0.028,0.552-0.396,1.021-0.948,1.05C28.753,24.934,28.736,24.934,28.719,24.934z"/><rect x="22.634" y="8.641" width="5.247" height="2"/><path d="M6.225,26.483H5.232c-0.552,0-1-0.447-1-1s0.448-1,1-1h0.992c0.552,0,1,0.447,1,1S6.777,26.483,6.225,26.483z"/><path d="M10.042,26.483H9.05c-0.552,0-1-0.447-1-1s0.448-1,1-1h0.993c0.552,0,1,0.447,1,1S10.595,26.483,10.042,26.483z"/><path d="M13.86,26.483h-0.993c-0.552,0-1-0.447-1-1s0.448-1,1-1h0.993c0.552,0,1,0.447,1,1S14.412,26.483,13.86,26.483z"/><path d="M6.225,29.242H5.232c-0.552,0-1-0.447-1-1s0.448-1,1-1h0.992c0.552,0,1,0.447,1,1S6.777,29.242,6.225,29.242z"/><path d="M10.042,29.242H9.05c-0.552,0-1-0.447-1-1s0.448-1,1-1h0.993c0.552,0,1,0.447,1,1S10.595,29.242,10.042,29.242z"/><path d="M13.86,29.242h-0.993c-0.552,0-1-0.447-1-1s0.448-1,1-1h0.993c0.552,0,1,0.447,1,1S14.412,29.242,13.86,29.242z"/><path d="M25.64,5.153c-0.01,0-0.021,0-0.031,0c-0.552-0.017-0.986-0.478-0.969-1.03c0.018-0.581-0.16-1.012-0.56-1.357c-0.755-0.653-2.307-0.929-3.773-0.669c-0.886,0.157-1.715,0.496-2.593,0.855c-0.766,0.313-1.558,0.638-2.436,0.86c-0.284,0.071-0.613,0.165-0.974,0.267c-2.488,0.707-6.25,1.774-8.267-0.23C5.646,3.458,5.644,2.825,6.033,2.434c0.39-0.391,1.023-0.394,1.414-0.005c1.188,1.18,4.396,0.27,6.312-0.274c0.381-0.108,0.729-0.207,1.03-0.283c0.741-0.187,1.434-0.471,2.167-0.771c0.937-0.383,1.905-0.78,3.002-0.974c1.583-0.28,3.954-0.153,5.431,1.126c0.854,0.739,1.286,1.752,1.25,2.932C26.622,4.725,26.178,5.153,25.64,5.153z"/><path d="M11.308,20.185c-0.552,0-1-0.447-1-1V14.08c0-0.552,0.448-1,1-1s1,0.448,1,1v5.104C12.308,19.737,11.86,20.185,11.308,20.185z"/><path d="M7.482,21.514c-0.552,0-1-0.447-1-1V15.5c0-0.552,0.448-1,1-1s1,0.448,1,1v5.013C8.482,21.066,8.034,21.514,7.482,21.514z"/><path d="M3.433,22.919c-0.552,0-1-0.447-1-1v-5.051c0-0.552,0.448-1,1-1s1,0.448,1,1v5.051C4.433,22.472,3.985,22.919,3.433,22.919z"/><path d="M23.022,28.843H22.03c-0.552,0-1-0.447-1-1s0.448-1,1-1h0.992c0.552,0,1,0.447,1,1S23.574,28.843,23.022,28.843z"/><path d="M26.84,28.843h-0.993c-0.552,0-1-0.447-1-1s0.448-1,1-1h0.993c0.552,0,1,0.447,1,1S27.392,28.843,26.84,28.843z"/></svg>