<svg xmlns="http://www.w3.org/2000/svg" viewBox="0 0 32 32"><!--! Font Icona - https://fonticona.com | License - https://fonticona.com/license | Copyright 2022 FontIcona.com --><path d="M12.31,29.395c-0.321,0-0.644-0.078-0.939-0.235c-0.654-0.348-1.061-1.024-1.061-1.766V4.606c0-0.741,0.406-1.418,1.061-1.766c0.653-0.348,1.442-0.307,2.057,0.107l16.901,11.394c0.553,0.372,0.883,0.992,0.883,1.658s-0.33,1.286-0.883,1.659L13.427,29.052C13.09,29.28,12.7,29.395,12.31,29.395z M12.31,4.606v22.788L29.211,16L12.31,4.606z"/><path d="M2,29.395c-0.321,0-0.644-0.078-0.939-0.235C0.406,28.812,0,28.136,0,27.395V4.605C0,3.864,0.406,3.188,1.061,2.84c0.656-0.348,1.443-0.307,2.057,0.107l8.751,5.898c0.458,0.309,0.579,0.93,0.271,1.388c-0.31,0.457-0.931,0.579-1.388,0.27L2,4.605v22.789l8.751-5.898c0.457-0.309,1.078-0.188,1.388,0.27c0.309,0.458,0.188,1.08-0.271,1.388l-8.751,5.898C2.78,29.28,2.391,29.395,2,29.395z"/><path d="M31,30.58c-0.553,0-1-0.448-1-1V2.42c0-0.552,0.447-1,1-1s1,0.448,1,1V29.58C32,30.132,31.553,30.58,31,30.58z"/></svg>