<svg xmlns="http://www.w3.org/2000/svg" viewBox="0 0 32 32"><!--! Font Icona - https://fonticona.com | License - https://fonticona.com/license | Copyright 2022 FontIcona.com --><path d="M5.06,30.208H3.717c-1.672,0-3.032-1.359-3.032-3.031v-14.69c0-1.672,1.36-3.031,3.032-3.031H5.06v2H3.717c-0.569,0-1.032,0.463-1.032,1.031v14.69c0,0.568,0.463,1.031,1.032,1.031H5.06V30.208z"/><path d="M28.283,30.208H11.002v-2h17.281c0.569,0,1.032-0.463,1.032-1.031v-14.69c0-0.568-0.463-1.031-1.032-1.031h-1.246v-2h1.246c1.672,0,3.032,1.359,3.032,3.031v14.69C31.315,28.849,29.955,30.208,28.283,30.208z"/><rect x="11.002" y="9.455" width="3.494" height="2"/><path d="M8.971,32H7.091c-1.672,0-3.032-1.359-3.032-3.031V10.575c0-1.672,1.36-3.031,3.032-3.031h1.879c1.671,0,3.031,1.359,3.031,3.031v18.394C12.002,30.641,10.642,32,8.971,32z M7.091,9.544c-0.569,0-1.032,0.463-1.032,1.031v18.394C6.06,29.537,6.522,30,7.091,30h1.879c0.569,0,1.031-0.463,1.031-1.031V10.575c0-0.568-0.462-1.031-1.031-1.031H7.091z"/><path d="M26.567,17.822H15.041c-0.552,0-1-0.447-1-1s0.448-1,1-1h11.526c0.552,0,1,0.447,1,1S27.12,17.822,26.567,17.822z"/><path d="M25.006,13.526h-8.479c-1.671,0-3.031-1.359-3.031-3.031V3.031c0-1.672,1.36-3.031,3.031-3.031h8.479c1.671,0,3.031,1.359,3.031,3.031v7.464C28.038,12.167,26.678,13.526,25.006,13.526z M16.527,2c-0.569,0-1.031,0.463-1.031,1.031v7.464c0,0.568,0.462,1.031,1.031,1.031h8.479c0.569,0,1.031-0.463,1.031-1.031V3.031C26.038,2.463,25.575,2,25.006,2H16.527z"/><path d="M23.852,5.842h-6.095c-0.552,0-1-0.447-1-1s0.448-1,1-1h6.095c0.552,0,1,0.447,1,1S24.404,5.842,23.852,5.842z"/><path d="M23.852,9.685h-6.095c-0.552,0-1-0.447-1-1s0.448-1,1-1h6.095c0.552,0,1,0.447,1,1S24.404,9.685,23.852,9.685z"/><circle cx="16" cy="20.944" r="1.27"/><circle cx="20.851" cy="20.944" r="1.27"/><circle cx="25.701" cy="20.944" r="1.27"/><circle cx="16" cy="25.066" r="1.27"/><circle cx="20.851" cy="25.066" r="1.27"/><circle cx="25.701" cy="25.066" r="1.27"/></svg>