<svg xmlns="http://www.w3.org/2000/svg" viewBox="0 0 32 32"><!--! Font Icona - https://fonticona.com | License - https://fonticona.com/license | Copyright 2022 FontIcona.com --><path d="M14.292,27.182c-2.152,0-4.124-0.792-5.624-2.277l-1.51-1.511c-0.766-0.758-1.361-1.626-1.767-2.577c-1.488-3.496-0.531-7.822,2.381-10.766l6.881-6.881c3.852-3.891,9.829-4.251,13.32-0.796l1.707,1.707c1.693,1.676,2.48,3.954,2.21,6.41c-0.253,2.31-1.419,4.619-3.282,6.501l-6.874,6.883c-1.856,1.873-4.189,3.032-6.57,3.265C14.871,27.168,14.58,27.182,14.292,27.182z M22.017,1.995c-2.072,0-4.254,0.876-5.946,2.586L9.19,11.461c-2.344,2.369-3.133,5.814-1.96,8.571c0.304,0.711,0.754,1.365,1.338,1.943l1.51,1.511c1.267,1.254,3.008,1.847,4.891,1.662c1.919-0.187,3.817-1.14,5.344-2.682c0.001-0.001,0.002-0.003,0.003-0.004l6.872-6.881c1.544-1.56,2.509-3.446,2.713-5.309c0.204-1.864-0.36-3.515-1.632-4.775l-1.707-1.707C25.344,2.586,23.718,1.995,22.017,1.995z"/><path d="M14.512,11.386c-0.341,0-0.674-0.175-0.861-0.489c-0.419-0.706-0.581-1.542-0.495-2.553c0.066-0.717,0.239-1.455,0.514-2.198c0.234-0.647,0.523-1.305,0.856-1.948c0.352-0.677,0.72-1.301,1.064-1.807c0.31-0.456,0.934-0.575,1.39-0.264c0.457,0.311,0.575,0.933,0.263,1.39c-0.3,0.441-0.626,0.996-0.942,1.603c-0.293,0.564-0.546,1.141-0.753,1.712c-0.216,0.586-0.35,1.152-0.4,1.689c-0.049,0.575,0.023,1.02,0.222,1.355c0.282,0.475,0.125,1.088-0.349,1.371C14.861,11.341,14.686,11.386,14.512,11.386z"/><path d="M24.83,14.591c-0.791,0-1.462-0.171-2.045-0.517c-0.475-0.282-0.631-0.896-0.349-1.371c0.282-0.475,0.896-0.631,1.37-0.349c0.334,0.199,0.782,0.273,1.361,0.222c0.53-0.049,1.097-0.183,1.676-0.396c0.579-0.209,1.155-0.463,1.72-0.756c0.607-0.316,1.162-0.643,1.603-0.942c0.459-0.311,1.079-0.191,1.39,0.265s0.191,1.079-0.265,1.389c-0.512,0.347-1.118,0.705-1.804,1.063c-0.645,0.334-1.302,0.623-1.957,0.86c-0.737,0.272-1.475,0.445-2.186,0.51C25.168,14.583,24.996,14.591,24.83,14.591z"/><path d="M20.442,21.09c-0.787,0-1.457-0.17-2.04-0.516c-0.476-0.281-0.632-0.896-0.351-1.37c0.28-0.475,0.894-0.632,1.37-0.351c0.336,0.199,0.783,0.27,1.361,0.222c0.531-0.049,1.098-0.183,1.677-0.396c0.572-0.207,1.149-0.461,1.722-0.757c0.6-0.313,1.154-0.639,1.602-0.942c0.456-0.31,1.078-0.191,1.389,0.266c0.311,0.457,0.191,1.079-0.266,1.389c-0.51,0.347-1.134,0.714-1.804,1.063c-0.651,0.337-1.31,0.626-1.956,0.859c-0.736,0.272-1.475,0.445-2.187,0.511C20.781,21.083,20.609,21.09,20.442,21.09z"/><path d="M10.096,15.786c-0.341,0-0.673-0.174-0.86-0.489c-0.419-0.705-0.582-1.54-0.496-2.553c0.066-0.717,0.239-1.455,0.514-2.199c0.234-0.647,0.522-1.305,0.856-1.948c0.36-0.69,0.717-1.297,1.064-1.806c0.311-0.456,0.932-0.574,1.389-0.264c0.457,0.311,0.575,0.933,0.264,1.389c-0.298,0.438-0.625,0.994-0.943,1.604c-0.292,0.564-0.546,1.141-0.752,1.711c-0.216,0.587-0.35,1.153-0.4,1.689c-0.048,0.575,0.024,1.021,0.222,1.354c0.282,0.475,0.126,1.088-0.348,1.371C10.446,15.741,10.269,15.786,10.096,15.786z"/><path d="M1.058,32c-0.256,0-0.512-0.098-0.707-0.293c-0.391-0.39-0.391-1.023-0.001-1.414l16.31-16.327c0.39-0.392,1.024-0.391,1.415-0.001c0.391,0.39,0.391,1.023,0,1.414L1.766,31.707C1.57,31.903,1.314,32,1.058,32z"/></svg>