<svg xmlns="http://www.w3.org/2000/svg" viewBox="0 0 32 32"><!--! Font Icona - https://fonticona.com | License - https://fonticona.com/license | Copyright 2022 FontIcona.com --><path d="M12.643,28.602c-2.368,0-4.737-0.901-6.54-2.705c-3.606-3.606-3.606-9.472-0.001-13.077l2.394-2.394c0.546-0.545,1.341-0.753,2.082-0.549c0.103-0.881,0.56-1.693,1.279-2.236l2.02-1.527c0.577-0.437,1.315-0.552,1.994-0.313c0.373-0.794,1.06-1.422,1.939-1.713L29.938,0.08c0.569-0.187,1.182-0.041,1.603,0.38c0.421,0.421,0.567,1.034,0.38,1.6l-4.009,12.136c-0.264,0.799-0.809,1.439-1.502,1.829c0.281,0.646,0.227,1.383-0.149,1.981c-0.626,0.998-1.693,2.506-3.214,4.027l-3.864,3.864C17.38,27.701,15.011,28.602,12.643,28.602z M10.002,11.799c-0.051,0-0.08,0.029-0.093,0.042l-2.394,2.394c-2.825,2.825-2.825,7.422,0,10.247c2.828,2.828,7.426,2.828,10.252,0.001l3.864-3.864c1.389-1.389,2.363-2.767,2.935-3.677c0.01-0.016,0.037-0.059,0.008-0.123c-0.021-0.046-0.059-0.074-0.111-0.082l-2.372-0.358c-0.521-0.079-0.892-0.548-0.848-1.073c0.045-0.525,0.505-0.921,1.017-0.916l2.515,0.05c0.577,0.028,1.061-0.339,1.237-0.873l3.741-11.321l-11.317,3.74c-0.536,0.177-0.888,0.674-0.876,1.238l0.049,2.517c0.01,0.527-0.391,0.971-0.916,1.015c-0.525,0.038-0.995-0.327-1.073-0.848L15.302,7.8c-0.003-0.02-0.012-0.079-0.085-0.108c-0.074-0.032-0.12,0.005-0.136,0.018l-2.02,1.527c-0.333,0.252-0.522,0.653-0.506,1.071l0.167,4.105c0.021,0.518-0.357,0.966-0.871,1.032c-0.521,0.069-0.994-0.271-1.105-0.778l-0.604-2.758c-0.004-0.021-0.018-0.08-0.096-0.103C10.031,11.801,10.016,11.799,10.002,11.799z"/><path d="M1.001,32c-0.256,0-0.512-0.098-0.707-0.293c-0.391-0.391-0.391-1.023,0-1.414L16.587,14c0.391-0.391,1.023-0.391,1.414,0s0.391,1.023,0,1.414L1.708,31.707C1.513,31.902,1.257,32,1.001,32z"/></svg>