<svg xmlns="http://www.w3.org/2000/svg" viewBox="0 0 32 32"><!--! Font Icona - https://fonticona.com | License - https://fonticona.com/license | Copyright 2022 FontIcona.com --><path d="M16,32H0V15.998C0,7.177,7.178,0,16,0s16,7.177,16,15.998C32,24.822,24.822,32,16,32z M2,30h14c7.72,0,14-6.281,14-14.002C30,8.279,23.72,2,16,2S2,8.279,2,15.998V30z"/><path d="M10.133,29.104c-3.997,0-7.248-3.251-7.248-7.248c0-3.998,3.251-7.25,7.248-7.25h2.379v-2.379c0-3.997,3.251-7.248,7.248-7.248s7.248,3.251,7.248,7.248c0,3.997-3.251,7.249-7.248,7.249h-2.379v2.38C17.381,25.853,14.13,29.104,10.133,29.104z M10.133,16.607c-2.894,0-5.248,2.355-5.248,5.25c0,2.894,2.354,5.248,5.248,5.248s5.248-2.354,5.248-5.248v-4.38h4.379c2.894,0,5.248-2.354,5.248-5.249c0-2.894-2.354-5.248-5.248-5.248s-5.248,2.354-5.248,5.248v4.379H10.133z M10.133,26.235c-2.414,0-4.378-1.964-4.378-4.378c0-2.415,1.964-4.38,4.378-4.38h4.379v4.38C14.512,24.271,12.547,26.235,10.133,26.235z M10.133,19.477c-1.312,0-2.378,1.067-2.378,2.38c0,1.312,1.066,2.378,2.378,2.378s2.379-1.067,2.379-2.378v-2.38H10.133z M19.76,16.607h-4.379v-4.379c0-2.414,1.965-4.378,4.379-4.378s4.378,1.964,4.378,4.378C24.138,14.643,22.174,16.607,19.76,16.607z M17.381,14.607h2.379c1.312,0,2.378-1.067,2.378-2.379c0-1.312-1.066-2.378-2.378-2.378s-2.379,1.067-2.379,2.378V14.607z"/><path d="M23.271,11.43c-0.662,0-1.3-0.291-1.751-0.796l1.492-1.331c0.052,0.058,0.139,0.127,0.259,0.127c0.211,0,0.389-0.221,0.389-0.483c0-0.195-0.092-0.317-0.146-0.373l1.428-1.401c0.463,0.472,0.719,1.103,0.719,1.774C25.659,10.316,24.588,11.43,23.271,11.43z"/><path d="M5.288,27.149c-0.598-0.328-1.034-0.891-1.197-1.545c-0.328-1.315,0.492-2.655,1.827-2.988c0.664-0.166,1.348-0.061,1.927,0.296l-1.049,1.703c-0.067-0.042-0.211-0.105-0.393-0.059c-0.267,0.066-0.434,0.319-0.372,0.564c0.039,0.156,0.153,0.24,0.218,0.275L5.288,27.149z"/><path d="M11.381,19.477c-1.403,0-2.545-1.092-2.545-2.435c0-1.343,1.142-2.435,2.545-2.435c0.553,0,1,0.448,1,1s-0.447,1-1,1c-0.295,0-0.545,0.199-0.545,0.435c0,0.235,0.25,0.435,0.545,0.435c0.553,0,1,0.448,1,1S11.934,19.477,11.381,19.477z"/><path d="M18.687,19.477c-0.553,0-1-0.448-1-1s0.447-1,1-1c0.295,0,0.544-0.199,0.544-0.435c0-0.236-0.249-0.435-0.544-0.435c-0.553,0-1-0.448-1-1s0.447-1,1-1c1.402,0,2.544,1.092,2.544,2.435C21.23,18.384,20.089,19.477,18.687,19.477z"/></svg>