<svg xmlns="http://www.w3.org/2000/svg" viewBox="0 0 32 32"><!--! Font Icona - https://fonticona.com | License - https://fonticona.com/license | Copyright 2022 FontIcona.com --><path d="M8.823,17.566c-0.553,0-1-0.448-1-1v-2.56c0-0.552,0.447-1,1-1s1,0.448,1,1v2.56C9.823,17.119,9.376,17.566,8.823,17.566z"/><path d="M6.271,19.847c-0.553,0-1-0.448-1-1v-2.56c0-0.552,0.447-1,1-1s1,0.448,1,1v2.56C7.271,19.399,6.823,19.847,6.271,19.847z"/><path d="M12.42,32c-0.217,0-0.435-0.07-0.618-0.215l-2.569-2.027c-0.225-0.177-0.362-0.442-0.379-0.728s0.09-0.565,0.293-0.767l3.339-3.322v-2.086l-9.222,3.701c-0.292,0.117-0.627,0.09-0.897-0.078c-0.271-0.167-0.445-0.452-0.472-0.769l-0.27-3.277C1.6,22.124,1.72,21.82,1.949,21.612l10.821-9.838V7.216c0.292-3.434,2.301-6.62,2.386-6.754c0.367-0.576,1.32-0.576,1.688,0c0.085,0.134,2.094,3.32,2.382,6.668l0.004,4.643l10.821,9.838c0.229,0.208,0.35,0.512,0.324,0.822l-0.27,3.277c-0.026,0.316-0.201,0.602-0.472,0.769s-0.603,0.194-0.897,0.078l-9.222-3.701v2.086l3.339,3.322c0.392,0.39,0.394,1.023,0.004,1.414c-0.389,0.393-1.021,0.394-1.414,0.004l-3.634-3.615c-0.188-0.188-0.295-0.443-0.295-0.709v-3.981c0-0.332,0.165-0.643,0.439-0.829c0.275-0.185,0.625-0.222,0.933-0.1l9.336,3.747l0.118-1.435l-10.784-9.804c-0.208-0.189-0.327-0.458-0.327-0.74v-5c-0.13-1.485-0.713-3.004-1.228-4.098c-0.517,1.104-1.103,2.648-1.235,4.184l0.004,4.914c0,0.282-0.119,0.55-0.327,0.74L3.659,22.76l0.118,1.435l9.336-3.747c0.308-0.124,0.657-0.086,0.933,0.1c0.274,0.186,0.439,0.497,0.439,0.829v3.981c0,0.266-0.106,0.521-0.295,0.709l-2.834,2.82l1.684,1.328c0.434,0.342,0.508,0.971,0.166,1.404C13.009,31.87,12.716,32,12.42,32z"/><path d="M19.58,32c-0.296,0-0.589-0.13-0.786-0.381c-0.342-0.434-0.268-1.062,0.166-1.404l2.569-2.027c0.435-0.341,1.062-0.268,1.404,0.166c0.342,0.434,0.268,1.062-0.166,1.404l-2.569,2.027C20.015,31.93,19.797,32,19.58,32z"/><path d="M25.729,19.847c-0.553,0-1-0.448-1-1v-2.56c0-0.552,0.447-1,1-1s1,0.448,1,1v2.56C26.729,19.399,26.282,19.847,25.729,19.847z"/><path d="M23.177,17.566c-0.553,0-1-0.448-1-1v-2.56c0-0.552,0.447-1,1-1s1,0.448,1,1v2.56C24.177,17.119,23.729,17.566,23.177,17.566z"/><path d="M19.578,32c-0.169,0-0.34-0.042-0.497-0.133c-2.245-1.288-4.13-1.297-6.113-0.028c-0.466,0.298-1.084,0.163-1.381-0.303c-0.298-0.465-0.162-1.083,0.303-1.381c2.616-1.674,5.294-1.682,8.188-0.021c0.479,0.275,0.645,0.886,0.369,1.365C20.262,31.82,19.925,32,19.578,32z"/></svg>