<svg xmlns="http://www.w3.org/2000/svg" viewBox="0 0 32 32"><!--! Font Icona - https://fonticona.com | License - https://fonticona.com/license | Copyright 2022 FontIcona.com --><path d="M20.504,12.272h-8.989c-3.334,0-6.047-2.712-6.047-6.047V6.047C5.468,2.712,8.181,0,11.515,0h8.989c3.335,0,6.048,2.712,6.048,6.047v0.179C26.552,9.56,23.839,12.272,20.504,12.272z M11.515,2C9.283,2,7.468,3.815,7.468,6.047v0.179c0,2.231,1.815,4.047,4.047,4.047h8.989c2.232,0,4.048-1.815,4.048-4.047V6.047C24.552,3.815,22.736,2,20.504,2H11.515z"/><path d="M20.715,21.9c-3.12,0-5.658-2.608-5.658-5.814s2.538-5.814,5.658-5.814s5.658,2.608,5.658,5.814S23.835,21.9,20.715,21.9z M20.715,12.272c-2.018,0-3.658,1.711-3.658,3.814s1.641,3.814,3.658,3.814s3.658-1.711,3.658-3.814S22.732,12.272,20.715,12.272z"/><path d="M11.254,32c-3.201,0-5.806-2.58-5.806-5.75c0-1.516,0.949-3.518,2.725-4.704c-1.638-1.083-2.721-2.941-2.721-5.048V16.32c0-3.334,2.713-6.047,6.047-6.047h3.558V1h2l0.003,25.25C17.06,29.42,14.455,32,11.254,32z M11.347,22.545c-2.56,0.119-3.898,2.465-3.898,3.705c0,2.068,1.707,3.75,3.806,3.75s3.806-1.682,3.806-3.75l-0.003-3.705H11.347z M11.499,20.545h3.558v-8.273h-3.558c-2.231,0-4.047,1.815-4.047,4.047v0.179c0,2.189,1.747,3.978,3.921,4.045h0.001C11.415,20.545,11.457,20.545,11.499,20.545z"/></svg>