<svg xmlns="http://www.w3.org/2000/svg" viewBox="0 0 32 32"><!--! Font Icona - https://fonticona.com | License - https://fonticona.com/license | Copyright 2022 FontIcona.com --><path d="M25.322,32H6.678c-1.654,0-3-1.346-3-3V3c0-1.654,1.346-3,3-3h13.457c0.888,0,1.725,0.39,2.297,1.069l5.187,6.174c0.454,0.539,0.704,1.225,0.704,1.93V29C28.322,30.654,26.977,32,25.322,32z M6.678,2c-0.551,0-1,0.449-1,1v26c0,0.552,0.449,1,1,1h18.644c0.552,0,1-0.448,1-1V9.173c0-0.234-0.083-0.463-0.234-0.643L20.9,2.356C20.71,2.13,20.431,2,20.135,2H6.678z"/><path d="M27.323,10.644h-5.367c-1.654,0-3-1.346-3-3V1h2v6.644c0,0.551,0.448,1,1,1h5.367V10.644z"/><path d="M9.093,22.222H7.885v-2h1.208c0.551,0,1-0.448,1-1v-0.399c0-0.552-0.449-1.001-1-1.001h-2.21v-2h2.21c1.654,0,3,1.346,3,3v0.399C12.093,20.876,10.747,22.222,9.093,22.222z"/><rect x="6.885" y="16.822" width="2" height="8.004"/><rect x="12.99" y="15.827" width="2" height="9"/><rect x="16.355" y="15.827" width="2" height="9"/><polygon points="18.351,24.827 16.324,24.827 13.653,17.822 12.993,17.822 12.993,15.822 15.031,15.822 17.701,22.827 18.351,22.827 "/><path d="M24.016,24.827h-1.557c-1.58,0-2.865-1.285-2.865-2.865v-3.14c0-1.654,1.346-3,3-3h1.422c0.606,0,1.1,0.494,1.1,1.1v1.653h-2v-0.753h-0.521c-0.552,0-1,0.448-1,1v3.14c0,0.478,0.388,0.865,0.865,0.865h0.656v-1.345h-0.652v-2h1.553c0.606,0,1.1,0.494,1.1,1.101v3.144C25.115,24.333,24.622,24.827,24.016,24.827z"/></svg>