<svg xmlns="http://www.w3.org/2000/svg" viewBox="0 0 32 32"><!--! Font Icona - https://fonticona.com | License - https://fonticona.com/license | Copyright 2022 FontIcona.com --><path d="M16.005,25.889c-0.552,0-1-0.448-1-1v-9.133c0-0.552,0.448-1,1-1s1,0.448,1,1v9.133C17.005,25.441,16.558,25.889,16.005,25.889z"/><path d="M20.206,21.322h-8.411c-0.552,0-1-0.448-1-1s0.448-1,1-1h8.411c0.552,0,1,0.448,1,1S20.758,21.322,20.206,21.322z"/><path d="M25.322,32H6.678c-1.654,0-3-1.346-3-3V3c0-1.654,1.346-3,3-3h13.457c0.888,0,1.726,0.39,2.297,1.07l5.188,6.173c0.454,0.54,0.703,1.226,0.703,1.93V29C28.322,30.654,26.977,32,25.322,32z M6.678,2c-0.551,0-1,0.449-1,1v26c0,0.551,0.449,1,1,1h18.645c0.551,0,1-0.449,1-1V9.173c0-0.235-0.083-0.463-0.234-0.644L20.9,2.357C20.71,2.13,20.431,2,20.135,2H6.678z"/><path d="M27.322,10.645h-5.367c-1.654,0-3-1.346-3-3V1c0-0.552,0.448-1,1-1s1,0.448,1,1v6.645c0,0.551,0.449,1,1,1h5.367c0.552,0,1,0.448,1,1S27.875,10.645,27.322,10.645z"/></svg>