<svg xmlns="http://www.w3.org/2000/svg" viewBox="0 0 32 32"><!--! Font Icona - https://fonticona.com | License - https://fonticona.com/license | Copyright 2022 FontIcona.com --><path d="M25.322,32H6.678c-1.654,0-3-1.346-3-3V3c0-1.654,1.346-3,3-3h13.457c0.889,0,1.726,0.39,2.297,1.069l5.188,6.174c0.454,0.54,0.703,1.226,0.703,1.93V29C28.322,30.654,26.977,32,25.322,32z M6.678,2c-0.551,0-1,0.448-1,1v26c0,0.552,0.449,1,1,1h18.645c0.551,0,1-0.448,1-1V9.173c0-0.234-0.083-0.463-0.234-0.643L20.9,2.356C20.71,2.13,20.431,2,20.135,2H6.678z"/><path d="M27.322,10.645h-5.367c-1.654,0-3-1.346-3-3V1c0-0.553,0.448-1,1-1s1,0.447,1,1v6.645c0,0.552,0.449,1,1,1h5.367c0.552,0,1,0.447,1,1S27.875,10.645,27.322,10.645z"/><path d="M13.917,13.779H8.472c-0.552,0-1-0.447-1-1s0.448-1,1-1h5.444c0.552,0,1,0.447,1,1S14.469,13.779,13.917,13.779z"/><path d="M23.528,17.582H8.472c-0.552,0-1-0.447-1-1s0.448-1,1-1h15.056c0.552,0,1,0.447,1,1S24.08,17.582,23.528,17.582z"/><path d="M19.917,21.385H8.472c-0.552,0-1-0.447-1-1s0.448-1,1-1h11.444c0.552,0,1,0.447,1,1S20.469,21.385,19.917,21.385z"/><path d="M14.783,25.188H8.472c-0.552,0-1-0.447-1-1s0.448-1,1-1h6.311c0.552,0,1,0.447,1,1S15.335,25.188,14.783,25.188z"/><path d="M23.528,28.865h-5.011c-0.552,0-1-0.447-1-1s0.448-1,1-1h5.011c0.552,0,1,0.447,1,1S24.08,28.865,23.528,28.865z"/></svg>