<svg xmlns="http://www.w3.org/2000/svg" viewBox="0 0 32 32"><!--! Font Icona - https://fonticona.com | License - https://fonticona.com/license | Copyright 2022 FontIcona.com --><path d="M25.322,32H6.678c-1.654,0-3-1.346-3-3V3c0-1.654,1.346-3,3-3h13.457c0.889,0,1.726,0.39,2.297,1.069l5.188,6.174c0.454,0.54,0.703,1.226,0.703,1.93V29C28.322,30.654,26.977,32,25.322,32z M6.678,2c-0.551,0-1,0.448-1,1v26c0,0.552,0.449,1,1,1h18.645c0.551,0,1-0.448,1-1V9.173c0-0.234-0.083-0.463-0.234-0.643L20.9,2.356C20.71,2.13,20.431,2,20.135,2H6.678z"/><path d="M27.322,10.645h-5.367c-1.654,0-3-1.346-3-3V1c0-0.553,0.448-1,1-1s1,0.447,1,1v6.645c0,0.552,0.449,1,1,1h5.367c0.552,0,1,0.447,1,1S27.875,10.645,27.322,10.645z"/><path d="M17.642,28.474c-0.552,0-1-0.447-1-1V13.171c0-0.553,0.448-1,1-1s1,0.447,1,1v14.303C18.642,28.026,18.194,28.474,17.642,28.474z"/><path d="M14.358,27.049c-0.552,0-1-0.447-1-1V14.596c0-0.553,0.448-1,1-1s1,0.447,1,1v11.453C15.358,26.602,14.911,27.049,14.358,27.049z"/><path d="M11.076,24.337c-0.552,0-1-0.447-1-1v-5.394c0-0.553,0.448-1,1-1s1,0.447,1,1v5.394C12.076,23.89,11.628,24.337,11.076,24.337z"/><path d="M7.793,22.816c-0.552,0-1-0.447-1-1v-2.353c0-0.553,0.448-1,1-1s1,0.447,1,1v2.353C8.793,22.369,8.345,22.816,7.793,22.816z"/><path d="M20.924,25.211c-0.552,0-1-0.447-1-1v-7.142c0-0.553,0.448-1,1-1s1,0.447,1,1v7.142C21.924,24.764,21.477,25.211,20.924,25.211z"/><path d="M24.207,22.816c-0.552,0-1-0.447-1-1v-2.353c0-0.553,0.448-1,1-1s1,0.447,1,1v2.353C25.207,22.369,24.759,22.816,24.207,22.816z"/></svg>