<svg xmlns="http://www.w3.org/2000/svg" viewBox="0 0 32 32"><!--! Font Icona - https://fonticona.com | License - https://fonticona.com/license | Copyright 2022 FontIcona.com --><path d="M25.322,32H6.677c-1.654,0-3-1.346-3-3V3c0-1.654,1.346-3,3-3h13.457c0.888,0,1.725,0.39,2.297,1.069l5.187,6.174c0.454,0.539,0.704,1.225,0.704,1.93V29C28.322,30.654,26.976,32,25.322,32z M6.677,2c-0.551,0-1,0.449-1,1v26c0,0.552,0.449,1,1,1h18.644c0.552,0,1-0.448,1-1V9.173c0-0.234-0.083-0.463-0.234-0.643L20.9,2.356C20.709,2.13,20.43,2,20.134,2H6.677z"/><path d="M27.323,10.564h-5.367c-1.654,0-3-1.346-3-3V1c0-0.552,0.447-1,1-1s1,0.448,1,1v6.564c0,0.551,0.448,1,1,1h5.367c0.553,0,1,0.448,1,1S27.875,10.564,27.323,10.564z"/><rect x="16.697" y="14.558" transform="matrix(0.5 -0.866 0.866 0.5 -5.448 23.5805)" width="2" height="3.9"/><path d="M11.515,28.316c-0.189,0-0.378-0.048-0.549-0.146c-0.376-0.216-0.59-0.634-0.546-1.065l0.415-3.973c0.054-0.517,0.213-1.007,0.472-1.456l4.906-8.497c0.252-0.437,0.66-0.75,1.149-0.88c0.488-0.13,0.998-0.063,1.435,0.189l1.834,1.059c0.438,0.252,0.751,0.661,0.882,1.149c0.13,0.488,0.062,0.997-0.189,1.435l-4.904,8.496c-0.256,0.443-0.61,0.836-1.023,1.135l-3.234,2.347C11.969,28.246,11.742,28.316,11.515,28.316z M17.89,14.274l-4.851,8.4c-0.118,0.205-0.191,0.429-0.215,0.664l-0.205,1.965l1.602-1.162c0.188-0.136,0.349-0.314,0.466-0.517l4.849-8.4L17.89,14.274z"/></svg>