<svg xmlns="http://www.w3.org/2000/svg" viewBox="0 0 32 32"><!--! Font Icona - https://fonticona.com | License - https://fonticona.com/license | Copyright 2022 FontIcona.com --><path d="M29.889,31.967H2.111C0.947,31.967,0,31.02,0,29.855V17.699c0-1.164,0.947-2.111,2.111-2.111h27.778c1.164,0,2.111,0.947,2.111,2.111v12.156C32,31.02,31.053,31.967,29.889,31.967z M2.111,17.589C2.05,17.589,2,17.638,2,17.699v12.156c0,0.062,0.05,0.111,0.111,0.111h27.778c0.062,0,0.111-0.049,0.111-0.111V17.699c0-0.062-0.05-0.11-0.111-0.11H2.111z"/><path d="M1.54,17.747c-0.265,0-0.529-0.105-0.726-0.313c-0.38-0.4-0.362-1.034,0.039-1.413l4.85-4.591c0.402-0.379,1.033-0.362,1.414,0.039c0.38,0.401,0.362,1.034-0.039,1.414l-4.85,4.591C2.034,17.656,1.787,17.747,1.54,17.747z"/><path d="M30.77,18.021c-0.245,0-0.491-0.09-0.684-0.271l-5.191-4.866c-0.403-0.377-0.424-1.01-0.046-1.414c0.376-0.404,1.011-0.424,1.413-0.045l5.191,4.866c0.403,0.377,0.424,1.011,0.046,1.413C31.303,17.915,31.036,18.021,30.77,18.021z"/><path d="M22.389,25.821H9.611c-0.354,0-0.683-0.188-0.862-0.493c-0.179-0.306-0.184-0.684-0.011-0.993l1.422-2.555c0.269-0.483,0.878-0.653,1.36-0.388c0.482,0.269,0.656,0.878,0.387,1.36l-0.595,1.068h9.375l-0.595-1.068c-0.269-0.482-0.095-1.092,0.388-1.36c0.485-0.271,1.091-0.094,1.36,0.388l1.422,2.555c0.172,0.31,0.168,0.688-0.012,0.993S22.743,25.821,22.389,25.821z"/><path d="M25.416,17.589c-0.55,0.001-0.997-0.444-1-0.995L24.353,3.029c-0.002-0.549-0.451-0.996-1-0.996H8.665c-0.268,0-0.52,0.104-0.708,0.294c-0.189,0.19-0.292,0.442-0.292,0.71l0.063,13.545c0.002,0.552-0.443,1.002-0.995,1.004c-0.002,0-0.003,0-0.005,0c-0.55,0-0.998-0.444-1-0.995L5.665,3.047c-0.003-0.804,0.307-1.561,0.874-2.13c0.567-0.569,1.322-0.883,2.126-0.883h14.688c1.646,0,2.993,1.34,3,2.986l0.063,13.564c0.003,0.552-0.443,1.002-0.995,1.004C25.419,17.589,25.418,17.589,25.416,17.589z"/><path d="M16.137,6.326h-5.445c-0.552,0-1-0.448-1-1s0.448-1,1-1h5.445c0.552,0,1,0.448,1,1S16.689,6.326,16.137,6.326z"/><path d="M20.787,10.129H10.692c-0.552,0-1-0.448-1-1s0.448-1,1-1h10.095c0.553,0,1,0.448,1,1S21.34,10.129,20.787,10.129z"/><path d="M18.369,13.932h-7.677c-0.552,0-1-0.448-1-1s0.448-1,1-1h7.677c0.553,0,1,0.448,1,1S18.922,13.932,18.369,13.932z"/></svg>