<svg xmlns="http://www.w3.org/2000/svg" viewBox="0 0 32 32"><!--! Font Icona - https://fonticona.com | License - https://fonticona.com/license | Copyright 2022 FontIcona.com --><path d="M27.322,14.812H4.678c-0.552,0-1-0.447-1-1s0.448-1,1-1h22.645c0.552,0,1,0.447,1,1S27.875,14.812,27.322,14.812z"/><path d="M27.092,20.5H4.678c-0.552,0-1-0.447-1-1s0.448-1,1-1h22.414c0.552,0,1,0.447,1,1S27.644,20.5,27.092,20.5z"/><path d="M27.322,26.2H4.678c-0.552,0-1-0.447-1-1s0.448-1,1-1h22.645c0.552,0,1,0.447,1,1S27.875,26.2,27.322,26.2z"/><path d="M21.252,32c-0.552,0-1-0.447-1-1V13.812c0-0.553,0.448-1,1-1s1,0.447,1,1V31C22.252,31.553,21.805,32,21.252,32z"/><path d="M15.885,32c-0.552,0-1-0.447-1-1V13.812c0-0.553,0.448-1,1-1s1,0.447,1,1V31C16.885,31.553,16.437,32,15.885,32z"/><path d="M10.507,32c-0.552,0-1-0.447-1-1V13.812c0-0.553,0.448-1,1-1s1,0.447,1,1V31C11.507,31.553,11.059,32,10.507,32z"/><path d="M25.322,32H6.678c-1.654,0-3-1.346-3-3V3c0-1.654,1.346-3,3-3h13.457c0.889,0,1.726,0.39,2.297,1.069l5.188,6.174c0.454,0.54,0.703,1.226,0.703,1.93V29C28.322,30.654,26.977,32,25.322,32z M6.678,2c-0.551,0-1,0.448-1,1v26c0,0.552,0.449,1,1,1h18.645c0.551,0,1-0.448,1-1V9.173c0-0.234-0.083-0.463-0.234-0.643L20.9,2.356C20.71,2.13,20.431,2,20.135,2H6.678z"/><path d="M27.322,10.645h-5.367c-1.654,0-3-1.346-3-3V1c0-0.553,0.448-1,1-1s1,0.447,1,1v6.645c0,0.552,0.449,1,1,1h5.367c0.552,0,1,0.447,1,1S27.875,10.645,27.322,10.645z"/></svg>