<svg xmlns="http://www.w3.org/2000/svg" viewBox="0 0 32 32"><!--! Font Icona - https://fonticona.com | License - https://fonticona.com/license | Copyright 2022 FontIcona.com --><circle cx="15.483" cy="26.839" r="1.067"/><path d="M15.428,24.628c-0.012,0-0.023,0-0.035,0c-0.552-0.019-0.984-0.482-0.965-1.034c0.005-0.16,0.002-0.337-0.001-0.523c-0.019-1.031-0.047-2.59,1.227-3.458c0.36-0.247,0.738-0.479,1.112-0.709c1.522-0.933,2.384-1.518,2.384-2.687c0-1.366-1.416-2.478-3.155-2.478c-1.734,0-3.145,1.112-3.145,2.478c0,0.552-0.448,1-1,1s-1-0.448-1-1c0-2.469,2.308-4.478,5.145-4.478c2.843,0,5.155,2.009,5.155,4.478c0,2.346-1.774,3.433-3.339,4.392c-0.344,0.211-0.693,0.424-1.028,0.654c-0.384,0.262-0.37,1.063-0.357,1.771c0.004,0.224,0.007,0.436,0.001,0.628C16.409,24.203,15.965,24.628,15.428,24.628z"/><path d="M25.322,32H6.678c-1.654,0-3-1.346-3-3V3c0-1.654,1.346-3,3-3h13.457c0.888,0,1.726,0.39,2.297,1.07l5.188,6.173c0.454,0.54,0.703,1.226,0.703,1.93V29C28.322,30.654,26.977,32,25.322,32z M6.678,2c-0.551,0-1,0.449-1,1v26c0,0.551,0.449,1,1,1h18.645c0.551,0,1-0.449,1-1V9.173c0-0.235-0.083-0.463-0.234-0.644L20.9,2.357C20.71,2.13,20.431,2,20.135,2H6.678z"/><path d="M27.322,10.645h-5.367c-1.654,0-3-1.346-3-3V1c0-0.552,0.448-1,1-1s1,0.448,1,1v6.645c0,0.551,0.449,1,1,1h5.367c0.552,0,1,0.448,1,1S27.875,10.645,27.322,10.645z"/></svg>