<svg xmlns="http://www.w3.org/2000/svg" viewBox="0 0 32 32"><!--! Font Icona - https://fonticona.com | License - https://fonticona.com/license | Copyright 2022 FontIcona.com --><rect x="12.317" y="4.304" width="2" height="2"/><rect x="12.317" y="9" width="2" height="2"/><rect x="12.317" y="13.696" width="2" height="2"/><rect x="10.317" y="16.044" width="2" height="2"/><rect x="10.317" y="1.956" width="2" height="2"/><rect x="10.317" y="6.652" width="2" height="2"/><rect x="10.317" y="11.348" width="2" height="2"/><path d="M12.964,26.947h-1.295c-1.185,0-2.149-0.964-2.149-2.15v-5.274h5.594v5.274C15.114,25.983,14.149,26.947,12.964,26.947z M11.52,21.523v3.274c0,0.083,0.067,0.15,0.149,0.15h1.295c0.083,0,0.149-0.067,0.149-0.15v-3.274H11.52z"/><path d="M25.322,32H6.678c-1.654,0-3-1.346-3-3V3c0-1.654,1.346-3,3-3h13.457c0.888,0,1.726,0.39,2.297,1.07l5.188,6.173c0.454,0.54,0.703,1.226,0.703,1.93V29C28.322,30.654,26.977,32,25.322,32z M6.678,2c-0.551,0-1,0.449-1,1v26c0,0.551,0.449,1,1,1h18.645c0.551,0,1-0.449,1-1V9.173c0-0.235-0.083-0.463-0.234-0.644L20.9,2.357C20.71,2.13,20.431,2,20.135,2H6.678z"/><path d="M27.322,10.645h-5.367c-1.654,0-3-1.346-3-3V1c0-0.552,0.448-1,1-1s1,0.448,1,1v6.645c0,0.551,0.449,1,1,1h5.367c0.552,0,1,0.448,1,1S27.875,10.645,27.322,10.645z"/></svg>