<svg xmlns="http://www.w3.org/2000/svg" viewBox="0 0 32 32"><!--! Font Icona - https://fonticona.com | License - https://fonticona.com/license | Copyright 2022 FontIcona.com --><path d="M25.322,32H6.678c-1.654,0-3-1.346-3-3V3c0-1.654,1.346-3,3-3h13.457c0.889,0,1.726,0.39,2.297,1.069l5.188,6.174c0.454,0.54,0.703,1.226,0.703,1.93V29C28.322,30.654,26.977,32,25.322,32z M6.678,2c-0.551,0-1,0.448-1,1v26c0,0.552,0.449,1,1,1h18.645c0.551,0,1-0.448,1-1V9.173c0-0.234-0.083-0.463-0.234-0.643L20.9,2.356C20.71,2.13,20.431,2,20.135,2H6.678z"/><path d="M27.322,10.645h-5.367c-1.654,0-3-1.346-3-3V1c0-0.553,0.448-1,1-1s1,0.447,1,1v6.645c0,0.552,0.449,1,1,1h5.367c0.552,0,1,0.447,1,1S27.875,10.645,27.322,10.645z"/><path d="M12.065,24.266c-0.196,0-0.395-0.058-0.568-0.178l-4.126-2.859c-0.266-0.185-0.426-0.485-0.431-0.809s0.148-0.629,0.409-0.82l4.126-3.027c0.445-0.327,1.071-0.229,1.397,0.215c0.327,0.445,0.23,1.071-0.215,1.398l-2.996,2.197l2.974,2.061c0.454,0.314,0.567,0.938,0.252,1.392C12.694,24.115,12.382,24.266,12.065,24.266z"/><path d="M19.935,24.266c-0.308,0-0.611-0.142-0.807-0.408c-0.327-0.445-0.23-1.071,0.215-1.398l2.996-2.197l-2.974-2.061c-0.454-0.314-0.567-0.938-0.252-1.392c0.314-0.453,0.938-0.566,1.391-0.253l4.126,2.859c0.266,0.185,0.426,0.485,0.431,0.809s-0.148,0.629-0.409,0.82l-4.126,3.027C20.347,24.203,20.14,24.266,19.935,24.266z"/><path d="M14.014,27.479c-0.102,0-0.205-0.016-0.307-0.048c-0.525-0.17-0.814-0.733-0.645-1.259l3.972-12.314c0.17-0.525,0.732-0.812,1.259-0.646c0.525,0.17,0.814,0.733,0.645,1.259l-3.972,12.314C14.829,27.21,14.437,27.479,14.014,27.479z"/></svg>