<svg xmlns="http://www.w3.org/2000/svg" viewBox="0 0 32 32"><!--! Font Icona - https://fonticona.com | License - https://fonticona.com/license | Copyright 2022 FontIcona.com --><path d="M24.1,23.28H7.9c-0.552,0-1-0.447-1-1v-9.366c0-0.553,0.448-1,1-1h16.2c0.552,0,1,0.447,1,1v9.366C25.1,22.833,24.652,23.28,24.1,23.28z M8.9,21.28h14.2v-7.366H8.9V21.28z"/><path d="M12.277,28.725c-0.171,0-0.344-0.044-0.502-0.136c-0.477-0.277-0.639-0.89-0.361-1.367l3.167-5.444c0.278-0.478,0.89-0.639,1.367-0.361c0.477,0.277,0.639,0.89,0.361,1.367l-3.167,5.444C12.957,28.547,12.622,28.725,12.277,28.725z"/><path d="M19.723,28.725c-0.345,0-0.68-0.178-0.865-0.497l-3.167-5.444c-0.278-0.478-0.116-1.09,0.361-1.367c0.478-0.278,1.089-0.116,1.367,0.361l3.167,5.444c0.278,0.478,0.116,1.09-0.361,1.367C20.067,28.681,19.894,28.725,19.723,28.725z"/><path d="M11.611,18.603h-2.6c-0.552,0-1-0.447-1-1s0.448-1,1-1h2.6c0.552,0,1,0.447,1,1S12.164,18.603,11.611,18.603z"/><path d="M23.167,18.603h-2.6c-0.552,0-1-0.447-1-1s0.448-1,1-1h2.6c0.552,0,1,0.447,1,1S23.719,18.603,23.167,18.603z"/><path d="M25.322,32H6.678c-1.654,0-3-1.346-3-3V3c0-1.654,1.346-3,3-3h13.457c0.889,0,1.726,0.39,2.297,1.069l5.188,6.174c0.454,0.54,0.703,1.226,0.703,1.93V29C28.322,30.654,26.977,32,25.322,32z M6.678,2c-0.551,0-1,0.448-1,1v26c0,0.552,0.449,1,1,1h18.645c0.551,0,1-0.448,1-1V9.173c0-0.234-0.083-0.463-0.234-0.643L20.9,2.356C20.71,2.13,20.431,2,20.135,2H6.678z"/><path d="M27.322,10.645h-5.367c-1.654,0-3-1.346-3-3V1c0-0.553,0.448-1,1-1s1,0.447,1,1v6.645c0,0.552,0.449,1,1,1h5.367c0.552,0,1,0.447,1,1S27.875,10.645,27.322,10.645z"/></svg>