<svg xmlns="http://www.w3.org/2000/svg" viewBox="0 0 32 32"><!--! Font Icona - https://fonticona.com | License - https://fonticona.com/license | Copyright 2022 FontIcona.com --><path d="M11.868,27.381c-0.336,0-0.673-0.084-0.977-0.254c-0.631-0.354-1.023-1.022-1.023-1.745V15.263c0-0.723,0.392-1.392,1.022-1.745c0.63-0.354,1.406-0.338,2.021,0.039l8.263,5.06c0.599,0.367,0.956,1.005,0.956,1.707s-0.357,1.339-0.956,1.705l-8.263,5.06C12.593,27.283,12.231,27.381,11.868,27.381z M11.869,15.263v10.119l8.263-5.06L11.869,15.263z"/><path d="M25.322,32H6.678c-1.654,0-3-1.346-3-3V3c0-1.654,1.346-3,3-3h13.457c0.888,0,1.726,0.39,2.297,1.07l5.188,6.173c0.454,0.54,0.703,1.226,0.703,1.93V29C28.322,30.654,26.977,32,25.322,32z M6.678,2c-0.551,0-1,0.449-1,1v26c0,0.551,0.449,1,1,1h18.645c0.551,0,1-0.449,1-1V9.173c0-0.235-0.083-0.463-0.234-0.644L20.9,2.357C20.71,2.13,20.431,2,20.135,2H6.678z"/><path d="M27.322,10.645h-5.367c-1.654,0-3-1.346-3-3V1c0-0.552,0.448-1,1-1s1,0.448,1,1v6.645c0,0.551,0.449,1,1,1h5.367c0.552,0,1,0.448,1,1S27.875,10.645,27.322,10.645z"/></svg>