<svg xmlns="http://www.w3.org/2000/svg" viewBox="0 0 32 32"><!--! Font Icona - https://fonticona.com | License - https://fonticona.com/license | Copyright 2022 FontIcona.com --><path d="M25.322,32H6.678c-1.654,0-3-1.346-3-3V3c0-1.654,1.346-3,3-3h13.457c0.889,0,1.726,0.39,2.297,1.069l5.188,6.174c0.454,0.54,0.703,1.226,0.703,1.93V29C28.322,30.654,26.977,32,25.322,32z M6.678,2c-0.551,0-1,0.448-1,1v26c0,0.552,0.449,1,1,1h18.645c0.551,0,1-0.448,1-1V9.173c0-0.234-0.083-0.463-0.234-0.643L20.9,2.356C20.71,2.13,20.431,2,20.135,2H6.678z"/><path d="M27.322,10.645h-5.367c-1.654,0-3-1.346-3-3V1c0-0.553,0.448-1,1-1s1,0.447,1,1v6.645c0,0.552,0.449,1,1,1h5.367c0.552,0,1,0.447,1,1S27.875,10.645,27.322,10.645z"/><path d="M9.093,22.223H7.885v-2h1.208c0.551,0,1-0.448,1-1v-0.4c0-0.552-0.449-1-1-1h-2.21v-2h2.21c1.654,0,3,1.346,3,3v0.4C12.093,20.877,10.747,22.223,9.093,22.223z"/><rect x="6.885" y="16.822" width="2" height="8.003"/><rect x="13.37" y="16.822" width="2" height="7"/><path d="M15.578,24.822H13.37v-2h2.208c0.542,0,1-0.364,1-0.795v-3.41c0-0.431-0.458-0.795-1-0.795H13.37v-2h2.208c1.654,0,3,1.254,3,2.795v3.41C18.578,23.568,17.232,24.822,15.578,24.822z"/><rect x="19.799" y="16.822" width="2" height="8.003"/><rect x="19.801" y="15.822" width="5.317" height="2"/><rect x="20.799" y="18.887" width="3.344" height="2"/></svg>