<svg xmlns="http://www.w3.org/2000/svg" viewBox="0 0 32 32"><!--! Font Icona - https://fonticona.com | License - https://fonticona.com/license | Copyright 2022 FontIcona.com --><path d="M25.928,32H6.072c-1.164,0-2.111-0.947-2.111-2.111V2.111C3.961,0.947,4.908,0,6.072,0h19.855c1.164,0,2.111,0.947,2.111,2.111v27.777C28.039,31.053,27.092,32,25.928,32z M6.072,2C6.011,2,5.961,2.05,5.961,2.111v27.777C5.961,29.95,6.011,30,6.072,30h19.855c0.062,0,0.111-0.05,0.111-0.111V2.111C26.039,2.05,25.989,2,25.928,2H6.072z"/><path d="M27.039,11.833H4.961c-0.552,0-1-0.447-1-1s0.448-1,1-1h22.078c0.552,0,1,0.447,1,1S27.591,11.833,27.039,11.833z"/><path d="M27.039,21.767H4.961c-0.552,0-1-0.447-1-1s0.448-1,1-1h22.078c0.552,0,1,0.447,1,1S27.591,21.767,27.039,21.767z"/><path d="M18.895,8.045h-5.8c-0.552,0-1-0.447-1-1V5.467c0-0.553,0.448-1,1-1s1,0.447,1,1v0.578h3.8V5.467c0-0.553,0.448-1,1-1s1,0.447,1,1v1.578C19.895,7.598,19.447,8.045,18.895,8.045z"/><path d="M18.895,17.378h-5.8c-0.552,0-1-0.447-1-1V14.8c0-0.553,0.448-1,1-1s1,0.447,1,1v0.578h3.8V14.8c0-0.553,0.448-1,1-1s1,0.447,1,1v1.578C19.895,16.931,19.447,17.378,18.895,17.378z"/><path d="M18.895,27.312h-5.8c-0.552,0-1-0.447-1-1v-1.578c0-0.553,0.448-1,1-1s1,0.447,1,1v0.578h3.8v-0.578c0-0.553,0.448-1,1-1s1,0.447,1,1v1.578C19.895,26.864,19.447,27.312,18.895,27.312z"/></svg>