<svg xmlns="http://www.w3.org/2000/svg" viewBox="0 0 32 32"><!--! Font Icona - https://fonticona.com | License - https://fonticona.com/license | Copyright 2022 FontIcona.com --><path d="M23.389,15.795h-6.167c-0.552,0-1-0.447-1-1s0.448-1,1-1h6.167c0.552,0,1,0.447,1,1S23.941,15.795,23.389,15.795z"/><path d="M23.389,19.517h-6.167c-0.552,0-1-0.447-1-1s0.448-1,1-1h6.167c0.552,0,1,0.447,1,1S23.941,19.517,23.389,19.517z"/><path d="M19.811,24.161H8.2c-0.552,0-1-0.447-1-1s0.448-1,1-1h11.611c0.552,0,1,0.447,1,1S20.363,24.161,19.811,24.161z"/><path d="M23.8,28.062H8.3c-0.552,0-1-0.447-1-1s0.448-1,1-1h15.5c0.552,0,1,0.447,1,1S24.352,28.062,23.8,28.062z"/><path d="M14.056,20.372H8.267c-0.552,0-1-0.447-1-1v-5.789c0-0.553,0.448-1,1-1h5.789c0.552,0,1,0.447,1,1v5.789C15.056,19.925,14.608,20.372,14.056,20.372z M9.267,18.372h3.789v-3.789H9.267V18.372z"/><path d="M25.322,32H6.678c-1.654,0-3-1.346-3-3V3c0-1.654,1.346-3,3-3h13.457c0.889,0,1.726,0.39,2.297,1.069l5.188,6.174c0.454,0.54,0.703,1.226,0.703,1.93V29C28.322,30.654,26.977,32,25.322,32z M6.678,2c-0.551,0-1,0.448-1,1v26c0,0.552,0.449,1,1,1h18.645c0.551,0,1-0.448,1-1V9.173c0-0.234-0.083-0.463-0.234-0.643L20.9,2.356C20.71,2.13,20.431,2,20.135,2H6.678z"/><path d="M27.322,10.645h-5.367c-1.654,0-3-1.346-3-3V1c0-0.553,0.448-1,1-1s1,0.447,1,1v6.645c0,0.552,0.449,1,1,1h5.367c0.552,0,1,0.447,1,1S27.875,10.645,27.322,10.645z"/></svg>