<svg xmlns="http://www.w3.org/2000/svg" viewBox="0 0 32 32"><!--! Font Icona - https://fonticona.com | License - https://fonticona.com/license | Copyright 2022 FontIcona.com --><path d="M16,31.24c-0.803,0-1.557-0.312-2.121-0.876l-9.308-9.308c-1.169-1.169-1.169-3.072,0-4.242l9.308-9.308c1.129-1.13,3.113-1.13,4.242,0l9.308,9.308c1.169,1.17,1.169,3.073,0,4.242l-9.308,9.308C17.557,30.929,16.803,31.24,16,31.24z M16,8.63c-0.269,0-0.52,0.103-0.707,0.291l-9.308,9.308c-0.39,0.39-0.39,1.024,0,1.414l9.308,9.308c0.375,0.375,1.039,0.375,1.414,0l0,0l9.308-9.308c0.39-0.39,0.39-1.024,0-1.414L16.707,8.92C16.52,8.733,16.269,8.63,16,8.63z"/><path d="M22.068,13.867c-0.256,0-0.512-0.098-0.707-0.293L10.254,2.467c-0.391-0.391-0.391-1.023,0-1.414s1.023-0.391,1.414,0L22.775,12.16c0.391,0.391,0.391,1.023,0,1.414C22.58,13.77,22.324,13.867,22.068,13.867z"/></svg>