<svg xmlns="http://www.w3.org/2000/svg" viewBox="0 0 32 32"><!--! Font Icona - https://fonticona.com | License - https://fonticona.com/license | Copyright 2022 FontIcona.com --><path d="M12.983,30.48c-0.803,0-1.557-0.312-2.121-0.876l-9.308-9.308c-1.169-1.17-1.169-3.073,0-4.242l9.308-9.308c1.129-1.13,3.113-1.13,4.242,0l9.308,9.308c1.169,1.169,1.169,3.072,0,4.242l-9.308,9.308C14.54,30.169,13.786,30.48,12.983,30.48z M12.983,7.87c-0.269,0-0.52,0.103-0.707,0.291l-9.308,9.308c-0.39,0.39-0.39,1.024,0,1.414l9.308,9.308c0.375,0.375,1.039,0.375,1.414,0l0,0l9.308-9.308c0.39-0.39,0.39-1.024,0-1.414L13.69,8.161C13.503,7.973,13.252,7.87,12.983,7.87z"/><path d="M19.051,13.107c-0.256,0-0.512-0.098-0.707-0.293L7.236,1.707c-0.391-0.391-0.391-1.023,0-1.414s1.023-0.391,1.414,0L19.758,11.4c0.391,0.391,0.391,1.023,0,1.414C19.562,13.01,19.307,13.107,19.051,13.107z"/><path d="M24.288,19.175H1.679c-0.553,0-1-0.448-1-1s0.447-1,1-1h22.609c0.553,0,1,0.448,1,1S24.841,19.175,24.288,19.175z"/><path d="M27.342,32c-2.438,0-3.926-1.561-3.98-4.174c-0.006-0.319,0.023-0.61,0.087-0.893c0.439-1.941,2.104-4.034,2.815-4.927c0.08-0.1,0.145-0.181,0.188-0.238c0.086-0.165,0.216-0.304,0.378-0.401c0.315-0.189,0.709-0.188,1.024,0c0.152,0.091,0.276,0.221,0.361,0.373c0.037,0.045,0.088,0.104,0.149,0.178c0.723,0.858,2.414,2.868,2.875,5.032c0.059,0.28,0.086,0.572,0.081,0.869C31.281,29.841,30.215,32,27.342,32z M27.362,23.848c-0.692,0.907-1.696,2.347-1.963,3.528c-0.028,0.125-0.041,0.259-0.038,0.412c0.041,1.96,1.08,2.212,1.98,2.212c1.284,0,1.95-0.747,1.979-2.219c0.003-0.146-0.01-0.282-0.038-0.415C29.011,26.082,28.052,24.72,27.362,23.848z"/></svg>