<svg xmlns="http://www.w3.org/2000/svg" viewBox="0 0 32 32"><!--! Font Icona - https://fonticona.com | License - https://fonticona.com/license | Copyright 2022 FontIcona.com --><path d="M29,32H3c-1.654,0-3-1.346-3-3V3c0-1.654,1.346-3,3-3h26c1.654,0,3,1.346,3,3v26C32,30.654,30.654,32,29,32z M3,2C2.448,2,2,2.448,2,3v26c0,0.552,0.448,1,1,1h26c0.552,0,1-0.448,1-1V3c0-0.552-0.448-1-1-1H3z"/><path d="M11.675,23.015c-0.273,0-0.548-0.068-0.795-0.206c-0.52-0.288-0.842-0.836-0.842-1.43V10.612c0-0.594,0.322-1.142,0.842-1.43c0.518-0.288,1.155-0.274,1.659,0.041l8.651,5.387h0.001c0.482,0.301,0.771,0.82,0.771,1.39c-0.001,0.568-0.289,1.088-0.772,1.389l-8.65,5.38C12.275,22.933,11.975,23.015,11.675,23.015z M12.038,11.268v9.457l7.599-4.726L12.038,11.268z"/><path d="M4.753,3.997h1.5c0.276,0,0.5,0.224,0.5,0.5v1.5c0,0.276-0.224,0.5-0.5,0.5h-1.5c-0.276,0-0.5-0.224-0.5-0.5v-1.5C4.253,4.221,4.477,3.997,4.753,3.997z"/><path d="M4.753,8.306h1.5c0.276,0,0.5,0.224,0.5,0.5v1.5c0,0.276-0.224,0.5-0.5,0.5h-1.5c-0.276,0-0.5-0.224-0.5-0.5v-1.5C4.253,8.53,4.477,8.306,4.753,8.306z"/><path d="M4.753,12.615h1.5c0.276,0,0.5,0.224,0.5,0.5v1.5c0,0.276-0.224,0.5-0.5,0.5h-1.5c-0.276,0-0.5-0.224-0.5-0.5v-1.5C4.253,12.839,4.477,12.615,4.753,12.615z"/><path d="M4.753,16.924h1.5c0.276,0,0.5,0.224,0.5,0.5v1.5c0,0.276-0.224,0.5-0.5,0.5h-1.5c-0.276,0-0.5-0.224-0.5-0.5v-1.5C4.253,17.148,4.477,16.924,4.753,16.924z"/><path d="M4.753,21.233h1.5c0.276,0,0.5,0.224,0.5,0.5v1.5c0,0.276-0.224,0.5-0.5,0.5h-1.5c-0.276,0-0.5-0.224-0.5-0.5v-1.5C4.253,21.457,4.477,21.233,4.753,21.233z"/><path d="M25.747,8.306h1.5c0.276,0,0.5,0.224,0.5,0.5v1.5c0,0.276-0.224,0.5-0.5,0.5h-1.5c-0.276,0-0.5-0.224-0.5-0.5v-1.5C25.247,8.53,25.471,8.306,25.747,8.306z"/><path d="M25.747,12.615h1.5c0.276,0,0.5,0.224,0.5,0.5v1.5c0,0.276-0.224,0.5-0.5,0.5h-1.5c-0.276,0-0.5-0.224-0.5-0.5v-1.5C25.247,12.839,25.471,12.615,25.747,12.615z"/><path d="M25.747,16.924h1.5c0.276,0,0.5,0.224,0.5,0.5v1.5c0,0.276-0.224,0.5-0.5,0.5h-1.5c-0.276,0-0.5-0.224-0.5-0.5v-1.5C25.247,17.148,25.471,16.924,25.747,16.924z"/><path d="M25.747,21.233h1.5c0.276,0,0.5,0.224,0.5,0.5v1.5c0,0.276-0.224,0.5-0.5,0.5h-1.5c-0.276,0-0.5-0.224-0.5-0.5v-1.5C25.247,21.457,25.471,21.233,25.747,21.233z"/><path d="M25.747,25.543h1.5c0.276,0,0.5,0.224,0.5,0.5v1.5c0,0.276-0.224,0.5-0.5,0.5h-1.5c-0.276,0-0.5-0.224-0.5-0.5v-1.5C25.247,25.766,25.471,25.543,25.747,25.543z"/></svg>