<svg xmlns="http://www.w3.org/2000/svg" viewBox="0 0 32 32"><!--! Font Icona - https://fonticona.com | License - https://fonticona.com/license | Copyright 2022 FontIcona.com --><path d="M10.178,25.069c-0.31,0-0.62-0.078-0.9-0.233c-0.589-0.327-0.955-0.949-0.955-1.623V8.724c0-0.674,0.366-1.295,0.954-1.623c0.591-0.325,1.31-0.308,1.883,0.046l11.642,7.249c0.549,0.341,0.877,0.931,0.877,1.577c0,0.646-0.328,1.235-0.877,1.576l-11.642,7.24C10.859,24.976,10.52,25.069,10.178,25.069z M10.322,8.982v13.972l11.227-6.982L10.322,8.982z M21.746,16.095h0.01H21.746z"/><path d="M0.872,0h2.003c0.276,0,0.5,0.224,0.5,0.5v2.003c0,0.276-0.224,0.5-0.5,0.5H0.872c-0.276,0-0.5-0.224-0.5-0.5V0.5C0.372,0.224,0.596,0,0.872,0z"/><path d="M0.872,5.799h2.003c0.276,0,0.5,0.224,0.5,0.5v2.003c0,0.276-0.224,0.5-0.5,0.5H0.872c-0.276,0-0.5-0.224-0.5-0.5V6.299C0.372,6.023,0.596,5.799,0.872,5.799z"/><path d="M0.872,11.599h2.003c0.276,0,0.5,0.224,0.5,0.5v2.003c0,0.276-0.224,0.5-0.5,0.5H0.872c-0.276,0-0.5-0.224-0.5-0.5v-2.003C0.372,11.823,0.596,11.599,0.872,11.599z"/><path d="M0.872,17.398h2.003c0.276,0,0.5,0.224,0.5,0.5v2.003c0,0.276-0.224,0.5-0.5,0.5H0.872c-0.276,0-0.5-0.224-0.5-0.5v-2.003C0.372,17.622,0.596,17.398,0.872,17.398z"/><path d="M0.872,23.198h2.003c0.276,0,0.5,0.224,0.5,0.5v2.003c0,0.276-0.224,0.5-0.5,0.5H0.872c-0.276,0-0.5-0.224-0.5-0.5v-2.003C0.372,23.421,0.596,23.198,0.872,23.198z"/><path d="M29.125,5.799h2.003c0.276,0,0.5,0.224,0.5,0.5v2.003c0,0.276-0.224,0.5-0.5,0.5h-2.003c-0.276,0-0.5-0.224-0.5-0.5V6.299C28.625,6.023,28.849,5.799,29.125,5.799z"/><path d="M29.125,11.599h2.003c0.276,0,0.5,0.224,0.5,0.5v2.003c0,0.276-0.224,0.5-0.5,0.5h-2.003c-0.276,0-0.5-0.224-0.5-0.5v-2.003C28.625,11.823,28.849,11.599,29.125,11.599z"/><path d="M29.125,17.398h2.003c0.276,0,0.5,0.224,0.5,0.5v2.003c0,0.276-0.224,0.5-0.5,0.5h-2.003c-0.276,0-0.5-0.224-0.5-0.5v-2.003C28.625,17.622,28.849,17.398,29.125,17.398z"/><path d="M29.125,23.198h2.003c0.276,0,0.5,0.224,0.5,0.5v2.003c0,0.276-0.224,0.5-0.5,0.5h-2.003c-0.276,0-0.5-0.224-0.5-0.5v-2.003C28.625,23.422,28.849,23.198,29.125,23.198z"/><path d="M29.125,28.997h2.003c0.276,0,0.5,0.224,0.5,0.5V31.5c0,0.276-0.224,0.5-0.5,0.5h-2.003c-0.276,0-0.5-0.224-0.5-0.5v-2.003C28.625,29.221,28.849,28.997,29.125,28.997z"/></svg>