<svg xmlns="http://www.w3.org/2000/svg" viewBox="0 0 32 32"><!--! Font Icona - https://fonticona.com | License - https://fonticona.com/license | Copyright 2022 FontIcona.com --><path d="M19.45,15.422h-6.9c-0.322,0-0.624-0.155-0.812-0.416L2.083,1.584c-0.219-0.305-0.249-0.706-0.078-1.04C2.176,0.21,2.52,0,2.895,0h26.211c0.375,0,0.719,0.21,0.89,0.544c0.171,0.334,0.141,0.735-0.078,1.04l-9.655,13.422C20.074,15.268,19.772,15.422,19.45,15.422z M13.062,13.422h5.875L27.154,2H4.846L13.062,13.422z"/><path d="M19.45,32c-0.276,0-0.545-0.114-0.739-0.326l-6.9-7.567c-0.168-0.184-0.261-0.424-0.261-0.674v-9.011c0-0.552,0.448-1,1-1h6.9c0.552,0,1,0.448,1,1V31c0,0.413-0.254,0.783-0.639,0.933C19.694,31.978,19.572,32,19.45,32z M13.55,23.045l4.9,5.374V15.422h-4.9V23.045z"/></svg>