<svg xmlns="http://www.w3.org/2000/svg" viewBox="0 0 32 32"><!--! Font Icona - https://fonticona.com | License - https://fonticona.com/license | Copyright 2022 FontIcona.com --><path d="M16.006,32c-4.681-0.03-7.927-1.061-9.937-3.15c-2.949-3.064-2.795-7.89-2.633-12.998l0.002-0.07C3.768,6.937,9.286,0.004,16,0c6.715,0.004,12.232,6.937,12.562,15.781c0.165,5.179,0.318,10.004-2.631,13.068C23.92,30.939,20.674,31.97,16.006,32z M5.438,15.853l-0.002,0.062c-0.155,4.878-0.29,9.091,2.075,11.548c1.617,1.681,4.396,2.511,8.496,2.537c4.087-0.026,6.866-0.856,8.483-2.537c2.364-2.457,2.23-6.67,2.075-11.548C26.278,8.219,21.54,2.004,16,2C10.461,2.004,5.723,8.218,5.438,15.853z"/><path d="M13.52,31.725c-0.443,0-0.849-0.297-0.967-0.745c-0.645-2.449-0.966-4.919-0.883-6.775c0.181-2.229,2.093-3.651,3.675-4.204c1.631-0.568,4.173-0.6,5.965,1.192c1.865,2.026,2.349,4.817,2.738,7.061c0.069,0.396,0.135,0.779,0.206,1.14c0.107,0.542-0.246,1.067-0.788,1.175c-0.546,0.104-1.068-0.246-1.174-0.788c-0.074-0.375-0.143-0.772-0.214-1.184c-0.363-2.089-0.773-4.456-2.211-6.02c-1.107-1.106-2.778-1.067-3.863-0.688c-1.096,0.383-2.244,1.286-2.339,2.441c-0.071,1.603,0.235,3.911,0.822,6.14c0.14,0.534-0.179,1.081-0.713,1.222C13.689,31.714,13.604,31.725,13.52,31.725z"/><path d="M8.77,30.632c-0.395,0-0.755-0.262-0.864-0.661c-0.487-1.796-1.051-4.387-0.971-6.534c-0.034-2.389,0.916-6.703,7.66-8.25c5.472-1.257,10.622,1.359,11.574,4.542c0.725,1.988,1.154,4.262,1.226,6.524c0.016,0.494-0.373,0.907-0.867,0.923c-0.527,0.054-0.908-0.372-0.923-0.866c-0.065-2.075-0.458-4.156-1.135-6.019c-0.644-2.143-4.637-4.475-9.474-3.358c-4.148,0.951-6.316,3.207-6.27,6.524c-0.073,1.969,0.454,4.369,0.909,6.045c0.129,0.478-0.152,0.969-0.63,1.099C8.927,30.622,8.848,30.632,8.77,30.632z"/><path d="M4.385,20.144c-0.057,0-0.114-0.005-0.172-0.015c-0.544-0.095-0.909-0.612-0.814-1.156c0.702-4.04,5.775-8.804,11.934-9.18c9.334-0.571,12.956,6.377,13.105,6.673c0.249,0.493,0.051,1.095-0.442,1.344c-0.492,0.249-1.093,0.051-1.342-0.439c-0.132-0.258-3.224-6.07-11.199-5.581c-4.997,0.306-9.524,4.296-10.085,7.525C5.285,19.801,4.862,20.144,4.385,20.144z"/><path d="M5.267,11.791c-0.116,0-0.234-0.021-0.35-0.063c-0.518-0.193-0.78-0.769-0.587-1.286c1.201-3.216,6.586-4.86,7.196-5.037c6.577-1.907,12.242-0.272,15.949,4.604c0.334,0.439,0.249,1.067-0.19,1.401c-0.44,0.335-1.067,0.249-1.401-0.19c-3.172-4.172-8.074-5.557-13.801-3.895c-2.482,0.72-5.299,2.262-5.879,3.815C6.053,11.543,5.672,11.791,5.267,11.791z"/><path d="M18.371,31.725c-0.471,0-0.891-0.334-0.981-0.813l-1.081-5.697c-0.103-0.543,0.253-1.066,0.796-1.169c0.544-0.101,1.066,0.254,1.169,0.796l1.081,5.697c0.103,0.543-0.253,1.066-0.796,1.169C18.496,31.719,18.433,31.725,18.371,31.725z"/></svg>