<svg xmlns="http://www.w3.org/2000/svg" viewBox="0 0 32 32"><!--! Font Icona - https://fonticona.com | License - https://fonticona.com/license | Copyright 2022 FontIcona.com --><path d="M29,29.982H3c-1.654,0-3-1.346-3-3V9.593c0-1.654,1.346-3,3-3h26c1.654,0,3,1.346,3,3v17.39C32,28.637,30.654,29.982,29,29.982z M3,8.593c-0.551,0-1,0.449-1,1v17.39c0,0.552,0.449,1,1,1h26c0.552,0,1-0.448,1-1V9.593c0-0.551-0.448-1-1-1H3z"/><path d="M19.984,8.579c-0.553,0-1-0.448-1-1V5.298c0-0.51-1.131-1.281-2.835-1.281h-0.3c-1.704,0-2.835,0.771-2.835,1.281v2.281c0,0.552-0.448,1-1,1s-1-0.448-1-1V5.298c0-1.84,2.124-3.281,4.835-3.281h0.3c2.711,0,4.835,1.441,4.835,3.281v2.281C20.984,8.131,20.537,8.579,19.984,8.579z"/><path d="M16,24.607c-0.552,0-1-0.447-1-1v-10.64c0-0.552,0.448-1,1-1s1,0.448,1,1v10.64C17,24.16,16.552,24.607,16,24.607z"/><path d="M21.32,19.287H10.68c-0.552,0-1-0.447-1-1s0.448-1,1-1h10.64c0.553,0,1,0.447,1,1S21.873,19.287,21.32,19.287z"/><path d="M5.888,29.982c-0.552,0-1-0.447-1-1V7.593c0-0.552,0.448-1,1-1s1,0.448,1,1v21.39C6.888,29.535,6.44,29.982,5.888,29.982z"/><path d="M26.112,29.982c-0.553,0-1-0.447-1-1V7.593c0-0.552,0.447-1,1-1s1,0.448,1,1v21.39C27.112,29.535,26.665,29.982,26.112,29.982z"/></svg>