<svg xmlns="http://www.w3.org/2000/svg" viewBox="0 0 32 32"><!--! Font Icona - https://fonticona.com | License - https://fonticona.com/license | Copyright 2022 FontIcona.com --><path d="M21.802,22.294c-0.256,0-0.512-0.098-0.708-0.293L10.22,11.119c-0.39-0.391-0.39-1.024,0-1.414c0.391-0.391,1.024-0.391,1.415,0L22.51,20.587c0.39,0.391,0.39,1.024,0,1.414C22.314,22.196,22.058,22.294,21.802,22.294z"/><path d="M17.957,23.595c-0.256,0-0.512-0.098-0.708-0.293l-8.365-8.371c-0.39-0.391-0.39-1.024,0-1.414c0.391-0.391,1.024-0.391,1.415,0l8.365,8.371c0.39,0.391,0.39,1.024,0,1.414C18.469,23.497,18.213,23.595,17.957,23.595z"/><path d="M13.749,24.531c-0.256,0-0.512-0.098-0.708-0.293l-5.019-5.022c-0.39-0.391-0.39-1.024,0-1.414c0.391-0.391,1.024-0.391,1.415,0l5.019,5.022c0.39,0.391,0.39,1.024,0,1.414C14.26,24.434,14.004,24.531,13.749,24.531z"/><path d="M8.562,32c-0.369,0-0.716-0.205-0.89-0.544l-2.483-4.852l-4.63-2.274c-0.411-0.202-0.632-0.657-0.537-1.105c0.095-0.447,0.482-0.773,0.94-0.791l7.87-0.301c0.271-0.019,0.549,0.096,0.746,0.292c0.197,0.197,0.303,0.468,0.292,0.746l-0.307,7.868c-0.018,0.454-0.34,0.84-0.784,0.938C8.706,31.992,8.634,32,8.562,32z M4.995,24.28l1.375,0.676c0.193,0.095,0.351,0.25,0.449,0.441l0.894,1.747l0.116-2.972L4.995,24.28z"/><path d="M24.787,19.335c-0.257,0-0.514-0.099-0.708-0.293L12.955,7.91c-0.357-0.358-0.392-0.927-0.079-1.324c1.3-1.657,2.775-3,4.384-3.991l0,0c3.73-2.297,10.602-3.866,13.319-1.201c2.681,2.628,1.114,9.521-1.189,13.307c-0.984,1.618-2.324,3.104-3.982,4.419C25.224,19.264,25.005,19.335,24.787,19.335z M15.012,7.139l9.836,9.843c1.159-1.018,2.11-2.131,2.833-3.32c2.068-3.398,3.188-9.184,1.499-10.84c-1.588-1.557-7.177-0.797-10.871,1.477l0,0C17.125,5.026,16.02,5.979,15.012,7.139z"/><circle cx="24.544" cy="7.433" r="1.479"/><path d="M8.87,24.132c-0.256,0-0.512-0.098-0.707-0.293c-0.391-0.39-0.391-1.023,0-1.414l10.355-10.362c0.391-0.391,1.024-0.391,1.415,0c0.391,0.39,0.391,1.023,0,1.414L9.577,23.839C9.382,24.034,9.125,24.132,8.87,24.132z"/></svg>