<svg xmlns="http://www.w3.org/2000/svg" viewBox="0 0 32 32"><!--! Font Icona - https://fonticona.com | License - https://fonticona.com/license | Copyright 2022 FontIcona.com --><path d="M12.906,23.32c-0.895,0-1.788-0.055-2.675-0.164c-2.599-0.3-8.352-2.044-9.839-4.714c-0.481-0.863-0.521-1.776-0.115-2.64c0.021-0.044,0.044-0.086,0.071-0.127c0.249-0.375,0.525-0.735,0.822-1.073c2.396-2.701,5.688-4.413,9.273-4.822c4.513-0.486,8.47,0.374,12.099,2.627c0.498,0.363,1.912,1.17,2.763,0.749c0.083-0.037,1.264-0.527,5.188-2.838c0.41-0.241,0.934-0.161,1.251,0.194c0.318,0.354,0.342,0.883,0.058,1.265c-1.66,2.229-2.493,3.348-2.493,4.356c0,1.059,0.904,2.545,2.545,5.242c0.194,0.319,0.194,0.72,0,1.04c-0.194,0.319-0.554,0.497-0.923,0.478c-1.692-0.117-5.107-2.573-5.774-3.064c-0.711-0.44-1.44-0.014-1.521,0.036c-1.506,1.025-4.584,2.834-8.042,3.29C14.701,23.266,13.803,23.32,12.906,23.32z M2.061,16.713c-0.102,0.253-0.078,0.477,0.078,0.756c0.947,1.699,5.632,3.391,8.329,3.701c1.623,0.2,3.259,0.2,4.875,0.001c3.04-0.4,5.811-2.034,7.19-2.973c0.688-0.456,2.237-0.964,3.747-0.022c0.715,0.524,1.517,1.063,2.268,1.522c-1.357-2.476-1.6-3.775-0.72-5.567c-1.188,0.637-1.636,0.822-1.709,0.851c-2.021,1.007-4.434-0.723-4.702-0.924c-3.208-1.989-6.649-2.73-10.752-2.29c-3.087,0.353-5.929,1.83-7.995,4.159C2.452,16.174,2.247,16.438,2.061,16.713z"/><circle cx="7.278" cy="16.488" r="1.25"/><path d="M17.596,11.762c-0.189-1.149-0.158-2.373,0.078-3.507c-1.702,0.279-3.418,1.842-4.644,3.099l-1.432-1.396c1.826-1.871,4.602-4.285,7.604-3.64c0.286,0.061,0.531,0.245,0.67,0.501c0.139,0.257,0.159,0.562,0.054,0.835c-0.43,1.115-0.562,2.529-0.355,3.783L17.596,11.762z"/><path d="M17.629,25.637c-2.663,0-5.252-0.927-7.223-2.644l1.313-1.508c1.747,1.521,4.197,2.294,6.607,2.123c-0.196-1.017-0.064-2.087,0.066-2.763l1.964,0.38c-0.223,1.148-0.157,2.16,0.171,2.64c0.189,0.277,0.227,0.63,0.101,0.941s-0.4,0.537-0.729,0.604C19.145,25.562,18.384,25.637,17.629,25.637z"/></svg>