<svg xmlns="http://www.w3.org/2000/svg" viewBox="0 0 32 32"><!--! Font Icona - https://fonticona.com | License - https://fonticona.com/license | Copyright 2022 FontIcona.com --><path d="M4.662,32c-0.552,0-1-0.447-1-0.999L3.638,2.01c0-0.552,0.447-1,0.999-1.001c0,0,0,0,0.001,0c0.552,0,1,0.447,1,0.999l0.024,28.991C5.663,31.552,5.178,32.028,4.662,32z"/><path d="M4.662,20.404c-0.552,0-1-0.448-1-1s0.448-1,1-1c1.655,0,3.103-0.931,4.421-1.937c0.899-0.772,2.936-2.135,4.312-2.496c2.958-0.831,4.885,0.079,7.279,1.454c1.31,0.752,3.335,1.54,5.88,1.327c-0.678-3.615-0.153-6.343,0.275-8.573c0.194-1.01,0.362-1.881,0.384-2.657c-0.001,0-0.003,0.001-0.005,0.002c-1.401,0.609-3.321,1.445-5.975,0.166c-0.756-0.377-1.358-0.766-1.941-1.142c-1.182-0.763-2.116-1.366-3.814-1.543c-2.968-0.271-4.302,0.915-5.845,2.282c-1.235,1.095-2.636,2.335-4.896,2.51c-0.55,0.04-1.032-0.369-1.074-0.92s0.37-1.032,0.92-1.074c1.59-0.123,2.579-0.999,3.724-2.013c1.651-1.463,3.522-3.122,7.365-2.776c2.188,0.228,3.468,1.055,4.706,1.854c0.537,0.347,1.092,0.705,1.736,1.026c1.817,0.875,3.022,0.352,4.297-0.204c0.457-0.198,0.93-0.404,1.417-0.531c0.261-0.067,0.536-0.028,0.766,0.11c0.23,0.138,0.395,0.363,0.458,0.624c0.355,1.474,0.071,2.952-0.258,4.664c-0.457,2.375-0.974,5.067-0.063,8.805c0.065,0.267,0.017,0.549-0.132,0.78s-0.387,0.39-0.658,0.44c-3.619,0.67-6.492-0.404-8.263-1.422c-2.083-1.197-3.476-1.899-5.759-1.258c-0.903,0.237-2.66,1.333-3.58,2.121C8.775,19.218,6.917,20.404,4.662,20.404z"/><path d="M4.662,4.018c-1.108,0-2.009-0.901-2.009-2.009C2.653,0.901,3.554,0,4.662,0C5.77,0,6.671,0.901,6.671,2.009C6.671,3.117,5.77,4.018,4.662,4.018z M4.662,2C4.657,2,4.653,2.004,4.653,2.009L4.662,2z"/></svg>