<svg xmlns="http://www.w3.org/2000/svg" viewBox="0 0 32 32"><!--! Font Icona - https://fonticona.com | License - https://fonticona.com/license | Copyright 2022 FontIcona.com --><path d="M17.955,28.216c-0.41,0-0.794-0.254-0.941-0.662c-0.187-0.519,0.082-1.091,0.601-1.278c1.126-0.407,2.131-2.192,1.886-3.351c-0.152-0.725-0.749-1.362-1.38-2.037c-0.495-0.53-1.008-1.078-1.386-1.741c-0.651-1.145-0.778-2.545-0.817-3.499c-0.01-0.248,0.01-0.485,0.045-0.711c-1.692,1.141-3.893,2.959-4.622,5.068c-1.376,3.979,3.51,6.203,3.719,6.296c0.459,0.204,0.695,0.718,0.553,1.199s-0.621,0.783-1.116,0.703c-0.08-0.013-8.181-1.885-9.854-7.012c-1.195-3.68,0.303-7.739,4.331-11.74c2.048-2.041,3.976-4.351,6.065-7.267c0.41-0.573,0.82-1.159,1.229-1.752c0.295-0.425,0.863-0.557,1.313-0.304c0.451,0.254,0.634,0.809,0.422,1.281c-0.682,1.521,0.561,4.01,2.003,5.678c0.719,0.854,1.559,1.601,2.447,2.391c0.929,0.826,1.89,1.68,2.744,2.692c1.945,2.246,2.834,4.861,2.493,7.354c-0.327,2.388-1.74,4.471-4.087,6.023c-1.425,0.974-3.266,1.88-5.312,2.609C18.181,28.197,18.066,28.216,17.955,28.216z M17.262,11.974c0.146,0,0.291,0.032,0.427,0.096c0.288,0.136,0.495,0.402,0.556,0.715c0.132,0.684-0.028,1.306-0.169,1.854c-0.088,0.342-0.171,0.665-0.16,0.928c0.048,1.167,0.23,2.015,0.558,2.589c0.261,0.459,0.673,0.899,1.109,1.366c0.753,0.806,1.607,1.72,1.875,2.988c0.14,0.663,0.091,1.383-0.105,2.083c0.404-0.229,0.783-0.465,1.135-0.705c1.865-1.234,2.975-2.835,3.222-4.636c0.262-1.915-0.46-3.968-2.032-5.783c-0.771-0.913-1.677-1.718-2.553-2.498c-0.902-0.803-1.836-1.633-2.64-2.587c-0.987-1.142-1.946-2.674-2.398-4.24c-1.938,2.64-3.765,4.792-5.702,6.724c-2.412,2.396-5.035,6.023-3.841,9.703c0.484,1.482,1.791,2.654,3.229,3.538c-0.692-1.331-0.954-2.933-0.322-4.76c1.252-3.62,5.546-6.279,7.334-7.254C16.932,12.015,17.097,11.974,17.262,11.974z"/><path d="M21.137,32H10.938c-0.553,0-1-0.447-1-1s0.447-1,1-1h10.199c0.553,0,1,0.447,1,1S21.689,32,21.137,32z"/></svg>