<svg xmlns="http://www.w3.org/2000/svg" viewBox="0 0 32 32"><!--! Font Icona - https://fonticona.com | License - https://fonticona.com/license | Copyright 2022 FontIcona.com --><path d="M25.565,32H6.425c-1.42,0-2.581-0.564-3.183-1.549c-0.602-0.983-0.576-2.273,0.071-3.539l8.145-15.62v-5.3c-0.417-0.12-0.808-0.331-1.147-0.623C9.692,4.835,9.319,4.094,9.259,3.28c-0.06-0.814,0.2-1.603,0.733-2.22c0.533-0.618,1.275-0.991,2.089-1.051c0.149-0.011,0.301-0.011,0.453,0l7.01-0.003c1.609-0.124,3.074,1.145,3.198,2.825c0.06,0.814-0.2,1.603-0.733,2.22c-0.393,0.456-0.899,0.778-1.464,0.94v5.301l8.13,15.613c0.656,1.257,0.69,2.544,0.092,3.53C28.164,31.43,26.997,32,25.565,32z M12.457,4.105c0.251,0,0.495,0.095,0.681,0.268c0.204,0.189,0.319,0.455,0.319,0.732v6.432c0,0.161-0.039,0.32-0.113,0.462L5.09,27.83c-0.319,0.624-0.372,1.202-0.142,1.577C5.178,29.784,5.717,30,6.425,30h19.141c0.716,0,1.259-0.219,1.491-0.601c0.227-0.374,0.17-0.946-0.155-1.569l-8.243-15.831c-0.075-0.143-0.113-0.301-0.113-0.462V5.105c0-0.278,0.116-0.543,0.319-0.732c0.204-0.189,0.474-0.285,0.754-0.265c0.051,0.004,0.104,0.004,0.157,0c0.58-0.042,1.017-0.549,0.974-1.129s-0.556-1.017-1.13-0.975l-7.161,0.003C12.332,2,12.282,2,12.232,2.003c-0.285,0.021-0.542,0.15-0.726,0.363c-0.184,0.213-0.274,0.486-0.253,0.767c0.021,0.281,0.15,0.538,0.363,0.722c0.214,0.184,0.49,0.273,0.767,0.253C12.408,4.106,12.433,4.105,12.457,4.105z"/><path d="M19.544,6.105h-7.087c-0.552,0-1-0.448-1-1s0.448-1,1-1h7.087c0.552,0,1,0.448,1,1S20.097,6.105,19.544,6.105z"/><path d="M19.543,12.248h-7.086c-0.552,0-1-0.448-1-1s0.448-1,1-1h7.086c0.552,0,1,0.448,1,1S20.096,12.248,19.543,12.248z"/><path d="M19.671,23.263c-1.215,0-2.419-0.247-3.552-0.735l-1.573-0.678c-1.401-0.603-2.989-0.732-4.47-0.36l-2.37,0.594c-0.534,0.133-1.079-0.191-1.213-0.727c-0.134-0.536,0.191-1.079,0.727-1.213l2.37-0.594c1.905-0.476,3.945-0.312,5.748,0.463l1.573,0.678c1.299,0.56,2.719,0.711,4.108,0.441l3.487-0.68c0.538-0.11,1.067,0.248,1.173,0.79c0.106,0.542-0.248,1.067-0.79,1.173l-3.487,0.68C20.827,23.208,20.248,23.263,19.671,23.263z"/></svg>