<svg xmlns="http://www.w3.org/2000/svg" viewBox="0 0 32 32"><!--! Font Icona - https://fonticona.com | License - https://fonticona.com/license | Copyright 2022 FontIcona.com --><rect x="1.711" y="18.486" transform="matrix(0.7071 -0.7071 0.7071 0.7071 -11.1917 11.9526)" width="14.243" height="2"/><rect x="5.377" y="22.129" transform="matrix(0.7071 -0.7071 0.7071 0.7071 -12.6774 15.651)" width="14.353" height="2"/><path d="M17.54,19.133c-0.265,0-0.52-0.105-0.707-0.293l-3.672-3.672c-0.194-0.193-0.299-0.458-0.292-0.732c0.012-0.489,0.02-0.992,0.027-1.501C12.912,11.8,12.929,10.628,13,9.492c0.05-0.803,0.411-1.559,0.99-2.074c1.049-0.934,2.243-1.669,3.55-2.187c0.37-0.147,0.793-0.06,1.075,0.223l7.932,7.932c0.282,0.282,0.37,0.705,0.223,1.075c-0.518,1.306-1.253,2.5-2.187,3.55c-0.515,0.579-1.271,0.94-2.075,0.989c-1.127,0.071-2.292,0.088-3.419,0.104c-0.517,0.008-1.026,0.016-1.522,0.028C17.557,19.133,17.548,19.133,17.54,19.133z M14.877,14.056l3.067,3.067c0.366-0.007,0.738-0.013,1.113-0.019c1.104-0.016,2.245-0.033,3.326-0.101c0.281-0.017,0.537-0.135,0.704-0.322c0.634-0.712,1.158-1.505,1.563-2.362l-6.97-6.97c-0.857,0.405-1.65,0.93-2.362,1.563c-0.188,0.167-0.306,0.424-0.323,0.705c-0.068,1.088-0.085,2.236-0.101,3.346C14.889,13.332,14.884,13.696,14.877,14.056z"/><path d="M3.797,32c-0.838,0-1.625-0.326-2.218-0.919l-0.66-0.66C0.326,29.828,0,29.04,0,28.203c0-0.838,0.327-1.626,0.919-2.218l2.171-2.171c0.391-0.391,1.023-0.391,1.414,0s0.391,1.023,0,1.414l-2.171,2.171C2.118,27.614,2,27.899,2,28.203s0.119,0.589,0.333,0.804l0.66,0.66c0.43,0.43,1.178,0.43,1.607,0l2.172-2.171c0.391-0.391,1.023-0.391,1.414,0s0.391,1.023,0,1.414l-2.171,2.171C5.422,31.674,4.635,32,3.797,32z"/><path d="M10.891,22.108c-0.256,0-0.512-0.098-0.707-0.293c-0.391-0.391-0.391-1.023,0-1.414l2.407-2.406c0.391-0.391,1.023-0.391,1.414,0s0.391,1.023,0,1.414l-2.407,2.406C11.403,22.011,11.147,22.108,10.891,22.108z"/><path d="M7.479,29.203c-0.256,0-0.512-0.098-0.707-0.293L3.09,25.229c-0.391-0.391-0.391-1.023,0-1.414s1.023-0.391,1.414,0l3.682,3.682c0.391,0.391,0.391,1.023,0,1.414C7.991,29.105,7.735,29.203,7.479,29.203z"/><path d="M23.154,18.83c-0.256,0-0.512-0.098-0.707-0.293l-8.985-8.986c-0.391-0.391-0.391-1.023,0-1.414s1.023-0.391,1.414,0l8.985,8.986c0.391,0.391,0.391,1.023,0,1.414C23.666,18.732,23.41,18.83,23.154,18.83z"/><path d="M26.192,6.808c-0.256,0-0.512-0.098-0.707-0.293c-0.391-0.391-0.391-1.023,0-1.414l2.917-2.917c0.391-0.391,1.023-0.391,1.414,0s0.391,1.023,0,1.414l-2.917,2.917C26.704,6.71,26.448,6.808,26.192,6.808z"/><path d="M22.332,6.125c-0.552,0-1-0.448-1-1V1c0-0.552,0.448-1,1-1s1,0.448,1,1v4.125C23.332,5.677,22.884,6.125,22.332,6.125z"/><path d="M31,10.668h-4.125c-0.552,0-1-0.448-1-1s0.448-1,1-1H31c0.552,0,1,0.448,1,1S31.552,10.668,31,10.668z"/></svg>