<svg xmlns="http://www.w3.org/2000/svg" viewBox="0 0 32 32"><!--! Font Icona - https://fonticona.com | License - https://fonticona.com/license | Copyright 2022 FontIcona.com --><path d="M15.007,31.874H5.465c-1.324,0-2.504-0.884-2.871-2.148c-1.291-4.446-4.604-19.714,6.997-29.49c0.373-0.314,0.916-0.314,1.289,0c11.603,9.777,8.289,25.045,6.997,29.491C17.51,30.991,16.329,31.874,15.007,31.874z M10.235,2.329c-9.906,9.019-6.902,22.771-5.721,26.839c0.123,0.423,0.504,0.706,0.95,0.706h9.542c0.445,0,0.827-0.284,0.95-0.706C17.139,25.101,20.145,11.349,10.235,2.329z"/><path d="M27.032,32.004c-1.846,0-3.513-1.041-5.031-1.99c-1.536-0.96-2.995-1.86-4.397-1.641c-0.558,0.089-1.059-0.285-1.146-0.829c-0.087-0.546,0.284-1.059,0.829-1.146c2.158-0.344,3.992,0.808,5.773,1.919c1.888,1.18,3.516,2.197,5.251,1.389c0.571-0.267,0.671-1.093,0.435-1.705c-0.317-0.828-1.108-1.123-2.373-1.535l-0.33-0.107c-1.42-0.475-2.938-1.146-3.441-2.533c-0.377-1.041-0.121-2.224,0.805-3.722c0.291-0.472,0.909-0.616,1.376-0.325c0.47,0.29,0.615,0.906,0.325,1.376c-0.555,0.898-0.771,1.587-0.625,1.99c0.162,0.447,0.879,0.878,2.193,1.316l0.317,0.104c1.312,0.428,2.945,0.96,3.62,2.719c0.57,1.481,0.183,3.472-1.456,4.235C28.423,31.861,27.716,32.004,27.032,32.004z"/><path d="M13.812,29.206H6.658c-0.553,0-1-0.447-1-1s0.447-1,1-1h7.154c0.553,0,1,0.447,1,1S14.365,29.206,13.812,29.206z"/><circle cx="10.224" cy="5.25" r="1.245"/><circle cx="5.033" cy="19.274" r="1.245"/><circle cx="5.467" cy="23.2" r="1.245"/><circle cx="5.467" cy="15.574" r="1.245"/><circle cx="6.462" cy="11.874" r="1.245"/><circle cx="7.808" cy="8.174" r="1.245"/><circle cx="15.292" cy="19.274" r="1.245"/><circle cx="14.858" cy="23.2" r="1.245"/><circle cx="14.858" cy="15.574" r="1.245"/><circle cx="13.862" cy="11.874" r="1.245"/><circle cx="12.517" cy="8.174" r="1.245"/><path d="M24.312,17.097c-0.105,0-0.214-0.017-0.32-0.053c-0.522-0.177-0.804-0.744-0.627-1.268l0.792-2.346c0.176-0.523,0.738-0.807,1.268-0.627c0.522,0.177,0.804,0.744,0.627,1.268l-0.792,2.346C25.119,16.834,24.729,17.097,24.312,17.097z"/><path d="M27.109,17.958c-0.105,0-0.214-0.017-0.319-0.053c-0.523-0.177-0.805-0.744-0.628-1.267l0.767-2.271c0.176-0.524,0.744-0.808,1.267-0.628c0.523,0.177,0.805,0.744,0.628,1.267l-0.767,2.271C27.916,17.695,27.526,17.958,27.109,17.958z"/><path d="M26.621,21.562c-0.215,0-0.431-0.035-0.641-0.106l-3.597-1.213c-1.043-0.352-1.604-1.486-1.253-2.529l0.382-1.133c0.17-0.505,0.527-0.914,1.005-1.15c0.477-0.237,1.018-0.274,1.524-0.103l3.597,1.214c0.506,0.17,0.914,0.527,1.15,1.005s0.273,1.019,0.103,1.523l-0.382,1.133c-0.17,0.506-0.527,0.914-1.005,1.15C27.225,21.491,26.924,21.562,26.621,21.562z M26.62,19.561l-0.319,0.947L26.62,19.561C26.621,19.561,26.621,19.561,26.62,19.561z M23.402,17.222l-0.377,1.13l3.592,1.208l0.38-1.129L23.402,17.222z"/></svg>