<svg xmlns="http://www.w3.org/2000/svg" viewBox="0 0 32 32"><!--! Font Icona - https://fonticona.com | License - https://fonticona.com/license | Copyright 2022 FontIcona.com --><path d="M21.932,21c-2.757,0-5-2.243-5-5s2.243-5,5-5s5,2.243,5,5S24.688,21,21.932,21z M21.932,13c-1.654,0-3,1.346-3,3s1.346,3,3,3s3-1.346,3-3S23.586,13,21.932,13z"/><path d="M10.068,21c-2.757,0-5-2.243-5-5s2.243-5,5-5s5,2.243,5,5S12.825,21,10.068,21z M10.068,13c-1.654,0-3,1.346-3,3s1.346,3,3,3s3-1.346,3-3S11.723,13,10.068,13z"/><path d="M26,32H6c-3.309,0-6-2.691-6-6V6c0-3.309,2.691-6,6-6h20c3.309,0,6,2.691,6,6v20C32,29.309,29.309,32,26,32z M6,2C3.794,2,2,3.794,2,6v20c0,2.206,1.794,4,4,4h20c2.206,0,4-1.794,4-4V6c0-2.206-1.794-4-4-4H6z"/></svg>