<svg xmlns="http://www.w3.org/2000/svg" viewBox="0 0 32 32"><!--! Font Icona - https://fonticona.com | License - https://fonticona.com/license | Copyright 2022 FontIcona.com --><path d="M13,26H7c-0.552,0-1-0.448-1-1V7c0-0.552,0.448-1,1-1h18c0.552,0,1,0.448,1,1v6c0,0.552-0.448,1-1,1h-5v5c0,0.552-0.448,1-1,1h-5v5C14,25.552,13.552,26,13,26z M8,24h4v-5c0-0.552,0.448-1,1-1h5v-5c0-0.552,0.448-1,1-1h5V8H8V24z"/><path d="M30,32H2c-1.103,0-2-0.897-2-2V2c0-1.103,0.897-2,2-2h28c1.103,0,2,0.897,2,2v28C32,31.103,31.103,32,30,32z M2,2v28h28V2H2z"/></svg>