<svg xmlns="http://www.w3.org/2000/svg" viewBox="0 0 32 32"><!--! Font Icona - https://fonticona.com | License - https://fonticona.com/license | Copyright 2022 FontIcona.com --><path d="M11.051,32c-1.751,0-3.374-0.834-4.36-2.282c-0.963-1.413-1.203-3.109-1.435-4.75c-0.1-0.705-0.194-1.371-0.342-1.981c-0.558-2.299-1.388-4.516-2.191-6.588l-0.163-0.42c-1.13-2.906-2.298-5.911-1.604-9.246c0.443-2.123,2.002-4.25,4.069-5.551c1.68-1.057,3.487-1.423,5.089-1.025c4.073,1.007,3.866,6.643,3.767,9.352c-0.035,0.96-0.103,1.908-0.17,2.851c-0.123,1.721-0.239,3.347-0.158,4.998l0,0c0.042,0.878,0.138,1.687,0.291,2.472c0.12,0.608,0.368,1.409,0.631,2.257c0.818,2.638,1.837,5.919,0.49,8.047c-0.632,0.998-1.685,1.607-3.13,1.812C11.571,31.982,11.31,32,11.051,32z M8.809,2C7.943,2,7.005,2.299,6.09,2.874C4.491,3.88,3.244,5.555,2.913,7.141c-0.573,2.754,0.486,5.479,1.511,8.113l0.164,0.422c0.827,2.135,1.684,4.422,2.27,6.84c0.171,0.704,0.276,1.45,0.379,2.172c0.209,1.479,0.406,2.876,1.106,3.903c0.712,1.045,1.915,1.556,3.21,1.373c0.851-0.12,1.413-0.415,1.721-0.902c0.854-1.347-0.05-4.258-0.71-6.384c-0.279-0.9-0.543-1.75-0.684-2.465c-0.172-0.883-0.278-1.784-0.326-2.759c-0.086-1.771,0.04-3.534,0.161-5.238c0.066-0.92,0.133-1.845,0.167-2.781c0.08-2.182,0.247-6.72-2.248-7.337C9.369,2.033,9.093,2,8.809,2z"/><path d="M6.812,21.993c-0.162,0-0.327-0.039-0.479-0.123c-2.014-1.103-3.295-2.773-3.704-4.832c-0.503-2.528,0.355-5.403,2.354-7.888c1.03-1.278,2.392-1.765,3.836-1.367c2.804,0.773,5.141,4.682,5.456,6.927c0.354,2.53-0.447,3.983-1.464,5.822c-0.266,0.482-0.874,0.66-1.358,0.392c-0.483-0.267-0.659-0.875-0.392-1.358c0.964-1.746,1.495-2.708,1.233-4.578c-0.261-1.854-2.289-4.802-4.008-5.275c-0.45-0.124-1.06-0.16-1.745,0.692c-1.604,1.992-2.333,4.326-1.951,6.244c0.294,1.48,1.203,2.646,2.703,3.468c0.484,0.265,0.662,0.873,0.396,1.357C7.508,21.806,7.165,21.993,6.812,21.993z"/><path d="M7.588,9.684c-0.01,0-0.019,0-0.027,0C7.009,9.669,6.572,9.209,6.587,8.658l0.111-4.214C6.713,3.901,7.158,3.47,7.697,3.47c0.01,0,0.019,0,0.027,0c0.552,0.015,0.988,0.475,0.974,1.026L8.587,8.71C8.572,9.253,8.127,9.684,7.588,9.684z"/><path d="M20.95,32c-0.26,0-0.521-0.019-0.784-0.056c-1.445-0.205-2.498-0.814-3.13-1.812c-1.347-2.128-0.328-5.409,0.49-8.047c0.263-0.848,0.511-1.648,0.631-2.259c0.153-0.783,0.249-1.592,0.291-2.47l0,0c0.081-1.651-0.035-3.277-0.158-4.998c-0.067-0.942-0.135-1.891-0.17-2.852c-0.1-2.708-0.307-8.344,3.766-9.351c1.605-0.396,3.41-0.03,5.09,1.025c2.067,1.301,3.626,3.428,4.068,5.551c0.694,3.335-0.474,6.34-1.604,9.246l-0.163,0.42c-0.804,2.072-1.634,4.289-2.191,6.588c-0.147,0.61-0.242,1.276-0.342,1.981c-0.231,1.641-0.472,3.337-1.435,4.75C24.323,31.166,22.7,32,20.95,32z M20.446,17.454c-0.048,0.975-0.154,1.876-0.326,2.757c-0.141,0.717-0.404,1.566-0.684,2.467c-0.66,2.126-1.563,5.037-0.71,6.384c0.308,0.487,0.87,0.782,1.721,0.902c1.305,0.184,2.499-0.329,3.21-1.373c0.7-1.027,0.897-2.424,1.106-3.903c0.103-0.722,0.208-1.468,0.379-2.172c0.586-2.418,1.442-4.705,2.27-6.84l0.164-0.422c1.024-2.635,2.084-5.359,1.51-8.113c-0.33-1.586-1.577-3.261-3.176-4.267c-1.215-0.764-2.47-1.041-3.545-0.776c-2.494,0.617-2.327,5.155-2.247,7.336c0.034,0.938,0.101,1.862,0.167,2.782C20.406,13.92,20.532,15.683,20.446,17.454L20.446,17.454z"/><path d="M25.126,22.971c-0.354,0-0.696-0.188-0.878-0.52c-0.266-0.484-0.088-1.093,0.396-1.357c1.822-0.997,2.479-2.583,2.708-3.737c0.452-2.275-0.273-4.939-1.894-6.952c-0.686-0.853-1.294-0.817-1.745-0.692c-1.719,0.474-3.747,3.421-4.008,5.275c-0.262,1.869,0.223,2.746,1.188,4.492c0.268,0.483,0.092,1.092-0.392,1.358c-0.485,0.269-1.091,0.091-1.358-0.392c-1.029-1.861-1.772-3.206-1.418-5.736c0.315-2.245,2.652-6.153,5.456-6.927c1.446-0.394,2.807,0.088,3.836,1.367c1.98,2.462,2.86,5.756,2.296,8.596c-0.448,2.255-1.73,4.02-3.708,5.102C25.453,22.932,25.288,22.971,25.126,22.971z"/><path d="M24.412,9.684c-0.54,0-0.984-0.431-0.999-0.974l-0.111-4.214c-0.015-0.552,0.422-1.012,0.974-1.026c0.009,0,0.018,0,0.027,0c0.54,0,0.984,0.431,0.999,0.974l0.111,4.214c0.015,0.552-0.422,1.012-0.974,1.026C24.431,9.684,24.422,9.684,24.412,9.684z"/></svg>