<svg xmlns="http://www.w3.org/2000/svg" viewBox="0 0 32 32"><!--! Font Icona - https://fonticona.com | License - https://fonticona.com/license | Copyright 2022 FontIcona.com --><path d="M29,32H3c-1.654,0-3-1.346-3-3V3c0-1.654,1.346-3,3-3h21.868c0.801,0,1.555,0.312,2.121,0.879l4.132,4.132C31.688,5.577,32,6.331,32,7.132V29C32,30.654,30.654,32,29,32z M3,2C2.448,2,2,2.448,2,3v26c0,0.552,0.448,1,1,1h26c0.552,0,1-0.448,1-1V7.132c0-0.263-0.106-0.521-0.293-0.707l-4.132-4.132C25.389,2.106,25.131,2,24.868,2H3z"/><path d="M21.89,12.44H10.11c-1.654,0-3-1.346-3-3V1h2v8.44c0,0.552,0.448,1,1,1H21.89c0.552,0,1-0.448,1-1V1h2v8.44C24.89,11.095,23.544,12.44,21.89,12.44z"/><path d="M27.74,30.94h-2V19.56c0-0.552-0.448-1-1-1H7.26c-0.552,0-1,0.448-1,1V30.94h-2V19.56c0-1.654,1.346-3,3-3h17.48c1.654,0,3,1.346,3,3V30.94z"/><path d="M19.228,9.22c-0.553,0-1-0.447-1-1v-4c0-0.553,0.447-1,1-1s1,0.447,1,1v4C20.228,8.772,19.78,9.22,19.228,9.22z"/></svg>