<svg xmlns="http://www.w3.org/2000/svg" viewBox="0 0 32 32"><!--! Font Icona - https://fonticona.com | License - https://fonticona.com/license | Copyright 2022 FontIcona.com --><path d="M5.033,31.998c-0.519,0-1.037-0.196-1.431-0.59l-3.009-3.01C0.21,28.016,0,27.508,0,26.967s0.21-1.049,0.593-1.432L21.746,4.382c0.072-0.071,0.143-0.132,0.218-0.188L27,0.406c0.802-0.602,1.939-0.521,2.649,0.187l1.758,1.758C32.116,3.06,32.196,4.199,31.594,5l-3.79,5.04c-0.054,0.072-0.116,0.143-0.181,0.21L6.465,31.407C6.07,31.802,5.551,31.998,5.033,31.998z M28.235,2.007l-5.072,3.787L2.007,26.949l3.008,3.044L26.204,8.84l3.792-5.042l-0.002-0.033L28.235,2.007z"/><path d="M24.926,12.531c-0.256,0-0.512-0.098-0.707-0.293l-4.004-4.004c-0.391-0.391-0.391-1.023,0-1.414s1.023-0.391,1.414,0l4.004,4.004c0.391,0.391,0.391,1.023,0,1.414C25.438,12.434,25.182,12.531,24.926,12.531z"/><path d="M27.177,9.153c-0.256,0-0.512-0.098-0.707-0.293l-3.33-3.33c-0.391-0.391-0.391-1.023,0-1.414s1.023-0.391,1.414,0l3.33,3.33c0.391,0.391,0.391,1.023,0,1.414C27.688,9.056,27.433,9.153,27.177,9.153z"/><circle cx="18.445" cy="13.555" r="1.281"/><circle cx="14.505" cy="17.495" r="1.281"/><circle cx="10.565" cy="21.435" r="1.281"/><circle cx="6.625" cy="25.375" r="1.281"/></svg>