<svg xmlns="http://www.w3.org/2000/svg" viewBox="0 0 32 32"><!--! Font Icona - https://fonticona.com | License - https://fonticona.com/license | Copyright 2022 FontIcona.com --><path d="M29,29.138H3c-1.654,0-3-1.346-3-3V5.862c0-1.654,1.346-3,3-3h7.759c0.761,0,1.487,0.286,2.044,0.805l1.947,1.811c0.186,0.174,0.428,0.269,0.681,0.269H29c1.654,0,3,1.346,3,3v17.392C32,27.792,30.654,29.138,29,29.138z M3,4.862c-0.551,0-1,0.448-1,1v20.275c0,0.552,0.449,1,1,1h26c0.551,0,1-0.448,1-1V8.746c0-0.552-0.449-1-1-1H15.431c-0.761,0-1.487-0.286-2.044-0.805L11.44,5.131c-0.186-0.174-0.428-0.269-0.681-0.269H3z"/><path d="M21.179,18.786H9.929c-0.552,0-1-0.447-1-1s0.448-1,1-1h11.25c0.552,0,1,0.447,1,1S21.731,18.786,21.179,18.786z"/></svg>