<svg xmlns="http://www.w3.org/2000/svg" viewBox="0 0 32 32"><!--! Font Icona - https://fonticona.com | License - https://fonticona.com/license | Copyright 2022 FontIcona.com --><path d="M2.32,27.507l-1.922-0.555l3.311-11.464c0.279-0.966,1.225-1.693,2.199-1.693h8.081v2H5.908c-0.076,0.005-0.243,0.13-0.277,0.248L2.32,27.507z"/><path d="M26.285,28.5H3c-1.654,0-3-1.346-3-3v-19c0-1.654,1.346-3,3-3h6.468c0.792,0,1.784,0.412,2.36,0.979l1.368,1.351c0.199,0.195,0.691,0.403,0.957,0.403h11.662c1.654,0,3,1.346,3,3v4.562h1.454c0.555,0,1.058,0.24,1.379,0.66c0.332,0.433,0.435,1.007,0.282,1.575l-2.749,10.247C28.831,27.586,27.64,28.5,26.285,28.5z M3,5.5c-0.551,0-1,0.448-1,1v19c0,0.552,0.449,1,1,1h23.285c0.452,0,0.849-0.305,0.966-0.74l2.672-9.965H8.003v-2h18.812V9.232c0-0.552-0.449-1-1-1H14.153c-0.792,0-1.784-0.412-2.36-0.979l-1.368-1.351C10.226,5.708,9.734,5.5,9.468,5.5H3z"/></svg>