<svg xmlns="http://www.w3.org/2000/svg" viewBox="0 0 32 32"><!--! Font Icona - https://fonticona.com | License - https://fonticona.com/license | Copyright 2022 FontIcona.com --><path d="M6.178,26.212H5.307C5.307,26.212,5.656,26.243,6.178,26.212z"/><polygon points="18.297,13.49 22.814,13.49 22.125,11.231 17.583,11.231"/><path d="M26.693,26.212L23.13,14.781l-4.517-0.006l2.642,8.524C22.148,26.181,26.693,26.212,26.693,26.212z"/><path d="M23.101,5.774h-2.475h-2.148c-0.261,0-0.514,0-0.752,0c-0.993,0-1.733,0-1.76,0c-0.033,0-1.014,0-2.181,0s-2.432,0.957-2.811,2.127c-0.379,1.17-0.852,2.654-1.05,3.299c-0.198,0.645-0.36,1.172-0.36,1.172l-4.256,13.84h0.871c1.324-0.078,3.768-0.549,4.5-2.914l1.307-4.217h6.684l-1.234-4.254h-4.131l0.664-2.143c0,0,0.185-0.598,0.412-1.329c0.227-0.731,0.663-1.329,0.97-1.329c0.307,0,0.585,0,0.617,0c0.033,0,0.31,0,0.617,0c0.307,0,0.558,0,0.558,0c0,0,1.014,0,2.254,0s2.254,0,2.254,0c0,0,0.268-0.797,0.613-1.825L23.101,5.774z"/><path d="M23.495,32H8.504C3.815,32,0,28.185,0,23.495V8.504C0,3.815,3.815,0,8.504,0H32v23.495C32,28.185,28.185,32,23.495,32zM8.504,2C4.918,2,2,4.918,2,8.504v14.991C2,27.082,4.918,30,8.504,30h14.991C27.082,30,30,27.082,30,23.495V2H8.504z"/></svg>