<svg xmlns="http://www.w3.org/2000/svg" viewBox="0 0 32 32"><!--! Font Icona - https://fonticona.com | License - https://fonticona.com/license | Copyright 2022 FontIcona.com --><path d="M6.931,32c-1.501,0-4.162-0.193-5.432-1.464C-1.203,27.835-0.149,14.87,7.329,7.368C12.649,1.961,20.125,0.02,24.91,0c2.57,0.01,4.594,0.534,5.592,1.533c2.688,2.688,1.625,15.645-5.83,23.167C19.35,30.071,11.81,31.989,6.97,32C6.957,32,6.944,32,6.931,32z M24.986,2c-0.022,0-0.045,0-0.068,0c-4.75,0.02-11.59,2.122-16.167,6.774C8.75,8.775,8.749,8.777,8.747,8.779c-7.355,7.377-7.298,18.879-5.834,20.343C3.321,29.53,4.619,30.015,6.965,30c4.456-0.01,11.396-1.773,16.286-6.708c7.178-7.242,7.247-18.935,5.836-20.345C28.628,2.487,27.311,2,24.986,2z M8.039,8.073h0.01H8.039z"/><path d="M2.206,30.83c-0.1,0-0.202-0.015-0.302-0.047c-0.526-0.167-0.819-0.728-0.652-1.255c6.141-19.44,27.283-27.871,28.18-28.22c0.513-0.201,1.093,0.054,1.294,0.568c0.2,0.515-0.054,1.094-0.568,1.295C29.947,3.254,9.007,11.618,3.159,30.13C3.024,30.557,2.63,30.83,2.206,30.83z"/><path d="M12.963,31.155c-0.066,0-0.134-0.006-0.202-0.021C6.773,29.907,2.15,25.282,0.984,19.352c-0.106-0.542,0.247-1.067,0.789-1.174c0.538-0.108,1.067,0.246,1.174,0.789c1.009,5.137,5.02,9.145,10.215,10.209c0.541,0.111,0.89,0.639,0.779,1.18C13.845,30.829,13.428,31.155,12.963,31.155z"/><path d="M30.181,13.24c-0.414,0-0.801-0.259-0.945-0.672c-1.768-5.088-5.449-8.791-9.848-9.906c-0.536-0.136-0.859-0.68-0.724-1.215C18.8,0.912,19.34,0.586,19.88,0.723c5.052,1.28,9.256,5.463,11.246,11.188c0.181,0.521-0.095,1.091-0.617,1.273C30.401,13.222,30.29,13.24,30.181,13.24z"/><path d="M8.578,21.842c-0.076,0-0.154-0.009-0.231-0.027c-1.595-0.377-2.872-1.526-3.416-3.073c-0.183-0.521,0.091-1.092,0.612-1.275c0.521-0.185,1.092,0.09,1.275,0.612c0.317,0.901,1.061,1.57,1.99,1.79c0.537,0.127,0.87,0.666,0.743,1.204C9.441,21.533,9.031,21.842,8.578,21.842z"/><path d="M21.311,9.783c-0.458,0-0.871-0.316-0.975-0.782c-0.206-0.923-0.86-1.665-1.75-1.985c-0.52-0.187-0.789-0.76-0.602-1.28c0.188-0.519,0.761-0.788,1.28-0.602c1.537,0.554,2.668,1.836,3.024,3.43c0.12,0.539-0.219,1.074-0.758,1.194C21.457,9.775,21.383,9.783,21.311,9.783z"/><path d="M14.608,15.615c-0.253,0-0.505-0.095-0.7-0.286l-2.874-2.818c-0.394-0.387-0.4-1.02-0.014-1.414c0.388-0.395,1.02-0.4,1.414-0.014l2.874,2.818c0.395,0.387,0.4,1.02,0.014,1.414C15.126,15.515,14.868,15.615,14.608,15.615z"/><path d="M11.682,18.889c-0.113,0-0.228-0.02-0.339-0.06c-1.709-0.617-3.578-3.14-3.785-3.425c-0.325-0.447-0.225-1.071,0.221-1.396c0.447-0.325,1.072-0.226,1.397,0.221c0.646,0.887,1.989,2.411,2.846,2.72c0.52,0.187,0.789,0.76,0.601,1.28C12.476,18.635,12.092,18.889,11.682,18.889z"/><path d="M18.27,12.579c-0.318,0-0.631-0.151-0.825-0.433c-0.624-0.905-1.93-2.467-2.781-2.806c-0.513-0.205-0.763-0.786-0.559-1.299c0.204-0.513,0.784-0.763,1.299-0.559c1.688,0.673,3.489,3.241,3.688,3.531c0.312,0.455,0.197,1.077-0.257,1.39C18.662,12.522,18.465,12.579,18.27,12.579z"/></svg>