<svg xmlns="http://www.w3.org/2000/svg" viewBox="0 0 32 32"><!--! Font Icona - https://fonticona.com | License - https://fonticona.com/license | Copyright 2022 FontIcona.com --><path d="M22.512,32c-0.061,0-0.121,0-0.182,0l-0.141-0.001c-1.896-0.005-3.029-1.132-3.03-3.014l-0.004-27.1c-0.003-1.213,0.646-1.656,1.192-1.813c0.789-0.227,1.579,0.111,2.008,0.866c1.849,3.26,2.988,6.765,3.696,11.365c0.032,0.209,0.069,0.42,0.105,0.632c0.196,1.129,0.419,2.409,0.025,3.688c-0.248,0.804-0.819,1.301-1.277,1.701c-0.374,0.325-0.603,0.538-0.634,0.75c-0.122,0.85,0.411,5.238,0.83,8.082c0.111,1.078,0.173,1.678,0.183,2.042l0.01-0.001c0.068,0.719-0.146,1.403-0.604,1.927c-0.469,0.535-1.136,0.845-1.88,0.873C22.711,31.999,22.611,32,22.512,32z M21.159,28.982c0.001,0.777,0.242,1.014,1.036,1.016l0.149,0.001c0.131,0.001,0.26,0.002,0.389-0.003c0.188-0.007,0.349-0.075,0.45-0.192c0.095-0.107,0.136-0.253,0.12-0.421l-0.096-1.007l0.008,0c-0.024-0.252-0.057-0.571-0.099-0.974c-0.17-1.148-1.034-7.167-0.824-8.616c0.139-0.96,0.781-1.521,1.298-1.971c0.322-0.281,0.601-0.523,0.68-0.782c0.253-0.82,0.09-1.76-0.083-2.756c-0.039-0.226-0.078-0.45-0.112-0.671c-0.605-3.933-1.494-6.9-2.92-9.682L21.159,28.982L21.159,28.982z"/><path d="M10.527,32c-1.127,0-2.016-0.507-2.565-1.51c-0.209-0.382-0.326-0.863-0.319-1.319c0.014-1.044,0.062-2.088,0.113-3.132c0.172-3.419,0.346-6.837,0.53-10.255c0.015-0.271-0.045-0.49-0.386-0.746c-0.124-0.093-0.251-0.183-0.377-0.271c-0.189-0.134-0.38-0.269-0.562-0.413c-0.92-0.721-1.391-1.714-1.36-2.873c0.01-0.379,0.031-0.761,0.06-1.142l0.688-9.411c0.04-0.551,0.529-0.957,1.069-0.926c0.551,0.04,0.965,0.519,0.925,1.069l-0.688,9.415c-0.026,0.35-0.046,0.697-0.054,1.045c-0.015,0.531,0.169,0.915,0.595,1.249c0.156,0.123,0.319,0.238,0.482,0.353c0.142,0.1,0.284,0.201,0.423,0.305c1.044,0.783,1.22,1.767,1.184,2.453c-0.185,3.417-0.358,6.832-0.53,10.249c-0.052,1.019-0.098,2.039-0.111,3.059c-0.002,0.113,0.028,0.249,0.073,0.331c0.179,0.325,0.391,0.492,1.005,0.468c0.721,0.028,0.918-0.143,1.097-0.468c0.045-0.082,0.075-0.217,0.073-0.33c-0.014-1.021-0.06-2.042-0.111-3.06c-0.172-3.417-0.346-6.833-0.53-10.249c-0.036-0.687,0.14-1.67,1.185-2.454c0.138-0.104,0.28-0.204,0.422-0.304c0.163-0.115,0.326-0.23,0.482-0.353c0.426-0.334,0.609-0.718,0.595-1.247c-0.008-0.35-0.027-0.698-0.054-1.045L13.19,1.072c-0.04-0.551,0.374-1.029,0.925-1.069c0.542-0.031,1.029,0.375,1.069,0.926l0.688,9.413c0.028,0.379,0.05,0.761,0.06,1.143c0.03,1.156-0.44,2.149-1.36,2.871c-0.183,0.143-0.373,0.278-0.562,0.412c-0.126,0.089-0.253,0.178-0.376,0.271c-0.342,0.256-0.401,0.476-0.387,0.747c0.185,3.417,0.358,6.836,0.53,10.255c0.052,1.044,0.1,2.088,0.113,3.133c0.007,0.455-0.11,0.936-0.319,1.318c-0.581,1.06-1.539,1.567-2.851,1.505C10.655,31.998,10.591,32,10.527,32z"/><path d="M10.767,10.506c-0.553,0-1-0.448-1-1V1c0-0.552,0.447-1,1-1s1,0.448,1,1v8.506C11.767,10.059,11.319,10.506,10.767,10.506z"/></svg>