<svg xmlns="http://www.w3.org/2000/svg" viewBox="0 0 32 32"><!--! Font Icona - https://fonticona.com | License - https://fonticona.com/license | Copyright 2022 FontIcona.com --><path d="M11.604,13.477c-0.553,0-1-0.448-1-1v-1.598c0-0.552,0.447-1,1-1s1,0.448,1,1v1.598C12.604,13.029,12.157,13.477,11.604,13.477z"/><path d="M20.335,13.477c-0.553,0-1-0.448-1-1v-1.598c0-0.552,0.447-1,1-1s1,0.448,1,1v1.598C21.335,13.029,20.888,13.477,20.335,13.477z"/><path d="M31,28.376H19.478c-0.553,0-1-0.448-1-1v-5.655c0-1.248-1.104-2.263-2.462-2.263c-1.389,0-2.493,1.015-2.493,2.263v5.655c0,0.552-0.447,1-1,1H1c-0.553,0-1-0.448-1-1V13.053c0-0.552,0.447-1,1-1h3.27c0.553,0,1,0.448,1,1v1.991h1.173V4.624c0-0.552,0.447-1,1-1s1,0.448,1,1v1.945h15.115V4.624c0-0.552,0.447-1,1-1s1,0.448,1,1v10.42h1.173v-1.991c0-0.552,0.447-1,1-1H31c0.553,0,1,0.448,1,1v14.323C32,27.928,31.553,28.376,31,28.376z M20.478,26.376H30V14.053h-1.27v1.991c0,0.552-0.447,1-1,1h-3.173c-0.553,0-1-0.448-1-1V8.569H8.442v7.475c0,0.552-0.447,1-1,1H4.27c-0.553,0-1-0.448-1-1v-1.991H2v12.323h9.522v-4.655c0-2.351,2.002-4.263,4.462-4.263c2.491,0,4.493,1.913,4.493,4.263V26.376z"/><path d="M11.604,8.569c-0.553,0-1-0.448-1-1V4.624c0-0.552,0.447-1,1-1s1,0.448,1,1v2.945C12.604,8.122,12.157,8.569,11.604,8.569z"/><path d="M20.335,8.569c-0.553,0-1-0.448-1-1V4.624c0-0.552,0.447-1,1-1s1,0.448,1,1v2.945C21.335,8.122,20.888,8.569,20.335,8.569z"/><path d="M16,8.569c-0.553,0-1-0.448-1-1V4.624c0-0.552,0.447-1,1-1s1,0.448,1,1v2.945C17,8.122,16.553,8.569,16,8.569z"/></svg>