<svg xmlns="http://www.w3.org/2000/svg" viewBox="0 0 32 32"><!--! Font Icona - https://fonticona.com | License - https://fonticona.com/license | Copyright 2022 FontIcona.com --><path d="M13.614,31.383c-0.041,0-0.082-0.002-0.124-0.008c-1.492-0.185-2.945-0.593-4.319-1.213c-0.504-0.228-0.728-0.82-0.5-1.323c0.228-0.501,0.82-0.728,1.322-0.5c1.191,0.538,2.45,0.892,3.743,1.052c0.548,0.068,0.938,0.567,0.869,1.115C14.543,31.013,14.112,31.383,13.614,31.383z"/><path d="M6.027,27.954c-0.234,0-0.47-0.082-0.66-0.249c-1.207-1.06-2.242-2.299-3.077-3.683c-0.285-0.473-0.133-1.087,0.34-1.373c0.471-0.286,1.087-0.134,1.373,0.339c0.729,1.208,1.632,2.289,2.685,3.214c0.415,0.364,0.456,0.996,0.091,1.411C6.581,27.839,6.305,27.954,6.027,27.954z"/><path d="M1.202,19.229c-0.48,0-0.904-0.347-0.985-0.836C0.073,17.525,0,16.635,0,15.746C0,7.063,6.888,0,15.354,0c0.725,0,1.452,0.052,2.163,0.155c0.547,0.079,0.926,0.586,0.846,1.133c-0.08,0.546-0.589,0.92-1.133,0.846C16.613,2.045,15.982,2,15.354,2C7.99,2,2,8.166,2,15.746c0,0.78,0.063,1.561,0.189,2.32c0.091,0.545-0.278,1.06-0.823,1.15C1.312,19.225,1.256,19.229,1.202,19.229z"/><path d="M25.66,6.483c-0.266,0-0.53-0.105-0.728-0.314c-0.951-1.008-2.04-1.857-3.238-2.524c-0.482-0.269-0.656-0.877-0.388-1.36c0.27-0.482,0.876-0.658,1.36-0.387c1.377,0.767,2.629,1.742,3.721,2.899c0.379,0.402,0.36,1.035-0.041,1.414C26.153,6.393,25.906,6.483,25.66,6.483z"/><path d="M29.469,14.063c-0.476,0-0.897-0.34-0.983-0.824c-0.21-1.179-0.573-2.329-1.078-3.417c-0.232-0.501-0.015-1.095,0.486-1.328c0.501-0.231,1.096-0.014,1.328,0.486c0.577,1.244,0.992,2.558,1.232,3.907c0.097,0.544-0.265,1.063-0.809,1.16C29.586,14.059,29.526,14.063,29.469,14.063z"/><path d="M31,32c-0.081,0-0.163-0.01-0.244-0.03l-8.573-2.157c-1.172,0.602-2.397,1.048-3.648,1.327c-0.535,0.117-1.073-0.219-1.193-0.759c-0.12-0.539,0.219-1.073,0.758-1.193c1.194-0.266,2.364-0.709,3.476-1.316c0.222-0.12,0.479-0.153,0.724-0.092l6.929,1.743l-2.575-5.639c-0.137-0.3-0.117-0.648,0.053-0.931c1.016-1.689,1.653-3.53,1.896-5.471c0.067-0.548,0.566-0.94,1.116-0.869c0.548,0.068,0.937,0.568,0.868,1.116c-0.255,2.044-0.893,3.991-1.898,5.793l3.225,7.062c0.159,0.35,0.104,0.76-0.142,1.056C31.576,31.871,31.293,32,31,32z"/><path d="M3.146,24.506c-0.117,0-0.236-0.021-0.353-0.064c-0.517-0.195-0.778-0.771-0.583-1.288C8.226,7.168,21.272,2.047,21.825,1.837c0.516-0.196,1.092,0.062,1.289,0.578s-0.062,1.093-0.577,1.291C22.41,3.755,9.768,8.749,4.082,23.858C3.932,24.259,3.551,24.506,3.146,24.506z"/><path d="M6.168,27.586c-0.122,0-0.246-0.022-0.366-0.07c-0.514-0.202-0.767-0.783-0.564-1.297C11.825,9.476,24.753,4.76,25.3,4.567c0.518-0.184,1.09,0.089,1.274,0.61c0.184,0.52-0.089,1.091-0.609,1.276C25.84,6.498,13.336,11.098,7.099,26.952C6.943,27.345,6.566,27.586,6.168,27.586z"/><path d="M9.582,30.106c-0.118,0-0.237-0.021-0.354-0.065c-0.517-0.196-0.776-0.773-0.581-1.29C15.013,11.952,27.516,8.531,28.045,8.394c0.533-0.139,1.079,0.182,1.219,0.716c0.139,0.534-0.182,1.08-0.715,1.219c-0.16,0.042-12.061,3.374-18.031,19.131C10.365,29.86,9.985,30.106,9.582,30.106z"/><path d="M13.613,31.362c-0.115,0-0.231-0.02-0.345-0.063c-0.506-0.19-0.762-0.755-0.57-1.261c5.419-14.376,16.035-17.772,16.484-17.91c0.515-0.161,1.063,0.133,1.222,0.649s-0.132,1.062-0.647,1.222l0,0c-0.101,0.031-10.164,3.298-15.229,16.73C14.381,31.121,14.009,31.362,13.613,31.362z"/><path d="M1.203,19.23c-0.122,0-0.247-0.023-0.367-0.07c-0.514-0.203-0.766-0.784-0.562-1.297C5.568,4.446,16.57,0.372,17.036,0.205c0.518-0.185,1.09,0.084,1.277,0.603c0.187,0.519-0.083,1.092-0.602,1.279C17.606,2.125,7.084,6.056,2.133,18.597C1.979,18.99,1.602,19.23,1.203,19.23z"/><path d="M18.316,31.164c-0.117,0-0.237-0.021-0.354-0.065c-0.517-0.195-0.777-0.772-0.582-1.289c3.367-8.916,11.43-12.937,11.771-13.103c0.493-0.242,1.093-0.037,1.336,0.459s0.038,1.094-0.458,1.337c-0.076,0.038-7.699,3.86-10.778,12.014C19.101,30.917,18.721,31.164,18.316,31.164z"/></svg>