<svg xmlns="http://www.w3.org/2000/svg" viewBox="0 0 32 32"><!--! Font Icona - https://fonticona.com | License - https://fonticona.com/license | Copyright 2022 FontIcona.com --><path d="M12.615,29.783c-0.325,0-0.651-0.079-0.95-0.237c-0.665-0.353-1.077-1.038-1.077-1.79V4.244c0-0.752,0.413-1.438,1.077-1.79c0.665-0.352,1.464-0.308,2.086,0.112l17.358,11.755C31.667,14.699,32,15.326,32,16s-0.333,1.301-0.891,1.679L13.75,29.434C13.408,29.665,13.012,29.783,12.615,29.783z M12.629,4.223l-0.042,0.021v23.512l17.401-11.733L12.629,4.223z"/><path d="M2.027,29.784c-0.325,0-0.651-0.079-0.95-0.237C0.413,29.194,0,28.508,0,27.756V4.244c0-0.752,0.413-1.438,1.077-1.791c0.665-0.352,1.464-0.309,2.086,0.112l8.985,6.08c0.458,0.31,0.577,0.932,0.268,1.389c-0.309,0.457-0.93,0.576-1.389,0.268l-8.985-6.08L2,27.756l9.027-6.058c0.458-0.31,1.08-0.189,1.389,0.268c0.31,0.457,0.19,1.079-0.268,1.389l-8.985,6.08C2.821,29.666,2.425,29.784,2.027,29.784z"/></svg>