<svg xmlns="http://www.w3.org/2000/svg" viewBox="0 0 32 32"><!--! Font Icona - https://fonticona.com | License - https://fonticona.com/license | Copyright 2022 FontIcona.com --><path d="M5.841,32c-0.121,0-0.242-0.021-0.359-0.066C5.096,31.785,4.841,31.414,4.841,31V3.139C4.841,1.408,6.25,0,7.981,0h16.4c0.86,0,1.649,0.357,2.164,0.98c0.516,0.623,0.719,1.464,0.559,2.308l-2.385,12.561l-0.992,4.419c-0.103,0.457-0.508,0.781-0.976,0.781h-6.584L6.583,31.67C6.39,31.884,6.119,32,5.841,32z M7.981,2c-0.628,0-1.14,0.511-1.14,1.139v25.26l8.139-9.02c0.189-0.21,0.459-0.33,0.742-0.33h6.229l0.81-3.606l2.378-12.528c0.05-0.261,0.002-0.495-0.134-0.66S24.647,2,24.381,2H7.981z"/><path d="M24.672,11.735h-9.714c-0.552,0-1-0.448-1-1s0.448-1,1-1h9.714c0.552,0,1,0.448,1,1S25.225,11.735,24.672,11.735z"/></svg>