<svg xmlns="http://www.w3.org/2000/svg" viewBox="0 0 32 32"><!--! Font Icona - https://fonticona.com | License - https://fonticona.com/license | Copyright 2022 FontIcona.com --><path d="M7.089,32c-0.393,0-0.811-0.155-1.203-0.616c-0.98-1.153-0.261-2.216,0.084-2.726c0.239-0.353,0.385-0.581,0.385-0.836c0-0.386-0.086-0.527-0.257-0.811c-0.23-0.381-0.545-0.902-0.545-1.845s0.315-1.464,0.545-1.845c0.171-0.284,0.257-0.426,0.257-0.811s-0.086-0.527-0.257-0.811c-0.23-0.381-0.545-0.902-0.545-1.845c0-0.941,0.315-1.463,0.545-1.844c0.171-0.283,0.257-0.425,0.257-0.811c0-0.386-0.086-0.529-0.257-0.812c-0.23-0.381-0.545-0.902-0.545-1.845c0-0.943,0.315-1.465,0.545-1.847c0.171-0.284,0.257-0.426,0.257-0.812c0-0.255-0.146-0.485-0.385-0.838c-0.345-0.511-1.063-1.573-0.085-2.727c1-1.181,2.188-0.36,2.636-0.05c0.241,0.167,0.515,0.356,0.688,0.356c0.244,0,0.314-0.05,0.547-0.216c0.328-0.233,0.824-0.586,1.707-0.586c0.883,0,1.378,0.353,1.706,0.586c0.233,0.166,0.304,0.216,0.548,0.216c0.245,0,0.315-0.05,0.549-0.216c0.328-0.233,0.824-0.586,1.706-0.586c0.883,0,1.378,0.353,1.706,0.586c0.232,0.166,0.303,0.216,0.547,0.216s0.315-0.05,0.549-0.216c0.328-0.233,0.824-0.586,1.708-0.586s1.38,0.353,1.708,0.586c0.234,0.166,0.305,0.216,0.55,0.216c0.174,0,0.447-0.189,0.688-0.357c0.447-0.309,1.635-1.131,2.636,0.048c0.98,1.153,0.262,2.216-0.084,2.726c-0.239,0.354-0.385,0.586-0.385,0.836c0,0.385,0.086,0.527,0.257,0.811c0.23,0.381,0.546,0.902,0.546,1.845c0,0.942-0.315,1.464-0.546,1.845c-0.171,0.284-0.257,0.426-0.257,0.811c0,0.385,0.086,0.526,0.257,0.81c0.23,0.381,0.546,0.902,0.546,1.846c0,0.942-0.315,1.464-0.546,1.845c-0.171,0.283-0.257,0.425-0.257,0.811s0.086,0.528,0.258,0.812c0.229,0.381,0.545,0.902,0.545,1.845c0,0.919-0.381,1.491-0.634,1.87c-0.225,0.337-0.254,0.381-0.187,0.641c0.107,0.42,0.3,0.709,0.502,1.015c0.35,0.525,0.999,1.505-0.014,2.699l0,0c-1,1.183-2.187,0.358-2.635,0.05c-0.241-0.167-0.515-0.356-0.688-0.356c-0.244,0-0.314,0.05-0.548,0.216c-0.328,0.233-0.823,0.586-1.707,0.586c-0.883,0-1.378-0.353-1.706-0.586c-0.233-0.166-0.304-0.216-0.549-0.216s-0.316,0.05-0.55,0.216c-0.328,0.233-0.823,0.586-1.706,0.586c-0.883,0-1.378-0.353-1.706-0.586c-0.233-0.166-0.303-0.216-0.547-0.216c-0.245,0-0.315,0.05-0.549,0.216c-0.328,0.233-0.824,0.586-1.707,0.586s-1.379-0.353-1.708-0.586c-0.234-0.166-0.304-0.216-0.55-0.216c-0.174,0-0.447,0.189-0.688,0.356C8.25,31.621,7.702,32,7.089,32z M18.234,29.076c0.884,0,1.379,0.353,1.708,0.586c0.232,0.166,0.303,0.216,0.547,0.216s0.314-0.05,0.548-0.216c0.328-0.233,0.823-0.586,1.707-0.586c0.638,0,1.145,0.263,1.545,0.521c-0.226-0.35-0.487-0.807-0.647-1.434c-0.287-1.123,0.163-1.799,0.461-2.245c0.192-0.288,0.298-0.447,0.298-0.761c0-0.386-0.086-0.527-0.257-0.811c-0.23-0.382-0.546-0.903-0.546-1.847s0.315-1.465,0.546-1.846c0.171-0.283,0.257-0.425,0.257-0.81c0-0.386-0.086-0.527-0.257-0.811c-0.23-0.381-0.546-0.902-0.546-1.845c0-0.943,0.315-1.465,0.546-1.846c0.171-0.283,0.257-0.426,0.257-0.811c0-0.385-0.086-0.527-0.257-0.811c-0.23-0.381-0.546-0.902-0.546-1.845c0-0.718,0.28-1.265,0.55-1.688c-0.376,0.228-0.84,0.434-1.405,0.434c-0.884,0-1.38-0.353-1.708-0.586c-0.234-0.166-0.305-0.216-0.55-0.216s-0.315,0.05-0.55,0.216c-0.328,0.233-0.824,0.586-1.707,0.586s-1.379-0.353-1.707-0.586c-0.232-0.166-0.303-0.216-0.546-0.216c-0.244,0-0.314,0.05-0.547,0.216c-0.328,0.233-0.824,0.586-1.708,0.586s-1.379-0.353-1.707-0.586c-0.233-0.166-0.304-0.216-0.547-0.216c-0.244,0-0.314,0.05-0.547,0.216c-0.328,0.233-0.824,0.586-1.707,0.586c-0.566,0-1.03-0.207-1.407-0.435c0.271,0.425,0.553,0.973,0.553,1.694c0,0.943-0.315,1.465-0.545,1.846c-0.171,0.284-0.257,0.427-0.257,0.813c0,0.385,0.086,0.528,0.257,0.811c0.23,0.381,0.545,0.903,0.545,1.846s-0.315,1.465-0.545,1.846c-0.171,0.282-0.257,0.425-0.257,0.809c0,0.386,0.086,0.527,0.257,0.811c0.23,0.381,0.545,0.902,0.545,1.845S8.04,23.973,7.81,24.354c-0.171,0.284-0.257,0.426-0.257,0.811c0,0.386,0.086,0.527,0.257,0.811c0.23,0.381,0.545,0.902,0.545,1.845c0,0.719-0.28,1.265-0.55,1.688c0.376-0.228,0.84-0.435,1.406-0.435c0.883,0,1.379,0.353,1.708,0.586c0.234,0.166,0.304,0.216,0.55,0.216c0.245,0,0.315-0.05,0.549-0.216c0.328-0.233,0.824-0.586,1.707-0.586c0.883,0,1.378,0.353,1.706,0.586c0.233,0.166,0.303,0.216,0.547,0.216c0.244,0,0.314-0.05,0.547-0.216C16.853,29.428,17.35,29.076,18.234,29.076z"/><path d="M21.275,27.837H10.876c-0.552,0-1-0.447-1-1V13.263c0-0.552,0.448-1,1-1h10.399c0.553,0,1,0.448,1,1v13.573C22.275,27.389,21.828,27.837,21.275,27.837z M11.876,25.837h8.399V14.263h-8.399V25.837z"/><path d="M12.06,9.93c-0.125,0-0.251-0.023-0.374-0.073c-0.512-0.206-0.76-0.789-0.553-1.301c0.349-0.866,0.73-1.795,1.111-2.725c0.376-0.917,0.752-1.835,1.097-2.69c0.206-0.512,0.789-0.761,1.301-0.553c0.512,0.207,0.76,0.789,0.553,1.301c-0.346,0.858-0.724,1.779-1.101,2.701c-0.379,0.926-0.759,1.852-1.107,2.714C12.831,9.693,12.456,9.93,12.06,9.93z"/><path d="M19.932,9.904c-0.395,0-0.77-0.237-0.928-0.627c-0.354-0.876-0.722-1.775-1.09-2.673c-0.354-0.864-0.708-1.728-1.048-2.572c-0.207-0.512,0.041-1.095,0.553-1.301c0.509-0.208,1.095,0.041,1.302,0.553c0.339,0.84,0.691,1.701,1.044,2.561c0.37,0.902,0.739,1.804,1.095,2.685c0.206,0.512-0.042,1.095-0.554,1.301C20.183,9.881,20.057,9.904,19.932,9.904z"/><path d="M16.059,5.79c-1.596,0-2.895-1.299-2.895-2.895S14.463,0,16.059,0s2.895,1.299,2.895,2.895S17.655,5.79,16.059,5.79z M16.059,2c-0.494,0-0.895,0.401-0.895,0.895s0.401,0.895,0.895,0.895s0.895-0.401,0.895-0.895S16.553,2,16.059,2z"/></svg>