<svg xmlns="http://www.w3.org/2000/svg" viewBox="0 0 32 32"><!--! Font Icona - https://fonticona.com | License - https://fonticona.com/license | Copyright 2022 FontIcona.com --><path d="M15.362,32C6.894,32,0.005,25.149,0.005,16.729S6.894,1.458,15.362,1.458c1.103,0,2.203,0.117,3.27,0.347c0.54,0.117,0.883,0.649,0.767,1.188s-0.651,0.881-1.188,0.767c-0.929-0.201-1.887-0.302-2.848-0.302c-7.365,0-13.357,5.953-13.357,13.271C2.005,24.047,7.997,30,15.362,30c7.366,0,13.358-5.953,13.358-13.271c0-1.35-0.203-2.681-0.604-3.957c-0.166-0.527,0.128-1.088,0.655-1.253c0.525-0.165,1.087,0.127,1.253,0.655c0.461,1.47,0.695,3.003,0.695,4.556C30.72,25.149,23.831,32,15.362,32z"/><path d="M3.487,9.708c-0.315,0-0.625-0.148-0.82-0.426C-0.21,5.172-0.003,1.111,0.007,0.94C0.038,0.412,0.476,0,1.005,0C1.007,0,1.01,0,1.012,0c4.975,0.036,8.984,2.711,9.152,2.825c0.457,0.309,0.576,0.93,0.268,1.387c-0.308,0.458-0.93,0.578-1.388,0.27c-0.033-0.022-3.122-2.072-7-2.429c0.125,1.299,0.588,3.693,2.26,6.081C4.622,8.586,4.512,9.21,4.06,9.526C3.885,9.649,3.686,9.708,3.487,9.708z"/><path d="M27.312,10.867c-2.292,0-4.067-0.676-5.278-2.008c-1.869-2.057-1.612-4.894-1.601-5.014c0.028-0.288,0.18-0.549,0.415-0.716c0.133-0.095,3.331-2.322,10.08-2.808c0.271-0.016,0.538,0.072,0.74,0.253c0.202,0.182,0.322,0.437,0.332,0.708c0.006,0.17,0.103,4.219-3.875,9.208C27.928,10.737,27.63,10.877,27.312,10.867z M27.342,9.867h0.01H27.342z M22.418,4.514c0.026,0.698,0.204,2.027,1.105,3.011c0.743,0.81,1.865,1.257,3.338,1.331c2.094-2.757,2.792-5.127,3.023-6.432C25.78,2.879,23.334,4.011,22.418,4.514z"/></svg>