<svg xmlns="http://www.w3.org/2000/svg" viewBox="0 0 32 32"><!--! Font Icona - https://fonticona.com | License - https://fonticona.com/license | Copyright 2022 FontIcona.com --><circle cx="21.403" cy="7.45" r="1.25"/><path d="M29.401,28.2H25.74c-0.377,0-0.723-0.213-0.893-0.55l-3.869-7.676c-0.249-0.493-0.05-1.095,0.443-1.343c0.493-0.251,1.095-0.051,1.343,0.442l3.592,7.126h3.045c0.552,0,1,0.447,1,1S29.953,28.2,29.401,28.2z"/><circle cx="10.294" cy="14.217" r="1"/><circle cx="8.283" cy="17.167" r="1"/><circle cx="11.622" cy="17.825" r="1"/><path d="M9.495,28.263c-4.877-0.044-8.231-2.128-9.212-5.718c-1.149-4.207,1.347-8.96,4.331-11.804C8.334,7.2,13.437,5.563,17.929,6.47c0.542,0.109,0.892,0.637,0.783,1.178c-0.109,0.541-0.637,0.895-1.178,0.783C13.725,7.662,9.198,9.14,5.993,12.189c-2.471,2.354-4.708,6.436-3.781,9.828c0.996,3.646,4.996,4.225,7.292,4.245c1.806,0,3.622-0.019,5.438-0.036c1.826-0.019,3.653-0.037,5.483-0.037c0.552,0,1,0.447,1,1s-0.448,1-1,1c-1.823,0-3.644,0.019-5.463,0.036C13.139,28.244,11.317,28.263,9.495,28.263z"/><path d="M18.679,22.324c-0.331,0-0.654-0.163-0.844-0.463c-0.297-0.466-0.16-1.084,0.306-1.381c2.139-1.362,4.43-2.494,6.809-3.361c2.754-1.021,5.338-2.169,5.022-4.302c-0.232-1.562-2.835-3.255-5.218-3.99c-0.528-0.162-0.823-0.722-0.661-1.25s0.725-0.829,1.25-0.66c2.247,0.692,6.167,2.653,6.606,5.606c0.581,3.916-3.846,5.559-6.225,6.441c-2.333,0.852-4.493,1.917-6.509,3.203C19.049,22.273,18.863,22.324,18.679,22.324z"/><path d="M21.403,12.121c-2.576,0-4.671-2.096-4.671-4.671c0-2.576,2.096-4.672,4.671-4.672s4.671,2.096,4.671,4.672C26.074,10.025,23.979,12.121,21.403,12.121z M21.403,4.778c-1.473,0-2.671,1.198-2.671,2.672c0,1.473,1.198,2.671,2.671,2.671s2.671-1.198,2.671-2.671C24.074,5.977,22.876,4.778,21.403,4.778z"/><path d="M10.622,28.261c-0.433,0-0.832-0.283-0.959-0.72c-0.155-0.529,0.149-1.085,0.679-1.24l6.368-1.862c0.562-0.193,0.969-0.764,0.969-1.404v-0.393c0-1.082-1.282-1.137-1.539-1.137h-2.978c-0.552,0-1-0.447-1-1s0.448-1,1-1h2.978c2.084,0,3.539,1.29,3.539,3.137v0.393c0,1.494-0.95,2.825-2.363,3.311l-6.412,1.876C10.809,28.248,10.714,28.261,10.622,28.261z"/></svg>