<svg xmlns="http://www.w3.org/2000/svg" viewBox="0 0 32 32"><!--! Font Icona - https://fonticona.com | License - https://fonticona.com/license | Copyright 2022 FontIcona.com --><path d="M16,32C9.18,32,3.631,24.822,3.631,16S9.18,0,16,0c4.364,0,8.448,3.014,10.66,7.865c0.229,0.502,0.007,1.095-0.495,1.325c-0.505,0.227-1.097,0.006-1.325-0.496C22.93,4.502,19.625,2,16,2C10.282,2,5.631,8.28,5.631,16S10.282,30,16,30s10.369-6.28,10.369-14c0-0.552,0.447-1,1-1s1,0.448,1,1C28.369,24.822,22.82,32,16,32z"/><path d="M27.354,17H16.654c-0.553,0-1-0.448-1-1s0.447-1,1-1h10.699c0.553,0,1,0.448,1,1S27.906,17,27.354,17z"/></svg>