<svg xmlns="http://www.w3.org/2000/svg" viewBox="0 0 32 32"><!--! Font Icona - https://fonticona.com | License - https://fonticona.com/license | Copyright 2022 FontIcona.com --><path d="M16.76,32c-1.894,0-4.131-0.444-6.7-1.333c-0.521-0.18-0.799-0.75-0.618-1.272c0.181-0.522,0.749-0.799,1.272-0.618c4.402,1.522,7.677,1.624,9.476,0.294c1.645-1.218,1.588-3.284,1.585-3.371L21.773,7.25c0-0.552,0.447-1,1-1s1,0.448,1,1v18.407c0.005,0.081,0.123,3.135-2.367,5.001C20.213,31.552,18.659,32,16.76,32z"/><path d="M15.999,24.508c-4.287,0-7.774-4.095-7.774-9.129c0-5.034,3.487-9.129,7.774-9.129s7.774,4.095,7.774,9.129C23.773,20.413,20.286,24.508,15.999,24.508z M15.999,8.25c-3.184,0-5.774,3.198-5.774,7.129c0,3.931,2.591,7.129,5.774,7.129s5.774-3.198,5.774-7.129C21.773,11.448,19.183,8.25,15.999,8.25z"/></svg>