<svg xmlns="http://www.w3.org/2000/svg" viewBox="0 0 32 32"><!--! Font Icona - https://fonticona.com | License - https://fonticona.com/license | Copyright 2022 FontIcona.com --><path d="M21.155,13.358c-1.988,0-3.605-1.617-3.605-3.605c0-1.988,1.617-3.605,3.605-3.605s3.605,1.617,3.605,3.605C24.76,11.741,23.143,13.358,21.155,13.358z M21.155,8.147c-0.885,0-1.605,0.72-1.605,1.605c0,0.885,0.72,1.605,1.605,1.605s1.605-0.72,1.605-1.605C22.76,8.868,22.04,8.147,21.155,8.147z"/><path d="M21.155,21.862c-0.552,0-1-0.447-1-1v-8.504c0-0.552,0.448-1,1-1s1,0.448,1,1v8.504C22.155,21.415,21.707,21.862,21.155,21.862z"/><path d="M24.936,27.773c-0.33,0-0.653-0.163-0.843-0.461l-3.78-5.911c-0.298-0.466-0.162-1.084,0.304-1.382c0.463-0.297,1.083-0.161,1.381,0.304l3.78,5.911c0.298,0.466,0.162,1.084-0.304,1.382C25.307,27.723,25.12,27.773,24.936,27.773z"/><path d="M17.442,27.666c-0.185,0-0.371-0.051-0.538-0.157c-0.465-0.298-0.602-0.916-0.304-1.382l3.711-5.804c0.297-0.465,0.917-0.6,1.381-0.304c0.465,0.298,0.602,0.916,0.304,1.382l-3.711,5.804C18.095,27.503,17.772,27.666,17.442,27.666z"/><path d="M26.377,18.366c-0.154,0-0.31-0.035-0.456-0.11l-5.236-2.689c-0.491-0.252-0.685-0.855-0.433-1.347c0.252-0.49,0.854-0.685,1.347-0.433l5.236,2.689c0.491,0.252,0.685,0.855,0.433,1.347C27.09,18.168,26.74,18.366,26.377,18.366z"/><path d="M16.001,18.317c-0.363,0-0.713-0.198-0.891-0.543c-0.252-0.491-0.059-1.094,0.433-1.347l5.142-2.641c0.492-0.252,1.094-0.058,1.347,0.433c0.252,0.492,0.059,1.094-0.433,1.347l-5.142,2.641C16.311,18.282,16.155,18.317,16.001,18.317z"/><path d="M5.622,32c-0.552,0-1-0.447-1-1V3c0-1.654,1.346-3,3-3h11.533c1.654,0,3,1.346,3,3v4.147c0,0.552-0.448,1-1,1s-1-0.448-1-1V3c0-0.551-0.449-1-1-1H7.622c-0.551,0-1,0.449-1,1v28C6.622,31.553,6.174,32,5.622,32z"/></svg>