<svg xmlns="http://www.w3.org/2000/svg" viewBox="0 0 32 32"><!--! Font Icona - https://fonticona.com | License - https://fonticona.com/license | Copyright 2022 FontIcona.com --><path d="M16,32C7.178,32,0,24.822,0,16S7.178,0,16,0s16,7.178,16,16S24.822,32,16,32z M16,2C8.28,2,2,8.28,2,16s6.28,14,14,14s14-6.28,14-14S23.72,2,16,2z"/><path d="M17.811,27.423h-3.621c-1.654,0-3-1.346-3-3v-2.081c0-0.274-0.119-0.541-0.327-0.731c-0.164-0.15-0.321-0.309-0.473-0.474c-0.191-0.208-0.457-0.327-0.732-0.327h-2.08c-1.654,0-3-1.346-3-3v-3.621c0-1.654,1.346-3,3-3h2.08c0.275,0,0.541-0.119,0.73-0.326c0.153-0.167,0.311-0.325,0.476-0.476c0.207-0.19,0.326-0.457,0.326-0.731V7.577c0-1.654,1.346-3,3-3h3.621c1.654,0,3,1.346,3,3v2.081c0,0.274,0.119,0.541,0.327,0.731c0.164,0.15,0.321,0.309,0.473,0.474c0.191,0.208,0.457,0.327,0.732,0.327h2.08c1.654,0,3,1.346,3,3v3.621c0,1.654-1.346,3-3,3h-2.08c-0.275,0-0.541,0.119-0.73,0.326c-0.153,0.167-0.311,0.325-0.476,0.476c-0.207,0.19-0.326,0.457-0.326,0.731v2.081C20.811,26.078,19.465,27.423,17.811,27.423z M7.577,13.189c-0.552,0-1,0.449-1,1v3.621c0,0.551,0.448,1,1,1h2.08c0.835,0,1.64,0.355,2.207,0.976c0.11,0.121,0.227,0.238,0.349,0.35c0.621,0.568,0.977,1.373,0.977,2.207v2.081c0,0.551,0.448,1,1,1h3.621c0.552,0,1-0.449,1-1v-2.081c0-0.834,0.355-1.638,0.976-2.206c0.123-0.112,0.239-0.229,0.352-0.352c0.565-0.619,1.37-0.975,2.205-0.975h2.08c0.552,0,1-0.449,1-1v-3.621c0-0.551-0.448-1-1-1h-2.08c-0.835,0-1.64-0.355-2.207-0.976c-0.11-0.121-0.227-0.238-0.349-0.35c-0.621-0.568-0.977-1.373-0.977-2.207V7.577c0-0.551-0.448-1-1-1h-3.621c-0.552,0-1,0.449-1,1v2.081c0,0.834-0.355,1.638-0.976,2.206c-0.123,0.112-0.239,0.229-0.352,0.352c-0.565,0.619-1.37,0.975-2.205,0.975H7.577z"/><path d="M17,11.403h-2c-0.347,0-0.668-0.18-0.851-0.474c-0.183-0.295-0.199-0.663-0.044-0.973l1-2c0.34-0.678,1.449-0.678,1.789,0l1,2c0.155,0.31,0.139,0.678-0.044,0.973C17.668,11.224,17.347,11.403,17,11.403z"/><path d="M16,24.597c-0.379,0-0.725-0.214-0.895-0.553l-1-2c-0.155-0.31-0.139-0.678,0.044-0.973c0.183-0.294,0.504-0.474,0.851-0.474h2c0.347,0,0.668,0.18,0.851,0.474c0.183,0.295,0.199,0.663,0.044,0.973l-1,2C16.725,24.383,16.379,24.597,16,24.597z"/><path d="M21.603,18c-0.183,0-0.365-0.05-0.525-0.149c-0.295-0.182-0.475-0.504-0.475-0.851v-2c0-0.347,0.18-0.668,0.475-0.851c0.295-0.183,0.662-0.198,0.973-0.044l2,1c0.339,0.169,0.553,0.516,0.553,0.895s-0.214,0.725-0.553,0.895l-2,1C21.908,17.965,21.756,18,21.603,18z"/><path d="M10.397,18c-0.153,0-0.306-0.035-0.447-0.105l-2-1C7.611,16.725,7.397,16.379,7.397,16s0.214-0.725,0.553-0.895l2-1c0.31-0.155,0.677-0.139,0.973,0.044c0.295,0.182,0.475,0.504,0.475,0.851v2c0,0.347-0.18,0.668-0.475,0.851C10.763,17.95,10.58,18,10.397,18z"/></svg>