<svg xmlns="http://www.w3.org/2000/svg" viewBox="0 0 32 32"><!--! Font Icona - https://fonticona.com | License - https://fonticona.com/license | Copyright 2022 FontIcona.com --><path d="M23.545,32H8.455c-1.654,0-3-1.346-3-3V3c0-1.654,1.346-3,3-3h15.091c1.654,0,3,1.346,3,3v26C26.545,30.654,25.2,32,23.545,32z M8.455,2c-0.551,0-1,0.449-1,1v26c0,0.551,0.449,1,1,1h15.091c0.551,0,1-0.449,1-1V3c0-0.551-0.449-1-1-1H8.455z"/><path d="M19.85,18.154h-7.605c-1.654,0-3-1.346-3-3V6.125c0-1.654,1.346-3,3-3h7.605c1.654,0,3,1.346,3,3v9.029C22.85,16.808,21.504,18.154,19.85,18.154z M12.245,5.125c-0.551,0-1,0.449-1,1v9.029c0,0.551,0.449,1,1,1h7.605c0.551,0,1-0.449,1-1V6.125c0-0.551-0.449-1-1-1H12.245z"/><path d="M13.449,28.169c-0.552,0-1-0.448-1-1v-5.267c0-0.552,0.448-1,1-1s1,0.448,1,1v5.267C14.449,27.722,14.001,28.169,13.449,28.169z"/><path d="M16.082,25.536h-5.266c-0.552,0-1-0.448-1-1s0.448-1,1-1h5.266c0.552,0,1,0.448,1,1S16.634,25.536,16.082,25.536z"/><circle cx="21.545" cy="22.586" r="1.25"/><circle cx="21.545" cy="26.486" r="1.25"/></svg>