<svg xmlns="http://www.w3.org/2000/svg" viewBox="0 0 32 32"><!--! Font Icona - https://fonticona.com | License - https://fonticona.com/license | Copyright 2022 FontIcona.com --><path d="M7.503,23.519c-0.003,0-0.006,0-0.01,0c-2.003-0.002-3.886-0.783-5.301-2.201S-0.002,18.015,0,16.011c0.004-4.134,3.369-7.494,7.501-7.494c0.002,0,0.004,0,0.006,0l17.336-0.035c0.03,0.003,0.037,0,0.055,0.001c3.845,0.205,6.893,3.259,7.091,7.104c0.213,4.131-2.975,7.664-7.105,7.877c-2.58,0.08-5.019-1.137-6.47-3.24l-4.702-0.001C12.326,22.27,9.999,23.519,7.503,23.519z M7.504,10.517c-3.034,0-5.501,2.465-5.504,5.496c-0.001,1.47,0.569,2.852,1.607,3.892s2.419,1.613,3.889,1.614c0.002,0,0.004,0,0.007,0c1.977,0,3.809-1.068,4.784-2.789c0.178-0.313,0.51-0.507,0.87-0.507l0,0l5.806,0.001c0.356,0,0.686,0.189,0.865,0.498c1.025,1.766,2.932,2.805,4.969,2.744c3.014-0.155,5.351-2.747,5.195-5.775c-0.145-2.812-2.367-5.047-5.174-5.209l-17.31,0.035C7.507,10.517,7.506,10.517,7.504,10.517z"/><path d="M24.726,14.618c-0.073,0-0.147-0.005-0.221-0.016c-0.397-0.059-0.748-0.269-0.987-0.591c-0.493-0.663-0.354-1.604,0.309-2.097c0.663-0.495,1.604-0.354,2.099,0.308c0,0.001,0,0.001,0,0.002c0.492,0.663,0.354,1.604-0.309,2.097C25.357,14.517,25.046,14.618,24.726,14.618z M25.124,12.82l-0.802,0.598c0.164,0.221,0.479,0.267,0.7,0.101C25.242,13.354,25.288,13.041,25.124,12.82c-0.078-0.106-0.198-0.178-0.328-0.197c-0.131-0.015-0.268,0.016-0.374,0.095c-0.22,0.164-0.266,0.478-0.101,0.698L25.124,12.82z"/><path d="M24.726,20.382c-0.073,0-0.147-0.005-0.221-0.016c-0.397-0.059-0.748-0.269-0.987-0.591c-0.493-0.663-0.354-1.604,0.309-2.097c0.663-0.495,1.604-0.355,2.099,0.308c0,0.001,0,0.001,0,0.002c0.492,0.663,0.354,1.604-0.309,2.097C25.357,20.28,25.046,20.382,24.726,20.382z M25.124,18.584l-0.802,0.598c0.164,0.221,0.479,0.267,0.7,0.101C25.242,19.118,25.288,18.805,25.124,18.584c-0.078-0.106-0.198-0.178-0.328-0.197c-0.131-0.016-0.268,0.016-0.374,0.095c-0.22,0.164-0.266,0.478-0.101,0.698L25.124,18.584z"/><path d="M27.608,17.5c-0.073,0-0.147-0.005-0.221-0.016c-0.397-0.059-0.748-0.269-0.987-0.591c-0.493-0.663-0.354-1.604,0.309-2.097c0.321-0.24,0.717-0.339,1.113-0.281c0.396,0.059,0.747,0.269,0.986,0.591c0.493,0.661,0.355,1.603-0.308,2.097l0,0C28.239,17.397,27.928,17.5,27.608,17.5z M27.305,15.6c-0.221,0.165-0.266,0.479-0.102,0.7c0.078,0.104,0.197,0.176,0.328,0.194c0.129,0.021,0.266-0.014,0.372-0.093l0,0c0,0,0,0,0.001-0.001c0.221-0.164,0.267-0.478,0.103-0.698c-0.078-0.106-0.198-0.178-0.328-0.197C27.546,15.489,27.41,15.521,27.305,15.6C27.305,15.6,27.305,15.6,27.305,15.6z"/><path d="M21.844,17.5c-0.073,0-0.147-0.005-0.221-0.016c-0.397-0.059-0.748-0.269-0.986-0.591c-0.493-0.663-0.354-1.604,0.309-2.097c0.663-0.496,1.604-0.354,2.099,0.308c0.493,0.664,0.354,1.604-0.307,2.099c0,0,0,0-0.001,0C22.475,17.398,22.165,17.5,21.844,17.5z M21.541,15.6c-0.22,0.164-0.266,0.478-0.102,0.698c0.165,0.224,0.478,0.269,0.7,0.104L21.541,15.6z M22.139,16.401h0.01H22.139z M21.842,15.5c-0.107,0-0.214,0.035-0.3,0.1l0.597,0.802c0,0,0,0,0-0.001c0.221-0.164,0.267-0.478,0.103-0.698c-0.078-0.106-0.198-0.178-0.328-0.196C21.89,15.502,21.866,15.5,21.842,15.5z"/><path d="M9.195,17h-4c-0.552,0-1-0.447-1-1s0.448-1,1-1h4c0.552,0,1,0.447,1,1S9.747,17,9.195,17z"/><path d="M7.195,19c-0.552,0-1-0.447-1-1v-4c0-0.553,0.448-1,1-1s1,0.447,1,1v4C8.195,18.553,7.747,19,7.195,19z"/></svg>