<svg xmlns="http://www.w3.org/2000/svg" viewBox="0 0 32 32"><!--! Font Icona - https://fonticona.com | License - https://fonticona.com/license | Copyright 2022 FontIcona.com --><path d="M31,22.466H1c-0.553,0-1-0.448-1-1s0.447-1,1-1h30c0.553,0,1,0.448,1,1S31.553,22.466,31,22.466z"/><path d="M31,11.534H1c-0.553,0-1-0.448-1-1s0.447-1,1-1h30c0.553,0,1,0.448,1,1S31.553,11.534,31,11.534z"/><path d="M10.534,32c-0.553,0-1-0.448-1-1V1c0-0.552,0.447-1,1-1s1,0.448,1,1v30C11.534,31.552,11.087,32,10.534,32z"/><path d="M21.466,32c-0.553,0-1-0.448-1-1V1c0-0.552,0.447-1,1-1s1,0.448,1,1v30C22.466,31.552,22.019,32,21.466,32z"/><path d="M14.125,19.161c-0.256,0-0.512-0.098-0.707-0.293c-0.391-0.391-0.391-1.023,0-1.414l4.195-4.195c0.391-0.391,1.023-0.391,1.414,0s0.391,1.023,0,1.414l-4.195,4.195C14.637,19.063,14.381,19.161,14.125,19.161z"/><path d="M18.32,19.161c-0.256,0-0.512-0.098-0.707-0.293l-4.195-4.195c-0.391-0.391-0.391-1.023,0-1.414s1.023-0.391,1.414,0l4.195,4.195c0.391,0.391,0.391,1.023,0,1.414C18.832,19.063,18.576,19.161,18.32,19.161z"/><path d="M14.125,8.245c-0.256,0-0.512-0.098-0.707-0.293c-0.391-0.391-0.391-1.023,0-1.414l4.195-4.195c0.391-0.391,1.023-0.391,1.414,0s0.391,1.023,0,1.414l-4.195,4.195C14.637,8.147,14.381,8.245,14.125,8.245z"/><path d="M18.32,8.245c-0.256,0-0.512-0.098-0.707-0.293l-4.195-4.195c-0.391-0.391-0.391-1.023,0-1.414s1.023-0.391,1.414,0l4.195,4.195c0.391,0.391,0.391,1.023,0,1.414C18.832,8.147,18.576,8.245,18.32,8.245z"/><path d="M2.479,8.245c-0.256,0-0.512-0.098-0.707-0.293c-0.391-0.391-0.391-1.023,0-1.414l4.195-4.195c0.391-0.391,1.023-0.391,1.414,0s0.391,1.023,0,1.414L3.186,7.952C2.99,8.147,2.734,8.245,2.479,8.245z"/><path d="M6.674,8.245c-0.256,0-0.512-0.098-0.707-0.293L1.771,3.757c-0.391-0.391-0.391-1.023,0-1.414s1.023-0.391,1.414,0l4.195,4.195c0.391,0.391,0.391,1.023,0,1.414C7.186,8.147,6.93,8.245,6.674,8.245z"/><path d="M13.902,30.021c-0.256,0-0.512-0.098-0.707-0.293c-0.391-0.391-0.391-1.023,0-1.414l4.195-4.195c0.391-0.391,1.023-0.391,1.414,0s0.391,1.023,0,1.414l-4.195,4.195C14.414,29.924,14.158,30.021,13.902,30.021z"/><path d="M18.098,30.021c-0.256,0-0.512-0.098-0.707-0.293l-4.195-4.195c-0.391-0.391-0.391-1.023,0-1.414s1.023-0.391,1.414,0l4.195,4.195c0.391,0.391,0.391,1.023,0,1.414C18.609,29.924,18.354,30.021,18.098,30.021z"/><path d="M4.576,19.161c-1.708,0-3.098-1.39-3.098-3.098s1.39-3.098,3.098-3.098s3.098,1.39,3.098,3.098S6.284,19.161,4.576,19.161z M4.576,14.966c-0.605,0-1.098,0.492-1.098,1.098s0.492,1.098,1.098,1.098s1.098-0.492,1.098-1.098S5.182,14.966,4.576,14.966z"/><path d="M4.576,30.022c-1.708,0-3.098-1.39-3.098-3.098s1.39-3.098,3.098-3.098s3.098,1.39,3.098,3.098S6.284,30.022,4.576,30.022z M4.576,25.827c-0.605,0-1.098,0.492-1.098,1.098s0.492,1.098,1.098,1.098s1.098-0.492,1.098-1.098S5.182,25.827,4.576,25.827z"/><path d="M27.249,30.022c-1.708,0-3.098-1.39-3.098-3.098s1.39-3.098,3.098-3.098s3.098,1.39,3.098,3.098S28.957,30.022,27.249,30.022z M27.249,25.827c-0.605,0-1.098,0.492-1.098,1.098s0.492,1.098,1.098,1.098s1.098-0.492,1.098-1.098S27.854,25.827,27.249,25.827z"/><path d="M27.169,8.245c-1.708,0-3.098-1.389-3.098-3.097s1.39-3.098,3.098-3.098s3.098,1.39,3.098,3.098S28.877,8.245,27.169,8.245z M27.169,4.05c-0.605,0-1.098,0.492-1.098,1.098c0,0.605,0.492,1.097,1.098,1.097s1.098-0.492,1.098-1.097C28.267,4.542,27.774,4.05,27.169,4.05z"/></svg>