<svg xmlns="http://www.w3.org/2000/svg" viewBox="0 0 32 32"><!--! Font Icona - https://fonticona.com | License - https://fonticona.com/license | Copyright 2022 FontIcona.com --><path d="M15.78,32H5.414c-1.103,0-2-0.897-2-2v-1.178c0-1.103,0.897-2,2-2H15.78c1.103,0,2,0.897,2,2V30C17.78,31.103,16.883,32,15.78,32z M5.414,28.822H5.412L5.414,30H15.78v-1.178H5.414z"/><path d="M15.525,28.822c-0.552,0-1-0.447-1-1V3.389C14.518,2.615,13.891,2.037,13.111,2h-5.02C7.334,2.003,6.709,2.626,6.703,3.388v24.435c0,0.553-0.448,1-1,1s-1-0.447-1-1V3.378C4.72,1.52,6.238,0.008,8.087,0h5.016c0.01,0,0.021,0,0.03,0c1.852,0,3.374,1.505,3.392,3.368v24.454C16.525,28.375,16.077,28.822,15.525,28.822z"/><path d="M15.525,7.312H5.703c-0.552,0-1-0.447-1-1s0.448-1,1-1h9.822c0.552,0,1,0.447,1,1S16.077,7.312,15.525,7.312z"/><path d="M15.525,16.822H5.703c-0.552,0-1-0.447-1-1s0.448-1,1-1h9.822c0.552,0,1,0.447,1,1S16.077,16.822,15.525,16.822z"/><path d="M23.752,31.838c-1.072,0-2.106-0.355-2.963-1.026c-1.014-0.795-1.658-1.937-1.812-3.216c-0.044-0.363-0.047-0.732-0.007-1.097v-6.365c0-1.702-1.674-3.312-3.444-3.312c-0.552,0-1-0.447-1-1s0.448-1,1-1c2.9,0,5.444,2.482,5.444,5.312v6.422c0,0.04-0.002,0.08-0.007,0.12c-0.027,0.226-0.027,0.454,0,0.68c0.091,0.748,0.467,1.417,1.061,1.882c0.593,0.464,1.33,0.674,2.081,0.579c1.545-0.187,2.649-1.596,2.462-3.141c-0.005-0.04-0.007-0.08-0.007-0.12l-0.002-15.271c0-0.552,0.448-1,1-1s1,0.447,1,1l0.002,15.214c0.282,2.614-1.596,4.986-4.214,5.304C24.146,31.826,23.949,31.838,23.752,31.838z"/><path d="M26.462,10.134c-0.268,0-0.535-0.106-0.731-0.318l-3.426-3.678c-0.376-0.404-0.354-1.037,0.05-1.413c0.404-0.377,1.037-0.355,1.413,0.05l3.426,3.678c0.376,0.404,0.354,1.037-0.05,1.413C26.951,10.045,26.707,10.134,26.462,10.134z"/><path d="M25.103,14.634c-1.905,0-3.456-1.551-3.456-3.456s1.55-3.455,3.456-3.455s3.456,1.55,3.456,3.455S27.008,14.634,25.103,14.634z M25.103,9.723c-0.803,0-1.456,0.652-1.456,1.455s0.653,1.456,1.456,1.456s1.456-0.653,1.456-1.456S25.905,9.723,25.103,9.723z"/></svg>