<svg xmlns="http://www.w3.org/2000/svg" viewBox="0 0 32 32"><!--! Font Icona - https://fonticona.com | License - https://fonticona.com/license | Copyright 2022 FontIcona.com --><path d="M15.973,25.73c-3.586,0-6.707-3.907-7.768-9.721l1.967-0.359c0.868,4.758,3.254,8.081,5.801,8.081c2.564,0,4.954-3.351,5.812-8.148l1.969,0.353C22.706,21.793,19.579,25.73,15.973,25.73z"/><path d="M10.53,17.216c-0.57,0-1.122-0.131-1.62-0.392c-2.157-1.129-2.798-4.279-1.459-7.171c0.763-1.649,2.022-2.875,3.457-3.362c1.005-0.342,2.036-0.28,2.904,0.173c2.157,1.129,2.798,4.279,1.459,7.171c-0.763,1.648-2.022,2.874-3.456,3.362C11.387,17.143,10.953,17.216,10.53,17.216z M12.195,8.072c-0.242,0-0.465,0.052-0.644,0.113c-0.905,0.308-1.76,1.171-2.286,2.309c-0.86,1.859-0.599,3.946,0.572,4.559c0.484,0.253,0.993,0.167,1.333,0.052c0.905-0.308,1.76-1.17,2.286-2.308l0,0c0.86-1.859,0.598-3.947-0.572-4.56C12.653,8.116,12.417,8.072,12.195,8.072z"/><path d="M21.211,17.32c-0.566,0-1.144-0.14-1.709-0.417c-1.369-0.673-2.476-2.061-3.034-3.807l0,0c-0.978-3.055,0.046-6.095,2.33-6.922c0.922-0.333,1.916-0.259,2.877,0.211c1.369,0.673,2.476,2.061,3.034,3.807c0.979,3.055-0.045,6.095-2.33,6.922C22,17.252,21.608,17.32,21.211,17.32z M18.372,12.487c0.389,1.213,1.141,2.193,2.012,2.621c0.322,0.159,0.811,0.31,1.315,0.126c1.226-0.444,1.732-2.473,1.105-4.432c-0.389-1.213-1.141-2.193-2.012-2.622c-0.321-0.158-0.812-0.309-1.314-0.125C18.252,8.499,17.745,10.528,18.372,12.487L18.372,12.487z"/><path d="M15.956,23.122c-1.854,0-3.363-1.576-3.363-3.513c0-1.938,1.509-3.514,3.363-3.514c1.855,0,3.364,1.576,3.364,3.514C19.32,21.545,17.812,23.122,15.956,23.122z M15.956,18.095c-0.752,0-1.363,0.679-1.363,1.514s0.611,1.513,1.363,1.513s1.364-0.679,1.364-1.513S16.708,18.095,15.956,18.095z"/><path d="M9.021,9.953c-0.051,0-0.103-0.004-0.154-0.012C8.32,9.856,7.947,9.345,8.031,8.8c0.56-3.615,2.335-5.819,5.28-6.562c0.322-0.732,1.179-1.328,2.661-1.328c1.48,0,2.338,0.595,2.66,1.327c2.888,0.728,4.651,2.859,5.245,6.348c0.093,0.544-0.272,1.061-0.817,1.154C22.52,9.836,22,9.465,21.907,8.921c-0.503-2.949-1.829-4.446-4.3-4.855c-0.499-0.083-0.852-0.522-0.837-1.015c-0.113-0.056-0.368-0.14-0.798-0.14s-0.686,0.084-0.799,0.141c0.023,0.498-0.331,0.932-0.836,1.015c-1.696,0.281-3.722,1.108-4.33,5.04C9.932,9.6,9.506,9.953,9.021,9.953z"/><path d="M25.909,31.091c-0.43,0-0.851-0.127-1.22-0.374L21.7,28.724c-1.025-0.685-1.343-2.118-0.707-3.196l0.861,0.508l-0.861-0.508l3.818-6.473c0.318-0.54,0.846-0.929,1.445-1.066c0.595-0.137,1.204-0.025,1.717,0.317l2.988,1.993c1.026,0.684,1.344,2.118,0.707,3.197l-3.818,6.473c-0.319,0.541-0.846,0.929-1.445,1.066C26.24,31.072,26.074,31.091,25.909,31.091z M26.749,19.933c-0.016,0-0.03,0.001-0.046,0.005c-0.039,0.009-0.113,0.038-0.169,0.133l-3.818,6.473l0,0c-0.101,0.17-0.056,0.416,0.094,0.516l2.989,1.993c0.051,0.033,0.104,0.044,0.16,0.031c0.039-0.009,0.113-0.038,0.169-0.133l3.818-6.473c0.101-0.17,0.056-0.417-0.094-0.516l-2.988-1.993C26.827,19.945,26.789,19.933,26.749,19.933z"/><path d="M25.209,21.349c-0.249,0-0.498-0.092-0.691-0.277l-2.482-2.376c-0.399-0.382-0.413-1.015-0.031-1.414c0.382-0.399,1.017-0.412,1.414-0.031l2.482,2.376c0.399,0.382,0.413,1.015,0.031,1.414C25.735,21.246,25.472,21.349,25.209,21.349z"/><path d="M22.726,25.558c-0.147,0-0.297-0.033-0.438-0.102l-2.712-1.326c-0.496-0.243-0.701-0.841-0.459-1.337c0.243-0.496,0.842-0.7,1.338-0.459l2.712,1.326c0.496,0.243,0.701,0.841,0.459,1.337C23.451,25.352,23.096,25.558,22.726,25.558z"/><path d="M6.091,31.091c-0.165,0-0.331-0.019-0.496-0.057c-0.6-0.137-1.126-0.525-1.445-1.066l-3.818-6.473c-0.637-1.079-0.319-2.513,0.707-3.197l2.988-1.993c0.512-0.341,1.121-0.454,1.717-0.317c0.6,0.137,1.127,0.526,1.445,1.066l3.818,6.473c0.636,1.078,0.318,2.512-0.707,3.196l-2.989,1.993C6.941,30.963,6.521,31.091,6.091,31.091z M5.251,19.933c-0.04,0-0.079,0.012-0.115,0.037l-2.988,1.993c-0.149,0.1-0.194,0.346-0.094,0.516l3.818,6.473c0.056,0.095,0.13,0.124,0.169,0.133c0.052,0.013,0.108,0.003,0.16-0.031L9.19,27.06c0.149-0.1,0.194-0.346,0.094-0.516l0,0l-3.818-6.473c-0.056-0.095-0.13-0.124-0.169-0.133C5.281,19.935,5.267,19.933,5.251,19.933z"/><path d="M6.791,21.349c-0.263,0-0.526-0.104-0.723-0.309C5.687,20.642,5.7,20.009,6.1,19.626l2.482-2.376c0.397-0.38,1.031-0.368,1.414,0.031c0.382,0.399,0.368,1.032-0.031,1.414l-2.482,2.376C7.289,21.257,7.04,21.349,6.791,21.349z"/><path d="M9.274,25.558c-0.37,0-0.726-0.206-0.899-0.561c-0.242-0.496-0.037-1.095,0.459-1.337l2.712-1.326c0.497-0.241,1.095-0.037,1.338,0.459c0.242,0.496,0.037,1.095-0.459,1.337l-2.712,1.326C9.571,25.525,9.422,25.558,9.274,25.558z"/></svg>