<svg xmlns="http://www.w3.org/2000/svg" viewBox="0 0 32 32"><!--! Font Icona - https://fonticona.com | License - https://fonticona.com/license | Copyright 2022 FontIcona.com --><path d="M19.883,17.176c-0.182,0-0.365-0.049-0.53-0.152c-0.468-0.293-0.609-0.911-0.316-1.378l4.139-6.607c0.295-0.468,0.912-0.608,1.379-0.317c0.468,0.293,0.609,0.911,0.316,1.378l-4.139,6.607C20.541,17.01,20.216,17.176,19.883,17.176z"/><rect x="16.43" y="17.088" transform="matrix(0.5307 -0.8476 0.8476 0.5307 -6.561 24.326)" width="4.511" height="2"/><path d="M16,32C7.178,32,0,24.822,0,16S7.178,0,16,0s16,7.178,16,16S24.822,32,16,32z M16,2C8.28,2,2,8.28,2,16s6.28,14,14,14s14-6.28,14-14S23.72,2,16,2z"/><path d="M16,26.034c-2.062,0-3.738-1.677-3.738-3.738s1.677-3.738,3.738-3.738s3.738,1.677,3.738,3.738S18.062,26.034,16,26.034z M16,20.557c-0.958,0-1.738,0.78-1.738,1.738s0.78,1.738,1.738,1.738s1.738-0.78,1.738-1.738S16.958,20.557,16,20.557z"/></svg>