<svg xmlns="http://www.w3.org/2000/svg" viewBox="0 0 32 32"><!--! Font Icona - https://fonticona.com | License - https://fonticona.com/license | Copyright 2022 FontIcona.com --><path d="M8.515,20.236c-0.627,0-1.215-0.243-1.657-0.685l-4.096-4.096c-0.913-0.914-0.913-2.4,0-3.313l0.179-0.179c0.914-0.913,2.4-0.913,3.313,0l4.096,4.097c0.441,0.441,0.685,1.03,0.685,1.657c0,0.627-0.243,1.216-0.685,1.657l-0.178,0.178C9.731,19.993,9.143,20.236,8.515,20.236z M4.598,13.279c-0.089,0-0.177,0.033-0.244,0.099l-0.178,0.178c-0.131,0.131-0.131,0.354,0,0.486l4.096,4.095c0.172,0.172,0.314,0.171,0.485,0l0.179-0.179c0.086-0.086,0.099-0.189,0.099-0.243s-0.013-0.157-0.099-0.243L4.84,13.377C4.774,13.312,4.686,13.279,4.598,13.279z"/><path d="M6.438,22.314c-0.627,0-1.215-0.244-1.657-0.685l-4.096-4.096c-0.913-0.914-0.913-2.4,0-3.313l0.18-0.179c0.882-0.881,2.431-0.881,3.313,0.001l4.096,4.095c0.914,0.914,0.914,2.4,0,3.314L8.093,21.63C7.653,22.07,7.065,22.314,6.438,22.314z M2.52,15.357c-0.054,0-0.157,0.013-0.243,0.099l-0.179,0.179c-0.13,0.13-0.13,0.354,0.001,0.485l4.096,4.095c0.172,0.172,0.314,0.171,0.485,0l0.18-0.179c0.13-0.131,0.13-0.353-0.001-0.485l-4.096-4.096C2.676,15.37,2.573,15.357,2.52,15.357z"/><path d="M17.716,11.035c-0.627,0-1.215-0.243-1.657-0.685l-4.096-4.096c-0.913-0.914-0.913-2.4,0-3.313l0.179-0.179c0.914-0.913,2.4-0.913,3.313,0l4.096,4.097c0.441,0.441,0.685,1.03,0.685,1.657c0,0.627-0.243,1.216-0.685,1.657l-0.178,0.178C18.932,10.792,18.344,11.035,17.716,11.035z M13.799,4.078c-0.089,0-0.177,0.033-0.244,0.099l-0.178,0.178c-0.131,0.131-0.131,0.354,0,0.486l4.096,4.095c0.172,0.172,0.314,0.171,0.485,0l0.179-0.179c0.086-0.086,0.099-0.189,0.099-0.243s-0.013-0.157-0.099-0.243l-4.096-4.096C13.976,4.111,13.887,4.078,13.799,4.078z"/><path d="M19.794,8.958c-0.6,0-1.2-0.228-1.657-0.685l-4.096-4.096C13.6,3.735,13.357,3.147,13.357,2.52c0-0.627,0.243-1.215,0.685-1.657l0.177-0.177c0.915-0.914,2.401-0.914,3.314-0.001l4.096,4.097c0.441,0.441,0.685,1.03,0.685,1.657c0,0.627-0.244,1.216-0.686,1.657l-0.176,0.177C20.995,8.729,20.394,8.958,19.794,8.958z M15.876,2c-0.089,0-0.177,0.033-0.244,0.099l-0.176,0.177c-0.087,0.087-0.1,0.19-0.1,0.244s0.013,0.157,0.098,0.242l4.096,4.097c0.132,0.132,0.354,0.131,0.486,0l0.177-0.177c0.087-0.087,0.1-0.19,0.1-0.244s-0.013-0.157-0.099-0.243l-4.096-4.096C16.053,2.033,15.965,2,15.876,2z"/><path d="M9.643,18.181l-5.51-5.51l8.537-8.537l5.51,5.51L9.643,18.181z M6.961,12.67l2.682,2.682l5.709-5.709L12.67,6.961L6.961,12.67z"/><path d="M29.476,32c-0.676,0-1.357-0.262-1.878-0.783L11.193,14.814l1.414-1.414l16.404,16.404c0.24,0.24,0.625,0.262,0.84,0.048c0.215-0.215,0.193-0.6-0.048-0.84L13.4,12.607l1.414-1.414l16.404,16.404c1.025,1.024,1.046,2.67,0.048,3.668C30.775,31.756,30.128,32,29.476,32z"/></svg>