<svg xmlns="http://www.w3.org/2000/svg" viewBox="0 0 32 32"><!--! Font Icona - https://fonticona.com | License - https://fonticona.com/license | Copyright 2022 FontIcona.com --><path d="M9.805,26.87C4.398,26.87,0,22.421,0,16.953s4.398-9.917,9.805-9.917s9.805,4.449,9.805,9.917S15.212,26.87,9.805,26.87z M9.805,9.036C5.501,9.036,2,12.588,2,16.953s3.501,7.917,7.805,7.917s7.805-3.552,7.805-7.917S14.109,9.036,9.805,9.036z"/><path d="M16.377,11.677c-0.254,0-0.508-0.096-0.703-0.288c-0.393-0.389-0.397-1.021-0.009-1.415l9.294-9.411c0.388-0.392,1.021-0.396,1.414-0.009c0.393,0.389,0.397,1.021,0.009,1.415l-9.294,9.411C16.893,11.577,16.635,11.677,16.377,11.677z"/><path class="st0" d="M25.912,7.115c-0.552,0-1-0.447-1-1V2.024h-5.123c-0.552,0-1-0.447-1-1s0.448-1,1-1h5.501c0.909,0,1.621,0.712,1.621,1.621v4.47C26.912,6.668,26.464,7.115,25.912,7.115z M25.291,2.024h0.01H25.291z"/><path d="M14.845,31.976c-5.407,0-9.805-4.449-9.805-9.917s4.398-9.917,9.805-9.917s9.805,4.449,9.805,9.917S20.251,31.976,14.845,31.976z M14.845,14.142c-4.304,0-7.805,3.552-7.805,7.917s3.501,7.917,7.805,7.917s7.805-3.552,7.805-7.917S19.148,14.142,14.845,14.142z"/><path d="M21.417,16.782c-0.254,0-0.508-0.096-0.703-0.288c-0.393-0.389-0.397-1.021-0.009-1.415L30,5.667c0.388-0.392,1.021-0.396,1.414-0.009c0.393,0.389,0.397,1.021,0.009,1.415l-9.294,9.412C21.933,16.683,21.674,16.782,21.417,16.782z"/><path class="st0" d="M31,13.238c-0.552,0-1-0.447-1-1V7.115h-4.088c-0.552,0-1-0.447-1-1s0.448-1,1-1h4.467C31.288,5.115,32,5.827,32,6.736v5.502C32,12.791,31.552,13.238,31,13.238z M30.379,7.115h0.01H30.379z"/></svg>