<svg xmlns="http://www.w3.org/2000/svg" viewBox="0 0 32 32"><!--! Font Icona - https://fonticona.com | License - https://fonticona.com/license | Copyright 2022 FontIcona.com --><path d="M16.012,32.001c-0.212,0-0.425-0.021-0.638-0.065c-0.827-0.167-1.54-0.647-2.006-1.352c-0.446-0.673-0.616-1.475-0.482-2.268v-1.314l-2.552-1.054c-0.213,0.251-0.455,0.527-0.715,0.791c-0.072,0.089-0.149,0.175-0.231,0.255c-0.594,0.589-1.384,0.914-2.223,0.914c-0.005,0-0.01,0-0.015,0c-0.845-0.004-1.637-0.337-2.231-0.938C4.822,26.868,4.754,26.786,4.69,26.7c-0.503-0.673-0.715-1.506-0.595-2.342c0.117-0.811,0.533-1.529,1.175-2.033c0.26-0.257,0.531-0.504,0.782-0.729c-0.1-0.258-0.197-0.51-0.292-0.759c-0.235-0.612-0.46-1.199-0.703-1.784h-1.57c-1.59-0.066-2.853-1.23-3.046-2.768c-0.125-1.561,0.862-2.912,2.342-3.259c0.79-0.123,1.525-0.171,2.253-0.15c0.228-0.644,0.487-1.281,0.767-1.968c0.076-0.187,0.153-0.377,0.232-0.572C6,10.303,5.961,10.268,5.923,10.232c-0.309-0.283-0.636-0.583-0.94-0.9C4.36,8.684,4.064,7.921,4.083,7.117c0.019-0.805,0.349-1.553,0.931-2.108C6.229,3.813,8.166,3.83,9.346,5.031c0.316,0.281,0.645,0.647,0.934,0.97c0.018,0.021,0.035,0.04,0.053,0.06l0.13-0.05c0.84-0.319,1.615-0.614,2.384-0.932l-0.004-1.395c-0.064-0.382-0.058-0.77,0.02-1.151c0.168-0.828,0.648-1.541,1.353-2.008c0.704-0.466,1.546-0.633,2.376-0.461c0.827,0.167,1.54,0.647,2.006,1.352c0.447,0.674,0.616,1.476,0.482,2.27c-0.001,0.184-0.007,0.36-0.012,0.533c-0.01,0.312-0.019,0.586,0,0.857c0.683,0.284,1.383,0.55,2.124,0.831l0.399,0.152c0.015-0.017,0.031-0.034,0.046-0.051c0.294-0.324,0.612-0.674,0.95-0.998c0.646-0.622,1.409-0.958,2.234-0.908c0.816,0.016,1.576,0.349,2.141,0.938c1.199,1.216,1.185,3.126,0.002,4.29c-0.326,0.341-0.689,0.677-1.032,0.991c0.077,0.19,0.152,0.376,0.227,0.558c0.284,0.697,0.548,1.345,0.778,1.998c0.731-0.02,1.464,0.024,2.188,0.135l0.073,0.014c1.489,0.34,2.504,1.742,2.361,3.263c-0.18,1.574-1.443,2.751-3.006,2.818c-0.244-0.001-0.457-0.007-0.666-0.014c-0.334-0.012-0.65-0.024-0.941-0.001c-0.277,0.657-0.532,1.324-0.805,2.038l-0.2,0.519c0.255,0.228,0.531,0.479,0.795,0.74c0.034,0.027,0.067,0.056,0.099,0.085c0.625,0.562,0.996,1.337,1.041,2.181c0.045,0.844-0.241,1.654-0.806,2.282c-0.127,0.13-0.229,0.221-0.337,0.305c-0.668,0.52-1.495,0.747-2.335,0.643c-0.816-0.103-1.545-0.508-2.062-1.145c-0.259-0.263-0.5-0.538-0.712-0.788l-2.5,1.047v1.319c0.064,0.382,0.058,0.768-0.02,1.149c-0.168,0.828-0.648,1.541-1.353,2.007C17.227,31.821,16.625,32.001,16.012,32.001z M9.749,23.543l5.137,2.121l-0.02,2.943c-0.062,0.304-0.001,0.613,0.17,0.872c0.171,0.259,0.433,0.435,0.737,0.496c0.304,0.063,0.614,0.001,0.873-0.169c0.259-0.171,0.435-0.433,0.497-0.737c0.031-0.153,0.031-0.309,0-0.462l-0.02-0.199v-2.74l5.08-2.128l0.719,0.847c0.252,0.302,0.545,0.655,0.869,0.979l0.083,0.094c0.19,0.244,0.465,0.4,0.772,0.439c0.308,0.034,0.612-0.046,0.857-0.236c0.038-0.029,0.075-0.062,0.11-0.098c0.176-0.197,0.281-0.495,0.265-0.805s-0.152-0.595-0.383-0.802l-0.136-0.118c-0.312-0.312-0.646-0.609-0.936-0.866l-0.846-0.765l0.695-1.795c0.303-0.792,0.585-1.529,0.897-2.258l0.066-0.129c0.292-0.476,0.773-0.806,1.323-0.905c0.53-0.061,0.973-0.044,1.4-0.029c0.185,0.007,0.369,0.014,0.551,0.014c0.53-0.023,0.994-0.456,1.06-1.027c0.046-0.494-0.289-0.968-0.787-1.098c-0.623-0.092-1.254-0.127-1.88-0.104c-0.865,0.109-1.673-0.473-1.849-1.327c-0.221-0.627-0.475-1.248-0.748-1.918c-0.157-0.386-0.32-0.786-0.488-1.212l-0.246-0.626l0.487-0.464c0.156-0.148,0.323-0.303,0.496-0.461c0.32-0.295,0.663-0.608,0.986-0.945c0.212-0.209,0.319-0.463,0.321-0.732S25.76,6.67,25.57,6.478c-0.247-0.256-0.509-0.37-0.791-0.376c-0.286-0.009-0.548,0.099-0.751,0.294c-0.363,0.351-0.648,0.665-0.912,0.957c-0.189,0.209-0.37,0.406-0.539,0.58l-0.46,0.472L20.48,7.777c-0.845-0.321-1.638-0.622-2.413-0.951l-0.162-0.087c-0.465-0.309-0.765-0.804-0.821-1.36c-0.042-0.439-0.029-0.838-0.017-1.224c0.006-0.182,0.012-0.367,0.012-0.563l0.02-0.199c0.062-0.304,0.001-0.613-0.17-0.872c-0.171-0.259-0.433-0.435-0.737-0.496c-0.304-0.064-0.615-0.002-0.873,0.169c-0.259,0.171-0.435,0.434-0.497,0.737c-0.031,0.153-0.031,0.309,0,0.462l0.02,0.199v1.687c-0.061,0.655-0.359,1.152-0.826,1.461l-0.165,0.088c-0.866,0.364-1.731,0.693-2.679,1.053L9.812,8.4L9.353,7.941C9.175,7.764,8.987,7.556,8.791,7.337c-0.268-0.3-0.545-0.608-0.826-0.86C7.513,6.02,6.844,6.014,6.43,6.42C6.199,6.642,6.088,6.893,6.083,7.163c-0.006,0.27,0.093,0.525,0.279,0.721C6.7,8.233,6.995,8.502,7.273,8.757C7.506,8.97,7.729,9.175,7.924,9.37l0.463,0.463l-0.24,0.609c-0.168,0.43-0.333,0.834-0.492,1.222c-0.273,0.671-0.527,1.293-0.748,1.921c-0.194,0.851-0.999,1.412-1.874,1.287c-0.558-0.019-1.22,0.018-1.87,0.117c-0.434,0.104-0.774,0.571-0.732,1.094c0.066,0.52,0.53,0.947,1.099,0.972l1.82-0.001l0.088,0.016c0.549,0.1,1.031,0.43,1.323,0.905l0.069,0.135c0.277,0.66,0.531,1.32,0.797,2.012c0.171,0.446,0.348,0.907,0.54,1.389l0.256,0.645l-0.85,0.767c-0.29,0.257-0.624,0.553-0.937,0.865L6.529,23.88c-0.513,0.384-0.618,1.113-0.235,1.626c0.023,0.03,0.045,0.058,0.068,0.083c0.194,0.195,0.485,0.317,0.795,0.319c0.002,0,0.004,0,0.005,0c0.309,0,0.599-0.119,0.818-0.337c0.037-0.036,0.07-0.074,0.101-0.113l0.082-0.092c0.324-0.324,0.617-0.678,0.869-0.979L9.749,23.543z M5.195,12.882c0.007,0,0.014,0.001,0.021,0.001C5.209,12.882,5.202,12.883,5.195,12.882z M15.993,23.193c-0.004,0-0.008,0-0.012,0h-0.009c-0.003,0-0.007,0-0.011,0h0c-3.958-0.018-7.175-3.239-7.182-7.202c-0.003-1.928,0.744-3.74,2.104-5.105c1.36-1.365,3.17-2.119,5.098-2.122c0.004,0,0.008,0,0.012,0c3.952,0,7.187,3.212,7.214,7.165c0.043,1.884-0.655,3.688-1.968,5.062c-1.313,1.375-3.083,2.157-4.983,2.201l-0.251,0.001h0C16.001,23.193,15.997,23.193,15.993,23.193z M15.994,10.764c-0.003,0-0.006,0-0.009,0c-1.393,0.002-2.702,0.547-3.685,1.533c-0.983,0.987-1.523,2.298-1.521,3.69c0.005,2.872,2.343,5.206,5.214,5.206c0.002,0,0.003,0,0.006,0l0.212-0.001c1.366-0.031,2.638-0.593,3.582-1.582c0.944-0.988,1.446-2.285,1.415-3.651C21.188,13.085,18.85,10.764,15.994,10.764z"/></svg>