<svg xmlns="http://www.w3.org/2000/svg" viewBox="0 0 32 32"><!--! Font Icona - https://fonticona.com | License - https://fonticona.com/license | Copyright 2022 FontIcona.com --><path d="M17.824,31.995c-0.02,0-0.038,0-0.056,0h-3.586c-0.831,0-1.389-0.465-1.528-1.274c-0.071-0.337-0.155-0.708-0.24-1.079c-0.106-0.471-0.213-0.943-0.31-1.421c-0.654-0.238-1.327-0.512-2.051-0.833c-0.296,0.192-0.575,0.369-0.855,0.546c-0.409,0.259-0.82,0.518-1.226,0.786c-0.593,0.491-1.474,0.447-2.018-0.114l-0.096-0.109c-0.812-0.842-1.643-1.674-2.485-2.495c-0.262-0.238-0.428-0.594-0.444-0.979c-0.017-0.376,0.11-0.735,0.358-1.017c0.526-0.792,0.956-1.472,1.336-2.119c-0.278-0.715-0.559-1.388-0.847-2.034c-0.687-0.169-1.497-0.349-2.542-0.56c-0.786-0.163-1.234-0.722-1.234-1.534c0.033-1.237,0.033-2.415,0.033-3.614c0-0.81,0.44-1.346,1.241-1.512c0.863-0.18,1.718-0.37,2.563-0.578c0.123-0.278,0.237-0.557,0.352-0.835c0.158-0.382,0.315-0.763,0.487-1.134C4.521,9.84,4.372,9.606,4.225,9.374C3.931,8.91,3.638,8.447,3.333,7.991C3.111,7.724,2.994,7.391,3.001,7.04c0.007-0.39,0.165-0.753,0.445-1.022l0.091-0.08c0.842-0.822,1.688-1.686,1.691-1.688l0.811-0.83c0.492-0.503,1.253-0.598,1.853-0.234l0.866,0.524c0.039,0.025,0.703,0.464,1.465,0.897c0.273-0.105,0.522-0.21,0.771-0.315c0.384-0.161,0.768-0.322,1.16-0.461c0.078-0.388,0.155-0.73,0.231-1.073c0.109-0.487,0.219-0.975,0.31-1.465c0.139-0.755,0.791-1.297,1.558-1.297c0.01,0,0.019,0,0.027,0c1.18,0.022,2.279,0.022,3.5,0.022c0.753,0,1.401,0.535,1.541,1.272c0.154,0.812,0.344,1.668,0.563,2.547c0.633,0.281,1.284,0.545,1.929,0.8c0.684-0.412,1.396-0.864,2.169-1.381c0.998-0.664,1.715-0.147,2.055,0.219c0.718,0.748,1.523,1.551,2.452,2.441c0.914,0.84,0.464,1.721,0.228,2.06c-0.483,0.7-0.945,1.448-1.377,2.164c0.271,0.688,0.552,1.352,0.843,1.995c0.872,0.205,1.662,0.377,2.404,0.517c0.924,0.185,1.413,0.801,1.392,1.737v3.413c0,0.479-0.165,1.321-1.273,1.564c-0.766,0.155-1.571,0.34-2.535,0.581c-0.288,0.641-0.557,1.291-0.808,1.925c0.513,0.856,0.932,1.522,1.342,2.131c0.225,0.276,0.34,0.62,0.325,0.979c-0.015,0.393-0.183,0.755-0.471,1.021l-0.068,0.06c-0.821,0.812-1.643,1.633-2.454,2.464c-0.485,0.596-1.359,0.725-1.997,0.274l-0.059-0.043l-2.147-1.365c-0.695,0.322-1.334,0.59-1.943,0.814c-0.088,0.421-0.173,0.802-0.257,1.182c-0.1,0.445-0.198,0.891-0.292,1.335C19.069,31.821,18.297,31.995,17.824,31.995z M14.543,29.995h2.907c0.076-0.351,0.153-0.696,0.229-1.041c0.1-0.445,0.198-0.891,0.292-1.335c0.074-0.565,0.535-1.089,1.146-1.261c0.595-0.216,1.224-0.479,1.918-0.802c0.531-0.312,1.198-0.297,1.718,0.05l2.06,1.31c0.681-0.694,1.367-1.382,2.055-2.062c-0.405-0.614-0.828-1.293-1.338-2.149l-0.074-0.153c-0.16-0.417-0.16-0.877,0-1.294c0.298-0.755,0.615-1.525,0.955-2.272c0.181-0.405,0.516-0.723,0.939-0.886l0.113-0.036c0.957-0.241,1.767-0.431,2.515-0.588l0.001-2.902c-0.759-0.149-1.54-0.321-2.461-0.543c-0.51-0.167-0.858-0.468-1.065-0.869c-0.379-0.828-0.722-1.64-1.039-2.457c-0.161-0.374-0.161-0.838,0.012-1.243l0.062-0.121c0.429-0.715,0.891-1.472,1.383-2.205c-0.769-0.742-1.435-1.404-2.046-2.035c-0.793,0.522-1.504,0.97-2.193,1.379l-0.155,0.075c-0.404,0.154-0.85,0.154-1.254,0c-0.756-0.298-1.514-0.604-2.27-0.941c-0.438-0.21-0.758-0.556-0.924-0.985l-0.037-0.115c-0.216-0.854-0.406-1.691-0.565-2.493c-0.976,0-1.884-0.002-2.83-0.017c-0.081,0.399-0.169,0.796-0.258,1.192c-0.086,0.385-0.173,0.771-0.25,1.157c-0.075,0.607-0.556,1.162-1.212,1.345c-0.341,0.116-0.724,0.278-1.106,0.439c-0.308,0.13-0.615,0.259-0.927,0.375c-0.404,0.17-0.886,0.17-1.322-0.012L9.416,6.447C8.518,5.946,7.722,5.42,7.688,5.398L7.193,5.1L6.658,5.647C6.656,5.649,5.942,6.377,5.168,7.14C5.42,7.524,5.667,7.913,5.914,8.303c0.189,0.299,0.379,0.599,0.571,0.896c0.332,0.479,0.35,1.142,0.038,1.659c-0.172,0.367-0.327,0.745-0.483,1.123c-0.142,0.344-0.283,0.688-0.436,1.024c-0.18,0.401-0.507,0.72-0.92,0.889l-0.138,0.045c-0.828,0.207-1.666,0.397-2.513,0.577c0,0.971-0.003,1.924-0.024,2.893c0.96,0.198,1.728,0.372,2.451,0.555c0.51,0.167,0.874,0.491,1.07,0.911c0.35,0.777,0.682,1.573,0.993,2.382c0.178,0.404,0.178,0.916-0.019,1.361l-0.05,0.099C6.064,23.39,5.63,24.088,5.1,24.892c0.684,0.672,1.349,1.338,2,2.009c0.342-0.223,0.687-0.44,1.031-0.658c0.336-0.213,0.673-0.425,1.004-0.642c0.491-0.353,1.181-0.375,1.725-0.043c0.724,0.321,1.392,0.591,2.037,0.823c0.626,0.18,1.085,0.725,1.15,1.377c0.087,0.425,0.203,0.934,0.318,1.442C14.425,29.465,14.485,29.729,14.543,29.995z M12.07,28.049c0,0.009,0.002,0.019,0.006,0.028C12.074,28.068,12.072,28.059,12.07,28.049z M19.941,27.96c-0.004,0.018-0.008,0.035-0.012,0.053C19.935,27.995,19.938,27.978,19.941,27.96z M21.662,27.282c0.004,0.003,0.007,0.005,0.011,0.008L21.662,27.282z M10.266,27.25c-0.01,0.007-0.02,0.013-0.029,0.02C10.246,27.264,10.256,27.257,10.266,27.25z M4.747,24.547c0.008,0.008,0.017,0.017,0.024,0.024C4.764,24.562,4.756,24.555,4.747,24.547z M4.667,21.996c0.003,0.007,0.005,0.014,0.008,0.021C4.673,22.01,4.67,22.003,4.667,21.996z M28.234,19.805c-0.001,0.002-0.002,0.003-0.003,0.005C28.232,19.808,28.233,19.807,28.234,19.805z M3.781,12.182c0,0.001-0.001,0.002-0.001,0.003C3.78,12.184,3.781,12.183,3.781,12.182z M4.811,10.289c0.004,0.008,0.009,0.016,0.014,0.022C4.819,10.304,4.814,10.297,4.811,10.289z M27.265,9.947c0.003,0.008,0.006,0.016,0.009,0.023C27.271,9.963,27.268,9.955,27.265,9.947z M6.854,4.895c0.001,0.001,0.001,0.001,0.002,0.001L6.854,4.895z M7.471,4.815L7.471,4.815C7.471,4.816,7.471,4.815,7.471,4.815z M10.121,4.646c-0.004,0.001-0.009,0.003-0.013,0.005C10.112,4.648,10.117,4.647,10.121,4.646z M12.124,3.986C12.12,4,12.117,4.014,12.115,4.027C12.118,4.014,12.121,4,12.124,3.986z M12.287,3.784c-0.005,0.001-0.01,0.003-0.016,0.006C12.277,3.788,12.282,3.786,12.287,3.784z M14.662,1.655c0,0.001,0,0.001,0,0.002C14.662,1.656,14.662,1.656,14.662,1.655z"/><path d="M13.892,24.321c-0.135,0-0.271-0.027-0.402-0.085c-2.142-0.945-3.786-2.667-4.632-4.849c-0.846-2.183-0.791-4.563,0.154-6.704c0.321-0.729,0.741-1.411,1.249-2.026c1.588-1.789,3.744-2.835,6.095-2.974c2.347-0.133,4.613,0.646,6.374,2.211c0.259,0.229,0.504,0.475,0.734,0.733c0.367,0.413,0.33,1.045-0.082,1.412c-0.415,0.367-1.046,0.329-1.412-0.082c-0.178-0.2-0.366-0.39-0.567-0.567c-1.362-1.211-3.113-1.828-4.93-1.71c-1.816,0.107-3.483,0.916-4.693,2.276c-0.366,0.446-0.689,0.972-0.938,1.534c-0.729,1.652-0.772,3.489-0.12,5.174c0.653,1.684,1.922,3.013,3.574,3.741c0.506,0.223,0.734,0.813,0.512,1.318C14.643,24.099,14.276,24.321,13.892,24.321z"/><circle cx="15.98" cy="15.99" r="2"/><path d="M16.474,16.92c-0.5,0-0.933-0.374-0.992-0.884c-0.064-0.548,0.328-1.045,0.877-1.109l6.729-0.79c0.538-0.072,1.045,0.327,1.109,0.877c0.064,0.548-0.328,1.045-0.877,1.109l-6.729,0.79C16.552,16.918,16.513,16.92,16.474,16.92z"/></svg>