<svg xmlns="http://www.w3.org/2000/svg" viewBox="0 0 32 32"><!--! Font Icona - https://fonticona.com | License - https://fonticona.com/license | Copyright 2022 FontIcona.com --><path d="M16.11,25.633c-0.699,0-1.402-0.074-2.103-0.226c-2.575-0.556-4.778-2.082-6.206-4.296c-1.427-2.214-1.907-4.852-1.351-7.427c0.556-2.575,2.082-4.779,4.296-6.207c2.213-1.428,4.849-1.908,7.427-1.351c2.574,0.556,4.778,2.082,6.206,4.296v0c1.427,2.214,1.907,4.852,1.351,7.427c-0.556,2.575-2.082,4.779-4.296,6.207C19.822,25.096,17.984,25.633,16.11,25.633z M16.075,7.902c-1.494,0-2.959,0.428-4.244,1.257c-1.766,1.138-2.981,2.896-3.425,4.948c-0.444,2.053-0.062,4.156,1.077,5.92c1.138,1.766,2.895,2.981,4.947,3.425c2.052,0.446,4.155,0.062,5.92-1.077c1.766-1.138,2.981-2.895,3.425-4.948c0.444-2.052,0.062-4.155-1.077-5.92c0,0,0,0,0,0c-1.138-1.765-2.895-2.981-4.947-3.424C17.193,7.961,16.632,7.902,16.075,7.902z"/><path d="M24.614,19.198c-0.076,0-0.153-0.009-0.23-0.026c-0.537-0.127-0.87-0.666-0.744-1.203l2.66-11.28c0.128-0.538,0.668-0.873,1.203-0.744c0.537,0.126,0.87,0.665,0.744,1.203l-2.66,11.28C25.478,18.888,25.067,19.198,24.614,19.198z"/><path d="M4.689,26.619c-0.076,0-0.153-0.009-0.23-0.026c-0.537-0.127-0.87-0.666-0.744-1.203l2.66-11.28c0.128-0.538,0.666-0.874,1.203-0.744c0.537,0.126,0.87,0.665,0.744,1.203l-2.66,11.28C5.553,26.309,5.143,26.619,4.689,26.619z"/><path d="M31,32c-0.256,0-0.512-0.098-0.707-0.293l-8.794-8.794c-0.391-0.391-0.391-1.023,0-1.414s1.023-0.391,1.414,0l8.794,8.794c0.391,0.391,0.391,1.023,0,1.414C31.512,31.902,31.256,32,31,32z"/><path d="M9.682,10.681c-0.256,0-0.512-0.098-0.707-0.293L0.495,1.909c-0.391-0.391-0.391-1.023,0-1.414s1.023-0.391,1.414,0l8.479,8.479c0.391,0.391,0.391,1.023,0,1.414C10.193,10.583,9.938,10.681,9.682,10.681z"/><path d="M24.381,31.169c-0.256,0-0.512-0.098-0.707-0.293c-0.391-0.391-0.391-1.023,0-1.414l5.518-5.518c0.391-0.391,1.023-0.391,1.414,0s0.391,1.023,0,1.414l-5.518,5.518C24.893,31.071,24.637,31.169,24.381,31.169z"/><path class="st0" d="M1,8.141c-0.553,0-1-0.448-1-1V1.623C0,0.713,0.713,0,1.623,0h5.518c0.553,0,1,0.448,1,1s-0.447,1-1,1H2v5.141C2,7.693,1.553,8.141,1,8.141z"/></svg>