<svg xmlns="http://www.w3.org/2000/svg" viewBox="0 0 32 32"><!--! Font Icona - https://fonticona.com | License - https://fonticona.com/license | Copyright 2022 FontIcona.com --><path d="M16,32c-5.287,0-9.589-4.302-9.589-9.589s4.302-9.589,9.589-9.589s9.589,4.302,9.589,9.589S21.287,32,16,32z M16,14.821c-4.185,0-7.589,3.405-7.589,7.589S11.815,30,16,30s7.589-3.405,7.589-7.589S20.185,14.821,16,14.821z"/><path d="M16,14.821c-0.553,0-1-0.448-1-1V1c0-0.552,0.447-1,1-1s1,0.448,1,1v12.821C17,14.374,16.553,14.821,16,14.821z"/><path d="M24.556,23.411H7.411c-0.553,0-1-0.448-1-1s0.447-1,1-1h17.145c0.553,0,1,0.448,1,1S25.108,23.411,24.556,23.411z"/></svg>