<svg xmlns="http://www.w3.org/2000/svg" viewBox="0 0 32 32"><!--! Font Icona - https://fonticona.com | License - https://fonticona.com/license | Copyright 2022 FontIcona.com --><path d="M9,10H1c-0.347,0-0.668-0.18-0.851-0.475S-0.05,8.862,0.105,8.553l4-8c0.34-0.678,1.449-0.678,1.789,0l4,8c0.155,0.31,0.139,0.678-0.044,0.973S9.347,10,9,10z M2.618,8h4.764L5,3.236L2.618,8z"/><path d="M5,32c-2.757,0-5-2.243-5-5s2.243-5,5-5s5,2.243,5,5S7.757,32,5,32z M5,24c-1.654,0-3,1.346-3,3s1.346,3,3,3s3-1.346,3-3S6.654,24,5,24z"/><path d="M27,11.375c-0.293,0-0.57-0.128-0.761-0.351l-4-4.688c-0.319-0.374-0.319-0.925,0-1.299l4-4.688c0.381-0.445,1.141-0.445,1.521,0l4,4.688c0.319,0.374,0.319,0.925,0,1.299l-4,4.688C27.57,11.247,27.293,11.375,27,11.375z M24.314,5.688L27,8.834l2.686-3.146L27,2.541L24.314,5.688z"/><path d="M29.472,32c-0.166,0-0.333-0.041-0.483-0.125L27,30.776l-1.988,1.099c-0.334,0.187-0.746,0.163-1.06-0.058c-0.312-0.221-0.473-0.601-0.411-0.979l0.391-2.396l-1.647-1.688c-0.262-0.269-0.352-0.66-0.232-1.016s0.427-0.614,0.797-0.671l2.236-0.342l1.01-2.15C26.26,22.224,26.612,22,27,22s0.74,0.224,0.905,0.575l1.01,2.15l2.236,0.342c0.37,0.057,0.678,0.315,0.797,0.671s0.029,0.747-0.232,1.016l-1.647,1.688l0.391,2.396c0.062,0.378-0.099,0.758-0.411,0.979C29.876,31.938,29.674,32,29.472,32z M27,28.634c0.167,0,0.333,0.042,0.483,0.125l0.67,0.37l-0.141-0.862c-0.051-0.313,0.05-0.633,0.271-0.859l0.641-0.657l-0.84-0.128c-0.329-0.05-0.612-0.262-0.754-0.563L27,25.354l-0.331,0.705c-0.142,0.302-0.425,0.514-0.754,0.563l-0.84,0.128l0.641,0.657c0.222,0.227,0.322,0.546,0.271,0.859l-0.141,0.862l0.67-0.37C26.667,28.676,26.833,28.634,27,28.634z"/><path d="M20.25,21.431h-8c-0.553,0-1-0.447-1-1v-8c0-0.553,0.447-1,1-1h8c0.553,0,1,0.447,1,1v8C21.25,20.983,20.803,21.431,20.25,21.431z M13.25,19.431h6v-6h-6V19.431z"/></svg>