<svg xmlns="http://www.w3.org/2000/svg" viewBox="0 0 32 32"><!--! Font Icona - https://fonticona.com | License - https://fonticona.com/license | Copyright 2022 FontIcona.com --><path d="M16,30.517c-8.822,0-16-6.936-16-15.461V5.424c0-2.173,1.769-3.941,3.941-3.941h24.117C30.231,1.483,32,3.251,32,5.424v9.632C32,23.582,24.822,30.517,16,30.517z M3.941,3.483C2.871,3.483,2,4.354,2,5.424v9.632c0,7.422,6.28,13.461,14,13.461s14-6.039,14-13.461V5.424c0-1.07-0.871-1.941-1.941-1.941H3.941z"/><path d="M16,24.144c-0.981,0-1.903-0.382-2.597-1.076l-7.677-7.677c-0.693-0.693-1.074-1.615-1.074-2.596s0.382-1.903,1.074-2.596c0.667-0.667,1.61-1.014,2.597-1.05c0.982,0,1.929,0.383,2.596,1.051L16,15.28l5.082-5.081c1.406-1.406,3.784-1.405,5.19-0.002l0.001,0.001c1.431,1.432,1.432,3.761,0.001,5.192l-7.679,7.678C17.903,23.761,16.981,24.144,16,24.144z M8.321,11.148c-0.456,0-0.886,0.169-1.18,0.464c-0.316,0.315-0.489,0.735-0.489,1.182c0,0.447,0.173,0.867,0.488,1.182l7.678,7.677c0.631,0.632,1.733,0.631,2.362,0l7.68-7.678c0.651-0.652,0.65-1.713-0.001-2.365c-0.62-0.617-1.747-0.616-2.363,0.001L16,18.108l-6.495-6.495C9.21,11.318,8.779,11.149,8.321,11.148C8.322,11.148,8.322,11.148,8.321,11.148z"/></svg>