<svg xmlns="http://www.w3.org/2000/svg" viewBox="0 0 32 32"><!--! Font Icona - https://fonticona.com | License - https://fonticona.com/license | Copyright 2022 FontIcona.com --><path d="M11.104,27.365c-0.256,0-0.512-0.098-0.707-0.293L0.293,16.968c-0.391-0.391-0.391-1.023,0-1.414L10.467,5.38c0.391-0.391,1.023-0.391,1.414,0L14.5,7.999c0.391,0.391,0.391,1.023,0,1.414s-1.023,0.391-1.414,0l-1.912-1.912l-8.76,8.76l8.69,8.69l3.673-3.673l-4.971-4.971c-0.391-0.391-0.391-1.023,0-1.414s1.023-0.391,1.414,0l5.678,5.678c0.391,0.391,0.391,1.023,0,1.414l-5.087,5.087C11.616,27.268,11.36,27.365,11.104,27.365z"/><path d="M20.826,26.913L20.826,26.913c-0.265,0-0.52-0.105-0.707-0.293L17.5,24.001c-0.391-0.391-0.391-1.023,0-1.414s1.023-0.391,1.414,0l1.912,1.912l8.76-8.76l-8.69-8.69l-3.673,3.673l4.971,4.971c0.391,0.391,0.391,1.023,0,1.415c-0.391,0.391-1.023,0.391-1.414,0l-5.678-5.679c-0.391-0.391-0.391-1.023,0-1.414l5.087-5.087c0.391-0.391,1.023-0.391,1.414,0l10.104,10.104c0.391,0.391,0.391,1.023,0,1.414L21.533,26.62C21.346,26.808,21.091,26.913,20.826,26.913z"/></svg>