<svg xmlns="http://www.w3.org/2000/svg" viewBox="0 0 32 32"><!--! Font Icona - https://fonticona.com | License - https://fonticona.com/license | Copyright 2022 FontIcona.com --><path d="M27.079,32c-0.552,0-1-0.447-1-1V12.079C26.079,6.521,21.558,2,16,2S5.921,6.521,5.921,12.079V31c0,0.553-0.448,1-1,1s-1-0.447-1-1V12.079C3.921,5.419,9.339,0,16,0s12.079,5.419,12.079,12.079V31C28.079,31.553,27.631,32,27.079,32z"/><path d="M19.705,32c-1.552,0-2.244-1.437-2.749-2.486c-0.275-0.57-0.651-1.353-0.946-1.353c-0.294,0-0.67,0.782-0.945,1.353C14.56,30.563,13.87,32,12.318,32s-2.243-1.437-2.748-2.486c-0.274-0.57-0.65-1.353-0.945-1.353c-0.294,0-0.67,0.782-0.945,1.353C7.175,30.563,6.484,32,4.932,32c-0.552,0-1-0.447-1-1s0.448-1,1-1c0.294,0,0.67-0.782,0.945-1.353c0.505-1.05,1.196-2.486,2.748-2.486s2.243,1.437,2.748,2.486c0.274,0.57,0.65,1.353,0.945,1.353c0.294,0,0.67-0.782,0.944-1.353c0.505-1.05,1.196-2.486,2.748-2.486c1.552,0,2.244,1.437,2.748,2.485C19.033,29.218,19.409,30,19.705,30c0.552,0,1,0.447,1,1S20.257,32,19.705,32z"/><path d="M27.068,32c-1.552,0-2.244-1.437-2.749-2.486c-0.275-0.57-0.651-1.353-0.946-1.353c-0.294,0-0.67,0.782-0.945,1.353C21.923,30.563,21.232,32,19.681,32s-2.243-1.437-2.748-2.485c-0.274-0.571-0.65-1.354-0.945-1.354c-0.294,0-0.67,0.782-0.945,1.353C14.538,30.563,13.847,32,12.295,32c-0.552,0-1-0.447-1-1s0.448-1,1-1c0.294,0,0.67-0.782,0.945-1.353c0.505-1.05,1.196-2.486,2.748-2.486c1.552,0,2.243,1.437,2.748,2.486C19.01,29.218,19.386,30,19.681,30s0.67-0.782,0.945-1.353c0.505-1.05,1.196-2.486,2.748-2.486c1.552,0,2.244,1.437,2.748,2.485C26.396,29.218,26.772,30,27.068,30c0.552,0,1,0.447,1,1S27.62,32,27.068,32z"/><path d="M20.719,17.163c-2.02,0-3.601-2.076-3.601-4.726s1.582-4.726,3.601-4.726s3.601,2.076,3.601,4.726S22.738,17.163,20.719,17.163z M20.719,9.712c-0.757,0-1.601,1.119-1.601,2.726s0.844,2.726,1.601,2.726s1.601-1.119,1.601-2.726S21.476,9.712,20.719,9.712z"/><path d="M11.281,17.163c-2.02,0-3.601-2.076-3.601-4.726s1.582-4.726,3.601-4.726s3.601,2.076,3.601,4.726S13.301,17.163,11.281,17.163z M11.281,9.712c-0.757,0-1.601,1.119-1.601,2.726s0.844,2.726,1.601,2.726s1.601-1.119,1.601-2.726S12.039,9.712,11.281,9.712z"/></svg>