<svg xmlns="http://www.w3.org/2000/svg" viewBox="0 0 32 32"><!--! Font Icona - https://fonticona.com | License - https://fonticona.com/license | Copyright 2022 FontIcona.com --><path d="M26.515,17.856H5.485c-1.937,0-3.513-1.576-3.513-3.512v-3.35c0-1.937,1.576-3.512,3.513-3.512h21.029c1.937,0,3.513,1.576,3.513,3.512v3.35C30.027,16.28,28.451,17.856,26.515,17.856z M5.485,9.481c-0.834,0-1.513,0.678-1.513,1.512v3.35c0,0.834,0.679,1.512,1.513,1.512h21.029c0.834,0,1.513-0.678,1.513-1.512v-3.35c0-0.834-0.679-1.512-1.513-1.512H5.485z"/><path d="M24.375,32H7.625c-1.937,0-3.512-1.576-3.512-3.512V16.856h2v11.632C6.113,29.322,6.791,30,7.625,30h16.75c0.834,0,1.512-0.678,1.512-1.512V16.856h2v11.632C27.887,30.424,26.312,32,24.375,32z"/><rect x="15" y="8.481" width="2" height="22.519"/><path d="M19.712,9.218c-1.733,0-3.379-0.695-3.637-0.809c-0.729-0.321-1.135-1.175-0.925-1.943c0.126-0.463,1.295-4.57,3.438-5.877c2.245-1.369,5.622,0.048,5.999,0.214c0.729,0.321,1.136,1.175,0.926,1.942c-0.126,0.463-1.296,4.574-3.438,5.881C21.357,9.064,20.525,9.218,19.712,9.218z M17.167,6.693c0.909,0.339,2.841,0.852,3.866,0.227c1.033-0.631,2.014-2.913,2.463-4.399c-0.909-0.338-2.84-0.85-3.867-0.224C18.596,2.927,17.615,5.208,17.167,6.693z"/><path d="M12.288,9.218c-0.813,0-1.646-0.153-2.362-0.591C7.783,7.32,6.613,3.209,6.487,2.745c-0.21-0.767,0.196-1.62,0.926-1.941c0.378-0.167,3.756-1.584,5.999-0.214c2.143,1.307,3.312,5.414,3.438,5.878c0.21,0.767-0.196,1.621-0.926,1.942C15.667,8.522,14.021,9.218,12.288,9.218z M8.504,2.521c0.449,1.487,1.43,3.769,2.463,4.399c1.023,0.625,2.955,0.112,3.866-0.227c-0.449-1.486-1.429-3.766-2.462-4.396C11.345,1.67,9.416,2.182,8.504,2.521z"/></svg>