<svg xmlns="http://www.w3.org/2000/svg" viewBox="0 0 32 32"><!--! Font Icona - https://fonticona.com | License - https://fonticona.com/license | Copyright 2022 FontIcona.com --><rect x="18.089" y="11.667" transform="matrix(0.7072 -0.707 0.707 0.7072 -4.1624 17.5363)" width="2" height="4.253"/><rect x="11.561" y="4.644" transform="matrix(0.7071 -0.7072 0.7072 0.7071 -1.4578 11.0108)" width="2" height="5.241"/><path d="M16,13.947c-1.788,0-3.243-1.455-3.243-3.243S14.212,7.461,16,7.461s3.243,1.455,3.243,3.243S17.788,13.947,16,13.947z M16,9.461c-0.686,0-1.243,0.558-1.243,1.243s0.558,1.243,1.243,1.243s1.243-0.558,1.243-1.243S16.686,9.461,16,9.461z"/><path d="M16,27.325c-1.788,0-3.243-1.455-3.243-3.244c0-1.788,1.455-3.243,3.243-3.243s3.243,1.455,3.243,3.243C19.243,25.87,17.788,27.325,16,27.325z M16,22.838c-0.686,0-1.243,0.558-1.243,1.243s0.558,1.244,1.243,1.244s1.243-0.558,1.243-1.244S16.686,22.838,16,22.838z"/><path d="M21.868,19.816c-1.788,0-3.243-1.455-3.243-3.243s1.455-3.243,3.243-3.243c1.789,0,3.244,1.455,3.244,3.243S23.657,19.816,21.868,19.816z M21.868,15.33c-0.686,0-1.243,0.558-1.243,1.243s0.558,1.243,1.243,1.243s1.244-0.558,1.244-1.243S22.554,15.33,21.868,15.33z"/><rect x="15" y="12.947" width="2" height="8.891"/><path d="M16,32c-0.834,0-1.617-0.323-2.204-0.911L0.91,18.204c-1.216-1.215-1.216-3.193,0-4.408L13.796,0.911c1.174-1.175,3.234-1.175,4.408,0L31.09,13.796c1.216,1.215,1.216,3.193,0,4.408L18.204,31.089C17.617,31.677,16.834,32,16,32z M16,2c-0.3,0-0.58,0.115-0.79,0.325L2.324,15.21c-0.436,0.436-0.436,1.145,0,1.58L15.21,29.675c0.42,0.419,1.16,0.419,1.58,0l0,0L29.676,16.79c0.436-0.436,0.436-1.145,0-1.58L16.79,2.325C16.58,2.115,16.3,2,16,2z"/></svg>