<svg xmlns="http://www.w3.org/2000/svg" viewBox="0 0 32 32"><!--! Font Icona - https://fonticona.com | License - https://fonticona.com/license | Copyright 2022 FontIcona.com --><path d="M12.302,30.537c-0.149,0-0.301-0.034-0.444-0.104c-0.494-0.246-0.696-0.846-0.45-1.341c0.408-0.82,0.26-1.542,0.258-1.548c-0.011-0.043-0.018-0.086-0.022-0.13c-0.207-1.924,0.089-3.379,0.422-4.335c-0.684-0.169-1.34-0.401-1.959-0.693c-0.65-0.307-1.299-0.744-1.826-1.231c-1.939-1.796-2.641-4.707-1.788-7.415c0.234-0.747,0.554-1.652,1.018-2.379c-0.189-0.811-0.401-2.41,0.331-3.952c0.15-0.316,0.456-0.531,0.805-0.566c0.099-0.007,2.283-0.207,4.247,1.302c0.635-0.139,1.777-0.344,3.09-0.369c1.338,0.025,2.489,0.23,3.126,0.37c1.966-1.509,4.15-1.311,4.248-1.303c0.349,0.035,0.654,0.25,0.805,0.566c0.732,1.542,0.521,3.141,0.331,3.952c0.464,0.727,0.783,1.632,1.018,2.38c0.853,2.707,0.151,5.617-1.788,7.414c-0.527,0.488-1.176,0.925-1.827,1.232c-0.619,0.292-1.275,0.524-1.958,0.693c0.333,0.956,0.629,2.411,0.422,4.335c-0.047,0.312-0.087,1.107,0.21,1.631c0.272,0.48,0.104,1.091-0.377,1.363c-0.481,0.272-1.092,0.104-1.363-0.377c-0.696-1.23-0.478-2.72-0.45-2.885c0.294-2.756-0.67-4.179-0.711-4.238c-0.205-0.295-0.24-0.683-0.085-1.007c0.154-0.324,0.468-0.546,0.826-0.572c0.138-0.01,0.273-0.034,0.409-0.057c0.785-0.135,1.534-0.369,2.225-0.694c0.465-0.219,0.945-0.543,1.32-0.891c1.375-1.273,1.861-3.372,1.239-5.346c-0.122-0.391-0.495-1.579-0.968-2.143c-0.23-0.274-0.297-0.651-0.173-0.987c0.003-0.009,0.404-1.165,0.103-2.36c-0.624,0.065-1.634,0.305-2.522,1.122c-0.254,0.235-0.611,0.32-0.947,0.227c-0.014-0.004-1.416-0.391-3.111-0.423c-1.658,0.032-3.061,0.419-3.074,0.423c-0.335,0.093-0.693,0.007-0.947-0.227c-0.888-0.816-1.896-1.056-2.522-1.122c-0.301,1.195,0.1,2.351,0.104,2.364c0.119,0.334,0.054,0.711-0.175,0.982c-0.473,0.564-0.846,1.751-0.968,2.142c-0.622,1.976-0.136,4.074,1.239,5.347c0.375,0.347,0.855,0.672,1.319,0.89c0.691,0.326,1.44,0.56,2.228,0.695c0.134,0.022,0.27,0.047,0.407,0.057c0.362,0.026,0.683,0.248,0.835,0.578c0.153,0.33,0.114,0.717-0.101,1.011c-0.034,0.049-0.986,1.456-0.701,4.235c0.065,0.334,0.227,1.515-0.428,2.832C13.023,30.333,12.67,30.537,12.302,30.537z"/><path d="M16,32C7.178,32,0,24.822,0,16S7.178,0,16,0s16,7.178,16,16S24.822,32,16,32z M16,2C8.28,2,2,8.28,2,16s6.28,14,14,14s14-6.28,14-14S23.72,2,16,2z"/><path d="M10.583,27.192c-0.877,0-1.758-0.222-2.39-0.757c-0.324-0.274-0.543-0.581-0.735-0.852c-0.141-0.197-0.262-0.367-0.386-0.471c-0.274-0.231-0.612-0.446-0.881-0.563c-0.545-0.088-0.926-0.609-0.838-1.155c0.087-0.545,0.59-0.922,1.137-0.836c0.195,0.031,0.362,0.097,0.5,0.157c0.445,0.193,0.944,0.509,1.368,0.865c0.318,0.268,0.536,0.573,0.729,0.843c0.143,0.201,0.267,0.374,0.398,0.486c0.46,0.39,1.615,0.349,2.302,0.053c0.508-0.22,1.095,0.015,1.314,0.521c0.219,0.507-0.015,1.096-0.521,1.314C12.01,27.044,11.298,27.192,10.583,27.192z"/></svg>