<svg xmlns="http://www.w3.org/2000/svg" viewBox="0 0 32 32"><!--! Font Icona - https://fonticona.com | License - https://fonticona.com/license | Copyright 2022 FontIcona.com --><path d="M16,30.469c-0.603,0-1.205-0.18-1.674-0.539L1.104,19.799c-0.934-0.715-1.348-2.094-0.962-3.207L4.96,2.722c0.375-1.079,1.094-1.195,1.386-1.195c0.292,0,1.011,0.116,1.386,1.194L16,26.436l8.268-23.715c0.376-1.077,1.094-1.194,1.386-1.194c0.001,0,0.001,0,0.001,0c0.292,0,1.011,0.117,1.385,1.195l4.818,13.869c0.387,1.113-0.027,2.492-0.963,3.208L17.675,29.93C17.205,30.289,16.602,30.469,16,30.469z M6.347,4.824L2.032,17.247c-0.101,0.29,0.045,0.777,0.289,0.964l11.863,9.091L6.347,4.824z M25.652,4.824l-7.836,22.477l11.862-9.09c0.244-0.187,0.391-0.674,0.29-0.964L25.652,4.824z M5.803,3.282L5.803,3.282L5.803,3.282z M6.89,3.282L6.89,3.282L6.89,3.282z"/><rect x="2.666" y="11.375" width="26.667" height="2"/><rect x="8.333" y="10.083" transform="matrix(0.7886 -0.615 0.615 0.7886 -10.8939 10.1635)" width="2" height="21.682"/><rect x="11.826" y="19.924" transform="matrix(0.6151 -0.7884 0.7884 0.6151 -7.7731 25.9243)" width="21.682" height="2"/></svg>