<svg xmlns="http://www.w3.org/2000/svg" viewBox="0 0 32 32"><!--! Font Icona - https://fonticona.com | License - https://fonticona.com/license | Copyright 2022 FontIcona.com --><path d="M7.527,25.497c-1.865,0-6.233,0-6.557-5.391c-0.094-1.561,0.287-2.819,1.133-3.74c1.361-1.482,3.6-1.725,5.398-1.77c1.04-0.02,4.198-0.104,5.932,2c0.968,1.175,1.205,2.874,0.631,4.544l0,0c-0.138,0.402-0.319,0.786-0.538,1.142C12.227,24.393,9.524,25.497,7.527,25.497z M7.917,16.592c-0.119,0-0.241,0.002-0.365,0.005c-1.403,0.035-3.123,0.194-3.975,1.122c-0.472,0.514-0.671,1.256-0.61,2.268c0.179,2.968,1.676,3.511,4.561,3.511c1.427,0,3.424-0.847,4.297-2.264c0.142-0.23,0.259-0.479,0.349-0.741v-0.001c0.346-1.008,0.24-1.988-0.283-2.623C11.183,17.011,9.881,16.592,7.917,16.592z"/><path d="M24.312,25.497c-1.998,0-4.7-1.104-6-3.215c-0.219-0.355-0.4-0.739-0.538-1.142c-0.574-1.67-0.337-3.369,0.631-4.544c1.733-2.104,4.893-2.021,5.931-2c1.798,0.045,4.037,0.287,5.398,1.77c0.846,0.921,1.228,2.18,1.133,3.741C30.544,25.497,26.177,25.497,24.312,25.497z M23.921,16.592c-1.964,0-3.266,0.419-3.973,1.276c-0.523,0.635-0.629,1.615-0.283,2.623v0.001c0.09,0.262,0.208,0.511,0.349,0.741c0.873,1.417,2.87,2.264,4.297,2.264c2.885,0,4.382-0.543,4.561-3.51c0.061-1.013-0.139-1.755-0.61-2.269c-0.852-0.928-2.572-1.087-3.975-1.122C24.163,16.594,24.041,16.592,23.921,16.592z"/><path d="M0.999,18.021c-0.175,0-0.352-0.046-0.513-0.143c-0.474-0.284-0.627-0.898-0.343-1.372L5.85,6.988c0.177-0.295,0.493-0.478,0.837-0.485c0.33,0.002,0.667,0.163,0.856,0.45L9.15,9.397c0.304,0.462,0.175,1.082-0.286,1.386c-0.462,0.305-1.082,0.176-1.385-0.286L6.747,9.383l-4.889,8.152C1.67,17.848,1.339,18.021,0.999,18.021z"/><path d="M31.001,18.021c-0.34,0-0.671-0.173-0.858-0.485l-4.889-8.152l-0.732,1.114c-0.303,0.462-0.922,0.59-1.385,0.286c-0.461-0.304-0.59-0.924-0.286-1.386l1.607-2.444c0.189-0.287,0.511-0.441,0.856-0.45c0.344,0.008,0.66,0.19,0.837,0.485l5.708,9.518c0.284,0.474,0.13,1.088-0.343,1.372C31.354,17.975,31.176,18.021,31.001,18.021z"/><path d="M17.763,19.59c-0.989-0.988-2.712-0.988-3.701,0l-1.414-1.414c0.872-0.872,2.031-1.353,3.265-1.353s2.393,0.48,3.265,1.353L17.763,19.59z"/></svg>