<svg xmlns="http://www.w3.org/2000/svg" viewBox="0 0 32 32"><!--! Font Icona - https://fonticona.com | License - https://fonticona.com/license | Copyright 2022 FontIcona.com --><path d="M15.995,32c-0.552,0-1-0.447-1-1V18.243c0-0.553,0.448-1,1-1s1,0.447,1,1V31C16.995,31.553,16.547,32,15.995,32z"/><path d="M20.495,32h-9c-0.552,0-1-0.447-1-1s0.448-1,1-1h9c0.552,0,1,0.447,1,1S21.047,32,20.495,32z"/><path d="M16.005,19.243c-0.285,0-0.557-0.122-0.747-0.335L4.086,6.353C3.825,6.058,3.76,5.638,3.921,5.278c0.161-0.359,0.518-0.591,0.912-0.591h22.333c0.394,0,0.751,0.231,0.912,0.591c0.162,0.358,0.097,0.779-0.165,1.073L16.753,18.907C16.563,19.121,16.291,19.243,16.005,19.243z M7.062,6.688l8.943,10.051l8.935-10.051H7.062z"/><path d="M17.391,13.267c-0.136,0-0.275-0.027-0.407-0.087c-0.504-0.226-0.73-0.816-0.505-1.321l5.034-11.267c0.224-0.504,0.815-0.731,1.321-0.505c0.504,0.226,0.73,0.816,0.505,1.321l-5.034,11.267C18.138,13.046,17.773,13.267,17.391,13.267z"/><path d="M15.953,17.36c-0.366,0-0.731-0.073-1.079-0.229c-0.728-0.325-1.281-0.977-1.518-1.786c-0.223-0.763-0.157-1.604,0.185-2.37c0.732-1.637,2.521-2.434,3.985-1.779c0.728,0.325,1.281,0.977,1.518,1.786c0.223,0.763,0.157,1.604-0.185,2.37l0,0C18.3,16.601,17.128,17.36,15.953,17.36z M16.436,12.966c-0.401,0-0.846,0.326-1.069,0.826c-0.146,0.327-0.18,0.689-0.091,0.993c0.042,0.145,0.152,0.403,0.414,0.521c0.452,0.204,1.067-0.151,1.343-0.77l0,0c0.146-0.327,0.18-0.689,0.091-0.993c-0.042-0.145-0.152-0.403-0.414-0.521C16.623,12.983,16.53,12.966,16.436,12.966z"/></svg>