<svg xmlns="http://www.w3.org/2000/svg" viewBox="0 0 32 32"><!--! Font Icona - https://fonticona.com | License - https://fonticona.com/license | Copyright 2022 FontIcona.com --><path d="M26.49,31.468c-0.058,0-0.116-0.002-0.174-0.007H5.693c-0.244,0.017-0.492-0.003-0.73-0.066c-0.569-0.148-1.048-0.512-1.346-1.021c-0.288-0.491-0.374-1.062-0.246-1.614l0.676-4.635L0.016,1.709c-0.052-0.291,0.027-0.591,0.217-0.818S0.704,0.532,1,0.532h30c0.296,0,0.577,0.131,0.767,0.358s0.27,0.526,0.217,0.818l-4.021,22.415l0.677,4.636c0.055,0.238,0.07,0.482,0.044,0.727c-0.061,0.586-0.347,1.114-0.805,1.486C27.481,31.296,26.996,31.468,26.49,31.468z M5.516,29.459c0.046,0,0.11,0.002,0.134,0.002h20.711c0.035,0,0.069,0.002,0.104,0.006c0.098-0.004,0.221-0.089,0.231-0.188c-0.009-0.036-0.022-0.148-0.028-0.185l-0.707-4.843c-0.015-0.106-0.014-0.215,0.005-0.321l3.839-21.398H2.196l3.849,21.398c0.019,0.105,0.021,0.215,0.005,0.321l-0.707,4.843c-0.005,0.037-0.013,0.073-0.022,0.109c-0.025,0.096,0.054,0.231,0.15,0.256C5.48,29.459,5.497,29.459,5.516,29.459z"/><path d="M26.939,25.107H5.061c-0.552,0-1-0.447-1-1s0.448-1,1-1h21.879c0.552,0,1,0.447,1,1S27.492,25.107,26.939,25.107z"/><path d="M22.562,16.923c-3.284,0-6.633-1.159-9.565-2.175c-0.81-0.28-1.602-0.555-2.368-0.798c-2.395-0.654-4.993-0.772-7.473-0.333c-0.542,0.102-1.063-0.265-1.16-0.81c-0.097-0.543,0.266-1.062,0.809-1.159c2.773-0.494,5.672-0.359,8.39,0.384c0.82,0.26,1.629,0.539,2.456,0.826c5.042,1.745,10.257,3.551,14.445,0.232c0.432-0.344,1.062-0.271,1.405,0.163c0.343,0.433,0.27,1.062-0.163,1.405C27.232,16.328,24.914,16.923,22.562,16.923z"/><path d="M16.214,15.765c-0.101,0-0.205-0.016-0.306-0.048c-0.526-0.169-0.815-0.732-0.646-1.259l1.314-4.084L10.31,8.032l-1.512,4.692c-0.169,0.525-0.73,0.813-1.258,0.646c-0.525-0.17-0.814-0.733-0.645-1.259l1.833-5.689c0.083-0.26,0.27-0.475,0.516-0.594c0.247-0.119,0.53-0.131,0.786-0.036l8.143,3.043c0.5,0.187,0.766,0.734,0.602,1.243l-1.607,4.993C17.03,15.495,16.637,15.765,16.214,15.765z"/><path d="M21.187,16.868c-0.333,0-0.66-0.167-0.849-0.471c-0.292-0.468-0.15-1.085,0.318-1.377l1.83-1.144l-2.544-4.729l-2.074,1.29c-0.47,0.292-1.085,0.148-1.377-0.32c-0.292-0.469-0.148-1.086,0.321-1.377l2.979-1.854c0.234-0.146,0.518-0.189,0.786-0.118c0.267,0.071,0.493,0.25,0.624,0.493l3.493,6.492c0.25,0.464,0.096,1.043-0.351,1.321l-2.625,1.64C21.551,16.819,21.367,16.868,21.187,16.868z"/></svg>