<svg xmlns="http://www.w3.org/2000/svg" viewBox="0 0 32 32"><!--! Font Icona - https://fonticona.com | License - https://fonticona.com/license | Copyright 2022 FontIcona.com --><path d="M16,32C7.178,32,0,24.822,0,16S7.178,0,16,0s16,7.178,16,16S24.822,32,16,32z M16,2C8.28,2,2,8.28,2,16s6.28,14,14,14s14-6.28,14-14S23.72,2,16,2z"/><rect x="15" y="1" width="2" height="30"/><path d="M16,32c-5.559,0-9.914-7.028-9.914-16S10.441,0,16,0s9.914,7.028,9.914,16S21.559,32,16,32z M16,2c-4.29,0-7.914,6.411-7.914,14S11.71,30,16,30s7.914-6.411,7.914-14S20.29,2,16,2z"/><rect x="1" y="15" width="30" height="2"/><path d="M28.11,25.406c-7.646-3.453-16.417-3.453-24.062,0l-0.823-1.822c8.169-3.689,17.54-3.689,25.709,0L28.11,25.406z"/><path d="M16.079,11.167c-4.385,0-8.77-0.922-12.854-2.767l0.823-1.822c7.646,3.453,16.417,3.453,24.062,0L28.934,8.4C24.849,10.245,20.464,11.167,16.079,11.167z"/></svg>