<svg xmlns="http://www.w3.org/2000/svg" viewBox="0 0 32 32"><!--! Font Icona - https://fonticona.com | License - https://fonticona.com/license | Copyright 2022 FontIcona.com --><path d="M18.774,13.881c-0.067,0-0.137-0.007-0.206-0.021c-0.54-0.113-0.887-0.643-0.773-1.184l1.722-8.236c0.146-0.704,0.562-1.306,1.169-1.693c0.605-0.386,1.324-0.51,2.028-0.348c1.41,0.328,2.304,1.745,1.99,3.161l-1.264,5.668c-0.119,0.54-0.654,0.88-1.193,0.759c-0.539-0.12-0.878-0.654-0.758-1.193l1.263-5.667c0.076-0.348-0.144-0.698-0.49-0.779c-0.173-0.04-0.351-0.01-0.5,0.085c-0.149,0.096-0.252,0.244-0.288,0.417l-1.722,8.236C19.653,13.557,19.238,13.881,18.774,13.881z"/><path d="M15.637,13.612c-0.065,0-0.132-0.006-0.199-0.02c-0.541-0.109-0.892-0.637-0.783-1.178l2.081-10.321c0.142-0.702,0.572-1.321,1.18-1.7c0.606-0.379,1.354-0.492,2.043-0.308c1.348,0.355,2.176,1.701,1.888,3.063L20.416,9.91c-0.114,0.541-0.645,0.886-1.186,0.771c-0.54-0.115-0.886-0.645-0.771-1.186l1.431-6.761c0.067-0.318-0.126-0.632-0.44-0.715c-0.221-0.058-0.394,0.02-0.477,0.072c-0.083,0.052-0.23,0.172-0.275,0.397l-2.081,10.32C16.521,13.285,16.104,13.612,15.637,13.612z"/><path d="M20.255,32h-8.391c-0.853,0-1.665-0.367-2.229-1.009c-0.569-0.646-0.833-1.509-0.723-2.365c0.484-3.786,0.082-5.171,0.077-5.184l-3.941-9.187c-0.591-1.38-0.045-2.965,1.27-3.689c0.684-0.376,1.472-0.46,2.219-0.241c0.747,0.22,1.363,0.718,1.734,1.402l0.869,1.604l1.791-8.904c0.141-0.7,0.548-1.3,1.145-1.689c0.598-0.39,1.313-0.518,2.006-0.366c1.395,0.308,2.299,1.696,2.018,3.095L17.82,6.853c-0.109,0.542-0.637,0.889-1.177,0.783c-0.542-0.109-0.892-0.637-0.783-1.178l0.279-1.384c0.068-0.338-0.15-0.673-0.487-0.747c-0.167-0.037-0.339-0.005-0.483,0.088c-0.144,0.094-0.242,0.239-0.276,0.408l-2.066,10.27c-0.126,0.625-0.614,1.089-1.243,1.184c-0.633,0.091-1.233-0.206-1.537-0.765l-1.534-2.83c-0.115-0.213-0.307-0.369-0.54-0.437c-0.232-0.067-0.478-0.042-0.691,0.075c-0.409,0.225-0.579,0.719-0.395,1.149l3.973,9.27c0.084,0.233,0.587,1.845,0.037,6.142c-0.037,0.291,0.049,0.571,0.241,0.79c0.187,0.213,0.446,0.33,0.728,0.33h8.391c0.272,0,0.525-0.109,0.712-0.307c0.188-0.199,0.282-0.458,0.267-0.73l-0.293-5.075c-0.035-0.598,0.108-1.186,0.416-1.7l1.243-2.08c0.283-0.475,0.483-0.989,0.596-1.531l1.982-9.695c0.064-0.315-0.14-0.626-0.455-0.694c-0.31-0.06-0.626,0.132-0.697,0.447l-1.381,6.095c-0.123,0.539-0.66,0.878-1.196,0.754c-0.539-0.122-0.877-0.657-0.755-1.196l1.381-6.096c0.312-1.376,1.69-2.256,3.067-1.96c1.384,0.297,2.279,1.666,1.995,3.051l-1.982,9.698c-0.158,0.764-0.439,1.486-0.838,2.153l-1.243,2.08c-0.101,0.169-0.148,0.362-0.137,0.559l0.293,5.076c0.047,0.815-0.247,1.624-0.809,2.219C21.862,31.659,21.072,32,20.255,32z"/><line class="st0" x1="17.62" y1="26.012" x2="22.07" y2="26.113"/><path d="M22.071,27.113c-0.007,0-0.015,0-0.022,0l-4.45-0.102c-0.553-0.013-0.99-0.471-0.977-1.022c0.012-0.545,0.458-0.978,1-0.978c0.007,0,0.015,0,0.022,0l4.45,0.102c0.553,0.013,0.99,0.471,0.978,1.022C23.058,26.681,22.613,27.113,22.071,27.113z"/><line class="st0" x1="10.148" y1="25.842" x2="13.693" y2="25.923"/><path d="M13.694,26.923c-0.008,0-0.016,0-0.023,0l-3.545-0.081c-0.552-0.013-0.989-0.471-0.977-1.022c0.012-0.553,0.461-1.001,1.022-0.978l3.545,0.081c0.552,0.013,0.989,0.471,0.977,1.022C14.68,26.49,14.235,26.923,13.694,26.923z"/></svg>