<svg xmlns="http://www.w3.org/2000/svg" viewBox="0 0 32 32"><!--! Font Icona - https://fonticona.com | License - https://fonticona.com/license | Copyright 2022 FontIcona.com --><path d="M11.711,31.991c-0.509,0-1.014-0.118-1.444-0.363l-8.756-4.98c-1.123-0.638-1.749-2.118-1.425-3.37l1.925-7.433c0.191-0.738,0.778-1.662,1.364-2.149c0.004-0.003,0.008-0.007,0.012-0.01L19.654,0.602c0.692-0.576,1.87-0.763,2.724-0.423c0.033,0.013,0.064,0.027,0.095,0.043l6.116,3.205c0.801,0.343,1.527,1.183,1.739,2.021l1.597,6.326c0.244,0.969-0.116,2.22-0.838,2.911L13.834,31.186C13.284,31.713,12.492,31.991,11.711,31.991z M4.648,15.238c-0.268,0.226-0.614,0.772-0.702,1.108l-1.925,7.432c-0.1,0.385,0.132,0.935,0.478,1.131l8.755,4.98c0.331,0.189,0.923,0.114,1.196-0.148L29.703,13.24c0.206-0.197,0.352-0.7,0.281-0.978l-1.597-6.325C28.33,5.71,28.013,5.35,27.794,5.263c-0.033-0.013-0.064-0.027-0.095-0.043l-6.093-3.193c-0.191-0.055-0.545,0.007-0.686,0.124L4.648,15.238z"/><path d="M12.062,20.907c-0.275,0-0.549-0.113-0.747-0.335c-0.367-0.412-0.331-1.044,0.081-1.411L28.097,4.273c0.411-0.367,1.043-0.333,1.411,0.081c0.368,0.413,0.332,1.045-0.081,1.412L12.727,20.653C12.536,20.823,12.299,20.907,12.062,20.907z"/><path d="M12.06,20.907c-0.161,0-0.325-0.039-0.476-0.121l-8.41-4.566c-0.485-0.264-0.666-0.871-0.402-1.356c0.263-0.485,0.871-0.665,1.356-0.402l8.41,4.566c0.485,0.264,0.666,0.871,0.402,1.357C12.759,20.718,12.415,20.907,12.06,20.907z"/><path d="M12.061,31.967c-0.552,0-1-0.447-1-1V19.907c0-0.553,0.448-1,1-1s1,0.447,1,1v11.059C13.061,31.519,12.614,31.967,12.061,31.967z"/></svg>