<svg xmlns="http://www.w3.org/2000/svg" viewBox="0 0 32 32"><!--! Font Icona - https://fonticona.com | License - https://fonticona.com/license | Copyright 2022 FontIcona.com --><path d="M16.595,27.462c-0.144,0-0.29-0.003-0.439-0.01c-0.004,0-0.009,0-0.013,0c-1.625,0-5.035-0.911-6.075-4.363c-0.159-0.528,0.14-1.086,0.669-1.245c0.528-0.162,1.086,0.14,1.246,0.669c0.869,2.886,4.083,2.939,4.219,2.94c4.223,0.175,4.583-2.96,4.596-3.094L20.793,6.136c0-0.553,0.448-1,1-1s1,0.447,1,1v16.322C22.617,24.285,21.094,27.462,16.595,27.462z"/><path d="M16,20.871c-3.756,0-6.812-3.394-6.812-7.565S12.244,5.74,16,5.74s6.812,3.394,6.812,7.565S19.756,20.871,16,20.871z M16,7.74c-2.653,0-4.812,2.497-4.812,5.565s2.159,5.565,4.812,5.565s4.812-2.497,4.812-5.565S18.653,7.74,16,7.74z"/><path d="M29,32H3c-1.654,0-3-1.346-3-3V3c0-1.654,1.346-3,3-3h26c1.654,0,3,1.346,3,3v26C32,30.654,30.654,32,29,32z M3,2C2.449,2,2,2.448,2,3v26c0,0.552,0.449,1,1,1h26c0.551,0,1-0.448,1-1V3c0-0.552-0.449-1-1-1H3z"/></svg>