<svg xmlns="http://www.w3.org/2000/svg" viewBox="0 0 32 32"><!--! Font Icona - https://fonticona.com | License - https://fonticona.com/license | Copyright 2022 FontIcona.com --><path d="M16.891,32c-0.208,0-0.421-0.005-0.64-0.015c-2.277,0.019-7.092-1.262-8.55-6.102c-0.16-0.528,0.14-1.086,0.669-1.245c0.529-0.164,1.086,0.141,1.245,0.669c1.389,4.606,6.465,4.678,6.681,4.679c6.357,0.279,7.181-4.415,7.254-4.956V1c0-0.553,0.447-1,1-1s1,0.447,1,1v24.091C25.538,25.257,24.775,32,16.891,32z"/><path d="M16,22.272c-5.281,0-9.578-4.796-9.578-10.69S10.719,0.892,16,0.892s9.578,4.796,9.578,10.69S21.281,22.272,16,22.272z M16,2.892c-4.179,0-7.578,3.898-7.578,8.69s3.399,8.69,7.578,8.69s7.578-3.898,7.578-8.69S20.179,2.892,16,2.892z"/></svg>