<svg xmlns="http://www.w3.org/2000/svg" viewBox="0 0 32 32"><!--! Font Icona - https://fonticona.com | License - https://fonticona.com/license | Copyright 2022 FontIcona.com --><path d="M12.608,23.632c-0.714,0-2.104-0.188-3.802-1.372l1.144-1.641c1.652,1.152,2.77,1.012,2.815,1.006l0.158-0.014c1.186-0.005,2.227-1.77,2.498-2.387l0.057-0.111l5.393-9.076c0.851-1.665,2.04-2.559,3.255-2.979L19.854,4.64c-1.242-0.569-2.454-0.648-3.633-0.202c-2.695,1.019-4.208,4.396-4.223,4.43l-1.83-0.807c0.075-0.17,1.874-4.182,5.345-5.494c1.686-0.636,3.453-0.537,5.253,0.296l7.724,4.37l-0.872,1.795c-0.335-0.132-3.362-1.227-4.999,1.976l-5.393,9.081c-0.257,0.567-1.688,3.461-4.223,3.526C12.916,23.621,12.782,23.632,12.608,23.632z"/><path d="M9.934,28.876l-6.544-3.825c-4.751-3.347-3.512-8.352-2.201-10.543l3.545-6.102c1.602-2.263,3.958-2.127,4.988-1.749l0.095,0.04l3.18,1.556c1.351,0.827,2.1,1.816,2.311,2.985c0.292,1.617-0.572,2.943-0.809,3.269l-3.75,6.45c-2.403,3.72,0.055,6.047,0.343,6.3L9.934,28.876z M2.909,15.528c-0.119,0.2-2.76,4.794,1.562,7.842l3.366,1.966c-0.31-1.518-0.111-3.382,1.209-5.425l3.829-6.57c0.002-0.002,0.634-0.855,0.463-1.76c-0.109-0.581-0.548-1.112-1.305-1.578L8.999,8.523c-0.27-0.084-1.613-0.404-2.585,0.965L2.909,15.528z"/><path d="M13.734,29.844c-1.154,0-2.468-0.297-3.929-1.044l0.911-1.781c4.463,2.286,6.477-0.849,6.692-1.213l5.665-9.949c0.483-0.992,0.587-1.899,0.278-2.642c-0.499-1.201-1.928-1.715-1.943-1.72l0.644-1.895c0.093,0.032,2.295,0.801,3.146,2.847c0.539,1.296,0.418,2.758-0.358,4.344l-5.698,10.012C18.407,28.088,16.542,29.843,13.734,29.844z"/><path d="M23.11,25.75c-0.449,0-0.927-0.075-1.43-0.249l-0.123-0.052l-2.087-1.048l0.897-1.787l2.022,1.016c1.773,0.562,2.83-1.114,2.945-1.309l3.867-6.809c0.767-1.396,0.983-2.688,0.636-3.826c-0.539-1.769-2.278-2.685-2.295-2.693l0.905-1.783c0.102,0.051,2.495,1.284,3.295,3.867c0.521,1.682,0.253,3.503-0.795,5.411l-3.878,6.829C26.523,24.271,25.1,25.75,23.11,25.75z"/></svg>