<svg xmlns="http://www.w3.org/2000/svg" viewBox="0 0 32 32"><!--! Font Icona - https://fonticona.com | License - https://fonticona.com/license | Copyright 2022 FontIcona.com --><path d="M2.431,31.999c-0.456,0-0.887-0.114-1.261-0.344C0.427,31.199,0,30.344,0,29.31V2.69c0-1.034,0.427-1.89,1.17-2.346c0.774-0.476,1.789-0.457,2.78,0.048L30.423,13.84C31.425,14.35,32,15.137,32,16s-0.575,1.65-1.577,2.16L3.95,31.607C3.438,31.868,2.919,31.999,2.431,31.999z M2.436,2.001c-0.098,0-0.172,0.02-0.22,0.049C2.081,2.133,2,2.372,2,2.69V29.31c0,0.318,0.081,0.558,0.216,0.641c0.121,0.075,0.411,0.087,0.828-0.126l26.473-13.447c0.357-0.182,0.473-0.348,0.485-0.391c-0.013-0.016-0.128-0.182-0.485-0.363L3.044,2.176C2.791,2.047,2.586,2.001,2.436,2.001z"/><rect x="11.18" y="-3.314" transform="matrix(0.6885 -0.7252 0.7252 0.6885 -4.2456 12.2874)" width="2" height="28.799"/><rect x="-2.228" y="19.958" transform="matrix(0.7221 -0.6918 0.6918 0.7221 -11.152 14.1535)" width="28.537" height="1.999"/></svg>