<svg xmlns="http://www.w3.org/2000/svg" viewBox="0 0 32 32"><!--! Font Icona - https://fonticona.com | License - https://fonticona.com/license | Copyright 2022 FontIcona.com --><path d="M25.015,30.016H6.985c-1.129,0-2.443-0.713-3.058-1.658l-3.424-5.251c-0.639-0.98-0.676-2.482-0.085-3.493l9.39-16.071c0.52-0.888,1.688-1.558,2.716-1.558h6.951c1.028,0,2.196,0.67,2.716,1.558l9.39,16.07c0.591,1.012,0.554,2.514-0.085,3.494l-3.424,5.252C27.458,29.303,26.144,30.016,25.015,30.016z M12.524,3.984c-0.319,0-0.828,0.292-0.989,0.567l-9.39,16.07c-0.208,0.356-0.191,1.047,0.034,1.393l3.424,5.252c0.246,0.378,0.931,0.749,1.382,0.749h18.029c0.451,0,1.136-0.371,1.382-0.748l3.424-5.253c0.226-0.346,0.242-1.036,0.034-1.394l-9.39-16.069c-0.161-0.275-0.67-0.567-0.989-0.567H12.524z"/><rect x="12.771" y="2.567" transform="matrix(0.8251 -0.565 0.565 0.8251 -1.2704 8.9198)" width="2" height="7.889"/><rect x="14.284" y="5.512" transform="matrix(0.5649 -0.8252 0.8252 0.5649 2.5579 17.8745)" width="7.889" height="2"/><rect x="3.459" y="24.05" transform="matrix(0.4386 -0.8987 0.8987 0.4386 -18.3268 20.7624)" width="7.99" height="1.999"/><rect x="23.625" y="21.089" transform="matrix(0.9064 -0.4225 0.4225 0.9064 -8.2775 12.7494)" width="2" height="7.921"/><rect x="5.843" y="14.614" transform="matrix(0.5022 -0.8647 0.8647 0.5022 -7.2274 18.6709)" width="13.523" height="1.999"/><rect x="18.476" y="8.811" transform="matrix(0.8596 -0.511 0.511 0.8596 -5.2437 12.1458)" width="1.999" height="13.604"/><rect x="1" y="20.46" width="30" height="2"/></svg>