<svg xmlns="http://www.w3.org/2000/svg" viewBox="0 0 32 32"><!--! Font Icona - https://fonticona.com | License - https://fonticona.com/license | Copyright 2022 FontIcona.com --><path d="M16,32C7.178,32,0,24.822,0,16S7.178,0,16,0s16,7.178,16,16S24.822,32,16,32z M16,2C8.28,2,2,8.28,2,16s6.28,14,14,14s14-6.28,14-14S23.72,2,16,2z"/><path d="M16,23.049c-3.887,0-7.049-3.162-7.049-7.049S12.113,8.951,16,8.951s7.049,3.162,7.049,7.049S19.887,23.049,16,23.049z M16,10.951c-2.784,0-5.049,2.265-5.049,5.049s2.265,5.049,5.049,5.049s5.049-2.265,5.049-5.049S18.784,10.951,16,10.951z"/><rect x="11.913" y="24.065" transform="matrix(0.4181 -0.9084 0.9084 0.4181 -12.0376 31.3379)" width="13.055" height="2"/><rect x="6.143" y="6.28" transform="matrix(0.854 -0.5202 0.5202 0.854 -5.743 5.6202)" width="2.001" height="13.527"/><rect x="16" y="8.951" width="13.636" height="2"/></svg>