<svg xmlns="http://www.w3.org/2000/svg" viewBox="0 0 32 32"><!--! Font Icona - https://fonticona.com | License - https://fonticona.com/license | Copyright 2022 FontIcona.com --><path d="M16,32c0,0-0.001,0-0.001,0C7.176,31.998,0,24.819,0.001,15.997c0.001-4.274,1.666-8.292,4.688-11.313C7.711,1.663,11.728,0,16,0c0.001,0,0.002,0,0.003,0c4.339,0.001,8.549,1.798,11.55,4.931c0.184,0.191,0.284,0.448,0.277,0.714c-0.006,0.265-0.117,0.518-0.309,0.7l-3.489,3.333c-0.399,0.382-1.031,0.367-1.413-0.031C19.125,5.997,13.31,5.87,9.661,9.367c-1.769,1.692-2.772,3.974-2.825,6.422c-0.053,2.447,0.851,4.77,2.544,6.538c1.694,1.769,3.975,2.771,6.422,2.824c2.437,0.078,4.77-0.85,6.538-2.544c0.948-0.907,1.685-2,2.168-3.207h-8.51c-0.552,0-1-0.447-1-1v-4.812c0-0.553,0.448-1,1-1h15c0.552,0,1,0.447,1,1V16C31.985,24.81,24.809,31.986,16,32z M16,2c-3.738,0-7.252,1.455-9.896,4.099c-2.645,2.644-4.102,6.159-4.102,9.898C2,23.716,8.279,29.997,15.998,30c7.708-0.012,13.99-6.293,14.001-14.002v-1.409h-13V17.4h8.878c0.307,0,0.597,0.141,0.787,0.383c0.189,0.241,0.258,0.557,0.185,0.854c-0.505,2.069-1.586,3.942-3.125,5.415c-2.154,2.062-4.972,3.173-7.965,3.099c-2.982-0.064-5.76-1.287-7.823-3.441c-2.063-2.153-3.164-4.982-3.099-7.965c0.065-2.982,1.287-5.761,3.441-7.823c4.203-4.025,10.763-4.107,15.065-0.35l2.048-1.956C22.833,3.308,19.465,2.001,16.004,2C16.002,2,16.001,2,16,2z"/><path d="M6.887,12.511c-0.199,0-0.4-0.06-0.575-0.183L2.322,9.518c-0.451-0.318-0.56-0.941-0.241-1.394c0.317-0.45,0.941-0.56,1.394-0.241l3.989,2.811c0.451,0.318,0.56,0.941,0.241,1.394C7.51,12.363,7.201,12.511,6.887,12.511z"/><path d="M2.111,22.655c-0.312,0-0.618-0.145-0.813-0.417c-0.322-0.448-0.219-1.073,0.229-1.396l4.1-2.944c0.449-0.323,1.074-0.22,1.396,0.229c0.322,0.448,0.22,1.073-0.229,1.396l-4.1,2.944C2.517,22.595,2.312,22.655,2.111,22.655z"/><path d="M25.832,28.312c-0.24,0-0.48-0.086-0.672-0.26l-3.61-3.282c-0.409-0.372-0.438-1.004-0.067-1.413c0.372-0.408,1.004-0.438,1.413-0.067l3.61,3.282c0.409,0.372,0.438,1.004,0.067,1.413C26.375,28.201,26.104,28.312,25.832,28.312z"/></svg>