<svg xmlns="http://www.w3.org/2000/svg" viewBox="0 0 32 32"><!--! Font Icona - https://fonticona.com | License - https://fonticona.com/license | Copyright 2022 FontIcona.com --><path d="M11.291,27C5.065,27,0,22.065,0,16S5.065,5,11.291,5c2.815,0,5.513,1.016,7.595,2.859c0.413,0.366,0.452,0.999,0.086,1.412c-0.367,0.414-0.998,0.451-1.412,0.086C15.844,7.837,13.617,7,11.291,7C6.168,7,2,11.037,2,16s4.168,9,9.291,9c4.774,0,8.72-3.506,9.235-8h-9.235c-0.553,0-1-0.447-1-1s0.447-1,1-1h10.292c0.553,0,1,0.447,1,1C22.583,22.065,17.518,27,11.291,27z"/><path d="M27.742,20.166c-0.553,0-1-0.447-1-1v-6.332c0-0.553,0.447-1,1-1s1,0.447,1,1v6.332C28.742,19.719,28.295,20.166,27.742,20.166z"/><path d="M31,17h-6.517c-0.553,0-1-0.447-1-1s0.447-1,1-1H31c0.553,0,1,0.447,1,1S31.553,17,31,17z"/></svg>