<svg xmlns="http://www.w3.org/2000/svg" viewBox="0 0 32 32"><!--! Font Icona - https://fonticona.com | License - https://fonticona.com/license | Copyright 2022 FontIcona.com --><path d="M24.716,31.662c-0.553,0-1-0.447-1-1V19.188H8.376v11.474c0,0.553-0.447,1-1,1s-1-0.447-1-1V19.188c0-1.103,0.897-2,2-2h15.34c1.103,0,2,0.897,2,2v11.474C25.716,31.215,25.269,31.662,24.716,31.662z"/><path d="M22.047,31h-2v-3.712c0-1.946-1.795-3.529-4.001-3.529s-4.001,1.583-4.001,3.529V31h-2v-3.712c0-3.049,2.692-5.529,6.001-5.529s6.001,2.48,6.001,5.529V31z"/><path d="M22.881,19.125c-0.553,0-1-0.447-1-1V9.291h-11.67v8.834c0,0.553-0.447,1-1,1s-1-0.447-1-1V9.291c0-1.103,0.897-2,2-2h11.67c1.103,0,2,0.897,2,2v8.834C23.881,18.678,23.434,19.125,22.881,19.125z"/><path d="M19.988,19.204c-0.553,0-1-0.447-1-1v-2.883c0-1.525-1.32-2.766-2.942-2.766s-2.942,1.24-2.942,2.766v2.883c0,0.553-0.447,1-1,1s-1-0.447-1-1v-2.883c0-2.628,2.217-4.766,4.942-4.766s4.942,2.138,4.942,4.766v2.883C20.988,18.757,20.541,19.204,19.988,19.204z"/><path d="M21.047,9.194c-0.553,0-1-0.447-1-1V2h-8.002v6.194c0,0.553-0.447,1-1,1s-1-0.447-1-1V2c0-1.103,0.897-2,2-2h8.002c1.103,0,2,0.897,2,2v6.194C22.047,8.747,21.6,9.194,21.047,9.194z"/><path d="M17.987,9.291c-0.553,0-1-0.447-1-1V5.784c0-0.259-0.411-0.56-0.941-0.56s-0.942,0.301-0.942,0.56v2.507c0,0.553-0.447,1-1,1s-1-0.447-1-1V5.784c0-1.411,1.32-2.56,2.942-2.56s2.941,1.148,2.941,2.56v2.507C18.987,8.844,18.54,9.291,17.987,9.291z"/><path d="M11.045,32H4.097c-1.103,0-2-0.897-2-2V15.319c0-1.103,0.897-2,2-2h0.149V5.598c0-1.103,0.897-2,2-2h3.992c0.553,0,1,0.447,1,1s-0.447,1-1,1H6.246v7.722c0,1.103-0.897,2-2,2H4.097V30h6.948c0.553,0,1,0.447,1,1S11.598,32,11.045,32z"/><path d="M27.903,32h-6.856c-0.553,0-1-0.447-1-1s0.447-1,1-1h6.856V15.319c-1.161,0-2.059-0.897-2.059-2V5.598h-3.991c-0.553,0-1-0.447-1-1s0.447-1,1-1h3.991c1.103,0,2,0.897,2,2v7.722c1.161,0,2.059,0.897,2.059,2V30C29.903,31.103,29.006,32,27.903,32z"/></svg>