<svg xmlns="http://www.w3.org/2000/svg" viewBox="0 0 32 32"><!--! Font Icona - https://fonticona.com | License - https://fonticona.com/license | Copyright 2022 FontIcona.com --><path d="M15.964,21.625c-3.767,0-8.166-0.815-8.166-3.115s4.399-3.115,8.166-3.115s8.166,0.815,8.166,3.115S19.73,21.625,15.964,21.625z M9.92,18.51c0.591,0.417,2.648,1.115,6.044,1.115s5.453-0.698,6.044-1.115c-0.591-0.417-2.648-1.115-6.044-1.115S10.511,18.093,9.92,18.51z M22.163,18.654h0.01H22.163z"/><path d="M23.129,13.713c-0.498,0-0.91-0.363-0.987-0.84c-0.426-0.404-2.6-1.12-6.178-1.12c-3.394,0-5.716,0.706-6.181,1.138c-0.084,0.468-0.493,0.822-0.984,0.822c-0.552,0-1-0.447-1-1c0-2.877,7.33-2.96,8.166-2.96s8.166,0.083,8.166,2.96C24.129,13.266,23.682,13.713,23.129,13.713z"/><path d="M8.798,19.51c-0.552,0-1-0.447-1-1v-5.651c0-0.553,0.448-1,1-1s1,0.447,1,1v5.651C9.798,19.062,9.351,19.51,8.798,19.51z"/><path d="M23.129,19.51c-0.552,0-1-0.447-1-1v-5.651c0-0.553,0.448-1,1-1s1,0.447,1,1v5.651C24.129,19.062,23.682,19.51,23.129,19.51z"/><path d="M8.798,14.938c-0.146,0-0.295-0.032-0.436-0.1l-7.184-3.479c-0.749-0.361-1.204-1.104-1.188-1.937s0.502-1.557,1.267-1.889l13.946-6.04c0.534-0.229,1.144-0.229,1.676,0.002l13.846,6.026c0.767,0.333,1.251,1.06,1.264,1.896c0.013,0.837-0.45,1.578-1.207,1.935l-6.486,3.06c-0.5,0.237-1.096,0.022-1.331-0.478c-0.236-0.5-0.022-1.096,0.478-1.331l6.486-3.06c0.021-0.01,0.061-0.028,0.06-0.096c-0.001-0.066-0.041-0.083-0.062-0.093L16.082,3.33L2.053,9.37C2.032,9.379,1.992,9.396,1.99,9.463s0.038,0.085,0.058,0.096l7.186,3.479c0.497,0.241,0.705,0.839,0.464,1.336C9.526,14.729,9.169,14.938,8.798,14.938z"/><path d="M3.665,23.596c-0.552,0-1-0.447-1-1V11.449c0-0.553,0.448-1,1-1s1,0.447,1,1v11.146C4.665,23.148,4.217,23.596,3.665,23.596z"/><path d="M5.853,30.679H1.487c-0.277,0-0.542-0.115-0.731-0.318S0.47,29.885,0.49,29.608l0.327-4.639c-0.128-1.664,1.046-3.132,2.71-3.364c0.09-0.014,0.182-0.013,0.272-0.001c1.646,0.223,2.845,1.721,2.715,3.366l0.336,4.636c0.02,0.277-0.076,0.55-0.265,0.753C6.396,30.563,6.131,30.679,5.853,30.679z M2.56,28.679h2.218l-0.265-3.646C4.509,24.972,4.51,24.91,4.517,24.85c0.063-0.567-0.311-1.095-0.851-1.236c-0.547,0.144-0.914,0.664-0.853,1.241c0.006,0.059,0.007,0.117,0.003,0.176L2.56,28.679z"/></svg>