<svg xmlns="http://www.w3.org/2000/svg" viewBox="0 0 32 32"><!--! Font Icona - https://fonticona.com | License - https://fonticona.com/license | Copyright 2022 FontIcona.com --><path d="M26.268,32H5.732c-0.552,0-1-0.447-1-1s0.448-1,1-1h20.535c0.553,0,1,0.447,1,1S26.82,32,26.268,32z"/><path d="M5.733,25.844c-0.361,0-0.709-0.195-0.888-0.537c-0.255-0.49-0.065-1.094,0.424-1.35l19.459-10.148c0.337-0.175,0.538-0.507,0.538-0.886c0-0.38-0.201-0.711-0.538-0.887L5.27,1.887C4.78,1.631,4.59,1.027,4.846,0.538c0.256-0.489,0.859-0.68,1.349-0.424l19.46,10.148c0.994,0.519,1.612,1.539,1.612,2.661s-0.618,2.141-1.613,2.66L6.195,25.73C6.047,25.808,5.889,25.844,5.733,25.844z"/></svg>