<svg xmlns="http://www.w3.org/2000/svg" viewBox="0 0 32 32"><!--! Font Icona - https://fonticona.com | License - https://fonticona.com/license | Copyright 2022 FontIcona.com --><path d="M2.782,32c-0.361,0-0.709-0.195-0.888-0.538c-0.255-0.489-0.065-1.093,0.424-1.349l25.363-13.226C28.019,16.712,28.22,16.38,28.22,16c0-0.379-0.201-0.711-0.538-0.887L2.318,1.887c-0.49-0.255-0.68-0.859-0.424-1.349c0.256-0.489,0.86-0.68,1.349-0.424L28.606,13.34c0.995,0.519,1.613,1.539,1.613,2.66c0,1.123-0.618,2.142-1.614,2.661L3.243,31.887C3.096,31.964,2.938,32,2.782,32z"/></svg>