<svg xmlns="http://www.w3.org/2000/svg" viewBox="0 0 32 32"><!--! Font Icona - https://fonticona.com | License - https://fonticona.com/license | Copyright 2022 FontIcona.com --><path d="M16,18.185c-3.959,0-10.659-0.772-10.659-3.667s6.7-3.667,10.659-3.667s10.659,0.772,10.659,3.667S19.959,18.185,16,18.185z M7.382,14.518c0.483,0.551,3.33,1.667,8.618,1.667s8.134-1.116,8.618-1.667c-0.483-0.551-3.329-1.667-8.618-1.667S7.865,13.967,7.382,14.518z M24.673,14.597h0.01H24.673z"/><path d="M16,25.791c-5.701,0-10.339-4.733-10.339-10.552c0-0.553,0.448-1,1-1s1,0.447,1,1c0,4.716,3.741,8.552,8.339,8.552s8.339-3.836,8.339-8.552c0-0.553,0.448-1,1-1s1,0.447,1,1C26.339,21.058,21.701,25.791,16,25.791z"/><path d="M9.375,17.459c-0.265,0-0.529-0.104-0.726-0.312c-0.38-0.401-0.363-1.034,0.038-1.414l4.811-4.562c0.401-0.379,1.034-0.362,1.414,0.037c0.38,0.401,0.363,1.034-0.038,1.414l-4.811,4.562C9.87,17.368,9.622,17.459,9.375,17.459z"/><path d="M13.71,18.113c-0.26,0-0.521-0.102-0.716-0.303c-0.385-0.396-0.377-1.028,0.019-1.414l5.272-5.133c0.396-0.384,1.029-0.376,1.414,0.02c0.385,0.396,0.377,1.028-0.019,1.414l-5.272,5.133C14.213,18.018,13.961,18.113,13.71,18.113z"/><path d="M18.358,18.105c-0.261,0-0.522-0.102-0.718-0.304c-0.385-0.396-0.375-1.029,0.021-1.414l4.581-4.442c0.396-0.384,1.03-0.375,1.414,0.021c0.385,0.396,0.375,1.029-0.021,1.414l-4.581,4.442C18.86,18.011,18.609,18.105,18.358,18.105z"/><path d="M16.002,32c-0.552,0-1-0.447-1-0.999l-0.004-6.209c0-0.553,0.447-1.001,1-1.001h0c0.552,0,1,0.447,1,0.999l0.004,6.209C17.003,31.552,16.556,32,16.002,32L16.002,32z"/><path d="M23.477,31.119c-0.416,0-0.803-0.261-0.946-0.675l-2.364-6.886c-0.179-0.522,0.099-1.092,0.621-1.271c0.522-0.182,1.091,0.099,1.271,0.62l2.364,6.886c0.179,0.522-0.099,1.092-0.621,1.271C23.694,31.102,23.584,31.119,23.477,31.119z"/><path d="M8.523,31.119c-0.107,0-0.217-0.018-0.325-0.054c-0.522-0.18-0.8-0.749-0.621-1.271l2.364-6.886c0.179-0.522,0.747-0.8,1.271-0.622c0.522,0.18,0.8,0.749,0.621,1.271l-2.364,6.886C9.326,30.859,8.938,31.119,8.523,31.119z"/><path d="M11.012,9.076c-0.26,0-0.521-0.102-0.716-0.303C9.575,8.035,9.237,6.868,9.368,5.577c0.089-0.767,0.479-1.26,0.764-1.619c0.142-0.179,0.264-0.334,0.325-0.483c0.292-0.582,0.023-1.36-0.358-1.907c-0.315-0.453-0.204-1.076,0.25-1.392c0.455-0.318,1.078-0.204,1.392,0.249c0.7,1.006,1.208,2.553,0.535,3.879c-0.133,0.338-0.378,0.647-0.575,0.896c-0.217,0.274-0.322,0.414-0.343,0.594c-0.068,0.677,0.07,1.275,0.372,1.586c0.385,0.396,0.377,1.028-0.019,1.414C11.515,8.982,11.263,9.076,11.012,9.076z"/><path d="M15.964,9.076c-0.26,0-0.521-0.102-0.716-0.303c-0.721-0.739-1.059-1.905-0.928-3.196c0.089-0.767,0.479-1.26,0.764-1.619c0.142-0.179,0.264-0.334,0.325-0.483c0.292-0.582,0.022-1.36-0.358-1.907c-0.315-0.453-0.204-1.076,0.25-1.392c0.454-0.318,1.077-0.204,1.392,0.249c0.7,1.006,1.208,2.553,0.535,3.878c-0.133,0.339-0.378,0.648-0.575,0.896c-0.217,0.274-0.322,0.414-0.343,0.594c-0.068,0.677,0.07,1.275,0.372,1.586c0.385,0.396,0.377,1.028-0.019,1.414C16.468,8.982,16.216,9.076,15.964,9.076z"/><path d="M21.079,9.076c-0.26,0-0.52-0.101-0.716-0.302c-0.721-0.74-1.059-1.905-0.928-3.197c0.089-0.767,0.479-1.259,0.763-1.619c0.142-0.179,0.264-0.333,0.325-0.483c0.292-0.582,0.023-1.36-0.357-1.907c-0.315-0.454-0.204-1.077,0.25-1.393c0.455-0.314,1.078-0.203,1.392,0.25c0.7,1.007,1.208,2.554,0.534,3.879c-0.133,0.338-0.378,0.647-0.575,0.896c-0.217,0.274-0.322,0.414-0.343,0.594c-0.068,0.678,0.07,1.275,0.372,1.585c0.385,0.396,0.377,1.029-0.019,1.414C21.583,8.982,21.331,9.076,21.079,9.076z"/></svg>