<svg xmlns="http://www.w3.org/2000/svg" viewBox="0 0 32 32"><!--! Font Icona - https://fonticona.com | License - https://fonticona.com/license | Copyright 2022 FontIcona.com --><path d="M16.74,14.035c-0.257,0-0.514-0.099-0.709-0.295c-0.389-0.392-0.387-1.025,0.005-1.414l7.994-7.94c0.391-0.39,1.024-0.388,1.414,0.005c0.389,0.392,0.387,1.025-0.005,1.414l-7.994,7.94C17.25,13.938,16.995,14.035,16.74,14.035z"/><path d="M18.873,16.118c-0.259,0-0.517-0.1-0.713-0.299c-0.387-0.394-0.382-1.026,0.012-1.414l7.999-7.871c0.394-0.386,1.027-0.382,1.414,0.012s0.382,1.026-0.012,1.414l-7.999,7.871C19.379,16.022,19.126,16.118,18.873,16.118z"/><path d="M26.873,8.248c-0.312,0-0.618-0.145-0.813-0.417c-0.322-0.449-0.219-1.073,0.23-1.395l3.572-2.561l0.081-0.625c-0.337-0.34-0.851-0.856-1.189-1.197l-0.625,0.076l-2.585,3.555c-0.324,0.446-0.949,0.546-1.397,0.22c-0.446-0.325-0.545-0.95-0.22-1.397L26.766,0.6c0.163-0.224,0.412-0.371,0.688-0.404l1.543-0.188c0.308-0.039,0.613,0.069,0.831,0.288c2.169,2.184,2.169,2.184,2.169,2.596c0,0.043-0.003,0.085-0.008,0.128l-0.199,1.542c-0.035,0.275-0.184,0.523-0.409,0.685L27.455,8.06C27.278,8.187,27.075,8.248,26.873,8.248z"/><path d="M26.871,8.247c-0.257,0-0.514-0.099-0.709-0.295l-2.138-2.152c-0.389-0.392-0.387-1.025,0.005-1.414c0.391-0.39,1.024-0.388,1.414,0.005l2.138,2.152c0.389,0.392,0.387,1.025-0.005,1.414C27.381,8.15,27.126,8.247,26.871,8.247z"/><path d="M8.582,32.005c-2.284,0-4.099-1.433-5.628-2.962l0,0c-1.964-1.964-4.003-4.686-2.327-8.319c0.7-1.518,1.995-2.786,3.646-3.571c0.928-0.441,1.883-0.555,2.807-0.666c0.855-0.103,1.664-0.199,2.318-0.557c0.522-0.286,0.759-0.799,1.104-1.614c0.328-0.774,0.699-1.651,1.53-2.3c2.212-1.726,4.96-0.375,6.641,1.308c1.682,1.682,3.033,4.43,1.308,6.641c-0.649,0.831-1.526,1.203-2.3,1.53c-0.814,0.345-1.328,0.582-1.614,1.104c-0.358,0.654-0.455,1.463-0.557,2.318c-0.11,0.924-0.225,1.878-0.666,2.807c-0.785,1.65-2.053,2.945-3.571,3.646C10.308,31.815,9.414,32.005,8.582,32.005z M4.367,27.629c1.996,1.996,3.707,3.016,6.067,1.924c1.094-0.505,2.019-1.459,2.603-2.688c0.3-0.632,0.391-1.387,0.486-2.187c0.121-1.006,0.245-2.047,0.789-3.041c0.634-1.159,1.718-1.618,2.588-1.986c0.63-0.267,1.174-0.497,1.503-0.919c1.215-1.556-0.899-3.751-1.145-3.997c-0.246-0.245-2.44-2.361-3.997-1.145c-0.422,0.329-0.652,0.873-0.919,1.503c-0.368,0.87-0.827,1.954-1.986,2.588c-0.993,0.544-2.034,0.668-3.041,0.789c-0.799,0.096-1.554,0.186-2.186,0.486c-1.229,0.584-2.183,1.508-2.688,2.603C1.501,23.602,2.041,25.303,4.367,27.629L4.367,27.629z"/><path d="M30.595,7.44c-0.256,0-0.512-0.098-0.707-0.293l-1.035-1.035c-0.391-0.39-0.391-1.023,0-1.414c0.39-0.391,1.023-0.391,1.414,0l1.035,1.034c0.391,0.391,0.391,1.024,0,1.415C31.107,7.343,30.851,7.44,30.595,7.44z"/><path d="M28.576,8.811c-0.256,0-0.512-0.098-0.707-0.293l-1.035-1.035c-0.391-0.391-0.391-1.023,0-1.414s1.023-0.391,1.414,0l1.035,1.035c0.391,0.391,0.391,1.023,0,1.414C29.088,8.713,28.832,8.811,28.576,8.811z"/><path d="M24.867,5.102c-0.256,0-0.512-0.098-0.707-0.293l-0.991-0.991c-0.391-0.391-0.391-1.023,0-1.414s1.023-0.391,1.414,0l0.991,0.991c0.391,0.391,0.391,1.023,0,1.414C25.379,5.004,25.123,5.102,24.867,5.102z"/><path d="M26.532,3.23c-0.256,0-0.512-0.098-0.708-0.293L24.878,1.99c-0.39-0.391-0.39-1.024,0-1.415c0.391-0.39,1.024-0.39,1.415,0l0.947,0.947c0.39,0.391,0.39,1.024,0,1.415C27.044,3.133,26.788,3.23,26.532,3.23z"/><circle cx="10.911" cy="21.086" r="2"/><path d="M8.846,27.918c-0.256,0-0.512-0.098-0.707-0.293l-3.768-3.768c-0.391-0.391-0.391-1.023,0-1.414s1.023-0.391,1.414,0l3.768,3.768c0.391,0.391,0.391,1.023,0,1.414C9.358,27.821,9.102,27.918,8.846,27.918z"/></svg>