<svg xmlns="http://www.w3.org/2000/svg" viewBox="0 0 32 32"><!--! Font Icona - https://fonticona.com | License - https://fonticona.com/license | Copyright 2022 FontIcona.com --><path d="M11.187,31.997c-1.996,0-4.287-1.197-6.6-3.511c-1.301-1.3-5.356-5.819-2.934-9.378c0.937-1.376,2.438-2.278,4.34-2.61c0.297-0.052,0.617-0.084,0.943-0.116c1.175-0.114,1.754-0.228,1.986-0.774c0.13-0.307,0.198-0.677,0.269-1.069c0.113-0.62,0.241-1.323,0.654-1.986c0.826-1.326,2.294-1.886,3.832-1.461c1.921,0.532,4.175,2.603,5.704,4.114c0.188,0.187,0.295,0.44,0.297,0.706s-0.103,0.52-0.289,0.708c-0.397,0.408-1.158,1.484-0.956,2.198c0.151,0.534,0.908,0.998,2.132,1.305c0.138,0.035,0.267,0.098,0.379,0.187c0.394,0.313,0.764,0.882,0.623,1.541c-0.134,0.628-0.65,1.061-1.535,1.289v0l-0.641,0.16c-0.753,0.185-1.464,0.359-2.135,0.643c-0.546,0.231-0.66,0.811-0.774,1.986c-0.032,0.326-0.064,0.646-0.116,0.943c-0.333,1.902-1.235,3.403-2.611,4.34C12.981,31.737,12.116,31.997,11.187,31.997z M12.668,12.949c-0.388,0-0.809,0.151-1.126,0.66c-0.211,0.338-0.291,0.778-0.384,1.286c-0.084,0.46-0.179,0.981-0.396,1.492c-0.721,1.701-2.404,1.865-3.633,1.984c-0.274,0.027-0.543,0.052-0.793,0.096c-0.946,0.165-2.241,0.605-3.031,1.766C1.708,22.58,5.27,26.341,6,27.071c0.976,0.977,4.341,4.043,6.629,2.485c1.161-0.79,1.601-2.084,1.767-3.031c0.043-0.25,0.068-0.519,0.095-0.793c0.12-1.229,0.284-2.913,1.984-3.634c0.657-0.278,1.317-0.463,1.963-0.626c-1.037-0.521-1.685-1.23-1.934-2.121c-0.366-1.309,0.27-2.572,0.818-3.356c-1.802-1.708-3.206-2.708-4.18-2.978C12.999,12.978,12.836,12.949,12.668,12.949z M19.783,22.169h0.01H19.783z"/><path d="M16.557,14.965c-0.257,0-0.514-0.099-0.709-0.295c-0.389-0.392-0.387-1.025,0.005-1.414l7.692-7.641c0.391-0.39,1.025-0.387,1.414,0.005c0.389,0.392,0.387,1.025-0.005,1.414l-7.692,7.641C17.066,14.869,16.812,14.965,16.557,14.965z"/><path d="M18.678,16.915c-0.259,0-0.517-0.1-0.713-0.299c-0.387-0.394-0.382-1.027,0.012-1.414l7.635-7.513c0.394-0.387,1.027-0.382,1.414,0.012c0.387,0.394,0.382,1.027-0.012,1.414l-7.635,7.513C19.185,16.819,18.931,16.915,18.678,16.915z"/><path d="M24.248,7.324c-0.18,0-0.361-0.048-0.525-0.15c-0.47-0.291-0.615-0.907-0.324-1.376l3.297-5.324c0.291-0.47,0.906-0.614,1.376-0.324c0.47,0.291,0.615,0.907,0.324,1.376l-3.297,5.324C24.91,7.156,24.583,7.324,24.248,7.324z"/><path d="M26.315,9.403c-0.312,0-0.618-0.145-0.813-0.417c-0.322-0.449-0.219-1.073,0.23-1.395l3.79-2.718c0.448-0.322,1.072-0.22,1.395,0.23c0.322,0.449,0.219,1.073-0.23,1.395l-3.79,2.718C26.72,9.342,26.517,9.403,26.315,9.403z"/><path d="M30.105,6.686c-0.354,0-0.697-0.188-0.879-0.521l-2.558-4.686c-0.265-0.484-0.086-1.092,0.399-1.357c0.485-0.263,1.092-0.085,1.357,0.399l2.558,4.686c0.265,0.484,0.086,1.092-0.399,1.357C30.431,6.646,30.267,6.686,30.105,6.686z"/><path d="M26.313,9.402c-0.257,0-0.514-0.099-0.709-0.295L23.54,7.029c-0.389-0.392-0.387-1.025,0.005-1.414c0.391-0.39,1.025-0.387,1.414,0.005l2.064,2.078c0.389,0.392,0.387,1.025-0.005,1.414C26.823,9.306,26.568,9.402,26.313,9.402z"/><path d="M10.172,27.552c-0.256,0-0.512-0.098-0.707-0.293l-3.862-3.862c-0.391-0.391-0.391-1.023,0-1.414s1.023-0.391,1.414,0l3.862,3.862c0.391,0.391,0.391,1.023,0,1.414C10.684,27.455,10.428,27.552,10.172,27.552z"/><path d="M12.329,25.396c-0.256,0-0.512-0.098-0.707-0.293L7.76,21.241c-0.391-0.391-0.391-1.023,0-1.414s1.023-0.391,1.414,0l3.862,3.862c0.391,0.391,0.391,1.023,0,1.414C12.84,25.298,12.584,25.396,12.329,25.396z"/></svg>