<svg xmlns="http://www.w3.org/2000/svg" viewBox="0 0 32 32"><!--! Font Icona - https://fonticona.com | License - https://fonticona.com/license | Copyright 2022 FontIcona.com --><path d="M16,11.131c-2.904,0-7.777-0.313-7.777-2.413S13.096,6.305,16,6.305s7.777,0.313,7.777,2.413S18.904,11.131,16,11.131z M11.314,8.718C12.329,8.937,13.916,9.131,16,9.131s3.671-0.194,4.686-0.413C19.671,8.499,18.084,8.305,16,8.305S12.329,8.499,11.314,8.718z"/><path d="M16,32c-1.353,0-2.706-0.238-3.994-0.716c-0.392-0.146-0.652-0.52-0.652-0.938v-4.6l-1.229-1.661c-0.104-0.141-0.169-0.306-0.189-0.479L8.23,9.021C8.166,8.472,8.559,7.976,9.107,7.911c0.544-0.067,1.045,0.328,1.109,0.877l1.675,14.322l1.267,1.713c0.127,0.172,0.196,0.381,0.196,0.595v4.206c1.728,0.502,3.564,0.502,5.292,0v-4.337c0-0.214,0.069-0.423,0.196-0.595l1.267-1.713l1.675-14.322c0.064-0.549,0.564-0.947,1.109-0.877c0.548,0.064,0.941,0.561,0.877,1.109l-1.706,14.587c-0.02,0.173-0.085,0.338-0.189,0.479l-1.229,1.661v4.73c0,0.418-0.26,0.792-0.652,0.938C18.706,31.762,17.353,32,16,32z"/><path d="M15.959,25.229c-1.807,0-3.614-0.315-5.333-0.944c-0.519-0.19-0.785-0.765-0.595-1.283c0.19-0.519,0.766-0.783,1.283-0.596c2.996,1.098,6.294,1.098,9.291,0c0.518-0.188,1.092,0.077,1.283,0.596c0.19,0.519-0.077,1.093-0.595,1.283C19.573,24.914,17.766,25.229,15.959,25.229z"/><path d="M18.487,8.305c-0.085,0-0.171-0.011-0.257-0.033c-0.534-0.143-0.852-0.689-0.709-1.224l0.76-2.858c0.044-0.166,0.13-0.318,0.251-0.441l3.365-3.446c0.386-0.396,1.019-0.401,1.414-0.018c0.395,0.386,0.403,1.02,0.017,1.414l-3.181,3.259l-0.692,2.604C19.334,8.009,18.93,8.305,18.487,8.305z"/><path d="M12.099,18.406c-0.602,0-1.032-0.38-1.126-1.001c-0.177-1.156,0.83-3.225,1.969-3.55c0.303-0.088,1.059-0.169,1.532,0.935c0.109,0.253-0.009,0.547-0.263,0.656c-0.252,0.106-0.548-0.009-0.656-0.264c-0.081-0.188-0.207-0.404-0.338-0.365c-0.568,0.162-1.366,1.711-1.255,2.438c0.023,0.154,0.043,0.151,0.149,0.151c0.238-0.006,0.654-0.4,0.862-0.684c0.164-0.221,0.476-0.271,0.699-0.106c0.222,0.163,0.271,0.475,0.108,0.697c-0.131,0.179-0.824,1.072-1.644,1.093C12.123,18.406,12.111,18.406,12.099,18.406z"/><path d="M13.07,18.616c-0.045,0-0.09-0.006-0.135-0.019c-0.266-0.074-0.421-0.35-0.347-0.616l0.51-1.826c0.074-0.266,0.353-0.422,0.616-0.347c0.266,0.074,0.421,0.35,0.347,0.616l-0.51,1.826C13.489,18.472,13.289,18.616,13.07,18.616z"/><path d="M14.569,18.435c-0.065,0-0.13-0.006-0.194-0.02c-0.207-0.044-0.379-0.164-0.483-0.337c-0.198-0.325-0.071-0.759,0.076-1.174c0.052-0.151,0.22-0.629,0.454-0.932c0.17-0.218,0.484-0.258,0.702-0.089c0.218,0.169,0.258,0.483,0.089,0.702c-0.082,0.104-0.201,0.354-0.277,0.58c-0.016,0.045-0.03,0.086-0.043,0.124c0.147-0.116,0.25-0.243,0.327-0.401l0.091-0.19c0.126-0.26,0.252-0.518,0.363-0.787c0.105-0.256,0.397-0.38,0.653-0.271c0.255,0.104,0.377,0.397,0.272,0.652c-0.119,0.288-0.253,0.565-0.388,0.843l-0.09,0.188c-0.164,0.34-0.405,0.617-0.736,0.848C15.236,18.272,14.906,18.435,14.569,18.435z M14.789,17.68h0.01H14.789z"/><path d="M16.847,18.414c-0.344,0-0.538-0.147-0.642-0.277c-0.268-0.333-0.137-0.78-0.073-0.994c0.271-0.925,0.681-1.812,1.076-2.67c0.116-0.25,0.417-0.368,0.667-0.253c0.25,0.115,0.364,0.404,0.249,0.654l-0.008,0.018c-0.383,0.831-0.746,1.617-0.997,2.437c0.059-0.035,0.12-0.083,0.191-0.147c0.088-0.079,0.141-0.124,0.223-0.178c0.23-0.151,0.541-0.088,0.692,0.144c0.151,0.23,0.087,0.541-0.144,0.692c-0.035,0.023-0.056,0.044-0.087,0.072c-0.249,0.224-0.579,0.469-1.06,0.5C16.904,18.413,16.875,18.414,16.847,18.414z M17.042,17.643h0.01H17.042z"/><path d="M17.06,19.928c-0.061,0-0.122-0.011-0.181-0.034c-0.257-0.1-0.385-0.39-0.285-0.647l1.22-3.138c0.099-0.257,0.39-0.386,0.647-0.284c0.257,0.1,0.385,0.39,0.285,0.647l-1.22,3.138C17.449,19.807,17.26,19.928,17.06,19.928z"/><path d="M15.941,18.547c-0.113,0-0.224-0.021-0.331-0.065c-0.42-0.172-0.635-0.621-0.572-1.202c0.029-0.274,0.273-0.479,0.55-0.443c0.274,0.029,0.473,0.275,0.444,0.551c-0.004,0.036-0.005,0.067-0.005,0.094c0.016-0.015,0.032-0.033,0.05-0.056c0.171-0.214,0.486-0.252,0.702-0.082c0.217,0.172,0.253,0.486,0.082,0.703C16.605,18.369,16.269,18.547,15.941,18.547z M16.045,17.6h0.01H16.045z"/><path d="M18.92,18.511c-0.038,0-0.077-0.001-0.116-0.004c-0.192-0.012-0.361-0.133-0.433-0.312c-0.109-0.271-0.077-0.529,0.016-0.759c-0.196,0.138-0.467,0.119-0.641-0.056c-0.195-0.195-0.195-0.512,0-0.707c0.232-0.232,0.665-0.665,1.169-0.799c0.312-0.085,0.838-0.02,1.035,0.38c0.09,0.185,0.084,0.364,0.04,0.521l0.028-0.027c0.198-0.192,0.514-0.188,0.707,0.01c0.192,0.198,0.188,0.515-0.011,0.707l-0.173,0.172C20.133,18.047,19.672,18.511,18.92,18.511z"/></svg>