<svg xmlns="http://www.w3.org/2000/svg" viewBox="0 0 32 32"><!--! Font Icona - https://fonticona.com | License - https://fonticona.com/license | Copyright 2022 FontIcona.com --><path d="M29.24,5.168c-0.358,0-0.704-0.192-0.884-0.53l-1.215-2.285l-4.676,2.486c-0.488,0.26-1.094,0.074-1.353-0.414c-0.26-0.487-0.074-1.093,0.413-1.352l5.559-2.956c0.487-0.26,1.094-0.074,1.353,0.413l1.685,3.168c0.26,0.488,0.074,1.093-0.413,1.353C29.56,5.13,29.398,5.168,29.24,5.168z"/><path d="M15.327,19.771c-0.229,0-0.453-0.019-0.672-0.055c-1.068-0.178-1.922-0.773-2.403-1.679s-0.499-1.946-0.048-2.931c0.433-0.948,1.27-1.771,2.418-2.382l5.371-2.856c0.021-0.012,0.041-0.023,0.062-0.033l8.625-4.586l-0.531-0.999c-0.26-0.488-0.074-1.093,0.413-1.353c0.486-0.26,1.093-0.074,1.353,0.413l1.001,1.883c0.26,0.488,0.074,1.093-0.413,1.352L21.185,11.5c-0.215,0.354-0.667,1.268-0.285,2.146c0.455,0.849,0.362,1.954-0.297,3.041c-0.557,0.917-1.487,1.754-2.62,2.356C17.078,19.523,16.173,19.771,15.327,19.771z M18.767,12.785l-3.146,1.672c-0.807,0.429-1.353,0.943-1.599,1.48c-0.131,0.287-0.238,0.721-0.005,1.16c0.234,0.439,0.654,0.594,0.965,0.646c0.58,0.095,1.313-0.068,2.061-0.466c0.809-0.43,1.482-1.023,1.85-1.628c0.13-0.214,0.41-0.753,0.207-1.135C18.836,13.909,18.749,13.322,18.767,12.785z"/><path d="M9.283,32c-0.159,0-0.316-0.038-0.461-0.112c-2.309-1.198-2.71-7.755-2.777-9.736c-0.083-0.918-0.337-1.59-0.694-1.79c-0.319-0.177-0.814-0.005-0.964,0.069c-0.26,0.13-0.577,0.146-0.845,0.035c-0.865-0.36-1.177-0.919-1.286-1.323c-0.223-0.826,0.241-1.494,0.336-1.62c0.059-0.076,0.127-0.145,0.204-0.201c0.055-0.132,0.026-0.847-0.11-1.39c-0.452-2.269,1.754-3.891,3.127-4.5L25.185,1.128c0.487-0.261,1.094-0.075,1.353,0.414c0.26,0.487,0.074,1.093-0.413,1.352L6.688,13.228c-0.642,0.291-2.25,1.261-2.052,2.263c0.114,0.44,0.401,1.844-0.13,2.832c0.516-0.083,1.161-0.064,1.793,0.278c1.003,0.545,1.589,1.698,1.741,3.429c0.122,3.495,0.765,6.85,1.447,7.831l5.92-2.163l-0.261-0.933c-0.515-0.137-0.965-0.481-1.231-0.981c-0.373-0.701-0.279-1.529,0.173-2.124c-0.347-0.181-0.641-0.463-0.831-0.82c-0.391-0.734-0.269-1.607,0.239-2.206l-0.469-1.95c-0.129-0.537,0.202-1.077,0.739-1.206c0.537-0.125,1.077,0.202,1.206,0.739l0.616,2.567c0.115,0.482-0.141,0.978-0.602,1.162c0.496-0.066,0.97,0.19,1.1,0.671l0.281,1.037c0.144,0.528-0.164,1.073-0.69,1.224c0.532-0.144,1.051,0.12,1.199,0.649l0.706,2.522c0.141,0.503-0.129,1.029-0.619,1.209l-7.337,2.682C9.516,31.979,9.399,32,9.283,32z"/><path d="M16.105,17.047c-0.192,0-0.388-0.056-0.559-0.171c-0.708-0.478-1.459-1.115-1.663-2.214c-0.101-0.543,0.258-1.065,0.801-1.166c0.541-0.104,1.064,0.257,1.166,0.8c0.058,0.309,0.278,0.559,0.815,0.922c0.458,0.31,0.578,0.931,0.269,1.389C16.742,16.893,16.427,17.047,16.105,17.047z"/><path d="M4.106,14.97c-0.061,0-0.122-0.005-0.184-0.017L1.645,14.53c-0.543-0.101-0.901-0.623-0.801-1.166c0.101-0.543,0.621-0.902,1.166-0.801l2.278,0.423c0.543,0.101,0.901,0.623,0.801,1.166C4.999,14.634,4.579,14.97,4.106,14.97z"/><path d="M30.174,4.462c-0.358,0-0.704-0.192-0.884-0.53L28.507,2.46c-0.26-0.488-0.074-1.093,0.413-1.353c0.486-0.26,1.094-0.074,1.353,0.413l0.783,1.472c0.26,0.488,0.074,1.093-0.413,1.353C30.493,4.425,30.332,4.462,30.174,4.462z"/></svg>