<svg xmlns="http://www.w3.org/2000/svg" viewBox="0 0 32 32"><!--! Font Icona - https://fonticona.com | License - https://fonticona.com/license | Copyright 2022 FontIcona.com --><path d="M20.674,32H9.387L9.09,31.679c-0.1-0.108-2.446-2.682-2.257-5.477c0.088-1.306,0.69-2.429,1.792-3.339l0,0c2.482-2.047,5.953-2.102,10.031-0.158l0.198,0.094c1.531,0.727,3.629,1.722,4.481,3.497c0.495,1.029,0.46,2.213-0.099,3.332C23.226,29.653,22.036,32,20.674,32z M20.427,30.052L20.427,30.052L20.427,30.052z M10.292,30h10.206c0.277-0.231,0.788-0.94,0.95-1.266c0.284-0.569,0.312-1.099,0.085-1.572c-0.546-1.138-2.274-1.958-3.536-2.557l-0.2-0.096c-3.377-1.607-6.033-1.644-7.898-0.104l0,0c-0.668,0.552-1.019,1.182-1.07,1.925C8.726,27.808,9.781,29.348,10.292,30z"/><path d="M11.96,23.279c-0.407,0-0.79-0.25-0.938-0.654l-2.417-6.569c-0.19-0.519,0.075-1.094,0.593-1.284c0.518-0.191,1.094,0.074,1.284,0.593l2.417,6.569c0.19,0.519-0.075,1.094-0.593,1.284C12.191,23.259,12.075,23.279,11.96,23.279z"/><path d="M12.257,16.708c-0.076,0-0.154-0.009-0.231-0.027c-1.575-0.372-3.311-0.374-4.888,0c-0.538,0.13-1.077-0.205-1.203-0.742c-0.128-0.537,0.205-1.076,0.742-1.203c1.872-0.443,3.936-0.443,5.81,0c0.537,0.127,0.87,0.666,0.742,1.203C13.12,16.399,12.71,16.708,12.257,16.708z"/><path d="M19.817,25.396c-0.231,0-0.464-0.08-0.652-0.242c-0.419-0.36-0.466-0.992-0.105-1.41c3.672-4.265,4.81-9.074,3.203-13.543c-0.187-0.52,0.083-1.092,0.604-1.279c0.517-0.188,1.091,0.083,1.279,0.604c1.86,5.176,0.593,10.688-3.57,15.523C20.377,25.278,20.098,25.396,19.817,25.396z"/><path d="M23.848,15.866h-1.513c-0.553,0-1-0.447-1-1s0.447-1,1-1h1.513c0.553,0,1,0.447,1,1S24.4,15.866,23.848,15.866z"/><path d="M23.979,13.678c-0.357,0-0.703-0.191-0.883-0.529c-0.261-0.487-0.076-1.093,0.411-1.353c2.406-1.284,3.847-2.881,4.281-4.744c0.658-2.822-1.188-5.44-1.207-5.467c-0.321-0.447-0.221-1.072,0.227-1.395c0.445-0.323,1.068-0.225,1.393,0.222c0.099,0.136,2.396,3.354,1.541,7.072c-0.566,2.46-2.347,4.504-5.293,6.075C24.299,13.64,24.138,13.678,23.979,13.678z"/><path d="M21.236,12.099c-0.272,0-0.545-0.111-0.742-0.33c-0.37-0.41-0.338-1.042,0.072-1.412l4.048-3.654c0.41-0.37,1.041-0.338,1.412,0.072c0.37,0.41,0.338,1.042-0.072,1.412l-4.048,3.654C21.715,12.014,21.476,12.099,21.236,12.099z"/><path d="M13.462,29.131c-1.379,0-2.5-1.121-2.5-2.5s1.121-2.5,2.5-2.5s2.5,1.121,2.5,2.5S14.841,29.131,13.462,29.131z M13.462,26.131c-0.275,0-0.5,0.225-0.5,0.5s0.225,0.5,0.5,0.5s0.5-0.225,0.5-0.5S13.737,26.131,13.462,26.131z"/><path d="M28.072,32H15.254c-0.553,0-1-0.447-1-1s0.447-1,1-1h12.818c0.553,0,1,0.447,1,1S28.625,32,28.072,32z"/><path d="M28.072,32c-0.553,0-1-0.447-1-1s0.447-1,1-1c0.341,0,0.618-0.277,0.618-0.618c0-0.553,0.447-1,1-1s1,0.447,1,1C30.69,30.826,29.516,32,28.072,32z"/><path d="M16.746,32H3.928c-0.553,0-1-0.447-1-1s0.447-1,1-1h12.818c0.553,0,1,0.447,1,1S17.299,32,16.746,32z"/><path d="M3.928,32c-1.443,0-2.618-1.175-2.618-2.618c0-0.553,0.447-1,1-1s1,0.447,1,1C3.31,29.723,3.587,30,3.928,30c0.553,0,1,0.447,1,1S4.48,32,3.928,32z"/></svg>