<svg xmlns="http://www.w3.org/2000/svg" viewBox="0 0 32 32"><!--! Font Icona - https://fonticona.com | License - https://fonticona.com/license | Copyright 2022 FontIcona.com --><path d="M8.615,25.75c-0.553,0-1-0.448-1-1V1c0-0.552,0.447-1,1-1s1,0.448,1,1v23.75C9.615,25.302,9.168,25.75,8.615,25.75z"/><path d="M23.385,18.143c-0.553,0-1-0.448-1-1c0-4.342-2.864-7.875-6.385-7.875s-6.385,3.533-6.385,7.875c0,0.552-0.447,1-1,1s-1-0.448-1-1c0-5.445,3.762-9.875,8.385-9.875s8.385,4.43,8.385,9.875C24.385,17.695,23.938,18.143,23.385,18.143z"/><path d="M23.385,25.75c-0.553,0-1-0.448-1-1v-7.607c0-0.552,0.447-1,1-1s1,0.448,1,1v7.607C24.385,25.302,23.938,25.75,23.385,25.75z"/></svg>