<svg xmlns="http://www.w3.org/2000/svg" viewBox="0 0 32 32"><!--! Font Icona - https://fonticona.com | License - https://fonticona.com/license | Copyright 2022 FontIcona.com --><path d="M29,32H3c-1.654,0-3-1.346-3-3V3c0-1.654,1.346-3,3-3h26c1.654,0,3,1.346,3,3v26C32,30.654,30.654,32,29,32z M3,2C2.449,2,2,2.448,2,3v26c0,0.552,0.449,1,1,1h26c0.551,0,1-0.448,1-1V3c0-0.552-0.449-1-1-1H3z"/><path d="M16,26.996c-0.552,0-1-0.447-1-1v-7.874L9.088,8.239C8.805,7.765,8.959,7.151,9.433,6.867c0.474-0.281,1.088-0.128,1.372,0.345L16,15.897l5.195-8.686c0.284-0.473,0.898-0.627,1.372-0.345c0.313,0.188,0.487,0.52,0.487,0.86c0,0.174-0.046,0.351-0.142,0.512L17,18.122v7.874C17,26.549,16.552,26.996,16,26.996z"/></svg>