<svg xmlns="http://www.w3.org/2000/svg" viewBox="0 0 32 32"><!--! Font Icona - https://fonticona.com | License - https://fonticona.com/license | Copyright 2022 FontIcona.com --><path d="M9.691,29.997c-1.061,0-2.294-0.662-3.048-1.142c-1.242-0.808-2.072-1.788-2.478-2.918c-0.47-1.316-0.216-2.212,0.077-3.249c0.105-0.373,0.208-0.748,0.303-1.125c0.202-0.804,0.344-1.513,0.436-2.169c0.13-0.939,0.157-1.879,0.082-2.789l1.994-0.164c0.087,1.056,0.055,2.143-0.096,3.228c-0.101,0.729-0.257,1.508-0.477,2.381c-0.099,0.395-0.207,0.789-0.318,1.183c-0.276,0.979-0.359,1.354-0.117,2.032c0.257,0.718,0.805,1.343,1.676,1.909c0.544,0.344,1.224,0.656,1.655,0.776c-0.14-0.651-0.274-1.984,0.58-3.075c0.05-0.075,0.709-1.1-0.068-2.386c-0.65-1.074-0.86-1.998-0.643-2.824c0.082-0.31,0.232-0.534,0.342-0.697l0.07-0.108c0.336-0.574,0.48-1.239,0.368-1.693c-0.01-0.039-0.03-0.103-0.073-0.185l1.773-0.926c0.107,0.206,0.188,0.418,0.241,0.629c0.238,0.965,0.02,2.154-0.583,3.185c-0.041,0.069-0.087,0.14-0.134,0.21c-0.028,0.042-0.061,0.083-0.082,0.129c-0.029,0.119-0.028,0.488,0.431,1.246c1.493,2.469,0.016,4.541-0.048,4.628c-0.478,0.61-0.178,1.61-0.175,1.62l0.043,0.199c0.124,1.117-0.414,1.632-0.745,1.838C10.386,29.922,10.048,29.997,9.691,29.997z"/><path d="M29.185,18.3c-0.056,0-0.112-0.005-0.168-0.015c-3.196-0.546-6.521-1.199-9.657-1.829c-1.553,0.718-3.508,1.151-5.96,1.323c-1.61,0.114-3.337,0.128-5.278,0.04C3.095,17.594,0.059,14.731,0,10.163C0.059,5.568,3.095,2.706,8.121,2.48c1.933-0.088,3.658-0.074,5.278,0.04c2.452,0.172,4.407,0.606,5.961,1.324c3.608-0.726,6.649-1.316,9.656-1.83c0.428-0.071,0.859,0.142,1.059,0.531c2.573,5.046,2.573,10.162,0,15.208C29.902,18.093,29.556,18.3,29.185,18.3z M19.228,14.409c0.066,0,0.132,0.007,0.197,0.02c2.976,0.6,6.133,1.224,9.188,1.758c1.84-4.009,1.84-8.064,0-12.073c-2.837,0.496-5.751,1.066-9.188,1.759c-0.221,0.044-0.448,0.014-0.649-0.088c-1.34-0.679-3.196-1.105-5.517-1.27c-1.541-0.106-3.192-0.118-5.048-0.036C5.917,4.581,2.061,5.457,2,10.163c0.061,4.68,3.917,5.556,6.211,5.658c1.861,0.085,3.513,0.071,5.048-0.036c2.32-0.164,4.177-0.59,5.518-1.269C18.917,14.445,19.071,14.409,19.228,14.409z"/><path d="M19.227,16.409c-0.191,0-0.384-0.055-0.555-0.169c-0.459-0.307-0.583-0.928-0.275-1.387c3.782-5.659,0.296-9.091,0.146-9.233c-0.397-0.38-0.417-1.012-0.04-1.412c0.377-0.398,1.004-0.424,1.406-0.049c0.05,0.046,4.905,4.692,0.15,11.806C19.866,16.253,19.55,16.409,19.227,16.409z"/><path d="M13.725,22.362c-0.963,0-2.189-0.414-3.469-0.892c-0.169-0.063-0.307-0.115-0.398-0.146c-0.524-0.175-0.808-0.741-0.634-1.265c0.175-0.524,0.741-0.805,1.265-0.634c0.108,0.036,0.27,0.096,0.467,0.17c1.437,0.536,2.191,0.727,2.585,0.768c-0.029-0.107-0.061-0.21-0.09-0.31c-0.182-0.605-0.387-1.291-0.183-2.185c0.125-0.554,0.353-1.085,0.655-1.536c0.309-0.458,0.929-0.581,1.388-0.272s0.58,0.93,0.272,1.388c-0.167,0.249-0.294,0.548-0.365,0.865c-0.083,0.364-0.011,0.636,0.148,1.167c0.041,0.137,0.082,0.277,0.122,0.424c0.2,0.74,0.084,1.415-0.33,1.898C14.815,22.204,14.32,22.362,13.725,22.362z"/><path d="M6.738,16.924c-1.068-2.251-2.146-4.52-2.299-7.222C4.296,7.168,5.284,3.974,7.452,2.771c0.485-0.27,1.092-0.094,1.359,0.389C9.08,3.644,8.905,4.252,8.423,4.52c-1.362,0.756-2.092,3.22-1.987,5.069c0.132,2.312,1.079,4.308,2.083,6.421l-0.877,0.485L6.738,16.924z"/></svg>