<svg xmlns="http://www.w3.org/2000/svg" viewBox="0 0 32 32"><!--! Font Icona - https://fonticona.com | License - https://fonticona.com/license | Copyright 2022 FontIcona.com --><path d="M2.646,25.244c-0.271,0-0.539-0.109-0.736-0.324c-0.374-0.407-0.347-1.04,0.061-1.413l0.725-0.659c0.312-0.281,0.625-0.565,0.952-0.868l12.471-11.571c0.404-0.376,1.036-0.352,1.413,0.053c0.375,0.405,0.352,1.038-0.054,1.413L5.008,23.446c-0.335,0.31-0.654,0.599-0.971,0.885L3.322,24.98C3.131,25.157,2.889,25.244,2.646,25.244z"/><path d="M6.561,29.291c-0.242,0-0.485-0.087-0.677-0.264c-0.407-0.374-0.433-1.006-0.06-1.413l10.098-10.975c0.965-1.064,2.011-2.219,2.982-3.309c0.04-0.045,0.085-0.086,0.132-0.124c0.538-0.419,1.146-0.61,1.889-0.587c0.679,0.023,1.322,0.281,1.823,0.726c1.03,0.783,1.432,2.147,1.049,3.382l1.764,1.765l4.122-4.123c-0.586-0.59-1.176-1.179-1.77-1.767l-1.428,0.002c-0.013,0.002-0.076-0.002-0.115-0.006c-0.565-0.065-1.071-0.347-1.425-0.792c-0.353-0.445-0.512-1.002-0.446-1.566l0.029-0.968c0.001-0.017,0.001-0.035,0.002-0.052l-3.618-3.618c-1.436-1.547-3.506-2.436-5.706-2.465c-0.575-0.021-1.137,0.03-1.685,0.147c0.457,0.152,0.896,0.346,1.32,0.582c2.054,1.02,3.273,3.198,3.066,5.527l-0.112,1.812c-0.035,0.551-0.489,0.969-1.061,0.936c-0.551-0.034-0.97-0.509-0.936-1.06l0.114-1.839c0.136-1.529-0.651-2.935-2.003-3.607c-0.764-0.423-1.548-0.664-2.372-0.736c-0.701-0.025-1.261-0.51-1.376-1.233c-0.149-0.668,0.24-1.38,0.922-1.643c1.292-0.63,2.748-0.931,4.17-0.886c2.723,0.036,5.317,1.158,7.098,3.078l3.666,3.666c0.528,0.526,0.516,1.138,0.51,1.433l-0.037,1.077c-0.011,0.12,0.032,0.193,0.083,0.215l1.484-0.002c0.472,0.04,0.823,0.189,1.112,0.434c0.79,0.778,1.518,1.506,2.238,2.233c0.279,0.28,0.573,0.573,0.59,1.063c0.019,0.531-0.307,0.855-0.567,1.116L26.74,20.14c-0.709,0.708-1.367,0.992-2.284,0.075l-2.56-2.56c-0.329-0.329-0.388-0.842-0.141-1.237c0.318-0.508,0.198-1.166-0.277-1.53c-0.211-0.184-0.408-0.263-0.612-0.27c-0.283-0.007-0.411,0.037-0.538,0.121c-0.956,1.072-1.979,2.201-2.929,3.25L7.297,28.968C7.1,29.183,6.83,29.291,6.561,29.291z M11.664,2.902c0.01,0.001,0.02,0.002,0.028,0.003C11.684,2.903,11.674,2.902,11.664,2.902z"/><path d="M18.198,16.597c-0.256,0-0.512-0.098-0.707-0.293l-2.938-2.938c-0.391-0.391-0.391-1.024,0-1.414c0.391-0.391,1.023-0.391,1.414,0l2.938,2.938c0.391,0.391,0.391,1.024,0,1.414C18.71,16.5,18.454,16.597,18.198,16.597z"/><path d="M3.892,30.87c-0.976,0-1.894-0.38-2.584-1.07L1.07,29.562C0.377,28.868-0.004,27.946,0,26.965c0.003-0.98,0.389-1.899,1.087-2.587l0.857-0.846c0.392-0.387,1.024-0.384,1.414,0.009c0.388,0.393,0.384,1.026-0.01,1.415l-0.857,0.846c-0.315,0.311-0.49,0.727-0.491,1.17c-0.002,0.444,0.171,0.862,0.484,1.176l0.237,0.237c0.312,0.312,0.729,0.484,1.17,0.484c0.002,0,0.003,0,0.005,0c0.443-0.001,0.859-0.176,1.172-0.491l0.781-0.791c0.387-0.393,1.021-0.396,1.414-0.008c0.393,0.388,0.396,1.021,0.008,1.415L6.49,29.785c-0.688,0.697-1.608,1.082-2.588,1.085C3.898,30.87,3.896,30.87,3.892,30.87z"/></svg>