<svg xmlns="http://www.w3.org/2000/svg" viewBox="0 0 32 32"><!--! Font Icona - https://fonticona.com | License - https://fonticona.com/license | Copyright 2022 FontIcona.com --><path d="M15.998,32c-8.88,0-9.421-5.394-9.817-9.333c-0.05-0.502-0.1-0.996-0.164-1.473c-0.464-3.415-2.826-3.875-2.926-3.893c-0.314-0.056-0.589-0.259-0.729-0.546s-0.142-0.623,0.007-0.906c0.715-1.359,1.693-2.224,2.907-2.57c0.79-0.227,1.551-0.184,2.174-0.055V6.594c0-1.939,1.577-3.516,3.516-3.516c0.763,0,1.433,0.355,1.979,0.894c0.153-0.575,0.355-1.078,0.623-1.377c0.471-0.526,1.317-1.733,1.603-2.154c0.184-0.27,0.488-0.434,0.815-0.437c0.331-0.034,0.635,0.152,0.825,0.418c0.01,0.015,1.041,1.454,1.617,2.098c0.268,0.299,0.47,0.801,0.623,1.376c0.545-0.539,1.216-0.894,1.979-0.894c1.939,0,3.516,1.577,3.516,3.516v6.631c0.623-0.128,1.383-0.171,2.174,0.055c1.214,0.346,2.192,1.211,2.907,2.57c0.15,0.286,0.153,0.627,0.008,0.915c-0.145,0.289-0.422,0.489-0.741,0.538c-0.089,0.016-2.451,0.476-2.915,3.892c-0.066,0.487-0.115,0.993-0.166,1.507c-0.384,3.916-0.911,9.281-9.804,9.374C16.005,32,16.002,32,15.998,32z M4.806,15.834c1.195,0.639,2.78,2.049,3.193,5.091c0.068,0.499,0.12,1.016,0.173,1.542c0.405,4.041,0.755,7.532,7.821,7.533c7.094-0.076,7.436-3.548,7.831-7.569c0.053-0.539,0.105-1.07,0.175-1.581c0.413-3.043,1.998-4.452,3.193-5.091c-0.303-0.311-0.639-0.521-1.005-0.628c-1.061-0.311-2.129,0.288-2.139,0.294c-0.31,0.175-0.693,0.176-1-0.003c-0.308-0.179-0.5-0.507-0.5-0.863V6.518c0-0.836-0.68-1.516-1.516-1.516c-0.623,0-1.516,1.487-1.516,2.526c0,0.552-0.448,0.999-1,0.999l0,0c-0.552,0-1-0.448-1-1c0-1.007-0.299-3.256-0.594-3.696c-0.262-0.291-0.598-0.718-0.904-1.12c-0.319,0.436-0.676,0.904-0.958,1.219c-0.276,0.416-0.576,2.666-0.576,3.673c0,0.552-0.448,1-1,1s-1-0.447-1-0.999c0-1.038-0.893-2.525-1.516-2.525c-0.836,0-1.516,0.68-1.516,1.516v8.041c0,0.358-0.192,0.69-0.503,0.868c-0.311,0.178-0.694,0.175-1.003-0.005c-0.004-0.003-1.071-0.6-2.134-0.29C5.445,15.313,5.109,15.524,4.806,15.834z"/><path d="M15.998,25.808c-2.84,0-5.49-1.529-6.915-3.991c-0.18-0.31-0.18-0.692,0-1.002c1.425-2.462,4.075-3.991,6.915-3.991s5.49,1.529,6.915,3.991c0.18,0.31,0.18,0.692,0,1.002C21.488,24.279,18.838,25.808,15.998,25.808z M11.138,21.317c1.119,1.55,2.931,2.492,4.86,2.492s3.742-0.942,4.86-2.492c-1.119-1.55-2.931-2.492-4.86-2.492S12.257,19.767,11.138,21.317z"/><circle cx="15.998" cy="21.317" r="1.25"/></svg>