<svg xmlns="http://www.w3.org/2000/svg" viewBox="0 0 32 32"><!--! Font Icona - https://fonticona.com | License - https://fonticona.com/license | Copyright 2022 FontIcona.com --><path d="M12.631,8.893c-0.552,0-1-0.447-1-1V6.859c0-1.853,1.507-3.359,3.36-3.359s3.359,1.507,3.359,3.359v0.95c0,0.553-0.448,1-1,1s-1-0.447-1-1v-0.95c0-0.75-0.61-1.359-1.359-1.359c-0.75,0-1.36,0.609-1.36,1.359v1.033C13.631,8.445,13.184,8.893,12.631,8.893z"/><path d="M7.912,11.109c-0.552,0-1-0.447-1-1V7.782c0-1.853,1.507-3.36,3.36-3.36s3.36,1.508,3.36,3.36v1.349c0,0.553-0.448,1-1,1s-1-0.447-1-1V7.782c0-0.75-0.61-1.36-1.36-1.36s-1.36,0.61-1.36,1.36v2.327C8.912,10.662,8.464,11.109,7.912,11.109z"/><path d="M22.07,10.391c-0.552,0-1-0.447-1-1v-1.2c0-0.75-0.61-1.36-1.36-1.36s-1.36,0.61-1.36,1.36c0,0.553-0.448,1.035-1,1.035s-1-0.411-1-0.964c0-1.924,1.507-3.432,3.36-3.432s3.36,1.508,3.36,3.36v1.2C23.07,9.943,22.623,10.391,22.07,10.391z"/><path d="M26.79,16.113c-0.552,0-1-0.447-1-1V9.48c0-0.75-0.61-1.359-1.36-1.359S23.07,8.73,23.07,9.48c0,0.553-0.448,1-1,1s-1-0.447-1-1c0-0.001,0-0.001,0-0.002c0.001-1.852,1.508-3.357,3.36-3.357c1.853,0,3.36,1.507,3.36,3.359v5.633C27.79,15.666,27.342,16.113,26.79,16.113z"/><path d="M13.956,28.5c-0.065,0-0.132-0.006-0.199-0.02c-2.777-0.562-3.161-2.524-3.469-4.102c-0.111-0.565-0.215-1.101-0.413-1.593c-0.396-0.988-1.317-1.722-2.292-2.498c-1.163-0.927-2.482-1.978-3.024-3.643c-1.08-3.313,0.518-6.911,2.58-9.006C7.526,7.245,8.16,7.241,8.553,7.628c0.394,0.388,0.398,1.021,0.011,1.414c-1.638,1.664-2.924,4.47-2.104,6.984c0.357,1.094,1.334,1.873,2.369,2.697c1.136,0.904,2.31,1.84,2.902,3.318c0.268,0.668,0.401,1.351,0.519,1.953c0.31,1.585,0.492,2.24,1.902,2.524c0.542,0.109,0.892,0.637,0.782,1.179C14.839,28.173,14.422,28.5,13.956,28.5z"/><path d="M20.935,28.5c-0.552,0-1-0.447-1-1s0.448-1,1-1c2.043,0,3.007-0.846,3.034-2.66v-2.811c0-0.111,0.019-0.221,0.055-0.326c0.182-0.528,0.41-1.076,0.643-1.638c0.546-1.312,1.111-2.667,1.123-3.962c0.005-0.549,0.452-0.99,1-0.99c0.003,0,0.006,0,0.009,0c0.552,0.005,0.996,0.457,0.991,1.01c-0.016,1.685-0.686,3.293-1.276,4.711c-0.194,0.467-0.385,0.923-0.544,1.366v2.654C25.926,26.769,24.044,28.5,20.935,28.5z"/><path d="M20.935,28.5h-6.98c-0.552,0-1-0.447-1-1s0.448-1,1-1h6.98c0.552,0,1,0.447,1,1S21.487,28.5,20.935,28.5z"/><path d="M7.912,12.117c-0.552,0-1-0.447-1-1v-1.008c0-0.553,0.448-1,1-1s1,0.447,1,1v1.008C8.912,11.67,8.464,12.117,7.912,12.117z"/><path d="M12.631,10.131c-0.552,0-1-0.447-1-1V7.667c0-0.553,0.448-1,1-1s1,0.447,1,1v1.464C13.631,9.684,13.184,10.131,12.631,10.131z"/></svg>