<svg xmlns="http://www.w3.org/2000/svg" viewBox="0 0 32 32"><!--! Font Icona - https://fonticona.com | License - https://fonticona.com/license | Copyright 2022 FontIcona.com --><path d="M10.804,22.713c-0.32,0-0.637-0.055-0.944-0.164c-0.72-0.255-1.297-0.773-1.625-1.459L6.8,18.083c-0.328-0.686-0.368-1.46-0.113-2.181c0.255-0.72,0.773-1.297,1.459-1.625c0.739-0.353,1.514-0.392,2.233-0.138c0.72,0.255,1.297,0.773,1.625,1.459l1.435,3.007c0.678,1.42,0.074,3.127-1.346,3.805C11.669,22.614,11.234,22.713,10.804,22.713z M9.423,15.976c-0.125,0-0.248,0.028-0.363,0.083c-0.256,0.123-0.411,0.295-0.487,0.512c-0.077,0.216-0.065,0.448,0.032,0.652l1.436,3.007c0.098,0.204,0.27,0.358,0.487,0.435c0.216,0.077,0.447,0.065,0.652-0.032c0.477-0.228,0.658-0.739,0.455-1.164l0,0l-1.436-3.007c-0.098-0.204-0.27-0.358-0.487-0.435C9.617,15.992,9.52,15.976,9.423,15.976z"/><path d="M13.673,19.871c-1.077,0-2.089-0.598-2.575-1.615l-1.436-3.007c-0.678-1.42-0.073-3.127,1.347-3.805c0.5-0.239,1.02-0.335,1.524-0.292l-2.077-7.569c-0.416-1.518,0.447-3.082,1.923-3.487c0.721-0.198,1.479-0.091,2.132,0.299c0.64,0.383,1.102,0.993,1.301,1.719l1.762,6.805l0.64-6.037c0.241-1.6,1.661-2.683,3.178-2.451c1.515,0.229,2.555,1.682,2.319,3.238l-1.235,10.257c-0.066,0.548-0.568,0.937-1.112,0.873c-0.548-0.066-0.939-0.564-0.873-1.112L21.73,3.399c0.073-0.488-0.22-0.928-0.637-0.991c-0.414-0.063-0.827,0.271-0.896,0.729l-1.215,11.475c-0.051,0.48-0.439,0.856-0.921,0.892c-0.485,0.04-0.92-0.279-1.042-0.747L13.88,2.629c-0.058-0.212-0.2-0.4-0.395-0.517c-0.182-0.109-0.387-0.14-0.577-0.087c-0.406,0.111-0.646,0.583-0.523,1.03l2.912,10.612l0.796,1.668c0.238,0.499,0.027,1.095-0.472,1.333c-0.498,0.238-1.096,0.027-1.333-0.472l-0.834-1.748c-0.002-0.005-0.005-0.009-0.007-0.014l-0.385-0.808c-0.098-0.204-0.271-0.358-0.487-0.435s-0.448-0.065-0.652,0.032c-0.478,0.228-0.659,0.739-0.456,1.164l1.435,3.007c0.203,0.424,0.711,0.606,1.139,0.403c0.223-0.107,0.263-0.137,0.269-0.143c0.002-0.002,0.021-0.023,0.076-0.108c0.298-0.466,0.917-0.602,1.381-0.306c0.466,0.297,0.603,0.916,0.306,1.381c-0.296,0.465-0.557,0.688-1.117,0.956C14.538,19.777,14.101,19.871,13.673,19.871z"/><path d="M19.179,32h-5.112c-0.823,0-1.589-0.327-2.159-0.919c-0.57-0.593-0.866-1.374-0.833-2.197c0.018-0.455-0.01-0.891-0.084-1.298c-0.082-0.447-0.357-0.869-0.677-1.358c-0.24-0.367-0.488-0.747-0.685-1.188c-0.516-1.156-0.754-2.33-0.729-3.588c0.012-0.545,0.457-0.979,1-0.979c0.007,0,0.014,0,0.021,0c0.552,0.012,0.991,0.469,0.979,1.021c-0.02,0.958,0.162,1.851,0.555,2.731c0.132,0.295,0.327,0.593,0.533,0.909c0.382,0.585,0.815,1.249,0.97,2.093c0.101,0.552,0.14,1.136,0.115,1.737c-0.011,0.274,0.087,0.534,0.277,0.731C13.539,29.892,13.793,30,14.067,30h5.112c0.273,0,0.526-0.11,0.711-0.311c0.202-0.219,0.304-0.523,0.279-0.835c-0.034-0.423-0.024-0.792,0.031-1.127c0.227-1.37,0.98-2.446,1.709-3.487c0.555-0.793,1.08-1.542,1.311-2.346c0.496-1.723,0.339-5.009-1.041-6.447c-0.578-0.602-1.286-0.776-2.238-0.543c-1.064,0.26-2.105,0.743-3.207,1.255l-0.723,0.333c-0.269,0.122-0.295,0.383-0.296,0.46c-0.002,0.111,0.027,0.314,0.247,0.424c0.515,0.259,1.531,0.481,3.447,0.081c0.761-0.159,1.308,0.002,1.627,0.478c0.527,0.784-0.011,1.583-0.757,2.689c-0.561,0.833-1.33,1.972-1.351,2.71c-0.016,0.552-0.489,0.993-1.028,0.971c-0.552-0.016-0.987-0.476-0.971-1.028c0.036-1.273,0.893-2.585,1.615-3.659c-1.41,0.151-2.575-0.002-3.479-0.454c-0.852-0.427-1.369-1.289-1.35-2.25c0.019-0.981,0.582-1.84,1.469-2.243l0.707-0.326c1.141-0.53,2.32-1.078,3.575-1.385c2.075-0.506,3.404,0.32,4.155,1.102c2.064,2.15,2.127,6.274,1.52,8.384c-0.323,1.125-0.97,2.048-1.595,2.94c-0.628,0.897-1.222,1.746-1.374,2.667c-0.028,0.17-0.032,0.386-0.012,0.641c0.069,0.867-0.223,1.723-0.803,2.351C20.792,31.661,20.017,32,19.179,32z"/></svg>