<svg xmlns="http://www.w3.org/2000/svg" viewBox="0 0 32 32"><!--! Font Icona - https://fonticona.com | License - https://fonticona.com/license | Copyright 2022 FontIcona.com --><path d="M18.364,11.767c-0.256,0-0.512-0.098-0.707-0.293l-4.524-4.525c-0.391-0.391-0.391-1.023,0-1.414s1.023-0.391,1.414,0l4.524,4.525c0.391,0.391,0.391,1.023,0,1.414C18.876,11.669,18.62,11.767,18.364,11.767z"/><path d="M28.153,19.93c-0.256,0-0.513-0.098-0.708-0.293c-0.39-0.391-0.39-1.024,0.001-1.415l0.818-0.817c1.443-1.443,2.039-3.495,1.592-5.487l-1.691-7.534c-0.045-0.193-0.234-0.321-0.43-0.297c-0.322,0.045-0.605,0.216-0.796,0.479c-0.19,0.265-0.263,0.586-0.203,0.905l0.468,2.532c0.135,0.734-0.218,1.46-0.879,1.807c-0.658,0.345-1.456,0.226-1.983-0.304l-7.155-7.154c-0.15-0.15-0.395-0.15-0.545,0l-0.206,0.205c-0.147,0.148-0.147,0.393,0.003,0.544l1.207,1.207c0.391,0.391,0.391,1.023,0,1.414s-1.023,0.391-1.414,0l-1.208-1.208c-0.929-0.931-0.929-2.442-0.001-3.372l0.207-0.206c0.929-0.929,2.442-0.927,3.371,0.002l6.457,6.456L24.77,5.835c-0.159-0.861,0.035-1.728,0.548-2.439c0.514-0.711,1.274-1.17,2.144-1.29c1.224-0.176,2.386,0.639,2.655,1.839l1.691,7.535c0.598,2.664-0.198,5.408-2.129,7.34l-0.818,0.818C28.665,19.832,28.409,19.93,28.153,19.93z"/><path d="M25.052,21.895c-0.429,0-0.824-0.276-0.956-0.707c-0.162-0.528,0.136-1.088,0.663-1.249c0.916-0.28,1.762-0.79,2.446-1.475l0.241-0.241c0.391-0.391,1.023-0.391,1.414,0s0.391,1.023,0,1.414l-0.241,0.241c-0.915,0.915-2.048,1.598-3.274,1.973C25.247,21.881,25.148,21.895,25.052,21.895z"/><path d="M13.229,15.281c-0.256,0-0.512-0.098-0.707-0.293l-2.585-2.585c-0.706-0.706-0.897-1.787-0.478-2.692c0.233-0.5,0.825-0.719,1.329-0.485c0.5,0.233,0.718,0.828,0.485,1.329c-0.057,0.121-0.055,0.303,0.077,0.435l2.585,2.585c0.391,0.391,0.391,1.023,0,1.414C13.74,15.184,13.484,15.281,13.229,15.281z"/><path d="M16.361,14.089c-0.256,0-0.512-0.098-0.707-0.293l-3.556-3.556c-0.15-0.148-0.394-0.149-0.546,0.001l-0.2,0.201c-0.035,0.035-0.061,0.071-0.079,0.11c-0.232,0.501-0.826,0.722-1.327,0.487c-0.501-0.231-0.72-0.826-0.487-1.327C9.575,9.46,9.736,9.23,9.937,9.03l0.201-0.202c0.934-0.93,2.446-0.931,3.374-0.003l3.557,3.557c0.391,0.391,0.391,1.023,0,1.414C16.873,13.991,16.617,14.089,16.361,14.089z"/><path d="M13.086,10.813c-0.256,0-0.512-0.098-0.707-0.293L9.681,7.822c-0.93-0.93-0.93-2.443,0-3.373l0.204-0.204c0.93-0.93,2.444-0.929,3.372-0.001l1.823,1.823c0.391,0.391,0.391,1.023,0,1.414s-1.023,0.391-1.414,0l-1.822-1.822c-0.15-0.148-0.394-0.149-0.546,0.001l-0.203,0.203c-0.15,0.15-0.15,0.395,0,0.545l2.698,2.698c0.391,0.391,0.391,1.023,0,1.414C13.598,10.716,13.342,10.813,13.086,10.813z"/><path d="M13.878,11.605c-0.256,0-0.512-0.098-0.707-0.293l-0.792-0.792c-0.391-0.391-0.391-1.023,0-1.414s1.023-0.391,1.414,0l0.792,0.792c0.391,0.391,0.391,1.023,0,1.414C14.39,11.508,14.134,11.605,13.878,11.605z"/><path d="M21.095,10.17c-0.256,0-0.512-0.098-0.707-0.293l-7.766-7.765c-0.15-0.15-0.395-0.15-0.545,0l-0.201,0.202c-0.152,0.152-0.152,0.396-0.002,0.547l3.823,3.823c0.391,0.391,0.391,1.023,0,1.414s-1.023,0.391-1.414,0L10.46,4.275c-0.45-0.45-0.698-1.05-0.698-1.687s0.248-1.236,0.698-1.687L10.661,0.7c0.931-0.933,2.444-0.932,3.375-0.002l7.766,7.765c0.391,0.391,0.391,1.023,0,1.414C21.606,10.072,21.351,10.17,21.095,10.17z"/><path d="M12.564,25.883H6.165c-0.553,0-1-0.447-1-1s0.447-1,1-1h6.399c0.553,0,1,0.447,1,1S13.117,25.883,12.564,25.883z"/><path d="M18.334,32H7.763c-1.315,0-2.385-1.069-2.385-2.385v-0.289c0-1.315,1.069-2.385,2.385-2.385h6.216c0.553,0,1,0.447,1,1s-0.447,1-1,1H7.763c-0.212,0-0.385,0.173-0.385,0.385v0.289C7.378,29.827,7.551,30,7.763,30h10.571c3.267,0,5.925-2.658,5.925-5.926v-1.498c0-2.042-1.03-3.913-2.755-5.006l-6.522-4.131c-0.172-0.109-0.393-0.067-0.513,0.093c-0.197,0.26-0.277,0.58-0.225,0.901c0.052,0.322,0.229,0.601,0.497,0.785l2.12,1.459c0.614,0.423,0.878,1.185,0.657,1.896c-0.222,0.712-0.871,1.19-1.616,1.19H5.781c-0.212,0-0.385,0.173-0.385,0.386v0.288c0,0.213,0.173,0.386,0.385,0.386h1.708c0.553,0,1,0.447,1,1s-0.447,1-1,1H5.781c-1.315,0-2.385-1.07-2.385-2.386V20.15c0-1.315,1.069-2.386,2.385-2.386h9.131l-1.305-0.897c-0.724-0.498-1.198-1.249-1.338-2.115c-0.14-0.865,0.074-1.728,0.604-2.427c0.754-0.997,2.12-1.244,3.178-0.575l6.522,4.131c2.307,1.461,3.685,3.964,3.685,6.695v1.498C26.259,28.444,22.704,32,18.334,32z"/><path d="M9.278,28.941H4.343c-1.315,0-2.385-1.069-2.385-2.385v-0.289c0-1.315,1.069-2.385,2.385-2.385H6.92c0.553,0,1,0.447,1,1s-0.447,1-1,1H4.343c-0.212,0-0.385,0.173-0.385,0.385v0.289c0,0.212,0.173,0.385,0.385,0.385h4.936c0.553,0,1,0.447,1,1S9.831,28.941,9.278,28.941z"/><path d="M7.793,25.883H2.385C1.069,25.883,0,24.812,0,23.497v-0.288c0-1.315,1.069-2.385,2.385-2.385h10.981c0.553,0,1,0.447,1,1s-0.447,1-1,1H2.385C2.173,22.824,2,22.997,2,23.209v0.288c0,0.213,0.173,0.386,0.385,0.386h5.408c0.553,0,1,0.447,1,1S8.346,25.883,7.793,25.883z"/></svg>