<svg xmlns="http://www.w3.org/2000/svg" viewBox="0 0 32 32"><!--! Font Icona - https://fonticona.com | License - https://fonticona.com/license | Copyright 2022 FontIcona.com --><path d="M5.699,31.552h-2.69c-1.653,0-2.998-1.345-2.998-2.998v-7.476c0-1.653,1.345-2.998,2.998-2.998h2.69c1.653,0,2.998,1.345,2.998,2.998v7.476C8.697,30.207,7.352,31.552,5.699,31.552z M3.009,20.078c-0.551,0-0.999,0.448-0.999,0.999v7.476c0,0.551,0.448,0.999,0.999,0.999h2.69c0.551,0,0.999-0.448,0.999-0.999v-7.476c0-0.551-0.448-0.999-0.999-0.999H3.009z"/><path d="M20.808,29.298c-0.048,0-0.077-0.002-0.087-0.002L7.697,29.297c-0.552,0-0.999-0.447-0.999-0.999s0.447-0.999,0.999-0.999H20.77c0.091,0,1.343,0.022,2.238-1.075c0.021-0.027,0.045-0.054,0.07-0.078l6.707-6.672c0.142-0.178,0.405-0.644-0.034-1.125c-0.291-0.318-0.619-0.353-0.991-0.113l-5.391,5.37c-0.26,0.325-1.141,1.231-2.881,1.231h-4.9c-0.552,0-0.999-0.447-0.999-0.999s0.447-0.999,0.999-0.999h4.438c0.621-0.139,0.727-0.426,0.763-0.524c0.102-0.28,0.032-0.616-0.045-0.791l-5.425-1.32c-1.636-0.399-3.362-0.192-4.86,0.579l-2.276,1.276c-0.481,0.271-1.09,0.1-1.36-0.384c-0.27-0.481-0.098-1.09,0.384-1.359l2.307-1.292c1.957-1.008,4.176-1.272,6.279-0.761l5.654,1.377c0.706,0.18,1.168,0.932,1.329,1.739l4.638-4.621c0.039-0.038,0.08-0.073,0.124-0.105c1.554-1.111,3.071-0.38,3.714,0.381c1.342,1.471,0.581,3.14-0.014,3.813l-6.717,6.685C23.133,29.197,21.24,29.298,20.808,29.298z"/><ellipse cx="4.354" cy="27.405" rx="1.165" ry="1.233"/><path d="M28.991,13.92h-2.69c-1.653,0-2.998-1.345-2.998-2.998V3.445c0-1.653,1.345-2.998,2.998-2.998h2.69c1.653,0,2.998,1.345,2.998,2.998v7.477C31.989,12.576,30.645,13.92,28.991,13.92z M26.302,2.446c-0.551,0-0.999,0.448-0.999,0.999v7.477c0,0.551,0.448,0.999,0.999,0.999h2.69c0.551,0,0.999-0.448,0.999-0.999V3.445c0-0.551-0.448-0.999-0.999-0.999H26.302z"/><path d="M2.8,15.92c-0.892,0-1.648-0.468-2.054-0.949c-1.342-1.47-0.58-3.14,0.014-3.813l6.717-6.685c1.545-1.857,3.71-1.776,3.8-1.77l13.026-0.001c0.552,0,0.999,0.447,0.999,0.999s-0.447,0.999-0.999,0.999H11.229c-0.098,0.001-1.342-0.022-2.237,1.076C8.97,5.805,8.947,5.831,8.922,5.855l-6.707,6.672c-0.142,0.178-0.405,0.645,0.034,1.126c0.291,0.318,0.621,0.352,0.991,0.113l5.39-5.371c0.26-0.324,1.141-1.23,2.881-1.23h4.9c0.552,0,1,0.447,1,0.999s-0.448,0.999-1,0.999h-4.438c-0.621,0.139-0.727,0.426-0.763,0.524c-0.103,0.28-0.032,0.616,0.045,0.791l5.424,1.32c1.639,0.4,3.364,0.193,4.86-0.579l2.277-1.276c0.482-0.269,1.091-0.098,1.36,0.384c0.269,0.481,0.098,1.09-0.385,1.36l-2.307,1.292c-1.954,1.008-4.173,1.272-6.278,0.761l-5.654-1.377c-0.706-0.18-1.168-0.933-1.329-1.739l-4.638,4.621c-0.039,0.038-0.08,0.073-0.124,0.104C3.889,15.76,3.321,15.92,2.8,15.92z"/><ellipse cx="27.646" cy="4.595" rx="1.165" ry="1.233"/></svg>