<svg xmlns="http://www.w3.org/2000/svg" viewBox="0 0 32 32"><!--! Font Icona - https://fonticona.com | License - https://fonticona.com/license | Copyright 2022 FontIcona.com --><path d="M9.096,12.987c-1.69,0-3.02-1.318-3.033-2.949L6.037,6.494c-0.006-0.792,0.298-1.54,0.856-2.106S8.195,3.506,8.986,3.5c0.008,0,0.016,0,0.023,0c1.689,0,3.02,1.318,3.033,2.949l0.026,3.543l0,0c0.012,1.639-1.312,2.981-2.949,2.994C9.112,12.987,9.104,12.987,9.096,12.987z M9.07,5.5c-0.002,0-0.004,0-0.007,0C8.744,5.502,8.501,5.606,8.318,5.792c-0.183,0.186-0.283,0.43-0.281,0.687l0.026,3.544c0.004,0.536,0.466,1.011,0.979,0.964c0.597-0.004,1.03-0.444,1.026-0.98l-0.026-3.543C10.039,5.931,9.603,5.5,9.07,5.5z"/><path d="M14.086,12.857h-1.039c-1.462,0-2.718-1.036-2.92-2.409c-0.02-0.134-0.03-0.27-0.032-0.408l-0.026-3.547c-0.006-0.792,0.298-1.54,0.856-2.106s1.301-0.882,2.093-0.888c0.008,0,0.016,0,0.023,0c0.792,0,1.506,0.29,2.042,0.767c0.542-0.49,1.233-0.761,1.966-0.767c0.008,0,0.016,0,0.023,0c0.792,0,1.506,0.29,2.042,0.767c0.521-0.472,1.21-0.761,1.966-0.767c0.008,0,0.016,0,0.023,0c1.689,0,3.02,1.318,3.033,2.949l0.026,3.543c0.004,0.552-0.44,1.003-0.993,1.007c-0.002,0-0.005,0-0.007,0c-0.549,0-0.996-0.443-1-0.993l-0.026-3.543c-0.004-0.536-0.411-0.967-0.979-0.964c-0.597,0.004-1.03,0.444-1.026,0.979l0.02,1.614L20.132,8.96c-0.013,0.543-0.457,0.976-1,0.976c-0.002,0-0.004,0-0.007,0c-0.545-0.004-0.987-0.444-0.993-0.989l-0.026-2.479c-0.004-0.539-0.45-0.97-0.979-0.968c-0.319,0.002-0.562,0.106-0.745,0.292c-0.184,0.186-0.283,0.43-0.281,0.687v4.1c0,0.57-0.479,1.036-1.055,0.999c0.026,0.089,0.04,0.183,0.04,0.28C15.086,12.41,14.638,12.857,14.086,12.857z M13.102,5.5c-0.002,0-0.004,0-0.007,0c-0.319,0.002-0.562,0.106-0.745,0.292c-0.184,0.186-0.283,0.43-0.281,0.687l0.026,3.544c0,0.043,0.003,0.089,0.01,0.134c0.058,0.393,0.472,0.701,0.942,0.701h1.039c0.018,0,0.037,0,0.055,0.001c-0.026-0.089-0.04-0.183-0.04-0.28l-0.026-4.114C14.07,5.931,13.635,5.5,13.102,5.5z"/><path d="M18.404,28.5h-6.71c-0.722,0-1.414-0.308-1.897-0.844c-0.47-0.522-0.699-1.219-0.626-1.911c0.071-0.668,0.053-1.302-0.054-1.886c-0.191-1.046-0.679-2.028-1.194-3.068c-0.421-0.851-0.857-1.729-1.148-2.688c-0.476-1.57-1.498-5.501-0.718-8.094c0.16-0.529,0.718-0.826,1.246-0.669c0.529,0.159,0.829,0.717,0.669,1.246c-0.509,1.692,0.037,4.693,0.717,6.937c0.242,0.799,0.623,1.567,1.026,2.379c0.554,1.118,1.127,2.274,1.37,3.597c0.141,0.771,0.167,1.598,0.076,2.456c-0.018,0.167,0.057,0.289,0.123,0.362c0.104,0.116,0.254,0.183,0.411,0.183h6.71c0.213,0,0.347-0.116,0.407-0.185c0.057-0.065,0.149-0.203,0.123-0.398c-0.103-0.765-0.11-1.365-0.023-1.887c0.402-2.439,3.063-6.103,3.366-6.513c0.377-0.627,1.559-2.714,1.895-3.947c0.159-0.582-0.042-1.165-0.595-1.733c-1.168-1.2-3.467-1.895-5.019-1.516c-1.007,0.246-2.027,0.696-2.905,1.1c-0.455,0.209-0.58,0.649-0.545,0.991c0.018,0.182,0.115,0.618,0.617,0.736c0.357,0.084,0.794-0.036,1.535-0.254c0.429-0.126,0.906-0.267,1.458-0.382c0.963-0.2,1.403,0.169,1.604,0.516c0.48,0.829-0.146,1.531-1.182,2.696c-0.792,0.889-2.116,2.377-2.139,3.205c-0.016,0.552-0.483,1.009-1.028,0.971c-0.552-0.016-0.987-0.476-0.971-1.028c0.037-1.317,1.074-2.679,2.094-3.855c-0.599,0.149-1.192,0.228-1.827,0.079c-1.183-0.278-2.026-1.252-2.15-2.483c-0.13-1.293,0.538-2.474,1.7-3.008c0.962-0.442,2.087-0.938,3.267-1.226c2.228-0.542,5.271,0.364,6.926,2.064c1.052,1.08,1.439,2.378,1.091,3.654c-0.48,1.76-2.098,4.422-2.167,4.535c-0.791,1.08-2.776,4.058-3.051,5.725c-0.053,0.317-0.042,0.741,0.032,1.296c0.095,0.714-0.124,1.436-0.601,1.98C19.833,28.184,19.136,28.5,18.404,28.5z"/></svg>