<svg xmlns="http://www.w3.org/2000/svg" viewBox="0 0 32 32"><!--! Font Icona - https://fonticona.com | License - https://fonticona.com/license | Copyright 2022 FontIcona.com --><path d="M12.679,16.556c-0.53,0-0.973-0.417-0.998-0.953l-0.289-6.132c-0.026-0.552,0.4-1.02,0.952-1.046c0.525-0.036,1.02,0.399,1.046,0.952l0.289,6.132c0.026,0.552-0.4,1.02-0.952,1.046C12.711,16.556,12.695,16.556,12.679,16.556z"/><path d="M18.892,8.587c-0.552,0-1-0.447-1-1V6.464c0-0.531-0.433-0.964-0.964-0.964c-0.532,0-0.964,0.433-0.964,0.964v1.011c0,0.553-0.448,1-1,1s-1-0.447-1-1V6.464c0-1.635,1.33-2.964,2.964-2.964c1.634,0,2.964,1.329,2.964,2.964v1.123C19.892,8.14,19.444,8.587,18.892,8.587z"/><path d="M13.644,24.407c-0.29,0-0.578-0.126-0.776-0.368l-7.517-9.229c-1.032-1.269-0.84-3.14,0.427-4.171c1.267-1.032,3.138-0.84,4.17,0.426l3.472,3.817c0.371,0.409,0.341,1.041-0.068,1.413c-0.408,0.371-1.041,0.341-1.413-0.067L8.433,12.37c-0.371-0.455-0.979-0.514-1.392-0.18c-0.412,0.336-0.474,0.944-0.139,1.357l7.517,9.228c0.349,0.429,0.284,1.059-0.144,1.407C14.089,24.334,13.866,24.407,13.644,24.407z"/><path d="M7.213,12.003c-0.463,0-0.923-0.11-1.348-0.327c-0.705-0.361-1.227-0.975-1.47-1.729C4.152,9.194,4.217,8.392,4.578,7.687s0.975-1.228,1.728-1.471l6.266-2.022c0.335-0.085,1.663-0.343,2.602,0.404c0.362,0.288,0.793,0.832,0.791,1.786c-0.001,0.551-0.449,0.997-1,0.997c-0.001,0-0.001,0-0.002,0c-0.552-0.001-0.999-0.45-0.998-1.003c0-0.142-0.026-0.207-0.036-0.215c-0.11-0.089-0.521-0.111-0.829-0.043L6.92,8.119C6.675,8.198,6.476,8.368,6.358,8.598C6.241,8.827,6.22,9.088,6.299,9.333s0.249,0.445,0.478,0.562c0.229,0.117,0.49,0.14,0.735,0.059l1.068-0.345c0.526-0.166,1.089,0.12,1.259,0.646s-0.119,1.089-0.645,1.259l-1.068,0.345C7.827,11.955,7.519,12.003,7.213,12.003z"/><path d="M22.82,9.632c-0.552,0-1-0.447-1-1V7.798c0-0.531-0.433-0.964-0.964-0.964c-0.532,0-0.964,0.433-0.964,0.964c0,0.553-0.448,1.029-1,1.029s-1-0.417-1-0.97c0-1.694,1.33-3.023,2.964-3.023c1.634,0,2.964,1.329,2.964,2.964v0.834C23.82,9.185,23.373,9.632,22.82,9.632z"/><path d="M26.749,18.19c-0.552,0-1-0.447-1-1V8.992c0-0.532-0.433-0.965-0.964-0.965c-0.532,0-0.964,0.433-0.964,0.965c0,0.553-0.448,1-1,1s-1-0.447-1-1V8.686c0-0.146,0.031-0.284,0.087-0.409c0.321-1.29,1.489-2.249,2.877-2.249c1.634,0,2.964,1.33,2.964,2.965v8.198C27.749,17.743,27.301,18.19,26.749,18.19z"/><path d="M16.066,28.5c-0.07,0-0.142-0.007-0.214-0.022c-1.508-0.329-2.701-1.371-3.112-2.719c-0.246-0.808-0.119-2.096-0.09-2.346c0.062-0.549,0.56-0.95,1.104-0.882c0.549,0.061,0.944,0.555,0.883,1.104c-0.05,0.458-0.073,1.248,0.016,1.541c0.197,0.646,0.835,1.175,1.625,1.347c0.54,0.118,0.882,0.65,0.764,1.19C16.94,28.181,16.526,28.5,16.066,28.5z"/><path d="M21.875,28.5c-0.552,0-1-0.447-1-1s0.448-1,1-1c1.639,0,2.479-0.623,2.497-1.853l-0.079-2.268c-0.004-0.122,0.014-0.244,0.054-0.359c0.121-0.354,0.264-0.728,0.412-1.117c0.459-1.204,0.979-2.568,0.99-3.723c0.005-0.552,0.464-0.989,1.009-0.99c0.552,0.005,0.996,0.457,0.991,1.01c-0.014,1.513-0.602,3.055-1.121,4.415c-0.117,0.306-0.229,0.602-0.33,0.884l0.073,2.129C26.344,26.525,25.149,28.5,21.875,28.5z"/><path d="M21.875,28.5h-5.81c-0.552,0-1-0.447-1-1s0.448-1,1-1h5.81c0.552,0,1,0.447,1,1S22.427,28.5,21.875,28.5z"/><path d="M8.888,11.562c-0.422,0-0.814-0.269-0.951-0.691c-0.17-0.525,0.117-1.089,0.642-1.26l3.503-1.138c0.53-0.169,1.09,0.117,1.26,0.643c0.17,0.525-0.117,1.089-0.642,1.26l-3.503,1.138C9.094,11.546,8.99,11.562,8.888,11.562z"/></svg>