<svg xmlns="http://www.w3.org/2000/svg" viewBox="0 0 32 32"><!--! Font Icona - https://fonticona.com | License - https://fonticona.com/license | Copyright 2022 FontIcona.com --><path class="st0" d="M24.95,11.877"/><path class="st0" d="M14.221,5.703"/><path class="st0" d="M16.776,15.101"/><path class="st1" d="M21.909,15.493c-0.449,0-0.857-0.305-0.97-0.76l-1.97-7.975c-0.01-0.029-0.019-0.058-0.024-0.084l-0.213-0.895c-0.078-0.327-0.404-0.527-0.735-0.453c-0.327,0.078-0.53,0.408-0.452,0.735l2.074,7.833c0.142,0.534-0.177,1.081-0.711,1.223c-0.532,0.14-1.08-0.176-1.223-0.711l-2.081-7.858c-0.339-1.424,0.529-2.834,1.929-3.167c1.394-0.336,2.81,0.534,3.144,1.935l0.199,0.835c0.008,0.025,0.016,0.049,0.021,0.071l1.983,8.031c0.133,0.536-0.194,1.078-0.73,1.21C22.069,15.484,21.988,15.493,21.909,15.493z"/><path class="st1" d="M15.357,13.985c-0.428,0-0.824-0.277-0.956-0.708l-2.407-7.873c-0.211-0.643-0.158-1.351,0.157-1.972c0.315-0.622,0.853-1.084,1.516-1.301c1.367-0.45,2.845,0.3,3.292,1.667l0.646,2.525c0.136,0.534-0.186,1.077-0.719,1.215c-0.533,0.136-1.078-0.182-1.217-0.715l-0.206-0.787C15.454,6,15.447,5.964,15.441,5.928l-0.401-1.572c-0.085-0.254-0.431-0.428-0.75-0.325c-0.155,0.051-0.281,0.159-0.354,0.304c-0.074,0.145-0.086,0.31-0.035,0.465l2.413,7.893c0.161,0.528-0.136,1.087-0.664,1.249C15.553,13.971,15.455,13.985,15.357,13.985z"/><path class="st1" d="M23.113,20.007c-0.021,0-0.042-0.001-0.063-0.002c-0.552-0.035-0.97-0.51-0.936-1.061l0.542-8.758c0.012-0.221-0.066-0.431-0.219-0.591c-0.152-0.161-0.358-0.249-0.58-0.249h-0.3c-0.163,0.527-0.743,0.8-1.274,0.638C19.756,9.821,19.437,9.238,19.6,8.71c0.243-0.791,1.067-1.364,1.958-1.364h0.3c0.764,0,1.503,0.317,2.029,0.871s0.806,1.308,0.768,2.07l-0.035,0.697l-0.509,8.086C24.077,19.6,23.637,20.007,23.113,20.007z"/><path class="st1" d="M18.621,30h-2.917c-1.617,0-2.956-1.308-2.999-2.92c-1.286-0.489-2.501-1.369-2.66-1.486l-0.689-0.485c-0.584-0.411-1.085-0.919-1.49-1.508l-0.895-1.302c-0.014-0.021-0.027-0.041-0.04-0.062l-0.426-0.591c-0.777-1.076-0.534-2.586,0.543-3.364c0.114-0.082,0.232-0.152,0.354-0.212c-0.203-0.16-0.38-0.354-0.526-0.575c-0.353-0.54-0.475-1.183-0.344-1.813c0.131-0.63,0.501-1.172,1.04-1.525l0.002,0.003c0.237-0.165,0.853-0.568,2.652-1.746c0.181-0.107,3.457-1.992,5.743-0.22c0.437,0.338,0.516,0.967,0.178,1.403c-0.339,0.436-0.967,0.515-1.403,0.178c-1.015-0.788-2.887,0.001-3.463,0.338c0,0.001-2.377,1.558-2.583,1.697c-0.01,0.007-0.02,0.014-0.03,0.021c-0.124,0.081-0.164,0.197-0.177,0.259c-0.013,0.062-0.022,0.185,0.059,0.309c0.082,0.124,0.198,0.164,0.26,0.177c0.063,0.014,0.185,0.023,0.308-0.059c0.15-0.098,0.309-0.21,0.474-0.327c0.92-0.65,2.181-1.543,3.529-1.242c0.78,0.172,1.432,0.705,1.936,1.583c1.012,1.762,0.138,3.945-1.252,4.959c-1.362,0.99-2.981,0.82-4.126-0.438l-0.84-0.998c-0.178-0.242-0.436-0.285-0.619-0.15c-0.183,0.132-0.224,0.389-0.092,0.572l0.472,0.654c0.022,0.031,0.043,0.063,0.062,0.098l0.853,1.24c0.27,0.394,0.604,0.731,0.993,1.006l0.707,0.498c0.441,0.323,1.75,1.179,2.698,1.394c0.449,0.102,0.771,0.497,0.779,0.958l0.012,0.693c0.009,0.543,0.458,0.983,1,0.983h2.917c1.608,0,1.62-0.794,1.624-1.055l-0.023-0.613c-0.027-0.779,0.186-1.566,0.617-2.28c0.713-1.178,1.454-3.269,1.221-5.314c-0.635-2.289-1.113-3.969-1.113-3.971c-0.151-0.531,0.157-1.084,0.688-1.235c0.527-0.151,1.084,0.157,1.235,0.688c0,0,0.49,1.722,1.138,4.056c0.013,0.047,0.022,0.096,0.028,0.144c0.321,2.574-0.558,5.133-1.486,6.668c-0.229,0.38-0.344,0.785-0.33,1.173l0.024,0.663C22.225,28.37,21.263,30,18.621,30z M9.949,18.341c0.173,0.135,0.33,0.297,0.465,0.483l0.77,0.911c0.141,0.155,0.651,0.713,1.443,0.138c0.681-0.497,1.134-1.583,0.695-2.347c-0.146-0.254-0.374-0.569-0.633-0.626c-0.483-0.102-1.328,0.488-1.945,0.923c-0.186,0.131-0.363,0.256-0.53,0.366C10.128,18.245,10.04,18.296,9.949,18.341z"/></svg>