<svg xmlns="http://www.w3.org/2000/svg" viewBox="0 0 32 32"><!--! Font Icona - https://fonticona.com | License - https://fonticona.com/license | Copyright 2022 FontIcona.com --><path d="M15.532,18.01c-0.379,0-0.741-0.216-0.909-0.582l-0.348-0.755c-0.324-0.704-0.354-1.491-0.085-2.218c0.269-0.727,0.805-1.305,1.508-1.628c0.704-0.323,1.492-0.353,2.218-0.085c0.727,0.269,1.305,0.804,1.628,1.508l0.319,0.694c0.231,0.502,0.012,1.096-0.49,1.327c-0.505,0.231-1.097,0.01-1.326-0.491l-0.319-0.694c-0.207-0.451-0.743-0.652-1.193-0.441c-0.219,0.1-0.385,0.28-0.469,0.505c-0.083,0.225-0.073,0.469,0.026,0.688l0.348,0.755c0.231,0.502,0.012,1.096-0.49,1.326C15.813,17.98,15.672,18.01,15.532,18.01z"/><path d="M8.959,12.809c-0.379,0-0.741-0.216-0.909-0.582l-0.783-1.702c-0.669-1.453-0.03-3.178,1.422-3.846c0.704-0.323,1.492-0.353,2.218-0.085c0.727,0.269,1.305,0.804,1.628,1.508l0.454,0.985c0.231,0.502,0.012,1.096-0.49,1.327c-0.5,0.232-1.095,0.011-1.326-0.49l-0.454-0.986c-0.101-0.219-0.28-0.385-0.506-0.469C9.986,8.386,9.744,8.395,9.524,8.496C9.306,8.596,9.14,8.775,9.057,9S8.982,9.47,9.083,9.688l0.783,1.702c0.231,0.501,0.012,1.096-0.49,1.327C9.24,12.779,9.099,12.809,8.959,12.809z"/><path d="M18.195,16.104c-0.345-0.75-0.375-1.538-0.106-2.264c0.269-0.727,0.804-1.305,1.508-1.629c1.456-0.668,3.178-0.029,3.846,1.423l0.404,0.877c0.231,0.502,0.012,1.096-0.49,1.327c-0.501,0.233-1.095,0.012-1.326-0.49l-0.404-0.878c-0.207-0.451-0.744-0.647-1.193-0.442c-0.45,0.207-0.648,0.742-0.441,1.193l-0.885,0.47L18.195,16.104z"/><path d="M28.315,18.528c-0.379,0-0.741-0.216-0.909-0.582l-1.895-4.119c-0.101-0.218-0.28-0.385-0.506-0.468c-0.225-0.083-0.468-0.074-0.688,0.027c-0.219,0.1-0.385,0.28-0.468,0.505s-0.074,0.47,0.026,0.688l-0.002,0.001c0.185,0.489-0.024,1.072-0.504,1.292c-0.503,0.233-1.081,0.043-1.311-0.458c-0.324-0.704-0.354-1.491-0.086-2.217c0.269-0.727,0.804-1.305,1.508-1.629c1.455-0.667,3.178-0.029,3.846,1.423l1.895,4.119c0.231,0.502,0.012,1.096-0.49,1.326C28.597,18.499,28.455,18.528,28.315,18.528z"/><path d="M22.329,32.001c-1.661,0-2.492-1.153-3.125-2.032c-0.266-0.369-0.517-0.718-0.813-0.999c-0.584-0.553-1.48-0.773-2.429-1.008c-1.188-0.293-2.537-0.625-3.533-1.703c-1.96-2.119-2.006-5.371-1.183-7.653c0.187-0.519,0.76-0.791,1.28-0.601c0.52,0.188,0.788,0.761,0.601,1.28c-0.618,1.712-0.619,4.113,0.771,5.616c0.589,0.638,1.495,0.86,2.543,1.119c1.105,0.272,2.357,0.581,3.325,1.498c0.435,0.411,0.768,0.873,1.062,1.281c0.753,1.046,1.034,1.371,2.037,1.131c0.534-0.123,1.076,0.206,1.203,0.744c0.126,0.538-0.207,1.076-0.744,1.203C22.962,31.963,22.632,32.001,22.329,32.001z"/><path d="M28.199,29.557c-0.379,0-0.741-0.216-0.909-0.582c-0.231-0.502-0.012-1.096,0.49-1.326c1.785-0.821,1.594-1.881,1.228-2.712c-0.016-0.035-0.029-0.071-0.04-0.108l-0.7-2.265c-0.021-0.063-0.033-0.129-0.04-0.196l-0.058-0.614c-0.119-1.299-0.241-2.643-0.768-3.815c-0.227-0.504-0.001-1.095,0.503-1.322c0.502-0.226,1.096-0.001,1.321,0.503c0.663,1.477,0.808,3.058,0.935,4.452l0.048,0.501l0.653,2.113c0.952,2.223,0.115,4.193-2.246,5.279C28.48,29.527,28.339,29.557,28.199,29.557z"/><path d="M23.095,31.904c-0.379,0-0.741-0.216-0.909-0.582c-0.231-0.502-0.012-1.096,0.49-1.326l5.104-2.348c0.504-0.232,1.097-0.012,1.326,0.49c0.231,0.502,0.012,1.096-0.49,1.326l-5.104,2.348C23.376,31.875,23.234,31.904,23.095,31.904z"/><path d="M13.165,21.955c-0.379,0-0.741-0.216-0.909-0.582L8.05,12.227c-0.231-0.502-0.012-1.096,0.49-1.327c0.505-0.229,1.097-0.01,1.326,0.491l4.206,9.146c0.231,0.502,0.012,1.096-0.49,1.326C13.446,21.926,13.305,21.955,13.165,21.955z"/><path d="M15.456,17.846c-0.379,0-0.741-0.216-0.909-0.583l-3.375-7.34c-0.231-0.502-0.012-1.096,0.49-1.327c0.505-0.23,1.097-0.011,1.326,0.491l3.375,7.34c0.231,0.502,0.012,1.096-0.49,1.327C15.737,17.816,15.596,17.846,15.456,17.846z"/><path d="M8.001,14.497c-3.997,0-7.249-3.251-7.249-7.248C0.752,3.251,4.004,0,8.001,0s7.248,3.251,7.248,7.249c0,1.66-0.575,3.281-1.62,4.567c-0.35,0.429-0.978,0.495-1.407,0.145c-0.429-0.348-0.493-0.978-0.146-1.407c0.768-0.944,1.173-2.087,1.173-3.306C13.249,4.354,10.895,2,8.001,2C5.106,2,2.752,4.354,2.752,7.249c0,2.894,2.354,5.248,5.249,5.248c0.467,0,0.928-0.061,1.372-0.181c0.528-0.141,1.081,0.171,1.227,0.705c0.144,0.533-0.172,1.082-0.705,1.226C9.28,14.413,8.644,14.497,8.001,14.497z"/><path d="M8.001,11.309c-2.239,0-4.061-1.821-4.061-4.06s1.821-4.061,4.061-4.061c2.238,0,4.06,1.822,4.06,4.061c0,0.552-0.447,1-1,1s-1-0.448-1-1c0-1.136-0.924-2.061-2.06-2.061S5.94,6.112,5.94,7.249c0,1.136,0.925,2.06,2.061,2.06c0.553,0,1,0.448,1,1S8.554,11.309,8.001,11.309z"/></svg>