<svg xmlns="http://www.w3.org/2000/svg" viewBox="0 0 32 32"><!--! Font Icona - https://fonticona.com | License - https://fonticona.com/license | Copyright 2022 FontIcona.com --><path d="M3.14,32c-1.486-0.01-2.691-1.221-2.691-2.703l0.006-0.111l1.852-16.749c0.04-1.454,1.24-2.626,2.701-2.626h21.984c1.461,0,2.66,1.172,2.701,2.626l1.858,16.86c0,1.481-1.205,2.693-2.685,2.703H3.14z M2.466,29.341c0.023,0.356,0.319,0.642,0.68,0.644H28.86c0.355-0.002,0.652-0.287,0.674-0.644l-1.856-16.833c-0.002-0.375-0.31-0.681-0.686-0.681H5.008c-0.376,0-0.684,0.306-0.686,0.681l-0.006,0.105L2.466,29.341z"/><circle cx="9.639" cy="15.532" r="0.519"/><path d="M9.64,17.032c-0.827,0-1.5-0.673-1.5-1.5c0-0.826,0.673-1.5,1.5-1.5c0.826,0,1.5,0.673,1.5,1.5C11.139,16.359,10.466,17.032,9.64,17.032z M9.64,15.071c-0.255,0-0.462,0.207-0.462,0.461c0,0.255,0.207,0.462,0.462,0.462c0.254,0,0.461-0.207,0.461-0.462C10.1,15.278,9.894,15.071,9.64,15.071z"/><circle cx="22.361" cy="15.532" r="0.519"/><path d="M22.36,17.032c-0.826,0-1.5-0.673-1.5-1.5c0-0.826,0.673-1.5,1.5-1.5c0.827,0,1.5,0.673,1.5,1.5C23.861,16.359,23.188,17.032,22.36,17.032z M22.36,15.071c-0.254,0-0.461,0.207-0.461,0.461c0,0.255,0.207,0.462,0.461,0.462c0.255,0,0.462-0.207,0.462-0.462C22.822,15.278,22.615,15.071,22.36,15.071z"/><path d="M23.36,15.532h-2V7c0-2.757-2.243-5-5-5H15.64c-2.757,0-5,2.243-5,5v8.532h-2V7c0-3.859,3.141-7,7-7h0.721c3.859,0,7,3.141,7,7V15.532z"/></svg>