<svg xmlns="http://www.w3.org/2000/svg" viewBox="0 0 32 32"><!--! Font Icona - https://fonticona.com | License - https://fonticona.com/license | Copyright 2022 FontIcona.com --><path d="M19.657,19.413c-0.553,0-1-0.447-1-1V4.771c0-0.464-0.377-0.841-0.841-0.841s-0.841,0.377-0.841,0.841v8.106c0,0.552-0.447,1-1,1s-1-0.448-1-1V4.771c0-1.566,1.274-2.841,2.841-2.841s2.841,1.274,2.841,2.841v13.643C20.657,18.966,20.21,19.413,19.657,19.413z"/><path d="M15.976,7.554c-0.553,0-1-0.448-1-1V3.841C14.976,3.377,14.598,3,14.134,3s-0.841,0.377-0.841,0.841v1.052c0,0.552-0.447,1-1,1s-1-0.448-1-1V3.841C11.293,2.274,12.567,1,14.134,1c1.567,0,2.842,1.274,2.842,2.841v2.713C16.976,7.106,16.528,7.554,15.976,7.554z"/><path d="M8.611,12.231c-0.553,0-1-0.448-1-1V5.809c0-1.566,1.274-2.841,2.841-2.841s2.841,1.274,2.841,2.841c0,0.552-0.447,1.028-1,1.028s-1-0.42-1-0.972c0-0.52-0.377-0.896-0.841-0.896S9.611,5.345,9.611,5.809v5.422C9.611,11.783,9.164,12.231,8.611,12.231z"/><path d="M4.929,21.182c-0.553,0-1-0.447-1-1V8.61c0-1.567,1.274-2.841,2.841-2.841c1.567,0,2.842,1.274,2.842,2.841v6.21c0,0.552-0.447,1-1,1s-1-0.448-1-1V8.61c0-0.464-0.378-0.841-0.842-0.841S5.929,8.146,5.929,8.61v11.572C5.929,20.734,5.481,21.182,4.929,21.182z"/><path d="M9.497,30.846c-3.115,0-4.252-1.884-4.277-3.646l0.124-3.623c-0.142-0.345-0.319-0.593-0.521-0.874c-0.393-0.549-0.882-1.231-0.895-2.512c-0.005-0.553,0.438-1.004,0.99-1.01c0.003,0,0.007,0,0.01,0c0.548,0,0.995,0.441,1,0.99c0.006,0.648,0.188,0.904,0.521,1.367c0.268,0.374,0.602,0.84,0.846,1.548c0.04,0.116,0.059,0.238,0.054,0.36l-0.13,3.772c0.017,1.062,0.783,1.626,2.278,1.626c0.553,0,1,0.447,1,1S10.05,30.846,9.497,30.846z"/><path d="M13.859,31c-0.756,0-1.509-0.04-2.25-0.079c-0.708-0.037-1.412-0.075-2.104-0.075c-0.003,0-0.006,0-0.009,0l0,0c-0.552,0-1-0.447-1-1c0-0.552,0.447-1,1-1c0.003,0,0.006,0,0.009,0c0.727,0,1.466,0.039,2.209,0.078c1.417,0.075,2.752,0.146,4.025-0.048c0.553-0.084,1.135-0.407,1.354-0.751c0.101-0.16,0.087-0.419,0.057-0.828c-0.042-0.554-0.099-1.313,0.367-2.026c0.489-0.747,1.369-1.589,2.076-2.265l0.301-0.288c0.396-0.383,1.03-0.371,1.414,0.025c0.383,0.397,0.372,1.03-0.025,1.414l-0.308,0.295c-0.633,0.605-1.421,1.358-1.784,1.914c-0.088,0.135-0.076,0.385-0.047,0.781c0.042,0.558,0.1,1.32-0.362,2.049c-0.646,1.015-1.88,1.526-2.742,1.656C15.317,30.963,14.588,31,13.859,31z"/><path d="M12.293,15.292c-0.553,0-1-0.448-1-1V4.893c0-0.552,0.447-1,1-1s1,0.448,1,1v9.399C13.293,14.845,12.846,15.292,12.293,15.292z"/><path d="M20.589,24.438c-0.254,0-0.509-0.097-0.703-0.289c-0.393-0.389-0.396-1.022-0.008-1.414l5.96-6.02c0.151-0.155,0.236-0.367,0.233-0.592s-0.094-0.435-0.254-0.592c-0.335-0.324-0.867-0.315-1.19,0.016c-0.023,0.024-0.048,0.047-0.073,0.069L20.3,19.18c-0.424,0.356-1.054,0.298-1.409-0.124c-0.354-0.424-0.299-1.055,0.124-1.409l4.22-3.535c1.096-1.083,2.87-1.093,3.978-0.013c0.544,0.529,0.85,1.239,0.859,1.998s-0.276,1.476-0.807,2.02L21.3,24.141C21.104,24.339,20.847,24.438,20.589,24.438z"/></svg>