<svg xmlns="http://www.w3.org/2000/svg" viewBox="0 0 32 32"><!--! Font Icona - https://fonticona.com | License - https://fonticona.com/license | Copyright 2022 FontIcona.com --><path d="M8.953,20.073c-2.942,0-5.424-1.556-6.637-2.769C0.822,15.812,0,13.827,0,11.715c-0.001-2.112,0.822-4.098,2.315-5.591l5.275-5.216c0.932-0.921,2.447-0.919,3.377,0.003s0.949,2.43,0.052,3.369L7.765,7.685C7.382,8.082,6.75,8.097,6.351,7.716C5.952,7.334,5.938,6.701,6.319,6.302l3.255-3.404C9.724,2.741,9.72,2.489,9.566,2.337C9.404,2.178,9.153,2.175,8.997,2.33L3.726,7.542C2.614,8.654,2,10.137,2,11.715c0,1.577,0.614,3.061,1.73,4.176c0.169,0.166,4.246,4.112,8.946,1c0.158-0.105,0.203-0.254,0.215-0.333c0.012-0.075,0.015-0.22-0.095-0.355l-0.282-0.359c-0.14-0.18-0.398-0.227-0.596-0.11l-1.607,0.951c-0.319,0.188-0.718,0.185-1.033-0.008c-0.316-0.194-0.499-0.548-0.475-0.918L8.893,14.4c0.05-1.334,1.157-2.412,2.52-2.427l0.449,0.016l2.306-0.15c0.469-0.019,0.881,0.259,1.02,0.697c0.138,0.439-0.041,0.917-0.436,1.155l-0.365,0.222c-0.167,0.098-0.248,0.206-0.272,0.353c-0.034,0.205,0.048,0.452,0.215,0.645c0.005,0.005,0.009,0.01,0.014,0.015c0.199,0.218,0.522,0.251,0.761,0.077l1.096-0.677c0.861-0.53,1.173-1.613,0.727-2.52c-0.319-0.645-0.964-1.061-1.684-1.085l-2.189-0.071c-0.447-0.014-0.831-0.324-0.938-0.759c-0.107-0.434,0.086-0.887,0.475-1.108l5.984-3.416C18.659,5.27,18.678,5.161,18.68,5.1c0.004-0.07-0.009-0.207-0.125-0.323c-0.154-0.155-0.4-0.169-0.572-0.034c-0.032,0.025-0.066,0.049-0.102,0.07L10.64,9.197c-0.469,0.286-1.086,0.136-1.373-0.338C8.98,8.388,9.132,7.772,9.604,7.486l7.194-4.356c0.966-0.717,2.313-0.623,3.169,0.231c0.481,0.481,0.74,1.147,0.71,1.828c-0.03,0.679-0.347,1.319-0.868,1.755c-0.046,0.038-0.095,0.072-0.146,0.102l-3.27,1.866c1,0.323,1.844,1.038,2.323,2.008c0.907,1.839,0.273,4.035-1.473,5.108l-1.032,0.635c-0.414,0.303-0.904,0.454-1.399,0.461c-0.156,0.584-0.523,1.097-1.033,1.435C12.123,19.656,10.476,20.073,8.953,20.073z"/><path d="M10.122,9.342c-0.28,0-0.56-0.117-0.757-0.347c-0.361-0.418-0.314-1.049,0.104-1.41l5.529-4.774c0.132-0.114,0.156-0.257,0.158-0.332c0.003-0.071-0.01-0.207-0.119-0.326l-0.019-0.019c-0.167-0.168-0.434-0.181-0.616-0.026L7.729,7.793C7.308,8.15,6.677,8.101,6.319,7.68C5.961,7.26,6.011,6.628,6.432,6.27L13.11,0.58c0.967-0.812,2.354-0.771,3.265,0.084l0.062,0.059c0.481,0.481,0.743,1.147,0.719,1.828c-0.024,0.682-0.335,1.327-0.85,1.773l-5.53,4.774C10.587,9.262,10.354,9.342,10.122,9.342z"/><path d="M22.723,31.782c-0.612,0-1.225-0.231-1.69-0.693c-0.93-0.922-0.949-2.43-0.052-3.369l3.255-3.404c0.381-0.399,1.014-0.414,1.414-0.031c0.398,0.382,0.413,1.015,0.031,1.414l-3.255,3.404c-0.149,0.156-0.146,0.408,0.008,0.561c0.161,0.16,0.412,0.161,0.569,0.007l5.271-5.212C29.386,23.346,30,21.863,30,20.285c0-1.577-0.614-3.061-1.73-4.176c-0.17-0.168-4.247-4.114-8.946-1c-0.158,0.105-0.203,0.254-0.215,0.333c-0.012,0.075-0.015,0.22,0.095,0.355l0.282,0.359c0.141,0.18,0.4,0.229,0.596,0.11l1.607-0.951c0.319-0.188,0.718-0.185,1.033,0.008c0.316,0.194,0.499,0.548,0.475,0.918L23.107,17.6c-0.05,1.334-1.157,2.412-2.52,2.427l-0.449-0.016l-2.306,0.15c-0.481,0.014-0.881-0.259-1.02-0.697c-0.138-0.439,0.041-0.917,0.436-1.155l0.365-0.222c0.167-0.098,0.248-0.206,0.272-0.353c0.034-0.205-0.048-0.452-0.215-0.645c-0.005-0.005-0.009-0.01-0.014-0.015c-0.197-0.217-0.521-0.25-0.761-0.077l-1.096,0.677c-0.861,0.53-1.173,1.613-0.727,2.52c0.319,0.645,0.964,1.061,1.684,1.085l2.189,0.071c0.447,0.014,0.831,0.324,0.938,0.759c0.107,0.434-0.086,0.887-0.475,1.108l-5.984,3.416c-0.087,0.097-0.105,0.205-0.107,0.267c-0.004,0.07,0.009,0.207,0.125,0.323c0.154,0.154,0.398,0.168,0.572,0.034c0.032-0.025,0.066-0.049,0.102-0.07l7.241-4.385c0.47-0.283,1.086-0.135,1.373,0.338c0.286,0.472,0.135,1.087-0.338,1.373l-7.194,4.356c-0.965,0.716-2.314,0.623-3.169-0.231c-0.481-0.481-0.74-1.147-0.71-1.828c0.03-0.679,0.347-1.319,0.868-1.755c0.046-0.038,0.095-0.072,0.146-0.102l3.27-1.866c-1-0.323-1.844-1.038-2.323-2.008c-0.907-1.839-0.273-4.035,1.473-5.108l1.032-0.635c0.414-0.303,0.904-0.454,1.399-0.461c0.156-0.584,0.523-1.097,1.033-1.435c4.86-3.219,9.623-0.586,11.464,1.254C31.178,16.188,32,18.173,32,20.285c0.001,2.112-0.822,4.098-2.315,5.591l-5.275,5.216C23.944,31.552,23.333,31.782,22.723,31.782z"/><path d="M17.301,32.004c-0.604,0-1.204-0.225-1.676-0.668l-0.062-0.059c-0.481-0.481-0.743-1.147-0.719-1.828c0.024-0.682,0.335-1.327,0.85-1.773l5.53-4.774c0.416-0.359,1.049-0.316,1.41,0.104c0.361,0.418,0.314,1.049-0.104,1.41l-5.529,4.774c-0.132,0.114-0.156,0.257-0.158,0.332c-0.003,0.071,0.01,0.207,0.119,0.326l0.019,0.019c0.168,0.168,0.434,0.181,0.616,0.026l6.674-5.686c0.42-0.356,1.051-0.309,1.409,0.113c0.358,0.42,0.309,1.052-0.112,1.41L18.89,31.42C18.424,31.811,17.861,32.004,17.301,32.004z"/></svg>