<svg xmlns="http://www.w3.org/2000/svg" viewBox="0 0 32 32"><!--! Font Icona - https://fonticona.com | License - https://fonticona.com/license | Copyright 2022 FontIcona.com --><path d="M4.003,23.821c-0.559,0-1.12-0.188-1.584-0.568c0,0-0.001,0-0.001-0.001L2.159,23.04c-0.544-0.444-0.877-1.104-0.912-1.809s0.23-1.394,0.729-1.892l3.558-3.557c0.913-0.913,2.354-0.983,3.351-0.167l0.258,0.211c0.545,0.447,0.878,1.106,0.913,1.811c0.035,0.703-0.23,1.393-0.729,1.892L5.77,23.087C5.282,23.574,4.644,23.821,4.003,23.821z M3.685,21.706c0.2,0.162,0.489,0.149,0.67-0.033l3.558-3.558c0.136-0.137,0.15-0.296,0.146-0.379c-0.004-0.082-0.033-0.239-0.183-0.361l-0.258-0.212c-0.201-0.164-0.489-0.147-0.67,0.033L3.39,20.753c-0.136,0.137-0.149,0.296-0.146,0.378c0.004,0.083,0.033,0.24,0.183,0.361L3.685,21.706z"/><path d="M7.03,25.523c-0.559,0-1.12-0.188-1.584-0.568l-0.258-0.21c-0.545-0.447-0.878-1.107-0.914-1.811c-0.035-0.704,0.23-1.394,0.729-1.893l5.158-5.157c0.913-0.913,2.354-0.984,3.352-0.167l0.258,0.211c0.545,0.447,0.878,1.107,0.914,1.81c0.035,0.704-0.231,1.394-0.729,1.893l-5.158,5.157C8.31,25.276,7.671,25.523,7.03,25.523z M11.929,17.151c-0.128,0-0.256,0.05-0.354,0.147l-5.158,5.157c-0.136,0.137-0.149,0.296-0.146,0.379c0.004,0.082,0.034,0.239,0.183,0.362l0.257,0.21v0.001c0.2,0.163,0.488,0.149,0.67-0.033l5.158-5.157c0.136-0.137,0.15-0.296,0.146-0.379c-0.004-0.083-0.034-0.239-0.183-0.362l-0.258-0.211C12.152,17.189,12.041,17.151,11.929,17.151z"/><path d="M10.172,27.099c-0.559,0-1.119-0.188-1.583-0.568c0,0-0.001,0-0.001-0.001L8.33,26.318c-0.544-0.444-0.877-1.104-0.912-1.809s0.23-1.394,0.729-1.892l6.462-6.462c0.912-0.913,2.354-0.984,3.352-0.167l0.258,0.211c0.546,0.447,0.878,1.106,0.913,1.811s-0.231,1.394-0.729,1.892l-6.461,6.461C11.452,26.851,10.813,27.099,10.172,27.099z M9.855,24.984c0.2,0.161,0.488,0.148,0.67-0.034l6.461-6.461c0.137-0.137,0.15-0.296,0.146-0.378c-0.005-0.083-0.034-0.24-0.184-0.363l-0.258-0.212c-0.199-0.162-0.487-0.147-0.669,0.034l-6.462,6.462c-0.136,0.137-0.149,0.296-0.146,0.378c0.004,0.083,0.033,0.24,0.183,0.361L9.855,24.984z"/><path d="M13.656,28.578c-0.711,0-1.447-0.289-2.016-0.858l0,0c-0.498-0.498-0.802-1.142-0.854-1.812c-0.056-0.718,0.19-1.408,0.675-1.893l3.441-3.442c0.974-0.971,2.635-0.892,3.705,0.179s1.15,2.732,0.179,3.704l-3.442,3.442C14.889,28.353,14.282,28.578,13.656,28.578z M16.595,21.889c-0.116,0-0.215,0.034-0.279,0.098l-3.441,3.442c-0.092,0.093-0.103,0.227-0.095,0.323c0.015,0.192,0.115,0.394,0.274,0.553l0,0c0.311,0.31,0.712,0.343,0.876,0.179l3.442-3.442c0.092-0.092,0.103-0.227,0.095-0.323c-0.015-0.192-0.114-0.394-0.273-0.553C17.003,21.975,16.778,21.889,16.595,21.889z"/><path d="M18.698,27.036h-0.663c-1.103,0-2-0.897-2-2c0-0.553,0.448-1,1-1c0.553,0,1,0.447,1,1v0.002l0.663-0.002c0.273,0,0.496-0.222,0.496-0.495l0.001-4.204c0-0.553,0.448-1,1-1l0,0c0.553,0,1,0.448,1,1l-0.001,4.204C21.194,25.917,20.074,27.036,18.698,27.036z"/><path d="M21.659,25.652h-1.091c-0.553,0-1-0.447-1-1s0.447-1,1-1h1.091c0.552,0,1-0.448,1-1v-3.186c0-0.594-0.261-1.152-0.716-1.533l-2.577-2.159c-0.423-0.354-0.479-0.985-0.124-1.409c0.356-0.423,0.986-0.479,1.409-0.125l2.577,2.159c0.909,0.762,1.431,1.88,1.431,3.066v3.186C24.659,24.306,23.313,25.652,21.659,25.652z"/><path d="M25.196,24.072h-0.764c-0.553,0-1-0.447-1-1s0.447-1,1-1h0.764c0.552,0,1.001-0.448,1.001-1v-2.957c0-0.514-0.194-1.003-0.548-1.375l-5.011-4.548c-0.688-0.626-1.708-0.697-2.475-0.169l-2.732,1.874c-0.877,0.731-2.107,0.903-3.152,0.434l-0.427-0.191c-0.521-0.234-0.917-0.68-1.089-1.225c-0.171-0.544-0.102-1.137,0.191-1.626l2.899-4.854c0.381-0.638,0.909-1.192,1.527-1.602c0.983-0.652,2.07-1.092,3.231-1.308c0.898-0.167,1.837-0.125,2.717,0.121c1.465,0.409,2.83,0.957,4.115,1.645l1.886,1.009c0.983,0.526,2.036,0.896,3.131,1.099l0.722,0.134C31.656,7.619,32,8.032,32,8.514v11.823c0,0.553-0.447,1-1,1h-2.814C28.051,22.868,26.762,24.072,25.196,24.072z M28.197,19.337H30V9.345c-1.263-0.244-2.478-0.676-3.613-1.283l-1.886-1.009c-1.157-0.619-2.386-1.112-3.651-1.466c-0.645-0.18-1.272-0.209-1.872-0.097c-0.896,0.166-1.733,0.505-2.49,1.007c-0.371,0.247-0.688,0.579-0.917,0.961l-2.899,4.854l0.427,0.192c0.356,0.162,0.775,0.098,1.067-0.158c0.029-0.026,0.06-0.049,0.092-0.071l2.774-1.902c1.537-1.054,3.573-0.915,4.952,0.338l5.064,4.601c0.76,0.799,1.148,1.776,1.148,2.803V19.337z"/><path d="M1,20.783c-0.264,0-0.517-0.104-0.704-0.29C0.106,20.305,0,20.049,0,19.783V8.396c0-0.552,0.448-1,1-1h3.478c0.534,0,1.06-0.143,1.52-0.414l0.926-0.543c1.142-0.671,2.386-1.092,3.698-1.25c1.253-0.152,2.481-0.25,3.689-0.297l1.049-0.04c0.554-0.01,1.016,0.41,1.038,0.961c0.021,0.552-0.41,1.016-0.961,1.038l-1.049,0.04c-1.153,0.043-2.325,0.137-3.484,0.278C9.824,7.298,8.84,7.631,7.937,8.163L7.011,8.706C6.244,9.157,5.367,9.396,4.478,9.396H2v9.379l0.545-0.005l2.989-2.988c0.391-0.391,1.023-0.391,1.414,0c0.391,0.391,0.391,1.024,0,1.415l-3.278,3.277c-0.186,0.186-0.437,0.291-0.699,0.293l-1.962,0.016C1.005,20.783,1.002,20.783,1,20.783z"/></svg>