<svg xmlns="http://www.w3.org/2000/svg" viewBox="0 0 32 32"><!--! Font Icona - https://fonticona.com | License - https://fonticona.com/license | Copyright 2022 FontIcona.com --><path d="M22.82,18.658c-0.509,0-1.049-0.091-1.618-0.271l-7.494-2.179c-0.53-0.007-1.387,0.453-1.878,0.812c-0.25,0.183-0.572,0.239-0.868,0.151l-5.551-1.614c-1.111-0.345-1.846-0.934-2.198-1.757c-0.499-1.163,0.02-2.271,0.081-2.394c2.53-5.101,6.461-8.253,11.066-8.878c3.105-0.42,6.255,0.425,8.651,1.207c1.517,0.495,6.132,2.003,5.303,5.528c-0.285,1.212-0.775,3.099-1.456,5.611c-0.075,0.408-0.496,2.272-2.063,3.236C24.204,18.476,23.544,18.658,22.82,18.658z M13.707,14.21c0.101,0,0.2,0.005,0.299,0.017c0.055,0.007,0.109,0.018,0.162,0.033l7.604,2.211c0.008,0.002,0.017,0.005,0.024,0.007c0.812,0.261,1.451,0.237,1.95-0.068c0.892-0.549,1.145-1.896,1.146-1.909c0.006-0.035,0.013-0.069,0.022-0.104c0.672-2.478,1.174-4.41,1.451-5.59c0.275-1.168-1.025-2.205-3.977-3.17C20.196,4.92,17.329,4.14,14.63,4.512c-5.035,0.683-7.97,4.609-9.545,7.784l0,0c0.001,0-0.173,0.406-0.03,0.726c0.143,0.318,0.586,0.514,0.932,0.621l5.087,1.479C11.661,14.756,12.707,14.21,13.707,14.21z"/><path d="M5.916,22.999c-0.085,0-0.172-0.011-0.258-0.033c-0.534-0.143-0.852-0.69-0.71-1.224l1.093-4.109c0.142-0.534,0.692-0.85,1.224-0.71c0.534,0.143,0.852,0.69,0.71,1.224l-1.093,4.109C6.763,22.704,6.358,22.999,5.916,22.999z"/><path d="M4.376,31.955c-0.346,0-0.696-0.04-1.047-0.124c-1.175-0.278-2.149-1.016-2.742-2.077c-0.639-1.141-0.763-2.533-0.34-3.819c0.799-2.427,3.277-5.391,5.878-4.633c2.565,0.746,3.324,4.791,2.701,7.14l0,0C8.263,30.559,6.415,31.955,4.376,31.955z M5.304,23.186c-1.055,0-2.563,1.571-3.156,3.374c-0.249,0.756-0.182,1.564,0.185,2.219c0.225,0.4,0.659,0.917,1.458,1.107c1.39,0.327,2.719-0.514,3.103-1.958l0,0c0.468-1.762-0.275-4.4-1.326-4.706C5.483,23.197,5.396,23.186,5.304,23.186z M7.859,28.185h0.01H7.859z"/><path d="M7.641,18.979c-0.305,0-0.612-0.043-0.912-0.13c-1.658-0.482-2.665-2.169-2.243-3.759c0.143-0.533,0.689-0.848,1.224-0.71c0.533,0.142,0.852,0.689,0.71,1.224c-0.146,0.549,0.244,1.144,0.868,1.325c0.315,0.091,0.647,0.06,0.91-0.089c0.153-0.087,0.353-0.252,0.431-0.546c0.143-0.535,0.696-0.846,1.224-0.71c0.534,0.143,0.852,0.69,0.71,1.224c-0.201,0.755-0.691,1.385-1.381,1.773C8.715,18.845,8.182,18.979,7.641,18.979z"/><path d="M22.111,12.751c-0.095,0-0.188-0.014-0.279-0.04c-8.016-2.33-8.02-2.332-8.046-2.341c-0.478-0.138-0.869-0.559-1.037-1.144c-0.21-0.73-0.096-1.859,0.46-2.482c1.43-1.609,4.06-1.068,5.183-0.835c0.981,0.202,2.437,0.569,3.744,1.419c0.663,0.432,1.774,1.153,2.071,2.549c0.159,0.746,0.034,1.447-0.353,1.977c-0.37,0.507-0.955,0.824-1.645,0.893C22.177,12.749,22.145,12.751,22.111,12.751z M14.649,8.54c1.238,0.359,6.362,1.85,7.512,2.184c0.037-0.014,0.064-0.031,0.078-0.05c0.027-0.037,0.06-0.157,0.012-0.38c-0.115-0.543-0.593-0.891-1.205-1.288c-0.79-0.514-1.733-0.864-3.059-1.138c-0.648-0.135-2.621-0.542-3.283,0.205C14.668,8.145,14.641,8.372,14.649,8.54z M14.382,8.462c0.001,0,0.001,0,0.003,0C14.384,8.462,14.383,8.462,14.382,8.462z"/><path d="M11.331,4.836c-0.471,0-0.89-0.333-0.981-0.812l-0.099-0.517c-0.266-1.386,0.526-2.725,1.764-2.983l2.084-0.435c0.56-0.121,1.146,0.001,1.645,0.334c0.574,0.383,0.982,1.018,1.12,1.74l0.099,0.516c0.104,0.542-0.252,1.066-0.795,1.17c-0.541,0.1-1.066-0.252-1.17-0.795l-0.099-0.517c-0.044-0.231-0.166-0.385-0.266-0.451c-0.028-0.02-0.088-0.05-0.125-0.04L12.424,2.48c-0.109,0.023-0.276,0.295-0.208,0.65l0.099,0.518c0.104,0.542-0.252,1.066-0.795,1.17C11.456,4.83,11.394,4.836,11.331,4.836z"/><path d="M9.082,9.447c-0.093,0-0.188-0.013-0.282-0.041L6.584,8.754c-0.53-0.155-0.833-0.712-0.677-1.241c0.155-0.528,0.711-0.836,1.241-0.677l2.216,0.652c0.53,0.155,0.833,0.712,0.677,1.241C9.913,9.165,9.515,9.447,9.082,9.447z"/><path d="M8.19,12.306c-0.093,0-0.188-0.013-0.282-0.041l-3.19-0.938c-0.529-0.155-0.833-0.711-0.677-1.241c0.155-0.529,0.705-0.837,1.241-0.677l3.19,0.938c0.529,0.155,0.833,0.711,0.677,1.241C9.021,12.023,8.623,12.306,8.19,12.306z"/><rect x="0.171" y="25.358" transform="matrix(0.2696 -0.963 0.963 0.2696 -21.9514 23.775)" width="9.051" height="2"/><path d="M30.118,15.261c-0.094,0-0.188-0.013-0.279-0.04l-3.851-1.119c-0.521-0.151-0.827-0.691-0.688-1.217l0.883-3.319c0.069-0.261,0.241-0.481,0.476-0.614c0.234-0.131,0.512-0.166,0.771-0.089l3.85,1.12c0.521,0.151,0.827,0.692,0.688,1.217l-0.882,3.318c-0.069,0.26-0.24,0.481-0.475,0.614C30.459,15.217,30.289,15.261,30.118,15.261z M27.485,12.454l1.929,0.561l0.368-1.385l-1.929-0.562L27.485,12.454z"/></svg>