<svg xmlns="http://www.w3.org/2000/svg" viewBox="0 0 32 32"><!--! Font Icona - https://fonticona.com | License - https://fonticona.com/license | Copyright 2022 FontIcona.com --><path d="M22.497,23.512c-0.987,0-1.911-0.449-2.571-1.146c-0.661,0.697-1.584,1.146-2.571,1.146c-1.004,0-1.927-0.439-2.583-1.134c-0.66,0.69-1.579,1.134-2.559,1.134c-1.004,0-1.927-0.439-2.583-1.134c-0.66,0.69-1.579,1.134-2.559,1.134c-1.902,0-3.571-1.669-3.571-3.571c0-0.553,0.448-1,1-1s1,0.447,1,1c0,0.727,0.686,1.571,1.571,1.571s1.571-0.845,1.571-1.571c0-0.553,0.448-1,1-1s1,0.447,1,1c0,0.837,0.734,1.571,1.571,1.571c0.885,0,1.571-0.845,1.571-1.571c0-0.553,0.448-1,1-1s1,0.447,1,1c0,0.837,0.734,1.571,1.571,1.571c0.885,0,1.571-0.845,1.571-1.571c0-0.553,0.448-1,1-1s1,0.447,1,1c0,0.727,0.687,1.571,1.571,1.571s1.571-0.845,1.571-1.571c0-0.553,0.448-1,1-1s1,0.447,1,1C26.068,21.843,24.399,23.512,22.497,23.512z"/><path d="M9.642,20.94c-0.552,0-1-0.447-1-1v-5.794c0-0.552,0.448-1,1-1s1,0.448,1,1v5.794C10.642,20.493,10.194,20.94,9.642,20.94z"/><path d="M14.784,21.286c-0.552,0-1-0.447-1-1v-6.14c0-0.552,0.448-1,1-1s1,0.448,1,1v6.14C15.784,20.839,15.336,21.286,14.784,21.286z"/><path d="M19.926,20.94c-0.552,0-1-0.447-1-1v-5.794c0-0.552,0.448-1,1-1s1,0.448,1,1v5.794C20.926,20.493,20.478,20.94,19.926,20.94z"/><path d="M23.648,25.968h-6.32c-1.813,0-3.318-1.36-3.425-3.097c-0.044-0.705,0.132-1.393,0.511-1.985c0.297-0.465,0.916-0.601,1.381-0.305c0.465,0.297,0.602,0.915,0.305,1.381c-0.148,0.233-0.218,0.504-0.2,0.785c0.042,0.674,0.683,1.221,1.429,1.221h6.32c1.417,0,2.611-1.013,2.838-2.408c0.03-0.185,0.011-0.39-0.056-0.593l-2.312-7.045c-0.172-0.525,0.114-1.09,0.638-1.262c0.526-0.171,1.09,0.114,1.262,0.638l2.312,7.045c0.167,0.506,0.211,1.038,0.13,1.539C28.074,24.249,26.05,25.968,23.648,25.968z"/><path d="M25.068,20.94c-0.552,0-1-0.447-1-1v-8.25c-0.145-2.333-4.512-3.622-8.75-3.657C10.066,7.989,5.664,9.7,5.497,11.845L5.5,19.94c0,0.553-0.448,1-1,1s-1-0.447-1-1v-8.173c0.312-4.028,6.365-5.75,11.835-5.734c4.794,0.04,10.481,1.529,10.731,5.596l0.002,8.311C26.068,20.493,25.62,20.94,25.068,20.94z"/></svg>