<svg xmlns="http://www.w3.org/2000/svg" viewBox="0 0 32 32"><!--! Font Icona - https://fonticona.com | License - https://fonticona.com/license | Copyright 2022 FontIcona.com --><path d="M10.962,16.521c-0.553,0-1-0.448-1-1V4.786c0-1.572,1.279-2.851,2.852-2.851s2.852,1.279,2.852,2.851v8.15c0,0.552-0.447,1-1,1s-1-0.448-1-1v-8.15c0-0.469-0.382-0.851-0.852-0.851s-0.852,0.382-0.852,0.851v10.734C11.962,16.073,11.515,16.521,10.962,16.521z"/><path d="M14.665,7.58c-0.553,0-1-0.448-1-1V3.851C13.665,2.279,14.943,1,16.516,1s2.852,1.279,2.852,2.851v1.058c0,0.552-0.447,1-1,1s-1-0.448-1-1V3.851C17.367,3.382,16.985,3,16.516,3c-0.469,0-0.851,0.382-0.851,0.851V6.58C15.665,7.132,15.218,7.58,14.665,7.58z"/><path d="M22.069,12.282c-0.553,0-1-0.448-1-1V5.83c0-0.47-0.382-0.852-0.851-0.852c-0.47,0-0.852,0.382-0.852,0.852c0,0.552-0.447,1.028-1,1.028s-1-0.42-1-0.972c0-1.628,1.279-2.907,2.852-2.907s2.851,1.279,2.851,2.852v5.452C23.069,11.834,22.622,12.282,22.069,12.282z"/><path d="M15.704,31c-0.07,0-0.143-0.007-0.214-0.023c-1.443-0.315-2.583-1.312-2.977-2.602c-0.148-0.491-0.1-0.97-0.061-1.354c0.026-0.25,0.053-0.51,0.007-0.652c-0.146-0.454-0.869-1.08-1.397-1.538c-0.228-0.197-0.442-0.384-0.62-0.555c-0.166-0.161-0.337-0.313-0.504-0.463c-0.74-0.662-1.577-1.411-1.867-2.652l-2.688-7.317c-0.281-0.859-0.166-1.75,0.305-2.479c0.472-0.729,1.236-1.201,2.1-1.294c1.358-0.146,2.602,0.646,3.037,1.926l1.085,3.204c0.177,0.523-0.104,1.091-0.626,1.268c-0.522,0.18-1.09-0.103-1.269-0.626L8.93,12.638c-0.132-0.387-0.508-0.624-0.914-0.582c-0.37,0.041-0.564,0.264-0.647,0.393c-0.084,0.129-0.208,0.397-0.097,0.739l2.699,7.344c0.017,0.044,0.029,0.09,0.04,0.136c0.131,0.617,0.564,1.03,1.261,1.653c0.187,0.167,0.376,0.336,0.561,0.515c0.155,0.149,0.342,0.31,0.539,0.481c0.747,0.646,1.677,1.451,1.994,2.44c0.173,0.542,0.12,1.055,0.078,1.467c-0.022,0.217-0.048,0.462-0.016,0.567c0.179,0.589,0.764,1.072,1.488,1.23c0.54,0.118,0.882,0.651,0.764,1.19C16.578,30.681,16.164,31,15.704,31z"/><path d="M25.772,21.283c-0.553,0-1-0.448-1-1V8.646c0-0.47-0.382-0.852-0.852-0.852s-0.852,0.382-0.852,0.852v6.245c0,0.552-0.447,1-1,1s-1-0.448-1-1V8.646c0-1.572,1.279-2.852,2.852-2.852s2.852,1.279,2.852,2.852v11.637C26.772,20.835,26.325,21.283,25.772,21.283z"/><path d="M21.179,31c-0.553,0-1-0.448-1-1s0.447-1,1-1c1.506,0,2.278-0.569,2.296-1.69l0.087-2.733c0.003-0.1,0.021-0.199,0.054-0.294c0.126-0.366,0.266-0.723,0.405-1.079c0.382-0.973,0.742-1.891,0.752-2.93c0.005-0.549,0.452-0.99,1-0.99c0.003,0,0.006,0,0.01,0c0.552,0.005,0.995,0.458,0.99,1.01c-0.014,1.407-0.459,2.543-0.89,3.641c-0.112,0.284-0.224,0.569-0.327,0.86l-0.082,2.563C25.447,29.11,24.304,31,21.179,31z"/><path d="M21.179,31h-5.476c-0.553,0-1-0.448-1-1s0.447-1,1-1h5.476c0.553,0,1,0.448,1,1S21.731,31,21.179,31z"/><path d="M18.367,15.36c-0.553,0-1-0.448-1-1V4.909c0-0.552,0.447-1,1-1s1,0.448,1,1v9.451C19.367,14.913,18.92,15.36,18.367,15.36z"/></svg>