<svg xmlns="http://www.w3.org/2000/svg" viewBox="0 0 32 32"><!--! Font Icona - https://fonticona.com | License - https://fonticona.com/license | Copyright 2022 FontIcona.com --><path d="M12.99,14.482c-0.553,0-1-0.448-1-1v-0.923c0-1.714,1.395-3.108,3.108-3.108s3.108,1.395,3.108,3.108v0.849c0,0.552-0.447,1-1,1s-1-0.448-1-1v-0.849c0-0.611-0.497-1.108-1.108-1.108s-1.108,0.497-1.108,1.108v0.923C13.99,14.034,13.543,14.482,12.99,14.482z"/><path d="M8.773,6.188c-0.553,0-1-0.448-1-1v-2.08C7.773,1.395,9.168,0,10.882,0s3.108,1.395,3.108,3.108v1.205c0,0.552-0.447,1-1,1s-1-0.448-1-1V3.108C11.99,2.497,11.493,2,10.882,2S9.773,2.497,9.773,3.108v2.08C9.773,5.74,9.326,6.188,8.773,6.188z"/><path d="M21.424,15.82c-0.553,0-1-0.448-1-1v-1.072c0-0.611-0.497-1.108-1.108-1.108s-1.108,0.497-1.108,1.108c0,0.552-0.447,1.032-1,1.032s-1-0.416-1-0.968c0-1.777,1.395-3.172,3.108-3.172s3.108,1.395,3.108,3.108v1.072C22.424,15.372,21.977,15.82,21.424,15.82z"/><path d="M25.641,20.934c-0.553,0-1-0.447-1-1V14.9c0-0.611-0.497-1.108-1.108-1.108s-1.108,0.497-1.108,1.108c0,0.552-0.447,1-1,1s-1-0.448-1-1c0,0,0-0.001,0-0.001c0.001-1.713,1.395-3.107,3.108-3.107s3.108,1.395,3.108,3.108v5.033C26.641,20.486,26.193,20.934,25.641,20.934z"/><path d="M14.174,32c-0.065,0-0.132-0.006-0.199-0.02c-2.551-0.516-2.916-2.385-3.183-3.749c-0.099-0.501-0.19-0.974-0.363-1.404c-0.343-0.855-1.155-1.502-2.015-2.188c-1.052-0.837-2.243-1.786-2.738-3.305c-0.979-3.002,0.466-6.258,2.331-8.154c0.388-0.393,1.021-0.399,1.414-0.011c0.394,0.388,0.399,1.021,0.012,1.415c-1.441,1.464-2.574,3.928-1.854,6.131c0.309,0.948,1.17,1.634,2.082,2.36c0.978,0.779,2.086,1.661,2.626,3.009c0.242,0.605,0.362,1.221,0.468,1.764c0.279,1.428,0.437,1.934,1.617,2.172c0.541,0.109,0.892,0.637,0.782,1.179C15.058,31.673,14.64,32,14.174,32z"/><path d="M20.409,32c-0.553,0-1-0.447-1-1s0.447-1,1-1c1.778,0,2.581-0.7,2.604-2.271v-2.51c0-0.111,0.019-0.221,0.055-0.326c0.163-0.475,0.367-0.965,0.577-1.469c0.483-1.162,0.984-2.363,0.995-3.5c0.005-0.549,0.452-0.99,1-0.99c0.003,0,0.006,0,0.01,0c0.552,0.005,0.995,0.457,0.99,1.01c-0.015,1.526-0.617,2.973-1.149,4.25c-0.17,0.409-0.337,0.809-0.478,1.197v2.353C24.974,30.414,23.253,32,20.409,32z"/><path d="M20.409,32h-6.236c-0.553,0-1-0.447-1-1s0.447-1,1-1h6.236c0.553,0,1,0.447,1,1S20.962,32,20.409,32z"/><path d="M8.773,17.362c-0.553,0-1-0.447-1-1V5.188c0-0.552,0.447-1,1-1s1,0.448,1,1v11.175C9.773,16.915,9.326,17.362,8.773,17.362z"/><path d="M12.99,14.28c-0.553,0-1-0.448-1-1V4.313c0-0.552,0.447-1,1-1s1,0.448,1,1v8.967C13.99,13.833,13.543,14.28,12.99,14.28z"/></svg>