<svg xmlns="http://www.w3.org/2000/svg" viewBox="0 0 32 32"><!--! Font Icona - https://fonticona.com | License - https://fonticona.com/license | Copyright 2022 FontIcona.com --><path d="M13.07,16.95c-0.553,0-1-0.448-1-1V3.052C12.07,1.369,13.439,0,15.123,0c1.683,0,3.052,1.369,3.052,3.052v12.826c0,0.552-0.447,1-1,1s-1-0.448-1-1V3.052c0-0.58-0.472-1.052-1.052-1.052S14.07,2.472,14.07,3.052V15.95C14.07,16.502,13.623,16.95,13.07,16.95z"/><path d="M8.967,16.878c-0.553,0-1-0.448-1-1v-2.024c0-1.683,1.369-3.052,3.052-3.052s3.052,1.369,3.052,3.052v1.172c0,0.552-0.447,1-1,1s-1-0.448-1-1v-1.172c0-0.58-0.472-1.052-1.052-1.052s-1.052,0.472-1.052,1.052v2.024C9.967,16.43,9.52,16.878,8.967,16.878z"/><path d="M21.278,16.252c-0.553,0-1-0.448-1-1v-1.043c0-0.58-0.472-1.052-1.052-1.052s-1.052,0.472-1.052,1.052c0,0.552-0.447,1.031-1,1.031s-1-0.417-1-0.969c0-1.745,1.369-3.114,3.052-3.114s3.052,1.369,3.052,3.052v1.043C22.278,15.805,21.831,16.252,21.278,16.252z"/><path d="M25.383,21.229c-0.553,0-1-0.448-1-1v-4.898c0-0.58-0.472-1.052-1.052-1.052s-1.053,0.472-1.053,1.052c0,0.552-0.447,1-1,1s-1-0.448-1-1c0,0,0-0.001,0-0.001c0.001-1.683,1.37-3.051,3.053-3.051s3.052,1.369,3.052,3.052v4.898C26.383,20.782,25.936,21.229,25.383,21.229z"/><path d="M14.223,32c-0.065,0-0.132-0.006-0.199-0.02c-2.5-0.505-2.857-2.334-3.119-3.669c-0.095-0.486-0.185-0.944-0.352-1.361c-0.331-0.827-1.119-1.455-1.953-2.119c-1.025-0.817-2.188-1.744-2.673-3.229C4.971,18.67,6.38,15.49,8.201,13.639c0.386-0.394,1.021-0.4,1.414-0.012c0.394,0.387,0.399,1.021,0.012,1.414c-1.396,1.42-2.494,3.807-1.798,5.941c0.298,0.915,1.133,1.58,2.017,2.284c0.954,0.76,2.036,1.622,2.564,2.939c0.236,0.592,0.354,1.192,0.457,1.721c0.27,1.376,0.42,1.864,1.553,2.093c0.541,0.109,0.892,0.637,0.782,1.178C15.105,31.672,14.688,32,14.223,32z"/><path d="M20.291,32c-0.553,0-1-0.448-1-1s0.447-1,1-1c1.713,0,2.486-0.673,2.508-2.184v-2.201c0-0.111,0.019-0.221,0.055-0.326c0.141-0.408,0.312-0.844,0.491-1.298c0.481-1.221,1.027-2.604,1.038-3.77c0.005-0.549,0.452-0.991,1-0.991c0.003,0,0.006,0,0.009,0c0.553,0.005,0.996,0.457,0.991,1.009c-0.015,1.536-0.632,3.103-1.178,4.485c-0.145,0.369-0.285,0.725-0.406,1.062v2.044C24.763,30.446,23.077,32,20.291,32z"/><path d="M20.291,32h-6.069c-0.553,0-1-0.448-1-1s0.447-1,1-1h6.069c0.553,0,1,0.448,1,1S20.844,32,20.291,32z"/></svg>