<svg xmlns="http://www.w3.org/2000/svg" viewBox="0 0 32 32"><!--! Font Icona - https://fonticona.com | License - https://fonticona.com/license | Copyright 2022 FontIcona.com --><path d="M10.912,22.906c-0.316,0-0.628-0.054-0.932-0.162c-0.71-0.251-1.28-0.762-1.603-1.439l-1.405-2.944C6.649,17.685,6.61,16.92,6.861,16.21c0.251-0.71,0.762-1.28,1.439-1.603c0.728-0.348,1.491-0.388,2.202-0.136c0.71,0.251,1.28,0.762,1.603,1.439l1.406,2.944c0.323,0.677,0.363,1.44,0.111,2.151s-0.763,1.279-1.439,1.603C11.766,22.808,11.336,22.906,10.912,22.906z M9.56,16.309c-0.119,0-0.237,0.026-0.347,0.079c-0.246,0.118-0.394,0.283-0.467,0.489c-0.073,0.207-0.062,0.428,0.031,0.623l1.405,2.944c0.093,0.195,0.258,0.342,0.465,0.416c0.206,0.072,0.427,0.062,0.623-0.031c0.457-0.218,0.63-0.706,0.436-1.112l0,0l-1.406-2.944c-0.093-0.195-0.258-0.342-0.465-0.416C9.746,16.325,9.652,16.309,9.56,16.309z"/><path d="M13.716,20.131c-0.316,0-0.628-0.054-0.932-0.162c-0.71-0.251-1.28-0.762-1.603-1.439l-1.405-2.944c-0.323-0.677-0.363-1.441-0.111-2.151c0.251-0.71,0.762-1.28,1.439-1.603c0.513-0.245,1.043-0.339,1.559-0.282c0.026-0.128,0.062-0.256,0.106-0.382c0.251-0.71,0.762-1.28,1.439-1.603c0.728-0.348,1.491-0.388,2.202-0.136c0.553,0.195,1.02,0.548,1.352,1.014l-0.331-7.586c0-0.787,0.281-1.487,0.79-2.018C18.743,0.298,19.435,0,20.171,0c0.001,0,0.002,0,0.003,0c1.511,0.001,2.739,1.266,2.737,2.818l0.297,11.793c0.014,0.552-0.422,1.011-0.974,1.025c-0.591,0.033-1.011-0.422-1.025-0.974l-0.298-11.82c0-0.468-0.338-0.842-0.74-0.843c0,0,0,0,0,0c-0.188,0-0.367,0.08-0.506,0.225c-0.151,0.157-0.234,0.367-0.234,0.59l0.494,11.287c0.021,0.477-0.299,0.903-0.763,1.015l-0.409,0.099c-0.458,0.111-0.934-0.114-1.138-0.541l-1.406-2.944c-0.093-0.195-0.258-0.342-0.465-0.416c-0.208-0.073-0.428-0.062-0.623,0.031c-0.457,0.218-0.63,0.706-0.436,1.112l1.405,2.944c0.053,0.111,0.085,0.231,0.095,0.354l0.019,0.25c0.037,0.48-0.274,0.918-0.739,1.042c-0.466,0.124-0.953-0.101-1.16-0.536l-1.201-2.516c-0.093-0.195-0.258-0.342-0.465-0.416c-0.208-0.073-0.428-0.062-0.623,0.031c-0.246,0.118-0.394,0.283-0.467,0.489c-0.073,0.207-0.062,0.428,0.031,0.623l1.405,2.944c0.093,0.195,0.258,0.342,0.465,0.416c0.206,0.073,0.427,0.062,0.623-0.031c0.208-0.099,0.309-0.2,0.438-0.411c0.286-0.472,0.9-0.622,1.374-0.333c0.472,0.287,0.621,0.903,0.333,1.374c-0.208,0.341-0.561,0.831-1.232,1.15C14.569,20.033,14.14,20.131,13.716,20.131z"/><path d="M19.097,32H14.15c-0.818,0-1.582-0.324-2.149-0.912c-0.572-0.592-0.871-1.373-0.843-2.199c0.015-0.431-0.013-0.844-0.083-1.228c-0.08-0.435-0.349-0.846-0.66-1.323c-0.235-0.36-0.479-0.733-0.672-1.166c-0.507-1.134-0.741-2.286-0.715-3.522c0.012-0.545,0.457-0.979,1-0.979c0.007,0,0.014,0,0.021,0c0.552,0.012,0.991,0.469,0.979,1.021c-0.02,0.935,0.158,1.806,0.542,2.666c0.128,0.288,0.319,0.579,0.521,0.888c0.375,0.575,0.801,1.226,0.953,2.057c0.096,0.524,0.135,1.082,0.115,1.656c-0.01,0.279,0.09,0.542,0.282,0.741C13.627,29.893,13.879,30,14.15,30h4.947c0.339,0,0.562-0.163,0.688-0.3c0.198-0.213,0.298-0.511,0.274-0.816c-0.031-0.408-0.021-0.764,0.033-1.09c0.223-1.347,0.962-2.403,1.677-3.425c0.542-0.775,1.055-1.507,1.281-2.291c0.484-1.682,0.333-4.89-1.014-6.292c-0.561-0.584-1.25-0.753-2.171-0.526c-1.042,0.254-2.06,0.728-3.137,1.229l-0.44,0.204c-0.293,0.135-0.301,0.423-0.296,0.509c0.008,0.141,0.065,0.325,0.292,0.4c0.762,0.252,1.828,0.276,3.166,0.07c0.802-0.123,1.181,0.271,1.334,0.517c0.452,0.724-0.029,1.414-0.638,2.288c-0.512,0.735-1.286,1.846-1.309,2.655c-0.016,0.553-0.48,1.005-1.028,0.971c-0.552-0.016-0.987-0.476-0.971-1.028c0.034-1.194,0.718-2.349,1.344-3.273c-0.976,0.037-1.82-0.066-2.527-0.301c-0.952-0.315-1.604-1.173-1.66-2.187c-0.058-1.046,0.513-2.002,1.457-2.437l0.434-0.201c1.118-0.52,2.274-1.058,3.507-1.358c2.04-0.498,3.348,0.315,4.087,1.085c2.027,2.111,2.089,6.159,1.493,8.23c-0.318,1.105-0.952,2.01-1.564,2.886c-0.614,0.876-1.194,1.705-1.342,2.602c-0.027,0.162-0.031,0.369-0.012,0.611c0.066,0.859-0.225,1.708-0.8,2.329C20.691,31.666,19.926,32,19.097,32z"/></svg>