<svg xmlns="http://www.w3.org/2000/svg" viewBox="0 0 32 32"><!--! Font Icona - https://fonticona.com | License - https://fonticona.com/license | Copyright 2022 FontIcona.com --><path d="M10.606,22.34c-1.104,0-2.143-0.614-2.641-1.656l-1.492-3.125c-0.695-1.456-0.076-3.207,1.38-3.903c1.511-0.723,3.262-0.102,3.957,1.355l1.492,3.125l0,0c0.695,1.456,0.076,3.207-1.38,3.903C11.493,22.243,11.044,22.34,10.606,22.34z M9.167,15.344c-0.134,0-0.27,0.029-0.398,0.09c-0.516,0.247-0.712,0.801-0.492,1.263l1.492,3.125c0.22,0.46,0.775,0.655,1.237,0.438c0.515-0.247,0.712-0.801,0.492-1.263l-1.492-3.125C9.847,15.539,9.514,15.344,9.167,15.344z"/><path d="M13.567,19.4c-0.327,0-0.648-0.056-0.96-0.167c-0.738-0.261-1.33-0.792-1.667-1.496l-1.492-3.126c-0.695-1.457-0.076-3.207,1.381-3.902c1.509-0.722,3.261-0.102,3.957,1.354l0.067,0.14l1.032-2.349l-2.591-5.829C12.99,3.288,12.981,2.502,13.26,1.79c0.284-0.727,0.831-1.289,1.54-1.581c0.708-0.292,1.491-0.281,2.207,0.035c0.7,0.308,1.247,0.871,1.542,1.584l0.44,0.962c0.645-1.398,2.275-2.073,3.691-1.489c1.451,0.599,2.131,2.3,1.515,3.792l-2.09,4.501l1.801,3.933c0.23,0.502,0.009,1.096-0.493,1.326c-0.504,0.232-1.096,0.009-1.326-0.493l-3.975-8.682c-0.007-0.014-0.013-0.027-0.019-0.041l-1.378-3.011c-0.112-0.269-0.29-0.453-0.515-0.553c-0.21-0.093-0.437-0.098-0.636-0.016c-0.2,0.083-0.356,0.246-0.44,0.46c-0.09,0.229-0.086,0.485,0.011,0.72l4.307,9.689c0.224,0.503-0.001,1.092-0.503,1.318c-0.503,0.227-1.092,0.004-1.32-0.497l-0.641-1.404l-0.798,1.817l-0.019,1.021c-0.009,0.464-0.335,0.861-0.789,0.959c-0.453,0.096-0.914-0.128-1.114-0.547l-1.274-2.67c-0.221-0.461-0.777-0.657-1.237-0.438c-0.276,0.132-0.443,0.319-0.527,0.554c-0.083,0.235-0.07,0.486,0.035,0.708l1.492,3.125c0.106,0.221,0.293,0.389,0.529,0.472c0.235,0.083,0.487,0.07,0.708-0.035c0.173-0.089,0.25-0.137,0.285-0.162c0.279-0.429,0.845-0.582,1.307-0.337c0.488,0.259,0.673,0.865,0.414,1.353c-0.242,0.455-0.673,0.708-1.058,0.909C14.474,19.294,14.015,19.4,13.567,19.4z M14.222,17.228C14.222,17.228,14.222,17.229,14.222,17.228C14.222,17.229,14.222,17.228,14.222,17.228z M20.106,5.232l0.903,1.973l1.354-2.914c0.174-0.425-0.022-0.965-0.447-1.141c-0.424-0.174-0.944,0.07-1.136,0.534L20.106,5.232z"/><path d="M19.457,32h-5.547c-0.819,0-1.612-0.34-2.176-0.933c-0.567-0.596-0.856-1.375-0.815-2.193c0.025-0.503-0.004-0.984-0.085-1.428c-0.087-0.474-0.375-0.916-0.71-1.428c-0.249-0.38-0.505-0.774-0.708-1.229c-0.534-1.195-0.78-2.409-0.754-3.712c0.011-0.552,0.436-0.97,1.021-0.979c0.552,0.011,0.991,0.468,0.979,1.021c-0.021,1.001,0.169,1.936,0.58,2.855c0.138,0.31,0.342,0.621,0.557,0.951c0.395,0.605,0.843,1.291,1.002,2.161c0.109,0.595,0.147,1.23,0.115,1.888c-0.013,0.266,0.082,0.52,0.267,0.715C13.373,29.889,13.631,30,13.909,30h5.547c0.405,0,0.653-0.224,0.764-0.357c0.112-0.133,0.289-0.417,0.216-0.817c-0.082-0.455-0.093-0.854-0.032-1.22c0.234-1.415,1.015-2.53,1.77-3.608c0.579-0.827,1.126-1.608,1.368-2.45c0.518-1.8,0.353-5.234-1.092-6.738c-0.604-0.629-1.377-0.817-2.363-0.576c-1.109,0.27-2.19,0.773-3.335,1.305c-0.334,0.155-0.668,0.311-1.003,0.459c-0.211,0.095-0.303,0.293-0.318,0.447c-0.011,0.113,0.008,0.27,0.162,0.379c0.661,0.468,1.95,0.531,3.636,0.179c0.3-0.062,1.215-0.254,1.721,0.458c0.533,0.751,0.038,1.57-0.536,2.519c-0.449,0.743-1.064,1.761-1.086,2.529c-0.015,0.552-0.475,0.998-1.028,0.971c-0.552-0.016-0.987-0.476-0.971-1.028c0.034-1.207,0.707-2.398,1.255-3.311c-1.788,0.229-3.178,0.001-4.147-0.686c-0.71-0.503-1.083-1.328-0.997-2.207c0.09-0.91,0.662-1.706,1.494-2.077c0.326-0.145,0.65-0.296,0.975-0.447c1.182-0.549,2.404-1.117,3.704-1.434c2.138-0.521,3.507,0.329,4.28,1.134c2.135,2.224,2.199,6.492,1.571,8.676c-0.334,1.163-1.004,2.12-1.652,3.044c-0.656,0.937-1.275,1.821-1.435,2.788c-0.022,0.135-0.013,0.316,0.027,0.539c0.158,0.878-0.079,1.772-0.65,2.456C21.185,31.608,20.347,32,19.457,32z"/></svg>