<svg xmlns="http://www.w3.org/2000/svg" viewBox="0 0 32 32"><!--! Font Icona - https://fonticona.com | License - https://fonticona.com/license | Copyright 2022 FontIcona.com --><path d="M12.052,16.302c-0.552,0-1-0.447-1-1V7.388c0-0.553,0.448-1,1-1s1,0.447,1,1v7.914C13.052,15.854,12.604,16.302,12.052,16.302z"/><path d="M14.903,32h-1.853c-5.274,0-9.564-4.291-9.564-9.564V9.363c0-1.496,1.217-2.713,2.713-2.713h0.357c1.496,0,2.713,1.217,2.713,2.713v7.687c0,0.553-0.448,1-1,1s-1-0.447-1-1V9.363c0-0.394-0.32-0.713-0.713-0.713H6.199c-0.393,0-0.713,0.319-0.713,0.713v13.072C5.486,26.606,8.88,30,13.051,30h1.853c2.607,0,4.996-1.314,6.391-3.518l5.108-8.066c0.197-0.311,0.122-0.728-0.172-0.949c-0.374-0.283-0.834-0.397-1.296-0.322c-0.462,0.074-0.863,0.328-1.128,0.714l-1.804,2.622c-0.464,0.674-1.302,0.964-2.081,0.721c-0.781-0.243-1.305-0.955-1.305-1.772V6.913c0-0.394-0.32-0.713-0.713-0.713h-0.357c-0.393,0-0.713,0.319-0.713,0.713v2.111c0,0.553-0.448,1-1,1s-1-0.447-1-1V6.913c0-1.496,1.217-2.713,2.713-2.713h0.357c1.496,0,2.713,1.217,2.713,2.713v12.054l1.542-2.241c0.578-0.841,1.45-1.393,2.457-1.556c1.005-0.161,2.008,0.086,2.821,0.701c1.118,0.845,1.405,2.434,0.655,3.616l-5.108,8.065C21.22,30.338,18.2,32,14.903,32z"/><path d="M8.269,12.237c-0.552,0-1-0.447-1-1V5.134c0-1.496,1.217-2.713,2.713-2.713h0.357c1.496,0,2.713,1.217,2.713,2.713V8.32c0,0.553-0.448,1-1,1s-1-0.447-1-1V5.134c0-0.394-0.32-0.713-0.713-0.713H9.982c-0.393,0-0.713,0.319-0.713,0.713v6.104C9.269,11.79,8.821,12.237,8.269,12.237z"/><path d="M15.834,17.293c-0.552,0-1-0.447-1-1V2.713c0-0.394-0.32-0.713-0.713-0.713h-0.357c-0.393,0-0.713,0.319-0.713,0.713V9.4c0,0.553-0.448,1-1,1s-1-0.447-1-1V2.713C11.052,1.217,12.269,0,13.765,0h0.357c1.496,0,2.713,1.217,2.713,2.713v13.58C16.834,16.846,16.387,17.293,15.834,17.293z"/></svg>