<svg xmlns="http://www.w3.org/2000/svg" viewBox="0 0 32 32"><!--! Font Icona - https://fonticona.com | License - https://fonticona.com/license | Copyright 2022 FontIcona.com --><path d="M8.987,16.95c-0.553,0-1-0.448-1-1V3.052C7.987,1.369,9.356,0,11.039,0s3.052,1.369,3.052,3.052v12.034c0,0.552-0.447,1-1,1s-1-0.448-1-1V3.052c0-0.58-0.472-1.052-1.052-1.052S9.987,2.472,9.987,3.052V15.95C9.987,16.502,9.54,16.95,8.987,16.95z"/><path d="M13.091,16.04c-0.553,0-1-0.448-1-1v-3.024c0-1.683,1.369-3.052,3.053-3.052c1.683,0,3.052,1.369,3.052,3.052v1.173c0,0.552-0.447,1-1,1s-1-0.448-1-1v-1.173c0-0.58-0.472-1.052-1.052-1.052s-1.053,0.472-1.053,1.052v3.024C14.091,15.592,13.644,16.04,13.091,16.04z"/><path d="M21.299,15.252c-0.553,0-1-0.448-1-1v-1.043c0-0.58-0.472-1.052-1.052-1.052s-1.052,0.472-1.052,1.052c0,0.552-0.447,1.031-1,1.031s-1-0.417-1-0.969c0-1.745,1.369-3.114,3.052-3.114s3.052,1.369,3.052,3.052v1.043C22.299,14.805,21.852,15.252,21.299,15.252z"/><path d="M25.403,21.229c-0.553,0-1-0.448-1-1V7.331c0-0.58-0.472-1.052-1.052-1.052s-1.053,0.472-1.053,1.052v6.921c0,0.552-0.447,1-1,1s-1-0.448-1-1V7.331c0-1.683,1.369-3.052,3.053-3.052c1.683,0,3.052,1.369,3.052,3.052v12.898C26.403,20.782,25.956,21.229,25.403,21.229z"/><path d="M14.243,32c-0.07,0-0.143-0.007-0.214-0.023c-1.561-0.34-2.794-1.417-3.219-2.81c-0.159-0.522-0.107-1.02-0.062-1.458c0.03-0.302,0.061-0.587,0.003-0.767c-0.171-0.534-0.987-1.24-1.584-1.756c-0.25-0.216-0.485-0.42-0.68-0.609c-0.186-0.179-0.375-0.348-0.562-0.515c-0.824-0.738-1.758-1.574-2.056-2.964c-0.742-3.474,0.043-6.506,2.271-8.77c0.388-0.394,1.02-0.399,1.414-0.011c0.394,0.387,0.398,1.021,0.012,1.414c-1.759,1.786-2.345,4.124-1.741,6.948c0.162,0.753,0.724,1.256,1.435,1.893c0.205,0.183,0.413,0.37,0.616,0.566c0.172,0.166,0.38,0.345,0.6,0.536c0.819,0.708,1.838,1.589,2.18,2.659c0.185,0.578,0.128,1.134,0.082,1.581c-0.027,0.263-0.055,0.534-0.013,0.671c0.21,0.691,0.89,1.255,1.73,1.439c0.54,0.118,0.882,0.65,0.764,1.19C15.117,31.681,14.703,32,14.243,32z"/><path d="M20.312,32c-0.553,0-1-0.448-1-1s0.447-1,1-1c1.74,0,2.634-0.666,2.653-1.98l-0.102-2.918c-0.005-0.123,0.014-0.245,0.054-0.361c0.174-0.505,0.391-1,0.608-1.497c0.446-1.016,0.868-1.976,0.878-3.024c0.005-0.552,0.438-1.006,1.009-0.991c0.553,0.005,0.996,0.457,0.991,1.009c-0.014,1.459-0.562,2.708-1.047,3.811c-0.172,0.391-0.343,0.779-0.488,1.174L24.964,28C24.936,29.96,23.698,32,20.312,32z"/><path d="M20.312,32h-6.069c-0.553,0-1-0.448-1-1s0.447-1,1-1h6.069c0.553,0,1,0.448,1,1S20.864,32,20.312,32z"/></svg>