<svg xmlns="http://www.w3.org/2000/svg" viewBox="0 0 32 32"><!--! Font Icona - https://fonticona.com | License - https://fonticona.com/license | Copyright 2022 FontIcona.com --><path d="M5.69,31.998H2.999C1.345,31.998,0,30.653,0,28.999V21.52c0-1.654,1.345-2.999,2.999-2.999H5.69c1.654,0,2.999,1.345,2.999,2.999v7.479C8.689,30.653,7.344,31.998,5.69,31.998z M2.999,20.521c-0.551,0-1,0.448-1,1v7.479c0,0.552,0.449,1,1,1H5.69c0.551,0,1-0.448,1-1V21.52c0-0.552-0.449-1-1-1H2.999z"/><path d="M20.804,29.742c-0.047,0-0.076-0.001-0.085-0.001L7.689,29.742c-0.552,0-1-0.447-1-1c0-0.553,0.448-1,1-1h13.077c0.089-0.004,1.341,0.024,2.239-1.077c0.022-0.026,0.045-0.053,0.07-0.077l6.71-6.675c0.143-0.178,0.405-0.644-0.034-1.126c-0.291-0.318-0.619-0.353-0.991-0.113l-5.393,5.372c-0.26,0.325-1.141,1.231-2.882,1.231h-4.901c-0.552,0-1-0.447-1-1c0-0.553,0.448-1,1-1h4.439c0.621-0.139,0.727-0.427,0.763-0.524c0.103-0.28,0.032-0.616-0.045-0.792l-5.426-1.321c-1.636-0.397-3.364-0.192-4.861,0.579l-2.277,1.276c-0.481,0.27-1.09,0.101-1.361-0.384c-0.27-0.481-0.098-1.09,0.384-1.36l2.307-1.293c1.954-1.01,4.173-1.273,6.281-0.761l5.656,1.377c0.706,0.18,1.169,0.932,1.33,1.74l4.639-4.622c0.039-0.039,0.08-0.073,0.124-0.105c1.552-1.109,3.073-0.381,3.717,0.382c1.341,1.47,0.58,3.14-0.015,3.813l-6.719,6.687C23.128,29.644,21.233,29.742,20.804,29.742z"/><ellipse cx="4.344" cy="27.85" rx="1.166" ry="1.233"/><path d="M21.956,14.286l-0.416-0.19c-1.091-0.499-2.144-1.095-3.129-1.771c-2.132-1.502-4.374-3.403-4.912-6.163c-0.511-2.327,0.71-4.742,2.908-5.719c1.911-0.853,4.101-0.413,5.546,1.016c1.444-1.437,3.667-1.88,5.608-1.016c2.178,1.006,3.37,3.42,2.845,5.748c-0.509,2.746-2.764,4.642-4.901,6.131c-0.992,0.681-2.044,1.277-3.134,1.775L21.956,14.286z M18.434,2.01c-0.408,0-0.821,0.084-1.213,0.259c-1.335,0.594-2.076,2.06-1.764,3.487c0.407,2.083,2.209,3.598,4.097,4.928c0.756,0.518,1.564,0.989,2.403,1.398c0.838-0.408,1.647-0.88,2.412-1.405c1.799-1.253,3.695-2.817,4.08-4.889c0.327-1.451-0.397-2.917-1.712-3.524c-1.327-0.59-2.954-0.121-3.768,1.099l-1.009,1.423l-1.014-1.423C20.365,2.494,19.414,2.01,18.434,2.01z"/></svg>