<svg xmlns="http://www.w3.org/2000/svg" viewBox="0 0 32 32"><!--! Font Icona - https://fonticona.com | License - https://fonticona.com/license | Copyright 2022 FontIcona.com --><path class="st0" d="M23.414,16.986c-0.553,0-1-0.448-1-1V1.005c0-0.552,0.447-1,1-1s1,0.448,1,1v14.981C24.414,16.538,23.967,16.986,23.414,16.986z"/><path class="st0" d="M23.413,15.16c-0.802,0-1.605-0.126-2.369-0.379c-1.433-0.475-2.397-1.809-2.397-3.319v-0.464c0-0.552,0.447-1,1-1s1,0.448,1,1v0.464c0,0.647,0.412,1.218,1.026,1.421c1.123,0.371,2.36,0.371,3.482,0c0.614-0.204,1.027-0.775,1.027-1.421c0-0.72-0.487-1.348-1.184-1.527l-3.665-0.941c-1.581-0.407-2.686-1.831-2.686-3.464c0-1.51,0.963-2.843,2.396-3.319c1.531-0.505,3.212-0.506,4.741,0c1.434,0.474,2.398,1.808,2.398,3.318v0.468c0,0.552-0.447,1-1,1s-1-0.448-1-1V5.529c0-0.646-0.413-1.217-1.027-1.42c-1.123-0.371-2.36-0.372-3.482,0c-0.613,0.204-1.026,0.775-1.026,1.421c0,0.72,0.487,1.348,1.184,1.527l3.664,0.94c1.581,0.406,2.687,1.83,2.687,3.464c0,1.51-0.964,2.844-2.398,3.319C25.019,15.034,24.216,15.16,23.413,15.16z"/><path d="M5.69,31.995H2.999C1.345,31.995,0,30.649,0,28.996v-7.479c0-1.654,1.345-2.999,2.999-2.999H5.69c1.654,0,2.999,1.345,2.999,2.999v7.479C8.689,30.649,7.344,31.995,5.69,31.995z M2.999,20.517c-0.551,0-1,0.448-1,1v7.479c0,0.552,0.449,1,1,1H5.69c0.551,0,1-0.448,1-1v-7.479c0-0.552-0.449-1-1-1H2.999z"/><path d="M20.804,29.739c-0.047,0-0.076-0.001-0.085-0.001L7.689,29.739c-0.552,0-1-0.447-1-1s0.448-1,1-1h13.077c0.089-0.004,1.341,0.024,2.239-1.077c0.022-0.026,0.045-0.053,0.07-0.077l6.71-6.675c0.143-0.178,0.405-0.644-0.034-1.126c-0.291-0.318-0.619-0.353-0.991-0.113l-5.393,5.372c-0.26,0.325-1.141,1.231-2.882,1.231h-4.901c-0.552,0-1-0.447-1-1c0-0.553,0.448-1,1-1h4.439c0.621-0.139,0.727-0.427,0.763-0.524c0.103-0.28,0.032-0.616-0.045-0.792l-5.426-1.321c-1.636-0.397-3.364-0.192-4.861,0.579l-2.277,1.276c-0.481,0.27-1.09,0.101-1.361-0.384c-0.27-0.481-0.098-1.09,0.384-1.36l2.307-1.293c1.954-1.01,4.173-1.273,6.281-0.761l5.656,1.377c0.706,0.18,1.169,0.932,1.33,1.74l4.639-4.622c0.039-0.039,0.08-0.073,0.124-0.105c1.552-1.109,3.073-0.381,3.717,0.382c1.341,1.47,0.58,3.14-0.015,3.813l-6.719,6.687C23.128,29.64,21.233,29.739,20.804,29.739z"/><ellipse cx="4.344" cy="27.846" rx="1.166" ry="1.233"/></svg>