<svg xmlns="http://www.w3.org/2000/svg" viewBox="0 0 32 32"><!--! Font Icona - https://fonticona.com | License - https://fonticona.com/license | Copyright 2022 FontIcona.com --><path d="M21.454,17.197c-0.552,0-1-0.448-1-1s0.448-1,1-1c0.883,0,1.629-0.557,1.629-1.217s-0.746-1.217-1.629-1.217c-0.552,0-1-0.448-1-1s0.448-1,1-1c2.001,0,3.629,1.443,3.629,3.217S23.455,17.197,21.454,17.197z"/><path d="M21.053,21.632c-0.552,0-1-0.447-1-1s0.448-1,1-1c0.883,0,1.629-0.558,1.629-1.218c0-0.659-0.746-1.217-1.629-1.217c-0.552,0-1-0.448-1-1s0.448-1,1-1c2.001,0,3.629,1.443,3.629,3.217C24.682,20.188,23.054,21.632,21.053,21.632z"/><path d="M20.7,26.065c-0.552,0-1-0.447-1-1s0.448-1,1-1c0.883,0,1.629-0.558,1.629-1.217s-0.746-1.217-1.629-1.217c-0.552,0-1-0.447-1-1s0.448-1,1-1c2.001,0,3.629,1.443,3.629,3.217S22.701,26.065,20.7,26.065z"/><path d="M19.812,30.5c-0.552,0-1-0.447-1-1s0.448-1,1-1c0.883,0,1.629-0.558,1.629-1.217c0-0.66-0.746-1.218-1.629-1.218c-0.552,0-1-0.447-1-1s0.448-1,1-1c2.001,0,3.629,1.443,3.629,3.218C23.441,29.057,21.813,30.5,19.812,30.5z"/><path d="M20.7,26.065h-4.15c-0.552,0-1-0.447-1-1s0.448-1,1-1h4.15c0.552,0,1,0.447,1,1S21.252,26.065,20.7,26.065z"/><path d="M21.053,21.632h-5.391c-0.552,0-1-0.447-1-1s0.448-1,1-1h5.391c0.552,0,1,0.447,1,1S21.605,21.632,21.053,21.632z"/><path d="M20.7,17.197h-5.925c-0.552,0-1-0.448-1-1s0.448-1,1-1H20.7c0.552,0,1,0.448,1,1S21.252,17.197,20.7,17.197z"/><path d="M19.812,30.5h-4.755c-2.735,0-5.668-1.702-6.715-3.887c-0.257-0.42-1.424-2.517-1.424-5.981c0-3.456,1.129-5.538,1.381-5.958c1.022-2.198,3.939-3.91,6.68-3.91h6.476c0.552,0,1,0.448,1,1s-0.448,1-1,1h-6.476c-1.971,0-4.207,1.277-4.882,2.789c-0.022,0.048-0.047,0.095-0.076,0.139c-0.007,0.012-1.103,1.772-1.103,4.94c0,3.162,1.127,4.933,1.138,4.95c0.026,0.041,0.053,0.089,0.073,0.132c0.696,1.511,2.953,2.786,4.928,2.786h4.755c0.552,0,1,0.447,1,1S20.364,30.5,19.812,30.5z"/><path d="M11.502,13.704l-1.93-0.527c0.384-1.405,0.532-3.192,0.663-4.769c0.103-1.234,0.199-2.399,0.395-3.334C10.991,3.352,12.26,1.5,14.192,1.5c2.173,0,3.492,2.24,3.673,4.452c0.088,1.077-0.244,2.144-0.565,3.175c-0.289,0.927-0.562,1.803-0.479,2.522l-1.987,0.229c-0.131-1.139,0.218-2.26,0.556-3.345c0.277-0.889,0.538-1.728,0.481-2.418C15.783,5.029,15.203,3.5,14.192,3.5c-0.734,0-1.404,1.03-1.604,1.983c-0.17,0.813-0.262,1.918-0.359,3.089C12.091,10.235,11.935,12.12,11.502,13.704z"/></svg>