<svg xmlns="http://www.w3.org/2000/svg" viewBox="0 0 32 32"><!--! Font Icona - https://fonticona.com | License - https://fonticona.com/license | Copyright 2022 FontIcona.com --><path d="M28.72,27.683H3.28c-1.809,0-3.28-1.472-3.28-3.28c0-1.352,0.812-2.548,2.069-3.048l13.46-6.624c0.278-0.137,0.603-0.136,0.881-0.001l13.591,6.654C31.188,21.857,32,23.053,32,24.403C32,26.211,30.528,27.683,28.72,27.683z M15.97,25.683h12.75c0.706,0,1.28-0.574,1.28-1.28c0-0.527-0.317-0.994-0.808-1.188l-13.221-6.472L2.88,23.18C2.318,23.408,2,23.875,2,24.403c0,0.706,0.574,1.28,1.28,1.28H15.97z"/><path d="M15.97,16.479c-0.552,0-1-0.447-1-1v-3.123c0-0.553,0.448-1,1-1c1.389,0,2.52-1.13,2.52-2.52s-1.13-2.52-2.52-2.52s-2.52,1.13-2.52,2.52c0,0.553-0.448,1-1,1s-1-0.447-1-1c0-2.492,2.027-4.52,4.52-4.52s4.52,2.027,4.52,4.52c0,2.148-1.507,3.952-3.52,4.408v2.234C16.97,16.032,16.522,16.479,15.97,16.479z"/><path d="M30.276,24.739H1.098c-0.552,0-1-0.447-1-1s0.448-1,1-1h29.178c0.552,0,1,0.447,1,1S30.828,24.739,30.276,24.739z"/></svg>