<svg xmlns="http://www.w3.org/2000/svg" viewBox="0 0 32 32"><!--! Font Icona - https://fonticona.com | License - https://fonticona.com/license | Copyright 2022 FontIcona.com --><path d="M21.508,32H10.651c-0.552,0-1-0.448-1-1c0-2.26,2.764-3.964,6.428-3.964S22.508,28.74,22.508,31C22.508,31.552,22.06,32,21.508,32z M12.377,30h7.404c-0.749-0.524-2.041-0.964-3.702-0.964S13.126,29.476,12.377,30z"/><path d="M16.08,29.036c-0.552,0-1-0.448-1-1V8.821c0-0.552,0.448-1,1-1s1,0.448,1,1v19.215C17.08,28.588,16.632,29.036,16.08,29.036z"/><path d="M16,18.661c-3.673,0-6.661-2.45-6.661-5.462V8.891c0-0.552,0.448-1,1-1s1,0.448,1,1v4.308c0,1.909,2.091,3.462,4.661,3.462s4.661-1.553,4.661-3.462V8.891c0-0.552,0.448-1,1-1s1,0.448,1,1v4.308C22.661,16.21,19.673,18.661,16,18.661z"/><path d="M16,24.195c-6.602,0-11.973-4.33-11.973-9.652V8.891c0-0.552,0.448-1,1-1s1,0.448,1,1v5.653c0,4.219,4.474,7.652,9.973,7.652s9.973-3.433,9.973-7.652V8.891c0-0.552,0.448-1,1-1s1,0.448,1,1v5.653C27.973,19.866,22.602,24.195,16,24.195z"/><path d="M16.893,4.579c0,0.739-0.4,1.337-0.893,1.337s-0.893-0.599-0.893-1.337S15.507,0.25,16,0.25S16.893,3.841,16.893,4.579z"/><path d="M16,6.167c-0.641,0-1.143-0.697-1.143-1.587C14.857,4.533,15.086,0,16,0s1.143,4.533,1.143,4.579C17.143,5.469,16.641,6.167,16,6.167z M16,0.588c-0.297,0.604-0.643,3.135-0.643,3.991c0,0.589,0.294,1.087,0.643,1.087s0.643-0.498,0.643-1.087C16.643,3.723,16.297,1.192,16,0.588z"/><path d="M5.594,5.116c0,0.452-0.254,0.818-0.567,0.818c-0.313,0-0.567-0.366-0.567-0.818s0.254-2.647,0.567-2.647C5.34,2.469,5.594,4.665,5.594,5.116z"/><path d="M5.027,6.184c-0.458,0-0.816-0.469-0.816-1.068c0-0.029,0.112-2.897,0.816-2.897c0.705,0,0.817,2.868,0.817,2.897C5.844,5.715,5.485,6.184,5.027,6.184z M5.027,2.945C4.869,3.5,4.711,4.695,4.711,5.116c0,0.325,0.167,0.568,0.316,0.568s0.317-0.243,0.317-0.568C5.344,4.695,5.186,3.5,5.027,2.945z"/><path d="M10.905,5.116c0,0.452-0.254,0.818-0.567,0.818S9.772,5.568,9.772,5.116s0.254-2.647,0.567-2.647S10.905,4.665,10.905,5.116z"/><path d="M10.339,6.184c-0.458,0-0.817-0.469-0.817-1.068c0-0.029,0.112-2.897,0.817-2.897c0.704,0,0.816,2.868,0.816,2.897C11.155,5.715,10.797,6.184,10.339,6.184z M10.339,2.945c-0.159,0.554-0.317,1.75-0.317,2.171c0,0.325,0.167,0.568,0.317,0.568s0.316-0.243,0.316-0.568C10.655,4.695,10.497,3.5,10.339,2.945z"/><path d="M22.074,5.116c0,0.452-0.254,0.818-0.567,0.818c-0.313,0-0.567-0.366-0.567-0.818s0.254-2.647,0.567-2.647C21.82,2.469,22.074,4.665,22.074,5.116z"/><path d="M21.508,6.184c-0.458,0-0.817-0.469-0.817-1.068c0-0.029,0.112-2.897,0.817-2.897c0.704,0,0.816,2.868,0.816,2.897C22.324,5.715,21.966,6.184,21.508,6.184z M21.508,2.945c-0.159,0.554-0.317,1.75-0.317,2.171c0,0.325,0.167,0.568,0.317,0.568s0.316-0.243,0.316-0.568C21.824,4.695,21.666,3.5,21.508,2.945z"/><path d="M27.539,5.116c0,0.452-0.254,0.818-0.567,0.818c-0.313,0-0.567-0.366-0.567-0.818s0.254-2.647,0.567-2.647C27.285,2.469,27.539,4.665,27.539,5.116z"/><path d="M26.973,6.184c-0.458,0-0.817-0.469-0.817-1.068c0-0.029,0.112-2.897,0.817-2.897c0.704,0,0.816,2.868,0.816,2.897C27.789,5.715,27.431,6.184,26.973,6.184z M26.973,2.945c-0.159,0.554-0.317,1.75-0.317,2.171c0,0.325,0.167,0.568,0.317,0.568s0.316-0.243,0.316-0.568C27.289,4.695,27.131,3.5,26.973,2.945z"/></svg>