<svg xmlns="http://www.w3.org/2000/svg" viewBox="0 0 32 32"><!--! Font Icona - https://fonticona.com | License - https://fonticona.com/license | Copyright 2022 FontIcona.com --><path d="M29,30.331H3c-1.654,0-3-1.346-3-3v-6.79c0-1.654,1.346-3,3-3h26c1.654,0,3,1.346,3,3v6.79C32,28.985,30.654,30.331,29,30.331z M3,19.541c-0.552,0-1,0.448-1,1v6.79c0,0.552,0.448,1,1,1h26c0.552,0,1-0.448,1-1v-6.79c0-0.552-0.448-1-1-1H3z"/><circle cx="25.5" cy="23.936" r="1.25"/><path d="M1.05,21.101c-0.099,0-0.199-0.015-0.299-0.046c-0.527-0.165-0.82-0.726-0.655-1.253l5.07-16.194c0.352-1.14,1.542-1.939,2.894-1.939h15.887c1.354,0,2.544,0.8,2.896,1.945l5.062,16.188c0.165,0.527-0.129,1.089-0.655,1.253c-0.531,0.166-1.089-0.129-1.253-0.655L24.932,4.206c-0.082-0.266-0.472-0.537-0.985-0.537H8.06c-0.532,0-0.904,0.274-0.984,0.533L2.004,20.399C1.87,20.827,1.476,21.101,1.05,21.101z"/></svg>