<svg xmlns="http://www.w3.org/2000/svg" viewBox="0 0 32 32"><!--! Font Icona - https://fonticona.com | License - https://fonticona.com/license | Copyright 2022 FontIcona.com --><path d="M10.339,5.881c-1.622,0-2.941-1.319-2.941-2.941S8.717,0,10.339,0s2.94,1.319,2.94,2.94S11.96,5.881,10.339,5.881z M10.339,2C9.82,2,9.398,2.422,9.398,2.94c0,0.519,0.422,0.941,0.941,0.941c0.519,0,0.94-0.422,0.94-0.941C11.279,2.422,10.857,2,10.339,2z"/><path d="M14.008,29.171c-0.254,0-0.509-0.097-0.704-0.29c-0.392-0.389-0.395-1.021-0.006-1.414c6.754-6.814,11.646-13.406,11.382-15.333c-0.014-0.097-0.031-0.106-0.056-0.121c-0.153-0.09-0.644,0.192-1.453,0.831c-0.2,0.158-0.384,0.301-0.543,0.41c-2.136,1.455-4.738,1.074-6.329-0.925c-0.43-0.541-0.786-1.072-1.101-1.541c-1.202-1.792-1.807-2.691-4.734-2.327C9.917,8.528,9.415,8.14,9.347,7.592c-0.068-0.548,0.321-1.048,0.869-1.116c4.155-0.517,5.361,1.288,6.642,3.197c0.308,0.459,0.627,0.934,1.006,1.411c0.938,1.179,2.365,1.383,3.637,0.517c0.127-0.086,0.271-0.202,0.43-0.328c0.852-0.672,2.279-1.794,3.68-1c0.59,0.335,0.953,0.884,1.05,1.588c0.556,4.044-9,14.045-11.942,17.014C14.522,29.072,14.265,29.171,14.008,29.171z"/><rect x="13.241" y="7.748" width="2" height="19.779"/><rect x="17.144" y="12.5" width="2" height="11.519"/><rect x="21.046" y="12.539" width="2" height="6.395"/><path d="M17.172,29.171H8.199c-0.552,0-1-0.447-1-1s0.448-1,1-1h8.973c0.552,0,1,0.447,1,1S17.724,29.171,17.172,29.171z"/><path d="M19.057,32H6.314c-0.552,0-1-0.447-1-1s0.448-1,1-1h12.743c0.552,0,1,0.447,1,1S19.609,32,19.057,32z"/><path d="M10.339,29.171c-0.552,0-1-0.447-1-1V7.468c0-0.552,0.448-1,1-1s1,0.448,1,1v20.703C11.339,28.724,10.891,29.171,10.339,29.171z"/><rect x="9.339" y="4.854" width="2" height="5.636"/></svg>