<svg xmlns="http://www.w3.org/2000/svg" viewBox="0 0 32 32"><!--! Font Icona - https://fonticona.com | License - https://fonticona.com/license | Copyright 2022 FontIcona.com --><path d="M14.583,26.876c-0.692,0-1.295-0.015-1.874-0.044c-1.867-0.097-4.644-0.239-6.074-2.042c-0.232-0.293-0.756-1.067-0.612-1.936C8.406,8.452,12.21,2.572,12.371,2.328c0.652-1.24,1.561-2.028,2.651-2.261c1.479-0.313,2.632,0.551,2.759,0.649l8.828,7.358c0.914,0.825,1.219,1.618,0.938,2.385c-0.493,1.344-2.614,1.556-3.503,1.584c-0.219,0.008-0.436,0.014-0.649,0.008l2.157,10.771c0.196,0.838-0.366,1.744-0.793,2.141c-0.978,0.91-2.448,1.208-3.628,1.447l-0.362,0.074c-1.528,0.322-3.04,0.347-4.5,0.371l-0.516,0.009C15.332,26.872,14.945,26.876,14.583,26.876z M15.669,2c-0.08,0-0.162,0.008-0.245,0.027c-0.597,0.135-1.056,0.792-1.335,1.32c-0.085,0.139-3.791,5.92-6.093,19.834c0.005,0.022,0.069,0.193,0.206,0.366c0.868,1.094,3.102,1.209,4.58,1.285c0.863,0.045,1.76,0.056,2.932,0.031l0.52-0.009c1.43-0.023,2.781-0.046,4.122-0.328l0.377-0.077c0.935-0.189,2.098-0.426,2.664-0.952c0.076-0.07,0.182-0.258,0.192-0.341l-2.266-11.271c-2.918-0.434-4.849-1.573-4.952-1.635c-0.474-0.284-0.627-0.898-0.343-1.372c0.283-0.473,0.896-0.626,1.37-0.344l0,0c0.028,0.016,2.805,1.613,6.582,1.511c0.544-0.02,1.169-0.133,1.52-0.262c-0.05-0.056-0.115-0.122-0.2-0.198l-8.773-7.313c0,0,0,0,0,0C16.522,2.272,16.135,2,15.669,2z"/><path d="M16,32c-7.951,0-16-2.045-16-5.954c0-2.134,2.465-3.902,6.942-4.979l0.468,1.945C3.693,23.905,2,25.211,2,26.046C2,27.658,7.454,30,16,30s14-2.342,14-3.954c0-0.886-1.834-2.246-5.862-3.139l0.433-1.953c4.791,1.062,7.43,2.871,7.43,5.092C32,29.955,23.951,32,16,32z"/><path d="M15.517,20.325c-4.724,0-7.776-1.421-7.965-1.511c-0.498-0.238-0.709-0.836-0.471-1.334c0.239-0.497,0.835-0.706,1.332-0.472c0.097,0.046,6.406,2.927,14.803-0.039c0.521-0.184,1.092,0.088,1.276,0.609c0.184,0.521-0.089,1.092-0.61,1.276C20.765,19.956,17.923,20.325,15.517,20.325z"/><path d="M12.921,26.64c-0.552,0-1-0.447-1-1v-6.322c0-0.553,0.448-1,1-1s1,0.447,1,1v6.322C13.921,26.192,13.473,26.64,12.921,26.64z"/><path d="M18.254,26.64c-0.552,0-1-0.447-1-1v-6.322c0-0.553,0.448-1,1-1s1,0.447,1,1v6.322C19.254,26.192,18.807,26.64,18.254,26.64z"/></svg>