<svg xmlns="http://www.w3.org/2000/svg" viewBox="0 0 32 32"><!--! Font Icona - https://fonticona.com | License - https://fonticona.com/license | Copyright 2022 FontIcona.com --><path d="M16.167,25.681c-2.404,0-4.762-0.39-7.032-1.158c-2.714-0.858-5.575-1.918-7.859-4.478c-0.201-0.235-0.387-0.456-0.562-0.697L0.641,19.23c-0.811-1.525-0.852-2.739-0.124-3.607c1.718-2.047,7.176-0.473,8.809,0.059l-0.619,1.901c-2.969-0.965-6.146-1.286-6.658-0.674c-0.078,0.093-0.107,0.487,0.325,1.32c0.132,0.177,0.271,0.34,0.41,0.502c1.932,2.167,4.505,3.112,6.974,3.893c2.249,0.762,4.577,1.116,6.925,1.052c0.936-0.042,1.892-0.159,2.824-0.349c2.615-0.499,6.37-1.428,8.926-3.756c0.48-0.405,0.872-0.851,1.191-1.349c0.398-0.748,0.421-1.206,0.329-1.316c-0.509-0.608-3.674-0.286-6.641,0.678l-0.619-1.901c1.632-0.532,7.087-2.104,8.794-0.06c0.727,0.869,0.68,2.085-0.141,3.612c-0.468,0.733-0.991,1.33-1.595,1.84c-2.902,2.644-7.018,3.672-9.858,4.214c-1.021,0.208-2.082,0.339-3.14,0.386C16.558,25.678,16.362,25.681,16.167,25.681z"/><path d="M15.96,17.466c-2.401,0-4.802-0.384-7.136-1.153l0.625-1.899c4.26,1.402,8.763,1.402,13.023,0l0.625,1.899C20.763,17.081,18.361,17.466,15.96,17.466z"/><path d="M15.791,22.201c-0.107,0-0.212-0.001-0.317-0.003c-3.281-0.071-6.069-1.153-7.458-2.894c-0.146-0.184-0.223-0.412-0.218-0.646c0.024-1.085,0.356-10.644,4.577-12.214c0.079-0.029,0.162-0.048,0.246-0.057c0.947-0.097,1.888,0.262,2.528,0.965c0.115,0.109,0.227,0.23,0.339,0.354c0.125,0.138,0.288,0.316,0.405,0.393c0.071-0.067,0.166-0.17,0.241-0.253c0.122-0.133,0.25-0.271,0.39-0.403c0.393-0.37,1.587-1.491,2.951-1.003c4.274,1.573,4.57,11.137,4.589,12.222c0.004,0.248-0.083,0.488-0.246,0.675C21.974,21.454,18.523,22.201,15.791,22.201z M9.809,18.315c1.098,1.117,3.239,1.831,5.708,1.884c2.731,0.062,5.236-0.682,6.536-1.908c-0.128-3.602-1.088-9.171-3.261-9.971c0.001,0,0.001,0,0,0c-0.001,0.001-0.241-0.039-0.897,0.579c-0.103,0.097-0.196,0.2-0.287,0.298c-0.396,0.435-0.996,1.093-1.998,0.906c-0.772-0.142-1.25-0.666-1.599-1.049c-0.086-0.094-0.169-0.188-0.258-0.269c-0.025-0.023-0.049-0.048-0.072-0.074c-0.186-0.212-0.454-0.334-0.733-0.34C10.88,9.337,9.945,14.783,9.809,18.315z"/></svg>