<svg xmlns="http://www.w3.org/2000/svg" viewBox="0 0 32 32"><!--! Font Icona - https://fonticona.com | License - https://fonticona.com/license | Copyright 2022 FontIcona.com --><path d="M25.972,27.128c-0.032,0-0.065-0.002-0.099-0.005c-0.55-0.054-0.952-0.544-0.897-1.093l0.907-9.186c0.284-2.412-0.488-4.772-2.173-6.666c-1.886-2.12-4.693-3.335-7.704-3.335c-0.002,0-0.008,0-0.013,0c-3.012,0-5.82,1.215-7.705,3.335c-1.684,1.893-2.457,4.254-2.175,6.647l0.909,9.204c0.054,0.55-0.347,1.039-0.897,1.094c-0.55,0.053-1.039-0.348-1.093-0.896l-0.907-9.185c-0.343-2.907,0.629-5.899,2.668-8.192c2.265-2.545,5.617-4.005,9.198-4.005c0.006,0,0.011,0,0.016,0c3.58,0,6.932,1.459,9.196,4.006c2.04,2.292,3.012,5.285,2.667,8.21l-0.905,9.166C26.916,26.743,26.481,27.128,25.972,27.128z"/><path d="M5.537,27.156c-2.707,0-5.053-2.017-5.475-4.82c0,0,0,0,0-0.001c-0.222-1.474,0.164-2.945,1.086-4.144c0.944-1.227,2.318-1.998,3.871-2.17c0.266-0.035,0.532,0.048,0.74,0.217c0.208,0.168,0.339,0.413,0.366,0.678l0.9,9.115c0.054,0.546-0.341,1.032-0.886,1.093C5.936,27.145,5.735,27.156,5.537,27.156z M2.039,22.037c0.24,1.593,1.427,2.794,2.884,3.062l-0.676-6.842c-0.595,0.24-1.115,0.633-1.514,1.152C2.145,20.173,1.899,21.106,2.039,22.037L2.039,22.037z"/><path d="M26.463,27.156c-0.198,0-0.399-0.011-0.602-0.033c-0.545-0.061-0.939-0.547-0.886-1.093l0.9-9.115c0.026-0.266,0.158-0.51,0.365-0.678c0.208-0.167,0.475-0.245,0.739-0.217c1.553,0.172,2.928,0.942,3.872,2.17c0.923,1.2,1.308,2.672,1.086,4.146C31.516,25.139,29.17,27.156,26.463,27.156z M27.753,18.256l-0.676,6.843c1.456-0.269,2.643-1.47,2.883-3.062l0,0c0.141-0.931-0.105-1.864-0.692-2.628C28.869,18.89,28.348,18.496,27.753,18.256z"/></svg>