<svg xmlns="http://www.w3.org/2000/svg" viewBox="0 0 32 32"><!--! Font Icona - https://fonticona.com | License - https://fonticona.com/license | Copyright 2022 FontIcona.com --><path d="M25.973,22.285c-0.032,0-0.065-0.002-0.1-0.005c-0.55-0.055-0.951-0.544-0.896-1.094l0.907-9.186c0.284-2.411-0.488-4.772-2.173-6.666C21.825,3.216,19.018,2,16.007,2c-0.004,0-0.009,0-0.013,0c-3.012,0-5.819,1.215-7.705,3.335C6.604,7.229,5.832,9.59,6.114,11.983l0.909,9.204c0.055,0.55-0.347,1.039-0.896,1.094c-0.556,0.053-1.04-0.349-1.094-0.896l-0.907-9.186C3.783,9.291,4.755,6.299,6.795,4.006C9.06,1.46,12.412,0,15.993,0c0.003,0,0.01,0,0.015,0c3.58,0,6.933,1.46,9.197,4.006c2.04,2.293,3.012,5.285,2.667,8.211l-0.905,9.167C26.916,21.9,26.48,22.285,25.973,22.285z"/><path d="M5.536,22.313c-2.708,0-5.054-2.018-5.476-4.821l0,0c-0.222-1.474,0.163-2.945,1.085-4.145c0.944-1.229,2.319-2,3.872-2.172c0.272-0.028,0.532,0.05,0.74,0.217c0.207,0.169,0.339,0.413,0.365,0.679l0.9,9.116c0.054,0.546-0.341,1.032-0.886,1.093C5.936,22.302,5.734,22.313,5.536,22.313z M4.246,13.412c-0.595,0.24-1.115,0.634-1.515,1.153c-0.587,0.764-0.833,1.696-0.692,2.627v0.001c0.239,1.593,1.426,2.794,2.883,3.062L4.246,13.412z"/><path d="M26.464,22.313c-0.198,0-0.399-0.011-0.602-0.033c-0.545-0.06-0.939-0.547-0.886-1.093l0.9-9.116c0.026-0.266,0.158-0.51,0.365-0.679c0.208-0.167,0.467-0.244,0.74-0.217c1.553,0.172,2.928,0.943,3.872,2.172c0.922,1.199,1.307,2.671,1.085,4.145C31.518,20.295,29.172,22.313,26.464,22.313z M27.754,13.412l-0.676,6.844c1.457-0.269,2.644-1.47,2.883-3.062v-0.001c0.141-0.931-0.105-1.863-0.692-2.627C28.869,14.046,28.349,13.652,27.754,13.412z"/><path d="M17.916,32h-3.832c-1.655,0-3.002-1.402-3.002-3.125s1.347-3.125,3.002-3.125h3.832c1.655,0,3.002,1.402,3.002,3.125S19.571,32,17.916,32z M14.084,27.75c-0.553,0-1.002,0.505-1.002,1.125S13.531,30,14.084,30h3.832c0.553,0,1.002-0.505,1.002-1.125s-0.449-1.125-1.002-1.125H14.084z"/><path d="M19.917,29.875c-0.526,0-0.968-0.411-0.997-0.943c-0.031-0.552,0.391-1.023,0.941-1.055c2.859-0.162,4.89-0.991,6.035-2.464c1.442-1.855,1.02-4.13,1.016-4.152c-0.105-0.542,0.248-1.067,0.79-1.173c0.537-0.108,1.067,0.248,1.173,0.79c0.025,0.13,0.595,3.198-1.399,5.763c-1.516,1.949-4.039,3.037-7.501,3.232C19.955,29.874,19.937,29.875,19.917,29.875z"/></svg>