<svg xmlns="http://www.w3.org/2000/svg" viewBox="0 0 32 32"><!--! Font Icona - https://fonticona.com | License - https://fonticona.com/license | Copyright 2022 FontIcona.com --><rect x="7.658" y="15" width="16.689" height="2"/><path d="M27.342,2h-6c-0.553,0-1-0.448-1-1s0.447-1,1-1h6c0.553,0,1,0.448,1,1S27.895,2,27.342,2z"/><path d="M27.342,32h-6c-0.553,0-1-0.447-1-1s0.447-1,1-1h6c0.553,0,1,0.447,1,1S27.895,32,27.342,32z"/><path d="M10.658,2h-6c-0.552,0-1-0.448-1-1s0.448-1,1-1h6c0.552,0,1,0.448,1,1S11.21,2,10.658,2z"/><path d="M10.658,32h-6c-0.552,0-1-0.447-1-1s0.448-1,1-1h6c0.552,0,1,0.447,1,1S11.21,32,10.658,32z"/><rect x="6.658" y="1" width="2" height="30"/><rect x="23.348" y="1" width="2" height="30"/></svg>