<svg xmlns="http://www.w3.org/2000/svg" viewBox="0 0 32 32"><!--! Font Icona - https://fonticona.com | License - https://fonticona.com/license | Copyright 2022 FontIcona.com --><path d="M17.617,23.602c-0.026,0-0.054-0.001-0.08-0.003c-0.44-0.036-0.804-0.355-0.898-0.785l-1.531-7.068l-1.254,4.181c-0.114,0.38-0.441,0.656-0.834,0.705c-0.396,0.045-0.777-0.138-0.982-0.478l-1.621-2.699l-0.652,1.689c-0.149,0.386-0.52,0.64-0.933,0.64H3.552c-0.552,0-1-0.447-1-1s0.448-1,1-1h4.595l1.142-2.957c0.138-0.356,0.466-0.603,0.847-0.636c0.385-0.033,0.747,0.154,0.943,0.481l1.509,2.513l1.718-5.728c0.131-0.437,0.552-0.725,0.997-0.712c0.456,0.018,0.842,0.342,0.939,0.787l1.652,7.627l0.243-0.619c0.01-0.04,0.021-0.077,0.034-0.112l1.195-3.143c0.145-0.38,0.505-0.635,0.911-0.644c0.392-0.028,0.778,0.228,0.941,0.601l0.974,2.237l0.312-0.509c0.172-0.28,0.47-0.459,0.799-0.476c0.32-0.019,0.645,0.127,0.845,0.387l0.718,0.929h3.588c0.553,0,1,0.447,1,1s-0.447,1-1,1h-4.08c-0.31,0-0.602-0.144-0.791-0.389l-0.131-0.17l-0.558,0.91c-0.194,0.317-0.536,0.498-0.922,0.476c-0.372-0.026-0.699-0.257-0.848-0.599l-0.761-1.749l-0.288,0.757c-0.011,0.046-0.023,0.09-0.039,0.129l-1.489,3.791C18.396,23.353,18.025,23.602,17.617,23.602z"/><path d="M15.997,29.111l-0.416-0.19c-2.107-0.963-4.143-2.115-6.05-3.425c-4.054-2.857-8.323-6.461-9.323-11.588C-0.709,9.728,1.475,5.41,5.403,3.661c3.735-1.663,8.064-0.567,10.593,2.585c2.511-3.117,6.981-4.242,10.705-2.585c3.885,1.794,6.016,6.112,5.079,10.275c-0.951,5.128-5.242,8.722-9.312,11.555c-1.915,1.316-3.952,2.468-6.056,3.429L15.997,29.111z M9.021,4.891c-0.942,0-1.896,0.194-2.805,0.598c-3.066,1.364-4.77,4.734-4.051,8.013c0.869,4.455,4.788,7.731,8.507,10.352c1.677,1.151,3.47,2.18,5.324,3.055c1.853-0.873,3.645-1.903,5.334-3.062c3.732-2.599,7.663-5.859,8.49-10.313c0.739-3.285-0.923-6.655-3.945-8.051c-3.077-1.369-6.818-0.286-8.691,2.523l-1.187,1.671l-1.19-1.671C13.474,6.006,11.281,4.891,9.021,4.891z"/></svg>