<svg xmlns="http://www.w3.org/2000/svg" viewBox="0 0 32 32"><!--! Font Icona - https://fonticona.com | License - https://fonticona.com/license | Copyright 2022 FontIcona.com --><path d="M15.997,29.111l-0.416-0.19c-2.107-0.963-4.143-2.115-6.05-3.425c-4.055-2.857-8.324-6.462-9.323-11.588C-0.709,9.728,1.475,5.41,5.403,3.661c3.735-1.663,8.064-0.567,10.593,2.585c2.511-3.117,6.981-4.242,10.705-2.585c3.885,1.794,6.016,6.112,5.079,10.274c-0.951,5.128-5.242,8.723-9.312,11.556c-1.915,1.316-3.952,2.468-6.056,3.429L15.997,29.111z M9.021,4.891c-0.942,0-1.896,0.194-2.805,0.598c-3.066,1.364-4.77,4.734-4.051,8.013c0.868,4.454,4.787,7.731,8.507,10.352c1.677,1.151,3.47,2.18,5.324,3.055c1.853-0.873,3.645-1.903,5.334-3.062c3.732-2.599,7.663-5.859,8.49-10.314c0.739-3.285-0.923-6.655-3.945-8.05c-3.077-1.369-6.818-0.286-8.691,2.523l-1.187,1.671l-1.19-1.671C13.474,6.006,11.281,4.891,9.021,4.891z"/></svg>