<svg xmlns="http://www.w3.org/2000/svg" viewBox="0 0 32 32"><!--! Font Icona - https://fonticona.com | License - https://fonticona.com/license | Copyright 2022 FontIcona.com --><path d="M16.411,22.005c-0.467,0-3.038-0.185-4.589-3.884c-0.017-0.041-0.031-0.083-0.043-0.126c0.001,0.048-0.309-0.481-1.811-0.809L4.897,16.21c-0.052-0.01-0.103-0.024-0.153-0.042C1.249,14.897,0.076,10.19,0.028,9.99c-0.072-0.298-0.003-0.612,0.187-0.853S0.693,8.756,1,8.756h5.493c0.407,0,0.773,0.247,0.926,0.623c0.197,0.477,0.887,1.747,1.782,2.132h5.828l0.531-0.736c0.188-0.261,0.49-0.415,0.811-0.415h3.812c0.111,0,0.222,0.019,0.327,0.055c0.891,0.308,8.734,3.126,9.954,7.207c0.01,0.032,0.018,0.065,0.024,0.098c0.028,0.144,0.244,1.441-0.695,2.618c-0.83,1.04-2.249,1.6-4.216,1.666l-9.092,0C16.48,22.004,16.455,22.005,16.411,22.005z M13.68,17.379c1.11,2.619,2.673,2.61,2.759,2.625l9.104-0.001c1.304-0.044,2.244-0.36,2.687-0.914c0.315-0.396,0.307-0.839,0.298-0.96c-0.842-2.548-6.274-4.969-8.515-5.769h-3.129l-0.531,0.736c-0.188,0.261-0.49,0.415-0.811,0.415h-6.52c-0.105,0-0.209-0.017-0.31-0.049c-1.458-0.474-2.398-1.872-2.847-2.706H2.394c0.489,1.195,1.432,2.909,2.965,3.507l5.012,0.965C12.891,15.777,13.53,16.963,13.68,17.379z"/><path d="M29.038,26.381H9.789c-0.552,0-1-0.448-1-1s0.448-1,1-1h19.249c0.531,0,0.962-0.432,0.962-0.962c0-0.552,0.448-1,1-1s1,0.448,1,1C32,25.052,30.671,26.381,29.038,26.381z"/><path d="M28.305,8.622H8.854c-0.552,0-1-0.448-1-1s0.448-1,1-1h19.451c0.552,0,1,0.448,1,1S28.857,8.622,28.305,8.622z"/><path d="M18.579,12.36c-0.552,0-1-0.448-1-1V6.619c0-0.552,0.448-1,1-1s1,0.448,1,1v4.741C19.579,11.912,19.131,12.36,18.579,12.36z"/><path d="M23.551,18.652c-1.178,0-1.569-0.033-1.774-0.089c-0.893-0.247-1.727-1.015-2.176-2.005c-0.408-0.898-0.435-1.844-0.073-2.595c0.857-1.775,3.803-1.545,5.386-1.425l0.137,0.011c0.55,0.042,0.963,0.522,0.921,1.073c-0.042,0.55-0.521,0.961-1.073,0.921l-0.14-0.011c-3.079-0.239-3.402,0.244-3.429,0.299c-0.101,0.208-0.065,0.553,0.092,0.899c0.202,0.444,0.566,0.815,0.887,0.904c0.424,0.056,3.728-0.009,4.971-0.033c0.236-0.005,0.444-0.009,0.612-0.012v-0.004c0.023,0,0.111,0.001,0.204,0.001c0.07-0.001,0.142-0.002,0.197-0.002c0.08,0.001,0.147,0,0.23,0.003c0.099,0,0.177,0,0.198,0v0.012c0.479,0.045,1.02,0.229,1.017,0.991c-0.003,0.762-0.544,0.941-1.024,0.983v0.012l-0.207-0.001c-0.074,0.001-0.142,0.001-0.207,0.001c-0.045,0-0.096,0-0.152-0.002c-0.176,0.002-0.468,0.008-0.83,0.016C25.556,18.636,24.365,18.652,23.551,18.652z"/><path d="M23.043,26.382c-0.119,0-0.239-0.021-0.356-0.066c-0.516-0.196-0.775-0.774-0.579-1.291l1.667-4.378c0.196-0.517,0.774-0.774,1.291-0.579c0.516,0.196,0.775,0.774,0.579,1.291l-1.667,4.378C23.826,26.136,23.446,26.382,23.043,26.382z"/><path d="M16.913,26.382c-0.119,0-0.239-0.021-0.355-0.066c-0.517-0.196-0.775-0.774-0.579-1.29l1.666-4.378c0.197-0.517,0.776-0.775,1.29-0.579c0.517,0.196,0.775,0.774,0.579,1.29l-1.666,4.378C17.696,26.136,17.316,26.382,16.913,26.382z"/></svg>