<svg xmlns="http://www.w3.org/2000/svg" viewBox="0 0 32 32"><!--! Font Icona - https://fonticona.com | License - https://fonticona.com/license | Copyright 2022 FontIcona.com --><path d="M29.033,26.266H2.967C1.331,26.266,0,24.923,0,23.271v-0.249c0-1.555,1.182-2.837,2.687-2.979c0.491-4.912,4.35-9.138,9.721-10.485c0.537-0.132,1.079,0.191,1.213,0.726c0.135,0.536-0.19,1.079-0.726,1.213c-4.864,1.221-8.262,5.172-8.262,9.608c0,0.285-0.122,0.557-0.334,0.746c-0.213,0.189-0.498,0.281-0.779,0.247L2.92,22.03C2.409,22.056,2,22.491,2,23.022v0.249c0,0.548,0.434,0.994,0.967,0.994h26.066c0.533,0,0.967-0.446,0.967-0.994v-0.249c0-0.529-0.405-0.964-0.914-0.991l-0.515,0.066c-0.285,0.033-0.572-0.052-0.788-0.241c-0.216-0.189-0.34-0.464-0.34-0.751c0-4.379-3.341-8.315-8.125-9.573c-0.534-0.141-0.853-0.688-0.713-1.222c0.14-0.534,0.685-0.854,1.222-0.713c5.283,1.389,9.079,5.601,9.564,10.453c1.468,0.179,2.61,1.443,2.61,2.972v0.249C32,24.923,30.669,26.266,29.033,26.266z"/><path d="M19.131,15.579c-0.037,0-0.074-0.002-0.111-0.006c-0.549-0.061-0.945-0.555-0.884-1.104l0.725-6.563c0.005-0.048-0.005-0.089-0.032-0.121c-0.027-0.032-0.065-0.05-0.114-0.052L13.46,7.734c0.006,0.001-0.032,0.019-0.059,0.051c-0.027,0.032-0.038,0.072-0.032,0.121l0.725,6.563c0.061,0.549-0.335,1.043-0.884,1.104c-0.542,0.058-1.043-0.335-1.104-0.884L11.38,8.125c-0.066-0.599,0.11-1.179,0.495-1.633s0.928-0.723,1.53-0.756l5.364-0.001c0.657,0.035,1.2,0.303,1.585,0.758s0.561,1.035,0.495,1.633l-0.725,6.563C20.067,15.2,19.634,15.579,19.131,15.579z"/></svg>