<svg xmlns="http://www.w3.org/2000/svg" viewBox="0 0 32 32"><!--! Font Icona - https://fonticona.com | License - https://fonticona.com/license | Copyright 2022 FontIcona.com --><path d="M11.961,30.168c-1.746,0-3.381-0.793-4.54-2.273c-0.649-0.829-1.12-1.801-1.575-2.74c-0.626-1.291-1.217-2.511-2.181-3.227c-0.114-0.07-0.728-0.35-1.175-0.553C0.476,20.458-0.004,20.24,0,19.467v-4.652C0,6.646,6.478,0,14.439,0C22.4,0,28.878,6.646,28.878,14.815c0,0.455-0.307,0.852-0.747,0.967c-1.601,0.419-3.2,0.846-4.8,1.274c-1.498,0.4-2.971,0.794-3.87,1.811c-0.983,1.111-1.072,2.846-1.021,4.554c0.085,2.83-1.675,5.39-4.381,6.369C13.357,30.044,12.65,30.168,11.961,30.168z M2,18.937c0.368,0.185,0.935,0.443,1.318,0.618c0.947,0.431,1.326,0.608,1.54,0.768c1.356,1.009,2.084,2.509,2.787,3.96c0.428,0.884,0.832,1.719,1.35,2.38c1.082,1.383,2.722,1.848,4.384,1.247c1.573-0.569,3.131-2.159,3.062-4.428c-0.06-2.019,0.073-4.303,1.522-5.94c1.3-1.467,3.147-1.961,4.778-2.397c1.408-0.377,2.766-0.739,4.115-1.095C26.471,7.338,21.049,2,14.439,2C7.58,2,2,7.749,2,14.815V18.937z M2,19.463v0.009C2,19.469,2,19.466,2,19.463z M27.878,14.815h0.01H27.878z"/><path d="M26.634,32c-0.002,0-0.004,0-0.007,0h-2.548c-0.058,0-0.115-0.005-0.173-0.015c-2.343-0.411-2.976-2.931-2.982-4.205l-0.92-10.975c-0.047-0.551,0.362-1.034,0.913-1.08c0.563-0.052,1.034,0.363,1.079,0.913l0.924,11.053c0.004,0.092,0.046,2.021,1.259,2.309h1.988l1.792-2.146c0.005-0.006,0.01-0.012,0.015-0.018l2.259-2.705c0.354-0.425,0.984-0.481,1.408-0.127s0.48,0.984,0.127,1.408l-4.365,5.229c-0.004,0.005-0.009,0.01-0.013,0.015c-0.164,0.19-0.386,0.303-0.617,0.335l0,0c-0.002,0,0,0-0.003,0.001l0,0c-0.022,0.003-0.044,0.005-0.066,0.007l0,0c-0.001,0-0.001,0-0.001,0c-0.001,0-0.001,0-0.002,0l0,0C26.679,31.999,26.656,32,26.634,32z"/><path d="M31,26.771c-0.121,0-0.243-0.021-0.362-0.068l-13.386-5.204c-0.515-0.2-0.77-0.779-0.569-1.294c0.199-0.516,0.78-0.772,1.294-0.569l13.386,5.204c0.515,0.2,0.77,0.779,0.569,1.294C31.778,26.529,31.4,26.771,31,26.771z"/><path d="M28.727,29.494c-0.115,0-0.231-0.02-0.346-0.062l-11.328-4.171c-0.519-0.19-0.783-0.766-0.593-1.284s0.767-0.782,1.284-0.593l11.328,4.171c0.519,0.19,0.783,0.766,0.593,1.284C29.517,29.244,29.134,29.494,28.727,29.494z"/><path d="M12.1,27.186c-1.551,0-2.812-1.284-2.812-2.862s1.262-2.862,2.812-2.862c1.55,0,2.812,1.284,2.812,2.862S13.649,27.186,12.1,27.186z M12.1,23.461c-0.448,0-0.812,0.387-0.812,0.862s0.364,0.862,0.812,0.862c0.447,0,0.812-0.387,0.812-0.862S12.547,23.461,12.1,23.461z"/><path d="M9.763,14.26c-0.056,0-0.111-0.001-0.167-0.003c-2.231-0.093-3.973-2.021-3.883-4.299C5.757,8.837,6.23,7.806,7.046,7.055c0.79-0.729,1.806-1.106,2.88-1.062c2.229,0.093,3.971,2.021,3.881,4.299l0,0c-0.044,1.12-0.518,2.151-1.332,2.902C11.725,13.885,10.768,14.26,9.763,14.26z M9.759,7.989c-0.501,0-0.98,0.188-1.357,0.536c-0.422,0.389-0.667,0.926-0.69,1.512c-0.046,1.178,0.836,2.174,1.968,2.222c0.51,0.012,1.041-0.167,1.439-0.535c0.422-0.389,0.667-0.925,0.69-1.511c0.046-1.178-0.836-2.174-1.967-2.222C9.814,7.989,9.786,7.989,9.759,7.989z M12.808,10.251h0.01H12.808z"/><path d="M10.699,18.6c-0.095,0-0.192-0.014-0.288-0.042c-0.529-0.16-0.829-0.718-0.67-1.246l1.897-6.302c0.159-0.528,0.715-0.828,1.246-0.669c0.529,0.159,0.829,0.717,0.67,1.246l-1.897,6.301C11.526,18.32,11.129,18.6,10.699,18.6z"/></svg>