<svg xmlns="http://www.w3.org/2000/svg" viewBox="0 0 32 32"><!--! Font Icona - https://fonticona.com | License - https://fonticona.com/license | Copyright 2022 FontIcona.com --><path d="M16,22.715c-4.615,0-8.37-3.755-8.37-8.37s3.755-8.37,8.37-8.37s8.37,3.755,8.37,8.37S20.615,22.715,16,22.715z M16,7.975c-3.513,0-6.37,2.857-6.37,6.37s2.857,6.37,6.37,6.37s6.37-2.857,6.37-6.37S19.513,7.975,16,7.975z"/><path d="M16,32c-0.553,0-1-0.447-1-1v-9.285c0-0.553,0.447-1,1-1s1,0.447,1,1V31C17,31.553,16.553,32,16,32z"/><path d="M19.878,28.345h-7.756c-0.553,0-1-0.447-1-1s0.447-1,1-1h7.756c0.553,0,1,0.447,1,1S20.431,28.345,19.878,28.345z"/><path d="M16,7.892C11.937,7.892,8.631,4.8,8.631,1c0-0.553,0.447-1,1-1s1,0.447,1,1c0,2.697,2.408,4.892,5.369,4.892S21.369,3.697,21.369,1c0-0.553,0.447-1,1-1s1,0.447,1,1C23.369,4.8,20.063,7.892,16,7.892z"/></svg>