<svg xmlns="http://www.w3.org/2000/svg" viewBox="0 0 32 32"><!--! Font Icona - https://fonticona.com | License - https://fonticona.com/license | Copyright 2022 FontIcona.com --><path d="M10.348,23.555c-3.671,0-6.657-2.986-6.657-6.657s2.986-6.658,6.657-6.658s6.658,2.987,6.658,6.658S14.019,23.555,10.348,23.555z M10.348,12.239c-2.568,0-4.657,2.09-4.657,4.658s2.089,4.657,4.657,4.657c2.568,0,4.658-2.089,4.658-4.657S12.917,12.239,10.348,12.239z"/><path d="M10.348,32c-0.552,0-1-0.447-1-1v-8.445c0-0.553,0.448-1,1-1s1,0.447,1,1V31C11.348,31.553,10.9,32,10.348,32z"/><path d="M13.574,27.777H7.123c-0.552,0-1-0.447-1-1s0.448-1,1-1h6.452c0.552,0,1,0.447,1,1S14.126,27.777,13.574,27.777z"/><path d="M16.496,18.443c-3.792,0-6.877-3.085-6.877-6.878c0-3.792,3.085-6.877,6.877-6.877s6.877,3.085,6.877,6.877C23.373,15.358,20.288,18.443,16.496,18.443z M16.496,6.688c-2.689,0-4.877,2.188-4.877,4.877s2.188,4.878,4.877,4.878c2.689,0,4.877-2.188,4.877-4.878S19.185,6.688,16.496,6.688z"/><path d="M20.882,8.429c-0.256,0-0.512-0.098-0.707-0.293c-0.391-0.391-0.391-1.023,0-1.414l6.204-6.203c0.391-0.391,1.023-0.391,1.414,0s0.391,1.023,0,1.414l-6.204,6.203C21.394,8.331,21.138,8.429,20.882,8.429z"/><path class="st0" d="M27.309,8.136c-0.552,0-1-0.447-1-1V2h-5.136c-0.552,0-1-0.447-1-1s0.448-1,1-1h5.514c0.91,0,1.622,0.713,1.622,1.622v5.514C28.309,7.688,27.861,8.136,27.309,8.136z M26.687,2h0.01H26.687z"/></svg>