<svg xmlns="http://www.w3.org/2000/svg" viewBox="0 0 32 32"><!--! Font Icona - https://fonticona.com | License - https://fonticona.com/license | Copyright 2022 FontIcona.com --><path d="M24.425,31.718H7.578c-4.164,0-7.551-3.388-7.551-7.552v-0.875c0-4.163,3.388-7.551,7.551-7.551h0.188c1.364,0,2.705,0.239,3.984,0.711l4.292,1.583l4.481-1.613c1.253-0.452,2.565-0.681,3.901-0.681c4.163,0,7.551,3.388,7.551,7.551v0.875C31.975,28.33,28.588,31.718,24.425,31.718z M7.578,17.74c-3.061,0-5.551,2.49-5.551,5.551v0.875c0,3.062,2.49,5.552,5.551,5.552h16.846c3.061,0,5.551-2.49,5.551-5.552v-0.875c0-3.061-2.49-5.551-5.551-5.551c-1.104,0-2.188,0.189-3.224,0.562l-5.167,1.86l-4.975-1.835c-1.057-0.391-2.165-0.588-3.292-0.588H7.578z"/><path d="M8.626,26.899c-1.748,0-3.17-1.422-3.17-3.17s1.422-3.17,3.17-3.17s3.17,1.422,3.17,3.17S10.374,26.899,8.626,26.899z M8.626,22.559c-0.645,0-1.17,0.524-1.17,1.17s0.525,1.17,1.17,1.17c0.646,0,1.17-0.524,1.17-1.17S9.272,22.559,8.626,22.559z"/><path d="M23.375,26.899c-1.748,0-3.17-1.422-3.17-3.17s1.422-3.17,3.17-3.17s3.17,1.422,3.17,3.17S25.123,26.899,23.375,26.899z M23.375,22.559c-0.646,0-1.17,0.524-1.17,1.17s0.524,1.17,1.17,1.17s1.17-0.524,1.17-1.17S24.02,22.559,23.375,22.559z"/><path d="M28.509,19.111c-0.553,0-1-0.447-1-1v-3.618c0-5.641-4.59-10.23-10.23-10.23h-2.553c-5.641,0-10.23,4.589-10.23,10.23v3.618c0,0.553-0.448,1-1,1s-1-0.447-1-1v-3.618c0-6.744,5.486-12.23,12.23-12.23h2.553c6.744,0,12.23,5.486,12.23,12.23v3.618C29.509,18.663,29.061,19.111,28.509,19.111z"/><path d="M3.435,11.027L1.514,9.106c-2.016-2.015-2.016-5.295,0-7.31C2.49,0.82,3.788,0.282,5.169,0.282S7.848,0.82,8.824,1.796l1.921,1.921L9.331,5.131L7.41,3.21c-1.197-1.197-3.285-1.197-4.482,0c-1.235,1.236-1.235,3.246,0,4.482l1.921,1.921L3.435,11.027z"/><path d="M28.565,11.026l-1.414-1.414l1.921-1.921c1.235-1.236,1.235-3.247,0-4.482c-1.236-1.236-3.245-1.234-4.481,0L22.669,5.13l-1.414-1.414l1.922-1.921c2.018-2.016,5.296-2.014,7.31,0c2.016,2.016,2.016,5.295,0,7.311L28.565,11.026z"/><circle cx="10.477" cy="11.82" r="1.5"/><circle cx="21.447" cy="11.82" r="1.5"/></svg>