<svg xmlns="http://www.w3.org/2000/svg" viewBox="0 0 32 32"><!--! Font Icona - https://fonticona.com | License - https://fonticona.com/license | Copyright 2022 FontIcona.com --><path d="M1,22.439c-0.553,0-1-0.447-1-1V6.885c0-0.553,0.447-1,1-1s1,0.447,1,1v14.555C2,21.992,1.553,22.439,1,22.439z"/><path d="M8.058,22.439c-0.553,0-1-0.447-1-1v-6.027c0-1.395-1.135-2.529-2.529-2.529S2,14.018,2,15.412c0,0.553-0.447,1-1,1s-1-0.447-1-1c0-2.497,2.031-4.529,4.528-4.529s4.529,2.032,4.529,4.529v6.027C9.058,21.992,8.61,22.439,8.058,22.439z"/><path d="M11.696,22.439c-0.553,0-1-0.447-1-1v-9.557c0-0.553,0.447-1,1-1s1,0.447,1,1v9.557C12.696,21.992,12.249,22.439,11.696,22.439z"/><path d="M19.157,21.668c-2.983,0-5.41-2.428-5.41-5.411s2.427-5.41,5.41-5.41s5.411,2.427,5.411,5.41S22.141,21.668,19.157,21.668z M19.157,12.847c-1.88,0-3.41,1.53-3.41,3.41c0,1.881,1.53,3.411,3.41,3.411c1.881,0,3.411-1.53,3.411-3.411C22.568,14.377,21.038,12.847,19.157,12.847z"/><path d="M14.747,26.115c-0.553,0-1-0.447-1-1v-8.858c0-0.553,0.447-1,1-1s1,0.447,1,1v8.858C15.747,25.668,15.3,26.115,14.747,26.115z"/><circle cx="11.696" cy="7.987" r="1.25"/><path d="M28.336,21.671c-0.807,0-1.715-0.19-2.718-0.57c-0.517-0.196-0.776-0.773-0.581-1.29c0.197-0.517,0.773-0.775,1.29-0.581c1.312,0.498,2.338,0.575,2.971,0.228c0.539-0.298,0.658-0.855,0.663-0.879c0.009-0.044,0.024-0.105,0.039-0.148c-0.003-0.003-0.069-0.255-0.802-0.726c-0.399-0.256-0.878-0.434-1.385-0.622c-0.527-0.196-1.072-0.399-1.604-0.713c-1.182-0.697-1.684-1.927-1.291-3.146c0.077-0.324,0.387-1.286,1.438-1.884c1.174-0.665,2.787-0.607,4.799,0.172c0.515,0.2,0.771,0.779,0.571,1.294c-0.199,0.516-0.777,0.77-1.294,0.571c-1.362-0.528-2.45-0.639-3.06-0.313c-0.412,0.22-0.503,0.602-0.507,0.618c-0.008,0.036-0.024,0.102-0.037,0.137c-0.142,0.408,0.138,0.676,0.396,0.829c0.38,0.224,0.82,0.388,1.286,0.561c0.583,0.218,1.187,0.441,1.768,0.814c1.751,1.125,1.867,2.235,1.635,2.991c-0.077,0.351-0.412,1.483-1.596,2.165C29.748,21.507,29.086,21.671,28.336,21.671z"/></svg>