<svg xmlns="http://www.w3.org/2000/svg" viewBox="0 0 32 32"><!--! Font Icona - https://fonticona.com | License - https://fonticona.com/license | Copyright 2022 FontIcona.com --><path d="M16,32c-0.256,0-0.512-0.098-0.707-0.293l-15-15c-0.391-0.391-0.391-1.023,0-1.414l15-15c0.391-0.391,1.023-0.391,1.414,0l15,15c0.391,0.391,0.391,1.023,0,1.414l-15,15C16.512,31.902,16.256,32,16,32z M2.414,16L16,29.586L29.586,16L16,2.414L2.414,16z"/><path d="M21,17.5c-0.256,0-0.512-0.098-0.707-0.293l-5.5-5.5c-0.391-0.391-0.391-1.023,0-1.414l5.25-5.25c0.391-0.391,1.023-0.391,1.414,0s0.391,1.023,0,1.414L16.914,11L21,15.086l4.543-4.543c0.391-0.391,1.023-0.391,1.414,0s0.391,1.023,0,1.414l-5.25,5.25C21.512,17.402,21.256,17.5,21,17.5z"/><path d="M11.5,27c-0.256,0-0.512-0.098-0.707-0.293c-0.391-0.391-0.391-1.023,0-1.414l3.918-3.918l-4.086-4.086l-3.918,3.918c-0.391,0.391-1.023,0.391-1.414,0s-0.391-1.023,0-1.414l4.625-4.625c0.391-0.391,1.023-0.391,1.414,0l5.5,5.5c0.391,0.391,0.391,1.023,0,1.414l-4.625,4.625C12.012,26.902,11.756,27,11.5,27z"/></svg>