<svg xmlns="http://www.w3.org/2000/svg" viewBox="0 0 32 32"><!--! Font Icona - https://fonticona.com | License - https://fonticona.com/license | Copyright 2022 FontIcona.com --><path d="M26.964,32h-23.9c-0.788,0-1.564-0.376-2.026-0.98c-0.401-0.523-0.527-1.16-0.355-1.792l1.702-6.613c0.138-0.535,0.679-0.858,1.218-0.72c0.535,0.138,0.856,0.684,0.719,1.218l-1.706,6.626C2.625,29.842,2.833,30,3.063,30h23.598c1.052,0,2.405-0.943,2.455-1.963l-0.494-3.561h-3.458l0.117,0.527c0.161,0.919-0.08,1.811-0.651,2.489c-0.571,0.68-1.408,1.069-2.296,1.069H10.585c-0.953,0-1.828-0.438-2.4-1.199c-0.572-0.763-0.747-1.725-0.48-2.639l0.445-1.527c0.154-0.531,0.709-0.835,1.24-0.681c0.53,0.154,0.835,0.709,0.68,1.239l-0.445,1.527c-0.088,0.305-0.03,0.625,0.16,0.879c0.191,0.255,0.482,0.4,0.8,0.4h11.749c0.3,0,0.572-0.127,0.765-0.356c0.193-0.229,0.271-0.519,0.22-0.814l-0.376-1.699c-0.065-0.296,0.007-0.605,0.197-0.842s0.477-0.374,0.78-0.374h5.574c0.499,0,0.922,0.368,0.991,0.862l0.625,4.502c0.006,0.046,0.009,0.092,0.009,0.138c0,2.042-1.948,3.672-3.842,3.972C27.178,31.983,27.073,32,26.964,32z"/><path d="M30.078,24.482H4.049c-0.21,0-0.416-0.066-0.586-0.189c-3.074-2.224-2.322-6.021-1.476-7.771c0.727-2.021,1.041-3.317,1.453-5.979c0.144-0.93,0.002-2.744-0.124-4.345c-0.079-1.005-0.153-1.954-0.16-2.688C3.145,2.273,3.929,1.085,5.064,0.622C6.027,0.225,7.04,0.447,7.771,1.206l3.231,3.229l4.601-4.175c0.333-0.303,0.827-0.347,1.207-0.104c0.38,0.24,0.553,0.704,0.422,1.135c-0.736,2.432-1.122,6.98-0.809,9.544c0.305,2.498,1.542,3.7,4.266,4.149c0.625,0.103,1.263,0.16,1.938,0.222c1.622,0.147,3.298,0.3,4.894,1.099c2.445,1.224,4.559,4.118,3.66,7.073c-0.054,0.179-0.117,0.345-0.188,0.505C30.834,24.246,30.475,24.482,30.078,24.482z M4.394,22.482h24.951c0.354-1.909-1.327-3.692-2.718-4.389c-1.258-0.63-2.677-0.759-4.18-0.896c-0.682-0.062-1.386-0.126-2.082-0.241c-2.282-0.375-5.378-1.394-5.927-5.88c-0.235-1.929-0.12-4.792,0.235-7.272l-3.032,2.752c-0.395,0.358-1.002,0.345-1.379-0.033L6.343,2.607C6.167,2.425,6.023,2.39,5.82,2.474C5.498,2.605,5.152,3.032,5.157,3.49C5.163,4.155,5.235,5.071,5.311,6.04c0.14,1.793,0.285,3.646,0.106,4.807c-0.438,2.835-0.775,4.211-1.566,6.404c-0.013,0.035-0.028,0.071-0.045,0.105C3.739,17.492,2.238,20.635,4.394,22.482z"/><path d="M12.887,24.482c-0.282,0-0.562-0.118-0.76-0.35L3.245,13.763c-0.359-0.419-0.311-1.051,0.109-1.41c0.42-0.358,1.05-0.312,1.41,0.109l8.882,10.369c0.359,0.419,0.311,1.051-0.109,1.41C13.348,24.403,13.117,24.482,12.887,24.482z"/><path d="M23.496,19.343c-0.552,0-1-0.447-1-1v-2.049c0-0.553,0.448-1,1-1s1,0.447,1,1v2.049C24.496,18.896,24.048,19.343,23.496,19.343z"/><path d="M18.946,18.865c-0.123,0-0.248-0.022-0.37-0.071c-0.513-0.204-0.763-0.785-0.559-1.299l0.758-1.903c0.205-0.513,0.784-0.767,1.299-0.559c0.513,0.204,0.763,0.785,0.559,1.299l-0.758,1.903C19.72,18.626,19.344,18.865,18.946,18.865z"/><path d="M15.047,16.479c-0.256,0-0.512-0.098-0.707-0.293c-0.391-0.391-0.391-1.023,0-1.414l1.448-1.448c0.391-0.391,1.023-0.391,1.414,0s0.391,1.023,0,1.414l-1.448,1.448C15.559,16.381,15.303,16.479,15.047,16.479z"/><path d="M15.402,11.695h-2.048c-0.552,0-1-0.447-1-1s0.448-1,1-1h2.048c0.552,0,1,0.447,1,1S15.955,11.695,15.402,11.695z"/></svg>