<svg xmlns="http://www.w3.org/2000/svg" viewBox="0 0 32 32"><!--! Font Icona - https://fonticona.com | License - https://fonticona.com/license | Copyright 2022 FontIcona.com --><path d="M28.818,25.254c-1.102,0-2.589-0.367-4.593-1.396c-2.852-1.464-6.09-3.938-9.118-6.966C9.257,11.042,4.8,3.655,7.6,0.854c2.8-2.798,10.188,1.657,16.038,7.508c3.027,3.027,5.501,6.265,6.965,9.117c2.092,4.076,1.45,6.014,0.542,6.921l0,0l0,0C30.685,24.862,29.957,25.254,28.818,25.254z M9.936,1.982c-0.418,0-0.731,0.096-0.921,0.286c-1.162,1.163,1.184,6.887,7.507,13.21c2.885,2.885,5.945,5.229,8.617,6.601c2.683,1.378,4.151,1.352,4.594,0.907l0,0c0.442-0.442,0.47-1.91-0.908-4.594c-1.372-2.672-3.716-5.732-6.6-8.616C16.937,4.489,12.068,1.982,9.936,1.982z"/><path d="M22.074,32.004c-3.521,0-9.095-3.749-13.712-8.366c-3.027-3.027-5.501-6.265-6.965-9.117c-2.092-4.076-1.45-6.014-0.542-6.921L7.6,0.854l1.414,1.414L2.268,9.014c-0.442,0.442-0.47,1.91,0.908,4.594c1.372,2.672,3.716,5.732,6.6,8.616c6.324,6.324,12.048,8.668,13.21,7.508l6.746-6.746l1.414,1.414L24.4,31.146C23.81,31.736,23.015,32.004,22.074,32.004z"/></svg>