<svg xmlns="http://www.w3.org/2000/svg" viewBox="0 0 32 32"><!--! Font Icona - https://fonticona.com | License - https://fonticona.com/license | Copyright 2022 FontIcona.com --><path d="M15.999,27.361c-1.398,0-2.758-0.733-3.492-2.035c-0.525-0.931-0.656-2.011-0.369-3.04c0.288-1.029,0.958-1.885,1.89-2.409c1.923-1.081,4.366-0.4,5.449,1.521c0.525,0.931,0.656,2.011,0.369,3.04c-0.288,1.029-0.958,1.885-1.89,2.409C17.336,27.195,16.663,27.361,15.999,27.361z M15.988,21.36c-0.339,0-0.675,0.088-0.979,0.259c-0.466,0.263-0.801,0.69-0.945,1.205c-0.144,0.515-0.079,1.055,0.184,1.52c0.262,0.466,0.69,0.801,1.205,0.944c0.515,0.143,1.054,0.078,1.52-0.184c0.466-0.263,0.801-0.69,0.945-1.205c0.144-0.515,0.079-1.054-0.184-1.52l0,0c-0.262-0.466-0.69-0.801-1.205-0.944C16.351,21.386,16.169,21.36,15.988,21.36z"/><path d="M23.105,25.07c-0.361,0-0.724-0.049-1.081-0.148c-1.029-0.287-1.885-0.959-2.41-1.89c-0.525-0.931-0.655-2.011-0.368-3.04s0.958-1.885,1.889-2.409c1.923-1.082,4.367-0.399,5.449,1.521c0.525,0.931,0.656,2.011,0.369,3.04c-0.288,1.029-0.958,1.885-1.89,2.409C24.456,24.896,23.785,25.07,23.105,25.07z M23.096,19.066c-0.339,0-0.675,0.088-0.979,0.259c-0.466,0.263-0.801,0.69-0.945,1.205s-0.078,1.055,0.184,1.52c0.263,0.466,0.69,0.802,1.205,0.945c0.515,0.144,1.054,0.078,1.52-0.185s0.801-0.69,0.945-1.205c0.144-0.515,0.079-1.055-0.184-1.52l0,0c-0.262-0.466-0.69-0.801-1.205-0.944C23.458,19.092,23.277,19.066,23.096,19.066z"/><path d="M21.331,31.999c-1.398,0-2.758-0.733-3.492-2.035c-1.083-1.922-0.401-4.366,1.521-5.45c1.922-1.081,4.367-0.399,5.449,1.521l0,0c1.083,1.922,0.4,4.366-1.521,5.45C22.669,31.833,21.996,31.999,21.331,31.999z M21.321,25.997c-0.339,0-0.675,0.088-0.979,0.259c-0.961,0.542-1.302,1.765-0.761,2.726c0.262,0.466,0.69,0.801,1.205,0.944c0.514,0.144,1.054,0.078,1.52-0.184c0.96-0.542,1.302-1.765,0.761-2.726l0,0c-0.262-0.466-0.69-0.801-1.205-0.944C21.683,26.022,21.501,25.997,21.321,25.997z"/><path d="M10.516,19.813c-0.109,0-0.225-0.012-0.346-0.04c-0.737-0.172-1.127-0.711-1.161-1.603c-0.006-0.18-0.068-0.781-0.582-1.023c-0.193-0.092-0.4-0.096-0.414-0.128c-0.018,0.012-0.071,0.047-0.127,0.076c-0.213,0.113-0.534,0.282-0.958,0.307c-0.578,0.031-1.026-0.111-1.353-0.428c-0.492-0.477-0.476-1.118-0.465-1.542c0.002-0.1,0.006-0.203,0-0.306c-0.032-0.585-0.238-1.323-0.459-1.645c-0.08-0.116-0.116-0.146-0.12-0.149c0.002,0.03-0.103,0.062-0.179,0.086c-0.314,0.098-0.838,0.259-1.422,0.023c-1.098-0.444-1.39-1.412-0.868-2.877c0.217-0.62,0.213-0.866,0.014-1.348C1.773,8.486,1.111,6.895,2.223,6.104C2.93,5.597,3.696,5.768,4.497,6.609c0.041,0.044,0.079,0.085,0.114,0.118c0.047,0.028,0.195,0.092,0.415,0.144c0.444,0.105,0.897-0.217,1.585-0.76c0.159-0.126,0.316-0.25,0.471-0.362c0.709-0.517,1.3-0.459,1.672-0.32c0.404,0.152,0.936,0.553,1.172,1.6c0.044,0.194,0.093,0.336,0.135,0.435c0.086-0.068,0.186-0.163,0.273-0.247C10.52,7.04,10.73,6.84,10.997,6.671c0.779-0.489,1.362-0.385,1.714-0.211c0.359,0.177,0.805,0.589,0.895,1.546c0.015,0.161,0.019,0.338,0.021,0.521c0.003,0.194,0.008,0.549,0.06,0.667c0.017-0.021,0.217-0.014,0.642-0.2c0.498-0.221,1.311-0.329,1.96,0.09c0.456,0.294,0.72,0.792,0.725,1.365c0.005,0.618-0.38,1.026-0.61,1.271c-0.037,0.039-0.074,0.075-0.102,0.112c-0.151,0.212-0.264,0.423-0.298,0.521c-0.11,0.325-0.021,0.912,0.05,1.383l0.042,0.283c0.133,0.952,0.723,1.849,1.348,2.799c0.277,0.422,0.553,0.843,0.794,1.271c0.172,0.306,0.172,0.679-0.001,0.983c-0.172,0.306-0.492,0.498-0.842,0.508l-0.844,0.023c-0.629,0.083-1.437,0.093-2.24,0.021c-0.2-0.019-0.402-0.04-0.605-0.062c-0.775-0.085-1.509-0.162-2.18-0.038c-0.032,0.011-0.077,0.035-0.124,0.057C11.201,19.674,10.895,19.813,10.516,19.813z M10.43,17.823L10.43,17.823L10.43,17.823z M12.307,17.46c0.562,0,1.109,0.059,1.614,0.113c0.192,0.021,0.382,0.042,0.57,0.059c0.378,0.033,0.754,0.046,1.12,0.037c-0.665-1.018-1.314-2.081-1.495-3.373l-0.039-0.261c-0.104-0.686-0.233-1.538,0.033-2.323c0.075-0.223,0.19-0.447,0.301-0.636c-0.738,0.185-1.368,0.101-1.881-0.253c-0.794-0.545-0.882-1.451-0.898-2.08c-0.35,0.329-0.823,0.733-1.542,0.803C9.613,9.599,8.467,9.485,7.998,7.564c-0.051,0.04-0.099,0.078-0.146,0.116C7.064,8.302,5.985,9.154,4.568,8.817C4.401,8.778,4.2,8.722,3.998,8.643c0.316,0.877,0.303,1.583-0.014,2.49l-0.037,0.104c-0.023,0.064-0.054,0.152-0.083,0.241c0.161-0.049,0.351-0.098,0.569-0.113c1.145-0.081,1.686,0.721,1.866,0.983c0.498,0.724,0.765,1.863,0.809,2.671c0.004,0.075,0.005,0.151,0.005,0.226c0.148-0.072,0.329-0.147,0.543-0.19c0.629-0.125,1.288,0.126,1.625,0.286c0.895,0.423,1.498,1.252,1.674,2.269c0.063-0.019,0.13-0.036,0.201-0.049C11.543,17.486,11.929,17.46,12.307,17.46z"/><path d="M18.913,17.809c-0.235,0-0.467-0.083-0.651-0.241c-0.275-0.235-0.4-0.602-0.329-0.957c0.097-0.478,0.224-0.961,0.351-1.446c0.294-1.113,0.571-2.166,0.449-3.129L18.7,11.76c-0.052-0.446-0.123-1.057-0.292-1.324c-0.045-0.071-0.182-0.222-0.344-0.357l-0.082-0.05C17.73,9.875,17.26,9.59,17.11,8.985c-0.14-0.562-0.02-1.104,0.338-1.523c0.385-0.451,1.033-0.71,1.649-0.655c0.362,0.029,0.48-0.039,0.482-0.041c0.028-0.091-0.069-0.493-0.122-0.71c-0.042-0.171-0.081-0.336-0.106-0.489c-0.13-0.769,0.019-1.354,0.442-1.741c0.273-0.25,0.763-0.503,1.552-0.299c0.292,0.077,0.538,0.207,0.736,0.312c0.025,0.013,0.054,0.028,0.083,0.043c0.01-0.112,0.015-0.26,0.005-0.445c-0.047-0.885,0.181-1.522,0.676-1.895c0.244-0.183,0.768-0.449,1.545-0.179c0.16,0.056,0.323,0.12,0.489,0.187c0.753,0.3,1.046,0.373,1.293,0.194c0.18-0.129,0.287-0.242,0.313-0.28l0.006-0.01c0.014-0.026,0.038-0.086,0.065-0.148c0.475-1.092,1.13-1.507,1.949-1.232c1.215,0.408,1.056,2.057,0.979,2.85c-0.057,0.595,0.002,0.846,0.281,1.276c0.334,0.511,1.199,1.832,0.049,2.953c-0.458,0.446-0.998,0.472-1.287,0.485c-0.036,0.002-0.071,0.001-0.106,0.005c-0.002,0.023-0.022,0.077-0.047,0.164c-0.125,0.442-0.092,1.259,0.011,1.761c0.021,0.1,0.049,0.196,0.075,0.29c0.344,1.222-0.01,2.016-1.052,2.361c-0.409,0.137-0.767,0.075-0.981,0.04c-0.017-0.003-0.033-0.006-0.05-0.009c-0.059,0.041-0.146,0.114-0.232,0.208c-0.321,0.349-0.345,0.881-0.261,1.263c0.072,0.328,0.263,1.196-0.556,1.783c-0.469,0.334-0.947,0.286-1.204,0.259l-0.1-0.008c-0.503,0.094-1.082,0.406-1.693,0.737c-0.165,0.09-0.328,0.178-0.49,0.262c-0.641,0.332-1.307,0.592-1.93,0.753l-0.659,0.241C19.145,17.788,19.029,17.809,18.913,17.809z M19.625,8.796c0.157,0.154,0.337,0.354,0.474,0.57c0.413,0.653,0.51,1.49,0.588,2.163l0.031,0.256c0.151,1.198-0.101,2.353-0.391,3.473c0.2-0.084,0.4-0.178,0.6-0.28l0.457-0.244c0.69-0.374,1.472-0.798,2.344-0.954c0.049-0.009,0.097-0.015,0.143-0.019c-0.115-0.999,0.175-1.972,0.809-2.659c0.304-0.33,0.785-0.743,1.351-0.838c0.173-0.028,0.332-0.028,0.468-0.015c-0.025-0.093-0.048-0.186-0.067-0.28c-0.155-0.758-0.208-1.89,0.024-2.708c0.094-0.331,0.343-1.21,1.335-1.523c0.197-0.062,0.378-0.082,0.528-0.092c-0.055-0.097-0.125-0.203-0.172-0.275c-0.001-0.002-0.055-0.084-0.056-0.086c-0.434-0.671-0.623-1.266-0.622-2.01c-0.043,0.033-0.085,0.064-0.125,0.093c-1.162,0.837-2.364,0.373-3.17,0.052c0.069,1.828-0.769,2.347-1.279,2.493c-0.586,0.166-1.077,0.015-1.45-0.158c0.139,0.596,0.276,1.416-0.224,2.151C20.962,8.283,20.487,8.704,19.625,8.796z M27.353,1.967h0.01H27.353z"/></svg>