<svg xmlns="http://www.w3.org/2000/svg" viewBox="0 0 32 32"><!--! Font Icona - https://fonticona.com | License - https://fonticona.com/license | Copyright 2022 FontIcona.com --><path d="M10.51,9.897c-1.809,0-3.312-1.468-3.345-3.301C7.158,6.254,7.204,5.916,7.3,5.589c0.373-1.38,1.651-2.383,3.102-2.417l1.503,0C11.98,1.376,13.738,0,15.254,0h1.596c1.54,0,3.275,1.297,3.368,3.171h0.926c0.736,0,1.076,0.029,1.452,0.124c1.675,0.513,2.662,2.149,2.346,3.819c-0.281,1.63-1.683,2.776-3.37,2.783H10.57C10.55,9.897,10.53,9.897,10.51,9.897z M10.425,5.171C9.877,5.184,9.374,5.58,9.225,6.132C9.18,6.284,9.162,6.421,9.165,6.559c0.014,0.751,0.673,1.385,1.388,1.338h11.034c0.654-0.012,1.271-0.469,1.388-1.139c0.129-0.684-0.265-1.338-0.915-1.538c-0.097-0.023-0.252-0.049-0.915-0.049h-2.922v-1.87C18.205,2.6,17.456,2,16.85,2h-1.596c-0.51,0-1.353,0.604-1.353,1.292v1.879H10.425z"/><path d="M6.558,16.244c-0.648,0-1.278-0.253-1.762-0.716c-0.496-0.476-0.777-1.117-0.792-1.804c-0.015-0.731,0.282-1.437,0.816-1.936c0.563-0.497,1.252-0.747,1.979-0.714l18.612-0.001c0,0,0.001,0,0.001,0c1.424,0,2.584,1.159,2.585,2.584c0,0.69-0.268,1.34-0.756,1.829c-0.488,0.489-1.137,0.758-1.828,0.758H6.611C6.593,16.244,6.575,16.244,6.558,16.244z M6.714,13.072c-0.225,0-0.407,0.069-0.55,0.196C6.066,13.36,6,13.518,6.003,13.682c0.003,0.153,0.066,0.296,0.177,0.402c0.111,0.106,0.258,0.187,0.41,0.16h18.82c0.157,0,0.304-0.061,0.415-0.172s0.171-0.258,0.171-0.414c0-0.323-0.263-0.585-0.585-0.585h0H6.757C6.743,13.072,6.728,13.072,6.714,13.072z"/><path d="M19.389,22.564l-3.333-0.042H8.27c-0.649,0.023-1.306-0.218-1.81-0.685c-0.505-0.468-0.797-1.104-0.824-1.791c-0.047-1.233,0.791-2.33,1.995-2.608l0.137-0.021c0.242-0.021,0.484-0.021,0.725,0l15.18-0.004c1.291-0.143,2.521,0.734,2.808,2.015c0.156,0.648,0.047,1.334-0.31,1.916c-0.356,0.582-0.918,0.99-1.582,1.149c-0.187,0.045-0.376,0.068-0.564,0.071H19.389z M16.062,20.523l7.949,0.042c0.028,0,0.07-0.006,0.112-0.016c0.142-0.034,0.264-0.123,0.341-0.249c0.077-0.126,0.101-0.275,0.066-0.419c-0.07-0.315-0.361-0.515-0.665-0.476l-0.135,0.009H8.404c-0.167-0.012-0.28-0.015-0.382-0.009c-0.237,0.081-0.398,0.311-0.388,0.566c0.006,0.154,0.071,0.296,0.184,0.4c0.113,0.104,0.245,0.164,0.413,0.153L16.062,20.523z"/><path d="M16.892,32h-1.523c-1.871,0-3.399-1.386-3.453-3.109h-0.778c-1.455,0-2.638-1.183-2.638-2.637c0-1.403,1.142-2.544,2.544-2.544h9.796c0.7,0.006,1.308,0.255,1.79,0.73s0.75,1.11,0.754,1.787c0.035,0.656-0.196,1.311-0.652,1.818c-0.457,0.508-1.083,0.807-1.765,0.843l-0.748,0.004C20.171,30.642,18.727,32,16.892,32z M11.044,25.709c-0.3,0-0.544,0.244-0.544,0.544c0,0.352,0.286,0.637,0.638,0.637h2.776v1.907c0,0.719,0.752,1.202,1.454,1.202h1.523c0.654,0,1.33-0.45,1.33-1.202v-1.907h2.619c0.169-0.009,0.305-0.074,0.404-0.184c0.099-0.11,0.149-0.252,0.141-0.399c-0.002-0.21-0.059-0.344-0.161-0.444c-0.102-0.101-0.247-0.18-0.378-0.154H11.044z"/></svg>