<svg xmlns="http://www.w3.org/2000/svg" viewBox="0 0 32 32"><!--! Font Icona - https://fonticona.com | License - https://fonticona.com/license | Copyright 2022 FontIcona.com --><path d="M18.894,22.047h-5.787c-0.357,0-0.688-0.19-0.866-0.5l-2.894-5.012c-0.178-0.31-0.178-0.69,0-1l2.894-5.012c0.179-0.31,0.509-0.5,0.866-0.5h5.787c0.357,0,0.688,0.19,0.866,0.5l2.894,5.012c0.178,0.31,0.178,0.69,0,1l-2.894,5.012C19.581,21.856,19.251,22.047,18.894,22.047z M13.684,20.047h4.633l2.316-4.012l-2.316-4.012h-4.633l-2.316,4.012L13.684,20.047z"/><path d="M27.592,27.059h-5.787c-0.357,0-0.688-0.19-0.866-0.5l-2.894-5.012c-0.178-0.31-0.178-0.69,0-1l2.894-5.012c0.179-0.31,0.509-0.5,0.866-0.5h5.787c0.357,0,0.688,0.19,0.866,0.5l2.894,5.012c0.178,0.31,0.178,0.69,0,1l-2.894,5.012C28.279,26.868,27.949,27.059,27.592,27.059z M22.382,25.059h4.632l2.316-4.012l-2.316-4.012h-4.632l-2.316,4.012L22.382,25.059z"/><path d="M10.195,26.988H4.408c-0.357,0-0.688-0.19-0.866-0.5l-2.894-5.012c-0.178-0.31-0.178-0.69,0-1l2.894-5.012c0.179-0.31,0.509-0.5,0.866-0.5h5.787c0.357,0,0.688,0.19,0.866,0.5l2.894,5.012c0.178,0.31,0.178,0.69,0,1l-2.894,5.012C10.882,26.798,10.552,26.988,10.195,26.988z M4.985,24.988h4.632l2.316-4.012l-2.316-4.012H4.985l-2.316,4.012L4.985,24.988z"/><path d="M18.894,12.023h-5.787c-0.357,0-0.688-0.19-0.866-0.5L9.347,6.512c-0.178-0.31-0.178-0.69,0-1L12.24,0.5C12.419,0.19,12.749,0,13.106,0h5.787c0.357,0,0.688,0.19,0.866,0.5l2.894,5.012c0.178,0.31,0.178,0.69,0,1l-2.894,5.012C19.581,11.833,19.251,12.023,18.894,12.023z M13.684,10.023h4.633l2.316-4.012L18.316,2h-4.633l-2.316,4.012L13.684,10.023z"/><path d="M10.195,16.965H4.408c-0.357,0-0.688-0.19-0.866-0.5l-2.894-5.012c-0.178-0.31-0.178-0.69,0-1l2.894-5.012c0.179-0.31,0.509-0.5,0.866-0.5h5.787c0.357,0,0.688,0.19,0.866,0.5l2.894,5.012c0.178,0.31,0.178,0.69,0,1l-2.894,5.012C10.882,16.774,10.552,16.965,10.195,16.965z M4.985,14.965h4.632l2.316-4.012L9.618,6.941H4.985l-2.316,4.012L4.985,14.965z"/><path d="M27.592,16.965h-5.787c-0.357,0-0.688-0.19-0.866-0.5l-2.894-5.012c-0.178-0.31-0.178-0.69,0-1l2.894-5.012c0.179-0.31,0.509-0.5,0.866-0.5h5.787c0.357,0,0.688,0.19,0.866,0.5l2.894,5.012c0.178,0.31,0.178,0.69,0,1l-2.894,5.012C28.279,16.774,27.949,16.965,27.592,16.965z M22.382,14.965h4.632l2.316-4.012l-2.316-4.012h-4.632l-2.316,4.012L22.382,14.965z"/><path d="M18.894,32h-5.787c-0.357,0-0.688-0.19-0.866-0.5l-2.894-5.012c-0.178-0.31-0.178-0.69,0-1l2.894-5.012c0.179-0.31,0.509-0.5,0.866-0.5h5.787c0.357,0,0.688,0.19,0.866,0.5l2.894,5.012c0.178,0.31,0.178,0.69,0,1L19.76,31.5C19.581,31.81,19.251,32,18.894,32z M13.684,30h4.633l2.316-4.012l-2.316-4.012h-4.633l-2.316,4.012L13.684,30z"/></svg>