<svg xmlns="http://www.w3.org/2000/svg" viewBox="0 0 32 32"><!--! Font Icona - https://fonticona.com | License - https://fonticona.com/license | Copyright 2022 FontIcona.com --><path d="M29.986,32c-0.01,0-0.02,0-0.028,0c-0.585-0.009-1.127-0.278-1.486-0.74c-0.405-0.519-0.561-1.188-0.424-1.836l0.823-3.866c0.11-0.52,0.56-0.886,1.091-0.89c0.003,0,0.006,0,0.009,0c0.527,0,0.978,0.358,1.095,0.874l0.878,3.811v0.001c0.154,0.674-0.017,1.393-0.457,1.925C31.099,31.747,30.561,32,29.986,32z M29.115,25.988c0.001,0.002,0.001,0.003,0.001,0.005L29.115,25.988z"/><path d="M25.594,26.95c-0.007,0-0.015,0-0.021,0c-0.444-0.007-0.856-0.211-1.13-0.562c-0.294-0.378-0.405-0.861-0.308-1.327l0.411-1.937c0.099-0.462,0.567-0.841,1.04-0.841c0.498,0,0.924,0.34,1.035,0.826l0.438,1.904v0.001c0.112,0.489-0.013,1.011-0.334,1.396C26.439,26.758,26.03,26.95,25.594,26.95z"/><path d="M30,8.641c-0.255,0-0.511-0.097-0.706-0.292l-6.666-6.641c-0.391-0.39-0.393-1.022-0.002-1.414c0.39-0.392,1.022-0.394,1.414-0.002l6.666,6.641c0.391,0.39,0.393,1.022,0.002,1.414C30.513,8.543,30.257,8.641,30,8.641z"/><path d="M28.956,13.83c-0.255,0-0.511-0.097-0.705-0.291L17.415,2.752c-0.392-0.39-0.394-1.023-0.004-1.414s1.024-0.394,1.414-0.004l10.836,10.787c0.392,0.39,0.394,1.023,0.004,1.414C29.47,13.731,29.213,13.83,28.956,13.83z"/><path d="M27.088,18.206c-0.255,0-0.511-0.097-0.706-0.292L13.05,4.634c-0.391-0.39-0.393-1.022-0.002-1.414c0.389-0.389,1.021-0.394,1.414-0.002l13.332,13.28c0.391,0.39,0.393,1.022,0.002,1.414C27.601,18.107,27.345,18.206,27.088,18.206z"/><path d="M17.529,21.151c-0.255,0-0.511-0.097-0.706-0.291l-6.666-6.64c-0.391-0.391-0.393-1.023-0.003-1.415c0.392-0.389,1.023-0.393,1.415-0.003l6.666,6.64c0.391,0.391,0.393,1.023,0.003,1.415C18.042,21.054,17.786,21.151,17.529,21.151z"/><path d="M22.768,20.136c-0.255,0-0.511-0.097-0.706-0.291L11.229,9.055c-0.391-0.391-0.393-1.023-0.003-1.415c0.393-0.388,1.023-0.393,1.415-0.003l10.833,10.79c0.391,0.391,0.393,1.023,0.003,1.415C23.28,20.037,23.024,20.136,22.768,20.136z"/><path d="M1,30.987c-0.256,0-0.512-0.098-0.707-0.293c-0.391-0.391-0.391-1.023,0-1.414l13.168-13.168c0.391-0.391,1.023-0.391,1.414,0s0.391,1.023,0,1.414L1.707,30.694C1.512,30.89,1.256,30.987,1,30.987z"/></svg>