<svg xmlns="http://www.w3.org/2000/svg" viewBox="0 0 32 32"><!--! Font Icona - https://fonticona.com | License - https://fonticona.com/license | Copyright 2022 FontIcona.com --><path d="M18.608,24.211c-1.227,0-2.437-0.188-3.531-0.55c-0.005-0.002-0.01-0.003-0.015-0.005c-0.308-0.107-0.613-0.226-0.896-0.355c-0.048-0.021-0.093-0.047-0.136-0.075c-0.812-0.538-1.754-0.822-2.729-0.824c-0.471,0.074-0.947,0.243-1.451,0.421c-0.47,0.166-0.955,0.339-1.483,0.451c-3.005,0.651-5.146-0.382-5.856-2.83c-0.525-1.789-0.604-5.035,1.336-6.632c2.171-1.773,4.905-1.709,7.536-1.65c1.859,0.045,3.614,0.083,5.077-0.499c1.039-0.407,1.448-1.177,2.082-2.501l0.235-0.485c0.786-1.741,2.092-3.203,3.762-4.199c1.603-1.017,3.534-1.354,5.412-0.949c0.044,0.01,0.087,0.022,0.129,0.038c3.183,1.155,3.556,4.782,3.582,6.131c0.714,0.81,0.661,1.978,0.471,2.681c-0.055,0.412-0.254,0.776-0.581,1.062c-0.906,0.787-2.609,0.711-3.107,0.671c-0.43-0.035-0.775-0.339-0.883-0.734c-0.094-0.114-0.196-0.248-0.307-0.403c-0.032,0.075-0.063,0.149-0.095,0.222c-0.321,0.755-0.624,1.468-0.478,1.952c0.123,0.408,0.256,0.737,0.373,1.028c0.411,1.029,0.766,1.917-0.073,3.598C25.445,22.808,21.968,24.211,18.608,24.211z M15.714,21.766c3.32,1.092,7.918,0.194,9.481-2.893c0.437-0.873,0.353-1.081,0.003-1.956c-0.135-0.337-0.287-0.72-0.43-1.191c-0.357-1.179,0.126-2.314,0.552-3.315c0.341-0.802,0.664-1.559,0.425-2.028c-0.001-0.003-0.002-0.005-0.004-0.008c-0.252-0.49-0.059-1.093,0.431-1.346c0.494-0.251,1.094-0.062,1.347,0.429c0.003,0.005,0.005,0.01,0.008,0.015c0.523,1.017,1.233,2.227,1.59,2.657c0.438-0.011,0.862-0.072,1.056-0.16c0.006-0.027,0.013-0.053,0.021-0.079c0.061-0.207,0.128-0.775-0.079-0.91c-0.303-0.196-0.477-0.54-0.454-0.9c0.002-0.035,0.181-3.684-2.201-4.611c-1.344-0.274-2.713-0.021-3.872,0.713c-1.339,0.799-2.369,1.952-3.001,3.35l-0.239,0.495c-0.625,1.305-1.333,2.784-3.15,3.496c-1.838,0.731-3.88,0.684-5.858,0.64c-2.375-0.054-4.627-0.106-6.222,1.196c-0.969,0.797-1.137,2.985-0.685,4.526c0.147,0.512,0.6,2.066,3.517,1.435c0.402-0.086,0.808-0.229,1.236-0.382c0.596-0.21,1.212-0.429,1.903-0.525c0.065-0.01,0.137-0.01,0.203-0.01c1.345,0,2.646,0.383,3.773,1.11C15.271,21.604,15.492,21.688,15.714,21.766z M28.921,12.126c0.001,0,0.002,0,0.002,0S28.922,12.126,28.921,12.126z"/><path d="M26.323,28.346c-0.306,0-0.606-0.139-0.803-0.402c-0.33-0.443-0.238-1.069,0.204-1.399c1.882-1.402,2.203-2.338,2.228-2.771c0.012-0.206-0.043-0.363-0.101-0.468c-1.28-0.264-2.538-0.642-3.745-1.124c-0.513-0.206-0.762-0.788-0.557-1.301c0.206-0.513,0.789-0.762,1.301-0.557c1.196,0.479,2.449,0.845,3.724,1.086c0.163,0.03,0.315,0.102,0.444,0.206c0.099,0.079,0.962,0.819,0.935,2.162c-0.029,1.422-1.05,2.893-3.033,4.37C26.74,28.281,26.531,28.346,26.323,28.346z"/><path d="M21.987,31.382c-0.296,0-0.588-0.13-0.786-0.38c-1.063-1.348-0.618-3.098-0.293-4.375c0.104-0.409,0.259-1.016,0.238-1.247c-0.69-0.898-1.376-1.704-1.382-1.711c-0.357-0.421-0.307-1.052,0.113-1.41c0.421-0.357,1.052-0.309,1.41,0.113c0,0,0.752,0.883,1.493,1.853c0.603,0.789,0.342,1.812,0.065,2.896c-0.247,0.971-0.527,2.07-0.075,2.642c0.342,0.434,0.269,1.062-0.165,1.405C22.423,31.312,22.204,31.382,21.987,31.382z M21.191,25.439h0.011H21.191z"/><path d="M26.385,29.773c-0.531,0-0.975-0.419-0.998-0.956l-0.063-1.428c-0.024-0.551,0.403-1.019,0.955-1.043c0.507-0.033,1.019,0.402,1.043,0.955l0.063,1.428c0.024,0.551-0.403,1.019-0.955,1.043C26.415,29.773,26.4,29.773,26.385,29.773z"/><path d="M23.083,31.382h-1.097c-0.553,0-1-0.447-1-1s0.447-1,1-1h1.097c0.553,0,1,0.447,1,1S23.636,31.382,23.083,31.382z"/><path d="M27.408,2.449l3.526-0.831l-2.44,2.663c-0.374,0.454-1.046,0.519-1.5,0.145c-0.027-0.022-0.053-0.045-0.077-0.07c-0.451-0.377-0.511-1.049-0.134-1.501c0.019-0.023,0.039-0.044,0.059-0.065C26.991,2.619,27.189,2.5,27.408,2.449z"/><path d="M28.484,3.397L32,2.556L29.571,5.23c-0.409,0.456-1.11,0.494-1.566,0.085s-0.494-1.11-0.085-1.566C28.066,3.574,28.264,3.451,28.484,3.397z"/><path d="M3.439,26.631c-0.067,0-0.135-0.007-0.203-0.021c-0.541-0.112-0.889-0.642-0.777-1.182c0.308-1.486,1.053-2.824,2.156-3.869c0.401-0.38,1.033-0.363,1.413,0.038c0.38,0.4,0.363,1.033-0.038,1.413c-0.805,0.763-1.349,1.738-1.572,2.822C4.32,26.306,3.903,26.631,3.439,26.631z"/><path d="M6.039,31.382c-0.385,0-0.752-0.223-0.916-0.598c-0.306-0.693-0.427-1.37-0.534-1.967c-0.216-1.196-0.324-1.797-1.51-2.253c-0.515-0.198-0.772-0.777-0.574-1.293s0.776-0.772,1.293-0.574c2.236,0.86,2.526,2.472,2.759,3.767c0.097,0.534,0.188,1.039,0.396,1.516c0.223,0.505-0.007,1.096-0.513,1.317C6.31,31.354,6.173,31.382,6.039,31.382z"/><path d="M7.156,31.382H6.229c-0.553,0-1-0.447-1-1s0.447-1,1-1h0.927c0.553,0,1,0.447,1,1S7.709,31.382,7.156,31.382z"/><path d="M11.663,31.382h-1.278c-0.553,0-1-0.447-1-1s0.447-1,1-1h1.278c0.553,0,1,0.447,1,1S12.216,31.382,11.663,31.382z"/><path d="M5.921,13.166c-0.569,0.487-1.109,1.007-1.619,1.555c-0.202,0.234-0.415,0.469-0.618,0.735c-0.202,0.266-0.202,0.266-0.309,0.405C3.268,16,3.172,16.149,3.066,16.298c-0.107,0.149-0.426,0.586-0.661,0.906c-0.226,0.332-0.412,0.69-0.554,1.065C1.7,18.656,1.583,19.055,1.5,19.462c-0.103,0.402-0.174,0.812-0.213,1.225c-0.055,0.389-0.091,0.78-0.107,1.172v1.065c0,0.671,0.085,1.225,0.096,1.63v0.618l0,0c0.006,0.059-0.037,0.111-0.095,0.117c-0.004,0-0.007,0.001-0.011,0.001c-0.047-0.001-0.089-0.03-0.107-0.075L0.86,24.619l-0.16-0.629c-0.1-0.3-0.181-0.606-0.245-0.916l-0.234-1.14c-0.089-0.418-0.15-0.842-0.181-1.268c-0.053-0.464-0.053-0.932,0-1.396c0.023-0.493,0.098-0.982,0.224-1.46c0.089-0.498,0.214-0.99,0.373-1.47c0.165-0.474,0.391-0.925,0.671-1.342c0.267-0.406,0.598-0.765,0.98-1.065c0.325-0.265,0.683-0.487,1.065-0.661c0.57-0.259,1.185-0.404,1.811-0.426c0.237-0.012,0.474,0.013,0.703,0.075c0.058,0.009,0.098,0.063,0.089,0.121c-0.001,0.006-0.002,0.012-0.004,0.017C5.966,13.098,5.953,13.141,5.921,13.166z"/><path d="M10.001,26.631c-0.247,0-0.495-0.091-0.688-0.274l-2.749-2.61c-0.4-0.381-0.417-1.014-0.037-1.414c0.382-0.4,1.014-0.418,1.414-0.037l2.749,2.61c0.4,0.381,0.417,1.014,0.037,1.414C10.529,26.526,10.266,26.631,10.001,26.631z"/><path d="M10.385,31.382c-0.093,0-0.188-0.013-0.281-0.04c-0.529-0.155-0.834-0.711-0.679-1.241c0.802-2.739-0.108-3.74-0.118-3.75c-0.369-0.39-0.381-1.016-0.008-1.4c0.373-0.386,0.97-0.422,1.368-0.065c0.192,0.172,1.844,1.793,0.678,5.778C11.217,31.099,10.818,31.382,10.385,31.382z"/></svg>