<svg xmlns="http://www.w3.org/2000/svg" viewBox="0 0 32 32"><!--! Font Icona - https://fonticona.com | License - https://fonticona.com/license | Copyright 2022 FontIcona.com --><path d="M21.109,32H3.51c-0.267,0-0.522-0.106-0.71-0.296c-0.196-0.197-4.483-4.699,1.069-13.994c-0.19,0.092-0.401,0.208-0.633,0.355c-0.375,0.238-0.861,0.203-1.196-0.09c-0.334-0.292-0.436-0.771-0.249-1.173c0.114-0.248,2.505-5.324,6.881-8.376C8.214,8.445,7.758,8.544,7.328,8.723c-0.432,0.179-0.93,0.037-1.2-0.344C5.857,7.997,5.887,7.479,6.199,7.132c0.188-0.211,4.633-5.048,13.166-3.88c0.666-0.883,2.104-2.572,3.749-3.188c0.386-0.146,0.818-0.037,1.093,0.267c0.275,0.306,0.336,0.748,0.153,1.115c-0.586,1.179-0.998,2.604-0.916,3.111c1.017,0.318,3.636,1.56,4.374,6.004c0.203,0.657,0.426,1.316,0.649,1.974c0.339,1.173,0.786,2.271,1.343,3.307c0.732,1.003,1.127,2.188,1.144,3.436c0.065,1.252-0.643,2.453-1.805,3.022c-0.094,0.058-1.508,0.84-2.91,0.342c-0.568-0.202-1.342-0.696-1.8-1.904c-0.021-0.059-0.044-0.086-0.051-0.091c-2.82-1.524-4.209-2.649-4.884-3.464c-0.172,0.203-0.343,0.474-0.475,0.828c-0.486,1.31-0.51,3.89,2.146,8.743c0.698,1.337,1.018,2.819,0.932,4.305C22.077,31.587,21.64,32,21.109,32z M3.991,30h16.103c-0.075-0.802-0.306-1.585-0.682-2.304c-2.448-4.475-3.197-8.009-2.217-10.486c0.751-1.897,2.227-2.429,2.392-2.482c0.327-0.106,0.683-0.04,0.947,0.178c0.238,0.196,0.371,0.491,0.364,0.796c0.202,0.443,1.674,1.689,4.446,3.188c0.442,0.241,0.775,0.635,0.966,1.14c0.224,0.592,0.502,0.692,0.593,0.726c0.452,0.165,1.115-0.111,1.311-0.222c0.498-0.246,0.767-0.702,0.741-1.191c-0.012-0.885-0.285-1.688-0.791-2.363c-0.028-0.039-0.055-0.08-0.078-0.122c-0.642-1.181-1.154-2.434-1.526-3.724c-0.223-0.653-0.459-1.352-0.673-2.05c-0.014-0.044-0.024-0.089-0.031-0.135c-0.642-4.001-3.036-4.498-3.138-4.518c-0.113-0.021-0.237-0.064-0.337-0.123c-0.853-0.501-1.029-1.459-0.905-2.481c-0.37,0.428-0.662,0.822-0.822,1.062c-0.219,0.327-0.611,0.493-0.997,0.432c-4.237-0.708-7.369,0.247-9.365,1.287c0.521,0.131,1.024,0.333,1.496,0.605c0.325,0.188,0.518,0.541,0.499,0.916c-0.02,0.375-0.246,0.708-0.588,0.862c-3.131,1.409-5.462,4.339-6.799,6.397c0.796-0.036,1.309,0.24,1.45,0.333c0.224,0.147,0.379,0.38,0.431,0.644c0.052,0.263-0.005,0.536-0.157,0.758C1.313,24.852,3.241,28.904,3.991,30z"/><path d="M22.889,6.444c-0.359,0-0.707-0.194-0.887-0.535c-0.257-0.488-0.068-1.094,0.421-1.351L25.7,2.837c0.489-0.255,1.093-0.068,1.351,0.421c0.257,0.488,0.068,1.094-0.421,1.351L23.353,6.33C23.204,6.407,23.045,6.444,22.889,6.444z"/></svg>