<svg xmlns="http://www.w3.org/2000/svg" viewBox="0 0 32 32"><!--! Font Icona - https://fonticona.com | License - https://fonticona.com/license | Copyright 2022 FontIcona.com --><path d="M8.247,30.331H2c-1.103,0-2-0.897-2-2V12.726c0-1.103,0.897-2,2-2h6.247v2H2v15.605h6.247V30.331z"/><path d="M5.257,16.631H3.991c-0.553,0-1-0.448-1-1s0.447-1,1-1h1.266c0.553,0,1,0.448,1,1S5.81,16.631,5.257,16.631z"/><path d="M5.257,20.35H3.991c-0.553,0-1-0.447-1-1s0.447-1,1-1h1.266c0.553,0,1,0.447,1,1S5.81,20.35,5.257,20.35z"/><path d="M5.257,24.069H3.991c-0.553,0-1-0.447-1-1s0.447-1,1-1h1.266c0.553,0,1,0.447,1,1S5.81,24.069,5.257,24.069z"/><path d="M27.949,16.631h-1.267c-0.553,0-1-0.448-1-1s0.447-1,1-1h1.267c0.553,0,1,0.448,1,1S28.502,16.631,27.949,16.631z"/><path d="M13.71,14.57h-1.266c-0.553,0-1-0.448-1-1s0.447-1,1-1h1.266c0.553,0,1,0.448,1,1S14.263,14.57,13.71,14.57z"/><path d="M19.425,14.57h-1.267c-0.553,0-1-0.448-1-1s0.447-1,1-1h1.267c0.553,0,1,0.448,1,1S19.978,14.57,19.425,14.57z"/><path d="M13.71,18.502h-1.266c-0.553,0-1-0.447-1-1c0-0.552,0.447-1,1-1h1.266c0.553,0,1,0.448,1,1C14.71,18.055,14.263,18.502,13.71,18.502z"/><path d="M19.425,18.502h-1.267c-0.553,0-1-0.447-1-1c0-0.552,0.447-1,1-1h1.267c0.553,0,1,0.448,1,1C20.425,18.055,19.978,18.502,19.425,18.502z"/><path d="M13.71,22.435h-1.266c-0.553,0-1-0.447-1-1s0.447-1,1-1h1.266c0.553,0,1,0.447,1,1S14.263,22.435,13.71,22.435z"/><path d="M19.425,22.435h-1.267c-0.553,0-1-0.447-1-1s0.447-1,1-1h1.267c0.553,0,1,0.447,1,1S19.978,22.435,19.425,22.435z"/><path d="M27.949,20.35h-1.267c-0.553,0-1-0.447-1-1s0.447-1,1-1h1.267c0.553,0,1,0.447,1,1S28.502,20.35,27.949,20.35z"/><path d="M27.949,24.069h-1.267c-0.553,0-1-0.447-1-1s0.447-1,1-1h1.267c0.553,0,1,0.447,1,1S28.502,24.069,27.949,24.069z"/><path d="M30,30.331h-6.368v-2H30V12.726h-6.368v-2H30c1.103,0,2,0.897,2,2v15.605C32,29.434,31.103,30.331,30,30.331z"/><path d="M22.632,32H9.247c-1.103,0-2-0.897-2-2V7.266c0-1.103,0.897-2,2-2h1.563v2H9.247V30h13.385V7.266h-2.124v-2h2.124c1.103,0,2,0.897,2,2V30C24.632,31.103,23.734,32,22.632,32z"/><path d="M18.736,31.633c-0.553,0-1-0.447-1-1v-4.516h-3.715v4.516c0,0.553-0.447,1-1,1s-1-0.447-1-1v-5.516c0-0.553,0.447-1,1-1h5.715c0.553,0,1,0.447,1,1v5.516C19.736,31.186,19.289,31.633,18.736,31.633z"/><path d="M15.87,7.802c-0.553,0-1-0.448-1-1V3.809c0-0.552,0.447-1,1-1s1,0.448,1,1v2.993C16.87,7.354,16.423,7.802,15.87,7.802z"/><path d="M17.452,6.305h-3.164c-0.553,0-1-0.448-1-1s0.447-1,1-1h3.164c0.553,0,1,0.448,1,1S18.005,6.305,17.452,6.305z"/><path d="M15.939,10.61c-3.061,0-5.551-2.38-5.551-5.305S12.879,0,15.939,0s5.551,2.38,5.551,5.305S19,10.61,15.939,10.61z M15.939,2c-1.958,0-3.551,1.483-3.551,3.305s1.593,3.305,3.551,3.305s3.551-1.483,3.551-3.305S17.897,2,15.939,2z"/><path d="M18.736,26.117h-5.715c-0.553,0-1-0.447-1-1s0.447-1,1-1h5.715c0.553,0,1,0.447,1,1S19.289,26.117,18.736,26.117z"/></svg>