<svg xmlns="http://www.w3.org/2000/svg" viewBox="0 0 32 32"><!--! Font Icona - https://fonticona.com | License - https://fonticona.com/license | Copyright 2022 FontIcona.com --><path d="M29,32H3c-1.654,0-3-1.346-3-3V3c0-1.654,1.346-3,3-3h26c1.654,0,3,1.346,3,3v26C32,30.654,30.654,32,29,32z M3,2C2.448,2,2,2.449,2,3v26c0,0.552,0.448,1,1,1h26c0.552,0,1-0.448,1-1V3c0-0.551-0.448-1-1-1H3z"/><path d="M9.255,26.144c-0.553,0-1-0.447-1-1V6.857c0-0.552,0.447-1,1-1s1,0.448,1,1v18.287C10.255,25.696,9.808,26.144,9.255,26.144z"/><path d="M22.745,26.144c-0.553,0-1-0.447-1-1V6.857c0-0.552,0.447-1,1-1s1,0.448,1,1v18.287C23.745,25.696,23.298,26.144,22.745,26.144z"/><path d="M22.745,15.913H9.255c-0.553,0-1-0.448-1-1s0.447-1,1-1h13.49c0.553,0,1,0.448,1,1S23.298,15.913,22.745,15.913z"/></svg>