<svg xmlns="http://www.w3.org/2000/svg" viewBox="0 0 32 32"><!--! Font Icona - https://fonticona.com | License - https://fonticona.com/license | Copyright 2022 FontIcona.com --><path d="M18.355,32h-11.8c-2.39,0-4.333-1.943-4.333-4.333V12.5c0-1.654,1.346-3,3-3h14.466c1.654,0,3,1.346,3,3v15.167C22.688,30.057,20.745,32,18.355,32z M5.223,11.5c-0.552,0-1,0.448-1,1v15.167C4.223,28.953,5.27,30,6.556,30h11.8c1.286,0,2.333-1.047,2.333-2.333V12.5c0-0.552-0.448-1-1-1H5.223z"/><path d="M22.232,27.428c-0.11,0-0.22-0.002-0.332-0.007l0.088-1.998c3.062,0.129,5.652-2.245,5.79-5.301c-0.075-1.424-0.723-2.789-1.823-3.784c-1.1-0.996-2.516-1.505-4.005-1.428l-0.1-1.998c2.002-0.09,3.949,0.589,5.446,1.942s2.377,3.21,2.479,5.226l0.002,0.047l-0.001,0.085C29.595,24.257,26.243,27.428,22.232,27.428z"/><path d="M10.343,7.284c-0.26,0-0.521-0.101-0.716-0.302c-0.591-0.606-0.869-1.55-0.764-2.589C8.938,3.745,9.27,3.328,9.487,3.052c0.094-0.118,0.175-0.22,0.207-0.298C9.85,2.439,9.733,1.974,9.453,1.57C9.137,1.117,9.249,0.494,9.702,0.179c0.452-0.317,1.076-0.205,1.392,0.249c0.731,1.05,0.888,2.229,0.419,3.155c-0.105,0.267-0.301,0.514-0.457,0.711c-0.137,0.172-0.196,0.253-0.204,0.315c-0.042,0.415,0.039,0.804,0.207,0.977C11.444,5.981,11.437,6.615,11.041,7C10.847,7.189,10.595,7.284,10.343,7.284z"/><path d="M14.636,7.284c-0.26,0-0.521-0.101-0.716-0.302c-0.591-0.606-0.869-1.55-0.764-2.589c0.075-0.648,0.406-1.065,0.624-1.342c0.094-0.118,0.175-0.22,0.207-0.298c0.155-0.314,0.039-0.78-0.241-1.184c-0.316-0.453-0.204-1.076,0.249-1.392c0.453-0.317,1.076-0.205,1.392,0.249c0.731,1.05,0.888,2.229,0.419,3.155C15.7,3.85,15.505,4.097,15.349,4.294c-0.137,0.172-0.196,0.253-0.204,0.315c-0.042,0.415,0.039,0.804,0.207,0.977C15.737,5.981,15.729,6.615,15.334,7C15.14,7.189,14.888,7.284,14.636,7.284z"/></svg>