<svg xmlns="http://www.w3.org/2000/svg" viewBox="0 0 32 32"><!--! Font Icona - https://fonticona.com | License - https://fonticona.com/license | Copyright 2022 FontIcona.com --><path d="M9.289,11.933c-0.26,0-0.521-0.101-0.716-0.302c-0.822-0.844-1.207-2.181-1.057-3.67C7.617,7.101,8.045,6.56,8.39,6.125c0.18-0.227,0.334-0.422,0.417-0.627C9.21,4.696,8.812,3.679,8.358,3.027C8.042,2.574,8.154,1.951,8.607,1.636C9.06,1.317,9.683,1.432,10,1.885c0.805,1.157,1.393,2.932,0.625,4.442c-0.156,0.394-0.428,0.736-0.667,1.039C9.682,7.715,9.536,7.909,9.505,8.177c-0.088,0.871,0.099,1.646,0.5,2.058c0.386,0.396,0.378,1.029-0.018,1.414C9.793,11.838,9.541,11.933,9.289,11.933z"/><path d="M14.663,11.933c-0.26,0-0.521-0.101-0.716-0.302c-0.823-0.845-1.208-2.183-1.057-3.671c0.101-0.859,0.528-1.4,0.873-1.835c0.179-0.227,0.334-0.422,0.417-0.627c0.403-0.802,0.004-1.819-0.449-2.471c-0.315-0.452-0.204-1.076,0.248-1.392c0.455-0.315,1.077-0.203,1.393,0.248c0.806,1.156,1.394,2.931,0.627,4.442c-0.156,0.395-0.428,0.737-0.667,1.04c-0.276,0.349-0.422,0.543-0.453,0.811c-0.088,0.87,0.098,1.646,0.5,2.058c0.386,0.396,0.378,1.029-0.018,1.414C15.167,11.838,14.915,11.933,14.663,11.933z"/><path d="M19.704,11.933c-0.26,0-0.52-0.101-0.716-0.302c-0.823-0.844-1.208-2.182-1.057-3.671c0.1-0.859,0.528-1.4,0.872-1.836c0.18-0.226,0.334-0.421,0.417-0.626c0.403-0.802,0.005-1.819-0.448-2.471c-0.316-0.453-0.204-1.076,0.249-1.392c0.453-0.318,1.075-0.204,1.393,0.249c0.805,1.157,1.393,2.932,0.625,4.442c-0.156,0.393-0.428,0.736-0.667,1.038c-0.275,0.349-0.421,0.543-0.452,0.811c-0.089,0.872,0.098,1.646,0.5,2.059c0.386,0.396,0.378,1.028-0.018,1.414C20.208,11.838,19.956,11.933,19.704,11.933z"/><rect x="4.163" y="23.384" width="21.068" height="2"/><path d="M23.743,17.056c-0.256,0-0.512-0.098-0.707-0.293c-0.391-0.391-0.391-1.023,0-1.414l7.257-7.257c0.391-0.391,1.023-0.391,1.414,0s0.391,1.023,0,1.414l-7.257,7.257C24.255,16.958,23.999,17.056,23.743,17.056z"/><path d="M14.442,30.544c-7.459,0-13.8-5.814-14.435-13.237c-0.05-0.579,0.146-1.156,0.539-1.584c0.389-0.424,0.941-0.667,1.516-0.667h24.76c0.574,0,1.126,0.243,1.515,0.667c0.393,0.428,0.589,1.005,0.539,1.585C28.241,24.729,21.9,30.544,14.442,30.544z M2.062,17.056L2,17.137c0.548,6.396,6.013,11.407,12.442,11.407c6.429,0,11.894-5.011,12.441-11.407l-0.062-0.081H2.062z"/></svg>