<svg xmlns="http://www.w3.org/2000/svg" viewBox="0 0 32 32"><!--! Font Icona - https://fonticona.com | License - https://fonticona.com/license | Copyright 2022 FontIcona.com --><path d="M16.196,31.133h-5.548c-1.018,0-1.872-0.763-1.987-1.773l-0.02-0.165c-5.101-2.111-8.7-7.778-8.641-13.737c0.006-0.552,0.442-0.98,1.01-0.99c0.553,0.006,0.996,0.458,0.99,1.01c-0.053,5.271,3.343,10.455,7.897,12.058c0.361,0.127,0.618,0.449,0.661,0.83l0.088,0.769h5.549l0.088-0.769c0.043-0.381,0.3-0.703,0.661-0.83c4.555-1.603,7.95-6.786,7.898-12.058c-0.005-0.552,0.438-1.004,0.99-1.01c0.572-0.006,1.004,0.439,1.01,0.99c0.059,5.959-3.542,11.626-8.642,13.737l-0.02,0.165C18.067,30.37,17.214,31.133,16.196,31.133z"/><path d="M22.368,25.899c-0.479,0-0.903-0.346-0.985-0.835c-0.091-0.544,0.276-1.06,0.821-1.151c1.174-0.196,2.741-0.25,3.748-0.217c1.341-0.25,2.508-1.06,3.212-2.233c0.623-0.911,1.046-2.318,0.729-2.916c-0.13-0.249-0.32-0.386-0.604-0.437c-0.493-0.093-1.162,0.126-1.586,0.51c-0.263,0.238-0.497,0.533-0.744,0.845c-0.354,0.447-0.72,0.909-1.229,1.286c-0.443,0.328-1.071,0.237-1.398-0.207c-0.329-0.443-0.236-1.07,0.207-1.398c0.298-0.221,0.567-0.562,0.854-0.923c0.273-0.345,0.583-0.735,0.969-1.085c0.888-0.804,2.175-1.195,3.281-0.996c0.89,0.159,1.607,0.683,2.021,1.473c0.885,1.667-0.146,3.954-0.816,4.929c-0.989,1.654-2.7,2.818-4.661,3.143c-0.067,0.011-0.135,0.016-0.203,0.013c-1.086-0.041-2.538,0.035-3.447,0.188C22.479,25.896,22.423,25.899,22.368,25.899z"/><path d="M25.844,16.467H1.001c-0.553,0-1-0.447-1-1s0.447-1,1-1h24.843c0.553,0,1,0.447,1,1S26.396,16.467,25.844,16.467z"/><path d="M8.27,11.344c-0.26,0-0.521-0.101-0.716-0.302C6.73,10.197,6.346,8.859,6.497,7.371c0.101-0.859,0.528-1.4,0.873-1.835C7.55,5.31,7.704,5.114,7.787,4.909c0.402-0.802,0.004-1.819-0.45-2.471c-0.315-0.453-0.203-1.076,0.25-1.392C8.04,0.729,8.664,0.843,8.979,1.296c0.805,1.157,1.393,2.932,0.626,4.441c-0.156,0.395-0.428,0.737-0.667,1.04C8.662,7.126,8.517,7.32,8.485,7.588c-0.088,0.87,0.098,1.646,0.5,2.058c0.386,0.396,0.378,1.029-0.018,1.414C8.773,11.249,8.521,11.344,8.27,11.344z"/><path d="M13.644,11.344c-0.26,0-0.52-0.101-0.716-0.302c-0.823-0.844-1.208-2.182-1.057-3.671c0.1-0.859,0.528-1.4,0.872-1.836c0.18-0.226,0.334-0.421,0.417-0.626c0.403-0.802,0.005-1.819-0.448-2.471c-0.316-0.453-0.204-1.076,0.249-1.392c0.452-0.317,1.075-0.204,1.393,0.249c0.805,1.157,1.393,2.932,0.625,4.442c-0.156,0.393-0.428,0.736-0.667,1.038c-0.275,0.349-0.421,0.543-0.452,0.811c-0.089,0.872,0.098,1.646,0.5,2.059c0.386,0.396,0.378,1.028-0.018,1.414C14.147,11.249,13.896,11.344,13.644,11.344z"/><path d="M18.684,11.344c-0.26,0-0.521-0.101-0.716-0.302c-0.823-0.845-1.208-2.183-1.057-3.671c0.101-0.859,0.528-1.4,0.873-1.835c0.179-0.227,0.334-0.422,0.417-0.627c0.403-0.802,0.004-1.819-0.449-2.471C17.437,1.986,17.548,1.362,18,1.047c0.455-0.315,1.077-0.204,1.393,0.248c0.807,1.157,1.395,2.933,0.627,4.443c-0.156,0.394-0.428,0.736-0.667,1.039c-0.276,0.349-0.422,0.543-0.453,0.811c-0.088,0.87,0.098,1.646,0.5,2.058c0.386,0.396,0.378,1.029-0.018,1.414C19.188,11.249,18.936,11.344,18.684,11.344z"/></svg>