<svg xmlns="http://www.w3.org/2000/svg" viewBox="0 0 32 32"><!--! Font Icona - https://fonticona.com | License - https://fonticona.com/license | Copyright 2022 FontIcona.com --><path d="M27.5,32h-23c-1.103,0-2-0.897-2-2V5c0-1.103,0.897-2,2-2h23c1.103,0,2,0.897,2,2v25C29.5,31.103,28.603,32,27.5,32z M4.5,5v25h23V5H4.5z"/><path d="M21.179,32c-0.553,0-1-0.447-1-1v-4.034h-8.357V31c0,0.553-0.447,1-1,1s-1-0.447-1-1v-5.034c0-0.553,0.447-1,1-1h10.357c0.553,0,1,0.447,1,1V31C22.179,31.553,21.731,32,21.179,32z"/><path d="M8.445,9.738H7.18c-0.553,0-1-0.448-1-1s0.447-1,1-1h1.266c0.553,0,1,0.448,1,1S8.998,9.738,8.445,9.738z"/><path d="M13.903,9.738h-1.266c-0.553,0-1-0.448-1-1s0.447-1,1-1h1.266c0.553,0,1,0.448,1,1S14.456,9.738,13.903,9.738z"/><path d="M19.362,9.738h-1.266c-0.553,0-1-0.448-1-1s0.447-1,1-1h1.266c0.553,0,1,0.448,1,1S19.915,9.738,19.362,9.738z"/><path d="M24.82,9.738h-1.266c-0.553,0-1-0.448-1-1s0.447-1,1-1h1.266c0.553,0,1,0.448,1,1S25.373,9.738,24.82,9.738z"/><path d="M8.445,13.901H7.18c-0.553,0-1-0.448-1-1s0.447-1,1-1h1.266c0.553,0,1,0.448,1,1S8.998,13.901,8.445,13.901z"/><path d="M13.903,13.901h-1.266c-0.553,0-1-0.448-1-1s0.447-1,1-1h1.266c0.553,0,1,0.448,1,1S14.456,13.901,13.903,13.901z"/><path d="M19.362,13.901h-1.266c-0.553,0-1-0.448-1-1s0.447-1,1-1h1.266c0.553,0,1,0.448,1,1S19.915,13.901,19.362,13.901z"/><path d="M24.82,13.901h-1.266c-0.553,0-1-0.448-1-1s0.447-1,1-1h1.266c0.553,0,1,0.448,1,1S25.373,13.901,24.82,13.901z"/><path d="M8.445,18.064H7.18c-0.553,0-1-0.447-1-1c0-0.552,0.447-1,1-1h1.266c0.553,0,1,0.448,1,1C9.445,17.617,8.998,18.064,8.445,18.064z"/><path d="M13.903,18.064h-1.266c-0.553,0-1-0.447-1-1c0-0.552,0.447-1,1-1h1.266c0.553,0,1,0.448,1,1C14.903,17.617,14.456,18.064,13.903,18.064z"/><path d="M19.362,18.064h-1.266c-0.553,0-1-0.447-1-1c0-0.552,0.447-1,1-1h1.266c0.553,0,1,0.448,1,1C20.362,17.617,19.915,18.064,19.362,18.064z"/><path d="M24.82,18.064h-1.266c-0.553,0-1-0.447-1-1c0-0.552,0.447-1,1-1h1.266c0.553,0,1,0.448,1,1C25.82,17.617,25.373,18.064,24.82,18.064z"/><path d="M8.445,22.228H7.18c-0.553,0-1-0.447-1-1s0.447-1,1-1h1.266c0.553,0,1,0.447,1,1S8.998,22.228,8.445,22.228z"/><path d="M13.903,22.228h-1.266c-0.553,0-1-0.447-1-1s0.447-1,1-1h1.266c0.553,0,1,0.447,1,1S14.456,22.228,13.903,22.228z"/><path d="M19.362,22.228h-1.266c-0.553,0-1-0.447-1-1s0.447-1,1-1h1.266c0.553,0,1,0.447,1,1S19.915,22.228,19.362,22.228z"/><path d="M24.82,22.228h-1.266c-0.553,0-1-0.447-1-1s0.447-1,1-1h1.266c0.553,0,1,0.447,1,1S25.373,22.228,24.82,22.228z"/><path d="M31,5H1C0.447,5,0,4.552,0,4V1c0-0.552,0.447-1,1-1h30c0.553,0,1,0.448,1,1v3C32,4.552,31.553,5,31,5z M2,3h28V2H2V3z"/><path d="M16,32c-0.553,0-1-0.447-1-1v-5.034c0-0.553,0.447-1,1-1s1,0.447,1,1V31C17,31.553,16.553,32,16,32z"/></svg>