<svg xmlns="http://www.w3.org/2000/svg" viewBox="0 0 32 32"><!--! Font Icona - https://fonticona.com | License - https://fonticona.com/license | Copyright 2022 FontIcona.com --><path d="M8.569,20.827H3.265c-0.53,0-0.969-0.414-0.998-0.943c-0.065-1.159,0.035-2.447,0.282-3.627c0.217-1.038,0.602-2.073,1.112-2.993c1.944-3.499,5.124-5.339,8.486-7.065c1.369-0.702,2.36-1.409,2.749-2.582c0.055-0.184,0.374-1.587,0.649-2.832C15.647,0.326,16.054,0,16.522,0h5.323c0.53,0,0.969,0.414,0.998,0.943c0.063,1.117-0.043,2.405-0.3,3.627c-0.217,1.038-0.602,2.073-1.112,2.993c-1.944,3.5-5.124,5.339-8.487,7.065c-1.369,0.702-2.36,1.41-2.749,2.582c-0.053,0.18-0.373,1.585-0.649,2.832C9.444,20.501,9.038,20.827,8.569,20.827z M4.252,18.827h3.516c0.214-0.953,0.462-2.04,0.528-2.243c0.639-1.927,2.173-2.934,3.735-3.734c3.078-1.58,5.98-3.248,7.652-6.257c0.414-0.747,0.727-1.588,0.903-2.432C20.737,3.44,20.828,2.699,20.854,2h-3.53c-0.213,0.954-0.462,2.043-0.53,2.247c-0.637,1.923-2.171,2.93-3.733,3.73c-3.078,1.58-5.979,3.248-7.651,6.257c-0.414,0.747-0.727,1.588-0.903,2.432C4.359,17.366,4.272,18.109,4.252,18.827z"/><path d="M15.461,32h-5.305c-0.53,0-0.968-0.414-0.998-0.943c-0.066-1.153,0.033-2.441,0.281-3.626c0.219-1.042,0.604-2.077,1.112-2.994c1.945-3.501,5.125-5.34,8.487-7.065c1.369-0.702,2.36-1.41,2.749-2.582c0.054-0.18,0.373-1.585,0.649-2.832c0.102-0.458,0.508-0.784,0.977-0.784h5.322c0.53,0,0.968,0.414,0.998,0.943c0.063,1.111-0.042,2.399-0.299,3.626c-0.218,1.04-0.603,2.075-1.113,2.994c-1.944,3.501-5.124,5.34-8.486,7.065c-1.369,0.702-2.36,1.409-2.749,2.582c-0.053,0.18-0.373,1.585-0.649,2.832C16.336,31.674,15.93,32,15.461,32z M11.143,30h3.517c0.214-0.953,0.462-2.04,0.528-2.243c0.639-1.927,2.173-2.934,3.735-3.734c3.077-1.58,5.979-3.247,7.651-6.257c0.414-0.746,0.727-1.587,0.904-2.433c0.15-0.722,0.241-1.463,0.267-2.16h-3.529c-0.214,0.953-0.462,2.04-0.528,2.243c-0.639,1.927-2.173,2.934-3.735,3.734c-3.077,1.58-5.979,3.247-7.652,6.258c-0.413,0.743-0.726,1.585-0.903,2.432C11.25,28.542,11.164,29.284,11.143,30z"/></svg>