<svg xmlns="http://www.w3.org/2000/svg" viewBox="0 0 32 32"><!--! Font Icona - https://fonticona.com | License - https://fonticona.com/license | Copyright 2022 FontIcona.com --><path d="M23.2,28.122H8.978c-0.059,0-0.117-0.005-0.175-0.016c-1.095-0.194-1.289-1.369-0.743-4.489c0.184-1.227,0.599-2.414,1.229-3.506c0.738-1.076,1.604-1.937,2.614-2.626l0.334-0.257c0.579-0.464,1.417-1.135,1.271-1.562c-0.131-0.369-0.836-0.783-1.403-1.116c-0.451-0.24-0.914-0.55-1.341-0.9C8.673,11.61,7.608,8.85,7.779,6.018C7.784,5.882,7.8,5.721,7.815,5.561c0.014-0.142,0.029-0.281,0.029-0.416V4.878c0-0.553,0.447-1,1-1h14.399c0.553,0,1,0.447,1,1v0.167c0.067,0.365,0.067,0.718,0.067,1.033c0.168,2.767-0.892,5.526-2.91,7.513c-0.023,0.023-0.049,0.046-0.075,0.066c-0.429,0.345-0.892,0.651-1.375,0.912l-0.162,0.104c-0.461,0.287-1.092,0.68-1.197,0.992c-0.154,0.438,0.745,1.146,1.282,1.571l0.367,0.29c0.955,0.651,1.822,1.51,2.522,2.513c0.674,1.169,1.088,2.354,1.28,3.598c0.001,0.008,0.002,0.016,0.004,0.024c0.451,2.852,0.529,4.187-0.637,4.438C23.342,28.114,23.271,28.122,23.2,28.122z M9.775,26.122h12.563c-0.025-0.399-0.093-1.047-0.256-2.077c-0.006-0.039-0.011-0.073-0.015-0.104h-0.001c-0.154-1-0.488-1.954-0.991-2.834c-0.514-0.728-1.209-1.416-2.019-1.971l-0.421-0.329c-0.96-0.758-2.562-2.022-1.935-3.796c0.33-0.979,1.272-1.565,2.03-2.037l0.211-0.132c0.419-0.228,0.769-0.457,1.091-0.713c1.583-1.578,2.413-3.76,2.279-5.992c-0.001-0.092-0.001-0.179-0.002-0.26H9.794C9.786,5.957,9.779,6.037,9.776,6.115c-0.137,2.275,0.71,4.471,2.323,6.048c0.261,0.21,0.613,0.446,0.982,0.644c0.928,0.543,1.938,1.136,2.316,2.205c0.601,1.767-0.956,3.014-1.887,3.758l-0.438,0.336c-0.851,0.582-1.541,1.27-2.096,2.073c-0.462,0.807-0.795,1.758-0.944,2.759C9.896,24.732,9.799,25.574,9.775,26.122z M24.056,23.789h0.01H24.056z"/><path d="M24.822,5.855H7.178c-1.164,0-2.111-0.947-2.111-2.111V2.111C5.066,0.947,6.014,0,7.178,0h17.645c1.164,0,2.111,0.947,2.111,2.111v1.633C26.934,4.908,25.986,5.855,24.822,5.855z M7.178,2C7.116,2,7.066,2.05,7.066,2.111v1.633c0,0.062,0.05,0.111,0.111,0.111h17.645c0.062,0,0.111-0.05,0.111-0.111V2.111C24.934,2.05,24.884,2,24.822,2H7.178z"/><path d="M24.822,32H7.178c-1.164,0-2.111-0.947-2.111-2.111v-1.633c0-1.164,0.947-2.111,2.111-2.111h17.645c1.164,0,2.111,0.947,2.111,2.111v1.633C26.934,31.053,25.986,32,24.822,32z M7.178,28.145c-0.062,0-0.111,0.05-0.111,0.111v1.633C7.066,29.95,7.116,30,7.178,30h17.645c0.062,0,0.111-0.05,0.111-0.111v-1.633c0-0.062-0.05-0.111-0.111-0.111H7.178z"/></svg>