<svg xmlns="http://www.w3.org/2000/svg" viewBox="0 0 32 32"><!--! Font Icona - https://fonticona.com | License - https://fonticona.com/license | Copyright 2022 FontIcona.com --><path d="M11.691,31.796H6.024c-1.103,0-2-0.897-2-2V18.073c0-0.553,0.448-1,1-1s1,0.447,1,1v11.723h5.667v-9.367c0-0.553,0.448-1,1-1s1,0.447,1,1v9.367C13.691,30.899,12.794,31.796,11.691,31.796z"/><path d="M20.924,21.429H11.08c-0.552,0-1-0.447-1-1s0.448-1,1-1h9.844c0.553,0,1,0.447,1,1S21.476,21.429,20.924,21.429z"/><path d="M25.979,31.796h-5.667c-1.103,0-2-0.897-2-2v-9.367c0-0.553,0.447-1,1-1s1,0.447,1,1v9.367h5.667V18.073c0-0.553,0.447-1,1-1s1,0.447,1,1v11.723C27.979,30.899,27.082,31.796,25.979,31.796z"/><path d="M29.163,19.073h-2.184c-0.553,0-1-0.447-1-1s0.447-1,1-1h2.184c0.498,0,0.707-0.374,0.76-0.488c0.053-0.115,0.197-0.518-0.129-0.894L16.016,2.206L2.154,15.75c-0.271,0.317-0.126,0.72-0.074,0.834c0.052,0.115,0.262,0.489,0.76,0.489h2.184c0.552,0,1,0.447,1,1s-0.448,1-1,1H2.841c-1.125,0-2.113-0.636-2.58-1.658c-0.467-1.023-0.299-2.186,0.438-3.035L14.587,0.777c0.779-0.765,2.047-0.764,2.829,0l13.832,13.544c0.793,0.908,0.961,2.071,0.494,3.094C31.276,18.438,30.287,19.073,29.163,19.073z"/></svg>