<svg xmlns="http://www.w3.org/2000/svg" viewBox="0 0 32 32"><!--! Font Icona - https://fonticona.com | License - https://fonticona.com/license | Copyright 2022 FontIcona.com --><path d="M15.396,31.778c-0.081,0-0.162-0.01-0.243-0.029c-0.536-0.134-0.862-0.677-0.729-1.213l2.143-8.595l-4.037-2.666c-0.405-0.267-0.559-0.786-0.366-1.231l2.289-5.282L8.78,8.002C8.356,7.647,8.301,7.017,8.656,6.593s0.985-0.479,1.409-0.124l6.246,5.238c0.339,0.284,0.451,0.758,0.275,1.164l-2.252,5.197l3.927,2.594c0.354,0.233,0.522,0.664,0.42,1.076l-2.314,9.281C16.252,31.474,15.844,31.778,15.396,31.778z"/><path d="M29.163,19.075h-2.184c-0.553,0-1-0.447-1-1s0.447-1,1-1h2.184c0.498,0,0.707-0.374,0.76-0.488c0.053-0.115,0.197-0.518-0.129-0.894L16.016,2.208L2.154,15.752c-0.271,0.317-0.126,0.72-0.074,0.834c0.052,0.115,0.262,0.489,0.76,0.489h2.184c0.552,0,1,0.447,1,1s-0.448,1-1,1H2.841c-1.125,0-2.113-0.636-2.58-1.658c-0.467-1.023-0.299-2.186,0.438-3.035L14.587,0.779c0.779-0.765,2.047-0.764,2.829,0l13.832,13.544c0.793,0.908,0.961,2.071,0.494,3.094C31.276,18.44,30.287,19.075,29.163,19.075z"/><path d="M11.692,31.794H6.025c-1.103,0-2-0.897-2-2V18.075c0-0.553,0.448-1,1-1s1,0.447,1,1v11.719h5.667c0.552,0,1,0.447,1,1S12.244,31.794,11.692,31.794z"/><path d="M25.979,31.794H9.2c-0.552,0-1-0.447-1-1s0.448-1,1-1h16.779V18.075c0-0.553,0.447-1,1-1s1,0.447,1,1v11.719C27.979,30.897,27.082,31.794,25.979,31.794z"/></svg>