<svg xmlns="http://www.w3.org/2000/svg" viewBox="0 0 32 32"><!--! Font Icona - https://fonticona.com | License - https://fonticona.com/license | Copyright 2022 FontIcona.com --><path d="M29.979,14.613h-1.026c-0.553,0-1-0.448-1-1s0.447-1,1-1h1.026l-7.363-7.479l-3.13,3.482c-0.362,0.418-0.995,0.462-1.41,0.102c-0.418-0.361-0.463-0.993-0.102-1.41l3.056-3.53c0.383-0.443,0.939-0.697,1.525-0.698h0.001c0.586,0,1.142,0.253,1.525,0.695l7.378,7.447c0.569,0.653,0.689,1.481,0.356,2.21C31.483,14.16,30.779,14.613,29.979,14.613z"/><path d="M28.952,22.015c-0.553,0-1-0.448-1-1v-7.402c0-0.552,0.447-1,1-1s1,0.448,1,1v7.402C29.952,21.567,29.505,22.015,28.952,22.015z"/><path d="M25.008,16.547c-0.553,0-1-0.448-1-1v-0.934h-0.935c-0.553,0-1-0.448-1-1s0.447-1,1-1h0.935c1.103,0,2,0.897,2,2v0.934C26.008,16.099,25.561,16.547,25.008,16.547z"/><path d="M3.05,14.559H2.021c-0.801,0-1.505-0.453-1.837-1.182c-0.333-0.729-0.213-1.557,0.312-2.162l7.467-7.542c0.34-0.394,0.896-0.647,1.481-0.647c0,0,0.001,0,0.002,0c0.586,0,1.143,0.255,1.526,0.699l3.045,3.528c0.361,0.418,0.314,1.049-0.104,1.41c-0.417,0.36-1.051,0.314-1.41-0.104L9.46,5.032l-7.497,7.542l1.087-0.016c0.553,0,1,0.448,1,1S3.603,14.559,3.05,14.559z"/><path d="M3.05,21.961c-0.553,0-1-0.448-1-1v-7.402c0-0.552,0.447-1,1-1s1,0.448,1,1v7.402C4.05,21.513,3.603,21.961,3.05,21.961z"/><path d="M6.994,16.493c-0.553,0-1-0.448-1-1v-0.935c0-1.103,0.897-2,2-2h0.923c0.553,0,1,0.448,1,1s-0.447,1-1,1H7.994v0.935C7.994,16.045,7.547,16.493,6.994,16.493z"/><path d="M23.86,21.787h-1.658c-0.553,0-1-0.448-1-1s0.447-1,1-1h0.71L16,12.196l-6.912,7.591h0.71c0.553,0,1,0.448,1,1s-0.447,1-1,1H8.14c-0.652,0-1.236-0.377-1.488-0.961c-0.245-0.569-0.132-1.205,0.298-1.661l7.848-8.618c0.635-0.672,1.784-0.658,2.394-0.014l7.872,8.645c0.418,0.443,0.531,1.079,0.286,1.648C25.097,21.41,24.513,21.787,23.86,21.787z M23.586,20.527c0.003,0.003,0.007,0.007,0.01,0.01L23.586,20.527z M8.424,20.516l-0.008,0.009C8.419,20.521,8.422,20.519,8.424,20.516z"/><path d="M18.436,28.975h-8.073c-0.862,0-1.564-0.702-1.564-1.565v-6.623c0-0.552,0.447-1,1-1s1,0.448,1,1v6.188h7.638c0.553,0,1,0.448,1,1S18.988,28.975,18.436,28.975z"/><path d="M21.638,28.975h-3.202c-0.553,0-1-0.448-1-1s0.447-1,1-1h2.767v-6.188c0-0.552,0.447-1,1-1s1,0.448,1,1v6.623C23.202,28.272,22.5,28.975,21.638,28.975z"/><path d="M17.814,26.545h-3.629c-0.862,0-1.564-0.702-1.564-1.565v-3.628c0-0.863,0.702-1.565,1.564-1.565h3.629c0.862,0,1.564,0.702,1.564,1.565v3.628C19.379,25.843,18.677,26.545,17.814,26.545z M14.621,24.545h2.758v-2.758h-2.758V24.545z M17.814,21.787h0.01H17.814z"/></svg>