<svg xmlns="http://www.w3.org/2000/svg" viewBox="0 0 32 32"><!--! Font Icona - https://fonticona.com | License - https://fonticona.com/license | Copyright 2022 FontIcona.com --><path d="M19.213,27.699h-6.422c-1.103,0-2-0.897-2-2v-6.422c0-1.103,0.897-2,2-2h6.422c1.103,0,2,0.897,2,2v6.422C21.213,26.802,20.315,27.699,19.213,27.699z M12.791,19.278h-0.001l0.001,6.422h6.422v-6.422H12.791z"/><path d="M29.163,19.075h-2.184c-0.553,0-1-0.447-1-1s0.447-1,1-1h2.184c0.498,0,0.707-0.374,0.76-0.488c0.053-0.115,0.197-0.518-0.129-0.894L16.016,2.208L2.154,15.752c-0.271,0.317-0.126,0.72-0.074,0.834c0.052,0.115,0.262,0.489,0.76,0.489h2.184c0.552,0,1,0.447,1,1s-0.448,1-1,1H2.841c-1.125,0-2.113-0.636-2.58-1.658c-0.467-1.023-0.299-2.186,0.438-3.035L14.587,0.779c0.779-0.765,2.047-0.764,2.829,0l13.832,13.544c0.793,0.908,0.961,2.071,0.494,3.094C31.276,18.44,30.287,19.075,29.163,19.075z"/><path d="M11.692,31.794H6.025c-1.103,0-2-0.897-2-2V18.075c0-0.553,0.448-1,1-1s1,0.447,1,1v11.719h5.667c0.552,0,1,0.447,1,1S12.244,31.794,11.692,31.794z"/><path d="M25.979,31.794H9.2c-0.552,0-1-0.447-1-1s0.448-1,1-1h16.779V18.075c0-0.553,0.447-1,1-1s1,0.447,1,1v11.719C27.979,30.897,27.082,31.794,25.979,31.794z"/></svg>