<svg xmlns="http://www.w3.org/2000/svg" viewBox="0 0 32 32"><!--! Font Icona - https://fonticona.com | License - https://fonticona.com/license | Copyright 2022 FontIcona.com --><path d="M29.365,32h-9.811c-0.553,0-1-0.447-1-1v-8.882h-5.038V31c0,0.553-0.447,1-1,1H2.635c-0.553,0-1-0.447-1-1V1c0-0.553,0.447-1,1-1h6.541c0.553,0,1,0.447,1,1v6.565l19.461,5.481c0.431,0.122,0.729,0.515,0.729,0.963V31C30.365,31.553,29.918,32,29.365,32z M20.555,30h7.811V14.767L8.904,9.285C8.474,9.163,8.176,8.771,8.176,8.322V2H3.635v28h7.882v-8.882c0-0.553,0.447-1,1-1h7.038c0.553,0,1,0.447,1,1V30z"/></svg>