<svg xmlns="http://www.w3.org/2000/svg" viewBox="0 0 32 32"><!--! Font Icona - https://fonticona.com | License - https://fonticona.com/license | Copyright 2022 FontIcona.com --><path d="M25.347,13.963H6.653c-0.553,0-1-0.447-1-1s0.447-1,1-1h18.693c0.553,0,1,0.447,1,1S25.899,13.963,25.347,13.963z"/><path d="M25.347,19.402H6.653c-0.553,0-1-0.447-1-1s0.447-1,1-1h18.693c0.553,0,1,0.447,1,1S25.899,19.402,25.347,19.402z"/><path d="M14.652,31.99c-1.081,0-2.115-0.177-3.017-0.559c-2.771-1.175-4.333-3.813-3.887-6.566c0.555-3.41,3.186-5.893,5.507-8.082l0.376-0.355c0.347-0.329,0.757-0.698,1.205-1.103l0.076-0.068c0.227-0.204,0.46-0.399,0.683-0.587c0.232-0.194,0.452-0.377,0.633-0.549l0.382-0.36c2.089-1.972,4.458-4.206,4.902-6.946c0.301-1.854-0.756-3.584-2.693-4.404c-2.804-1.19-7.674,0.351-9.301,2.942C9.226,5.82,8.608,5.965,8.141,5.668C7.673,5.375,7.531,4.758,7.825,4.29c2.137-3.409,8.079-5.288,11.775-3.722c2.771,1.175,4.333,3.813,3.887,6.566c-0.554,3.409-3.184,5.892-5.505,8.081l-0.378,0.356c-0.207,0.197-0.458,0.408-0.725,0.632c-0.205,0.172-0.42,0.352-0.629,0.539l-0.076,0.068c-0.434,0.391-0.831,0.748-1.167,1.067l-0.38,0.358c-2.09,1.972-4.459,4.207-4.904,6.948c-0.301,1.854,0.756,3.584,2.693,4.404c2.801,1.188,7.674-0.351,9.302-2.942c0.294-0.468,0.911-0.611,1.378-0.315c0.468,0.293,0.609,0.91,0.315,1.378C21.796,30.288,18.003,31.99,14.652,31.99z"/></svg>