<svg xmlns="http://www.w3.org/2000/svg" viewBox="0 0 32 32"><!--! Font Icona - https://fonticona.com | License - https://fonticona.com/license | Copyright 2022 FontIcona.com --><path d="M16,32c-0.091,0-0.183-0.013-0.271-0.037L4.606,28.83c-0.4-0.113-0.689-0.462-0.725-0.876L1.531,1.087C1.507,0.808,1.601,0.531,1.79,0.324C1.979,0.118,2.247,0,2.527,0h26.945c0.279,0,0.545,0.116,0.734,0.321s0.284,0.479,0.263,0.757l-2.115,26.867c-0.033,0.42-0.325,0.774-0.731,0.886l-11.358,3.133C16.179,31.988,16.089,32,16,32z M5.813,27.092l10.189,2.87l10.413-2.872L28.391,2H3.619L5.813,27.092z"/><path d="M24.029,7H7.58c-0.552,0-1-0.447-1-1s0.448-1,1-1h16.449c0.552,0,1,0.447,1,1S24.581,7,24.029,7z"/><path d="M15.804,27.646c-0.143,0-0.286-0.03-0.419-0.092l-5.366-2.477c-0.296-0.137-0.507-0.409-0.565-0.729l-0.82-4.523c-0.099-0.544,0.262-1.064,0.806-1.163c0.541-0.096,1.064,0.264,1.162,0.806l0.728,4.012l4.492,2.073l5.131-2.174l0.965-7.757l-12.83-0.019c-0.552-0.001-1-0.449-0.999-1.002c0.001-0.552,0.448-0.998,1-0.998c0,0,0.001,0,0.001,0l13.96,0.021c0.287,0,0.559,0.124,0.749,0.339s0.278,0.5,0.242,0.784l-1.175,9.451c-0.044,0.354-0.273,0.658-0.602,0.798l-6.07,2.571C16.069,27.62,15.937,27.646,15.804,27.646z"/><path d="M9.088,15.604c-0.477,0-0.899-0.342-0.984-0.827l-1.51-8.604C6.499,5.629,6.863,5.11,7.407,5.015c0.544-0.093,1.062,0.27,1.158,0.812l1.51,8.604c0.096,0.544-0.268,1.062-0.812,1.158C9.204,15.599,9.146,15.604,9.088,15.604z"/></svg>