<svg xmlns="http://www.w3.org/2000/svg" viewBox="0 0 32 32"><!--! Font Icona - https://fonticona.com | License - https://fonticona.com/license | Copyright 2022 FontIcona.com --><path d="M16.535,32c-0.123,0-0.245-0.022-0.361-0.067L5.206,27.69c-0.349-0.135-0.593-0.453-0.633-0.825l-0.841-7.796c-0.031-0.282,0.061-0.564,0.25-0.775c0.19-0.211,0.46-0.332,0.744-0.332h5.427c0.507,0,0.934,0.38,0.993,0.883l0.392,3.333l5.404,2.406c0.504,0.225,0.731,0.815,0.507,1.32s-0.816,0.733-1.32,0.506l-5.924-2.638c-0.322-0.144-0.545-0.446-0.586-0.796l-0.354-3.015H5.84l0.656,6.083l10.032,3.88l9.186-3.709l1.092-14.127H9.59c-0.552,0-1-0.447-1-1s0.448-1,1-1h18.295c0.279,0,0.544,0.116,0.734,0.32c0.189,0.205,0.285,0.479,0.263,0.757L27.66,26.988c-0.029,0.379-0.271,0.708-0.623,0.851L16.91,31.928C16.79,31.976,16.662,32,16.535,32z"/><path d="M4.267,12.089c-0.508,0-0.943-0.386-0.994-0.902L2.279,1.098c-0.028-0.28,0.064-0.561,0.254-0.77C2.723,0.119,2.992,0,3.274,0h25.452c0.552,0,1,0.447,1,1s-0.448,1-1,1H4.377l0.885,8.991c0.054,0.549-0.348,1.039-0.897,1.093C4.333,12.087,4.299,12.089,4.267,12.089z"/><path d="M16.536,26.497c-0.362,0-0.71-0.196-0.889-0.539c-0.254-0.49-0.063-1.094,0.427-1.349l4.631-2.403l0.856-5.609L4.661,16.569c-0.518-0.001-0.949-0.396-0.995-0.912l-0.395-4.48c-0.048-0.55,0.358-1.035,0.908-1.084c0.551-0.048,1.036,0.358,1.084,0.908l0.315,3.57l17.149,0.027c0.292,0,0.568,0.128,0.758,0.349c0.189,0.222,0.273,0.515,0.229,0.803l-1.108,7.261c-0.048,0.315-0.245,0.589-0.528,0.736l-5.083,2.638C16.849,26.461,16.691,26.497,16.536,26.497z"/><path d="M28.247,7.045c-0.032,0-0.063-0.001-0.096-0.005c-0.55-0.052-0.953-0.54-0.901-1.09l0.48-5.045c0.052-0.55,0.536-0.967,1.09-0.9c0.55,0.052,0.953,0.54,0.901,1.09l-0.48,5.045C29.192,6.657,28.756,7.045,28.247,7.045z"/><path d="M28.246,7.045H8.912c-0.552,0-1-0.447-1-1s0.448-1,1-1h19.333c0.552,0,1,0.447,1,1S28.798,7.045,28.246,7.045z"/><path d="M9.588,12.089c-0.493,0-0.922-0.364-0.99-0.867L7.921,6.178C7.848,5.631,8.231,5.127,8.779,5.054c0.548-0.075,1.051,0.31,1.125,0.858l0.678,5.044c0.073,0.547-0.311,1.051-0.858,1.124C9.678,12.086,9.633,12.089,9.588,12.089z"/></svg>