<svg xmlns="http://www.w3.org/2000/svg" viewBox="0 0 32 32"><!--! Font Icona - https://fonticona.com | License - https://fonticona.com/license | Copyright 2022 FontIcona.com --><path d="M11.315,28.174c-0.196,0-0.395-0.058-0.568-0.178l-4.912-3.405c-0.266-0.185-0.426-0.485-0.431-0.809c-0.004-0.323,0.147-0.629,0.408-0.82l4.912-3.604c0.446-0.328,1.07-0.23,1.398,0.215c0.326,0.445,0.23,1.071-0.215,1.398l-3.782,2.774l3.76,2.606c0.454,0.315,0.567,0.938,0.253,1.392C11.944,28.023,11.633,28.174,11.315,28.174z"/><path d="M20.685,28.174c-0.308,0-0.611-0.142-0.808-0.408c-0.326-0.445-0.23-1.071,0.215-1.398l3.782-2.774l-3.76-2.606c-0.454-0.315-0.567-0.938-0.253-1.392c0.313-0.454,0.936-0.568,1.392-0.253l4.912,3.405c0.266,0.185,0.426,0.485,0.431,0.809c0.004,0.323-0.147,0.629-0.408,0.82l-4.912,3.604C21.097,28.111,20.89,28.174,20.685,28.174z"/><path d="M13.636,32c-0.102,0-0.205-0.016-0.307-0.048c-0.526-0.17-0.814-0.733-0.646-1.259l4.729-14.662c0.17-0.525,0.733-0.811,1.259-0.646c0.526,0.17,0.814,0.733,0.646,1.259l-4.729,14.662C14.451,31.73,14.059,32,13.636,32z"/><rect x="0" y="0" width="2" height="8.983"/><rect x="5.878" y="0" width="2" height="8.983"/><rect x="1" y="2.806" width="5.879" height="2"/><rect x="9.117" width="6.592" height="2"/><rect x="11.413" y="1" width="2" height="7.983"/><polygon points="24.827,8.983 22.827,8.983 22.827,2.391 20.891,4.648 18.947,2.397 18.947,8.983 16.947,8.983 16.947,0 19.52,0 20.886,1.582 22.242,0 24.827,0 "/><polygon points="31.999,8.983 26.846,8.983 26.846,0 28.846,0 28.846,6.983 31.999,6.983 "/></svg>