<svg xmlns="http://www.w3.org/2000/svg" viewBox="0 0 32 32"><!--! Font Icona - https://fonticona.com | License - https://fonticona.com/license | Copyright 2022 FontIcona.com --><path d="M22.79,24.828c-3.754,0-6.809-3.055-6.809-6.809c0-3.755,3.055-6.81,6.809-6.81s6.809,3.055,6.809,6.81C29.599,21.773,26.544,24.828,22.79,24.828z M22.79,13.21c-2.652,0-4.809,2.157-4.809,4.81c0,2.651,2.157,4.809,4.809,4.809s4.809-2.157,4.809-4.809C27.599,15.367,25.441,13.21,22.79,13.21z"/><rect x="21.79" y="5.79" width="2" height="6.42"/><rect x="12.63" y="23.634" transform="matrix(0.7071 -0.7071 0.7071 0.7071 -12.6811 18.6527)" width="7.09" height="2"/><rect x="12.195" y="3.024" transform="matrix(0.5948 -0.8039 0.8039 0.5948 -2.5723 14.598)" width="2" height="13.653"/><path d="M22.79,7.096c-1.956,0-3.548-1.592-3.548-3.548S20.833,0,22.79,0s3.548,1.592,3.548,3.548S24.746,7.096,22.79,7.096z M22.79,2c-0.854,0-1.548,0.694-1.548,1.548s0.694,1.548,1.548,1.548s1.548-0.694,1.548-1.548S23.643,2,22.79,2z"/><path d="M12.033,32c-1.956,0-3.548-1.592-3.548-3.548s1.592-3.548,3.548-3.548s3.548,1.592,3.548,3.548S13.989,32,12.033,32z M12.033,26.904c-0.854,0-1.548,0.694-1.548,1.548S11.18,30,12.033,30s1.548-0.694,1.548-1.548S12.887,26.904,12.033,26.904z"/><path d="M5.949,7.852c-1.956,0-3.548-1.592-3.548-3.548s1.592-3.548,3.548-3.548s3.548,1.592,3.548,3.548S7.905,7.852,5.949,7.852z M5.949,2.756c-0.854,0-1.548,0.694-1.548,1.548s0.694,1.548,1.548,1.548s1.548-0.694,1.548-1.548S6.803,2.756,5.949,2.756z"/></svg>