<svg xmlns="http://www.w3.org/2000/svg" viewBox="0 0 32 32"><!--! Font Icona - https://fonticona.com | License - https://fonticona.com/license | Copyright 2022 FontIcona.com --><path d="M23.664,32H8.336c-1.717,0-3.114-1.397-3.114-3.114V3.114C5.222,1.397,6.619,0,8.336,0h15.328c1.717,0,3.114,1.397,3.114,3.114v25.771C26.778,30.603,25.381,32,23.664,32z M8.336,2C7.722,2,7.222,2.5,7.222,3.114v25.771C7.222,29.5,7.722,30,8.336,30h15.328c0.614,0,1.114-0.5,1.114-1.114V3.114C24.778,2.5,24.278,2,23.664,2H8.336z"/><path d="M16,28.62c-2.973,0-5.392-2.419-5.392-5.392s2.418-5.392,5.392-5.392s5.392,2.419,5.392,5.392S18.973,28.62,16,28.62z M16,19.837c-1.87,0-3.392,1.521-3.392,3.392S14.13,26.62,16,26.62s3.392-1.521,3.392-3.392S17.87,19.837,16,19.837z"/><circle cx="16" cy="23.228" r="1.25"/><path d="M22.117,15.519H9.883c-0.552,0-1-0.447-1-1V4.628c0-0.553,0.448-1,1-1h12.234c0.552,0,1,0.447,1,1v9.891C23.117,15.071,22.669,15.519,22.117,15.519z M10.883,13.519h10.234V5.628H10.883V13.519z"/></svg>