<svg xmlns="http://www.w3.org/2000/svg" viewBox="0 0 32 32"><!--! Font Icona - https://fonticona.com | License - https://fonticona.com/license | Copyright 2022 FontIcona.com --><path d="M16,28.554c-6.755,0-12.25-5.495-12.25-12.25S9.245,4.054,16,4.054s12.25,5.495,12.25,12.25S22.755,28.554,16,28.554z M16,6.054c-5.652,0-10.25,4.598-10.25,10.25s4.598,10.25,10.25,10.25s10.25-4.598,10.25-10.25S21.652,6.054,16,6.054z"/><path d="M25.545,32H6.455C2.896,32,0,29.104,0,25.546V6.454C0,2.896,2.896,0,6.455,0h19.091C29.104,0,32,2.896,32,6.454v19.092C32,29.104,29.104,32,25.545,32z M6.455,2C3.999,2,2,3.998,2,6.454v19.092C2,28.002,3.999,30,6.455,30h19.091C28.001,30,30,28.002,30,25.546V6.454C30,3.998,28.001,2,25.545,2H6.455z"/><path d="M10.955,23.06c-1.126,0-2.108-0.573-2.412-1.493c-0.166-0.503-0.11-1.049,0.158-1.538c0.35-0.64,1.024-1.128,1.851-1.34c1.453-0.372,2.892,0.232,3.272,1.382c0.167,0.504,0.11,1.05-0.157,1.539c-0.35,0.64-1.024,1.128-1.85,1.34l0,0C11.525,23.023,11.235,23.06,10.955,23.06z M10.455,21.005c0.071,0,0.412,0.123,0.863,0.007c0,0,0,0,0.001,0c0.398-0.103,0.582-0.317,0.601-0.38c-0.04-0.004-0.211-0.056-0.476-0.056c-0.117,0-0.25,0.013-0.396,0.05c-0.399,0.103-0.583,0.317-0.602,0.38C10.449,21.006,10.452,21.005,10.455,21.005z"/><path d="M17.888,21.496c-1.125,0-2.107-0.572-2.412-1.492c-0.166-0.503-0.11-1.049,0.157-1.538c0.349-0.64,1.023-1.128,1.85-1.341c1.458-0.373,2.895,0.234,3.273,1.383c0.166,0.503,0.11,1.049-0.158,1.538c-0.35,0.64-1.024,1.128-1.851,1.34C18.458,21.46,18.168,21.496,17.888,21.496z M17.389,19.442c0.07-0.001,0.411,0.12,0.862,0.006c0,0,0,0,0.001,0c0.398-0.103,0.582-0.317,0.601-0.38c-0.034,0.002-0.21-0.056-0.477-0.056c-0.117,0-0.25,0.013-0.396,0.05c-0.398,0.103-0.582,0.317-0.601,0.381C17.382,19.442,17.385,19.442,17.389,19.442z"/><path d="M12.916,14.736c-0.469,0-0.887-0.331-0.98-0.808c-0.106-0.542,0.248-1.067,0.79-1.174l6.93-1.355c0.544-0.108,1.067,0.248,1.173,0.789c0.106,0.542-0.248,1.067-0.79,1.174l-6.93,1.355C13.044,14.73,12.979,14.736,12.916,14.736z"/><path d="M12.917,21.628c-0.552,0-1-0.447-1-1v-9.332c0-0.479,0.339-0.89,0.808-0.981l6.93-1.355c0.294-0.06,0.597,0.02,0.828,0.209c0.23,0.19,0.364,0.474,0.364,0.772v8.964c0,0.553-0.448,1-1,1s-1-0.447-1-1v-7.749l-4.93,0.964v8.509C13.917,21.181,13.469,21.628,12.917,21.628z"/></svg>