<svg xmlns="http://www.w3.org/2000/svg" viewBox="0 0 32 32"><!--! Font Icona - https://fonticona.com | License - https://fonticona.com/license | Copyright 2022 FontIcona.com --><path d="M16.29,28.159c-0.951,0-1.843-0.369-2.512-1.038l-8.884-8.89c-1.385-1.386-1.385-3.641,0-5.026l9.29-9.295c1.096-1.097,3.09-2.39,4.54-2.943c0.297-0.112,7.31-2.728,11.173,1.138l0,0l0,0c3.863,3.866,1.25,10.882,1.137,11.179c-0.553,1.449-1.845,3.444-2.942,4.542l-9.29,9.296C18.133,27.79,17.241,28.159,16.29,28.159z M24.092,1.998c-2.401,0-4.62,0.824-4.657,0.838c-1.184,0.452-2.942,1.592-3.837,2.488l-9.29,9.295c-0.606,0.606-0.606,1.592,0,2.198l8.884,8.89c0.582,0.582,1.612,0.582,2.194,0l9.29-9.296c0.897-0.897,2.036-2.656,2.488-3.841c0.023-0.06,2.264-6.104-0.683-9.052l0,0C27.316,2.352,25.665,1.998,24.092,1.998z"/><path d="M3.465,32c-0.933,0-1.803-0.358-2.456-1.011c-1.363-1.364-1.345-3.601,0.04-4.986l6.199-6.202c0.391-0.391,1.024-0.391,1.415,0s0.391,1.023,0,1.414l-6.199,6.202c-0.606,0.605-0.624,1.574-0.04,2.158C2.702,29.854,3.038,29.988,3.483,30c0.413-0.005,0.803-0.17,1.097-0.464l6.199-6.202c0.391-0.391,1.024-0.391,1.415,0s0.391,1.023,0,1.414L5.995,30.95c-0.667,0.666-1.55,1.039-2.49,1.049C3.492,32,3.478,32,3.465,32z"/></svg>