<svg xmlns="http://www.w3.org/2000/svg" viewBox="0 0 32 32"><!--! Font Icona - https://fonticona.com | License - https://fonticona.com/license | Copyright 2022 FontIcona.com --><path d="M16.777,31.994c-0.303,0-0.595-0.135-0.786-0.384c-1.766-2.297-2.575-16.432-2.72-19.243c-0.008-0.06-0.02-0.272-0.033-0.551c-0.118-2.394-0.356-3.499-0.554-4.008c-0.676,2.084-1.657,8.813-2.306,14.897c-0.054,0.509-0.483,0.894-0.994,0.894c-0.002,0-0.004,0-0.006,0c-0.513-0.003-0.94-0.394-0.989-0.905c-0.657-6.883-1.949-14.775-3-16.52C5.202,6.485,4.98,7.208,4.83,8.839C4.812,9.037,4.796,9.208,4.779,9.343c-0.076,0.603-0.092,1.232-0.109,1.899c-0.024,0.953-0.05,1.938-0.259,2.905c-0.072,0.332-0.307,0.604-0.624,0.724c-0.32,0.12-0.675,0.07-0.947-0.131c-3.06-2.256-2.854-8.131-2.829-8.655V2.099C0.011,0.942,1.042,0,2.31,0h27.393C30.969,0,32,0.942,32,2.099v4.56c-0.035,4.237-0.449,6.213-1.478,7.055c-0.433,0.354-0.979,0.488-1.529,0.383c-1.425-0.274-1.63-1.993-1.827-3.654c-0.045-0.377-0.107-0.896-0.189-1.325c-0.489,1.585-0.909,5.147-1.043,8.239c-0.022,0.521-0.442,0.938-0.965,0.956c-0.508,0.004-0.97-0.369-1.028-0.887l-0.483-4.273c-0.046-0.431-0.063-0.893-0.081-1.371c-0.047-1.271-0.095-2.585-0.761-3.398c-0.345-0.421-0.699-0.707-0.94-0.652c-0.227,0.005-0.52,0.221-0.812,0.595c-0.611,1.752-3.047,21.081-3.079,22.679c-0.009,0.424-0.284,0.805-0.688,0.937C16.991,31.977,16.884,31.994,16.777,31.994z M12.607,5.458c0.33,0,0.649,0.093,0.936,0.278c1.198,0.772,1.543,2.95,1.693,5.981c0.011,0.226,0.019,0.397,0.028,0.491c0.237,4.591,0.657,9.488,1.147,13.063c0.775-6.73,2.08-17.109,2.792-18.068c0.709-0.956,1.524-1.451,2.423-1.472c0.656-0.015,1.577,0.214,2.535,1.384c0.415,0.507,0.682,1.07,0.855,1.658c0.706-2.292,1.544-2.292,1.965-2.292c1.726,0,1.972,2.065,2.169,3.724c0.06,0.501,0.15,1.258,0.276,1.706c0.225-0.48,0.544-1.775,0.572-5.261V2.099C29.989,2.09,29.887,2,29.702,2H2.31C2.124,2,2.021,2.09,2.007,2.121L2.011,6.11c0,0.018-0.001,0.036-0.001,0.053c-0.053,0.99,0.027,3.185,0.663,4.934C2.69,10.44,2.711,9.763,2.795,9.093C2.81,8.977,2.823,8.827,2.839,8.655c0.14-1.515,0.373-4.051,2.188-4.608c0.425-0.131,0.879-0.06,1.271,0.202C7.652,5.153,8.68,9.751,9.388,14.361c1.197-8.246,2.055-8.583,2.516-8.765C12.139,5.504,12.375,5.458,12.607,5.458z M12.919,7.258L12.919,7.258z M1.011,6.11h0.01H1.011z"/></svg>