<svg xmlns="http://www.w3.org/2000/svg" viewBox="0 0 32 32"><!--! Font Icona - https://fonticona.com | License - https://fonticona.com/license | Copyright 2022 FontIcona.com --><path d="M3.339,31.555c-0.942-0.028-1.788-0.409-2.412-1.073c-0.625-0.664-0.953-1.531-0.926-2.443V13.881c-0.051-1.847,1.433-3.418,3.307-3.477h25.354c1.905,0.059,3.389,1.63,3.338,3.504v14.144c0.05,1.874-1.429,3.443-3.304,3.502L3.339,31.555z M28.63,12.404H3.339c-0.745,0.023-1.359,0.674-1.338,1.449v14.213c-0.012,0.411,0.124,0.77,0.383,1.045c0.258,0.274,0.608,0.433,0.986,0.443h25.291c0.349-0.012,0.698-0.17,0.956-0.444c0.259-0.275,0.395-0.635,0.383-1.013l-0.001-0.031V13.881C30.021,13.078,29.406,12.428,28.63,12.404z"/><path d="M28.409,12.372L5.861,6.495C5.041,6.4,4.358,6.935,4.253,7.687l-0.896,4.161l-1.955-0.422l0.883-4.089C2.532,5.551,4.263,4.249,6.11,4.51l0.194,0.034l22.608,5.893L28.409,12.372z"/><path d="M28.196,12.29L9.562,2.51c-0.3-0.106-0.682-0.094-1.021,0.062C8.199,2.726,7.938,3.004,7.808,3.354L6.676,5.888L4.85,5.071l1.108-2.477c0.297-0.794,0.929-1.47,1.757-1.845c0.827-0.377,1.753-0.406,2.602-0.086l0.104,0.041l18.705,9.813L28.196,12.29z"/><path d="M26.845,21.974h-8.283c-0.553,0-1-0.447-1-1s0.447-1,1-1h8.283c0.553,0,1,0.447,1,1S27.397,21.974,26.845,21.974z"/><path d="M26.845,18.431h-8.283c-0.553,0-1-0.447-1-1s0.447-1,1-1h8.283c0.553,0,1,0.447,1,1S27.397,18.431,26.845,18.431z"/><path d="M22.021,25.528h-3.459c-0.553,0-1-0.447-1-1s0.447-1,1-1h3.459c0.553,0,1,0.447,1,1S22.573,25.528,22.021,25.528z"/><path d="M26.381,25.528h-1.375c-0.553,0-1-0.447-1-1s0.447-1,1-1h1.375c0.553,0,1,0.447,1,1S26.934,25.528,26.381,25.528z"/><path d="M10.074,21.402c-0.443,0-0.881-0.082-1.291-0.245c-2.086-0.886-3.128-3.158-2.448-5.294c0.771-1.849,2.667-2.854,4.545-2.476c1.842,0.3,3.21,1.905,3.214,3.811v0.026c-0.045,1.836-1.247,3.455-2.993,4.028C10.762,21.354,10.416,21.402,10.074,21.402z M10.095,15.312c-0.822,0-1.566,0.48-1.884,1.24c-0.335,1.064,0.225,2.284,1.332,2.755c0.291,0.115,0.643,0.131,0.963,0.036c0.91-0.3,1.559-1.168,1.588-2.154c-0.008-0.916-0.668-1.687-1.574-1.834C10.377,15.326,10.234,15.312,10.095,15.312z"/><path d="M16.043,28.651H4.155v-1c0-3.608,3.066-5.671,3.196-5.757l0.47-0.31l0.509,0.24c0.014,0.006,1.816,0.816,3.553-0.001l0.446-0.209l0.438,0.226c3.239,1.669,3.276,5.643,3.276,5.811V28.651z M6.277,26.651h7.637c-0.183-0.858-0.624-2.07-1.688-2.808c-1.7,0.611-3.307,0.281-4.148,0.018C7.55,24.32,6.61,25.294,6.277,26.651z"/></svg>