<svg xmlns="http://www.w3.org/2000/svg" viewBox="0 0 32 32"><!--! Font Icona - https://fonticona.com | License - https://fonticona.com/license | Copyright 2022 FontIcona.com --><path d="M17.637,12.307h-2.972c-1.654,0-3-1.346-3-3V3.952c0-1.654,1.346-3,3-3h2.972c1.654,0,3,1.346,3,3v5.354C20.637,10.961,19.291,12.307,17.637,12.307z M14.665,2.952c-0.552,0-1,0.448-1,1v5.354c0,0.552,0.448,1,1,1h2.972c0.552,0,1-0.448,1-1V3.952c0-0.552-0.448-1-1-1H14.665z"/><path d="M10.542,24.367c-2.863,0-5.193-2.33-5.193-5.193s2.33-5.193,5.193-5.193s5.193,2.33,5.193,5.193S13.405,24.367,10.542,24.367z M10.542,15.98c-1.761,0-3.193,1.433-3.193,3.193s1.433,3.193,3.193,3.193s3.193-1.433,3.193-3.193S12.303,15.98,10.542,15.98z"/><path d="M17.41,31.048c-0.553,0-1-0.447-1-1c0-2.573-2.617-5.681-5.868-5.681c-3.256,0-5.878,3.107-5.878,5.681c0,0.553-0.447,1-1,1s-1-0.447-1-1c0-3.552,3.441-7.681,7.878-7.681c4.432,0,7.868,4.129,7.868,7.681C18.41,30.601,17.963,31.048,17.41,31.048z"/><path d="M27.587,18.29h-7.305c-0.553,0-1-0.447-1-1s0.447-1,1-1h7.305c0.553,0,1,0.447,1,1S28.14,18.29,27.587,18.29z"/><path d="M26.588,22.224h-5.297c-0.553,0-1-0.447-1-1s0.447-1,1-1h5.297c0.553,0,1,0.447,1,1S27.141,22.224,26.588,22.224z"/><path d="M26.442,26.188h-5.286c-0.553,0-1-0.447-1-1s0.447-1,1-1h5.286c0.553,0,1,0.447,1,1S26.995,26.188,26.442,26.188z"/><path d="M29,31.048H3c-1.654,0-3-1.346-3-3V10.612c0-1.654,1.346-3,3-3h9.665c0.553,0,1,0.447,1,1s-0.447,1-1,1H3c-0.552,0-1,0.448-1,1v17.436c0,0.552,0.448,1,1,1h26c0.552,0,1-0.448,1-1V10.612c0-0.552-0.448-1-1-1h-9.363c-0.553,0-1-0.447-1-1s0.447-1,1-1H29c1.654,0,3,1.346,3,3v17.436C32,29.702,30.654,31.048,29,31.048z"/></svg>