<svg xmlns="http://www.w3.org/2000/svg" viewBox="0 0 32 32"><!--! Font Icona - https://fonticona.com | License - https://fonticona.com/license | Copyright 2022 FontIcona.com --><path d="M2,29.199H0l0-3.426c0.013-1.942,0.369-3.841,1.058-5.643c0.679-1.773,1.658-3.401,2.912-4.838c1.247-1.429,2.718-2.615,4.374-3.528c1.695-0.936,3.527-1.551,5.446-1.828c0.764-0.111,1.547-0.167,2.327-0.167v2c-0.685,0-1.371,0.049-2.041,0.146c-1.679,0.243-3.283,0.782-4.766,1.601c-1.451,0.8-2.74,1.84-3.833,3.092c-1.099,1.259-1.957,2.685-2.551,4.238C2.312,22.452,2,24.149,2,25.886V29.199z"/><path d="M12.021,29.227l-2-0.035c0.018-1.038,0.019-2.13,0.002-3.155h-0.002l0.002-0.15c0.024-0.959,0.277-1.903,0.736-2.74c1.059-1.93,3.082-3.129,5.281-3.129v2c-1.447,0-2.831,0.82-3.527,2.09c-0.307,0.56-0.476,1.192-0.491,1.835C12.04,27.007,12.039,28.145,12.021,29.227z"/><path d="M9.021,32H3c-1.654,0-3-1.346-3-3l2-0.043V29c0,0.552,0.449,1,1,1h6.021c0.551,0,1-0.448,1-1l2-0.043C12.021,30.655,10.675,32,9.021,32z"/><path d="M32,29.199h-2v-3.312c0-1.737-0.312-3.434-0.926-5.041c-0.594-1.554-1.452-2.979-2.551-4.238c-1.093-1.252-2.382-2.292-3.833-3.091c-1.484-0.819-3.088-1.358-4.767-1.602c-0.67-0.097-1.356-0.146-2.041-0.146v-2c0.78,0,1.563,0.056,2.327,0.167c1.919,0.277,3.751,0.893,5.447,1.829c1.655,0.912,3.126,2.099,4.373,3.527c1.254,1.437,2.233,3.064,2.912,4.838c0.689,1.802,1.044,3.7,1.058,5.643h0V29.199z"/><path d="M19.979,29.227c-0.019-1.082-0.019-2.22-0.001-3.285c-0.015-0.643-0.184-1.275-0.491-1.835c-0.696-1.27-2.081-2.09-3.527-2.09v-2c2.199,0,4.223,1.199,5.281,3.129c0.459,0.837,0.712,1.781,0.736,2.74h0.002l-0.002,0.15c-0.017,1.025-0.016,2.117,0.002,3.155L19.979,29.227z"/><path d="M29,32h-6.021c-1.654,0-3-1.346-3-3l2-0.043c0,0.595,0.449,1.043,1,1.043H29c0.551,0,1-0.448,1-1l2-0.043V29C32,30.655,30.654,32,29,32z"/><path d="M16.117,11.769c-0.552,0-1-0.447-1-1V5.907c0-0.016,0-0.03,0-0.046V1c0-0.338,0.17-0.652,0.454-0.838c0.282-0.184,0.64-0.214,0.949-0.077l6.748,2.968c0.386,0.169,0.625,0.563,0.595,0.983c-0.029,0.421-0.319,0.778-0.725,0.894l-6.021,1.71v4.129C17.117,11.322,16.669,11.769,16.117,11.769z M17.117,2.533v2.028l2.802-0.796L17.117,2.533z"/><path d="M27.675,18.261H4.065c-0.552,0-1-0.447-1-1s0.448-1,1-1h23.61c0.552,0,1,0.447,1,1S28.227,18.261,27.675,18.261z"/><path d="M11.114,25.381H1.755c-0.552,0-1-0.447-1-1s0.448-1,1-1h9.359c0.552,0,1,0.447,1,1S11.667,25.381,11.114,25.381z"/><path d="M30.447,25.381h-9.467c-0.552,0-1-0.447-1-1s0.448-1,1-1h9.467c0.552,0,1,0.447,1,1S30.999,25.381,30.447,25.381z"/><path d="M15.96,21.708c-0.552,0-1-0.447-1-1v-3.447c0-0.553,0.448-1,1-1s1,0.447,1,1v3.447C16.96,21.261,16.512,21.708,15.96,21.708z"/><path d="M25.659,25.104c-0.552,0-1-0.447-1-1v-6.843c0-0.553,0.448-1,1-1s1,0.447,1,1v6.843C26.659,24.657,26.211,25.104,25.659,25.104z"/><path d="M6.341,25.104c-0.552,0-1-0.447-1-1v-6.843c0-0.553,0.448-1,1-1s1,0.447,1,1v6.843C7.341,24.657,6.893,25.104,6.341,25.104z"/><path d="M11.942,18.261c-0.552,0-1-0.447-1-1v-4.89c0-0.553,0.448-1,1-1s1,0.447,1,1v4.89C12.942,17.814,12.495,18.261,11.942,18.261z"/><path d="M20.328,18.261c-0.552,0-1-0.447-1-1v-4.686c0-0.553,0.448-1,1-1s1,0.447,1,1v4.686C21.328,17.814,20.88,18.261,20.328,18.261z"/></svg>