<svg xmlns="http://www.w3.org/2000/svg" viewBox="0 0 32 32"><!--! Font Icona - https://fonticona.com | License - https://fonticona.com/license | Copyright 2022 FontIcona.com --><path d="M29,32H3c-1.654,0-3-1.346-3-3V3c0-1.654,1.346-3,3-3h26c1.654,0,3,1.346,3,3v26C32,30.654,30.654,32,29,32z M3,2C2.448,2,2,2.448,2,3v26c0,0.552,0.448,1,1,1h26c0.552,0,1-0.448,1-1V3c0-0.552-0.448-1-1-1H3z"/><path d="M6.03,26.688c-0.122,0-0.246-0.022-0.366-0.069c-0.515-0.203-0.767-0.783-0.564-1.297l7.248-18.39c0.203-0.515,0.785-0.764,1.297-0.564c0.515,0.203,0.767,0.783,0.564,1.297l-7.248,18.39C6.806,26.448,6.429,26.688,6.03,26.688z"/><path d="M20.534,26.688c-0.398,0-0.775-0.24-0.931-0.634l-7.248-18.39c-0.202-0.514,0.05-1.094,0.564-1.297c0.513-0.199,1.095,0.05,1.297,0.564l7.248,18.39c0.202,0.514-0.05,1.094-0.564,1.297C20.78,26.666,20.656,26.688,20.534,26.688z"/><path d="M18.262,20.922H8.304c-0.553,0-1-0.447-1-1s0.447-1,1-1h9.958c0.553,0,1,0.447,1,1S18.814,20.922,18.262,20.922z"/><path d="M24.721,26.688c-0.553,0-1-0.447-1-1v-12.76c0-0.553,0.447-1,1-1s1,0.447,1,1v12.76C25.721,26.241,25.273,26.688,24.721,26.688z"/><circle cx="24.721" cy="7.56" r="1.249"/></svg>