<svg xmlns="http://www.w3.org/2000/svg" viewBox="0 0 32 32"><!--! Font Icona - https://fonticona.com | License - https://fonticona.com/license | Copyright 2022 FontIcona.com --><path d="M23.017,32H2.589c-1.418,0-2.571-1.153-2.571-2.571V9c0-1.418,1.153-2.572,2.571-2.572h20.428c1.418,0,2.572,1.154,2.572,2.572v20.428C25.589,30.847,24.435,32,23.017,32z M2.589,8.429C2.273,8.429,2.018,8.685,2.018,9v20.428C2.018,29.744,2.273,30,2.589,30h20.428c0.315,0,0.572-0.256,0.572-0.571V9c0-0.315-0.257-0.572-0.572-0.572H2.589z"/><path d="M1.478,31.538c-0.248,0-0.495-0.091-0.688-0.275c-0.4-0.381-0.417-1.014-0.036-1.414l8.156-8.582c0.375-0.394,0.996-0.416,1.397-0.051l3.531,3.209l4.405-8.558c0.162-0.316,0.479-0.521,0.834-0.541c0.372-0.018,0.693,0.151,0.889,0.447l5.457,8.25c0.305,0.461,0.179,1.081-0.282,1.386c-0.462,0.304-1.081,0.178-1.386-0.282L19.239,18.3l-4.221,8.199c-0.142,0.277-0.404,0.471-0.711,0.526c-0.303,0.054-0.62-0.035-0.851-0.244l-3.772-3.428l-7.482,7.873C2.006,31.433,1.742,31.538,1.478,31.538z"/><circle cx="6.648" cy="14.282" r="1.25"/><circle cx="13.885" cy="12.335" r="1.25"/><circle cx="10.673" cy="16.325" r="1.25"/><path d="M29.411,25.571h-4.822c-0.553,0-1-0.448-1-1s0.447-1,1-1h4.822c0.315,0,0.571-0.256,0.571-0.572V2.571C29.982,2.256,29.727,2,29.411,2H8.983C8.668,2,8.411,2.256,8.411,2.571v4.857c0,0.552-0.447,1-1,1s-1-0.448-1-1V2.571C6.411,1.153,7.565,0,8.983,0h20.428c1.418,0,2.571,1.153,2.571,2.571V23C31.982,24.417,30.829,25.571,29.411,25.571z"/></svg>