<svg xmlns="http://www.w3.org/2000/svg" viewBox="0 0 32 32"><!--! Font Icona - https://fonticona.com | License - https://fonticona.com/license | Copyright 2022 FontIcona.com --><circle cx="11.714" cy="27.731" r="1.25"/><circle cx="20.286" cy="27.731" r="1.25"/><circle cx="16" cy="27.731" r="1.25"/><path d="M29.889,24.637H2.111C0.947,24.637,0,23.689,0,22.525V4.17c0-1.164,0.947-2.111,2.111-2.111h27.777C31.053,2.059,32,3.006,32,4.17v18.355C32,23.689,31.053,24.637,29.889,24.637z M2.111,4.059C2.05,4.059,2,4.108,2,4.17v18.355c0,0.062,0.05,0.111,0.111,0.111h27.777c0.062,0,0.111-0.05,0.111-0.111V4.17c0-0.062-0.05-0.111-0.111-0.111H2.111z"/><path d="M1.655,23.948c-0.249,0-0.498-0.092-0.692-0.278c-0.398-0.382-0.412-1.015-0.029-1.414l8.578-8.944c0.354-0.368,0.927-0.411,1.331-0.1l6.623,5.095l5.35-7.939c0.17-0.253,0.446-0.415,0.751-0.438c0.298-0.027,0.602,0.092,0.81,0.315l7.355,7.9c0.377,0.404,0.354,1.037-0.05,1.414c-0.402,0.376-1.038,0.354-1.413-0.05l-6.498-6.979l-5.241,7.778c-0.154,0.229-0.396,0.384-0.669,0.428c-0.27,0.043-0.551-0.025-0.77-0.194l-6.757-5.197L2.377,23.64C2.181,23.845,1.918,23.948,1.655,23.948z"/><circle cx="15.989" cy="8.905" r="1.25"/><circle cx="6" cy="11.125" r="1.25"/></svg>