<svg xmlns="http://www.w3.org/2000/svg" viewBox="0 0 32 32"><!--! Font Icona - https://fonticona.com | License - https://fonticona.com/license | Copyright 2022 FontIcona.com --><path d="M29,32H3c-1.654,0-3-1.346-3-3V3c0-1.654,1.346-3,3-3h26c1.654,0,3,1.346,3,3v26C32,30.654,30.654,32,29,32z M3,2C2.448,2,2,2.449,2,3v26c0,0.551,0.448,1,1,1h26c0.552,0,1-0.449,1-1V3c0-0.551-0.448-1-1-1H3z"/><path d="M1.586,31.412c-0.248,0-0.495-0.091-0.688-0.275c-0.4-0.381-0.417-1.014-0.036-1.414L11.242,18.8c0.375-0.394,0.996-0.416,1.397-0.051l4.757,4.324l5.771-11.208c0.162-0.316,0.479-0.521,0.834-0.541c0.374-0.016,0.693,0.151,0.889,0.447l6.944,10.5c0.305,0.461,0.179,1.081-0.282,1.386c-0.461,0.303-1.081,0.178-1.386-0.282l-6.003-9.076l-5.586,10.849c-0.142,0.277-0.405,0.471-0.711,0.526c-0.302,0.054-0.621-0.035-0.851-0.244l-4.998-4.542L2.311,31.101C2.114,31.307,1.851,31.412,1.586,31.412z"/><circle cx="8.167" cy="9.722" r="1.25"/><circle cx="17.378" cy="7.244" r="1.25"/><circle cx="13.289" cy="12.322" r="1.25"/></svg>