<svg xmlns="http://www.w3.org/2000/svg" viewBox="0 0 32 32"><!--! Font Icona - https://fonticona.com | License - https://fonticona.com/license | Copyright 2022 FontIcona.com --><path d="M29,27.289H3c-1.654,0-3-1.346-3-3V7.711c0-1.654,1.346-3,3-3h26c1.654,0,3,1.346,3,3v16.578C32,25.943,30.654,27.289,29,27.289z M3,6.711c-0.552,0-1,0.449-1,1v16.578c0,0.551,0.448,1,1,1h26c0.552,0,1-0.449,1-1V7.711c0-0.551-0.448-1-1-1H3z"/><path d="M1.655,26.6c-0.249,0-0.498-0.092-0.692-0.278c-0.398-0.382-0.412-1.015-0.029-1.414l8.578-8.944c0.354-0.368,0.928-0.411,1.331-0.1l6.623,5.095l5.35-7.939c0.17-0.253,0.446-0.415,0.751-0.438c0.303-0.022,0.603,0.092,0.81,0.315l7.355,7.9c0.377,0.404,0.354,1.037-0.05,1.414c-0.403,0.375-1.038,0.354-1.413-0.05l-6.498-6.979l-5.241,7.778c-0.154,0.229-0.396,0.384-0.669,0.428c-0.27,0.042-0.551-0.026-0.77-0.194l-6.757-5.197l-7.957,8.297C2.181,26.497,1.918,26.6,1.655,26.6z"/><path d="M15.99,12.81c-0.08,0-0.16-0.01-0.25-0.03c-0.07-0.01-0.15-0.04-0.23-0.07c-0.07-0.03-0.15-0.07-0.21-0.12c-0.07-0.04-0.14-0.09-0.19-0.15c-0.239-0.23-0.369-0.56-0.369-0.88c0-0.33,0.13-0.65,0.369-0.89c0.46-0.46,1.29-0.46,1.761,0c0.06,0.06,0.109,0.12,0.16,0.19c0.039,0.07,0.079,0.14,0.109,0.22c0.03,0.07,0.061,0.15,0.07,0.23c0.02,0.08,0.03,0.16,0.03,0.25c0,0.32-0.141,0.65-0.37,0.88C16.64,12.67,16.31,12.81,15.99,12.81z"/><path d="M6,15.03c-0.08,0-0.16-0.01-0.24-0.03c-0.08-0.01-0.16-0.04-0.24-0.07C5.45,14.9,5.37,14.86,5.31,14.82c-0.069-0.05-0.14-0.1-0.2-0.16C4.88,14.43,4.75,14.11,4.75,13.78s0.13-0.65,0.359-0.89c0.061-0.05,0.131-0.11,0.2-0.15c0.061-0.05,0.141-0.08,0.21-0.12c0.08-0.03,0.16-0.05,0.24-0.07c0.4-0.08,0.83,0.05,1.12,0.34c0.24,0.24,0.37,0.56,0.37,0.89s-0.13,0.65-0.37,0.88C6.649,14.89,6.33,15.03,6,15.03z"/></svg>