<svg xmlns="http://www.w3.org/2000/svg" viewBox="0 0 32 32"><!--! Font Icona - https://fonticona.com | License - https://fonticona.com/license | Copyright 2022 FontIcona.com --><path d="M29,31.464H3c-1.654,0-3-1.346-3-3V6.486c0-0.552,0.447-1,1-1s1,0.448,1,1v21.979c0,0.551,0.448,1,1,1h26c0.552,0,1-0.449,1-1V12.691c0-0.042-0.007-2.949-0.008-3.069l0.003-1.134c0.001-0.268-0.103-0.519-0.292-0.708c-0.188-0.189-0.44-0.294-0.708-0.294h-1.281c-0.553,0-1-0.448-1-1s0.447-1,1-1h1.281c0.803,0,1.558,0.313,2.124,0.881c0.567,0.568,0.878,1.324,0.876,2.126l-0.003,1.118c0.002,0.01,0.008,3.05,0.008,3.08v15.773C32,30.119,30.654,31.464,29,31.464z"/><path d="M15.433,14.461H5.114c-0.553,0-1-0.448-1-1s0.447-1,1-1h10.318c0.553,0,1,0.448,1,1S15.985,14.461,15.433,14.461z"/><path d="M15.433,19.711H5.297c-0.553,0-1-0.448-1-1s0.447-1,1-1h10.136c0.553,0,1,0.448,1,1S15.985,19.711,15.433,19.711z"/><path d="M15.121,24.961H5.297c-0.553,0-1-0.448-1-1s0.447-1,1-1h9.824c0.553,0,1,0.448,1,1S15.674,24.961,15.121,24.961z"/><path d="M28.995,7.486H1c-0.553,0-1-0.448-1-1v-2.95c0-1.654,1.346-3,3-3h7.004c1.654,0,3,1.346,3,3v1.95h15.991c0.553,0,1,0.448,1,1S29.548,7.486,28.995,7.486z M2,5.486h9.004v-1.95c0-0.551-0.448-1-1-1H3c-0.552,0-1,0.449-1,1V5.486z"/><path d="M24.191,26.825h-2.208c-1.654,0-3-1.347-3-3.001l0.002-10.463c0-1.654,1.346-3,3-3h2.206c0.802,0,1.556,0.312,2.122,0.88c0.567,0.567,0.879,1.321,0.878,2.123l-0.002,7.851l0.002,2.607c0.001,0.802-0.311,1.556-0.878,2.123C25.747,26.513,24.993,26.825,24.191,26.825z M21.985,12.361c-0.552,0-1,0.449-1,1l-0.002,10.463c0,0.552,0.448,1.001,1,1.001h2.208c0.268,0,0.519-0.104,0.707-0.293c0.189-0.189,0.293-0.441,0.293-0.708l-0.002-2.607c0,0,0,0,0-0.001l0.002-7.854c0-0.267-0.104-0.519-0.293-0.708c-0.188-0.189-0.439-0.293-0.707-0.293H21.985z"/></svg>