<svg xmlns="http://www.w3.org/2000/svg" viewBox="0 0 32 32"><!--! Font Icona - https://fonticona.com | License - https://fonticona.com/license | Copyright 2022 FontIcona.com --><path d="M23.973,24.027c-2.88,0-5.555-1.557-6.98-4.062c-0.02-0.035-0.037-0.07-0.053-0.106l-3.627-6.758c-1.057-1.926-3.083-3.127-5.285-3.127C4.704,9.973,2,12.677,2,16s2.704,6.027,6.027,6.027c2.263,0,4.314-1.25,5.356-3.261c0.253-0.489,0.854-0.684,1.348-0.428c0.49,0.254,0.682,0.857,0.428,1.348c-1.386,2.677-4.119,4.341-7.132,4.341C3.601,24.027,0,20.426,0,16s3.601-8.027,8.027-8.027c2.933,0,5.631,1.599,7.043,4.173l3.676,6.849c0.01,0.019,0.02,0.037,0.027,0.055c1.082,1.838,3.065,2.977,5.199,2.977C27.296,22.027,30,19.323,30,16s-2.704-6.027-6.027-6.027c-2.301,0-3.802,0.854-5.181,2.948c-0.304,0.461-0.924,0.59-1.385,0.286s-0.589-0.924-0.285-1.385c1.18-1.792,3.024-3.849,6.851-3.849C28.399,7.973,32,11.574,32,16S28.399,24.027,23.973,24.027z"/></svg>