<svg xmlns="http://www.w3.org/2000/svg" viewBox="0 0 32 32"><!--! Font Icona - https://fonticona.com | License - https://fonticona.com/license | Copyright 2022 FontIcona.com --><path d="M22.767,32H9.233C4.143,32,0,27.858,0,22.767V9.233C0,4.142,4.143,0,9.233,0h13.533C27.857,0,32,4.142,32,9.233v13.533C32,27.858,27.857,32,22.767,32z M9.233,2C5.245,2,2,5.245,2,9.233v13.533C2,26.755,5.245,30,9.233,30h13.533C26.755,30,30,26.755,30,22.767V9.233C30,5.245,26.755,2,22.767,2H9.233z"/><path d="M16,23.389c-4.074,0-7.389-3.314-7.389-7.389S11.926,8.611,16,8.611s7.389,3.314,7.389,7.389S20.074,23.389,16,23.389z M16,10.611c-2.972,0-5.389,2.417-5.389,5.389s2.417,5.389,5.389,5.389s5.389-2.417,5.389-5.389S18.972,10.611,16,10.611z"/><circle cx="24.2" cy="6.556" r="1.25"/></svg>