<svg xmlns="http://www.w3.org/2000/svg" viewBox="0 0 32 32"><!--! Font Icona - https://fonticona.com | License - https://fonticona.com/license | Copyright 2022 FontIcona.com --><path d="M29,32H3c-1.654,0-3-1.346-3-3V3c0-1.654,1.346-3,3-3h26c1.654,0,3,1.346,3,3v26C32,30.654,30.654,32,29,32z M3,2C2.449,2,2,2.448,2,3v26c0,0.552,0.449,1,1,1h26c0.551,0,1-0.448,1-1V3c0-0.552-0.449-1-1-1H3z"/><path d="M16,22.333c-0.552,0-1-0.447-1-1v-17c0-0.553,0.448-1,1-1s1,0.447,1,1v17C17,21.886,16.552,22.333,16,22.333z"/><path d="M10.458,21c-0.552,0-1-0.447-1-1V5.667c0-0.553,0.448-1,1-1s1,0.447,1,1V20C11.458,20.553,11.011,21,10.458,21z"/><path d="M4.917,18.917c-0.552,0-1-0.447-1-1V7.75c0-0.553,0.448-1,1-1s1,0.447,1,1v10.167C5.917,18.47,5.469,18.917,4.917,18.917z"/><path d="M21.542,21c-0.552,0-1-0.447-1-1V5.667c0-0.553,0.448-1,1-1s1,0.447,1,1V20C22.542,20.553,22.094,21,21.542,21z"/><path d="M27.083,18.917c-0.552,0-1-0.447-1-1V7.75c0-0.553,0.448-1,1-1s1,0.447,1,1v10.167C28.083,18.47,27.636,18.917,27.083,18.917z"/><path d="M16,28.085c-4.156,0-8.312-1.041-12.1-3.124c-0.484-0.266-0.661-0.874-0.395-1.357c0.266-0.484,0.873-0.662,1.358-0.395c6.973,3.834,15.3,3.834,22.272,0c0.486-0.266,1.093-0.089,1.358,0.395c0.266,0.483,0.089,1.092-0.395,1.357C24.312,27.044,20.156,28.085,16,28.085z"/></svg>