<svg xmlns="http://www.w3.org/2000/svg" viewBox="0 0 32 32"><!--! Font Icona - https://fonticona.com | License - https://fonticona.com/license | Copyright 2022 FontIcona.com --><path d="M11.369,21.818c-6.016,0-10.909-4.894-10.909-10.909S5.354,0,11.369,0s10.909,4.894,10.909,10.909S17.385,21.818,11.369,21.818z M11.369,2C6.457,2,2.46,5.997,2.46,10.909c0,4.913,3.997,8.909,8.909,8.909s8.909-3.997,8.909-8.909C20.278,5.997,16.281,2,11.369,2z"/><path d="M30.314,28.668c-0.256,0-0.512-0.098-0.707-0.293L19.148,17.917c-0.391-0.391-0.391-1.023,0-1.414s1.023-0.391,1.414,0l10.459,10.459c0.391,0.391,0.391,1.023,0,1.414C30.826,28.571,30.57,28.668,30.314,28.668z"/><path d="M26.982,32c-0.256,0-0.512-0.098-0.707-0.293L15.642,21.073c-0.391-0.391-0.391-1.023,0-1.414s1.023-0.391,1.414,0l10.634,10.634c0.391,0.391,0.391,1.023,0,1.414C27.494,31.902,27.238,32,26.982,32z"/><path d="M19.003,30.866c-0.259,0-0.519-0.1-0.714-0.3c-0.387-0.394-0.381-1.027,0.014-1.414l3.456-3.39c0.393-0.387,1.027-0.381,1.414,0.014c0.387,0.394,0.381,1.027-0.014,1.414l-3.456,3.39C19.509,30.771,19.256,30.866,19.003,30.866z"/><path class="st0" d="M30.314,28.669c-0.423,0-0.815-0.27-0.952-0.693c-0.107-0.335-0.029-0.686,0.178-0.94v-5.353c0-0.552,0.447-1,1-1s1,0.448,1,1v5.555c0,0.75-0.461,1.235-0.919,1.382C30.52,28.653,30.416,28.669,30.314,28.669z M30.005,26.717L30.005,26.717L30.005,26.717z"/></svg>