<svg xmlns="http://www.w3.org/2000/svg" viewBox="0 0 32 32"><!--! Font Icona - https://fonticona.com | License - https://fonticona.com/license | Copyright 2022 FontIcona.com --><path d="M25.79,29.836c-0.721,0-1.454-0.155-2.181-0.466c-1.175-0.502-2.084-1.374-2.495-2.391c-0.928-2.295-0.169-4.463,0.502-6.375c0.477-1.36,0.927-2.646,0.8-3.889c-0.076-0.75-0.31-1.18-0.693-1.276c-0.7-0.176-2.108,0.503-2.954,1.65l-2.867,11.57c-0.112,0.444-0.512,0.756-0.97,0.756h-4.553c-0.31,0-0.602-0.144-0.791-0.388c-0.072-0.093-0.126-0.197-0.161-0.307c-1.751,1.017-3.594,1.251-5.363,0.64c-1.347-0.426-3.74-2.287-2.984-6.23l2.006-7.476H1c-0.315,0-0.613-0.149-0.802-0.402s-0.247-0.58-0.156-0.883l1.062-3.567c0.126-0.424,0.516-0.715,0.958-0.715H9.66c0.308,0,0.598,0.142,0.787,0.383c0.092,0.117,0.155,0.252,0.188,0.393l0.018-0.061c0.127-0.424,0.517-0.715,0.959-0.715h7.6c0.308,0,0.598,0.142,0.787,0.383c0.049,0.062,0.09,0.13,0.122,0.2c0.854-0.522,1.755-0.819,2.697-0.884c2.681-0.196,4.639,1.614,4.721,1.691c0.903,0.975,1.44,2.287,1.565,3.749c0.216,2.481-0.432,4.842-1.02,6.621c-0.106,0.325-0.258,0.654-0.414,0.985c-0.224,0.475-0.435,0.924-0.434,1.298c0,0.014,0,0.027,0.001,0.04c0.283-0.396,0.744-1.156,1.086-1.776c0.176-0.319,0.512-0.518,0.876-0.518c0.225,0,0.225,0,2.228,0.944c0.432,0.203,0.659,0.685,0.543,1.147c-0.469,1.868-1.746,4.249-3.923,5.328C27.324,29.656,26.564,29.836,25.79,29.836z M21.477,13.412c0.249,0,0.494,0.028,0.732,0.088c0.725,0.182,1.973,0.815,2.197,3.013c0.172,1.687-0.375,3.246-0.903,4.753c-0.606,1.732-1.18,3.368-0.535,4.964c0.212,0.523,0.745,1.01,1.428,1.301c0.966,0.414,1.896,0.405,2.763-0.023c1.102-0.547,2.084-1.776,2.63-3.246l-0.178-0.084c-1.021,1.73-1.389,1.877-1.619,1.969c-0.649,0.259-1.322,0.203-1.849-0.152c-0.565-0.383-0.904-1.076-0.906-1.857c-0.002-0.823,0.331-1.529,0.624-2.153c0.12-0.256,0.241-0.507,0.324-0.76c0.528-1.599,1.11-3.704,0.927-5.823c-0.088-1.022-0.439-1.914-0.99-2.512l0,0c-0.006,0-1.41-1.24-3.184-1.104c-1.229,0.092-2.406,0.821-3.498,2.17c-0.004,0.005-0.008,0.009-0.011,0.014C20.092,13.622,20.797,13.412,21.477,13.412z M2.341,13.655h2.048c0.311,0,0.604,0.145,0.794,0.392c0.188,0.247,0.253,0.567,0.172,0.868l-2.327,8.664c-0.598,3.13,1.57,3.854,1.663,3.884c1.833,0.629,3.469-0.141,4.696-1.143c-0.735,0.313-2.115,0.759-3.11-0.024c-1.069-0.84-0.781-2.395-0.744-2.569l2.854-11.639H2.808L2.341,13.655z M11.67,27.416h2.482l2.718-10.985c0.028-0.114,0.077-0.224,0.143-0.321c0.457-0.677,1.107-1.317,1.842-1.804c-0.211,0.043-0.435,0.015-0.637-0.086c-0.42-0.208-0.639-0.679-0.526-1.134l0.244-0.998h-5.578l-0.466,1.567h2.048c0.31,0,0.602,0.144,0.791,0.388c0.189,0.245,0.255,0.563,0.177,0.863l-2.125,8.211c-0.023,0.092-0.061,0.18-0.108,0.261c-0.506,0.849-1.06,1.456-1.549,1.883c0.104,0.021,0.207,0.057,0.305,0.111c0.396,0.222,0.593,0.683,0.479,1.122L11.67,27.416z M7.529,24.734c0.041-0.002,0.428,0.062,1.427-0.415c0.095-0.041,1.063-0.462,1.928-1.847l1.764-6.817h-2.097c-0.315,0-0.613-0.149-0.802-0.402c-0.021-0.028-0.041-0.058-0.059-0.089l-2.208,9.005c-0.032,0.176-0.016,0.48,0.042,0.566C7.524,24.734,7.526,24.734,7.529,24.734z"/><path d="M7.795,9.668c-2.068,0-3.752-1.684-3.752-3.752s1.684-3.752,3.752-3.752s3.752,1.684,3.752,3.752S9.863,9.668,7.795,9.668z M7.795,4.164c-0.966,0-1.752,0.786-1.752,1.752s0.786,1.752,1.752,1.752s1.752-0.786,1.752-1.752S8.761,4.164,7.795,4.164z"/></svg>