<svg xmlns="http://www.w3.org/2000/svg" viewBox="0 0 32 32"><!--! Font Icona - https://fonticona.com | License - https://fonticona.com/license | Copyright 2022 FontIcona.com --><path d="M12.673,32c-0.072,0-0.145-0.008-0.218-0.024c-0.539-0.12-0.879-0.654-0.76-1.193l6.667-30c0.12-0.54,0.658-0.877,1.193-0.759c0.539,0.12,0.879,0.654,0.76,1.193l-6.667,30C13.545,31.683,13.131,32,12.673,32z"/><path d="M24.333,2h-10c-0.553,0-1-0.448-1-1s0.447-1,1-1h10c0.553,0,1,0.448,1,1S24.886,2,24.333,2z"/><path d="M17.667,32h-10c-0.553,0-1-0.448-1-1s0.447-1,1-1h10c0.553,0,1,0.448,1,1S18.22,32,17.667,32z"/></svg>