<svg xmlns="http://www.w3.org/2000/svg" viewBox="0 0 32 32"><!--! Font Icona - https://fonticona.com | License - https://fonticona.com/license | Copyright 2022 FontIcona.com --><path d="M12.817,32c-0.512,0-0.947-0.39-0.995-0.91c-0.05-0.55,0.355-1.036,0.905-1.086c5.53-0.502,5.459-6.379,5.453-6.629V7.84c0-0.552,0.447-1,1-1s1,0.448,1,1v15.509c0.078,2.736-1.342,8.107-7.271,8.647C12.878,31.999,12.848,32,12.817,32z"/><path d="M19.181,3.666c-0.553,0-1-0.448-1-1V1c0-0.552,0.447-1,1-1s1,0.448,1,1v1.666C20.181,3.218,19.733,3.666,19.181,3.666z"/></svg>