<svg xmlns="http://www.w3.org/2000/svg" viewBox="0 0 32 32"><!--! Font Icona - https://fonticona.com | License - https://fonticona.com/license | Copyright 2022 FontIcona.com --><path d="M15.964,6.575c-0.952,0-9.296-0.092-9.296-3.288C6.668,0.092,15.013,0,15.964,0s9.297,0.092,9.297,3.287C25.261,6.483,16.916,6.575,15.964,6.575z M8.772,3.287c0.667,0.522,3.282,1.288,7.192,1.288s6.526-0.766,7.193-1.288C22.49,2.765,19.875,2,15.964,2C12.055,2,9.439,2.765,8.772,3.287z"/><path d="M15.964,11.227c-0.952,0-9.296-0.092-9.296-3.287V3.287h2v4.556c0.441,0.518,3.136,1.384,7.296,1.384c4.161,0,6.856-0.866,7.297-1.384V3.287h2v4.652C25.261,11.135,16.916,11.227,15.964,11.227z"/><path d="M16.225,32c-0.16,0-0.32,0-0.481,0c-0.139,0-0.277-0.001-0.416-0.003c-1.444-0.027-2.859-0.14-4.208-0.336c-1.228-0.176-2.665-0.44-4.002-1.063c-0.874-0.407-1.543-0.911-1.991-1.497c-0.271-0.354-0.47-0.754-0.59-1.187c-0.066-0.214-0.129-0.42-0.13-0.663c0-0.162,0-11.596,0-11.596c-0.088-1.375,0.438-2.711,1.521-3.802l1.419,1.41c-0.689,0.692-0.997,1.455-0.942,2.329c0.001,8.87,0.002,11.059-0.011,11.65l0.039,0.031l0.03,0.103c0.052,0.188,0.137,0.358,0.253,0.51c0.25,0.327,0.669,0.629,1.246,0.898c1.102,0.513,2.359,0.741,3.443,0.896c1.268,0.185,2.599,0.29,3.958,0.315C15.528,29.999,15.697,30,15.864,30l0.004-0.001L16.065,30c0.193-0.001,0.346,0,0.499-0.003c1.36-0.025,2.691-0.131,3.958-0.314c1.142-0.164,2.349-0.387,3.445-0.897c0.576-0.27,0.996-0.571,1.246-0.898c0.115-0.15,0.2-0.322,0.253-0.51l0.063-0.215l-0.007-11.507c0.061-1.012-0.306-1.83-1.121-2.563l0.584-0.82l-0.669,0.745l1.244-1.566l0.14,0.119c1.301,1.173,1.917,2.595,1.82,4.148l0.002,11.529c0,0.243-0.066,0.458-0.11,0.6c-0.142,0.502-0.34,0.901-0.61,1.255c-0.448,0.586-1.117,1.089-1.989,1.496c-1.336,0.622-2.774,0.887-4.005,1.064c-1.349,0.195-2.764,0.308-4.205,0.335C16.478,31.999,16.351,32,16.225,32z"/><path d="M13.11,15.8c-0.866,0-1.556-0.626-2.123-1.14c-0.244-0.222-0.579-0.524-0.739-0.58C9.8,13.925,9.421,13.898,8.94,13.865c-0.345-0.023-0.703-0.05-1.108-0.117c-0.206-0.034-0.408-0.062-0.607-0.091c-1.054-0.146-2.249-0.312-3.287-1.327c-0.507-0.495-0.583-0.981-0.557-1.303c0.059-0.736,0.638-1.144,1.061-1.441C4.758,9.361,5.015,9.199,5.269,9.04c0.674-0.424,1.206-0.758,1.519-1.338c0.263-0.485,0.87-0.668,1.355-0.404C8.629,7.561,8.81,8.167,8.548,8.653c-0.563,1.043-1.441,1.594-2.215,2.08c-0.22,0.139-0.443,0.278-0.661,0.432c0.476,0.31,1.021,0.399,1.827,0.512c0.219,0.03,0.44,0.062,0.664,0.099c0.333,0.056,0.63,0.075,0.915,0.095c0.553,0.038,1.125,0.077,1.825,0.319c0.547,0.189,0.995,0.596,1.428,0.989c0.169,0.153,0.418,0.379,0.609,0.513c0.074-0.155,0.154-0.347,0.211-0.483c0.302-0.725,0.644-1.545,1.439-1.759c0.85-0.231,1.701,0.315,2.455,0.796c0.208,0.133,0.521,0.332,0.632,0.37c0.254,0.095,1.029-0.393,1.489-0.68c0.535-0.333,1.087-0.678,1.662-0.838c1.021-0.283,1.853-0.057,2.52,0.124c0.524,0.144,0.938,0.252,1.432,0.166c0.421-0.077,0.801-0.152,1.138-0.266c-0.038-0.021-0.075-0.039-0.11-0.058c-0.106-0.056-0.21-0.103-0.314-0.15c-0.292-0.133-0.622-0.284-0.95-0.549c-0.276-0.222-0.469-0.502-0.639-0.749c-0.079-0.114-0.197-0.287-0.252-0.333c-0.486-0.262-0.651-0.857-0.39-1.344c0.262-0.485,0.885-0.656,1.372-0.396c0.431,0.232,0.701,0.623,0.917,0.938c0.078,0.112,0.194,0.281,0.248,0.327c0.132,0.106,0.306,0.187,0.526,0.287c0.135,0.062,0.272,0.125,0.408,0.196c0.302,0.157,0.718,0.374,1.061,0.609c0.34,0.233,0.808,0.555,0.828,1.187c0.021,0.647-0.481,1.04-0.695,1.208c-0.848,0.664-1.803,0.88-2.79,1.059c-0.939,0.174-1.702-0.036-2.315-0.203c-0.562-0.151-0.968-0.263-1.458-0.126c-0.297,0.082-0.726,0.35-1.14,0.607c-0.909,0.566-2.041,1.272-3.197,0.874c-0.336-0.115-0.687-0.339-1.058-0.575c-0.199-0.127-0.52-0.331-0.757-0.448c-0.075,0.156-0.157,0.354-0.215,0.493c-0.317,0.763-0.677,1.626-1.546,1.791C13.335,15.79,13.221,15.8,13.11,15.8z M26.843,11.679h0.01H26.843z"/></svg>