<svg xmlns="http://www.w3.org/2000/svg" viewBox="0 0 32 32"><!--! Font Icona - https://fonticona.com | License - https://fonticona.com/license | Copyright 2022 FontIcona.com --><path d="M16.021,17.667c-0.036,0-0.072-0.008-0.106-0.023l0,0l-0.03-0.014c-0.026-0.011-0.089-0.047-0.11-0.066c-1.062-0.969-2.161-1.972-3.055-3.195c-0.373-0.509-0.82-1.204-0.979-2.062c-0.14-0.758,0.014-1.479,0.459-2.14c0.413-0.615,0.944-1.188,1.625-1.752c0.357-0.295,0.719-0.584,1.082-0.874c0.505-0.403,1.01-0.807,1.5-1.227c0.572-0.49,1.051-0.961,1.463-1.438c1.051-1.214,1.402-2.624,1.043-4.19c-0.011-0.051-0.032-0.152,0.021-0.281c0.034-0.082,0.109-0.139,0.197-0.151c0.095-0.013,0.176,0.024,0.23,0.094l0.054,0.066c0.044,0.055,0.089,0.11,0.127,0.168c0.672,1.017,0.825,2.174,0.457,3.44c-0.274,0.941-0.803,1.84-1.662,2.827c-0.729,0.837-1.551,1.53-2.26,2.097c-0.711,0.568-1.234,1.107-1.645,1.695c-0.759,1.086-0.844,2.204-0.253,3.321c0.215,0.406,0.476,0.804,0.729,1.189c0.113,0.172,0.226,0.345,0.336,0.519l0.892,1.407c0.031,0.047,0.054,0.102,0.081,0.164l0.031,0.073c0.043,0.096,0.022,0.208-0.052,0.281C16.148,17.642,16.085,17.667,16.021,17.667z"/><path d="M14.573,30.269c-1.113,0-2.249-0.038-3.396-0.113c-1.953-0.127-3.698-0.332-5.334-0.626c-0.346-0.062-0.703-0.178-1.034-0.334c-0.358-0.169-0.465-0.401-0.491-0.566c-0.027-0.167,0.002-0.425,0.296-0.705c0.215-0.204,0.466-0.386,0.727-0.524c1.021-0.544,2.105-0.858,3.221-0.933c0.286-0.021,0.66-0.018,1.016,0.175c0.098,0.053,0.149,0.163,0.126,0.271c-0.023,0.109-0.115,0.189-0.226,0.197c-0.811,0.062-1.589,0.27-2.313,0.619c-0.096,0.046-0.189,0.101-0.274,0.164c-0.058,0.043-0.086,0.074-0.1,0.092c0.015,0.006,0.047,0.029,0.108,0.06c0.129,0.062,0.256,0.121,0.375,0.147c0.199,0.043,0.397,0.089,0.596,0.135c0.53,0.122,1.078,0.248,1.618,0.316c2.593,0.327,5.388,0.38,9.065,0.172c1.343-0.075,3.108-0.207,4.849-0.551c0.458-0.091,0.904-0.222,1.36-0.359c0.171-0.052,0.342-0.155,0.455-0.229c0.241-0.156,0.287-0.246,0.148-0.58c-0.044-0.106-0.009-0.229,0.084-0.298c0.092-0.069,0.219-0.064,0.309,0.011l0.119,0.096c0.112,0.088,0.224,0.178,0.315,0.284c0.225,0.259,0.203,0.616-0.053,0.869c-0.219,0.217-0.441,0.389-0.662,0.511c-0.666,0.372-1.379,0.591-2.244,0.804c-1.751,0.431-3.684,0.693-6.082,0.826C16.31,30.245,15.448,30.269,14.573,30.269z"/><path d="M17.181,18.728c-0.071,0-0.142-0.03-0.19-0.088c-0.077-0.091-0.08-0.223-0.006-0.316l0.214-0.271c0.087-0.105,0.174-0.21,0.246-0.324c0.482-0.757,0.438-1.504-0.135-2.22c-0.357-0.447-0.63-0.822-0.858-1.18c-0.336-0.527-0.539-1.1-0.602-1.703c-0.112-1.07,0.256-2.04,1.125-2.964c0.607-0.647,1.379-1.204,2.43-1.752c1.004-0.523,2.109-0.959,3.285-1.295l0.077-0.02c0.13-0.033,0.302,0.035,0.339,0.161c0.033,0.108-0.005,0.254-0.102,0.313l-0.452,0.277c-0.337,0.207-0.675,0.413-1.01,0.625c-0.82,0.523-1.614,1.048-2.304,1.713c-0.34,0.327-0.635,0.675-0.879,1.034c-0.347,0.507-0.38,1.056-0.101,1.63c0.148,0.303,0.333,0.594,0.524,0.891c0.1,0.153,0.206,0.301,0.313,0.449c0.097,0.134,0.193,0.268,0.285,0.405c0.558,0.836,0.594,1.706,0.108,2.583c-0.089,0.161-0.192,0.318-0.31,0.468c-0.465,0.601-1.08,1.107-1.879,1.55C17.264,18.718,17.222,18.728,17.181,18.728z"/><path d="M15.337,27.277c-1.161,0-2.206-0.131-3.175-0.396c-0.343-0.094-0.711-0.234-1.158-0.443c-0.201-0.095-0.401-0.247-0.593-0.453c-0.308-0.329-0.296-0.729,0.032-1.067c0.066-0.069,0.135-0.141,0.231-0.188c0.274-0.138,0.553-0.272,0.832-0.406l0.186-0.09c0.061-0.029,0.13-0.033,0.194-0.011c0.063,0.023,0.115,0.07,0.143,0.132c0.042,0.092,0.053,0.264-0.016,0.338c-0.118,0.126-0.147,0.191-0.155,0.214h0c0.014,0,0.073,0.037,0.229,0.077c0.396,0.1,0.82,0.152,1.231,0.203c1.799,0.22,3.613,0.125,5.597-0.282c0.216-0.046,0.408-0.013,0.623,0.103c0.336,0.178,0.679,0.347,1.028,0.519l0.419,0.208c0.087,0.043,0.141,0.132,0.139,0.229c-0.002,0.096-0.059,0.183-0.146,0.223l-0.058,0.027c-0.046,0.021-0.091,0.042-0.138,0.061c-1.426,0.574-2.989,0.906-4.644,0.985C15.865,27.271,15.598,27.277,15.337,27.277z"/><path d="M13.468,20.517c-0.734,0-1.483-0.019-2.25-0.056c-1.072-0.053-2.217-0.142-3.33-0.438c-0.224-0.059-0.434-0.138-0.626-0.234c-0.286-0.143-0.438-0.324-0.452-0.539c-0.014-0.217,0.117-0.421,0.391-0.604c0.07-0.046,0.14-0.09,0.212-0.126c1.589-0.781,3.144-1.186,4.752-1.235l0.148-0.001c0.123,0,0.274,0.091,0.292,0.212c0.019,0.125-0.052,0.281-0.174,0.315l-0.188,0.05c-0.123,0.032-0.246,0.063-0.367,0.104c-0.651,0.221-1.285,0.435-1.912,0.665c-0.143,0.054-0.285,0.158-0.382,0.236c0.359,0.129,0.652,0.202,0.926,0.238c1.292,0.177,2.602,0.148,3.87,0.122c2.658-0.056,5.335-0.312,7.959-0.76c0.028-0.006,0.061-0.009,0.112-0.013l0.07-0.006c0.127-0.021,0.225,0.062,0.261,0.172c0.035,0.111-0.01,0.231-0.11,0.292l-0.074,0.046c-0.045,0.026-0.076,0.046-0.108,0.062c-0.053,0.026-0.105,0.05-0.157,0.072c-0.091,0.04-0.177,0.077-0.241,0.125c-0.689,0.501-1.483,0.64-2.251,0.773C17.807,20.343,15.708,20.517,13.468,20.517z"/><path d="M14.836,23.828c-0.466,0-0.93-0.014-1.39-0.042c-0.959-0.061-1.982-0.165-2.96-0.517c-0.315-0.113-0.635-0.287-0.924-0.503c-0.223-0.165-0.283-0.36-0.294-0.494c-0.018-0.202,0.066-0.411,0.234-0.588c0.399-0.418,0.897-0.602,1.425-0.796l0.119-0.044c0.103-0.041,0.222-0.003,0.289,0.087c0.066,0.091,0.063,0.214-0.006,0.303l-0.107,0.132c-0.061,0.073-0.113,0.136-0.155,0.204c-0.046,0.073-0.053,0.127-0.045,0.153c0.01,0.029,0.055,0.052,0.081,0.062c0.274,0.109,0.568,0.185,0.85,0.22c2.559,0.311,5.237,0.193,7.957-0.354c0.277-0.054,0.456,0.04,0.597,0.142c0.205,0.146,0.425,0.274,0.644,0.402l0.243,0.145c0.026,0.016,0.053,0.027,0.079,0.039c0.084,0.038,0.187,0.141,0.192,0.232c0.009,0.122-0.071,0.277-0.19,0.305l-0.599,0.144c-0.43,0.104-0.859,0.207-1.292,0.293C17.984,23.669,16.394,23.828,14.836,23.828z"/><path d="M16.334,31.75c-0.418,0-0.847-0.005-1.287-0.014c-1.306-0.026-2.71-0.081-4.127-0.305c-0.478-0.076-0.952-0.189-1.41-0.3l-0.365-0.087c-0.17-0.039-0.337-0.122-0.509-0.253c-0.091-0.068-0.124-0.189-0.08-0.295c0.043-0.104,0.148-0.16,0.264-0.152l0.671,0.091c2.451,0.317,5.047,0.406,7.944,0.269c2.77-0.13,4.985-0.437,6.975-0.966c0.697-0.186,1.386-0.457,2.025-0.722c0.203-0.084,0.39-0.218,0.588-0.359c0.094-0.066,0.187-0.132,0.279-0.192c0.082-0.053,0.188-0.054,0.27-0.001c0.083,0.052,0.127,0.147,0.114,0.244c-0.049,0.358-0.231,0.689-0.502,0.908c-0.314,0.255-0.658,0.517-1.047,0.712c-1.004,0.502-2.097,0.735-3.128,0.912C21.015,31.585,18.868,31.75,16.334,31.75z"/><path d="M22.603,23.563c-0.005,0-0.01,0-0.014-0.001c-0.086-0.005-0.187-0.056-0.228-0.132c-0.06-0.109-0.05-0.283,0.051-0.356l0.062-0.048c0.06-0.048,0.121-0.095,0.188-0.131c0.63-0.342,1.444-0.819,2.146-1.474c0.4-0.372,0.676-0.721,0.868-1.097c0.282-0.554,0.302-1.138,0.053-1.603c-0.246-0.461-0.736-0.766-1.345-0.838c-0.155-0.02-0.329,0.011-0.512,0.041l-0.189,0.03c-0.074,0.01-0.147,0.033-0.221,0.055l-0.119,0.035c-0.098,0.028-0.204-0.01-0.266-0.091c-0.002-0.003-0.038-0.054-0.04-0.057c-0.077-0.112-0.05-0.266,0.061-0.345c0.038-0.027,0.074-0.057,0.11-0.087c0.099-0.08,0.21-0.172,0.351-0.225c1.022-0.383,1.973-0.342,2.83,0.115c1.219,0.651,1.642,2.019,1.004,3.252c-0.297,0.576-0.746,1.06-1.414,1.522c-0.864,0.6-1.869,1.038-3.259,1.421C22.696,23.559,22.637,23.563,22.603,23.563z M22.56,23.275h0.006H22.56z"/></svg>