<svg xmlns="http://www.w3.org/2000/svg" viewBox="0 0 32 32"><!--! Font Icona - https://fonticona.com | License - https://fonticona.com/license | Copyright 2022 FontIcona.com --><path d="M27.005,25.873c-0.105,0-0.214-0.017-0.319-0.053c-0.523-0.176-0.805-0.743-0.628-1.267c0.081-0.242,0.33-0.979-0.515-1.563c-0.571-0.396-1.22-0.697-1.906-1.016c-0.731-0.34-1.488-0.69-2.198-1.183c-1.293-0.896-1.769-2.331-1.272-3.84c0.012-0.061,0.337-1.258,1.601-2.006c1.075-0.635,2.456-0.734,4.099-0.295c1.316,0.352,2.492,1.528,2.149,3.362c-0.102,0.542-0.625,0.895-1.167,0.8c-0.543-0.102-0.9-0.624-0.8-1.167c0.104-0.554-0.132-0.911-0.7-1.063c-1.089-0.291-1.976-0.263-2.562,0.085c-0.543,0.32-0.696,0.83-0.698,0.835c-0.24,0.741-0.073,1.255,0.49,1.645c0.569,0.395,1.216,0.695,1.901,1.013c0.733,0.34,1.491,0.691,2.204,1.187c1.303,0.902,1.777,2.34,1.27,3.846C27.812,25.61,27.422,25.873,27.005,25.873z"/><path d="M24.138,27.756c-0.58,0-1.207-0.09-1.878-0.27c-1.317-0.353-2.492-1.529-2.149-3.362c0.102-0.542,0.627-0.894,1.167-0.8c0.543,0.102,0.9,0.624,0.8,1.167c-0.104,0.554,0.132,0.911,0.699,1.063c2.646,0.705,3.185-0.658,3.266-0.938c0.236-0.723,0.068-1.237-0.495-1.629c-0.567-0.393-1.215-0.692-1.899-1.011c-0.733-0.34-1.492-0.691-2.205-1.186c-1.303-0.904-1.777-2.342-1.27-3.847c0.176-0.523,0.743-0.809,1.267-0.628c0.523,0.176,0.805,0.743,0.628,1.267c-0.081,0.242-0.33,0.979,0.515,1.564c0.571,0.396,1.22,0.696,1.907,1.015c0.731,0.34,1.487,0.69,2.197,1.182c1.293,0.898,1.768,2.334,1.272,3.841c-0.012,0.061-0.337,1.257-1.6,2.005C25.723,27.566,24.979,27.756,24.138,27.756z"/><path d="M14.226,27.747c-2.185,0-3.962-1.777-3.962-3.962c0-0.553,0.447-1,1-1s1,0.447,1,1c0,1.082,0.88,1.962,1.962,1.962s1.962-0.88,1.962-1.962v-8.241c0-0.553,0.447-1,1-1s1,0.447,1,1v8.241C18.188,25.97,16.41,27.747,14.226,27.747z"/><path d="M29,32H3c-1.654,0-3-1.346-3-3V3c0-1.654,1.346-3,3-3h26c1.654,0,3,1.346,3,3v26C32,30.654,30.654,32,29,32z M3,2C2.448,2,2,2.448,2,3v26c0,0.552,0.448,1,1,1h26c0.552,0,1-0.448,1-1V3c0-0.552-0.448-1-1-1H3z"/></svg>