<svg xmlns="http://www.w3.org/2000/svg" viewBox="0 0 32 32"><!--! Font Icona - https://fonticona.com | License - https://fonticona.com/license | Copyright 2022 FontIcona.com --><path d="M20.847,20.299c-0.105,0-0.214-0.017-0.319-0.053c-0.523-0.176-0.805-0.743-0.628-1.267c0.112-0.335,0.193-0.828-0.41-1.247c-0.494-0.342-1.062-0.605-1.662-0.883c-0.65-0.302-1.324-0.614-1.96-1.056c-1.185-0.822-1.621-2.139-1.167-3.521c0.01-0.05,0.308-1.151,1.464-1.835c0.978-0.577,2.224-0.67,3.707-0.273c1.215,0.324,2.298,1.41,1.982,3.103c-0.101,0.542-0.615,0.897-1.167,0.8c-0.543-0.102-0.9-0.624-0.8-1.167c0.032-0.172,0.118-0.63-0.532-0.804c-2.223-0.592-2.671,0.519-2.738,0.747c-0.127,0.393-0.206,0.893,0.392,1.308c0.493,0.342,1.061,0.604,1.661,0.883c0.65,0.302,1.323,0.614,1.96,1.055c1.195,0.83,1.631,2.149,1.165,3.529C21.653,20.036,21.264,20.299,20.847,20.299z"/><path d="M18.318,21.961c-0.522,0-1.086-0.081-1.688-0.242c-1.214-0.324-2.298-1.409-1.983-3.102c0.102-0.543,0.622-0.896,1.166-0.801c0.543,0.102,0.901,0.623,0.801,1.166c-0.029,0.156-0.117,0.631,0.533,0.805c2.222,0.593,2.671-0.519,2.738-0.747c0.127-0.393,0.206-0.893-0.392-1.308c-0.493-0.342-1.06-0.604-1.659-0.882c-0.651-0.303-1.325-0.615-1.963-1.058c-1.195-0.827-1.632-2.146-1.164-3.528c0.177-0.523,0.745-0.804,1.268-0.627c0.523,0.177,0.804,0.744,0.627,1.268c-0.113,0.334-0.193,0.827,0.409,1.244c0.496,0.345,1.063,0.607,1.665,0.887c0.65,0.301,1.322,0.613,1.957,1.053c1.186,0.823,1.622,2.14,1.168,3.521c-0.01,0.05-0.308,1.151-1.464,1.835C19.757,21.788,19.082,21.961,18.318,21.961z"/><path d="M10.452,21.953c-1.992,0-3.613-1.621-3.613-3.614c0-0.553,0.447-1,1-1s1,0.447,1,1c0,0.89,0.724,1.614,1.613,1.614s1.614-0.725,1.614-1.614v-7.272c0-0.553,0.447-1,1-1s1,0.447,1,1v7.272C14.066,20.332,12.445,21.953,10.452,21.953z"/><path d="M29,27.5H3c-1.654,0-3-1.346-3-3v-17c0-1.654,1.346-3,3-3h26c1.654,0,3,1.346,3,3v17C32,26.154,30.654,27.5,29,27.5z M3,6.5c-0.552,0-1,0.448-1,1v17c0,0.552,0.448,1,1,1h26c0.552,0,1-0.448,1-1v-17c0-0.552-0.448-1-1-1H3z"/></svg>