<svg xmlns="http://www.w3.org/2000/svg" viewBox="0 0 32 32"><!--! Font Icona - https://fonticona.com | License - https://fonticona.com/license | Copyright 2022 FontIcona.com --><path d="M22.827,2.502c0,0,7.641,5.545,2.95,15.541c0,0,3.612-3.242,2.696-8.761c0,0,3.006,6.361-1.382,12.927c0,0,2.348-1.877,2.909-4.014c0,0-2.113,11.306-14,11.306S2,18.196,2,18.196c0.561,2.137,2.909,4.014,2.909,4.014C0.521,15.644,3.528,9.282,3.528,9.282c-0.916,5.519,2.696,8.761,2.696,8.761C1.532,8.048,9.173,2.502,9.173,2.502s-3.987,4.606,1.511,10.912c0,0-5.389,9.478,4.52,14.652l0.054,0.072l0.115-4.818l-1.795,1.855l0.959-2.73l-2.934-0.468l3.146-0.869l-0.945-3.003l1.591,2.449l0.621-17.988l0.616,17.988l1.58-2.449l-0.938,3.003l3.123,0.869l-2.913,0.468l0.952,2.73l-1.782-1.855l0.113,4.786l0.028-0.039c9.909-5.175,4.52-14.652,4.52-14.652C26.813,7.108,22.827,2.502,22.827,2.502 M9.187,0.498c-0.415,0-0.832,0.127-1.188,0.386C6.453,2.006,4.5,4.221,3.455,7.283C2.726,7.31,2.047,7.736,1.72,8.428c-0.098,0.208-1.698,3.691-1.046,8.27c-0.509,0.451-0.773,1.151-0.64,1.865C0.871,23.038,5.284,31.502,16,31.502s15.129-8.464,15.966-12.939c0.133-0.714-0.131-1.413-0.64-1.865c0.652-4.579-0.947-8.062-1.046-8.27c-0.327-0.692-1.007-1.118-1.736-1.144c-1.045-3.063-2.998-5.278-4.544-6.4c-0.353-0.256-0.765-0.381-1.174-0.381c-0.543,0-1.082,0.221-1.474,0.648c-0.682,0.743-0.703,1.875-0.054,2.643c0.297,0.366,2.646,3.561-1.491,8.306c-0.558,0.641-0.651,1.564-0.231,2.303c0.013,0.024,1.457,2.661,1.161,5.593l-0.94-0.261l0.323-1.033c0.298-0.955-0.155-1.983-1.061-2.408c-0.187-0.088-0.382-0.144-0.578-0.171L18.015,2.497c-0.037-1.077-0.921-1.931-1.999-1.931s-1.962,0.854-1.999,1.931l-0.47,13.624c-0.202,0.026-0.403,0.084-0.596,0.175c-0.905,0.426-1.355,1.455-1.055,2.409l0.323,1.027l-0.957,0.264c-0.297-2.932,1.148-5.57,1.165-5.601c0.411-0.737,0.319-1.66-0.235-2.296c-4.15-4.76-1.773-7.96-1.488-8.31c0.665-0.768,0.639-1.902-0.048-2.651C10.267,0.715,9.729,0.498,9.187,0.498L9.187,0.498z"/></svg>