<svg xmlns="http://www.w3.org/2000/svg" viewBox="0 0 32 32"><!--! Font Icona - https://fonticona.com | License - https://fonticona.com/license | Copyright 2022 FontIcona.com --><path d="M16,32c-0.256,0-0.512-0.098-0.707-0.293l-15-15c-0.391-0.391-0.391-1.023,0-1.414l15-15c0.391-0.391,1.023-0.391,1.414,0l15,15c0.391,0.391,0.391,1.023,0,1.414l-15,15C16.512,31.902,16.256,32,16,32z M2.414,16L16,29.586L29.586,16L16,2.414L2.414,16z"/><path d="M16,22.05c-0.256,0-0.512-0.098-0.707-0.293l-5.05-5.05c-0.391-0.391-0.391-1.023,0-1.414l5.05-5.05c0.391-0.391,1.023-0.391,1.414,0l5.05,5.05c0.391,0.391,0.391,1.023,0,1.414l-5.05,5.05C16.512,21.952,16.256,22.05,16,22.05z M12.364,16L16,19.636L19.636,16L16,12.364L12.364,16z"/><path d="M16,11.95c-0.254,0-0.508-0.096-0.703-0.289c-4.442-4.389-1.207-9.716-0.109-11.244c0.322-0.449,0.948-0.553,1.396-0.229c0.449,0.322,0.552,0.947,0.229,1.396c-1.107,1.542-3.334,5.471-0.109,8.656c0.393,0.388,0.396,1.021,0.008,1.414C16.516,11.851,16.258,11.95,16,11.95z"/><path d="M15.999,32c-0.202,0-0.406-0.061-0.582-0.188c-0.449-0.322-0.552-0.947-0.229-1.396c1.677-2.335,2.062-6.783,0.12-8.646c-0.398-0.383-0.411-1.016-0.029-1.414s1.015-0.41,1.414-0.029c3.009,2.888,2.098,8.501,0.12,11.255C16.617,31.855,16.311,32,15.999,32z"/></svg>