<svg xmlns="http://www.w3.org/2000/svg" viewBox="0 0 32 32"><!--! Font Icona - https://fonticona.com | License - https://fonticona.com/license | Copyright 2022 FontIcona.com --><path d="M16,32C7.178,32,0,24.822,0,16S7.178,0,16,0s16,7.178,16,16S24.822,32,16,32z M16,2C8.28,2,2,8.28,2,16s6.28,14,14,14s14-6.28,14-14S23.72,2,16,2z"/><path d="M1.772,21.596c-0.087,0-0.176-0.011-0.264-0.035c-0.533-0.146-0.847-0.695-0.702-1.229c0.773-2.833,1.946-6.021,4.778-8.185c1.688-1.29,3.723-2.262,6.047-2.89c2.746-0.742,4.48-0.723,5.157,0.059c0.36,0.416,0.427,0.977,0.185,1.538c-0.415,0.957-1.569,1.666-2.906,2.486c-1.096,0.673-2.598,1.595-2.734,2.267c-0.011,0.056-0.037,0.184,0.145,0.438c0.682,0.95,2.349,0.933,3.698,0.913l0.178-0.002c1.007-0.012,2.037-0.044,3.069-0.077c1.434-0.045,2.914-0.092,4.347-0.081c1.287,0.01,2.54,0.033,3.792,0.057c1.285,0.024,2.569,0.049,3.891,0.058c0.552,0.004,0.997,0.454,0.993,1.007c-0.004,0.55-0.451,0.993-1,0.993c-0.002,0-0.004,0-0.007,0c-1.33-0.009-2.622-0.033-3.915-0.058c-1.245-0.023-2.49-0.047-3.77-0.057c-1.395-0.01-2.854,0.035-4.268,0.08c-1.046,0.033-2.089,0.066-3.11,0.078l-0.175,0.002c-1.615,0.021-4.059,0.051-5.349-1.748c-0.57-0.795-0.575-1.525-0.48-1.998c0.308-1.525,2.006-2.567,3.648-3.575c0.412-0.253,0.935-0.574,1.36-0.877c-0.681,0.078-1.54,0.243-2.229,0.43c-2.072,0.559-3.874,1.416-5.355,2.548c-2.359,1.802-3.377,4.611-4.062,7.122C2.615,21.304,2.212,21.596,1.772,21.596z"/><path d="M15.064,31.791c-0.291,0-0.58-0.126-0.777-0.37c-1.202-1.481-3.703-4.565-1.433-7.6c1.764-2.358,4.872-2.528,7.643-2.511c1.084,0.009,2.17,0.037,3.256,0.065c1.692,0.044,3.44,0.09,5.149,0.053c0.553,0.03,1.009,0.427,1.021,0.979c0.012,0.552-0.426,1.01-0.979,1.021c-1.754,0.038-3.529-0.01-5.244-0.054c-1.074-0.028-2.146-0.057-3.219-0.064c-2.281-0.019-4.821,0.098-6.026,1.708c-1.113,1.488-0.295,3.071,1.385,5.143c0.348,0.429,0.282,1.059-0.147,1.406C15.508,31.718,15.285,31.791,15.064,31.791z"/><path d="M15.496,18.576l-1.099-1.672c0,0,1.439-0.945,1.628-1.066c0.379-0.245,0.758-0.492,1.132-0.749c0.556-0.381,1.135-0.719,1.695-1.046c0.553-0.323,1.076-0.629,1.569-0.968c0.79-0.543,1.556-0.828,2.645-0.982c0.544-0.075,1.053,0.303,1.13,0.85c0.077,0.547-0.303,1.054-0.85,1.131c-0.788,0.111-1.256,0.281-1.792,0.65c-0.554,0.381-1.133,0.719-1.694,1.046c-0.554,0.323-1.077,0.629-1.572,0.969c-0.39,0.268-0.784,0.524-1.181,0.781C16.917,17.641,15.496,18.576,15.496,18.576z"/><path d="M18.696,18.798c-0.534,0-0.978-0.422-0.999-0.96c-0.022-0.552,0.407-1.018,0.959-1.039c0.43-0.058,3.023-0.939,3.428-1.15c0.453-0.254,0.92-0.488,1.389-0.722l0.516-0.259c1.109-0.562,1.984-0.868,3.43-0.869c0,0,0.001,0,0.001,0c0.552,0,1,0.447,1,0.999c0,0.553-0.447,1.001-0.999,1.001c-0.964,0.001-1.531,0.147-2.526,0.652l-0.529,0.266c-0.439,0.219-0.878,0.438-1.308,0.679c-0.487,0.274-3.608,1.373-4.323,1.401C18.723,18.798,18.709,18.798,18.696,18.798z"/></svg>