<svg xmlns="http://www.w3.org/2000/svg" viewBox="0 0 32 32"><!--! Font Icona - https://fonticona.com | License - https://fonticona.com/license | Copyright 2022 FontIcona.com --><path d="M29.004,31.51c-0.043,0-0.087-0.001-0.13-0.003l-26-1.099C1.263,30.341,0,29.024,0,27.411v-0.953c0-1.613,1.263-2.93,2.874-2.997l26-1.098c0.801-0.038,1.604,0.259,2.201,0.83S32,24.534,32,25.36v3.148c0,0.825-0.328,1.595-0.924,2.166C30.512,31.216,29.78,31.51,29.004,31.51z M29.003,24.36c-0.015,0-0.029,0-0.044,0.001L2.958,25.459C2.421,25.481,2,25.92,2,26.458v0.953c0,0.538,0.421,0.977,0.958,0.999l26,1.099c0.27,0.018,0.535-0.087,0.733-0.277C29.891,29.041,30,28.784,30,28.509V25.36c0-0.275-0.109-0.532-0.309-0.723C29.504,24.458,29.261,24.36,29.003,24.36z"/><path d="M25.641,31.369c-0.553,0-1-0.447-1-1V23.5c0-0.553,0.447-1,1-1s1,0.447,1,1v6.869C26.641,30.922,26.193,31.369,25.641,31.369z"/><path class="st0" d="M28.623,21.095c-0.26,0-0.52-0.101-0.716-0.302c-1.558-1.598-2.281-4.186-1.985-7.101c0.178-1.533,0.967-2.53,1.663-3.409c0.432-0.544,0.839-1.059,1.086-1.667c1.081-2.136,0.128-4.772-1.112-6.554c-0.316-0.453-0.204-1.076,0.249-1.392c0.453-0.315,1.076-0.204,1.392,0.25c1.571,2.255,2.735,5.68,1.29,8.525c-0.32,0.797-0.859,1.479-1.336,2.08c-0.607,0.768-1.133,1.43-1.243,2.384c-0.234,2.31,0.285,4.316,1.429,5.488c0.386,0.396,0.378,1.028-0.018,1.414C29.127,21,28.875,21.095,28.623,21.095z"/><path class="st0" d="M24.052,20.888c-0.183,0-0.368-0.05-0.534-0.155c-1.478-0.936-2.497-2.765-2.797-5.019c-0.146-1.224,0.274-2.124,0.645-2.917c0.213-0.456,0.414-0.887,0.483-1.339c0.396-1.662-0.762-3.379-1.87-4.37c-0.412-0.368-0.447-1-0.08-1.412c0.37-0.412,1.001-0.447,1.412-0.079c1.593,1.423,3.086,3.812,2.498,6.247c-0.097,0.652-0.38,1.261-0.631,1.798c-0.307,0.657-0.549,1.177-0.473,1.821c0.22,1.651,0.907,2.96,1.883,3.579c0.467,0.296,0.605,0.913,0.31,1.38C24.707,20.724,24.383,20.888,24.052,20.888z"/></svg>