<svg xmlns="http://www.w3.org/2000/svg" viewBox="0 0 32 32"><!--! Font Icona - https://fonticona.com | License - https://fonticona.com/license | Copyright 2022 FontIcona.com --><path d="M16,27.158c-3.008,0-5.551-2.659-5.917-6.186l1.989-0.207c0.259,2.504,1.948,4.393,3.927,4.393c2.184,0,3.96-2.267,3.96-5.052v-5.828h2v5.828C21.96,23.995,19.287,27.158,16,27.158z M16,23.947c-1.211,0-2.327-1.195-2.653-2.843l1.962-0.389c0.157,0.793,0.567,1.198,0.712,1.233c0.143-0.046,0.728-0.687,0.728-1.843v-5.907h2v5.907C18.75,22.188,17.49,23.947,16,23.947z M15.25,17.698h-2v-5.907c0-2.082,1.259-3.841,2.75-3.841c1.21,0,2.326,1.196,2.653,2.844l-1.962,0.389c-0.157-0.793-0.568-1.198-0.712-1.234c-0.143,0.046-0.729,0.687-0.729,1.843V17.698z M12.039,17.62h-2v-5.829c0-2.892,1.529-5.534,3.806-6.577C14.532,4.899,15.257,4.739,16,4.739c3.008,0,5.551,2.659,5.916,6.187l-1.989,0.205C19.667,8.627,17.979,6.739,16,6.739c-0.453,0-0.898,0.099-1.322,0.293c-1.578,0.723-2.639,2.636-2.639,4.759V17.62z"/><path d="M17.67,21.909h-5.829c-3.888,0-7.051-2.674-7.051-5.96c0-3.008,2.659-5.551,6.186-5.917l0.206,1.99c-2.504,0.259-4.392,1.947-4.392,3.927c0,2.184,2.266,3.96,5.051,3.96h5.829V21.909z M21.022,21.865l-0.205-1.99c2.504-0.258,4.392-1.946,4.392-3.926c0-2.184-2.266-3.961-5.052-3.961h-5.829v-2h5.829c3.888,0,7.052,2.674,7.052,5.961C27.209,18.957,24.55,21.501,21.022,21.865z M17.75,18.698h-5.908c-2.082,0-3.84-1.259-3.84-2.749c0-1.212,1.196-2.327,2.844-2.653l0.388,1.963c-0.793,0.156-1.198,0.566-1.233,0.712c0.046,0.143,0.687,0.728,1.842,0.728h5.908V18.698z M21.155,18.602l-0.389-1.961c0.792-0.157,1.198-0.568,1.234-0.713c-0.046-0.143-0.687-0.729-1.843-0.729H14.25v-2h5.908c2.082,0,3.841,1.26,3.841,2.75C23.999,17.16,22.803,18.275,21.155,18.602z"/><path d="M18.091,6.885l-1.086-1.68c0.504-0.326,0.806-0.871,0.806-1.456C17.811,2.784,16.999,2,16,2s-1.811,0.784-1.811,1.749c0,0.578,0.295,1.119,0.791,1.446l-1.103,1.668c-1.057-0.698-1.688-1.862-1.688-3.114C12.189,1.682,13.899,0,16,0s3.811,1.682,3.811,3.749C19.811,5.016,19.168,6.188,18.091,6.885z"/><path d="M16,32c-2.101,0-3.811-1.682-3.811-3.749c0-1.267,0.643-2.438,1.72-3.136l1.086,1.68c-0.504,0.326-0.806,0.871-0.806,1.456C14.189,29.216,15.001,30,16,30s1.811-0.784,1.811-1.749c0-0.578-0.295-1.119-0.791-1.446l1.103-1.668c1.057,0.698,1.688,1.862,1.688,3.114C19.811,30.318,18.101,32,16,32z"/><path d="M28.25,19.811c-1.267,0-2.438-0.643-3.135-1.72l1.68-1.086c0.326,0.505,0.87,0.806,1.455,0.806c0.965,0,1.75-0.812,1.75-1.811s-0.785-1.811-1.75-1.811c-0.578,0-1.118,0.296-1.446,0.791l-1.668-1.104c0.699-1.057,1.863-1.688,3.114-1.688c2.067,0,3.75,1.709,3.75,3.811S30.318,19.811,28.25,19.811z"/><path d="M3.75,19.811C1.682,19.811,0,18.102,0,16s1.682-3.811,3.75-3.811c1.267,0,2.438,0.643,3.135,1.72l-1.68,1.086c-0.326-0.505-0.87-0.806-1.455-0.806C2.785,14.189,2,15.002,2,16s0.785,1.811,1.75,1.811c0.578,0,1.118-0.296,1.446-0.791l1.668,1.104C6.165,19.18,5,19.811,3.75,19.811z"/></svg>