<svg xmlns="http://www.w3.org/2000/svg" viewBox="0 0 32 32"><!--! Font Icona - https://fonticona.com | License - https://fonticona.com/license | Copyright 2022 FontIcona.com --><path d="M26.76,32H5.24c-1.726,0-3.13-1.404-3.13-3.13v-2.237c0-1.726,1.404-3.13,3.13-3.13h1.074c0.552,0,1,0.448,1,1s-0.448,1-1,1H5.24c-0.623,0-1.13,0.507-1.13,1.13v2.237c0,0.623,0.507,1.13,1.13,1.13h21.52c0.623,0,1.13-0.507,1.13-1.13v-2.237c0-0.623-0.507-1.13-1.13-1.13h-0.337c-0.552,0-1-0.448-1-1s0.448-1,1-1h0.337c1.726,0,3.13,1.404,3.13,3.13v2.237C29.89,30.596,28.485,32,26.76,32z"/><path d="M16,25.503c-0.552,0-1-0.448-1-1V12.528c0-0.552,0.448-1,1-1s1,0.448,1,1v11.975C17,25.055,16.552,25.503,16,25.503z"/><path d="M16,13.528c-3.73,0-6.764-3.034-6.764-6.764C9.236,3.034,12.27,0,16,0s6.764,3.034,6.764,6.764C22.764,10.494,19.73,13.528,16,13.528z M16,2c-2.627,0-4.764,2.137-4.764,4.764c0,2.626,2.137,4.764,4.764,4.764s4.764-2.137,4.764-4.764C20.764,4.137,18.627,2,16,2z"/><path d="M26.76,25.503H5.698c-0.552,0-1-0.448-1-1s0.448-1,1-1H26.76c0.552,0,1,0.448,1,1S27.312,25.503,26.76,25.503z"/><circle cx="17.596" cy="5.062" r="1.331"/><path d="M10.171,25.438h-2c-0.552,0-1-0.448-1-1v-2c0-0.552,0.448-1,1-1h2c0.552,0,1,0.448,1,1v2C11.171,24.99,10.723,25.438,10.171,25.438z"/></svg>