<svg xmlns="http://www.w3.org/2000/svg" viewBox="0 0 32 32"><!--! Font Icona - https://fonticona.com | License - https://fonticona.com/license | Copyright 2022 FontIcona.com --><path d="M6.86,27.252c-3.783,0-6.86-3.077-6.86-6.86c0-2.402,1.265-4.617,3.284-5.854c-0.044-0.255-0.066-0.513-0.066-0.772c0-2.559,2.081-4.64,4.639-4.64c0.89,0,1.74,0.251,2.47,0.712c1.589-3.095,4.784-5.09,8.349-5.09c5.177,0,9.389,4.211,9.389,9.388c0,0.017,0,0.033,0,0.05C30.446,15.307,32,17.713,32,20.392c0,3.764-3.062,6.841-6.825,6.86H6.86z M7.856,11.126c-1.455,0-2.639,1.185-2.639,2.64c0,0.313,0.058,0.626,0.173,0.928c0.187,0.494-0.043,1.049-0.524,1.266C3.125,16.745,2,18.484,2,20.392c0,2.68,2.181,4.86,4.86,4.86h18.31c2.661-0.014,4.83-2.194,4.83-4.86c0-2.08-1.322-3.928-3.291-4.6c-0.437-0.148-0.714-0.575-0.674-1.033c0.018-0.206,0.028-0.413,0.028-0.623c0-4.073-3.314-7.388-7.389-7.388c-3.197,0-6.017,2.039-7.017,5.074c-0.115,0.35-0.413,0.607-0.775,0.672c-0.366,0.066-0.731-0.076-0.959-0.364C9.419,11.492,8.665,11.126,7.856,11.126z"/><path d="M21.105,23.971c-1.051,0-2.077-0.363-2.893-1.023l-5.757-5.656c-0.395-0.313-0.96-0.513-1.562-0.513c-1.432,0-2.596,1.164-2.596,2.596s1.164,2.597,2.596,2.597c0.667,0,1.3-0.252,1.783-0.709c0.4-0.38,1.034-0.364,1.414,0.04c0.38,0.4,0.361,1.034-0.039,1.413c-0.857,0.81-1.979,1.256-3.158,1.256c-2.534,0-4.596-2.062-4.596-4.597s2.062-4.596,4.596-4.596c1.05,0,2.076,0.363,2.892,1.022l5.758,5.656c0.395,0.313,0.96,0.514,1.562,0.514c1.432,0,2.596-1.165,2.596-2.597s-1.164-2.596-2.596-2.596c-0.7,0-1.355,0.273-1.846,0.77c-0.388,0.392-1.021,0.397-1.414,0.008c-0.393-0.388-0.396-1.021-0.008-1.414c0.868-0.879,2.029-1.363,3.268-1.363c2.534,0,4.596,2.062,4.596,4.596S23.64,23.971,21.105,23.971z"/></svg>