<svg xmlns="http://www.w3.org/2000/svg" viewBox="0 0 32 32"><!--! Font Icona - https://fonticona.com | License - https://fonticona.com/license | Copyright 2022 FontIcona.com --><path d="M8.205,27.684c-0.49,0-0.986-0.115-1.446-0.359c-1.502-0.797-2.085-2.672-1.3-4.181l3.856-7.271c0.124-0.234,0.336-0.409,0.59-0.487s0.527-0.052,0.762,0.072l3.724,1.976c0.488,0.259,0.673,0.864,0.415,1.353l-3.852,7.264C10.389,27.091,9.312,27.684,8.205,27.684z M10.612,17.694l-3.384,6.381c-0.276,0.53-0.068,1.199,0.468,1.482c0.534,0.287,1.205,0.082,1.493-0.452l3.38-6.373L10.612,17.694z"/><path d="M19.764,31.999c-1.321,0-2.553-0.852-2.969-2.173l-2.416-7.867c-0.162-0.528,0.135-1.088,0.663-1.25l4.03-1.237c0.251-0.077,0.527-0.052,0.762,0.072c0.234,0.125,0.41,0.337,0.488,0.591l2.413,7.86c0.488,1.637-0.438,3.368-2.064,3.867C20.37,31.955,20.064,31.999,19.764,31.999z M16.585,22.327l2.119,6.905c0.179,0.569,0.798,0.896,1.379,0.718c0.58-0.178,0.91-0.795,0.736-1.376l-2.117-6.897L16.585,22.327z"/><path d="M17.364,22.042c-0.047,0-0.095-0.003-0.144-0.01c-0.546-0.079-0.926-0.586-0.848-1.132c0.36-2.516,2.519-3.456,4.253-4.212c0.509-0.222,0.989-0.432,1.402-0.664c0.478-0.27,1.593-1.01,1.623-2.057c0.008-0.272-0.175-0.597-0.386-0.972c-0.3-0.532-0.673-1.194-0.638-2.029c0.046-1.093,0.75-1.863,1.315-2.482c0.29-0.317,0.563-0.616,0.695-0.89c0.337-0.699,0.344-1.479,0.019-2.317c-0.299-0.772-1.076-1.672-1.889-2.187c-1.644-1.04-4.422-1.387-6.61-0.818c-1.015,0.263-2.369,0.841-3.058,2.104c-0.707,1.293-0.678,3.033,0.074,4.542c0.223,0.446,0.572,0.892,0.941,1.363c0.778,0.991,1.66,2.115,1.594,3.632c-0.054,1.26-1.2,2.316-2.65,3.654l-0.454,0.42c-0.403,0.377-1.037,0.354-1.413-0.05c-0.376-0.404-0.354-1.036,0.05-1.413l0.461-0.428c0.792-0.73,1.989-1.835,2.008-2.27c0.033-0.777-0.524-1.488-1.17-2.312c-0.415-0.529-0.844-1.077-1.158-1.705c-1.039-2.086-1.054-4.535-0.039-6.394c0.816-1.496,2.308-2.562,4.312-3.081c2.715-0.705,6.08-0.266,8.181,1.065c1.177,0.745,2.231,1.983,2.684,3.153c0.525,1.355,0.497,2.707-0.083,3.909C26.179,9,25.775,9.443,25.418,9.833c-0.4,0.438-0.778,0.853-0.794,1.218c-0.011,0.266,0.171,0.589,0.382,0.964c0.297,0.527,0.667,1.183,0.643,2.011c-0.042,1.454-1.004,2.818-2.64,3.741c-0.501,0.283-1.052,0.522-1.585,0.755c-1.786,0.778-2.884,1.347-3.073,2.662C18.281,21.683,17.853,22.042,17.364,22.042z"/></svg>