<svg xmlns="http://www.w3.org/2000/svg" viewBox="0 0 32 32"><!--! Font Icona - https://fonticona.com | License - https://fonticona.com/license | Copyright 2022 FontIcona.com --><path d="M7.458,32c-0.552,0-1-0.448-1-1V1c0-0.552,0.448-1,1-1s1,0.448,1,1v30C8.458,31.552,8.011,32,7.458,32z"/><path d="M7.458,20.104c-0.235,0-0.472-0.083-0.662-0.251c-0.414-0.366-0.452-0.998-0.086-1.412L22.721,0.337c0.366-0.413,0.997-0.453,1.412-0.086c0.414,0.366,0.452,0.998,0.086,1.412L8.208,19.767C8.01,19.99,7.735,20.104,7.458,20.104z"/><path d="M24.542,32c-0.317,0-0.629-0.15-0.823-0.431L11.596,14.066c-0.314-0.454-0.201-1.077,0.253-1.392c0.454-0.314,1.076-0.202,1.392,0.253l12.124,17.503c0.314,0.454,0.201,1.077-0.253,1.392C24.937,31.942,24.739,32,24.542,32z"/></svg>