<svg xmlns="http://www.w3.org/2000/svg" viewBox="0 0 32 32"><!--! Font Icona - https://fonticona.com | License - https://fonticona.com/license | Copyright 2022 FontIcona.com --><path d="M9.881,25.75c-0.552,0-1-0.448-1-1V1c0-0.552,0.448-1,1-1s1,0.448,1,1v23.75C10.881,25.302,10.434,25.75,9.881,25.75z"/><path d="M9.881,17.24c-0.256,0-0.511-0.098-0.707-0.292c-0.391-0.39-0.391-1.023-0.001-1.414L19.881,4.81c0.39-0.392,1.022-0.391,1.414-0.001c0.391,0.39,0.391,1.023,0.001,1.414L10.589,16.947C10.394,17.143,10.138,17.24,9.881,17.24z"/><path d="M22.12,25.75c-0.308,0-0.612-0.142-0.808-0.409l-8.703-11.875c-0.326-0.446-0.23-1.071,0.215-1.398c0.446-0.326,1.072-0.229,1.398,0.215l8.703,11.875c0.326,0.446,0.23,1.071-0.215,1.398C22.532,25.687,22.325,25.75,22.12,25.75z"/></svg>