<svg xmlns="http://www.w3.org/2000/svg" viewBox="0 0 32 32"><!--! Font Icona - https://fonticona.com | License - https://fonticona.com/license | Copyright 2022 FontIcona.com --><path d="M16,31.901c-0.4,0-0.8-0.018-1.111-0.055L1.876,30.293C0.824,30.167,0,29.239,0,28.18V6.018c0-1.007,0.733-1.966,1.705-2.229l13.068-3.548c0.7-0.19,1.756-0.19,2.456,0l13.067,3.548C31.267,4.053,32,5.011,32,6.018V28.18c0,1.059-0.824,1.987-1.875,2.113l-13.012,1.553C16.801,31.884,16.4,31.901,16,31.901z M15.297,2.173L2.229,5.721C2.133,5.747,2.002,5.919,2.002,6.018V28.18c0,0.044,0.068,0.12,0.112,0.125l13.012,1.553c0.466,0.055,1.284,0.055,1.751,0l13.011-1.553c0.043-0.005,0.11-0.081,0.11-0.125V6.018c0-0.099-0.131-0.271-0.227-0.297L16.704,2.173C16.344,2.075,15.659,2.075,15.297,2.173L15.297,2.173z"/><path d="M30.83,13.458l-14.017-2.802c-0.328-0.065-0.621-0.124-0.799-0.159c-0.178,0.035-0.471,0.093-0.799,0.159L1.197,13.458l-0.392-1.963l14.018-2.802c1.078-0.216,1.078-0.216,1.191-0.216c0.113,0,0.113,0,1.191,0.216l14.018,2.802L30.83,13.458z"/><path d="M30.983,19.553c-0.03,0-0.06-0.001-0.091-0.004l-2.991-0.269c-0.55-0.05-0.957-0.536-0.907-1.087c0.05-0.55,0.529-0.956,1.087-0.907l2.991,0.269c0.55,0.05,0.957,0.536,0.907,1.087C31.932,19.162,31.495,19.553,30.983,19.553z M25.002,19.015c-0.03,0-0.061-0.001-0.091-0.004l-2.991-0.27c-0.55-0.05-0.957-0.537-0.907-1.087c0.05-0.551,0.542-0.951,1.087-0.907l2.991,0.27c0.55,0.05,0.957,0.537,0.907,1.087C25.951,18.624,25.514,19.015,25.002,19.015z M19.02,18.477c-0.03,0-0.061-0.001-0.091-0.004l-2.989-0.269c-0.551-0.05-0.957-0.536-0.908-1.087c0.05-0.55,0.533-0.952,1.086-0.907l2.99,0.269c0.55,0.05,0.957,0.536,0.907,1.087C19.969,18.086,19.532,18.477,19.02,18.477z"/><path d="M1.149,19.597c-0.513,0-0.949-0.391-0.996-0.911c-0.049-0.551,0.357-1.037,0.908-1.087l2.99-0.269c0.548-0.055,1.037,0.357,1.086,0.907c0.049,0.551-0.357,1.037-0.908,1.087l-2.99,0.269C1.209,19.596,1.179,19.597,1.149,19.597z M7.13,19.059c-0.512,0-0.949-0.391-0.996-0.911c-0.049-0.55,0.356-1.037,0.907-1.087l2.99-0.27c0.564-0.044,1.038,0.357,1.087,0.907c0.049,0.55-0.356,1.037-0.907,1.087l-2.99,0.27C7.19,19.058,7.16,19.059,7.13,19.059z M13.111,18.521c-0.513,0-0.949-0.391-0.996-0.911c-0.049-0.551,0.357-1.038,0.908-1.087l2.99-0.269c0.547-0.046,1.037,0.357,1.086,0.907c0.05,0.551-0.356,1.037-0.907,1.087l-2.99,0.269C13.171,18.52,13.141,18.521,13.111,18.521z"/><path d="M16,31.902c-0.553,0-1.001-0.448-1.001-1.001V1.099C15,0.546,15.448,0.098,16,0.098c0.553,0,1.001,0.448,1.001,1.001v29.802C17.001,31.455,16.553,31.902,16,31.902z"/></svg>