<svg xmlns="http://www.w3.org/2000/svg" viewBox="0 0 32 32"><!--! Font Icona - https://fonticona.com | License - https://fonticona.com/license | Copyright 2022 FontIcona.com --><path d="M11.577,32H7.661c-0.552,0-1-0.447-1-1V1c0-0.553,0.448-1,1-1h3.916c0.552,0,1,0.447,1,1v14.949l4.436-4.889c0.189-0.209,0.458-0.328,0.741-0.328h5.287c0.396,0,0.754,0.233,0.915,0.595c0.16,0.362,0.092,0.784-0.174,1.077l-6.594,7.268l7.951,10.536c0.229,0.303,0.266,0.709,0.097,1.049c-0.169,0.339-0.516,0.554-0.895,0.554h-4.905c-0.314,0-0.609-0.147-0.798-0.397l-5.494-7.282l-0.564,0.622V31C12.577,31.552,12.129,32,11.577,32z M8.661,30h1.916v-5.633c0-0.248,0.092-0.488,0.259-0.672l1.635-1.803c0.2-0.221,0.499-0.354,0.786-0.327c0.298,0.014,0.574,0.159,0.753,0.396l5.921,7.849h2.4l-7.24-9.595c-0.289-0.384-0.265-0.919,0.058-1.274l5.633-6.209h-2.586l-5.878,6.479c-0.278,0.307-0.717,0.412-1.101,0.261c-0.386-0.148-0.64-0.52-0.64-0.933V2H8.661V30z"/></svg>