<svg xmlns="http://www.w3.org/2000/svg" viewBox="0 0 32 32"><!--! Font Icona - https://fonticona.com | License - https://fonticona.com/license | Copyright 2022 FontIcona.com --><path d="M22.85,15.127c-1.938,0-3.875-0.737-5.349-2.212c-1.429-1.429-2.216-3.329-2.216-5.35c0-2.021,0.787-3.921,2.216-5.35c2.95-2.95,7.749-2.948,10.699,0c2.949,2.949,2.949,7.749,0,10.699l0,0C26.725,14.39,24.787,15.127,22.85,15.127z M22.85,2.003c-1.425,0-2.85,0.542-3.935,1.627c-1.051,1.051-1.63,2.448-1.63,3.936c0,1.486,0.579,2.884,1.63,3.936c2.17,2.171,5.7,2.169,7.871,0c2.169-2.171,2.169-5.701,0-7.871C25.701,2.545,24.275,2.003,22.85,2.003z M27.493,12.208h0.01H27.493z"/><path d="M2.584,28.831c-0.256,0-0.512-0.098-0.707-0.293c-0.391-0.391-0.391-1.023,0-1.414l15.624-15.623c0.391-0.391,1.023-0.391,1.414,0s0.391,1.023,0,1.414L3.292,28.538C3.096,28.733,2.84,28.831,2.584,28.831z"/><path d="M10.664,32c-0.256,0-0.512-0.098-0.707-0.293l-5.625-5.624c-0.188-0.188-0.293-0.441-0.293-0.707s0.105-0.52,0.293-0.707l5.625-5.625c0.375-0.375,1.039-0.375,1.414,0l5.625,5.625c0.188,0.188,0.293,0.441,0.293,0.707s-0.105,0.52-0.293,0.707l-5.625,5.624C11.176,31.902,10.92,32,10.664,32z M6.454,25.376l4.21,4.21l4.21-4.21l-4.21-4.211L6.454,25.376z"/><path d="M13.467,29.105c-0.259,0-0.517-0.1-0.713-0.299l-2.803-2.849c-0.387-0.394-0.382-1.026,0.012-1.414c0.394-0.386,1.027-0.382,1.414,0.012l2.803,2.849c0.387,0.394,0.382,1.026-0.012,1.414C13.974,29.01,13.72,29.105,13.467,29.105z"/></svg>