<svg xmlns="http://www.w3.org/2000/svg" viewBox="0 0 32 32"><!--! Font Icona - https://fonticona.com | License - https://fonticona.com/license | Copyright 2022 FontIcona.com --><path d="M29,24.729H3c-1.654,0-3-1.346-3-3V10.271c0-1.654,1.346-3,3-3h26c1.654,0,3,1.346,3,3v11.458C32,23.383,30.654,24.729,29,24.729z M3,9.271c-0.551,0-1,0.448-1,1v11.458c0,0.552,0.449,1,1,1h26c0.551,0,1-0.448,1-1V10.271c0-0.552-0.449-1-1-1H3z"/><path d="M6.406,12.675h-1c-0.552,0-1-0.447-1-1s0.448-1,1-1h1c0.552,0,1,0.447,1,1S6.958,12.675,6.406,12.675z"/><path d="M11.406,12.675h-1c-0.552,0-1-0.447-1-1s0.448-1,1-1h1c0.552,0,1,0.447,1,1S11.958,12.675,11.406,12.675z"/><path d="M16.406,12.675h-1c-0.552,0-1-0.447-1-1s0.448-1,1-1h1c0.552,0,1,0.447,1,1S16.958,12.675,16.406,12.675z"/><path d="M21.406,12.675h-1c-0.552,0-1-0.447-1-1s0.448-1,1-1h1c0.552,0,1,0.447,1,1S21.958,12.675,21.406,12.675z"/><path d="M26.406,12.675h-1c-0.552,0-1-0.447-1-1s0.448-1,1-1h1c0.552,0,1,0.447,1,1S26.958,12.675,26.406,12.675z"/><path d="M6.406,17h-1c-0.552,0-1-0.447-1-1c0-0.553,0.448-1,1-1h1c0.552,0,1,0.447,1,1C7.406,16.553,6.958,17,6.406,17z"/><path d="M11.406,17h-1c-0.552,0-1-0.447-1-1c0-0.553,0.448-1,1-1h1c0.552,0,1,0.447,1,1C12.406,16.553,11.958,17,11.406,17z"/><path d="M16.406,17h-1c-0.552,0-1-0.447-1-1c0-0.553,0.448-1,1-1h1c0.552,0,1,0.447,1,1C17.406,16.553,16.958,17,16.406,17z"/><path d="M26.406,17h-6c-0.552,0-1-0.447-1-1c0-0.553,0.448-1,1-1h6c0.552,0,1,0.447,1,1C27.406,16.553,26.958,17,26.406,17z"/><path d="M6.406,21.325h-1c-0.552,0-1-0.447-1-1s0.448-1,1-1h1c0.552,0,1,0.447,1,1S6.958,21.325,6.406,21.325z"/><path d="M21.406,21.325h-11c-0.552,0-1-0.447-1-1s0.448-1,1-1h11c0.552,0,1,0.447,1,1S21.958,21.325,21.406,21.325z"/><path d="M26.406,21.325h-1c-0.552,0-1-0.447-1-1s0.448-1,1-1h1c0.552,0,1,0.447,1,1S26.958,21.325,26.406,21.325z"/></svg>