<svg xmlns="http://www.w3.org/2000/svg" viewBox="0 0 32 32"><!--! Font Icona - https://fonticona.com | License - https://fonticona.com/license | Copyright 2022 FontIcona.com --><path d="M19.614,21.757h-7.188l0.885-3.681c-1.009-0.817-1.612-2.054-1.612-3.379c0-2.4,1.929-4.353,4.301-4.353c2.371,0,4.301,1.953,4.301,4.353c0,1.305-0.59,2.532-1.578,3.351L19.614,21.757z M14.964,19.757h2.113l-0.635-2.639l0.658-0.371c0.741-0.418,1.201-1.204,1.201-2.05c0-1.297-1.032-2.353-2.301-2.353s-2.301,1.055-2.301,2.353c0,0.859,0.47,1.65,1.226,2.063l0.671,0.368L14.964,19.757z"/><path d="M5.96,7.815c-1.463,0-2.653-1.202-2.653-2.679c0-1.478,1.19-2.679,2.653-2.679s2.653,1.202,2.653,2.679C8.613,6.613,7.423,7.815,5.96,7.815z M5.96,4.457c-0.36,0-0.653,0.305-0.653,0.679c0,0.374,0.293,0.679,0.653,0.679S6.613,5.51,6.613,5.136C6.613,4.762,6.32,4.457,5.96,4.457z"/><path d="M23.111,10.313l-0.712-0.759C20.68,7.807,18.412,6.852,16,6.852c-1.506,0-2.995,0.383-4.306,1.107l-0.967-1.751C12.333,5.321,14.157,4.852,16,4.852c2.628,0,5.114,0.924,7.101,2.622l2.519-2.558l1.426,1.403L23.111,10.313z"/><path d="M28.218,7.652c-2.086,0-3.782-1.716-3.782-3.826c0-2.11,1.696-3.826,3.782-3.826S32,1.716,32,3.826C32,5.936,30.304,7.652,28.218,7.652z M28.218,2c-0.982,0-1.782,0.819-1.782,1.826s0.8,1.826,1.782,1.826S30,4.833,30,3.826S29.2,2,28.218,2z"/><path d="M24.361,26.539l-2.883-3.107l0.712-0.681c1.838-1.757,2.85-4.137,2.85-6.701c0-1.65-0.434-3.268-1.255-4.679l1.729-1.006c0.999,1.716,1.526,3.682,1.526,5.685c0,2.738-1.005,5.396-2.785,7.434l1.573,1.694L24.361,26.539z"/><path d="M6.504,21.746c-0.999-1.717-1.527-3.683-1.527-5.685c0-2.781,0.982-5.386,2.784-7.435L6.189,6.933l1.466-1.36l2.884,3.106L9.827,9.36c-1.838,1.758-2.85,4.138-2.85,6.701c0,1.65,0.434,3.268,1.255,4.679L6.504,21.746z"/><path d="M26.04,29.543c-1.463,0-2.653-1.202-2.653-2.679c0-1.478,1.19-2.68,2.653-2.68s2.653,1.202,2.653,2.68C28.693,28.341,27.503,29.543,26.04,29.543z M26.04,26.185c-0.36,0-0.653,0.305-0.653,0.68c0,0.374,0.293,0.679,0.653,0.679s0.653-0.305,0.653-0.679C26.693,26.489,26.4,26.185,26.04,26.185z"/><path d="M16,27.246c-2.656,0-5.161-0.94-7.154-2.668l-2.465,2.505l-1.426-1.402l3.874-3.937l0.712,0.74c1.715,1.781,4.009,2.762,6.459,2.762c1.573,0,3.122-0.417,4.479-1.205l1.005,1.729C19.822,26.735,17.926,27.246,16,27.246z"/><path d="M3.782,32C1.697,32,0,30.283,0,28.174s1.697-3.826,3.782-3.826s3.782,1.717,3.782,3.826S5.868,32,3.782,32z M3.782,26.348C2.799,26.348,2,27.167,2,28.174S2.799,30,3.782,30c0.982,0,1.782-0.819,1.782-1.826S4.765,26.348,3.782,26.348z"/></svg>