<svg xmlns="http://www.w3.org/2000/svg" viewBox="0 0 32 32"><!--! Font Icona - https://fonticona.com | License - https://fonticona.com/license | Copyright 2022 FontIcona.com --><path d="M21.991,32c-2.354,0-4.534-1.055-5.991-2.83C14.543,30.945,12.362,32,10.009,32c-4.28,0-7.762-3.481-7.762-7.762V7.761C2.248,3.481,5.729,0,10.009,0C12.362,0,14.543,1.054,16,2.83C17.457,1.054,19.638,0,21.991,0c4.28,0,7.762,3.481,7.762,7.762c0,1.419-0.387,2.809-1.119,4.018c-0.018,0.028-0.036,0.056-0.056,0.082l-2.934,3.902l2.965,4.418c0.757,1.25,1.144,2.639,1.144,4.057C29.753,28.518,26.271,32,21.991,32z M16,26.367c0.372,0,0.713,0.207,0.886,0.536c1,1.91,2.956,3.097,5.105,3.097c3.177,0,5.762-2.585,5.762-5.762c0-1.053-0.287-2.084-0.83-2.981l-3.336-4.969c-0.237-0.354-0.225-0.818,0.031-1.158l3.33-4.429c0.527-0.887,0.805-1.901,0.805-2.939C27.753,4.585,25.168,2,21.991,2c-2.149,0-4.105,1.187-5.105,3.097c-0.346,0.658-1.427,0.658-1.772,0C14.114,3.186,12.159,2,10.009,2C6.832,2,4.248,4.585,4.248,7.761v16.477c0,3.177,2.584,5.762,5.762,5.762c2.149,0,4.105-1.187,5.104-3.097C15.287,26.574,15.628,26.367,16,26.367z M27.778,11.26h0.01H27.778z"/></svg>