<svg xmlns="http://www.w3.org/2000/svg" viewBox="0 0 32 32"><!--! Font Icona - https://fonticona.com | License - https://fonticona.com/license | Copyright 2022 FontIcona.com --><path d="M23.981,26.395c-0.552,0-1-0.447-1-1c0-1.44-0.67-2.396-1.114-2.396H10.133c-0.443,0-1.114,0.956-1.114,2.396c0,0.553-0.448,1-1,1s-1-0.447-1-1c0-2.465,1.368-4.396,3.114-4.396h11.734c1.746,0,3.114,1.932,3.114,4.396C24.981,25.947,24.533,26.395,23.981,26.395z"/><path d="M23.546,32H8.454c-1.654,0-3-1.346-3-3v-1.401c0-1.654,1.346-3,3-3h15.093c1.654,0,3,1.346,3,3V29C26.546,30.654,25.201,32,23.546,32z M8.454,26.599c-0.551,0-1,0.448-1,1V29c0,0.552,0.449,1,1,1h15.093c0.551,0,1-0.448,1-1v-1.401c0-0.552-0.449-1-1-1H8.454z"/><path d="M20.396,22.612c-1.391-2.272-2.321-5.02-2.842-8.398l1.977-0.305c0.48,3.111,1.321,5.616,2.572,7.658L20.396,22.612z"/><path d="M11.048,22.615l-1.701-1.051c1.365-2.208,2.267-4.86,2.681-7.882l1.981,0.271C13.557,17.255,12.561,20.169,11.048,22.615z"/><path d="M15.723,15.07c-2.064,0-6.865-0.231-6.865-2.374s4.801-2.374,6.865-2.374s6.865,0.231,6.865,2.374S17.787,15.07,15.723,15.07z M11.808,12.696c0.861,0.199,2.189,0.374,3.915,0.374s3.054-0.175,3.915-0.374c-0.861-0.199-2.189-0.374-3.915-0.374S12.669,12.497,11.808,12.696z"/><path d="M15.723,7.317c-0.552,0-1-0.447-1-1V1c0-0.553,0.448-1,1-1s1,0.447,1,1v5.317C16.723,6.87,16.275,7.317,15.723,7.317z"/><path d="M17.661,3.938h-3.875c-0.552,0-1-0.447-1-1s0.448-1,1-1h3.875c0.552,0,1,0.447,1,1S18.213,3.938,17.661,3.938z"/><path d="M18.379,12.322h-5.312c-0.277,0-0.541-0.114-0.73-0.316c-0.189-0.202-0.286-0.474-0.267-0.75c0.083-1.242-0.883-2.94-1.262-3.489c-0.163-0.236-0.217-0.531-0.148-0.81c0.069-0.278,0.254-0.515,0.509-0.646c0.564-0.294,1.446-0.487,2.446-0.632c0.108-0.412,0.375-0.616,0.549-0.708c0.599-0.318,1.118,0.034,1.366,0.202c0.054,0.037,0.134,0.091,0.194,0.124c0.06-0.033,0.14-0.087,0.193-0.124c0.249-0.169,0.766-0.521,1.366-0.202c0.174,0.092,0.44,0.296,0.549,0.708c1,0.145,1.882,0.338,2.447,0.632c0.254,0.132,0.439,0.368,0.509,0.646c0.069,0.278,0.015,0.573-0.148,0.81c-0.379,0.549-1.345,2.247-1.262,3.489c0.019,0.276-0.078,0.548-0.267,0.75C18.92,12.208,18.656,12.322,18.379,12.322z M14.011,10.322h3.425c0.147-0.945,0.526-1.854,0.876-2.537c-0.896-0.172-2.026-0.28-2.503-0.326l-0.085-0.008l-0.086,0.008c-0.477,0.046-1.607,0.154-2.503,0.326C13.484,8.468,13.863,9.377,14.011,10.322z"/></svg>