<svg xmlns="http://www.w3.org/2000/svg" viewBox="0 0 32 32"><!--! Font Icona - https://fonticona.com | License - https://fonticona.com/license | Copyright 2022 FontIcona.com --><path d="M23.488,8.705c-0.258,0-0.516-0.1-0.712-0.298L20.6,6.201c-0.388-0.393-0.383-1.026,0.01-1.414c0.394-0.388,1.026-0.383,1.414,0.01L24.2,7.002c0.388,0.393,0.383,1.026-0.01,1.414C23.995,8.609,23.741,8.705,23.488,8.705z"/><path d="M20.354,11.838c-0.258,0-0.517-0.1-0.712-0.298l-2.176-2.207c-0.388-0.393-0.383-1.026,0.01-1.414c0.394-0.389,1.027-0.383,1.414,0.01l2.176,2.207c0.388,0.393,0.383,1.026-0.01,1.414C20.862,11.742,20.608,11.838,20.354,11.838z"/><path d="M17.222,14.971c-0.258,0-0.516-0.1-0.712-0.298l-2.176-2.206c-0.388-0.393-0.383-1.026,0.01-1.414c0.393-0.389,1.026-0.383,1.414,0.01l2.176,2.206c0.388,0.393,0.383,1.026-0.01,1.414C17.729,14.875,17.475,14.971,17.222,14.971z"/><path d="M14.571,27.558C14.571,27.558,14.571,27.558,14.571,27.558c-0.791-0.001-1.532-0.311-2.087-0.874l-6.59-6.683c-1.12-1.135-1.12-2.982,0-4.118c1.112-1.126,3.064-1.126,4.176,0l6.59,6.683c1.12,1.135,1.12,2.982,0,4.117C16.104,27.247,15.362,27.558,14.571,27.558z M7.981,17.01c-0.251,0-0.487,0.099-0.664,0.278c-0.355,0.36-0.356,0.948,0,1.309l6.59,6.683h0c0.176,0.18,0.412,0.277,0.663,0.278l0,0c0.251,0,0.487-0.1,0.664-0.278c0.356-0.36,0.356-0.948,0-1.309l-6.59-6.684C8.468,17.108,8.232,17.01,7.981,17.01z"/><path d="M5.776,32C5.776,32,5.776,32,5.776,32c-0.826,0-1.599-0.324-2.178-0.911l-2.052-2.081c-1.168-1.184-1.168-3.11,0-4.294l5.097-5.169c0.387-0.393,1.021-0.398,1.414-0.01c0.393,0.388,0.397,1.021,0.01,1.414l-5.097,5.169c-0.404,0.409-0.404,1.076,0,1.485l2.052,2.081C5.224,29.888,5.491,30,5.776,30h0c0.285,0,0.553-0.112,0.753-0.315l5.057-5.127c0.388-0.393,1.021-0.398,1.414-0.01c0.393,0.388,0.397,1.021,0.01,1.414l-5.057,5.127C7.375,31.676,6.601,32,5.776,32z"/><path d="M16.034,23.752c-0.276,0-0.551-0.113-0.749-0.336c-0.367-0.413-0.329-1.046,0.084-1.412c8.376-7.432,11.958-15.232,13.294-18.965c-2.322,1.058-4.397,1.438-5.224,1.556L10.794,17.419c-0.387,0.393-1.021,0.398-1.414,0.01c-0.393-0.388-0.397-1.021-0.01-1.414L22.26,2.944c0.164-0.167,0.383-0.271,0.616-0.293c0.036-0.003,3.603-0.374,6.92-2.494c0.339-0.218,0.777-0.21,1.109,0.021c0.332,0.23,0.492,0.638,0.407,1.032C31.21,1.682,28.685,12.864,16.697,23.5C16.507,23.669,16.27,23.752,16.034,23.752z"/><path d="M5.688,31.996c-0.056,0-0.113-0.005-0.171-0.015c-0.544-0.094-0.909-0.611-0.815-1.155l1.854-10.749c0.094-0.544,0.604-0.909,1.155-0.815c0.544,0.094,0.909,0.611,0.815,1.155L6.672,31.166C6.588,31.652,6.166,31.996,5.688,31.996z"/></svg>