<svg xmlns="http://www.w3.org/2000/svg" viewBox="0 0 32 32"><!--! Font Icona - https://fonticona.com | License - https://fonticona.com/license | Copyright 2022 FontIcona.com --><path d="M23.191,22.998H9.999c-0.283,0-0.553-0.12-0.742-0.329c-0.189-0.21-0.281-0.49-0.253-0.771c0.291-2.87,1.837-5.901,3.596-8.688c-0.312-0.009-0.604-0.037-0.871-0.062c-0.8-0.075-1.271-0.105-1.581,0.168c-0.854,0.755-1.706,1.047-2.528,0.871c-1.335-0.29-2.131-1.709-2.733-3.06c-1.241-2.777,8.07-7.353,8.165-7.396c0.697-0.391-0.09-2.137-0.099-2.154c-0.121-0.249-0.134-0.54-0.033-0.799c0.1-0.259,0.303-0.466,0.56-0.569c2.634-1.048,4.857,2.033,5.581,3.381c6.459,3.607,6.958,11.791,5.243,18.315c-0.052,0.201-0.135,0.402-0.245,0.593C23.879,22.808,23.549,22.998,23.191,22.998z M11.177,20.998H22.47c1.424-5.807,0.937-12.884-4.627-15.794c-0.198-0.104-0.356-0.271-0.448-0.476c-0.264-0.587-1.21-1.987-2.157-2.517c0.208,1.188,0.039,2.566-1.275,3.298c-2.885,1.354-6.65,3.994-7.167,4.985c0.699,1.509,1.13,1.711,1.248,1.736c0.16,0.03,0.447-0.121,0.78-0.415c0.976-0.861,2.148-0.751,3.095-0.66c0.874,0.083,1.63,0.154,2.353-0.348c0.395-0.275,0.931-0.229,1.275,0.111c0.343,0.34,0.394,0.876,0.121,1.274C13.888,14.795,11.842,18.061,11.177,20.998z"/><path d="M24.676,26.395c-0.553,0-1-0.447-1-1c0-1.44-0.671-2.396-1.114-2.396H10.827c-0.443,0-1.113,0.956-1.113,2.396c0,0.553-0.447,1-1,1s-1-0.447-1-1c0-2.465,1.367-4.396,3.113-4.396h11.734c1.746,0,3.114,1.932,3.114,4.396C25.676,25.947,25.229,26.395,24.676,26.395z"/><path d="M24.241,32H9.148c-1.654,0-3-1.346-3-3v-1.401c0-1.654,1.346-3,3-3h15.093c1.654,0,3,1.346,3,3V29C27.241,30.654,25.896,32,24.241,32z M9.148,26.599c-0.552,0-1,0.448-1,1V29c0,0.552,0.448,1,1,1h15.093c0.552,0,1-0.448,1-1v-1.401c0-0.552-0.448-1-1-1H9.148z"/><path d="M13.532,9.441c-0.335,0-0.662-0.168-0.852-0.474c-0.29-0.47-0.146-1.086,0.324-1.377l1.275-0.79c0.471-0.291,1.086-0.146,1.377,0.324c0.29,0.47,0.146,1.086-0.324,1.377l-1.275,0.79C13.894,9.394,13.712,9.441,13.532,9.441z"/></svg>