<svg xmlns="http://www.w3.org/2000/svg" viewBox="0 0 32 32"><!--! Font Icona - https://fonticona.com | License - https://fonticona.com/license | Copyright 2022 FontIcona.com --><path d="M7.551,32c-0.552,0-1-0.447-1-1V1c0-0.552,0.448-1,1-1s1,0.448,1,1v30C8.551,31.553,8.103,32,7.551,32z"/><path d="M24.449,32c-0.552,0-1-0.447-1-1V1c0-0.552,0.448-1,1-1s1,0.448,1,1v30C25.449,31.553,25.001,32,24.449,32z"/><path d="M24.449,7.265H7.551c-0.552,0-1-0.448-1-1s0.448-1,1-1h16.898c0.552,0,1,0.448,1,1S25.001,7.265,24.449,7.265z"/><path d="M24.449,26.734H7.551c-0.552,0-1-0.447-1-1s0.448-1,1-1h16.898c0.552,0,1,0.447,1,1S25.001,26.734,24.449,26.734z"/><path d="M24.449,17H7.551c-0.552,0-1-0.448-1-1s0.448-1,1-1h16.898c0.552,0,1,0.448,1,1S25.001,17,24.449,17z"/></svg>