<svg xmlns="http://www.w3.org/2000/svg" viewBox="0 0 32 32"><!--! Font Icona - https://fonticona.com | License - https://fonticona.com/license | Copyright 2022 FontIcona.com --><path d="M9.252,15.203c-0.512,0-1.029-0.116-1.517-0.359c-1.678-0.838-2.361-2.886-1.522-4.564l1.789,0.893c-0.346,0.693-0.064,1.537,0.627,1.883c0.69,0.346,1.537,0.065,1.883-0.627l1.789,0.895C11.705,14.514,10.5,15.203,9.252,15.203z"/><path d="M14.97,14.607c-0.211,0-0.424-0.05-0.624-0.15L4.658,9.613C4.271,9.419,4.004,9.074,3.926,8.664s0.043-0.829,0.331-1.151c0.049-0.055,0.104-0.104,0.165-0.147l5.565-3.965c0.055-0.039,0.114-0.073,0.176-0.101c0.028-0.017,0.107-0.092,0.133-0.133l1.182-2.365c0.172-0.346,0.471-0.604,0.839-0.727c0.369-0.123,0.762-0.095,1.106,0.076l3.231,1.616c0.344,0.171,0.604,0.469,0.727,0.837c0.124,0.368,0.097,0.763-0.077,1.11l-1.189,2.38c-0.011,0.031-0.023,0.139-0.018,0.186c0.015,0.065,0.021,0.118,0.022,0.186l0.168,6.831c0.002,0.074-0.005,0.147-0.02,0.221c-0.085,0.425-0.349,0.773-0.724,0.956C15.363,14.563,15.167,14.607,14.97,14.607z M6.536,8.315l7.723,3.862l-0.138-5.583c-0.07-0.448,0.009-1.004,0.205-1.396l0.943-1.887l-2.248-1.125l-0.944,1.89c-0.197,0.392-0.594,0.787-0.994,0.999L6.536,8.315z M15.76,3.557c0.001,0,0.002,0.001,0.003,0.001L15.76,3.557z M13.268,1.695l-0.001,0.002C13.267,1.696,13.267,1.696,13.268,1.695z"/><path d="M24.378,19.038c-0.315,0-0.626-0.148-0.82-0.427c-0.316-0.452-0.207-1.076,0.246-1.393l0.206-0.145l-0.262-0.092c-0.317-0.11-0.558-0.373-0.64-0.699c-0.082-0.325,0.005-0.671,0.231-0.919l0.245-0.269l-0.36-0.056c-0.332-0.052-0.616-0.268-0.756-0.574s-0.115-0.662,0.064-0.947l0.198-0.315l-0.373,0.008c-0.354-0.012-0.654-0.157-0.845-0.436s-0.228-0.634-0.1-0.945l0.145-0.35l-0.372,0.071c-0.333,0.061-0.674-0.045-0.908-0.289c-0.234-0.243-0.33-0.589-0.254-0.918l0.088-0.382l-0.368,0.133c-0.319,0.115-0.677,0.061-0.945-0.145c-0.271-0.206-0.418-0.535-0.392-0.873l0.032-0.414l-0.367,0.194c-0.302,0.158-0.664,0.151-0.96-0.015c-0.297-0.169-0.487-0.477-0.506-0.817l-0.022-0.435l-0.361,0.25c-0.282,0.194-0.644,0.233-0.957,0.1c-0.315-0.133-0.541-0.418-0.599-0.755l-0.246-1.452c-0.092-0.544,0.274-1.061,0.819-1.153c0.511-0.077,0.999,0.233,1.132,0.724l0.546-0.378c0.297-0.207,0.684-0.235,1.01-0.075c0.325,0.159,0.539,0.482,0.559,0.845l0.035,0.664l0.589-0.312c0.321-0.169,0.711-0.152,1.016,0.049c0.305,0.2,0.477,0.55,0.448,0.913l-0.053,0.678l0.639-0.23c0.345-0.125,0.729-0.051,1.003,0.192c0.274,0.243,0.394,0.616,0.312,0.973l-0.156,0.676L23,9.169c0.361-0.065,0.73,0.066,0.962,0.351c0.232,0.284,0.29,0.673,0.15,1.013l-0.268,0.648l0.702-0.014c0.348,0.004,0.71,0.188,0.891,0.508s0.171,0.714-0.025,1.025l-0.376,0.598l0.698,0.108c0.363,0.057,0.667,0.309,0.789,0.656s0.043,0.734-0.205,1.007l-0.48,0.526l0.673,0.236c0.354,0.124,0.609,0.436,0.66,0.807c0.052,0.372-0.109,0.741-0.417,0.956l-1.804,1.263C24.776,18.98,24.576,19.038,24.378,19.038z"/><path d="M25.334,31.567c-0.553,0-1-0.447-1-1v-12.9c0-0.553,0.447-1,1-1s1,0.447,1,1v12.9C26.334,31.119,25.887,31.567,25.334,31.567z"/><path d="M27.098,32c-0.042,0-0.084-0.003-0.126-0.008c-4.352-0.549-8.764-0.549-13.115,0c-0.552,0.066-1.049-0.319-1.117-0.867c-0.069-0.548,0.319-1.048,0.867-1.117c4.518-0.57,9.098-0.57,13.615,0c0.548,0.069,0.937,0.569,0.867,1.117C28.025,31.631,27.595,32,27.098,32z"/><path d="M16.545,31.72c-0.553,0-1-0.447-1-1v-1.127c0-0.553,0.447-1,1-1s1,0.447,1,1v1.127C17.545,31.273,17.098,31.72,16.545,31.72z"/></svg>