<svg xmlns="http://www.w3.org/2000/svg" viewBox="0 0 32 32"><!--! Font Icona - https://fonticona.com | License - https://fonticona.com/license | Copyright 2022 FontIcona.com --><path d="M15,17H2c-1.103,0-2-0.897-2-2V2c0-1.103,0.897-2,2-2h13c1.103,0,2,0.897,2,2v13C17,16.103,16.103,17,15,17z M2.001,2L2,15h13V2H2.001z M2,1L1.999,2C2,2,2,2,2,2V1z"/><path d="M30,32H17c-1.103,0-2-0.897-2-2V17c0-1.103,0.897-2,2-2h13c1.103,0,2,0.897,2,2v13C32,31.103,31.103,32,30,32z M17.001,17L17,30h13V17H17.001z M17,16l-0.001,1c0,0,0,0,0.001,0V16z"/><path d="M12.245,12.944c-0.375,0-0.734-0.211-0.905-0.573L8.5,6.354l-2.84,6.017c-0.235,0.5-0.832,0.714-1.331,0.478c-0.5-0.236-0.713-0.832-0.478-1.331l3.744-7.933C7.761,3.234,8.113,3.011,8.5,3.011s0.739,0.223,0.904,0.573l3.744,7.933c0.236,0.5,0.022,1.095-0.478,1.331C12.533,12.913,12.388,12.944,12.245,12.944z"/><path d="M11.474,11.311H5.526c-0.552,0-1-0.448-1-1s0.448-1,1-1h5.948c0.552,0,1,0.448,1,1S12.026,11.311,11.474,11.311z"/><rect x="18.867" y="19.867" width="9.922" height="2"/><rect x="22.833" y="17.889" width="2" height="2.979"/><path d="M19.948,29.014l-0.496-1.938c4.895-1.253,6.258-6.248,6.313-6.46l1.937,0.5C27.636,21.374,26.007,27.463,19.948,29.014z"/><path d="M26.002,28.987c-2.382-0.835-4.248-2.673-5.118-5.043l1.877-0.689c0.664,1.807,2.087,3.209,3.903,3.846L26.002,28.987z"/><path d="M29.6,8.978H19.156c-0.553,0-1-0.448-1-1s0.447-1,1-1H29.6c0.553,0,1,0.448,1,1S30.152,8.978,29.6,8.978z"/><path d="M12.744,25.844H2.3c-0.552,0-1-0.447-1-1s0.448-1,1-1h10.444c0.552,0,1,0.447,1,1S13.296,25.844,12.744,25.844z"/><path d="M25.482,13.35c-0.256,0-0.512-0.098-0.707-0.293c-0.391-0.391-0.391-1.023,0-1.414l3.664-3.665l-3.664-3.665c-0.391-0.391-0.391-1.023,0-1.414s1.023-0.391,1.414,0l3.928,3.928c0.312,0.311,0.482,0.72,0.482,1.15s-0.171,0.839-0.482,1.15l-3.928,3.928C25.994,13.252,25.738,13.35,25.482,13.35z M28.703,8.242h0.01H28.703z"/><path d="M6.418,30.216c-0.256,0-0.512-0.098-0.707-0.293l-3.928-3.929c-0.645-0.646-0.645-1.655,0-2.301l3.928-3.928c0.391-0.391,1.023-0.391,1.414,0s0.391,1.023,0,1.414L3.46,24.844l3.665,3.665c0.391,0.391,0.391,1.023,0,1.414C6.93,30.118,6.674,30.216,6.418,30.216z"/></svg>