<svg xmlns="http://www.w3.org/2000/svg" viewBox="0 0 32 32"><!--! Font Icona - https://fonticona.com | License - https://fonticona.com/license | Copyright 2022 FontIcona.com --><path d="M27.938,32H4.065c-1.659,0-2.986-0.621-3.641-1.705c-0.596-0.986-0.568-2.204,0.077-3.43l1.675-3.223c0.255-0.49,0.857-0.681,1.349-0.427c0.49,0.255,0.681,0.859,0.427,1.349l-1.678,3.228c-0.18,0.342-0.433,0.979-0.137,1.47C2.416,29.724,3.137,30,4.065,30h23.872c0.953,0,1.704-0.273,1.96-0.713c0.227-0.389,0.037-0.887-0.16-1.235l-1.706-3.512c-0.241-0.497-0.034-1.095,0.463-1.336c0.498-0.241,1.095-0.034,1.336,0.463l1.676,3.454c0.616,1.081,0.67,2.228,0.12,3.172C30.994,31.378,29.65,32,27.938,32z"/><path d="M13.518,28.419c-0.337,0-0.661-0.113-0.928-0.326c-0.313-0.249-0.51-0.605-0.555-1.004c-0.029-0.251,0.008-0.509,0.107-0.746l0.61-1.756c0.181-0.521,0.75-0.802,1.272-0.616c0.521,0.181,0.798,0.751,0.616,1.272l-0.406,1.172h3.532l-0.406-1.172c-0.182-0.521,0.095-1.092,0.616-1.272c0.521-0.186,1.091,0.095,1.272,0.616l0.609,1.755c0.146,0.344,0.158,0.725,0.032,1.079c-0.133,0.377-0.404,0.679-0.765,0.852c-0.232,0.111-0.479,0.156-0.743,0.143h-4.765C13.586,28.417,13.552,28.419,13.518,28.419z M18.026,27.141h0.01H18.026z"/><circle cx="16.002" cy="3.927" r="1"/><path d="M25.216,22.334H6.787c-2.693,0-4.884-2.19-4.884-4.884V4.884C1.903,2.19,4.094,0,6.787,0h18.429C27.909,0,30.1,2.19,30.1,4.884V17.45C30.1,20.144,27.909,22.334,25.216,22.334z M6.787,2c-1.59,0-2.884,1.294-2.884,2.884V17.45c0,1.59,1.294,2.884,2.884,2.884h18.429c1.59,0,2.884-1.294,2.884-2.884V4.884C28.1,3.294,26.806,2,25.216,2H6.787z"/><path d="M29.1,7.853H2.903c-0.553,0-1-0.447-1-1s0.447-1,1-1H29.1c0.553,0,1,0.447,1,1S29.652,7.853,29.1,7.853z"/></svg>