<svg xmlns="http://www.w3.org/2000/svg" viewBox="0 0 32 32"><!--! Font Icona - https://fonticona.com | License - https://fonticona.com/license | Copyright 2022 FontIcona.com --><path d="M6.868,8.332c-0.163,0-0.326-0.04-0.475-0.12L0.525,5.046C0.202,4.871,0,4.533,0,4.166s0.202-0.705,0.525-0.88L6.394,0.12c0.297-0.16,0.652-0.16,0.949,0l5.869,3.166c0.323,0.174,0.525,0.513,0.525,0.88s-0.202,0.706-0.525,0.88L7.343,8.212C7.194,8.292,7.031,8.332,6.868,8.332z M3.106,4.166l3.762,2.029l3.763-2.029L6.868,2.136L3.106,4.166z"/><path d="M25.132,11.497c-0.163,0-0.326-0.04-0.475-0.12l-5.869-3.165c-0.323-0.174-0.525-0.512-0.525-0.88c0-0.367,0.202-0.706,0.525-0.88l5.869-3.166c0.297-0.16,0.652-0.16,0.949,0l5.868,3.166C31.799,6.627,32,6.965,32,7.332s-0.202,0.706-0.525,0.88l-5.868,3.165C25.458,11.457,25.295,11.497,25.132,11.497z M21.369,7.332l3.763,2.029l3.762-2.029l-3.762-2.029L21.369,7.332z"/><path d="M1,25.27c-0.553,0-1-0.447-1-1V4.166c0-0.553,0.447-1,1-1s1,0.447,1,1V24.27C2,24.823,1.553,25.27,1,25.27z"/><path d="M6.868,21.875c-0.553,0-1-0.447-1-1V7.332c0-0.553,0.447-1,1-1s1,0.447,1,1v13.543C7.868,21.427,7.421,21.875,6.868,21.875z"/><path d="M12.737,18.668c-0.553,0-1-0.447-1-1V4.166c0-0.553,0.447-1,1-1s1,0.447,1,1v13.502C13.737,18.22,13.29,18.668,12.737,18.668z"/><path d="M19.263,15.103c-0.553,0-1-0.447-1-1V7.332c0-0.553,0.447-1,1-1s1,0.447,1,1v6.771C20.263,14.656,19.815,15.103,19.263,15.103z"/><path d="M25.132,24.977c-0.553,0-1-0.447-1-1v-13.48c0-0.553,0.447-1,1-1s1,0.447,1,1v13.48C26.132,24.53,25.685,24.977,25.132,24.977z"/><path d="M31,15.103c-0.553,0-1-0.447-1-1V7.332c0-0.553,0.447-1,1-1s1,0.447,1,1v6.771C32,14.656,31.553,15.103,31,15.103z"/><path d="M6.869,21.875c-0.354,0-0.697-0.188-0.879-0.521c-0.265-0.484-0.086-1.092,0.398-1.357l12.395-6.771c0.485-0.264,1.093-0.086,1.357,0.398s0.086,1.092-0.398,1.357L7.348,21.753C7.195,21.836,7.031,21.875,6.869,21.875z"/><path d="M12.738,25.008c-0.355,0-0.699-0.189-0.88-0.523c-0.264-0.485-0.083-1.092,0.402-1.355l18.263-9.905c0.485-0.263,1.093-0.083,1.355,0.402c0.264,0.485,0.083,1.092-0.402,1.355l-18.263,9.905C13.062,24.969,12.899,25.008,12.738,25.008z"/><path d="M12.737,32c-0.553,0-1-0.447-1-1v-6.991c0-0.553,0.447-1,1-1s1,0.447,1,1V31C13.737,31.552,13.29,32,12.737,32z"/><path d="M12.738,32c-0.349,0-0.687-0.183-0.871-0.507c-0.272-0.48-0.104-1.091,0.377-1.363l12.395-7.022c0.482-0.271,1.09-0.103,1.363,0.377c0.272,0.48,0.104,1.091-0.377,1.363L13.23,31.87C13.074,31.958,12.905,32,12.738,32z"/><path d="M12.736,32c-0.169,0-0.34-0.043-0.496-0.133L0.503,25.137c-0.479-0.274-0.646-0.886-0.37-1.364c0.274-0.479,0.886-0.646,1.364-0.37l11.737,6.729c0.479,0.274,0.646,0.886,0.37,1.364C13.42,31.819,13.083,32,12.736,32z"/><path d="M25.221,18.237c-0.157,0-0.316-0.037-0.465-0.115l-5.959-3.134c-0.488-0.257-0.677-0.861-0.419-1.351c0.257-0.488,0.862-0.676,1.351-0.419l5.959,3.134c0.488,0.257,0.677,0.861,0.419,1.351C25.928,18.043,25.58,18.237,25.221,18.237z"/><path d="M12.736,25.008c-0.159,0-0.32-0.038-0.47-0.118l-5.869-3.134c-0.487-0.26-0.672-0.865-0.411-1.353c0.26-0.488,0.867-0.672,1.353-0.411l5.869,3.134c0.487,0.26,0.672,0.865,0.411,1.353C13.439,24.817,13.094,25.008,12.736,25.008z"/></svg>