<svg xmlns="http://www.w3.org/2000/svg" viewBox="0 0 32 32"><!--! Font Icona - https://fonticona.com | License - https://fonticona.com/license | Copyright 2022 FontIcona.com --><path d="M10.456,26.73c-0.539,0-1.092-0.062-1.644-0.186c-1.34-0.302-2.533-0.942-3.36-1.804c-0.919-0.958-1.306-2.129-1.062-3.213c0.483-2.146,3.181-3.304,6.145-2.639c2.963,0.667,4.905,2.871,4.422,5.018c-0.244,1.084-1.096,1.976-2.336,2.447C11.965,26.604,11.226,26.73,10.456,26.73z M8.888,20.702c-1.377,0-2.39,0.569-2.546,1.266c-0.129,0.572,0.292,1.115,0.554,1.389c0.55,0.573,1.408,1.024,2.356,1.237c0.949,0.213,1.918,0.174,2.658-0.108c0.354-0.135,0.967-0.445,1.096-1.018c0.2-0.888-0.946-2.185-2.91-2.627C9.672,20.745,9.266,20.702,8.888,20.702z"/><path d="M2.104,32C2,32,1.894,31.984,1.79,31.949c-0.524-0.173-0.81-0.739-0.636-1.263c1.097-3.317,3.35-6.011,6.344-7.585c2.232-1.173,4.299-1.142,6.393-0.999c2.359,0.165,4.542-0.456,7.309-2.061c3.09-1.793,5.493-4.319,6.767-7.113c1.222-2.679,1.244-5.273,0.064-7.306c-1.179-2.033-3.442-3.301-6.374-3.57c-3.056-0.284-6.444,0.551-9.534,2.344c-6.27,3.637-9.334,10.105-6.831,14.419c0.283,0.489,0.635,0.94,1.043,1.34c0.395,0.387,0.401,1.02,0.016,1.414c-0.387,0.396-1.02,0.401-1.414,0.016c-0.538-0.526-1-1.12-1.375-1.766C0.505,14.552,3.896,6.857,11.118,2.667c3.447-2,7.262-2.927,10.722-2.605c3.595,0.331,6.407,1.95,7.921,4.558s1.522,5.854,0.025,9.139c-1.444,3.169-4.138,6.015-7.583,8.015c-2.213,1.284-4.938,2.567-8.449,2.326c-1.931-0.13-3.552-0.159-5.324,0.772c-2.534,1.333-4.443,3.621-5.377,6.442C2.914,31.734,2.523,32,2.104,32z"/></svg>