<svg xmlns="http://www.w3.org/2000/svg" viewBox="0 0 32 32"><!--! Font Icona - https://fonticona.com | License - https://fonticona.com/license | Copyright 2022 FontIcona.com --><path d="M24.872,25.221c-1.684,0-3.362-0.48-4.683-1.256c-2.469-1.449-4.303-4.052-5.608-7.956c-1.445-4.328-2.893-6.673-6.398-6.673C4.773,9.337,2,12.378,2,16.115s2.773,6.778,6.183,6.778c1.474,0,2.901-0.579,4.021-1.63c0.404-0.377,1.036-0.356,1.414,0.045c0.378,0.402,0.357,1.035-0.045,1.414c-1.491,1.399-3.405,2.171-5.39,2.171C3.671,24.893,0,20.956,0,16.115s3.671-8.778,8.183-8.778c5.177,0,6.996,4.149,8.295,8.039c1.146,3.426,2.691,5.671,4.725,6.865c1.982,1.163,5.135,1.5,7.077-0.165c0.537-0.46,0.84-1.085,0.853-1.76c0.013-0.713-0.299-1.414-0.854-1.926c-0.693-0.637-1.888-0.936-3.152-1.252c-2.045-0.513-4.364-1.094-5.207-3.415c-0.478-1.316-0.242-2.86,0.646-4.234c0.994-1.54,2.598-2.571,4.185-2.691c3.123-0.239,6.801,1.515,7.242,4.76c0.074,0.547-0.31,1.051-0.856,1.126c-0.546,0.074-1.052-0.309-1.126-0.856c-0.296-2.18-3.208-3.178-5.109-3.035c-0.961,0.072-2.003,0.772-2.655,1.782c-0.545,0.844-0.707,1.743-0.444,2.468c0.447,1.232,1.738,1.637,3.812,2.156c1.451,0.363,2.952,0.739,4.02,1.721c0.977,0.898,1.522,2.149,1.499,3.434c-0.022,1.255-0.573,2.406-1.551,3.243C28.242,24.741,26.555,25.221,24.872,25.221z"/></svg>