<svg xmlns="http://www.w3.org/2000/svg" viewBox="0 0 32 32"><!--! Font Icona - https://fonticona.com | License - https://fonticona.com/license | Copyright 2022 FontIcona.com --><path d="M28.985,32H3.015C1.352,32,0,30.647,0,28.985V3.014c0-1.662,1.353-3.015,3.015-3.015h25.97C30.647-0.001,32,1.352,32,3.014v25.971C32,30.647,30.647,32,28.985,32z M3.015,1.999C2.455,1.999,2,2.454,2,3.014v25.971C2,29.545,2.455,30,3.015,30h25.97C29.545,30,30,29.545,30,28.985V3.014c0-0.56-0.455-1.015-1.015-1.015H3.015z"/><rect x="1" y="7.888" width="30" height="2"/><rect x="1" y="21.889" width="30" height="2"/><rect x="20.889" y="8.888" width="2" height="22.112"/><rect x="9.777" y="22.889" width="2" height="8.112"/><rect x="8.221" y="0.999" width="2" height="7.889"/></svg>