<svg xmlns="http://www.w3.org/2000/svg" viewBox="0 0 32 32"><!--! Font Icona - https://fonticona.com | License - https://fonticona.com/license | Copyright 2022 FontIcona.com --><path d="M13.663,27.413c-1.405,0-2.909-0.113-4.512-0.341c-0.448-0.063-0.784-0.415-0.849-0.841c-0.111-0.084-0.206-0.192-0.276-0.323c-0.989-1.832-1.669-3.826-1.914-5.614c-0.346-2.528,0.344-5.319,1.993-8.071c1.497-2.5,3.85-4.626,7.404-6.69c1.001-0.581,2.041-1.098,3.046-1.597c0.619-0.308,1.239-0.615,1.851-0.938c0.881-0.467,1.585-0.882,2.218-1.308c0.653-0.439,1.154-0.901,1.244-1.078c0.181-0.353,0.571-0.591,0.966-0.576c0.396,0.024,0.757,0.245,0.895,0.617c0.221,0.599,5.35,14.729-0.718,22.254C22.593,25.904,18.786,27.413,13.663,27.413z M9.865,25.15c6.472,0.844,11.037-0.335,13.588-3.499c4.277-5.305,2.018-14.979,0.901-18.745c-0.208,0.162-0.418,0.312-0.613,0.442c-0.692,0.467-1.455,0.917-2.4,1.417c-0.627,0.331-1.261,0.646-1.896,0.962c-0.977,0.484-1.986,0.985-2.932,1.535c-3.25,1.887-5.377,3.79-6.693,5.987c-0.984,1.645-2.084,4.154-1.726,6.772c0.21,1.534,0.826,3.333,1.691,4.937C9.82,25.021,9.847,25.085,9.865,25.15z"/><path d="M5.033,32c-0.19,0-0.382-0.054-0.552-0.167c-0.461-0.306-0.586-0.926-0.28-1.386c3.994-6.017,8.634-11.462,13.79-16.185c0.408-0.372,1.04-0.345,1.413,0.062c0.373,0.407,0.346,1.04-0.062,1.413c-5.037,4.613-9.571,9.935-13.476,15.815C5.675,31.842,5.357,32,5.033,32z"/></svg>