<svg xmlns="http://www.w3.org/2000/svg" viewBox="0 0 32 32"><!--! Font Icona - https://fonticona.com | License - https://fonticona.com/license | Copyright 2022 FontIcona.com --><path d="M30.778,27.538c-0.661,0-2.283-0.125-4.634-1.126c-0.32-0.167-5.98-3.126-9.396,0.729c-0.379,0.428-1.117,0.428-1.496,0c-3.416-3.853-9.076-0.895-9.315-0.769c-3.03,1.295-4.833,1.168-5.029,1.153c-0.269-0.025-0.516-0.158-0.686-0.368c-0.169-0.21-0.247-0.479-0.215-0.747L2.291,7.414c0.036-0.302,0.208-0.57,0.466-0.73C9.084,2.759,14.297,5.002,16,5.96c1.703-0.959,6.914-3.203,13.243,0.724c0.258,0.16,0.43,0.429,0.466,0.73l2.284,18.997c0.032,0.268-0.046,0.537-0.215,0.747c-0.17,0.21-0.417,0.343-0.686,0.368C31.054,27.529,30.947,27.538,30.778,27.538z M21.365,23.193c2.242,0,4.361,0.727,5.646,1.418c1.204,0.511,2.179,0.741,2.853,0.845L27.781,8.138C21.554,4.541,16.783,7.806,16.579,7.95c-0.349,0.244-0.816,0.245-1.161-0.002c-0.201-0.142-4.974-3.406-11.199,0.19L2.137,25.453c0.684-0.107,1.683-0.348,2.936-0.881C7.33,23.35,12.423,21.978,16,25.074C17.61,23.68,19.529,23.193,21.365,23.193z"/><path d="M4.856,23.594c-0.212,0-0.423-0.067-0.598-0.198c-0.288-0.215-0.439-0.567-0.396-0.924l1.564-12.76c0.046-0.377,0.302-0.695,0.661-0.821c5.634-1.979,8.509-0.47,9.772,0.703c2.45-2.164,5.002-1.667,5.123-1.639c0.441,0.092,0.766,0.469,0.793,0.918l0.746,12.381c0.019,0.308-0.105,0.605-0.335,0.81c-0.231,0.204-0.544,0.287-0.845,0.234c-2.303-0.425-5.03,1.05-5.058,1.065c-0.314,0.172-0.699,0.164-1.004-0.022c-3.973-2.429-9.965,0.143-10.025,0.169C5.128,23.566,4.992,23.594,4.856,23.594z M11.089,20.296c1.572,0,3.23,0.273,4.744,1.062c0.863-0.402,2.694-1.13,4.625-1.134L19.836,9.898c-0.783,0.069-2.069,0.423-3.272,1.829c-0.215,0.253-0.547,0.387-0.874,0.344c-0.325-0.037-0.611-0.231-0.767-0.52c-0.082-0.144-1.713-2.826-7.587-0.969l-1.29,10.522C7.285,20.724,9.119,20.296,11.089,20.296z"/></svg>