<svg xmlns="http://www.w3.org/2000/svg" viewBox="0 0 32 32"><!--! Font Icona - https://fonticona.com | License - https://fonticona.com/license | Copyright 2022 FontIcona.com --><path d="M7.023,30.173c-1.903,0-3.075-0.899-3.751-1.726c-1.97-2.411-1.96-6.999,0.025-12.271C6.37,8.016,12.977,0.948,18.339,0.088c2.547-0.411,4.036,0.663,4.831,1.637c1.97,2.411,1.961,6.998-0.024,12.27l0,0c-3.073,8.161-9.681,15.229-15.042,16.089C7.72,30.145,7.36,30.173,7.023,30.173z M19.397,2c-0.235,0-0.482,0.021-0.742,0.062C14.094,2.795,7.918,9.581,5.169,16.882c-1.705,4.528-1.839,8.475-0.348,10.3c0.673,0.823,1.672,1.136,2.965,0.927c4.562-0.732,10.738-7.519,13.488-14.819c1.704-4.527,1.838-8.475,0.347-10.299C21.083,2.331,20.338,2,19.397,2z"/><rect x="-1.726" y="14.07" transform="matrix(0.3526 -0.9358 0.9358 0.3526 -5.5381 22.1334)" width="29.907" height="2"/><rect x="4.135" y="14.069" transform="matrix(0.9874 -0.1582 0.1582 0.9874 -2.2176 2.2827)" width="18.185" height="2"/><rect x="-1.626" y="14.069" transform="matrix(0.6787 -0.7344 0.7344 0.6787 -6.8171 14.5556)" width="29.707" height="2"/><rect x="12.228" y="5.814" transform="matrix(0.959 -0.2833 0.2833 0.959 -3.7273 4.3649)" width="2" height="18.51"/><path d="M13.326,31.991c-3.002,0-6.029-0.798-8.747-2.452c-0.472-0.288-0.621-0.903-0.334-1.375c0.287-0.47,0.9-0.621,1.375-0.334c6.322,3.852,14.556,2.435,19.222-3.28c0.008-0.013,0.015-0.024,0.022-0.036c0.259-0.414,0.782-0.568,1.225-0.394c0.054,0.021,0.106,0.048,0.157,0.079c0.53,0.317,1.255,0.187,1.531-0.269c0.177-0.289,0.123-0.605,0.074-0.769c-0.087-0.298-0.282-0.558-0.536-0.714c-0.049-0.029-0.094-0.062-0.136-0.098c-0.362-0.309-0.471-0.844-0.227-1.267c0.009-0.016,0.018-0.03,0.027-0.046c2.938-6.768,0.417-14.733-5.905-18.584c-0.472-0.288-0.621-0.903-0.334-1.375c0.288-0.472,0.902-0.619,1.375-0.334c7.008,4.27,9.899,12.995,6.919,20.558c0.339,0.367,0.594,0.813,0.735,1.295c0.244,0.829,0.143,1.672-0.284,2.374c-0.428,0.701-1.131,1.178-1.979,1.342c-0.496,0.096-1.01,0.072-1.488-0.059C22.743,30,18.067,31.991,13.326,31.991z"/></svg>