<svg xmlns="http://www.w3.org/2000/svg" viewBox="0 0 32 32"><!--! Font Icona - https://fonticona.com | License - https://fonticona.com/license | Copyright 2022 FontIcona.com --><path d="M10.647,19.179c-5.288,0-9.589-4.302-9.589-9.59C1.058,4.302,5.359,0,10.647,0s9.589,4.302,9.589,9.589C20.236,14.877,15.935,19.179,10.647,19.179z M10.647,2C6.462,2,3.058,5.404,3.058,9.589s3.405,7.59,7.589,7.59s7.589-3.405,7.589-7.59S14.832,2,10.647,2z"/><path d="M10.647,32c-0.552,0-1-0.447-1-1V18.179c0-0.553,0.448-1,1-1s1,0.447,1,1V31C11.647,31.553,11.199,32,10.647,32z"/><path d="M21.353,25.589H5.75c-0.552,0-1-0.447-1-1s0.448-1,1-1h15.604c0.552,0,1,0.447,1,1S21.905,25.589,21.353,25.589z"/><path d="M21.353,19.179c-5.288,0-9.589-4.302-9.589-9.59C11.764,4.302,16.065,0,21.353,0s9.589,4.302,9.589,9.589C30.942,14.877,26.641,19.179,21.353,19.179z M21.353,2c-4.185,0-7.589,3.404-7.589,7.589s3.405,7.59,7.589,7.59s7.589-3.405,7.589-7.59S25.538,2,21.353,2z"/><path d="M21.353,32c-0.552,0-1-0.447-1-1V18.179c0-0.553,0.448-1,1-1s1,0.447,1,1V31C22.353,31.553,21.905,32,21.353,32z"/><path d="M26.25,25.589h-9.795c-0.552,0-1-0.447-1-1s0.448-1,1-1h9.795c0.552,0,1,0.447,1,1S26.803,25.589,26.25,25.589z"/></svg>