<svg xmlns="http://www.w3.org/2000/svg" viewBox="0 0 32 32"><!--! Font Icona - https://fonticona.com | License - https://fonticona.com/license | Copyright 2022 FontIcona.com --><path d="M26.268,32H5.732c-0.552,0-1-0.447-1-1s0.448-1,1-1h20.535c0.553,0,1,0.447,1,1S26.82,32,26.268,32z"/><path d="M26.267,25.844c-0.155,0-0.313-0.036-0.461-0.113L6.345,15.582c-0.995-0.519-1.613-1.538-1.613-2.66s0.618-2.142,1.613-2.661l19.46-10.148c0.49-0.257,1.093-0.064,1.349,0.424c0.255,0.49,0.065,1.094-0.424,1.349L7.27,12.035c-0.336,0.176-0.538,0.507-0.538,0.887c0,0.379,0.201,0.711,0.538,0.886l19.46,10.148c0.489,0.256,0.679,0.859,0.424,1.35C26.976,25.648,26.628,25.844,26.267,25.844z"/></svg>