<svg xmlns="http://www.w3.org/2000/svg" viewBox="0 0 32 32"><!--! Font Icona - https://fonticona.com | License - https://fonticona.com/license | Copyright 2022 FontIcona.com --><path d="M29.218,32c-0.155,0-0.313-0.036-0.461-0.113L3.394,18.66C2.399,18.141,1.781,17.121,1.781,16c0-1.122,0.618-2.141,1.613-2.66L28.758,0.114c0.491-0.257,1.093-0.064,1.349,0.424c0.255,0.49,0.065,1.094-0.425,1.349L4.319,15.113C3.982,15.289,3.781,15.62,3.781,16c0,0.38,0.201,0.711,0.538,0.887l25.363,13.226c0.49,0.256,0.68,0.859,0.425,1.349C29.927,31.804,29.58,32,29.218,32z"/></svg>