<svg xmlns="http://www.w3.org/2000/svg" viewBox="0 0 32 32"><!--! Font Icona - https://fonticona.com | License - https://fonticona.com/license | Copyright 2022 FontIcona.com --><path d="M28.154,23.131c-0.552,0-1-0.447-1-1s0.448-1,1-1c0.153,0,0.238-0.075,0.25-0.102l-0.003-3.263c0-0.095,0.014-0.188,0.04-0.28c0.035-0.12,0.248-0.798,0.761-1.425c-0.613-0.628-0.805-1.368-0.801-1.837v-3.273c-0.009-0.007-0.094-0.082-0.247-0.082c-0.552,0-1-0.447-1-1s0.448-1,1-1c1.239,0,2.247,0.934,2.247,2.082v3.282c0.006,0.067,0.082,0.548,0.907,0.815c0.422,0.137,0.703,0.535,0.691,0.979c-0.012,0.442-0.314,0.825-0.743,0.939c-0.435,0.115-0.735,0.669-0.855,0.97v3.112C30.401,22.197,29.394,23.131,28.154,23.131z"/><path d="M3.846,23.131c-1.239,0-2.247-0.934-2.247-2.082v-3.282c-0.006-0.067-0.082-0.548-0.907-0.815C0.27,16.814-0.012,16.416,0,15.973c0.012-0.442,0.314-0.825,0.743-0.939c0.435-0.115,0.735-0.669,0.855-0.97v-3.112c0-1.148,1.008-2.082,2.247-2.082c0.552,0,1,0.447,1,1s-0.448,1-1,1c-0.153,0-0.238,0.075-0.25,0.102l0.003,3.263c0,0.095-0.014,0.188-0.04,0.28c-0.035,0.12-0.248,0.798-0.761,1.425c0.613,0.628,0.805,1.368,0.801,1.837v3.273c0.009,0.007,0.094,0.082,0.247,0.082c0.552,0,1,0.447,1,1S4.398,23.131,3.846,23.131z"/><path d="M7.238,20.564c-0.689,0-1.154-0.236-1.447-0.474c-0.84-0.682-0.812-1.767-0.805-1.889L4.985,9.869c0-0.553,0.448-1,1-1s1,0.447,1,1v8.383c-0.001,0.135,0.041,0.266,0.067,0.285c0.001,0.002,0.153,0.086,0.636-0.04c0.538-0.143,1.081,0.179,1.222,0.713c0.14,0.534-0.179,1.081-0.713,1.221C7.837,20.525,7.519,20.564,7.238,20.564z"/><path d="M13.882,17.138H8.776c-0.552,0-1-0.447-1-1s0.448-1,1-1h5.106c0.552,0,1,0.447,1,1S14.435,17.138,13.882,17.138z"/><path d="M17.995,20.523c-0.862,0-1.708-0.333-2.399-0.959c-0.409-0.371-0.44-1.004-0.069-1.413c0.371-0.408,1.003-0.439,1.413-0.069c0.397,0.36,0.888,0.509,1.347,0.41c0.367-0.08,0.68-0.348,0.683-0.474c0.001-0.033,0.002-0.097-0.118-0.192c-0.231-0.185-0.612-0.324-1.016-0.472c-0.763-0.28-1.713-0.629-2.261-1.553c-0.316-0.532-0.378-1.17-0.173-1.797c0.239-0.732,0.815-1.369,1.502-1.661c1.354-0.577,2.798,0.018,3.357,0.299c0.493,0.249,0.69,0.851,0.441,1.344c-0.249,0.492-0.848,0.691-1.344,0.441c-0.623-0.314-1.277-0.409-1.672-0.244c-0.133,0.058-0.318,0.243-0.384,0.443c-0.013,0.04-0.032,0.113-0.008,0.152c0.186,0.313,0.67,0.491,1.231,0.697c0.51,0.188,1.088,0.399,1.573,0.786c0.574,0.458,0.883,1.095,0.871,1.793c-0.024,1.252-1.153,2.149-2.256,2.39C18.474,20.498,18.233,20.523,17.995,20.523z"/><path d="M24.17,20.523c-0.862,0-1.708-0.333-2.398-0.96c-0.409-0.371-0.44-1.003-0.068-1.412c0.371-0.409,1.002-0.439,1.412-0.068c0.396,0.359,0.886,0.508,1.347,0.409c0.367-0.08,0.681-0.348,0.683-0.473c0.001-0.034,0.002-0.098-0.118-0.193c-0.231-0.184-0.612-0.324-1.015-0.472c-0.763-0.28-1.713-0.629-2.261-1.553c-0.317-0.532-0.378-1.171-0.174-1.797c0.24-0.732,0.815-1.369,1.502-1.661c1.356-0.575,2.8,0.018,3.357,0.299c0.493,0.249,0.69,0.851,0.441,1.344s-0.85,0.691-1.344,0.441c-0.623-0.314-1.279-0.411-1.672-0.243c-0.133,0.056-0.318,0.241-0.383,0.442c-0.013,0.04-0.032,0.113-0.008,0.153c0.186,0.312,0.67,0.49,1.231,0.696c0.51,0.188,1.088,0.399,1.573,0.786c0.575,0.46,0.883,1.097,0.87,1.795c-0.023,1.25-1.153,2.147-2.256,2.388C24.65,20.498,24.41,20.523,24.17,20.523z"/><path d="M5.985,10.869H3.846c-0.552,0-1-0.447-1-1s0.448-1,1-1h2.139c0.552,0,1,0.447,1,1S6.537,10.869,5.985,10.869z"/><path d="M11.328,20.566c-1.96,0-3.555-1.986-3.555-4.429s1.595-4.429,3.555-4.429c1.993,0,3.555,1.945,3.555,4.429c0,0.553-0.448,1-1,1s-1-0.447-1-1c0-1.294-0.727-2.429-1.555-2.429s-1.555,1.135-1.555,2.429s0.727,2.429,1.555,2.429c0.12,0,0.723-0.017,0.856-0.348c0.206-0.512,0.785-0.76,1.301-0.555c0.512,0.206,0.761,0.788,0.555,1.301C13.637,19.968,12.623,20.566,11.328,20.566z"/></svg>