<svg xmlns="http://www.w3.org/2000/svg" viewBox="0 0 32 32"><!--! Font Icona - https://fonticona.com | License - https://fonticona.com/license | Copyright 2022 FontIcona.com --><path d="M16,32C7.178,32,0,24.822,0,16S7.178,0,16,0s16,7.178,16,16S24.822,32,16,32z M16,2C8.28,2,2,8.28,2,16s6.28,14,14,14s14-6.28,14-14S23.72,2,16,2z"/><path d="M16,32c-0.553,0-1-0.447-1-1v-7.688c0-0.553,0.447-1,1-1s1,0.447,1,1V31C17,31.553,16.553,32,16,32z"/><path d="M16,9.777c-0.553,0-1-0.447-1-1V1c0-0.553,0.447-1,1-1s1,0.447,1,1v7.777C17,9.33,16.553,9.777,16,9.777z"/><path d="M31,17h-7.777c-0.553,0-1-0.447-1-1s0.447-1,1-1H31c0.553,0,1,0.447,1,1S31.553,17,31,17z"/><path d="M8.777,17H1c-0.553,0-1-0.447-1-1s0.447-1,1-1h7.777c0.553,0,1,0.447,1,1S9.33,17,8.777,17z"/><path d="M16,32C7.178,32,0,24.822,0,16S7.178,0,16,0s16,7.178,16,16S24.822,32,16,32z M16,2C8.28,2,2,8.28,2,16s6.28,14,14,14s14-6.28,14-14S23.72,2,16,2z"/><path d="M16.011,23.809c-2.003,0-4.006-0.764-5.529-2.29c-3.042-3.05-3.036-8.005,0.013-11.047C11.968,9,13.928,8.189,16.011,8.189c0.003,0,0.005,0,0.008,0c2.087,0.003,4.047,0.817,5.521,2.294c1.472,1.475,2.282,3.435,2.282,5.517c-0.002,2.089-0.816,4.052-2.293,5.529c0,0,0,0.001-0.001,0.001C20.006,23.049,18.009,23.809,16.011,23.809z M16.011,10.189c-1.55,0-3.007,0.604-4.104,1.698c-2.268,2.263-2.271,5.95-0.009,8.219c2.263,2.267,5.951,2.272,8.218,0.008c1.1-1.1,1.705-2.562,1.707-4.115c0-1.548-0.604-3.006-1.698-4.104c-1.097-1.099-2.555-1.704-4.107-1.706C16.015,10.189,16.013,10.189,16.011,10.189z M20.822,20.822h0.01H20.822z"/><path d="M6.066,26.789c-0.261,0-0.521-0.102-0.718-0.304c-0.385-0.396-0.375-1.029,0.021-1.414l4.767-4.622c0.396-0.384,1.028-0.375,1.414,0.021c0.385,0.396,0.375,1.029-0.021,1.414l-4.767,4.622C6.568,26.695,6.317,26.789,6.066,26.789z"/><path d="M21.089,11.911c-0.254,0-0.508-0.096-0.702-0.288c-0.394-0.388-0.397-1.021-0.01-1.414l4.978-5.045c0.388-0.394,1.022-0.397,1.414-0.01c0.394,0.388,0.397,1.021,0.01,1.414l-4.978,5.045C21.605,11.812,21.347,11.911,21.089,11.911z"/><path d="M26.611,27.611c-0.256,0-0.512-0.098-0.707-0.293l-5.434-5.434c-0.391-0.391-0.391-1.023,0-1.414s1.023-0.391,1.414,0l5.434,5.434c0.391,0.391,0.391,1.023,0,1.414C27.123,27.514,26.867,27.611,26.611,27.611z"/><path d="M10.889,12c-0.259,0-0.519-0.101-0.714-0.3L4.73,6.145C4.344,5.75,4.35,5.116,4.744,4.73C5.139,4.343,5.771,4.35,6.158,4.744l5.444,5.556c0.387,0.395,0.381,1.028-0.014,1.414C11.394,11.905,11.142,12,10.889,12z"/></svg>