<svg xmlns="http://www.w3.org/2000/svg" viewBox="0 0 32 32"><!--! Font Icona - https://fonticona.com | License - https://fonticona.com/license | Copyright 2022 FontIcona.com --><path d="M12.606,28.005c-0.77,0.001-1.513-0.3-2.08-0.848c-0.581-0.562-0.908-1.315-0.921-2.122c0.018-1.692,1.368-3.037,3.053-3.016h6.66c1.577-0.022,2.955,1.239,3.048,2.844l0.006,0.171c-0.014,0.807-0.34,1.56-0.919,2.12c-0.581,0.562-1.355,0.833-2.15,0.851h-6.644C12.642,28.005,12.624,28.005,12.606,28.005z M12.648,24.02c-0.579,0-1.036,0.45-1.042,1.009c0.004,0.246,0.115,0.501,0.311,0.69c0.196,0.189,0.462,0.301,0.725,0.286h6.677c0.581-0.007,1.029-0.426,1.053-0.976v-0.007c-0.009-0.562-0.455-0.996-1.037-1.003h-6.675C12.655,24.02,12.651,24.02,12.648,24.02z"/><path d="M15.989,32c-4.629,0-4.629-3.641-4.629-5.012h2c0,1.764,0.188,3.012,2.629,3.012c1.773,0,2.168-0.722,2.299-0.959c0.33-0.604,0.33-1.442,0.33-2.055h2c0,0.782,0,1.964-0.577,3.016C19.314,31.328,17.951,32,15.989,32z"/><path d="M20.629,23.037h-2c0-3.32,2.555-5.295,2.663-5.377c2.18-1.665,3.432-4.194,3.432-6.936C24.724,5.914,20.811,2,16,2s-8.724,3.914-8.724,8.724c0,1.672,0.474,3.297,1.372,4.697c0.551,0.862,1.246,1.616,2.063,2.241c0.106,0.08,2.66,2.055,2.66,5.375h-2c0-2.308-1.856-3.771-1.875-3.786C8.493,18.484,7.64,17.559,6.963,16.5c-1.104-1.723-1.687-3.72-1.687-5.776C5.276,4.811,10.087,0,16,0s10.724,4.811,10.724,10.724c0,3.371-1.538,6.479-4.22,8.528C22.485,19.266,20.629,20.729,20.629,23.037z"/></svg>