<svg xmlns="http://www.w3.org/2000/svg" viewBox="0 0 32 32"><!--! Font Icona - https://fonticona.com | License - https://fonticona.com/license | Copyright 2022 FontIcona.com --><path d="M31,2H1C0.448,2,0,1.552,0,1s0.448-1,1-1h30c0.553,0,1,0.448,1,1S31.553,2,31,2z"/><path d="M18.278,12H1c-0.552,0-1-0.448-1-1s0.448-1,1-1h17.278c0.553,0,1,0.448,1,1S18.831,12,18.278,12z"/><path d="M30.789,12h-6.756c-0.553,0-1-0.448-1-1s0.447-1,1-1h6.756c0.553,0,1,0.448,1,1S31.342,12,30.789,12z"/><path d="M8.144,22H1c-0.552,0-1-0.447-1-1s0.448-1,1-1h7.144c0.552,0,1,0.447,1,1S8.696,22,8.144,22z"/><path d="M31,22H12.467c-0.552,0-1-0.447-1-1s0.448-1,1-1H31c0.553,0,1,0.447,1,1S31.553,22,31,22z"/><path d="M24.033,32H1c-0.552,0-1-0.447-1-1s0.448-1,1-1h23.033c0.553,0,1,0.447,1,1S24.586,32,24.033,32z"/></svg>