<svg xmlns="http://www.w3.org/2000/svg" viewBox="0 0 32 32"><!--! Font Icona - https://fonticona.com | License - https://fonticona.com/license | Copyright 2022 FontIcona.com --><path d="M4.453,28.547c-0.256,0-0.512-0.098-0.707-0.293c-0.391-0.391-0.391-1.023,0-1.414L26.84,3.746c0.391-0.391,1.023-0.391,1.414,0s0.391,1.023,0,1.414L5.16,28.254C4.965,28.449,4.709,28.547,4.453,28.547z"/><path d="M4.226,32H1.5C0.673,32,0,31.327,0,30.5v-2.726c0-0.827,0.673-1.5,1.5-1.5h2.726c0.827,0,1.5,0.673,1.5,1.5V30.5C5.726,31.327,5.053,32,4.226,32z M2,30h1.726v-1.726H2V30z"/><path d="M30.5,5.726h-2.726c-0.827,0-1.5-0.673-1.5-1.5V1.5c0-0.827,0.673-1.5,1.5-1.5H30.5C31.327,0,32,0.673,32,1.5v2.726C32,5.053,31.327,5.726,30.5,5.726z M28.274,3.726H30V2h-1.726V3.726z"/></svg>