<svg xmlns="http://www.w3.org/2000/svg" viewBox="0 0 32 32"><!--! Font Icona - https://fonticona.com | License - https://fonticona.com/license | Copyright 2022 FontIcona.com --><path d="M20.92,19.021c-0.249,0-0.5-0.015-0.752-0.042c-0.549-0.062-0.945-0.556-0.884-1.105c0.061-0.549,0.57-0.941,1.105-0.884c1.433,0.159,2.831-0.332,3.85-1.344l4.385-4.384c1.837-1.841,1.837-4.837-0.001-6.678l-1.194-1.194c-1.841-1.839-4.839-1.837-6.678,0l-4.388,4.366c-0.97,0.968-1.466,2.309-1.36,3.678c0.043,0.551-0.369,1.032-0.92,1.075c-0.561,0.031-1.032-0.369-1.075-0.92c-0.152-1.954,0.556-3.867,1.942-5.25l4.388-4.365c2.618-2.615,6.884-2.616,9.505,0.001l1.195,1.195c2.617,2.621,2.617,6.885,0.001,9.506l-4.388,4.387C24.378,18.329,22.687,19.021,20.92,19.021z"/><path d="M7.911,31.988c-1.721,0-3.44-0.65-4.75-1.948l-1.2-1.211c-2.615-2.619-2.615-6.883,0.003-9.504l4.387-4.386c1.447-1.453,3.446-2.153,5.484-1.927c0.549,0.061,0.944,0.556,0.883,1.105c-0.061,0.549-0.556,0.949-1.105,0.883c-1.427-0.158-2.83,0.334-3.845,1.352L3.379,20.74c-1.838,1.841-1.838,4.837,0,6.678l1.197,1.208c1.836,1.821,4.835,1.821,6.677-0.006l4.384-4.383c0.968-0.971,1.465-2.313,1.361-3.683c-0.042-0.551,0.371-1.032,0.922-1.073c0.549-0.038,1.032,0.371,1.073,0.922c0.147,1.95-0.56,3.862-1.94,5.246l-4.388,4.387C11.354,31.338,9.632,31.988,7.911,31.988z"/><path d="M12.149,20.847c-0.256,0-0.512-0.098-0.708-0.293c-0.391-0.392-0.39-1.025,0.001-1.415l6.954-6.943c0.391-0.391,1.025-0.391,1.415,0.001c0.39,0.391,0.39,1.024-0.001,1.414l-6.955,6.944C12.661,20.749,12.405,20.847,12.149,20.847z"/></svg>