<svg xmlns="http://www.w3.org/2000/svg" viewBox="0 0 32 32"><!--! Font Icona - https://fonticona.com | License - https://fonticona.com/license | Copyright 2022 FontIcona.com --><path d="M9.857,14.866c-0.489,0-0.917-0.359-0.988-0.857L7.784,6.479c-0.079-0.547,0.3-1.054,0.847-1.133c0.542-0.076,1.054,0.301,1.132,0.848l1.085,7.529c0.079,0.547-0.3,1.054-0.847,1.133C9.953,14.863,9.905,14.866,9.857,14.866z"/><path d="M5.496,11.757c-0.466,0-0.883-0.327-0.979-0.802L3.012,3.504C2.902,2.962,3.252,2.435,3.794,2.325c0.541-0.111,1.069,0.241,1.178,0.782l1.505,7.451c0.109,0.542-0.241,1.069-0.782,1.179C5.628,11.751,5.561,11.757,5.496,11.757z"/><path d="M16.22,11.758c-0.531,0-0.974-0.419-0.998-0.955l-0.318-7.025c-0.025-0.552,0.402-1.019,0.954-1.044c0.542-0.021,1.02,0.401,1.044,0.954l0.318,7.025c0.025,0.552-0.402,1.019-0.954,1.044C16.25,11.758,16.235,11.758,16.22,11.758z"/><path d="M8.772,7.337c-0.183,0-0.368-0.05-0.535-0.155L3.456,4.15C2.99,3.854,2.852,3.236,3.147,2.771c0.296-0.468,0.913-0.605,1.38-0.31l4.782,3.031c0.466,0.296,0.604,0.914,0.309,1.38C9.428,7.173,9.104,7.337,8.772,7.337z"/><path d="M8.773,7.337c-0.408,0-0.791-0.251-0.939-0.657C7.645,6.161,7.912,5.587,8.43,5.397l7.129-2.604c0.517-0.187,1.093,0.077,1.283,0.597c0.189,0.519-0.078,1.093-0.596,1.282L9.117,7.276C9.003,7.317,8.887,7.337,8.773,7.337z"/><path d="M15.902,4.732c-0.161,0-0.324-0.039-0.476-0.121l-5.038-2.732c-0.486-0.264-0.666-0.87-0.402-1.355s0.871-0.666,1.355-0.402l5.038,2.732c0.486,0.264,0.666,0.87,0.402,1.355C16.601,4.543,16.257,4.732,15.902,4.732z"/><path d="M3.992,4.306c-0.418,0-0.808-0.264-0.948-0.682C2.868,3.1,3.15,2.533,3.674,2.357l6.874-2.306c0.524-0.173,1.09,0.106,1.266,0.63c0.175,0.524-0.106,1.091-0.63,1.267L4.31,4.254C4.204,4.289,4.097,4.306,3.992,4.306z"/><path d="M9.858,14.866c-0.201,0-0.403-0.061-0.58-0.186l-4.362-3.109c-0.45-0.32-0.554-0.945-0.234-1.395c0.321-0.451,0.943-0.555,1.395-0.234l4.362,3.109c0.45,0.32,0.554,0.945,0.234,1.395C10.478,14.721,10.17,14.866,9.858,14.866z"/><path d="M9.86,14.866c-0.37,0-0.726-0.206-0.899-0.561C8.718,13.81,8.923,13.21,9.42,12.968l6.362-3.109c0.496-0.243,1.095-0.036,1.337,0.459c0.243,0.496,0.037,1.096-0.459,1.338l-6.362,3.109C10.157,14.834,10.007,14.866,9.86,14.866z"/><path d="M10.645,23.812c-0.489,0-0.917-0.359-0.988-0.857l-0.815-5.656c-0.079-0.547,0.3-1.054,0.847-1.133c0.542-0.075,1.054,0.301,1.132,0.848l0.815,5.656c0.079,0.547-0.3,1.054-0.847,1.133C10.74,23.81,10.692,23.812,10.645,23.812z"/><path d="M6.675,20.207c-0.466,0-0.883-0.327-0.979-0.802l-1.085-5.373c-0.109-0.542,0.241-1.069,0.782-1.179c0.541-0.112,1.068,0.241,1.178,0.782l1.085,5.373c0.109,0.542-0.241,1.069-0.782,1.179C6.808,20.201,6.741,20.207,6.675,20.207z"/><path d="M16.139,20.208c-0.531,0-0.974-0.418-0.998-0.955l-0.245-5.42c-0.025-0.552,0.402-1.019,0.954-1.044c0.55-0.027,1.019,0.401,1.044,0.954l0.245,5.42c0.025,0.552-0.402,1.019-0.954,1.044C16.169,20.208,16.154,20.208,16.139,20.208z"/><path d="M9.801,18.161c-0.217,0-0.436-0.07-0.62-0.216l-4.211-3.329c-0.433-0.342-0.507-0.971-0.165-1.404c0.343-0.434,0.972-0.507,1.405-0.164l4.211,3.329c0.433,0.342,0.507,0.971,0.165,1.404C10.389,18.031,10.096,18.161,9.801,18.161z"/><path d="M9.803,18.161c-0.352,0-0.693-0.186-0.876-0.516c-0.268-0.483-0.092-1.092,0.391-1.359l6.093-3.373c0.483-0.267,1.092-0.093,1.359,0.391c0.268,0.483,0.092,1.092-0.391,1.359l-6.093,3.373C10.133,18.121,9.966,18.161,9.803,18.161z"/><path d="M10.646,23.813c-0.24,0-0.48-0.086-0.672-0.26l-3.969-3.605c-0.409-0.371-0.439-1.004-0.068-1.413c0.371-0.407,1.003-0.438,1.413-0.067l3.969,3.605c0.409,0.371,0.439,1.004,0.068,1.413C11.189,23.703,10.918,23.813,10.646,23.813z"/><path d="M10.647,23.813c-0.326,0-0.645-0.159-0.837-0.451c-0.303-0.462-0.174-1.082,0.287-1.385l5.494-3.605c0.463-0.304,1.082-0.173,1.385,0.287c0.303,0.462,0.174,1.082-0.287,1.385l-5.494,3.605C11.025,23.761,10.835,23.813,10.647,23.813z"/><path d="M15.894,14.788c-0.219,0-0.44-0.071-0.625-0.22l-2.08-1.665c-0.431-0.345-0.501-0.975-0.156-1.405c0.346-0.433,0.975-0.502,1.406-0.155l2.08,1.665c0.431,0.345,0.501,0.975,0.156,1.405C16.478,14.66,16.187,14.788,15.894,14.788z"/><path d="M5.592,14.832c-0.346,0-0.682-0.179-0.867-0.5c-0.276-0.478-0.113-1.09,0.365-1.366l1.77-1.022c0.478-0.276,1.09-0.113,1.366,0.366c0.276,0.478,0.113,1.09-0.365,1.366l-1.77,1.022C5.934,14.789,5.762,14.832,5.592,14.832z"/><path d="M18.531,26.615c-0.296,0-0.59-0.132-0.788-0.383c-0.341-0.435-0.265-1.063,0.17-1.404l3.635-2.851c0.434-0.34,1.062-0.265,1.404,0.17c0.341,0.435,0.265,1.063-0.17,1.404l-3.635,2.851C18.965,26.546,18.748,26.615,18.531,26.615z"/><path d="M18.422,22.239c-0.315,0-0.625-0.148-0.819-0.425c-0.317-0.452-0.208-1.076,0.244-1.394l3.976-2.794c0.452-0.317,1.075-0.208,1.393,0.243c0.317,0.452,0.208,1.076-0.244,1.394l-3.976,2.794C18.821,22.181,18.621,22.239,18.422,22.239z"/><path d="M16.063,18.251c-0.335,0-0.663-0.169-0.852-0.475c-0.29-0.47-0.144-1.086,0.326-1.376l2.359-1.456c0.471-0.292,1.086-0.144,1.376,0.325c0.29,0.47,0.144,1.086-0.326,1.376l-2.359,1.456C16.423,18.203,16.242,18.251,16.063,18.251z"/><path d="M18.53,26.615c-0.217,0-0.436-0.07-0.619-0.215l-2.767-2.184c-0.434-0.342-0.507-0.971-0.166-1.404c0.343-0.434,0.972-0.508,1.405-0.166l2.767,2.184c0.434,0.342,0.507,0.971,0.166,1.404C19.119,26.484,18.826,26.615,18.53,26.615z"/><path d="M18.53,26.615c-0.541,0-0.986-0.432-0.999-0.975l-0.109-4.376c-0.014-0.553,0.422-1.012,0.975-1.025c0.535,0.021,1.011,0.423,1.024,0.975l0.109,4.376c0.014,0.553-0.422,1.012-0.975,1.025C18.547,26.615,18.539,26.615,18.53,26.615z"/><path d="M22.167,23.765c-0.018,0-0.036,0-0.055-0.001c-0.551-0.03-0.975-0.501-0.945-1.053l0.232-4.319c0.03-0.551,0.5-0.978,1.052-0.945c0.551,0.03,0.975,0.501,0.945,1.053l-0.232,4.319C23.135,23.352,22.694,23.765,22.167,23.765z"/><path d="M18.42,22.239c-0.209,0-0.421-0.065-0.602-0.202l-2.282-1.722c-0.44-0.332-0.528-0.959-0.196-1.4c0.332-0.441,0.958-0.53,1.401-0.195l2.282,1.722c0.44,0.332,0.528,0.959,0.196,1.4C19.023,22.103,18.724,22.239,18.42,22.239z"/><path d="M22.396,19.445c-0.19,0-0.383-0.055-0.554-0.168l-3.976-2.65c-0.459-0.307-0.583-0.927-0.277-1.387s0.926-0.584,1.387-0.277l3.976,2.65c0.459,0.307,0.583,0.927,0.277,1.387C23.037,19.289,22.72,19.445,22.396,19.445z"/><path d="M6.667,23.708c-0.322,0-0.639-0.155-0.832-0.443c-0.308-0.458-0.185-1.079,0.273-1.387l1.822-1.222c0.459-0.311,1.081-0.186,1.388,0.273c0.308,0.458,0.185,1.079-0.273,1.387l-1.822,1.222C7.051,23.653,6.858,23.708,6.667,23.708z"/><path d="M15.762,23.6c-0.206,0-0.414-0.063-0.592-0.195l-2.155-1.589c-0.445-0.327-0.54-0.953-0.211-1.398c0.327-0.444,0.952-0.54,1.398-0.211l2.155,1.589c0.445,0.327,0.54,0.953,0.211,1.398C16.372,23.459,16.069,23.6,15.762,23.6z"/><path d="M11.14,31.744c-0.489,0-0.917-0.359-0.988-0.857L9.51,26.44c-0.079-0.547,0.3-1.054,0.847-1.133c0.546-0.072,1.054,0.301,1.132,0.848l0.641,4.446c0.079,0.547-0.3,1.054-0.847,1.133C11.235,31.741,11.188,31.744,11.14,31.744z"/><path d="M7.511,27.901c-0.466,0-0.883-0.327-0.979-0.802l-0.847-4.194c-0.109-0.542,0.241-1.069,0.782-1.179c0.538-0.112,1.069,0.24,1.178,0.782l0.847,4.194c0.109,0.542-0.241,1.069-0.782,1.179C7.644,27.896,7.577,27.901,7.511,27.901z"/><path d="M11.142,32c-0.291,0-0.578-0.126-0.776-0.368c-0.349-0.429-0.284-1.059,0.144-1.407l4.824-3.928c0.428-0.35,1.058-0.284,1.407,0.144c0.349,0.429,0.284,1.059-0.144,1.407l-4.824,3.928C11.587,31.927,11.364,32,11.142,32z"/><path d="M11.142,32c-0.276,0-0.552-0.114-0.749-0.337l-3.629-4.099c-0.366-0.414-0.328-1.046,0.085-1.412c0.415-0.364,1.047-0.326,1.412,0.086l3.629,4.099c0.366,0.414,0.328,1.046-0.085,1.412C11.614,31.917,11.377,32,11.142,32z"/><path d="M10.5,27.298c-0.245,0-0.491-0.09-0.684-0.27l-3.834-3.59c-0.403-0.378-0.424-1.011-0.046-1.414c0.377-0.404,1.01-0.423,1.414-0.047l3.834,3.59c0.403,0.378,0.424,1.011,0.046,1.414C11.033,27.191,10.767,27.298,10.5,27.298z"/><path d="M10.501,27.298c-0.315,0-0.625-0.148-0.819-0.425c-0.317-0.452-0.208-1.076,0.243-1.394l5.264-3.699c0.453-0.317,1.075-0.207,1.394,0.243c0.317,0.452,0.208,1.076-0.243,1.394l-5.264,3.699C10.9,27.239,10.7,27.298,10.501,27.298z"/><path d="M15.964,28.072c-0.531,0-0.974-0.419-0.998-0.955l-0.202-4.474c-0.025-0.552,0.402-1.019,0.954-1.044c0.526-0.02,1.019,0.402,1.044,0.954l0.202,4.474c0.025,0.552-0.402,1.019-0.954,1.044C15.995,28.072,15.98,28.072,15.964,28.072z"/><path d="M24.675,17.729c-0.315,0-0.625-0.148-0.819-0.425c-0.317-0.452-0.208-1.076,0.244-1.394l3.334-2.343c0.451-0.318,1.076-0.208,1.393,0.243c0.317,0.452,0.208,1.076-0.244,1.394l-3.334,2.343C25.074,17.67,24.874,17.729,24.675,17.729z"/><path d="M27.646,19.335c-0.03,0-0.062-0.001-0.092-0.004c-0.55-0.051-0.955-0.538-0.904-1.088l0.363-3.949c0.05-0.549,0.537-0.949,1.087-0.904c0.55,0.051,0.955,0.538,0.904,1.088l-0.363,3.949C28.594,18.945,28.158,19.335,27.646,19.335z"/><path d="M20.677,15.221c-0.335,0-0.663-0.169-0.852-0.475c-0.29-0.471-0.144-1.086,0.326-1.376l3.469-2.141c0.471-0.292,1.086-0.144,1.376,0.325c0.29,0.471,0.144,1.086-0.326,1.376l-3.469,2.141C21.037,15.173,20.856,15.221,20.677,15.221z"/><path d="M28.007,15.386c-0.174,0-0.351-0.046-0.511-0.142l-3.864-2.306c-0.475-0.282-0.629-0.896-0.347-1.371c0.284-0.475,0.898-0.628,1.371-0.346l3.864,2.306c0.475,0.282,0.629,0.896,0.347,1.371C28.68,15.212,28.348,15.386,28.007,15.386z"/><path d="M24.673,17.729c-0.182,0-0.365-0.049-0.53-0.153l-3.999-2.508c-0.468-0.293-0.609-0.91-0.316-1.378c0.294-0.467,0.912-0.61,1.378-0.315l3.999,2.508c0.468,0.293,0.609,0.91,0.316,1.378C25.332,17.562,25.006,17.729,24.673,17.729z"/><path d="M24.545,21.729c-0.011,0-0.022,0-0.033-0.001c-0.552-0.018-0.985-0.479-0.967-1.031l0.129-4.001c0.018-0.552,0.475-1.031,1.032-0.967c0.552,0.018,0.985,0.479,0.967,1.031l-0.129,4.001C25.527,21.303,25.083,21.729,24.545,21.729z"/><path d="M24.544,21.729c-0.186,0-0.374-0.052-0.542-0.16l-1.369-0.884c-0.464-0.3-0.597-0.918-0.297-1.382c0.299-0.465,0.919-0.598,1.382-0.298l1.369,0.884c0.464,0.3,0.597,0.918,0.297,1.382C25.194,21.568,24.872,21.729,24.544,21.729z"/><path d="M24.545,21.729c-0.299,0-0.595-0.134-0.792-0.389c-0.337-0.438-0.257-1.065,0.18-1.402l3.101-2.395c0.437-0.338,1.064-0.258,1.403,0.18c0.337,0.438,0.257,1.065-0.18,1.402l-3.101,2.395C24.974,21.661,24.759,21.729,24.545,21.729z"/><path d="M20.679,17.879c-0.551,0-0.999-0.446-1-0.998l-0.005-2.632c-0.001-0.552,0.446-1.001,0.998-1.002c0,0,0.001,0,0.002,0c0.551,0,0.999,0.446,1,0.998l0.005,2.632c0.001,0.552-0.446,1.001-0.998,1.002C20.68,17.879,20.679,17.879,20.679,17.879z"/></svg>