<svg xmlns="http://www.w3.org/2000/svg" viewBox="0 0 32 32"><!--! Font Icona - https://fonticona.com | License - https://fonticona.com/license | Copyright 2022 FontIcona.com --><path d="M15.037,13.686c-0.171,0-0.349-0.021-0.532-0.069c-0.845-0.223-1.419-0.905-1.826-1.476c-0.275-0.386-1.05-1.75,0.586-3.063c0.086-0.069,0.17-0.146,0.254-0.225c0.246-0.226,0.551-0.507,0.959-0.696c0.179-0.082,0.362-0.139,0.545-0.169c0.593-0.102,1.098,0.074,1.504,0.216c0.5,0.173,0.988,0.341,1.451,0.636c0.425,0.271,1.005,0.715,1.137,1.438c0.059,0.322,0.045,0.818-0.353,1.351c-0.386,0.515-0.924,0.792-1.356,1.016c-0.174,0.089-0.348,0.175-0.497,0.282C16.521,13.206,15.854,13.686,15.037,13.686z M14.256,10.903c0.009,0.01,0.024,0.037,0.051,0.076c0.375,0.526,0.591,0.673,0.707,0.703c0.152,0.034,0.569-0.266,0.728-0.38c0.226-0.163,0.485-0.302,0.749-0.438c0.18-0.093,0.364-0.188,0.5-0.282c-0.026-0.018-0.054-0.037-0.086-0.057c-0.264-0.168-0.602-0.285-0.96-0.408c-0.264-0.092-0.499-0.171-0.591-0.159L15.349,9.96c-0.002,0.001-0.012,0.003-0.032,0.012c-0.122,0.057-0.278,0.2-0.443,0.353c-0.117,0.108-0.234,0.215-0.356,0.312C14.345,10.774,14.279,10.865,14.256,10.903z M15.186,8.974h0.01H15.186z"/><path d="M22.924,25.982c-0.471,0-0.946-0.143-1.398-0.427c-1.376-0.865-1.203-2.511-1.1-3.493c0.019-0.178,0.037-0.348,0.045-0.504c0.022-0.404,0.05-0.822,0.078-1.249c0.155-2.339,0.331-4.991-0.397-6.972c-0.368-1-1.34-2.062-2.142-2.67l1.21-1.594c0.171,0.131,0.354,0.281,0.542,0.45c-0.054-0.617-0.051-1.231-0.049-1.837c0.001-0.449,0.004-0.898-0.021-1.341c-0.09-1.627-0.818-3.143-1.854-3.86c-0.744-0.515-1.623-0.623-2.614-0.312c-1.58,0.492-1.97,2.198-2.065,2.909c-0.121,0.904-0.068,1.833-0.013,2.815c0.045,0.791,0.091,1.609,0.044,2.441c-0.108,1.903-0.832,3.886-2.149,5.892l-0.158,0.239c-1.253,1.903-2.55,3.871-1.788,5.928L7.22,23.094c-1.115-3.006,0.608-5.621,1.993-7.723l0.156-0.237c1.122-1.708,1.736-3.359,1.824-4.907c0.041-0.719,0-1.445-0.043-2.216c-0.058-1.032-0.119-2.1,0.027-3.191c0.307-2.307,1.565-3.967,3.452-4.556c1.586-0.494,3.089-0.294,4.35,0.579c1.547,1.073,2.585,3.139,2.711,5.393c0.027,0.481,0.025,0.971,0.024,1.46c-0.005,1.169-0.009,2.272,0.407,3.233c0.341,0.788,0.871,1.496,1.432,2.246c0.403,0.539,0.82,1.097,1.182,1.708c0.901,1.524,1.951,3.828,1.833,6.145c-0.06,1.167-0.888,3.824-2.531,4.678C23.677,25.891,23.302,25.982,22.924,25.982z M22.6,15.264c0.175,1.715,0.055,3.52-0.055,5.179c-0.027,0.418-0.055,0.828-0.076,1.224c-0.01,0.188-0.031,0.393-0.053,0.605c-0.083,0.787-0.122,1.403,0.176,1.591c0.272,0.172,0.402,0.13,0.522,0.067c0.725-0.376,1.41-2.113,1.456-3.004c0.098-1.916-0.934-3.971-1.557-5.025C22.884,15.685,22.746,15.474,22.6,15.264z"/><path d="M12.367,27.523c-0.369,0-0.703-0.115-0.898-0.183l0.597-1.723c-0.032,0.021-0.064,0.045-0.096,0.074c-0.182,0.17-0.235,0.364-0.239,0.425c0.036-0.45-0.512-2.435-1.006-3.841c-0.423-1.204-0.505-2.64-0.558-4.128c-0.027-0.771-0.062-2.772,0.191-4.684l1.982,0.262c-0.233,1.763-0.2,3.631-0.175,4.352c0.037,1.062,0.088,2.519,0.446,3.534c1.646,4.683,1.09,5.2,0.722,5.543C13.031,27.437,12.686,27.523,12.367,27.523z"/><path d="M11.337,31.765c-0.271,0-0.536-0.031-0.777-0.086c-0.412-0.094-0.782-0.242-1.108-0.373l-0.327-0.129c-0.161-0.061-0.321-0.113-0.48-0.166c-0.231-0.077-0.462-0.154-0.694-0.247c-0.388-0.156-0.736-0.291-1.077-0.37c-0.242-0.056-0.496-0.087-0.75-0.119l-0.396-0.054c-0.051-0.007-0.107-0.011-0.165-0.015c-0.35-0.025-1.416-0.103-1.644-1.193c-0.113-0.539,0.043-1.026,0.146-1.349l0.043-0.137c0.045-0.154,0.114-0.316,0.187-0.481c0.025-0.057,0.059-0.132,0.083-0.193c-0.005-0.008-0.011-0.016-0.016-0.023c-0.11-0.157-0.276-0.395-0.355-0.714c-0.145-0.585-0.066-1.147,0.227-1.627c0.322-0.528,0.882-0.909,1.578-1.074c0.279-0.067,0.568-0.146,0.786-0.267c-0.016,0,0.005-0.049,0.031-0.098l0.094-0.173c0.157-0.272,0.38-0.661,0.771-0.938c0.546-0.391,1.356-0.487,1.88-0.415c1.154,0.167,1.616,1.21,1.865,1.77l0.088,0.195c0.311,0.66,0.601,1.211,0.885,1.68c0.317,0.368,1.524,1.828,1.771,3.066l0,0c0.193,0.965,0.002,1.883-0.538,2.584C12.906,31.517,12.093,31.765,11.337,31.765z M5.979,28.237c0.012,0.001,0.024,0.003,0.036,0.005l0.361,0.048c0.32,0.041,0.639,0.084,0.945,0.154c0.482,0.111,0.924,0.282,1.373,0.463c0.193,0.077,0.387,0.141,0.581,0.205c0.185,0.062,0.37,0.123,0.555,0.193l0.367,0.144c0.282,0.113,0.549,0.221,0.805,0.278c0.361,0.082,0.738,0.024,0.856-0.129c0.188-0.244,0.242-0.57,0.162-0.972v-0.001c-0.129-0.645-0.977-1.761-1.368-2.2l-0.104-0.141c-0.336-0.548-0.674-1.184-1.033-1.944l-0.107-0.236c-0.084-0.189-0.24-0.543-0.34-0.609c-0.105-0.014-0.349,0.036-0.43,0.081c-0.03,0.03-0.121,0.188-0.175,0.282l-0.071,0.13c-0.135,0.254-0.339,0.638-0.827,0.908c-0.428,0.237-0.875,0.362-1.293,0.463c-0.197,0.047-0.308,0.127-0.333,0.17c-0.007,0.011-0.006,0.051,0.007,0.105c-0.003-0.021,0.026,0.012,0.053,0.049c0.158,0.227,0.423,0.606,0.406,1.155c-0.013,0.405-0.162,0.744-0.283,1.016c-0.036,0.083-0.075,0.162-0.098,0.239L5.979,28.237z"/><path d="M21.313,32.001c-0.098,0-0.196-0.006-0.295-0.018c-0.733-0.084-1.36-0.499-1.765-1.167c-0.682-1.128-0.336-2.338-0.084-3.222c0.064-0.224,0.128-0.443,0.171-0.656c0.12-0.587,0.072-1.12,0.017-1.738c-0.026-0.284-0.051-0.574-0.064-0.88c-0.027-0.662,0.071-1.575,0.689-2.17c0.27-0.259,0.743-0.559,1.471-0.5l-0.156,1.994c0.006-0.005,0.064-0.039,0.084-0.067c-0.029,0.041-0.107,0.249-0.09,0.662c0.011,0.271,0.035,0.529,0.058,0.782c0.064,0.709,0.13,1.442-0.048,2.317c-0.053,0.26-0.129,0.53-0.208,0.805c-0.223,0.781-0.343,1.282-0.128,1.638c0.109,0.182,0.203,0.206,0.283,0.216c0.321,0.03,0.881-0.238,1.262-0.627c0.685-0.7,1.469-1.237,2.214-1.715c0.167-0.106,0.374-0.215,0.593-0.327c0.158-0.081,0.427-0.219,0.62-0.347c-0.572-0.287-1.047-0.797-1.347-1.463c-0.175-0.391-0.23-0.769-0.279-1.101c-0.041-0.277-0.075-0.518-0.166-0.636l1.594-1.209c0.401,0.528,0.484,1.098,0.551,1.556c0.033,0.223,0.063,0.434,0.125,0.57c0.131,0.291,0.329,0.49,0.528,0.532c0.394,0.084,0.728,0.339,0.938,0.718c0.254,0.456,0.314,1.071,0.149,1.531c-0.31,0.862-1.171,1.305-1.801,1.628c-0.158,0.08-0.307,0.155-0.428,0.232c-0.645,0.412-1.317,0.871-1.861,1.428C23.337,31.385,22.355,32.001,21.313,32.001z M26.523,27.188c0,0,0.001,0,0.002,0.001C26.525,27.188,26.524,27.188,26.523,27.188z"/><path d="M15.494,30.207c-0.936,0-1.88-0.201-2.848-0.601l0.763-1.85c2.146,0.885,4.022,0.47,6.274-1.39l1.273,1.542C19.094,29.448,17.31,30.207,15.494,30.207z"/><path d="M18.357,10.777c-0.317,0-0.628-0.15-0.823-0.431c-0.315-0.453-0.202-1.076,0.252-1.392c0.164-0.113,0.423-0.545,0.423-1.22c0-0.756-0.327-1.195-0.451-1.235c-0.098,0.04-0.424,0.479-0.424,1.235c0,0.261,0.041,0.515,0.118,0.735c0.182,0.521-0.093,1.092-0.614,1.274c-0.522,0.182-1.092-0.094-1.273-0.614c-0.153-0.437-0.23-0.906-0.23-1.396c0-1.813,1.071-3.233,2.438-3.233s2.438,1.42,2.438,3.233c0,1.218-0.492,2.314-1.284,2.864C18.752,10.72,18.554,10.777,18.357,10.777z"/><path d="M13.337,10.599c-0.791-0.549-1.283-1.646-1.283-2.863c0-1.812,1.071-3.232,2.438-3.232s2.438,1.42,2.438,3.232c0,0.49-0.078,0.959-0.23,1.396l-1.888-0.662c0.077-0.219,0.118-0.473,0.118-0.733c0-0.756-0.327-1.194-0.451-1.234c-0.098,0.04-0.424,0.479-0.424,1.234c0,0.675,0.259,1.106,0.423,1.221L13.337,10.599z"/></svg>