<svg xmlns="http://www.w3.org/2000/svg" viewBox="0 0 32 32"><!--! Font Icona - https://fonticona.com | License - https://fonticona.com/license | Copyright 2022 FontIcona.com --><path d="M21.728,32c-1.619,0-3.101-0.521-4.538-1.026c-1.12-0.394-2.179-0.766-3.256-0.883c-2.702-0.293-5.527,0.175-8.162,1.354c-0.46,0.204-1.003,0.036-1.264-0.396s-0.158-0.991,0.238-1.304c0.071-0.056,7.057-5.647,4.731-12.573C7.959,12.645,5.132,4.219,12.853,0.754c2.429-1.091,5.216-0.998,7.645,0.251c2.402,1.236,4.075,3.406,4.589,5.955c0.109,0.542-0.241,1.069-0.783,1.178c-0.54,0.106-1.068-0.242-1.178-0.783c-0.393-1.95-1.684-3.616-3.543-4.572c-1.886-0.971-4.039-1.045-5.911-0.206c-5.598,2.513-4.204,8.272-2.297,13.956c1.662,4.954-0.478,9.179-2.535,11.831c1.765-0.36,3.56-0.454,5.311-0.263c1.307,0.142,2.525,0.57,3.703,0.984c1.485,0.521,2.882,1.018,4.326,0.895c1.595-0.134,3.15-0.735,4.382-1.693c0.437-0.341,1.065-0.26,1.403,0.175c0.339,0.437,0.261,1.064-0.175,1.403c-1.534,1.193-3.467,1.942-5.442,2.107C22.138,31.991,21.932,32,21.728,32z"/><path d="M18.989,17H4.825c-0.553,0-1-0.448-1-1s0.447-1,1-1h14.164c0.553,0,1,0.448,1,1S19.542,17,18.989,17z"/></svg>