<svg xmlns="http://www.w3.org/2000/svg" viewBox="0 0 32 32"><!--! Font Icona - https://fonticona.com | License - https://fonticona.com/license | Copyright 2022 FontIcona.com --><path d="M7.078,9.3c-0.553,0-1-0.447-1-1V1c0-0.553,0.447-1,1-1s1,0.447,1,1v7.3C8.078,8.853,7.631,9.3,7.078,9.3z"/><path d="M4.944,4.389c-0.237,0-0.476-0.084-0.666-0.254c-0.412-0.368-0.447-1-0.08-1.412l2.134-2.389c0.37-0.413,1.002-0.446,1.412-0.08c0.412,0.368,0.447,1,0.08,1.412L5.69,4.055C5.492,4.276,5.219,4.389,4.944,4.389z"/><path d="M4.899,15.544c-0.505,0-0.938-0.381-0.993-0.895c-0.175-1.641,1.017-3.131,2.656-3.321c0.076-0.01,0.154-0.01,0.23,0c1.639,0.19,2.83,1.68,2.657,3.32c-0.058,0.55-0.559,0.946-1.099,0.89c-0.55-0.058-0.948-0.55-0.89-1.099c0.054-0.517-0.29-0.989-0.784-1.104c-0.494,0.115-0.838,0.588-0.783,1.104c0.059,0.549-0.339,1.041-0.889,1.1C4.97,15.542,4.935,15.544,4.899,15.544z"/><path d="M4.899,20.644c-0.197,0-0.396-0.059-0.571-0.18c-0.453-0.315-0.563-0.939-0.248-1.393l3.556-5.1c0.315-0.453,0.937-0.563,1.393-0.248c0.453,0.315,0.563,0.939,0.248,1.393l-3.556,5.1C5.526,20.494,5.216,20.644,4.899,20.644z"/><path d="M8.7,20.644H4.9c-0.553,0-1-0.447-1-1s0.447-1,1-1h3.8c0.553,0,1,0.447,1,1S9.253,20.644,8.7,20.644z"/><path d="M6.834,28.466l-0.034-2c0.507-0.006,0.906-0.415,0.9-0.912c-0.006-0.491-0.408-0.888-0.899-0.888c-0.004,0-0.008,0-0.012,0c-0.24,0.003-0.465,0.099-0.633,0.271s-0.259,0.399-0.256,0.64c0.007,0.552-0.436,1.005-0.988,1.012c-0.004,0-0.008,0-0.012,0c-0.547,0-0.993-0.439-1-0.988c-0.01-0.774,0.283-1.506,0.825-2.061c0.541-0.554,1.266-0.864,2.041-0.873c0.012,0,0.023,0,0.035,0c1.582,0,2.879,1.277,2.898,2.865C9.718,27.13,8.433,28.446,6.834,28.466z"/><path d="M6.701,32.001c-1.484,0-2.745-1.205-2.8-2.732c-0.021-0.553,0.411-1.016,0.963-1.035c0.561-0.05,1.017,0.411,1.035,0.963c0.008,0.223,0.103,0.429,0.266,0.58C6.328,29.93,6.557,29.99,6.762,30c0.46-0.001,0.805-0.345,0.805-0.768S7.223,28.466,6.8,28.466c-0.553,0-1-0.447-1-1s0.447-1,1-1c1.525,0,2.767,1.241,2.767,2.767S8.325,31.999,6.8,31.999C6.767,32,6.733,32.001,6.701,32.001z"/><path d="M27.121,5.645H14.066c-0.553,0-1-0.447-1-1s0.447-1,1-1h13.055c0.553,0,1,0.447,1,1S27.674,5.645,27.121,5.645z"/><path d="M27.121,17.722H14.066c-0.553,0-1-0.447-1-1s0.447-1,1-1h13.055c0.553,0,1,0.447,1,1S27.674,17.722,27.121,17.722z"/><path d="M27.121,29.11H14.066c-0.553,0-1-0.447-1-1s0.447-1,1-1h13.055c0.553,0,1,0.447,1,1S27.674,29.11,27.121,29.11z"/></svg>