<svg xmlns="http://www.w3.org/2000/svg" viewBox="0 0 32 32"><!--! Font Icona - https://fonticona.com | License - https://fonticona.com/license | Copyright 2022 FontIcona.com --><path d="M29,32H3c-1.654,0-3-1.346-3-3V3c0-1.654,1.346-3,3-3h26c1.654,0,3,1.346,3,3v26C32,30.654,30.654,32,29,32z M3,2C2.448,2,2,2.448,2,3v26c0,0.552,0.448,1,1,1h26c0.552,0,1-0.448,1-1V3c0-0.552-0.448-1-1-1H3z"/><path d="M8.622,12.767H6.489c-1.103,0-2-0.897-2-2V8.634c0-1.103,0.897-2,2-2h2.133c1.103,0,2,0.897,2,2v2.133C10.622,11.869,9.725,12.767,8.622,12.767z M6.489,8.634H6.487l0.002,2.133h2.133V8.634H6.489z"/><path d="M31,14.723H15.922c-1.654,0-3-1.346-3-3V7.3c0-1.654,1.346-3,3-3H31c0.553,0,1,0.447,1,1v8.423C32,14.275,31.553,14.723,31,14.723z M15.922,6.3c-0.552,0-1,0.448-1,1v4.423c0,0.552,0.448,1,1,1H30V6.3H15.922z"/><path d="M8.622,26.1H6.489c-1.103,0-2-0.897-2-2v-2.133c0-1.103,0.897-2,2-2h2.133c1.103,0,2,0.897,2,2V24.1C10.622,25.202,9.725,26.1,8.622,26.1z M6.489,21.967H6.487L6.489,24.1h2.133v-2.133H6.489z"/><path d="M31,28.056H15.922c-1.654,0-3-1.346-3-3v-4.422c0-1.654,1.346-3,3-3H31c0.553,0,1,0.447,1,1v8.422C32,27.608,31.553,28.056,31,28.056z M15.922,19.634c-0.552,0-1,0.448-1,1v4.422c0,0.552,0.448,1,1,1H30v-6.422H15.922z"/></svg>