<svg xmlns="http://www.w3.org/2000/svg" viewBox="0 0 32 32"><!--! Font Icona - https://fonticona.com | License - https://fonticona.com/license | Copyright 2022 FontIcona.com --><path d="M31,6.082H8.675c-0.553,0-1-0.447-1-1s0.447-1,1-1H31c0.553,0,1,0.447,1,1S31.553,6.082,31,6.082z"/><path d="M31,17H8.675c-0.553,0-1-0.447-1-1s0.447-1,1-1H31c0.553,0,1,0.447,1,1S31.553,17,31,17z"/><path d="M31,27.918H8.675c-0.553,0-1-0.447-1-1s0.447-1,1-1H31c0.553,0,1,0.447,1,1S31.553,27.918,31,27.918z"/><circle cx="1.611" cy="5.082" r="1.611"/><circle cx="1.611" cy="16" r="1.611"/><circle cx="1.611" cy="26.918" r="1.611"/></svg>