<svg xmlns="http://www.w3.org/2000/svg" viewBox="0 0 32 32"><!--! Font Icona - https://fonticona.com | License - https://fonticona.com/license | Copyright 2022 FontIcona.com --><path d="M26.05,9.235c-0.553,0-1-0.447-1-1V1c0-0.553,0.447-1,1-1s1,0.447,1,1v7.235C27.05,8.788,26.603,9.235,26.05,9.235z"/><path d="M23.935,4.368c-0.237,0-0.476-0.084-0.666-0.254c-0.412-0.368-0.447-1-0.08-1.412l2.115-2.368c0.37-0.413,1.002-0.446,1.412-0.08c0.412,0.368,0.447,1,0.08,1.412l-2.115,2.368C24.482,4.256,24.209,4.368,23.935,4.368z"/><path d="M23.89,15.425c-0.505,0-0.938-0.381-0.993-0.895c-0.174-1.631,1.012-3.111,2.642-3.301c0.074-0.01,0.15-0.009,0.226-0.001c1.64,0.182,2.827,1.664,2.646,3.305c-0.061,0.548-0.53,0.946-1.104,0.884c-0.549-0.061-0.944-0.555-0.884-1.104c0.057-0.506-0.28-0.966-0.765-1.077c-0.486,0.114-0.825,0.577-0.771,1.084c0.059,0.549-0.339,1.041-0.889,1.1C23.961,15.423,23.925,15.425,23.89,15.425z"/><path d="M23.89,20.48c-0.197,0-0.396-0.059-0.571-0.18c-0.453-0.315-0.563-0.939-0.248-1.393l3.524-5.056c0.315-0.452,0.937-0.564,1.393-0.248c0.453,0.315,0.563,0.939,0.248,1.393l-3.524,5.056C24.517,20.331,24.206,20.48,23.89,20.48z"/><path d="M27.657,20.48h-3.767c-0.553,0-1-0.447-1-1s0.447-1,1-1h3.767c0.553,0,1,0.447,1,1S28.21,20.48,27.657,20.48z"/><path d="M25.809,28.233l-0.034-2c0.496-0.006,0.889-0.407,0.883-0.894c-0.003-0.236-0.097-0.457-0.266-0.621c-0.169-0.165-0.383-0.211-0.628-0.252c-0.486,0.006-0.879,0.407-0.873,0.894c0.006,0.553-0.437,1.006-0.988,1.012c-0.529-0.035-1.006-0.437-1.012-0.988c-0.018-1.589,1.26-2.897,2.85-2.917c0.011,0,0.021,0,0.032,0c1.576,0,2.867,1.271,2.885,2.85C28.675,26.905,27.397,28.214,25.809,28.233z"/><path d="M25.774,32c-0.068,0-0.138-0.003-0.207-0.008c-1.585-0.111-2.785-1.492-2.675-3.077c0.038-0.551,0.526-0.956,1.067-0.929c0.551,0.039,0.967,0.517,0.929,1.067c-0.034,0.486,0.333,0.909,0.819,0.944c0.231,0.008,0.462-0.061,0.641-0.215s0.286-0.369,0.303-0.604c0.033-0.485-0.334-0.908-0.82-0.943c-0.553,0-1.028-0.448-1.028-1.001c0-0.552,0.419-1.001,0.972-1.001c0.065,0,0.132,0.003,0.196,0.007c1.586,0.112,2.786,1.493,2.676,3.078c-0.055,0.77-0.405,1.47-0.986,1.975C27.131,31.753,26.468,32,25.774,32z"/><path d="M17.283,5.612H4.343c-0.553,0-1-0.447-1-1s0.447-1,1-1h12.94c0.553,0,1,0.447,1,1S17.836,5.612,17.283,5.612z"/><path d="M17.283,17.584H4.343c-0.553,0-1-0.447-1-1s0.447-1,1-1h12.94c0.553,0,1,0.447,1,1S17.836,17.584,17.283,17.584z"/><path d="M17.283,28.872H4.343c-0.553,0-1-0.447-1-1s0.447-1,1-1h12.94c0.553,0,1,0.447,1,1S17.836,28.872,17.283,28.872z"/></svg>