<svg xmlns="http://www.w3.org/2000/svg" viewBox="0 0 32 32"><!--! Font Icona - https://fonticona.com | License - https://fonticona.com/license | Copyright 2022 FontIcona.com --><path d="M31,6.839H16c-0.552,0-1-0.448-1-1s0.448-1,1-1h15c0.553,0,1,0.448,1,1S31.553,6.839,31,6.839z"/><path d="M31,29.101H16c-0.552,0-1-0.447-1-1s0.448-1,1-1h15c0.553,0,1,0.447,1,1S31.553,29.101,31,29.101z"/><circle cx="3.502" cy="28.1" r="1.611"/><path d="M3.501,9.056c-0.431,0-0.843-0.183-1.133-0.502L0.26,6.231c-0.372-0.409-0.341-1.042,0.068-1.413C0.738,4.448,1.37,4.479,1.74,4.886L3.5,6.825L8.2,1.619c0.369-0.41,1.001-0.443,1.412-0.072c0.41,0.37,0.442,1.002,0.072,1.412L4.637,8.551c-0.289,0.32-0.702,0.504-1.134,0.505C3.502,9.056,3.502,9.056,3.501,9.056z"/><path d="M31,18.186H16c-0.552,0-1-0.447-1-1c0-0.552,0.448-1,1-1h15c0.553,0,1,0.448,1,1C32,17.738,31.553,18.186,31,18.186z"/><path d="M3.501,20.402c-0.431,0-0.844-0.184-1.133-0.503L0.26,17.578c-0.372-0.409-0.341-1.042,0.068-1.413c0.41-0.371,1.042-0.339,1.413,0.068l1.76,1.938L8.2,12.966c0.369-0.41,1.002-0.443,1.412-0.072c0.41,0.37,0.442,1.002,0.072,1.412l-5.047,5.592C4.347,20.218,3.934,20.402,3.501,20.402L3.501,20.402z"/></svg>