<svg xmlns="http://www.w3.org/2000/svg" viewBox="0 0 32 32"><!--! Font Icona - https://fonticona.com | License - https://fonticona.com/license | Copyright 2022 FontIcona.com --><path d="M16,32.001c-2.553,0-15.284-0.183-15.284-3.79c0-0.646,0-2.614,8.698-3.481c0.56-0.054,1.04,0.347,1.095,0.896s-0.347,1.04-0.896,1.094c-4.195,0.418-6.081,1.116-6.711,1.497C4.018,28.917,8.459,30.001,16,30.001s11.982-1.083,13.098-1.784c-0.63-0.381-2.516-1.079-6.711-1.497c-0.549-0.055-0.95-0.545-0.896-1.094s0.543-0.951,1.095-0.896c8.698,0.867,8.698,2.835,8.698,3.481C31.284,31.818,18.553,32.001,16,32.001z M29.333,28.403h0.01H29.333z"/><path d="M15.938,26.984c-0.253,0-0.506-0.096-0.698-0.284l-0.374-0.356c-0.264-0.25-0.521-0.493-0.763-0.754c-1.354-1.467-2.7-2.942-4.035-4.426c-1.343-1.473-2.484-3.126-3.388-4.909c-0.625-1.231-1.056-2.546-1.279-3.909c-0.431-2.6,0.137-5.241,1.598-7.436c1.522-2.426,4.032-4.146,6.871-4.694c2.806-0.569,5.671-0.014,8.063,1.569c2.395,1.583,4.028,4.004,4.601,6.817c0.04,0.189,0.073,0.384,0.102,0.579c0.258,1.899,0.021,3.835-0.68,5.61c-0.479,1.246-1.155,2.411-2.004,3.456c-1.68,2.162-3.498,4.252-5.21,6.187l-1.925,2.12c-0.045,0.049-0.094,0.094-0.147,0.133l-0.139,0.102C16.354,26.92,16.146,26.984,15.938,26.984z M16.023,1.999c-0.586,0-1.177,0.06-1.765,0.179c-2.307,0.446-4.337,1.837-5.581,3.818C7.484,7.79,7.026,9.921,7.374,12.021c0.191,1.162,0.558,2.281,1.09,3.33c0.822,1.623,1.861,3.126,3.087,4.471c1.333,1.483,2.673,2.951,4.021,4.411c0.109,0.118,0.224,0.232,0.34,0.345l1.342-1.478c1.682-1.9,3.475-3.962,5.133-6.096c0.73-0.899,1.3-1.882,1.708-2.939c0.578-1.465,0.771-3.055,0.562-4.605c-0.021-0.146-0.048-0.3-0.079-0.453c-0.468-2.293-1.797-4.264-3.746-5.553C19.383,2.495,17.722,1.999,16.023,1.999z M16.052,17.006c-3.489,0-6.299-2.803-6.306-6.254c-0.006-3.456,2.8-6.271,6.255-6.278c0.004,0,0.008,0,0.012,0c1.67,0,3.239,0.648,4.423,1.827c1.186,1.182,1.84,2.754,1.843,4.428c0.008,1.667-0.634,3.238-1.807,4.424c-1.174,1.186-2.739,1.844-4.408,1.853C16.06,17.006,16.056,17.006,16.052,17.006z M16.013,6.474c-0.003,0-0.005,0-0.008,0c-2.353,0.004-4.263,1.922-4.259,4.274c0.005,2.349,1.918,4.258,4.268,4.258c0.002,0,0.005,0,0.007,0c1.168-0.006,2.231-0.454,3.03-1.26c0.798-0.807,1.233-1.875,1.228-3.01c0-0.001,0-0.002,0-0.004c-0.002-1.139-0.447-2.21-1.255-3.014C18.218,6.916,17.149,6.474,16.013,6.474z"/></svg>