<svg xmlns="http://www.w3.org/2000/svg" viewBox="0 0 32 32"><!--! Font Icona - https://fonticona.com | License - https://fonticona.com/license | Copyright 2022 FontIcona.com --><path d="M15.926,32c-0.254,0-0.506-0.096-0.698-0.285c-0.151-0.147-0.304-0.291-0.453-0.432c-0.313-0.295-0.619-0.584-0.905-0.894c-1.625-1.76-3.239-3.53-4.843-5.312c-1.602-1.757-2.961-3.728-4.038-5.851c-0.741-1.46-1.252-3.02-1.518-4.636c-0.509-3.071,0.161-6.191,1.888-8.785c1.801-2.871,4.767-4.902,8.122-5.551c3.316-0.677,6.704-0.018,9.534,1.854s4.762,4.733,5.438,8.058c0.047,0.225,0.086,0.452,0.12,0.681c0.304,2.25,0.025,4.541-0.804,6.638c-0.571,1.48-1.372,2.861-2.376,4.098c-2.01,2.585-4.193,5.096-6.251,7.422l-2.31,2.544c-0.045,0.05-0.096,0.095-0.15,0.135l-0.167,0.122C16.339,31.937,16.132,32,15.926,32z M16.029,1.999c-0.718,0-1.44,0.072-2.159,0.219c-2.823,0.545-5.31,2.249-6.833,4.675c-1.458,2.192-2.02,4.803-1.594,7.373c0.233,1.415,0.68,2.78,1.328,4.057c0.996,1.963,2.253,3.785,3.737,5.414c1.602,1.779,3.21,3.543,4.829,5.296c0.181,0.195,0.371,0.381,0.565,0.566l1.75-1.927c2.027-2.292,4.186-4.774,6.175-7.332c0.885-1.091,1.58-2.29,2.079-3.582c0.705-1.787,0.941-3.731,0.686-5.629c-0.026-0.178-0.06-0.37-0.099-0.56c-0.571-2.803-2.198-5.214-4.583-6.792C20.14,2.606,18.106,1.999,16.029,1.999z M16.061,20.02c-4.078,0-7.361-3.276-7.369-7.31c-0.007-4.039,3.272-7.33,7.311-7.337c0.004,0,0.009,0,0.013,0c4.031,0,7.314,3.275,7.324,7.308c0.01,1.95-0.739,3.787-2.111,5.173s-3.201,2.155-5.152,2.166C16.07,20.02,16.065,20.02,16.061,20.02z M16.015,7.373c-0.003,0-0.006,0-0.009,0c-2.936,0.005-5.319,2.398-5.314,5.333c0.006,2.932,2.393,5.314,5.323,5.314c0.004,0,0.007,0,0.01,0c1.457-0.008,2.785-0.566,3.781-1.573c0.996-1.007,1.541-2.341,1.533-3.757c0-0.001,0-0.002,0-0.003C21.333,9.755,18.945,7.373,16.015,7.373z"/></svg>