<svg xmlns="http://www.w3.org/2000/svg" viewBox="0 0 32 32"><!--! Font Icona - https://fonticona.com | License - https://fonticona.com/license | Copyright 2022 FontIcona.com --><path d="M26.23,32H5.77c-1.654,0-3-1.346-3-3V18.006c0-1.654,1.346-3,3-3H26.23c1.654,0,3,1.346,3,3V29C29.23,30.654,27.885,32,26.23,32z M5.77,17.006c-0.552,0-1,0.449-1,1V29c0,0.551,0.448,1,1,1H26.23c0.552,0,1-0.449,1-1V18.006c0-0.551-0.448-1-1-1H5.77z"/><path d="M24.201,17.006c-0.553,0-1-0.448-1-1V9.082C23.201,4.912,20.153,2,15.79,2c-4.209,0-7.036,2.951-7.036,7.343c0,0.552-0.447,1-1,1s-1-0.448-1-1C6.754,3.842,10.47,0,15.79,0c5.453,0,9.411,3.819,9.411,9.082v6.924C25.201,16.558,24.754,17.006,24.201,17.006z"/></svg>