<svg xmlns="http://www.w3.org/2000/svg" viewBox="0 0 32 32"><!--! Font Icona - https://fonticona.com | License - https://fonticona.com/license | Copyright 2022 FontIcona.com --><path d="M26.226,32H5.774c-1.654,0-3-1.346-3-3V18.011c0-1.654,1.346-3,3-3h20.451c1.654,0,3,1.346,3,3V29C29.226,30.654,27.88,32,26.226,32z M5.774,17.011c-0.552,0-1,0.449-1,1V29c0,0.551,0.448,1,1,1h20.451c0.552,0,1-0.449,1-1V18.011c0-0.551-0.448-1-1-1H5.774z"/><path d="M24.027,17.011c-0.553,0-1-0.448-1-1v-5.14C23.027,5.316,20.398,2,15.994,2c-4.396,0-7.021,3.316-7.021,8.872v5.14c0,0.552-0.447,1-1,1s-1-0.448-1-1v-5.14C6.973,4.166,10.43,0,15.994,0c5.572,0,9.033,4.166,9.033,10.872v5.14C25.027,16.563,24.58,17.011,24.027,17.011z"/></svg>