<svg xmlns="http://www.w3.org/2000/svg" viewBox="0 0 32 32"><!--! Font Icona - https://fonticona.com | License - https://fonticona.com/license | Copyright 2022 FontIcona.com --><path d="M4.061,21.825c-0.366,0-0.735-0.044-1.1-0.135c-1.569-0.39-2.67-1.548-2.945-3.097c-0.097-0.544,0.266-1.063,0.81-1.159c0.546-0.098,1.062,0.266,1.159,0.81c0.192,1.079,1.084,1.413,1.459,1.505c0.79,0.197,1.894,0.006,2.573-0.865c0.445-0.569,0.431-1.153,0.341-1.542c-0.16-0.691-0.672-1.306-1.368-1.644c-0.443-0.214-0.875-0.307-1.779-0.147c-0.471,0.084-1.174,0.493-1.556,0.822c-0.32,0.277-0.781,0.322-1.148,0.113C0.182,16.302-0.009,15.956,0,15.591c0.002-0.27,0-4.413,0-4.413c0-0.265,0.105-0.52,0.292-0.708C0.48,10.284,0.735,10.178,1,10.178h5.743c0.552,0,1,0.448,1,1s-0.448,1-1,1H2c0,0.676,0,1.223,0,1.665c0.278-0.116,0.568-0.209,0.858-0.261c1.222-0.217,2.094-0.125,3.005,0.317c1.234,0.6,2.147,1.718,2.442,2.991c0.267,1.149,0.013,2.295-0.713,3.225C6.738,21.209,5.427,21.825,4.061,21.825z"/><path d="M14.404,21.778c-3.198,0-5.8-2.602-5.8-5.8s2.602-5.8,5.8-5.8s5.8,2.602,5.8,5.8S17.602,21.778,14.404,21.778z M14.404,12.178c-2.095,0-3.8,1.705-3.8,3.8c0,2.095,1.705,3.8,3.8,3.8c2.096,0,3.8-1.705,3.8-3.8C18.204,13.883,16.5,12.178,14.404,12.178z"/><path d="M26.2,21.778c-3.198,0-5.8-2.602-5.8-5.8s2.602-5.8,5.8-5.8s5.8,2.602,5.8,5.8S29.398,21.778,26.2,21.778z M26.2,12.178c-2.095,0-3.8,1.705-3.8,3.8c0,2.095,1.705,3.8,3.8,3.8c2.096,0,3.8-1.705,3.8-3.8C30,13.883,28.295,12.178,26.2,12.178z"/></svg>