<svg xmlns="http://www.w3.org/2000/svg" viewBox="0 0 32 32"><!--! Font Icona - https://fonticona.com | License - https://fonticona.com/license | Copyright 2022 FontIcona.com --><path d="M20.136,23.729c-6.542,0-11.864-5.322-11.864-11.864S13.594,0,20.136,0S32,5.322,32,11.864S26.678,23.729,20.136,23.729z M20.136,2c-5.439,0-9.864,4.425-9.864,9.864c0,5.439,4.425,9.864,9.864,9.864c5.439,0,9.864-4.425,9.864-9.864C30,6.425,25.575,2,20.136,2z"/><path d="M21.736,23.572c-2.838,0-5.589-1.133-7.59-3.133c-2.004-2.004-3.067-4.646-2.993-7.44c0.129-4.889,4.211-8.97,9.1-9.099c2.001-0.062,3.847,0.676,5.223,2.053c1.377,1.376,2.106,3.232,2.054,5.224c-0.09,3.393-2.924,6.227-6.317,6.316c-1.398,0.034-2.714-0.478-3.686-1.45s-1.487-2.281-1.45-3.686c0.063-2.41,2.076-4.423,4.487-4.487c0.987-0.019,1.968,0.348,2.674,1.054c0.707,0.707,1.081,1.656,1.055,2.674c-0.028,1.079-0.694,2.112-1.656,2.571c-0.872,0.414-1.833,0.3-2.637-0.318c-0.438-0.337-0.521-0.965-0.184-1.402c0.337-0.438,0.965-0.521,1.402-0.184c0.259,0.199,0.427,0.16,0.558,0.098c0.281-0.134,0.509-0.493,0.517-0.817c0.013-0.465-0.154-0.894-0.469-1.208s-0.731-0.478-1.207-0.469c-1.364,0.037-2.505,1.176-2.54,2.541c-0.022,0.851,0.284,1.639,0.864,2.219c0.581,0.581,1.38,0.88,2.219,0.865c2.348-0.062,4.309-2.023,4.37-4.37c0.038-1.438-0.483-2.772-1.468-3.757c-0.985-0.984-2.331-1.503-3.756-1.468c-3.843,0.102-7.052,3.31-7.153,7.153c-0.059,2.24,0.796,4.361,2.409,5.973c1.679,1.681,4.025,2.6,6.406,2.543c0.543-0.003,1.012,0.422,1.026,0.974s-0.421,1.012-0.974,1.026C21.926,23.57,21.83,23.572,21.736,23.572z"/><path d="M1,32c-0.256,0-0.512-0.098-0.707-0.293c-0.391-0.391-0.391-1.023,0-1.414l11.454-11.454c0.391-0.391,1.023-0.391,1.414,0s0.391,1.023,0,1.414L1.707,31.707C1.512,31.902,1.256,32,1,32z"/></svg>