<svg xmlns="http://www.w3.org/2000/svg" viewBox="0 0 32 32"><!--! Font Icona - https://fonticona.com | License - https://fonticona.com/license | Copyright 2022 FontIcona.com --><path d="M11.55,16.956c-0.553,0-1-0.448-1-1s0.447-1,1-1h8.078c3.417-0.109,6.152-3.004,6.066-6.453C25.78,5.003,23.045,2.109,19.597,2L2.083,2c-0.553,0-1-0.448-1-1s0.447-1,1-1h17.545c4.575,0.145,8.179,3.958,8.066,8.502c0.112,4.495-3.492,8.309-8.035,8.453L11.55,16.956z"/><path d="M11.55,32c-0.553,0-1-0.448-1-1V1c0-0.552,0.447-1,1-1s1,0.448,1,1v30C12.55,31.552,12.103,32,11.55,32z"/><path d="M6.639,32c-0.553,0-1-0.448-1-1V1c0-0.552,0.447-1,1-1s1,0.448,1,1v30C7.639,31.552,7.191,32,6.639,32z"/><path d="M29.917,26.489H15.494c-0.553,0-1-0.448-1-1s0.447-1,1-1h14.423c0.553,0,1,0.448,1,1S30.47,26.489,29.917,26.489z"/><path d="M29.917,26.489c-0.256,0-0.513-0.098-0.708-0.294l-4.545-4.556c-0.39-0.391-0.39-1.024,0.002-1.414c0.391-0.39,1.023-0.39,1.414,0.002l4.545,4.556c0.39,0.391,0.39,1.024-0.002,1.414C30.428,26.392,30.173,26.489,29.917,26.489z"/><path d="M25.15,31.255c-0.256,0-0.512-0.098-0.707-0.293c-0.391-0.391-0.391-1.023,0-1.414l4.767-4.767c0.391-0.391,1.023-0.391,1.414,0s0.391,1.023,0,1.414l-4.767,4.767C25.662,31.158,25.406,31.255,25.15,31.255z"/></svg>