<svg xmlns="http://www.w3.org/2000/svg" viewBox="0 0 32 32"><!--! Font Icona - https://fonticona.com | License - https://fonticona.com/license | Copyright 2022 FontIcona.com --><path d="M4.921,5.816c-0.553,0-1-0.448-1-1C3.921,3.264,2.61,2,1,2C0.447,2,0,1.552,0,1s0.447-1,1-1c2.714,0,4.921,2.161,4.921,4.816C5.921,5.369,5.474,5.816,4.921,5.816z"/><path d="M31,25.505H7.941c-2.217,0-4.021-1.768-4.021-3.94V4.816c0-0.552,0.447-1,1-1s1,0.448,1,1v16.749c0,1.07,0.906,1.94,2.021,1.94H31c0.553,0,1,0.448,1,1S31.553,25.505,31,25.505z"/><path d="M12.375,32c-1.893,0-3.433-1.542-3.433-3.436s1.54-3.436,3.433-3.436s3.432,1.542,3.432,3.436S14.268,32,12.375,32z M12.375,27.128c-0.79,0-1.433,0.644-1.433,1.436S11.585,30,12.375,30c0.789,0,1.432-0.644,1.432-1.436S13.164,27.128,12.375,27.128z"/><path d="M25.516,32c-1.893,0-3.433-1.542-3.433-3.436s1.54-3.436,3.433-3.436s3.432,1.542,3.432,3.436S27.408,32,25.516,32z M25.516,27.128c-0.79,0-1.433,0.644-1.433,1.436S24.726,30,25.516,30c0.789,0,1.432-0.644,1.432-1.436S26.305,27.128,25.516,27.128z"/><path d="M25.968,21.859H10.923c-2.173,0-3.941-1.77-3.941-3.946v-6.742c0-2.176,1.769-3.946,3.941-3.946h15.045c2.173,0,3.941,1.771,3.941,3.946v6.742C29.909,20.089,28.141,21.859,25.968,21.859z M10.923,9.225c-1.07,0-1.941,0.873-1.941,1.946v6.742c0,1.073,0.871,1.946,1.941,1.946h15.045c1.07,0,1.941-0.873,1.941-1.946v-6.742c0-1.073-0.871-1.946-1.941-1.946H10.923z"/><path d="M21.952,9.112c-0.553,0-1-0.448-1-1V6.299c0-0.071-0.062-0.133-0.131-0.133h-4.752c-0.069,0-0.131,0.062-0.131,0.133v1.813c0,0.552-0.447,1-1,1s-1-0.448-1-1V6.299c0-1.176,0.956-2.133,2.131-2.133h4.752c1.175,0,2.131,0.957,2.131,2.133v1.813C22.952,8.664,22.505,9.112,21.952,9.112z"/><path d="M12.375,21.859c-0.553,0-1-0.448-1-1V8.225c0-0.552,0.447-1,1-1s1,0.448,1,1v12.634C13.375,21.411,12.928,21.859,12.375,21.859z"/><path d="M24.384,21.859c-0.553,0-1-0.448-1-1V8.225c0-0.552,0.447-1,1-1s1,0.448,1,1v12.634C25.384,21.411,24.937,21.859,24.384,21.859z"/></svg>