<svg xmlns="http://www.w3.org/2000/svg" viewBox="0 0 32 32"><!--! Font Icona - https://fonticona.com | License - https://fonticona.com/license | Copyright 2022 FontIcona.com --><path d="M28.678,32.001c-1.315,0-2.474-0.725-2.637-0.832c-1.646-0.996-4.543-2.688-4.544-2.688c-1.56-0.793-2.781-2.117-3.391-3.703c-0.643-1.672-0.583-3.926-0.534-5.736l0.016-0.643c0.008-0.387,0.003-0.789-0.003-1.242c-0.011-0.804-0.023-1.805,0.029-3.146l0,0c0.135-3.429,0.815-5.557,2.142-6.697c0.797-0.684,1.784-0.963,2.925-0.839c1.363,0.153,2.35,0.908,3.221,1.573l0.341,0.259C31.86,12.512,31.997,20.051,32,20.369v7.927c0,0.049-0.004,0.098-0.011,0.146c-0.251,1.692-0.936,2.801-2.036,3.295C29.53,31.928,29.096,32.001,28.678,32.001z M19.612,14.088c-0.05,1.29-0.038,2.222-0.028,3.043c0.007,0.477,0.012,0.9,0.004,1.307l-0.017,0.657c-0.044,1.633-0.098,3.665,0.402,4.965c0.426,1.107,1.33,2.08,2.481,2.667c0.05,0.027,2.965,1.729,4.65,2.75c0.342,0.219,1.388,0.729,2.031,0.436c0.524-0.238,0.759-1.037,0.863-1.692v-7.841c-0.001-0.058-0.142-6.867-4.957-10.472l-0.356-0.271c-0.761-0.581-1.417-1.083-2.229-1.174c-0.58-0.064-1.029,0.051-1.398,0.367C20.208,9.562,19.721,11.331,19.612,14.088L19.612,14.088z"/><path d="M3.324,32.001c-0.419,0.001-0.854-0.073-1.277-0.264c-1.101-0.494-1.785-1.603-2.036-3.295C0.004,28.394,0,28.345,0,28.296v-7.917c0.003-0.328,0.14-7.867,5.758-12.073l0.341-0.259c0.871-0.665,1.857-1.42,3.221-1.573c1.144-0.124,2.129,0.155,2.925,0.839c1.326,1.141,2.007,3.269,2.142,6.697l0,0c0.053,1.342,0.04,2.343,0.029,3.146c-0.006,0.453-0.011,0.855-0.003,1.242l0.016,0.643c0.049,1.811,0.108,4.064-0.534,5.737c-0.609,1.584-1.831,2.909-3.439,3.729c0.002,0-2.862,1.674-4.524,2.68C5.789,31.28,4.637,32.001,3.324,32.001z M2,28.22c0.104,0.655,0.339,1.454,0.863,1.692c0.643,0.291,1.69-0.217,2.005-0.419c1.712-1.037,4.627-2.739,4.627-2.739c1.201-0.614,2.105-1.587,2.531-2.693c0.5-1.301,0.446-3.333,0.402-4.966l-0.017-0.657c-0.008-0.406-0.003-0.83,0.004-1.307c0.01-0.821,0.021-1.753-0.028-3.043c-0.108-2.757-0.596-4.526-1.447-5.259c-0.369-0.316-0.817-0.433-1.398-0.367C8.73,8.553,8.074,9.055,7.313,9.636L6.957,9.907C2.142,13.512,2.001,20.321,2,20.39V28.22z"/><path d="M16.022,10.445c-0.553,0-1-0.447-1-1V1c0-0.553,0.447-1,1-1s1,0.447,1,1v8.445C17.022,9.998,16.575,10.445,16.022,10.445z"/><path d="M18.522,12.287c-0.372,0-0.729-0.208-0.901-0.564c-0.322-0.666-1.037-0.903-1.599-0.903c-0.562,0-1.277,0.237-1.6,0.903c-0.24,0.496-0.834,0.706-1.336,0.465c-0.497-0.241-0.705-0.839-0.465-1.336c0.607-1.254,1.909-2.032,3.4-2.032c1.49,0,2.792,0.778,3.399,2.032c0.24,0.497,0.032,1.095-0.465,1.336C18.816,12.255,18.668,12.287,18.522,12.287z"/></svg>