<svg xmlns="http://www.w3.org/2000/svg" viewBox="0 0 32 32"><!--! Font Icona - https://fonticona.com | License - https://fonticona.com/license | Copyright 2022 FontIcona.com --><path d="M16,25.704c-0.552,0-1-0.448-1-1V12.501c0-2.319-1.886-4.205-4.205-4.205c-2.318,0-4.205,1.886-4.205,4.205c0,0.552-0.448,1-1,1s-1-0.448-1-1c0-3.421,2.783-6.205,6.205-6.205S17,9.08,17,12.501v12.203C17,25.256,16.552,25.704,16,25.704z"/><path d="M26.41,25.704c-0.552,0-1-0.448-1-1V12.501c0-2.319-1.886-4.205-4.205-4.205c-2.319,0-4.205,1.886-4.205,4.205c0,0.552-0.448,1-1,1s-1-0.448-1-1c0-3.421,2.784-6.205,6.205-6.205s6.205,2.784,6.205,6.205v12.203C27.41,25.256,26.962,25.704,26.41,25.704z"/><path d="M5.59,25.704c-0.552,0-1-0.448-1-1V7.296c0-0.552,0.448-1,1-1s1,0.448,1,1v17.408C6.59,25.256,6.143,25.704,5.59,25.704z"/></svg>