<svg xmlns="http://www.w3.org/2000/svg" viewBox="0 0 32 32"><!--! Font Icona - https://fonticona.com | License - https://fonticona.com/license | Copyright 2022 FontIcona.com --><path d="M3.857,32c-0.552,0-1-0.448-1-1V1c0-0.552,0.448-1,1-1s1,0.448,1,1v30C4.857,31.552,4.409,32,3.857,32z"/><path d="M28.143,32c-0.552,0-1-0.448-1-1V1c0-0.552,0.448-1,1-1s1,0.448,1,1v30C29.143,31.552,28.695,32,28.143,32z"/><path d="M15.405,31.087c-0.006,0-0.012,0-0.018,0c-0.403-0.007-0.763-0.256-0.912-0.631L2.928,1.369c-0.204-0.514,0.047-1.095,0.56-1.298c0.515-0.205,1.096,0.047,1.298,0.56l10.664,26.86L27.227,0.599c0.221-0.505,0.81-0.737,1.317-0.515c0.506,0.222,0.736,0.811,0.515,1.317L16.321,30.488C16.161,30.853,15.801,31.087,15.405,31.087z"/></svg>