<svg xmlns="http://www.w3.org/2000/svg" viewBox="0 0 32 32"><!--! Font Icona - https://fonticona.com | License - https://fonticona.com/license | Copyright 2022 FontIcona.com --><path d="M25.341,10.27c-0.041,0-0.082-0.005-0.123-0.015c-0.184-0.047-0.326-0.194-0.366-0.38l-0.135-0.632l-0.599-0.248c-0.176-0.073-0.295-0.239-0.308-0.429s0.084-0.371,0.248-0.466l0.561-0.325l0.051-0.645c0.015-0.19,0.136-0.355,0.312-0.426c0.176-0.07,0.378-0.035,0.52,0.092l0.481,0.433l0.629-0.151c0.186-0.045,0.38,0.019,0.502,0.167c0.121,0.146,0.149,0.349,0.072,0.523l-0.263,0.59l0.339,0.552c0.1,0.162,0.099,0.367-0.003,0.528c-0.101,0.161-0.273,0.253-0.475,0.231l-0.644-0.067l-0.421,0.492C25.625,10.207,25.485,10.27,25.341,10.27z"/><path d="M17.913,4.863c-0.041,0-0.082-0.005-0.122-0.015c-0.185-0.047-0.327-0.194-0.367-0.38l-0.135-0.633l-0.598-0.248c-0.176-0.073-0.295-0.239-0.308-0.429c-0.013-0.189,0.083-0.37,0.248-0.466l0.56-0.325l0.051-0.645c0.015-0.19,0.136-0.354,0.313-0.425c0.178-0.069,0.379-0.035,0.52,0.092l0.481,0.433l0.628-0.151c0.186-0.044,0.38,0.02,0.501,0.166c0.122,0.146,0.15,0.349,0.073,0.522l-0.262,0.592l0.338,0.551c0.1,0.163,0.099,0.367-0.003,0.528c-0.102,0.161-0.291,0.25-0.475,0.23l-0.644-0.067l-0.419,0.493C18.197,4.8,18.058,4.863,17.913,4.863z"/><path d="M12.604,8.338c-0.162,0-0.315-0.078-0.41-0.213l-0.648-0.926l-1.13,0.009c-0.18,0.048-0.365-0.105-0.451-0.275c-0.085-0.17-0.067-0.374,0.047-0.526l0.681-0.903l-0.357-1.071c-0.061-0.181-0.013-0.379,0.123-0.514c0.135-0.134,0.334-0.179,0.515-0.117l1.068,0.368l0.909-0.671c0.152-0.113,0.358-0.129,0.526-0.042c0.169,0.087,0.274,0.263,0.271,0.453l-0.021,1.129l0.919,0.657c0.155,0.111,0.233,0.3,0.203,0.487c-0.031,0.188-0.166,0.342-0.348,0.397l-1.08,0.33l-0.34,1.078c-0.058,0.182-0.213,0.315-0.401,0.344C12.654,8.336,12.629,8.338,12.604,8.338z"/><path d="M15.618,18.141c-5.276,0-10.955-1.355-10.955-4.33s5.679-4.33,10.955-4.33s10.955,1.355,10.955,4.33S20.895,18.141,15.618,18.141z M15.618,11.481c-5.817,0-8.955,1.654-8.955,2.33s3.138,2.33,8.955,2.33c5.817,0,8.955-1.654,8.955-2.33S21.436,11.481,15.618,11.481z"/><path d="M16.881,15.591c-0.166,0-0.334-0.042-0.49-0.129c-0.481-0.271-0.651-0.881-0.38-1.362L23.668,0.51c0.271-0.481,0.879-0.653,1.362-0.38c0.48,0.271,0.651,0.881,0.38,1.362l-7.657,13.591C17.569,15.408,17.23,15.591,16.881,15.591z"/><path d="M15.625,32c-0.506,0-1.015-0.025-1.522-0.076c-3.795-0.379-6.345-1.475-7.578-3.257c-1.066-1.541-0.723-2.985-0.681-3.144l1.759-9.198c0.104-0.542,0.626-0.899,1.17-0.794c0.542,0.104,0.898,0.627,0.794,1.17l-1.774,9.268c-0.018,0.081-0.17,0.804,0.41,1.605c0.622,0.86,2.185,1.969,6.099,2.359c0.883,0.088,1.768,0.088,2.63,0c3.924-0.401,5.488-1.513,6.109-2.375c0.573-0.796,0.422-1.508,0.415-1.538l-1.786-9.32c-0.104-0.542,0.252-1.066,0.794-1.17c0.539-0.105,1.066,0.251,1.171,0.794l1.774,9.267c0.026,0.088,0.368,1.52-0.689,3.056c-1.228,1.784-3.78,2.887-7.584,3.276C16.636,31.975,16.131,32,15.625,32z"/><path d="M15.612,22.467c-2.793,0-5.585-0.507-8.076-1.52c-0.512-0.208-0.757-0.791-0.549-1.303c0.208-0.512,0.79-0.761,1.303-0.549c4.516,1.836,10.128,1.838,14.644,0c0.509-0.21,1.096,0.037,1.303,0.549c0.209,0.512-0.037,1.095-0.549,1.303C21.198,21.96,18.404,22.467,15.612,22.467z"/></svg>