<svg xmlns="http://www.w3.org/2000/svg" viewBox="0 0 32 32"><!--! Font Icona - https://fonticona.com | License - https://fonticona.com/license | Copyright 2022 FontIcona.com --><circle cx="27.4" cy="17.962" r="1.25"/><circle cx="7.599" cy="11.622" r="1.25"/><circle cx="14.094" cy="4.523" r="1.25"/><circle cx="18.581" cy="23.491" r="1.25"/><path d="M21.562,18.962c-0.052,0-0.104-0.004-0.156-0.012c-0.376-0.06-0.687-0.328-0.799-0.692l-1.615-5.223l-5.195-1.623c-0.363-0.113-0.63-0.422-0.689-0.798c-0.06-0.375,0.099-0.752,0.408-0.972l4.443-3.158l-0.069-5.471c-0.005-0.381,0.207-0.731,0.547-0.904c0.34-0.173,0.749-0.138,1.053,0.092l4.359,3.269l5.15-1.755c0.36-0.122,0.759-0.03,1.028,0.239c0.27,0.269,0.363,0.667,0.241,1.028L28.52,8.162l3.256,4.385c0.227,0.305,0.261,0.713,0.088,1.051s-0.555,0.552-0.903,0.545l-5.438-0.07l-3.143,4.464C22.19,18.806,21.884,18.962,21.562,18.962z M16.317,10.104l3.771,1.178c0.314,0.098,0.561,0.345,0.657,0.659l1.169,3.781l2.274-3.23c0.189-0.27,0.487-0.438,0.83-0.424l3.945,0.051l-2.363-3.183c-0.195-0.263-0.25-0.605-0.145-0.916l1.268-3.758l-3.732,1.272c-0.312,0.105-0.658,0.051-0.922-0.147L19.914,3.02l0.051,3.963c0.004,0.328-0.153,0.638-0.421,0.828L16.317,10.104z"/><path d="M1.027,32c-0.256,0-0.512-0.098-0.707-0.293c-0.391-0.391-0.391-1.023,0-1.414l18.764-18.764c0.391-0.391,1.023-0.391,1.414,0s0.391,1.023,0,1.414L1.734,31.707C1.539,31.902,1.283,32,1.027,32z"/></svg>