<svg xmlns="http://www.w3.org/2000/svg" viewBox="0 0 32 32"><!--! Font Icona - https://fonticona.com | License - https://fonticona.com/license | Copyright 2022 FontIcona.com --><path d="M12.326,32c-0.192,0-0.385-0.005-0.579-0.014c-3.522-0.165-6.705-1.758-8.962-4.484c-4.015-4.849-3.559-12.248,1.037-16.845l9.762-9.762c1.153-1.154,3.167-1.155,4.323,0l2.323,2.323c1.191,1.192,1.191,3.131,0,4.323l-9.998,9.997C9.601,18.171,9.29,19.047,9.38,19.94c0.092,0.905,0.569,1.686,1.346,2.198c1.152,0.758,2.744,0.557,3.784-0.482l9.918-9.917c1.153-1.156,3.167-1.155,4.323,0l2.323,2.323c1.191,1.192,1.191,3.131,0,4.323l-9.998,9.997C18.76,30.699,15.598,32,12.326,32z M15.746,2c-0.282,0-0.548,0.109-0.747,0.31l-9.763,9.762c-3.874,3.875-4.274,10.093-0.911,14.155c1.894,2.287,4.563,3.623,7.516,3.762c2.918,0.143,5.766-0.964,7.821-3.02l9.998-9.997c0.412-0.412,0.412-1.083,0-1.495l-2.323-2.323c-0.4-0.401-1.096-0.399-1.494,0c0,0,0,0,0,0l-9.918,9.917c-1.709,1.709-4.358,2.019-6.3,0.737c-1.269-0.838-2.083-2.174-2.233-3.665c-0.151-1.494,0.369-2.959,1.428-4.018l9.998-9.997c0.412-0.412,0.412-1.083,0-1.495L16.493,2.31C16.293,2.109,16.027,2,15.746,2z M25.135,12.446h0.01H25.135z"/><path d="M27.566,21.479c-0.256,0-0.512-0.098-0.707-0.293l-5.232-5.232c-0.391-0.391-0.391-1.023,0-1.414s1.023-0.391,1.414,0l5.232,5.232c0.391,0.391,0.391,1.023,0,1.414C28.078,21.381,27.822,21.479,27.566,21.479z"/><path d="M16.723,10.635c-0.256,0-0.512-0.098-0.707-0.293l-5.232-5.232c-0.391-0.391-0.391-1.023,0-1.414s1.023-0.391,1.414,0l5.232,5.232c0.391,0.391,0.391,1.023,0,1.414C17.234,10.537,16.979,10.635,16.723,10.635z"/></svg>