<svg xmlns="http://www.w3.org/2000/svg" viewBox="0 0 32 32"><!--! Font Icona - https://fonticona.com | License - https://fonticona.com/license | Copyright 2022 FontIcona.com --><path d="M11.638,31.988C5.221,31.988,0,26.694,0,20.187S5.221,8.385,11.638,8.385s11.637,5.294,11.637,11.802S18.055,31.988,11.638,31.988z M11.638,10.385C6.324,10.385,2,14.782,2,20.187c0,5.404,4.323,9.801,9.637,9.801s9.637-4.397,9.637-9.801C21.275,14.782,16.952,10.385,11.638,10.385z"/><path d="M19.577,13.583c-0.253,0-0.507-0.096-0.702-0.288c-0.394-0.387-0.398-1.021-0.011-1.414L30.092,0.481c0.388-0.394,1.021-0.398,1.414-0.011c0.394,0.387,0.398,1.021,0.011,1.414L20.289,13.285C20.093,13.484,19.835,13.583,19.577,13.583z"/><path class="st0" d="M31,8.154c-0.552,0-1-0.448-1-1V2.012h-5.142c-0.552,0-1-0.448-1-1s0.448-1,1-1h5.519c0.91,0,1.623,0.713,1.623,1.623v5.519C32,7.706,31.552,8.154,31,8.154z M30.376,2.012h0.01H30.376z"/></svg>