<svg xmlns="http://www.w3.org/2000/svg" viewBox="0 0 32 32"><!--! Font Icona - https://fonticona.com | License - https://fonticona.com/license | Copyright 2022 FontIcona.com --><path d="M15.998,31.781c-0.356,0-0.713-0.061-1.052-0.181L9.11,29.53c-0.227-0.079-0.469-0.089-0.698-0.021l-4.395,1.264c-1.113,0.321-2.31,0.005-3.118-0.824c-0.811-0.829-1.099-2.03-0.753-3.137l3.192-10.211c0.271-0.862,0.898-1.567,1.723-1.935l4.753-2.116c0.858-0.382,1.833-0.362,2.673,0.055l3.003,1.485c0.32,0.159,0.7,0.158,1.017,0l3.001-1.494c0.843-0.42,1.819-0.44,2.681-0.059l4.749,2.115c0.825,0.367,1.453,1.071,1.724,1.933l3.192,10.212c0.346,1.106,0.058,2.309-0.752,3.137c-0.811,0.829-2.005,1.147-3.119,0.825l-4.392-1.264c-0.229-0.066-0.478-0.058-0.702,0.022l-5.833,2.081c0,0.001-0.001,0.001-0.001,0.001C16.714,31.721,16.355,31.781,15.998,31.781z M8.729,27.463c0.355,0,0.71,0.062,1.052,0.183l5.835,2.07c0.249,0.088,0.52,0.088,0.769,0l5.834-2.082c0.624-0.224,1.291-0.243,1.926-0.061l4.392,1.264c0.412,0.12,0.838,0.006,1.136-0.301c0.3-0.307,0.401-0.733,0.274-1.143l-3.192-10.21c-0.099-0.313-0.328-0.57-0.629-0.705l-4.748-2.114c-0.313-0.137-0.669-0.131-0.977,0.021l-3.001,1.494c-0.875,0.435-1.919,0.437-2.796,0.002l-3.002-1.484c-0.307-0.152-0.659-0.159-0.975-0.02l-4.751,2.115c-0.3,0.134-0.529,0.391-0.628,0.705L2.055,27.409c-0.127,0.408-0.024,0.835,0.274,1.142c0.299,0.306,0.723,0.419,1.136,0.3l4.394-1.264C8.145,27.504,8.437,27.463,8.729,27.463z"/><rect x="2.477" y="19.958" transform="matrix(0.1563 -0.9877 0.9877 0.1563 -12.2903 27.5277)" width="14.983" height="1.999"/><rect x="21.071" y="13.472" transform="matrix(0.9885 -0.1515 0.1515 0.9885 -2.9188 3.5848)" width="2" height="14.958"/><rect x="15.001" y="15.333" width="2" height="15.58"/><path d="M15.987,11.823c-0.274,0-0.552-0.094-0.74-0.294l-0.116-0.122c-0.109-0.112-0.216-0.224-0.314-0.343c-0.48-0.572-0.963-1.148-1.438-1.729c-0.524-0.642-0.958-1.336-1.288-2.066c-0.258-0.57-0.422-1.121-0.502-1.686c-0.163-1.148,0.052-2.243,0.64-3.253c0.659-1.131,1.619-1.85,2.855-2.137c1.631-0.376,3.307,0.254,4.372,1.652c0.515,0.676,0.839,1.467,0.964,2.353c0.109,0.785,0.023,1.585-0.262,2.443c-0.211,0.636-0.541,1.143-0.805,1.513c-0.642,0.902-1.312,1.745-1.883,2.45l-0.686,0.833c-0.183,0.222-0.47,0.376-0.758,0.385C16.014,11.823,16.001,11.823,15.987,11.823z M16.012,2.087c-0.158,0-0.318,0.019-0.477,0.055c-0.688,0.16-1.204,0.551-1.579,1.194c-0.36,0.62-0.487,1.264-0.388,1.966c0.053,0.374,0.165,0.748,0.344,1.143c0.259,0.571,0.6,1.117,1.014,1.624c0.339,0.413,0.681,0.824,1.024,1.235c0.543-0.673,1.175-1.469,1.773-2.31c0.271-0.381,0.437-0.684,0.535-0.982c0.189-0.569,0.246-1.057,0.18-1.535c-0.077-0.549-0.266-1.014-0.574-1.419C17.391,2.436,16.71,2.087,16.012,2.087z"/><circle cx="16" cy="5.189" r="1.25"/></svg>