<svg xmlns="http://www.w3.org/2000/svg" viewBox="0 0 32 32"><!--! Font Icona - https://fonticona.com | License - https://fonticona.com/license | Copyright 2022 FontIcona.com --><path d="M15.999,25.742c-0.348,0-0.695-0.06-1.026-0.177l-5.868-2.082c-0.213-0.075-0.439-0.08-0.652-0.02l-4.534,1.305c-1.084,0.315-2.251,0.005-3.041-0.804s-1.072-1.98-0.734-3.06L3.378,10.56c0.261-0.839,0.873-1.527,1.678-1.887l4.804-2.138c0.835-0.37,1.787-0.353,2.606,0.053l3.059,1.513c0.298,0.148,0.652,0.147,0.948-0.001l3.06-1.521c0.817-0.407,1.77-0.431,2.612-0.055l4.798,2.135c0.806,0.358,1.418,1.047,1.681,1.888l3.234,10.345c0.338,1.08,0.056,2.253-0.734,3.061c-0.791,0.81-1.956,1.116-3.042,0.803L23.55,23.45c-0.218-0.062-0.443-0.055-0.653,0.021l-5.866,2.093C16.697,25.683,16.349,25.742,15.999,25.742z M8.749,21.422c0.346,0,0.69,0.059,1.022,0.177l5.87,2.082c0.234,0.082,0.487,0.081,0.715,0c0.001,0,0.001,0,0.001,0l5.866-2.093c0.606-0.219,1.257-0.238,1.878-0.06l4.533,1.304c0.551,0.159,0.924-0.143,1.059-0.279c0.279-0.285,0.375-0.684,0.256-1.065l-3.235-10.345c-0.092-0.293-0.305-0.532-0.584-0.656l-4.799-2.136c-0.294-0.131-0.625-0.123-0.909,0.019l-3.058,1.521c-0.853,0.426-1.871,0.428-2.728,0.002L11.58,8.381c-0.286-0.142-0.617-0.147-0.908-0.019L5.87,10.5c-0.279,0.124-0.492,0.364-0.583,0.656L2.051,21.502c-0.119,0.381-0.023,0.779,0.256,1.064c0.279,0.286,0.674,0.393,1.059,0.28l4.534-1.305C8.179,21.462,8.464,21.422,8.749,21.422z"/><rect x="2.95" y="13.974" transform="matrix(0.1563 -0.9877 0.9877 0.1563 -6.201 22.6867)" width="14.458" height="1.999"/><rect x="20.859" y="7.75" transform="matrix(0.9885 -0.1515 0.1515 0.9885 -2.015 3.4842)" width="2" height="14.433"/><rect x="15.001" y="9.545" width="2" height="15.035"/></svg>