<svg xmlns="http://www.w3.org/2000/svg" viewBox="0 0 32 32"><!--! Font Icona - https://fonticona.com | License - https://fonticona.com/license | Copyright 2022 FontIcona.com --><path d="M23.482,20.396c-0.474,0-0.941-0.069-1.398-0.209c-1.782-0.548-3.106-2.096-3.727-4.357c-0.577-2.101-0.479-4.608,0.274-7.059c1.632-5.304,5.702-8.598,9.271-7.504c1.782,0.548,3.106,2.096,3.727,4.357c0.577,2.101,0.479,4.608-0.274,7.059c-0.754,2.451-2.082,4.58-3.74,5.994C26.288,19.81,24.86,20.396,23.482,20.396z M26.515,3.06c-2.259,0-4.85,2.647-5.972,6.298c-0.644,2.092-0.735,4.202-0.257,5.941c0.434,1.579,1.281,2.635,2.387,2.975c1.106,0.34,2.4-0.057,3.646-1.119c1.372-1.171,2.482-2.968,3.125-5.06c0.644-2.092,0.735-4.202,0.257-5.941c-0.434-1.579-1.281-2.635-2.386-2.975C27.055,3.099,26.788,3.06,26.515,3.06z"/><path d="M19.635,30.94c-0.272,0-0.547-0.04-0.819-0.123c-1.532-0.472-2.378-2.156-1.887-3.755l2.824-9.183l1.912,0.588l-2.824,9.183c-0.165,0.535,0.093,1.11,0.563,1.255c0.466,0.146,1.005-0.187,1.169-0.722l2.824-9.183l1.912,0.588l-2.824,9.183C22.081,30.086,20.896,30.94,19.635,30.94z"/><path d="M30.126,14.281c-0.325,0-0.643-0.158-0.835-0.449l-1.163-1.761l-1.952,0.804c-0.442,0.182-0.953,0.025-1.216-0.375l-1.159-1.759l-1.947,0.804c-0.445,0.185-0.954,0.025-1.217-0.375l-1.612-2.447c-0.304-0.461-0.176-1.081,0.285-1.385c0.461-0.305,1.083-0.176,1.385,0.285l1.158,1.758l1.946-0.804c0.446-0.183,0.954-0.025,1.217,0.374l1.159,1.76l1.951-0.804c0.444-0.182,0.952-0.025,1.215,0.374l1.617,2.449c0.304,0.461,0.177,1.081-0.284,1.385C30.507,14.227,30.315,14.281,30.126,14.281z"/><path d="M8.518,20.396c-1.378,0-2.806-0.587-4.134-1.72c-1.658-1.414-2.986-3.542-3.74-5.994c-0.753-2.451-0.851-4.958-0.274-7.059c0.621-2.262,1.945-3.809,3.727-4.357c3.566-1.096,7.64,2.199,9.271,7.504c0.753,2.451,0.851,4.958,0.274,7.059c-0.621,2.262-1.945,3.81-3.728,4.357C9.459,20.326,8.992,20.396,8.518,20.396z M5.485,3.06c-0.272,0-0.54,0.039-0.799,0.119C3.58,3.519,2.733,4.575,2.299,6.154c-0.478,1.739-0.386,3.849,0.257,5.941c0.643,2.092,1.753,3.889,3.125,5.06c1.246,1.062,2.541,1.464,3.645,1.119c1.106-0.34,1.954-1.396,2.387-2.975c0.478-1.739,0.386-3.849-0.257-5.941C10.334,5.707,7.744,3.06,5.485,3.06z"/><path d="M12.365,30.94c-1.261,0-2.446-0.854-2.851-2.169l-2.824-9.183l1.912-0.588l2.824,9.183c0.164,0.535,0.7,0.867,1.17,0.722c0.469-0.145,0.727-0.72,0.562-1.255l-2.824-9.183l1.912-0.588l2.824,9.183c0.491,1.599-0.355,3.283-1.886,3.755C12.913,30.9,12.637,30.94,12.365,30.94z"/><path d="M1.874,14.281c-0.189,0-0.38-0.053-0.55-0.166c-0.461-0.304-0.588-0.924-0.284-1.385l1.617-2.449C2.92,9.882,3.429,9.725,3.872,9.907l1.951,0.804l1.159-1.76c0.263-0.399,0.772-0.558,1.217-0.374l1.946,0.804l1.158-1.758c0.303-0.462,0.923-0.591,1.385-0.285c0.461,0.304,0.589,0.924,0.285,1.385l-1.612,2.447c-0.263,0.4-0.772,0.557-1.217,0.375l-1.947-0.804L7.04,12.5c-0.264,0.4-0.772,0.556-1.216,0.375L3.872,12.07l-1.163,1.761C2.517,14.123,2.198,14.281,1.874,14.281z"/></svg>