<svg xmlns="http://www.w3.org/2000/svg" viewBox="0 0 32 32"><!--! Font Icona - https://fonticona.com | License - https://fonticona.com/license | Copyright 2022 FontIcona.com --><path d="M29,26.011H3c-1.654,0-3-1.346-3-3V8.989c0-1.654,1.346-3,3-3h26c1.654,0,3,1.346,3,3v14.021C32,24.665,30.654,26.011,29,26.011z M3,7.989c-0.552,0-1,0.448-1,1v14.021c0,0.552,0.448,1,1,1h26c0.552,0,1-0.448,1-1V8.989c0-0.552-0.448-1-1-1H3z"/><path d="M15.506,22.124c-0.553,0-1-0.447-1-1v-7.468L11.578,17.2c-0.189,0.23-0.473,0.363-0.771,0.363c-0.001,0-0.001,0-0.002,0c-0.299-0.001-0.582-0.135-0.771-0.366L7.11,13.632v7.45c0,0.553-0.447,1-1,1s-1-0.447-1-1V10.835c0-0.423,0.266-0.8,0.663-0.941c0.398-0.146,0.842-0.02,1.11,0.308l3.927,4.789l3.925-4.751c0.269-0.325,0.71-0.445,1.109-0.305c0.396,0.144,0.661,0.52,0.661,0.941v10.248C16.506,21.677,16.059,22.124,15.506,22.124z"/><path d="M24.038,22.124c-0.287,0-0.56-0.123-0.749-0.338l-4.394-4.974c-0.261-0.295-0.324-0.715-0.162-1.073c0.161-0.358,0.518-0.589,0.911-0.589h1.73v-4.315c0-0.553,0.447-1,1-1h3.326c0.553,0,1,0.447,1,1v4.315h1.73c0.394,0,0.75,0.23,0.911,0.589c0.162,0.358,0.099,0.778-0.162,1.073l-4.394,4.974C24.598,22.001,24.325,22.124,24.038,22.124z M21.862,17.15l2.176,2.463l2.176-2.463h-0.513c-0.553,0-1-0.447-1-1v-4.315h-1.326v4.315c0,0.553-0.447,1-1,1H21.862z"/></svg>