<svg xmlns="http://www.w3.org/2000/svg" viewBox="0 0 32 32"><!--! Font Icona - https://fonticona.com | License - https://fonticona.com/license | Copyright 2022 FontIcona.com --><path d="M13.036,28.747c-0.244,0-0.488-0.089-0.681-0.268c-0.405-0.376-0.428-1.009-0.052-1.413L29.739,8.325c0.346-0.371,0.346-1.022,0-1.393l-4.204-4.519c-0.404-0.438-1.093-0.438-1.497-0.001L6.802,20.94c-0.376,0.403-1.008,0.426-1.414,0.051c-0.404-0.377-0.427-1.009-0.051-1.414L22.573,1.051C23.744-0.207,25.831-0.208,27,1.052l4.204,4.518c1.056,1.136,1.056,2.982,0,4.118l-17.436,18.74C13.571,28.64,13.304,28.747,13.036,28.747z"/><path d="M4.531,31.925H1.275c-0.541,0-0.98-0.265-1.178-0.707C-0.099,30.775,0,30.272,0.361,29.872l3.633-4.028c0.277-0.308,0.672-0.486,1.081-0.489c0.365,0.006,0.806,0.168,1.089,0.474l1.79,1.923c0.278,0.3,0.423,0.703,0.396,1.108c-0.025,0.404-0.22,0.787-0.533,1.048l-1.733,1.454C5.687,31.693,5.048,31.925,4.531,31.925z M3.007,29.925h1.524c0.062-0.004,0.218-0.061,0.274-0.102l1.316-1.104l-1.029-1.106L3.007,29.925z M6.534,28.373c-0.001,0.001-0.001,0.002-0.002,0.002L6.534,28.373z"/><path d="M8.596,30.909c-0.277,0-0.543-0.115-0.732-0.319l-4.538-4.878c-0.356-0.384-0.356-0.978,0-1.362l2.142-2.301l-0.37-1.559c-0.128-0.537,0.204-1.076,0.741-1.204c0.537-0.126,1.076,0.204,1.204,0.741l0.494,2.079c0.077,0.325-0.013,0.668-0.24,0.913l-1.872,2.012l3.172,3.41l1.773-1.907c0.255-0.272,0.642-0.381,0.997-0.282l1.935,0.531c0.533,0.146,0.846,0.696,0.699,1.229c-0.146,0.533-0.696,0.846-1.229,0.699l-1.351-0.37l-2.093,2.25C9.139,30.794,8.873,30.909,8.596,30.909z"/><rect x="11.928" y="15.233" transform="matrix(0.7272 -0.6865 0.6865 0.7272 -10.4127 14.4156)" width="2.001" height="10.149"/></svg>