<svg xmlns="http://www.w3.org/2000/svg" viewBox="0 0 32 32"><!--! Font Icona - https://fonticona.com | License - https://fonticona.com/license | Copyright 2022 FontIcona.com --><path d="M1,32c-0.256,0-0.512-0.098-0.707-0.293c-0.391-0.391-0.391-1.023,0-1.414l8.1-8.1c0.391-0.391,1.023-0.391,1.414,0s0.391,1.023,0,1.414l-8.1,8.1C1.512,31.903,1.256,32,1,32z"/><path d="M26.731,6.269c-0.256,0-0.512-0.098-0.707-0.293c-0.391-0.391-0.391-1.023,0-1.414l4.269-4.269c0.391-0.391,1.023-0.391,1.414,0s0.391,1.023,0,1.414l-4.269,4.269C27.243,6.171,26.987,6.269,26.731,6.269z"/><path d="M24.088,8.911c-0.256,0-0.512-0.098-0.707-0.293c-0.391-0.391-0.391-1.023,0-1.414l2.643-2.643c0.391-0.391,1.023-0.391,1.414,0s0.391,1.023,0,1.414l-2.643,2.643C24.6,8.814,24.344,8.911,24.088,8.911z"/><path d="M21.715,14.907c-0.636,0-1.265-0.201-1.788-0.603l0,0c-0.837-0.641-1.588-1.391-2.231-2.23c-0.778-1.015-0.806-2.428-0.069-3.517c0.678-1.002,1.46-1.784,2.463-2.463c1.087-0.737,2.5-0.708,3.516,0.068c0.84,0.644,1.591,1.395,2.231,2.232c0.778,1.014,0.805,2.427,0.068,3.515c-0.678,1.003-1.461,1.785-2.463,2.463C22.916,14.729,22.312,14.907,21.715,14.907z M21.817,7.564c-0.208,0-0.422,0.062-0.606,0.187c-0.784,0.531-1.396,1.144-1.927,1.928c-0.253,0.375-0.253,0.849,0,1.179c0.537,0.7,1.162,1.325,1.86,1.859c0,0,0,0,0.001,0.001c0.33,0.253,0.803,0.252,1.178-0.001c0.784-0.53,1.396-1.143,1.927-1.928c0.25-0.368,0.25-0.853,0-1.178c-0.535-0.698-1.161-1.324-1.86-1.86C22.227,7.625,22.025,7.564,21.817,7.564z"/><path d="M16.553,20.069c-0.636,0-1.266-0.201-1.789-0.603l0,0c-0.839-0.644-1.589-1.394-2.23-2.23c-0.778-1.015-0.806-2.428-0.069-3.517c0.677-1.001,1.459-1.783,2.463-2.463c1.088-0.736,2.5-0.708,3.516,0.068c0.84,0.644,1.591,1.395,2.231,2.232c0.778,1.014,0.805,2.427,0.068,3.515c-0.679,1.003-1.461,1.786-2.463,2.463C17.753,19.891,17.15,20.069,16.553,20.069z M16.655,12.726c-0.208,0-0.422,0.062-0.606,0.187c-0.785,0.532-1.397,1.145-1.927,1.928c-0.25,0.369-0.25,0.854,0,1.179c0.535,0.697,1.161,1.323,1.86,1.859c0,0,0,0,0,0.001c0.33,0.252,0.803,0.253,1.178-0.001c0.784-0.53,1.396-1.143,1.927-1.928c0.25-0.368,0.25-0.853,0-1.178c-0.535-0.698-1.161-1.324-1.86-1.86C17.065,12.787,16.863,12.726,16.655,12.726z"/><path d="M11.371,25.252c-0.636,0-1.265-0.202-1.789-0.603h0c-0.839-0.644-1.59-1.395-2.231-2.231c-0.777-1.015-0.805-2.428-0.068-3.516C7.96,17.9,8.743,17.117,9.746,16.44c1.088-0.736,2.5-0.711,3.516,0.069c0.838,0.642,1.588,1.393,2.23,2.229c0.777,1.014,0.805,2.427,0.069,3.516c-0.677,1.002-1.46,1.784-2.464,2.464C12.57,25.075,11.968,25.252,11.371,25.252z M10.798,23.062c0.325,0.25,0.81,0.25,1.178,0c0.786-0.532,1.398-1.145,1.928-1.928c0.253-0.375,0.253-0.849,0-1.179c-0.536-0.698-1.162-1.323-1.861-1.859c-0.325-0.25-0.809-0.25-1.178,0c-0.785,0.53-1.397,1.143-1.928,1.928c-0.25,0.368-0.25,0.853,0,1.178C9.473,21.9,10.099,22.526,10.798,23.062L10.798,23.062z"/></svg>