<svg xmlns="http://www.w3.org/2000/svg" viewBox="0 0 32 32"><!--! Font Icona - https://fonticona.com | License - https://fonticona.com/license | Copyright 2022 FontIcona.com --><path d="M13.622,32c-0.552,0-1-0.447-1-1V18.272c0-0.553,0.448-1,1-1s1,0.447,1,1V31C14.622,31.553,14.174,32,13.622,32z"/><path d="M18.122,32h-9c-0.552,0-1-0.447-1-1s0.448-1,1-1h9c0.552,0,1,0.447,1,1S18.674,32,18.122,32z"/><path d="M13.633,19.272c-0.285,0-0.557-0.122-0.747-0.335L1.739,6.409C1.478,6.114,1.413,5.694,1.574,5.335c0.161-0.359,0.518-0.591,0.912-0.591l0,0l22.283,0.001c0.394,0,0.751,0.231,0.912,0.591c0.162,0.358,0.097,0.779-0.165,1.073L14.381,18.937C14.191,19.15,13.919,19.272,13.633,19.272z M4.715,6.744l8.918,10.023l8.91-10.022L4.715,6.744z"/><path d="M7.161,11.999c-0.106,0-0.213-0.017-0.319-0.053c-0.523-0.176-0.805-0.743-0.628-1.267c1.072-3.178,5.188-1.989,7.167-1.418c0.281,0.081,0.533,0.154,0.746,0.208c0.965,0.24,1.442,0.011,2.309-0.403c0.289-0.139,0.593-0.283,0.932-0.42c0.033-0.013,0.065-0.024,0.099-0.034c1.463-0.416,2.881-0.552,4.329-0.407c0.55,0.054,0.952,0.543,0.897,1.093s-0.539,0.949-1.093,0.897c-1.198-0.12-2.321-0.014-3.535,0.326c-0.277,0.113-0.527,0.234-0.766,0.349c-0.98,0.469-1.996,0.956-3.657,0.539c-0.233-0.058-0.509-0.138-0.816-0.226c-2.061-0.595-4.293-1.124-4.716,0.135C7.968,11.736,7.579,11.999,7.161,11.999z"/><path d="M24.769,11.489c-1.443,0-2.764-0.505-3.82-1.461l1.342-1.482c0.682,0.617,1.539,0.943,2.478,0.943c2.065,0,3.745-1.68,3.745-3.745C28.514,3.68,26.834,2,24.769,2s-3.745,1.68-3.745,3.744h-2C19.024,2.577,21.602,0,24.769,0s5.745,2.577,5.745,5.744C30.514,8.912,27.937,11.489,24.769,11.489z"/></svg>