<svg xmlns="http://www.w3.org/2000/svg" viewBox="0 0 32 32"><!--! Font Icona - https://fonticona.com | License - https://fonticona.com/license | Copyright 2022 FontIcona.com --><path d="M13.894,32.001c-2.616,0-4.099-0.472-4.202-0.507c-7.636-1.75-7.652-14.48-7.649-15.021c0-0.016,0.001-0.031,0.001-0.047c-0.012-0.17-0.021-0.341-0.021-0.514V8.688C2.021,3.897,5.919,0,10.709,0h11.153c4.791,0,8.688,3.897,8.688,8.688v7.225c0,4.91-4.272,7.894-8.508,8.672c-2.943,0.542-7.675-0.041-10.324-0.454c2.656,3.706,8.785,2.123,9.077,2.043c0.298-0.079,0.62-0.018,0.868,0.173c0.246,0.189,0.392,0.482,0.392,0.793v2.795c0,0.447-0.297,0.841-0.728,0.962C18.311,31.75,15.801,32.001,13.894,32.001z M4.043,16.61c0.021,1.271,0.368,11.623,6.186,12.96c0.121,0.035,3.748,1.156,9.827-0.402v-0.792c-3.626,0.604-9.305,0.118-11.046-5.254C8.9,22.785,8.978,22.416,9.212,22.15c0.235-0.266,0.593-0.389,0.939-0.318c0.077,0.015,7.722,1.48,11.53,0.785c3.169-0.583,6.869-2.688,6.869-6.705V8.688C28.551,5,25.551,2,21.862,2H10.709C7.021,2,4.021,5,4.021,8.688v7.225c0,0.168,0.014,0.333,0.026,0.498C4.053,16.479,4.052,16.545,4.043,16.61z"/><path d="M23.283,18.562c-0.553,0-1-0.447-1-1V10.38c0-1.103-1.139-2-2.538-2s-2.538,0.897-2.538,2v4.514c0,0.553-0.447,1-1,1s-1-0.447-1-1v-4.659c0-1.103-1.139-2-2.538-2s-2.538,0.897-2.538,2v7.183c0,0.553-0.447,1-1,1s-1-0.447-1-1v-7.183c0-2.206,2.036-4,4.538-4c1.468,0,2.774,0.617,3.604,1.572c0.833-0.872,2.08-1.427,3.472-1.427c2.502,0,4.538,1.794,4.538,4v7.183C24.283,18.115,23.836,18.562,23.283,18.562z"/></svg>