<svg xmlns="http://www.w3.org/2000/svg" viewBox="0 0 32 32"><!--! Font Icona - https://fonticona.com | License - https://fonticona.com/license | Copyright 2022 FontIcona.com --><path d="M3.373,32c-0.256,0-0.512-0.098-0.707-0.293c-0.391-0.391-0.391-1.023,0-1.414l16.521-16.521c0.391-0.391,1.023-0.391,1.414,0s0.391,1.023,0,1.414L4.08,31.707C3.885,31.902,3.629,32,3.373,32z"/><path d="M25.457,14.729c-0.381,0-0.744-0.218-0.912-0.587c-0.228-0.503-0.005-1.096,0.498-1.324c0.837-0.379,1.596-0.957,2.028-1.543c0.668-0.906,0.851-2.031,0.544-3.343c-0.418-1.79-1.756-3.754-3.363-5.077c-0.315,1.209-1.188,2.089-2.041,2.95l-0.305,0.3c-0.683,0.658-1.713,1.653-1.713,3.342c0,0.552-0.447,1-1,1s-1-0.448-1-1c0-2.538,1.512-3.997,2.323-4.781l0.212-0.207c1.354-1.366,1.867-1.946,1.563-3.229c-0.091-0.38,0.049-0.778,0.356-1.019c0.309-0.241,0.729-0.279,1.075-0.101c2.714,1.402,5.17,4.5,5.84,7.365c0.439,1.881,0.134,3.605-0.883,4.985c-0.636,0.862-1.661,1.656-2.812,2.178C25.735,14.7,25.595,14.729,25.457,14.729z"/><path d="M24.176,10.529c-0.482,0-0.906-0.349-0.986-0.84c-0.088-0.545,0.282-1.059,0.827-1.147l0.01-0.002c0.146-0.131,0.243-0.944,0.06-1.646c-0.14-0.534,0.181-1.081,0.715-1.22c0.535-0.137,1.081,0.181,1.221,0.715c0.189,0.728,0.338,2.227-0.312,3.223c-0.324,0.499-0.8,0.811-1.373,0.904C24.282,10.525,24.229,10.529,24.176,10.529z"/><path d="M20.604,15.715c-0.6,0-1.158-0.216-1.561-0.655c-0.873-0.954-0.637-2.543,0.538-3.619c1.176-1.075,2.779-1.172,3.653-0.221c0.873,0.955,0.636,2.544-0.538,3.62C22.063,15.42,21.306,15.715,20.604,15.715z M21.702,12.553c-0.128,0-0.447,0.068-0.769,0.362c-0.379,0.347-0.443,0.717-0.406,0.806c0.062,0.021,0.439-0.009,0.818-0.356s0.444-0.718,0.406-0.807C21.742,12.555,21.725,12.553,21.702,12.553z"/></svg>