<svg xmlns="http://www.w3.org/2000/svg" viewBox="0 0 32 32"><!--! Font Icona - https://fonticona.com | License - https://fonticona.com/license | Copyright 2022 FontIcona.com --><path d="M10,26.3H6.7c-1,0-1.9-0.9-1.9-2.1V13.3c0-1.2,0.8-2.1,1.9-2.1H10c1,0,1.9,0.9,1.9,2.1v10.9C11.9,25.3,11.1,26.3,10,26.3z M6.8,24.3h3c0,0,0-0.1,0-0.1V13.3c0-0.1,0-0.1,0-0.1h-3c0,0,0,0.1,0,0.1v10.9C6.8,24.2,6.8,24.2,6.8,24.3z M10,13.1L10,13.1L10,13.1z"/><path d="M25.4,26.3H22c-1,0-1.8-0.9-1.8-2.1V13.3c0-1.2,0.8-2.1,1.8-2.1h3.4c1,0,1.8,0.9,1.8,2.1v10.9C27.2,25.3,26.4,26.3,25.4,26.3z M22.1,24.3h3c0,0,0-0.1,0-0.1V13.3c0-0.1,0-0.1,0-0.1h-3c0,0,0,0.1,0,0.1v10.9C22.1,24.2,22.1,24.2,22.1,24.3z M25.4,13.1L25.4,13.1L25.4,13.1z"/><path d="M27.4,32H4.6c-1.7,0-3-1.4-3-3v-1.7c0-1.7,1.4-3,3-3h22.9c1.7,0,3,1.4,3,3V29C30.4,30.6,29.1,32,27.4,32z M4.6,26.3c-0.6,0-1,0.5-1,1V29c0,0.6,0.5,1,1,1h22.9c0.6,0,1-0.5,1-1v-1.7c0-0.6-0.5-1-1-1H4.6z"/><path d="M16,13.1H4.6c-1.7,0-3-1.4-3-3V8.7c0-1.2,0.6-2.2,1.7-2.7l11.4-5.7c0.8-0.4,1.8-0.4,2.7,0l11.4,5.6c1,0.5,1.7,1.5,1.7,2.7v1.4c0,1.7-1.4,3-3,3L16,13.1C16,13.1,16,13.1,16,13.1z M16,2c-0.2,0-0.3,0-0.5,0.1L4.1,7.8C3.8,7.9,3.6,8.3,3.6,8.7v1.4c0,0.6,0.5,1,1,1l22.9,0c0.6,0,1-0.5,1-1V8.7c0-0.4-0.2-0.7-0.6-0.9L16.5,2.1C16.3,2,16.2,2,16,2z"/></svg>