<svg xmlns="http://www.w3.org/2000/svg" viewBox="0 0 32 32"><!--! Font Icona - https://fonticona.com | License - https://fonticona.com/license | Copyright 2022 FontIcona.com --><path d="M28.078,27.806H22.37c-0.302,0-0.588-0.137-0.778-0.372c-0.189-0.235-0.263-0.543-0.199-0.839l3.068-14.231c0.042-0.281-0.057-0.397-0.094-0.441c-0.231-0.273-0.881-0.406-1.247-0.41h-1.41l-3.294,15.502c-0.099,0.462-0.506,0.792-0.979,0.792h-5.709c-0.302,0-0.588-0.137-0.778-0.372c-0.189-0.235-0.263-0.543-0.199-0.839l3.253-15.083h-3.022L7.688,27.014c-0.099,0.462-0.507,0.792-0.979,0.792H1c-0.302,0-0.588-0.137-0.778-0.372c-0.189-0.235-0.263-0.543-0.199-0.839l3.443-15.969L1.165,5.611c-0.142-0.31-0.116-0.67,0.067-0.957c0.184-0.286,0.501-0.46,0.842-0.46h21.123c3.271,0.247,5.648,1.331,7.146,3.226c2.101,2.658,1.616,5.901,1.594,6.038l-2.88,13.556C28.958,27.476,28.55,27.806,28.078,27.806z M23.608,25.806h3.66l2.702-12.712l0,0c-0.002,0.001,0.341-2.503-1.211-4.45c-1.138-1.428-3.035-2.253-5.639-2.452L3.633,6.194l1.79,3.9c0.09,0.196,0.114,0.417,0.068,0.628L2.238,25.806h3.661l3.294-15.502C9.292,9.842,9.7,9.512,10.172,9.512h5.07c0.302,0,0.588,0.137,0.778,0.372c0.189,0.235,0.263,0.543,0.199,0.839l-3.253,15.083h3.661l3.294-15.502c0.099-0.462,0.506-0.792,0.979-0.792h2.225c0.186,0,1.838,0.031,2.76,1.107c0.336,0.392,0.702,1.076,0.542,2.108L23.608,25.806z"/></svg>