<svg xmlns="http://www.w3.org/2000/svg" viewBox="0 0 32 32"><!--! Font Icona - https://fonticona.com | License - https://fonticona.com/license | Copyright 2022 FontIcona.com --><path d="M3.677,27.829c-0.556,0-0.962-0.17-1.228-0.337l0,0c-2.183-1.372-1.022-5.756,1.254-9.378c1.145-1.821,2.507-3.372,3.836-4.366c2.143-1.602,3.469-1.208,4.07-0.83c2.183,1.372,1.021,5.756-1.254,9.378c-1.145,1.821-2.507,3.372-3.836,4.366C5.322,27.557,4.38,27.829,3.677,27.829z M10.374,14.576c-0.288,0-0.854,0.188-1.637,0.774c-1.12,0.838-2.338,2.233-3.34,3.829c-2.283,3.634-2.356,6.322-1.883,6.62c0,0,0,0,0,0c0.171,0.111,0.815,0.004,1.807-0.738c1.12-0.838,2.338-2.233,3.34-3.829c2.283-3.634,2.356-6.322,1.883-6.62C10.508,14.589,10.451,14.576,10.374,14.576z"/><path d="M6.46,25.328c-0.182,0-0.366-0.05-0.531-0.153c-0.438-0.274-1.12-0.998-0.776-2.755c0.193-0.985,0.677-2.128,1.361-3.218c1.375-2.188,3.57-4.1,5.127-3.118c0.468,0.294,0.609,0.911,0.315,1.379c-0.276,0.438-0.834,0.591-1.289,0.364c-0.342,0.063-1.42,0.785-2.459,2.439c-1.039,1.654-1.222,2.938-1.131,3.273c0.399,0.312,0.506,0.882,0.23,1.32C7.118,25.162,6.793,25.328,6.46,25.328z M6.993,23.482C6.994,23.482,6.994,23.482,6.993,23.482C6.994,23.482,6.994,23.482,6.993,23.482z M10.579,17.778C10.579,17.778,10.579,17.778,10.579,17.778C10.579,17.778,10.579,17.778,10.579,17.778z"/><path d="M11.01,32.012c-0.925,0-1.864-0.311-2.838-0.923l-5.723-3.597c-0.467-0.294-0.608-0.911-0.314-1.379c0.294-0.466,0.911-0.606,1.379-0.314l5.723,3.597c1.084,0.683,2.9,1.824,6.285-3.182L28.34,5.816l-5.469-3.437L10.354,22.296c-0.293,0.467-0.91,0.607-1.379,0.314c-0.467-0.294-0.608-0.911-0.314-1.379L21.71,0.468c0.294-0.467,0.911-0.607,1.379-0.314l7.162,4.501c0.225,0.142,0.384,0.365,0.443,0.624s0.013,0.53-0.128,0.755L17.196,27.307C15.052,30.477,13.065,32.012,11.01,32.012z"/><path d="M25.631,12.189c-0.182,0-0.366-0.05-0.531-0.153l-2.645-1.662c-0.467-0.294-0.608-0.911-0.314-1.379c0.294-0.466,0.911-0.607,1.379-0.314l2.645,1.662c0.467,0.294,0.608,0.911,0.314,1.379C26.289,12.023,25.963,12.189,25.631,12.189z"/><path d="M22.857,16.603c-0.182,0-0.366-0.05-0.531-0.153l-3.924-2.466c-0.467-0.294-0.608-0.911-0.314-1.379c0.294-0.466,0.911-0.607,1.379-0.314l3.924,2.466c0.467,0.294,0.608,0.911,0.314,1.379C23.515,16.437,23.189,16.603,22.857,16.603z"/><path d="M19.97,21.197c-0.182,0-0.366-0.05-0.531-0.153l-2.645-1.662c-0.467-0.294-0.608-0.911-0.314-1.379c0.294-0.467,0.911-0.607,1.379-0.314l2.645,1.662c0.467,0.294,0.608,0.911,0.314,1.379C20.627,21.031,20.302,21.197,19.97,21.197z"/><path d="M17.224,25.566c-0.182,0-0.366-0.05-0.531-0.153l-2.645-1.662c-0.467-0.294-0.608-0.911-0.314-1.379c0.294-0.466,0.911-0.606,1.379-0.314l2.645,1.662c0.467,0.294,0.608,0.911,0.314,1.379C17.882,25.4,17.557,25.566,17.224,25.566z"/></svg>