<svg xmlns="http://www.w3.org/2000/svg" viewBox="0 0 32 32"><!--! Font Icona - https://fonticona.com | License - https://fonticona.com/license | Copyright 2022 FontIcona.com --><path d="M16,32c-4.335,0-7.862-3.527-7.862-7.863c0-4.335,3.527-7.862,7.862-7.862s7.862,3.527,7.862,7.862C23.862,28.473,20.335,32,16,32z M16,18.275c-3.232,0-5.862,2.63-5.862,5.862C10.138,27.37,12.768,30,16,30s5.862-2.63,5.862-5.863C21.862,20.905,19.232,18.275,16,18.275z"/><path d="M20.79,18.504h-2v-3.377h-5.443v3.377h-2v-3.377c0-1.103,0.897-2,2-2h5.443c1.103,0,2,0.897,2,2V18.504z"/><path d="M18.271,14.895c-0.415,0-0.803-0.261-0.945-0.675L13.125,2H10.59l3.976,11.569c0.18,0.522-0.098,1.092-0.62,1.271c-0.523,0.182-1.091-0.1-1.271-0.62L8.243,1.326C8.138,1.02,8.187,0.682,8.375,0.419C8.562,0.157,8.865,0,9.188,0h4.65c0.427,0,0.807,0.271,0.945,0.675l4.432,12.895c0.18,0.522-0.098,1.092-0.62,1.271C18.488,14.877,18.378,14.895,18.271,14.895z"/><path d="M18.38,14.974c-0.107,0-0.218-0.018-0.325-0.055c-0.522-0.179-0.8-0.748-0.62-1.271L21.41,2.079h-2.535l-1.916,5.573c-0.18,0.521-0.749,0.8-1.271,0.62c-0.522-0.179-0.8-0.748-0.62-1.271l2.147-6.248c0.139-0.403,0.519-0.675,0.945-0.675h4.65c0.323,0,0.626,0.156,0.813,0.419c0.188,0.263,0.237,0.601,0.132,0.906l-4.432,12.895C19.183,14.713,18.795,14.974,18.38,14.974z"/></svg>