<svg xmlns="http://www.w3.org/2000/svg" viewBox="0 0 32 32"><!--! Font Icona - https://fonticona.com | License - https://fonticona.com/license | Copyright 2022 FontIcona.com --><path d="M27.646,32H4.354c-1.654,0-3-1.346-3-3V14.472c0-1.654,1.346-3,3-3h10.574c0.553,0,1,0.448,1,1s-0.447,1-1,1H4.354c-0.552,0-1,0.449-1,1V29c0,0.551,0.448,1,1,1h23.293c0.552,0,1-0.449,1-1V14.472c0-0.551-0.448-1-1-1h-1.766c-0.553,0-1-0.448-1-1s0.447-1,1-1h1.766c1.654,0,3,1.346,3,3V29C30.646,30.654,29.301,32,27.646,32z"/><path d="M15.372,27.879c-3.43,0-6.221-2.791-6.221-6.221s2.791-6.221,6.221-6.221s6.221,2.791,6.221,6.221S18.802,27.879,15.372,27.879z M15.372,17.438c-2.327,0-4.221,1.894-4.221,4.221s1.894,4.221,4.221,4.221s4.221-1.894,4.221-4.221S17.699,17.438,15.372,17.438z"/><path d="M20.593,22.658c-0.553,0-1-0.448-1-1V7.996c0-0.007,0-0.015,0-0.022V1.009c0-0.527,0.408-0.963,0.934-0.998c3.048-0.204,9.076,1.08,10.107,7.368c0.07,0.43-0.146,0.856-0.534,1.053c-0.387,0.197-0.858,0.122-1.166-0.19C28.82,8.129,26.038,5.48,21.593,8.5v13.158C21.593,22.21,21.146,22.658,20.593,22.658z M21.593,2.016v4.147c2.599-1.39,4.767-1.244,6.295-0.741C26.341,2.656,23.176,2.11,21.593,2.016z"/></svg>