<svg xmlns="http://www.w3.org/2000/svg" viewBox="0 0 32 32"><!--! Font Icona - https://fonticona.com | License - https://fonticona.com/license | Copyright 2022 FontIcona.com --><path d="M20.386,20.25c-0.256,0-0.512-0.098-0.707-0.293c-0.391-0.391-0.391-1.023,0-1.414l9.246-9.246c1.17-1.17,1.17-3.073,0-4.243l-1.979-1.979c-1.169-1.169-3.072-1.171-4.243,0l-9.246,9.246c-0.391,0.391-1.023,0.391-1.414,0s-0.391-1.023,0-1.414l9.246-9.246c1.95-1.95,5.123-1.948,7.071,0l1.979,1.979c1.949,1.949,1.949,5.122,0,7.071l-9.246,9.246C20.897,20.152,20.642,20.25,20.386,20.25z"/><path d="M10.95,26.93c-1.639,0-3.114-0.583-4.205-1.675c-1.229-1.229-1.813-2.943-1.646-4.83c0.16-1.82,1.008-3.581,2.386-4.959l4.559-4.559c0.391-0.391,1.023-0.391,1.414,0s0.391,1.023,0,1.414L8.898,16.88c-1.047,1.046-1.688,2.367-1.808,3.721c-0.114,1.287,0.266,2.438,1.068,3.24c0.804,0.802,1.953,1.186,3.24,1.068c1.354-0.119,2.675-0.761,3.721-1.808l4.559-4.559c0.391-0.391,1.023-0.391,1.414,0s0.391,1.023,0,1.414l-4.559,4.559c-1.378,1.378-3.139,2.226-4.959,2.386C11.364,26.92,11.156,26.93,10.95,26.93z"/><path d="M1,32c-0.256,0-0.512-0.098-0.707-0.293c-0.391-0.391-0.391-1.023,0-1.414l6.452-6.452c0.391-0.391,1.023-0.391,1.414,0s0.391,1.023,0,1.414l-6.452,6.452C1.512,31.902,1.256,32,1,32z"/><path d="M10.944,22.056c-0.256,0-0.512-0.098-0.707-0.293c-0.391-0.391-0.391-1.023,0-1.414l8.289-8.289c0.391-0.391,1.023-0.391,1.414,0s0.391,1.023,0,1.414l-8.289,8.289C11.456,21.958,11.2,22.056,10.944,22.056z"/><rect x="16.992" y="9.609" transform="matrix(0.7071 -0.7071 0.7071 0.7071 -1.2358 18.2333)" width="8.8" height="2"/><path d="M20.391,8.417c-0.256,0-0.512-0.098-0.707-0.293l-1.722-1.722c-0.391-0.391-0.391-1.023,0-1.414s1.023-0.391,1.414,0l1.722,1.722c0.391,0.391,0.391,1.023,0,1.414C20.902,8.319,20.646,8.417,20.391,8.417z"/><path d="M17.076,11.731c-0.256,0-0.512-0.098-0.707-0.293l-1.722-1.722c-0.391-0.391-0.391-1.023,0-1.414s1.023-0.391,1.414,0l1.722,1.722c0.391,0.391,0.391,1.023,0,1.414C17.588,11.634,17.332,11.731,17.076,11.731z"/><path d="M13.761,15.047c-0.256,0-0.512-0.098-0.707-0.293l-1.722-1.722c-0.391-0.391-0.391-1.023,0-1.414s1.023-0.391,1.414,0l1.722,1.722c0.391,0.391,0.391,1.023,0,1.414C14.272,14.949,14.017,15.047,13.761,15.047z"/><path d="M24.529,16.107c-0.256,0-0.512-0.098-0.707-0.293l-1.564-1.564c-0.391-0.391-0.391-1.023,0-1.414s1.023-0.391,1.414,0l1.564,1.564c0.391,0.391,0.391,1.023,0,1.414C25.041,16.01,24.785,16.107,24.529,16.107z"/><path d="M21.183,19.453c-0.256,0-0.512-0.098-0.707-0.293l-1.564-1.564c-0.391-0.391-0.391-1.023,0-1.414s1.023-0.391,1.414,0l1.564,1.564c0.391,0.391,0.391,1.023,0,1.414C21.694,19.355,21.438,19.453,21.183,19.453z"/><path d="M25.439,8.835c-1.379,0-2.5-1.121-2.5-2.5s1.121-2.5,2.5-2.5s2.5,1.121,2.5,2.5S26.818,8.835,25.439,8.835z M25.439,5.835c-0.275,0-0.5,0.225-0.5,0.5s0.225,0.5,0.5,0.5s0.5-0.225,0.5-0.5S25.715,5.835,25.439,5.835z"/></svg>