<svg xmlns="http://www.w3.org/2000/svg" viewBox="0 0 32 32"><!--! Font Icona - https://fonticona.com | License - https://fonticona.com/license | Copyright 2022 FontIcona.com --><path d="M8.111,24.112C3.639,24.112,0,20.473,0,16s3.639-8.112,8.111-8.112s8.112,3.64,8.112,8.112S12.584,24.112,8.111,24.112z M8.111,9.888C4.742,9.888,2,12.63,2,16s2.742,6.111,6.111,6.111c3.37,0,6.112-2.741,6.112-6.111S11.481,9.888,8.111,9.888z"/><path d="M21.616,23.434c-2.523,0-4.499-3.266-4.499-7.434c0-4.169,1.976-7.435,4.499-7.435s4.5,3.266,4.5,7.435C26.115,20.168,24.139,23.434,21.616,23.434z M21.616,10.566c-1.18,0-2.499,2.324-2.499,5.435s1.319,5.434,2.499,5.434s2.5-2.323,2.5-5.434S22.795,10.566,21.616,10.566z"/><path d="M29.702,22.644c-2,0-2.298-4.162-2.298-6.644s0.298-6.645,2.298-6.645S32,13.519,32,16S31.701,22.644,29.702,22.644z M29.702,12.497c-0.163,0.825-0.298,2.011-0.298,3.503s0.135,2.678,0.298,3.502C29.865,18.678,30,17.493,30,16S29.865,13.323,29.702,12.497z"/></svg>