<svg xmlns="http://www.w3.org/2000/svg" viewBox="0 0 32 32"><!--! Font Icona - https://fonticona.com | License - https://fonticona.com/license | Copyright 2022 FontIcona.com --><path d="M23.521,20.949c-0.577-0.104-1.326-0.018-1.656-0.431c-0.82-1.031,1.095-3.939,1.497-4.889c0.268-0.633,0.523-1.278,0.697-1.937c0.126-0.478-0.039-1-0.352-1.386c-0.04-0.025-0.08-0.043-0.121-0.074c-1.275-0.968-2.544,0.485-3.855,0.115c-0.763-0.215-1.232-1.043-2.176-0.458c-0.237,0.175-0.493,0.312-0.769,0.411c-1.385,0.391-3.612-1.137-4.338,1.246c-0.384,1.26-3.37,8.052-0.134,7.881c0.874-0.046,1.121-0.91,1.414-1.615c0.427-1.027,0.875-2.045,1.313-3.066c0.245-0.57,0.488-1.14,0.744-1.705c0.127-0.281,0.478-0.451,0.752-0.392c0.29,0.063,0.476,0.301,0.468,0.637c-0.004,0.153-0.028,0.312-0.084,0.455c-0.215,0.547-0.445,1.088-0.674,1.63c-0.337,0.8-1.821,3.506,0.137,3.371c1.117-0.077,1.577-1.404,2.014-2.264c0.594-1.17,1.168-2.459,1.933-3.522c0.57-0.792,1.4-0.929,1.078,0.303c-0.405,1.547-1.718,2.706-2.093,4.231c-0.523,2.129,2.444,3.773,4.243,3.018C24.369,22.169,24.485,21.122,23.521,20.949z"/><path d="M14.099,31.625c-1.166,0-2.343-0.307-3.355-0.93c-1.813-1.116-2.873-2.739-3.153-4.83c-2.286-0.689-3.959-2.595-4.329-4.967c-0.302-1.943,0.167-3.671,1.396-5.142c-0.649-1.464-0.701-3.122-0.134-4.617c0.595-1.567,1.819-2.8,3.361-3.381c0.215-0.081,0.443-0.162,0.694-0.211c1.446-3.026,3.875-4.698,7.057-4.877l0.072-0.002c1.693,0.026,3.072,0.377,4.322,1.1c2.012-0.586,4.161-0.289,5.919,0.821c1.859,1.175,3.104,3.136,3.417,5.38c0.04,0.285,0.062,0.574,0.066,0.864c1.609,0.805,2.558,2.405,2.499,4.264c-0.033,1.045-0.39,1.995-1.038,2.772c0.92,1.915,0.968,4.105,0.121,6.078c-0.875,2.037-2.581,3.522-4.681,4.073c-0.451,0.118-0.89,0.163-1.316,0.198c-0.815,1.983-2.358,3.104-4.485,3.249c-1.081,0.062-2.117-0.212-3.038-0.829C16.508,31.294,15.31,31.625,14.099,31.625z M15.711,4.67c-2.465,0.149-4.271,1.437-5.367,3.825c-0.104,0.228-0.421,0.915-1.34,1.01C8.892,9.517,8.71,9.585,8.589,9.63c-1.019,0.385-1.799,1.173-2.196,2.219c-0.412,1.087-0.335,2.305,0.211,3.342c0.308,0.582,0.234,1.145-0.214,1.625c-1.002,1.077-1.379,2.312-1.152,3.775c0.27,1.729,1.501,3.046,3.213,3.435c0.873,0.196,1.055,0.854,1.084,1.229c0.131,1.662,0.869,2.885,2.256,3.738c1.491,0.916,3.576,0.828,4.849-0.205c0.541-0.44,1.16-0.442,1.698-0.007c0.637,0.519,1.31,0.745,2.055,0.692c1.458-0.099,2.373-0.828,2.878-2.295c0.132-0.382,0.444-0.853,1.185-0.919l0.238-0.02c0.407-0.033,0.792-0.063,1.128-0.151c1.5-0.395,2.721-1.462,3.351-2.929c0.656-1.529,0.576-3.237-0.221-4.686c-0.335-0.606-0.25-1.213,0.239-1.705c0.474-0.477,0.715-1.044,0.737-1.735c0.037-1.145-0.56-2.08-1.595-2.502c-0.431-0.175-0.938-0.562-0.907-1.414c0.011-0.292-0.004-0.586-0.044-0.872c-0.231-1.659-1.144-3.104-2.504-3.964c-1.326-0.837-2.892-1.035-4.408-0.557c-0.469,0.146-0.916,0.093-1.332-0.157C18.16,4.973,17.102,4.697,15.711,4.67z"/><path d="M19.685,1.171C19.684,0.516,20.195-0.006,20.829,0c0.626,0.006,1.132,0.522,1.138,1.16c0.006,0.652-0.501,1.177-1.137,1.18C20.189,2.342,19.686,1.829,19.685,1.171z"/><path d="M0,15.978c-0.001-0.655,0.509-1.177,1.144-1.171c0.626,0.006,1.132,0.522,1.138,1.16c0.006,0.652-0.501,1.177-1.137,1.18C0.503,17.149,0.001,16.636,0,15.978z"/><path d="M25.626,22.611c-0.001-0.327,0.255-0.589,0.572-0.586c0.313,0.003,0.566,0.261,0.569,0.58c0.003,0.326-0.251,0.589-0.568,0.59C25.878,23.196,25.626,22.94,25.626,22.611z"/><path d="M5.433,5.444C5.432,5.117,5.687,4.856,6.005,4.859c0.313,0.003,0.566,0.261,0.569,0.58c0.003,0.326-0.251,0.589-0.568,0.59C5.684,6.03,5.433,5.773,5.433,5.444z"/><path d="M25.603,30.831c-0.001-0.655,0.509-1.177,1.144-1.171c0.626,0.006,1.132,0.522,1.138,1.16c0.006,0.652-0.501,1.177-1.137,1.18C26.106,32.003,25.604,31.49,25.603,30.831z"/><path d="M29.718,8.981c-0.001-0.655,0.509-1.177,1.144-1.171C31.489,7.816,31.994,8.332,32,8.97c0.006,0.652-0.501,1.177-1.137,1.18C30.222,10.152,29.719,9.639,29.718,8.981z"/><path d="M3.151,28.214c-0.001-0.655,0.509-1.177,1.144-1.171c0.626,0.006,1.132,0.522,1.138,1.16c0.006,0.652-0.501,1.177-1.137,1.18C3.654,29.385,3.152,28.872,3.151,28.214z"/></svg>