<svg xmlns="http://www.w3.org/2000/svg" viewBox="0 0 32 32"><!--! Font Icona - https://fonticona.com | License - https://fonticona.com/license | Copyright 2022 FontIcona.com --><path d="M16,21.674c-0.216,0-0.432-0.069-0.612-0.209l-3.664-2.837c-0.244-0.189-0.388-0.481-0.388-0.791v-5.674c0-0.31,0.144-0.602,0.388-0.791l3.664-2.838c0.361-0.279,0.863-0.279,1.225,0l3.664,2.838c0.244,0.189,0.388,0.481,0.388,0.791v5.674c0,0.31-0.144,0.602-0.388,0.791l-3.664,2.837C16.432,21.605,16.216,21.674,16,21.674z M13.336,17.347L16,19.41l2.664-2.062v-4.693L16,10.59l-2.664,2.063V17.347z"/><path d="M16,26.392c-0.553,0-1-0.447-1-1v-4.164l-2.664-2.062l-2.665,2.062v4.164c0,0.553-0.447,1-1,1s-1-0.447-1-1v-4.654c0-0.31,0.144-0.602,0.388-0.791l3.665-2.837c0.361-0.279,0.863-0.279,1.225,0l3.664,2.837C16.856,20.136,17,20.428,17,20.738v4.654C17,25.945,16.553,26.392,16,26.392z"/><path d="M23.329,26.392c-0.553,0-1-0.447-1-1v-4.164l-2.665-2.062L17,21.228v0.7c0,0.553-0.447,1-1,1s-1-0.447-1-1v-1.19c0-0.31,0.144-0.602,0.388-0.791l3.664-2.837c0.361-0.279,0.863-0.279,1.225,0l3.665,2.837c0.244,0.189,0.388,0.481,0.388,0.791v4.654C24.329,25.945,23.882,26.392,23.329,26.392z"/><path d="M16,10.326c-0.553,0-1-0.447-1-1V4.609c0-0.553,0.447-1,1-1s1,0.447,1,1v4.717C17,9.878,16.553,10.326,16,10.326z"/><path d="M16,32C7.178,32,0,24.823,0,16S7.178,0,16,0s16,7.178,16,16S24.822,32,16,32z M16,2C8.28,2,2,8.281,2,16s6.28,14,14,14s14-6.28,14-14S23.72,2,16,2z"/></svg>