<svg xmlns="http://www.w3.org/2000/svg" viewBox="0 0 32 32"><!--! Font Icona - https://fonticona.com | License - https://fonticona.com/license | Copyright 2022 FontIcona.com --><path d="M10.648,32c-1.47,0-2.935-0.623-4.019-1.708l-4.904-4.906c-2.137-2.139-2.313-5.44-0.396-7.359l2.772-2.774c0.391-0.391,1.023-0.391,1.414,0c0.391,0.39,0.391,1.023,0,1.414l-2.772,2.774c-1.139,1.14-0.961,3.173,0.396,4.531l4.904,4.906c1.295,1.295,3.464,1.461,4.582,0.34l2.83-2.83c0.391-0.391,1.023-0.391,1.414,0s0.391,1.023,0,1.414l-2.829,2.83C13.16,31.514,11.955,32,10.648,32z"/><path d="M16.163,28.095c-0.256,0-0.512-0.098-0.707-0.293c-0.391-0.39-0.391-1.023,0-1.414l10.529-10.536l-9.742-9.834L5.517,16.666c-0.391,0.391-1.023,0.391-1.414,0c-0.391-0.39-0.391-1.023,0-1.414L14.744,4.604c0.776-0.778,2.138-0.777,2.914,0.001l9.741,9.747c0.803,0.803,0.803,2.109,0.001,2.913L16.87,27.802C16.675,27.997,16.419,28.095,16.163,28.095z"/><path d="M26.249,14.907c-0.256,0-0.512-0.098-0.707-0.293c-0.391-0.39-0.391-1.023,0-1.414l4.441-4.445l-6.648-6.738l-4.579,4.496c-0.391,0.391-1.023,0.391-1.414,0s-0.391-1.023,0-1.414l4.494-4.496c0.774-0.777,2.136-0.778,2.914,0.001l6.647,6.652C31.786,7.644,32,8.161,32,8.713c0,0.551-0.214,1.068-0.604,1.457l-4.44,4.444C26.761,14.81,26.505,14.907,26.249,14.907z"/><path d="M23.195,7.275c-0.256,0-0.512-0.098-0.707-0.293l-0.888-0.889c-0.391-0.391-0.391-1.024,0-1.414c0.391-0.391,1.023-0.391,1.414,0l0.888,0.889c0.391,0.391,0.391,1.024,0,1.414C23.707,7.178,23.451,7.275,23.195,7.275z"/><path d="M26.616,10.698c-0.256,0-0.512-0.098-0.707-0.293l-0.888-0.889c-0.391-0.391-0.391-1.024,0-1.414c0.391-0.391,1.023-0.391,1.414,0l0.888,0.889c0.391,0.391,0.391,1.024,0,1.414C27.128,10.601,26.872,10.698,26.616,10.698z"/><path d="M10.617,28.095c-0.256,0-0.512-0.098-0.707-0.293L4.103,21.99c-0.391-0.391-0.391-1.024,0-1.414c0.391-0.391,1.023-0.391,1.414,0l5.808,5.812c0.391,0.391,0.391,1.024,0,1.414C11.129,27.997,10.873,28.095,10.617,28.095z"/><path d="M9.749,23.117c-0.256,0-0.512-0.098-0.707-0.293c-0.391-0.391-0.391-1.023,0-1.414l9.951-9.956c0.391-0.391,1.023-0.391,1.414,0s0.391,1.023,0,1.414l-9.951,9.956C10.261,23.02,10.005,23.117,9.749,23.117z"/><path d="M11.986,20.88c-0.553,0-1-0.447-1-1v-4.659c0-0.266,0.105-0.52,0.293-0.707l2.419-2.42c0.391-0.391,1.023-0.391,1.414,0s0.391,1.023,0,1.414l-2.126,2.127v4.245C12.986,20.433,12.539,20.88,11.986,20.88z"/><path d="M18.878,18.733h-4.655c-0.553,0-1-0.447-1-1s0.447-1,1-1h4.241l2.126-2.128c0.391-0.391,1.023-0.391,1.414,0c0.391,0.39,0.391,1.023,0,1.414l-2.419,2.421C19.397,18.628,19.144,18.733,18.878,18.733z"/></svg>