<svg xmlns="http://www.w3.org/2000/svg" viewBox="0 0 32 32"><!--! Font Icona - https://fonticona.com | License - https://fonticona.com/license | Copyright 2022 FontIcona.com --><path d="M31,31.922H12.053c-0.386,0-0.737-0.222-0.903-0.57c-0.165-0.349-0.116-0.761,0.127-1.061l9.474-11.652c0.381-0.467,1.172-0.467,1.553,0l9.474,11.652c0.243,0.3,0.292,0.712,0.127,1.061C31.737,31.7,31.386,31.922,31,31.922z M14.154,29.922h14.744l-7.372-9.067L14.154,29.922z"/><path d="M18.208,24.35c-0.189,0-0.382-0.054-0.552-0.167l-13.674-9.07c-0.46-0.306-0.586-0.926-0.28-1.386c0.305-0.46,0.924-0.588,1.386-0.281l13.674,9.071c0.46,0.305,0.586,0.926,0.28,1.386C18.85,24.192,18.532,24.35,18.208,24.35z"/><path d="M15.655,8.012c-0.012,0-0.023,0-0.035,0c-0.95-0.009-1.819-0.387-2.448-1.064c-1.368-1.474-1.209-3.993,0.355-5.616C14.354,0.475,15.446,0.037,16.551,0c0.95,0.009,1.819,0.387,2.448,1.064c1.368,1.474,1.209,3.993-0.355,5.616C17.827,7.528,16.739,8.012,15.655,8.012z M16.516,2c-0.544,0-1.107,0.262-1.549,0.72c-0.826,0.856-0.977,2.169-0.329,2.867c0.322,0.347,0.723,0.423,1.002,0.425c0.005,0,0.011,0,0.016,0c0.544,0,1.107-0.261,1.549-0.719c0.826-0.857,0.977-2.17,0.329-2.867C17.212,2.079,16.812,2.003,16.532,2C16.526,2,16.521,2,16.516,2z"/><path d="M2.611,32H1c-0.317,0-0.616-0.15-0.805-0.406c-0.188-0.255-0.244-0.584-0.151-0.888c0.558-1.813,1.321-3.466,2.06-5.064c0.534-1.156,1.087-2.352,1.542-3.575c0.083-0.223,0.162-0.45,0.242-0.677c0.229-0.654,0.467-1.33,0.792-1.971c0.163-0.321,0.412-0.615,0.653-0.9c0.164-0.193,0.439-0.519,0.482-0.65c0.735-3.99,3.234-9.113,6.978-10.891c0.497-0.237,1.095-0.024,1.332,0.474c0.237,0.499,0.024,1.095-0.475,1.333c-2.97,1.411-5.202,5.83-5.872,9.465c-0.113,0.61-0.541,1.116-0.919,1.562c-0.151,0.179-0.34,0.401-0.396,0.514c-0.265,0.521-0.471,1.106-0.688,1.727c-0.083,0.238-0.167,0.477-0.254,0.711C5.038,24.06,4.47,25.29,3.919,26.48C3.371,27.668,2.845,28.808,2.398,30h0.213c0.553,0,1,0.447,1,1S3.164,32,2.611,32z"/><path d="M10.269,32H8.359c-0.298,0-0.581-0.133-0.771-0.363c-0.19-0.229-0.268-0.532-0.212-0.825c0.365-1.907,0.941-4.144,1.541-5.982c0.074-0.224,0.168-0.475,0.269-0.741c0.235-0.623,0.591-1.565,0.519-2.019c-0.012-0.072-0.051-0.131-0.198-0.322c-0.091-0.117-0.182-0.238-0.268-0.372c-0.118-0.187-0.347-0.465-0.598-0.778c-0.736-0.917-1.272-1.611-1.457-2.203c-0.165-0.525,0.128-1.08,0.652-1.247c0.523-0.165,1.086,0.126,1.256,0.649c0.092,0.284,0.778,1.138,1.108,1.549c0.307,0.382,0.579,0.727,0.726,0.956c0.053,0.083,0.109,0.154,0.164,0.226c0.209,0.271,0.495,0.642,0.589,1.227c0.156,0.979-0.258,2.074-0.622,3.041c-0.089,0.236-0.173,0.458-0.238,0.656c-0.454,1.393-0.895,3.023-1.231,4.55h0.681c0.553,0,1,0.447,1,1S10.821,32,10.269,32z"/><path d="M4.436,16.796c-0.124,0-0.247-0.016-0.369-0.05c-0.569-0.158-1.141-0.729-1.039-1.855c0.076-0.839,0.537-1.96,1.37-3.332c0.865-1.427,1.847-3.044,3.672-3.837c1.746-0.759,4.158-0.841,5.114-0.841c0.553,0,1,0.448,1,1s-0.447,1-1,1c-1.336,0-3.172,0.177-4.317,0.675c-1.152,0.501-1.871,1.577-2.76,3.042c-0.334,0.55-0.604,1.066-0.793,1.505c0.127,0.008,0.254,0.04,0.375,0.099c0.497,0.241,0.704,0.839,0.463,1.336C5.772,16.32,5.103,16.796,4.436,16.796z"/><path d="M13.865,21.485c-0.463,0-0.879-0.323-0.978-0.795c-0.684-3.261-0.672-8.122-0.664-11.67l0.002-1.096c0-0.552,0.447-1,1-1s1,0.448,1,1l-0.002,1.1c-0.008,3.461-0.02,8.2,0.621,11.256c0.113,0.54-0.232,1.07-0.773,1.184C14.002,21.479,13.934,21.485,13.865,21.485z"/></svg>