<svg xmlns="http://www.w3.org/2000/svg" viewBox="0 0 32 32"><!--! Font Icona - https://fonticona.com | License - https://fonticona.com/license | Copyright 2022 FontIcona.com --><path d="M28.253,25.343c-0.243,0-0.489-0.024-0.739-0.074c-1.42-0.281-2.432-1.138-2.925-2.478c-0.333-0.906-0.319-1.855,0.041-2.823c0.118-0.315,0.236-0.647,0.274-0.947c0.04-0.31-0.005-0.649-0.589-1.039c-0.439-0.292-0.966-0.458-1.657-0.521c-0.975-0.094-1.785,0.045-2.472,0.415c-0.23,0.124-0.528,0.345-0.631,0.688c-0.104,0.348,0.025,0.701,0.152,0.936c0.662,1.226,0.588,2.881-0.182,4.025c-0.717,1.066-1.979,1.697-3.552,1.775c-1.411,0.07-2.748-0.648-3.52-1.871c-0.771-1.224-0.832-2.692-0.163-3.93c0.127-0.234,0.257-0.588,0.152-0.936c-0.103-0.344-0.4-0.564-0.631-0.688c-0.687-0.37-1.495-0.509-2.472-0.415c-0.691,0.063-1.218,0.229-1.657,0.521c-0.584,0.39-0.629,0.729-0.589,1.04c0.038,0.299,0.156,0.631,0.273,0.946c0.361,0.968,0.375,1.917,0.042,2.822c-0.493,1.341-1.505,2.197-2.925,2.479c-1.188,0.237-2.329-0.099-3.196-0.948c-0.992-0.972-1.473-2.511-1.224-3.92l0.028-0.146c0.382-1.724,1.975-2.903,3.791-2.818c0.859,0.034,0.997-0.344,1.061-0.708c0.148-0.846,0.079-1.763-0.211-2.805c-0.398-1.426-0.363-2.695,0.105-3.88c0.763-1.92,2.312-3.107,4.362-3.346c1.959-0.224,3.664,0.524,4.92,2.174c0.361,0.476,0.787,0.94,1.267,1.382c0.259,0.239,0.435,0.255,0.559,0.246c0.276-0.024,0.896-0.269,1.93-1.628c1.255-1.649,2.953-2.397,4.919-2.174c2.051,0.238,3.6,1.426,4.362,3.345c0.469,1.186,0.504,2.455,0.105,3.881c-0.29,1.042-0.359,1.959-0.211,2.805c0.063,0.365,0.196,0.744,1.061,0.708c1.798-0.077,3.409,1.095,3.79,2.813l0.029,0.151c0.249,1.409-0.231,2.948-1.224,3.92C30.024,24.993,29.171,25.343,28.253,25.343z M26.89,19.263c0,0.004-0.001,0.007-0.001,0.011c-0.065,0.513-0.232,0.988-0.385,1.394c-0.193,0.521-0.206,0.977-0.038,1.434c0.253,0.688,0.696,1.06,1.437,1.207c0.546,0.107,1.018-0.033,1.408-0.416c0.526-0.516,0.789-1.377,0.654-2.144l-0.015-0.072c-0.165-0.746-0.883-1.284-1.738-1.242C27.728,19.454,27.284,19.398,26.89,19.263z M3.701,19.432c-0.79,0-1.492,0.524-1.652,1.249c-0.148,0.834,0.114,1.695,0.641,2.211c0.39,0.383,0.862,0.522,1.408,0.416c0.74-0.147,1.184-0.52,1.437-1.208c0.168-0.456,0.155-0.912-0.039-1.433c-0.151-0.405-0.318-0.881-0.384-1.393c0-0.004-0.001-0.008-0.001-0.012c-0.396,0.135-0.844,0.19-1.322,0.171C3.759,19.432,3.729,19.432,3.701,19.432z M9.914,15.433c1.062,0,1.999,0.225,2.847,0.681c0.81,0.437,1.362,1.085,1.6,1.877c0.234,0.783,0.125,1.657-0.309,2.46c-0.32,0.594-0.285,1.308,0.096,1.912c0.393,0.622,1.038,0.985,1.728,0.939c0.538-0.026,1.511-0.178,1.991-0.893c0.354-0.527,0.391-1.389,0.082-1.959c-0.434-0.803-0.543-1.677-0.309-2.46c0.237-0.792,0.79-1.44,1.6-1.877c1.043-0.561,2.222-0.769,3.603-0.646c0.817,0.075,1.522,0.269,2.139,0.588c-0.024-0.841,0.094-1.723,0.358-2.67c0.276-0.99,0.264-1.843-0.039-2.606c-0.491-1.236-1.411-1.942-2.733-2.096c-1.254-0.146-2.271,0.312-3.097,1.398c-0.74,0.974-1.893,2.281-3.347,2.409c-0.529,0.044-1.312-0.051-2.09-0.769c-0.564-0.521-1.07-1.073-1.502-1.641c-0.827-1.086-1.842-1.546-3.098-1.398C8.111,8.837,7.191,9.543,6.7,10.781c-0.303,0.763-0.315,1.615-0.039,2.605c0.264,0.947,0.383,1.828,0.358,2.67c0.616-0.319,1.321-0.513,2.139-0.588C9.417,15.445,9.669,15.433,9.914,15.433z"/><path d="M16,18.974c-2.19,0-3.972-1.781-3.972-3.972S13.81,11.031,16,11.031s3.972,1.781,3.972,3.972S18.19,18.974,16,18.974z M16,13.031c-1.087,0-1.972,0.885-1.972,1.972s0.885,1.972,1.972,1.972s1.972-0.885,1.972-1.972S17.087,13.031,16,13.031z"/></svg>