<svg xmlns="http://www.w3.org/2000/svg" viewBox="0 0 32 32"><!--! Font Icona - https://fonticona.com | License - https://fonticona.com/license | Copyright 2022 FontIcona.com --><path d="M29,32H3c-1.654,0-3-1.346-3-3V3c0-1.654,1.346-3,3-3h26c1.654,0,3,1.346,3,3v26C32,30.654,30.654,32,29,32z M3,2C2.449,2,2,2.448,2,3v26c0,0.552,0.449,1,1,1h26c0.551,0,1-0.448,1-1V3c0-0.552-0.449-1-1-1H3z"/><path d="M21.167,31.833c-0.419,0-0.809-0.265-0.949-0.684c-1.051-3.154-1.051-7.294-1.051-10.316c0-0.055,0.004-0.11,0.014-0.164c0.176-1.06,0.384-2.149,0.595-3.26c0.988-5.19,2.009-10.559,0.442-15.26c-0.175-0.524,0.108-1.091,0.632-1.265c0.526-0.177,1.091,0.108,1.265,0.632c1.732,5.195,0.612,11.077-0.375,16.267c-0.203,1.066-0.402,2.114-0.573,3.133c0,2.878,0.009,6.782,0.949,9.601c0.175,0.524-0.108,1.091-0.632,1.265C21.378,31.816,21.271,31.833,21.167,31.833z"/><path d="M20.921,23.833c-0.05,0-0.1-0.004-0.148-0.011c-1.484-0.224-2.924-0.496-4.316-0.759c-4.788-0.906-9.308-1.762-14.267-0.272c-0.529,0.155-1.086-0.141-1.245-0.67c-0.159-0.529,0.141-1.087,0.67-1.246c5.425-1.63,10.179-0.729,15.213,0.223c1.351,0.256,2.747,0.52,4.168,0.735c2.73,0,6.436-0.009,9.103-0.943c0.522-0.187,1.092,0.092,1.275,0.612c0.183,0.521-0.092,1.092-0.613,1.274C27.748,23.833,23.802,23.833,20.921,23.833z"/><path d="M11.167,31.833c-0.418,0-0.808-0.264-0.948-0.683c-1.052-3.138-1.052-7.255-1.052-10.262c0-0.048,0.003-0.095,0.01-0.143c0.223-1.55,0.495-3.055,0.758-4.51c0.908-5.017,1.766-9.756,0.271-14.96c-0.153-0.531,0.154-1.085,0.685-1.237c0.532-0.15,1.085,0.154,1.237,0.685c1.625,5.653,0.727,10.615-0.225,15.869c-0.256,1.415-0.521,2.878-0.736,4.367c0,2.862,0.008,6.75,0.948,9.556c0.175,0.523-0.107,1.09-0.63,1.266C11.379,31.816,11.272,31.833,11.167,31.833z"/><path d="M20.676,13.833c-0.048,0-0.097-0.004-0.145-0.011c-1.521-0.223-2.998-0.495-4.425-0.759c-4.918-0.907-9.562-1.766-14.658-0.271c-0.529,0.151-1.086-0.148-1.241-0.679c-0.155-0.53,0.148-1.086,0.678-1.241c5.554-1.626,10.425-0.729,15.583,0.224c1.387,0.256,2.82,0.521,4.28,0.736c2.805,0,6.613-0.008,9.358-0.946c0.522-0.177,1.091,0.1,1.27,0.623c0.179,0.522-0.1,1.091-0.623,1.27C27.67,13.833,23.627,13.833,20.676,13.833z"/></svg>