<svg xmlns="http://www.w3.org/2000/svg" viewBox="0 0 32 32"><!--! Font Icona - https://fonticona.com | License - https://fonticona.com/license | Copyright 2022 FontIcona.com --><path d="M24.298,13.111h-5.687c-0.553,0-1-0.448-1-1s0.447-1,1-1h5.687c0.553,0,1,0.448,1,1S24.851,13.111,24.298,13.111z"/><path d="M13.389,13.111H7.702c-0.552,0-1-0.448-1-1s0.448-1,1-1h5.687c0.552,0,1,0.448,1,1S13.941,13.111,13.389,13.111z"/><path d="M18.611,18.628h-5.222c-0.552,0-1-0.447-1-1s0.448-1,1-1h5.222c0.553,0,1,0.447,1,1S19.164,18.628,18.611,18.628z"/><path d="M9.68,18.628H7.702c-0.552,0-1-0.447-1-1s0.448-1,1-1H9.68c0.552,0,1,0.447,1,1S10.232,18.628,9.68,18.628z"/><path d="M24.298,18.628H22.32c-0.553,0-1-0.447-1-1s0.447-1,1-1h1.978c0.553,0,1,0.447,1,1S24.851,18.628,24.298,18.628z"/><path d="M18.611,7.594h-5.222c-0.552,0-1-0.448-1-1s0.448-1,1-1h5.222c0.553,0,1,0.448,1,1S19.164,7.594,18.611,7.594z"/><path d="M9.68,7.594H7.702c-0.552,0-1-0.448-1-1s0.448-1,1-1H9.68c0.552,0,1,0.448,1,1S10.232,7.594,9.68,7.594z"/><path d="M24.298,7.594H22.32c-0.553,0-1-0.448-1-1s0.447-1,1-1h1.978c0.553,0,1,0.448,1,1S24.851,7.594,24.298,7.594z"/><path d="M5.333,32c-0.278,0-0.551-0.116-0.746-0.333c-0.295-0.329-0.338-0.812-0.107-1.189l3.834-6.256H3c-1.654,0-3-1.346-3-3V3c0-1.654,1.346-3,3-3h26c1.654,0,3,1.346,3,3v18.222c0,1.654-1.346,3-3,3h-6.877L5.758,31.905C5.622,31.969,5.477,32,5.333,32z M3,2C2.449,2,2,2.449,2,3v18.222c0,0.552,0.449,1,1,1h7.1c0.362,0,0.696,0.195,0.873,0.512c0.177,0.315,0.169,0.702-0.02,1.011L7.93,28.676l13.545-6.359c0.133-0.062,0.278-0.095,0.425-0.095H29c0.552,0,1-0.448,1-1V3c0-0.551-0.448-1-1-1H3z"/></svg>