<svg xmlns="http://www.w3.org/2000/svg" viewBox="0 0 32 32"><!--! Font Icona - https://fonticona.com | License - https://fonticona.com/license | Copyright 2022 FontIcona.com --><path d="M4.679,32c-0.286,0-0.565-0.122-0.759-0.349c-0.289-0.337-0.322-0.822-0.081-1.194l3.101-4.791H3c-1.654,0-3-1.346-3-3V8.422c0-1.654,1.346-3,3-3h21.556c1.654,0,3,1.346,3,3v14.245c0,1.654-1.346,3-3,3h-5.563L5.088,31.912C4.956,31.972,4.816,32,4.679,32z M3,7.422c-0.551,0-1,0.449-1,1v14.244c0,0.552,0.449,1,1,1h5.778c0.366,0,0.704,0.2,0.878,0.522c0.175,0.321,0.16,0.713-0.039,1.021L7.358,28.7l11.01-4.945c0.129-0.058,0.269-0.088,0.41-0.088h5.777c0.552,0,1-0.448,1-1V8.422c0-0.551-0.448-1-1-1H3z"/><path d="M20.289,14.122H7.2c-0.552,0-1-0.448-1-1s0.448-1,1-1h13.089c0.553,0,1,0.448,1,1S20.842,14.122,20.289,14.122z"/><path d="M20.289,18.978H7.2c-0.552,0-1-0.447-1-1s0.448-1,1-1h13.089c0.553,0,1,0.447,1,1S20.842,18.978,20.289,18.978z"/><path d="M29,18.978h-2.567v-2H29c0.552,0,1-0.448,1-1V3c0-0.551-0.448-1-1-1H8.556c-0.551,0-1,0.449-1,1v3.422h-2V3c0-1.654,1.346-3,3-3H29c1.654,0,3,1.346,3,3v12.978C32,17.632,30.654,18.978,29,18.978z"/></svg>