<svg xmlns="http://www.w3.org/2000/svg" viewBox="0 0 32 32"><!--! Font Icona - https://fonticona.com | License - https://fonticona.com/license | Copyright 2022 FontIcona.com --><path d="M22.452,13.438H9.548c-0.552,0-1-0.448-1-1s0.448-1,1-1h12.904c0.553,0,1,0.448,1,1S23.005,13.438,22.452,13.438z"/><path d="M16,19.969c-0.552,0-1-0.447-1-1V5.907c0-0.552,0.448-1,1-1s1,0.448,1,1v13.062C17,19.521,16.552,19.969,16,19.969z"/><path d="M5.333,32c-0.278,0-0.551-0.116-0.746-0.333c-0.295-0.329-0.338-0.812-0.107-1.189l3.834-6.256H3c-1.654,0-3-1.346-3-3V3c0-1.654,1.346-3,3-3h26c1.654,0,3,1.346,3,3v18.222c0,1.654-1.346,3-3,3h-6.877L5.758,31.905C5.622,31.969,5.477,32,5.333,32z M3,2C2.449,2,2,2.449,2,3v18.222c0,0.552,0.449,1,1,1h7.1c0.362,0,0.696,0.195,0.873,0.512c0.177,0.315,0.169,0.702-0.02,1.011L7.93,28.676l13.545-6.359c0.133-0.062,0.278-0.095,0.425-0.095H29c0.552,0,1-0.448,1-1V3c0-0.551-0.448-1-1-1H3z"/></svg>