<svg xmlns="http://www.w3.org/2000/svg" viewBox="0 0 32 32"><!--! Font Icona - https://fonticona.com | License - https://fonticona.com/license | Copyright 2022 FontIcona.com --><path d="M5.333,32c-0.278,0-0.551-0.116-0.746-0.333c-0.295-0.329-0.338-0.812-0.107-1.189l3.834-6.256H3c-1.654,0-3-1.346-3-3V3c0-1.654,1.346-3,3-3h26c1.654,0,3,1.346,3,3v18.222c0,1.654-1.346,3-3,3h-6.877L5.758,31.905C5.622,31.969,5.477,32,5.333,32z M3,2C2.449,2,2,2.449,2,3v18.222c0,0.552,0.449,1,1,1h7.1c0.362,0,0.696,0.195,0.873,0.512c0.177,0.315,0.169,0.702-0.02,1.011L7.93,28.676l13.545-6.359c0.133-0.062,0.278-0.095,0.425-0.095H29c0.552,0,1-0.448,1-1V3c0-0.551-0.448-1-1-1H3z"/><path d="M10.556,18.744c-0.256,0-0.512-0.098-0.707-0.293c-0.391-0.391-0.391-1.023,0-1.414L20.737,6.149c0.391-0.391,1.023-0.391,1.414,0s0.391,1.023,0,1.414L11.263,18.451C11.068,18.646,10.812,18.744,10.556,18.744z"/><path d="M21.444,18.744c-0.256,0-0.512-0.098-0.707-0.293L9.849,7.563c-0.391-0.391-0.391-1.023,0-1.414s1.023-0.391,1.414,0l10.888,10.888c0.391,0.391,0.391,1.023,0,1.414C21.956,18.646,21.7,18.744,21.444,18.744z"/></svg>