<svg xmlns="http://www.w3.org/2000/svg" viewBox="0 0 32 32"><!--! Font Icona - https://fonticona.com | License - https://fonticona.com/license | Copyright 2022 FontIcona.com --><path d="M20.9,20.783c-0.159,0-0.319-0.038-0.466-0.115l-4.434-2.332l-4.412,2.331c-0.337,0.18-0.746,0.148-1.054-0.074c-0.309-0.224-0.463-0.604-0.399-0.979l0.845-4.925L7.392,11.2c-0.273-0.266-0.372-0.663-0.254-1.025c0.117-0.362,0.43-0.626,0.807-0.682l4.958-0.724l2.201-4.472c0.168-0.342,0.516-0.558,0.896-0.559c0,0,0,0,0.001,0c0.38,0,0.728,0.216,0.896,0.557l2.212,4.474l4.947,0.724c0.377,0.055,0.689,0.319,0.807,0.681s0.02,0.759-0.253,1.024l-3.578,3.488l0.854,4.925c0.065,0.375-0.089,0.755-0.396,0.979C21.314,20.719,21.107,20.783,20.9,20.783z M16,16.205c0.16,0,0.32,0.038,0.466,0.115l3.102,1.632l-0.597-3.442c-0.057-0.325,0.051-0.657,0.287-0.887l2.507-2.443L18.3,10.672c-0.325-0.047-0.606-0.251-0.752-0.546L16.002,7l-1.538,3.125c-0.146,0.295-0.427,0.5-0.753,0.548l-3.471,0.506l2.513,2.442c0.237,0.23,0.345,0.562,0.289,0.886l-0.591,3.441l3.082-1.628C15.679,16.244,15.839,16.205,16,16.205z M13.567,9.683h0.01H13.567z"/><path d="M5.333,32c-0.278,0-0.551-0.116-0.746-0.333c-0.295-0.329-0.338-0.812-0.107-1.189l3.834-6.256H3c-1.654,0-3-1.346-3-3V3c0-1.654,1.346-3,3-3h26c1.654,0,3,1.346,3,3v18.222c0,1.654-1.346,3-3,3h-6.877L5.758,31.905C5.622,31.969,5.477,32,5.333,32z M3,2C2.449,2,2,2.449,2,3v18.222c0,0.552,0.449,1,1,1h7.1c0.362,0,0.696,0.195,0.873,0.512c0.177,0.315,0.169,0.702-0.02,1.011L7.93,28.676l13.545-6.359c0.133-0.062,0.278-0.095,0.425-0.095H29c0.552,0,1-0.448,1-1V3c0-0.551-0.448-1-1-1H3z"/></svg>