<svg xmlns="http://www.w3.org/2000/svg" viewBox="0 0 32 32"><!--! Font Icona - https://fonticona.com | License - https://fonticona.com/license | Copyright 2022 FontIcona.com --><path d="M18.968,29.123c-0.329,0-0.662-0.019-0.997-0.059c-2.238-0.265-4.236-1.383-5.624-3.15c-1.383-1.758-1.995-3.949-1.726-6.169c0,0,0,0,0.001,0c0.559-4.589,4.775-7.877,9.368-7.335c2.238,0.265,4.236,1.383,5.624,3.15c1.382,1.758,1.994,3.949,1.724,6.169C26.821,25.984,23.17,29.123,18.968,29.123z M12.606,19.987c-0.204,1.688,0.262,3.354,1.312,4.691c1.058,1.346,2.579,2.198,4.286,2.399c3.524,0.415,6.724-2.094,7.147-5.591c0.206-1.688-0.26-3.354-1.311-4.691c-1.058-1.346-2.58-2.198-4.286-2.399C16.242,13.982,13.033,16.488,12.606,19.987L12.606,19.987z"/><path d="M18.018,32c-0.498,0-1.001-0.03-1.508-0.09c-3.543-0.423-6.548-2.42-9.458-6.285c-0.536-0.711-0.952-1.511-1.288-2.199c-0.771-1.58-1.386-3.24-1.936-4.798c-0.085-0.241-0.185-0.487-0.285-0.737c-0.281-0.697-0.601-1.487-0.681-2.316c-0.038-0.391,0.156-0.768,0.497-0.963c0.339-0.195,0.763-0.174,1.082,0.055l1.886,1.357c0.387,0.286,1.263,0.546,1.661,0.509c-0.002-0.013-0.003-0.027-0.006-0.043c-0.12-0.843-0.844-1.534-1.61-2.267c-0.247-0.237-0.49-0.47-0.714-0.707l-0.095-0.101c-0.714-0.756-1.522-1.613-2.114-2.552C0.502,6.186,1.573,1.007,1.62,0.789c0.095-0.437,0.468-0.758,0.914-0.787C3.001-0.024,3.392,0.246,3.54,0.666c1.417,4,10.128,6.79,15.055,7.937c-0.206-0.274-0.264-0.643-0.132-0.974c0.168-0.42,0.605-0.671,1.044-0.625c3.34,0.399,6.324,2.069,8.403,4.702c2.08,2.634,3.005,5.917,2.604,9.245C29.748,27.312,24.298,32,18.018,32z M5.721,17.979c0.528,1.498,1.116,3.086,1.84,4.57c0.295,0.603,0.654,1.297,1.089,1.873c0,0,0,0,0,0c2.56,3.4,5.133,5.148,8.097,5.502c5.809,0.701,11.087-3.44,11.782-9.212c0.337-2.795-0.44-5.553-2.188-7.767c-1.307-1.655-3.038-2.857-5.003-3.5c0.012,0.293-0.037,0.6-0.169,0.914c-0.182,0.432-0.642,0.681-1.104,0.596c-0.561-0.104-11.91-2.254-16.65-6.984c0.073,1.652,0.461,3.816,1.727,5.826c0.488,0.775,1.194,1.522,1.877,2.246l0.095,0.101c0.2,0.212,0.42,0.421,0.643,0.634c0.932,0.892,1.989,1.902,2.208,3.43c0.181,1.265-0.53,1.836-0.844,2.023C8.135,18.819,6.652,18.438,5.721,17.979z"/></svg>