<svg xmlns="http://www.w3.org/2000/svg" viewBox="0 0 32 32"><!--! Font Icona - https://fonticona.com | License - https://fonticona.com/license | Copyright 2022 FontIcona.com --><path d="M21.47,30.786H6.438c-0.89,0-1.729-0.392-2.3-1.073c-0.572-0.683-0.81-1.576-0.654-2.453L7.901,2.474C8.157,1.04,9.399,0,10.855,0h6.198c1.456,0,2.698,1.04,2.953,2.474l4.417,24.786c0.156,0.877-0.082,1.771-0.654,2.453C23.198,30.395,22.36,30.786,21.47,30.786z M10.855,2C10.37,2,9.956,2.347,9.87,2.825L5.453,27.611c-0.071,0.399,0.106,0.684,0.218,0.816c0.112,0.134,0.361,0.358,0.767,0.358H21.47c0.406,0,0.654-0.225,0.766-0.357c0.112-0.134,0.29-0.418,0.218-0.817L18.037,2.825C17.952,2.347,17.538,2,17.053,2H10.855z"/><rect x="5.172" y="22.487" width="17.549" height="2"/><path d="M26.598,3.857c-0.178,0-0.359-0.048-0.522-0.147c-0.471-0.289-0.618-0.904-0.33-1.375l0.964-1.572c0.289-0.47,0.906-0.616,1.375-0.33c0.471,0.289,0.618,0.904,0.33,1.375L27.451,3.38C27.262,3.688,26.934,3.857,26.598,3.857z"/><path d="M13.945,24.487c-0.178,0-0.359-0.048-0.522-0.147c-0.471-0.289-0.618-0.904-0.33-1.375L23.554,5.91c0.289-0.471,0.906-0.617,1.375-0.33c0.471,0.289,0.618,0.904,0.33,1.375L14.799,24.01C14.61,24.317,14.282,24.487,13.945,24.487z"/><path d="M25.461,7.726c-1.71,0-3.102-1.392-3.102-3.102c0-1.711,1.391-3.103,3.102-3.103s3.102,1.392,3.102,3.103C28.563,6.334,27.171,7.726,25.461,7.726z M25.461,3.521c-0.607,0-1.102,0.494-1.102,1.103c0,0.607,0.494,1.102,1.102,1.102c0.608,0,1.102-0.494,1.102-1.102C26.563,4.016,26.069,3.521,25.461,3.521z"/><path d="M19.176,6.129H8.444c-0.552,0-1-0.447-1-1s0.448-1,1-1h10.732c0.552,0,1,0.447,1,1S19.729,6.129,19.176,6.129z"/><path d="M10.523,32H6.675c-0.552,0-1-0.447-1-1v-1.214c0-0.553,0.448-1,1-1s1,0.447,1,1V30h1.848v-0.214c0-0.553,0.448-1,1-1s1,0.447,1,1V31C11.523,31.553,11.075,32,10.523,32z"/><path d="M21.232,32h-3.848c-0.552,0-1-0.447-1-1v-1.214c0-0.553,0.448-1,1-1s1,0.447,1,1V30h1.848v-0.214c0-0.553,0.448-1,1-1s1,0.447,1,1V31C22.232,31.553,21.784,32,21.232,32z"/></svg>