<svg xmlns="http://www.w3.org/2000/svg" viewBox="0 0 32 32"><!--! Font Icona - https://fonticona.com | License - https://fonticona.com/license | Copyright 2022 FontIcona.com --><path d="M24.804,27.804H7.196c-1.654,0-3-1.346-3-3V7.196c0-1.654,1.346-3,3-3h17.608c1.654,0,3,1.346,3,3v17.608C27.804,26.458,26.458,27.804,24.804,27.804z M7.196,6.196c-0.551,0-1,0.449-1,1v17.608c0,0.552,0.449,1,1,1h17.608c0.551,0,1-0.448,1-1V7.196c0-0.551-0.449-1-1-1H7.196z"/><path d="M19.785,22.784h-7.569c-1.654,0-3-1.346-3-3v-7.569c0-1.654,1.346-3,3-3h7.569c1.654,0,3,1.346,3,3v7.569C22.785,21.438,21.439,22.784,19.785,22.784z M12.215,11.215c-0.551,0-1,0.449-1,1v7.569c0,0.552,0.449,1,1,1h7.569c0.551,0,1-0.448,1-1v-7.569c0-0.551-0.449-1-1-1H12.215z"/><path d="M23.754,6.196c-0.552,0-1-0.448-1-1V1c0-0.552,0.448-1,1-1s1,0.448,1,1v4.196C24.754,5.748,24.306,6.196,23.754,6.196z"/><path d="M18.584,6.196c-0.552,0-1-0.448-1-1V1c0-0.552,0.448-1,1-1s1,0.448,1,1v4.196C19.584,5.748,19.137,6.196,18.584,6.196z"/><path d="M13.416,6.196c-0.552,0-1-0.448-1-1V1c0-0.552,0.448-1,1-1s1,0.448,1,1v4.196C14.416,5.748,13.968,6.196,13.416,6.196z"/><path d="M8.246,6.196c-0.552,0-1-0.448-1-1V1c0-0.552,0.448-1,1-1s1,0.448,1,1v4.196C9.246,5.748,8.798,6.196,8.246,6.196z"/><path d="M23.754,32c-0.552,0-1-0.447-1-1v-4.196c0-0.553,0.448-1,1-1s1,0.447,1,1V31C24.754,31.553,24.306,32,23.754,32z"/><path d="M18.584,32c-0.552,0-1-0.447-1-1v-4.196c0-0.553,0.448-1,1-1s1,0.447,1,1V31C19.584,31.553,19.137,32,18.584,32z"/><path d="M13.416,32c-0.552,0-1-0.447-1-1v-4.196c0-0.553,0.448-1,1-1s1,0.447,1,1V31C14.416,31.553,13.968,32,13.416,32z"/><path d="M8.246,32c-0.552,0-1-0.447-1-1v-4.196c0-0.553,0.448-1,1-1s1,0.447,1,1V31C9.246,31.553,8.798,32,8.246,32z"/><path d="M31,24.754h-4.196c-0.552,0-1-0.447-1-1s0.448-1,1-1H31c0.552,0,1,0.447,1,1S31.552,24.754,31,24.754z"/><path d="M31,19.585h-4.196c-0.552,0-1-0.447-1-1s0.448-1,1-1H31c0.552,0,1,0.447,1,1S31.552,19.585,31,19.585z"/><path d="M31,14.416h-4.196c-0.552,0-1-0.448-1-1s0.448-1,1-1H31c0.552,0,1,0.448,1,1S31.552,14.416,31,14.416z"/><path d="M31,9.246h-4.196c-0.552,0-1-0.448-1-1s0.448-1,1-1H31c0.552,0,1,0.448,1,1S31.552,9.246,31,9.246z"/><path d="M5.196,24.754H1c-0.552,0-1-0.447-1-1s0.448-1,1-1h4.196c0.552,0,1,0.447,1,1S5.748,24.754,5.196,24.754z"/><path d="M5.196,19.585H1c-0.552,0-1-0.447-1-1s0.448-1,1-1h4.196c0.552,0,1,0.447,1,1S5.748,19.585,5.196,19.585z"/><path d="M5.196,14.416H1c-0.552,0-1-0.448-1-1s0.448-1,1-1h4.196c0.552,0,1,0.448,1,1S5.748,14.416,5.196,14.416z"/><path d="M5.196,9.246H1c-0.552,0-1-0.448-1-1s0.448-1,1-1h4.196c0.552,0,1,0.448,1,1S5.748,9.246,5.196,9.246z"/></svg>