<svg xmlns="http://www.w3.org/2000/svg" viewBox="0 0 32 32"><!--! Font Icona - https://fonticona.com | License - https://fonticona.com/license | Copyright 2022 FontIcona.com --><path d="M16.811,26.568c-2.212,0-4.274-0.879-5.807-2.475c-0.383-0.398-0.37-1.031,0.028-1.414c0.397-0.381,1.03-0.371,1.414,0.029c1.152,1.199,2.702,1.859,4.365,1.859c3.338,0,6.053-2.716,6.053-6.054c0-2.28-1.017-4.108-2.863-5.147c-0.481-0.271-0.652-0.88-0.381-1.361c0.27-0.481,0.88-0.654,1.362-0.381c2.468,1.388,3.883,3.899,3.883,6.89C24.864,22.955,21.251,26.568,16.811,26.568z"/><path d="M15.103,24.143H8.347c-0.552,0-1-0.447-1-1s0.448-1,1-1h6.756c0.552,0,1,0.447,1,1S15.655,24.143,15.103,24.143z"/><path d="M18.562,32c-0.453,0-0.864-0.311-0.972-0.771l-1.229-5.213c-0.127-0.537,0.206-1.076,0.744-1.203c0.536-0.122,1.076,0.207,1.203,0.744l1.229,5.213c0.127,0.537-0.206,1.076-0.744,1.203C18.715,31.991,18.638,32,18.562,32z"/><path d="M23.776,32H8.136c-0.552,0-1-0.447-1-1s0.448-1,1-1h15.64c0.552,0,1,0.447,1,1S24.329,32,23.776,32z"/><path d="M18.212,15.22c-1.021,0-1.968-0.479-2.598-1.315c-0.332-0.44-0.244-1.067,0.197-1.4c0.443-0.333,1.068-0.243,1.401,0.197c0.248,0.329,0.613,0.519,1,0.519c0.705,0,1.278-0.573,1.278-1.277c0-0.705-0.573-1.278-1.278-1.278c-0.044,0-0.088,0.005-0.13,0.012c-0.548,0.097-1.061-0.272-1.154-0.817c-0.093-0.544,0.273-1.061,0.817-1.153c0.152-0.026,0.308-0.041,0.467-0.041c1.808,0,3.278,1.471,3.278,3.278S20.02,15.22,18.212,15.22z"/><path d="M13.567,16.699c-0.472,0-0.941-0.11-1.375-0.328l-1.141-0.572c-1.513-0.761-2.126-2.609-1.367-4.122l3.144-6.261c0.368-0.733,1-1.279,1.778-1.537c0.779-0.259,1.611-0.197,2.345,0.171l1.14,0.572c1.513,0.761,2.126,2.609,1.367,4.122l-3.144,6.261c-0.368,0.733-1,1.279-1.778,1.537C14.218,16.647,13.892,16.699,13.567,16.699z M15.574,5.722c-0.113,0-0.227,0.018-0.338,0.055c-0.271,0.09-0.492,0.28-0.62,0.536l-3.144,6.26c-0.265,0.528-0.051,1.173,0.477,1.438l1.14,0.572c0,0,0,0,0.001,0c0.255,0.129,0.545,0.151,0.817,0.06c0.271-0.09,0.492-0.28,0.62-0.536l3.144-6.26c0.265-0.528,0.051-1.173-0.477-1.438l-1.14-0.572C15.902,5.76,15.738,5.722,15.574,5.722z"/><path d="M11.078,19.781c-0.371,0-0.74-0.086-1.082-0.258c-1.19-0.598-1.672-2.051-1.075-3.24l1.072-2.135c0.248-0.492,0.848-0.691,1.342-0.444l2.528,1.27c0.494,0.248,0.693,0.849,0.445,1.342l-1.071,2.134c-0.29,0.577-0.786,1.006-1.398,1.209C11.589,19.74,11.333,19.781,11.078,19.781z M11.332,15.94l-0.623,1.24c-0.067,0.133-0.043,0.255-0.023,0.315c0.021,0.061,0.074,0.173,0.208,0.24c0.133,0.066,0.255,0.042,0.317,0.023c0.061-0.021,0.173-0.074,0.24-0.207l0.623-1.24L11.332,15.94z"/><path d="M20.842,4.013c-0.151,0-0.304-0.034-0.448-0.106l-4.009-2.014c-0.494-0.248-0.693-0.849-0.445-1.343c0.248-0.493,0.848-0.692,1.342-0.444l4.009,2.014c0.494,0.248,0.693,0.849,0.445,1.343C21.561,3.812,21.208,4.013,20.842,4.013z"/><path d="M17.217,6.234c-0.15,0-0.304-0.034-0.448-0.106c-0.494-0.248-0.693-0.849-0.445-1.342l1.567-3.121c0.247-0.493,0.848-0.694,1.342-0.445c0.494,0.248,0.693,0.849,0.445,1.342l-1.567,3.121C17.936,6.032,17.583,6.234,17.217,6.234z"/></svg>