<svg xmlns="http://www.w3.org/2000/svg" viewBox="0 0 32 32"><!--! Font Icona - https://fonticona.com | License - https://fonticona.com/license | Copyright 2022 FontIcona.com --><path d="M8.594,27.447c-0.563,0-1.127-0.158-1.62-0.479c-0.789-0.514-1.475-1.223-1.982-2.05c-0.67-1.092-0.524-2.543,0.353-3.53c2.175-2.444,4.176-4.809,6.11-7.096c1.883-2.225,3.661-4.327,5.519-6.41c0.367-0.413,1.001-0.448,1.411-0.081c0.413,0.368,0.449,1,0.081,1.412c-1.839,2.063-3.609,4.156-5.483,6.371c-1.943,2.296-3.952,4.67-6.144,7.133c-0.296,0.333-0.355,0.808-0.143,1.154c0.354,0.576,0.827,1.067,1.37,1.42c0.372,0.243,0.872,0.198,1.213-0.106c2.505-2.228,4.916-4.284,7.247-6.272c2.167-1.848,4.214-3.593,6.246-5.397c0.411-0.367,1.045-0.33,1.412,0.084c0.366,0.413,0.329,1.045-0.084,1.412c-2.048,1.817-4.102,3.568-6.276,5.423c-2.323,1.981-4.727,4.03-7.216,6.245C10.037,27.188,9.315,27.447,8.594,27.447z"/><path d="M24.361,15.255c-0.607,0-1.224-0.073-1.839-0.226c-1.977-0.492-3.645-1.724-4.694-3.469c-1.051-1.745-1.358-3.795-0.867-5.772c0.491-1.977,1.723-3.644,3.468-4.695c1.746-1.05,3.798-1.357,5.772-0.867c4.08,1.015,6.575,5.16,5.562,9.24C30.902,12.933,27.782,15.255,24.361,15.255z M24.352,2c-1.01,0-2.004,0.274-2.892,0.808c-1.287,0.775-2.195,2.005-2.558,3.463c-0.362,1.459-0.136,2.971,0.639,4.259c0.775,1.288,2.005,2.196,3.464,2.559c3.005,0.75,6.069-1.091,6.817-4.103c0.748-3.011-1.093-6.069-4.104-6.817C25.266,2.055,24.807,2,24.352,2z"/><path d="M29.043,13.31c-0.179,0-0.358-0.047-0.522-0.147c-3.929-2.411-7.28-5.763-9.694-9.694c-0.289-0.471-0.142-1.087,0.329-1.375c0.469-0.29,1.085-0.142,1.376,0.329c2.249,3.665,5.374,6.789,9.036,9.036c0.471,0.289,0.618,0.905,0.329,1.375C29.708,13.14,29.379,13.31,29.043,13.31z"/><path d="M1.011,32c-0.256,0-0.511-0.097-0.706-0.292c-0.392-0.39-0.392-1.023-0.002-1.415l5.456-5.468c0.391-0.391,1.023-0.391,1.414-0.001c0.392,0.39,0.392,1.023,0.002,1.415l-5.456,5.468C1.523,31.902,1.267,32,1.011,32z"/></svg>