<svg xmlns="http://www.w3.org/2000/svg" viewBox="0 0 32 32"><!--! Font Icona - https://fonticona.com | License - https://fonticona.com/license | Copyright 2022 FontIcona.com --><path d="M15.998,32c-0.553,0-1-0.447-1-1v-5.967c0-0.553,0.447-1,1-1s1,0.447,1,1V31C16.998,31.553,16.551,32,15.998,32z"/><path d="M20.254,32h-8.5c-0.553,0-1-0.447-1-1s0.447-1,1-1h8.5c0.553,0,1,0.447,1,1S20.807,32,20.254,32z"/><path d="M15.978,21.953c-2.49,0-4.649-1.868-4.95-4.401c-0.005-0.039-0.007-0.079-0.007-0.118V4.878C11.059,2.162,13.26,0,15.942,0c0.024,0,0.047,0.002,0.077,0c2.687,0,4.893,2.178,4.923,4.866v12.567c0,0.039-0.002,0.078-0.007,0.117c-0.272,2.298-2.067,4.094-4.366,4.367C16.37,21.941,16.173,21.953,15.978,21.953z M13.021,17.37c0.221,1.609,1.699,2.762,3.312,2.562c1.359-0.161,2.425-1.211,2.609-2.562V4.878C18.925,3.293,17.614,2,16.02,2c-0.009-0.001-0.019-0.001-0.021,0c-0.019-0.001-0.038,0-0.057,0c-1.593,0-2.899,1.283-2.922,2.88V17.37z"/><path d="M15.994,25.526c-0.347,0-0.695-0.021-1.045-0.061c-2.397-0.273-4.544-1.465-6.046-3.354c-2.03-2.454-2.029-5.284-2.027-8.021v-0.235c0-0.553,0.447-1,1-1s1,0.447,1,1v0.236c-0.002,2.6-0.003,4.846,1.581,6.76c1.182,1.486,2.854,2.414,4.72,2.628c1.857,0.208,3.703-0.312,5.175-1.482c0.542-0.431,1.018-0.938,1.413-1.51c1.396-2.009,1.376-4.25,1.355-6.623c-0.005-0.553,0.439-1.004,0.991-1.009c0.003,0,0.006,0,0.009,0c0.549,0,0.995,0.442,1,0.991c0.022,2.582,0.045,5.251-1.712,7.779c-0.506,0.732-1.116,1.385-1.812,1.938C19.982,24.846,18.024,25.525,15.994,25.526z"/><path d="M12.021,17H8.476c-0.553,0-1-0.447-1-1s0.447-1,1-1h3.545c0.553,0,1,0.447,1,1S12.573,17,12.021,17z"/><path d="M24.12,17h-4.145c-0.553,0-1-0.447-1-1s0.447-1,1-1h4.145c0.553,0,1,0.447,1,1S24.673,17,24.12,17z"/><path d="M19.942,6.612h-2.187c-0.553,0-1-0.447-1-1s0.447-1,1-1h2.187c0.553,0,1,0.447,1,1S20.495,6.612,19.942,6.612z"/><path d="M19.942,14.399h-2.187c-0.553,0-1-0.447-1-1s0.447-1,1-1h2.187c0.553,0,1,0.447,1,1S20.495,14.399,19.942,14.399z"/><path d="M19.942,10.506h-2.187c-0.553,0-1-0.447-1-1s0.447-1,1-1h2.187c0.553,0,1,0.447,1,1S20.495,10.506,19.942,10.506z"/></svg>