<svg xmlns="http://www.w3.org/2000/svg" viewBox="0 0 32 32"><!--! Font Icona - https://fonticona.com | License - https://fonticona.com/license | Copyright 2022 FontIcona.com --><path d="M21.422,14.091c-1.882,0-3.651-0.732-4.982-2.063c-1.331-1.33-2.063-3.1-2.063-4.981s0.733-3.651,2.063-4.982c1.331-1.331,3.1-2.064,4.982-2.064c1.882,0,3.651,0.733,4.982,2.064c1.331,1.331,2.064,3.101,2.064,4.982s-0.733,3.651-2.064,4.981l0,0l0,0C25.073,13.359,23.304,14.091,21.422,14.091z M21.422,1.999c-1.348,0-2.615,0.525-3.568,1.479c-0.953,0.953-1.478,2.221-1.478,3.568s0.525,2.614,1.478,3.567c0.953,0.953,2.221,1.478,3.568,1.478s2.615-0.524,3.568-1.478l0,0c0.953-0.953,1.478-2.22,1.478-3.567s-0.525-2.615-1.478-3.568S22.77,1.999,21.422,1.999z"/><path d="M25.103,12.6c-4.47-1.224-8.006-4.76-9.229-9.229l1.929-0.527c1.037,3.791,4.037,6.79,7.828,7.827L25.103,12.6z"/><path d="M7.472,24.267c-0.642,0-1.282-0.243-1.759-0.72l-0.832-0.831c-0.892-0.892-0.964-2.354-0.165-3.33l9.916-12.104l1.547,1.268L6.263,20.654c-0.143,0.174-0.127,0.489,0.032,0.648l0.832,0.831c0.159,0.158,0.474,0.175,0.649,0.031l12.102-9.915l1.268,1.547L9.042,23.712C8.588,24.083,8.03,24.267,7.472,24.267z"/><path d="M9.392,20.036c-0.256,0-0.512-0.098-0.707-0.293c-0.391-0.391-0.391-1.023,0-1.414l1.749-1.749c0.391-0.391,1.023-0.391,1.414,0s0.391,1.023,0,1.414l-1.749,1.749C9.904,19.939,9.648,20.036,9.392,20.036z"/><path d="M16.925,16.671c-2.474-0.762-4.406-2.692-5.167-5.167l1.911-0.588c0.566,1.84,2.003,3.277,3.843,3.843L16.925,16.671z"/><path d="M9.556,32c-1.609,0-3.122-0.627-4.259-1.765c-2.349-2.349-2.349-6.17,0-8.519c0.391-0.391,1.023-0.391,1.414,0s0.391,1.023,0,1.414c-1.569,1.569-1.569,4.121,0,5.69C7.471,29.581,8.481,30,9.556,30s2.085-0.419,2.845-1.179c0.038-0.038,0.079-0.072,0.121-0.104c2.364-2.077,5.978-1.988,8.233,0.268c0.391,0.391,0.391,1.023,0,1.414s-1.023,0.391-1.414,0c-1.569-1.568-4.121-1.568-5.69,0c-0.038,0.038-0.078,0.072-0.12,0.103C12.432,31.471,11.034,32,9.556,32z"/></svg>