<svg xmlns="http://www.w3.org/2000/svg" viewBox="0 0 32 32"><!--! Font Icona - https://fonticona.com | License - https://fonticona.com/license | Copyright 2022 FontIcona.com --><path d="M8.594,27.447c-0.563,0-1.127-0.157-1.62-0.479c-0.788-0.513-1.475-1.222-1.982-2.05c-0.67-1.092-0.524-2.542,0.352-3.529c2.174-2.442,4.173-4.805,6.105-7.089c1.885-2.228,3.665-4.331,5.524-6.416c0.367-0.414,1.001-0.447,1.411-0.081c0.413,0.367,0.449,0.999,0.081,1.411c-1.841,2.066-3.613,4.16-5.489,6.378c-1.941,2.293-3.948,4.665-6.138,7.126c-0.296,0.333-0.354,0.808-0.143,1.154c0.354,0.575,0.827,1.067,1.37,1.42c0.372,0.243,0.872,0.199,1.213-0.106c2.506-2.228,4.916-4.284,7.248-6.272c2.167-1.847,4.213-3.592,6.245-5.396c0.411-0.367,1.045-0.33,1.412,0.084c0.366,0.413,0.329,1.046-0.084,1.412c-2.048,1.816-4.102,3.567-6.275,5.422c-2.324,1.981-4.727,4.03-7.218,6.245C10.037,27.188,9.315,27.447,8.594,27.447z"/><path d="M24.376,15.257c-0.617,0-1.239-0.075-1.854-0.228c-1.977-0.491-3.645-1.724-4.694-3.469c-1.051-1.745-1.358-3.796-0.867-5.772s1.723-3.644,3.468-4.694c1.746-1.051,3.798-1.357,5.772-0.867c4.08,1.015,6.576,5.159,5.562,9.24c-0.491,1.977-1.724,3.645-3.469,4.695C27.092,14.886,25.744,15.257,24.376,15.257z M24.352,1.999c-1.01,0-2.004,0.274-2.892,0.809c-1.287,0.774-2.195,2.005-2.558,3.463c-0.362,1.459-0.136,2.971,0.64,4.259c0.774,1.287,2.004,2.196,3.463,2.559c1.459,0.365,2.972,0.135,4.259-0.64c1.287-0.775,2.196-2.005,2.559-3.464c0.748-3.011-1.093-6.068-4.104-6.816C25.266,2.055,24.807,1.999,24.352,1.999z"/><path d="M29.043,13.31c-0.179,0-0.358-0.048-0.522-0.147c-3.928-2.411-7.28-5.763-9.694-9.693c-0.289-0.471-0.142-1.087,0.329-1.376c0.469-0.288,1.085-0.143,1.376,0.329c2.249,3.664,5.374,6.788,9.036,9.035c0.471,0.289,0.618,0.905,0.329,1.376C29.708,13.141,29.379,13.31,29.043,13.31z"/><path d="M1.011,32c-0.256,0-0.511-0.098-0.706-0.292c-0.392-0.391-0.392-1.023-0.002-1.414l5.456-5.468c0.391-0.393,1.023-0.391,1.414-0.002c0.392,0.391,0.392,1.023,0.002,1.414l-5.456,5.468C1.523,31.902,1.267,32,1.011,32z"/><path d="M31,32c-0.256,0-0.512-0.098-0.707-0.293l-30-30c-0.391-0.391-0.391-1.023,0-1.414s1.023-0.391,1.414,0l30,30c0.391,0.391,0.391,1.023,0,1.414C31.512,31.902,31.256,32,31,32z"/></svg>