<svg xmlns="http://www.w3.org/2000/svg" viewBox="0 0 32 32"><!--! Font Icona - https://fonticona.com | License - https://fonticona.com/license | Copyright 2022 FontIcona.com --><path d="M19.263,26.631c-2.562,0-5.125-0.248-7.724-0.743c-0.136-0.026-0.266-0.08-0.38-0.159c-1.967-1.355-3.928-3.075-5.995-5.258l-0.148-0.156c-1.509-1.589-4.035-4.249-2.413-7.135c0.746-1.326,1.8-1.732,2.552-1.839c1.689-0.239,3.402,0.767,4.442,1.788c0.113,0.111,0.239,0.246,0.378,0.396c0.023,0.025,0.047,0.051,0.071,0.077C9.726,8.914,9.559,2.457,14.735,0.648c1.448-0.505,3.315-0.73,5.123-0.621c3.028,0.185,5.838,1.693,7.912,4.249c2.841,3.498,2.647,12.672,0.696,18.718l-0.715,2.218c-0.112,0.349-0.405,0.607-0.764,0.676C24.388,26.383,21.826,26.631,19.263,26.631z M12.122,23.962c4.678,0.867,9.237,0.89,13.91,0.067l0.532-1.648c1.753-5.435,1.984-13.976-0.346-16.844c-1.717-2.116-4.019-3.363-6.481-3.514c-1.528-0.093-3.153,0.099-4.341,0.514c-4.04,1.411-3.61,7.38-3.296,11.738c0.023,0.322,0.045,0.634,0.065,0.931c0.559,0.214,1.218,0.313,2.013,0.209c0.549-0.074,1.049,0.312,1.122,0.861c0.072,0.547-0.314,1.05-0.861,1.121c-3.21,0.425-4.981-1.487-5.93-2.514c-0.116-0.125-0.219-0.237-0.312-0.329c-0.864-0.849-1.976-1.349-2.759-1.233c-0.452,0.063-0.808,0.338-1.09,0.839c-0.831,1.479,0.468,3.038,2.12,4.777l0.15,0.158C8.525,21.11,10.328,22.704,12.122,23.962z"/><path d="M24.246,32H14.28c-1.959,0-3.553-1.6-3.553-3.566v-3.528h2v3.528c0,0.863,0.697,1.566,1.553,1.566h9.966c0.856,0,1.553-0.703,1.553-1.566v-3.528h2v3.528C27.799,30.4,26.206,32,24.246,32z"/><path d="M22.061,32c-0.552,0-1-0.447-1-1v-5.371c0-0.553,0.448-1,1-1s1,0.447,1,1V31C23.061,31.553,22.613,32,22.061,32z"/><path d="M16.759,31.847c-0.548,0-0.995-0.441-1-0.991l-0.047-5.218c-0.005-0.552,0.439-1.004,0.991-1.009c0.003,0,0.006,0,0.009,0c0.548,0,0.995,0.441,1,0.991l0.047,5.218c0.005,0.552-0.439,1.004-0.991,1.009C16.765,31.847,16.762,31.847,16.759,31.847z"/></svg>