<svg xmlns="http://www.w3.org/2000/svg" viewBox="0 0 32 32"><!--! Font Icona - https://fonticona.com | License - https://fonticona.com/license | Copyright 2022 FontIcona.com --><path d="M4,32c-2.206,0-4-1.96-4-4.369V2.837C0,1.273,1.183,0,2.637,0h26.727C30.817,0,32,1.273,32,2.837v16.186c0,2.409-1.794,4.369-4,4.369s-4-1.96-4-4.369v-4.479c0-1.306-0.897-2.368-2-2.368s-2,1.062-2,2.368v10.011c0,2.409-1.794,4.369-4,4.369s-4-1.96-4-4.369v-11.14c0-1.307-0.897-2.369-2-2.369s-2,1.062-2,2.369v14.216C8,30.04,6.206,32,4,32z M2.637,2C2.292,2,2,2.383,2,2.837v24.794C2,28.938,2.897,30,4,30s2-1.062,2-2.369V13.415c0-2.409,1.794-4.369,4-4.369s4,1.96,4,4.369v11.14c0,1.307,0.897,2.369,2,2.369s2-1.062,2-2.369V14.544c0-2.408,1.794-4.368,4-4.368s4,1.96,4,4.368v4.479c0,1.307,0.897,2.369,2,2.369s2-1.062,2-2.369V2.837C30,2.383,29.708,2,29.363,2H2.637z"/></svg>