<svg xmlns="http://www.w3.org/2000/svg" viewBox="0 0 32 32"><!--! Font Icona - https://fonticona.com | License - https://fonticona.com/license | Copyright 2022 FontIcona.com --><path d="M22.45,32H9.55c-1.654,0-3-1.346-3-3V3c0-1.654,1.346-3,3-3h12.9c1.654,0,3,1.346,3,3v26C25.45,30.654,24.104,32,22.45,32z M9.55,2c-0.552,0-1,0.448-1,1v26c0,0.552,0.448,1,1,1h12.9c0.552,0,1-0.448,1-1V3c0-0.552-0.448-1-1-1H9.55z"/><circle cx="16" cy="27.773" r="1.25"/><path d="M17,5.228h-2c-0.553,0-1-0.447-1-1s0.447-1,1-1h2c0.553,0,1,0.447,1,1S17.553,5.228,17,5.228z"/></svg>