<svg xmlns="http://www.w3.org/2000/svg" viewBox="0 0 32 32"><!--! Font Icona - https://fonticona.com | License - https://fonticona.com/license | Copyright 2022 FontIcona.com --><path d="M7.148,18.854c-0.196,0-0.389-0.058-0.555-0.168L3.6,16.691c-0.278-0.186-0.445-0.498-0.445-0.832V1c0-0.363,0.197-0.697,0.514-0.874C3.985-0.05,4.373-0.04,4.682,0.151l20.958,13.021c0.346,0.216,0.527,0.62,0.457,1.021c-0.07,0.402-0.377,0.721-0.776,0.806L7.357,18.831C7.288,18.847,7.218,18.854,7.148,18.854z M5.154,15.324l2.198,1.464l15.125-3.227L5.154,2.799V15.324z"/><path d="M16.666,28.91H1c-0.368,0-0.706-0.202-0.88-0.525c-0.174-0.323-0.157-0.717,0.045-1.023l6.523-9.923c0.14-0.214,0.357-0.366,0.606-0.425l17.59-4.148c0.39-0.09,0.8,0.059,1.037,0.384c0.237,0.324,0.257,0.76,0.05,1.104l-8.447,14.071C17.342,28.725,17.017,28.91,16.666,28.91z M2.854,26.91H16.1l6.936-11.554L8.14,18.868L2.854,26.91z"/><path d="M27.61,32c-0.183,0-0.365-0.05-0.526-0.149l-9.089-5.618c-0.463-0.286-0.612-0.892-0.334-1.36l6.84-11.544c0.162-0.272,0.442-0.452,0.758-0.485c0.313-0.028,0.626,0.087,0.841,0.32l2.25,2.461c0.168,0.185,0.262,0.425,0.262,0.675V31c0,0.362-0.196,0.697-0.513,0.873C27.946,31.958,27.778,32,27.61,32z M19.882,25.047l6.729,4.159v-12.52l-1.077-1.178L19.882,25.047z"/><path d="M24.928,14.839c-0.177,0-0.357-0.047-0.52-0.146L13.209,7.865c-0.24-0.146-0.407-0.387-0.461-0.662c-0.054-0.276,0.011-0.562,0.178-0.787l2.005-2.703c0.189-0.254,0.487-0.404,0.803-0.404c0,0,0,0,0,0L31,3.312c0.365,0,0.701,0.199,0.876,0.52c0.175,0.319,0.163,0.71-0.034,1.018l-6.071,9.527C25.582,14.675,25.259,14.839,24.928,14.839z M15.186,6.727l9.427,5.748l4.564-7.163L16.239,5.308L15.186,6.727z"/></svg>