<svg xmlns="http://www.w3.org/2000/svg" viewBox="0 0 32 32"><!--! Font Icona - https://fonticona.com | License - https://fonticona.com/license | Copyright 2022 FontIcona.com --><path d="M16,32C7.178,32,0,24.823,0,16S7.178,0,16,0s16,7.178,16,16S24.822,32,16,32z M16,2C8.28,2,2,8.281,2,16s6.28,14,14,14s14-6.28,14-14S23.72,2,16,2z"/><polygon points="28.723,23.73 22.502,23.73 22.502,12.554 15.658,22.012 8.814,12.554 8.814,23.73 2.593,23.73 2.593,21.73 6.814,21.73 6.814,6.378 15.658,18.6 24.502,6.378 24.502,21.73 28.723,21.73 "/></svg>