<svg xmlns="http://www.w3.org/2000/svg" viewBox="0 0 32 32"><!--! Font Icona - https://fonticona.com | License - https://fonticona.com/license | Copyright 2022 FontIcona.com --><path d="M28.954,25.286H3.046c-1.654,0-3-1.346-3-3V3c0-1.654,1.346-3,3-3h25.907c1.654,0,3,1.346,3,3v19.286C31.954,23.94,30.608,25.286,28.954,25.286z M3.046,2c-0.551,0-1,0.448-1,1v19.286c0,0.552,0.449,1,1,1h25.907c0.551,0,1-0.448,1-1V3c0-0.552-0.449-1-1-1H3.046z"/><path d="M22.461,32H9.539c-0.552,0-1-0.447-1-1s0.448-1,1-1h12.923c0.552,0,1,0.447,1,1S23.014,32,22.461,32z"/><path d="M16,32c-0.552,0-1-0.447-1-1v-6.714c0-0.553,0.448-1,1-1s1,0.447,1,1V31C17,31.553,16.552,32,16,32z"/><path d="M18.003,20.301c-0.027,0-0.054-0.001-0.081-0.003c-0.439-0.036-0.804-0.354-0.897-0.785l-2.063-9.526l-1.791,5.969c-0.114,0.38-0.441,0.656-0.833,0.705c-0.394,0.046-0.778-0.138-0.982-0.478l-2.227-3.706l-0.967,2.502c-0.148,0.386-0.52,0.64-0.933,0.64H1.064c-0.552,0-1-0.447-1-1s0.448-1,1-1h5.479L8,9.847c0.137-0.356,0.466-0.604,0.847-0.636C9.23,9.173,9.593,9.366,9.79,9.693l2.115,3.521l2.255-7.516c0.131-0.438,0.541-0.742,0.997-0.712C15.613,5.004,16,5.328,16.096,5.773l2.184,10.085l0.578-1.472c0.01-0.044,0.021-0.086,0.036-0.124l1.465-3.854c0.145-0.38,0.504-0.635,0.911-0.645c0.395-0.01,0.778,0.229,0.94,0.601l1.367,3.142l0.609-0.995c0.172-0.28,0.471-0.458,0.799-0.476c0.331-0.032,0.645,0.126,0.846,0.387l0.948,1.228h4.156c0.552,0,1,0.447,1,1s-0.448,1-1,1h-4.647c-0.31,0-0.602-0.144-0.792-0.389l-0.361-0.468l-0.854,1.396c-0.195,0.317-0.542,0.487-0.922,0.476c-0.372-0.026-0.699-0.257-0.848-0.599l-1.154-2.653l-0.556,1.461c-0.011,0.05-0.024,0.099-0.042,0.141l-1.827,4.65C18.782,20.052,18.411,20.301,18.003,20.301z"/></svg>