<svg xmlns="http://www.w3.org/2000/svg" viewBox="0 0 32 32"><!--! Font Icona - https://fonticona.com | License - https://fonticona.com/license | Copyright 2022 FontIcona.com --><path d="M13.797,24.314H3c-1.654,0-3-1.346-3-3V4.034c0-1.654,1.346-3,3-3h26c1.654,0,3,1.346,3,3v17.279c0,1.654-1.346,3-3,3H13.841C13.827,24.314,13.812,24.314,13.797,24.314z M3,3.034c-0.551,0-1,0.449-1,1v17.28c0,0.552,0.449,1,1,1h9.986c0.015-0.001,0.029-0.001,0.044-0.001H29c0.552,0,1-0.448,1-1V4.034c0-0.551-0.448-1-1-1H3z"/><path d="M15.866,30.966c-0.552,0-1-0.447-1-1v-6.651c0-0.553,0.448-1,1-1s1,0.447,1,1v6.651C16.866,30.519,16.418,30.966,15.866,30.966z"/><path d="M22.279,30.966H9.721c-0.552,0-1-0.447-1-1s0.448-1,1-1h12.558c0.553,0,1,0.447,1,1S22.832,30.966,22.279,30.966z"/><path d="M31,19.131H1c-0.552,0-1-0.447-1-1s0.448-1,1-1h30c0.553,0,1,0.447,1,1S31.553,19.131,31,19.131z"/></svg>