<svg xmlns="http://www.w3.org/2000/svg" viewBox="0 0 32 32"><!--! Font Icona - https://fonticona.com | License - https://fonticona.com/license | Copyright 2022 FontIcona.com --><ellipse cx="27.672" cy="5.201" rx="1.25" ry="1.25"/><ellipse cx="24.255" cy="5.201" rx="1.25" ry="1.25"/><path d="M16,18.603c-3.181,0-5.769-2.588-5.769-5.769c0-3.181,2.588-5.769,5.769-5.769c3.181,0,5.769,2.588,5.769,5.769C21.769,16.015,19.181,18.603,16,18.603z M16,9.065c-2.078,0-3.769,1.691-3.769,3.769s1.691,3.769,3.769,3.769s3.769-1.69,3.769-3.769S18.078,9.065,16,9.065z"/><path d="M16.006,19.911c-1.166,0-2.319-0.209-3.399-0.616c-1.673-0.621-3.222-1.517-4.6-2.659c-1.167-0.94-2.256-2.005-3.229-3.155c-0.042-0.04-0.126-0.145-0.199-0.256L4.18,12.609l0.715-0.866c1.463-1.698,3.149-3.154,5.025-4.345c1.252-0.815,2.634-1.4,4.1-1.734c1.91-0.406,3.857-0.229,5.649,0.505c1.542,0.617,2.978,1.471,4.262,2.534c1.197,0.952,2.321,2.042,3.323,3.228l0.634,0.844l-1.007,1.071c-0.368,0.395-0.737,0.791-1.122,1.175c-1.402,1.434-3.02,2.645-4.799,3.59c-1.202,0.633-2.492,1.048-3.838,1.236C16.75,19.89,16.377,19.911,16.006,19.911z M6.733,12.681c0.799,0.886,1.641,1.683,2.539,2.406c1.215,1.008,2.568,1.79,4.035,2.334c1.133,0.426,2.362,0.577,3.562,0.441c1.092-0.154,2.162-0.498,3.155-1.021c1.595-0.847,3.047-1.934,4.312-3.228c0.314-0.314,0.612-0.631,0.908-0.947c-0.775-0.855-1.646-1.674-2.574-2.412c-1.14-0.943-2.396-1.69-3.753-2.233c-1.427-0.585-2.971-0.724-4.468-0.405c-1.221,0.278-2.386,0.771-3.449,1.463C9.415,10.087,7.983,11.296,6.733,12.681z"/><path d="M13.797,24.314H3c-1.654,0-3-1.346-3-3V4.034c0-1.654,1.346-3,3-3h26c1.654,0,3,1.346,3,3v17.279c0,1.654-1.346,3-3,3H13.841C13.827,24.314,13.812,24.314,13.797,24.314z M3,3.034c-0.551,0-1,0.449-1,1v17.28c0,0.552,0.449,1,1,1h9.986c0.015-0.001,0.029-0.001,0.044-0.001H29c0.552,0,1-0.448,1-1V4.034c0-0.551-0.448-1-1-1H3z"/><path d="M15.866,30.966c-0.552,0-1-0.447-1-1v-6.651c0-0.553,0.448-1,1-1s1,0.447,1,1v6.651C16.866,30.519,16.418,30.966,15.866,30.966z"/><path d="M22.279,30.966H9.721c-0.552,0-1-0.447-1-1s0.448-1,1-1h12.558c0.553,0,1,0.447,1,1S22.832,30.966,22.279,30.966z"/></svg>