<svg xmlns="http://www.w3.org/2000/svg" viewBox="0 0 32 32"><!--! Font Icona - https://fonticona.com | License - https://fonticona.com/license | Copyright 2022 FontIcona.com --><path d="M21.313,25.449h-9.997c-0.284,0-0.555-0.121-0.745-0.333c-0.19-0.211-0.28-0.494-0.25-0.776l2.233-20.365c0.023-0.208,0.11-0.403,0.25-0.559l2.765-3.084c0.38-0.423,1.109-0.423,1.489,0l2.765,3.084c0.139,0.155,0.227,0.351,0.25,0.559l2.233,20.365c0.031,0.282-0.06,0.565-0.25,0.776C21.868,25.328,21.597,25.449,21.313,25.449z M12.432,23.449h7.765L18.121,4.512l-1.806-2.014l-1.806,2.014L12.432,23.449z"/><path d="M20.491,19.547h-8.352c-0.552,0-1-0.448-1-1s0.448-1,1-1h8.352c0.552,0,1,0.448,1,1S21.043,19.547,20.491,19.547z"/><path d="M19.08,7.772h-5.825c-0.552,0-1-0.448-1-1s0.448-1,1-1h5.825c0.552,0,1,0.448,1,1S19.632,7.772,19.08,7.772z"/><path d="M23.507,28.734H8.828c-0.552,0-1-0.448-1-1s0.448-1,1-1h14.679c0.552,0,1,0.448,1,1S24.059,28.734,23.507,28.734z"/><path d="M25.593,32H6.407c-0.552,0-1-0.448-1-1s0.448-1,1-1h19.187c0.552,0,1,0.448,1,1S26.146,32,25.593,32z"/></svg>