<svg xmlns="http://www.w3.org/2000/svg" viewBox="0 0 32 32"><!--! Font Icona - https://fonticona.com | License - https://fonticona.com/license | Copyright 2022 FontIcona.com --><path d="M16.814,32c-0.181,0-0.363-0.003-0.544-0.009c-4.262-0.148-8.21-1.959-11.118-5.099c-2.906-3.138-4.424-7.228-4.275-11.517C1.149,7.536,6.941,1.074,14.65,0.009c0.392-0.057,0.78,0.129,0.988,0.467s0.196,0.767-0.029,1.093c-1.607,2.325-2.837,5.347-3.133,7.699c-0.465,3.706,0.5,7.123,2.718,9.624c2.312,2.606,5.736,3.979,9.896,3.951c1.259-0.007,3.234-0.559,4.542-0.924l0.233-0.065c0.384-0.106,0.792,0.023,1.043,0.331c0.251,0.308,0.297,0.735,0.116,1.088C28.289,28.619,22.754,32,16.814,32z M12.722,2.478C7.104,4.207,3.087,9.35,2.876,15.443c-0.131,3.758,1.199,7.341,3.744,10.089c2.542,2.746,5.995,4.33,9.72,4.459c4.558,0.161,8.891-1.971,11.607-5.563c-0.984,0.229-2.006,0.411-2.846,0.415c-0.034,0-0.068,0-0.102,0c-4.645,0-8.654-1.64-11.301-4.625c-2.605-2.938-3.744-6.916-3.206-11.2l0,0C10.779,6.728,11.703,4.378,12.722,2.478z"/></svg>