<svg xmlns="http://www.w3.org/2000/svg" viewBox="0 0 32 32"><!--! Font Icona - https://fonticona.com | License - https://fonticona.com/license | Copyright 2022 FontIcona.com --><path d="M19.636,32h-6.143c-1.79,0-3.246-1.41-3.246-3.144v-0.351c0-0.095,0.004-0.189,0.013-0.283c-4.583-2.254-7.497-6.778-7.497-11.758c0-0.553,0.447-1,1-1h25.604c0.553,0,1,0.447,1,1c0,4.976-2.915,9.503-7.497,11.757c0.009,0.094,0.013,0.188,0.013,0.284v0.351C22.883,30.59,21.426,32,19.636,32z M12.275,28.259c-0.019,0.08-0.028,0.162-0.028,0.246v0.351c0,0.631,0.559,1.144,1.246,1.144h6.143c0.688,0,1.247-0.513,1.247-1.144v-0.351c0-0.135-0.024-0.266-0.073-0.388c-0.042-0.081-0.074-0.17-0.093-0.264c-0.094-0.467,0.152-0.936,0.592-1.119c3.964-1.656,6.631-5.228,7.012-9.271H4.81c0.381,4.056,3.06,7.632,7.04,9.283c0.441,0.183,0.691,0.651,0.598,1.119C12.419,28.012,12.358,28.145,12.275,28.259z"/><path d="M21.763,28.672H11.467c-0.553,0-1-0.447-1-1s0.447-1,1-1h10.296c0.553,0,1,0.447,1,1S22.315,28.672,21.763,28.672z"/><path d="M20.694,13.668c-0.028,0-0.057-0.001-0.085-0.004c-2.567-0.219-4.845-1.693-6.092-3.945c-1.248-2.254-1.288-4.97-0.108-7.263c0.186-0.361,0.573-0.579,0.975-0.539c2.567,0.219,4.845,1.694,6.092,3.946l0,0c1.247,2.253,1.288,4.968,0.108,7.262C21.411,13.46,21.066,13.668,20.694,13.668z M15.906,4.01c-0.571,1.549-0.449,3.275,0.361,4.739c0.81,1.462,2.206,2.481,3.819,2.82c0.571-1.55,0.449-3.275-0.361-4.738l0,0C18.916,5.37,17.52,4.349,15.906,4.01z"/><path d="M23.716,11.9c-0.889,0-1.779-0.209-2.597-0.629c-0.36-0.186-0.574-0.57-0.539-0.975c0.161-1.888,1.245-3.563,2.901-4.479c1.657-0.918,3.653-0.945,5.341-0.079c0.36,0.186,0.573,0.571,0.538,0.975c-0.161,1.888-1.246,3.562-2.901,4.479l0,0C25.605,11.664,24.661,11.9,23.716,11.9z M25.975,10.316h0.01H25.975z M22.703,9.757c0.925,0.265,1.927,0.16,2.787-0.316l0,0c0.858-0.476,1.48-1.266,1.747-2.19C26.31,6.985,25.31,7.09,24.45,7.567C23.592,8.043,22.971,8.834,22.703,9.757z"/><path d="M16.56,17.465H8.207c-0.469,0-0.874-0.325-0.976-0.782c-0.359-1.606-0.695-2.915-1.17-4.081c-0.454-1.116-1.06-2.175-1.965-3.433c-0.131-0.181-0.281-0.375-0.44-0.582C2.806,7.486,1.642,5.978,1.634,4.292C1.59,2.64,2.426,1.169,3.815,0.465c0.01-0.005,0.019-0.01,0.028-0.015l0.093-0.046C3.948,0.398,3.96,0.393,3.971,0.387c1.405-0.678,3.082-0.45,4.385,0.601c1.319,1.017,1.812,2.857,2.172,4.202c0.067,0.251,0.13,0.488,0.195,0.703c0.45,1.479,0.924,2.604,1.535,3.642c0.679,1.153,1.565,2.266,2.866,3.798c0.614,0.724,1.312,1.51,2.062,2.337c0.267,0.293,0.391,0.776,0.23,1.139C17.257,17.17,16.955,17.465,16.56,17.465z M9.004,15.465h5.318c-0.252-0.287-0.493-0.566-0.724-0.837c-1.371-1.615-2.312-2.801-3.063-4.077C9.84,9.371,9.308,8.113,8.808,6.472c-0.07-0.235-0.14-0.493-0.213-0.766C8.293,4.579,7.918,3.175,7.118,2.558C6.402,1.982,5.57,1.847,4.864,2.177C4.853,2.183,4.842,2.189,4.831,2.195c-0.017,0.008-0.033,0.016-0.05,0.023C4.768,2.225,4.754,2.233,4.74,2.24C4.728,2.247,4.714,2.253,4.7,2.258C4.008,2.621,3.61,3.365,3.634,4.26c0.005,1.031,0.893,2.181,1.605,3.104c0.173,0.224,0.336,0.437,0.479,0.634c1.003,1.395,1.68,2.581,2.195,3.849C8.358,12.938,8.685,14.104,9.004,15.465z"/></svg>