<svg xmlns="http://www.w3.org/2000/svg" viewBox="0 0 32 32"><!--! Font Icona - https://fonticona.com | License - https://fonticona.com/license | Copyright 2022 FontIcona.com --><path d="M22.217,16.562c-0.552,0-1-0.447-1-1c0-2.976-2.358-5.396-5.257-5.396s-5.257,2.421-5.257,5.396c0,0.553-0.448,1-1,1s-1-0.447-1-1c0-4.078,3.256-7.396,7.257-7.396s7.257,3.318,7.257,7.396C23.217,16.115,22.769,16.562,22.217,16.562z"/><path d="M23.888,16.744H8.031c-0.552,0-1-0.447-1-1s0.448-1,1-1h15.856c0.552,0,1,0.447,1,1S24.44,16.744,23.888,16.744z"/><path d="M9.702,19.466c-0.552,0-1-0.447-1-1v-2.722c0-0.553,0.448-1,1-1s1,0.447,1,1v2.722C10.702,19.019,10.254,19.466,9.702,19.466z"/><path d="M13.874,19.466c-0.552,0-1-0.447-1-1v-2.722c0-0.553,0.448-1,1-1s1,0.447,1,1v2.722C14.874,19.019,14.426,19.466,13.874,19.466z"/><path d="M18.045,19.466c-0.552,0-1-0.447-1-1v-2.722c0-0.553,0.448-1,1-1s1,0.447,1,1v2.722C19.045,19.019,18.598,19.466,18.045,19.466z"/><path d="M22.217,19.466c-0.552,0-1-0.447-1-1v-2.722c0-0.553,0.448-1,1-1s1,0.447,1,1v2.722C23.217,19.019,22.769,19.466,22.217,19.466z"/><path d="M27.031,32c-0.003,0-0.006,0-0.009,0c-0.552-0.005-0.996-0.457-0.991-1.009l0.094-10.489l-2.434,0.009H5.867V31c0,0.553-0.448,1-1,1s-1-0.447-1-1V20.511c0-1.103,0.897-2,2-2h20.267c0.535,0,1.037,0.21,1.414,0.59c0.377,0.381,0.582,0.885,0.577,1.419l-0.094,10.489C28.026,31.559,27.579,32,27.031,32z"/><path d="M18.382,31.637c-0.552,0-1-0.447-1-1v-5.448c0-0.551-0.654-1.017-1.428-1.017s-1.428,0.466-1.428,1.017v5.448c0,0.553-0.448,1-1,1s-1-0.447-1-1v-5.448c0-1.663,1.538-3.017,3.428-3.017s3.428,1.354,3.428,3.017v5.448C19.382,31.189,18.935,31.637,18.382,31.637z"/><path d="M13.527,31.637c-0.552,0-1-0.447-1-1v-5.448c0-0.551-0.654-1.017-1.428-1.017c-0.774,0-1.428,0.466-1.428,1.017v5.448c0,0.553-0.448,1-1,1s-1-0.447-1-1v-5.448c0-1.663,1.538-3.017,3.428-3.017s3.428,1.354,3.428,3.017v5.448C14.527,31.189,14.079,31.637,13.527,31.637z"/><path d="M23.238,31.637c-0.552,0-1-0.447-1-1v-5.448c0-0.551-0.654-1.017-1.428-1.017c-0.774,0-1.428,0.466-1.428,1.017v5.448c0,0.553-0.448,1-1,1s-1-0.447-1-1v-5.448c0-1.663,1.538-3.017,3.428-3.017s3.428,1.354,3.428,3.017v5.448C24.238,31.189,23.791,31.637,23.238,31.637z"/><path d="M16.241,7.293c-1.868,0-3.465-1.432-3.634-3.327c-0.086-0.972,0.21-1.919,0.836-2.667c0.625-0.749,1.505-1.208,2.477-1.295c0.56-0.054,1.036,0.357,1.085,0.907c0.049,0.551-0.357,1.036-0.907,1.085c-0.44,0.039-0.838,0.247-1.121,0.586c-0.283,0.338-0.417,0.767-0.378,1.206c0.081,0.907,0.885,1.591,1.792,1.498c0.467-0.041,0.881-0.27,1.166-0.642c0.337-0.438,0.966-0.52,1.402-0.186c0.438,0.336,0.522,0.964,0.186,1.402c-0.621,0.811-1.56,1.327-2.577,1.417C16.458,7.288,16.349,7.293,16.241,7.293z"/><path d="M15.959,10.166c-0.552,0-1-0.447-1-1V6.293c0-0.553,0.448-1,1-1s1,0.447,1,1v2.873C16.959,9.719,16.512,10.166,15.959,10.166z"/></svg>