<svg xmlns="http://www.w3.org/2000/svg" viewBox="0 0 32 32"><!--! Font Icona - https://fonticona.com | License - https://fonticona.com/license | Copyright 2022 FontIcona.com --><path d="M5.114,27.034C2.294,27.034,0,24.74,0,21.92s2.294-5.114,5.114-5.114s5.114,2.294,5.114,5.114S7.935,27.034,5.114,27.034z M5.114,18.806C3.397,18.806,2,20.203,2,21.92s1.397,3.114,3.114,3.114s3.114-1.397,3.114-3.114S6.831,18.806,5.114,18.806z"/><path d="M26.886,27.034c-2.82,0-5.114-2.294-5.114-5.114s2.294-5.114,5.114-5.114S32,19.1,32,21.92S29.706,27.034,26.886,27.034z M26.886,18.806c-1.717,0-3.114,1.397-3.114,3.114s1.397,3.114,3.114,3.114S30,23.637,30,21.92S28.603,18.806,26.886,18.806z"/><path d="M16.398,23.607c-0.271,0-0.542-0.024-0.812-0.073c-1.179-0.215-2.202-0.875-2.883-1.86c-0.612-0.989-1.066-2.01-1.377-3.077c-0.317-0.752-0.845-1.383-1.528-1.828c-1.735-1.138-3.745-1.284-5.872-1.439l-0.267-0.02c-0.094-0.008-0.193-0.01-0.307-0.013c-0.715-0.021-1.795-0.051-2.432-0.754c-0.312-0.345-0.46-0.786-0.425-1.275c0.097-1.401,1.258-3.128,2.609-3.251c2.448-0.218,5.144-0.329,6.614,0.5c0.427,0.225,0.815,0.547,1.19,0.858c0.689,0.573,1.069,0.838,1.42,0.748c0.92-0.43,1.694-0.816,2.461-1.287c0.042-0.026,0.086-0.049,0.132-0.068c1.533-0.651,3.608-0.922,5.412-0.696c0.549,0.067,0.938,0.566,0.87,1.114c-0.067,0.549-0.574,0.949-1.114,0.87c-1.432-0.178-3.115,0.03-4.319,0.524c-0.843,0.514-1.675,0.926-2.659,1.385c-0.034,0.016-0.069,0.03-0.104,0.042c-1.463,0.489-2.568-0.424-3.375-1.093c-0.311-0.258-0.604-0.501-0.871-0.642c-0.772-0.436-2.608-0.52-5.477-0.264c-0.159,0.062-0.643,0.626-0.768,1.211c0.258,0.06,0.701,0.072,0.892,0.077c0.16,0.005,0.303,0.01,0.412,0.02l0.249,0.019c2.289,0.166,4.655,0.339,6.821,1.76c1.038,0.675,1.837,1.642,2.306,2.794c0.014,0.033,0.025,0.067,0.035,0.102c0.262,0.911,0.646,1.783,1.144,2.59c0.349,0.502,0.916,0.867,1.567,0.986c0.653,0.118,1.312-0.023,1.858-0.4c0.131-0.091,0.253-0.194,0.364-0.309c0.656-0.667,0.796-1.645,0.958-2.775c0.194-1.35,0.414-2.879,1.646-4.037c0.404-0.377,1.035-0.357,1.414,0.045c0.378,0.402,0.357,1.035-0.045,1.414c-0.722,0.677-0.867,1.689-1.035,2.862c-0.186,1.293-0.396,2.758-1.51,3.891c-0.198,0.204-0.42,0.391-0.656,0.554C18.181,23.335,17.3,23.607,16.398,23.607z"/><path d="M4.761,23.059c-0.24,0-0.481-0.086-0.674-0.261c-0.408-0.372-0.438-1.004-0.065-1.413l5.582-6.128c0.372-0.406,1.004-0.437,1.413-0.065c0.408,0.372,0.438,1.004,0.065,1.413L5.5,22.732C5.303,22.948,5.032,23.059,4.761,23.059z"/><path d="M4.761,23.059c-0.418,0-0.808-0.264-0.948-0.683c-0.176-0.523,0.106-1.09,0.631-1.266l7.905-2.649c0.525-0.174,1.09,0.106,1.266,0.631c0.176,0.523-0.106,1.09-0.631,1.266l-7.905,2.649C4.973,23.042,4.866,23.059,4.761,23.059z"/><path d="M26.885,22.491c-0.22,0-0.441-0.072-0.626-0.221c-6.894-5.552-7.498-12.055-7.367-14.97c-0.851,0.299-1.655,0.729-2.374,1.272c-0.441,0.333-1.068,0.246-1.4-0.193c-0.334-0.44-0.247-1.067,0.193-1.4c1.332-1.009,2.905-1.699,4.55-1.998c0.327-0.058,0.663,0.048,0.896,0.287c0.231,0.238,0.33,0.576,0.262,0.901c-0.065,0.324-1.526,8.082,6.495,14.542c0.431,0.347,0.498,0.977,0.152,1.406C27.467,22.363,27.178,22.491,26.885,22.491z"/><path d="M21.003,14.729c-0.479,0-0.902-0.345-0.985-0.833c-0.092-0.545,0.275-1.061,0.819-1.153c0.455-0.076,1.167-0.497,1.525-1.043c0.083-0.126,0.214-0.364,0.167-0.556c-0.073-0.26-0.301-0.526-0.616-0.701c-0.459-0.254-1.053-0.292-1.672-0.109c-0.532,0.16-1.086-0.146-1.243-0.675c-0.156-0.529,0.146-1.086,0.675-1.243c1.139-0.335,2.277-0.238,3.209,0.277c0.781,0.433,1.357,1.142,1.581,1.944c0.18,0.728,0.028,1.464-0.429,2.16c-0.634,0.965-1.784,1.735-2.863,1.918C21.114,14.724,21.058,14.729,21.003,14.729z"/></svg>