<svg xmlns="http://www.w3.org/2000/svg" viewBox="0 0 32 32"><!--! Font Icona - https://fonticona.com | License - https://fonticona.com/license | Copyright 2022 FontIcona.com --><path d="M7.715,30.966c-0.008,0-0.015,0-0.022,0H1c-0.373,0-0.715-0.208-0.887-0.538c-0.173-0.331-0.146-0.73,0.068-1.036l12.804-18.261c0.048-0.071,0.105-0.137,0.172-0.195c0.052-0.046,0.107-0.085,0.166-0.118c0.154-0.088,0.324-0.131,0.493-0.131c0.002,0,0.003,0,0.004,0c0.089,0,0.179,0.013,0.268,0.037c0.205,0.058,0.394,0.182,0.53,0.364c0.001,0,0.001,0.001,0.001,0.001l0,0c0.008,0.011,0.016,0.021,0.022,0.031l4.809,6.961l2.171-2.187c0.214-0.214,0.509-0.315,0.813-0.29c0.301,0.031,0.571,0.197,0.735,0.451l8.669,13.366c0.199,0.308,0.215,0.699,0.04,1.021S31.366,30.966,31,30.966H7.736C7.729,30.966,7.722,30.966,7.715,30.966z M9.002,28.966h20.157l-6.992-10.781l-1.561,1.57l2.631,3.808c0.313,0.454,0.199,1.077-0.255,1.391c-0.453,0.313-1.078,0.201-1.391-0.254l-3.104-4.489c-0.012-0.017-0.023-0.034-0.034-0.052l-3.945-5.712l-0.743,6.498c-0.032,0.286-0.187,0.544-0.423,0.708l-3.004,2.085L9.002,28.966z M2.923,28.966h4.015l1.556-6.086c0.06-0.232,0.201-0.437,0.398-0.573l2.938-2.039l0.547-4.785L2.923,28.966z"/><path d="M13.817,12.687c-0.549,0-0.996-0.442-1-0.992l-0.072-9.652c-0.002-0.267,0.103-0.523,0.29-0.712c0.188-0.189,0.443-0.296,0.71-0.296h7.272c0.553,0,1,0.447,1,1v4.583c0,0.266-0.105,0.521-0.294,0.709c-0.188,0.187-0.441,0.291-0.706,0.291c-0.002,0-0.003,0-0.004,0L14.787,7.59l0.03,4.089c0.004,0.553-0.44,1.004-0.992,1.008C13.822,12.687,13.819,12.687,13.817,12.687z M14.771,5.59l5.246,0.023V3.034h-5.265L14.771,5.59z"/><path d="M4.212,11.372c-0.377,0-0.754-0.142-1.042-0.426c-0.315-0.338-0.456-0.741-0.426-1.146c0.029-1.01-0.219-2.059-0.721-2.987C1.761,6.327,1.942,5.721,2.428,5.458c0.487-0.264,1.094-0.08,1.355,0.404C4.29,6.801,4.603,7.83,4.706,8.886C4.832,8.804,4.96,8.725,5.09,8.649c0.454-0.251,0.912-0.447,1.38-0.596c1.006-0.314,2.087-0.405,3.126-0.266c0.548,0.074,0.932,0.578,0.857,1.125S9.874,9.84,9.328,9.771c-0.756-0.103-1.533-0.035-2.257,0.19c-0.34,0.108-0.677,0.253-0.996,0.429c-0.287,0.167-0.581,0.369-0.856,0.59C4.936,11.241,4.573,11.372,4.212,11.372z M4.741,9.874c0,0.011,0,0.021,0,0.032C4.741,9.896,4.742,9.886,4.741,9.874z"/></svg>