<svg xmlns="http://www.w3.org/2000/svg" viewBox="0 0 32 32"><!--! Font Icona - https://fonticona.com | License - https://fonticona.com/license | Copyright 2022 FontIcona.com --><path d="M22.565,32H10.113c-1.001,0-1.962-0.726-2.235-1.688L4.297,17.719c-0.151-0.531,0.157-1.084,0.688-1.235c0.532-0.153,1.085,0.157,1.235,0.688l3.581,12.593C9.83,29.863,10.011,30,10.113,30h12.452c0.103,0,0.283-0.137,0.312-0.235l3.581-12.593c0.15-0.531,0.701-0.843,1.235-0.688c0.531,0.151,0.84,0.704,0.688,1.235l-3.581,12.593C24.527,31.274,23.566,32,22.565,32z"/><path d="M5.915,18.949c-0.199,0-0.399-0.059-0.574-0.183c-1.106-0.778-2.333-2.39-2.534-3.965c-0.123-0.956,0.125-1.831,0.717-2.531c0.454-0.535,0.99-0.943,1.569-1.261C4.879,9.922,5.161,9.077,5.481,8.518c1.468-2.568,5.93-3.229,6.434-3.297c1.38-0.33,2.293-0.861,2.476-1.479c0.219-0.739-0.543-1.751-0.827-2.046C13.27,1.39,13.199,0.931,13.39,0.552c0.191-0.38,0.605-0.589,1.02-0.544c2.366,0.306,5.926,1.891,6.035,5.003c0.169,4.838-7.586,6.198-10.505,6.711l-0.418,0.071c-0.966,0.165-1.949,0.334-2.803,0.661c-0.009,0.004-0.018,0.008-0.027,0.012c-0.025,0.011-0.051,0.021-0.076,0.028c-0.614,0.249-1.155,0.585-1.564,1.069c-0.229,0.271-0.312,0.583-0.261,0.984c0.121,0.941,0.978,2.074,1.701,2.584c0.452,0.317,0.561,0.941,0.242,1.393C6.539,18.802,6.229,18.949,5.915,18.949z M16.333,2.651c0.123,0.511,0.146,1.071-0.021,1.646c-0.401,1.38-1.76,2.352-4.036,2.888c-1.122,0.156-4.233,0.877-5.06,2.326c-0.099,0.174-0.203,0.414-0.201,0.753c0.741-0.198,1.485-0.326,2.169-0.442l0.409-0.071c5.945-1.043,8.924-2.614,8.853-4.67C18.409,4.024,17.455,3.191,16.333,2.651z"/><path d="M10.41,18.545c-0.215,0-0.432-0.069-0.615-0.212c-0.435-0.341-0.512-0.969-0.172-1.404c1.755-2.244,4.143-3.704,7.513-4.596l0.407-0.107c2.312-0.606,4.704-1.233,5.32-2.764c0.688-1.707-2.627-3.361-3.66-3.828c-0.503-0.228-0.727-0.819-0.499-1.323c0.228-0.503,0.819-0.728,1.323-0.499c3.909,1.766,5.619,4.099,4.691,6.398c-0.993,2.462-4.008,3.253-6.669,3.95l-0.402,0.106c-2.968,0.784-4.956,1.985-6.448,3.895C11.002,18.413,10.708,18.545,10.41,18.545z"/><path d="M27.42,18.445c-0.133,0-0.267-0.026-0.396-0.081c-0.507-0.219-0.741-0.808-0.523-1.314c0.772-1.793,0.925-3.248,0.451-4.323c-0.466-1.06-1.559-1.877-3.34-2.498c-0.521-0.182-0.797-0.752-0.615-1.273c0.182-0.522,0.755-0.796,1.273-0.615c2.335,0.814,3.812,1.986,4.513,3.582c0.716,1.626,0.57,3.562-0.444,5.919C28.176,18.219,27.807,18.445,27.42,18.445z"/><path d="M16.339,19.858c-3.826,0-7.653-0.571-11.374-1.715c-0.527-0.162-0.824-0.722-0.662-1.25c0.163-0.526,0.721-0.825,1.25-0.662c7.058,2.17,14.518,2.169,21.573,0c0.53-0.165,1.087,0.136,1.25,0.662c0.162,0.528-0.135,1.088-0.662,1.25C23.993,19.287,20.166,19.858,16.339,19.858z"/></svg>