<svg xmlns="http://www.w3.org/2000/svg" viewBox="0 0 32 32"><!--! Font Icona - https://fonticona.com | License - https://fonticona.com/license | Copyright 2022 FontIcona.com --><path d="M9.844,32c-0.159,0-0.316-0.006-0.473-0.019c-1.43-0.119-2.601-0.793-3.213-1.852c-1.228-2.124,0.043-5.078,2.892-6.725c1.3-0.751,2.742-1.104,4.058-0.997c1.43,0.119,2.601,0.793,3.213,1.852l0,0c1.228,2.124-0.043,5.078-2.892,6.725C12.282,31.646,11.027,32,9.844,32z M12.64,24.39c-0.829,0-1.755,0.266-2.589,0.747c-1.815,1.05-2.805,2.878-2.16,3.993c0.381,0.659,1.194,0.82,1.646,0.857c0.903,0.079,1.956-0.193,2.893-0.735c1.814-1.049,2.804-2.877,2.159-3.992c-0.381-0.659-1.194-0.82-1.646-0.857C12.843,24.394,12.742,24.39,12.64,24.39z"/><path d="M15.781,26.948C15.781,26.948,15.781,26.948,15.781,26.948c-0.553,0-1-0.448-1-1.001l0.015-24.948c0-0.472,0.33-0.879,0.792-0.978c0.463-0.098,0.928,0.141,1.121,0.57c0.546,1.221,1.255,2.438,2.05,3.521c0.76,1.034,1.733,1.889,2.765,2.793c1.565,1.372,3.184,2.792,4.084,4.93c1.458,3.463,0.6,7.496-2.24,10.524c-0.379,0.403-1.013,0.423-1.413,0.046c-0.403-0.378-0.424-1.011-0.046-1.413c2.292-2.444,3.003-5.656,1.855-8.382c-0.721-1.713-2.1-2.922-3.559-4.202c-1.066-0.935-2.169-1.902-3.058-3.112c-0.12-0.163-0.238-0.329-0.354-0.496l-0.013,21.149C16.781,26.501,16.333,26.948,15.781,26.948z"/></svg>