<svg xmlns="http://www.w3.org/2000/svg" viewBox="0 0 32 32"><!--! Font Icona - https://fonticona.com | License - https://fonticona.com/license | Copyright 2022 FontIcona.com --><path d="M22.11,25.704c-0.552,0-1-0.448-1-1V13.406c0-2.817-2.292-5.11-5.11-5.11s-5.11,2.292-5.11,5.11c0,0.552-0.448,1-1,1s-1-0.448-1-1c0-3.92,3.189-7.11,7.11-7.11s7.11,3.189,7.11,7.11v11.298C23.11,25.256,22.662,25.704,22.11,25.704z"/><path d="M9.89,25.704c-0.552,0-1-0.448-1-1V7.296c0-0.552,0.448-1,1-1s1,0.448,1,1v17.408C10.89,25.256,10.442,25.704,9.89,25.704z"/></svg>