<svg xmlns="http://www.w3.org/2000/svg" viewBox="0 0 32 32"><!--! Font Icona - https://fonticona.com | License - https://fonticona.com/license | Copyright 2022 FontIcona.com --><path d="M6,32c-0.552,0-1-0.448-1-1V1c0-0.552,0.448-1,1-1s1,0.448,1,1v30C7,31.552,6.552,32,6,32z"/><path d="M26,32c-0.552,0-1-0.448-1-1V1c0-0.552,0.448-1,1-1s1,0.448,1,1v30C27,31.552,26.552,32,26,32z"/><path d="M26.001,32c-0.323,0-0.64-0.156-0.833-0.445l-20-30C4.862,1.095,4.986,0.474,5.445,0.168c0.459-0.307,1.08-0.183,1.387,0.277l20,30c0.306,0.459,0.182,1.081-0.277,1.387C26.384,31.946,26.191,32,26.001,32z"/></svg>