<svg xmlns="http://www.w3.org/2000/svg" viewBox="0 0 32 32"><!--! Font Icona - https://fonticona.com | License - https://fonticona.com/license | Copyright 2022 FontIcona.com --><path d="M1,32c-0.26,0-0.516-0.102-0.708-0.293c-0.294-0.294-0.375-0.74-0.204-1.12l2.441-5.383c0.049-0.109,0.119-0.209,0.204-0.294L21.128,6.516c0.391-0.391,1.023-0.391,1.414,0s0.391,1.023,0,1.414L4.276,26.196l-1.267,2.795l2.794-1.268L24.07,9.457c0.391-0.391,1.023-0.391,1.414,0s0.391,1.023,0,1.414L7.089,29.266c-0.085,0.085-0.185,0.154-0.294,0.204l-5.382,2.441C1.281,31.971,1.14,32,1,32z"/><path d="M28.62,13.631c-0.294,0-0.603-0.042-0.92-0.127c-0.877-0.234-1.776-0.778-2.531-1.533l-5.14-5.14C19.274,6.076,18.73,5.178,18.495,4.3c-0.282-1.055-0.088-2.015,0.532-2.634l1.374-1.373c0.391-0.391,1.023-0.391,1.414,0l9.892,9.892C31.895,10.372,32,10.626,32,10.892s-0.105,0.52-0.293,0.707l-1.374,1.374C29.9,13.406,29.301,13.631,28.62,13.631z M21.108,2.414l-0.667,0.667c-0.064,0.064-0.121,0.304-0.014,0.702c0.143,0.536,0.513,1.131,1.016,1.634l5.14,5.14c0.502,0.502,1.098,0.872,1.633,1.016c0.398,0.105,0.638,0.05,0.702-0.014l0.667-0.667L21.108,2.414z"/></svg>