<svg xmlns="http://www.w3.org/2000/svg" viewBox="0 0 32 32"><!--! Font Icona - https://fonticona.com | License - https://fonticona.com/license | Copyright 2022 FontIcona.com --><path d="M12.333,17.789c-4.271,0-7.744-3.698-7.744-8.244S8.062,1.3,12.333,1.3s7.745,3.699,7.745,8.245S16.604,17.789,12.333,17.789z M12.333,3.3c-3.167,0-5.744,2.802-5.744,6.245s2.577,6.244,5.744,6.244c3.168,0,5.745-2.801,5.745-6.244S15.501,3.3,12.333,3.3z"/><path d="M4.378,32C1.964,32,0,29.927,0,27.378s1.964-4.622,4.378-4.622s4.378,2.073,4.378,4.622S6.792,32,4.378,32z M4.378,24.756C3.066,24.756,2,25.932,2,27.378S3.066,30,4.378,30s2.378-1.176,2.378-2.622S5.689,24.756,4.378,24.756z"/><path d="M27.277,32c-2.413,0-4.377-2.073-4.377-4.622s1.964-4.622,4.377-4.622c2.414,0,4.378,2.073,4.378,4.622S29.691,32,27.277,32z M27.277,24.756c-1.311,0-2.377,1.176-2.377,2.622S25.967,30,27.277,30c1.312,0,2.378-1.176,2.378-2.622S28.589,24.756,27.277,24.756z"/><path d="M27.622,9.244c-2.414,0-4.378-2.073-4.378-4.622S25.208,0,27.622,0S32,2.073,32,4.622S30.036,9.244,27.622,9.244z M27.622,2c-1.312,0-2.378,1.176-2.378,2.622s1.066,2.622,2.378,2.622S30,6.068,30,4.622S28.934,2,27.622,2z"/><path d="M5.588,25.011c-0.141,0-0.283-0.029-0.419-0.093c-0.502-0.232-0.72-0.826-0.487-1.327l3.711-8.011c0.231-0.501,0.826-0.722,1.327-0.487c0.502,0.232,0.72,0.826,0.487,1.327l-3.711,8.011C6.327,24.796,5.966,25.011,5.588,25.011z"/><path d="M27.277,24.756c-0.007,0-0.015,0-0.022,0c-0.552-0.013-0.989-0.47-0.978-1.022l0.345-15.512c0.013-0.544,0.458-0.978,1-0.978c0.007,0,0.015,0,0.022,0c0.552,0.013,0.989,0.47,0.978,1.022l-0.345,15.512C28.265,24.322,27.819,24.756,27.277,24.756z"/><path d="M27.277,24.756c-0.274,0-0.548-0.112-0.746-0.334l-9.244-10.345c-0.367-0.411-0.332-1.044,0.08-1.412c0.41-0.367,1.042-0.334,1.412,0.08l9.244,10.345c0.367,0.411,0.332,1.044-0.08,1.412C27.753,24.672,27.515,24.756,27.277,24.756z"/></svg>