<svg xmlns="http://www.w3.org/2000/svg" viewBox="0 0 32 32"><!--! Font Icona - https://fonticona.com | License - https://fonticona.com/license | Copyright 2022 FontIcona.com --><path d="M16.006,10.955c-2.58,0-4.68-2.1-4.68-4.68s2.1-4.68,4.68-4.68s4.68,2.1,4.68,4.68S18.586,10.955,16.006,10.955z M16.006,3.596c-1.478,0-2.68,1.202-2.68,2.68s1.202,2.68,2.68,2.68s2.68-1.202,2.68-2.68S17.483,3.596,16.006,3.596z"/><path d="M16.006,30.404c-2.58,0-4.68-2.1-4.68-4.68s2.1-4.68,4.68-4.68s4.68,2.1,4.68,4.68S18.586,30.404,16.006,30.404z M16.006,23.045c-1.478,0-2.68,1.202-2.68,2.68s1.202,2.68,2.68,2.68s2.68-1.202,2.68-2.68S17.483,23.045,16.006,23.045z"/><path d="M27.32,30.404c-2.58,0-4.68-2.1-4.68-4.68s2.1-4.68,4.68-4.68s4.68,2.1,4.68,4.68S29.9,30.404,27.32,30.404z M27.32,23.045c-1.478,0-2.68,1.202-2.68,2.68s1.202,2.68,2.68,2.68S30,27.202,30,25.725S28.798,23.045,27.32,23.045z"/><path d="M4.68,30.404c-2.58,0-4.68-2.1-4.68-4.68s2.1-4.68,4.68-4.68s4.68,2.1,4.68,4.68S7.26,30.404,4.68,30.404z M4.68,23.045c-1.478,0-2.68,1.202-2.68,2.68s1.202,2.68,2.68,2.68s2.68-1.202,2.68-2.68S6.157,23.045,4.68,23.045z"/><path d="M16.006,23.045c-0.553,0-1-0.447-1-1V9.955c0-0.553,0.447-1,1-1s1,0.447,1,1v12.09C17.006,22.598,16.559,23.045,16.006,23.045z"/><path d="M27.32,15.981H4.68c-0.553,0-1-0.447-1-1s0.447-1,1-1H27.32c0.553,0,1,0.447,1,1S27.873,15.981,27.32,15.981z"/><path d="M4.68,23.045c-0.553,0-1-0.447-1-1v-7.063c0-0.553,0.447-1,1-1s1,0.447,1,1v7.063C5.68,22.598,5.232,23.045,4.68,23.045z"/><path d="M27.32,23.045c-0.553,0-1-0.447-1-1v-7.063c0-0.553,0.447-1,1-1s1,0.447,1,1v7.063C28.32,22.598,27.873,23.045,27.32,23.045z"/></svg>