<svg xmlns="http://www.w3.org/2000/svg" viewBox="0 0 32 32"><!--! Font Icona - https://fonticona.com | License - https://fonticona.com/license | Copyright 2022 FontIcona.com --><path d="M20.965,32.001c-0.405,0-0.941-0.171-1.505-0.826l-3.018-3.5c-0.136-0.158-0.298-0.241-0.469-0.241c-0.001,0-0.001,0-0.002,0c-0.171,0-0.333,0.085-0.469,0.244l-2.966,3.484c-0.823,0.968-1.591,0.89-1.973,0.757c-0.384-0.133-1.035-0.547-1.083-1.822l-0.167-4.491c-0.008-0.221-0.096-0.414-0.248-0.542c-0.148-0.126-0.348-0.181-0.56-0.151l-4.737,0.622c-1.296,0.167-1.812-0.475-1.972-0.76c-0.16-0.286-0.445-1.061,0.38-2.086l3.095-3.849c0.133-0.166,0.189-0.355,0.158-0.535c-0.031-0.18-0.144-0.334-0.325-0.445l-4.03-2.475c-1.084-0.666-1.125-1.435-1.052-1.834c0.072-0.399,0.379-1.104,1.626-1.346l4.553-0.886c0.208-0.041,0.376-0.153,0.475-0.316c0.101-0.167,0.121-0.374,0.057-0.583L5.11,5.086C4.733,3.847,5.22,3.26,5.544,3.021C5.867,2.782,6.57,2.49,7.638,3.212l4.36,2.951c0.156,0.105,0.309,0.141,0.428,0.102c0.123-0.04,0.228-0.16,0.294-0.339l1.684-4.542C14.851,0.18,15.596,0,16,0s1.149,0.18,1.596,1.384l1.684,4.542c0.066,0.179,0.171,0.299,0.294,0.339c0.12,0.038,0.272,0.003,0.428-0.102l4.359-2.951c1.07-0.722,1.772-0.43,2.095-0.191c0.324,0.239,0.811,0.825,0.434,2.065l-1.623,5.333c-0.063,0.209-0.043,0.417,0.057,0.583c0.098,0.163,0.267,0.275,0.475,0.316l4.553,0.886c1.247,0.242,1.554,0.947,1.626,1.346c0.073,0.399,0.032,1.168-1.052,1.834l-4.029,2.474c-0.182,0.111-0.294,0.266-0.325,0.446c-0.031,0.179,0.025,0.369,0.158,0.535l3.095,3.85c0.825,1.025,0.54,1.8,0.38,2.086c-0.16,0.285-0.677,0.926-1.972,0.76l-4.738-0.622c-0.208-0.029-0.41,0.025-0.559,0.151c-0.152,0.128-0.24,0.321-0.248,0.542l-0.167,4.491c-0.047,1.273-0.698,1.689-1.082,1.824C21.316,31.964,21.155,32.001,20.965,32.001z M21.148,30.034L21.148,30.034L21.148,30.034z M15.973,25.435c0.749,0,1.471,0.34,1.984,0.935l2.589,3.002l0.142-3.84c0.029-0.779,0.377-1.506,0.956-1.995c0.583-0.494,1.332-0.709,2.11-0.607l4.133,0.543l-2.717-3.38c-0.491-0.611-0.698-1.387-0.57-2.129c0.129-0.741,0.584-1.4,1.25-1.809l3.449-2.117l-3.882-0.756c-0.771-0.15-1.413-0.593-1.807-1.247c-0.39-0.648-0.484-1.449-0.257-2.196l1.353-4.443L21.123,7.82c-0.665,0.449-1.453,0.576-2.159,0.351c-0.71-0.228-1.278-0.792-1.559-1.548L16,2.833l-1.405,3.789c-0.281,0.756-0.849,1.321-1.559,1.548c-0.708,0.228-1.495,0.099-2.159-0.351L7.294,5.395l1.352,4.443c0.228,0.748,0.134,1.548-0.256,2.197c-0.394,0.654-1.036,1.097-1.807,1.247l-3.882,0.756l3.449,2.118c0.665,0.408,1.12,1.067,1.249,1.808c0.128,0.742-0.079,1.519-0.57,2.129l-2.717,3.38l4.133-0.543c0.778-0.099,1.527,0.114,2.111,0.607c0.579,0.489,0.927,1.216,0.956,1.995l0.141,3.816l2.526-2.967c0.51-0.6,1.234-0.945,1.985-0.947C15.968,25.435,15.97,25.435,15.973,25.435z"/></svg>