<svg xmlns="http://www.w3.org/2000/svg" viewBox="0 0 32 32"><!--! Font Icona - https://fonticona.com | License - https://fonticona.com/license | Copyright 2022 FontIcona.com --><path d="M16,32C7.178,32,0,24.822,0,16S7.178,0,16,0s16,7.178,16,16S24.822,32,16,32z M16,2C8.28,2,2,8.28,2,16s6.28,14,14,14s14-6.28,14-14S23.72,2,16,2z"/><path d="M24.454,21.125H7.546c-1.165,0-2.078-0.791-2.078-1.802v-1.956c0-1.011,0.913-1.802,2.078-1.802h16.908c1.165,0,2.078,0.791,2.078,1.802v1.956C26.532,20.334,25.619,21.125,24.454,21.125z M7.469,19.118c0.022,0.004,0.048,0.007,0.078,0.007h16.908c0.029,0,0.056-0.003,0.078-0.007v-1.546c-0.022-0.004-0.048-0.007-0.078-0.007H7.546c-0.029,0-0.056,0.003-0.078,0.007V19.118z"/><path d="M12.469,21.125c-0.552,0-1-0.447-1-1v-3.56c0-0.553,0.448-1,1-1s1,0.447,1,1v3.56C13.469,20.678,13.021,21.125,12.469,21.125z"/><path d="M22.437,21.125c-0.552,0-1-0.447-1-1v-3.56c0-0.553,0.448-1,1-1s1,0.447,1,1v3.56C23.437,20.678,22.99,21.125,22.437,21.125z"/><path d="M26.275,27.925c-0.277,0-0.552-0.114-0.75-0.338l-5.732-6.485c-0.366-0.413-0.327-1.045,0.086-1.411c0.415-0.366,1.045-0.327,1.412,0.087l5.733,6.485c0.366,0.414,0.327,1.046-0.087,1.411C26.746,27.842,26.51,27.925,26.275,27.925z"/><path d="M16.854,17.205c-0.277,0-0.553-0.114-0.751-0.339L5.718,5.078C5.353,4.664,5.393,4.031,5.807,3.667c0.414-0.366,1.046-0.326,1.412,0.089l10.385,11.788c0.365,0.414,0.325,1.047-0.089,1.411C17.325,17.123,17.089,17.205,16.854,17.205z"/><path class="st0" d="M21.742,14.696c-0.26,0-0.52-0.101-0.716-0.302c-0.822-0.844-1.207-2.182-1.056-3.67c0.1-0.86,0.529-1.401,0.873-1.837c0.179-0.226,0.334-0.421,0.417-0.627c0.402-0.801,0.003-1.818-0.45-2.47c-0.315-0.453-0.204-1.076,0.25-1.392c0.454-0.318,1.077-0.204,1.392,0.249c0.805,1.157,1.393,2.932,0.626,4.441c-0.156,0.395-0.428,0.737-0.667,1.04c-0.276,0.349-0.421,0.543-0.453,0.811c-0.088,0.871,0.099,1.646,0.5,2.058c0.385,0.396,0.377,1.029-0.019,1.414C22.245,14.601,21.993,14.696,21.742,14.696z"/></svg>