<svg xmlns="http://www.w3.org/2000/svg" viewBox="0 0 32 32"><!--! Font Icona - https://fonticona.com | License - https://fonticona.com/license | Copyright 2022 FontIcona.com --><path d="M16,32c-0.173,0-0.346-0.045-0.5-0.134l-3.468-2.003c-0.479-0.276-0.643-0.888-0.366-1.366c0.276-0.479,0.889-0.643,1.366-0.366L16,29.846l11.99-6.923V9.077L16,2.155L4.01,9.077v13.846l3.362,1.94c0.479,0.276,0.643,0.888,0.366,1.366c-0.277,0.478-0.89,0.641-1.366,0.366L2.51,24.367c-0.31-0.179-0.5-0.509-0.5-0.866v-15c0-0.357,0.19-0.687,0.5-0.866l12.99-7.5c0.309-0.178,0.691-0.178,1,0l12.99,7.5c0.31,0.179,0.5,0.509,0.5,0.866v15c0,0.357-0.19,0.688-0.5,0.866l-12.99,7.5C16.346,31.955,16.173,32,16,32z"/><path d="M9.202,27.436c-0.822,0-1.756-0.273-2.792-0.818c-0.488-0.257-0.677-0.861-0.419-1.351c0.257-0.488,0.863-0.676,1.351-0.419c1.073,0.564,1.929,0.729,2.408,0.461c0.568-0.315,0.67-1.245,0.671-1.254L10.418,11.02c0-0.553,0.447-1,1-1s1,0.447,1,1v13.107c-0.018,0.277-0.191,2.094-1.696,2.931C10.268,27.31,9.761,27.436,9.202,27.436z"/><path d="M19.504,22.722c-0.146,0-0.273-0.004-0.379-0.008c-0.757-0.03-1.55-0.093-2.234-0.345c-2.163-0.795-2.604-2.94-2.535-3.964c0.038-0.551,0.528-0.939,1.065-0.931c0.549,0.037,0.964,0.51,0.931,1.058c-0.007,0.155-0.033,1.496,1.229,1.96c0.483,0.178,1.225,0.207,1.623,0.224c1.234,0.045,2.46-0.189,3.21-0.618c0.408-0.235,0.709-0.75,0.642-1.102c-0.153-0.802-1.186-1.035-2.626-1.276c-0.235-0.039-0.462-0.077-0.67-0.119l-0.794-0.138c-0.213-0.042-0.419-0.076-0.633-0.112c-1.526-0.256-3.833-0.642-4.261-2.873c-0.258-1.354,0.615-2.64,1.611-3.212c1.545-0.887,3.512-0.91,4.284-0.882c0.757,0.03,1.55,0.093,2.234,0.345c2.163,0.795,2.604,2.94,2.535,3.964c-0.037,0.551-0.524,0.952-1.065,0.931c-0.551-0.037-0.968-0.515-0.931-1.065c0.007-0.143,0.035-1.487-1.229-1.952c-0.483-0.178-1.225-0.207-1.623-0.224c-1.238-0.046-2.461,0.188-3.21,0.618c-0.408,0.235-0.709,0.75-0.642,1.102c0.153,0.802,1.186,1.035,2.626,1.276c0.235,0.039,0.462,0.077,0.67,0.119l0.794,0.138c0.213,0.042,0.419,0.076,0.633,0.112c1.526,0.256,3.833,0.642,4.261,2.873c0.258,1.354-0.615,2.64-1.611,3.212C22.074,22.598,20.427,22.722,19.504,22.722z"/></svg>