<svg xmlns="http://www.w3.org/2000/svg" viewBox="0 0 32 32"><!--! Font Icona - https://fonticona.com | License - https://fonticona.com/license | Copyright 2022 FontIcona.com --><path d="M16,32c-5.288,0-9.589-4.302-9.589-9.589c0-5.288,4.302-9.59,9.589-9.59s9.589,4.302,9.589,9.59C25.589,27.698,21.288,32,16,32z M16,14.821c-4.185,0-7.589,3.405-7.589,7.59S11.815,30,16,30s7.589-3.404,7.589-7.589S20.185,14.821,16,14.821z"/><path d="M16,14.821c-0.552,0-1-0.448-1-1V1c0-0.552,0.448-1,1-1s1,0.448,1,1v12.821C17,14.374,16.552,14.821,16,14.821z"/><path d="M13.487,7.221c-0.307,0-0.609-0.14-0.805-0.406c-0.328-0.444-0.234-1.07,0.21-1.398l5.027-3.713c0.445-0.329,1.071-0.234,1.398,0.21c0.328,0.444,0.234,1.07-0.21,1.398l-5.027,3.713C13.902,7.157,13.693,7.221,13.487,7.221z"/><path d="M18.506,7.229c-0.208,0-0.417-0.064-0.596-0.198l-5.015-3.73c-0.443-0.33-0.535-0.956-0.206-1.399c0.331-0.443,0.957-0.535,1.399-0.206l5.015,3.73c0.443,0.33,0.535,0.956,0.206,1.399C19.113,7.09,18.812,7.229,18.506,7.229z"/></svg>