<svg xmlns="http://www.w3.org/2000/svg" viewBox="0 0 32 32"><!--! Font Icona - https://fonticona.com | License - https://fonticona.com/license | Copyright 2022 FontIcona.com --><path d="M17.347,13.705h-2.694c-0.552,0-1-0.448-1-1s0.448-1,1-1h2.694c0.552,0,1,0.448,1,1S17.899,13.705,17.347,13.705z"/><path d="M17.347,16.455h-2.694c-0.552,0-1-0.448-1-1s0.448-1,1-1h2.694c0.552,0,1,0.448,1,1S17.899,16.455,17.347,16.455z"/><path d="M16,32c-3.633,0-6.589-3.006-6.589-6.7c0-2.771,3.845-9.186,6.026-10.671c0.373-0.254,0.868-0.227,1.212,0.066c1.771,1.51,5.94,7.964,5.94,10.605C22.589,28.994,19.633,32,16,32z M15.943,16.815c-1.871,1.89-4.533,6.733-4.533,8.485c0,2.592,2.059,4.7,4.589,4.7s4.589-2.108,4.589-4.7C20.589,23.765,17.74,18.858,15.943,16.815z"/><path d="M16,10.954c-0.552,0-1-0.448-1-1V1c0-0.552,0.448-1,1-1s1,0.448,1,1v8.954C17,10.506,16.552,10.954,16,10.954z"/><path d="M17.347,10.954h-2.694c-0.552,0-1-0.448-1-1s0.448-1,1-1h2.694c0.552,0,1,0.448,1,1S17.899,10.954,17.347,10.954z"/><path d="M15.999,10.76c-0.204,0-0.409-0.062-0.586-0.19c-0.447-0.324-0.547-0.95-0.223-1.396c0.647-0.893,1.536-1.658,2.571-2.213c0.486-0.262,1.093-0.08,1.354,0.408c0.261,0.487,0.079,1.093-0.408,1.354c-0.771,0.414-1.427,0.976-1.898,1.625C16.614,10.617,16.309,10.76,15.999,10.76z"/></svg>