<svg xmlns="http://www.w3.org/2000/svg" viewBox="0 0 32 32"><!--! Font Icona - https://fonticona.com | License - https://fonticona.com/license | Copyright 2022 FontIcona.com --><path d="M31,14.421H1c-0.552,0-1-0.448-1-1s0.448-1,1-1h30c0.552,0,1,0.448,1,1S31.552,14.421,31,14.421z"/><path d="M31,19.79H1c-0.552,0-1-0.448-1-1s0.448-1,1-1h30c0.552,0,1,0.448,1,1S31.552,19.79,31,19.79z"/><path d="M11.417,32c-0.097,0-0.195-0.014-0.292-0.044c-0.528-0.162-0.826-0.721-0.665-1.249l9.166-30c0.162-0.529,0.726-0.823,1.249-0.665c0.528,0.162,0.826,0.721,0.665,1.249l-9.166,30C12.242,31.723,11.846,32,11.417,32z"/></svg>