<svg xmlns="http://www.w3.org/2000/svg" viewBox="0 0 32 32"><!--! Font Icona - https://fonticona.com | License - https://fonticona.com/license | Copyright 2022 FontIcona.com --><path d="M20.782,31.818c-0.129,0-0.259-0.025-0.383-0.076c-0.374-0.155-0.617-0.52-0.617-0.924v-8.036c0-1.654,1.346-3,3-3h8.037c0.404,0,0.77,0.244,0.924,0.617c0.155,0.374,0.069,0.804-0.217,1.09L21.489,31.525C21.298,31.716,21.042,31.818,20.782,31.818z M22.782,21.782c-0.552,0-1,0.449-1,1v5.622l6.623-6.622H22.782z"/><path d="M19.953,32H3c-1.654,0-3-1.346-3-3V3c0-1.654,1.346-3,3-3h26c1.654,0,3,1.346,3,3v16.954c0,0.801-0.312,1.555-0.879,2.121l0,0l-9.047,9.046C21.508,31.688,20.754,32,19.953,32z M3,2C2.448,2,2,2.449,2,3v26c0,0.551,0.448,1,1,1h16.953c0.263,0,0.521-0.107,0.707-0.293l9.047-9.046C29.894,20.474,30,20.217,30,19.954V3c0-0.551-0.448-1-1-1H3z M30.414,21.368h0.01H30.414z"/></svg>