<svg xmlns="http://www.w3.org/2000/svg" viewBox="0 0 32 32"><!--! Font Icona - https://fonticona.com | License - https://fonticona.com/license | Copyright 2022 FontIcona.com --><path d="M25.042,32H6.958c-1.654,0-3-1.346-3-3V4.467c0-1.654,1.346-3,3-3h18.084c1.654,0,3,1.346,3,3V29C28.042,30.654,26.696,32,25.042,32z M6.958,3.467c-0.551,0-1,0.448-1,1V29c0,0.552,0.449,1,1,1h18.084c0.551,0,1-0.448,1-1V4.467c0-0.552-0.449-1-1-1H6.958z"/><path d="M23.609,4.933c-0.552,0-1-0.447-1-1V1c0-0.553,0.448-1,1-1s1,0.447,1,1v2.933C24.609,4.485,24.161,4.933,23.609,4.933z"/><path d="M19.805,4.933c-0.552,0-1-0.447-1-1V1c0-0.553,0.448-1,1-1s1,0.447,1,1v2.933C20.805,4.485,20.357,4.933,19.805,4.933z"/><path d="M16,4.933c-0.552,0-1-0.447-1-1V1c0-0.553,0.448-1,1-1s1,0.447,1,1v2.933C17,4.485,16.552,4.933,16,4.933z"/><path d="M12.195,4.933c-0.552,0-1-0.447-1-1V1c0-0.553,0.448-1,1-1s1,0.447,1,1v2.933C13.195,4.485,12.748,4.933,12.195,4.933z"/><path d="M8.391,4.933c-0.552,0-1-0.447-1-1V1c0-0.553,0.448-1,1-1s1,0.447,1,1v2.933C9.391,4.485,8.943,4.933,8.391,4.933z"/><path d="M9.173,24.947c-0.342,0-0.674-0.175-0.861-0.49c-0.858-1.449-1.03-2.529-0.526-3.301c0.424-0.65,1.201-0.917,2.297-0.777c1.019,0.125,1.93,0.476,2.811,0.815l0.201,0.077c-1.21-1.077-2.595-2.561-1.622-4.222c0.244-0.416,0.753-0.598,1.205-0.434c0.201,0.072,0.398,0.154,0.592,0.241c-0.98-1.298-1.685-2.813-1.139-4.613c0.09-0.297,0.312-0.534,0.601-0.645c0.29-0.109,0.613-0.079,0.877,0.081c0.959,0.587,1.909,1.38,2.914,2.219c1.443,1.204,2.924,2.44,4.381,2.999c-0.18-0.923-0.69-2.129-1.036-2.947c-0.195-0.462-0.371-0.88-0.491-1.221c-0.079-0.223-0.177-0.47-0.28-0.731c-0.535-1.356-1.2-3.043-0.722-4.487c0.173-0.524,0.737-0.808,1.264-0.635c0.524,0.174,0.809,0.739,0.635,1.264c-0.25,0.756,0.29,2.125,0.684,3.124c0.113,0.286,0.219,0.555,0.305,0.799c0.109,0.311,0.271,0.689,0.448,1.109c0.714,1.69,1.604,3.794,1.11,5.309c-0.148,0.454-0.59,0.738-1.071,0.684c-2.386-0.29-4.576-2.117-6.508-3.73c-0.356-0.297-0.704-0.588-1.045-0.862c0.358,0.79,1.069,1.607,1.969,2.583c0.553,0.6,1.125,1.22,1.551,1.852c0.224,0.333,0.228,0.769,0.008,1.104s-0.616,0.509-1.014,0.438c-0.889-0.159-1.698-0.535-2.475-0.943c0.219,0.201,0.44,0.392,0.627,0.553c0.956,0.824,1.71,1.475,1.765,2.344c0.024,0.391-0.109,0.77-0.377,1.066c-0.869,0.962-2.337,0.268-3.31-0.19c-0.143-0.067-0.264-0.126-0.349-0.158l-0.417-0.16c-0.803-0.31-1.561-0.602-2.334-0.697c-0.131-0.016-0.232-0.02-0.308-0.02c0.047,0.193,0.172,0.54,0.5,1.094c0.282,0.476,0.125,1.089-0.351,1.37C9.522,24.902,9.347,24.947,9.173,24.947z"/></svg>