<svg xmlns="http://www.w3.org/2000/svg" viewBox="0 0 32 32"><!--! Font Icona - https://fonticona.com | License - https://fonticona.com/license | Copyright 2022 FontIcona.com --><path d="M20.936,25.21c-0.553,0-1-0.447-1-1v-6.923c0-0.552,0.447-1,1-1s1,0.448,1,1v6.923C21.936,24.763,21.488,25.21,20.936,25.21z"/><path d="M14.146,32H2c-1.103,0-2-0.897-2-2V12.064c0-1.103,0.897-2,2-2h12.628c0.552,0,1,0.448,1,1s-0.448,1-1,1H2V30h12.146c0.552,0,1,0.447,1,1S14.698,32,14.146,32z"/><path d="M14.146,32c-0.129,0-0.259-0.024-0.383-0.076c-0.374-0.154-0.617-0.52-0.617-0.924v-5.79c0-1.103,0.897-2,2-2h5.79c0.404,0,0.77,0.243,0.924,0.617c0.155,0.374,0.069,0.804-0.217,1.09l-6.79,6.79C14.662,31.898,14.406,32,14.146,32z M15.146,25.21h-0.002l0.001,3.376l3.376-3.376H15.146z"/><path d="M25.828,15.236c-0.265,0-0.519-0.105-0.707-0.293l-4.032-4.032l0,0l-4.031-4.032c-0.203-0.203-0.309-0.483-0.291-0.769c0.018-0.287,0.158-0.551,0.384-0.728c1.697-1.319,4.164-1.04,5.288-0.819l1.809-1.809c-0.129-0.741,0.031-1.28,0.214-1.626c0.434-0.818,1.208-1.057,1.358-1.096c0.346-0.091,0.71,0.009,0.96,0.26l4.928,4.927c0.251,0.251,0.351,0.617,0.261,0.96c-0.04,0.151-0.278,0.926-1.098,1.358c-0.346,0.183-0.886,0.343-1.625,0.214l-1.809,1.809c0.221,1.125,0.499,3.592-0.819,5.287c-0.176,0.227-0.44,0.366-0.727,0.384C25.869,15.235,25.849,15.236,25.828,15.236z M22.503,9.497l3.021,3.021c0.299-1.37-0.142-2.972-0.147-2.992c-0.103-0.35-0.005-0.728,0.253-0.986l2.606-2.606c0.272-0.274,0.683-0.364,1.043-0.235c0.04,0.015,0.079,0.027,0.116,0.039l-3.133-3.132c0.012,0.037,0.024,0.076,0.038,0.116c0.13,0.364,0.039,0.77-0.234,1.043L23.46,6.37c-0.259,0.258-0.632,0.354-0.986,0.253c-0.544-0.156-1.865-0.388-2.988-0.145L22.503,9.497z"/><path d="M15.369,17.632c-0.256,0-0.512-0.098-0.707-0.293c-0.391-0.391-0.391-1.024,0-1.415l6.427-6.427c0.391-0.391,1.023-0.391,1.414,0s0.391,1.023,0,1.414l-6.427,6.428C15.88,17.534,15.625,17.632,15.369,17.632z"/></svg>