<svg xmlns="http://www.w3.org/2000/svg" viewBox="0 0 32 32"><!--! Font Icona - https://fonticona.com | License - https://fonticona.com/license | Copyright 2022 FontIcona.com --><path d="M10.856,20.416H0V9.618h10.856V20.416z M2,18.416h6.856v-6.798H2V18.416z"/><rect x="5.219" y="13.815" width="2" height="5.602"/><polygon points="16.193,22.381 8.856,22.381 8.856,19.416 10.856,19.416 10.856,20.381 14.193,20.381 14.193,18.416 17.508,18.416 17.508,11.618 9.856,11.618 9.856,9.618 19.508,9.618 19.508,20.416 16.193,20.416 "/><rect x="14.105" y="13.971" width="2" height="2.962"/><polygon points="32,20.416 18.508,20.416 18.508,18.416 30,18.416 30,11.618 18.508,11.618 18.508,9.618 32,9.618 "/><rect x="23.05" y="13.815" width="2" height="5.602"/><rect x="26.599" y="13.815" width="2" height="5.602"/></svg>