<svg xmlns="http://www.w3.org/2000/svg" viewBox="0 0 32 32"><!--! Font Icona - https://fonticona.com | License - https://fonticona.com/license | Copyright 2022 FontIcona.com --><path d="M20.674,32c-0.552,0-1-0.447-1-1v-8.837H5.545c-0.379,0-0.725-0.214-0.895-0.553s-0.133-0.744,0.095-1.048L19.874,0.399c0.258-0.343,0.709-0.485,1.116-0.348C21.398,0.188,21.674,0.569,21.674,1v19.163h4.781c0.552,0,1,0.447,1,1s-0.448,1-1,1h-4.781V31C21.674,31.553,21.226,32,20.674,32z M7.546,20.163h12.128V3.999L7.546,20.163z"/></svg>