<svg xmlns="http://www.w3.org/2000/svg" viewBox="0 0 32 32"><!--! Font Icona - https://fonticona.com | License - https://fonticona.com/license | Copyright 2022 FontIcona.com --><path d="M25.035,32H6.965c-0.402,0-0.765-0.241-0.921-0.611c-0.156-0.371-0.075-0.799,0.206-1.087c1.724-1.768,3.478-3.51,5.232-5.252c2.485-2.469,5.054-5.021,7.484-7.602C23.949,12.154,25,7.816,22.09,4.555c-1.575-1.766-3.896-2.653-6.535-2.544c-2.782,0.133-5.387,1.407-6.797,3.326C8.431,5.781,7.806,5.877,7.36,5.551C6.915,5.224,6.819,4.598,7.146,4.153c1.759-2.394,4.944-3.979,8.314-4.14c3.21-0.151,6.166,1.018,8.122,3.209c2.558,2.866,4.085,7.899-3.16,15.597c-2.453,2.605-5.035,5.17-7.531,7.649c-1.183,1.175-2.365,2.349-3.539,3.531h14.682v-2.818c0-0.553,0.448-1,1-1s1,0.447,1,1V31C26.035,31.553,25.587,32,25.035,32z"/></svg>