<svg xmlns="http://www.w3.org/2000/svg" viewBox="0 0 32 32"><!--! Font Icona - https://fonticona.com | License - https://fonticona.com/license | Copyright 2022 FontIcona.com --><path d="M24.991,2H7.009c-0.553,0-1-0.447-1-1s0.447-1,1-1h17.982c0.553,0,1,0.447,1,1S25.544,2,24.991,2z"/><path d="M10.502,32c-0.146,0-0.294-0.032-0.434-0.1c-0.498-0.24-0.706-0.838-0.466-1.335l14.488-30c0.24-0.497,0.839-0.704,1.335-0.466c0.498,0.24,0.706,0.838,0.466,1.335l-14.488,30C11.23,31.792,10.874,32,10.502,32z"/></svg>