<svg xmlns="http://www.w3.org/2000/svg" viewBox="0 0 32 32"><!--! Font Icona - https://fonticona.com | License - https://fonticona.com/license | Copyright 2022 FontIcona.com --><path d="M14.725,32c-2.923,0-5.681-1.253-7.566-3.438c-0.361-0.418-0.314-1.05,0.104-1.41c0.417-0.361,1.048-0.315,1.41,0.104C10.178,29,12.384,30,14.725,30c4.351,0,7.891-3.435,7.891-7.657s-3.54-7.657-7.891-7.657c-1.989,0-3.882,0.718-5.343,2.022c-0.127,0.14-0.293,0.244-0.484,0.295c-0.394,0.104-0.813-0.041-1.057-0.367c-0.175-0.232-0.234-0.52-0.185-0.789L9.521,0.876C9.583,0.376,10.009,0,10.514,0h13.571c0.552,0,1,0.447,1,1s-0.448,1-1,1H11.397L9.915,13.902c1.458-0.794,3.106-1.217,4.81-1.217c5.454,0,9.891,4.332,9.891,9.657S20.179,32,14.725,32z"/></svg>