<svg xmlns="http://www.w3.org/2000/svg" viewBox="0 0 32 32"><!--! Font Icona - https://fonticona.com | License - https://fonticona.com/license | Copyright 2022 FontIcona.com --><path d="M16,32c-5.318,0-9.645-4.326-9.645-9.645c0-5.317,4.326-9.644,9.645-9.644s9.645,4.326,9.645,9.644C25.645,27.674,21.318,32,16,32z M16,14.712c-4.215,0-7.645,3.429-7.645,7.644S11.785,30,16,30s7.645-3.43,7.645-7.645S20.215,14.712,16,14.712z"/><path d="M16,14.712c-4.056,0-7.355-3.3-7.355-7.356C8.645,3.3,11.944,0,16,0s7.355,3.3,7.355,7.355C23.355,11.412,20.056,14.712,16,14.712z M16,2c-2.953,0-5.355,2.402-5.355,5.355s2.402,5.356,5.355,5.356s5.355-2.403,5.355-5.356S18.953,2,16,2z"/></svg>