<svg xmlns="http://www.w3.org/2000/svg" viewBox="0 0 32 32"><!--! Font Icona - https://fonticona.com | License - https://fonticona.com/license | Copyright 2022 FontIcona.com --><path d="M15.882,17c-0.552,0-1-0.447-1-1s0.448-1,1-1c3.905,0,7.082-2.916,7.082-6.5S19.787,2,15.882,2C12.608,2,9.78,4.035,9.003,6.949C8.861,7.482,8.315,7.803,7.779,7.657C7.245,7.516,6.928,6.968,7.07,6.434C8.081,2.646,11.704,0,15.882,0c5.008,0,9.082,3.813,9.082,8.5S20.89,17,15.882,17z"/><path d="M15.882,32c-4.178,0-7.801-2.646-8.812-6.434c-0.142-0.534,0.175-1.082,0.708-1.224c0.536-0.146,1.082,0.175,1.224,0.708C9.78,27.965,12.608,30,15.882,30c3.905,0,7.082-2.916,7.082-6.5S19.787,17,15.882,17c-0.552,0-1-0.447-1-1s0.448-1,1-1c5.008,0,9.082,3.813,9.082,8.5S20.89,32,15.882,32z"/></svg>