<svg xmlns="http://www.w3.org/2000/svg" viewBox="0 0 32 32"><!--! Font Icona - https://fonticona.com | License - https://fonticona.com/license | Copyright 2022 FontIcona.com --><path d="M15.995,31.999c-1.116,0-2.23-0.027-3.337-0.083c-4.805-0.316-9.004-4.709-9.001-9.4v-6.087c-0.002-4.692,4.197-9.084,8.986-9.399c2.232-0.113,4.481-0.112,6.699-0.001c4.804,0.316,9.003,4.708,9.001,9.401v6.086c0.002,4.692-4.197,9.084-8.986,9.399C18.239,31.971,17.116,31.999,15.995,31.999z M16.004,8.944c-1.083,0-2.168,0.027-3.245,0.082c-3.712,0.244-7.104,3.772-7.103,7.401v6.088c-0.002,3.63,3.391,7.158,7.117,7.403c2.136,0.108,4.317,0.108,6.467-0.001c3.711-0.244,7.104-3.772,7.102-7.402v-6.087c0.002-3.63-3.391-7.158-7.117-7.403C18.16,8.971,17.083,8.944,16.004,8.944z"/><ellipse cx="9.09" cy="18.669" rx="1.25" ry="1.231"/><ellipse cx="13.697" cy="18.669" rx="1.25" ry="1.231"/><ellipse cx="18.303" cy="18.669" rx="1.25" ry="1.231"/><ellipse cx="22.91" cy="18.669" rx="1.25" ry="1.231"/><ellipse cx="9.09" cy="22.188" rx="1.25" ry="1.231"/><ellipse cx="13.697" cy="22.188" rx="1.25" ry="1.231"/><ellipse cx="18.303" cy="22.188" rx="1.25" ry="1.231"/><ellipse cx="22.91" cy="22.188" rx="1.25" ry="1.231"/><ellipse cx="9.09" cy="25.707" rx="1.25" ry="1.231"/><ellipse cx="13.697" cy="25.707" rx="1.25" ry="1.231"/><ellipse cx="18.303" cy="25.707" rx="1.25" ry="1.231"/><ellipse cx="22.91" cy="25.707" rx="1.25" ry="1.231"/><path d="M23.658,16.135H6.879l0.577-1.482c1.027-2.628,3.513-4.325,6.333-4.325h4.42c2.825,0,5.387,1.778,6.373,4.426l0.503,1.35L23.658,16.135z M10.033,14.135h11.924c-0.9-1.122-2.272-1.808-3.746-1.808h-4.42C12.291,12.327,10.925,13.007,10.033,14.135z"/><path d="M15.015,8.127c-0.033,0-0.066-0.002-0.1-0.005c-2.281-0.226-3.978-1.063-5.045-2.489C8.29,3.521,8.759,0.928,8.78,0.818c0.087-0.462,0.485-0.801,0.956-0.813c2.935-0.058,5.08,0.667,6.369,2.212c1.709,2.051,1.178,4.693,1.155,4.805c-0.113,0.54-0.643,0.888-1.185,0.772c-0.087-0.019-0.17-0.048-0.246-0.086C15.646,7.964,15.346,8.127,15.015,8.127z M10.701,2.012c0.019,0.667,0.17,1.628,0.781,2.437c0.718,0.95,1.94,1.517,3.631,1.684c0.082,0.008,0.161,0.026,0.235,0.053c0.035-0.62-0.022-1.789-0.791-2.7C13.8,2.587,12.505,2.093,10.701,2.012z"/><path d="M18.77,8.633c-0.312,0-0.597-0.146-0.782-0.377c-0.468,0.031-0.886-0.31-0.989-0.781c-0.04-0.185-0.361-1.839,0.762-3.196c0.879-1.062,2.33-1.571,4.333-1.521c0.471,0.013,0.869,0.353,0.956,0.815c0.036,0.19,0.319,1.903-0.761,3.345c-0.735,0.982-1.885,1.558-3.418,1.711C18.836,8.631,18.803,8.633,18.77,8.633z M21.066,4.793c-0.817,0.092-1.415,0.346-1.755,0.748c-0.285,0.338-0.366,0.754-0.38,1.064c0.81-0.121,1.398-0.415,1.748-0.875C20.904,5.435,21.015,5.096,21.066,4.793z"/></svg>