<svg xmlns="http://www.w3.org/2000/svg" viewBox="0 0 32 32"><!--! Font Icona - https://fonticona.com | License - https://fonticona.com/license | Copyright 2022 FontIcona.com --><path d="M30.999,21.241c-0.217,0-0.435-0.07-0.618-0.215l-5.38-4.241c-0.24-0.189-0.381-0.479-0.381-0.785s0.141-0.596,0.381-0.785l5.38-4.241c0.435-0.341,1.062-0.268,1.404,0.166c0.342,0.434,0.268,1.062-0.166,1.404L27.235,16l4.384,3.456c0.434,0.342,0.508,0.971,0.166,1.404C31.588,21.11,31.295,21.241,30.999,21.241z"/><path d="M1,21.241c-0.295,0-0.588-0.131-0.786-0.381c-0.342-0.434-0.268-1.062,0.166-1.404L4.764,16l-4.383-3.456c-0.434-0.342-0.508-0.971-0.166-1.404c0.342-0.434,0.97-0.508,1.404-0.166l5.379,4.241C7.239,15.404,7.379,15.694,7.379,16s-0.14,0.596-0.381,0.785l-5.379,4.241C1.436,21.171,1.217,21.241,1,21.241z"/><path d="M20,2h-8c-0.552,0-1-0.448-1-1s0.448-1,1-1h8c0.553,0,1,0.448,1,1S20.553,2,20,2z"/><path d="M20,32h-8c-0.552,0-1-0.447-1-1s0.448-1,1-1h8c0.553,0,1,0.447,1,1S20.553,32,20,32z"/><path d="M20,12h-8c-0.552,0-1-0.448-1-1s0.448-1,1-1h8c0.553,0,1,0.448,1,1S20.553,12,20,12z"/><path d="M20,22h-8c-0.552,0-1-0.447-1-1s0.448-1,1-1h8c0.553,0,1,0.447,1,1S20.553,22,20,22z"/></svg>