<svg xmlns="http://www.w3.org/2000/svg" viewBox="0 0 32 32"><!--! Font Icona - https://fonticona.com | License - https://fonticona.com/license | Copyright 2022 FontIcona.com --><path d="M13.125,32c-0.552,0-1-0.447-1-1V1c0-0.552,0.448-1,1-1s1,0.448,1,1v30C14.125,31.553,13.677,32,13.125,32z"/><path d="M30.999,31H19.871c-0.553,0-1-0.447-1-1s0.447-1,1-1h11.128c0.553,0,1,0.447,1,1S31.552,31,30.999,31z"/><path d="M30.999,21.667H19.871c-0.553,0-1-0.447-1-1s0.447-1,1-1h11.128c0.553,0,1,0.447,1,1S31.552,21.667,30.999,21.667z"/><path d="M30.999,12.333H19.871c-0.553,0-1-0.448-1-1s0.447-1,1-1h11.128c0.553,0,1,0.448,1,1S31.552,12.333,30.999,12.333z"/><path d="M30.999,3H19.871c-0.553,0-1-0.448-1-1s0.447-1,1-1h11.128c0.553,0,1,0.448,1,1S31.552,3,30.999,3z"/><path d="M1,21.241c-0.295,0-0.588-0.131-0.786-0.381c-0.342-0.434-0.268-1.062,0.166-1.404L4.764,16l-4.383-3.456c-0.434-0.342-0.508-0.971-0.166-1.404c0.342-0.434,0.97-0.508,1.404-0.166l5.379,4.241C7.239,15.404,7.379,15.694,7.379,16s-0.14,0.596-0.381,0.785l-5.379,4.241C1.436,21.171,1.217,21.241,1,21.241z"/></svg>