<svg xmlns="http://www.w3.org/2000/svg" viewBox="0 0 32 32"><!--! Font Icona - https://fonticona.com | License - https://fonticona.com/license | Copyright 2022 FontIcona.com --><path d="M20,2h-8c-0.552,0-1-0.448-1-1s0.448-1,1-1h8c0.553,0,1,0.448,1,1S20.553,2,20,2z"/><path d="M20,32h-8c-0.552,0-1-0.447-1-1s0.448-1,1-1h8c0.553,0,1,0.447,1,1S20.553,32,20,32z"/><path d="M20,12h-8c-0.552,0-1-0.448-1-1s0.448-1,1-1h8c0.553,0,1,0.448,1,1S20.553,12,20,12z"/><path d="M20,22h-8c-0.552,0-1-0.447-1-1s0.448-1,1-1h8c0.553,0,1,0.447,1,1S20.553,22,20,22z"/><path d="M25.622,21.241c-0.296,0-0.589-0.131-0.786-0.381c-0.342-0.434-0.268-1.062,0.166-1.404L29.385,16l-4.383-3.456c-0.434-0.342-0.508-0.971-0.166-1.404c0.342-0.434,0.971-0.507,1.404-0.166l5.379,4.241C31.859,15.404,32,15.694,32,16s-0.141,0.596-0.381,0.785l-5.379,4.241C26.057,21.171,25.839,21.241,25.622,21.241z"/><path d="M6.378,21.241c-0.217,0-0.435-0.07-0.619-0.215l-5.379-4.241C0.14,16.596,0,16.306,0,16s0.14-0.596,0.381-0.785l5.379-4.241c0.435-0.341,1.063-0.268,1.404,0.166c0.342,0.434,0.268,1.062-0.166,1.404L2.615,16l4.383,3.456c0.434,0.342,0.508,0.971,0.166,1.404C6.967,21.11,6.674,21.241,6.378,21.241z"/></svg>