<svg xmlns="http://www.w3.org/2000/svg" viewBox="0 0 32 32"><!--! Font Icona - https://fonticona.com | License - https://fonticona.com/license | Copyright 2022 FontIcona.com --><path d="M18.875,32c-0.553,0-1-0.447-1-1V1c0-0.552,0.447-1,1-1s1,0.448,1,1v30C19.875,31.553,19.428,32,18.875,32z"/><path d="M12.129,31H1c-0.552,0-1-0.447-1-1s0.448-1,1-1h11.129c0.552,0,1,0.447,1,1S12.681,31,12.129,31z"/><path d="M12.129,21.667H1c-0.552,0-1-0.447-1-1s0.448-1,1-1h11.129c0.552,0,1,0.447,1,1S12.681,21.667,12.129,21.667z"/><path d="M12.129,12.333H1c-0.552,0-1-0.448-1-1s0.448-1,1-1h11.129c0.552,0,1,0.448,1,1S12.681,12.333,12.129,12.333z"/><path d="M12.129,3H1C0.448,3,0,2.552,0,2s0.448-1,1-1h11.129c0.552,0,1,0.448,1,1S12.681,3,12.129,3z"/><path d="M30.999,21.241c-0.217,0-0.435-0.07-0.618-0.215l-5.379-4.241c-0.24-0.189-0.381-0.479-0.381-0.785s0.141-0.596,0.381-0.785l5.379-4.241c0.435-0.341,1.062-0.268,1.404,0.166c0.342,0.434,0.268,1.062-0.166,1.404L27.236,16l4.383,3.456c0.434,0.342,0.508,0.971,0.166,1.404C31.588,21.11,31.295,21.241,30.999,21.241z"/></svg>