<svg xmlns="http://www.w3.org/2000/svg" viewBox="0 0 32 32"><!--! Font Icona - https://fonticona.com | License - https://fonticona.com/license | Copyright 2022 FontIcona.com --><path d="M31,32h-3.5c-0.552,0-1-0.447-1-1s0.448-1,1-1H30v-2.5c0-0.553,0.448-1,1-1s1,0.447,1,1V31C32,31.553,31.552,32,31,32z"/><path d="M20.237,32h-8.474c-0.552,0-1-0.447-1-1s0.448-1,1-1h8.474c0.552,0,1,0.447,1,1S20.789,32,20.237,32z"/><path d="M4.5,32H1c-0.552,0-1-0.447-1-1v-3.5c0-0.553,0.448-1,1-1s1,0.447,1,1V30h2.5c0.552,0,1,0.447,1,1S5.052,32,4.5,32z"/><path d="M1,21.237c-0.552,0-1-0.447-1-1v-8.474c0-0.552,0.448-1,1-1s1,0.448,1,1v8.474C2,20.79,1.552,21.237,1,21.237z"/><path d="M1,5.5c-0.552,0-1-0.448-1-1V1c0-0.552,0.448-1,1-1h3.5c0.552,0,1,0.448,1,1s-0.448,1-1,1H2v2.5C2,5.052,1.552,5.5,1,5.5z"/><path d="M20.237,2h-8.474c-0.552,0-1-0.448-1-1s0.448-1,1-1h8.474c0.552,0,1,0.448,1,1S20.789,2,20.237,2z"/><path d="M31,5.5c-0.552,0-1-0.448-1-1V2h-2.5c-0.552,0-1-0.448-1-1s0.448-1,1-1H31c0.552,0,1,0.448,1,1v3.5C32,5.052,31.552,5.5,31,5.5z"/><path d="M31,21.237c-0.552,0-1-0.447-1-1v-8.474c0-0.552,0.448-1,1-1s1,0.448,1,1v8.474C32,20.79,31.552,21.237,31,21.237z"/><path d="M16,17H6.169c-0.552,0-1-0.448-1-1V6.232c0-0.552,0.448-1,1-1H16c0.552,0,1,0.448,1,1V16C17,16.552,16.552,17,16,17z M7.169,15H15V7.232H7.169V15z"/><path d="M25.831,26.769H16c-0.552,0-1-0.447-1-1V16c0-0.552,0.448-1,1-1h9.831c0.552,0,1,0.448,1,1v9.769C26.831,26.321,26.383,26.769,25.831,26.769z M17,24.769h7.831V17H17V24.769z"/></svg>