<svg xmlns="http://www.w3.org/2000/svg" viewBox="0 0 32 32"><!--! Font Icona - https://fonticona.com | License - https://fonticona.com/license | Copyright 2022 FontIcona.com --><path d="M4.689,32c-0.552,0-1-0.447-1-1V1c0-0.552,0.448-1,1-1s1,0.448,1,1v30C5.689,31.553,5.241,32,4.689,32z"/><path d="M27.311,32c-0.553,0-1-0.447-1-1V1c0-0.552,0.447-1,1-1s1,0.448,1,1v30C28.311,31.553,27.863,32,27.311,32z"/><path d="M21.564,31H10.436c-0.552,0-1-0.447-1-1s0.448-1,1-1h11.129c0.553,0,1,0.447,1,1S22.117,31,21.564,31z"/><path d="M21.564,21.667H10.436c-0.552,0-1-0.447-1-1s0.448-1,1-1h11.129c0.553,0,1,0.447,1,1S22.117,21.667,21.564,21.667z"/><path d="M21.564,12.333H10.436c-0.552,0-1-0.448-1-1s0.448-1,1-1h11.129c0.553,0,1,0.448,1,1S22.117,12.333,21.564,12.333z"/><path d="M21.564,3H10.436c-0.552,0-1-0.448-1-1s0.448-1,1-1h11.129c0.553,0,1,0.448,1,1S22.117,3,21.564,3z"/></svg>