<svg xmlns="http://www.w3.org/2000/svg" viewBox="0 0 32 32"><!--! Font Icona - https://fonticona.com | License - https://fonticona.com/license | Copyright 2022 FontIcona.com --><path d="M31,32h-4c-0.552,0-1-0.447-1-1s0.448-1,1-1h3v-3c0-0.553,0.448-1,1-1s1,0.447,1,1v4C32,31.553,31.552,32,31,32z"/><path d="M20.4,32h-8.8c-0.552,0-1-0.447-1-1s0.448-1,1-1h8.8c0.552,0,1,0.447,1,1S20.952,32,20.4,32z"/><path d="M5,32H1c-0.552,0-1-0.447-1-1v-4c0-0.553,0.448-1,1-1s1,0.447,1,1v3h3c0.552,0,1,0.447,1,1S5.552,32,5,32z"/><path d="M1,21.4c-0.552,0-1-0.447-1-1v-8.8c0-0.552,0.448-1,1-1s1,0.448,1,1v8.8C2,20.953,1.552,21.4,1,21.4z"/><path d="M1,6C0.448,6,0,5.552,0,5V1c0-0.552,0.448-1,1-1h4c0.552,0,1,0.448,1,1S5.552,2,5,2H2v3C2,5.552,1.552,6,1,6z"/><path d="M20.4,2h-8.8c-0.552,0-1-0.448-1-1s0.448-1,1-1h8.8c0.552,0,1,0.448,1,1S20.952,2,20.4,2z"/><path d="M31,6c-0.552,0-1-0.448-1-1V2h-3c-0.552,0-1-0.448-1-1s0.448-1,1-1h4c0.552,0,1,0.448,1,1v4C32,5.552,31.552,6,31,6z"/><path d="M31,21.4c-0.552,0-1-0.447-1-1v-8.8c0-0.552,0.448-1,1-1s1,0.448,1,1v8.8C32,20.953,31.552,21.4,31,21.4z"/><path d="M23.393,24.393h-9.857c-0.552,0-1-0.447-1-1v-3.928H8.607c-0.552,0-1-0.447-1-1V8.607c0-0.552,0.448-1,1-1h9.857c0.552,0,1,0.448,1,1v3.929h3.929c0.552,0,1,0.448,1,1v9.857C24.393,23.945,23.945,24.393,23.393,24.393z M14.536,22.393h7.857v-7.857h-3.929c-0.552,0-1-0.448-1-1V9.607H9.607v7.858h3.929c0.552,0,1,0.447,1,1V22.393z"/></svg>