<svg xmlns="http://www.w3.org/2000/svg" viewBox="0 0 32 32"><!--! Font Icona - https://fonticona.com | License - https://fonticona.com/license | Copyright 2022 FontIcona.com --><path d="M16,16.545c-4.562,0-8.272-3.711-8.272-8.272S11.438,0,16,0s8.272,3.711,8.272,8.272S20.562,16.545,16,16.545z M16,2c-3.458,0-6.272,2.813-6.272,6.272s2.814,6.272,6.272,6.272s6.272-2.813,6.272-6.272S19.458,2,16,2z"/><path d="M16,21.369c-3.796,0-7.592-1.29-10.832-3.871c-0.432-0.344-0.503-0.974-0.159-1.405c0.346-0.433,0.974-0.502,1.405-0.159c5.733,4.568,13.438,4.568,19.171,0c0.432-0.343,1.06-0.273,1.405,0.159c0.344,0.432,0.273,1.062-0.159,1.405C23.592,20.079,19.796,21.369,16,21.369z"/><path d="M8.483,32c-0.201,0-0.404-0.061-0.58-0.187c-0.449-0.32-0.554-0.945-0.233-1.395l7.599-10.647c0.188-0.263,0.491-0.419,0.814-0.419l0,0c0.323,0,0.626,0.156,0.814,0.419l7.432,10.414c0.321,0.449,0.216,1.074-0.233,1.396c-0.451,0.319-1.074,0.215-1.395-0.233l-6.618-9.273l-6.785,9.507C9.103,31.854,8.795,32,8.483,32z"/></svg>