<svg xmlns="http://www.w3.org/2000/svg" viewBox="0 0 32 32"><!--! Font Icona - https://fonticona.com | License - https://fonticona.com/license | Copyright 2022 FontIcona.com --><path d="M18.233,26.942c-0.03,0-0.059-0.001-0.083-0.002H7.301c-1.051,0-1.958-0.403-2.624-1.165c-1.825-2.089-1.32-6.282-1.257-6.753c0.072-0.414,0.175-0.781,0.313-1.13l2.798-6.549c0.262-0.576,0.794-0.963,1.399-1.033l0.114-0.006h8.99c0.588,0.042,1.066,0.268,1.424,0.638l2.667,2.864l6.244-3.269c1.055-0.389,1.853-0.298,2.365,0.275c0.833,0.927,0.195,2.492-0.117,3.121c-0.149,0.312-0.333,0.627-0.539,0.923l-6.334,8.974C20.539,26.667,18.817,26.942,18.233,26.942z M8.296,12.304l-2.713,6.349c-0.078,0.198-0.145,0.434-0.187,0.675c-0.122,0.924-0.254,3.943,0.787,5.132c0.287,0.328,0.642,0.48,1.117,0.48l10.985,0.005c-0.034-0.004,1.11-0.067,2.853-2.307l6.303-8.932c0.142-0.203,0.271-0.423,0.379-0.651c0.099-0.199,0.187-0.432,0.247-0.636l-6.32,3.313c-0.683,0.288-1.371,0.154-1.837-0.301l-2.902-3.115L8.296,12.304z"/><path d="M3.669,19.355l-3.09-4.309c-0.649-1.038-0.749-2.264-0.302-3.334l0.896-1.971c0.08-0.261,0.215-0.507,0.394-0.717c0.348-0.408,0.834-0.656,1.368-0.698c0.533-0.043,1.053,0.126,1.461,0.474l3.455,2.614L6.645,13.01l-3.501-2.651L3.121,10.45l-0.095,0.049L2.11,12.512c-0.186,0.445-0.142,0.987,0.13,1.422l3.054,4.255L3.669,19.355z"/><path d="M15.767,7.059h-5.396c-0.553,0-1-0.448-1-1s0.447-1,1-1h5.396c0.553,0,1,0.448,1,1S16.319,7.059,15.767,7.059z"/><rect x="12.068" y="6.059" width="2" height="5.245"/><path d="M29.132,26.941c-0.019,0-0.036,0-0.055-0.001c-1.447-0.079-2.633-1.228-2.758-2.672c-0.065-0.484-0.01-1.029,0.165-1.531c0.201-0.579,0.493-1.124,0.867-1.616c0.251-0.34,0.529-0.666,0.81-0.993l0.248-0.291c0.193-0.229,0.465-0.352,0.778-0.355c0.3,0.004,0.582,0.143,0.769,0.377c0.144,0.182,0.29,0.353,0.435,0.522c0.207,0.244,0.412,0.484,0.605,0.741c0.37,0.493,0.658,1.036,0.858,1.619c0.006,0.018,0.011,0.035,0.016,0.053c0.14,0.493,0.166,1.019,0.078,1.524c-0.149,1.426-1.33,2.549-2.767,2.621C29.165,26.941,29.148,26.941,29.132,26.941z M29.17,22.038c-0.074,0.093-0.147,0.187-0.219,0.283c-0.254,0.334-0.445,0.692-0.578,1.074c-0.072,0.209-0.096,0.436-0.066,0.656c0.043,0.484,0.393,0.839,0.827,0.888c0.438-0.047,0.788-0.401,0.827-0.844c0.003-0.033,0.008-0.066,0.014-0.099c0.04-0.209,0.032-0.427-0.022-0.632c-0.131-0.373-0.317-0.722-0.554-1.036C29.324,22.229,29.248,22.133,29.17,22.038z"/></svg>