<svg xmlns="http://www.w3.org/2000/svg" viewBox="0 0 32 32"><!--! Font Icona - https://fonticona.com | License - https://fonticona.com/license | Copyright 2022 FontIcona.com --><path d="M18.462,7.218c-0.268,0-0.524-0.107-0.712-0.297l-2.575-2.609c-0.384-0.39-0.384-1.016,0-1.405l2.575-2.609c0.376-0.381,1.048-0.381,1.424,0l2.575,2.609c0.384,0.39,0.384,1.016,0,1.405l-2.575,2.609C18.986,7.111,18.729,7.218,18.462,7.218z M17.292,3.609l1.17,1.186l1.17-1.186l-1.17-1.186L17.292,3.609z"/><path d="M18.049,11.159c-3.715,0-6.724-2.375-6.873-2.494c-0.431-0.346-0.5-0.975-0.154-1.406c0.346-0.43,0.974-0.5,1.404-0.155l0,0c0.036,0.028,3.59,2.815,7.218,1.852c2.474-0.653,4.499-2.899,6.018-6.676c0.206-0.512,0.789-0.762,1.301-0.555c0.513,0.206,0.761,0.789,0.555,1.301c-1.771,4.403-4.254,7.05-7.379,7.868C19.429,11.08,18.727,11.159,18.049,11.159z"/><path d="M15.42,32c-1.865,0-3.679-0.894-5.168-2.562c-1.104-1.236-1.73-2.571-2.336-3.863c-0.239-0.508-0.48-1.024-0.757-1.543c-0.629-1.183-1.908-2.417-2.961-2.345c-0.906,0.033-1.886,0.785-2.45,1.419c-0.366,0.413-0.999,0.45-1.412,0.083c-0.413-0.367-0.45-0.999-0.083-1.412c0.42-0.472,1.94-2.019,3.871-2.089c2.016-0.064,3.899,1.713,4.8,3.404c0.292,0.549,0.549,1.094,0.801,1.633c0.57,1.215,1.109,2.362,2.019,3.38c0.859,0.962,2.267,2.065,4.089,1.872c0.045-0.005,0.089-0.009,0.136-0.005c0.148-0.011,3.632,0.013,5.352-3.83l0,0c0,0,0.758-1.875-0.209-3.526c-0.875-1.497-2.986-2.483-6.102-2.854c-0.439-0.052-0.791-0.387-0.867-0.822c-0.076-0.435,0.144-0.869,0.539-1.066c1.236-0.618,2.252-1.523,2.27-1.861c-0.031-0.287-0.558-0.874-1.633-1.261c-1.186-0.427-2.379-0.367-2.901,0.144c-0.48,0.47-0.495,1.467-0.043,2.807c0.176,0.523-0.105,1.09-0.628,1.267c-0.525,0.176-1.091-0.105-1.267-0.628c-0.91-2.7-0.209-4.141,0.539-4.874c1.315-1.289,3.435-1.154,4.979-0.597c1.69,0.608,2.818,1.735,2.944,2.941c0.097,0.928-0.49,1.761-1.217,2.422c2.479,0.649,4.199,1.789,5.13,3.4c1.461,2.53,0.347,5.2,0.299,5.312c-2.158,4.821-6.509,5.024-7.166,5.027C15.798,31.99,15.609,32,15.42,32z"/><path d="M26.933,23.962c-0.712,0-1.427-0.145-1.977-0.514c-1.345-0.903-1.86-2.476-1.281-3.913c0.564-1.4,1.985-2.159,3.533-1.885c0.544,0.096,0.907,0.614,0.812,1.158s-0.616,0.906-1.158,0.812c-0.923-0.159-1.252,0.466-1.331,0.662c-0.175,0.435-0.125,1.059,0.541,1.506c0.406,0.272,1.667,0.209,2.248-0.113c0.681-0.377,1.259-1.2,1.548-2.2c0.47-1.626-0.363-3.535-1.897-4.345c-0.757-0.4-1.994-0.47-2.759-0.155c-1.007,0.414-1.852,1.177-2.746,1.984c-0.34,0.308-0.681,0.614-1.03,0.903c-1.533,1.269-3.894,1.588-5.791,1.845l-0.379,0.052c-0.547,0.069-1.052-0.306-1.127-0.854c-0.076-0.547,0.307-1.052,0.854-1.127l0.384-0.052c1.645-0.223,3.691-0.5,4.784-1.404c0.328-0.271,0.646-0.559,0.965-0.847c0.982-0.886,1.997-1.803,3.325-2.349c1.306-0.537,3.178-0.437,4.453,0.236c2.38,1.256,3.62,4.123,2.885,6.668c-0.439,1.52-1.35,2.757-2.5,3.394C28.741,23.728,27.839,23.962,26.933,23.962z"/></svg>