<svg xmlns="http://www.w3.org/2000/svg" viewBox="0 0 32 32"><!--! Font Icona - https://fonticona.com | License - https://fonticona.com/license | Copyright 2022 FontIcona.com --><path d="M9.272,28.077c-0.224,0-0.449-0.075-0.636-0.229c-3.203-2.643-5.019-6.54-4.979-10.692C3.695,9.861,9.139,3.923,15.792,3.923c6.666,0,12.089,5.94,12.089,13.243c0,0.552-0.447,1-1,1s-1-0.448-1-1c0-6.199-4.525-11.243-10.089-11.243c-5.556,0-10.103,5.046-10.135,11.248c-0.033,3.55,1.517,6.878,4.253,9.135c0.426,0.352,0.486,0.981,0.135,1.408C9.848,27.953,9.562,28.077,9.272,28.077z"/><path d="M22.301,28.077c-0.289,0-0.574-0.124-0.772-0.364c-0.352-0.426-0.291-1.056,0.135-1.408c2.736-2.257,4.286-5.584,4.252-9.13c-0.031-6.207-4.572-11.252-10.123-11.252c-5.569,0-10.1,5.043-10.1,11.243c0,0.552-0.447,1-1,1s-1-0.448-1-1c0-7.302,5.428-13.243,12.1-13.243c6.647,0,12.086,5.938,12.123,13.238c0.04,4.148-1.774,8.045-4.979,10.688C22.75,28.002,22.524,28.077,22.301,28.077z"/><path d="M9.273,28.077H1c-0.553,0-1-0.448-1-1s0.447-1,1-1h8.273c0.553,0,1,0.448,1,1S9.826,28.077,9.273,28.077z"/><path d="M31,28.077h-8.7c-0.553,0-1-0.448-1-1s0.447-1,1-1H31c0.553,0,1,0.448,1,1S31.553,28.077,31,28.077z"/><path d="M1,28.077c-0.553,0-1-0.448-1-1v-2.192c0-0.552,0.447-1,1-1s1,0.448,1,1v2.192C2,27.629,1.553,28.077,1,28.077z"/><path d="M31,28.077c-0.553,0-1-0.448-1-1v-2.192c0-0.552,0.447-1,1-1s1,0.448,1,1v2.192C32,27.629,31.553,28.077,31,28.077z"/></svg>