<svg xmlns="http://www.w3.org/2000/svg" viewBox="0 0 32 32"><!--! Font Icona - https://fonticona.com | License - https://fonticona.com/license | Copyright 2022 FontIcona.com --><path d="M2.301,29.103h-2v-17.39c0-1.791,1.457-3.248,3.249-3.248h6.695v2H3.55c-0.688,0-1.249,0.56-1.249,1.248V29.103z"/><path d="M2.747,32c-0.562,0-1.104-0.19-1.548-0.549c-0.515-0.415-0.836-1.005-0.905-1.663c-0.049-0.455,0.03-0.916,0.229-1.332l3.335-9.053c0.648-1.614,2.164-2.69,3.873-2.766l21.336-0.001c0.569-0.065,1.22,0.137,1.737,0.562s0.838,1.026,0.903,1.692c0.044,0.439-0.03,0.884-0.213,1.286l-3.117,9.059c-0.63,1.589-2.141,2.67-3.848,2.754L2.955,31.992C2.886,31.998,2.816,32,2.747,32z M29.217,18.63c-0.017,0-0.034,0.001-0.052,0.002L7.776,18.637c-0.883,0.041-1.705,0.624-2.052,1.486l-3.361,9.113c-0.075,0.166-0.09,0.254-0.081,0.341c0.019,0.17,0.116,0.273,0.173,0.319s0.18,0.121,0.347,0.102l0.106-0.006H24.48c0.87-0.044,1.684-0.623,2.03-1.474l3.129-9.082c0.072-0.17,0.087-0.259,0.078-0.348c-0.018-0.183-0.122-0.293-0.183-0.343C29.48,18.7,29.37,18.63,29.217,18.63z"/><path d="M28.326,18.637c-0.065,0-0.131-0.006-0.197-0.02c-0.542-0.108-0.893-0.636-0.784-1.177l2.03-10.124H16.88l-2.109,10.517c-0.109,0.542-0.637,0.89-1.177,0.784c-0.542-0.108-0.893-0.636-0.784-1.177L15.08,6.12c0.094-0.467,0.504-0.803,0.98-0.803h14.535c0.3,0,0.584,0.134,0.773,0.366c0.19,0.232,0.266,0.537,0.207,0.831l-2.271,11.32C29.21,18.309,28.793,18.637,28.326,18.637z"/><path d="M8.744,18.637c-0.06,0-0.121-0.005-0.182-0.017C8.02,18.521,7.66,18,7.76,17.457l3.058-16.637c0.101-0.542,0.625-0.901,1.164-0.803c0.543,0.1,0.902,0.621,0.803,1.164L9.727,17.818C9.638,18.3,9.218,18.637,8.744,18.637z"/><path d="M26.695,2H11.801c-0.553,0-1-0.448-1-1s0.447-1,1-1h14.895c0.553,0,1,0.448,1,1S27.248,2,26.695,2z"/><path d="M25.605,7.317c-0.066,0-0.134-0.006-0.202-0.021c-0.541-0.111-0.89-0.64-0.778-1.181l1.091-5.317c0.11-0.541,0.636-0.893,1.181-0.778c0.541,0.111,0.89,0.64,0.778,1.181l-1.091,5.317C26.487,6.991,26.07,7.317,25.605,7.317z"/><path d="M26.695,10.572h-8.251c-0.276,0-0.5-0.224-0.5-0.5s0.224-0.5,0.5-0.5h8.251c0.276,0,0.5,0.224,0.5,0.5S26.972,10.572,26.695,10.572z"/><path d="M21.119,14.506h-3.743c-0.276,0-0.5-0.224-0.5-0.5s0.224-0.5,0.5-0.5h3.743c0.276,0,0.5,0.224,0.5,0.5S21.396,14.506,21.119,14.506z"/><path d="M25.919,14.506h-3.35c-0.276,0-0.5-0.224-0.5-0.5s0.224-0.5,0.5-0.5h3.35c0.276,0,0.5,0.224,0.5,0.5S26.195,14.506,25.919,14.506z"/></svg>