<svg xmlns="http://www.w3.org/2000/svg" viewBox="0 0 32 32"><!--! Font Icona - https://fonticona.com | License - https://fonticona.com/license | Copyright 2022 FontIcona.com --><path d="M9.645,29.323c-2.188,0-3.969-1.78-3.969-3.969s1.781-3.97,3.969-3.97s3.969,1.781,3.969,3.97S11.833,29.323,9.645,29.323z M9.645,23.385c-1.086,0-1.969,0.884-1.969,1.97s0.883,1.969,1.969,1.969s1.969-0.883,1.969-1.969S10.731,23.385,9.645,23.385z"/><path d="M19.307,29.323c-2.189,0-3.97-1.78-3.97-3.969s1.781-3.97,3.97-3.97c2.188,0,3.969,1.781,3.969,3.97S21.496,29.323,19.307,29.323z M19.307,23.385c-1.086,0-1.97,0.884-1.97,1.97s0.884,1.969,1.97,1.969s1.969-0.883,1.969-1.969S20.393,23.385,19.307,23.385z"/><path d="M23.86,19.891c-0.261,0-0.522-0.102-0.718-0.304c-0.385-0.396-0.375-1.029,0.021-1.414c0.333-0.322,0.844-0.747,1.491-1.284c1.407-1.169,5.69-4.726,5.332-6.018c-0.062-0.226-0.55-0.553-1.717-0.732c-2.936-0.448-6.021-0.37-9.003-0.292C15.64,9.943,11.89,10.039,8.225,9.219C5.254,8.554,2.8,7.056,0.271,4.361c-0.378-0.402-0.358-1.036,0.044-1.414c0.403-0.376,1.036-0.358,1.414,0.045c2.269,2.417,4.342,3.695,6.933,4.275c3.423,0.766,7.048,0.671,10.552,0.58c3.07-0.079,6.246-0.163,9.358,0.314c1.898,0.291,3.022,1.022,3.342,2.175c0.649,2.345-2.459,5.164-5.981,8.09c-0.59,0.49-1.099,0.913-1.376,1.182C24.362,19.797,24.111,19.891,23.86,19.891z"/></svg>