<svg xmlns="http://www.w3.org/2000/svg" viewBox="0 0 32 32"><!--! Font Icona - https://fonticona.com | License - https://fonticona.com/license | Copyright 2022 FontIcona.com --><path d="M13.348,30.702c-0.189,0-0.378-0.054-0.542-0.16c-0.285-0.184-0.458-0.5-0.458-0.84V4.827c0-0.394,0.23-0.75,0.589-0.911l5.608-2.529c0.309-0.141,0.668-0.114,0.954,0.071c0.285,0.184,0.458,0.5,0.458,0.84v24.875c0,0.394-0.23,0.75-0.589,0.911l-5.608,2.529C13.628,30.673,13.488,30.702,13.348,30.702z M14.348,5.473v22.682l3.608-1.627V3.846L14.348,5.473z M18.956,27.173h0.01H18.956z"/><path d="M13.349,30.702c-0.06,0-0.12-0.005-0.18-0.017c-6.5-1.185-13.092-4.967-13.168-10.748c-0.066-5.006,3.648-9.586,9.032-11.136c0.532-0.15,1.085,0.153,1.238,0.685c0.153,0.53-0.153,1.085-0.684,1.237c-4.521,1.302-7.641,5.08-7.586,9.188c0.061,4.619,6.018,7.803,11.526,8.808c0.543,0.099,0.904,0.619,0.805,1.163C14.244,30.364,13.823,30.702,13.349,30.702z"/><path d="M12.98,26.012c-0.029,0-0.058-0.001-0.087-0.004c-4.599-0.397-7.922-2.672-8.466-5.795c-0.46-2.64,1.25-5.199,4.464-6.68c0.502-0.229,1.096-0.011,1.327,0.49c0.231,0.501,0.012,1.096-0.49,1.326c-2.388,1.1-3.633,2.789-3.331,4.52c0.314,1.805,2.499,3.786,6.668,4.146c0.55,0.047,0.958,0.532,0.91,1.082C13.931,25.619,13.494,26.012,12.98,26.012z"/><path d="M23.517,17.475c-0.295,0-0.58-0.131-0.772-0.365c-0.243-0.295-0.296-0.703-0.137-1.051l0.724-1.581c-0.257-0.093-0.517-0.177-0.778-0.252c-0.531-0.151-0.838-0.705-0.686-1.236c0.152-0.53,0.705-0.837,1.237-0.686c0.676,0.193,1.344,0.439,1.985,0.73c0.242,0.109,0.43,0.312,0.523,0.561c0.093,0.249,0.083,0.524-0.028,0.766l-0.304,0.663l4.204-1.007l-2.039-3.664l-0.165,0.357c-0.111,0.241-0.313,0.428-0.562,0.52c-0.248,0.092-0.524,0.08-0.765-0.03c-1.127-0.521-1.979-0.708-3.269-0.991l0.408-1.958c1.012,0.222,1.853,0.406,2.776,0.748l0.587-1.27c0.158-0.342,0.494-0.566,0.87-0.58c0.38-0.034,0.728,0.185,0.912,0.513l3.636,6.535c0.152,0.273,0.167,0.603,0.042,0.889s-0.378,0.497-0.683,0.57l-7.483,1.792C23.672,17.466,23.594,17.475,23.517,17.475z"/><path d="M22.829,14.265c-0.552,0-1-0.447-1-1V9.227c0-0.553,0.448-1,1-1s1,0.447,1,1v4.038C23.829,13.817,23.381,14.265,22.829,14.265z"/><path d="M9.31,15.441c-0.552,0-1-0.447-1-1V9.763c0-0.553,0.448-1,1-1s1,0.447,1,1v4.679C10.31,14.994,9.862,15.441,9.31,15.441z"/></svg>