<svg xmlns="http://www.w3.org/2000/svg" viewBox="0 0 32 32"><!--! Font Icona - https://fonticona.com | License - https://fonticona.com/license | Copyright 2022 FontIcona.com --><path d="M22.55,9.286l0.103,0.022v0.151C22.619,9.401,22.586,9.343,22.55,9.286z"/><path d="M16,32C7.348,32,0.309,24.822,0.309,16S7.348,0,16,0s15.691,7.178,15.691,16S24.652,32,16,32z M16,2C8.45,2,2.309,8.28,2.309,16S8.45,30,16,30s13.691-6.28,13.691-14S23.55,2,16,2z M16,27.548c-2.2,0-4.283-1.172-5.865-3.299C8.502,22.056,7.603,19.126,7.603,16s0.899-6.056,2.533-8.25C11.717,5.624,13.8,4.452,16,4.452s4.283,1.172,5.865,3.299c1.633,2.193,2.532,5.123,2.532,8.249s-0.899,6.056-2.532,8.249l0,0c0,0-0.001,0-0.001,0.001C20.282,26.377,18.2,27.548,16,27.548z M16,6.452c-1.552,0-3.064,0.885-4.26,2.492C10.361,10.796,9.603,13.302,9.603,16s0.759,5.204,2.137,7.055c1.196,1.608,2.709,2.493,4.261,2.493s3.064-0.885,4.26-2.492l0.001-0.001c1.378-1.851,2.137-4.356,2.137-7.055s-0.759-5.204-2.137-7.055C19.064,7.337,17.552,6.452,16,6.452z"/><path d="M12.792,7.782L11.356,6.39c6.564-6.76,15.266-2.073,15.353-2.024l-0.967,1.75l0.483-0.875l-0.482,0.876C25.441,5.95,18.279,2.131,12.792,7.782z"/><path d="M20.872,29.439c-5.696,0-9.455-3.755-9.651-3.954l1.43-1.4l-0.715,0.7l0.713-0.701c0.21,0.212,5.232,5.179,12.265,2.616l0.686,1.879C23.915,29.193,22.33,29.439,20.872,29.439z"/></svg>