<svg xmlns="http://www.w3.org/2000/svg" viewBox="0 0 32 32"><!--! Font Icona - https://fonticona.com | License - https://fonticona.com/license | Copyright 2022 FontIcona.com --><path d="M21.5,32h-11c-1.654,0-3-1.346-3-3V3c0-1.654,1.346-3,3-3h11c1.654,0,3,1.346,3,3v26C24.5,30.654,23.154,32,21.5,32z M10.5,2c-0.551,0-1,0.448-1,1v26c0,0.552,0.449,1,1,1h11c0.551,0,1-0.448,1-1V3c0-0.552-0.449-1-1-1H10.5z"/><path d="M19.854,28.37c-0.256,0-0.512-0.098-0.707-0.293l-7.715-7.715c-0.391-0.391-0.391-1.023,0-1.414s1.023-0.391,1.414,0l7.715,7.715c0.391,0.391,0.391,1.023,0,1.414C20.366,28.272,20.11,28.37,19.854,28.37z"/><path d="M12.139,28.37c-0.256,0-0.512-0.098-0.707-0.293c-0.391-0.391-0.391-1.023,0-1.414l7.715-7.715c0.391-0.391,1.023-0.391,1.414,0s0.391,1.023,0,1.414l-7.715,7.715C12.65,28.272,12.395,28.37,12.139,28.37z"/><path d="M14.978,13.289c-0.289,0-0.566-0.125-0.757-0.347l-2.4-2.778c-0.361-0.418-0.315-1.049,0.103-1.41c0.417-0.361,1.049-0.315,1.411,0.104l1.479,1.712l3.742-6.502c0.276-0.479,0.888-0.642,1.366-0.368c0.479,0.276,0.643,0.888,0.368,1.366l-4.445,7.723c-0.162,0.28-0.449,0.466-0.772,0.496C15.041,13.287,15.009,13.289,14.978,13.289z"/><path d="M26.922,17H5.078c-0.552,0-1-0.447-1-1s0.448-1,1-1h21.845c0.552,0,1,0.447,1,1S27.475,17,26.922,17z"/></svg>