<svg xmlns="http://www.w3.org/2000/svg" viewBox="0 0 32 32"><!--! Font Icona - https://fonticona.com | License - https://fonticona.com/license | Copyright 2022 FontIcona.com --><path d="M10.832,32c-0.118,0-0.237-0.021-0.354-0.064C4.211,29.562,0,23.349,0,16.472C0,7.389,7.178,0,16,0s16,7.389,16,16.472c0,6.845-4.005,12.87-10.203,15.353c-0.251,0.1-0.528,0.094-0.774-0.013c-0.245-0.108-0.438-0.311-0.532-0.562l-3.594-9.474c-0.194-0.512,0.059-1.084,0.568-1.285c1.598-0.629,2.671-2.244,2.671-4.02c0-2.369-1.855-4.297-4.136-4.297s-4.136,1.928-4.136,4.297c0,1.88,1.158,3.526,2.881,4.096c0.259,0.085,0.472,0.272,0.589,0.52c0.118,0.246,0.129,0.529,0.032,0.784l-3.6,9.483C11.615,31.754,11.235,32,10.832,32z M16,2C8.28,2,2,8.492,2,16.472c0,5.706,3.283,10.889,8.265,13.205l2.893-7.622c-2.004-1.069-3.293-3.2-3.293-5.583c0-3.472,2.753-6.297,6.136-6.297s6.136,2.825,6.136,6.297c0,2.248-1.192,4.326-3.049,5.441l2.898,7.642C26.887,27.17,30,22.142,30,16.472C30,8.492,23.72,2,16,2z"/></svg>