<svg xmlns="http://www.w3.org/2000/svg" viewBox="0 0 32 32"><!--! Font Icona - https://fonticona.com | License - https://fonticona.com/license | Copyright 2022 FontIcona.com --><path d="M25.345,32H6.655c-1.654,0-3-1.346-3-3v-3.004h2V29c0,0.552,0.448,1,1,1h18.689c0.552,0,1-0.448,1-1v-2.904h2V29C28.345,30.654,26.999,32,25.345,32z"/><polygon points="28.345,27.648 26.345,27.648 26.345,8.931 5.655,8.931 5.655,27.549 3.655,27.549 3.655,6.931 28.345,6.931 "/><path d="M28.345,7.931h-2V3.97c0-0.551-0.448-1-1-1H6.655c-0.552,0-1,0.449-1,1v3.961h-2V3.97c0-1.654,1.346-3,3-3h18.689c1.654,0,3,1.346,3,3V7.931z"/><path d="M22.933,27.699H9.067c-1.224,0-2.22-0.995-2.22-2.219v-8.816c0-1.224,0.996-2.22,2.22-2.22h13.865c1.224,0,2.22,0.996,2.22,2.22v8.816C25.152,26.704,24.156,27.699,22.933,27.699z M9.067,16.445c-0.119,0-0.22,0.101-0.22,0.22v8.816c0,0.118,0.101,0.219,0.22,0.219h13.865c0.119,0,0.22-0.101,0.22-0.219v-8.816c0-0.119-0.101-0.22-0.22-0.22H9.067z"/><path d="M23.729,12.798H8.271c-0.553,0-1-0.448-1-1s0.447-1,1-1h15.457c0.553,0,1,0.448,1,1S24.281,12.798,23.729,12.798z"/><circle cx="21.686" cy="4.951" r="1.25"/><circle cx="17.747" cy="4.951" r="1.25"/><circle cx="13.808" cy="4.951" r="1.25"/><circle cx="9.869" cy="4.951" r="1.25"/><path d="M12.433,2H7.304c-0.553,0-1-0.448-1-1s0.447-1,1-1h5.129c0.553,0,1,0.448,1,1S12.985,2,12.433,2z"/><path d="M24.368,2h-5.363c-0.553,0-1-0.448-1-1s0.447-1,1-1h5.363c0.553,0,1,0.448,1,1S24.921,2,24.368,2z"/></svg>