<svg xmlns="http://www.w3.org/2000/svg" viewBox="0 0 32 32"><!--! Font Icona - https://fonticona.com | License - https://fonticona.com/license | Copyright 2022 FontIcona.com --><path d="M8.142,32c-0.553,0-1-0.448-1-1V1c0-0.552,0.447-1,1-1H16c4.885,0,8.858,3.706,8.858,8.262S20.885,16.524,16,16.524c-0.553,0-1-0.448-1-1s0.447-1,1-1c3.781,0,6.858-2.809,6.858-6.262C22.858,4.809,19.781,2,16,2H9.142v29C9.142,31.552,8.694,32,8.142,32z"/><path d="M16,16.524H8.142c-0.553,0-1-0.448-1-1s0.447-1,1-1H16c0.553,0,1,0.448,1,1S16.553,16.524,16,16.524z"/></svg>