<svg xmlns="http://www.w3.org/2000/svg" viewBox="0 0 32 32"><!--! Font Icona - https://fonticona.com | License - https://fonticona.com/license | Copyright 2022 FontIcona.com --><path d="M8.604,32c-0.553,0-1-0.448-1-1V7.25c0-0.552,0.447-1,1-1s1,0.448,1,1V31C9.604,31.552,9.157,32,8.604,32z"/><path d="M16,26c-4.629,0-8.396-4.43-8.396-9.875c0-5.445,3.767-9.875,8.396-9.875s8.396,4.43,8.396,9.875C24.396,21.57,20.629,26,16,26z M16,8.25c-3.526,0-6.396,3.533-6.396,7.875C9.604,20.467,12.474,24,16,24s6.396-3.533,6.396-7.875C22.396,11.783,19.526,8.25,16,8.25z"/></svg>