<svg xmlns="http://www.w3.org/2000/svg" viewBox="0 0 32 32"><!--! Font Icona - https://fonticona.com | License - https://fonticona.com/license | Copyright 2022 FontIcona.com --><path d="M2.804,32c-0.463,0-0.879-0.324-0.978-0.795C1.713,30.664,2.06,30.133,2.6,30.021l0.178-0.037c5.375-1.124,10.932-2.285,13.443-7.173c0.547-1.063,2.315-4.766,2.122-7.747c-0.036-0.551,0.382-1.026,0.933-1.062c0.561-0.022,1.027,0.383,1.063,0.934c0.22,3.397-1.562,7.279-2.338,8.79c-2.948,5.736-9.251,7.054-14.813,8.216l-0.178,0.037C2.94,31.993,2.872,32,2.804,32z"/><path d="M12.35,27.317c-1.633,0-3.045-0.398-4.218-1.194c-2.467-1.672-2.885-4.476-2.902-4.594c-0.062-0.44,0.175-0.869,0.581-1.051c2.719-1.222,5.13-1.375,7.17-0.46c2.926,1.313,3.911,4.352,3.952,4.479c0.166,0.527-0.126,1.089-0.653,1.255c-0.042,0.013-0.085,0.023-0.127,0.031c0.084,0.51-0.238,1.007-0.749,1.133C14.313,27.183,13.294,27.316,12.35,27.317z M7.41,21.982c0.25,0.707,0.785,1.775,1.863,2.498c1.363,0.913,3.264,1.08,5.653,0.493c0.016-0.004,0.032-0.007,0.048-0.01c-0.203-0.517-1.026-2.327-2.83-3.128C10.834,21.253,9.245,21.304,7.41,21.982z"/><path d="M20.751,28.632c-1.828,0-3.792-0.594-5.863-1.776c-0.48-0.273-0.646-0.884-0.373-1.364c0.015-0.025,0.03-0.05,0.047-0.074c0.016-0.142,0.062-0.282,0.143-0.412c0.07-0.113,1.755-2.791,4.993-3.432c2.336-0.459,4.822,0.247,7.388,2.107c0.412,0.299,0.534,0.859,0.283,1.303c-0.059,0.103-1.465,2.531-4.509,3.368C22.179,28.54,21.476,28.632,20.751,28.632z M16.764,25.588c2.062,1.004,3.931,1.288,5.565,0.836c1.295-0.355,2.2-1.118,2.73-1.694c-1.768-1.088-3.431-1.494-4.952-1.197C18.447,23.853,17.306,24.949,16.764,25.588z"/><path d="M14.608,20.431c-0.811,0-1.582-0.154-2.31-0.465c-3.292-1.4-4.325-5.458-4.368-5.63c-0.122-0.497,0.15-1.006,0.631-1.18c2.847-1.03,5.325-1.02,7.367,0.037c2.89,1.495,3.756,4.533,3.791,4.662c0.121,0.438-0.069,0.903-0.463,1.131C17.595,19.949,16.04,20.431,14.608,20.431z M10.177,14.739c0.423,1.041,1.324,2.72,2.914,3.391c1.224,0.517,2.704,0.357,4.408-0.47c-0.374-0.781-1.143-2-2.507-2.698C13.681,14.29,12.064,14.215,10.177,14.739z"/><path d="M22.846,20.525c-1.287,0-2.672-0.315-4.146-0.947c-0.508-0.217-0.743-0.805-0.526-1.312c0.012-0.027,0.024-0.053,0.038-0.078c-0.16-0.299-0.164-0.67,0.022-0.982c0.036-0.059,3.622-5.905,11.215-3.903c0.258,0.067,0.478,0.235,0.612,0.467c0.133,0.231,0.169,0.506,0.099,0.764c-0.042,0.152-1.06,3.765-4.262,5.312C24.957,20.299,23.937,20.525,22.846,20.525z M20.116,17.989c1.896,0.688,3.542,0.71,4.899,0.06c1.484-0.711,2.364-2.097,2.819-3.047C23.208,14.275,20.753,17.112,20.116,17.989z"/><path d="M19.357,16.305c-0.137,0-0.274-0.028-0.404-0.086c-0.185-0.081-4.533-2.048-5.483-6.287c-0.662-2.956,0.497-6.182,3.445-9.587c0.324-0.373,0.871-0.454,1.288-0.192c0.211,0.133,5.18,3.308,5.59,8.099c0.232,2.72-1.035,5.343-3.767,7.798C19.838,16.217,19.6,16.305,19.357,16.305z M17.846,2.354c-2.083,2.626-2.898,5.024-2.424,7.142c0.552,2.464,2.723,3.988,3.77,4.594c1.894-1.863,2.771-3.767,2.608-5.667C21.556,5.57,19.088,3.318,17.846,2.354z"/></svg>