<svg xmlns="http://www.w3.org/2000/svg" viewBox="0 0 32 32"><!--! Font Icona - https://fonticona.com | License - https://fonticona.com/license | Copyright 2022 FontIcona.com --><path d="M13.917,7.147H8.473c-0.553,0-1-0.448-1-1s0.447-1,1-1h5.444c0.553,0,1,0.448,1,1S14.47,7.147,13.917,7.147z"/><path d="M23.527,12.073H8.473c-0.553,0-1-0.448-1-1s0.447-1,1-1h15.055c0.553,0,1,0.448,1,1S24.08,12.073,23.527,12.073z"/><path d="M19.917,17H8.473c-0.553,0-1-0.448-1-1s0.447-1,1-1h11.444c0.553,0,1,0.448,1,1S20.47,17,19.917,17z"/><path d="M14.783,21.927H8.473c-0.553,0-1-0.448-1-1s0.447-1,1-1h6.311c0.553,0,1,0.448,1,1S15.336,21.927,14.783,21.927z"/><path d="M23.527,26.853h-5.011c-0.553,0-1-0.448-1-1s0.447-1,1-1h5.011c0.553,0,1,0.448,1,1S24.08,26.853,23.527,26.853z"/><path d="M25.322,32H6.678c-1.654,0-3-1.346-3-3V3c0-1.654,1.346-3,3-3h13.457c0.889,0,1.726,0.39,2.297,1.07l5.188,6.173c0.453,0.54,0.703,1.226,0.703,1.93V29C28.322,30.654,26.977,32,25.322,32z M6.678,2c-0.552,0-1,0.449-1,1v26c0,0.551,0.448,1,1,1h18.645c0.552,0,1-0.449,1-1V9.173c0-0.235-0.083-0.463-0.234-0.644L20.9,2.357C20.71,2.13,20.431,2,20.135,2H6.678z"/></svg>