<svg xmlns="http://www.w3.org/2000/svg" viewBox="0 0 32 32"><!--! Font Icona - https://fonticona.com | License - https://fonticona.com/license | Copyright 2022 FontIcona.com --><path d="M25.372,32H6.628c-1.627,0-2.951-1.324-2.951-2.951V2.951C3.678,1.324,5.001,0,6.628,0h13.529c0.874,0,1.697,0.384,2.259,1.052l5.213,6.205c0.446,0.531,0.692,1.205,0.692,1.898v19.894C28.322,30.676,26.999,32,25.372,32z M6.628,2C6.104,2,5.678,2.426,5.678,2.951v26.099C5.678,29.574,6.104,30,6.628,30h18.743c0.524,0,0.951-0.426,0.951-0.951V9.155c0-0.223-0.079-0.44-0.223-0.611l-5.213-6.205C20.705,2.124,20.439,2,20.158,2H6.628z"/><rect x="16.806" y="11.423" transform="matrix(0.5 -0.866 0.866 0.5 -2.9786 22.2796)" width="2" height="4.592"/><path d="M10.586,27.39c-0.2,0-0.401-0.051-0.582-0.155c-0.397-0.229-0.624-0.672-0.577-1.129l0.496-4.752c0.048-0.463,0.19-0.903,0.424-1.307l6.889-11.931l5.709,3.296l-6.889,11.932c-0.233,0.403-0.542,0.746-0.918,1.019l-3.868,2.805C11.067,27.315,10.827,27.39,10.586,27.39z M17.967,10.848l-5.888,10.199c-0.092,0.159-0.147,0.331-0.167,0.513l-0.301,2.89l2.352-1.706c0.147-0.107,0.27-0.243,0.361-0.401l5.888-10.199L17.967,10.848z"/></svg>