<svg xmlns="http://www.w3.org/2000/svg" viewBox="0 0 32 32"><!--! Font Icona - https://fonticona.com | License - https://fonticona.com/license | Copyright 2022 FontIcona.com --><path d="M5.549,31.171c-0.769,0-1.537-0.293-2.122-0.878l-1.72-1.72c-1.17-1.17-1.17-3.073,0-4.243l6.189-6.189c1.169-1.167,3.072-1.17,4.243-0.001l1.72,1.721c1.169,1.17,1.169,3.073,0.001,4.243l-3.724,3.723l-0.001,0.001L7.67,30.293C7.085,30.878,6.316,31.171,5.549,31.171z M10.019,19.263c-0.257,0-0.513,0.098-0.708,0.293l-6.189,6.188c-0.39,0.391-0.39,1.024,0,1.415l1.72,1.72c0.392,0.391,1.025,0.391,1.415,0l6.189-6.189c0.39-0.39,0.39-1.025-0.001-1.415l-1.719-1.72C10.53,19.36,10.274,19.263,10.019,19.263z M9.429,27.12h0.01H9.429z"/><path d="M12.964,20.036c-0.256,0-0.512-0.098-0.707-0.293c-0.391-0.391-0.391-1.023,0-1.414l0.8-0.8c0.354-0.354,0.39-0.919,0.086-1.315l-6.102-7.96c-0.912-1.191-0.8-2.888,0.261-3.947l2.6-2.6c1.169-1.169,3.072-1.171,4.243,0l1.408,1.409c0.391,0.391,0.391,1.024,0,1.414c-0.391,0.391-1.023,0.391-1.414,0L12.73,3.121c-0.392-0.391-1.025-0.391-1.415,0l-2.6,2.601C8.362,6.075,8.325,6.641,8.629,7.037l6.102,7.96c0.911,1.19,0.8,2.887-0.26,3.946l-0.8,0.8C13.476,19.938,13.22,20.036,12.964,20.036z"/><path d="M25.433,20.148c-0.802,0-1.555-0.312-2.121-0.879L12.77,8.729c-1.17-1.17-1.17-3.073,0-4.243l2.739-2.739c1.171-1.168,3.073-1.169,4.242-0.001l10.542,10.543c0.566,0.566,0.879,1.32,0.879,2.121c0,0.802-0.312,1.556-0.879,2.122l-2.739,2.738C26.987,19.836,26.233,20.148,25.433,20.148z M17.63,2.868c-0.256,0-0.513,0.098-0.707,0.293l-2.739,2.738c-0.39,0.391-0.39,1.024,0,1.415l10.542,10.541c0,0,0,0,0.001,0c0.375,0.379,1.034,0.378,1.413,0l2.739-2.739c0.189-0.189,0.293-0.439,0.293-0.707c0-0.267-0.104-0.518-0.293-0.707L18.337,3.16C18.143,2.966,17.886,2.868,17.63,2.868z"/></svg>