<svg xmlns="http://www.w3.org/2000/svg" viewBox="0 0 32 32"><!--! Font Icona - https://fonticona.com | License - https://fonticona.com/license | Copyright 2022 FontIcona.com --><path d="M8.307,29.736c-2.698,0-5.352-0.598-7.734-1.727c-0.401-0.19-0.63-0.622-0.56-1.061c0.069-0.438,0.42-0.778,0.86-0.835c1.63-0.208,3.011-0.845,3.695-1.705c0.323-0.406,0.54-0.737,0.757-1.065c0.276-0.418,0.562-0.852,1.03-1.413c1.102-1.321,2.593-2.3,4.551-2.988c2.425-2.583,4.946-5.187,7.387-7.707c2.503-2.584,5.092-5.257,7.567-7.899c1.388-1.417,3.66-1.421,5.081-0.03C31.628,3.98,32.004,4.88,32,5.843c-0.004,0.948-0.375,1.846-1.045,2.53L15.454,23.229c-0.038,0.79-0.248,1.576-0.625,2.344c-1.34,2.454-3.769,3.996-6.517,4.162C8.311,29.736,8.309,29.736,8.307,29.736z M4.162,27.201c1.334,0.354,2.715,0.537,4.09,0.537c1.997-0.123,3.814-1.276,4.802-3.084c0.284-0.58,0.427-1.205,0.404-1.816c-0.011-0.285,0.101-0.562,0.307-0.759L29.549,6.95C29.83,6.663,29.998,6.259,30,5.835c0.002-0.418-0.161-0.809-0.459-1.101c-0.634-0.62-1.637-0.625-2.237-0.014c-2.472,2.638-5.065,5.317-7.574,7.907c-2.491,2.573-5.068,5.234-7.534,7.865c-0.113,0.122-0.256,0.213-0.414,0.265c-1.716,0.571-2.988,1.374-3.891,2.455c-0.396,0.475-0.639,0.843-0.896,1.232c-0.246,0.373-0.494,0.748-0.862,1.21C5.646,26.267,4.971,26.791,4.162,27.201z"/><path d="M19.186,19.269c-0.081,0-0.164-0.01-0.246-0.03c-1.87-0.473-3.41-2.009-3.924-3.913c-0.144-0.533,0.172-1.082,0.705-1.226c0.533-0.143,1.083,0.171,1.227,0.705c0.322,1.198,1.32,2.2,2.482,2.494c0.535,0.136,0.859,0.68,0.725,1.215C20.039,18.967,19.632,19.269,19.186,19.269z"/><path d="M14.458,23.8c-0.077,0-0.155-0.009-0.232-0.027c-1.591-0.379-3.262-2.037-3.723-3.696c-0.148-0.532,0.163-1.083,0.694-1.231c0.533-0.147,1.084,0.163,1.231,0.695c0.269,0.962,1.366,2.074,2.26,2.287c0.538,0.128,0.869,0.667,0.741,1.205C15.32,23.491,14.91,23.8,14.458,23.8z"/></svg>