<svg xmlns="http://www.w3.org/2000/svg" viewBox="0 0 32 32"><!--! Font Icona - https://fonticona.com | License - https://fonticona.com/license | Copyright 2022 FontIcona.com --><path d="M14.467,27.2c-0.552,0-1-0.448-1-1v-5.703c0-0.375,0.21-0.719,0.544-0.89l16.533-8.465c0.31-0.157,0.68-0.145,0.977,0.037C31.819,11.36,32,11.684,32,12.032v5.703c0,0.552-0.448,1-1,1s-1-0.448-1-1v-4.067l-14.533,7.441V26.2C15.467,26.752,15.02,27.2,14.467,27.2z"/><path d="M1,21.086c-0.552,0-1-0.448-1-1v-5.703c0-0.373,0.207-0.714,0.537-0.886L16.96,4.914c0.274-0.144,0.6-0.151,0.88-0.022l13.577,6.231c0.502,0.23,0.722,0.824,0.492,1.326c-0.23,0.502-0.823,0.723-1.326,0.492L17.452,6.914L2,14.989v5.097C2,20.638,1.552,21.086,1,21.086z"/><path d="M14.467,21.497c-0.138,0-0.279-0.029-0.413-0.09L0.833,15.405c-0.502-0.229-0.725-0.821-0.497-1.324c0.228-0.503,0.819-0.726,1.324-0.497l13.221,6.002c0.503,0.229,0.725,0.821,0.497,1.324C15.21,21.279,14.847,21.497,14.467,21.497z"/><path d="M5.379,17.284c-0.356,0-0.701-0.19-0.881-0.526c-0.262-0.486-0.08-1.093,0.406-1.354l15.936-8.583c0.485-0.262,1.093-0.08,1.354,0.406c0.262,0.486,0.08,1.093-0.406,1.354L5.852,17.164C5.701,17.245,5.539,17.284,5.379,17.284z"/><path d="M9.939,19.44c-0.356,0-0.7-0.19-0.881-0.525c-0.262-0.486-0.081-1.093,0.406-1.355l16.104-8.685c0.486-0.262,1.092-0.081,1.355,0.406c0.262,0.486,0.081,1.093-0.406,1.355l-16.104,8.685C10.262,19.402,10.099,19.44,9.939,19.44z"/><path d="M14.467,27.2c-0.126,0-0.254-0.024-0.378-0.075l-3.467-1.419C10.246,25.552,10,25.187,10,24.781V22.91l-5.069-2.255v0.761c0,0.34-0.173,0.657-0.458,0.841c-0.286,0.185-0.645,0.21-0.955,0.07l-2.931-1.33c-0.503-0.229-0.726-0.821-0.498-1.324c0.229-0.503,0.822-0.728,1.324-0.498l1.518,0.688v-0.748c0-0.338,0.171-0.654,0.455-0.838s0.642-0.213,0.951-0.075l7.069,3.144C11.768,21.507,12,21.865,12,22.26v1.85l2.846,1.165c0.511,0.209,0.756,0.793,0.546,1.304C15.234,26.966,14.861,27.2,14.467,27.2z"/><path d="M28.524,20.003c-0.364,0-0.714-0.199-0.891-0.544c-0.251-0.492-0.057-1.094,0.434-1.346l2.477-1.269c0.493-0.25,1.095-0.057,1.346,0.434c0.251,0.492,0.057,1.094-0.434,1.346l-2.477,1.269C28.833,19.968,28.677,20.003,28.524,20.003z"/><path d="M14.468,27.2c-0.364,0-0.714-0.199-0.891-0.544c-0.251-0.491-0.057-1.094,0.435-1.346l3.754-1.922c0.492-0.251,1.094-0.056,1.346,0.435c0.251,0.491,0.057,1.094-0.435,1.346l-3.754,1.922C14.777,27.165,14.622,27.2,14.468,27.2z"/><path d="M28.523,20.003c-0.552,0-1-0.448-1-1v-2.169c0-0.552,0.448-1,1-1s1,0.448,1,1v2.169C29.523,19.555,29.075,20.003,28.523,20.003z"/><path d="M18.221,25.277c-0.552,0-1-0.448-1-1v-2.381c0-0.552,0.448-1,1-1s1,0.448,1,1v2.381C19.221,24.83,18.773,25.277,18.221,25.277z"/><path d="M18.222,22.896c-0.361,0-0.71-0.196-0.888-0.539c-0.255-0.49-0.064-1.094,0.426-1.349l10.302-5.354c0.491-0.254,1.094-0.063,1.349,0.426c0.255,0.49,0.064,1.094-0.426,1.349l-10.302,5.354C18.535,22.86,18.377,22.896,18.222,22.896z"/></svg>