<svg xmlns="http://www.w3.org/2000/svg" viewBox="0 0 32 32"><!--! Font Icona - https://fonticona.com | License - https://fonticona.com/license | Copyright 2022 FontIcona.com --><path d="M13.81,25.04H6.145c-3.38,0-5.449-3.665-5.536-3.821c-0.303-0.547-0.315-1.133-0.035-1.609c0.28-0.476,0.8-0.749,1.425-0.749h17.501l0.291,0.492c0.303,0.514,0.159,0.773-0.446,1.866C19.259,21.375,17.19,25.04,13.81,25.04z M2.766,20.861c0.607,0.823,1.84,2.18,3.379,2.18h7.665c1.54,0,2.773-1.357,3.379-2.18H2.766z"/><rect x="18.573" y="18.105" transform="matrix(0.9365 -0.3506 0.3506 0.9365 -5.3823 8.4798)" width="4.311" height="2"/><path d="M4.949,16.975c-0.26,0-0.52-0.101-0.716-0.302c-0.789-0.81-1.158-2.091-1.014-3.514c0.096-0.83,0.507-1.349,0.837-1.766c0.167-0.21,0.311-0.392,0.387-0.578c0.372-0.741,0.001-1.681-0.419-2.284C3.708,8.078,3.819,7.455,4.272,7.14c0.454-0.315,1.076-0.205,1.393,0.249c0.771,1.106,1.332,2.806,0.596,4.256c-0.148,0.375-0.419,0.717-0.637,0.991c-0.254,0.321-0.389,0.5-0.417,0.739c-0.082,0.807,0.089,1.523,0.458,1.901c0.385,0.396,0.377,1.029-0.019,1.414C5.452,16.88,5.2,16.975,4.949,16.975z"/><path d="M10.03,16.975c-0.26,0-0.52-0.101-0.716-0.302c-0.789-0.81-1.158-2.091-1.014-3.514c0.096-0.83,0.507-1.349,0.837-1.766c0.167-0.21,0.311-0.392,0.387-0.578c0.372-0.741,0.001-1.681-0.419-2.283C8.789,8.079,8.9,7.455,9.353,7.14c0.454-0.314,1.077-0.203,1.392,0.248c0.771,1.106,1.333,2.806,0.597,4.256c-0.148,0.376-0.419,0.718-0.637,0.992c-0.254,0.321-0.389,0.5-0.417,0.739c-0.082,0.807,0.089,1.523,0.458,1.901c0.385,0.396,0.377,1.029-0.019,1.414C10.533,16.88,10.281,16.975,10.03,16.975z"/><path d="M14.796,16.975c-0.26,0-0.52-0.101-0.716-0.302c-0.789-0.81-1.159-2.09-1.015-3.514c0.096-0.83,0.507-1.349,0.837-1.766c0.167-0.21,0.311-0.392,0.387-0.578c0.372-0.741,0.001-1.681-0.419-2.284c-0.315-0.453-0.204-1.076,0.249-1.392c0.454-0.315,1.077-0.205,1.393,0.249c0.771,1.106,1.332,2.806,0.596,4.255c-0.148,0.376-0.419,0.718-0.637,0.992c-0.254,0.321-0.389,0.5-0.417,0.739c-0.082,0.807,0.089,1.522,0.458,1.901c0.386,0.396,0.378,1.028-0.018,1.414C15.3,16.88,15.048,16.975,14.796,16.975z"/><path d="M23.841,20.331c-1.074,0-2.054-0.605-2.407-1.595c-0.459-1.289,0.315-2.746,1.726-3.249l5.315-1.895c0.658-0.234,1.363-0.231,1.985,0.009c0.665,0.257,1.178,0.772,1.406,1.414l0,0c0.229,0.642,0.158,1.364-0.194,1.984c-0.33,0.58-0.874,1.028-1.531,1.264l-5.315,1.895C24.499,20.276,24.166,20.331,23.841,20.331z M29.467,15.419c-0.105,0-0.214,0.02-0.32,0.058l-5.315,1.895c-0.398,0.143-0.59,0.479-0.514,0.693c0.077,0.214,0.44,0.352,0.836,0.21l5.315-1.895c0.203-0.073,0.373-0.207,0.464-0.368c0.046-0.082,0.092-0.204,0.049-0.324l0,0c-0.043-0.121-0.156-0.187-0.244-0.22C29.657,15.436,29.564,15.419,29.467,15.419z"/></svg>