<svg xmlns="http://www.w3.org/2000/svg" viewBox="0 0 32 32"><!--! Font Icona - https://fonticona.com | License - https://fonticona.com/license | Copyright 2022 FontIcona.com --><path d="M16,22.96c-3.86,0-7.001-3.141-7.001-7.001S12.14,8.958,16,8.958s7.001,3.141,7.001,7.001S19.86,22.96,16,22.96z M16,10.958c-2.757,0-5.001,2.244-5.001,5.001c0,2.758,2.244,5.001,5.001,5.001s5.001-2.243,5.001-5.001C21.001,13.202,18.757,10.958,16,10.958z"/><path d="M16,31.918c-0.552,0-1-0.447-1-1V21.96c0-0.553,0.448-1,1-1s1,0.447,1,1v8.958C17,31.471,16.552,31.918,16,31.918z"/><path d="M19.57,26.042H12.43c-0.552,0-1-0.447-1-1s0.448-1,1-1h7.141c0.552,0,1,0.447,1,1S20.123,26.042,19.57,26.042z"/><path class="st0" d="M16,31.819c-0.353,0-0.688-0.141-0.942-0.396l-3.208-3.207c-0.32-0.32-0.32-0.838,0-1.158c0.32-0.32,0.838-0.32,1.158,0L16,30.049l2.991-2.991c0.32-0.32,0.838-0.32,1.158,0c0.32,0.32,0.32,0.838,0,1.158l-3.208,3.208C16.688,31.679,16.353,31.819,16,31.819z"/><path d="M16.012,10.958c-0.552,0-1-0.448-1-1V1c0-0.552,0.448-1,1-1s1,0.448,1,1v8.958C17.012,10.51,16.564,10.958,16.012,10.958z"/><path d="M13.509,7.399c-0.306,0-0.608-0.14-0.804-0.405c-0.329-0.443-0.236-1.07,0.208-1.398l5.008-3.711c0.443-0.331,1.07-0.237,1.398,0.208c0.329,0.443,0.236,1.07-0.208,1.398l-5.008,3.711C13.924,7.335,13.715,7.399,13.509,7.399z"/><path d="M18.515,7.399c-0.207,0-0.416-0.064-0.594-0.197l-5.008-3.711c-0.444-0.329-0.537-0.955-0.208-1.398c0.328-0.444,0.956-0.538,1.398-0.208l5.008,3.711c0.444,0.329,0.537,0.955,0.208,1.398C19.123,7.26,18.821,7.399,18.515,7.399z"/><path d="M22.001,16.959H9.999c-0.552,0-1-0.448-1-1s0.448-1,1-1h12.002c0.552,0,1,0.448,1,1S22.553,16.959,22.001,16.959z"/></svg>