<svg xmlns="http://www.w3.org/2000/svg" viewBox="0 0 32 32"><!--! Font Icona - https://fonticona.com | License - https://fonticona.com/license | Copyright 2022 FontIcona.com --><path d="M22.539,5.48c-0.063-0.648-0.005-1.441,0.051-2.209c0.03-0.412,0.061-0.832,0.071-1.206c-2.579,0.182-6.722,0.287-6.917,0.292c-2.167,0.141-4.385-0.069-6.53-0.278c0.01,0.37,0.041,0.785,0.07,1.192C9.34,4.039,9.398,4.832,9.335,5.48l-1.99-0.193c0.046-0.479-0.005-1.186-0.056-1.869C7.233,2.65,7.174,1.857,7.238,1.208c0.037-0.38,0.213-0.725,0.483-0.946c0.239-0.196,0.534-0.289,0.835-0.256l0.82,0.079c2.074,0.202,4.217,0.412,6.277,0.274c0.094-0.003,5.377-0.137,7.674-0.354c0.285-0.029,0.587,0.06,0.826,0.256c0.271,0.221,0.447,0.566,0.483,0.946c0.063,0.649,0.005,1.442-0.051,2.21c-0.05,0.684-0.102,1.39-0.056,1.869L22.539,5.48z M8.36,1.996c0.004,0.001,0.007,0.001,0.011,0.002L8.36,1.996z M23.523,1.996c-0.005,0-0.01,0.001-0.016,0.001C23.513,1.997,23.518,1.996,23.523,1.996z"/><rect x="-0.819" y="12.443" transform="matrix(0.0908 -0.9959 0.9959 0.0908 -6.4747 19.7948)" width="16.845" height="2"/><path d="M12.121,31.984c-0.037,0-0.073,0-0.109-0.002c-1.543-0.056-3.107-0.146-4.647-0.266c-0.72-0.057-1.373-0.373-1.79-0.868c-0.33-0.393-0.487-0.872-0.442-1.351l0.708-7.758l1.992,0.182l-0.701,7.666c0.056,0.045,0.183,0.119,0.388,0.135c1.512,0.118,3.048,0.206,4.563,0.262c0.292-0.001,0.517-0.123,0.558-0.18c0.34-2.381,0.682-4.833,1.002-7.285l1.983,0.26c-0.323,2.464-0.666,4.926-1.03,7.387C14.446,31.201,13.369,31.984,12.121,31.984z M7.125,29.682L7.125,29.682C7.125,29.683,7.125,29.682,7.125,29.682z"/><path d="M15.628,22.771l-1.985-0.244c0.234-1.903,0.454-3.124,0.667-4.306c0.246-1.366,0.479-2.657,0.695-4.875c0.05-0.513,0.481-0.903,0.995-0.903c0.003,0,0.006,0,0.009,0c0.518,0.005,0.947,0.404,0.988,0.921c0.175,2.194,0.364,3.462,0.563,4.805c0.173,1.162,0.352,2.364,0.541,4.249l-1.99,0.199c-0.07-0.699-0.139-1.304-0.207-1.846C15.814,21.354,15.722,22.007,15.628,22.771z"/><path d="M19.434,32c-1.265,0-2.338-0.801-2.464-1.854c-0.304-2.502-0.59-5.007-0.858-7.514l1.988-0.213c0.267,2.497,0.552,4.992,0.855,7.487C18.967,29.879,19.148,30,19.433,30c0.01,0,0.021,0,0.032,0c1.672-0.054,3.359-0.146,5.014-0.277c0.206-0.016,0.333-0.09,0.389-0.135l-0.7-7.666l1.992-0.182l0.709,7.761c0.044,0.476-0.112,0.955-0.442,1.348c-0.417,0.495-1.069,0.812-1.791,0.868c-1.685,0.133-3.403,0.228-5.107,0.281C19.496,31.999,19.465,32,19.434,32z M24.876,29.684c0,0.001,0,0.001,0,0.002V29.684z"/><path d="M24.167,21.922c-0.255-2.797-0.535-5.513-0.814-8.228c-0.279-2.712-0.558-5.425-0.813-8.22l1.991-0.182c0.255,2.786,0.534,5.491,0.812,8.196c0.28,2.724,0.561,5.445,0.817,8.251L24.167,21.922z"/><path d="M7.959,11.14L7.852,9.142c2.169-0.116,3.59-2.123,3.662-3.916l1.998,0.08C13.402,8.032,11.295,10.96,7.959,11.14z"/><path d="M23.938,11.086c-3.3-0.182-5.383-3.081-5.49-5.779l1.998-0.08c0.07,1.767,1.468,3.745,3.603,3.863L23.938,11.086z"/><ellipse cx="16.271" cy="3.599" rx="1.669" ry="1"/><rect x="10.633" y="2.599" transform="matrix(0.0527 -0.9986 0.9986 0.0527 7.9872 15.6174)" width="3.186" height="2"/><rect x="18.989" y="2.016" transform="matrix(0.9949 -0.1006 0.1006 0.9949 -0.2713 2.0307)" width="2" height="3.377"/><path d="M16.18,6.85c-2.433,0-4.889-0.269-7.982-0.809C7.654,5.946,7.29,5.428,7.384,4.884C7.48,4.34,8,3.983,8.542,4.07c5.88,1.026,9.201,1.04,14.804,0.062c0.551-0.09,1.062,0.27,1.157,0.813c0.095,0.544-0.27,1.062-0.813,1.157C20.844,6.6,18.523,6.85,16.18,6.85z"/><path d="M16,11.088c-0.552,0-1-0.447-1-1V5.85c0-0.553,0.448-1,1-1s1,0.447,1,1v4.238C17,10.641,16.552,11.088,16,11.088z"/></svg>