<svg xmlns="http://www.w3.org/2000/svg" viewBox="0 0 32 32"><!--! Font Icona - https://fonticona.com | License - https://fonticona.com/license | Copyright 2022 FontIcona.com --><path d="M13.136,28.262c-0.466,0-0.907-0.078-1.276-0.205c-0.255-0.08-0.453-0.146-0.644-0.235c-2.134-0.864-3.231-2.822-2.682-4.852c0.144-0.533,0.69-0.853,1.227-0.703c0.533,0.144,0.848,0.693,0.703,1.227c-0.335,1.24,0.582,2.103,1.553,2.496c0.158,0.073,0.274,0.106,0.39,0.143c0.008,0.003,0.094,0.03,0.102,0.032c0.376,0.121,1.666,0.413,2.2-1.055l5.793-15.948c0.188-0.519,0.761-0.787,1.281-0.598c0.519,0.188,0.787,0.762,0.598,1.281l-5.793,15.948C15.91,27.656,14.429,28.262,13.136,28.262z"/><path d="M12.765,32.009c-0.939,0-1.902-0.156-2.853-0.501C5.388,29.864,3.397,24.79,4.641,21.35l5.737-15.851c0.188-0.52,0.76-0.789,1.281-0.6c0.519,0.188,0.787,0.762,0.6,1.281L6.521,22.03c-0.903,2.5,0.679,6.364,4.073,7.598c3.387,1.229,7.082-0.722,7.997-3.222l6.937-19.186c0.312-0.858,0.254-1.787-0.163-2.618c-0.533-1.063-1.62-1.889-3.059-2.322c-3.101-0.921-4.362,0.581-4.876,2.002l-6.991,19.29c-0.188,0.519-0.764,0.784-1.281,0.6c-0.52-0.188-0.787-0.762-0.6-1.281L15.55,3.602c0.415-1.146,2.172-4.771,7.33-3.237c1.975,0.595,3.49,1.781,4.273,3.342c0.665,1.327,0.756,2.817,0.255,4.196L20.472,27.09C19.478,29.806,16.287,32.009,12.765,32.009z"/></svg>