<svg xmlns="http://www.w3.org/2000/svg" viewBox="0 0 32 32"><!--! Font Icona - https://fonticona.com | License - https://fonticona.com/license | Copyright 2022 FontIcona.com --><path d="M18.84,16.955h-8.077c-4.581-0.137-8.187-3.951-8.067-8.504C2.576,3.952,6.182,0.138,10.732,0h17.574c0.553,0,1,0.447,1,1s-0.447,1-1,1H10.763C7.34,2.104,4.604,4.998,4.695,8.451c-0.091,3.507,2.645,6.401,6.098,6.504h8.047c0.553,0,1,0.447,1,1S19.393,16.955,18.84,16.955z"/><path d="M18.84,32c-0.553,0-1-0.447-1-1V1c0-0.553,0.447-1,1-1s1,0.447,1,1v30C19.84,31.553,19.393,32,18.84,32z"/><path d="M23.751,32c-0.553,0-1-0.447-1-1V1c0-0.553,0.447-1,1-1s1,0.447,1,1v30C24.751,31.553,24.304,32,23.751,32z"/></svg>