<svg xmlns="http://www.w3.org/2000/svg" viewBox="0 0 32 32"><!--! Font Icona - https://fonticona.com | License - https://fonticona.com/license | Copyright 2022 FontIcona.com --><path d="M21.766,32H10.234c-1.654,0-3-1.346-3-3v-6.081c0-1.654,1.346-3,3-3h11.532c1.654,0,3,1.346,3,3V29C24.766,30.654,23.42,32,21.766,32z M10.234,21.919c-0.551,0-1,0.448-1,1V29c0,0.552,0.449,1,1,1h11.532c0.551,0,1-0.448,1-1v-6.081c0-0.552-0.449-1-1-1H10.234z"/><path d="M21.198,14.257c-1.621,0-2.486-0.62-3.181-1.117c-0.603-0.433-1.039-0.744-2.017-0.744s-1.414,0.312-2.017,0.744c-0.695,0.497-1.56,1.117-3.181,1.117s-2.486-0.62-3.181-1.117c-0.603-0.433-1.039-0.744-2.017-0.744c-0.552,0-1-0.447-1-1C4.604,5.112,9.716,0,16,0s11.396,5.112,11.396,11.396c0,0.553-0.448,1-1,1c-0.979,0-1.414,0.312-2.017,0.743C23.684,13.637,22.819,14.257,21.198,14.257z M16,10.396c1.621,0,2.486,0.62,3.181,1.117c0.603,0.433,1.039,0.744,2.017,0.744s1.415-0.312,2.018-0.744c0.529-0.378,1.155-0.827,2.138-1.021C24.897,5.734,20.876,2,16,2s-8.897,3.734-9.354,8.493c0.983,0.193,1.61,0.643,2.138,1.021c0.603,0.433,1.039,0.744,2.017,0.744c0.978,0,1.414-0.312,2.016-0.743C13.513,11.016,14.379,10.396,16,10.396z"/><rect x="15" y="11.396" width="2" height="9.522"/><path d="M16,21.399c-0.28,0-0.559-0.117-0.756-0.346c-0.362-0.417-0.316-1.049,0.101-1.41l10.396-9.003c0.418-0.362,1.05-0.316,1.411,0.102c0.362,0.417,0.316,1.049-0.101,1.41l-10.396,9.003C16.465,21.319,16.232,21.399,16,21.399z"/><path d="M16,21.399c-0.232,0-0.465-0.08-0.654-0.244L4.949,12.152c-0.417-0.361-0.463-0.993-0.101-1.41c0.361-0.418,0.992-0.464,1.411-0.102l10.396,9.003c0.417,0.361,0.463,0.993,0.101,1.41C16.558,21.282,16.28,21.399,16,21.399z"/><rect x="15" y="20.919" width="2" height="10.081"/><rect x="8.234" y="24.96" width="15.532" height="2"/></svg>