<svg xmlns="http://www.w3.org/2000/svg" viewBox="0 0 32 32"><!--! Font Icona - https://fonticona.com | License - https://fonticona.com/license | Copyright 2022 FontIcona.com --><path d="M20.45,16.956h-8.066c-4.58-0.138-8.19-3.952-8.078-8.503C4.193,3.952,7.804,0.138,12.354,0l17.563,0c0.553,0,1,0.448,1,1s-0.447,1-1,1H12.384C8.96,2.104,6.22,4.999,6.306,8.453c-0.086,3.504,2.654,6.399,6.108,6.503l8.036,0c0.553,0,1,0.448,1,1S21.003,16.956,20.45,16.956z"/><path d="M20.45,32c-0.553,0-1-0.448-1-1V1c0-0.552,0.447-1,1-1s1,0.448,1,1v30C21.45,31.552,21.003,32,20.45,32z"/><path d="M25.361,32c-0.553,0-1-0.448-1-1V1c0-0.552,0.447-1,1-1s1,0.448,1,1v30C26.361,31.552,25.914,32,25.361,32z"/><path d="M16.506,26.489H2.083c-0.553,0-1-0.448-1-1s0.447-1,1-1h14.423c0.553,0,1,0.448,1,1S17.059,26.489,16.506,26.489z"/><path d="M2.083,26.489c-0.256,0-0.511-0.097-0.706-0.292c-0.392-0.39-0.392-1.023-0.002-1.414l4.545-4.556c0.391-0.392,1.023-0.392,1.414-0.002c0.392,0.39,0.392,1.023,0.002,1.414l-4.545,4.556C2.596,26.391,2.339,26.489,2.083,26.489z"/><path d="M6.861,31.255c-0.256,0-0.511-0.097-0.706-0.292l-4.778-4.767c-0.392-0.39-0.392-1.023-0.002-1.414c0.391-0.392,1.023-0.392,1.414-0.002l4.778,4.767c0.392,0.39,0.392,1.023,0.002,1.414C7.374,31.157,7.117,31.255,6.861,31.255z"/></svg>