<svg xmlns="http://www.w3.org/2000/svg" viewBox="0 0 32 32"><!--! Font Icona - https://fonticona.com | License - https://fonticona.com/license | Copyright 2022 FontIcona.com --><path d="M28,32H4c-2.206,0-4-1.794-4-4V4c0-2.206,1.794-4,4-4h24c2.206,0,4,1.794,4,4v24C32,30.206,30.206,32,28,32z M4,2C2.897,2,2,2.897,2,4v24c0,1.103,0.897,2,2,2h24c1.103,0,2-0.897,2-2V4c0-1.103-0.897-2-2-2H4z"/><path d="M17.086,18.517H10.99V6.915h6.096c3.199,0,5.801,2.603,5.801,5.801S20.285,18.517,17.086,18.517z M12.99,16.517h4.096c2.096,0,3.801-1.705,3.801-3.801s-1.705-3.801-3.801-3.801H12.99V16.517z"/><rect x="10.99" y="17.517" width="2" height="8.08"/></svg>