<svg xmlns="http://www.w3.org/2000/svg" viewBox="0 0 32 32"><!--! Font Icona - https://fonticona.com | License - https://fonticona.com/license | Copyright 2022 FontIcona.com --><circle cx="7.034" cy="25.286" r="2"/><circle cx="16" cy="25.286" r="2"/><circle cx="24.966" cy="25.286" r="2"/><path d="M29,32H3c-1.654,0-3-1.346-3-3v-7.428c0-1.654,1.346-3,3-3h26c1.654,0,3,1.346,3,3V29C32,30.654,30.654,32,29,32z M3,20.572c-0.552,0-1,0.448-1,1V29c0,0.552,0.448,1,1,1h26c0.552,0,1-0.448,1-1v-7.428c0-0.552-0.448-1-1-1H3z"/><circle class="st1" cx="7.034" cy="25.286" r="2"/><path d="M22.744,20.572H9.256c-1.133,0-2.055-0.838-2.055-1.867v-6.567c0-1.654,1.346-3,3-3h11.598c1.654,0,3,1.346,3,3v6.567C24.799,19.734,23.877,20.572,22.744,20.572z M9.201,18.566c0.016,0.004,0.034,0.006,0.055,0.006h13.488c0.021,0,0.039-0.002,0.055-0.006v-6.428c0-0.551-0.448-1-1-1H10.201c-0.552,0-1,0.449-1,1V18.566z"/><path d="M22.109,9.701h-2V5.845C20.109,3.725,18.266,2,16,2s-4.109,1.725-4.109,3.845v3.856h-2V5.845C9.891,2.622,12.631,0,16,0s6.109,2.622,6.109,5.845V9.701z"/></svg>