<svg xmlns="http://www.w3.org/2000/svg" viewBox="0 0 32 32"><!--! Font Icona - https://fonticona.com | License - https://fonticona.com/license | Copyright 2022 FontIcona.com --><path d="M16,20.1c-4.071,0-7.384-3.312-7.384-7.383S11.929,5.333,16,5.333s7.384,3.312,7.384,7.384S20.071,20.1,16,20.1z M16,7.333c-2.969,0-5.384,2.415-5.384,5.384c0,2.968,2.415,5.383,5.384,5.383s5.384-2.415,5.384-5.383C21.384,9.748,18.969,7.333,16,7.333z"/><path d="M15.285,19.792c-3.436-3.505-3.436-10.646,0-14.15l1.428,1.4c-2.704,2.758-2.704,8.592,0,11.35L15.285,19.792z"/><path d="M16.715,19.792l-1.428-1.4c2.704-2.758,2.704-8.592,0-11.35l1.428-1.4C20.151,9.146,20.151,16.287,16.715,19.792z"/><rect x="9.616" y="11.716" width="12.768" height="2"/><path d="M23.953,32H8.047c-1.654,0-3-1.346-3-3V3c0-1.654,1.346-3,3-3h15.905c1.654,0,3,1.346,3,3v26C26.953,30.654,25.607,32,23.953,32z M8.047,2c-0.551,0-1,0.449-1,1v26c0,0.551,0.449,1,1,1h15.905c0.551,0,1-0.449,1-1V3c0-0.551-0.449-1-1-1H8.047z"/><path d="M20.874,23.923h-9.748c-0.552,0-1-0.448-1-1s0.448-1,1-1h9.748c0.552,0,1,0.448,1,1S21.426,23.923,20.874,23.923z"/><path d="M19.068,27.506h-6.136c-0.552,0-1-0.448-1-1s0.448-1,1-1h6.136c0.552,0,1,0.448,1,1S19.62,27.506,19.068,27.506z"/></svg>