<svg xmlns="http://www.w3.org/2000/svg" viewBox="0 0 32 32"><!--! Font Icona - https://fonticona.com | License - https://fonticona.com/license | Copyright 2022 FontIcona.com --><path d="M15.945,22.451c-4.526,0-8.496-2.146-8.496-4.592c0-2.43,3.97-4.561,8.496-4.561s8.496,2.131,8.496,4.561C24.441,20.305,20.472,22.451,15.945,22.451z M15.945,15.298c-3.975,0-6.496,1.8-6.496,2.561c0,0.77,2.521,2.592,6.496,2.592s6.496-1.822,6.496-2.592C22.441,17.099,19.92,15.298,15.945,15.298z"/><path d="M8.621,18.109c-0.234,0-0.469-0.081-0.658-0.247c-0.157-0.137-0.293-0.28-0.425-0.42c-0.24-0.255-0.34-0.349-0.506-0.401c-0.188-0.06-0.408-0.083-0.646-0.06c-0.12,0.01-0.306,0.093-0.502,0.18c-0.212,0.095-0.425,0.186-0.644,0.25c-1.263,0.371-2.386,0.4-3.435,0.085c-0.814-0.244-1.293-0.744-1.582-1.099c-0.349-0.428-0.284-1.058,0.144-1.407c0.43-0.348,1.061-0.283,1.407,0.144c0.208,0.255,0.372,0.376,0.605,0.446c0.664,0.199,1.415,0.17,2.299-0.088c0.134-0.039,0.262-0.1,0.391-0.157c0.308-0.137,0.689-0.307,1.146-0.347c0.501-0.043,0.978,0.007,1.417,0.146c0.678,0.213,1.056,0.615,1.359,0.937c0.089,0.095,0.18,0.193,0.286,0.286c0.416,0.363,0.458,0.995,0.095,1.411C9.177,17.994,8.899,18.109,8.621,18.109z"/><path d="M1.452,24.702c-0.051,0-0.1,0-0.146-0.001L1.172,24.7c-0.553,0-1-0.448-1-1s0.447-1,1-1l0.16,0.001c0.122,0.002,0.301,0.004,0.336-0.016c0.207-0.11,0.456-0.413,0.621-0.613c0.41-0.498,0.788-0.956,1.076-1.409c0.145-0.228,0.259-0.473,0.375-0.715c0.167-0.35,0.34-0.71,0.585-1.062c1.007-1.442,2.65-1.674,3.972-1.86c0.546-0.081,1.059,0.303,1.136,0.85c0.077,0.547-0.297,1.052-0.844,1.129l-0.013,0.002c-1.082,0.152-2.103,0.296-2.61,1.024c-0.152,0.217-0.282,0.491-0.421,0.78c-0.15,0.315-0.304,0.63-0.492,0.926c-0.354,0.557-0.772,1.063-1.177,1.554c-0.309,0.375-0.71,0.862-1.266,1.158C2.188,24.676,1.777,24.702,1.452,24.702z"/><path d="M7.699,28.354c-0.238,0-0.478-0.084-0.669-0.257c-0.41-0.37-0.443-1.001-0.074-1.412c0.296-0.329,0.526-0.717,0.633-1.065c0.09-0.297,0.107-0.805,0.039-1.181c-0.016-0.088-0.073-0.218-0.135-0.355c-0.086-0.194-0.193-0.436-0.26-0.722l-0.064-0.27c-0.186-0.749-0.415-1.681,0.062-2.652c0.237-0.484,1.136-2.043,2.426-1.852c0.547,0.08,0.924,0.588,0.844,1.135c-0.07,0.482-0.475,0.833-0.943,0.854c-0.141,0.119-0.378,0.433-0.531,0.746c-0.148,0.301-0.064,0.688,0.085,1.292l0.071,0.297c0.03,0.13,0.088,0.246,0.14,0.362c0.097,0.217,0.217,0.487,0.275,0.811c0.099,0.549,0.126,1.394-0.095,2.12c-0.192,0.628-0.568,1.274-1.06,1.82C8.245,28.242,7.973,28.354,7.699,28.354z"/><path d="M23.379,18.109c-0.278,0-0.556-0.116-0.753-0.342c-0.363-0.416-0.321-1.048,0.095-1.411c0.106-0.093,0.197-0.191,0.286-0.286c0.304-0.322,0.682-0.724,1.359-0.937c0.439-0.139,0.916-0.189,1.417-0.146c0.457,0.04,0.839,0.209,1.146,0.347c0.129,0.058,0.257,0.118,0.39,0.157c0.882,0.259,1.634,0.288,2.3,0.089c0.233-0.07,0.397-0.191,0.605-0.446c0.349-0.427,0.979-0.493,1.407-0.144c0.428,0.349,0.492,0.979,0.144,1.407c-0.289,0.355-0.768,0.855-1.582,1.099c-1.048,0.313-2.171,0.286-3.436-0.085c-0.218-0.063-0.431-0.155-0.643-0.25c-0.196-0.087-0.382-0.17-0.502-0.18c-0.24-0.023-0.458,0-0.646,0.06c-0.166,0.052-0.266,0.146-0.506,0.401c-0.132,0.14-0.268,0.283-0.425,0.42C23.848,18.028,23.612,18.109,23.379,18.109z"/><path d="M30.548,24.702c-0.325,0-0.735-0.026-1.159-0.253c-0.555-0.296-0.956-0.783-1.221-1.105c-0.448-0.543-0.867-1.05-1.221-1.607c-0.188-0.295-0.342-0.611-0.492-0.926c-0.139-0.29-0.269-0.563-0.421-0.781c-0.508-0.727-1.528-0.871-2.61-1.023l0.267-1.982l-0.14,0.99l0.152-0.988c1.321,0.186,2.965,0.418,3.972,1.859c0.245,0.353,0.418,0.714,0.585,1.063c0.116,0.242,0.23,0.487,0.375,0.714c0.288,0.453,0.666,0.912,1.032,1.355c0.209,0.254,0.458,0.557,0.664,0.667c0.037,0.02,0.216,0.018,0.337,0.016l0.16-0.001c0.553,0,1,0.448,1,1s-0.447,1-1,1l-0.134,0.001C30.647,24.702,30.599,24.702,30.548,24.702z"/><path d="M24.301,28.354c-0.273,0-0.546-0.112-0.743-0.331c-0.491-0.546-0.867-1.192-1.059-1.819c-0.222-0.727-0.194-1.571-0.096-2.12c0.059-0.324,0.179-0.595,0.275-0.812c0.052-0.116,0.109-0.232,0.139-0.362l0.072-0.297c0.149-0.604,0.233-0.99,0.085-1.292c-0.153-0.312-0.391-0.626-0.531-0.745c-0.469-0.021-0.873-0.372-0.943-0.854c-0.08-0.546,0.297-1.055,0.844-1.135c1.293-0.193,2.188,1.368,2.426,1.851c0.477,0.972,0.247,1.905,0.062,2.653l-0.064,0.27c-0.066,0.286-0.174,0.527-0.26,0.722c-0.062,0.138-0.119,0.268-0.135,0.356c-0.068,0.375-0.051,0.883,0.04,1.181c0.105,0.348,0.336,0.736,0.632,1.065c0.369,0.411,0.336,1.042-0.074,1.412C24.778,28.269,24.539,28.354,24.301,28.354z"/><path d="M11.667,16.011c-0.553,0-1-0.448-1-1v-6.68c0-0.552,0.447-1,1-1s1,0.448,1,1v6.68C12.667,15.563,12.22,16.011,11.667,16.011z"/><path d="M11.667,9.331c-1.567,0-2.843-1.275-2.843-2.842s1.275-2.843,2.843-2.843s2.842,1.275,2.842,2.843S13.234,9.331,11.667,9.331z M11.667,5.646c-0.465,0-0.843,0.378-0.843,0.843c0,0.464,0.378,0.842,0.843,0.842c0.464,0,0.842-0.378,0.842-0.842C12.509,6.024,12.131,5.646,11.667,5.646z"/><path d="M20.256,16.024c-0.553,0-1-0.448-1-1V8.331c0-0.552,0.447-1,1-1s1,0.448,1,1v6.693C21.256,15.576,20.809,16.024,20.256,16.024z"/><path d="M20.256,9.331c-1.567,0-2.843-1.275-2.843-2.842s1.275-2.843,2.843-2.843s2.842,1.275,2.842,2.843S21.823,9.331,20.256,9.331z M20.256,5.646c-0.465,0-0.843,0.378-0.843,0.843c0,0.464,0.378,0.842,0.843,0.842c0.464,0,0.842-0.378,0.842-0.842C21.098,6.024,20.72,5.646,20.256,5.646z"/></svg>