<svg xmlns="http://www.w3.org/2000/svg" viewBox="0 0 32 32"><!--! Font Icona - https://fonticona.com | License - https://fonticona.com/license | Copyright 2022 FontIcona.com --><path d="M6.57,32H1c-0.552,0-1-0.447-1-1V1c0-0.553,0.448-1,1-1h5.57c0.552,0,1,0.447,1,1v30C7.57,31.552,7.123,32,6.57,32z M2,30h3.57V2H2V30z"/><path d="M20.154,23.692c-6.532,0-11.846-5.313-11.846-11.846S13.622,0,20.154,0S32,5.314,32,11.846S26.686,23.692,20.154,23.692z M20.154,2c-5.429,0-9.846,4.417-9.846,9.847c0,5.429,4.417,9.846,9.846,9.846S30,17.275,30,11.846C30,6.417,25.583,2,20.154,2z"/></svg>