<svg xmlns="http://www.w3.org/2000/svg" viewBox="0 0 32 32"><!--! Font Icona - https://fonticona.com | License - https://fonticona.com/license | Copyright 2022 FontIcona.com --><path d="M17.912,32c-0.858,0-1.658-0.279-2.338-0.82c-0.915-0.73-1.457-1.719-1.935-2.592c-0.702-1.282-1.188-2.084-2.291-2.38c-0.63-0.171-1.284,0.056-2.044,0.315c-0.437,0.149-0.89,0.305-1.382,0.4c-1.801,0.338-3.38,0.027-4.459-0.869c-0.662-0.553-1.45-1.599-1.443-3.449c-0.003-1.136,0.222-2.247,0.669-3.299l0.009-0.02c1.866-4.133,5.823-7.025,10.328-7.548c4.183-0.201,7.953,2.124,9.639,5.896c0.803,2.305,1.097,4.621,0.906,6.967c-0.088,1.935-0.739,3.824-1.883,5.431c-0.829,1.076-2.048,1.789-3.284,1.938C18.238,31.99,18.074,32,17.912,32z M10.888,24.148c0.314,0,0.641,0.037,0.979,0.128c1.984,0.533,2.804,2.03,3.527,3.352c0.425,0.776,0.826,1.509,1.427,1.987c0.384,0.307,0.836,0.433,1.343,0.369c0.705-0.085,1.44-0.522,1.918-1.143c0.896-1.261,1.421-2.782,1.493-4.367c0.171-2.103-0.089-4.145-0.768-6.104c-1.316-2.935-4.282-4.795-7.621-4.64c-3.736,0.437-7.08,2.878-8.661,6.368c-0.338,0.797-0.508,1.641-0.505,2.507c-0.003,0.867,0.24,1.509,0.724,1.911c0.604,0.502,1.625,0.662,2.803,0.442c0.351-0.069,0.721-0.195,1.111-0.329C9.332,24.4,10.071,24.148,10.888,24.148z"/><path d="M26.532,23.125c-0.521,0-1.035-0.109-1.518-0.338c-1.067-0.508-1.807-1.501-2.08-2.798c-0.254-1.197-0.074-2.527,0.505-3.746c1.24-2.605,3.961-3.905,6.07-2.908c1.067,0.508,1.807,1.501,2.08,2.798c0.254,1.197,0.074,2.527-0.505,3.746C30.129,21.889,28.29,23.125,26.532,23.125z M27.976,14.993c-0.989,0-2.122,0.832-2.729,2.109c-0.387,0.812-0.516,1.714-0.355,2.474c0.143,0.672,0.491,1.171,0.983,1.404c1.094,0.522,2.651-0.378,3.404-1.961c0.387-0.812,0.516-1.714,0.355-2.474c-0.143-0.672-0.491-1.171-0.983-1.404C28.439,15.041,28.212,14.993,27.976,14.993z"/><path d="M4.112,15.146c-0.535,0-1.063-0.111-1.56-0.347c-2.169-1.031-2.895-4.054-1.619-6.737C1.53,6.807,2.478,5.798,3.6,5.222C4.812,4.6,6.084,4.546,7.181,5.065c2.168,1.031,2.896,4.054,1.62,6.737C7.815,13.873,5.923,15.146,4.112,15.146z M5.601,6.714C5.254,6.714,4.884,6.811,4.514,7C3.779,7.377,3.149,8.06,2.74,8.921l0,0c-0.789,1.658-0.481,3.523,0.672,4.071c1.151,0.547,2.793-0.39,3.582-2.049c0.788-1.658,0.48-3.523-0.673-4.071C6.1,6.767,5.856,6.714,5.601,6.714z"/><path d="M13.684,10.943c-0.56,0-1.11-0.117-1.627-0.362c-1.146-0.545-1.938-1.612-2.233-3.007c-0.274-1.296-0.08-2.736,0.548-4.056l0,0c0.627-1.32,1.622-2.381,2.8-2.986c1.268-0.651,2.596-0.712,3.743-0.166c2.268,1.08,3.023,4.248,1.686,7.063C17.564,9.604,15.579,10.943,13.684,10.943z M15.267,2c-0.377,0-0.779,0.104-1.182,0.311c-0.79,0.406-1.468,1.14-1.907,2.065v0.001c-0.44,0.926-0.582,1.914-0.398,2.783c0.163,0.771,0.566,1.344,1.137,1.614c1.25,0.595,3.026-0.413,3.877-2.203c0.851-1.789,0.512-3.804-0.738-4.398C15.812,2.058,15.546,2,15.267,2z"/><path d="M23.544,12.988c-0.571,0-1.128-0.122-1.647-0.369c-1.146-0.545-1.938-1.612-2.233-3.007c-0.273-1.296-0.079-2.736,0.549-4.056l0,0c0.627-1.32,1.622-2.381,2.8-2.986c1.268-0.651,2.596-0.709,3.742-0.166c1.146,0.545,1.938,1.612,2.233,3.007c0.274,1.296,0.08,2.737-0.548,4.057c-0.627,1.319-1.622,2.38-2.8,2.985C24.946,12.81,24.234,12.988,23.544,12.988z M25.106,4.038c-0.377,0-0.778,0.104-1.181,0.311c-0.79,0.406-1.468,1.14-1.907,2.065v0.001c-0.44,0.926-0.582,1.914-0.398,2.783c0.163,0.771,0.566,1.344,1.136,1.614c0.568,0.271,1.27,0.221,1.97-0.138c0.79-0.406,1.468-1.14,1.907-2.065c0.44-0.927,0.582-1.915,0.398-2.784c-0.163-0.771-0.566-1.344-1.137-1.614C25.652,4.096,25.387,4.038,25.106,4.038z"/></svg>