<svg xmlns="http://www.w3.org/2000/svg" viewBox="0 0 32 32"><!--! Font Icona - https://fonticona.com | License - https://fonticona.com/license | Copyright 2022 FontIcona.com --><path d="M23.98,26.395c-0.553,0-1-0.447-1-1c0-1.44-0.67-2.396-1.113-2.396H10.133c-0.443,0-1.113,0.956-1.113,2.396c0,0.553-0.447,1-1,1s-1-0.447-1-1c0-2.465,1.367-4.396,3.113-4.396h11.734c1.746,0,3.113,1.932,3.113,4.396C24.98,25.947,24.533,26.395,23.98,26.395z"/><path d="M23.547,32H8.453c-1.654,0-3-1.346-3-3v-1.401c0-1.654,1.346-3,3-3h15.094c1.654,0,3,1.346,3,3V29C26.547,30.654,25.201,32,23.547,32z M8.453,26.599c-0.552,0-1,0.448-1,1V29c0,0.552,0.448,1,1,1h15.094c0.552,0,1-0.448,1-1v-1.401c0-0.552-0.448-1-1-1H8.453z"/><path d="M15.723,10.333c-2.849,0-5.166-2.317-5.166-5.166S12.874,0,15.723,0s5.167,2.318,5.167,5.167S18.571,10.333,15.723,10.333z M15.723,2c-1.746,0-3.166,1.421-3.166,3.167s1.42,3.166,3.166,3.166s3.167-1.42,3.167-3.166S17.469,2,15.723,2z"/><path d="M20.399,22.618c-2.094-3.367-2.825-7.797-3.074-10.137l1.988-0.213c0.231,2.171,0.901,6.265,2.785,9.293L20.399,22.618z"/><path d="M11.047,22.617l-1.699-1.055c1.61-2.598,2.572-5.816,2.859-9.568l1.994,0.152C13.89,16.222,12.828,19.744,11.047,22.617z"/><path d="M15.723,13.07c-2.064,0-6.865-0.231-6.865-2.374s4.801-2.374,6.865-2.374s6.865,0.231,6.865,2.374S17.787,13.07,15.723,13.07z M11.808,10.696c0.861,0.199,2.189,0.374,3.915,0.374s3.054-0.175,3.915-0.374c-0.861-0.199-2.189-0.374-3.915-0.374S12.669,10.497,11.808,10.696z"/></svg>