<svg xmlns="http://www.w3.org/2000/svg" viewBox="0 0 32 32"><!--! Font Icona - https://fonticona.com | License - https://fonticona.com/license | Copyright 2022 FontIcona.com --><path d="M10.52,28.93H4.192c-0.643,0-1.241-0.27-1.639-0.739s-0.567-1.103-0.462-1.737L6.096,2.151C6.295,0.945,7.408,0,8.631,0h9.988c3.449-0.008,5.949,0.905,7.454,2.73c1.817,2.206,1.463,4.934,1.382,5.42c-0.246,3.332-1.485,5.958-3.688,7.809c-4.124,3.465-10.103,2.893-10.356,2.867c-0.872-0.072-1.308,0.146-1.34,0.388l-0.011,0.107L10.52,28.93z M6.288,13.285L4.064,26.779c-0.009,0.053-0.003,0.097,0.014,0.117c0.018,0.021,0.061,0.033,0.114,0.033h4.623l1.263-7.874c0.021-0.274,0.136-0.924,0.729-1.474c0.634-0.589,1.57-0.842,2.782-0.748c0.082,0.008,5.435,0.508,8.901-2.414c1.776-1.497,2.777-3.671,2.974-6.463l0.017-0.125c0.003-0.017,0.397-2.209-0.964-3.846C23.419,2.668,21.46,2,18.692,2c-0.022,0-0.046,0-0.069,0H8.631C8.387,2,8.109,2.236,8.07,2.477L6.288,13.285z"/><path d="M14.661,32h-4.18c-0.643,0-1.24-0.27-1.639-0.738c-0.399-0.47-0.567-1.104-0.463-1.738l0.724-4.392l1.974,0.324l-0.724,4.392c-0.009,0.054-0.004,0.099,0.014,0.119S10.427,30,10.481,30h4.18c0.241,0,0.514-0.233,0.551-0.472l0.755-4.786c0.081-0.855,0.462-1.612,1.096-2.129c1.083-0.884,2.505-0.764,2.66-0.745c5.796,0.073,7.465-4.438,7.534-4.63c1.246-3.671,0.762-6.376-1.366-7.604l0.998-1.732c1.421,0.819,4.483,3.432,2.258,9.992c-0.024,0.068-2.17,5.971-9.329,5.971c-0.071,0-0.144-0.001-0.217-0.002c-0.517-0.049-1.541-0.01-1.651,1.131l-0.763,4.848C16.997,31.052,15.887,32,14.661,32z"/></svg>