<svg xmlns="http://www.w3.org/2000/svg" viewBox="0 0 32 32"><!--! Font Icona - https://fonticona.com | License - https://fonticona.com/license | Copyright 2022 FontIcona.com --><path d="M8.24,22.938H1c-0.553,0-1-0.447-1-1s0.447-1,1-1h7.24c0.553,0,1,0.447,1,1S8.793,22.938,8.24,22.938z"/><path d="M29.744,26.804H1c-0.553,0-1-0.447-1-1s0.447-1,1-1h28.744c0.553,0,1,0.447,1,1S30.297,26.804,29.744,26.804z"/><path d="M27.322,30.671H1c-0.553,0-1-0.447-1-1s0.447-1,1-1h26.322c0.553,0,1,0.447,1,1S27.875,30.671,27.322,30.671z"/><rect x="25.275" y="4.131" transform="matrix(0.7071 -0.7071 0.7071 0.7071 2.7072 20.6451)" width="2" height="5.847"/><path d="M13.143,21.321c-0.295,0-0.585-0.115-0.802-0.331c-0.315-0.314-0.417-0.787-0.26-1.204l2.155-5.627c0.254-0.662,0.636-1.25,1.135-1.75L25.767,2.014c0.913-0.911,2.395-0.908,3.304-0.001l2.245,2.246C31.757,4.699,32,5.286,32,5.91s-0.243,1.211-0.685,1.652L20.922,17.956c-0.5,0.501-1.09,0.884-1.752,1.138l-5.623,2.152C13.416,21.297,13.278,21.321,13.143,21.321z M27.419,3.33c-0.086,0-0.173,0.032-0.239,0.099L16.786,13.822c-0.3,0.301-0.529,0.655-0.683,1.054l-1.459,3.809l3.811-1.459c0.398-0.152,0.751-0.382,1.051-0.682L29.901,6.148C29.987,6.062,30,5.962,30,5.91s-0.013-0.151-0.098-0.236l-2.245-2.246C27.592,3.362,27.506,3.33,27.419,3.33z"/></svg>