<svg xmlns="http://www.w3.org/2000/svg" viewBox="0 0 32 32"><!--! Font Icona - https://fonticona.com | License - https://fonticona.com/license | Copyright 2022 FontIcona.com --><path d="M1,32c-0.261,0-0.517-0.103-0.707-0.293c-0.26-0.26-0.356-0.643-0.251-0.994l0.045-0.148c0.88-2.932,1.79-5.963,2.548-9.056c0.062-0.252,0.219-0.471,0.439-0.608c1.394-0.876,2.795-1.747,4.207-2.608c0.395-0.24,0.899-0.181,1.225,0.143c1.715,1.699,3.359,3.345,5.059,5.059c0.324,0.327,0.383,0.832,0.144,1.225c-0.862,1.413-1.733,2.813-2.608,4.208c-0.138,0.221-0.357,0.378-0.609,0.44c-3.091,0.757-6.12,1.666-9.05,2.545l-0.155,0.047C1.193,31.986,1.096,32,1,32z M4.48,22.379c-0.607,2.432-1.298,4.81-1.99,7.131c2.32-0.692,4.7-1.383,7.132-1.989c0.661-1.054,1.318-2.111,1.972-3.176c-1.318-1.327-2.61-2.621-3.937-3.937C6.592,21.059,5.534,21.718,4.48,22.379z"/><path d="M1.001,31.999c-0.256,0-0.512-0.098-0.707-0.293c-0.391-0.391-0.391-1.023,0-1.414l4.909-4.909c0.391-0.391,1.024-0.391,1.415,0c0.391,0.39,0.391,1.023,0,1.414l-4.91,4.909C1.513,31.901,1.257,31.999,1.001,31.999z"/><path d="M7.086,26.708c-0.485,0.477-1.276,0.465-1.767-0.026c-0.491-0.491-0.503-1.282-0.026-1.767c0.477-0.485,1.269-0.474,1.768,0.025C7.559,25.439,7.571,26.231,7.086,26.708z"/><path d="M12.856,25.197c-0.256,0-0.512-0.098-0.707-0.293l-5.053-5.053c-0.38-0.38-0.392-0.994-0.025-1.388c3.764-4.05,7.545-8.242,11.202-12.297c1.293-1.434,2.588-2.869,3.887-4.303c1.098-1.1,2.584-1.763,4.112-1.852c1.634-0.094,3.121,0.443,4.198,1.519c1.076,1.077,1.616,2.567,1.519,4.198c-0.091,1.529-0.753,3.016-1.817,4.079c-1.488,1.349-2.941,2.66-4.392,3.969c-4.037,3.641-8.211,7.406-12.242,11.153C13.345,25.108,13.1,25.197,12.856,25.197z M9.191,19.118l3.691,3.69c3.822-3.539,7.751-7.083,11.557-10.517c1.45-1.309,2.902-2.618,4.354-3.933c0.687-0.688,1.137-1.703,1.199-2.749c0.062-1.052-0.271-1.998-0.937-2.665c-0.668-0.667-1.624-1.004-2.666-0.937c-1.046,0.062-2.06,0.512-2.782,1.234c-1.264,1.398-2.558,2.832-3.85,4.265C16.308,11.332,12.748,15.279,9.191,19.118z"/><path d="M16.961,21.413c-0.256,0-0.512-0.098-0.707-0.293l-5.376-5.376c-0.391-0.391-0.391-1.023,0-1.414s1.023-0.391,1.414,0l5.376,5.376c0.391,0.391,0.391,1.023,0,1.414C17.473,21.315,17.217,21.413,16.961,21.413z"/></svg>