<svg xmlns="http://www.w3.org/2000/svg" viewBox="0 0 32 32"><!--! Font Icona - https://fonticona.com | License - https://fonticona.com/license | Copyright 2022 FontIcona.com --><path d="M1,32c-0.261,0-0.517-0.103-0.707-0.293c-0.26-0.26-0.356-0.642-0.251-0.994l0.081-0.27c1.466-4.893,2.983-9.952,4.248-15.125c0.062-0.253,0.219-0.471,0.439-0.609c2.323-1.459,4.654-2.912,7.005-4.349c0.394-0.241,0.899-0.181,1.226,0.144c2.857,2.835,5.597,5.579,8.428,8.44c0.323,0.326,0.382,0.831,0.143,1.224c-1.435,2.354-2.885,4.689-4.343,7.015c-0.138,0.22-0.356,0.378-0.609,0.44c-5.157,1.265-10.202,2.78-15.08,4.246l-0.293,0.089C1.193,31.986,1.096,32,1,32z M6.217,16.188c-1.125,4.553-2.433,8.999-3.726,13.32c4.314-1.294,8.754-2.604,13.3-3.73c1.243-1.984,2.48-3.978,3.707-5.982c-2.449-2.472-4.839-4.866-7.308-7.318C10.187,13.704,8.198,14.943,6.217,16.188z"/><path d="M1,32c-0.256,0-0.511-0.098-0.707-0.292c-0.391-0.391-0.391-1.023-0.001-1.415L8.475,22.1c0.39-0.393,1.023-0.391,1.414-0.002c0.391,0.391,0.391,1.023,0.001,1.414l-8.183,8.195C1.512,31.902,1.256,32,1,32z"/><path d="M11.083,23.777c-0.776,0.764-2.043,0.745-2.828-0.041c-0.786-0.786-0.804-2.054-0.041-2.832c0.763-0.778,2.03-0.76,2.829,0.04C11.841,21.745,11.859,23.013,11.083,23.777z"/><path d="M12.336,12.214c-0.186,0-0.375-0.052-0.542-0.16c-0.463-0.301-0.596-0.92-0.296-1.383L18.11,0.457c0.3-0.464,0.919-0.596,1.383-0.297c0.463,0.301,0.596,0.92,0.296,1.383l-6.612,10.214C12.985,12.053,12.664,12.214,12.336,12.214z"/><path d="M20.76,20.647c-0.329,0-0.651-0.162-0.842-0.459c-0.298-0.465-0.164-1.084,0.301-1.383l10.241-6.58c0.465-0.298,1.083-0.163,1.382,0.301c0.298,0.465,0.164,1.084-0.301,1.383l-10.241,6.58C21.132,20.597,20.945,20.647,20.76,20.647z"/><path d="M31,14.067c-0.256,0-0.512-0.098-0.708-0.293L18.242,1.707c-0.39-0.392-0.39-1.024,0.001-1.415c0.391-0.389,1.023-0.39,1.414,0.001L31.708,12.36c0.39,0.392,0.39,1.024-0.001,1.415C31.511,13.97,31.256,14.067,31,14.067z"/></svg>