<svg xmlns="http://www.w3.org/2000/svg" viewBox="0 0 32 32"><!--! Font Icona - https://fonticona.com | License - https://fonticona.com/license | Copyright 2022 FontIcona.com --><path d="M1.322,31.861c-0.32,0-0.617-0.117-0.842-0.342c-0.335-0.335-0.431-0.83-0.256-1.324l2.423-6.843c0.141-0.396,0.458-0.899,0.756-1.197L24.912,0.646c0.584-0.586,1.537-0.586,2.121,0l4.32,4.32c0.585,0.585,0.585,1.536,0,2.121L9.845,28.597c-0.298,0.298-0.801,0.615-1.197,0.756l-6.842,2.423C1.643,31.833,1.479,31.861,1.322,31.861z M25.973,2.414L4.817,23.569c-0.089,0.089-0.243,0.334-0.285,0.451l-1.89,5.337l5.337-1.89c0.117-0.042,0.362-0.196,0.451-0.285L29.586,6.027L25.973,2.414z M29.939,6.381h0.01H29.939z"/><path d="M24.192,20.103c-0.256,0-0.512-0.098-0.707-0.293c-0.391-0.391-0.391-1.023,0-1.414l5.584-5.584L22.567,6.31c-0.391-0.391-0.391-1.023,0-1.414s1.023-0.391,1.414,0l7.209,7.209c0.391,0.391,0.391,1.023,0,1.414l-6.291,6.291C24.704,20.005,24.448,20.103,24.192,20.103z"/><path d="M8.616,28.829c-0.256,0-0.512-0.098-0.707-0.293l-4.398-4.398c-0.391-0.391-0.391-1.023,0-1.414s1.023-0.391,1.414,0l4.398,4.398c0.391,0.391,0.391,1.023,0,1.414C9.128,28.731,8.872,28.829,8.616,28.829z"/></svg>