<svg xmlns="http://www.w3.org/2000/svg" viewBox="0 0 32 32"><!--! Font Icona - https://fonticona.com | License - https://fonticona.com/license | Copyright 2022 FontIcona.com --><rect x="22.121" y="4.005" transform="matrix(0.7071 -0.7071 0.7071 0.7071 0.4932 18.9495)" width="2" height="9.749"/><path d="M1.224,31.999c-0.318,0-0.631-0.124-0.865-0.357c-0.341-0.342-0.449-0.854-0.275-1.305l3.589-9.374c0.389-1.014,0.975-1.917,1.741-2.686L22.746,0.945c1.259-1.26,3.309-1.26,4.565,0l3.743,3.743c1.259,1.259,1.259,3.307,0,4.565L13.723,26.587c-0.769,0.767-1.672,1.353-2.685,1.741l-9.378,3.59C1.519,31.973,1.371,31.999,1.224,31.999z M1.951,31.051l-0.002,0.004C1.95,31.054,1.95,31.053,1.951,31.051z M0.946,30.05c-0.001,0.001-0.002,0.001-0.004,0.002L0.946,30.05z M25.029,2c-0.315,0-0.63,0.12-0.869,0.359L6.828,19.691c-0.567,0.568-1.001,1.237-1.289,1.987l-2.967,7.749l7.75-2.967c0.749-0.288,1.418-0.722,1.986-1.29L29.641,7.84c0.479-0.479,0.479-1.258,0-1.737l-3.743-3.743C25.658,2.12,25.344,2,25.029,2z"/><path d="M12.719,26.834l-4.08-1.27c-1.052-0.328-1.875-1.151-2.203-2.203l-1.27-4.08l1.91-0.594l1.27,4.08c0.132,0.424,0.463,0.755,0.887,0.887l4.08,1.27L12.719,26.834z"/></svg>