<svg xmlns="http://www.w3.org/2000/svg" viewBox="0 0 32 32"><!--! Font Icona - https://fonticona.com | License - https://fonticona.com/license | Copyright 2022 FontIcona.com --><path d="M3.077,31.997c-0.356,0-0.697-0.189-0.877-0.512c-0.225-0.403-0.149-0.906,0.188-1.219l0.592-0.548c0.375-0.347,0.752-0.689,1.13-1.033c1.192-1.085,2.426-2.208,3.531-3.387c1.282-1.369,2.422-2.981,3.483-4.929c1.068-1.961,1.923-3.907,2.538-5.787c0.185-0.564,0.353-1.134,0.521-1.703c0.148-0.505,0.297-1.009,0.456-1.509c0.334-1.043,0.72-2.135,1.438-3.04c0.423-0.533,1.037-0.981,1.775-1.296c1.633-0.699,3.615-0.538,5.58,0.451c0.003,0.002,0.006,0.003,0.009,0.005l0.097,0.05c1.681,0.872,2.785,2.481,2.957,4.306c0.196,2.08-0.81,3.853-1.617,5.277c-0.645,1.138-1.405,2.292-2.261,3.433c-1.129,1.51-2.406,2.893-3.795,4.109c-1.402,1.23-2.955,2.328-4.613,3.263c-1.572,0.886-3.286,1.649-5.238,2.337c-1.859,0.654-3.774,1.184-5.626,1.695C3.257,31.986,3.167,31.997,3.077,31.997z M20.006,8.607c-0.451,0-0.917,0.075-1.368,0.269c-0.433,0.185-0.776,0.426-0.993,0.699c-0.51,0.643-0.811,1.505-1.1,2.405c-0.154,0.485-0.299,0.976-0.443,1.465c-0.173,0.589-0.347,1.178-0.538,1.762c-0.653,1.994-1.556,4.054-2.683,6.121c-1.144,2.098-2.38,3.844-3.78,5.339c-0.711,0.758-1.46,1.483-2.215,2.188c0.479-0.152,0.953-0.31,1.422-0.475c1.842-0.648,3.451-1.365,4.921-2.192c1.538-0.867,2.977-1.885,4.276-3.024c1.284-1.126,2.466-2.405,3.513-3.805c0.806-1.073,1.519-2.156,2.121-3.22c0.852-1.502,1.493-2.757,1.366-4.104c-0.107-1.145-0.812-2.16-1.885-2.717l-0.089-0.046C21.958,8.984,21.016,8.607,20.006,8.607z"/><path d="M25.255,11.861c-0.15,0-0.304-0.034-0.447-0.106c-0.493-0.247-0.693-0.848-0.445-1.342c0.859-1.715,1.142-3.198,0.773-4.069c-0.117-0.28-0.364-0.68-1.142-0.928c-1.364-0.433-3.585,0.678-4.318,2.706c-0.188,0.521-0.763,0.79-1.28,0.601c-0.52-0.188-0.788-0.761-0.601-1.28c1.132-3.131,4.529-4.658,6.807-3.933c1.142,0.364,1.964,1.075,2.378,2.058c0.773,1.835-0.024,4.136-0.83,5.742C25.975,11.658,25.621,11.861,25.255,11.861z"/><path d="M25.218,5.426c-0.207,0-0.417-0.064-0.596-0.197c-0.443-0.33-0.535-0.957-0.206-1.399c0.711-0.955,2.479-2.964,4.084-3.731c0.5-0.239,1.095-0.026,1.334,0.471c0.238,0.499,0.027,1.096-0.471,1.334c-1.092,0.521-2.612,2.139-3.342,3.12C25.825,5.286,25.523,5.426,25.218,5.426z"/></svg>