<svg xmlns="http://www.w3.org/2000/svg" viewBox="0 0 32 32"><!--! Font Icona - https://fonticona.com | License - https://fonticona.com/license | Copyright 2022 FontIcona.com --><path d="M6.587,13.151C2.955,13.151,0,10.201,0,6.576S2.955,0,6.587,0s6.586,2.949,6.586,6.575S10.219,13.151,6.587,13.151z M6.587,2C4.058,2,2,4.053,2,6.576s2.058,4.575,4.587,4.575c2.528,0,4.586-2.053,4.586-4.575S9.115,2,6.587,2z"/><path d="M25.413,32c-3.632,0-6.586-2.949-6.586-6.575s2.954-6.575,6.586-6.575S32,21.799,32,25.425S29.045,32,25.413,32z M25.413,20.85c-2.528,0-4.586,2.053-4.586,4.575S22.885,30,25.413,30C27.942,30,30,27.948,30,25.425S27.942,20.85,25.413,20.85z"/><path d="M0.99,31.991c-0.256,0-0.513-0.098-0.708-0.293c-0.39-0.392-0.39-1.024,0.001-1.415l30.02-29.981c0.391-0.389,1.024-0.39,1.415,0.001c0.39,0.392,0.39,1.024-0.001,1.415L1.697,31.699C1.502,31.893,1.246,31.991,0.99,31.991z"/></svg>