<svg xmlns="http://www.w3.org/2000/svg" viewBox="0 0 32 32"><!--! Font Icona - https://fonticona.com | License - https://fonticona.com/license | Copyright 2022 FontIcona.com --><path d="M16.34,22.051H6.042c-1.654,0-3-1.346-3-3V5.466c0-1.654,1.346-3,3-3H16.34c1.654,0,3,1.346,3,3v13.585C19.34,20.705,17.994,22.051,16.34,22.051z M6.042,4.466c-0.551,0-1,0.448-1,1v13.585c0,0.552,0.449,1,1,1H16.34c0.551,0,1-0.448,1-1V5.466c0-0.552-0.449-1-1-1H6.042z"/><path d="M14.245,3.054h-2C12.245,2.472,11.772,2,11.191,2s-1.054,0.473-1.054,1.055h-2C8.137,1.37,9.507,0,11.191,0S14.245,1.37,14.245,3.054z"/><path d="M11.191,25.995c-1.412,0-2.561-1.149-2.561-2.562v-2.219c0-0.553,0.448-1,1-1s1,0.447,1,1v2.219c0,0.31,0.251,0.562,0.561,0.562s0.562-0.252,0.562-0.562v-2.219c0-0.553,0.448-1,1-1s1,0.447,1,1v2.219C13.752,24.846,12.604,25.995,11.191,25.995z"/><path d="M18.856,32h-3.823c-2.67,0-4.842-1.845-4.842-4.113v-2.649c0-0.553,0.448-1,1-1s1,0.447,1,1v2.649c0,1.146,1.302,2.113,2.842,2.113h3.823c1.541,0,2.843-0.968,2.843-2.113V16.866c0-0.553,0.448-1,1-1s1,0.447,1,1v11.021C23.699,30.155,21.527,32,18.856,32z"/><path d="M27.561,19.88h-2V10.1c0-0.513-0.417-0.931-0.931-0.931c-0.513,0-0.931,0.418-0.931,0.931v1.87h-2V10.1c0-1.616,1.314-2.931,2.931-2.931s2.931,1.314,2.931,2.931V19.88z"/><path d="M26.561,24.331c-1.322,0-2.397-1.075-2.397-2.397v-0.821c0-1.322,1.075-2.397,2.397-2.397s2.397,1.075,2.397,2.397v0.821C28.958,23.256,27.883,24.331,26.561,24.331z M26.561,20.715c-0.219,0-0.397,0.179-0.397,0.397v0.821c0,0.219,0.178,0.397,0.397,0.397s0.397-0.179,0.397-0.397v-0.821C26.958,20.893,26.78,20.715,26.561,20.715z"/><path d="M22.699,17.552c-1.344,0-2.397-1.445-2.397-3.291c0-1.845,1.053-3.29,2.397-3.29s2.397,1.445,2.397,3.29C25.096,16.106,24.043,17.552,22.699,17.552z M22.656,12.964c-0.04,0.057-0.354,0.526-0.354,1.297c0,0.771,0.315,1.241,0.44,1.298c0.039-0.057,0.354-0.527,0.354-1.298S22.782,13.02,22.656,12.964z"/><path d="M26.561,28.726c-0.552,0-1-0.447-1-1v-4.396c0-0.553,0.448-1,1-1s1,0.447,1,1v4.396C27.561,28.279,27.113,28.726,26.561,28.726z"/><path d="M6.452,8.103H4.479c-0.552,0-1-0.447-1-1s0.448-1,1-1h1.972c0.552,0,1,0.447,1,1S7.004,8.103,6.452,8.103z"/><path d="M6.452,11.759H4.479c-0.552,0-1-0.447-1-1s0.448-1,1-1h1.972c0.552,0,1,0.447,1,1S7.004,11.759,6.452,11.759z"/><path d="M14.379,17.003c-1.021,0-2.02-0.151-2.915-0.457c-1.586-0.649-4.516-1.533-6.936-0.372c-0.497,0.236-1.095,0.029-1.333-0.471c-0.239-0.498-0.028-1.095,0.47-1.334c2.311-1.104,5.33-0.997,8.502,0.306c1.571,0.535,3.744,0.417,5.476-0.323c0.51-0.217,1.096,0.02,1.312,0.527c0.217,0.508-0.019,1.095-0.526,1.313C17.169,16.729,15.754,17.003,14.379,17.003z"/></svg>