<svg xmlns="http://www.w3.org/2000/svg" viewBox="0 0 32 32"><!--! Font Icona - https://fonticona.com | License - https://fonticona.com/license | Copyright 2022 FontIcona.com --><path d="M17.228,31.733c-0.552,0-1-0.447-1-1c0-0.186-0.027-0.377-0.05-0.564l-0.033-0.272c-0.385-3.631-1.662-7.152-3.692-10.185c-2.614-4.006-2.581-5.862-2.507-9.929c0.013-0.741,0.028-1.562,0.028-2.494c0-0.553,0.448-1,1-1s1,0.447,1,1c0,0.945-0.015,1.778-0.028,2.529c-0.069,3.863-0.095,5.309,2.176,8.79c2.204,3.292,3.593,7.125,4.013,11.075l0.028,0.235c0.034,0.271,0.066,0.546,0.066,0.814C18.228,31.286,17.78,31.733,17.228,31.733z"/><path d="M10.973,8.289c-2.285,0-4.145-1.859-4.145-4.145S8.688,0,10.973,0s4.145,1.859,4.145,4.145S13.258,8.289,10.973,8.289z M10.973,2C9.79,2,8.828,2.962,8.828,4.145s0.962,2.145,2.145,2.145s2.145-0.962,2.145-2.145S12.155,2,10.973,2z"/><path d="M28.906,31.987c-0.161,0-0.319-0.077-0.416-0.221l-9.724-14.472c-0.154-0.229-0.093-0.54,0.136-0.694c0.229-0.155,0.539-0.094,0.694,0.136l9.724,14.472c0.154,0.229,0.093,0.54-0.136,0.694C29.099,31.96,29.001,31.987,28.906,31.987z"/><path d="M6.913,15.812c-0.225,0-0.45-0.075-0.637-0.229C5.85,15.23,5.791,14.6,6.143,14.175l4.06-4.91c0.352-0.426,0.982-0.485,1.408-0.134c0.426,0.352,0.485,0.982,0.133,1.407l-4.06,4.91C7.486,15.688,7.2,15.812,6.913,15.812z"/><path d="M6.295,30.455c-0.376,0-0.736-0.213-0.906-0.576c-0.234-0.501-0.018-1.096,0.482-1.33c4.164-1.946,4.103-8.036,4.101-8.098c-0.01-0.552,0.43-1.008,0.982-1.018c0.542-0.023,1.008,0.429,1.018,0.982c0.005,0.303,0.072,7.454-5.254,9.945C6.581,30.425,6.437,30.455,6.295,30.455z"/><path d="M7.805,31.711c-0.225,0-0.452-0.075-0.639-0.23l-1.511-1.256c-0.425-0.354-0.483-0.984-0.13-1.408c0.353-0.425,0.983-0.483,1.408-0.131l1.511,1.256c0.425,0.354,0.483,0.984,0.13,1.408C8.377,31.588,8.092,31.711,7.805,31.711z"/><path d="M20.483,31.733h-3.256c-0.552,0-1-0.447-1-1s0.448-1,1-1h3.256c0.552,0,1,0.447,1,1S21.036,31.733,20.483,31.733z"/><path d="M7.38,18.938c-0.486,0-0.913-0.355-0.987-0.852L5.924,14.96c-0.082-0.547,0.294-1.056,0.841-1.138c0.541-0.076,1.055,0.294,1.137,0.841l0.468,3.126c0.082,0.547-0.294,1.056-0.841,1.138C7.479,18.934,7.429,18.938,7.38,18.938z"/><path d="M19.181,18.016c-0.232,0-0.465-0.08-0.654-0.244l-8.208-7.114C9.9,10.295,9.855,9.664,10.217,9.246c0.362-0.416,0.993-0.463,1.411-0.101l8.208,7.114c0.417,0.362,0.462,0.993,0.101,1.411C19.739,17.898,19.46,18.016,19.181,18.016z"/><path d="M6.555,20.011c-0.213,0-0.428-0.067-0.609-0.208c-0.438-0.337-0.52-0.964-0.183-1.402l0.826-1.073c0.337-0.438,0.965-0.521,1.402-0.182c0.438,0.337,0.52,0.964,0.183,1.402l-0.826,1.073C7.15,19.877,6.854,20.011,6.555,20.011z"/></svg>