<svg xmlns="http://www.w3.org/2000/svg" viewBox="0 0 32 32"><!--! Font Icona - https://fonticona.com | License - https://fonticona.com/license | Copyright 2022 FontIcona.com --><path d="M15.839,7.383c-2.035,0-3.691-1.656-3.691-3.691S13.804,0,15.839,0s3.691,1.656,3.691,3.691S17.874,7.383,15.839,7.383z M15.839,2c-0.933,0-1.691,0.759-1.691,1.691s0.759,1.691,1.691,1.691s1.691-0.759,1.691-1.691S16.771,2,15.839,2z"/><path d="M17.53,32H7.98c-0.553,0-1-0.448-1-1s0.447-1,1-1h9.55c0.619,0,0.872-0.468,0.936-0.611c0.062-0.144,0.235-0.647-0.185-1.103l-6.187-6.721c-0.671-0.728-0.942-1.74-0.726-2.708l1.688-7.51c0.312-1.389,1.524-2.358,2.948-2.358h4.765c0.481,0,0.892-0.329,0.997-0.8l1.276-5.714c0.12-0.539,0.657-0.875,1.193-0.758c0.539,0.121,0.879,0.655,0.758,1.194l-1.276,5.715c-0.312,1.392-1.524,2.363-2.948,2.363h-4.765c-0.481,0-0.892,0.328-0.997,0.797l-1.688,7.509c-0.073,0.327,0.019,0.67,0.245,0.916l6.188,6.721c0.825,0.896,1.033,2.146,0.544,3.261C19.808,31.308,18.748,32,17.53,32z"/></svg>