<svg xmlns="http://www.w3.org/2000/svg" viewBox="0 0 32 32"><!--! Font Icona - https://fonticona.com | License - https://fonticona.com/license | Copyright 2022 FontIcona.com --><path d="M17.404,32c-0.557,0-1.008-0.451-1.008-1.008c0-0.247,0-0.461-0.043-0.624c-0.014-0.051-0.024-0.102-0.029-0.155c-0.356-3.382-1.546-6.662-3.44-9.487C9.088,14.856,9.459,9.651,13.946,5.662c0.415-0.369,1.052-0.333,1.422,0.084s0.333,1.053-0.084,1.423c-3.745,3.33-3.981,7.402-0.718,12.449c2.054,3.062,3.355,6.632,3.754,10.314c0.091,0.386,0.091,0.743,0.091,1.06C18.411,31.549,17.961,32,17.404,32z"/><path d="M16.352,7.905c-2.18,0-3.953-1.773-3.953-3.952S14.172,0,16.352,0c2.179,0,3.952,1.773,3.952,3.953S18.53,7.905,16.352,7.905z M16.352,2.015c-1.069,0-1.938,0.869-1.938,1.937c0,1.068,0.869,1.937,1.938,1.937c1.068,0,1.937-0.869,1.937-1.937C18.288,2.884,17.419,2.015,16.352,2.015z"/><path d="M7.171,30.802c-0.38,0-0.743-0.215-0.914-0.581c-0.235-0.504-0.018-1.104,0.486-1.339c3.825-1.789,3.809-7.449,3.808-7.506c-0.006-0.556,0.44-1.012,0.995-1.019c0.005,0,0.009,0,0.013,0c0.55,0,1,0.441,1.008,0.992c0.004,0.285,0.041,7.015-4.97,9.358C7.458,30.772,7.314,30.802,7.171,30.802z"/><path d="M8.602,31.978c-0.225,0-0.453-0.076-0.641-0.231l-1.422-1.176c-0.429-0.354-0.49-0.989-0.135-1.419c0.352-0.429,0.987-0.49,1.418-0.135l1.422,1.176c0.429,0.354,0.49,0.989,0.135,1.419C9.181,31.853,8.892,31.978,8.602,31.978z"/><path d="M20.46,32h-3.057c-0.557,0-1.008-0.451-1.008-1.008c0-0.556,0.451-1.008,1.008-1.008h3.057c0.557,0,1.008,0.451,1.008,1.008C21.468,31.549,21.017,32,20.46,32z"/><path d="M15.535,15.597c-0.354,0-0.698-0.186-0.882-0.518l-2.832-5.094c-0.271-0.486-0.095-1.1,0.391-1.37c0.489-0.271,1.101-0.095,1.371,0.391l2.832,5.094c0.271,0.486,0.095,1.1-0.391,1.37C15.868,15.556,15.7,15.597,15.535,15.597z"/><path d="M15.635,15.597c-0.432,0-0.843-0.231-1.021-0.616c-0.238-0.513,0.025-1.104,0.589-1.321l7.43-2.855c0.563-0.217,1.215,0.023,1.453,0.535s-0.025,1.104-0.589,1.321l-7.43,2.855C15.926,15.571,15.779,15.597,15.635,15.597z"/><path d="M9.063,18.255c-0.476,0-0.912-0.127-1.307-0.382c-1.823-1.177-1.764-4.67-1.395-7.393c0.372-2.898,3.556-2.87,5.27-2.856l0.388,0.002c0.557,0,1.008,0.451,1.008,1.008s-0.451,1.008-1.008,1.008l-0.404-0.002c-2.05-0.007-3.131,0.148-3.254,1.105c-0.415,3.06-0.057,5.083,0.49,5.437c0.234,0.153,0.768-0.007,1.425-0.418c0.473-0.295,1.093-0.152,1.389,0.321c0.295,0.472,0.152,1.093-0.32,1.389C10.507,17.993,9.744,18.255,9.063,18.255z"/><path d="M25.309,31.992c-0.484,0-0.91-0.353-0.987-0.846L21.21,11.127c-0.085-0.546,0.289-1.057,0.835-1.142c0.549-0.082,1.057,0.289,1.142,0.834l3.111,20.019c0.085,0.546-0.289,1.057-0.835,1.142C25.411,31.988,25.359,31.992,25.309,31.992z"/></svg>