<svg xmlns="http://www.w3.org/2000/svg" viewBox="0 0 32 32"><!--! Font Icona - https://fonticona.com | License - https://fonticona.com/license | Copyright 2022 FontIcona.com --><path d="M30.01,31.98c-0.553,0-1-0.447-1-1V2.02H14.156c-0.553,0-1-0.447-1-1s0.447-1,1-1H30.01c0.553,0,1,0.447,1,1V30.98C31.01,31.533,30.562,31.98,30.01,31.98z"/><path d="M26.681,26.784c-0.511,0-1.021-0.044-1.528-0.133c-0.323-0.056-0.646-0.115-0.911-0.168c-0.571-0.116-1.229-0.104-1.957,0.034c-1.288,0.239-2.231,0.031-2.806-0.63c-1.058-1.214-0.376-3.237,0.345-5.38c0.155-0.459,0.308-0.913,0.434-1.339c0.691-2.341,0.721-4.146,0.094-5.683c-0.377-0.921-1.079-1.705-1.823-2.536c-0.711-0.795-1.446-1.616-1.961-2.63c-1.012-1.993-1.532-4.37-1.548-7.063c-0.003-0.526,0.422-0.956,0.948-0.959c0.002,0,0.004,0,0.006,0c0.524,0,0.951,0.424,0.954,0.949c0.014,2.394,0.465,4.483,1.341,6.21c0.401,0.791,1.023,1.485,1.682,2.221c0.819,0.915,1.666,1.86,2.167,3.087c0.789,1.933,0.779,4.204-0.029,6.944c-0.132,0.448-0.293,0.925-0.455,1.408c-0.342,1.016-1.054,3.129-0.715,3.518c0.031,0.035,0.3,0.145,1.012,0.008c0.97-0.183,1.874-0.194,2.689-0.03c0.249,0.051,0.555,0.106,0.861,0.16c0.828,0.144,1.67,0.139,2.503-0.018l1.837-0.345c0.517-0.094,1.016,0.243,1.113,0.762c0.098,0.518-0.244,1.017-0.762,1.113l-1.837,0.345C27.785,26.732,27.232,26.784,26.681,26.784z"/><path d="M8.584,31.98c-0.038,0-0.076-0.002-0.115-0.007c-0.549-0.062-0.942-0.559-0.879-1.107l0.723-6.289c0.03-0.267-0.045-0.528-0.212-0.737l-0.998-1.25c-0.483-0.604-0.712-1.362-0.645-2.135l0.645-7.299c0.027-0.29-0.063-0.562-0.256-0.772c-0.191-0.211-0.454-0.327-0.739-0.327H5.595c-0.521,0-0.949,0.391-0.996,0.909L2.986,31.069c-0.048,0.55-0.525,0.966-1.085,0.907c-0.55-0.049-0.956-0.535-0.907-1.085l1.612-18.105c0.142-1.557,1.427-2.729,2.988-2.729h0.513c0.843,0,1.651,0.357,2.219,0.98c0.566,0.623,0.847,1.462,0.769,2.301L8.45,20.63c-0.022,0.258,0.054,0.51,0.214,0.711l0.998,1.25c0.502,0.627,0.729,1.414,0.637,2.214l-0.723,6.29C9.518,31.604,9.085,31.98,8.584,31.98z"/><path d="M6.472,8.861c-1.685,0-3.056-1.371-3.056-3.056s1.371-3.055,3.056-3.055s3.055,1.37,3.055,3.055S8.156,8.861,6.472,8.861z M6.472,4.751c-0.582,0-1.056,0.473-1.056,1.055S5.89,6.861,6.472,6.861s1.055-0.474,1.055-1.056S7.054,4.751,6.472,4.751z"/><path d="M12.897,17.649c-0.827,0-1.638-0.342-2.213-0.966l-3.812-4.256c-0.368-0.411-0.333-1.044,0.078-1.412c0.409-0.368,1.044-0.334,1.412,0.078l3.802,4.245c0.251,0.272,0.658,0.383,1.02,0.268l2.493-0.77c0.526-0.163,1.089,0.132,1.25,0.66c0.163,0.527-0.132,1.087-0.66,1.25l-2.491,0.77C13.488,17.606,13.191,17.649,12.897,17.649z"/><path d="M14.156,12.057c-0.553,0-1-0.447-1-1V1.02c0-0.553,0.447-1,1-1s1,0.447,1,1v10.037C15.156,11.609,14.709,12.057,14.156,12.057z"/><path d="M14.156,31.98c-0.553,0-1-0.447-1-1V20.398c0-0.553,0.447-1,1-1s1,0.447,1,1V30.98C15.156,31.533,14.709,31.98,14.156,31.98z"/></svg>