<svg xmlns="http://www.w3.org/2000/svg" viewBox="0 0 32 32"><!--! Font Icona - https://fonticona.com | License - https://fonticona.com/license | Copyright 2022 FontIcona.com --><path d="M10.792,31.999c-1.873,0-3.698-0.69-5.106-1.953c-1.614-1.448-2.541-3.522-2.541-5.692V7.646c0-2.17,0.927-4.244,2.541-5.692c1.615-1.448,3.778-2.146,5.935-1.908c1.522,0.166,2.671,1.446,2.671,2.979v4.457c0,0.846-0.36,1.657-0.988,2.224c-0.628,0.567-1.463,0.843-2.312,0.758l-1.585-0.162l0.002,11.401l1.586-0.163c0.835-0.085,1.683,0.191,2.311,0.759c0.627,0.566,0.987,1.377,0.987,2.223v4.455c0,1.532-1.148,2.812-2.671,2.979C11.344,31.984,11.067,31.999,10.792,31.999z M10.792,2.001c-1.384,0-2.731,0.51-3.771,1.442C5.828,4.513,5.145,6.045,5.145,7.646v16.707c0,1.602,0.684,3.134,1.877,4.203c1.191,1.069,2.785,1.581,4.382,1.409c0.506-0.055,0.888-0.48,0.888-0.99v-4.455c0-0.285-0.116-0.548-0.328-0.739s-0.479-0.282-0.769-0.252L9.606,23.69c-0.559,0.056-1.122-0.128-1.541-0.506c-0.418-0.378-0.658-0.919-0.658-1.482V10.299c0-0.564,0.24-1.105,0.66-1.484c0.42-0.378,0.986-0.559,1.542-0.504l1.584,0.162c0.288,0.03,0.558-0.061,0.769-0.252c0.212-0.191,0.329-0.454,0.329-0.739V3.024c0-0.51-0.382-0.936-0.888-0.99C11.199,2.012,10.995,2.001,10.792,2.001z"/><path d="M25.433,25.265c-0.185,0-0.371-0.051-0.538-0.158c-0.465-0.298-0.601-0.916-0.303-1.381c3.003-4.69,3.009-10.756,0.016-15.453c-0.297-0.465-0.16-1.083,0.306-1.38c0.464-0.299,1.083-0.161,1.38,0.306c3.412,5.351,3.404,12.262-0.018,17.605C26.085,25.102,25.762,25.265,25.433,25.265z"/><path d="M21.271,23.377c-0.186,0-0.374-0.052-0.542-0.16c-0.464-0.3-0.597-0.919-0.297-1.383c2.291-3.543,2.293-8.124,0.007-11.67c-0.299-0.464-0.165-1.083,0.299-1.383c0.465-0.298,1.083-0.166,1.383,0.299c2.711,4.205,2.707,9.638-0.009,13.84C21.921,23.216,21.6,23.377,21.271,23.377z"/><path d="M17.228,21.468c-0.187,0-0.375-0.052-0.544-0.161c-0.463-0.301-0.595-0.92-0.294-1.384c1.551-2.388,1.539-5.465-0.029-7.841c-0.304-0.461-0.177-1.081,0.284-1.386c0.462-0.303,1.082-0.176,1.386,0.284c2.006,3.039,2.021,6.977,0.037,10.032C17.876,21.308,17.555,21.468,17.228,21.468z"/></svg>