<svg xmlns="http://www.w3.org/2000/svg" viewBox="0 0 32 32"><!--! Font Icona - https://fonticona.com | License - https://fonticona.com/license | Copyright 2022 FontIcona.com --><path d="M23.998,32c-2.452,0-4.82-0.975-6.563-2.718L2.718,14.564c-1.861-1.86-2.847-4.436-2.704-7.064S1.416,2.417,3.47,0.769c1.388-1.116,3.386-1.01,4.648,0.253l3.927,3.926c0.696,0.697,1.066,1.66,1.017,2.645c-0.051,0.983-0.518,1.903-1.28,2.525l-1.54,1.253c-0.068,0.056-0.086,0.127-0.088,0.177c-0.003,0.049,0.008,0.122,0.071,0.186L20.27,21.776c0.062,0.062,0.136,0.072,0.185,0.071c0.05-0.003,0.12-0.021,0.177-0.09l1.257-1.539c0.621-0.763,1.542-1.229,2.524-1.278c0.982-0.047,1.945,0.32,2.643,1.017l3.924,3.925c1.261,1.261,1.37,3.26,0.253,4.648c-1.648,2.053-4.102,3.312-6.73,3.456C24.333,31.995,24.165,32,23.998,32z M5.652,1.999c-0.328,0-0.656,0.108-0.931,0.328c-1.61,1.294-2.599,3.219-2.711,5.281s0.661,4.082,2.121,5.542l14.717,14.718c1.461,1.461,3.488,2.231,5.544,2.121c2.062-0.113,3.986-1.101,5.28-2.711c0.476-0.593,0.429-1.444-0.108-1.982l-3.924-3.925c-0.301-0.3-0.686-0.445-1.127-0.434c-0.426,0.022-0.808,0.216-1.077,0.545l-1.257,1.54c-0.4,0.491-0.993,0.791-1.625,0.822c-0.629,0.034-1.252-0.207-1.699-0.654L8.81,13.146c-0.448-0.448-0.686-1.068-0.654-1.7c0.032-0.632,0.332-1.225,0.822-1.625l1.541-1.254c0.329-0.269,0.523-0.651,0.545-1.077c0.022-0.426-0.132-0.826-0.433-1.128L6.704,2.436C6.415,2.146,6.034,1.999,5.652,1.999z"/></svg>