<svg xmlns="http://www.w3.org/2000/svg" viewBox="0 0 32 32"><!--! Font Icona - https://fonticona.com | License - https://fonticona.com/license | Copyright 2022 FontIcona.com --><path d="M6.75,20.522c-0.047,0-0.095-0.003-0.144-0.01C6.06,20.434,5.68,19.927,5.759,19.38l0.854-5.946c0.071-0.492,0.492-0.858,0.99-0.858h2.589c0.748,0,1.42,0.299,1.894,0.841c0.474,0.543,0.688,1.286,0.585,2.037c-0.199,1.463-1.501,2.609-2.964,2.609H7.968l-0.23,1.602C7.667,20.163,7.239,20.522,6.75,20.522z M8.255,16.063h1.451c0.459,0,0.919-0.411,0.983-0.879c0.024-0.181-0.015-0.342-0.111-0.452c-0.089-0.102-0.223-0.156-0.387-0.156H8.469L8.255,16.063z"/><path d="M20.389,20.522c-0.042,0-0.083-0.002-0.125-0.008c-0.548-0.068-0.937-0.568-0.869-1.116l0.741-5.946c0.062-0.501,0.488-0.876,0.992-0.876h2.589c0.745,0,1.419,0.297,1.898,0.835c0.479,0.539,0.704,1.276,0.616,2.024c-0.173,1.474-1.462,2.627-2.934,2.627h-1.721l-0.197,1.583C21.317,20.152,20.886,20.522,20.389,20.522z M21.827,16.063h1.472c0.451,0,0.894-0.402,0.948-0.86c0.021-0.183-0.022-0.347-0.124-0.461c-0.096-0.108-0.236-0.165-0.404-0.165h-1.706L21.827,16.063z"/><path d="M13.762,18.295c-0.044,0-0.089-0.003-0.135-0.009c-0.547-0.074-0.931-0.577-0.858-1.125l0.509-3.784c0-0.004,0.001-0.008,0.001-0.012l0.406-3.021c0.074-0.547,0.573-0.934,1.125-0.858c0.547,0.074,0.931,0.577,0.858,1.125l-0.254,1.888h1.447c0.747,0,1.421,0.298,1.897,0.839s0.695,1.281,0.6,2.031l-0.24,2.043c-0.064,0.549-0.564,0.942-1.11,0.876c-0.548-0.064-0.941-0.562-0.876-1.11l0.241-2.053c0.024-0.192-0.017-0.354-0.115-0.466c-0.093-0.105-0.23-0.161-0.397-0.161h-1.716l-0.394,2.93C14.685,17.931,14.255,18.295,13.762,18.295z"/><path d="M16,24.971c-8.972,0-16-3.94-16-8.971s7.028-8.971,16-8.971S32,10.97,32,16S24.972,24.971,16,24.971z M16,9.029C8.411,9.029,2,12.222,2,16s6.411,6.971,14,6.971S30,19.778,30,16S23.589,9.029,16,9.029z"/></svg>