<svg xmlns="http://www.w3.org/2000/svg" viewBox="0 0 32 32"><!--! Font Icona - https://fonticona.com | License - https://fonticona.com/license | Copyright 2022 FontIcona.com --><path d="M13.866,18.218H6.737c-0.552,0-1-0.448-1-1v-16c0-0.552,0.448-1,1-1h7.129c0.552,0,1,0.448,1,1v16C14.866,17.771,14.418,18.218,13.866,18.218z M7.737,16.218h5.129v-14H7.737V16.218z"/><path d="M10.172,31.782c-0.552,0-1-0.448-1-1V17.743c0-0.552,0.448-1,1-1s1,0.448,1,1v13.039C11.172,31.334,10.725,31.782,10.172,31.782z"/><path d="M25.213,18.218h-7.129c-0.552,0-1-0.448-1-1v-16c0-0.552,0.448-1,1-1h7.129c0.552,0,1,0.448,1,1v16C26.213,17.771,25.766,18.218,25.213,18.218z M19.084,16.218h5.129v-14h-5.129V16.218z"/><path d="M21.52,31.782c-0.552,0-1-0.448-1-1V17.743c0-0.552,0.448-1,1-1s1,0.448,1,1v13.039C22.52,31.334,22.072,31.782,21.52,31.782z"/><path d="M29,32H3c-1.654,0-3-1.346-3-3V3c0-1.654,1.346-3,3-3h26c1.654,0,3,1.346,3,3v26C32,30.654,30.654,32,29,32z M3,2C2.449,2,2,2.449,2,3v26c0,0.551,0.449,1,1,1h26c0.551,0,1-0.449,1-1V3c0-0.551-0.449-1-1-1H3z"/></svg>