<svg xmlns="http://www.w3.org/2000/svg" viewBox="0 0 32 32"><!--! Font Icona - https://fonticona.com | License - https://fonticona.com/license | Copyright 2022 FontIcona.com --><path d="M9.214,4.901H3.243c-0.552,0-1-0.447-1-1s0.448-1,1-1h5.971c0.552,0,1,0.447,1,1S9.766,4.901,9.214,4.901z"/><path d="M28.757,4.901h-5.822c-0.552,0-1-0.447-1-1s0.448-1,1-1h5.822c0.552,0,1,0.447,1,1S29.31,4.901,28.757,4.901z"/><path d="M17.154,20.422h-2.159c-1.654,0-3-1.346-3-3v-4.487h2v4.487c0,0.552,0.449,1,1,1h2.159c0.551,0,1-0.448,1-1v-4.487h2v4.487C20.154,19.076,18.808,20.422,17.154,20.422z"/><path d="M20.936,13.935h-9.722c-1.654,0-3-1.346-3-3V3c0-1.654,1.346-3,3-3h9.722c1.654,0,3,1.346,3,3v7.935C23.936,12.589,22.59,13.935,20.936,13.935z M11.214,2c-0.551,0-1,0.448-1,1v7.935c0,0.552,0.449,1,1,1h9.722c0.551,0,1-0.448,1-1V3c0-0.552-0.449-1-1-1H11.214z"/><path d="M19.777,6.188h-7.405c-0.552,0-1-0.447-1-1s0.448-1,1-1h7.405c0.552,0,1,0.447,1,1S20.329,6.188,19.777,6.188z"/><path d="M19.777,9.746h-7.405c-0.552,0-1-0.447-1-1s0.448-1,1-1h7.405c0.552,0,1,0.447,1,1S20.329,9.746,19.777,9.746z"/><path d="M16.075,32c-0.552,0-1-0.447-1-1V19.422c0-0.553,0.448-1,1-1s1,0.447,1,1V31C17.075,31.553,16.627,32,16.075,32z"/><path d="M17.3,32h-2.451c-0.481,0-0.895-0.343-0.983-0.816l-0.641-3.422c-0.055-0.292,0.023-0.594,0.213-0.822s0.472-0.361,0.77-0.361h3.732c0.297,0,0.58,0.133,0.77,0.361s0.268,0.53,0.213,0.822l-0.641,3.422C18.194,31.657,17.781,32,17.3,32z M15.679,30h0.791l0.266-1.422h-1.323L15.679,30z"/></svg>