<svg xmlns="http://www.w3.org/2000/svg" viewBox="0 0 32 32"><!--! Font Icona - https://fonticona.com | License - https://fonticona.com/license | Copyright 2022 FontIcona.com --><path d="M21.999,32c-5.515,0-10.001-4.486-10.001-10.001s4.486-10.001,10.001-10.001S32,16.484,32,21.999S27.514,32,21.999,32z M21.999,13.998c-4.412,0-8.001,3.589-8.001,8.001S17.587,30,21.999,30S30,26.411,30,21.999S26.411,13.998,21.999,13.998z"/><rect x="20.93" y="13.026" transform="matrix(0.7071 -0.7071 0.7071 0.7071 -9.0838 21.9302)" width="2" height="17.809"/><rect x="8.43" y="5.404" transform="matrix(0.7071 -0.7071 0.7071 0.7071 -3.906 9.4299)" width="2" height="8.052"/><path d="M5.168,18.857c-1.2,0-2.4-0.457-3.314-1.37l-0.482-0.483C0.488,16.12,0,14.943,0,13.691s0.488-2.428,1.373-3.313l9.005-9.004C11.263,0.488,12.44,0,13.692,0s2.428,0.488,3.313,1.373l0.481,0.481c0.885,0.885,1.372,2.062,1.372,3.314s-0.487,2.428-1.373,3.313l-9.003,9.006C7.568,18.4,6.368,18.857,5.168,18.857z M3.269,16.073c1.048,1.047,2.751,1.048,3.799,0l9.004-9.006c0.507-0.507,0.787-1.182,0.787-1.899c0-0.718-0.28-1.392-0.787-1.9l-0.481-0.481c-1.016-1.015-2.784-1.014-3.799,0l-9.005,9.005C2.28,12.299,2,12.974,2,13.691c0,0.718,0.28,1.392,0.787,1.9L3.269,16.073z"/></svg>