<svg xmlns="http://www.w3.org/2000/svg" viewBox="0 0 32 32"><!--! Font Icona - https://fonticona.com | License - https://fonticona.com/license | Copyright 2022 FontIcona.com --><path d="M16,11.533c-3.18,0-5.767-2.587-5.767-5.767S12.82,0,16,0s5.767,2.587,5.767,5.767S19.18,11.533,16,11.533z M16,2c-2.077,0-3.767,1.689-3.767,3.767S13.923,9.533,16,9.533s3.767-1.689,3.767-3.767S18.077,2,16,2z"/><rect x="15" y="10.556" width="2" height="17.622"/><circle cx="16" cy="5.767" r="1.25"/><path d="M16,32.144L3.109,32.112c-1.139-0.005-2.15-0.601-2.707-1.593c-0.557-0.992-0.538-2.166,0.051-3.139l2.976-4.981c0.559-0.937,1.585-1.52,2.678-1.52h19.778c1.09,0,2.114,0.581,2.675,1.516l2.989,4.988c0.587,0.971,0.605,2.145,0.048,3.137c-0.557,0.992-1.568,1.587-2.705,1.592L16,32.144z M6.106,22.879c-0.393,0-0.76,0.208-0.961,0.544L2.167,28.41c-0.307,0.508-0.116,0.959-0.021,1.13s0.383,0.569,0.972,0.572l18.437,0.032l7.328-0.032c0.588-0.002,0.874-0.4,0.971-0.571c0.096-0.171,0.286-0.623-0.019-1.126l-2.99-4.991c-0.201-0.335-0.569-0.544-0.96-0.544H6.106z"/></svg>