<svg xmlns="http://www.w3.org/2000/svg" viewBox="0 0 32 32"><!--! Font Icona - https://fonticona.com | License - https://fonticona.com/license | Copyright 2022 FontIcona.com --><path d="M21.336,10.426c0.62,0,1.136-0.516,1.136-1.239c0,0,0,0,0-0.103c0-0.62-0.516-1.239-1.136-1.239l0,0c-0.62,0-1.136,0.62-1.136,1.239C20.2,9.807,20.716,10.426,21.336,10.426L21.336,10.426z"/><path d="M25.362,28.979c-0.552,0-1-0.448-1-1V15.898c0-0.552,0.448-1,1-1h1.858c1.243,0,2.33-0.877,2.644-2.134c0.396-1.349-0.143-2.749-1.3-3.443c-0.421-0.279-0.802-0.374-1.447-0.374h-1.755c-0.552,0-1-0.448-1-1V3.157c-0.726,0.225-1.412,0.625-2.048,1.197c-0.293,0.265-0.715,0.331-1.076,0.17s-0.593-0.519-0.593-0.914V3.14c-2.131,0.603-3.679,2.544-3.679,4.809v3.923c0,0.552-0.448,1-1,1h-5.575c-0.552,0-1-0.448-1-1s0.448-1,1-1h4.575V7.948c0-3.678,2.906-6.748,6.615-6.987c0.277-0.016,0.547,0.08,0.749,0.269c0.142,0.133,0.241,0.304,0.287,0.489c0.839-0.437,1.734-0.69,2.675-0.757c0.282-0.017,0.549,0.077,0.753,0.266c0.203,0.189,0.318,0.455,0.318,0.732v4.989h0.755c0.737,0,1.612,0.081,2.517,0.684c1.897,1.137,2.802,3.474,2.16,5.657c-0.526,2.108-2.412,3.609-4.574,3.609h-0.858v11.081C26.362,28.531,25.915,28.979,25.362,28.979z"/><path d="M19.374,30.94h-0.62c-1.69,0-3.065-1.375-3.065-3.065v-2.891l-2.924-0.032l-0.032,2.923c0,1.69-1.375,3.065-3.065,3.065H8.945c-0.764,0-1.463-0.281-2.001-0.745c-0.508,0.463-1.183,0.745-1.922,0.745c-1.69,0-3.065-1.375-3.065-3.065v-6.95H1.098c-0.511,0-0.94-0.385-0.994-0.894c-0.297-2.77-0.17-5.893,3.013-8.058c1.084-0.723,2.312-1.102,3.557-1.102h2.717V4.954c0-0.552,0.448-1,1-1s1,0.448,1,1v6.918c0,0.552-0.448,1-1,1H6.674c-0.849,0-1.692,0.263-2.439,0.761c-1.918,1.304-2.34,3.071-2.216,5.292h0.939c0.552,0,1,0.448,1,1v7.95c0,0.587,0.478,1.065,1.065,1.065c0.481,0,0.858-0.377,0.858-0.858v-7.434c0-0.552,0.448-1,1-1s1,0.448,1,1v7.228c0,0.587,0.478,1.065,1.065,1.065h0.723c0.587,0,1.065-0.478,1.065-1.065v-2.891c0-1.178,0.854-2.032,2.032-2.032h2.891c1.178,0,2.033,0.854,2.033,2.032v2.891c0,0.587,0.478,1.065,1.065,1.065h0.62c0.587,0,1.065-0.478,1.065-1.065v-7.228c0-0.552,0.448-1,1-1s1,0.448,1,1v7.228c0,0,0,0.001,0,0.001C22.438,29.566,21.063,30.94,19.374,30.94z"/><path d="M23.504,30.94c-1.69,0-3.065-1.375-3.065-3.065c0-0.552,0.448-1,1-1s1,0.448,1,1c0,0.587,0.478,1.065,1.065,1.065c0.473,0,0.858-0.385,0.858-0.858v-0.103c0-0.552,0.448-1,1-1s1,0.448,1,1v0.103C26.362,29.658,25.08,30.94,23.504,30.94z"/></svg>