<svg xmlns="http://www.w3.org/2000/svg" viewBox="0 0 32 32"><!--! Font Icona - https://fonticona.com | License - https://fonticona.com/license | Copyright 2022 FontIcona.com --><path d="M8.896,32l-0.321-3.208c-0.013-0.142-0.029-0.266-0.046-0.389c-0.032-0.243-0.06-0.479-0.065-0.711l-0.034-0.276c-0.077-0.626-0.149-1.218-0.149-1.838c-0.019-1.794,0.224-3.591,0.722-5.329c0.083-0.347,0.177-0.734,0.261-1.12c0.045-0.19,0.088-0.372,0.131-0.55c-0.482,0.094-0.989,0.022-1.431-0.215c-1.523-0.659-2.693-1.937-3.215-3.514c-1.487-3.788-0.56-8.135,2.379-11.025c2.393-2.484,5.779-3.852,9.246-3.825c2.812-0.027,5.574,0.888,7.794,2.642c2.394,1.853,3.801,4.766,3.762,7.792c0.156,3.308-0.984,6.554-3.214,9.081c-2.016,2.347-5.155,3.393-8.193,2.712c-0.474-0.076-0.944-0.223-1.391-0.436c-0.723,2.809-1.715,5.503-3.991,7.868L8.896,32z M14.464,8.006c-0.729,0-1.399,0.393-1.745,1.039c-0.789,1.335-0.921,2.888-0.386,4.299l0.041,0.135c0.083,0.37,0.083,0.76,0,1.129c-0.123,0.562-0.257,1.126-0.39,1.691l-0.218,0.929c-0.108,0.465-0.209,0.875-0.309,1.275c-0.087,0.353-0.172,0.697-0.258,1.062c-0.083,0.388-0.181,0.791-0.279,1.194c-0.455,1.593-0.672,3.198-0.655,4.811c0,0.509,0.065,1.042,0.135,1.607l0.034,0.283c1.754-2.199,2.451-4.709,3.1-7.491l0.38-1.629l1.247,1.114c0.489,0.437,1.09,0.723,1.737,0.827c2.377,0.53,4.776-0.267,6.321-2.067c1.895-2.148,2.861-4.895,2.727-7.744c0.03-2.468-1.09-4.785-2.996-6.259l-0.009-0.006c-1.861-1.473-4.175-2.268-6.567-2.218c-0.062-0.001-0.124-0.002-0.187-0.002c-2.894,0-5.661,1.174-7.649,3.239c-2.391,2.351-3.139,5.858-1.925,8.955c0.366,1.102,1.151,1.952,2.172,2.382l0.111,0.055c0.027,0.016,0.057,0.022,0.09,0.022c0.142-0.178,0.23-0.396,0.247-0.626l0.026-0.163c0.076-0.304,0.048-0.623-0.077-0.908c-1.25-1.618-1.571-3.792-0.836-5.705c0.947-3.403,4.137-5.737,7.782-5.595c0.419,0.001,0.878,0.033,1.329,0.093c3.459,0.485,4.727,2.431,5.182,3.977c1.04,3.255,0.379,6.81-1.778,9.489c-0.605,0.686-1.344,1.175-2.166,1.45c-1.054,0.447-2.377,0.176-3.224-0.699c-0.792-0.773-1.055-1.96-0.657-3.019l0.265-0.947c0.322-1.1,0.654-2.267,0.929-3.428c0.195-0.679,0.104-1.363-0.236-1.924c-0.205-0.31-0.571-0.54-0.978-0.599C14.684,8.014,14.574,8.006,14.464,8.006z M14.456,6.02c0.213,0,0.428,0.017,0.642,0.052c0.949,0.138,1.813,0.684,2.352,1.498c0.647,1.067,0.814,2.327,0.479,3.49c-0.273,1.158-0.614,2.355-0.94,3.47l-0.309,1.082c-0.13,0.325-0.052,0.693,0.199,0.937c0.306,0.316,0.735,0.405,1.119,0.244c0.563-0.191,1.005-0.484,1.35-0.873c1.708-2.124,2.242-4.988,1.398-7.627c-0.436-1.478-1.597-2.32-3.555-2.594c-0.361-0.048-0.734-0.074-1.104-0.076c-0.991-0.045-1.951,0.166-2.794,0.573C13.664,6.08,14.057,6.02,14.456,6.02z M10.431,9.257c-0.078,0.194-0.145,0.394-0.202,0.6c-0.308,0.809-0.357,1.649-0.169,2.423C9.956,11.259,10.082,10.228,10.431,9.257z"/></svg>