<svg xmlns="http://www.w3.org/2000/svg" viewBox="0 0 32 32"><!--! Font Icona - https://fonticona.com | License - https://fonticona.com/license | Copyright 2022 FontIcona.com --><path d="M7.279,32H3.025c-0.553,0-1-0.447-1-1V20.611c0-4.491,3.14-8.145,6.998-8.145h13.953c0.396,0,0.744-0.503,0.744-1.078V1c0-0.552,0.447-1,1-1h4.254c0.553,0,1,0.448,1,1v10.389c0,4.491-3.14,8.146-6.998,8.146H9.023c-0.396,0-0.744,0.503-0.744,1.077V31C8.279,31.553,7.832,32,7.279,32z M4.025,30h2.254v-9.389c0-1.696,1.231-3.077,2.744-3.077h13.953c2.756,0,4.998-2.757,4.998-6.146V2h-2.254v9.389c0,1.697-1.231,3.078-2.744,3.078H9.023c-2.756,0-4.998,2.756-4.998,6.145V30z"/><path d="M8.152,24.972h-6c-0.553,0-1-0.447-1-1s0.447-1,1-1h6c0.553,0,1,0.447,1,1S8.705,24.972,8.152,24.972z"/><path d="M11.618,20c-0.553,0-1-0.447-1-1v-6c0-0.552,0.447-1,1-1s1,0.448,1,1v6C12.618,19.553,12.171,20,11.618,20z"/><path d="M20.365,20c-0.553,0-1-0.447-1-1v-6c0-0.552,0.447-1,1-1s1,0.448,1,1v6C21.365,19.553,20.918,20,20.365,20z"/><path d="M29.848,9.662h-6c-0.553,0-1-0.448-1-1s0.447-1,1-1h6c0.553,0,1,0.448,1,1S30.4,9.662,29.848,9.662z"/></svg>