<svg xmlns="http://www.w3.org/2000/svg" viewBox="0 0 32 32"><!--! Font Icona - https://fonticona.com | License - https://fonticona.com/license | Copyright 2022 FontIcona.com --><path d="M27.096,19.249c-0.767,0-1.542-0.162-2.26-0.505C18.474,15.725,12.42,12.126,6.843,8.05C5.827,7.306,5.166,6.223,4.981,4.999C4.805,3.825,5.088,2.667,5.78,1.737c1.437-1.926,4.157-2.306,6.193-0.863c5.348,3.805,11.154,7.14,17.26,9.916c1.226,0.557,2.158,1.564,2.556,2.764c0.364,1.097,0.256,2.259-0.303,3.273l0,0C30.643,18.359,28.894,19.249,27.096,19.249z M9.273,2.004c-0.732,0-1.434,0.318-1.889,0.929C7.014,3.43,6.862,4.059,6.959,4.701c0.104,0.692,0.482,1.308,1.064,1.734c5.476,4.002,11.421,7.535,17.672,10.503c1.456,0.694,3.341,0.19,4.038-1.076l0-0.001c0.368-0.667,0.288-1.28,0.156-1.678c-0.223-0.673-0.764-1.246-1.485-1.573c-6.222-2.828-12.14-6.229-17.589-10.105C10.339,2.168,9.798,2.004,9.273,2.004z"/><path d="M1,32c-0.245,0-0.487-0.091-0.674-0.262c-0.276-0.252-0.388-0.636-0.292-0.997C2.175,22.74,4.066,14.572,5.656,6.463l1.963,0.385c-1.474,7.52-3.206,15.09-5.155,22.532c8.196-3.161,15.994-7.169,23.203-11.928l1.102,1.67c-7.866,5.191-16.419,9.504-25.423,12.816C1.233,31.979,1.116,32,1,32z"/><path d="M17.999,18.604c-0.897,0-1.801-0.223-2.609-0.69c-1.154-0.667-1.942-1.724-2.218-2.974c-0.272-1.234,0-2.553,0.747-3.616l1.637,1.148c-0.432,0.615-0.585,1.339-0.431,2.037c0.153,0.695,0.604,1.29,1.267,1.673c1.444,0.839,3.464,0.381,4.319-0.98l1.693,1.064C21.463,17.766,19.743,18.604,17.999,18.604z"/><path d="M10.646,26.803c-0.431-1.527-0.083-3.158,0.953-4.473c1.915-2.408,5.479-3.121,8.295-1.655c0.313,0.164,0.608,0.351,0.879,0.557l-1.211,1.592c-0.182-0.139-0.381-0.265-0.594-0.376c-1.944-1.011-4.495-0.518-5.801,1.124c-0.642,0.815-0.854,1.771-0.596,2.688L10.646,26.803z"/><path d="M6.125,14.619c-0.399,0-0.804-0.062-1.2-0.19l0.616-1.902c0.719,0.231,1.525,0.005,1.959-0.556c0.249-0.321,0.354-0.717,0.296-1.111c-0.062-0.427-0.3-0.807-0.669-1.07C6.852,9.592,6.528,9.478,6.188,9.458l0.114-1.996c0.719,0.041,1.406,0.283,1.989,0.701c0.802,0.573,1.343,1.451,1.483,2.406c0.138,0.938-0.109,1.87-0.694,2.626C8.373,14.109,7.271,14.619,6.125,14.619z"/><path d="M9.151,22.051c-0.698,0-1.403-0.192-2.014-0.594c-0.784-0.515-1.29-1.283-1.422-2.165c-0.129-0.861,0.113-1.715,0.684-2.403c1.122-1.354,3.188-1.66,4.703-0.695c0.783,0.498,1.318,1.283,1.469,2.153c0.146,0.844-0.07,1.689-0.609,2.381C11.291,21.591,10.229,22.051,9.151,22.051z M9.146,17.63c-0.462,0-0.917,0.186-1.207,0.535c-0.202,0.244-0.29,0.539-0.246,0.829c0.047,0.312,0.239,0.593,0.542,0.791c0.678,0.445,1.683,0.313,2.148-0.286h0c0.241-0.31,0.25-0.612,0.216-0.812c-0.056-0.321-0.258-0.607-0.571-0.807C9.763,17.711,9.453,17.63,9.146,17.63z"/><path d="M2.95,28.216c-0.385,0-0.774-0.052-1.154-0.16l0.549-1.924c0.748,0.215,1.582,0.016,2.025-0.483c0.23-0.26,0.331-0.562,0.29-0.876c-0.046-0.364-0.282-0.713-0.646-0.957c-0.289-0.194-0.636-0.312-1.002-0.339l0.149-1.994c0.712,0.054,1.393,0.286,1.968,0.673c0.842,0.565,1.395,1.427,1.515,2.363c0.114,0.89-0.162,1.763-0.778,2.457C5.158,27.772,4.071,28.216,2.95,28.216z"/></svg>