<svg xmlns="http://www.w3.org/2000/svg" viewBox="0 0 32 32"><!--! Font Icona - https://fonticona.com | License - https://fonticona.com/license | Copyright 2022 FontIcona.com --><path d="M15.779,21.439c-0.513,0-0.949-0.392-0.995-0.912c-0.032-0.365-0.772-8.986,0.753-13.207C15.725,6.8,16.3,6.53,16.817,6.72c0.52,0.188,0.788,0.761,0.601,1.28c-1.375,3.806-0.649,12.267-0.642,12.352c0.049,0.55-0.358,1.035-0.908,1.084C15.838,21.438,15.809,21.439,15.779,21.439z"/><path d="M18.895,14.347c-0.896,0-1.805-0.267-2.457-0.456c-0.247-0.072-0.479-0.141-0.686-0.189c-0.534-0.126-0.867-0.659-0.746-1.194c0.096-0.423,0.446-0.723,0.854-0.772c0.038-0.028,0.073-0.06,0.102-0.083c0.111-0.09,0.234-0.353,0.315-0.527c0.157-0.337,0.354-0.755,0.698-1.097c0.799-0.791,1.98-1.188,3.25-1.089c0.627,0.049,2.183,0.253,3.085,1.091c0.305,0.284,0.436,0.666,0.358,1.05c-0.129,0.648-0.692,0.856-1.144,1.024c-0.343,0.126-0.861,0.318-0.981,0.592C20.976,13.979,19.945,14.347,18.895,14.347z M17.967,12.228c1.103,0.249,1.535,0.141,1.747-0.341c0.171-0.386,0.425-0.684,0.706-0.916c-0.115-0.017-0.232-0.029-0.35-0.038c-0.697-0.051-1.303,0.134-1.688,0.516c-0.092,0.091-0.199,0.32-0.293,0.522C18.051,12.053,18.011,12.139,17.967,12.228z"/><path d="M18.833,19.371c-1.245,0-2.376-1.005-3.017-1.575c-0.164-0.146-0.317-0.282-0.458-0.395c-0.431-0.343-0.503-0.969-0.163-1.4c0.258-0.329,0.677-0.454,1.062-0.343c0.027-0.007,0.053-0.015,0.075-0.02c0.108-0.033,0.285-0.178,0.401-0.273c0.258-0.21,0.579-0.473,0.997-0.619c0.96-0.333,2.073-0.205,3.058,0.356c0.484,0.275,1.655,1.029,2.057,2.062c0.147,0.376,0.1,0.769-0.131,1.077c-0.387,0.516-0.969,0.466-1.392,0.43c-0.276-0.024-0.74-0.062-0.902,0.073C19.89,19.197,19.352,19.371,18.833,19.371z M17.94,16.963c0.599,0.443,0.908,0.493,1.184,0.259c0.209-0.178,0.433-0.303,0.66-0.39c-0.479-0.27-0.984-0.34-1.392-0.198c-0.087,0.03-0.256,0.169-0.393,0.28C17.98,16.93,17.961,16.946,17.94,16.963z"/><path d="M16.524,8.663c-0.129,0-0.26-0.021-0.391-0.063c-0.01-0.003-0.021-0.007-0.03-0.01c-0.565-0.203-0.804-0.737-0.946-1.057l-0.044-0.097c-0.115-0.211-0.211-0.451-0.301-0.685l-0.068-0.175c-0.466-1.156-0.87-2.692,0.15-4.308c0.333-0.526,1.233-1.797,2.404-2.2c0.392-0.136,0.789-0.072,1.091,0.17c0.512,0.409,0.443,1.023,0.395,1.472c-0.042,0.375-0.099,0.889,0.093,1.131c0.745,0.943,1.156,2.601-1.111,5.145C17.365,8.437,16.949,8.663,16.524,8.663z M16.815,3.002c-0.08,0.108-0.157,0.221-0.229,0.336C16.15,4.026,16.154,4.726,16.6,5.831l0.079,0.202c0.011,0.029,0.022,0.059,0.034,0.089c0.486-0.644,0.996-1.532,0.595-2.04C17.039,3.741,16.891,3.367,16.815,3.002z"/><path d="M12.337,17.6c-0.811,0-1.644-0.257-2.39-0.748c-0.524-0.346-1.785-1.276-2.155-2.447c-0.124-0.395-0.051-0.79,0.202-1.085c0.427-0.5,1.021-0.41,1.494-0.34c0.365,0.055,0.915,0.135,1.165-0.049c2.093-1.566,4.009,0.377,5.04,1.42c0.179,0.182,0.347,0.353,0.502,0.494c0.406,0.369,0.438,0.997,0.072,1.406c-0.289,0.323-0.741,0.414-1.117,0.262c-0.048,0.006-0.094,0.017-0.131,0.023c-0.149,0.025-0.392,0.199-0.552,0.313c-0.303,0.217-0.68,0.486-1.146,0.617C13.003,17.556,12.672,17.6,12.337,17.6z M14.861,16.334L14.861,16.334L14.861,16.334z M10.775,14.99c0.089,0.066,0.18,0.13,0.272,0.191c0.57,0.376,1.202,0.51,1.735,0.359c0.127-0.036,0.336-0.186,0.521-0.318c0.074-0.054,0.153-0.109,0.236-0.166c-0.829-0.738-1.262-0.843-1.69-0.524C11.509,14.787,11.139,14.924,10.775,14.99z"/><path d="M15.656,12.41c-0.321,0-0.623-0.156-0.81-0.414c-0.043-0.02-0.086-0.034-0.119-0.048c-0.14-0.057-0.439-0.04-0.638-0.029c-0.396,0.022-0.839,0.048-1.303-0.09c-1.087-0.323-2.002-1.169-2.509-2.321c-0.252-0.573-0.802-2.032-0.467-3.216c0.111-0.396,0.388-0.685,0.757-0.795c0.623-0.185,1.074,0.202,1.436,0.514c0.291,0.254,0.719,0.602,1.005,0.575c2.643-0.178,3.172,2.46,3.465,3.89c0.051,0.247,0.098,0.479,0.151,0.681c0.139,0.532-0.177,1.076-0.707,1.22C15.831,12.399,15.743,12.41,15.656,12.41z M11.979,8.382c0.039,0.106,0.083,0.214,0.129,0.32c0.271,0.613,0.726,1.054,1.249,1.209c0.129,0.038,0.388,0.022,0.62,0.012c0.099-0.006,0.203-0.012,0.312-0.015c-0.29-1.051-0.598-1.357-1.126-1.328C12.726,8.615,12.328,8.525,11.979,8.382z"/><path d="M20.229,32h-8.457c-0.896,0-1.725-0.659-1.925-1.534l-2.16-9.499c-0.123-0.538,0.214-1.074,0.753-1.196c0.535-0.128,1.074,0.215,1.196,0.753l2.16,9.497L20.229,30l2.136-9.477c0.122-0.538,0.659-0.88,1.196-0.753c0.539,0.122,0.876,0.658,0.753,1.196l-2.159,9.497C21.953,31.341,21.125,32,20.229,32z"/><path d="M24.699,21.745H7.301c-0.553,0-1-0.447-1-1s0.447-1,1-1h17.398c0.553,0,1,0.447,1,1S25.252,21.745,24.699,21.745z"/></svg>