<svg xmlns="http://www.w3.org/2000/svg" viewBox="0 0 32 32"><!--! Font Icona - https://fonticona.com | License - https://fonticona.com/license | Copyright 2022 FontIcona.com --><path d="M21.127,32c-0.173,0-0.347-0.03-0.513-0.09l-4.472-1.27c-0.038-0.011-0.076-0.024-0.113-0.04c-0.039,0.017-0.078,0.03-0.118,0.042l-4.404,1.263c-0.449,0.165-0.947,0.106-1.347-0.158c-0.423-0.279-0.675-0.748-0.675-1.254V27.74c0-0.619,0.279-1.193,0.767-1.574l2.545-1.625l-0.042-7.278l-7.792,1.847c-0.932,0.168-1.826-0.066-2.51-0.638c-0.686-0.572-1.078-1.411-1.078-2.303c0-1.17,0.669-2.232,1.704-2.728l10.236-4.902c0.495-0.241,1.095-0.028,1.334,0.47c0.238,0.499,0.027,1.096-0.471,1.334L3.942,15.245c-0.345,0.165-0.567,0.52-0.567,0.902c0,0.429,0.226,0.677,0.359,0.789c0.135,0.112,0.415,0.29,0.819,0.216l8.963-2.126c0.297-0.069,0.61-0.001,0.851,0.188c0.24,0.19,0.38,0.479,0.38,0.785v8.575c0,0.64-0.31,1.245-0.827,1.62l-2.515,1.603l0.061,2.039l3.845-1.103c0.455-0.174,0.968-0.176,1.427-0.003l3.893,1.105v-2.084l-2.404-1.538c-0.562-0.408-0.87-1.009-0.872-1.643l-0.041-8.565c-0.003-0.552,0.443-1.002,0.995-1.005c0.002,0,0.003,0,0.005,0c0.55,0,0.997,0.444,1,0.995l0.041,8.567l2.404,1.538c0.564,0.408,0.872,1.012,0.872,1.65v2.744c0,0.506-0.252,0.975-0.673,1.254C21.707,31.915,21.418,32,21.127,32z M11.484,30.463l0.001,0.028C11.485,30.482,11.485,30.473,11.484,30.463z"/><path d="M13.747,10.44c-0.553,0-1-0.448-1-1V3.169C12.747,1.421,14.169,0,15.916,0h0.228c1.747,0,3.169,1.421,3.169,3.169v6.264c0,0.552-0.447,1-1,1s-1-0.448-1-1V3.169C17.312,2.524,16.788,2,16.144,2h-0.228c-0.645,0-1.169,0.524-1.169,1.169V9.44C14.747,9.993,14.3,10.44,13.747,10.44z"/><path d="M27.629,19.162c-0.18,0-0.361-0.016-0.541-0.049l-9.007-2.14c-0.537-0.127-0.869-0.667-0.741-1.204c0.129-0.538,0.669-0.865,1.204-0.741l8.954,2.128c0.242,0.043,0.544-0.038,0.773-0.232c0.229-0.194,0.357-0.477,0.354-0.777c-0.005-0.392-0.222-0.732-0.565-0.898l-10.182-4.917c-0.498-0.24-0.706-0.838-0.466-1.335c0.241-0.497,0.839-0.706,1.335-0.465l10.182,4.917c1.03,0.497,1.68,1.516,1.696,2.659c0.013,0.912-0.374,1.762-1.062,2.343C29.016,18.915,28.332,19.162,27.629,19.162z"/></svg>