<svg xmlns="http://www.w3.org/2000/svg" viewBox="0 0 32 32"><!--! Font Icona - https://fonticona.com | License - https://fonticona.com/license | Copyright 2022 FontIcona.com --><path d="M23.126,22.548c-0.099,0-0.197-0.008-0.296-0.023c-0.522-0.08-0.979-0.361-1.284-0.794l-3.613-5.085l-2.553,2.256c-0.13,0.112-3.017,2.55-8.184,2.582c-0.238,0.032-0.453-0.077-0.632-0.22l-4.212-3.38c-0.418-0.235-0.695-0.616-0.769-1.064c-0.08-0.492,0.101-0.987,0.494-1.357l0.267-0.251c0.525-0.493,1.422-0.784,2.139-0.696l5.109,0.641l3.073-2.719L7.429,9.947c-0.489-0.233-0.812-0.65-0.884-1.145C6.473,8.309,6.661,7.816,7.062,7.453l0.646-0.585c0.522-0.474,1.409-0.767,2.115-0.69l8.864,0.937l4.053-3.583c0.027-0.025,0.057-0.048,0.088-0.069c2.429-1.705,4.661-1.457,4.755-1.446c1.489,0.121,2.422,0.648,2.734,1.563c0.514,1.504-1.109,3.085-1.44,3.387l-5.354,4.735l2.092,7.527c0.25,0.903-0.123,2.01-0.868,2.577l-0.453,0.345C23.951,22.411,23.545,22.548,23.126,22.548z M18.104,14.16c0.038,0,0.076,0.002,0.114,0.006c0.282,0.033,0.537,0.183,0.701,0.415l4.258,5.993l0.358-0.359c0.096-0.073,0.184-0.334,0.151-0.451l-2.259-8.129c-0.103-0.369,0.015-0.763,0.302-1.017l5.812-5.139c0.436-0.401,0.866-1.023,0.877-1.266c-0.025,0.011-0.271-0.145-1.038-0.208c-0.091-0.01-1.605-0.148-3.358,1.062l-4.339,3.836c-0.211,0.186-0.49,0.271-0.768,0.246L9.614,8.167C9.483,8.152,9.153,8.257,9.05,8.351l-0.11,0.1l5.952,2.832c0.303,0.144,0.514,0.431,0.561,0.763s-0.076,0.666-0.328,0.889l-4.545,4.02c-0.215,0.19-0.501,0.28-0.786,0.243L4.234,16.5c-0.072-0.007-0.211,0.021-0.328,0.066l3.628,2.912c4.172-0.129,6.511-2.065,6.534-2.085l3.373-2.982C17.625,14.248,17.86,14.16,18.104,14.16z M3.448,16.92L3.448,16.92C3.448,16.92,3.448,16.92,3.448,16.92z"/><path d="M14.462,13.186c-0.276,0-0.552-0.114-0.749-0.337c-0.366-0.414-0.327-1.046,0.087-1.412l4.559-4.031c0.413-0.366,1.046-0.327,1.411,0.086c0.366,0.414,0.327,1.046-0.087,1.412l-4.559,4.031C14.935,13.103,14.697,13.186,14.462,13.186z"/><path d="M31,30.005H1c-0.553,0-1-0.448-1-1s0.447-1,1-1h30c0.553,0,1,0.448,1,1S31.553,30.005,31,30.005z"/></svg>