<svg xmlns="http://www.w3.org/2000/svg" viewBox="0 0 32 32"><!--! Font Icona - https://fonticona.com | License - https://fonticona.com/license | Copyright 2022 FontIcona.com --><path d="M6.271,31.998c-0.506,0-1.012-0.123-1.475-0.372c-1.012-0.544-1.64-1.595-1.64-2.743V3.118c0-1.148,0.629-2.2,1.641-2.743S7.034-0.112,7.99,0.522l19.458,12.889c0.874,0.578,1.395,1.549,1.395,2.596s-0.521,2.018-1.396,2.597L7.989,31.48C7.47,31.824,6.871,31.998,6.271,31.998z M6.272,2.002c-0.18,0-0.36,0.045-0.528,0.135C5.377,2.334,5.157,2.701,5.157,3.118v25.766c0,0.417,0.22,0.783,0.587,0.981s0.794,0.178,1.142-0.052l19.458-12.877c0.317-0.21,0.499-0.549,0.499-0.929c0-0.38-0.182-0.719-0.498-0.929L6.887,2.189C6.697,2.065,6.485,2.002,6.272,2.002z"/></svg>