<svg xmlns="http://www.w3.org/2000/svg" viewBox="0 0 32 32"><!--! Font Icona - https://fonticona.com | License - https://fonticona.com/license | Copyright 2022 FontIcona.com --><path d="M19.278,9.01h-7c-0.347,0-0.668-0.18-0.851-0.474c-0.183-0.295-0.199-0.663-0.044-0.973l3.5-7.01c0.338-0.68,1.451-0.68,1.789,0l3.5,7.01c0.155,0.31,0.139,0.678-0.044,0.973C19.946,8.83,19.625,9.01,19.278,9.01z M13.896,7.01h3.766l-1.883-3.771L13.896,7.01z"/><path d="M19.897,32c-0.256,0-0.513-0.098-0.708-0.293l-7-7.01c-0.39-0.392-0.39-1.024,0.001-1.415c0.391-0.389,1.024-0.39,1.415,0.001l7,7.01c0.39,0.392,0.39,1.024-0.001,1.415C20.409,31.902,20.153,32,19.897,32z"/><path d="M12.897,32c-0.256,0-0.512-0.098-0.707-0.292c-0.391-0.391-0.391-1.023-0.001-1.415l7-7.01c0.391-0.391,1.024-0.39,1.415-0.001c0.391,0.391,0.391,1.023,0.001,1.415l-7,7.01C13.41,31.902,13.153,32,12.897,32z"/><path d="M27.5,20.372c-2.481,0-4.5-2.021-4.5-4.505s2.019-4.505,4.5-4.505s4.5,2.021,4.5,4.505S29.981,20.372,27.5,20.372z M27.5,13.362c-1.379,0-2.5,1.124-2.5,2.505s1.121,2.505,2.5,2.505s2.5-1.124,2.5-2.505S28.879,13.362,27.5,13.362z"/><path d="M8,20.372H1c-0.553,0-1-0.447-1-1v-7.01c0-0.553,0.447-1,1-1h7c0.553,0,1,0.447,1,1v7.01C9,19.925,8.553,20.372,8,20.372z M2,18.372h5v-5.01H2V18.372z"/></svg>