<svg xmlns="http://www.w3.org/2000/svg" viewBox="0 0 32 32"><!--! Font Icona - https://fonticona.com | License - https://fonticona.com/license | Copyright 2022 FontIcona.com --><path d="M24.689,16.33l-1.414-1.414l6.44-6.44c0.168-0.169,0.272-0.39,0.284-0.606c0.005-0.104-0.006-0.299-0.149-0.441c-0.248-0.248-0.729-0.187-1.048,0.136l-6.44,6.439l-1.414-1.414l6.44-6.439c1.105-1.105,2.843-1.168,3.876-0.136c0.506,0.505,0.772,1.222,0.732,1.965c-0.04,0.713-0.347,1.392-0.867,1.911L24.689,16.33z"/><path d="M14.084,28.571c-1.201,0-2.412-0.464-3.337-1.39l-0.649-0.649c-1.822-1.822-1.844-4.765-0.049-6.561l7.936-7.936c0.966-0.964,2.505-0.994,3.431-0.068l3.896,3.896c0.436,0.435,0.676,1.021,0.676,1.651c0,0.658-0.271,1.307-0.744,1.779l-7.964,7.965C16.402,28.135,15.248,28.571,14.084,28.571z M19.764,13.292c-0.125,0-0.263,0.055-0.366,0.157l-7.936,7.936c-1.015,1.016-0.993,2.69,0.049,3.732l0.649,0.649c1.043,1.041,2.705,1.076,3.704,0.078l7.964-7.965c0.101-0.101,0.158-0.233,0.158-0.364c0-0.068-0.016-0.164-0.089-0.237l-3.896-3.897C19.941,13.322,19.856,13.292,19.764,13.292z"/><rect x="26.473" y="8.16" transform="matrix(0.7072 -0.707 0.707 0.7072 1.1116 22.2951)" width="2" height="3.291"/><rect x="16.72" y="15.426" transform="matrix(0.7071 -0.7071 0.7071 0.7071 -8.6399 18.2583)" width="2" height="8.266"/><rect x="19.194" y="12.952" transform="matrix(0.7071 -0.7071 0.7071 0.7071 -6.1662 19.2832)" width="2" height="8.266"/><path d="M7.219,28.825c-1.708,0-3.314-0.666-4.522-1.874c-1.208-1.207-1.873-2.813-1.873-4.521c0-1.709,0.665-3.315,1.873-4.522l5.227-5.227c1.714-1.714,1.714-4.503,0-6.217c-0.83-0.83-1.934-1.287-3.108-1.287c-1.174,0-2.278,0.457-3.108,1.287c-0.391,0.391-1.023,0.391-1.414,0s-0.391-1.023,0-1.414C1.5,3.841,3.107,3.176,4.815,3.176c1.708,0,3.314,0.665,4.522,1.873c2.494,2.494,2.494,6.551,0,9.045l-5.227,5.227c-0.83,0.83-1.287,1.934-1.287,3.108c0,1.174,0.457,2.277,1.287,3.107s1.934,1.288,3.108,1.288c1.174,0,2.278-0.458,3.108-1.288c0.391-0.391,1.023-0.391,1.414,0s0.391,1.023,0,1.414C10.534,28.159,8.927,28.825,7.219,28.825z"/></svg>