<svg xmlns="http://www.w3.org/2000/svg" viewBox="0 0 32 32"><!--! Font Icona - https://fonticona.com | License - https://fonticona.com/license | Copyright 2022 FontIcona.com --><path d="M19.526,22.809l-7.059-0.012c-3.074-0.01-5.576-2.519-5.58-5.592l0.005-7.301c0-0.552,0.448-1,1-1c0,0,0,0,0.001,0c0.552,0,0.999,0.448,0.999,1l-0.005,7.3c0.002,1.974,1.61,3.586,3.585,3.592l7.052,0.012c1.971-0.007,3.578-1.621,3.578-3.598l0.005-7.307c0-0.552,0.448-1,1-1c0,0,0,0,0.001,0c0.552,0,0.999,0.448,0.999,1l-0.005,7.306C25.103,20.287,22.601,22.798,19.526,22.809z"/><path d="M26.72,10.905L26.72,10.905L5.28,10.904c-0.553,0-1-0.448-1-1s0.448-1,1-1l0,0L26.72,8.905c0.553,0,1,0.448,1,1S27.271,10.905,26.72,10.905z"/><path d="M10.754,10.904C10.754,10.904,10.754,10.904,10.754,10.904c-0.553,0-1-0.448-1-1L9.76,1c0-0.552,0.448-1,1-1c0,0,0,0,0.001,0c0.552,0,0.999,0.448,0.999,1l-0.006,8.903C11.754,10.457,11.306,10.904,10.754,10.904z"/><path d="M21.246,10.904c-0.552,0-1-0.448-1-1L20.245,1c0-0.552,0.447-1,1-1c0.552,0,1,0.448,1,1l0.001,8.904C22.246,10.457,21.799,10.904,21.246,10.904z"/><path d="M15.989,32c-0.553,0-1-0.448-1-1v-9.205c0-0.552,0.447-1,1-1s1,0.448,1,1V31C16.989,31.552,16.542,32,15.989,32z"/></svg>