<svg xmlns="http://www.w3.org/2000/svg" viewBox="0 0 32 32"><!--! Font Icona - https://fonticona.com | License - https://fonticona.com/license | Copyright 2022 FontIcona.com --><path d="M10.302,20.151c-0.253,0-0.507-0.096-0.701-0.287c-3.588-3.528-3.638-9.317-0.109-12.905c3.526-3.586,9.315-3.637,12.905-0.109c3.586,3.526,3.636,9.314,0.112,12.902c-0.389,0.393-1.021,0.399-1.415,0.013c-0.394-0.387-0.399-1.02-0.013-1.414c2.752-2.802,2.713-7.321-0.087-10.075c-2.802-2.754-7.323-2.715-10.077,0.085c-2.755,2.802-2.716,7.322,0.086,10.077c0.394,0.387,0.399,1.02,0.012,1.414C10.819,20.051,10.561,20.151,10.302,20.151z"/><path d="M9.533,24.897c-0.179,0-0.359-0.047-0.522-0.147C2.732,20.896,0.76,12.653,4.612,6.374c3.854-6.278,12.097-8.251,18.377-4.399c6.278,3.854,8.251,12.097,4.398,18.376c-1.042,1.697-2.478,3.164-4.15,4.242c-0.465,0.3-1.083,0.165-1.383-0.299c-0.299-0.464-0.165-1.083,0.299-1.382c1.424-0.917,2.644-2.165,3.529-3.607c3.276-5.339,1.599-12.348-3.74-15.625C16.605,0.405,9.594,2.081,6.317,7.42c-3.276,5.339-1.599,12.348,3.74,15.625c0.471,0.289,0.618,0.904,0.329,1.375C10.197,24.728,9.869,24.897,9.533,24.897z"/><path d="M16.004,17.216c-2.256,0-4.091-1.835-4.091-4.09s1.835-4.09,4.091-4.09c2.255,0,4.09,1.835,4.09,4.09S18.259,17.216,16.004,17.216z M16.004,11.036c-1.153,0-2.091,0.938-2.091,2.09s0.938,2.09,2.091,2.09c1.152,0,2.09-0.938,2.09-2.09S17.156,11.036,16.004,11.036z"/><path d="M16.26,32h-0.512c-2.133,0-3.868-1.735-3.868-3.868v-6.647c0-2.133,1.735-3.868,3.868-3.868h0.512c2.133,0,3.867,1.735,3.867,3.868v6.647C20.127,30.265,18.393,32,16.26,32z M15.748,19.617c-1.03,0-1.868,0.838-1.868,1.868v6.647c0,1.03,0.838,1.868,1.868,1.868h0.512c1.029,0,1.867-0.838,1.867-1.868v-6.647c0-1.03-0.838-1.868-1.867-1.868H15.748z"/></svg>