<svg xmlns="http://www.w3.org/2000/svg" viewBox="0 0 32 32"><!--! Font Icona - https://fonticona.com | License - https://fonticona.com/license | Copyright 2022 FontIcona.com --><path d="M15.976,32.006c-0.663,0-1.325-0.248-1.842-0.734c-0.867-0.87-1.724-1.709-2.58-2.548c-2.026-1.986-4.122-4.041-6.053-6.208c-1.917-2.165-3.035-4.945-3.149-7.831C2.024,10.742,3.472,6.851,6.325,4.05c2.139-2.229,5.038-3.634,8.143-3.935c4.288-0.576,8.63,0.989,11.589,4.191c2.172,2.262,3.454,5.252,3.596,8.405c0.231,3.036-0.507,6.037-2.139,8.646c-0.747,1.268-2.414,1.698-3.704,0.937c-1.289-0.761-1.719-2.429-0.958-3.718c0.709-1.131,1.154-2.347,1.337-3.64c0.771-4.41-2.168-8.594-6.545-9.36l-0.152-0.025c-0.43-0.057-0.884-0.087-1.331-0.089h-0.007c-4.266-0.066-7.832,3.118-8.312,7.351c-0.326,2.54,0.571,5.104,2.4,6.874c1.695,1.718,3.39,3.404,5.082,5.089l2.502,2.494c1.076,0.935,1.194,2.649,0.213,3.776c-0.179,0.205-0.386,0.38-0.615,0.523C16.983,31.862,16.479,32.006,15.976,32.006z M16.211,2c-0.503,0-1.009,0.033-1.514,0.101c-2.665,0.259-5.121,1.449-6.95,3.354c-2.448,2.404-3.68,5.715-3.399,9.106c0.099,2.469,1.038,4.807,2.649,6.625c1.883,2.115,3.954,4.145,5.957,6.107c0.862,0.846,1.724,1.69,2.573,2.543c0.209,0.195,0.554,0.223,0.816,0.05c0.085-0.054,0.141-0.101,0.188-0.155c0.256-0.294,0.225-0.743-0.07-1l-2.548-2.538c-1.697-1.689-3.396-3.38-5.079-5.086c-2.265-2.19-3.384-5.387-2.979-8.535c0.59-5.205,4.971-9.111,10.213-9.111c0.033,0,0.067,0,0.102,0c0.532,0.002,1.071,0.039,1.602,0.109l0.217,0.035c5.463,0.956,9.13,6.178,8.176,11.643c-0.218,1.54-0.759,3.02-1.604,4.367c-0.083,0.141-0.11,0.333-0.062,0.518c0.048,0.185,0.164,0.34,0.329,0.437c0.339,0.202,0.779,0.086,0.979-0.252c1.417-2.268,2.053-4.849,1.852-7.487c-0.122-2.699-1.206-5.229-3.056-7.155C22.418,3.316,19.367,2,16.211,2z"/><path d="M20.799,27.04c-0.587,0-1.172-0.191-1.66-0.567L18.824,26.2l-7.585-7.538c-1.31-1.288-2.046-3.085-2.017-4.927c0.022-3.782,3.106-6.844,6.885-6.844c0.012,0,0.023,0,0.035,0c3.332,0.017,6.169,2.412,6.746,5.693c0.189,1.021,0.131,2.094-0.173,3.095c-0.346,1.405-1.814,2.301-3.279,1.94c-1.457-0.359-2.35-1.836-1.99-3.293c0.219-0.743-0.053-1.439-0.638-1.785c-0.545-0.339-1.217-0.29-1.691,0.106c-0.276,0.243-0.452,0.6-0.478,0.99s0.103,0.768,0.36,1.062c0.037,0.042,0.078,0.084,0.121,0.123c2.504,2.509,4.973,4.977,7.443,7.441c0.179,0.167,0.365,0.377,0.532,0.603l0.062,0.097c0.746,1.3,0.296,2.966-1.003,3.714C21.732,26.919,21.265,27.04,20.799,27.04z M16.107,8.891c-2.683,0-4.871,2.175-4.885,4.859v0.012c-0.021,1.3,0.497,2.568,1.423,3.479l7.762,7.687c0.183,0.139,0.496,0.162,0.752,0.015c0.329-0.189,0.453-0.603,0.289-0.941c-0.084-0.107-0.175-0.208-0.274-0.301c-2.494-2.486-4.963-4.956-7.429-7.428c-0.062-0.053-0.157-0.15-0.248-0.253c-0.611-0.697-0.914-1.589-0.854-2.512c0.061-0.924,0.477-1.769,1.173-2.379c1.155-0.967,2.769-1.082,4.029-0.297c1.359,0.804,2,2.445,1.54,3.979c-0.093,0.38,0.144,0.772,0.529,0.867c0.388,0.095,0.777-0.142,0.873-0.528c0.225-0.746,0.266-1.492,0.132-2.209c-0.41-2.338-2.423-4.037-4.787-4.049C16.124,8.891,16.115,8.891,16.107,8.891z"/></svg>