<svg xmlns="http://www.w3.org/2000/svg" viewBox="0 0 32 32"><!--! Font Icona - https://fonticona.com | License - https://fonticona.com/license | Copyright 2022 FontIcona.com --><path d="M16,32C7.178,32,0,24.822,0,16S7.178,0,16,0s16,7.178,16,16S24.822,32,16,32z M16,2C8.28,2,2,8.28,2,16s6.28,14,14,14s14-6.28,14-14S23.72,2,16,2z"/><path d="M16,25.359c-5.161,0-9.359-4.198-9.359-9.359S10.839,6.641,16,6.641s9.359,4.198,9.359,9.359S21.161,25.359,16,25.359z M16,8.641c-4.058,0-7.359,3.302-7.359,7.359s3.301,7.359,7.359,7.359s7.359-3.302,7.359-7.359S20.058,8.641,16,8.641z"/><rect x="15" y="1" width="2" height="29.978"/><rect x="1" y="15" width="30" height="2"/><rect x="1.011" y="14.989" transform="matrix(0.7071 -0.7071 0.7071 0.7071 -6.6198 15.9969)" width="29.977" height="2"/><rect x="14.992" y="0.997" transform="matrix(0.7071 -0.7071 0.7071 0.7071 -6.6276 15.9936)" width="2" height="30"/></svg>