<svg xmlns="http://www.w3.org/2000/svg" viewBox="0 0 32 32"><!--! Font Icona - https://fonticona.com | License - https://fonticona.com/license | Copyright 2022 FontIcona.com --><path d="M11.98,9.112c-0.372,0-0.729-0.208-0.902-0.566c-0.239-0.498-0.03-1.095,0.468-1.335l9.396-4.526c0.498-0.239,1.095-0.03,1.335,0.467c0.239,0.498,0.03,1.095-0.468,1.335l-9.396,4.526C12.273,9.081,12.126,9.112,11.98,9.112z"/><path d="M25.956,27.942c-0.503,0-0.937-0.378-0.993-0.89l-2.448-22.15c-0.061-0.549,0.335-1.043,0.885-1.104c0.558-0.06,1.043,0.336,1.104,0.884l2.448,22.15c0.061,0.549-0.335,1.043-0.885,1.104C26.029,27.94,25.992,27.942,25.956,27.942z"/><path d="M24.283,29.743c-0.066,0-0.133-0.006-0.2-0.02L7.472,26.347c-0.541-0.11-0.891-0.638-0.78-1.179c0.109-0.542,0.64-0.89,1.179-0.781l16.611,3.376c0.541,0.11,0.891,0.638,0.78,1.179C25.166,29.417,24.749,29.743,24.283,29.743z"/><path d="M6.479,24.118c-0.081,0-0.163-0.01-0.244-0.03c-0.536-0.134-0.861-0.678-0.727-1.213l3.115-12.403C8.759,9.935,9.309,9.61,9.837,9.745c0.536,0.134,0.861,0.678,0.727,1.213L7.448,23.362C7.334,23.815,6.927,24.118,6.479,24.118z"/><path d="M26.194,32c-1.605,0-2.912-1.306-2.912-2.912s1.307-2.912,2.912-2.912s2.912,1.306,2.912,2.912S27.8,32,26.194,32z M26.194,28.176c-0.503,0-0.912,0.409-0.912,0.912S25.691,30,26.194,30s0.912-0.409,0.912-0.912S26.697,28.176,26.194,28.176z"/><path d="M5.806,27.942c-1.605,0-2.912-1.306-2.912-2.912s1.307-2.912,2.912-2.912s2.912,1.306,2.912,2.912S7.411,27.942,5.806,27.942z M5.806,24.118c-0.503,0-0.912,0.409-0.912,0.912s0.409,0.912,0.912,0.912s0.912-0.409,0.912-0.912S6.309,24.118,5.806,24.118z"/><path d="M10.067,11.778c-1.605,0-2.912-1.306-2.912-2.912s1.307-2.913,2.912-2.913s2.912,1.307,2.912,2.913S11.673,11.778,10.067,11.778z M10.067,7.954c-0.503,0-0.912,0.409-0.912,0.913c0,0.503,0.409,0.912,0.912,0.912s0.912-0.409,0.912-0.912C10.979,8.363,10.57,7.954,10.067,7.954z"/><path d="M23.165,5.824c-1.605,0-2.912-1.306-2.912-2.912S21.56,0,23.165,0s2.912,1.306,2.912,2.912S24.771,5.824,23.165,5.824z M23.165,2c-0.503,0-0.912,0.409-0.912,0.912s0.409,0.912,0.912,0.912s0.912-0.409,0.912-0.912S23.668,2,23.165,2z"/></svg>