<svg xmlns="http://www.w3.org/2000/svg" viewBox="0 0 32 32"><!--! Font Icona - https://fonticona.com | License - https://fonticona.com/license | Copyright 2022 FontIcona.com --><path d="M16,32C7.178,32,0,24.823,0,16S7.178,0,16,0s16,7.178,16,16S24.822,32,16,32z M16,2C8.28,2,2,8.281,2,16s6.28,14,14,14s14-6.28,14-14S23.72,2,16,2z"/><path d="M16,16.53c-1.499,0-2.717-1.219-2.717-2.717c0-1.499,1.219-2.718,2.717-2.718s2.717,1.219,2.717,2.718C18.717,15.311,17.499,16.53,16,16.53z M16,13.095c-0.396,0-0.717,0.322-0.717,0.718S15.604,14.53,16,14.53s0.717-0.321,0.717-0.717S16.396,13.095,16,13.095z"/><path d="M16,20.905c-1.758,0-3.188-1.43-3.188-3.188S14.242,14.53,16,14.53s3.188,1.43,3.188,3.188S17.758,20.905,16,20.905z M16,16.53c-0.655,0-1.188,0.532-1.188,1.188s0.533,1.188,1.188,1.188s1.188-0.532,1.188-1.188S16.655,16.53,16,16.53z"/><path d="M16,25.726c-5.363,0-9.726-4.363-9.726-9.726S10.637,6.275,16,6.275s9.726,4.363,9.726,9.726S21.363,25.726,16,25.726z M16,8.275c-4.26,0-7.726,3.466-7.726,7.726S11.74,23.726,16,23.726S23.726,20.26,23.726,16S20.26,8.275,16,8.275z"/></svg>