<svg xmlns="http://www.w3.org/2000/svg" viewBox="0 0 32 32"><!--! Font Icona - https://fonticona.com | License - https://fonticona.com/license | Copyright 2022 FontIcona.com --><path d="M15.299,19.487c-2.36,0-4.576-0.534-6.388-1.932c-1.655-1.26-2.452-2.66-2.365-4.157c0.112-1.948,1.76-3.879,4.896-5.74c1.766-0.898,3.657-2.586,3.606-3.198c-0.002-0.031-0.146-0.231-0.768-0.429c-0.526-0.166-0.818-0.729-0.652-1.255c0.167-0.526,0.729-0.821,1.255-0.651c1.681,0.531,2.101,1.475,2.158,2.172c0.214,2.62-4.589,5.089-4.637,5.113c-2.401,1.427-3.793,2.896-3.863,4.104c-0.046,0.793,0.487,1.619,1.585,2.454c4.682,3.609,13.822-0.264,16.826-1.536c0.51-0.216,1.096,0.022,1.311,0.531c0.215,0.508-0.022,1.095-0.531,1.311C24.106,17.809,19.478,19.487,15.299,19.487z"/><path d="M15.512,14.521c-0.455,0-0.866-0.312-0.973-0.774c-0.125-0.538,0.21-1.075,0.749-1.2c1.93-0.446,5.117-1.575,4.787-4.111c-0.321-2.261-2.862-3.278-5.319-4.262L14.6,4.112c-0.513-0.206-0.762-0.788-0.556-1.301c0.205-0.513,0.785-0.764,1.3-0.557l0.154,0.062c2.705,1.083,6.072,2.431,6.558,5.849c0.392,3.006-1.911,5.309-6.317,6.33C15.663,14.513,15.587,14.521,15.512,14.521z"/><path d="M17.692,27.921c-0.424,0-0.846-0.006-1.264-0.016c-4.526-0.108-9.231-1.407-12.911-3.562c-1.511-0.886-3.345-2.401-3.504-4.595c-0.226-3.102,2.189-5.412,7.177-6.865c0.528-0.154,1.086,0.149,1.24,0.681c0.155,0.529-0.15,1.085-0.68,1.239c-4.013,1.17-5.891,2.74-5.741,4.801c0.102,1.396,1.623,2.487,2.52,3.014c3.396,1.989,7.75,3.188,11.948,3.288c4.627,0.115,9.286-0.259,11.956-3.676c0.639-0.817,1.427-2.077,1.552-3.431c0.096-1.039-0.268-2.102-0.865-2.527c-0.133-0.096-0.54-0.385-1.364-0.009c-0.379,0.17-0.823,0.09-1.117-0.201c-0.295-0.292-0.378-0.736-0.21-1.115c0.388-0.874,0.384-1.619-0.011-2.277c-0.818-1.364-3.186-2.221-5.102-2.361c-0.551-0.04-0.964-0.52-0.924-1.07s0.51-0.974,1.07-0.924c2.435,0.179,5.442,1.276,6.671,3.327c0.344,0.573,0.654,1.397,0.569,2.441c0.567,0.034,1.103,0.222,1.578,0.561c1.178,0.839,1.859,2.583,1.696,4.341c-0.17,1.837-1.164,3.449-1.967,4.478C27.06,27.235,22.248,27.921,17.692,27.921z"/></svg>