<svg xmlns="http://www.w3.org/2000/svg" viewBox="0 0 32 32"><!--! Font Icona - https://fonticona.com | License - https://fonticona.com/license | Copyright 2022 FontIcona.com --><path d="M25.667,27.473H6.312c-1.663,0-3.016-1.353-3.016-3.016v-11.42c0-0.553,0.448-1,1-1s1,0.447,1,1v11.42c0,0.56,0.456,1.016,1.016,1.016h19.356c0.56,0,1.016-0.456,1.016-1.016v-11.42c0-0.553,0.448-1,1-1s1,0.447,1,1v11.42C28.683,26.12,27.33,27.473,25.667,27.473z"/><path d="M29.341,14.037H2.648c-0.552,0-1-0.447-1-1s0.448-1,1-1h26.693c0.552,0,1,0.447,1,1S29.894,14.037,29.341,14.037z"/><path d="M2.648,14.037c-0.552,0-1-0.447-1-1c0-2.593,8.679-5.593,14.342-5.593c0.552,0,1,0.447,1,1s-0.448,1-1,1c-5.842,0-11.654,2.801-12.357,3.771C3.549,13.682,3.14,14.037,2.648,14.037z M3.602,13.261L3.602,13.261L3.602,13.261z"/><path d="M29.341,14.037c-0.492,0-0.901-0.355-0.984-0.822C27.654,12.245,21.841,9.445,16,9.445c-0.552,0-1-0.447-1-1s0.448-1,1-1c5.663,0,14.341,3,14.341,5.593C30.341,13.59,29.894,14.037,29.341,14.037z M28.388,13.261L28.388,13.261L28.388,13.261z"/><rect x="14.99" y="6.517" width="2" height="1.928"/><ellipse cx="16" cy="5.712" rx="4.25" ry="1.186"/><path d="M4.295,19.27c-0.175,0-0.352-0.046-0.513-0.142l-3.296-1.973c-0.474-0.284-0.628-0.898-0.344-1.372c0.283-0.473,0.897-0.627,1.372-0.345l3.296,1.973c0.474,0.284,0.628,0.898,0.344,1.372C4.967,19.096,4.635,19.27,4.295,19.27z"/><path d="M27.705,19.27c-0.34,0-0.672-0.174-0.859-0.486c-0.284-0.474-0.129-1.088,0.344-1.372l3.296-1.973c0.476-0.281,1.089-0.128,1.372,0.345c0.284,0.474,0.129,1.088-0.344,1.372l-3.296,1.973C28.057,19.224,27.88,19.27,27.705,19.27z"/></svg>