<svg xmlns="http://www.w3.org/2000/svg" viewBox="0 0 32 32"><!--! Font Icona - https://fonticona.com | License - https://fonticona.com/license | Copyright 2022 FontIcona.com --><path d="M16.826,31.559c-0.049,0-0.099-0.002-0.147-0.006c-0.533-0.044-1.025-0.326-1.351-0.773l-4.95-6.81c-0.614-0.846-0.512-2.08,0.232-2.812l2.013-1.98c0.393-0.387,0.929-0.588,1.457-0.543c0.534,0.043,1.027,0.322,1.355,0.768l4.238,5.756c0.327,0.444,0.232,1.07-0.213,1.398c-0.445,0.325-1.071,0.232-1.398-0.213l-4.146-5.632l-1.903,1.872c-0.04,0.039-0.05,0.165-0.017,0.21l4.854,6.679l2.611-2.568c0.393-0.388,1.025-0.384,1.414,0.012c0.388,0.394,0.382,1.026-0.012,1.414l-2.726,2.682C17.78,31.364,17.309,31.559,16.826,31.559z"/><path d="M19.806,28.969c-0.258,0-0.517-0.1-0.712-0.298c-0.388-0.394-0.384-1.026,0.01-1.414l1.087-1.07c0.229-0.225,0.267-0.455,0.254-0.51c0.002,0.023-0.07-0.004-0.104,0.029l-0.77,0.757c-0.394,0.388-1.025,0.384-1.414-0.01c-0.388-0.394-0.384-1.026,0.01-1.414l0.772-0.76c0.399-0.393,0.933-0.615,1.5-0.587c0.556,0.014,1.077,0.241,1.469,0.64c0.431,0.438,0.616,1.071,0.509,1.738c-0.091,0.562-0.384,1.109-0.823,1.542l-1.085,1.068C20.312,28.873,20.06,28.969,19.806,28.969z"/><path d="M9.67,23.926c-0.618,0-1.236-0.238-1.703-0.713l-3.302-3.356c-0.446-0.453-0.689-1.055-0.685-1.695c0.005-0.64,0.258-1.237,0.713-1.684l6.051-5.954c0.393-0.388,1.024-0.384,1.414,0.012c0.388,0.394,0.382,1.026-0.012,1.414l-6.052,5.955c-0.099,0.097-0.114,0.213-0.114,0.273c-0.001,0.061,0.013,0.178,0.109,0.275l3.303,3.357c0.098,0.101,0.201,0.127,0.277,0.114c0.062,0,0.176-0.015,0.273-0.11l6.052-5.954c0.393-0.388,1.025-0.383,1.414,0.012c0.388,0.394,0.382,1.026-0.012,1.414l-6.052,5.954C10.881,23.697,10.275,23.926,9.67,23.926z"/><path d="M17.327,18.095c-0.305,0-0.595-0.14-0.785-0.381c-1.836-2.33-3.935-4.464-6.239-6.342c-0.263-0.214-0.398-0.546-0.362-0.883s0.24-0.632,0.542-0.785l4.396-2.226c0.354-0.179,0.776-0.133,1.084,0.117c1.641,1.337,3.137,2.858,4.446,4.52c0.245,0.311,0.284,0.735,0.1,1.085l-2.297,4.36c-0.157,0.3-0.456,0.499-0.794,0.53C17.388,18.094,17.357,18.095,17.327,18.095z M12.732,10.808c1.58,1.384,3.058,2.886,4.413,4.485l1.287-2.442c-0.981-1.186-2.067-2.289-3.237-3.29L12.732,10.808z"/><path d="M19.298,13.087c-0.231,0-0.464-0.08-0.653-0.242c-0.418-0.361-0.465-0.992-0.104-1.411l2.426-2.812c-0.475-0.533-0.977-1.044-1.5-1.525l-2.852,2.379c-0.426,0.355-1.057,0.297-1.408-0.127c-0.354-0.425-0.297-1.055,0.127-1.408l3.51-2.929c0.374-0.312,0.917-0.309,1.287,0.005c1.059,0.896,2.043,1.897,2.927,2.976c0.309,0.376,0.302,0.919-0.017,1.287l-2.984,3.462C19.857,12.97,19.578,13.087,19.298,13.087z"/><circle cx="14.219" cy="23.462" r="1.111"/><path d="M21.712,7.307c-0.256,0-0.512-0.098-0.707-0.293c-0.391-0.391-0.391-1.023,0-1.414l5.308-5.307c0.391-0.391,1.023-0.391,1.414,0s0.391,1.023,0,1.414l-5.308,5.307C22.224,7.209,21.968,7.307,21.712,7.307z"/></svg>