<svg xmlns="http://www.w3.org/2000/svg" viewBox="0 0 32 32"><!--! Font Icona - https://fonticona.com | License - https://fonticona.com/license | Copyright 2022 FontIcona.com --><path d="M15.984,32.004c-2.232,0-4.447-0.537-6.484-1.598c-3.338-1.736-5.799-4.668-6.931-8.256C0.696,16.213,3,9.654,8.173,6.201c0.46-0.307,1.08-0.182,1.388,0.276c0.307,0.46,0.183,1.081-0.276,1.388c-4.438,2.962-6.415,8.589-4.807,13.684c0.971,3.078,3.082,5.594,5.945,7.083c2.864,1.491,6.135,1.777,9.213,0.805c6.354-2.005,9.893-8.806,7.887-15.159c-0.837-2.654-2.501-4.872-4.812-6.413c-0.46-0.307-0.584-0.927-0.277-1.387c0.305-0.46,0.926-0.583,1.387-0.277c2.656,1.771,4.648,4.426,5.611,7.476c2.336,7.405-1.787,15.331-9.193,17.669C18.84,31.785,17.408,32.004,15.984,32.004z"/><path d="M16,19.207c-0.553,0-1-0.447-1-1V1c0-0.553,0.447-1,1-1s1,0.447,1,1v17.207C17,18.76,16.553,19.207,16,19.207z"/></svg>