<svg xmlns="http://www.w3.org/2000/svg" viewBox="0 0 32 32"><!--! Font Icona - https://fonticona.com | License - https://fonticona.com/license | Copyright 2022 FontIcona.com --><path d="M9.994,32H8.805c-1.103,0-2-0.897-2-2V8.633c0-0.552,0.448-1,1-1s1,0.448,1,1V30h1.189c0.552,0,1,0.447,1,1S10.546,32,9.994,32z"/><path d="M9.995,32c-0.362,0-0.711-0.197-0.889-0.54c-0.254-0.491-0.062-1.095,0.429-1.348l2.059-1.065c0.288-0.15,0.631-0.15,0.919,0l1.599,0.827l1.598-0.827c0.289-0.15,0.631-0.15,0.92,0l1.598,0.827l1.598-0.827c0.289-0.15,0.631-0.15,0.92,0l1.598,0.827l1.598-0.827c0.289-0.15,0.631-0.15,0.92,0l2.059,1.065c0.49,0.254,0.682,0.856,0.428,1.348c-0.254,0.488-0.854,0.684-1.348,0.428L24.4,31.061l-1.598,0.827c-0.289,0.15-0.631,0.15-0.92,0l-1.598-0.827l-1.598,0.827c-0.289,0.15-0.631,0.15-0.92,0l-1.598-0.827l-1.598,0.827c-0.289,0.15-0.631,0.15-0.919,0l-1.599-0.827l-1.6,0.827C10.306,31.964,10.149,32,9.995,32z"/><path d="M27.752,32h-1.293c-0.553,0-1-0.447-1-1s0.447-1,1-1h1.293V2H5.526c-0.552,0-1-0.448-1-1s0.448-1,1-1h22.226c1.103,0,2,0.897,2,2v28C29.752,31.103,28.854,32,27.752,32z"/><path d="M7.805,5.077c-0.552,0-1-0.448-1-1C6.805,2.853,6.131,2,5.526,2S4.249,2.853,4.249,4.077c0,0.552-0.448,1-1,1s-1-0.448-1-1C2.249,1.791,3.688,0,5.526,0c1.838,0,3.278,1.791,3.278,4.077C8.805,4.629,8.357,5.077,7.805,5.077z"/><path d="M7.805,9.633H4.249c-1.103,0-2-0.897-2-2V4.077c0-0.552,0.448-1,1-1s1,0.448,1,1v3.556h3.556c0.552,0,1,0.448,1,1S8.357,9.633,7.805,9.633z"/><path d="M7.805,16.364c-0.552,0-1-0.448-1-1V4.077c0-0.552,0.448-1,1-1s1,0.448,1,1v11.287C8.805,15.916,8.357,16.364,7.805,16.364z"/><path d="M15.491,14.936h-3.024c-0.552,0-1-0.448-1-1s0.448-1,1-1h3.024c1.509,0,2.736-0.95,2.736-2.119S17,8.698,15.491,8.698h-3.024c-0.552,0-1-0.448-1-1s0.448-1,1-1h3.024c2.612,0,4.736,1.848,4.736,4.119C20.227,13.088,18.103,14.936,15.491,14.936z"/><path d="M12.467,20.153c-0.552,0-1-0.447-1-1V7.698c0-0.552,0.448-1,1-1s1,0.448,1,1v11.456C13.467,19.706,13.019,20.153,12.467,20.153z"/><path d="M24.091,25.302c-0.288,0-0.573-0.123-0.771-0.361l-8.599-10.366c-0.353-0.425-0.294-1.056,0.131-1.408c0.426-0.352,1.057-0.294,1.408,0.131l8.599,10.366c0.353,0.425,0.294,1.056-0.131,1.408C24.542,25.227,24.315,25.302,24.091,25.302z"/><path d="M14.779,25.302c-0.225,0-0.451-0.075-0.638-0.23c-0.425-0.353-0.483-0.982-0.131-1.408l8.599-10.366c0.352-0.424,0.982-0.484,1.408-0.131c0.425,0.353,0.483,0.983,0.131,1.408L15.549,24.94C15.351,25.179,15.066,25.302,14.779,25.302z"/></svg>