<svg xmlns="http://www.w3.org/2000/svg" viewBox="0 0 32 32"><!--! Font Icona - https://fonticona.com | License - https://fonticona.com/license | Copyright 2022 FontIcona.com --><path d="M10.964,13.27H5.5c-0.552,0-1-0.447-1-1s0.448-1,1-1h5.464c3.17,0,5.75-2.079,5.75-4.635c0-2.557-2.58-4.636-5.75-4.636H5.5c-0.552,0-1-0.447-1-1s0.448-1,1-1h5.464c4.273,0,7.75,2.977,7.75,6.636C18.714,10.294,15.238,13.27,10.964,13.27z"/><path d="M5.5,22.697c-0.552,0-1-0.447-1-1V1c0-0.553,0.448-1,1-1s1,0.447,1,1v20.697C6.5,22.25,6.052,22.697,5.5,22.697z"/><path d="M26.5,32c-0.287,0-0.572-0.123-0.77-0.361L10.195,12.909c-0.353-0.426-0.294-1.056,0.131-1.408c0.426-0.353,1.056-0.294,1.408,0.131L27.27,30.361c0.353,0.426,0.294,1.056-0.131,1.408C26.952,31.924,26.726,32,26.5,32z"/><path d="M9.678,32c-0.225,0-0.451-0.075-0.638-0.23c-0.425-0.353-0.483-0.982-0.131-1.408l15.536-18.729c0.354-0.425,0.983-0.483,1.408-0.131c0.425,0.353,0.483,0.982,0.131,1.408L10.448,31.638C10.25,31.877,9.965,32,9.678,32z"/></svg>