<svg xmlns="http://www.w3.org/2000/svg" viewBox="0 0 32 32"><!--! Font Icona - https://fonticona.com | License - https://fonticona.com/license | Copyright 2022 FontIcona.com --><path d="M26.958,28.504c-0.604,0-1.221-0.216-1.79-0.646c-0.686-0.518-1.391-1.098-2.279-1.878c-1.859,0.746-3.572,1.166-5.276,1.299c-2.994,0.23-5.849-0.205-8.49-1.298c-0.822,0.69-1.681,1.395-2.599,2.055c-1.071,0.769-2.613,0.555-3.513-0.488c-0.868-1.006-0.882-2.423-0.031-3.444c0.225-0.271,0.479-0.489,0.705-0.681l0.134-0.115c0.141-0.122,0.283-0.243,0.429-0.366c-1.685-1.532-2.82-3.193-3.469-5.072c-1.291-3.745-0.971-7.088,0.953-9.936c1.502-2.223,3.824-3.73,6.54-4.248c2.675-0.508,5.475,0.032,7.729,1.487c1.615-1.054,3.415-1.602,5.357-1.632c3.788-0.043,6.812,1.404,8.906,4.346c0.781,1.097,1.329,2.493,1.584,4.036c0.139,0.829,0.183,1.654,0.131,2.451c-0.145,2.214-0.876,4.374-2.06,6.083c-0.618,0.894-1.361,1.75-2.162,2.49l0.391,0.33c0.245,0.203,0.488,0.408,0.712,0.632c0.575,0.58,0.859,1.322,0.801,2.092c-0.061,0.777-0.461,1.475-1.128,1.967C28.048,28.326,27.508,28.504,26.958,28.504z M22.955,23.94c0.429,0,0.83,0.167,1.214,0.504c0.869,0.764,1.549,1.325,2.204,1.819c0.546,0.411,0.846,0.188,0.974,0.095c0.192-0.142,0.306-0.322,0.32-0.51c0.014-0.183-0.064-0.366-0.226-0.528c-0.179-0.18-0.375-0.341-0.57-0.503l-1.275-1.088c-0.218-0.187-0.345-0.458-0.349-0.744c-0.004-0.287,0.115-0.562,0.327-0.754l0.64-0.582c0.766-0.681,1.478-1.485,2.062-2.329c0.98-1.416,1.587-3.219,1.708-5.075c0.041-0.635,0.004-1.324-0.107-1.994v-0.001c-0.203-1.227-0.644-2.364-1.24-3.202c-1.715-2.406-4.133-3.545-7.247-3.506c-1.641,0.025-3.155,0.512-4.501,1.445c-0.482,0.336-1.279,0.334-1.776-0.004c-1.862-1.276-4.218-1.758-6.467-1.332C6.457,6.068,4.59,7.276,3.389,9.053c-1.574,2.332-1.811,5.002-0.72,8.164c0.55,1.593,1.541,3.013,3.032,4.343l0.736,0.659c0.216,0.192,0.338,0.47,0.334,0.76c-0.004,0.289-0.133,0.563-0.354,0.75L5.98,24.096c-0.297,0.25-0.576,0.484-0.852,0.723l-0.147,0.127c-0.179,0.152-0.348,0.296-0.463,0.436c-0.221,0.265-0.217,0.602,0.007,0.861c0.198,0.229,0.576,0.35,0.831,0.17c0.903-0.649,1.762-1.358,2.555-2.027c0.569-0.479,1.198-0.577,1.868-0.296c2.38,1.005,4.958,1.404,7.679,1.196c1.527-0.119,3.077-0.506,4.739-1.185C22.46,23.993,22.712,23.94,22.955,23.94z M15.749,5.343c-0.001,0-0.002,0.001-0.003,0.001C15.747,5.344,15.748,5.343,15.749,5.343z M16.03,23.201c-1.341,0-2.688-0.214-4.062-0.642c-0.321-0.101-0.571-0.356-0.664-0.681c-0.092-0.325-0.015-0.674,0.206-0.929l3.752-4.337c0.19-0.22,0.466-0.346,0.756-0.346c0.001,0,0.001,0,0.001,0c0.29,0,0.565,0.126,0.756,0.345l3.752,4.332c0.22,0.254,0.298,0.601,0.207,0.925c-0.091,0.323-0.338,0.579-0.658,0.682C18.722,22.985,17.379,23.201,16.03,23.201z M14.09,21.025c1.301,0.232,2.58,0.231,3.861,0.001l-1.933-2.23L14.09,21.025z M8.827,21.147c-0.462,0-0.936-0.279-1.573-0.835c-2.034-1.771-3.062-3.952-3.057-6.484C4.177,11.345,5.238,9.44,7.27,8.319c2.781-1.534,5.384-1.464,6.966,0.192c0.717,0.751,0.139,1.78-0.173,2.333l-0.073,0.133c-0.087,0.182-0.291,0.606-0.233,0.754c0.039,0.1,0.243,0.26,0.407,0.388c0.436,0.342,1.595,1.249,0.654,2.796c-1.238,2.038-2.816,3.731-4.196,5.119l-0.146,0.14c-0.001,0.001-0.074,0.07-0.075,0.071C9.774,20.847,9.307,21.147,8.827,21.147z M9.05,19.197h0.01H9.05z M11.058,9.206c-1.092,0-2.232,0.538-2.821,0.863c-1.388,0.766-2.055,1.991-2.039,3.746c0,0.004,0,0.008,0,0.012c-0.006,1.955,0.77,3.583,2.369,4.977c0.066,0.058,0.152,0.132,0.235,0.202c0.067-0.064,0.142-0.136,0.211-0.203L9.2,18.626c1.3-1.308,2.778-2.892,3.908-4.751c0.006-0.009,0.011-0.018,0.016-0.026c-0.061-0.051-0.136-0.11-0.194-0.155c-0.337-0.265-0.798-0.625-1.037-1.235c-0.372-0.957,0.061-1.86,0.294-2.347c0.027-0.059,0.075-0.146,0.133-0.247c0.031-0.056,0.087-0.154,0.139-0.256C12.039,9.317,11.554,9.206,11.058,9.206z M13.178,13.736L13.178,13.736L13.178,13.736z M23.371,21.06c-0.489,0-0.966-0.287-1.644-0.865l-0.248-0.209c-1.557-1.385-3.337-3.076-4.735-5.112c-1.105-1.61,0.272-2.564,0.726-2.879c0.17-0.117,0.427-0.296,0.471-0.394c0.017-0.038,0.005-0.176-0.262-0.666l-0.083-0.134c-0.338-0.532-1.04-1.64-0.198-2.422c1.75-1.623,4.529-1.687,7.627-0.172c2.279,1.113,3.473,3.025,3.449,5.531c0.007,2.557-1.156,4.751-3.455,6.522C24.328,20.792,23.844,21.06,23.371,21.06z M18.416,13.775c1.274,1.845,2.936,3.42,4.395,4.718l0.212,0.179c0.128,0.108,0.264,0.225,0.371,0.31c0.125-0.089,0.284-0.211,0.404-0.304c1.807-1.393,2.683-3.008,2.676-4.938c0-0.004,0-0.009,0-0.013c0.018-1.731-0.744-2.948-2.327-3.722c-0.788-0.384-3.319-1.47-4.98-0.466c0.045,0.075,0.089,0.146,0.119,0.191c0.065,0.104,0.119,0.191,0.151,0.252c0.271,0.495,0.775,1.425,0.333,2.428c-0.271,0.612-0.785,0.969-1.161,1.229C18.551,13.678,18.479,13.728,18.416,13.775z M18.321,13.616L18.321,13.616L18.321,13.616z"/></svg>