<svg xmlns="http://www.w3.org/2000/svg" viewBox="0 0 32 32"><!--! Font Icona - https://fonticona.com | License - https://fonticona.com/license | Copyright 2022 FontIcona.com --><path d="M9.293,32.001c-2.014,0-3.705-1.628-3.77-3.682V15.444c0-0.553,0.447-1,1-1s1,0.447,1,1v12.844C7.553,29.23,8.354,30,9.321,30c0.029-0.001,0.059-0.002,0.091-0.002h13.176c0.527,0.016,0.972-0.156,1.321-0.484c0.351-0.329,0.553-0.775,0.568-1.256l-0.001-12.813c0-0.553,0.447-1,1-1s1,0.447,1,1v12.844c-0.033,1.048-0.459,1.989-1.199,2.684c-0.74,0.695-1.694,1.064-2.723,1.025L9.453,31.998C9.399,32,9.346,32.001,9.293,32.001z"/><path d="M25.477,9.634c-0.553,0-1-0.447-1-1V3.712C24.446,2.761,23.619,1.989,22.653,2c-0.021,0.001-0.043,0.002-0.065,0.002H9.412C8.873,1.98,8.44,2.158,8.091,2.486C7.74,2.815,7.538,3.262,7.522,3.742l0.001,4.892c0,0.553-0.447,1-1,1s-1-0.447-1-1V3.712c0.033-1.048,0.459-1.989,1.199-2.684c0.74-0.695,1.688-1.077,2.723-1.025l13.102-0.001c0.053-0.005,0.107-0.003,0.16-0.003c2.014,0,3.705,1.628,3.77,3.682v4.953C26.477,9.187,26.029,9.634,25.477,9.634z"/><path d="M22.11,19.216H9.89c-0.553,0-1-0.447-1-1s0.447-1,1-1H22.11c0.553,0,1,0.447,1,1S22.663,19.216,22.11,19.216z"/><path d="M22.11,22.375H9.89c-0.553,0-1-0.447-1-1s0.447-1,1-1H22.11c0.553,0,1,0.447,1,1S22.663,22.375,22.11,22.375z"/><path d="M15.711,25.534H9.89c-0.553,0-1-0.447-1-1s0.447-1,1-1h5.821c0.553,0,1,0.447,1,1S16.264,25.534,15.711,25.534z"/><path d="M22.11,28.693h-1.8c-0.553,0-1-0.447-1-1s0.447-1,1-1h1.8c0.553,0,1,0.447,1,1S22.663,28.693,22.11,28.693z"/><circle cx="22.71" cy="11.7" r="1.25"/><path d="M30.318,16.626c-9.502-1.201-19.135-1.201-28.637,0l-0.25-1.984c9.666-1.221,19.471-1.221,29.137,0L30.318,16.626z"/><path d="M28.221,23.344h-2.744c-0.553,0-1-0.447-1-1s0.447-1,1-1h2.744c0.674,0,1.223-0.548,1.223-1.222v-9.266c0-0.674-0.549-1.223-1.223-1.223H3.779c-0.674,0-1.223,0.549-1.223,1.223v9.266c0,0.674,0.549,1.222,1.223,1.222h2.732c0.553,0,1,0.447,1,1s-0.447,1-1,1H3.779c-1.777,0-3.223-1.445-3.223-3.222v-9.266c0-1.777,1.445-3.223,3.223-3.223h24.441c1.777,0,3.223,1.445,3.223,3.223v9.266C31.443,21.898,29.998,23.344,28.221,23.344z"/></svg>