<svg xmlns="http://www.w3.org/2000/svg" viewBox="0 0 32 32"><!--! Font Icona - https://fonticona.com | License - https://fonticona.com/license | Copyright 2022 FontIcona.com --><path d="M24.083,32c-0.092,0-0.185-0.001-0.278-0.005c-3.562-0.12-6.273-1.922-8.061-5.355c-0.925-1.779-1.119-3.698-1.185-5.171c-0.005-0.114,0.024-0.301,0.057-0.41c0.084-0.275,0.291-0.525,0.555-0.644c0.262-0.119,0.57-0.141,0.833-0.02c2.404,1.109,4.421,0.783,6.346-1.024c0.34-0.319,0.854-0.362,1.242-0.102l1.233,0.826c1.171,0.783,2.347,1.569,3.51,2.374c0.483,0.333,0.872,0.778,1.157,1.104c1.302,1.489,1.464,3.324,0.447,5.034C28.614,30.831,26.594,32,24.083,32z M16.668,22.764c0.146,1.193,0.417,2.118,0.851,2.952c1.449,2.785,3.527,4.186,6.354,4.281c1.917,0.059,3.343-0.725,4.348-2.413c0.57-0.958,0.492-1.864-0.234-2.694c-0.227-0.259-0.509-0.582-0.788-0.774c-1.155-0.8-2.322-1.58-3.484-2.357l-0.601-0.402C21.154,22.926,18.995,23.4,16.668,22.764z"/><path d="M6.196,23.897c-1.575,0-2.924-0.874-3.863-2.561c-1.413-2.539-1.202-5.23,0.61-7.783c1.515-2.134,3.711-3.413,6.528-3.802c1.649-0.229,3.366-0.03,5.403,0.625c0.333,0.106,0.585,0.379,0.667,0.719c0.082,0.339-0.02,0.696-0.267,0.942c-1.92,1.911-2.286,3.967-1.149,6.471c0.195,0.431,0.062,0.939-0.319,1.22l-0.978,0.722c-0.811,0.601-1.625,1.203-2.456,1.785c-0.633,0.444-1.266,0.815-1.881,1.104C7.69,23.713,6.919,23.897,6.196,23.897z M10.816,11.659c-0.363,0-0.718,0.024-1.07,0.073c-2.281,0.315-3.972,1.289-5.171,2.979c-1.373,1.934-1.534,3.782-0.493,5.652c0.864,1.552,1.962,1.911,3.562,1.162c0.51-0.237,1.042-0.551,1.58-0.929c0.816-0.572,1.617-1.165,2.414-1.755l0.356-0.264c-0.892-2.445-0.625-4.689,0.795-6.697C12.087,11.732,11.439,11.659,10.816,11.659z"/><path d="M24.668,16.979c-0.133,0-0.266-0.026-0.392-0.08c-0.341-0.146-0.574-0.468-0.604-0.837c-0.235-2.83-1.617-4.473-4.349-5.169c-0.443-0.112-0.753-0.512-0.753-0.969l0-0.2c-0.001-0.175-0.001-0.361,0.001-0.547l0.015-1.115c0.011-0.996,0.023-1.992,0.075-2.985c0.035-0.671,0.165-1.366,0.387-2.066c0.669-2.112,2.236-3.11,4.656-3.001c3.289,0.166,5.917,2.641,6.538,6.159c0.622,3.522-0.481,6.626-3.279,9.225c-0.357,0.332-0.741,0.635-1.141,0.947c-0.172,0.135-0.347,0.272-0.524,0.415C25.117,16.903,24.894,16.979,24.668,16.979z M20.571,9.177c2.532,0.848,4.138,2.511,4.795,4.962c0.08-0.069,0.158-0.139,0.234-0.21c2.301-2.137,3.174-4.562,2.671-7.412c-0.379-2.146-1.969-4.373-4.668-4.509c-1.498-0.087-2.265,0.391-2.65,1.606c-0.168,0.531-0.271,1.073-0.296,1.566c-0.05,0.967-0.061,1.936-0.072,2.904L20.571,9.177z"/><path d="M18.446,19.033c-1.684,0-3.054-1.37-3.054-3.054c0-1.685,1.37-3.055,3.054-3.055s3.054,1.37,3.054,3.055C21.5,17.663,20.129,19.033,18.446,19.033z M18.446,14.925c-0.581,0-1.054,0.473-1.054,1.055c0,0.581,0.473,1.054,1.054,1.054s1.054-0.473,1.054-1.054C19.5,15.397,19.027,14.925,18.446,14.925z"/></svg>