<svg xmlns="http://www.w3.org/2000/svg" viewBox="0 0 32 32"><!--! Font Icona - https://fonticona.com | License - https://fonticona.com/license | Copyright 2022 FontIcona.com --><path d="M31,32H13.222c-0.552,0-1-0.447-1-1s0.448-1,1-1H31c0.552,0,1,0.447,1,1S31.552,32,31,32z"/><path d="M31,2H13.222c-0.552,0-1-0.447-1-1s0.448-1,1-1H31c0.552,0,1,0.447,1,1S31.552,2,31,2z"/><path d="M31,22H19.333c-0.552,0-1-0.447-1-1s0.448-1,1-1H31c0.552,0,1,0.447,1,1S31.552,22,31,22z"/><path d="M31,12H19.333c-0.552,0-1-0.447-1-1s0.448-1,1-1H31c0.552,0,1,0.447,1,1S31.552,12,31,12z"/><path d="M6.379,21.241c-0.217,0-0.435-0.07-0.619-0.215l-5.379-4.241C0.14,16.596,0,16.307,0,16s0.14-0.596,0.381-0.785l5.379-4.241c0.435-0.341,1.063-0.267,1.404,0.166c0.342,0.434,0.268,1.062-0.166,1.404L2.615,16l4.383,3.456c0.434,0.342,0.508,0.971,0.166,1.404C6.967,21.11,6.674,21.241,6.379,21.241z"/></svg>