<svg xmlns="http://www.w3.org/2000/svg" viewBox="0 0 32 32"><!--! Font Icona - https://fonticona.com | License - https://fonticona.com/license | Copyright 2022 FontIcona.com --><path d="M15.9,24.939c-6.425,0-10.912-4.025-10.912-9.789c0-6.214,5.035-13.804,10.912-13.804s10.911,7.59,10.911,13.804C26.812,20.914,22.325,24.939,15.9,24.939z M15.9,3.347c-4.716,0-8.912,6.601-8.912,11.804c0,4.586,3.665,7.789,8.912,7.789c5.247,0,8.911-3.203,8.911-7.789C24.812,9.947,20.616,3.347,15.9,3.347z"/><path d="M28.414,15.956c-1.232,0-2.57-0.713-3.517-1.903l1.565-1.244c0.607,0.764,1.471,1.233,2.105,1.137c0.424-0.062,0.763-0.407,1.006-1.023c0.861-2.159-0.618-4.934-2.446-6.449c-0.685-0.567-3.096-2.303-5.361-0.865L20.694,3.92c2.265-1.438,5.219-1.051,7.71,1.014c2.356,1.952,4.309,5.517,3.029,8.726c-0.509,1.288-1.422,2.094-2.571,2.265C28.715,15.945,28.565,15.956,28.414,15.956z"/><path d="M3.402,15.956c-0.152,0-0.302-0.011-0.45-0.032c-1.151-0.171-2.066-0.977-2.576-2.268c-1.2-3.11,0.662-6.768,3.119-8.776c2.502-2.046,5.348-2.404,7.614-0.959l-1.076,1.686C7.811,4.189,5.435,5.877,4.76,6.428c-1.853,1.516-3.367,4.31-2.521,6.502c0.24,0.607,0.58,0.952,1.007,1.016c0.633,0.09,1.504-0.372,2.112-1.137l1.565,1.244C5.977,15.243,4.637,15.956,3.402,15.956z"/><path d="M15.9,21.703c-2.194,0-3.65-2.823-3.65-4.691c0-1.894,1.364-3.023,3.65-3.023c2.251,0,3.65,1.158,3.65,3.023C19.55,18.88,18.095,21.703,15.9,21.703z M15.9,15.988c-1.65,0-1.65,0.666-1.65,1.023c0,1.157,0.94,2.691,1.65,2.691c0.694,0,1.65-1.56,1.65-2.691C17.55,16.731,17.55,15.988,15.9,15.988z"/><rect x="14.9" y="20.703" width="2" height="3.236"/><circle cx="12.401" cy="9.942" r="1.25"/><circle cx="18.975" cy="9.942" r="1.25"/><path d="M1.427,30.653c-0.132,0-0.266-0.026-0.396-0.082c-0.507-0.218-0.741-0.807-0.522-1.313c1.931-4.479,8.789-7.644,9.08-7.776c0.502-0.23,1.095-0.008,1.324,0.495c0.229,0.503,0.007,1.096-0.495,1.325c-0.064,0.029-6.448,2.978-8.072,6.747C2.183,30.428,1.814,30.653,1.427,30.653z"/><path d="M31,30.653c-0.387,0-0.756-0.226-0.919-0.604c-1.625-3.77-8.008-6.718-8.072-6.747c-0.502-0.229-0.724-0.822-0.495-1.325c0.229-0.503,0.821-0.726,1.324-0.495c0.291,0.133,7.149,3.297,9.08,7.776c0.218,0.507-0.016,1.096-0.522,1.313C31.267,30.627,31.133,30.653,31,30.653z"/></svg>