<svg xmlns="http://www.w3.org/2000/svg" viewBox="0 0 32 32"><!--! Font Icona - https://fonticona.com | License - https://fonticona.com/license | Copyright 2022 FontIcona.com --><path d="M9.652,32c-0.021,0-0.042,0-0.062-0.001c-0.423-0.019-1.194-0.248-1.61-1.566L0.584,6.984C0.328,6.172,0.423,5.303,0.846,4.602C1.27,3.899,1.993,3.409,2.832,3.256l17.591-3.203c0.931-0.169,1.734,0.076,2.212,0.668c0.479,0.594,0.545,1.434,0.182,2.304l0,0L11.335,30.583C10.827,31.798,10.088,32,9.652,32z M9.328,30.105L9.328,30.105L9.328,30.105z M20.99,2c-0.054,0-0.124,0.005-0.21,0.021L3.189,5.224C2.912,5.275,2.688,5.42,2.559,5.634C2.431,5.847,2.406,6.113,2.491,6.382l7.222,22.895L20.971,2.256c0.046-0.111,0.066-0.197,0.074-0.254C21.029,2.001,21.011,2,20.99,2z M21.894,2.641h0.01H21.894z"/><path d="M12.557,26.049c-0.045,0-0.09-0.003-0.135-0.009c-0.299-0.041-0.563-0.214-0.72-0.472L0.821,7.639C0.534,7.167,0.685,6.552,1.157,6.265C1.631,5.98,2.245,6.13,2.53,6.601l10.24,16.874L29.361,7.871l-7.351-0.835L3.237,5.176c-0.55-0.054-0.951-0.544-0.896-1.094s0.556-0.946,1.094-0.896l18.788,1.861l7.366,0.836c1.37,0.156,1.776,0.949,1.888,1.283c0.111,0.334,0.261,1.213-0.743,2.159L13.242,25.778C13.055,25.953,12.81,26.049,12.557,26.049z"/></svg>