<svg xmlns="http://www.w3.org/2000/svg" viewBox="0 0 32 32"><!--! Font Icona - https://fonticona.com | License - https://fonticona.com/license | Copyright 2022 FontIcona.com --><path d="M15.992,32L15.992,32c-0.265,0-0.52-0.105-0.707-0.293l-4.381-4.381c-0.129-0.017-0.21,0.02-0.276,0.056c-0.365,0.195-0.643,0.822-0.72,1.096c-0.23,0.79-0.655,1.507-1.231,2.083c-0.917,0.918-2.137,1.423-3.434,1.423s-2.517-0.505-3.435-1.423c-0.917-0.917-1.422-2.137-1.422-3.434s0.505-2.517,1.423-3.435c0.577-0.577,1.293-1.002,2.072-1.228c0.284-0.081,0.911-0.359,1.107-0.724c0.035-0.065,0.066-0.148,0.056-0.275l-4.697-4.698c-0.189-0.189-0.294-0.446-0.293-0.713c0.002-0.268,0.11-0.523,0.302-0.709l4.539-4.538c0.113-0.113,0.251-0.197,0.403-0.246c0.752-0.239,1.492-0.181,2.137,0.17c1.271,0.692,1.731,2.271,1.78,2.449c0.142,0.485,0.417,0.949,0.791,1.324c1.227,1.226,3.223,1.226,4.45,0c1.227-1.227,1.227-3.224,0-4.451c-0.374-0.374-0.838-0.649-1.341-0.795c-0.16-0.043-1.74-0.504-2.431-1.775c-0.352-0.646-0.411-1.385-0.171-2.138c0.048-0.152,0.133-0.291,0.246-0.403l4.547-4.547c0.391-0.391,1.023-0.391,1.414,0l4.263,4.262c0.128,0.012,0.213-0.021,0.279-0.058c0.375-0.204,0.656-0.869,0.715-1.088c0.232-0.797,0.657-1.513,1.233-2.089c1.894-1.893,4.974-1.894,6.868,0c0.917,0.917,1.423,2.137,1.423,3.434c0,1.297-0.505,2.517-1.423,3.434c-0.577,0.577-1.293,1.001-2.071,1.228c-0.285,0.081-0.912,0.359-1.107,0.724c-0.036,0.066-0.066,0.149-0.056,0.276l4.828,4.833c0.376,0.393,0.37,1.015-0.015,1.399l-4.398,4.398c-0.011,0.128,0.021,0.212,0.058,0.278c0.204,0.376,0.869,0.656,1.088,0.716c0.797,0.232,1.513,0.657,2.089,1.233c1.893,1.893,1.893,4.974,0,6.868c-1.894,1.893-4.975,1.895-6.869,0c-0.577-0.576-1.001-1.293-1.228-2.072c-0.081-0.285-0.359-0.911-0.723-1.106c-0.066-0.036-0.151-0.065-0.276-0.057l-4.697,4.697C16.511,31.895,16.257,32,15.992,32z M2.467,16.061l4.193,4.194c0.113,0.113,0.197,0.251,0.246,0.403c0.229,0.718,0.172,1.424-0.164,2.042c-0.657,1.207-2.152,1.644-2.321,1.689c-0.439,0.128-0.86,0.377-1.199,0.717c-0.54,0.54-0.837,1.258-0.837,2.021s0.297,1.479,0.837,2.02c1.078,1.079,2.959,1.08,4.04,0c0.339-0.34,0.589-0.76,0.722-1.216c0.041-0.151,0.477-1.646,1.684-2.304c0.619-0.337,1.326-0.393,2.042-0.165c0.152,0.049,0.291,0.133,0.404,0.246l3.877,3.878l4.193-4.193c0.113-0.113,0.251-0.197,0.403-0.246c0.717-0.227,1.425-0.173,2.043,0.164c1.208,0.657,1.644,2.152,1.689,2.321c0.128,0.439,0.378,0.86,0.717,1.199c1.114,1.113,2.927,1.113,4.04,0c1.113-1.114,1.113-2.927,0-4.04c-0.339-0.339-0.76-0.589-1.218-0.723c-0.15-0.041-1.646-0.478-2.302-1.685c-0.336-0.618-0.393-1.324-0.164-2.042c0.048-0.152,0.133-0.29,0.246-0.403l3.897-3.897l-4.312-4.312c-0.113-0.113-0.197-0.251-0.246-0.403c-0.229-0.718-0.172-1.425,0.164-2.043c0.657-1.208,2.152-1.644,2.321-1.689c0.439-0.128,0.859-0.378,1.199-0.717c0.54-0.54,0.837-1.257,0.837-2.02c0-0.763-0.297-1.48-0.837-2.02c-1.115-1.113-2.926-1.113-4.04,0C24.278,3.181,24.035,3.59,23.9,4.054c-0.041,0.15-0.477,1.645-1.684,2.302c-0.618,0.336-1.325,0.393-2.042,0.164c-0.152-0.048-0.291-0.133-0.403-0.246l-3.759-3.759l-3.64,3.64c-0.021,0.174,0.022,0.286,0.066,0.368c0.24,0.447,0.982,0.742,1.223,0.81c0.837,0.244,1.596,0.694,2.208,1.305c2.007,2.007,2.007,5.272,0,7.279c-2.006,2.006-5.271,2.007-7.279,0c-0.611-0.612-1.061-1.371-1.301-2.195c-0.072-0.254-0.367-0.996-0.814-1.236c-0.082-0.044-0.189-0.085-0.368-0.066L2.467,16.061z"/></svg>