<svg xmlns="http://www.w3.org/2000/svg" viewBox="0 0 32 32"><!--! Font Icona - https://fonticona.com | License - https://fonticona.com/license | Copyright 2022 FontIcona.com --><path d="M16.03,32c-0.414-0.011-8.722-0.322-8.722-5.534v-1.774H5.534c-5.212,0-5.523-8.308-5.534-8.661c0.011-0.414,0.322-8.722,5.534-8.722h1.774V5.535c0-5.212,8.308-5.523,8.661-5.534c0.414,0.011,8.722,0.322,8.722,5.534v1.774h1.774c5.212,0,5.523,8.308,5.534,8.661c-0.011,0.414-0.322,8.722-5.534,8.722h-1.774v1.774C24.691,31.678,16.384,31.989,16.03,32z M5.534,9.309c-3.229,0-3.532,6.655-3.534,6.723c0.002,0.005,0.305,6.66,3.534,6.66h3.774v3.774c0,3.23,6.655,3.533,6.723,3.535c0.005-0.002,6.66-0.305,6.66-3.535v-3.774h3.774c3.229,0,3.532-6.655,3.534-6.723c-0.002-0.005-0.305-6.66-3.534-6.66h-3.774V5.535c0-3.23-6.655-3.533-6.723-3.535c-0.005,0.002-6.66,0.305-6.66,3.535v3.774H5.534z"/><rect x="8.309" y="7.309" width="7.691" height="2"/><rect x="16" y="22.691" width="7.691" height="2"/><circle cx="11.693" cy="5.141" r="1.25"/><circle cx="20.846" cy="26.375" r="1.25"/><path d="M7.309,23.698c-0.014-2.103,0.062-4.515,1.128-6.535c1.083-2.053,3.618-2.21,5.295-2.313l0.257-0.016c0.855-0.055,1.716-0.051,2.441-0.04l0,0c0.471,0,0.967-0.01,1.455-0.041l0.263-0.016c1.382-0.081,3.103-0.181,3.656-1.175c0.841-1.507,0.898-3.498,0.887-5.246l2-0.014c0.014,2.003-0.062,4.302-1.14,6.233c-1.088,1.954-3.515,2.095-5.287,2.198l-0.257,0.015c-0.854,0.052-1.712,0.049-2.437,0.038v0c-0.471,0.001-0.966,0.011-1.453,0.043l-0.263,0.016c-1.376,0.085-3.09,0.191-3.648,1.25c-0.851,1.611-0.909,3.73-0.897,5.589L7.309,23.698z"/></svg>