<svg xmlns="http://www.w3.org/2000/svg" viewBox="0 0 32 32"><!--! Font Icona - https://fonticona.com | License - https://fonticona.com/license | Copyright 2022 FontIcona.com --><path d="M23.162,32c-0.553,0-1-0.448-1-1V8c0-0.552,0.447-1,1-1s1,0.448,1,1v23C24.162,31.552,23.715,32,23.162,32z"/><path d="M16,26.189c-4.501,0-8.162-4.304-8.162-9.595C7.838,11.304,11.499,7,16,7s8.162,4.304,8.162,9.594C24.162,21.885,20.501,26.189,16,26.189z M16,9c-3.397,0-6.162,3.407-6.162,7.594c0,4.188,2.765,7.595,6.162,7.595s6.162-3.407,6.162-7.595C22.162,12.407,19.397,9,16,9z"/></svg>