<svg xmlns="http://www.w3.org/2000/svg" viewBox="0 0 32 32"><!--! Font Icona - https://fonticona.com | License - https://fonticona.com/license | Copyright 2022 FontIcona.com --><path d="M16,32C8.859,32,3.051,24.822,3.051,16S8.859,0,16,0s12.949,7.178,12.949,16S23.141,32,16,32z M16,2C9.963,2,5.051,8.28,5.051,16S9.963,30,16,30s10.949-6.28,10.949-14S22.037,2,16,2z"/><path d="M26.788,32c-0.256,0-0.513-0.098-0.708-0.293l-7.144-7.152c-0.39-0.391-0.39-1.024,0.001-1.414c0.391-0.39,1.024-0.391,1.415,0.001l7.144,7.152c0.39,0.391,0.39,1.024-0.001,1.414C27.3,31.902,27.044,32,26.788,32z"/></svg>