<svg xmlns="http://www.w3.org/2000/svg" viewBox="0 0 32 32"><!--! Font Icona - https://fonticona.com | License - https://fonticona.com/license | Copyright 2022 FontIcona.com --><path d="M9.975,9.686H0V0h9.975V9.686z M2,7.686h5.975V2H2V7.686z"/><path d="M9.975,32H0v-9.686h9.975V32z M2,30h5.975v-5.686H2V30z"/><path d="M32,9.686h-9.975V0H32V9.686z M24.025,7.686H30V2h-5.975V7.686z"/><polygon points="29.637,17.312 27.637,17.312 27.637,12.971 32,12.971 32,14.971 29.637,14.971 "/><polygon points="26.062,32 22.908,32 22.908,26.446 27.215,23.57 27.215,21.103 29.215,21.103 29.215,24.641 24.908,27.517 24.908,30 26.062,30 "/><polygon points="32,32 23.908,32 23.908,30 30,30 30,26.004 32,26.004 "/><rect y="12.69" width="2" height="6.98"/><rect x="7.948" y="16.89" width="2" height="3.428"/><rect x="5.943" y="15.862" width="4" height="2"/><rect x="14.302" y="26.543" width="3.396" height="2"/><rect x="13.302" y="27.685" width="2" height="4.406"/><rect x="13.213" width="3.046" height="2"/><rect x="22.333" y="14.181" width="2" height="2"/><polygon points="21.043,22.734 13.859,22.734 13.859,18.695 15.859,18.695 15.859,20.734 19.043,20.734 19.043,17.618 21.043,17.618 "/><polygon points="18.738,10.633 16.738,10.633 16.738,6.806 14.859,6.806 14.859,4.806 18.738,4.806 "/><polygon points="17.451,14.286 13.197,14.286 13.197,6.773 8.975,6.773 8.975,4.773 13.197,4.773 13.197,1.454 15.197,1.454 15.197,12.286 17.451,12.286 "/><rect y="11.535" width="7.911" height="2"/><rect x="3.987" y="26.157" width="2" height="2"/><rect x="26.013" y="3.843" width="2" height="2"/><rect x="3.987" y="3.797" width="2" height="2"/></svg>