<svg xmlns="http://www.w3.org/2000/svg" viewBox="0 0 32 32"><!--! Font Icona - https://fonticona.com | License - https://fonticona.com/license | Copyright 2022 FontIcona.com --><path d="M23.981,26.395c-0.552,0-1-0.447-1-1c0-1.44-0.67-2.396-1.114-2.396H10.133c-0.443,0-1.114,0.956-1.114,2.396c0,0.553-0.448,1-1,1s-1-0.447-1-1c0-2.465,1.368-4.396,3.114-4.396h11.734c1.746,0,3.114,1.932,3.114,4.396C24.981,25.947,24.533,26.395,23.981,26.395z"/><path d="M23.546,32H8.454c-1.654,0-3-1.346-3-3v-1.401c0-1.654,1.346-3,3-3h15.093c1.654,0,3,1.346,3,3V29C26.546,30.654,25.201,32,23.546,32z M8.454,26.599c-0.551,0-1,0.448-1,1V29c0,0.552,0.449,1,1,1h15.093c0.551,0,1-0.448,1-1v-1.401c0-0.552-0.449-1-1-1H8.454z"/><path d="M20.396,22.612c-1.391-2.272-2.321-5.02-2.842-8.398l1.977-0.305c0.48,3.111,1.321,5.616,2.572,7.658L20.396,22.612z"/><path d="M11.048,22.615l-1.701-1.051c1.365-2.208,2.267-4.86,2.681-7.882l1.981,0.271C13.557,17.255,12.561,20.169,11.048,22.615z"/><path d="M15.723,15.07c-2.064,0-6.865-0.231-6.865-2.374s4.801-2.374,6.865-2.374s6.865,0.231,6.865,2.374S17.787,15.07,15.723,15.07z M11.808,12.696c0.861,0.199,2.189,0.374,3.915,0.374s3.054-0.175,3.915-0.374c-0.861-0.199-2.189-0.374-3.915-0.374S12.669,12.497,11.808,12.696z"/><path d="M19.032,12.383h-6.619c-0.282,0-0.55-0.119-0.74-0.327s-0.282-0.487-0.256-0.768c0.105-1.105-1.295-3.669-2.323-5.136C8.795,5.726,8.875,5.14,9.276,4.808c0.119-0.101,1.107-0.845,2.79-0.037l1.209-1.188c0.378-0.372,0.982-0.384,1.373-0.027l1.075,0.977l1.074-0.977c0.392-0.357,0.995-0.346,1.374,0.027l1.209,1.188c1.683-0.808,2.671-0.063,2.79,0.037c0.402,0.332,0.481,0.918,0.182,1.345c-1.028,1.467-2.428,4.03-2.323,5.136c0.026,0.28-0.066,0.56-0.256,0.768S19.314,12.383,19.032,12.383z M13.34,10.383h4.766c0.211-1.119,0.799-2.374,1.371-3.4c-0.336,0.089-0.701-0.001-0.958-0.254l-1.076-1.057l-1.047,0.952c-0.382,0.346-0.965,0.346-1.345,0l-1.048-0.952l-1.076,1.057c-0.257,0.253-0.625,0.342-0.958,0.254C12.541,8.009,13.128,9.264,13.34,10.383z"/><path d="M19.598,6.101c-0.552,0-1-0.447-1-1c0-1.71-1.29-3.101-2.875-3.101s-2.875,1.391-2.875,3.101c0,0.553-0.448,1-1,1s-1-0.447-1-1C10.848,2.288,13.035,0,15.723,0s4.875,2.288,4.875,5.101C20.598,5.653,20.15,6.101,19.598,6.101z"/></svg>