<svg xmlns="http://www.w3.org/2000/svg" viewBox="0 0 32 32"><!--! Font Icona - https://fonticona.com | License - https://fonticona.com/license | Copyright 2022 FontIcona.com --><path d="M16,32C7.178,32,0,24.822,0,16S7.178,0,16,0s16,7.178,16,16S24.822,32,16,32z M16,2C8.28,2,2,8.28,2,16s6.28,14,14,14s14-6.28,14-14S23.72,2,16,2z"/><circle cx="15.311" cy="25.678" r="1.25"/><path d="M15.2,22.355c-0.006,0-0.012,0-0.018,0c-0.552-0.01-0.992-0.465-0.982-1.018c0.004-0.206-0.003-0.433-0.009-0.67c-0.034-1.331-0.087-3.344,1.501-4.428c0.485-0.332,0.991-0.64,1.49-0.942c2.077-1.262,3.351-2.125,3.351-3.897c0-2.028-2.044-3.678-4.556-3.678s-4.556,1.649-4.556,3.678c0,0.553-0.447,1-1,1s-1-0.447-1-1c0-3.131,2.94-5.678,6.556-5.678s6.556,2.547,6.556,5.678c0,2.988-2.291,4.38-4.312,5.607c-0.469,0.284-0.944,0.572-1.4,0.884c-0.638,0.436-0.663,1.447-0.63,2.725c0.007,0.268,0.014,0.523,0.01,0.757C16.19,21.919,15.745,22.355,15.2,22.355z"/></svg>