<svg xmlns="http://www.w3.org/2000/svg" viewBox="0 0 32 32"><!--! Font Icona - https://fonticona.com | License - https://fonticona.com/license | Copyright 2022 FontIcona.com --><path d="M14.715,28.948C6.601,28.948,0,22.455,0,14.474S6.601,0,14.715,0s14.716,6.493,14.716,14.474c0,4.294-1.921,8.341-5.272,11.101c-0.425,0.351-1.056,0.29-1.408-0.136c-0.351-0.426-0.29-1.056,0.136-1.408c2.887-2.379,4.543-5.862,4.543-9.557C27.431,7.596,21.727,2,14.715,2C7.704,2,2,7.596,2,14.474s5.704,12.474,12.715,12.474c1.319,0,2.618-0.197,3.861-0.585c0.527-0.163,1.088,0.129,1.253,0.656c0.165,0.527-0.129,1.088-0.656,1.253C17.736,28.721,16.236,28.948,14.715,28.948z"/><path d="M14.715,25.114c-4.567,0-8.282-4.773-8.282-10.64s3.715-10.64,8.282-10.64s8.283,4.773,8.283,10.64c0,2.329-0.571,4.538-1.65,6.389c-0.279,0.476-0.89,0.638-1.368,0.36c-0.477-0.278-0.638-0.891-0.36-1.368c0.901-1.545,1.378-3.406,1.378-5.381c0-4.764-2.818-8.64-6.283-8.64c-3.464,0-6.282,3.875-6.282,8.64s2.818,8.64,6.282,8.64c0.643,0,1.277-0.135,1.885-0.401c0.505-0.223,1.096,0.009,1.317,0.515c0.222,0.506-0.009,1.096-0.515,1.317C16.54,24.922,15.636,25.114,14.715,25.114z"/><path d="M24.998,32.002c-1.261,0-2.621-0.368-4.069-1.104c-0.033-0.017-0.064-0.035-0.095-0.055c-0.113-0.074-2.789-1.863-4.4-6.098c-0.019-0.048-0.033-0.098-0.044-0.149c-0.072-0.323-0.806-3.185-4.064-2.714c-0.441,0.068-0.875-0.171-1.058-0.581l-0.833-1.86c-0.214-0.478-0.023-1.039,0.437-1.288c0.075-0.041,7.572-3.979,12.17,3.948c0.89,1.805,2.401,3.739,3.205,3.739c0.002,0,0.005,0,0.008,0c0.285-0.004,0.645-0.423,0.962-1.122c0.149-0.327,0.462-0.549,0.82-0.582l2.873-0.26c0.32-0.024,0.625,0.094,0.835,0.33c0.211,0.235,0.298,0.557,0.235,0.867c-0.04,0.191-0.997,4.705-4.397,6.345C26.777,31.809,25.914,32.002,24.998,32.002z M21.896,29.146c1.888,0.946,3.509,1.104,4.818,0.472c1.521-0.733,2.417-2.415,2.885-3.613l-0.831,0.075c-0.652,1.155-1.486,1.748-2.485,1.762c-2.538,0.002-4.607-3.99-5.003-4.797c-2.815-4.848-6.857-4.111-8.605-3.495l0.127,0.283c3.521-0.134,5.147,2.623,5.527,4.27C19.598,27.389,21.595,28.929,21.896,29.146z"/></svg>