<svg xmlns="http://www.w3.org/2000/svg" viewBox="0 0 32 32"><!--! Font Icona - https://fonticona.com | License - https://fonticona.com/license | Copyright 2022 FontIcona.com --><path d="M6.652,16.684C2.984,16.684,0,13.699,0,10.031s2.984-6.652,6.652-6.652s6.652,2.984,6.652,6.652S10.32,16.684,6.652,16.684z M6.652,5.379C4.087,5.379,2,7.466,2,10.031s2.087,4.652,4.652,4.652s4.652-2.087,4.652-4.652S9.218,5.379,6.652,5.379z"/><path d="M25.348,16.684c-3.668,0-6.652-2.984-6.652-6.652s2.984-6.652,6.652-6.652S32,6.363,32,10.031S29.016,16.684,25.348,16.684z M25.348,5.379c-2.565,0-4.652,2.087-4.652,4.652s2.087,4.652,4.652,4.652S30,12.597,30,10.031S27.913,5.379,25.348,5.379z"/><path d="M22.027,28.621c-0.553,0-1-0.447-1-1s0.447-1,1-1c7.195,0,7.973-7.206,7.973-10.305v-6.285c0-0.553,0.447-1,1-1s1,0.447,1,1v6.285C32,23.906,28.179,28.621,22.027,28.621z"/><path d="M3.332,28.621c-0.553,0-1-0.447-1-1s0.447-1,1-1c7.195,0,7.973-7.206,7.973-10.305v-6.285c0-0.553,0.447-1,1-1s1,0.447,1,1v6.285C13.305,23.906,9.483,28.621,3.332,28.621z"/></svg>