<svg xmlns="http://www.w3.org/2000/svg" viewBox="0 0 32 32"><!--! Font Icona - https://fonticona.com | License - https://fonticona.com/license | Copyright 2022 FontIcona.com --><path d="M25.348,28.621c-3.668,0-6.652-2.984-6.652-6.652s2.984-6.652,6.652-6.652S32,18.301,32,21.969S29.016,28.621,25.348,28.621z M25.348,17.316c-2.565,0-4.652,2.087-4.652,4.652s2.087,4.652,4.652,4.652S30,24.534,30,21.969S27.913,17.316,25.348,17.316z"/><path d="M6.652,28.621C2.984,28.621,0,25.637,0,21.969s2.984-6.652,6.652-6.652s6.652,2.984,6.652,6.652S10.32,28.621,6.652,28.621z M6.652,17.316C4.087,17.316,2,19.403,2,21.969s2.087,4.652,4.652,4.652s4.652-2.087,4.652-4.652S9.218,17.316,6.652,17.316z"/><path d="M1,22.969c-0.553,0-1-0.447-1-1v-6.285C0,8.094,3.821,3.379,9.973,3.379c0.553,0,1,0.447,1,1s-0.447,1-1,1C2.777,5.379,2,12.585,2,15.684v6.285C2,22.521,1.553,22.969,1,22.969z"/><path d="M19.695,22.969c-0.553,0-1-0.447-1-1v-6.285c0-7.59,3.821-12.305,9.973-12.305c0.553,0,1,0.447,1,1s-0.447,1-1,1c-7.195,0-7.973,7.206-7.973,10.305v6.285C20.695,22.521,20.248,22.969,19.695,22.969z"/></svg>