<svg xmlns="http://www.w3.org/2000/svg" viewBox="0 0 32 32"><!--! Font Icona - https://fonticona.com | License - https://fonticona.com/license | Copyright 2022 FontIcona.com --><path d="M5.127,29.844c-0.553,0-1-0.448-1-1V2.971C4.127,1.333,5.46,0,7.099,0h19.774c0.553,0,1,0.448,1,1v25.688c0,0.552-0.447,1-1,1H7.283c-0.553,0-1-0.448-1-1s0.447-1,1-1h18.59V2H7.099C6.562,2,6.127,2.436,6.127,2.971v25.873C6.127,29.396,5.68,29.844,5.127,29.844z"/><path d="M26.873,32H7.283c-1.74,0-3.156-1.416-3.156-3.156s1.416-3.156,3.156-3.156c0.553,0,1,0.448,1,1s-0.447,1-1,1c-0.638,0-1.156,0.519-1.156,1.156C6.127,29.481,6.646,30,7.283,30h18.59v-3.312c0-0.552,0.447-1,1-1s1,0.448,1,1V31C27.873,31.552,27.426,32,26.873,32z"/><polygon points="22.27,17.735 19.781,15.928 17.293,17.735 18.244,14.812 15.756,13.005 18.831,13.005 19.781,10.084 20.731,13.005 23.807,13.005 21.318,14.812 "/><path d="M17.358,20.958c-3.907,0-7.086-3.179-7.086-7.086s3.179-7.086,7.086-7.086c0.98,0,1.93,0.197,2.822,0.584c0.507,0.22,0.739,0.809,0.519,1.316c-0.219,0.507-0.806,0.741-1.315,0.519c-0.64-0.278-1.321-0.418-2.025-0.418c-2.805,0-5.086,2.282-5.086,5.086s2.281,5.086,5.086,5.086c0.703,0,1.385-0.141,2.025-0.419c0.508-0.221,1.097,0.012,1.315,0.519c0.221,0.507-0.012,1.096-0.519,1.315C19.287,20.761,18.338,20.958,17.358,20.958z"/></svg>