<svg xmlns="http://www.w3.org/2000/svg" viewBox="0 0 32 32"><!--! Font Icona - https://fonticona.com | License - https://fonticona.com/license | Copyright 2022 FontIcona.com --><path d="M7.398,32c-0.553,0-1-0.448-1-1V1c0-0.552,0.447-1,1-1h7.858c4.885,0,8.858,3.706,8.858,8.262s-3.974,8.262-8.858,8.262c-0.553,0-1-0.448-1-1s0.447-1,1-1c3.781,0,6.858-2.809,6.858-6.262C22.115,4.809,19.038,2,15.257,2H8.398v29C8.398,31.552,7.951,32,7.398,32z"/><path d="M15.257,16.524H7.398c-0.553,0-1-0.448-1-1s0.447-1,1-1h7.858c0.553,0,1,0.448,1,1S15.81,16.524,15.257,16.524z"/><path d="M24.603,31.543c-0.362,0-0.711-0.197-0.889-0.54l-7.854-15.154c-0.254-0.49-0.062-1.094,0.428-1.348c0.487-0.253,1.094-0.063,1.348,0.428l7.854,15.154c0.254,0.49,0.062,1.094-0.428,1.348C24.915,31.507,24.758,31.543,24.603,31.543z"/></svg>