<svg xmlns="http://www.w3.org/2000/svg" viewBox="0 0 32 32"><!--! Font Icona - https://fonticona.com | License - https://fonticona.com/license | Copyright 2022 FontIcona.com --><path d="M11.694,25.704c-0.553,0-1-0.448-1-1V7.478c0-0.552,0.447-1,1-1s1,0.448,1,1v17.226C12.694,25.256,12.247,25.704,11.694,25.704z"/><path d="M11.694,13.497c-0.054,0-0.108-0.004-0.164-0.013c-0.541-0.09-0.909-0.595-0.824-1.137c0.01-0.061,1.052-6.051,9.6-6.051c0.553,0,1,0.448,1,1s-0.447,1-1,1c-6.776,0-7.594,4.192-7.625,4.37C12.595,13.151,12.172,13.497,11.694,13.497z"/></svg>