<svg xmlns="http://www.w3.org/2000/svg" viewBox="0 0 32 32"><!--! Font Icona - https://fonticona.com | License - https://fonticona.com/license | Copyright 2022 FontIcona.com --><path d="M26.493,28.317c-0.354,0-0.697-0.188-0.879-0.521l-3.087-5.659c-0.018-0.033-0.034-0.067-0.048-0.102c-0.009-0.021-1.018-2.346-2.585-2.346h-4.143v7.627c0,0.552-0.448,1-1,1s-1-0.448-1-1V9.964c0-0.552,0.448-1,1-1h8.23c2.688,0,4.874,2.406,4.874,5.363c0,2.808-1.971,5.119-4.47,5.345c0.528,0.692,0.833,1.348,0.921,1.55l3.064,5.616c0.265,0.485,0.086,1.092-0.399,1.357C26.819,28.278,26.655,28.317,26.493,28.317z M15.751,17.69h7.23c1.584,0,2.874-1.509,2.874-3.363c0-1.854-1.289-3.363-2.874-3.363h-7.23V17.69z"/><path d="M18.061,23.461c-0.516,0-0.953-0.396-0.996-0.919c-0.045-0.55,0.365-1.033,0.916-1.078c0.563-0.046,1.116-0.111,1.656-0.195c0.547-0.082,1.057,0.289,1.142,0.835c0.084,0.546-0.29,1.057-0.835,1.142c-0.587,0.091-1.188,0.162-1.801,0.212C18.116,23.46,18.088,23.461,18.061,23.461z"/><path d="M11.222,23.082c-0.065,0-0.131-0.006-0.197-0.02C4.431,21.744,0,17.947,0,13.614c0-5.569,7.028-9.931,16-9.931s16,4.362,16,9.931c0,2.664-1.639,5.154-4.615,7.012c-0.469,0.293-1.085,0.15-1.378-0.318c-0.292-0.469-0.15-1.085,0.318-1.378C28.695,17.45,30,15.562,30,13.614c0-4.299-6.411-7.931-14-7.931S2,9.314,2,13.614c0,3.3,3.873,6.379,9.417,7.488c0.542,0.108,0.893,0.635,0.784,1.177C12.107,22.753,11.689,23.082,11.222,23.082z"/></svg>