<svg xmlns="http://www.w3.org/2000/svg" viewBox="0 0 32 32"><!--! Font Icona - https://fonticona.com | License - https://fonticona.com/license | Copyright 2022 FontIcona.com --><path d="M29,32H3c-1.654,0-3-1.346-3-3V13.435c0-1.654,1.346-3,3-3h26c1.654,0,3,1.346,3,3V29C32,30.654,30.654,32,29,32z M3,12.435c-0.551,0-1,0.448-1,1V29c0,0.552,0.449,1,1,1h26c0.551,0,1-0.448,1-1V13.435c0-0.552-0.449-1-1-1H3z"/><path d="M25.976,20.06c-1.486,0-2.694-1.201-2.694-2.678s1.208-2.679,2.694-2.679s2.695,1.202,2.695,2.679S27.461,20.06,25.976,20.06z M25.976,16.703c-0.383,0-0.694,0.305-0.694,0.679s0.312,0.678,0.694,0.678c0.383,0,0.695-0.304,0.695-0.678S26.359,16.703,25.976,16.703z"/><path d="M25.976,27.731c-1.486,0-2.694-1.201-2.694-2.678s1.208-2.679,2.694-2.679s2.695,1.202,2.695,2.679S27.461,27.731,25.976,27.731z M25.976,24.375c-0.383,0-0.694,0.305-0.694,0.679s0.312,0.678,0.694,0.678c0.383,0,0.695-0.304,0.695-0.678S26.359,24.375,25.976,24.375z"/><path d="M28.902,12.435c-0.552,0-1-0.447-1-1V10.02H25.61v1.415c0,0.553-0.448,1-1,1s-1-0.447-1-1V9.792c0-0.978,0.799-1.772,1.78-1.772h2.732c0.981,0,1.78,0.795,1.78,1.772v1.643C29.902,11.987,29.455,12.435,28.902,12.435z"/><path d="M11.546,28.401c-3.995,0-7.244-3.223-7.244-7.184s3.25-7.184,7.244-7.184s7.244,3.223,7.244,7.184S15.541,28.401,11.546,28.401z M11.546,16.034c-2.892,0-5.244,2.325-5.244,5.184s2.353,5.184,5.244,5.184s5.244-2.325,5.244-5.184S14.438,16.034,11.546,16.034z"/><path d="M16.53,19.182H6.562c-0.552,0-1-0.447-1-1s0.448-1,1-1h9.968c0.552,0,1,0.447,1,1S17.082,19.182,16.53,19.182z"/><path d="M16.53,25.244H6.562c-0.552,0-1-0.447-1-1s0.448-1,1-1h9.968c0.552,0,1,0.447,1,1S17.082,25.244,16.53,25.244z"/><path d="M17.561,22.218H5.564c-0.552,0-1-0.447-1-1s0.448-1,1-1h11.997c0.552,0,1,0.447,1,1S18.113,22.218,17.561,22.218z"/><path d="M26.999,10.02c-0.184,0-0.37-0.051-0.537-0.156l-12.585-8.02c-0.465-0.297-0.603-0.915-0.306-1.381c0.296-0.466,0.914-0.603,1.381-0.307l12.585,8.02c0.465,0.297,0.603,0.915,0.306,1.381C27.653,9.856,27.33,10.02,26.999,10.02z"/></svg>