<svg xmlns="http://www.w3.org/2000/svg" viewBox="0 0 32 32"><!--! Font Icona - https://fonticona.com | License - https://fonticona.com/license | Copyright 2022 FontIcona.com --><path d="M10.955,15.898H1c-0.552,0-1-0.447-1-1C-0.001,9.164,3.093,3.838,8.073,0.997c0.478-0.271,1.086-0.108,1.36,0.368l4.993,8.636c0.267,0.461,0.126,1.05-0.32,1.34c-1.237,0.804-2.043,2.162-2.154,3.633C11.913,15.495,11.479,15.898,10.955,15.898z M2.036,13.898h8.058c0.311-1.414,1.072-2.704,2.161-3.658L8.218,3.258C4.635,5.655,2.345,9.598,2.036,13.898z"/><path d="M31,15.898h-9.955c-0.524,0-0.96-0.405-0.997-0.928c-0.106-1.466-0.901-2.824-2.128-3.634c-0.441-0.291-0.579-0.875-0.316-1.333l4.961-8.636c0.274-0.479,0.884-0.644,1.362-0.371c4.98,2.841,8.074,8.167,8.073,13.901C32,15.451,31.552,15.898,31,15.898z M21.909,13.898h8.055c-0.308-4.3-2.598-8.241-6.18-10.639l-4.012,6.984C20.851,11.2,21.604,12.489,21.909,13.898z"/><path d="M16.063,31.13c-2.863,0-5.723-0.766-8.253-2.291c-0.473-0.285-0.625-0.898-0.341-1.372l5.129-8.531c0.271-0.449,0.842-0.612,1.31-0.376c1.312,0.665,2.889,0.685,4.216,0.053c0.474-0.229,1.046-0.046,1.304,0.416l4.847,8.698c0.268,0.48,0.096,1.088-0.384,1.358C21.463,30.449,18.762,31.13,16.063,31.13z M9.717,27.611c3.846,1.956,8.403,2.028,12.308,0.187l-3.92-7.035c-1.377,0.43-2.87,0.411-4.236-0.056L9.717,27.611z"/><path d="M16,18.002c-1.625,0-2.947-1.321-2.947-2.946s1.322-2.947,2.947-2.947s2.947,1.322,2.947,2.947S17.625,18.002,16,18.002z M16,14.108c-0.522,0-0.947,0.425-0.947,0.947c0,0.521,0.425,0.946,0.947,0.946s0.947-0.425,0.947-0.946C16.947,14.533,16.522,14.108,16,14.108z"/></svg>