<svg xmlns="http://www.w3.org/2000/svg" viewBox="0 0 32 32"><!--! Font Icona - https://fonticona.com | License - https://fonticona.com/license | Copyright 2022 FontIcona.com --><path d="M6.314,32c-1.487,0-2.696-1.239-2.696-2.762V13.052c0-1.522,1.209-2.761,2.696-2.761s2.696,1.238,2.696,2.761v16.187C9.011,30.761,7.801,32,6.314,32z M6.314,12.291c-0.384,0-0.696,0.341-0.696,0.761v16.187c0,0.42,0.312,0.762,0.696,0.762s0.696-0.342,0.696-0.762V13.052C7.011,12.632,6.698,12.291,6.314,12.291z"/><path d="M12.345,32c-1.487,0-2.696-1.239-2.696-2.762V13.052c0-1.522,1.209-2.761,2.696-2.761s2.696,1.238,2.696,2.761v16.187C15.042,30.761,13.832,32,12.345,32z M12.345,12.291c-0.384,0-0.696,0.341-0.696,0.761v16.187c0,0.42,0.312,0.762,0.696,0.762s0.696-0.342,0.696-0.762V13.052C13.042,12.632,12.729,12.291,12.345,12.291z"/><path d="M18.376,32c-1.487,0-2.696-1.239-2.696-2.762V13.052c0-1.522,1.209-2.761,2.696-2.761s2.696,1.238,2.696,2.761v16.187C21.073,30.761,19.863,32,18.376,32z M18.376,12.291c-0.384,0-0.696,0.341-0.696,0.761v16.187c0,0.42,0.312,0.762,0.696,0.762s0.696-0.342,0.696-0.762V13.052C19.073,12.632,18.76,12.291,18.376,12.291z"/><path d="M24.407,32c-1.487,0-2.696-1.239-2.696-2.762V13.052c0-1.522,1.209-2.761,2.696-2.761s2.696,1.238,2.696,2.761v16.187C27.104,30.761,25.894,32,24.407,32z M24.407,12.291c-0.384,0-0.696,0.341-0.696,0.761v16.187c0,0.42,0.312,0.762,0.696,0.762s0.696-0.342,0.696-0.762V13.052C25.104,12.632,24.791,12.291,24.407,12.291z"/><path d="M29.25,15.508h-3.146c-0.552,0-1-0.447-1-1s0.448-1,1-1h3.146c0.552,0,1,0.447,1,1S29.802,15.508,29.25,15.508z"/><path d="M22.711,15.508h-2.639c-0.552,0-1-0.447-1-1s0.448-1,1-1h2.639c0.552,0,1,0.447,1,1S23.264,15.508,22.711,15.508z"/><path d="M16.68,15.508h-2.639c-0.552,0-1-0.447-1-1s0.448-1,1-1h2.639c0.552,0,1,0.447,1,1S17.232,15.508,16.68,15.508z"/><path d="M10.649,15.508H8.01c-0.552,0-1-0.447-1-1s0.448-1,1-1h2.639c0.552,0,1,0.447,1,1S11.201,15.508,10.649,15.508z"/><path d="M4.618,15.508H2.75c-0.552,0-1-0.447-1-1s0.448-1,1-1h1.868c0.552,0,1,0.447,1,1S5.17,15.508,4.618,15.508z"/><path d="M29.25,16.963c-0.552,0-1-0.447-1-1v-2.911c0-0.553,0.448-1,1-1s1,0.447,1,1v2.911C30.25,16.516,29.802,16.963,29.25,16.963z"/><path d="M29.25,28.579h-3.146c-0.552,0-1-0.447-1-1s0.448-1,1-1h3.146c0.552,0,1,0.447,1,1S29.802,28.579,29.25,28.579z"/><path d="M22.711,28.579h-2.639c-0.552,0-1-0.447-1-1s0.448-1,1-1h2.639c0.552,0,1,0.447,1,1S23.264,28.579,22.711,28.579z"/><path d="M16.68,28.579h-2.639c-0.552,0-1-0.447-1-1s0.448-1,1-1h2.639c0.552,0,1,0.447,1,1S17.232,28.579,16.68,28.579z"/><path d="M10.649,28.579H8.01c-0.552,0-1-0.447-1-1s0.448-1,1-1h2.639c0.552,0,1,0.447,1,1S11.201,28.579,10.649,28.579z"/><path d="M4.618,28.579H2.75c-0.552,0-1-0.447-1-1s0.448-1,1-1h1.868c0.552,0,1,0.447,1,1S5.17,28.579,4.618,28.579z"/><path d="M29.25,30.034c-0.552,0-1-0.447-1-1v-2.91c0-0.553,0.448-1,1-1s1,0.447,1,1v2.91C30.25,29.587,29.802,30.034,29.25,30.034z"/><path d="M9.395,9.08c-0.26,0-0.52-0.101-0.716-0.302C7.958,8.038,7.619,6.873,7.75,5.581c0.089-0.768,0.479-1.26,0.764-1.619c0.142-0.179,0.265-0.334,0.325-0.483c0.292-0.582,0.023-1.36-0.358-1.907C8.166,1.118,8.277,0.495,8.73,0.18c0.454-0.318,1.077-0.204,1.392,0.249c0.7,1.006,1.208,2.553,0.535,3.879c-0.133,0.338-0.378,0.647-0.576,0.896C9.865,5.478,9.759,5.617,9.738,5.797c-0.068,0.677,0.07,1.275,0.373,1.585c0.385,0.396,0.377,1.029-0.019,1.414C9.898,8.985,9.646,9.08,9.395,9.08z"/><path d="M15.345,9.08c-0.26,0-0.52-0.101-0.716-0.302c-0.721-0.74-1.059-1.905-0.928-3.197c0.089-0.767,0.479-1.26,0.764-1.619c0.142-0.179,0.264-0.334,0.325-0.483c0.292-0.582,0.023-1.36-0.357-1.907c-0.315-0.454-0.204-1.077,0.25-1.393c0.454-0.315,1.078-0.202,1.392,0.25c0.7,1.007,1.208,2.554,0.534,3.879c-0.133,0.338-0.378,0.647-0.575,0.896c-0.217,0.274-0.322,0.414-0.343,0.594c-0.068,0.677,0.07,1.275,0.373,1.585c0.385,0.396,0.377,1.029-0.019,1.414C15.849,8.985,15.597,9.08,15.345,9.08z"/><path d="M21.458,9.08c-0.26,0-0.52-0.101-0.716-0.302c-0.721-0.74-1.059-1.905-0.928-3.197c0.089-0.768,0.479-1.26,0.764-1.619c0.142-0.179,0.265-0.334,0.325-0.483c0.292-0.582,0.023-1.36-0.358-1.907c-0.315-0.453-0.204-1.076,0.25-1.392c0.455-0.318,1.076-0.204,1.392,0.249c0.7,1.006,1.208,2.553,0.535,3.879c-0.133,0.338-0.378,0.647-0.576,0.896c-0.217,0.273-0.322,0.413-0.343,0.593c-0.068,0.677,0.07,1.275,0.373,1.585c0.385,0.396,0.377,1.029-0.019,1.414C21.961,8.985,21.709,9.08,21.458,9.08z"/></svg>