<svg xmlns="http://www.w3.org/2000/svg" viewBox="0 0 32 32"><!--! Font Icona - https://fonticona.com | License - https://fonticona.com/license | Copyright 2022 FontIcona.com --><path d="M31,24.382c-0.552,0-1-0.448-1-1c0-7.72-6.28-14-14-14s-14,6.28-14,14c0,0.552-0.448,1-1,1s-1-0.448-1-1c0-8.822,7.178-16,16-16s16,7.178,16,16C32,23.935,31.552,24.382,31,24.382z"/><path d="M20.891,24.382c-0.552,0-1-0.448-1-1c0-2.146-1.746-3.891-3.891-3.891s-3.891,1.746-3.891,3.891c0,0.552-0.448,1-1,1s-1-0.448-1-1c0-3.249,2.643-5.891,5.891-5.891s5.891,2.643,5.891,5.891C21.891,23.935,21.443,24.382,20.891,24.382z"/><path d="M25.783,24.618c-0.552,0-1-0.448-1-1c0-4.843-3.94-8.783-8.783-8.783s-8.783,3.94-8.783,8.783c0,0.552-0.448,1-1,1s-1-0.448-1-1c0-5.946,4.837-10.783,10.783-10.783s10.783,4.837,10.783,10.783C26.783,24.17,26.335,24.618,25.783,24.618z"/></svg>