<svg xmlns="http://www.w3.org/2000/svg" viewBox="0 0 32 32"><!--! Font Icona - https://fonticona.com | License - https://fonticona.com/license | Copyright 2022 FontIcona.com --><path d="M16,32C7.178,32,0,24.822,0,16S7.178,0,16,0s16,7.178,16,16S24.822,32,16,32z M16,2C8.28,2,2,8.28,2,16s6.28,14,14,14s14-6.28,14-14S23.72,2,16,2z"/><path d="M17.365,25.042h-6.063c-0.552,0-1-0.448-1-1V8.591c0-0.552,0.448-1,1-1h6.063c0.538,0,0.976,0.424,0.999,0.957c0.954-0.658,2.294-1.094,4.125-0.954c0.521,0.04,0.924,0.474,0.924,0.997v5.94c0,0.552-0.448,1-1,1c-1.935,0.002-3.811,0.48-4.048,0.875v7.635C18.365,24.594,17.917,25.042,17.365,25.042z M12.302,23.042h4.063v-6.787c0-0.064,0.006-0.129,0.019-0.193c0.375-1.908,3.262-2.386,5.029-2.499V9.582c-2.559,0.179-3.018,2.042-3.065,2.275c-0.103,0.503-0.568,0.853-1.082,0.802c-0.511-0.051-0.901-0.476-0.901-0.989V9.591h-4.063V23.042z"/></svg>