<svg xmlns="http://www.w3.org/2000/svg" viewBox="0 0 32 32"><!--! Font Icona - https://fonticona.com | License - https://fonticona.com/license | Copyright 2022 FontIcona.com --><circle cx="16" cy="16" r="2"/><path d="M16,22.725c-7.757,0-16-2.357-16-6.725s8.243-6.725,16-6.725S32,11.632,32,16S23.757,22.725,16,22.725z M16,11.275C7.987,11.275,2,13.77,2,16s5.987,4.725,14,4.725S30,18.23,30,16S24.013,11.275,16,11.275z"/><path d="M22.422,30.205c-1.454,0-3.192-0.758-5.071-2.238c-2.475-1.95-5.005-4.975-7.122-8.515l0,0c-2.117-3.541-3.585-7.2-4.131-10.304C5.494,5.724,6.095,3.28,7.789,2.268c1.692-1.011,4.129-0.386,6.86,1.766c2.475,1.95,5.005,4.975,7.122,8.515c2.117,3.541,3.585,7.2,4.131,10.304c0.604,3.424,0.003,5.867-1.691,6.88C23.683,30.048,23.082,30.205,22.422,30.205z M11.945,18.425c1.995,3.336,4.354,6.167,6.644,7.97c1.973,1.555,3.693,2.161,4.596,1.621c0.905-0.541,1.185-2.341,0.748-4.816c-0.505-2.869-1.883-6.287-3.878-9.624c-1.995-3.336-4.354-6.167-6.644-7.97C11.438,4.05,9.717,3.441,8.815,3.984C7.91,4.525,7.631,6.325,8.067,8.801C8.572,11.67,9.95,15.088,11.945,18.425L11.945,18.425z"/><path d="M9.578,30.205c-0.66,0-1.261-0.156-1.79-0.472c-1.693-1.013-2.294-3.456-1.69-6.88c0.546-3.104,2.014-6.763,4.131-10.304c2.117-3.541,4.647-6.565,7.122-8.515c2.732-2.151,5.168-2.777,6.861-1.766c1.693,1.013,2.294,3.456,1.69,6.88c-0.546,3.104-2.014,6.763-4.131,10.304l0,0c-2.117,3.541-4.647,6.565-7.122,8.515C12.771,29.446,11.031,30.205,9.578,30.205z M22.398,3.791c-0.96,0-2.311,0.633-3.81,1.814c-2.289,1.803-4.648,4.634-6.644,7.97c-1.995,3.337-3.373,6.755-3.878,9.624c-0.437,2.476-0.157,4.276,0.747,4.816c0.908,0.542,2.623-0.065,4.597-1.621c2.289-1.803,4.648-4.634,6.644-7.97l0,0c1.995-3.337,3.373-6.755,3.878-9.624c0.437-2.476,0.157-4.276-0.747-4.816C22.968,3.854,22.702,3.791,22.398,3.791z"/></svg>