<svg xmlns="http://www.w3.org/2000/svg" viewBox="0 0 32 32"><!--! Font Icona - https://fonticona.com | License - https://fonticona.com/license | Copyright 2022 FontIcona.com --><path d="M16,28.083c-0.3,0-0.583-0.134-0.773-0.366c-3.256-3.971-9.312-3.764-9.386-3.765L1,23.954c-0.553,0-1-0.448-1-1V4.917c0-0.265,0.105-0.52,0.293-0.707S0.734,3.917,1,3.917l0,0l8.866,0.001C13.104,3.849,14.979,5.153,16,6.542c1.009-1.37,2.868-2.625,6.016-2.625c0.043,0,0.086,0,0.129,0L31,3.917c0.265,0,0.52,0.105,0.707,0.293S32,4.651,32,4.917v18.037c0,0.552-0.447,1-1,1h-4.798c-0.106-0.004-6.17-0.21-9.429,3.764C16.583,27.949,16.3,28.083,16,28.083z M6.111,21.948c1.315,0,6.395,0.236,9.889,3.657c3.968-3.884,9.982-3.661,10.247-3.65L30,21.954V5.917l-7.866,0.001c-4.725-0.02-5.125,3.11-5.141,3.245c-0.059,0.504-0.485,0.885-0.993,0.885s-0.935-0.38-0.993-0.885c-0.045-0.329-0.629-3.304-5.13-3.245L2,5.917v16.037h3.798C5.825,21.952,5.935,21.948,6.111,21.948z"/><path d="M12.934,12.901H5.646c-0.553,0-1-0.448-1-1s0.447-1,1-1h7.288c0.553,0,1,0.448,1,1S13.486,12.901,12.934,12.901z"/><path d="M12.934,16.089H5.646c-0.553,0-1-0.448-1-1s0.447-1,1-1h7.288c0.553,0,1,0.448,1,1S13.486,16.089,12.934,16.089z"/><path d="M12.934,19.278H5.646c-0.553,0-1-0.448-1-1s0.447-1,1-1h7.288c0.553,0,1,0.448,1,1S13.486,19.278,12.934,19.278z"/><path d="M26.566,12.901h-7.287c-0.553,0-1-0.448-1-1s0.447-1,1-1h7.287c0.553,0,1,0.448,1,1S27.119,12.901,26.566,12.901z"/><path d="M26.566,16.089h-7.287c-0.553,0-1-0.448-1-1s0.447-1,1-1h7.287c0.553,0,1,0.448,1,1S27.119,16.089,26.566,16.089z"/><path d="M26.566,19.278h-7.287c-0.553,0-1-0.448-1-1s0.447-1,1-1h7.287c0.553,0,1,0.448,1,1S27.119,19.278,26.566,19.278z"/></svg>