<svg xmlns="http://www.w3.org/2000/svg" viewBox="0 0 32 32"><!--! Font Icona - https://fonticona.com | License - https://fonticona.com/license | Copyright 2022 FontIcona.com --><path d="M16.146,32c-0.662,0-1.323-0.04-1.981-0.118c-3.63-0.433-6.781-1.928-9.365-4.446c-2.456-2.392-3.987-5.278-4.552-8.579c-0.775-4.519,0.279-8.67,3.133-12.337c1.1-1.412,2.496-2.68,4.151-3.767c0.072-0.048,0.154-0.096,0.237-0.137C7.924,2.54,8.141,2.502,8.314,2.514C8.684,2.538,9.029,2.764,9.183,3.1C9.335,3.437,9.31,3.831,9.084,4.124L8.773,4.521C8.572,4.775,8.375,5.025,8.192,5.285C7.062,6.893,6.363,8.44,6.059,10.014c-0.491,2.551,0.178,4.679,2.046,6.506c0.653,0.64,1.419,1.003,2.274,1.081c0.548,0.051,1.039-0.126,1.526-0.555c0.43-0.379,0.697-0.902,0.924-1.805c0.351-1.4,0.174-2.838-0.557-4.525c-0.464-1.073-1.256-1.85-2.42-2.375L9.714,8.274C9.436,8.132,9.211,7.853,9.156,7.545C9.101,7.238,9.164,6.908,9.375,6.678l1.139-1.233c0.166-0.177,0.331-0.353,0.489-0.535c0.353-0.406,0.853-0.536,1.333-0.356c-0.215-0.373-0.167-0.844,0.124-1.167l2.748-3.055c0.379-0.422,1.107-0.421,1.486,0l2.717,3.021c0.283,0.314,0.338,0.773,0.136,1.145c-0.017,0.032-0.034,0.063-0.051,0.094c0.017-0.009,0.033-0.018,0.05-0.027c0.405-0.221,0.911-0.138,1.221,0.203l1.71,1.878c0.201,0.221,0.293,0.521,0.25,0.817c-0.043,0.296-0.217,0.558-0.473,0.712l-0.396,0.232c-0.25,0.144-0.498,0.285-0.727,0.45c-0.838,0.605-1.404,1.401-1.731,2.433c-0.49,1.552-0.575,2.864-0.267,4.13c0.179,0.73,0.448,1.246,0.849,1.625c0.884,0.834,1.88,0.629,2.56,0.312c0.841-0.394,1.539-1.005,2.132-1.868c0.966-1.403,1.422-2.855,1.394-4.439c-0.022-1.337-0.404-2.663-1.166-4.052c-0.519-0.949-1.176-1.867-1.952-2.729c-0.03-0.034-0.104-0.132-0.13-0.169c-0.246-0.362-0.254-0.879,0.018-1.221c0.272-0.342,0.71-0.506,1.117-0.349c0.176,0.06,0.326,0.11,0.485,0.221c1.465,1.026,3.322,2.45,4.729,4.386c1.17,1.61,1.986,3.479,2.429,5.556c0.22,1.032,0.438,2.255,0.4,3.508c-0.125,3.899-1.229,7.146-3.372,9.928c-2.081,2.699-4.882,4.501-8.324,5.356C18.923,31.828,17.532,32,16.146,32z M4.347,8.589c-2.03,2.993-2.746,6.329-2.129,9.93c0.492,2.875,1.83,5.394,3.977,7.484c2.262,2.204,5.023,3.513,8.206,3.892c1.792,0.214,3.616,0.096,5.417-0.351c2.994-0.745,5.424-2.305,7.223-4.637c1.879-2.437,2.846-5.306,2.957-8.77c0.031-1.036-0.153-2.068-0.358-3.029c-0.37-1.74-1.008-3.247-1.949-4.598c0.238,0.833,0.362,1.663,0.377,2.504c0.035,1.986-0.553,3.873-1.745,5.607c-0.801,1.164-1.76,1.996-2.933,2.545c-1.727,0.809-3.469,0.566-4.78-0.669c-0.684-0.646-1.148-1.498-1.419-2.605c-0.394-1.614-0.294-3.317,0.304-5.207c0.455-1.438,1.284-2.598,2.467-3.452c0.07-0.051,0.142-0.1,0.215-0.148l-0.33-0.363c-0.655,0.449-1.206,0.981-1.669,1.61c-0.241,0.327-0.651,0.477-1.051,0.377c-0.394-0.1-0.688-0.428-0.745-0.83c-0.045-0.316-0.174-1.229,1.079-3.709l-1.508-1.677L14.436,4.18c0.615,1.126,1.312,2.795,1.026,3.792c-0.091,0.318-0.334,0.571-0.649,0.674c-0.315,0.102-0.66,0.043-0.923-0.159c-0.054-0.042-0.135-0.114-0.179-0.166L13.579,8.15c-0.444-0.593-0.938-1.068-1.503-1.448c-0.034,0.037-0.068,0.073-0.103,0.11l-0.257,0.275c1.081,0.708,1.882,1.657,2.392,2.834c0.901,2.082,1.118,3.981,0.66,5.806c-0.219,0.873-0.592,1.981-1.54,2.818c-0.902,0.795-1.913,1.151-3.03,1.048c-1.308-0.119-2.516-0.688-3.492-1.644c-2.353-2.301-3.231-5.099-2.61-8.315C4.163,9.285,4.246,8.937,4.347,8.589z"/></svg>