<svg xmlns="http://www.w3.org/2000/svg" viewBox="0 0 32 32"><!--! Font Icona - https://fonticona.com | License - https://fonticona.com/license | Copyright 2022 FontIcona.com --><path d="M31,30.726c-0.553,0-1-0.447-1-1V17.117c-1.862,0.212-6.102,0.556-14,0.556S3.862,17.329,2,17.117v12.608c0,0.553-0.447,1-1,1s-1-0.447-1-1V15.973c0-0.297,0.132-0.577,0.36-0.768c0.228-0.19,0.532-0.268,0.819-0.216c0.038,0.007,3.892,0.684,14.82,0.684s14.782-0.677,14.82-0.684c0.286-0.054,0.592,0.025,0.819,0.216c0.229,0.19,0.36,0.471,0.36,0.768v13.753C32,30.278,31.553,30.726,31,30.726z"/><path d="M29.613,16.52c-0.539,0-0.983-0.43-0.999-0.973C28.43,8.853,23.042,3.464,16.348,3.279c-3.386-0.116-6.574,1.132-9.022,3.449c-2.447,2.316-3.847,5.448-3.939,8.818C3.37,16.09,2.926,16.52,2.387,16.52c-0.01,0-0.02,0-0.028,0c-0.553-0.016-0.987-0.476-0.973-1.027C1.493,11.588,3.114,7.96,5.951,5.275c2.835-2.683,6.532-4.093,10.451-3.996C24.158,1.493,30.4,7.736,30.614,15.492c0.015,0.552-0.42,1.012-0.973,1.027C29.633,16.52,29.623,16.52,29.613,16.52z"/><path d="M21.936,16.891c-0.553,0-1-0.447-1-1c0-2.722-2.214-4.936-4.936-4.936s-4.936,2.214-4.936,4.936c0,0.553-0.447,1-1,1s-1-0.447-1-1c0-3.824,3.111-6.936,6.936-6.936s6.936,3.111,6.936,6.936C22.936,16.443,22.488,16.891,21.936,16.891z"/><circle cx="16" cy="14.963" r="1.25"/></svg>