<svg xmlns="http://www.w3.org/2000/svg" viewBox="0 0 32 32"><!--! Font Icona - https://fonticona.com | License - https://fonticona.com/license | Copyright 2022 FontIcona.com --><path d="M15.994,31.998c-1.426,0-2.875-0.192-4.314-0.596C3.188,29.02-1.784,20.172,0.598,11.68c1.154-4.114,3.841-7.533,7.566-9.625c3.724-2.093,8.042-2.611,12.156-1.457c4.114,1.154,7.533,3.841,9.625,7.566c2.093,3.725,2.61,8.042,1.457,12.156C29.423,27.373,22.985,31.998,15.994,31.998z M15.979,1.998c-2.37,0-4.712,0.608-6.835,1.801c-3.259,1.831-5.61,4.822-6.62,8.422C0.439,19.65,4.79,27.392,12.22,29.477c7.434,2.083,15.172-2.266,17.256-9.697c1.01-3.599,0.557-7.376-1.274-10.636c-1.831-3.259-4.822-5.61-8.422-6.62C18.524,2.172,17.248,1.998,15.979,1.998z"/><path d="M16.007,20.601c-0.417,0-0.836-0.058-1.249-0.173c-1.183-0.331-2.166-1.104-2.768-2.175c-0.602-1.07-0.75-2.312-0.419-3.495c0.686-2.441,3.229-3.868,5.67-3.187l0,0c2.442,0.685,3.871,3.229,3.187,5.669c-0.332,1.184-1.104,2.166-2.175,2.768C17.556,20.401,16.786,20.601,16.007,20.601z M16.001,13.401c-1.136,0-2.182,0.751-2.503,1.897c-0.188,0.668-0.104,1.37,0.237,1.975c0.34,0.604,0.896,1.041,1.563,1.229c0.667,0.187,1.37,0.104,1.975-0.236c0.605-0.34,1.042-0.896,1.229-1.564c0.387-1.379-0.421-2.817-1.801-3.204C16.468,13.432,16.232,13.401,16.001,13.401z"/><path d="M13.966,24.255c-0.089,0-0.18-0.012-0.271-0.037c-2.195-0.616-4.019-2.05-5.136-4.037s-1.393-4.291-0.777-6.485c0.149-0.532,0.7-0.844,1.233-0.693c0.532,0.149,0.842,0.701,0.693,1.233c-0.472,1.681-0.26,3.444,0.595,4.966s2.251,2.619,3.932,3.091c0.532,0.149,0.842,0.701,0.693,1.233C14.804,23.967,14.403,24.255,13.966,24.255z"/><path d="M13.088,27.383c-0.089,0-0.18-0.012-0.271-0.037c-3.031-0.85-5.549-2.829-7.091-5.573c-1.542-2.744-1.923-5.924-1.073-8.955c0.149-0.532,0.699-0.844,1.233-0.693c0.532,0.149,0.842,0.701,0.693,1.233c-1.457,5.194,1.583,10.605,6.778,12.062c0.532,0.149,0.842,0.701,0.693,1.233C13.927,27.095,13.525,27.383,13.088,27.383z"/><path d="M23.519,18.887c-0.089,0-0.18-0.012-0.271-0.037c-0.532-0.149-0.842-0.701-0.693-1.233c0.471-1.68,0.26-3.443-0.595-4.965c-0.855-1.521-2.251-2.619-3.932-3.09c-0.532-0.149-0.842-0.701-0.693-1.233s0.7-0.844,1.233-0.693c2.195,0.616,4.019,2.049,5.136,4.037c1.117,1.987,1.393,4.291,0.777,6.485C24.357,18.599,23.956,18.887,23.519,18.887z"/><path d="M26.647,19.765c-0.089,0-0.18-0.012-0.271-0.037c-0.532-0.149-0.842-0.701-0.693-1.232C27.14,13.3,24.099,7.889,18.905,6.432c-0.532-0.149-0.842-0.701-0.693-1.233c0.149-0.532,0.7-0.845,1.233-0.693c6.256,1.755,9.918,8.272,8.164,14.528C27.485,19.477,27.084,19.765,26.647,19.765z"/><circle cx="16" cy="16" r="1.25"/></svg>