<svg xmlns="http://www.w3.org/2000/svg" viewBox="0 0 32 32"><!--! Font Icona - https://fonticona.com | License - https://fonticona.com/license | Copyright 2022 FontIcona.com --><path d="M29,12.436H3c-1.654,0-3-1.346-3-3V3.536c0-1.654,1.346-3,3-3h26c1.654,0,3,1.346,3,3v5.899C32,11.09,30.654,12.436,29,12.436z M3,2.536c-0.551,0-1,0.448-1,1v5.899c0,0.552,0.449,1,1,1h26c0.551,0,1-0.448,1-1V3.536c0-0.552-0.449-1-1-1H3z"/><path d="M29,31.464H3c-1.654,0-3-1.346-3-3V17.196c0-1.654,1.346-3,3-3h26c1.654,0,3,1.346,3,3v11.268C32,30.118,30.654,31.464,29,31.464z M3,16.196c-0.551,0-1,0.448-1,1v11.268c0,0.552,0.449,1,1,1h26c0.551,0,1-0.448,1-1V17.196c0-0.552-0.449-1-1-1H3z"/><path d="M7.053,7.485H3.997c-0.552,0-1-0.447-1-1s0.448-1,1-1h3.056c0.552,0,1,0.447,1,1S7.605,7.485,7.053,7.485z"/><path d="M13.992,7.485h-3.057c-0.552,0-1-0.447-1-1s0.448-1,1-1h3.057c0.552,0,1,0.447,1,1S14.544,7.485,13.992,7.485z"/><path d="M20.931,7.485h-3.056c-0.552,0-1-0.447-1-1s0.448-1,1-1h3.056c0.552,0,1,0.447,1,1S21.483,7.485,20.931,7.485z"/><path d="M27.871,7.485h-3.056c-0.552,0-1-0.447-1-1s0.448-1,1-1h3.056c0.552,0,1,0.447,1,1S28.423,7.485,27.871,7.485z"/><path d="M27.871,21.642h-9.996c-0.552,0-1-0.447-1-1s0.448-1,1-1h9.996c0.552,0,1,0.447,1,1S28.423,21.642,27.871,21.642z"/><path d="M7.053,21.642H3.997c-0.552,0-1-0.447-1-1s0.448-1,1-1h3.056c0.552,0,1,0.447,1,1S7.605,21.642,7.053,21.642z"/><path d="M13.992,21.642h-3.057c-0.552,0-1-0.447-1-1s0.448-1,1-1h3.057c0.552,0,1,0.447,1,1S14.544,21.642,13.992,21.642z"/><path d="M13.992,26.019H3.997c-0.552,0-1-0.447-1-1s0.448-1,1-1h9.996c0.552,0,1,0.447,1,1S14.544,26.019,13.992,26.019z"/><path d="M27.871,26.019h-3.056c-0.552,0-1-0.447-1-1s0.448-1,1-1h3.056c0.552,0,1,0.447,1,1S28.423,26.019,27.871,26.019z"/><path d="M20.931,26.019h-3.056c-0.552,0-1-0.447-1-1s0.448-1,1-1h3.056c0.552,0,1,0.447,1,1S21.483,26.019,20.931,26.019z"/></svg>