<svg xmlns="http://www.w3.org/2000/svg" viewBox="0 0 32 32"><!--! Font Icona - https://fonticona.com | License - https://fonticona.com/license | Copyright 2022 FontIcona.com --><path d="M28.55,21.963h-1.708c-0.553,0-1-0.448-1-1s0.447-1,1-1h1.708c0.552,0,1-0.449,1-1V3c0-0.551-0.448-1-1-1H3.45c-0.552,0-1,0.449-1,1v15.963c0,0.551,0.448,1,1,1h1.708c0.553,0,1,0.448,1,1s-0.447,1-1,1H3.45c-1.654,0-3-1.346-3-3V3c0-1.654,1.346-3,3-3h25.1c1.654,0,3,1.346,3,3v15.963C31.55,20.617,30.204,21.963,28.55,21.963z"/><path d="M14.713,32.001c-0.803,0-1.497-0.64-1.559-1.484c-0.02-0.172-0.045-0.376-0.07-0.58c-0.021-0.165-0.041-0.33-0.06-0.495c-0.299-0.12-0.594-0.243-0.887-0.37c-0.27,0.215-0.543,0.432-0.823,0.644c-0.633,0.555-1.601,0.52-2.191-0.094l-0.044-0.049L7.35,27.898c-0.623-0.519-0.712-1.53-0.146-2.206l0.664-0.846c-0.127-0.296-0.251-0.592-0.372-0.89c-0.022-0.003-0.046-0.007-0.069-0.01c-0.283-0.04-0.565-0.08-0.849-0.099c-0.625-0.001-1.248-0.41-1.524-1.039l-0.085-0.192v-3.311l0.079-0.187c0.23-0.546,0.738-0.941,1.323-1.032l1.171-0.132c0.118-0.293,0.241-0.59,0.365-0.881l-0.672-0.857c-0.229-0.231-0.385-0.633-0.376-1.057c0.008-0.425,0.183-0.821,0.489-1.115l0.045-0.042l1.67-1.702c0.57-0.621,1.577-0.664,2.222-0.071l0.029,0.027l0.8,0.627l0.854-0.358c0.021-0.169,0.047-0.331,0.072-0.483c0.027-0.17,0.056-0.34,0.071-0.51c0.046-0.726,0.647-1.541,1.536-1.541h2.671c0.808,0,1.463,0.755,1.545,1.433c0.029,0.27,0.062,0.521,0.094,0.771c0.016,0.117,0.03,0.234,0.045,0.352c0.3,0.118,0.601,0.239,0.888,0.364l0.861-0.676c0.261-0.24,0.669-0.383,1.093-0.363c0.424,0.021,0.813,0.207,1.098,0.521l1.721,1.72c0.288,0.268,0.469,0.664,0.482,1.092c0.015,0.427-0.138,0.834-0.43,1.146l-0.009,0.009l-0.63,0.797c0.123,0.292,0.243,0.584,0.363,0.878l1.131,0.133c0.821,0.059,1.472,0.787,1.438,1.654l0.001,2.481c0.033,0.819-0.611,1.543-1.469,1.608l-1.148,0.137c-0.109,0.27-0.219,0.541-0.331,0.805c0.219,0.271,0.428,0.536,0.632,0.805c0.564,0.609,0.566,1.564-0.014,2.174c-0.041,0.043-0.087,0.086-0.135,0.126l-1.655,1.667c-0.541,0.618-1.555,0.682-2.217,0.1l-0.063-0.059l-0.777-0.601l-0.883,0.368l-0.141,1.132c-0.044,0.794-0.788,1.473-1.643,1.431L14.773,32C14.753,32,14.732,32,14.713,32.001z M16.823,30.334c-0.003,0.017-0.005,0.035-0.006,0.053L16.823,30.334z M15.144,30.316c0.001,0.007,0.001,0.015,0.002,0.022C15.146,30.331,15.145,30.323,15.144,30.316z M14.75,30c-0.005,0-0.011,0-0.016,0h0.032C14.761,30,14.756,30,14.75,30z M12.659,27.118c0.495,0.219,0.991,0.425,1.488,0.618c0.744,0.271,0.826,0.897,0.826,1.154c0.021,0.211,0.059,0.505,0.096,0.8c0.013,0.104,0.025,0.207,0.038,0.31l1.757,0l0.184-1.417c0.092-0.355,0.337-0.647,0.672-0.802l1.743-0.725c0.298-0.142,0.687-0.141,1.026,0.021l0.18,0.111l1.033,0.798l1.271-1.281c-0.234-0.304-0.475-0.602-0.714-0.9l-0.097-0.123c-0.273-0.387-0.298-0.896-0.073-1.305c0.167-0.378,0.329-0.779,0.489-1.176l0.218-0.506c0.223-0.375,0.597-0.628,1.054-0.593l1.16-0.138l-0.001-1.846l-1.515-0.206c-0.282-0.105-0.521-0.308-0.672-0.571l-0.059-0.118l-0.168-0.41c-0.162-0.396-0.322-0.789-0.493-1.181c-0.235-0.416-0.203-0.938,0.097-1.324l0.808-1.021l-1.278-1.277l-0.976,0.767c-0.382,0.325-0.955,0.361-1.402,0.085c-0.446-0.206-0.945-0.401-1.428-0.588c-0.488-0.149-0.835-0.591-0.861-1.104c-0.026-0.241-0.058-0.48-0.088-0.719c-0.02-0.153-0.039-0.306-0.058-0.459H15.07c-0.017,0.127-0.037,0.25-0.057,0.373c-0.043,0.265-0.084,0.515-0.084,0.736l-0.007,0.117c-0.061,0.517-0.398,0.904-0.856,1.016l-1.507,0.633c-0.391,0.201-0.859,0.181-1.234-0.064l-1.084-0.846l-1.246,1.27l0.78,0.989c0.304,0.403,0.334,0.933,0.1,1.35c-0.217,0.49-0.435,1.019-0.631,1.526c-0.266,0.658-0.777,0.784-1.053,0.803l-1.223,0.137v1.844c0.261,0.025,0.497,0.057,0.734,0.09c0.174,0.024,0.348,0.049,0.521,0.068c0.48,0.076,0.84,0.383,0.977,0.799c0.204,0.519,0.418,1.028,0.641,1.537c0.234,0.416,0.202,0.939-0.097,1.324l-0.776,0.991l1.332,1.288c0.271-0.209,0.537-0.422,0.799-0.631l0.151-0.121C11.671,26.897,12.226,26.866,12.659,27.118z M17.192,29.999c-0.004,0-0.008,0-0.012,0h0.024C17.201,30,17.197,29.999,17.192,29.999z M13.439,29.606c0.002,0,0.004,0.001,0.006,0.002C13.443,29.608,13.441,29.607,13.439,29.606z M12.978,28.976c-0.001,0.027,0.002,0.055,0.007,0.083C12.982,29.031,12.979,29.003,12.978,28.976z M20.272,28.884l-0.063,0.026C20.23,28.903,20.252,28.894,20.272,28.884z M21.462,28.229c-0.012,0.011-0.023,0.022-0.034,0.034L21.462,28.229z M8.779,26.927l-0.003,0.004C8.777,26.93,8.778,26.928,8.779,26.927z M8.688,26.414l0.04,0.038C8.715,26.438,8.701,26.426,8.688,26.414z M25.01,22.312c-0.001,0.011-0.001,0.022,0,0.034V22.312z M25.347,21.924c-0.009,0.001-0.018,0.002-0.026,0.003L25.347,21.924z M6.65,21.85c0.011,0,0.021,0.001,0.03,0.002C6.671,21.851,6.661,21.85,6.65,21.85z M25.346,20.157c0.012,0.002,0.023,0.003,0.036,0.004L25.346,20.157z M25.009,19.786c0,0.008,0,0.017,0,0.024V19.786z M23.254,15.535c0.006,0.006,0.013,0.013,0.019,0.019L23.254,15.535z M8.744,14.908l0.049,0.061C8.778,14.947,8.763,14.927,8.744,14.908z M22.039,13.766L21.995,13.8C22.011,13.79,22.025,13.778,22.039,13.766z M10.514,13.678l-0.019,0.019C10.502,13.691,10.508,13.685,10.514,13.678z M19.538,13.189c-0.018,0.013-0.034,0.026-0.052,0.041L19.538,13.189z M15.105,11.689c0,0.004-0.001,0.008-0.001,0.013C15.104,11.697,15.105,11.693,15.105,11.689z M16.015,25.646c-2.506,0-4.589-1.992-4.681-4.516c-0.094-2.582,1.932-4.759,4.514-4.854l0,0c2.465-0.086,4.556,1.742,4.827,4.164c0.013,0.117,0.021,0.23,0.025,0.343c0.094,2.588-1.932,4.765-4.514,4.859C16.13,25.646,16.072,25.646,16.015,25.646z M15.92,18.276c-1.48,0.054-2.641,1.302-2.588,2.782c0.055,1.48,1.321,2.644,2.782,2.587c1.479-0.054,2.641-1.302,2.588-2.782c-0.003-0.064-0.009-0.135-0.016-0.205C18.531,19.274,17.309,18.215,15.92,18.276L15.92,18.276z"/></svg>