<svg xmlns="http://www.w3.org/2000/svg" viewBox="0 0 32 32"><!--! Font Icona - https://fonticona.com | License - https://fonticona.com/license | Copyright 2022 FontIcona.com --><path d="M15.802,30.904c-7.003,0-12.7-4.325-12.7-9.642c0-5.315,5.697-9.641,12.7-9.641s12.7,4.325,12.7,9.641C28.502,26.579,22.805,30.904,15.802,30.904z M15.802,13.622c-5.9,0-10.7,3.428-10.7,7.641c0,4.214,4.8,7.642,10.7,7.642s10.7-3.428,10.7-7.642C26.502,17.05,21.702,13.622,15.802,13.622z"/><path d="M4.174,23.169c-0.123,0-0.248-0.022-0.37-0.071c-0.231-0.092-0.452-0.195-0.684-0.311c-2.776-1.382-3.912-4.765-2.53-7.541c1.562-2.79,4.994-3.759,7.699-2.251c0.348,0.185,0.675,0.403,0.972,0.648c0.426,0.353,0.484,0.982,0.133,1.408c-0.353,0.426-0.982,0.485-1.408,0.133c-0.189-0.156-0.398-0.297-0.622-0.417c-0.024-0.012-0.049-0.025-0.071-0.04c-1.714-0.958-3.933-0.335-4.914,1.411c-0.429,0.865-0.496,1.848-0.188,2.766s0.955,1.661,1.821,2.092c0.181,0.09,0.353,0.172,0.533,0.244c0.513,0.204,0.764,0.785,0.559,1.299C4.947,22.931,4.571,23.169,4.174,23.169z"/><path d="M27.348,23.694c-0.433,0-0.832-0.282-0.96-0.719c-0.155-0.53,0.148-1.086,0.679-1.241c0.29-0.085,0.571-0.2,0.837-0.343c1.823-0.855,2.591-2.975,1.761-4.749c-0.831-1.772-2.947-2.54-4.725-1.71c-0.115,0.055-0.228,0.114-0.336,0.181c-0.251,0.134-0.434,0.252-0.602,0.384c-0.434,0.345-1.062,0.269-1.404-0.164c-0.343-0.434-0.27-1.062,0.164-1.404c0.267-0.211,0.555-0.397,0.857-0.556c0.114-0.072,0.291-0.167,0.474-0.252c2.772-1.3,6.084-0.099,7.382,2.674c1.299,2.772,0.1,6.085-2.674,7.383c-0.338,0.184-0.749,0.353-1.172,0.477C27.535,23.682,27.44,23.694,27.348,23.694z"/><path d="M15.632,27.418c-1.912,0-3.822-0.665-5.382-1.995c-0.42-0.358-0.47-0.989-0.111-1.41c0.359-0.421,0.991-0.47,1.41-0.111c2.365,2.018,5.8,2.018,8.167,0c0.418-0.359,1.052-0.309,1.409,0.112c0.358,0.42,0.309,1.051-0.112,1.409C19.454,26.753,17.542,27.418,15.632,27.418z"/><path d="M11.167,22.263c-1.631,0-2.957-1.326-2.957-2.957c0-1.63,1.326-2.956,2.957-2.956s2.957,1.326,2.957,2.956C14.124,20.937,12.798,22.263,11.167,22.263z M11.167,18.35c-0.527,0-0.957,0.429-0.957,0.956s0.43,0.957,0.957,0.957s0.957-0.43,0.957-0.957S11.694,18.35,11.167,18.35z"/><path d="M20.364,22.459c-1.738,0-3.152-1.415-3.152-3.153s1.414-3.152,3.152-3.152s3.152,1.414,3.152,3.152S22.103,22.459,20.364,22.459z M20.364,18.153c-0.636,0-1.152,0.517-1.152,1.152s0.517,1.153,1.152,1.153s1.152-0.518,1.152-1.153S21,18.153,20.364,18.153z"/><path d="M15.803,13.622c-0.069,0-0.139-0.007-0.209-0.021c-0.54-0.115-0.885-0.646-0.771-1.187l2.08-9.774c0.115-0.54,0.646-0.882,1.187-0.771c0.54,0.115,0.885,0.646,0.771,1.187l-2.08,9.774C16.68,13.3,16.265,13.622,15.803,13.622z"/><path d="M22.672,4.949c-0.074,0-0.149-0.008-0.226-0.025l-4.789-1.102c-0.538-0.124-0.874-0.66-0.75-1.199c0.124-0.537,0.655-0.873,1.199-0.75l4.789,1.102c0.538,0.124,0.874,0.66,0.75,1.199C23.539,4.636,23.127,4.949,22.672,4.949z"/><path d="M25.308,8.369c-2.005,0-3.637-1.632-3.637-3.637s1.632-3.637,3.637-3.637s3.637,1.632,3.637,3.637S27.312,8.369,25.308,8.369z M25.308,3.096c-0.902,0-1.637,0.734-1.637,1.637s0.734,1.637,1.637,1.637s1.637-0.734,1.637-1.637S26.21,3.096,25.308,3.096z"/></svg>