<svg xmlns="http://www.w3.org/2000/svg" viewBox="0 0 32 32"><!--! Font Icona - https://fonticona.com | License - https://fonticona.com/license | Copyright 2022 FontIcona.com --><path d="M22.575,30.406H9.425c-1.654,0-3-1.346-3-3V3c0-1.654,1.346-3,3-3h13.15c1.654,0,3,1.346,3,3v24.406C25.575,29.061,24.229,30.406,22.575,30.406z M9.425,2c-0.552,0-1,0.449-1,1v24.406c0,0.552,0.448,1,1,1h13.15c0.552,0,1-0.448,1-1V3c0-0.551-0.448-1-1-1H9.425z"/><path d="M24.575,12.097H7.425c-0.553,0-1-0.448-1-1s0.447-1,1-1h17.15c0.553,0,1,0.448,1,1S25.128,12.097,24.575,12.097z"/><path d="M11.206,8.111c-0.553,0-1-0.448-1-1V4.985c0-0.552,0.447-1,1-1s1,0.448,1,1v2.126C12.206,7.664,11.759,8.111,11.206,8.111z"/><path d="M11.206,19.682c-0.553,0-1-0.447-1-1v-3.479c0-0.552,0.447-1,1-1s1,0.448,1,1v3.479C12.206,19.234,11.759,19.682,11.206,19.682z"/><path d="M12.258,32h-1.836c-0.553,0-1-0.447-1-1v-1.594c0-0.553,0.447-1,1-1c0.411,0,0.765,0.248,0.918,0.603c0.153-0.354,0.507-0.603,0.918-0.603c0.553,0,1,0.447,1,1V31C13.258,31.553,12.811,32,12.258,32z"/><path d="M21.578,32h-1.836c-0.553,0-1-0.447-1-1v-1.594c0-0.553,0.447-1,1-1c0.411,0,0.765,0.248,0.918,0.603c0.153-0.354,0.507-0.603,0.918-0.603c0.553,0,1,0.447,1,1V31C22.578,31.553,22.131,32,21.578,32z"/></svg>