<svg xmlns="http://www.w3.org/2000/svg" viewBox="0 0 32 32"><!--! Font Icona - https://fonticona.com | License - https://fonticona.com/license | Copyright 2022 FontIcona.com --><path d="M16,32C7.178,32,0,24.822,0,16S7.178,0,16,0s16,7.178,16,16S24.822,32,16,32z M16,2C8.28,2,2,8.28,2,16s6.28,14,14,14s14-6.28,14-14S23.72,2,16,2z"/><path d="M16.276,19.08h-4.122c-0.553,0-1-0.447-1-1s0.447-1,1-1h4.122c2.614,0,4.741-2.126,4.741-4.74s-2.127-4.741-4.741-4.741h-4.122c-0.553,0-1-0.447-1-1s0.447-1,1-1h4.122c3.717,0,6.741,3.024,6.741,6.741S19.993,19.08,16.276,19.08z"/><path d="M12.154,25.562c-0.553,0-1-0.447-1-1V6.599c0-0.553,0.447-1,1-1s1,0.447,1,1v17.963C13.154,25.114,12.707,25.562,12.154,25.562z"/><path d="M21.183,25.562c-0.362,0-0.711-0.197-0.889-0.54l-3.069-5.93c-0.254-0.491-0.062-1.094,0.428-1.348c0.493-0.255,1.094-0.061,1.348,0.428l3.069,5.93c0.254,0.491,0.062,1.094-0.428,1.348C21.494,25.525,21.337,25.562,21.183,25.562z"/></svg>