<svg xmlns="http://www.w3.org/2000/svg" viewBox="0 0 32 32"><!--! Font Icona - https://fonticona.com | License - https://fonticona.com/license | Copyright 2022 FontIcona.com --><path d="M8.252,31.986c-0.801,0-1.555-0.312-2.122-0.879l-5.238-5.238c-1.169-1.17-1.169-3.072,0-4.242L14.369,8.15c1.17-1.168,3.073-1.169,4.242-0.001l5.238,5.239c0.567,0.566,0.879,1.32,0.879,2.121c0,0.802-0.312,1.556-0.879,2.122L10.373,31.107h0h0C9.807,31.674,9.053,31.986,8.252,31.986z M16.49,9.272c-0.256,0-0.513,0.098-0.708,0.293L2.307,23.041c-0.389,0.39-0.389,1.024,0,1.414l5.238,5.238c0.378,0.379,1.037,0.379,1.414,0h0l13.476-13.477c0.189-0.189,0.293-0.439,0.293-0.707c0-0.267-0.104-0.518-0.293-0.707l-5.238-5.238C17.002,9.37,16.746,9.272,16.49,9.272z"/><path d="M8.831,26.346c-0.849,0-1.647-0.33-2.247-0.931c-0.6-0.6-0.93-1.397-0.93-2.246s0.331-1.646,0.931-2.246c1.198-1.201,3.292-1.202,4.493,0c0.6,0.6,0.93,1.397,0.93,2.246s-0.331,1.646-0.93,2.246l0,0c0,0,0,0,0,0l0,0C10.477,26.016,9.679,26.346,8.831,26.346z M8.831,21.992c-0.314,0-0.61,0.122-0.832,0.345c-0.223,0.223-0.345,0.518-0.345,0.832s0.123,0.609,0.345,0.832c0.445,0.445,1.22,0.445,1.664,0h0c0.222-0.223,0.345-0.518,0.345-0.832s-0.123-0.609-0.345-0.832C9.44,22.114,9.145,21.992,8.831,21.992z"/><path d="M25.117,10.461c-0.552,0-1-0.447-1-1c0-0.87-0.708-1.577-1.578-1.577c-0.552,0-1-0.447-1-1s0.448-1,1-1c1.973,0,3.578,1.604,3.578,3.577C26.117,10.014,25.669,10.461,25.117,10.461z"/><path d="M28.101,9.455c-0.552,0-1-0.447-1-1c0-1.961-1.596-3.557-3.557-3.557c-0.552,0-1-0.447-1-1s0.448-1,1-1c3.064,0,5.557,2.493,5.557,5.557C29.101,9.008,28.653,9.455,28.101,9.455z"/><path d="M31,8.444c-0.552,0-1-0.447-1-1C30,4.442,27.558,2,24.556,2c-0.552,0-1-0.447-1-1s0.448-1,1-1C28.661,0,32,3.34,32,7.444C32,7.997,31.552,8.444,31,8.444z"/><path d="M16.73,13.829c-0.256,0-0.512-0.098-0.708-0.293l-0.695-0.695c-0.39-0.391-0.39-1.024,0-1.414c0.391-0.391,1.024-0.391,1.415,0l0.695,0.695c0.39,0.391,0.39,1.024,0,1.414C17.242,13.731,16.986,13.829,16.73,13.829z"/><path d="M19.866,16.965c-0.256,0-0.512-0.098-0.707-0.293l-0.695-0.695c-0.391-0.391-0.391-1.023,0-1.414s1.023-0.391,1.414,0l0.695,0.695c0.391,0.391,0.391,1.023,0,1.414C20.377,16.867,20.122,16.965,19.866,16.965z"/><path d="M14.227,16.333c-0.256,0-0.512-0.098-0.707-0.293l-0.695-0.695c-0.391-0.391-0.391-1.023,0-1.414s1.023-0.391,1.414,0l0.695,0.695c0.391,0.391,0.391,1.023,0,1.414C14.738,16.235,14.482,16.333,14.227,16.333z"/><path d="M17.362,19.469c-0.256,0-0.512-0.098-0.707-0.293L15.96,18.48c-0.391-0.391-0.391-1.023,0-1.414s1.023-0.391,1.414,0l0.695,0.695c0.391,0.391,0.391,1.023,0,1.414C17.874,19.371,17.618,19.469,17.362,19.469z"/><path d="M11.723,18.837c-0.256,0-0.512-0.098-0.707-0.293l-0.695-0.695c-0.391-0.391-0.391-1.023,0-1.414s1.023-0.391,1.414,0l0.695,0.695c0.391,0.391,0.391,1.023,0,1.414C12.235,18.739,11.979,18.837,11.723,18.837z"/><path d="M14.858,21.973c-0.256,0-0.512-0.098-0.707-0.293l-0.695-0.695c-0.391-0.391-0.391-1.023,0-1.414s1.023-0.391,1.414,0l0.695,0.695c0.391,0.391,0.391,1.023,0,1.414C15.37,21.875,15.114,21.973,14.858,21.973z"/></svg>