<svg xmlns="http://www.w3.org/2000/svg" viewBox="0 0 32 32"><!--! Font Icona - https://fonticona.com | License - https://fonticona.com/license | Copyright 2022 FontIcona.com --><path d="M27.29,30.213c-0.053,0-0.089-0.002-0.108-0.003c-2.629-0.31-3.999-2.241-4.711-4.06v1.523c0,1.117-0.909,2.025-2.026,2.025h-3.761c-1.117,0-2.025-0.908-2.025-2.025v-3.376l-6.244-0.026l-0.026,3.402c0,1.117-0.909,2.025-2.025,2.025H2.026C0.909,29.699,0,28.791,0,27.674V11.69c0-2.68,0.897-4.882,2.666-6.548c3.959-3.728,10.88-3.355,11.172-3.339c13.603,0.18,13.76,8.858,13.76,8.946v12.285c0.294-0.408,0.771-0.678,1.291-0.687l2.095-0.034c0.278,0.016,0.526,0.099,0.717,0.287C31.893,22.79,32,23.047,32,23.314c0,2.606-0.64,4.532-1.902,5.723C28.948,30.122,27.683,30.213,27.29,30.213z M22.104,20.75c0.089,0,0.182,0.01,0.276,0.03c0.956,0.211,1.217,1.339,1.303,1.71c0.013,0.056,0.021,0.113,0.024,0.17c0.003,0.052,0.334,5.167,3.648,5.559c-0.043-0.005,0.713,0.005,1.401-0.667c0.667-0.651,1.075-1.754,1.201-3.22l-0.726,0.012c-0.335,1.658-0.934,2.553-1.782,2.661c-0.721,0.091-1.315-0.363-1.764-1.355c-0.059-0.13-0.089-0.27-0.089-0.412V10.75c-0.004-0.27-0.24-6.794-11.833-6.948c-0.107-0.005-6.408-0.335-9.733,2.802C2.665,7.894,2,9.557,2,11.69v15.983l4.363,0.025l0.025-3.401c0-1.117,0.909-2.026,2.026-2.026h6.218c1.117,0,2.026,0.909,2.026,2.026v3.376l3.786,0.025l0.026-4.854c0-0.505,0.216-1.135,0.526-1.532C21.213,21.033,21.616,20.75,22.104,20.75z"/><path d="M26.598,15.447H1c-0.552,0-1-0.447-1-1s0.448-1,1-1h25.598c0.552,0,1,0.447,1,1S27.15,15.447,26.598,15.447z"/><polygon points="8.591,7.116 8.295,8.945 9.635,10.226 7.804,10.511 6.999,12.18 6.163,10.526 4.327,10.278 5.641,8.971 5.31,7.148 6.959,7.994 "/><path d="M7,12.681c-0.188,0-0.361-0.106-0.446-0.274l-0.718-1.42l-1.576-0.214c-0.188-0.025-0.346-0.155-0.407-0.336s-0.013-0.38,0.122-0.514l1.128-1.121L4.818,7.236C4.784,7.05,4.859,6.859,5.012,6.746c0.153-0.114,0.357-0.131,0.526-0.043L6.954,7.43l1.4-0.754c0.167-0.091,0.372-0.077,0.527,0.033c0.155,0.11,0.234,0.299,0.204,0.487L8.831,8.766l1.15,1.1c0.137,0.132,0.188,0.33,0.131,0.512c-0.057,0.181-0.212,0.314-0.4,0.344L8.14,10.965l-0.69,1.433c-0.083,0.172-0.255,0.281-0.446,0.283C7.003,12.681,7.001,12.681,7,12.681z M5.397,9.918l0.833,0.113c0.163,0.021,0.305,0.123,0.379,0.27l0.379,0.75l0.364-0.757c0.072-0.148,0.211-0.252,0.374-0.277l0.831-0.129L7.95,9.307C7.831,9.193,7.775,9.028,7.802,8.865l0.134-0.829l-0.74,0.398C7.052,8.514,6.878,8.515,6.73,8.438L5.983,8.055l0.15,0.827c0.029,0.161-0.023,0.327-0.14,0.443L5.397,9.918z"/><polygon points="15.409,7.116 15.114,8.945 16.453,10.226 14.622,10.511 13.818,12.18 12.982,10.526 11.145,10.278 12.459,8.971 12.129,7.148 13.777,7.994 "/><path d="M13.818,12.681c-0.188,0-0.361-0.106-0.446-0.274l-0.718-1.42l-1.576-0.214c-0.188-0.025-0.346-0.155-0.407-0.336s-0.013-0.38,0.122-0.514l1.128-1.121l-0.284-1.565c-0.034-0.187,0.042-0.377,0.194-0.49c0.152-0.114,0.356-0.131,0.526-0.043l1.415,0.727l1.4-0.754c0.168-0.091,0.372-0.077,0.527,0.033s0.234,0.299,0.204,0.487l-0.253,1.569l1.15,1.1c0.137,0.132,0.188,0.33,0.131,0.512c-0.057,0.181-0.212,0.314-0.4,0.344l-1.572,0.244l-0.69,1.433c-0.083,0.172-0.255,0.281-0.446,0.283C13.821,12.681,13.819,12.681,13.818,12.681z M12.216,9.918l0.833,0.113c0.163,0.021,0.305,0.123,0.379,0.27l0.379,0.75l0.364-0.757c0.072-0.148,0.211-0.252,0.374-0.277l0.831-0.129l-0.608-0.581c-0.119-0.113-0.174-0.278-0.148-0.441l0.134-0.829l-0.74,0.398c-0.144,0.079-0.318,0.08-0.465,0.004l-0.748-0.384l0.15,0.827c0.029,0.161-0.023,0.327-0.14,0.443L12.216,9.918z"/><polygon points="22.228,7.116 21.932,8.945 23.272,10.226 21.44,10.511 20.636,12.18 19.8,10.526 17.963,10.278 19.278,8.971 18.947,7.148 20.596,7.994 "/><path d="M20.636,12.681c-0.188,0-0.361-0.106-0.446-0.274l-0.718-1.42l-1.576-0.214c-0.188-0.025-0.346-0.155-0.407-0.336s-0.013-0.38,0.122-0.514l1.128-1.121l-0.284-1.565c-0.034-0.187,0.042-0.377,0.194-0.49c0.152-0.114,0.356-0.131,0.526-0.043L20.59,7.43l1.4-0.754c0.168-0.091,0.372-0.077,0.527,0.033c0.155,0.11,0.234,0.299,0.204,0.487l-0.253,1.569l1.15,1.1c0.137,0.132,0.188,0.33,0.131,0.512c-0.057,0.181-0.212,0.314-0.4,0.344l-1.572,0.244l-0.69,1.433c-0.083,0.172-0.255,0.281-0.446,0.283C20.64,12.681,20.638,12.681,20.636,12.681z M19.034,9.918l0.833,0.113c0.163,0.021,0.305,0.123,0.379,0.27l0.379,0.75l0.364-0.757c0.072-0.148,0.211-0.252,0.374-0.277l0.831-0.129l-0.608-0.581c-0.119-0.113-0.174-0.278-0.148-0.441l0.134-0.829l-0.74,0.398c-0.144,0.079-0.318,0.08-0.465,0.004L19.62,8.055l0.15,0.827c0.029,0.161-0.023,0.327-0.14,0.443L19.034,9.918z"/></svg>