<svg xmlns="http://www.w3.org/2000/svg" viewBox="0 0 32 32"><!--! Font Icona - https://fonticona.com | License - https://fonticona.com/license | Copyright 2022 FontIcona.com --><path d="M8.252,28.258H7.763c-0.35,0-0.69-0.074-1.004-0.216c-0.313,0.142-0.654,0.216-1.004,0.216H5.267c-1.36,0-2.466-1.108-2.466-2.47v-4.142c-0.533-0.01-1.037-0.188-1.461-0.518l-0.39-0.304c-1.051-0.818-1.26-2.353-0.465-3.422l2.468-3.307C2.97,14.078,3,14.047,3.041,14.008c-0.745-0.873-1.164-1.986-1.164-3.17c0-2.708,2.19-4.912,4.882-4.912c2.692,0,4.883,2.203,4.883,4.912c0,1.17-0.411,2.272-1.14,3.142c0.06,0.055,0.101,0.097,0.123,0.12l0.098,0.114l2.366,3.188c0.794,1.069,0.585,2.604-0.467,3.422l-0.389,0.302c-0.437,0.34-0.958,0.52-1.509,0.52c-0.002,0-0.004,0-0.006,0v4.142C10.718,27.15,9.612,28.258,8.252,28.258z M6.759,25.479l0.687,0.649c0.063,0.06,0.169,0.131,0.317,0.131h0.489c0.257,0,0.466-0.211,0.466-0.47v-7.857l1.686,1.589c0.072,0.068,0.159,0.11,0.256,0.123c0.161,0.004,0.26-0.029,0.345-0.094l0.389-0.303c0.196-0.153,0.237-0.451,0.088-0.651l0,0l-2.33-3.142l0,0c-0.003,0-0.244-0.232-0.613-0.329l-1.812-0.473L5.015,15.13c-0.296,0.083-0.508,0.251-0.585,0.318l-2.341,3.147c-0.148,0.2-0.108,0.498,0.089,0.651l0.39,0.303c0.083,0.064,0.177,0.097,0.28,0.097c0.154-0.016,0.234-0.052,0.303-0.111l1.649-1.407v7.66c0,0.259,0.209,0.47,0.466,0.47h0.488c0.148,0,0.254-0.071,0.317-0.13L6.759,25.479z M6.759,7.927c-1.589,0-2.882,1.306-2.882,2.912c0,1.013,0.521,1.938,1.394,2.477l1.5,0.924l1.492-0.932c0.864-0.54,1.38-1.463,1.38-2.47C9.642,9.233,8.349,7.927,6.759,7.927z"/><path d="M6.786,27.895c-0.552,0-1-0.448-1-1v-5.832c0-0.552,0.448-1,1-1s1,0.448,1,1v5.832C7.786,27.447,7.338,27.895,6.786,27.895z"/><path d="M26.733,28.258h-0.488c-0.343,0-0.678-0.072-0.987-0.209c-0.309,0.137-0.645,0.209-0.987,0.209h-0.488c-1.36,0-2.466-1.108-2.466-2.47v-2.1c-0.665-0.286-1.109-0.71-1.348-1.284c-0.183-0.438-0.2-0.876-0.111-1.275c0,0,0,0-0.001,0l-0.391-0.304c-1.052-0.818-1.261-2.354-0.464-3.424l2.467-3.305c0.017-0.018,0.046-0.048,0.088-0.087c-0.745-0.873-1.164-1.986-1.164-3.17c0-2.708,2.19-4.912,4.883-4.912s4.883,2.203,4.883,4.912c0,1.193-0.425,2.312-1.18,3.188c0.035,0.034,0.06,0.06,0.075,0.076l0.097,0.113l2.367,3.188c0.794,1.07,0.584,2.605-0.468,3.423l-0.385,0.299c0.085,0.395,0.068,0.838-0.117,1.28c-0.238,0.572-0.682,0.996-1.348,1.283v2.1C29.199,27.15,28.093,28.258,26.733,28.258z M25.258,25.511l0.676,0.622c0.062,0.058,0.167,0.126,0.31,0.126h0.488c0.257,0,0.466-0.211,0.466-0.47v-3.617l0.771-0.181c0.405-0.096,0.678-0.228,0.731-0.355c0.035-0.083-0.041-0.19-0.071-0.218L28.52,21.3l-1.254-1.49l1.918-0.178c0.105-0.008,0.188-0.036,0.248-0.082l0.391-0.304c0.197-0.153,0.238-0.451,0.089-0.651l0,0l-2.33-3.142l0,0c-0.003,0-0.23-0.217-0.582-0.318l-1.708-0.493l-1.76,0.489c-0.297,0.083-0.509,0.25-0.585,0.318l-2.34,3.146c-0.149,0.201-0.108,0.499,0.088,0.652l0.39,0.304c0.059,0.046,0.143,0.074,0.248,0.082l2.126,0.161l-1.562,1.615c-0.044,0.042-0.114,0.151-0.082,0.227c0.053,0.128,0.327,0.261,0.731,0.355l0.771,0.181v3.617c0,0.259,0.209,0.47,0.466,0.47h0.488c0.143,0,0.248-0.069,0.311-0.126L25.258,25.511z M25.275,7.927c-1.589,0-2.883,1.306-2.883,2.912c0,1.013,0.521,1.939,1.395,2.477l1.482,0.913l1.485-0.908c0.879-0.538,1.404-1.465,1.404-2.482C28.158,9.233,26.864,7.927,25.275,7.927z"/><path d="M28.199,23.964h-5.883c-0.552,0-1-0.448-1-1s0.448-1,1-1h5.883c0.552,0,1,0.448,1,1S28.751,23.964,28.199,23.964z"/><path d="M25.258,27.869c-0.552,0-1-0.448-1-1v-3.905c0-0.552,0.448-1,1-1s1,0.448,1,1v3.905C26.258,27.421,25.81,27.869,25.258,27.869z"/><path d="M21.166,21.762c-0.552,0-1-0.448-1-1c0-0.542,0.432-0.984,0.971-1c0.09-0.008,1.191-0.151,1.94-2.17c0.192-0.518,0.768-0.781,1.285-0.59c0.518,0.192,0.782,0.768,0.59,1.285C23.678,21.723,21.268,21.762,21.166,21.762z"/><path d="M29.337,21.762c-0.248,0-2.456-0.103-3.799-3.65c-0.196-0.516,0.064-1.094,0.581-1.289c0.514-0.197,1.094,0.064,1.289,0.581c0.843,2.227,1.927,2.355,1.973,2.359c0.531,0.051,0.955,0.512,0.929,1.044C30.284,21.341,29.871,21.762,29.337,21.762z"/><path d="M16.027,32c-0.552,0-1-0.448-1-1V1c0-0.552,0.448-1,1-1s1,0.448,1,1v30C17.027,31.552,16.58,32,16.027,32z"/></svg>