<svg xmlns="http://www.w3.org/2000/svg" viewBox="0 0 32 32"><!--! Font Icona - https://fonticona.com | License - https://fonticona.com/license | Copyright 2022 FontIcona.com --><path d="M21.294,32c-0.033,0-0.066-0.002-0.099-0.005c-0.345-0.034-0.648-0.245-0.8-0.558l-9.112-18.73c-0.137-0.34-2.574-6.625-0.276-10.243c0.14-0.271,0.357-0.544,0.634-0.804c0.753-0.775,1.746-1.276,2.967-1.5c0.664-0.15,1.356-0.203,2.024-0.121c0.53,0.066,0.915,0.537,0.874,1.07c-0.042,0.532-0.509,0.96-1.029,0.921c-0.545-0.015-1.031,0.012-1.468,0.089c-0.759,0.181-1.443,0.536-1.851,0.855c-0.14,0.132-0.266,0.277-0.378,0.437c-0.111,0.648,1.117,2.899,1.526,3.649c0.215,0.394,0.402,0.738,0.528,0.999c0.237,0.494,0.521,0.98,0.82,1.495c0.296,0.509,0.592,1.018,0.847,1.535c0.723,1.471,1.559,2.873,2.354,4.171c1.223,1.995,2.356,3.712,3.464,5.249c1.542,2.139,3.266,4.232,4.749,5.997l0.215,0.258c0.141,0.17,0.282,0.34,0.427,0.507c0.244,0.28,0.312,0.674,0.176,1.02c-0.136,0.347-0.453,0.589-0.822,0.63l-3.193,0.35l-1.779,2.336C21.9,31.855,21.604,32,21.294,32z M12.039,7.065c0.114,1.928,0.706,3.902,1.074,4.838l8.37,17.199l1.055-1.386c0.166-0.218,0.414-0.357,0.687-0.388l1.76-0.192c-1.373-1.646-2.898-3.527-4.289-5.457c-1.138-1.578-2.298-3.336-3.547-5.374c-0.82-1.338-1.684-2.79-2.443-4.333c-0.234-0.477-0.507-0.943-0.78-1.411c-0.306-0.526-0.623-1.07-0.895-1.635c-0.114-0.237-0.285-0.551-0.481-0.908C12.371,7.691,12.2,7.374,12.039,7.065z"/><path d="M18.061,16.881c-0.147,0-0.296-0.032-0.437-0.101c-0.497-0.242-0.703-0.84-0.462-1.337l1.757-3.611c0.598-1.53,1.885-6.177,0.306-8.417c-0.699-0.989-1.904-1.438-3.701-1.385c-0.558,0.038-1.014-0.415-1.032-0.967s0.415-1.014,0.967-1.031c2.486-0.08,4.301,0.67,5.402,2.233c2.522,3.581-0.003,10.096-0.112,10.371l-1.788,3.682C18.787,16.674,18.431,16.881,18.061,16.881z"/><path d="M10.706,32c-0.311,0-0.605-0.145-0.795-0.394L8.131,29.27l-3.193-0.35c-0.37-0.041-0.687-0.283-0.822-0.63c-0.136-0.346-0.068-0.739,0.176-1.02c0.145-0.167,0.286-0.337,0.427-0.507l0.215-0.257c1.482-1.766,3.207-3.859,4.749-5.998c1.09-1.513,2.2-3.191,3.394-5.134c0-0.001,0.001-0.002,0.001-0.002v-0.001c0-0.001,0.001-0.001,0.001-0.002l0,0c0-0.001,0.001-0.002,0.002-0.003l0,0c0.001-0.002,0.002-0.004,0.003-0.006c0-0.002,0.002-0.005,0.002-0.004c0-0.001,0-0.001,0-0.001c0,0,0-0.001,0.001-0.002c0,0.001,0.001-0.001,0.001-0.001l0-0.001l0-0.001c0,0,0-0.001,0-0.001c0,0,0,0,0.001-0.001c0,0,0,0,0-0.001c0,0,0,0,0-0.001h0c0-0.001,0.003-0.001,0.001-0.002c0.001-0.003,0-0.001,0.001-0.002l0-0.001l0-0.001c0,0,0-0.001,0.001-0.001V15.34c0,0,0.001-0.001,0.001-0.001l0,0c0-0.001,0-0.002,0.001-0.002l0,0c0.298-0.45,0.906-0.592,1.367-0.307c0.469,0.292,0.619,0.898,0.327,1.368c-1.226,1.997-2.367,3.723-3.49,5.28c-1.391,1.93-2.917,3.811-4.289,5.457l1.76,0.192c0.272,0.03,0.521,0.17,0.687,0.388l1.055,1.385l4.583-9.422c0.242-0.496,0.84-0.704,1.337-0.462c0.497,0.242,0.703,0.84,0.462,1.337l-5.294,10.883c-0.152,0.312-0.455,0.523-0.8,0.558C10.771,31.998,10.738,32,10.706,32z"/><path d="M15.999,13.312c-0.156,0-0.315-0.037-0.463-0.114c-0.489-0.257-0.678-0.861-0.421-1.351c0.132-0.251,0.261-0.502,0.385-0.757c0.255-0.519,0.551-1.027,0.847-1.536c0.3-0.515,0.583-1.001,0.82-1.495c0.127-0.264,0.318-0.614,0.538-1.014c0.416-0.758,1.681-3.063,1.509-3.671c-0.232-0.48-2.018-1.554-3.6-1.352c-0.546,0.06-1.047-0.32-1.116-0.868c-0.068-0.549,0.32-1.048,0.869-1.116c2.329-0.295,5,1.122,5.656,2.486c0.625,1.3-0.296,3.171-1.564,5.482c-0.199,0.362-0.374,0.68-0.489,0.919c-0.272,0.564-0.589,1.108-0.895,1.635c-0.272,0.468-0.545,0.935-0.78,1.411c-0.133,0.27-0.27,0.538-0.409,0.805C16.707,13.118,16.359,13.312,15.999,13.312z"/></svg>