<svg xmlns="http://www.w3.org/2000/svg" viewBox="0 0 32 32"><!--! Font Icona - https://fonticona.com | License - https://fonticona.com/license | Copyright 2022 FontIcona.com --><path d="M16,32C8.922,32,3.164,26.241,3.164,19.163S8.922,6.327,16,6.327s12.836,5.758,12.836,12.836S23.078,32,16,32z M16,8.327c-5.975,0-10.836,4.861-10.836,10.836C5.164,25.139,10.025,30,16,30s10.836-4.861,10.836-10.837C26.836,13.188,21.975,8.327,16,8.327z"/><path d="M15.687,7.978c-2.2,0-3.989-1.789-3.989-3.988S13.487,0,15.687,0c2.199,0,3.989,1.79,3.989,3.989S17.886,7.978,15.687,7.978z M15.687,2c-1.097,0-1.989,0.893-1.989,1.989s0.893,1.988,1.989,1.988s1.989-0.892,1.989-1.988S16.784,2,15.687,2z"/><path d="M15.687,7.978c-1.836,0-3.672-0.244-5.457-0.732c-0.533-0.146-0.846-0.696-0.7-1.229c0.146-0.533,0.696-0.842,1.229-0.701c3.225,0.883,6.633,0.883,9.857,0c0.533-0.141,1.083,0.168,1.229,0.701c0.146,0.532-0.167,1.082-0.7,1.229C19.359,7.733,17.523,7.978,15.687,7.978z"/></svg>