<svg xmlns="http://www.w3.org/2000/svg" viewBox="0 0 32 32"><!--! Font Icona - https://fonticona.com | License - https://fonticona.com/license | Copyright 2022 FontIcona.com --><path d="M6,32c-0.552,0-1-0.447-1-1V1c0-0.553,0.448-1,1-1s1,0.447,1,1v30C7,31.553,6.552,32,6,32z"/><path d="M26,32c-0.552,0-1-0.447-1-1V1c0-0.553,0.448-1,1-1s1,0.447,1,1v30C27,31.553,26.552,32,26,32z"/><path d="M15.865,31.999c-0.552,0-1-0.447-1-1v-3c0-0.553,0.448-1,1-1s1,0.447,1,1v3C16.865,31.552,16.417,31.999,15.865,31.999z M15.865,22.999c-0.552,0-1-0.447-1-1v-3c0-0.553,0.448-1,1-1s1,0.447,1,1v3C16.865,22.552,16.417,22.999,15.865,22.999z M15.865,13.999c-0.552,0-1-0.447-1-1v-3c0-0.553,0.448-1,1-1s1,0.447,1,1v3C16.865,13.552,16.417,13.999,15.865,13.999z M15.865,4.999c-0.552,0-1-0.447-1-1v-3c0-0.553,0.448-1,1-1s1,0.447,1,1v3C16.865,4.552,16.417,4.999,15.865,4.999z"/></svg>