<svg xmlns="http://www.w3.org/2000/svg" viewBox="0 0 32 32"><!--! Font Icona - https://fonticona.com | License - https://fonticona.com/license | Copyright 2022 FontIcona.com --><path d="M14.206,23.352c-0.264,0-0.519-0.104-0.707-0.293l-4.522-4.522c-0.22-0.22-0.325-0.53-0.284-0.838c0.666-5.041,4.669-9.85,8.194-12.669c3.847-3.078,12.312-4.865,12.671-4.94c0.733-0.152,1.425,0.027,1.894,0.495c0.468,0.468,0.648,1.158,0.495,1.894c-0.075,0.358-1.862,8.824-4.94,12.671c-2.82,3.524-7.629,7.527-12.669,8.193C14.293,23.349,14.25,23.352,14.206,23.352z M10.751,17.482l1.901,1.901l0,0l1.901,1.901c4.295-0.785,8.52-4.421,10.891-7.385c2.779-3.473,4.526-11.746,4.543-11.829c0.002-0.01,0.004-0.02,0.005-0.029c-0.009,0.001-0.019,0.003-0.029,0.005c-0.083,0.018-8.356,1.765-11.829,4.543C15.172,8.962,11.536,13.187,10.751,17.482z"/><path d="M2.567,17.21c-0.297,0-0.586-0.132-0.78-0.374c-0.271-0.337-0.295-0.809-0.059-1.171C6.9,7.717,11.791,7.621,14.247,8.272c0.534,0.142,0.852,0.689,0.71,1.223c-0.142,0.533-0.687,0.851-1.223,0.71c-1.706-0.452-4.956-0.373-8.782,4.398c1.628-0.233,3.724-0.244,5.535,0.672c0.493,0.249,0.69,0.851,0.441,1.343s-0.852,0.69-1.343,0.441c-2.717-1.374-6.625,0.07-6.665,0.085C2.805,17.189,2.685,17.21,2.567,17.21z"/><path d="M15.96,30.604c-0.223,0-0.445-0.074-0.627-0.221c-0.337-0.271-0.461-0.728-0.31-1.132c0.015-0.039,1.458-3.95,0.085-6.665c-0.25-0.493-0.052-1.094,0.441-1.343c0.492-0.249,1.095-0.052,1.343,0.441c0.916,1.811,0.906,3.905,0.672,5.535c4.771-3.826,4.851-7.076,4.398-8.782c-0.141-0.534,0.177-1.082,0.71-1.223c0.535-0.143,1.081,0.177,1.223,0.71c0.65,2.455,0.555,7.346-7.393,12.519C16.338,30.55,16.149,30.604,15.96,30.604z"/><path d="M29.71,7.573c-0.353,0-0.695-0.187-0.877-0.519c-0.895-1.628-2.229-2.963-3.859-3.858C24.49,2.93,24.313,2.322,24.58,1.838c0.266-0.483,0.874-0.662,1.358-0.395c1.962,1.079,3.57,2.687,4.648,4.648c0.266,0.484,0.089,1.092-0.395,1.358C30.039,7.534,29.873,7.573,29.71,7.573z"/><path d="M12.586,26.163c-0.263,0-0.518-0.104-0.707-0.293l-5.85-5.851c-0.227-0.227-0.332-0.549-0.28-0.866S6,18.563,6.287,18.418l2.948-1.482c0.386-0.194,0.852-0.118,1.156,0.187l4.384,4.384c0.305,0.305,0.38,0.771,0.187,1.156l-1.482,2.948c-0.144,0.287-0.417,0.487-0.734,0.538C12.692,26.158,12.639,26.163,12.586,26.163z M8.422,19.583l3.892,3.893l0.536-1.066l-3.363-3.363L8.422,19.583z"/><path d="M1.065,31.964c-0.262,0-0.517-0.103-0.707-0.293c-0.25-0.25-0.415-0.677-0.328-1.02c0.438-1.72,1.239-3.11,2.021-4.146c-0.017,0.011-0.026,0.018-0.03,0.02c-0.358,0.26-0.853,0.261-1.204-0.009s-0.49-0.734-0.331-1.148c1.741-4.526,6.239-6.36,6.43-6.436c0.513-0.205,1.095,0.046,1.299,0.56c0.204,0.513-0.046,1.095-0.56,1.299c-0.029,0.012-2.451,1.011-4.161,3.265c0.435-0.022,0.917,0,1.442,0.091c0.396,0.069,0.712,0.367,0.803,0.758c0.091,0.391-0.061,0.799-0.385,1.035c-0.019,0.014-1.622,1.217-2.698,3.369c2.165-1.078,3.352-2.679,3.367-2.7c0.237-0.324,0.643-0.476,1.035-0.385c0.391,0.091,0.689,0.407,0.758,0.803c0.092,0.527,0.114,1.011,0.091,1.446c2.266-1.713,3.252-4.134,3.265-4.165c0.204-0.513,0.787-0.765,1.299-0.56c0.513,0.204,0.764,0.786,0.56,1.299c-0.076,0.191-1.91,4.689-6.436,6.43C6.176,31.64,5.702,31.5,5.434,31.14c-0.268-0.361-0.262-0.855,0.013-1.21c0.001-0.002,0.006-0.008,0.013-0.02c-1.035,0.783-2.427,1.584-4.147,2.022C1.23,31.954,1.148,31.964,1.065,31.964z"/><path d="M21.127,14.548c-0.932,0-1.865-0.354-2.574-1.064c-1.419-1.419-1.419-3.729,0-5.148c1.419-1.42,3.729-1.42,5.148,0c1.419,1.419,1.419,3.729,0,5.148C22.992,14.193,22.059,14.548,21.127,14.548z M21.127,9.27c-0.42,0-0.84,0.16-1.16,0.479c-0.64,0.64-0.64,1.681,0,2.32s1.681,0.64,2.32,0s0.64-1.681,0-2.32C21.967,9.429,21.547,9.27,21.127,9.27z"/></svg>