<svg xmlns="http://www.w3.org/2000/svg" viewBox="0 0 32 32"><!--! Font Icona - https://fonticona.com | License - https://fonticona.com/license | Copyright 2022 FontIcona.com --><path d="M23.981,26.396c-0.552,0-1-0.447-1-1c0-1.44-0.67-2.396-1.114-2.396H10.133c-0.443,0-1.114,0.955-1.114,2.396c0,0.553-0.448,1-1,1s-1-0.447-1-1c0-2.465,1.368-4.396,3.114-4.396h11.734c1.746,0,3.114,1.931,3.114,4.396C24.981,25.949,24.533,26.396,23.981,26.396z"/><path d="M23.546,32H8.454c-1.654,0-3-1.346-3-3v-1.399c0-1.654,1.346-3,3-3h15.093c1.654,0,3,1.346,3,3V29C26.546,30.654,25.201,32,23.546,32z M8.454,26.601c-0.551,0-1,0.448-1,1V29c0,0.552,0.449,1,1,1h15.093c0.551,0,1-0.448,1-1v-1.399c0-0.552-0.449-1-1-1H8.454z"/><path d="M22.202,23.001c-0.104,0-0.21-0.017-0.315-0.051c-3.968-1.317-3.924-4.633-3.92-4.773l0-9.416c0-0.362,0.196-0.696,0.512-0.873c0.08-0.046,2.071-1.216,1.935-3.489L20.412,2h-8.824v2.339c-0.138,2.332,1.853,3.503,1.938,3.552c0.311,0.178,0.507,0.512,0.507,0.87v9.443c0.003,0.113,0.047,3.429-3.921,4.746c-0.524,0.173-1.09-0.11-1.264-0.634c-0.174-0.524,0.11-1.091,0.634-1.265c2.479-0.823,2.551-2.63,2.551-2.833V9.291C11.143,8.621,9.428,6.97,9.59,4.279L9.588,1c0-0.553,0.448-1,1-1h10.823c0.552,0,1,0.447,1,1v3.339c0.16,2.646-1.554,4.285-2.445,4.952v8.913c0,0.218,0.071,2.024,2.55,2.848c0.524,0.174,0.808,0.74,0.634,1.265C23.012,22.735,22.622,23.001,22.202,23.001z"/><path d="M14.152,4.899c-0.552,0-1-0.447-1-1V1.418c0-0.553,0.448-1,1-1s1,0.447,1,1v2.481C15.152,4.452,14.705,4.899,14.152,4.899z"/><path d="M17.848,4.899c-0.552,0-1-0.447-1-1V1.418c0-0.553,0.448-1,1-1s1,0.447,1,1v2.481C18.848,4.452,18.4,4.899,17.848,4.899z"/></svg>