<svg xmlns="http://www.w3.org/2000/svg" viewBox="0 0 32 32"><!--! Font Icona - https://fonticona.com | License - https://fonticona.com/license | Copyright 2022 FontIcona.com --><path d="M14.034,31.244c-3.24,0-6.426-1.192-8.892-3.436c-5.994-5.59-6.854-14.774-2.011-21.37c0.3-0.43,0.645-0.865,1.013-1.273c2.382-2.646,5.652-4.206,9.207-4.392c3.561-0.19,6.971,1.022,9.616,3.405c3.758,3.448,5.644,8.521,5.05,13.579c-0.064,0.549-0.573,0.947-1.109,0.876c-0.549-0.064-0.941-0.561-0.877-1.11c0.519-4.421-1.129-8.857-4.408-11.866c-2.24-2.018-5.134-3.036-8.166-2.888c-3.022,0.159-5.802,1.484-7.826,3.733c-0.312,0.348-0.606,0.718-0.874,1.1C0.5,13.401,1.254,21.447,6.497,26.337c2.982,2.714,7.227,3.613,11.067,2.335c0.522-0.177,1.09,0.109,1.265,0.633c0.174,0.524-0.109,1.09-0.634,1.265C16.834,31.023,15.429,31.244,14.034,31.244z"/><path d="M27.108,19.452c-0.305,0-0.592-0.139-0.782-0.376l-4.019-5.041c-0.344-0.432-0.273-1.061,0.159-1.405c0.432-0.346,1.06-0.273,1.405,0.158l3.224,4.044l3.112-4.032c0.337-0.437,0.963-0.52,1.403-0.181c0.437,0.337,0.518,0.965,0.181,1.402L27.9,19.063c-0.188,0.243-0.478,0.387-0.784,0.389C27.113,19.452,27.111,19.452,27.108,19.452z"/><path d="M8.735,22.912c-0.175,0-0.353-0.046-0.514-0.143c-0.474-0.284-0.627-0.898-0.343-1.372l7.91-13.183c0.284-0.473,0.897-0.627,1.372-0.343c0.474,0.284,0.627,0.898,0.343,1.372l-7.91,13.183C9.406,22.739,9.075,22.912,8.735,22.912z"/></svg>