<svg xmlns="http://www.w3.org/2000/svg" viewBox="0 0 32 32"><!--! Font Icona - https://fonticona.com | License - https://fonticona.com/license | Copyright 2022 FontIcona.com --><path d="M27.989,17.006c-0.232,0-0.463-0.081-0.647-0.238l-5.322-4.522c-0.418-0.354-0.472-0.979-0.121-1.401c0.35-0.42,0.975-0.482,1.4-0.136l3.397,2.769c-0.46-1.942-1.448-3.725-2.895-5.172c-2.057-2.057-4.791-3.19-7.699-3.19c-0.002,0-0.004,0-0.005,0c-1.93,0-3.829,0.515-5.493,1.488C10.13,6.881,9.516,6.721,9.236,6.244C8.958,5.768,9.118,5.155,9.595,4.876c1.971-1.152,4.219-1.762,6.502-1.762c0.003,0,0.004,0,0.006,0c3.443,0.001,6.68,1.342,9.113,3.776c1.602,1.603,2.729,3.552,3.313,5.679l1.558-3.483c0.226-0.504,0.814-0.732,1.321-0.505c0.504,0.226,0.73,0.817,0.505,1.321l-2.878,6.434c-0.097,0.216-0.266,0.389-0.474,0.49c-0.048,0.033-0.099,0.062-0.152,0.087C28.274,16.976,28.132,17.006,27.989,17.006z"/><path d="M15.899,28.886c-5.919,0-10.919-4.01-12.425-9.457l-1.562,3.486c-0.226,0.504-0.817,0.729-1.321,0.503c-0.504-0.226-0.729-0.817-0.503-1.321l2.878-6.423c0.097-0.217,0.268-0.39,0.478-0.491c0.046-0.032,0.096-0.061,0.147-0.084c0.352-0.164,0.77-0.107,1.067,0.146l5.322,4.521c0.418,0.354,0.472,0.979,0.121,1.401c-0.35,0.421-0.975,0.483-1.4,0.136L5.311,18.54c1.148,4.782,5.461,8.346,10.589,8.346c0.003,0,0.005,0,0.008,0c1.928-0.001,3.825-0.516,5.488-1.488c0.477-0.279,1.088-0.12,1.368,0.358c0.278,0.477,0.118,1.089-0.358,1.368c-1.969,1.151-4.216,1.761-6.497,1.762C15.905,28.886,15.902,28.886,15.899,28.886z"/></svg>