<svg xmlns="http://www.w3.org/2000/svg" viewBox="0 0 32 32"><!--! Font Icona - https://fonticona.com | License - https://fonticona.com/license | Copyright 2022 FontIcona.com --><path d="M26.964,32H5.036c-1.654,0-3-1.346-3-3v-5.789c0-1.654,1.346-3,3-3h21.928c1.654,0,3,1.346,3,3V29C29.964,30.654,28.618,32,26.964,32z M5.036,22.211c-0.552,0-1,0.448-1,1V29c0,0.552,0.448,1,1,1h21.928c0.552,0,1-0.448,1-1v-5.789c0-0.552-0.448-1-1-1H5.036z"/><path d="M28.964,29.189H16.589c-1.654,0-3-1.346-3-3v-0.166c0-1.654,1.346-3,3-3h12.375v2H16.589c-0.552,0-1,0.448-1,1v0.166c0,0.552,0.448,1,1,1h12.375V29.189z"/><rect x="18.704" y="10.011" width="2" height="11.2"/><path d="M19.704,11.011c-1.589,0-2.882-1.292-2.882-2.881s1.293-2.882,2.882-2.882s2.881,1.293,2.881,2.882S21.293,11.011,19.704,11.011z M19.704,7.248c-0.486,0-0.882,0.396-0.882,0.882c0,0.485,0.396,0.881,0.882,0.881c0.485,0,0.881-0.396,0.881-0.881C20.585,7.644,20.189,7.248,19.704,7.248z"/><path d="M16.146,12.697c-0.141,0-0.283-0.029-0.419-0.093c-1.831-0.848-3.015-2.696-3.015-4.71c0-2.005,1.177-3.851,2.997-4.702c0.504-0.231,1.097-0.017,1.33,0.482c0.233,0.501,0.018,1.096-0.482,1.33c-1.121,0.523-1.845,1.658-1.845,2.89c0,1.237,0.728,2.374,1.854,2.896c0.501,0.231,0.72,0.826,0.487,1.327C16.885,12.483,16.523,12.697,16.146,12.697z"/><path d="M15.52,15.795c-0.104,0-0.211-0.017-0.315-0.051c-3.389-1.127-5.665-4.281-5.665-7.85c0-3.559,2.269-6.711,5.646-7.843c0.518-0.174,1.09,0.106,1.266,0.631c0.176,0.523-0.106,1.09-0.631,1.266c-2.561,0.858-4.281,3.248-4.281,5.946c0,2.705,1.727,5.097,4.296,5.951c0.524,0.175,0.808,0.74,0.634,1.265C16.329,15.53,15.938,15.795,15.52,15.795z"/><path d="M23.188,12.696c-0.377,0-0.737-0.213-0.907-0.576c-0.233-0.501-0.018-1.096,0.482-1.33c1.121-0.523,1.845-1.658,1.845-2.89c0-1.237-0.728-2.374-1.854-2.896c-0.501-0.231-0.72-0.826-0.487-1.327c0.231-0.502,0.826-0.721,1.327-0.487c1.831,0.848,3.015,2.696,3.015,4.71c0,2.005-1.177,3.851-2.997,4.702C23.473,12.666,23.329,12.696,23.188,12.696z"/><path d="M23.816,15.795c-0.418,0-0.808-0.264-0.948-0.683c-0.176-0.523,0.106-1.09,0.631-1.266c2.561-0.858,4.281-3.248,4.281-5.946c0-2.705-1.727-5.097-4.297-5.951c-0.524-0.175-0.808-0.74-0.634-1.265c0.174-0.523,0.742-0.806,1.265-0.634c3.389,1.127,5.666,4.281,5.666,7.85c0,3.559-2.269,6.711-5.646,7.843C24.029,15.778,23.922,15.795,23.816,15.795z"/><circle cx="9.452" cy="26.106" r="1.25"/><circle cx="6.292" cy="26.106" r="1.25"/></svg>