<svg xmlns="http://www.w3.org/2000/svg" viewBox="0 0 32 32"><!--! Font Icona - https://fonticona.com | License - https://fonticona.com/license | Copyright 2022 FontIcona.com --><path d="M31.856,32h-7.831l-0.002-0.998c-0.014-6.021-2.478-11.902-6.759-16.136c-4.243-4.326-10.137-6.82-16.181-6.855L0.09,8.005v-8.008L1.093,0c7.344,0.021,14.455,2.668,20.026,7.452c8.004,6.725,11.189,16.703,10.791,23.605L31.856,32z M26.001,30h3.942c0.043-6.346-2.996-15.039-10.119-21.023C14.86,4.714,8.6,2.267,2.09,2.021v4.017c6.222,0.291,12.221,2.961,16.592,7.417C23.092,17.816,25.73,23.802,26.001,30z"/><path d="M21.817,32h-7.992l-0.013-0.987c-0.044-3.382-1.397-6.55-3.812-8.921c-2.391-2.402-5.561-3.766-8.936-3.847L0.09,18.22v-7.802l0.947-0.05c4.902-0.26,10.223,1.831,14.204,5.59c4.211,3.976,6.545,9.316,6.571,15.036L21.817,32z M15.768,30h4.014c-0.275-4.786-2.353-9.224-5.913-12.586c-3.333-3.148-7.672-5-11.778-5.065v3.951c3.524,0.312,6.804,1.844,9.32,4.373C13.96,23.176,15.488,26.46,15.768,30z"/><path d="M5.146,32l-0.045,0c-2.781,0-5.044-2.263-5.044-5.044c0-1.348,0.524-2.614,1.478-3.567s2.22-1.477,3.566-1.477c0.001,0,0.001,0,0.001,0c2.781,0,5.044,2.263,5.044,5.044C10.146,29.757,7.902,32,5.146,32z M5.101,23.911c-0.812,0-1.577,0.316-2.152,0.891c-0.575,0.575-0.892,1.34-0.892,2.153C2.057,28.634,3.422,30,5.101,30l0.03,0c1.669,0,3.015-1.346,3.015-3C8.146,25.277,6.78,23.911,5.101,23.911C5.102,23.911,5.102,23.911,5.101,23.911z"/></svg>