<svg xmlns="http://www.w3.org/2000/svg" viewBox="0 0 32 32"><!--! Font Icona - https://fonticona.com | License - https://fonticona.com/license | Copyright 2022 FontIcona.com --><path d="M10.934,32c-0.553,0-1-0.447-1-1V1c0-0.552,0.447-1,1-1h9.188c4.837,0,8.771,3.935,8.771,8.772c0,4.836-3.935,8.772-8.771,8.772h-8.188V31C11.934,31.553,11.486,32,10.934,32z M11.934,15.543h8.188c3.733,0,6.771-3.038,6.771-6.771S23.855,2,20.122,2h-8.188V15.543z"/><path d="M22.483,23.719H4.396c-0.553,0-1-0.447-1-1s0.447-1,1-1h18.088c0.553,0,1,0.447,1,1S23.036,23.719,22.483,23.719z"/><path d="M10.934,17.508H4.106c-0.553,0-1-0.447-1-1s0.447-1,1-1h6.827c0.553,0,1,0.448,1,1S11.486,17.508,10.934,17.508z"/></svg>