<svg xmlns="http://www.w3.org/2000/svg" viewBox="0 0 32 32"><!--! Font Icona - https://fonticona.com | License - https://fonticona.com/license | Copyright 2022 FontIcona.com --><path d="M16,30.682c-0.638,0-1.242-0.307-1.617-0.822L0.356,10.6c-0.46-0.7-0.466-1.556-0.044-2.221l3.882-6.125c0.371-0.586,1.007-0.936,1.7-0.936h20.211c0.693,0,1.329,0.35,1.7,0.936l3.882,6.132c0.422,0.664,0.416,1.52-0.017,2.179L17.617,29.859C17.242,30.375,16.638,30.682,16,30.682z M5.895,3.318L2.002,9.45L16,28.682l0,0L30.026,9.428l-3.91-6.104L5.895,3.318z"/><path d="M15.984,21.384l-2.32-1.979c-1.218-0.965-2.414-2.042-3.528-3.177c-0.96-0.911-1.768-1.998-2.378-3.206c-1.301-2.548-0.284-5.685,2.268-6.988c2-1.021,4.407-0.619,5.975,0.891c1.294-1.295,3.216-1.799,5.016-1.274c1.913,0.428,3.395,2.007,3.711,4.007c0.239,1.354-0.034,2.76-0.772,3.94c-0.623,1.078-1.426,2.08-2.367,2.95c-0.929,0.86-1.882,1.691-2.834,2.521l-0.787,0.688c-0.402,0.355-0.819,0.691-1.248,1.036L15.984,21.384z M12.384,7.467c-0.491,0-0.987,0.113-1.448,0.348c-1.57,0.802-2.196,2.731-1.395,4.302c0.509,1.007,1.18,1.909,1.996,2.686c1.082,1.1,2.217,2.121,3.398,3.058l1.084,0.924c0.211-0.174,0.42-0.349,0.625-0.53l0.795-0.694c0.937-0.817,1.874-1.634,2.789-2.481c0.796-0.735,1.473-1.58,2.013-2.512c0.492-0.79,0.669-1.696,0.514-2.58c-0.191-1.202-1.069-2.138-2.24-2.401c-1.234-0.358-2.509,0.025-3.297,0.969c-0.094,0.108-0.167,0.206-0.241,0.304c-0.068,0.089-0.137,0.179-0.21,0.269l-0.855,1.056l-0.902-1.355C14.403,7.953,13.405,7.467,12.384,7.467z"/></svg>