<svg xmlns="http://www.w3.org/2000/svg" viewBox="0 0 32 32"><!--! Font Icona - https://fonticona.com | License - https://fonticona.com/license | Copyright 2022 FontIcona.com --><path d="M30,22.5H2c-1.103,0-2-0.897-2-2v-9c0-1.103,0.897-2,2-2h28c1.103,0,2,0.897,2,2v9C32,21.603,31.103,22.5,30,22.5z M2,11.5v9h28v-9H2z"/><path d="M26.958,14.728c-0.552,0-1-0.448-1-1V11.5c0-0.552,0.448-1,1-1s1,0.448,1,1v2.228C27.958,14.28,27.511,14.728,26.958,14.728z"/><path d="M22.575,16.083c-0.552,0-1-0.448-1-1V11.5c0-0.552,0.448-1,1-1s1,0.448,1,1v3.583C23.575,15.636,23.127,16.083,22.575,16.083z"/><path d="M18.192,14.728c-0.552,0-1-0.448-1-1V11.5c0-0.552,0.448-1,1-1s1,0.448,1,1v2.228C19.192,14.28,18.744,14.728,18.192,14.728z"/><path d="M13.808,16.083c-0.552,0-1-0.448-1-1V11.5c0-0.552,0.448-1,1-1s1,0.448,1,1v3.583C14.808,15.636,14.36,16.083,13.808,16.083z"/><path d="M9.425,14.728c-0.552,0-1-0.448-1-1V11.5c0-0.552,0.448-1,1-1s1,0.448,1,1v2.228C10.425,14.28,9.977,14.728,9.425,14.728z"/><path d="M5.042,16.083c-0.552,0-1-0.448-1-1V11.5c0-0.552,0.448-1,1-1s1,0.448,1,1v3.583C6.042,15.636,5.594,16.083,5.042,16.083z"/></svg>