<svg xmlns="http://www.w3.org/2000/svg" viewBox="0 0 32 32"><!--! Font Icona - https://fonticona.com | License - https://fonticona.com/license | Copyright 2022 FontIcona.com --><path d="M20.5,32h-9c-1.103,0-2-0.897-2-2V2c0-1.103,0.897-2,2-2h9c1.103,0,2,0.897,2,2v28C22.5,31.103,21.603,32,20.5,32z M11.5,2v28h9V2H11.5z"/><path d="M20.5,27.958h-2.228c-0.553,0-1-0.447-1-1s0.447-1,1-1H20.5c0.553,0,1,0.447,1,1S21.053,27.958,20.5,27.958z"/><path d="M20.5,23.575h-3.583c-0.553,0-1-0.447-1-1s0.447-1,1-1H20.5c0.553,0,1,0.447,1,1S21.053,23.575,20.5,23.575z"/><path d="M20.5,19.191h-2.228c-0.553,0-1-0.447-1-1s0.447-1,1-1H20.5c0.553,0,1,0.447,1,1S21.053,19.191,20.5,19.191z"/><path d="M20.5,14.808h-3.583c-0.553,0-1-0.448-1-1s0.447-1,1-1H20.5c0.553,0,1,0.448,1,1S21.053,14.808,20.5,14.808z"/><path d="M20.5,10.425h-2.228c-0.553,0-1-0.448-1-1s0.447-1,1-1H20.5c0.553,0,1,0.448,1,1S21.053,10.425,20.5,10.425z"/><path d="M20.5,6.042h-3.583c-0.553,0-1-0.448-1-1s0.447-1,1-1H20.5c0.553,0,1,0.448,1,1S21.053,6.042,20.5,6.042z"/></svg>