<svg xmlns="http://www.w3.org/2000/svg" viewBox="0 0 32 32"><!--! Font Icona - https://fonticona.com | License - https://fonticona.com/license | Copyright 2022 FontIcona.com --><path d="M3.864,27.402c-0.422,0-0.814-0.269-0.951-0.691c-0.17-0.525,0.117-1.09,0.643-1.26l7.312-2.371l6.404-15.274c0.213-0.51,0.8-0.749,1.309-0.536c0.509,0.214,0.749,0.8,0.535,1.309l-6.581,15.697c-0.113,0.269-0.337,0.475-0.614,0.564l-7.748,2.513C4.07,27.387,3.966,27.402,3.864,27.402z"/><path d="M19.308,32c-0.099,0-0.2-0.015-0.3-0.046c-0.526-0.166-0.819-0.727-0.654-1.254l2.968-9.446l-7.197-2.855c-0.514-0.204-0.765-0.785-0.561-1.299c0.204-0.513,0.784-0.764,1.298-0.561l8.062,3.198c0.486,0.193,0.742,0.729,0.585,1.229L20.262,31.3C20.128,31.727,19.733,32,19.308,32z"/><path d="M23.777,13.851c-0.228,0-0.455-0.077-0.642-0.233L17.54,8.942c-0.424-0.354-0.479-0.984-0.126-1.408c0.354-0.423,0.983-0.481,1.409-0.126l4.908,4.102l3.713-3.561c0.399-0.382,1.031-0.37,1.414,0.029s0.369,1.032-0.029,1.414l-4.359,4.181C24.276,13.758,24.027,13.851,23.777,13.851z"/><path d="M8.112,13.45c-0.223,0-0.446-0.074-0.632-0.226c-0.428-0.349-0.492-0.979-0.142-1.407l3.674-4.5c0.197-0.243,0.497-0.378,0.81-0.367l6.396,0.226c0.552,0.02,0.983,0.483,0.964,1.035c-0.019,0.54-0.463,0.965-0.998,0.965c-0.013,0-0.024,0-0.036,0l-5.899-0.208l-3.36,4.115C8.689,13.325,8.402,13.45,8.112,13.45z"/><path d="M5.524,29.784c-0.316,0-0.627-0.149-0.821-0.429l-1.66-2.382c-0.316-0.453-0.205-1.076,0.249-1.392c0.454-0.314,1.077-0.204,1.392,0.249l1.66,2.382c0.316,0.453,0.205,1.076-0.249,1.392C5.921,29.726,5.722,29.784,5.524,29.784z"/><path d="M22.126,32h-2.787c-0.553,0-1-0.447-1-1s0.447-1,1-1h2.787c0.553,0,1,0.447,1,1S22.679,32,22.126,32z"/><path d="M21.871,7.538c-0.586,0-1.168-0.137-1.705-0.409c-0.902-0.456-1.569-1.234-1.88-2.192c-0.311-0.958-0.227-1.98,0.235-2.878c0.462-0.895,1.245-1.56,2.206-1.871l0,0c0.96-0.311,1.984-0.233,2.884,0.221c0.902,0.456,1.569,1.234,1.88,2.192c0.311,0.958,0.227,1.98-0.235,2.878c-0.462,0.896-1.245,1.56-2.206,1.871C22.663,7.475,22.267,7.538,21.871,7.538z M21.904,2c-0.188,0-0.376,0.029-0.56,0.089l0,0c-0.456,0.148-0.827,0.462-1.045,0.885c-0.217,0.42-0.256,0.898-0.111,1.345c0.145,0.447,0.457,0.811,0.879,1.024c0.426,0.214,0.91,0.25,1.365,0.104c0.456-0.148,0.827-0.462,1.045-0.885c0.217-0.42,0.256-0.898,0.111-1.345c-0.145-0.447-0.457-0.811-0.879-1.024C22.456,2.065,22.182,2,21.904,2z M21.036,1.138h0.01H21.036z"/></svg>