<svg xmlns="http://www.w3.org/2000/svg" viewBox="0 0 32 32"><!--! Font Icona - https://fonticona.com | License - https://fonticona.com/license | Copyright 2022 FontIcona.com --><path d="M11.773,15.789c-1.938,0-3.801-0.709-5.248-1.997c-0.412-0.367-0.449-0.999-0.082-1.412c0.368-0.414,1.001-0.448,1.412-0.083c1.08,0.961,2.472,1.491,3.918,1.491c3.25,0,5.895-2.644,5.895-5.895c0-3.25-2.645-5.894-5.895-5.894c-0.553,0-1-0.448-1-1s0.447-1,1-1c4.354,0,7.895,3.541,7.895,7.894S16.127,15.789,11.773,15.789z"/><path d="M25.393,2H6.607c-0.553,0-1-0.448-1-1s0.447-1,1-1h18.785c0.553,0,1,0.448,1,1S25.945,2,25.393,2z"/><path d="M25.393,7.636H6.607c-0.553,0-1-0.448-1-1s0.447-1,1-1h18.785c0.553,0,1,0.448,1,1S25.945,7.636,25.393,7.636z"/><path d="M22.903,32c-0.278,0-0.555-0.115-0.753-0.342L6.438,13.704c-0.363-0.416-0.321-1.047,0.095-1.411c0.413-0.363,1.046-0.322,1.411,0.094l15.713,17.956c0.363,0.415,0.321,1.047-0.095,1.411C23.372,31.919,23.138,32,22.903,32z"/></svg>