<svg xmlns="http://www.w3.org/2000/svg" viewBox="0 0 32 32"><!--! Font Icona - https://fonticona.com | License - https://fonticona.com/license | Copyright 2022 FontIcona.com --><path d="M16,32c-4.687,0-8.5-3.813-8.5-8.5c0-0.552,0.447-1,1-1s1,0.448,1,1c0,3.584,2.916,6.5,6.5,6.5s6.5-2.916,6.5-6.5c0-3.718-2.232-5.908-6.635-6.509C10.545,16.203,7.5,13.108,7.5,8.5C7.5,3.813,11.313,0,16,0c2.828,0,5.463,1.401,7.048,3.747c0.309,0.458,0.188,1.079-0.27,1.388c-0.459,0.31-1.08,0.188-1.389-0.269C20.178,3.072,18.163,2,16,2c-3.584,0-6.5,2.916-6.5,6.5c0,4.567,3.614,6.062,6.646,6.511c5.383,0.735,8.354,3.75,8.354,8.489C24.5,28.187,20.687,32,16,32z"/></svg>