<svg xmlns="http://www.w3.org/2000/svg" viewBox="0 0 32 32"><!--! Font Icona - https://fonticona.com | License - https://fonticona.com/license | Copyright 2022 FontIcona.com --><path d="M16,25.704c-3.522,0-6.389-2.401-6.389-5.352c0-0.552,0.447-1,1-1s1,0.448,1,1c0,1.848,1.969,3.352,4.389,3.352s4.389-1.504,4.389-3.352c0-1.899-1.514-3.029-4.498-3.358c-3.994-0.478-6.279-2.426-6.279-5.346c0-2.951,2.866-5.352,6.389-5.352c2.086,0,4.043,0.852,5.235,2.277c0.354,0.424,0.298,1.055-0.126,1.409c-0.425,0.356-1.054,0.298-1.409-0.125c-0.816-0.977-2.2-1.561-3.7-1.561c-2.42,0-4.389,1.504-4.389,3.352c0,2.331,2.451,3.113,4.508,3.359c3.98,0.438,6.27,2.387,6.27,5.345C22.389,23.303,19.522,25.704,16,25.704z"/></svg>