<svg xmlns="http://www.w3.org/2000/svg" viewBox="0 0 32 32"><!--! Font Icona - https://fonticona.com | License - https://fonticona.com/license | Copyright 2022 FontIcona.com --><path d="M7.265,8.222c-0.257,0-0.514-0.098-0.709-0.295L5.118,6.482C4.729,6.091,4.73,5.458,5.122,5.068S6.146,4.68,6.536,5.072l1.438,1.445c0.39,0.391,0.388,1.024-0.004,1.414C7.774,8.125,7.52,8.222,7.265,8.222z"/><path d="M3.774,15.033c-0.053,0-0.106-0.004-0.16-0.013l-2.012-0.324c-0.545-0.088-0.916-0.601-0.828-1.146c0.088-0.546,0.599-0.92,1.146-0.829l2.012,0.324c0.545,0.088,0.916,0.601,0.828,1.146C4.682,14.683,4.257,15.033,3.774,15.033z"/><path d="M3.135,23.516c-0.365,0-0.717-0.2-0.894-0.548c-0.249-0.493-0.052-1.094,0.44-1.344L4.5,20.703c0.496-0.251,1.094-0.052,1.345,0.44c0.249,0.493,0.052,1.094-0.44,1.344l-1.818,0.921C3.44,23.481,3.286,23.516,3.135,23.516z"/><path d="M9.42,29.834c-0.153,0-0.31-0.035-0.455-0.11c-0.491-0.252-0.686-0.855-0.434-1.346l0.93-1.814c0.252-0.491,0.857-0.686,1.346-0.434c0.491,0.252,0.686,0.855,0.434,1.346l-0.93,1.814C10.134,29.636,9.783,29.834,9.42,29.834z"/><path d="M18.22,31.25c-0.484,0-0.91-0.353-0.987-0.846l-0.313-2.014c-0.085-0.546,0.289-1.057,0.834-1.142c0.556-0.082,1.058,0.29,1.143,0.834l0.313,2.014c0.085,0.546-0.289,1.057-0.834,1.142C18.322,31.246,18.271,31.25,18.22,31.25z"/><path d="M26.173,27.223c-0.257,0-0.514-0.098-0.709-0.295l-1.438-1.445c-0.39-0.391-0.388-1.024,0.004-1.414s1.024-0.389,1.414,0.004l1.438,1.445c0.39,0.391,0.388,1.024-0.004,1.414C26.683,27.125,26.428,27.223,26.173,27.223z"/><path d="M30.239,19.291c-0.053,0-0.106-0.004-0.16-0.013l-2.012-0.324c-0.545-0.088-0.916-0.601-0.828-1.146c0.088-0.545,0.599-0.917,1.146-0.829l2.012,0.324c0.545,0.088,0.916,0.601,0.828,1.146C31.146,18.941,30.722,19.291,30.239,19.291z"/><path d="M27.049,11.405c-0.365,0-0.717-0.2-0.894-0.548c-0.249-0.493-0.052-1.094,0.44-1.344l1.818-0.921c0.496-0.251,1.094-0.053,1.345,0.44c0.249,0.493,0.052,1.094-0.44,1.344L27.5,11.297C27.354,11.371,27.2,11.405,27.049,11.405z"/><path d="M21.648,5.98c-0.153,0-0.31-0.035-0.455-0.11c-0.491-0.252-0.686-0.855-0.434-1.346l0.93-1.814c0.252-0.491,0.855-0.686,1.346-0.434c0.491,0.252,0.686,0.855,0.434,1.346l-0.93,1.814C22.362,5.782,22.012,5.98,21.648,5.98z"/><path d="M14.092,4.764c-0.484,0-0.91-0.353-0.987-0.846l-0.313-2.014c-0.085-0.546,0.289-1.057,0.834-1.142c0.557-0.082,1.058,0.29,1.143,0.834l0.313,2.014c0.085,0.546-0.289,1.057-0.834,1.142C14.194,4.76,14.143,4.764,14.092,4.764z"/><path d="M16,32C7.178,32,0,24.822,0,16S7.178,0,16,0s16,7.178,16,16S24.822,32,16,32z M16,2C8.28,2,2,8.28,2,16s6.28,14,14,14s14-6.28,14-14S23.72,2,16,2z"/><path d="M6.176,26.824c-0.258,0-0.514-0.1-0.707-0.293c-0.337-0.337-0.39-0.864-0.126-1.261l7.905-11.881c0.031-0.046,0.066-0.09,0.104-0.131c0.381-0.403,1.017-0.424,1.418-0.047c0.376,0.354,0.421,0.928,0.114,1.329l-5.12,7.695l7.724-5.138c0.398-0.278,0.956-0.231,1.3,0.132c0.379,0.402,0.365,1.03-0.036,1.41c-0.041,0.039-0.095,0.083-0.142,0.114L6.729,26.657C6.561,26.769,6.368,26.824,6.176,26.824z"/><polygon points="18.065,17.911 14.089,13.935 25.824,6.176 "/><path d="M18.065,18.911c-0.264,0-0.519-0.104-0.707-0.293l-3.977-3.976c-0.212-0.212-0.318-0.509-0.288-0.808c0.03-0.298,0.193-0.568,0.443-0.733l11.735-7.759c0.396-0.261,0.922-0.209,1.259,0.127c0.336,0.336,0.39,0.862,0.127,1.258l-7.759,11.735c-0.165,0.25-0.435,0.414-0.733,0.444C18.133,18.91,18.099,18.911,18.065,18.911z M15.662,14.094l2.244,2.245l4.38-6.625L15.662,14.094z"/></svg>