<svg xmlns="http://www.w3.org/2000/svg" viewBox="0 0 32 32"><!--! Font Icona - https://fonticona.com | License - https://fonticona.com/license | Copyright 2022 FontIcona.com --><path d="M12.312,27.195c-2.301,0-4.428-1.212-5.615-3.145c-0.248,0.032-0.498,0.047-0.748,0.047C2.668,24.098,0,21.429,0,18.149c0-1.923,0.917-3.694,2.44-4.804c-0.196-0.629-0.295-1.283-0.295-1.954c0-3.632,2.955-6.587,6.587-6.587c1.773,0,3.458,0.718,4.686,1.96c1.13-0.849,2.495-1.306,3.938-1.306c2.083,0,4.033,0.991,5.268,2.634c0.687-0.212,1.4-0.319,2.129-0.319c3.996,0,7.247,3.251,7.247,7.247c0,4.216-3.637,7.617-7.911,7.216c-1.556,1.745-4.042,2.555-6.321,2.062C16.551,26.104,14.528,27.195,12.312,27.195z M7.787,21.745l0.352,0.769c0.746,1.629,2.383,2.682,4.173,2.682c1.739,0,3.308-0.965,4.094-2.52l0.397-0.785l0.829,0.294c1.856,0.66,4.055-0.012,5.229-1.606l0.368-0.499l0.61,0.107C27.107,20.759,30,18.214,30,15.021c0-2.893-2.354-5.247-5.247-5.247c-0.737,0-1.451,0.151-2.122,0.448l-0.83,0.368l-0.446-0.792c-0.813-1.443-2.346-2.34-3.999-2.34c-1.266,0-2.445,0.506-3.32,1.425l-0.843,0.884l-0.7-1.001c-0.86-1.229-2.266-1.962-3.761-1.962c-2.529,0-4.587,2.058-4.587,4.587c0,0.677,0.145,1.331,0.431,1.941l0.406,0.869l-0.851,0.442C2.816,15.327,2,16.67,2,18.149c0,2.177,1.771,3.948,3.948,3.948c0.345,0,0.689-0.045,1.023-0.134L7.787,21.745z"/><path d="M6.384,16.276C6.088,16.172,5.995,16.113,5.995,16c0-0.123,0.103-0.197,0.285-0.197c0.207,0,0.413,0.078,0.521,0.138l0.133-0.517c-0.148-0.074-0.399-0.138-0.679-0.138c-0.595,0-0.979,0.34-0.979,0.787c-0.005,0.286,0.187,0.556,0.684,0.723c0.28,0.093,0.354,0.152,0.354,0.275c0,0.123-0.094,0.202-0.32,0.202c-0.221,0-0.506-0.099-0.644-0.182l-0.133,0.536c0.182,0.099,0.462,0.167,0.777,0.167c0.689,0,1.043-0.33,1.043-0.777C7.033,16.664,6.841,16.433,6.384,16.276z"/><path d="M9.498,16.325c0-0.566-0.256-1.038-1.058-1.038c-0.438,0-0.767,0.118-0.935,0.211l0.138,0.482c0.157-0.099,0.418-0.182,0.664-0.182c0.369,0,0.438,0.182,0.438,0.31v0.034c-0.851-0.005-1.412,0.295-1.412,0.92c0,0.384,0.29,0.738,0.777,0.738c0.285,0,0.531-0.103,0.689-0.295h0.015l0.044,0.241h0.674c-0.025-0.133-0.034-0.354-0.034-0.585V16.325z M8.77,16.871c0,0.044-0.005,0.089-0.015,0.128c-0.049,0.153-0.202,0.276-0.389,0.276c-0.167,0-0.295-0.093-0.295-0.285c0-0.29,0.305-0.384,0.698-0.379V16.871z"/><rect x="10.09" y="14.254" width="0.748" height="3.492"/><path d="M12.521,15.287c-0.836,0-1.215,0.674-1.215,1.284c0,0.753,0.467,1.225,1.284,1.225c0.325,0,0.625-0.049,0.871-0.148l-0.098-0.507c-0.202,0.064-0.408,0.099-0.664,0.099c-0.349,0-0.654-0.147-0.679-0.457h1.549c0.01-0.054,0.025-0.167,0.025-0.295C13.593,15.892,13.298,15.287,12.521,15.287z M12.014,16.271c0.02-0.202,0.147-0.487,0.462-0.487c0.344,0,0.423,0.305,0.423,0.487H12.014z"/><path d="M18.943,15.287c-0.772,0-1.284,0.497-1.284,1.274c0,0.777,0.541,1.24,1.244,1.24c0.644,0,1.269-0.403,1.269-1.284C20.172,15.793,19.681,15.287,18.943,15.287z M18.923,17.264c-0.32,0-0.492-0.31-0.492-0.723c0-0.354,0.133-0.723,0.492-0.723c0.339,0,0.477,0.364,0.477,0.723C19.4,16.974,19.213,17.264,18.923,17.264z"/><path d="M21.306,15.784h-0.02l-0.025-0.443h-0.644c0.01,0.207,0.02,0.438,0.02,0.792v1.613h0.748v-1.22c0-0.059,0.005-0.118,0.015-0.167c0.049-0.232,0.236-0.379,0.511-0.379c0.084,0,0.148,0.01,0.202,0.02v-0.703c-0.054-0.01-0.089-0.01-0.157-0.01C21.724,15.287,21.428,15.434,21.306,15.784z"/><path d="M23.741,15.862c0.197,0,0.33,0.034,0.418,0.074l0.118-0.556c-0.157-0.059-0.374-0.094-0.571-0.094c-0.895,0-1.377,0.576-1.377,1.279c0,0.757,0.497,1.23,1.274,1.23c0.285,0,0.536-0.049,0.669-0.108l-0.089-0.551c-0.113,0.044-0.251,0.074-0.428,0.074c-0.364,0-0.659-0.231-0.659-0.674C23.092,16.143,23.348,15.862,23.741,15.862z"/><path d="M26.782,16.487c0-0.595-0.295-1.2-1.072-1.2c-0.836,0-1.215,0.674-1.215,1.284c0,0.753,0.467,1.225,1.284,1.225c0.325,0,0.625-0.049,0.871-0.148l-0.098-0.507c-0.202,0.064-0.408,0.099-0.664,0.099c-0.349,0-0.654-0.147-0.679-0.457h1.549C26.767,16.728,26.782,16.615,26.782,16.487z M25.203,16.271c0.02-0.202,0.147-0.487,0.462-0.487c0.344,0,0.423,0.305,0.423,0.487H25.203z"/><path d="M15.724,17.018c-0.005-0.354-0.197-0.585-0.654-0.743c-0.295-0.103-0.389-0.162-0.389-0.276c0-0.123,0.103-0.197,0.285-0.197c0.207,0,0.413,0.078,0.521,0.138l0.133-0.517c-0.148-0.074-0.398-0.138-0.679-0.138c-0.595,0-0.979,0.34-0.979,0.787c-0.005,0.286,0.187,0.556,0.684,0.723c0.28,0.093,0.354,0.152,0.354,0.275c0,0.123-0.094,0.202-0.32,0.202c-0.221,0-0.506-0.099-0.644-0.182l-0.133,0.536c0.182,0.099,0.462,0.167,0.777,0.167C15.37,17.795,15.724,17.466,15.724,17.018z"/><path d="M17.614,14.78c0.093,0,0.167,0.015,0.231,0.044l0.123-0.565c-0.079-0.034-0.207-0.059-0.379-0.059c-0.236,0-0.492,0.064-0.684,0.231c-0.241,0.202-0.354,0.502-0.404,0.782l-0.024,0.128h-0.31l-0.103,0.536h0.31l-0.349,1.869c0,0-0.032,0.28-0.223,0.46l-0.469,0.145c0,0,0.859,0.953,1.318-0.406l-0.015,0.005c0.032-0.064,0.065-0.116,0.094-0.203l0.349-1.869h0.472l0.103-0.536h-0.477l0.025-0.118C17.245,14.982,17.388,14.78,17.614,14.78z"/></svg>