<svg xmlns="http://www.w3.org/2000/svg" viewBox="0 0 32 32"><!--! Font Icona - https://fonticona.com | License - https://fonticona.com/license | Copyright 2022 FontIcona.com --><path d="M19.026,9.858c-0.35,0.945-1.088,1.797-1.621,2.29c-0.737,0.62-1.39,1.08-2.125,1.413c-0.342,0.194-0.705,0.337-1.07,0.453c-0.355,0.113-0.714,0.274-1.033,0.329c-0.324,0.068-0.637,0.133-0.94,0.196c-0.362,0.073-0.651,0.084-0.963,0.109c-0.583,0.018-1.248-0.016-1.677-0.145c-0.998-0.236-1.66-0.622-2.101-0.932c-0.21-0.148-0.397-0.322-0.466-0.415c-0.081-0.101-0.123-0.154-0.123-0.154l-0.01-0.013c-0.051-0.064-0.04-0.157,0.025-0.207c0.064-0.049,0.157-0.039,0.209,0.021c0,0,0.187,0.219,0.594,0.413c0.423,0.2,1.123,0.491,1.998,0.582c0.5,0.075,0.9,0.016,1.453-0.055c0.253-0.052,0.559-0.107,0.793-0.19c0.294-0.093,0.599-0.189,0.914-0.289c0.328-0.087,0.577-0.249,0.881-0.372c0.296-0.121,0.592-0.267,0.877-0.466c0.597-0.32,1.161-0.831,1.628-1.276c0.586-0.656,0.884-1.162,1.119-1.846c0.484-1.157-0.11-1.803-0.11-1.803c-0.162-0.194-0.377-0.361-0.682-0.492c-0.324-0.115-0.693-0.213-1.113-0.245c-0.831-0.077-1.766,0.006-2.694,0.171c-1.881,0.381-3.878,0.931-5.691,1.755C6.655,8.917,6.204,9.135,5.774,9.378c-0.4,0.277-0.856,0.5-1.215,0.816c-0.372,0.303-0.766,0.59-1.06,0.95l-0.441,0.468c-0.16,0.219-0.329,0.454-0.37,0.572c-0.353,0.647-0.431,1.448-0.166,2.142l0.043,0.134c0.008,0.02-0.052-0.115-0.021-0.047l0.011,0.022l0.022,0.045l0.044,0.089l0.175,0.354c0.11,0.134,0.163,0.26,0.316,0.426c0.251,0.319,0.585,0.61,0.957,0.896c1.46,1.066,4.01,2.375,4.492,5.269L8.6,21.884c0.002,0.176-0.007,0.382-0.02,0.571c-0.016,0.414-0.122,0.663-0.192,0.995c-0.213,0.594-0.473,1.159-0.846,1.634c-0.363,0.496-0.763,0.9-1.308,1.289c-0.134,0.102-0.561,0.347-0.819,0.449c-0.279,0.123-0.563,0.214-0.851,0.29c-0.578,0.143-1.177,0.216-1.862,0.111c-0.173-0.03-0.357-0.082-0.531-0.131c-0.187-0.075-0.375-0.158-0.555-0.267c-0.369-0.241-0.714-0.621-0.87-1.039c-0.314-0.845-0.146-1.546,0.023-2.032l0.065-0.198l0.017-0.049l0.056-0.125l0.035-0.069l0.14-0.274c0.142-0.229,0.355-0.558,0.517-0.724c0.676-0.764,1.396-1.244,2.014-1.667c0.7-0.47,1.248-0.769,1.826-1.129c0.545-0.348,1.177-0.622,1.697-0.901c0.286-0.142,0.483-0.254,0.812-0.403c0.241-0.101,0.471-0.198,0.689-0.29c1.751-0.721,2.751-1.132,2.751-1.132c0.521-0.215,1.122,0.025,1.341,0.536c0.213,0.497-0.016,1.069-0.509,1.297c0,0-0.982,0.451-2.701,1.241c-0.216,0.097-0.443,0.199-0.681,0.307c-0.206,0.11-0.421,0.224-0.646,0.344c-0.476,0.273-0.984,0.488-1.539,0.86c-0.529,0.347-1.198,0.744-1.71,1.112c-0.589,0.414-1.146,0.84-1.525,1.296c-0.112,0.129-0.107,0.152-0.195,0.259l-0.133,0.277l-0.033,0.07l-0.008,0.017c-0.037,0.084,0.04-0.095,0.032-0.072l-0.006,0.025l-0.029,0.099c-0.122,0.283-0.066,0.481-0.079,0.443c-0.012-0.009-0.036-0.065-0.047-0.052c0.011,0,0.031,0.006,0.047,0.021c0.044,0.003,0.076,0.018,0.126,0.028c0.211,0.035,0.548,0.014,0.87-0.074c0.68-0.18,1.171-0.509,1.613-1.129c0.231-0.285,0.365-0.623,0.49-0.946c0.02-0.147,0.103-0.367,0.087-0.45c0.002-0.057,0.017-0.099,0.027-0.17l-0.04-0.371c-0.065-0.529-0.526-1.264-1.152-1.838c-0.61-0.585-1.498-1.085-2.433-1.817c-0.46-0.366-0.932-0.781-1.334-1.301c-0.204-0.23-0.405-0.574-0.59-0.881l-0.172-0.362l-0.114-0.251l-0.081-0.244c-0.458-1.303-0.31-2.804,0.392-4.012c1.41-2.177,3.458-3.431,5.51-4.36c2.085-0.894,4.168-1.457,6.279-1.818c1.077-0.15,2.157-0.22,3.274-0.08c0.556,0.066,1.129,0.215,1.691,0.454c0.562,0.271,1.101,0.697,1.466,1.261C18.874,6.517,19.779,7.774,19.026,9.858z"/><path d="M11.563,24.72c-0.193,0-0.354-0.029-0.467-0.06c-0.998-0.264-1.716-1.323-1.83-2.698c-0.143-1.721,0.574-3.589,1.966-5.124c0.52-0.573,1.819-1.566,3.011-1.214c0.392,0.115,1.077,0.473,1.261,1.578c0.095,0.572,0.082,1.188-0.039,1.831c-0.282,1.506-0.932,3.034-1.879,4.418C12.871,24.498,12.094,24.72,11.563,24.72z M11.627,22.728h0.01H11.627z M13.538,17.609c-0.235,0.096-0.585,0.319-0.819,0.577c-1.02,1.125-1.549,2.441-1.452,3.611c0.044,0.534,0.246,0.836,0.338,0.915c0.012-0.033,0.144-0.126,0.327-0.393c0.791-1.157,1.332-2.42,1.563-3.656c0,0,0,0,0-0.001C13.566,18.282,13.581,17.928,13.538,17.609z"/><path d="M17.031,18.343c-0.268,0.949-0.515,1.937-0.685,2.886c-0.081,0.457-0.149,0.979-0.126,1.272c-0.01,0.034,0.055,0.13-0.067-0.102c-0.058-0.1-0.309-0.335-0.604-0.344c-0.216-0.025-0.364,0.052-0.364,0.052c-0.074,0.043,0.005-0.003,0.053-0.057c0.052-0.041,0.128-0.138,0.193-0.204l-0.142,0.217l3.356-6.989c0.241-0.501,0.85-0.716,1.362-0.481c0.388,0.179,0.608,0.565,0.587,0.959l-0.002,0.03c-0.004,0.076-0.002,0.249,0.008,0.383c0.007,0.142,0.031,0.289,0.047,0.433c0.048,0.29,0.126,0.569,0.213,0.846c0.111,0.265,0.218,0.531,0.374,0.768l0.289,0.498c0.1,0.184,0.189,0.369,0.272,0.561c0.163,0.383,0.293,0.793,0.373,1.238c0.069,0.452,0.073,0.956-0.068,1.48c-0.097,0.26-0.189,0.524-0.364,0.752c-0.149,0.248-0.356,0.426-0.561,0.609c-0.207,0.169-0.431,0.282-0.651,0.411l-0.658,0.25l0.083-0.028c-0.118,0.044-0.192,0.067-0.29,0.096c-0.094,0.027-0.192,0.051-0.301,0.072c-0.112,0.02-0.231,0.038-0.392,0.04c-0.063,0.005-0.189-0.007-0.285-0.021c-0.09-0.008-0.287-0.071-0.413-0.135c-0.186-0.108-0.375-0.26-0.477-0.458c-0.056-0.099-0.1-0.208-0.129-0.315c-0.021-0.089-0.024-0.152-0.029-0.231c-0.003-0.075-0.001-0.151,0.005-0.224l0.027-0.136c0.02-0.082,0.047-0.184,0.072-0.245c0.047-0.106,0.103-0.235,0.152-0.316l0.151-0.246l0.037-0.052l0.025-0.03c0.945-1.149,1.87-2.352,2.727-3.565c0.423-0.609,0.839-1.224,1.202-1.843c0.175-0.308,0.353-0.619,0.486-0.918c0.082-0.155,0.124-0.291,0.176-0.428c0.071-0.157,0.047-0.217,0.089-0.322l0.105-0.26c0.204-0.506,0.787-0.754,1.304-0.554c0.378,0.146,0.615,0.493,0.635,0.866l0,0.002c0.001,0.287,0.013,0.623,0.042,0.931c0.024,0.315,0.068,0.624,0.123,0.919c0.054,0.302,0.137,0.562,0.224,0.81c0.048,0.079,0.113,0.2,0.13,0.259c0.168,0.21,0.266,0.373,0.372,0.571c0.202,0.382,0.349,0.805,0.399,1.262c0.055,0.453-0.006,0.943-0.19,1.366c-0.168,0.435-0.45,0.784-0.744,1.084c-0.304,0.289-0.632,0.514-0.965,0.721l-0.033,0.02c-0.034,0.021-0.071,0.037-0.108,0.047c-0.241,0.067-0.421,0.098-0.691,0.094c-0.133-0.005-0.289-0.026-0.466-0.096c-0.186-0.076-0.387-0.244-0.483-0.445c-0.187-0.428-0.079-0.671-0.033-0.883c0.065-0.202,0.146-0.373,0.231-0.529c0.096-0.177,0.153-0.259,0.295-0.483l0.295-0.366c0.183-0.236,0.515-0.523,0.778-0.734c0.56-0.413,1.179-0.708,1.816-0.923c0.324-0.091,0.645-0.191,0.976-0.239c0.329-0.062,0.661-0.098,0.996-0.105c0.367-0.024,0.648,0.02,0.976,0.026c0.356,0.027,0.644,0.077,0.988,0.144c0.323,0.073,0.64,0.172,0.948,0.302c0.302,0.146,0.601,0.317,0.834,0.571c0.113,0.13,0.231,0.255,0.291,0.42c0.037,0.084,0.072,0.141,0.109,0.245l0.041,0.23c0.048,0.325,0.005,0.666-0.064,0.967c-0.149,0.616-0.406,1.198-0.752,1.719c0.298-0.548,0.499-1.144,0.589-1.748c0.04-0.309,0.052-0.597-0.015-0.884l-0.061-0.225l-0.103-0.171c-0.057-0.13-0.168-0.225-0.269-0.324c-0.21-0.193-0.481-0.319-0.756-0.425c-0.285-0.092-0.58-0.157-0.881-0.199c-0.283-0.033-0.625-0.059-0.902-0.056c-0.305,0.02-0.661,0.006-0.925,0.053c-0.299,0.032-0.594,0.09-0.883,0.17c-0.291,0.067-0.57,0.183-0.847,0.286c-0.543,0.238-1.05,0.539-1.475,0.914c-0.199,0.207-0.359,0.33-0.54,0.601l-0.262,0.389c-0.009,0.048-0.119,0.232-0.157,0.336c-0.054,0.124-0.094,0.24-0.115,0.337c-0.023,0.083,0.013,0.17-0.024,0.027c-0.028-0.059-0.098-0.128-0.141-0.139c-0.027-0.016-0.026-0.014,0-0.016c0.048-0.003,0.183-0.036,0.243-0.062l-0.14,0.067c0.242-0.184,0.469-0.373,0.651-0.579c0.167-0.21,0.309-0.423,0.362-0.64c0.143-0.42,0.015-0.88-0.262-1.314c-0.063-0.101-0.161-0.223-0.215-0.276c-0.176-0.225-0.285-0.402-0.421-0.613c-0.185-0.383-0.337-0.766-0.438-1.134c-0.105-0.37-0.188-0.735-0.25-1.099c-0.067-0.369-0.112-0.716-0.149-1.112l0-0.004l2.044,0.052c-0.049,0.261-0.098,0.587-0.184,0.778c-0.079,0.218-0.159,0.442-0.253,0.624c-0.178,0.394-0.378,0.743-0.579,1.095c-0.407,0.692-0.845,1.339-1.291,1.98c-0.901,1.274-1.835,2.489-2.827,3.695l0.061-0.082l-0.066,0.109c-0.023,0.036-0.015,0.038-0.03,0.056c0,0,0.015-0.031,0.015-0.047l0.002-0.036c0.007-0.039,0.01-0.08,0.007-0.121c-0.003-0.045-0.01-0.072-0.023-0.128c-0.014-0.075-0.044-0.153-0.086-0.221c-0.084-0.128-0.194-0.253-0.333-0.313c-0.058-0.044-0.192-0.071-0.211-0.075c-0.026-0.009-0.083-0.005-0.075-0.007c-0.02,0.001,0.001,0,0.027-0.005l0.109-0.026l0.11-0.035l0.05-0.016l0.034-0.013c0.114-0.048,0.229-0.091,0.346-0.13c0.08-0.06,0.185-0.103,0.251-0.159c0.133-0.111,0.199-0.22,0.255-0.363c0.007-0.089,0.043-0.162,0.034-0.274c0.012-0.098-0.012-0.221-0.02-0.337c-0.046-0.247-0.126-0.513-0.239-0.778c-0.057-0.132-0.12-0.265-0.189-0.391l-0.243-0.418c-0.23-0.359-0.392-0.745-0.548-1.133c-0.129-0.394-0.237-0.793-0.303-1.199c-0.025-0.205-0.056-0.407-0.067-0.615c-0.012-0.216-0.021-0.395-0.005-0.67l1.947,0.509l-3.356,6.989l-0.017,0.036c-0.032,0.067-0.076,0.13-0.125,0.182c-0.114,0.121-0.196,0.229-0.339,0.358c-0.138,0.124-0.256,0.252-0.563,0.41c-0.115,0.063-0.392,0.175-0.735,0.149c-0.427-0.024-0.793-0.337-0.916-0.547c-0.266-0.45-0.224-0.62-0.265-0.837c-0.04-0.73,0.063-1.228,0.148-1.779c0.192-1.067,0.445-2.069,0.733-3.092c0.15-0.534,0.714-0.848,1.259-0.701c0.545,0.147,0.865,0.699,0.715,1.233l0,0.001L17.031,18.343z"/></svg>