<svg xmlns="http://www.w3.org/2000/svg" viewBox="0 0 32 32"><!--! Font Icona - https://fonticona.com | License - https://fonticona.com/license | Copyright 2022 FontIcona.com --><path d="M16.252,21.932C16.252,21.932,16.252,21.932,16.252,21.932c-0.803,0-1.555-0.312-2.12-0.878l-3.223-3.23c-1.164-1.166-1.164-3.062,0-4.229l3.223-3.231c0.564-0.565,1.317-0.878,2.119-0.878h0c0.802,0,1.555,0.312,2.12,0.878l3.223,3.231c1.163,1.166,1.163,3.062,0,4.229l-3.223,3.23l0,0C17.808,21.62,17.055,21.932,16.252,21.932z M17.665,20.348h0.01H17.665z M16.252,11.485c-0.267,0-0.517,0.104-0.704,0.29l-3.223,3.231c-0.386,0.388-0.386,1.017,0,1.404l3.223,3.23c0.187,0.187,0.437,0.29,0.704,0.29l0,0c0.268,0,0.518-0.104,0.704-0.29l3.223-3.23c0.386-0.388,0.386-1.017,0-1.404l-3.223-3.231C16.77,11.589,16.52,11.485,16.252,11.485z"/><path d="M12.677,13.124c-0.256,0-0.513-0.098-0.708-0.294l-1.53-1.534c-0.39-0.391-0.389-1.024,0.002-1.414s1.024-0.39,1.414,0.002l1.53,1.534c0.39,0.391,0.389,1.024-0.002,1.414C13.188,13.026,12.933,13.124,12.677,13.124z"/><path d="M9.205,13.194c-0.266,0-0.521-0.105-0.708-0.294L0.873,5.258c-0.389-0.39-0.389-1.021,0-1.412l3.543-3.552c0.375-0.377,1.041-0.377,1.416,0l7.624,7.643c0.389,0.39,0.389,1.021,0,1.412L9.913,12.9C9.726,13.089,9.471,13.194,9.205,13.194z M2.994,4.552l6.211,6.227l2.13-2.136L5.124,2.416L2.994,4.552z"/><path d="M21.434,21.903c-0.256,0-0.513-0.098-0.708-0.294l-1.492-1.496c-0.39-0.391-0.389-1.024,0.002-1.414c0.391-0.39,1.024-0.39,1.414,0.002l1.492,1.496c0.39,0.391,0.389,1.024-0.002,1.414C21.945,21.806,21.689,21.903,21.434,21.903z"/><path d="M27.458,31.493c-0.266,0-0.521-0.105-0.708-0.294l-7.624-7.643c-0.389-0.39-0.389-1.021,0-1.412l3.543-3.552c0.188-0.188,0.442-0.294,0.708-0.294l0,0c0.266,0,0.521,0.105,0.708,0.294l7.624,7.644c0.389,0.391,0.389,1.022,0,1.412l-3.542,3.551C27.978,31.388,27.723,31.493,27.458,31.493z M21.246,22.851l6.211,6.227l2.13-2.135l-6.211-6.228L21.246,22.851z"/><path d="M5.594,9.574c-0.255,0-0.511-0.098-0.706-0.292c-0.391-0.39-0.392-1.023-0.002-1.414l3.543-3.552c0.39-0.392,1.023-0.392,1.414-0.002c0.391,0.39,0.392,1.023,0.002,1.414L6.302,9.28C6.106,9.477,5.85,9.574,5.594,9.574z"/><path d="M23.331,27.356c-0.255,0-0.511-0.098-0.706-0.292c-0.391-0.39-0.392-1.023-0.002-1.414l3.542-3.552c0.389-0.393,1.023-0.392,1.414-0.002s0.392,1.023,0.002,1.414l-3.542,3.552C23.843,27.259,23.587,27.356,23.331,27.356z"/><path d="M13.233,25.419c-0.255,0-0.511-0.098-0.706-0.292c-0.391-0.39-0.392-1.023-0.002-1.414c1.175-1.178,1.175-3.094,0-4.271c-1.136-1.139-3.116-1.139-4.252,0c-0.391,0.392-1.023,0.391-1.414,0.002c-0.391-0.39-0.392-1.023-0.002-1.414c0.946-0.948,2.204-1.471,3.542-1.471s2.596,0.522,3.542,1.471c1.952,1.955,1.952,5.138,0,7.095C13.746,25.321,13.489,25.419,13.233,25.419z"/><path d="M9.366,28.877c-3.446,0-6.25-2.81-6.25-6.264c0-0.553,0.448-1,1-1s1,0.447,1,1c0,2.351,1.907,4.264,4.25,4.264c0.552,0,1,0.447,1,1S9.918,28.877,9.366,28.877z"/><path d="M8.557,32C3.839,32,0,28.152,0,23.424c0-0.553,0.448-1,1-1s1,0.447,1,1C2,27.05,4.941,30,8.557,30c0.552,0,1,0.447,1,1S9.109,32,8.557,32z"/><path d="M10.175,25.993c-2.306,0-4.183-1.88-4.183-4.191c0-0.553,0.448-1,1-1s1,0.447,1,1c0,1.208,0.979,2.191,2.183,2.191c0.552,0,1,0.447,1,1S10.727,25.993,10.175,25.993z"/></svg>