<svg xmlns="http://www.w3.org/2000/svg" viewBox="0 0 32 32"><!--! Font Icona - https://fonticona.com | License - https://fonticona.com/license | Copyright 2022 FontIcona.com --><path d="M25.528,10.015c-0.06,0-0.12-0.005-0.181-0.017c-0.543-0.099-0.903-0.62-0.804-1.163c0.167-0.909-0.03-1.777-0.553-2.443c-0.52-0.663-1.31-1.059-2.225-1.113c-0.551-0.033-0.972-0.507-0.938-1.058c0.033-0.552,0.514-0.962,1.058-0.938c1.495,0.089,2.802,0.755,3.68,1.875c0.881,1.123,1.217,2.557,0.947,4.037C26.423,9.677,26.002,10.015,25.528,10.015z"/><path d="M29.074,8.814c-0.06,0-0.12-0.005-0.181-0.017c-0.543-0.099-0.903-0.62-0.804-1.163c0.262-1.435-0.051-2.808-0.882-3.867c-0.827-1.055-2.078-1.683-3.522-1.77c-0.551-0.033-0.972-0.507-0.938-1.058c0.033-0.552,0.508-0.964,1.058-0.938c2.024,0.121,3.792,1.021,4.977,2.531c1.189,1.517,1.642,3.456,1.276,5.461C29.969,8.477,29.548,8.814,29.074,8.814z"/><path d="M17.343,25.751c-2.973,0-5.945-1.132-8.208-3.395c-4.526-4.525-4.526-11.891,0-16.416c0.391-0.391,1.023-0.391,1.414,0l15.002,15.002c0.391,0.391,0.391,1.023,0,1.414C23.288,24.619,20.315,25.751,17.343,25.751z M9.878,8.099c-3.061,3.77-2.837,9.336,0.67,12.844c3.508,3.508,9.074,3.731,12.844,0.671L9.878,8.099z"/><path d="M17.806,32c-0.391,0-0.762-0.23-0.922-0.613l-2.722-6.485c-0.214-0.509,0.026-1.095,0.535-1.309c0.51-0.216,1.096,0.026,1.309,0.535l2.722,6.485c0.214,0.509-0.026,1.095-0.535,1.309C18.066,31.976,17.935,32,17.806,32z"/><path d="M7.643,32c-0.121,0-0.244-0.021-0.363-0.068c-0.515-0.2-0.769-0.78-0.568-1.295l3.277-8.408c0.201-0.515,0.782-0.77,1.295-0.568c0.515,0.2,0.769,0.78,0.568,1.295l-3.277,8.408C8.42,31.759,8.042,32,7.643,32z"/><path d="M20.227,12.616c-1.6,0-2.901-1.301-2.901-2.9s1.301-2.901,2.901-2.901s2.901,1.302,2.901,2.901S21.826,12.616,20.227,12.616z M20.227,8.814c-0.497,0-0.901,0.404-0.901,0.901c0,0.496,0.404,0.9,0.901,0.9s0.901-0.404,0.901-0.9C21.127,9.219,20.723,8.814,20.227,8.814z"/><path d="M17.008,14.126c-0.249,0-0.499-0.093-0.692-0.278c-0.398-0.382-0.412-1.016-0.029-1.414l1.318-1.374c0.382-0.397,1.016-0.41,1.414-0.029c0.398,0.382,0.412,1.016,0.029,1.414l-1.318,1.374C17.533,14.023,17.271,14.126,17.008,14.126z"/><path d="M22.803,32H2.82c-0.552,0-1-0.447-1-1s0.448-1,1-1h19.983c0.552,0,1,0.447,1,1S23.355,32,22.803,32z"/></svg>