<svg xmlns="http://www.w3.org/2000/svg" viewBox="0 0 32 32"><!--! Font Icona - https://fonticona.com | License - https://fonticona.com/license | Copyright 2022 FontIcona.com --><path d="M8.863,30.396c-2.586,0-4.926-1.79-5.514-4.416c-0.68-3.041,1.24-6.068,4.28-6.749c6.024-1.349,11.083-5.536,13.533-11.201c1.237-2.861,4.57-4.18,7.43-2.945c2.859,1.237,4.18,4.57,2.944,7.43c-1.905,4.405-4.877,8.36-8.595,11.438l0,0c-3.719,3.078-8.16,5.26-12.842,6.308C9.684,30.353,9.27,30.396,8.863,30.396z M26.354,6.621c-1.413,0-2.761,0.825-3.356,2.202c-2.703,6.252-8.285,10.872-14.932,12.359c-1.964,0.44-3.205,2.396-2.765,4.36c0.439,1.965,2.396,3.202,4.36,2.766c4.375-0.979,8.526-3.019,12.003-5.897l0,0c3.477-2.877,6.255-6.573,8.035-10.689c0.799-1.849-0.054-4.002-1.902-4.801C27.327,6.718,26.836,6.621,26.354,6.621z"/><path d="M2.149,28.884c-0.984,0-1.826-0.678-1.928-1.598l-0.21-1.89c-0.057-0.508,0.123-1.021,0.494-1.406c0.329-0.342,0.779-0.561,1.27-0.615l0.172-0.019l2.525,0.596l-0.46,1.947l-1.986-0.47l0.154,1.381l1.833-0.895l0.878,1.797l-2.333,1.139l-0.173,0.02C2.306,28.88,2.227,28.884,2.149,28.884z"/><path d="M30.029,6.904l-1.602-1.197l1.221-1.634l-1.328-0.409l0.09,2.038L26.413,5.79l-0.115-2.592l0.051-0.165c0.321-1.042,1.355-1.648,2.316-1.356l1.816,0.56c0.956,0.295,1.473,1.383,1.152,2.424l-0.051,0.166L30.029,6.904z"/><path d="M9.887,23.544c-0.078,0-0.156-0.009-0.235-0.027c-0.537-0.13-0.868-0.669-0.738-1.206c0.233-0.971,0.435-1.956,0.6-2.93c0.092-0.544,0.609-0.903,1.152-0.819c0.545,0.093,0.912,0.608,0.819,1.153c-0.172,1.018-0.383,2.048-0.627,3.062C10.749,23.236,10.339,23.544,9.887,23.544z"/><path d="M22.385,13.715c-0.473,0-0.893-0.337-0.982-0.818c-0.168-0.909-0.364-1.819-0.583-2.704c-0.132-0.536,0.195-1.078,0.731-1.21c0.535-0.135,1.079,0.194,1.21,0.731c0.228,0.922,0.432,1.87,0.608,2.819c0.101,0.543-0.258,1.064-0.801,1.165C22.506,13.71,22.445,13.715,22.385,13.715z"/><path d="M13.265,22.964c-0.049,0-0.099-0.004-0.149-0.011c-0.546-0.082-0.923-0.591-0.841-1.138c0.186-1.245,0.322-2.503,0.402-3.74c0.037-0.551,0.517-0.941,1.063-0.933c0.551,0.036,0.968,0.512,0.933,1.063c-0.084,1.292-0.226,2.605-0.421,3.906C14.178,22.607,13.751,22.964,13.265,22.964z"/><path d="M19.661,18c-0.543,0-0.989-0.436-1-0.981c-0.024-1.271-0.098-2.548-0.221-3.797c-0.054-0.549,0.348-1.039,0.897-1.093c0.563-0.043,1.039,0.348,1.093,0.897c0.128,1.301,0.206,2.631,0.231,3.955c0.01,0.552-0.429,1.008-0.981,1.019C19.674,18,19.667,18,19.661,18z"/><path d="M16.752,21.577c-0.02,0-0.039-0.001-0.059-0.002c-0.551-0.031-0.973-0.504-0.941-1.056c0.089-1.554,0.102-3.116,0.037-4.645c-0.023-0.552,0.405-1.019,0.957-1.042c0.538-0.025,1.018,0.404,1.042,0.956c0.068,1.596,0.055,3.226-0.038,4.846C17.719,21.166,17.278,21.577,16.752,21.577z"/></svg>