<svg xmlns="http://www.w3.org/2000/svg" viewBox="0 0 32 32"><!--! Font Icona - https://fonticona.com | License - https://fonticona.com/license | Copyright 2022 FontIcona.com --><path d="M10.662,18.702l-1.414-1.414L25.646,0.89c1.147-1.148,3.16-1.148,4.308,0l0.12,0.121L28.66,2.425l-0.121-0.121c-0.392-0.392-1.085-0.394-1.479,0L10.662,18.702z"/><path d="M9.385,32c-0.814,0-1.579-0.315-2.153-0.89l-3.609-3.609c-0.359-0.358-1.136-0.698-1.599-0.698c-1.068,0-1.441-0.619-1.552-0.886c-0.113-0.273-0.29-0.999,0.521-1.812l6.892-6.891c0.467-0.462,1.062-0.646,1.687-0.515c0.892,0.186,1.647,1.008,1.934,1.723c0.285,0.716,0.343,1.445,0.394,2.09c0.035,0.453,0.069,0.881,0.174,1.258c0.146,0.53,0.393,1.056,0.653,1.61l0.181,0.387c0.667,1.426,1.496,3.2,0.726,4.996c-0.129,0.301-0.329,0.584-0.61,0.865l-1.483,1.482C10.965,31.684,10.2,32,9.385,32z M2.978,24.948c0.777,0.212,1.553,0.633,2.059,1.139l3.609,3.609c0.394,0.394,1.088,0.392,1.478,0l1.484-1.482c0.121-0.122,0.169-0.197,0.187-0.239c0.417-0.973-0.15-2.188-0.699-3.362l-0.179-0.382c-0.285-0.606-0.579-1.233-0.771-1.927c-0.156-0.562-0.199-1.108-0.24-1.636c-0.043-0.551-0.084-1.071-0.257-1.504c-0.068-0.171-0.272-0.389-0.411-0.474L2.978,24.948z"/><path d="M12.549,26.439c-0.373,0-0.731-0.21-0.903-0.569c-0.237-0.498-0.027-1.095,0.471-1.333c0.518-0.247,1.987-1.039,2.57-1.72c0.335-0.391,0.474-0.728,0.649-1.153c0.175-0.425,0.373-0.905,0.772-1.466c0.539-0.757,1.135-0.98,1.529-1.129c0.295-0.11,0.418-0.156,0.603-0.416c0.185-0.259,0.188-0.39,0.195-0.705c0.011-0.422,0.027-1.058,0.566-1.815c0.538-0.757,1.134-0.98,1.528-1.128c0.296-0.111,0.418-0.157,0.603-0.416s0.188-0.39,0.195-0.705c0.011-0.421,0.027-1.058,0.566-1.815c0.539-0.757,1.135-0.98,1.529-1.128c0.296-0.111,0.418-0.157,0.603-0.416c0.184-0.259,0.188-0.39,0.195-0.705c0.011-0.421,0.026-1.058,0.565-1.814s1.135-0.98,1.529-1.129c0.295-0.11,0.418-0.156,0.603-0.416c0.184-0.259,0.188-0.39,0.195-0.705c0.011-0.421,0.026-1.058,0.565-1.814c0.487-0.686,1.022-0.933,1.413-1.083L28.66,2.425c-0.391-0.39-0.391-1.023,0-1.414s1.023-0.391,1.414,0l1.262,1.261c0.346,0.345,0.391,0.889,0.107,1.287c-0.54,0.758-1.138,0.98-1.533,1.128c-0.295,0.11-0.418,0.155-0.602,0.414s-0.188,0.39-0.195,0.705c-0.011,0.421-0.026,1.058-0.565,1.814s-1.135,0.98-1.529,1.129c-0.295,0.11-0.418,0.156-0.603,0.416c-0.184,0.259-0.188,0.39-0.195,0.705c-0.011,0.421-0.026,1.058-0.565,1.814s-1.135,0.98-1.529,1.128c-0.296,0.111-0.418,0.157-0.603,0.416s-0.188,0.39-0.195,0.706c-0.011,0.421-0.027,1.058-0.566,1.814c-0.538,0.757-1.134,0.98-1.528,1.128c-0.296,0.111-0.418,0.157-0.603,0.416s-0.188,0.39-0.195,0.705c-0.011,0.422-0.027,1.058-0.566,1.815c-0.539,0.757-1.135,0.98-1.529,1.129c-0.295,0.11-0.418,0.156-0.603,0.416c-0.267,0.374-0.398,0.695-0.553,1.068c-0.204,0.496-0.437,1.059-0.979,1.691c-0.963,1.124-2.998,2.114-3.228,2.224C12.84,26.408,12.693,26.439,12.549,26.439z"/><path d="M9.796,27.971c-0.256,0-0.512-0.098-0.707-0.293l-2.894-2.893c-0.391-0.391-0.391-1.023,0-1.414s1.023-0.391,1.414,0l2.894,2.893c0.391,0.391,0.391,1.023,0,1.414C10.308,27.873,10.052,27.971,9.796,27.971z"/></svg>