<svg xmlns="http://www.w3.org/2000/svg" viewBox="0 0 32 32"><!--! Font Icona - https://fonticona.com | License - https://fonticona.com/license | Copyright 2022 FontIcona.com --><path d="M13.397,32.015c-0.374,0-0.759-0.034-1.153-0.103c-5.324-0.938-9.055-8.848-9.211-9.184c-0.237-0.51-0.016-1.114,0.494-1.351c0.509-0.239,1.114-0.017,1.352,0.493c0.034,0.073,3.438,7.284,7.719,8.037c2.713,0.478,3.771-1.417,4.156-2.59c0.837-2.545,1.296-5.318,1.74-8c0.194-1.169,0.388-2.333,0.609-3.479c0.43-2.217,0.847-4.436,1.264-6.655L20.8,6.884c0.097-0.625,0.303-1.283,0.576-1.82c0.377-0.737,1.032-1.358,1.951-1.848c0.431-0.229,0.887-0.369,1.355-0.416c0.415-0.033,0.831-0.036,1.236-0.017C25.33,2.5,24.502,2.177,23.625,2.066c-2.891-0.371-3.396,1.3-4.089,4.531l-0.523,2.677l-1.625,8.563c-0.267,1.457-0.762,4.168-2.612,4.368c-0.818,0.022-1.505-0.242-2.035-0.754c-1.459-1.408-1.505-4.356-1.53-5.94c-0.009-0.562,0.439-1.03,1.002-1.039c0.005,0,0.011,0,0.017,0c0.554,0,1.008,0.44,1.017,0.997v0.01c0.016,1.008,0.059,3.687,0.908,4.508c0.113,0.109,0.229,0.167,0.374,0.184c0.181-0.163,0.5-0.739,0.857-2.699l2.161-11.302C18.156,3.324,19-0.57,23.881,0.046c2.129,0.27,3.923,1.446,3.998,1.496c0.122,0.072,1.576,0.97,2.294,2.448c0.181,0.37,0.119,0.812-0.154,1.12c-0.272,0.308-0.704,0.421-1.095,0.286c-0.021-0.007-2.118-0.725-4.059-0.569c-0.184,0.019-0.387,0.082-0.582,0.185c-0.543,0.29-0.911,0.618-1.094,0.976c-0.175,0.344-0.315,0.796-0.384,1.24l-0.438,2.33c-0.418,2.223-0.836,4.446-1.267,6.667c-0.219,1.128-0.408,2.274-0.599,3.424c-0.457,2.758-0.93,5.61-1.815,8.304C17.84,30.531,15.866,32.015,13.397,32.015z"/><path d="M23.183,5.522c-0.138,0-0.277-0.028-0.411-0.087c-1.276-0.566-1.803-3.64-1.293-4.816c0.223-0.515,0.821-0.753,1.338-0.529c0.515,0.223,0.752,0.82,0.531,1.335c-0.142,0.395,0.119,1.812,0.399,2.231c0.406,0.27,0.571,0.8,0.367,1.261C23.945,5.296,23.573,5.522,23.183,5.522z"/><path d="M3.355,23.319c-0.495,0-0.979-0.146-1.321-0.585c-0.875-1.118,0.315-2.663,0.707-3.171c0.76-0.986,1.904-2.097,3.223-3.128c1.317-1.032,2.67-1.876,3.809-2.377c0.587-0.258,2.371-1.044,3.249,0.075c0.876,1.118-0.315,2.664-0.707,3.171c-0.759,0.985-1.903,2.096-3.221,3.128c0,0,0,0-0.001,0c-1.318,1.032-2.671,1.877-3.81,2.378C4.926,22.967,4.125,23.319,3.355,23.319z M10.909,15.786c-0.813,0.316-2.12,1.021-3.69,2.252c-1.571,1.23-2.57,2.329-3.072,3.044c0.813-0.316,2.121-1.022,3.692-2.252C9.409,17.599,10.408,16.5,10.909,15.786z M8.466,19.631h0.01H8.466z"/><path d="M16.882,8.095c-0.062,0-0.126-0.006-0.19-0.018c-0.552-0.104-0.915-0.637-0.811-1.189l0.189-1c0.104-0.552,0.632-0.918,1.189-0.811c0.552,0.104,0.915,0.637,0.811,1.189l-0.189,1C17.788,7.754,17.361,8.095,16.882,8.095z"/><path d="M16.043,12.54c-0.062,0-0.126-0.006-0.19-0.018c-0.552-0.104-0.915-0.637-0.811-1.189l0.28-1.481c0.104-0.552,0.631-0.915,1.189-0.811c0.552,0.104,0.915,0.637,0.811,1.189l-0.28,1.481C16.949,12.199,16.522,12.54,16.043,12.54z"/><path d="M15.295,16.503c-0.062,0-0.126-0.006-0.19-0.018c-0.553-0.104-0.915-0.637-0.811-1.189l0.189-1c0.104-0.552,0.631-0.917,1.189-0.811c0.553,0.104,0.915,0.637,0.811,1.189l-0.189,1C16.201,16.163,15.774,16.503,15.295,16.503z"/></svg>