<svg xmlns="http://www.w3.org/2000/svg" viewBox="0 0 32 32"><!--! Font Icona - https://fonticona.com | License - https://fonticona.com/license | Copyright 2022 FontIcona.com --><path d="M7.146,31.136c-2.921,0-5.612-1.655-6.854-4.217c-0.371-0.765-0.389-1.665-0.05-2.471c0,0,0,0,0,0l5.517-13.101c0.234-0.56,0.779-0.922,1.386-0.922h0c0.607,0,1.152,0.361,1.388,0.922l5.516,13.101c0.339,0.805,0.321,1.706-0.049,2.471C12.757,29.481,10.067,31.136,7.146,31.136z M2.085,25.224C1.969,25.5,1.972,25.8,2.091,26.046c0.91,1.877,2.894,3.09,5.054,3.09s4.145-1.213,5.055-3.09c0.12-0.247,0.122-0.546,0.006-0.821L7.146,13.206L2.085,25.224z M7.602,12.122L7.602,12.122C7.602,12.123,7.602,12.123,7.602,12.122z"/><path d="M13.291,26.597H1.003c-0.552,0-1-0.447-1-1s0.448-1,1-1h12.288c0.552,0,1,0.447,1,1S13.843,26.597,13.291,26.597z"/><path d="M24.854,31.136c-2.921,0-5.612-1.655-6.854-4.217c-0.371-0.766-0.388-1.666-0.049-2.471l5.517-13.101c0.235-0.561,0.78-0.922,1.387-0.922h0c0.607,0,1.152,0.362,1.387,0.923l5.516,13.1c0.34,0.807,0.321,1.707-0.05,2.471C30.466,29.481,27.776,31.136,24.854,31.136z M24.854,13.206l-5.06,12.018c0,0,0,0.001,0,0.001c-0.116,0.274-0.114,0.574,0.006,0.822c0.91,1.876,2.894,3.089,5.054,3.089s4.145-1.213,5.054-3.09c0.12-0.247,0.122-0.546,0.006-0.822L24.854,13.206z M18.873,24.836h0.01H18.873z M24.398,12.123C24.398,12.124,24.398,12.124,24.398,12.123L24.398,12.123z"/><path d="M31,26.597H18.712c-0.552,0-1-0.447-1-1s0.448-1,1-1H31c0.552,0,1,0.447,1,1S31.552,26.597,31,26.597z"/><path d="M25.796,8.992H6.204c-0.552,0-1-0.447-1-1s0.448-1,1-1h19.593c0.552,0,1,0.447,1,1S26.349,8.992,25.796,8.992z"/><path d="M16,8.992c-0.552,0-1-0.447-1-1V1.864c0-0.553,0.448-1,1-1s1,0.447,1,1v6.128C17,8.544,16.552,8.992,16,8.992z"/></svg>