<svg xmlns="http://www.w3.org/2000/svg" viewBox="0 0 32 32"><!--! Font Icona - https://fonticona.com | License - https://fonticona.com/license | Copyright 2022 FontIcona.com --><path d="M25.362,8.423c-0.088,0-0.177-0.012-0.266-0.036L6.374,3.236C5.841,3.089,5.528,2.539,5.674,2.006C5.821,1.474,6.372,1.16,6.904,1.308l18.723,5.151c0.533,0.146,0.846,0.696,0.699,1.229C26.204,8.132,25.801,8.423,25.362,8.423z"/><path d="M16,5.847c-0.552,0-1-0.447-1-1V1c0-0.553,0.448-1,1-1s1,0.447,1,1v3.847C17,5.4,16.552,5.847,16,5.847z"/><path d="M7.225,27.739c-2.925,0-5.619-1.657-6.863-4.223c-0.371-0.766-0.389-1.667-0.049-2.474L5.836,7.923c0.236-0.561,0.781-0.922,1.388-0.922s1.152,0.361,1.388,0.922l5.524,13.12c0.34,0.806,0.322,1.707-0.049,2.473C12.843,26.081,10.149,27.739,7.225,27.739z M7.225,9.781L2.156,21.819c0,0,0,0.001,0,0.001c-0.116,0.275-0.114,0.576,0.006,0.823c0.912,1.881,2.899,3.096,5.063,3.096c2.164,0,4.151-1.215,5.063-3.096c0.12-0.247,0.123-0.548,0.006-0.823L7.225,9.781z M1.234,21.431h0.01H1.234z"/><path d="M13.379,23.193H1.073c-0.552,0-1-0.447-1-1s0.448-1,1-1h12.306c0.552,0,1,0.447,1,1S13.931,23.193,13.379,23.193z"/><path d="M24.775,32c-2.925,0-5.619-1.657-6.863-4.223c-0.371-0.766-0.389-1.667-0.049-2.474l5.524-13.119c0.236-0.561,0.781-0.922,1.388-0.922s1.152,0.361,1.388,0.922l5.524,13.12c0.34,0.806,0.322,1.707-0.049,2.473C30.394,30.343,27.701,32,24.775,32z M24.775,14.042L19.707,26.08c0,0,0,0.001,0,0.001c-0.116,0.275-0.114,0.576,0.006,0.823C20.624,28.785,22.611,30,24.775,30s4.151-1.215,5.063-3.096c0.12-0.247,0.123-0.548,0.006-0.823L24.775,14.042z M18.785,25.693h0.01H18.785z"/><path d="M30.93,27.454H18.624c-0.552,0-1-0.447-1-1s0.448-1,1-1H30.93c0.552,0,1,0.447,1,1S31.482,27.454,30.93,27.454z"/></svg>