<svg xmlns="http://www.w3.org/2000/svg" viewBox="0 0 32 32"><!--! Font Icona - https://fonticona.com | License - https://fonticona.com/license | Copyright 2022 FontIcona.com --><path d="M6.668,8.404c-0.439,0-0.841-0.291-0.964-0.734C5.558,7.136,5.871,6.586,6.403,6.44l18.663-5.137c0.528-0.146,1.083,0.166,1.229,0.698c0.146,0.533-0.167,1.083-0.699,1.229L6.934,8.368C6.845,8.392,6.756,8.404,6.668,8.404z"/><path d="M16,5.847c-0.552,0-1-0.447-1-1V1c0-0.553,0.448-1,1-1s1,0.447,1,1v3.847C17,5.4,16.552,5.847,16,5.847z"/><path d="M7.252,32c-2.917,0-5.604-1.653-6.844-4.211c-0.37-0.764-0.388-1.663-0.05-2.468c0,0,0,0,0,0l5.507-13.079c0.235-0.56,0.779-0.921,1.386-0.921c0.607,0,1.151,0.361,1.387,0.921l5.507,13.079c0.339,0.805,0.321,1.704-0.049,2.468C12.855,30.347,10.169,32,7.252,32z M2.202,26.097c-0.115,0.275-0.113,0.574,0.006,0.819C3.117,28.789,5.097,30,7.252,30c2.155,0,4.135-1.211,5.044-3.084c0.119-0.246,0.122-0.545,0.006-0.819l-5.05-11.993L2.202,26.097z"/><path d="M13.387,27.468H1.12c-0.552,0-1-0.447-1-1s0.448-1,1-1h12.267c0.552,0,1,0.447,1,1S13.939,27.468,13.387,27.468z"/><path d="M24.748,27.658c-2.917,0-5.604-1.653-6.844-4.211c-0.37-0.764-0.388-1.663-0.05-2.468c0,0,0,0,0,0L23.362,7.9c0.235-0.56,0.779-0.921,1.386-0.921c0.607,0,1.151,0.361,1.386,0.921l5.507,13.079c0.339,0.805,0.321,1.704-0.049,2.468C30.351,26.004,27.665,27.658,24.748,27.658z M19.697,21.754c-0.115,0.275-0.113,0.574,0.006,0.819c0.909,1.873,2.889,3.084,5.044,3.084c2.155,0,4.135-1.211,5.044-3.084c0.119-0.246,0.122-0.545,0.006-0.819l-5.05-11.993L19.697,21.754z"/><path d="M30.883,23.126H18.616c-0.552,0-1-0.447-1-1s0.448-1,1-1h12.267c0.552,0,1,0.447,1,1S31.435,23.126,30.883,23.126z"/></svg>