<svg xmlns="http://www.w3.org/2000/svg" viewBox="0 0 32 32"><!--! Font Icona - https://fonticona.com | License - https://fonticona.com/license | Copyright 2022 FontIcona.com --><path d="M29,32H3c-1.654,0-3-1.346-3-3V3c0-1.654,1.346-3,3-3h26c1.654,0,3,1.346,3,3v26C32,30.655,30.654,32,29,32z M3,2C2.448,2,2,2.449,2,3v26c0,0.552,0.448,1,1,1h26c0.552,0,1-0.448,1-1V3c0-0.552-0.448-1-1-1H3z"/><path d="M23.861,16.481c-0.137,0-0.273-0.009-0.412-0.028c-0.001,0-0.001,0-0.001,0c-4.943-0.688-9.953-0.688-14.896,0c-1.597,0.228-3.065-0.863-3.346-2.469L4.165,8.02c-0.14-0.8,0.055-1.636,0.532-2.294C5.174,5.071,5.874,4.648,6.67,4.535c6.189-0.883,12.468-0.883,18.661,0c0.795,0.113,1.495,0.536,1.972,1.191c0.478,0.658,0.672,1.494,0.532,2.294l-1.041,5.964C26.538,15.45,25.291,16.481,23.861,16.481z M23.723,14.472c0.521,0.07,1.008-0.302,1.101-0.832l1.041-5.964c0.048-0.274-0.016-0.549-0.179-0.774c-0.155-0.213-0.382-0.351-0.637-0.387c-6.004-0.857-12.093-0.857-18.097,0C6.696,6.551,6.47,6.689,6.314,6.902c-0.163,0.226-0.227,0.5-0.179,0.774l1.041,5.964c0.093,0.53,0.578,0.901,1.101,0.832C13.4,13.759,18.598,13.759,23.723,14.472L23.723,14.472z"/><path d="M15.896,15.937c-0.129,0-0.259-0.024-0.385-0.077c-0.51-0.212-0.751-0.798-0.538-1.308l1.983-4.76c0.213-0.51,0.801-0.75,1.308-0.538c0.51,0.212,0.751,0.798,0.538,1.308l-1.983,4.76C16.658,15.705,16.287,15.937,15.896,15.937z"/><path d="M23.271,8.505c-0.033,0-0.066-0.002-0.1-0.005c-0.55-0.055-0.951-0.545-0.896-1.094l0.196-1.973c0.056-0.551,0.556-0.945,1.094-0.896c0.55,0.055,0.951,0.545,0.896,1.094l-0.196,1.973C24.214,8.12,23.779,8.505,23.271,8.505z"/><path d="M19.681,8.115c-0.017,0-0.033,0-0.05-0.001c-0.552-0.027-0.977-0.496-0.95-1.048l0.098-1.983c0.027-0.552,0.502-0.992,1.048-0.95c0.552,0.027,0.977,0.496,0.95,1.048l-0.098,1.983C20.652,7.699,20.21,8.115,19.681,8.115z"/><path d="M16.078,7.985c-0.553,0-1-0.447-1-1V4.997c0-0.553,0.447-1,1-1s1,0.447,1,1v1.987C17.078,7.537,16.631,7.985,16.078,7.985z"/><path d="M12.477,8.115c-0.529,0-0.971-0.415-0.998-0.95L11.38,5.181c-0.027-0.551,0.397-1.021,0.949-1.049c0.542-0.045,1.021,0.397,1.049,0.949l0.099,1.983c0.027,0.551-0.397,1.021-0.949,1.049C12.511,8.115,12.493,8.115,12.477,8.115z"/><path d="M8.885,8.505c-0.508,0-0.942-0.385-0.994-0.901L7.694,5.631C7.64,5.082,8.041,4.592,8.591,4.537C9.138,4.49,9.63,4.883,9.685,5.434l0.196,1.973C9.936,7.955,9.534,8.446,8.984,8.5C8.951,8.503,8.918,8.505,8.885,8.505z"/></svg>