<svg xmlns="http://www.w3.org/2000/svg" viewBox="0 0 32 32"><!--! Font Icona - https://fonticona.com | License - https://fonticona.com/license | Copyright 2022 FontIcona.com --><path d="M2.272,29.335c-0.172,0-0.344-0.044-0.499-0.133c-0.31-0.179-0.501-0.51-0.501-0.867V12.252c0-0.356,0.189-0.686,0.497-0.864c4.543-2.642,10.188-2.643,14.733,0c0.478,0.277,0.64,0.89,0.362,1.367c-0.277,0.478-0.89,0.642-1.367,0.362c-3.761-2.186-8.394-2.277-12.225-0.274v13.828c4.758-2.301,9.508-2.405,13.23-0.241c0.478,0.277,0.64,0.89,0.362,1.367c-0.277,0.477-0.889,0.641-1.367,0.361c-4.934-2.865-10.542-0.227-12.722,1.041C2.62,29.29,2.446,29.335,2.272,29.335z"/><path d="M29.728,29.335c-0.174,0-0.347-0.045-0.503-0.136c-2.181-1.269-7.789-3.909-12.722-1.041c-0.479,0.277-1.089,0.115-1.367-0.361c-0.277-0.478-0.115-1.09,0.362-1.367c3.722-2.164,8.471-2.058,13.23,0.241V12.843c-3.832-2.003-8.464-1.911-12.225,0.274c-0.478,0.278-1.089,0.115-1.367-0.362c-0.278-0.477-0.116-1.089,0.362-1.367c4.544-2.643,10.189-2.642,14.733,0c0.308,0.179,0.497,0.508,0.497,0.864v16.083c0,0.357-0.191,0.688-0.501,0.867C30.072,29.291,29.9,29.335,29.728,29.335z"/><path d="M30.28,9.404c-0.154,0-0.312-0.036-0.458-0.112L15.962,2.126L2.18,9.292C1.69,9.547,1.086,9.355,0.832,8.866c-0.255-0.49-0.064-1.094,0.426-1.349l14.234-7.4c0.285-0.147,0.64-0.15,0.926-0.007l14.323,7.406c0.49,0.253,0.683,0.857,0.429,1.348C30.992,9.208,30.643,9.404,30.28,9.404z"/><path d="M16,28.294c-0.552,0-1-0.447-1-1V12.252c0-0.552,0.448-1,1-1s1,0.448,1,1v15.042C17,27.847,16.552,28.294,16,28.294z"/><path d="M16,32c-1.719,0-3.285-1.06-3.458-1.181c-0.283-0.197-0.9-0.392-1.246-0.392l-8.024-0.001c-1.103,0-2-0.897-2-2v-2.67c0-0.553,0.448-1,1-1s1,0.447,1,1v2.67l8.024,0.001c0.749,0,1.777,0.323,2.392,0.752C14.017,29.407,15.078,30,16,30c1.108,0,2.299-0.811,2.311-0.818c0.613-0.43,1.643-0.754,2.393-0.754l8.024-0.001v-3.408c0-0.553,0.448-1,1-1s1,0.447,1,1v3.408c0,1.103-0.897,2-2,2l-8.024,0.001c-0.346,0-0.963,0.194-1.247,0.393C19.284,30.941,17.719,32,16,32z"/><path d="M5.636,16.435c-0.418,0-0.807-0.264-0.948-0.682c-0.176-0.523,0.105-1.09,0.629-1.267c2.51-0.845,5.175-0.87,7.705-0.076c0.527,0.166,0.82,0.727,0.655,1.253c-0.166,0.527-0.728,0.818-1.253,0.655c-2.125-0.667-4.362-0.645-6.469,0.063C5.849,16.418,5.741,16.435,5.636,16.435z"/><path d="M5.847,20.116c-0.418,0-0.808-0.264-0.948-0.682c-0.176-0.523,0.105-1.091,0.629-1.267c2.454-0.823,5.057-0.85,7.531-0.074c0.527,0.165,0.82,0.727,0.655,1.253c-0.165,0.527-0.728,0.82-1.253,0.655c-2.068-0.648-4.245-0.627-6.295,0.062C6.06,20.1,5.953,20.116,5.847,20.116z"/><path d="M5.712,23.802c-0.418,0-0.807-0.264-0.948-0.682c-0.176-0.523,0.105-1.09,0.629-1.267c2.509-0.844,5.174-0.869,7.705-0.075c0.527,0.165,0.82,0.727,0.655,1.254c-0.166,0.526-0.73,0.818-1.253,0.654c-2.125-0.667-4.361-0.646-6.468,0.063C5.925,23.785,5.818,23.802,5.712,23.802z"/><path d="M26.313,16.446c-0.105,0-0.213-0.017-0.319-0.053c-2.106-0.708-4.343-0.73-6.468-0.063c-0.526,0.163-1.088-0.127-1.253-0.655c-0.166-0.527,0.128-1.088,0.655-1.253c2.53-0.794,5.194-0.768,7.705,0.076c0.523,0.176,0.805,0.743,0.629,1.267C27.121,16.182,26.731,16.446,26.313,16.446z"/><path d="M26.102,20.127c-0.105,0-0.213-0.017-0.318-0.052c-2.05-0.688-4.227-0.71-6.295-0.062c-0.526,0.163-1.087-0.128-1.253-0.654c-0.166-0.527,0.127-1.089,0.655-1.254c2.472-0.775,5.078-0.751,7.531,0.073c0.524,0.176,0.806,0.743,0.629,1.267C26.91,19.863,26.52,20.127,26.102,20.127z"/><path d="M26.237,23.812c-0.105,0-0.213-0.017-0.318-0.052c-2.107-0.708-4.344-0.729-6.469-0.063c-0.526,0.164-1.087-0.128-1.253-0.654c-0.166-0.527,0.128-1.089,0.655-1.254c2.529-0.794,5.193-0.768,7.704,0.075c0.523,0.176,0.806,0.743,0.629,1.267C27.044,23.549,26.655,23.812,26.237,23.812z"/></svg>