<svg xmlns="http://www.w3.org/2000/svg" viewBox="0 0 32 32"><!--! Font Icona - https://fonticona.com | License - https://fonticona.com/license | Copyright 2022 FontIcona.com --><path d="M6.758,26.576c-0.055,0-0.11-0.002-0.165-0.004c-1.108-0.043-2.102-0.524-2.799-1.355c-1.559-1.86-1.237-4.888,0.73-6.892c1.053-1.072,2.418-1.653,3.754-1.605c1.108,0.044,2.103,0.525,2.799,1.356c1.559,1.859,1.238,4.887-0.73,6.892l-0.001,0.001C9.337,25.996,8.037,26.576,6.758,26.576z M8.111,18.717c-0.744,0-1.526,0.364-2.159,1.009c-1.214,1.236-1.5,3.162-0.625,4.206c0.422,0.504,0.964,0.628,1.344,0.643c0.81,0.035,1.59-0.337,2.249-1.008c1.213-1.236,1.499-3.162,0.624-4.205C9.122,18.857,8.58,18.733,8.2,18.719C8.17,18.718,8.141,18.717,8.111,18.717z M9.633,24.268h0.01H9.633z"/><path d="M9.633,25.268c-0.253,0-0.506-0.096-0.701-0.286c-0.394-0.388-0.399-1.021-0.013-1.415L27.47,4.679c0.388-0.395,1.019-0.398,1.415-0.013c0.394,0.388,0.399,1.021,0.013,1.415L10.347,24.969C10.15,25.168,9.892,25.268,9.633,25.268z"/><path d="M15.916,32.002c-0.264,0-0.528-0.025-0.791-0.078c-1.063-0.211-1.964-0.851-2.535-1.801c-0.687-1.144-0.832-2.624-0.399-4.062c0.811-2.689,3.31-4.433,5.691-3.956c1.063,0.211,1.964,0.851,2.535,1.801c0.687,1.144,0.832,2.625,0.399,4.063C20.096,30.362,18.037,32.002,15.916,32.002z M17.108,24.028c-1.236,0-2.551,1.107-3.002,2.608c-0.271,0.9-0.199,1.795,0.198,2.456c0.195,0.326,0.564,0.741,1.21,0.87c1.344,0.257,2.888-0.913,3.386-2.57c0.271-0.9,0.199-1.796-0.198-2.457c-0.195-0.326-0.564-0.741-1.21-0.87C17.366,24.041,17.237,24.028,17.108,24.028z"/><path d="M13.148,27.349c-0.095,0-0.192-0.014-0.288-0.043c-0.529-0.159-0.829-0.717-0.669-1.245l7.637-25.349c0.158-0.528,0.716-0.831,1.245-0.669c0.529,0.159,0.829,0.717,0.669,1.245l-7.637,25.349C13.976,27.069,13.578,27.349,13.148,27.349z"/></svg>