<svg xmlns="http://www.w3.org/2000/svg" viewBox="0 0 32 32"><!--! Font Icona - https://fonticona.com | License - https://fonticona.com/license | Copyright 2022 FontIcona.com --><path d="M5.21,31.998c-0.575,0-1.144-0.119-1.64-0.367c-0.097-0.048-0.184-0.111-0.26-0.188L0.556,28.69c-0.076-0.076-0.14-0.164-0.188-0.26c-0.692-1.386-0.377-3.33,0.718-4.427l16.8-16.799c0.391-0.391,1.023-0.391,1.414,0s0.391,1.023,0,1.414L2.501,25.417c-0.456,0.457-0.63,1.368-0.399,1.99l2.491,2.49c0.625,0.231,1.533,0.058,1.99-0.399l16.799-16.798c0.391-0.391,1.023-0.391,1.414,0s0.391,1.023,0,1.414L7.997,30.912C7.293,31.617,6.24,31.998,5.21,31.998z"/><path d="M29.782,12.377c-0.575,0-1.299-0.158-2.206-0.58c-1.36-0.631-2.87-1.74-4.252-3.122c-2.686-2.686-4.798-6.354-3.089-8.065c1.71-1.711,5.38,0.403,8.065,3.089c1.382,1.381,2.491,2.892,3.122,4.251c0.991,2.134,0.529,3.252-0.033,3.814l0,0l0,0l0,0C31.066,12.087,30.56,12.377,29.782,12.377z M21.858,1.988c-0.098,0-0.171,0.016-0.217,0.043c-0.21,0.356,0.397,2.531,3.097,5.23c2.677,2.677,4.834,3.297,5.236,3.088c0.21-0.396-0.41-2.559-3.088-5.236C24.521,2.746,22.558,1.988,21.858,1.988z"/><path d="M26.826,15.333c-0.576,0-1.299-0.158-2.207-0.58c-1.359-0.631-2.87-1.74-4.251-3.122c-2.686-2.686-4.798-6.354-3.089-8.065l2.956-2.956l1.414,1.414L18.693,4.98c-0.218,0.363,0.39,2.538,3.089,5.237c2.7,2.701,4.878,3.306,5.245,3.083l2.948-2.95l1.414,1.414l-2.956,2.956C28.11,15.043,27.604,15.333,26.826,15.333z"/><path d="M21.276,15.977c-2.699,0-5.604-1.468-7.072-3.672c-0.307-0.46-0.182-1.081,0.277-1.387c0.46-0.306,1.08-0.182,1.387,0.277c1.231,1.851,3.918,3.045,6.122,2.732c0.545-0.089,1.054,0.301,1.132,0.847c0.079,0.546-0.3,1.054-0.847,1.132C21.948,15.954,21.613,15.977,21.276,15.977z"/><path d="M15.891,21.349c-2.698,0-5.603-1.469-7.07-3.673c-0.307-0.46-0.182-1.081,0.277-1.387c0.46-0.306,1.08-0.182,1.387,0.277c1.232,1.851,3.928,3.048,6.121,2.732c0.547-0.089,1.055,0.299,1.133,0.846c0.079,0.547-0.3,1.054-0.846,1.133C16.564,21.326,16.229,21.349,15.891,21.349z"/><path d="M10.11,27.167c-2.698,0-5.603-1.468-7.072-3.672c-0.307-0.459-0.183-1.08,0.277-1.387c0.457-0.306,1.08-0.183,1.387,0.277c1.232,1.85,3.925,3.045,6.122,2.731c0.546-0.092,1.055,0.299,1.133,0.846c0.079,0.547-0.3,1.054-0.846,1.133C10.783,27.144,10.448,27.167,10.11,27.167z"/></svg>