<svg xmlns="http://www.w3.org/2000/svg" viewBox="0 0 32 32"><!--! Font Icona - https://fonticona.com | License - https://fonticona.com/license | Copyright 2022 FontIcona.com --><path d="M7.215,32c-0.934,0-1.856-0.39-2.534-1.068l-3.529-3.54c-1.361-1.363-1.536-3.409-0.39-4.561l1.375-1.379c0.391-0.391,1.023-0.391,1.414-0.002c0.391,0.39,0.392,1.022,0.002,1.414l-1.375,1.379c-0.316,0.317-0.218,1.128,0.39,1.736l3.529,3.54C6.401,29.824,6.809,30,7.215,30l0,0c0.333,0,0.635-0.119,0.851-0.336l1.619-1.625c0.392-0.389,1.023-0.393,1.415-0.003c0.391,0.391,0.393,1.023,0.003,1.415l-1.621,1.625C8.889,31.672,8.083,32,7.215,32C7.215,32,7.215,32,7.215,32z"/><path d="M10.394,29.745c-0.256,0-0.511-0.098-0.706-0.292c-0.391-0.39-0.392-1.023-0.002-1.414l3.635-3.646c0.267-0.268,0.612-0.864,0.71-1.229l0.467-1.729c0.242-0.895,1.11-1.7,2.021-1.875l0.733-0.14c0.162-0.031,0.414-0.267,0.457-0.427l0.052-0.201c0.05-0.189-0.055-0.577-0.192-0.716l-3.601-3.61c-0.138-0.139-0.522-0.243-0.709-0.192l-0.195,0.052c-0.161,0.042-0.396,0.296-0.428,0.46l-0.141,0.737c-0.173,0.91-0.977,1.779-1.871,2.023l-1.719,0.468c-0.364,0.099-0.959,0.443-1.226,0.711l-4.126,4.138c-0.39,0.392-1.022,0.392-1.414,0.002s-0.392-1.023-0.002-1.414l4.126-4.138c0.511-0.513,1.422-1.041,2.118-1.229l1.717-0.467c0.162-0.044,0.4-0.302,0.432-0.467l0.141-0.739c0.175-0.914,0.984-1.781,1.881-2.019l0.195-0.052c0.882-0.231,1.992,0.067,2.638,0.715l3.6,3.609c0.644,0.646,0.942,1.754,0.711,2.636l-0.052,0.201c-0.236,0.898-1.103,1.708-2.016,1.884l-0.733,0.14c-0.164,0.031-0.422,0.27-0.465,0.432l-0.467,1.729c-0.188,0.696-0.716,1.607-1.226,2.119l-3.635,3.646C10.906,29.647,10.65,29.745,10.394,29.745z"/><path d="M17.644,17.738c-0.266,0-0.521-0.105-0.708-0.294L14.6,15.102c-0.39-0.391-0.39-1.021,0-1.412l9.218-9.244L23.771,2.85c-0.011-0.398,0.215-0.766,0.576-0.934l3.893-1.821c0.382-0.178,0.835-0.099,1.132,0.199l2.336,2.343c0.296,0.297,0.376,0.747,0.198,1.128L30.09,7.669c-0.168,0.363-0.532,0.589-0.935,0.578l-1.587-0.046l-9.217,9.243C18.164,17.633,17.909,17.738,17.644,17.738z M16.72,14.396l0.924,0.927l8.813-8.839c0.195-0.195,0.462-0.283,0.736-0.294l1.361,0.039l1.244-2.674l-1.347-1.352L25.79,3.449l0.039,1.369c0.008,0.274-0.098,0.54-0.292,0.734L16.72,14.396z"/></svg>