<svg xmlns="http://www.w3.org/2000/svg" viewBox="0 0 32 32"><!--! Font Icona - https://fonticona.com | License - https://fonticona.com/license | Copyright 2022 FontIcona.com --><path d="M14.858,2c0.018,0,0.035,0,0.053,0c7.404,0.071,10.26,3.878,10.26,3.878l-2.644,3.808l-1.974-1.34l1.446-1.974c-1.223-0.745-2.641-1.464-4.033-1.823c-0.776-0.2-1.625-0.299-2.453-0.299c-0.327,0-0.65,0.015-0.965,0.046c-0.616,0.06-1.251,0.215-1.827,0.441c-1.018,0.399-1.903,1.088-2.587,1.936c-0.394,0.488-0.76,1.115-0.664,1.766c0.119,0.808,0.741,0.938,1.384,0.938c0.231,0,0.466-0.017,0.68-0.025C11.562,9.35,11.591,9.35,11.62,9.35c0.579,0,1.143,0.216,1.628,0.524c0.914,0.58,1.464,1.617,1.464,2.704c0,1.137-0.614,2.207-1.611,2.753c-0.528,0.289-1.105,0.42-1.686,0.42c-1.263,0-2.543-0.619-3.365-1.568c-1.266-1.463-1.787-3.859-1.48-5.743c0.188-1.156,0.733-2.215,1.502-3.092c0.842-0.961,2.114-2.03,3.3-2.532C12.434,2.365,13.692,2,14.858,2 M14.858,0c-1.627,0-3.217,0.529-4.265,0.973C8.607,1.815,7.011,3.525,6.569,4.029C5.52,5.226,4.838,6.639,4.597,8.118c-0.421,2.582,0.359,5.545,1.941,7.373c1.224,1.415,3.047,2.26,4.877,2.26c0.95,0,1.841-0.224,2.647-0.666c1.635-0.896,2.65-2.623,2.65-4.507c0-1.773-0.917-3.456-2.392-4.392c-0.679-0.431-1.402-0.702-2.121-0.797c0.381-0.346,0.805-0.614,1.252-0.789c0.407-0.16,0.866-0.271,1.291-0.312c0.249-0.024,0.508-0.037,0.77-0.037c0.679,0,1.355,0.082,1.954,0.236c0.482,0.124,1.003,0.312,1.559,0.562l-0.086,0.117c-0.321,0.438-0.45,0.988-0.357,1.522c0.093,0.535,0.399,1.009,0.848,1.314l1.974,1.34c0.344,0.233,0.735,0.345,1.121,0.345c0.634,0,1.256-0.3,1.644-0.859l2.644-3.808c0.492-0.708,0.474-1.651-0.043-2.341C26.63,4.491,23.226,0.079,14.93,0L14.858,0L14.858,0z M10.707,7.37L10.707,7.37L10.707,7.37L10.707,7.37z"/><path d="M20.585,16.249c1.263,0,2.543,0.619,3.365,1.568c1.266,1.463,1.787,3.859,1.48,5.743c-0.188,1.156-0.733,2.215-1.502,3.092c-0.842,0.961-2.114,2.03-3.3,2.532C19.566,29.635,18.308,30,17.142,30c-0.018,0-0.035,0-0.053,0c-7.404-0.071-10.26-3.878-10.26-3.878l2.644-3.808l1.974,1.34l-1.446,1.974c1.223,0.745,2.641,1.464,4.033,1.823c0.776,0.2,1.625,0.299,2.453,0.299c0.327,0,0.65-0.015,0.965-0.046c0.616-0.06,1.251-0.215,1.827-0.441c1.018-0.399,1.903-1.088,2.587-1.936c0.394-0.488,0.76-1.115,0.664-1.766c-0.119-0.808-0.741-0.938-1.384-0.938c-0.231,0-0.466,0.017-0.68,0.025c-0.029,0.001-0.059,0.002-0.088,0.002c-0.579,0-1.143-0.216-1.628-0.524c-0.914-0.58-1.464-1.617-1.464-2.704c0-1.137,0.614-2.207,1.611-2.753C19.427,16.38,20.004,16.249,20.585,16.249 M20.585,14.249C20.585,14.249,20.585,14.249,20.585,14.249c-0.95,0-1.841,0.224-2.648,0.666c-1.635,0.896-2.65,2.623-2.65,4.507c0,1.773,0.917,3.456,2.392,4.392c0.679,0.431,1.402,0.702,2.121,0.797c-0.381,0.346-0.805,0.614-1.252,0.789c-0.407,0.16-0.866,0.271-1.291,0.312c-0.249,0.024-0.508,0.037-0.77,0.037c-0.679,0-1.355-0.082-1.954-0.236c-0.482-0.124-1.003-0.312-1.559-0.562l0.086-0.117c0.321-0.438,0.45-0.988,0.357-1.522c-0.093-0.535-0.399-1.009-0.848-1.314l-1.974-1.34c-0.344-0.233-0.735-0.345-1.121-0.345c-0.634,0-1.256,0.3-1.644,0.859l-2.644,3.808c-0.492,0.708-0.474,1.651,0.043,2.341C5.37,27.509,8.774,31.921,17.07,32l0.072,0c1.627,0,3.217-0.529,4.265-0.973c1.986-0.842,3.582-2.551,4.024-3.055c1.049-1.197,1.731-2.611,1.972-4.089c0.421-2.582-0.359-5.545-1.941-7.373C24.238,15.094,22.415,14.249,20.585,14.249L20.585,14.249L20.585,14.249z M21.293,24.63C21.293,24.63,21.293,24.63,21.293,24.63L21.293,24.63z"/></svg>