<svg xmlns="http://www.w3.org/2000/svg" viewBox="0 0 32 32"><!--! Font Icona - https://fonticona.com | License - https://fonticona.com/license | Copyright 2022 FontIcona.com --><path d="M25.322,32H6.678c-1.654,0-3-1.346-3-3V9.173c0-0.704,0.25-1.389,0.703-1.929L9.568,1.07C10.14,0.39,10.977,0,11.865,0h13.457c1.654,0,3,1.346,3,3v26C28.322,30.654,26.977,32,25.322,32z M11.865,2c-0.296,0-0.575,0.13-0.766,0.356L5.913,8.529c-0.151,0.18-0.234,0.409-0.234,0.644V29c0,0.552,0.449,1,1,1h18.644c0.552,0,1-0.448,1-1V3c0-0.551-0.448-1-1-1H11.865z"/><path d="M22.502,11.362c-0.553,0-1-0.448-1-1V6.08c0-0.552,0.447-1,1-1s1,0.448,1,1v4.282C23.502,10.914,23.055,11.362,22.502,11.362z"/><path d="M18.097,11.362c-0.553,0-1-0.448-1-1V6.08c0-0.552,0.447-1,1-1s1,0.448,1,1v4.282C19.097,10.914,18.649,11.362,18.097,11.362z"/><path d="M13.693,11.362c-0.552,0-1-0.448-1-1V6.08c0-0.552,0.448-1,1-1s1,0.448,1,1v4.282C14.693,10.914,14.245,11.362,13.693,11.362z"/></svg>