<svg xmlns="http://www.w3.org/2000/svg" viewBox="0 0 32 32"><!--! Font Icona - https://fonticona.com | License - https://fonticona.com/license | Copyright 2022 FontIcona.com --><path d="M26.487,11.938H15.629c-0.553,0-1-0.447-1-1s0.447-1,1-1h10.858c0.553,0,1,0.447,1,1S27.04,11.938,26.487,11.938z"/><path d="M21.058,17.368c-0.553,0-1-0.447-1-1V5.51c0-0.553,0.447-1,1-1s1,0.447,1,1v10.858C22.058,16.921,21.61,17.368,21.058,17.368z"/><path class="st0" d="M21.058,21.878c-6.031,0-10.938-4.907-10.938-10.939C10.119,4.907,15.026,0,21.058,0c6.032,0,10.939,4.907,10.939,10.938C31.997,16.971,27.09,21.878,21.058,21.878z M21.058,2c-4.929,0-8.938,4.01-8.938,8.938s4.01,8.939,8.938,8.939s8.939-4.011,8.939-8.939S25.986,2,21.058,2z"/><rect x="10.083" y="18.602" transform="matrix(0.7071 -0.7071 0.7071 0.7071 -10.23 14.5066)" class="st0" width="4.625" height="2"/><path class="st0" d="M3.981,31.998c-0.84,0-1.679-0.318-2.318-0.955l-0.694-0.692c-1.283-1.278-1.286-3.362-0.007-4.646l5.51-5.524c1.278-1.28,3.36-1.284,4.645-0.008l0.694,0.692c1.28,1.277,1.285,3.361,0.008,4.645l-5.511,5.525C5.667,31.677,4.824,31.998,3.981,31.998z M2.378,27.117c-0.5,0.502-0.499,1.317,0.003,1.817l0.693,0.691c0.501,0.5,1.318,0.496,1.817-0.004l5.51-5.523c0.499-0.502,0.497-1.317-0.004-1.817L9.704,21.59c-0.502-0.5-1.316-0.497-1.816,0.003L2.378,27.117z"/></svg>