<svg xmlns="http://www.w3.org/2000/svg" viewBox="0 0 32 32"><!--! Font Icona - https://fonticona.com | License - https://fonticona.com/license | Copyright 2022 FontIcona.com --><path d="M25.956,20.585c-0.553,0-1-0.448-1-1v-6.632c0-0.552,0.447-1,1-1s1,0.448,1,1v6.632C26.956,20.138,26.509,20.585,25.956,20.585z"/><path d="M22.686,21.744c-0.553,0-1-0.448-1-1v-5.862c0-0.552,0.447-1,1-1s1,0.448,1,1v5.862C23.686,21.296,23.238,21.744,22.686,21.744z"/><path d="M16.156,20.588c-0.553,0-1-0.448-1-1V16.01c0-0.552,0.447-1,1-1s1,0.448,1,1v3.578C17.156,20.14,16.709,20.588,16.156,20.588z"/><path d="M19.427,21.744c-0.553,0-1-0.448-1-1V10.078c0-0.552,0.447-1,1-1s1,0.448,1,1v10.666C20.427,21.296,19.979,21.744,19.427,21.744z"/><path d="M21.054,21.879c-0.959,0-1.933-0.127-2.901-0.394c-5.814-1.601-9.242-7.635-7.641-13.449s7.635-9.244,13.449-7.64l0,0c5.814,1.601,9.242,7.634,7.641,13.449C30.267,18.691,25.853,21.878,21.054,21.879z M21.06,2.001c-3.922,0-7.528,2.605-8.62,6.565c-1.309,4.751,1.493,9.682,6.244,10.99c4.754,1.311,9.681-1.492,10.99-6.244c1.308-4.751-1.493-9.682-6.244-10.99l0,0C22.639,2.105,21.843,2.001,21.06,2.001z"/><rect x="10.082" y="18.602" transform="matrix(0.7071 -0.7071 0.7071 0.7071 -10.2303 14.5055)" width="4.624" height="2"/><path d="M3.981,32c-0.876,0-1.699-0.34-2.319-0.959l-0.693-0.69c-1.282-1.279-1.286-3.363-0.007-4.646l5.509-5.524c1.278-1.282,3.363-1.285,4.646-0.006l0.693,0.692c1.281,1.278,1.285,3.361,0.006,4.645l-5.509,5.524C5.688,31.656,4.863,31.999,3.986,32C3.984,32,3.982,32,3.981,32z M8.797,21.216c-0.329,0-0.659,0.125-0.91,0.377l-5.509,5.524c-0.5,0.501-0.499,1.316,0.003,1.817l0.693,0.69C3.317,29.867,3.639,30,3.981,30c0.001,0,0.001,0,0.002,0c0.343,0,0.665-0.134,0.907-0.377l5.509-5.524c0.242-0.243,0.375-0.566,0.375-0.909c-0.001-0.343-0.135-0.666-0.378-0.907L9.703,21.59C9.454,21.341,9.125,21.216,8.797,21.216z"/></svg>