<svg xmlns="http://www.w3.org/2000/svg" viewBox="0 0 32 32"><!--! Font Icona - https://fonticona.com | License - https://fonticona.com/license | Copyright 2022 FontIcona.com --><path d="M13.073,30.818c-0.119,0-0.239-0.021-0.356-0.065c-0.516-0.197-0.774-0.775-0.578-1.291c2.088-5.471-0.473-12.052-6.087-15.648c-0.466-0.298-0.601-0.916-0.303-1.381c0.297-0.467,0.915-0.602,1.381-0.303c6.409,4.104,9.301,11.694,6.878,18.045C13.855,30.573,13.476,30.818,13.073,30.818z"/><path d="M7.441,18.164c-1.528,0-3.029-0.729-4.051-1.978c-1.563-1.909-2.693-4.204-3.358-6.821c-0.113-0.444,0.09-0.908,0.494-1.126c3.357-1.814,8.577-0.696,10.495,1.487c1.294,1.476,1.478,4.651,0.362,6.294c-0.891,1.312-2.216,2.071-3.729,2.139C7.584,18.162,7.513,18.164,7.441,18.164z M2.196,9.683c0.606,1.994,1.527,3.752,2.741,5.235c0.672,0.82,1.626,1.288,2.628,1.242c0.614-0.027,1.488-0.269,2.164-1.265c0.606-0.894,0.488-3.053-0.212-3.85C8.389,9.76,4.808,8.768,2.196,9.683z"/><path d="M13.072,30.818c-0.446,0-0.853-0.301-0.968-0.753c-1.969-7.718,0.135-18.09,9.403-22.624c0.497-0.243,1.095-0.037,1.338,0.459c0.242,0.496,0.037,1.095-0.459,1.338c-8.266,4.043-10.119,13.374-8.345,20.333c0.137,0.535-0.187,1.079-0.722,1.216C13.237,30.808,13.154,30.818,13.072,30.818z"/><path d="M20.559,16.113c-0.363,0-0.726-0.028-1.085-0.086c-2.106-0.339-3.838-1.618-4.876-3.602c-1.306-2.495-0.533-6.939,1.529-8.807c3.07-2.78,10.957-3.516,15.444-0.379c0.376,0.262,0.525,0.746,0.362,1.175c-1.43,3.759-3.491,6.961-6.128,9.518C24.358,15.336,22.458,16.113,20.559,16.113z M24.201,3.188c-2.804,0-5.486,0.785-6.732,1.913c-1.382,1.251-1.978,4.718-1.1,6.396c0.738,1.411,1.954,2.318,3.422,2.554c1.623,0.263,3.351-0.32,4.622-1.555c2.246-2.179,4.043-4.877,5.349-8.032C28.142,3.565,26.142,3.188,24.201,3.188z"/></svg>