<svg xmlns="http://www.w3.org/2000/svg" viewBox="0 0 32 32"><!--! Font Icona - https://fonticona.com | License - https://fonticona.com/license | Copyright 2022 FontIcona.com --><path d="M31,32h-3.5c-0.552,0-1-0.447-1-1s0.448-1,1-1H30v-2.5c0-0.553,0.448-1,1-1s1,0.447,1,1V31C32,31.553,31.552,32,31,32z"/><path d="M20.237,32h-8.474c-0.552,0-1-0.447-1-1s0.448-1,1-1h8.474c0.552,0,1,0.447,1,1S20.789,32,20.237,32z"/><path d="M4.5,32H1c-0.552,0-1-0.447-1-1v-3.5c0-0.553,0.448-1,1-1s1,0.447,1,1V30h2.5c0.552,0,1,0.447,1,1S5.052,32,4.5,32z"/><path d="M1,21.237c-0.552,0-1-0.447-1-1v-8.474c0-0.553,0.448-1,1-1s1,0.447,1,1v8.474C2,20.79,1.552,21.237,1,21.237z"/><path d="M1,5.5c-0.552,0-1-0.447-1-1V1c0-0.553,0.448-1,1-1h3.5c0.552,0,1,0.447,1,1s-0.448,1-1,1H2v2.5C2,5.053,1.552,5.5,1,5.5z"/><path d="M20.237,2h-8.474c-0.552,0-1-0.447-1-1s0.448-1,1-1h8.474c0.552,0,1,0.447,1,1S20.789,2,20.237,2z"/><path d="M31,5.5c-0.552,0-1-0.447-1-1V2h-2.5c-0.552,0-1-0.447-1-1s0.448-1,1-1H31c0.552,0,1,0.447,1,1v3.5C32,5.053,31.552,5.5,31,5.5z"/><path d="M31,21.236c-0.552,0-1-0.447-1-1v-8.474c0-0.553,0.448-1,1-1s1,0.447,1,1v8.474C32,20.789,31.552,21.236,31,21.236z"/><path d="M20.51,24.107c-0.534,0-1.036-0.208-1.414-0.586l-3.06-3.06L14.6,21.897c-0.499,0.499-1.208,0.694-1.893,0.528c-0.687-0.17-1.221-0.674-1.432-1.349l-3.292-10.59C7.763,9.776,7.952,9.008,8.479,8.48c0.526-0.526,1.296-0.717,2.008-0.497l10.591,3.292c0.675,0.21,1.179,0.745,1.348,1.431c0.169,0.686-0.028,1.394-0.527,1.894l-1.437,1.437l3.061,3.061c0.377,0.376,0.585,0.878,0.586,1.412c0,0.535-0.208,1.038-0.586,1.416l-1.598,1.597C21.547,23.899,21.045,24.107,20.51,24.107z M16.036,18.048c0.256,0,0.512,0.098,0.707,0.293l3.767,3.767l1.598-1.597l-3.768-3.768c-0.391-0.391-0.391-1.023,0-1.414l2.144-2.144L9.894,9.894l3.292,10.59l2.144-2.143C15.524,18.146,15.78,18.048,16.036,18.048z"/></svg>