<svg xmlns="http://www.w3.org/2000/svg" viewBox="0 0 32 32"><!--! Font Icona - https://fonticona.com | License - https://fonticona.com/license | Copyright 2022 FontIcona.com --><path d="M31,32h-3.5c-0.552,0-1-0.447-1-1s0.448-1,1-1H30v-2.5c0-0.553,0.448-1,1-1s1,0.447,1,1V31C32,31.553,31.552,32,31,32z"/><path d="M20.237,32h-8.474c-0.552,0-1-0.447-1-1s0.448-1,1-1h8.474c0.552,0,1,0.447,1,1S20.789,32,20.237,32z"/><path d="M4.5,32H1c-0.552,0-1-0.447-1-1v-3.5c0-0.553,0.448-1,1-1s1,0.447,1,1V30h2.5c0.552,0,1,0.447,1,1S5.052,32,4.5,32z"/><path d="M1,21.237c-0.552,0-1-0.447-1-1v-8.474c0-0.553,0.448-1,1-1s1,0.447,1,1v8.474C2,20.79,1.552,21.237,1,21.237z"/><path d="M1,5.5c-0.552,0-1-0.447-1-1V1c0-0.553,0.448-1,1-1h3.5c0.552,0,1,0.447,1,1s-0.448,1-1,1H2v2.5C2,5.053,1.552,5.5,1,5.5z"/><path d="M20.237,2h-8.474c-0.552,0-1-0.447-1-1s0.448-1,1-1h8.474c0.552,0,1,0.447,1,1S20.789,2,20.237,2z"/><path d="M31,5.5c-0.552,0-1-0.447-1-1V2h-2.5c-0.552,0-1-0.447-1-1s0.448-1,1-1H31c0.552,0,1,0.447,1,1v3.5C32,5.053,31.552,5.5,31,5.5z"/><path d="M31,21.236c-0.552,0-1-0.447-1-1v-8.474c0-0.553,0.448-1,1-1s1,0.447,1,1v8.474C32,20.789,31.552,21.236,31,21.236z"/><path d="M9.617,27.53c-2.949,0-5.348-2.399-5.348-5.349s2.399-5.349,5.348-5.349s5.349,2.399,5.349,5.349S12.566,27.53,9.617,27.53z M9.617,18.833c-1.846,0-3.348,1.502-3.348,3.349s1.502,3.349,3.348,3.349c1.847,0,3.349-1.502,3.349-3.349S11.464,18.833,9.617,18.833z"/><path d="M22.526,14.974c-2.949,0-5.348-2.399-5.348-5.349s2.399-5.349,5.348-5.349s5.349,2.399,5.349,5.349S25.476,14.974,22.526,14.974z M22.526,6.276c-1.846,0-3.348,1.502-3.348,3.349s1.502,3.349,3.348,3.349c1.847,0,3.349-1.502,3.349-3.349S24.373,6.276,22.526,6.276z"/><path d="M9.617,14.974c-2.949,0-5.348-2.399-5.348-5.349s2.399-5.349,5.348-5.349s5.349,2.399,5.349,5.349S12.566,14.974,9.617,14.974z M9.617,6.276c-1.846,0-3.348,1.502-3.348,3.349s1.502,3.349,3.348,3.349c1.847,0,3.349-1.502,3.349-3.349S11.464,6.276,9.617,6.276z"/><path d="M25.422,27.999c-0.439,0-0.852-0.171-1.162-0.482l-1.71-1.711l-0.669,0.67c-0.411,0.41-0.992,0.573-1.554,0.433c-0.563-0.139-1.002-0.553-1.174-1.106l-2.114-6.799c-0.182-0.585-0.026-1.217,0.407-1.649c0.434-0.432,1.067-0.589,1.649-0.405l6.798,2.112c0.555,0.173,0.968,0.612,1.107,1.176c0.139,0.562-0.023,1.144-0.434,1.554l-0.669,0.669l1.712,1.711c0.64,0.641,0.64,1.682,0.001,2.321l-1.026,1.026C26.273,27.828,25.861,27.999,25.422,27.999z M25.675,26.104h0.01H25.675z M22.55,23.392c0.265,0,0.52,0.105,0.707,0.293l2.166,2.166l0.52-0.52l-2.166-2.165c-0.188-0.188-0.293-0.441-0.293-0.707c0-0.265,0.105-0.52,0.293-0.707l0.957-0.957L19.15,19.06l1.735,5.582l0.958-0.957C22.03,23.497,22.285,23.392,22.55,23.392z"/></svg>