<svg xmlns="http://www.w3.org/2000/svg" viewBox="0 0 32 32"><!--! Font Icona - https://fonticona.com | License - https://fonticona.com/license | Copyright 2022 FontIcona.com --><path d="M24.493,27.284c-0.553,0-1-0.448-1-1s0.447-1,1-1c3.036,0,5.507-2.47,5.507-5.507c0-2.469-1.661-4.652-4.04-5.308c-0.476-0.131-0.784-0.589-0.728-1.079c0.026-0.231,0.043-0.466,0.043-0.705c0-3.292-2.678-5.97-5.97-5.97s-5.971,2.678-5.971,5.97l0.003,0.114c0.014,0.387-0.196,0.784-0.541,0.961c-0.344,0.177-0.758,0.177-1.065-0.059c-0.638-0.49-1.401-0.75-2.207-0.75c-2.002,0-3.631,1.628-3.631,3.63c0,0.131,0.008,0.26,0.021,0.388c0.058,0.532-0.313,1.015-0.842,1.096C3.321,18.335,2,19.878,2,21.654c0,2.002,1.628,3.63,3.63,3.63h11.888c1.303,0,2.363-1.06,2.363-2.363v-9.505c0-0.552,0.447-1,1-1s1,0.448,1,1v9.505c0,2.406-1.957,4.363-4.363,4.363H5.63c-3.104,0-5.63-2.526-5.63-5.63c0-2.497,1.596-4.628,3.901-5.361c0.151-2.97,2.615-5.34,5.623-5.34c0.67,0,1.32,0.115,1.933,0.339c0.661-3.732,3.929-6.576,7.849-6.576c4.395,0,7.97,3.575,7.97,7.97c0,0.04,0,0.08-0.001,0.119C30.094,13.93,32,16.689,32,19.777C32,23.917,28.633,27.284,24.493,27.284z"/><path d="M10.072,23.336c-0.553,0-1-0.448-1-1V19.12c0-0.552,0.447-1,1-1s1,0.448,1,1v3.217C11.072,22.889,10.625,23.336,10.072,23.336z"/><path d="M13.729,23.336c-0.553,0-1-0.448-1-1v-5.264c0-0.552,0.447-1,1-1s1,0.448,1,1v5.264C14.729,22.889,14.281,23.336,13.729,23.336z"/><path d="M17.384,23.336c-0.553,0-1-0.448-1-1v-7.238c0-0.552,0.447-1,1-1s1,0.448,1,1v7.238C18.384,22.889,17.937,23.336,17.384,23.336z"/></svg>