<svg xmlns="http://www.w3.org/2000/svg" viewBox="0 0 32 32"><!--! Font Icona - https://fonticona.com | License - https://fonticona.com/license | Copyright 2022 FontIcona.com --><path d="M26.432,31.945H5.579c-1.654,0-3-1.346-3-3v-4.502c0-1.654,1.346-3,3-3h20.853c1.654,0,3,1.346,3,3v4.502C29.432,30.599,28.086,31.945,26.432,31.945z M5.579,23.443c-0.552,0-1,0.449-1,1v4.502c0,0.551,0.448,1,1,1h20.853c0.552,0,1-0.449,1-1v-4.502c0-0.551-0.448-1-1-1H5.579z"/><path d="M26.432,10.557H5.579c-1.654,0-3-1.346-3-3V3.055c0-1.654,1.346-3,3-3h20.853c1.654,0,3,1.346,3,3v4.502C29.432,9.211,28.086,10.557,26.432,10.557z M5.579,2.055c-0.552,0-1,0.449-1,1v4.502c0,0.551,0.448,1,1,1h20.853c0.552,0,1-0.449,1-1V3.055c0-0.551-0.448-1-1-1H5.579z"/><path d="M5.594,17H1c-0.553,0-1-0.448-1-1s0.447-1,1-1h4.594c0.553,0,1,0.448,1,1S6.146,17,5.594,17z"/><path d="M14.162,17H9.568c-0.553,0-1-0.448-1-1s0.447-1,1-1h4.594c0.553,0,1,0.448,1,1S14.715,17,14.162,17z"/><path d="M22.73,17h-4.583c-0.553,0-1-0.448-1-1s0.447-1,1-1h4.583c0.553,0,1,0.448,1,1S23.283,17,22.73,17z"/><path d="M31,17h-4.583c-0.553,0-1-0.448-1-1s0.447-1,1-1H31c0.553,0,1,0.448,1,1S31.553,17,31,17z"/><path d="M22.73,17h-4.583c-0.553,0-1-0.448-1-1s0.447-1,1-1h4.583c0.553,0,1,0.448,1,1S23.283,17,22.73,17z"/></svg>