<svg xmlns="http://www.w3.org/2000/svg" viewBox="0 0 32 32"><!--! Font Icona - https://fonticona.com | License - https://fonticona.com/license | Copyright 2022 FontIcona.com --><path d="M24.906,29.24H1c-0.46,0-0.86-0.313-0.971-0.76c-0.11-0.446,0.098-0.911,0.505-1.125c3.318-1.747,5.252-3.888,5.745-6.365c0.746-3.74-2.03-7.141-2.059-7.175c-0.274-0.331-0.308-0.801-0.08-1.167c0.227-0.365,0.659-0.545,1.08-0.446c17.03,4.045,20.506,15.28,20.646,15.757c0.088,0.302,0.029,0.628-0.159,0.881C25.518,29.092,25.222,29.24,24.906,29.24z M4.396,27.24h19.019c-0.516-1.07-1.46-2.702-3.046-4.474c-2.286-2.554-6.369-5.882-13.181-7.961c0.809,1.632,1.564,3.988,1.058,6.558C7.807,23.583,6.517,25.551,4.396,27.24z"/><path d="M31,29.24h-5.873c-0.42,0-0.795-0.262-0.938-0.656C20.185,17.665,9.097,13.062,8.985,13.018c-0.446-0.181-0.7-0.654-0.605-1.126c0.838-4.134-2.515-7.375-2.549-7.407C5.498,4.168,5.423,3.666,5.649,3.267c0.228-0.399,0.696-0.595,1.139-0.47c20.801,5.809,25.148,25.041,25.189,25.234c0.063,0.295-0.01,0.604-0.2,0.838C31.588,29.104,31.302,29.24,31,29.24z M25.815,27.24h3.867c-1.227-3.908-6.144-16.23-20.502-21.567c0.823,1.481,1.537,3.495,1.284,5.813C13.088,12.715,21.927,17.47,25.815,27.24z"/></svg>