<svg xmlns="http://www.w3.org/2000/svg" viewBox="0 0 32 32"><!--! Font Icona - https://fonticona.com | License - https://fonticona.com/license | Copyright 2022 FontIcona.com --><path d="M16,29.841c-4.409,0-7.995-3.587-7.995-7.996s3.586-7.995,7.995-7.995s7.995,3.586,7.995,7.995c0,0.651-0.078,1.298-0.233,1.923c-0.133,0.536-0.674,0.863-1.211,0.73c-0.536-0.132-0.863-0.675-0.73-1.211c0.116-0.468,0.174-0.953,0.174-1.443c0-3.306-2.689-5.995-5.995-5.995s-5.995,2.689-5.995,5.995c0,3.306,2.689,5.996,5.995,5.996c0.403,0,0.872-0.012,1.291-0.104c0.542-0.118,1.072,0.225,1.19,0.764s-0.225,1.072-0.764,1.19C17.112,29.824,16.51,29.841,16,29.841z"/><path d="M17.503,29.715c-0.263,0-0.525-0.103-0.721-0.308l-2.385-2.484c-0.383-0.398-0.37-1.031,0.029-1.414c0.398-0.383,1.031-0.37,1.414,0.029l2.385,2.484c0.383,0.398,0.37,1.031-0.029,1.414C18.002,29.623,17.752,29.715,17.503,29.715z"/><path d="M14.523,32c-0.3,0-0.597-0.135-0.794-0.392c-0.336-0.438-0.253-1.066,0.185-1.402l2.981-2.285c0.438-0.336,1.066-0.253,1.402,0.185c0.336,0.438,0.253,1.066-0.185,1.402l-2.981,2.285C14.949,31.933,14.735,32,14.523,32z"/><path d="M25.051,11.055H6.949c-1.835,0-3.328-1.493-3.328-3.328V3.331c0-1.834,1.493-3.327,3.328-3.327h18.103c1.835,0,3.328,1.493,3.328,3.327v4.396C28.379,9.562,26.886,11.055,25.051,11.055z M6.949,2.004c-0.732,0-1.328,0.595-1.328,1.327v4.396c0,0.732,0.596,1.328,1.328,1.328h18.103c0.732,0,1.328-0.596,1.328-1.328V3.331c0-0.732-0.596-1.327-1.328-1.327H6.949z"/><path d="M25.051,18.761h-3.33c-0.552,0-1-0.448-1-1s0.448-1,1-1h3.33c0.732,0,1.328-0.595,1.328-1.327v-3.051c0-0.732-0.596-1.327-1.328-1.327H6.949c-0.732,0-1.328,0.595-1.328,1.327v3.051c0,0.732,0.596,1.327,1.328,1.327h3.374c0.552,0,1,0.448,1,1s-0.448,1-1,1H6.949c-1.835,0-3.328-1.493-3.328-3.327v-3.051c0-1.834,1.493-3.327,3.328-3.327h18.103c1.835,0,3.328,1.493,3.328,3.327v3.051C28.379,17.268,26.886,18.761,25.051,18.761z"/><circle cx="20.558" cy="4.107" r="1.164"/><circle cx="24.017" cy="4.107" r="1.164"/><path d="M10.957,5.107H7.725c-0.552,0-1-0.448-1-1s0.448-1,1-1h3.232c0.552,0,1,0.448,1,1S11.509,5.107,10.957,5.107z"/><circle cx="20.558" cy="13.029" r="1.164"/><circle cx="24.017" cy="13.029" r="1.164"/><path d="M10.957,14.029H7.725c-0.552,0-1-0.448-1-1s0.448-1,1-1h3.232c0.552,0,1,0.448,1,1S11.509,14.029,10.957,14.029z"/></svg>