<svg xmlns="http://www.w3.org/2000/svg" viewBox="0 0 32 32"><!--! Font Icona - https://fonticona.com | License - https://fonticona.com/license | Copyright 2022 FontIcona.com --><path d="M6.422,21.067c-2.873,0-5.211-2.338-5.211-5.211s2.338-5.211,5.211-5.211c2.874,0,5.212,2.337,5.212,5.211S9.296,21.067,6.422,21.067z M6.422,12.645c-1.771,0-3.211,1.44-3.211,3.211c0,1.771,1.44,3.211,3.211,3.211c1.771,0,3.212-1.44,3.212-3.211C9.634,14.085,8.193,12.645,6.422,12.645z"/><path d="M25.578,10.422c-2.874,0-5.212-2.338-5.212-5.211S22.704,0,25.578,0c2.873,0,5.211,2.337,5.211,5.211S28.451,10.422,25.578,10.422z M25.578,2c-1.771,0-3.212,1.44-3.212,3.211c0,1.771,1.44,3.211,3.212,3.211c1.771,0,3.211-1.44,3.211-3.211C28.789,3.44,27.349,2,25.578,2z"/><path d="M25.578,32c-2.874,0-5.212-2.337-5.212-5.211s2.338-5.211,5.212-5.211c2.873,0,5.211,2.338,5.211,5.211S28.451,32,25.578,32z M25.578,23.578c-1.771,0-3.212,1.44-3.212,3.211c0,1.771,1.44,3.211,3.212,3.211c1.771,0,3.211-1.44,3.211-3.211C28.789,25.018,27.349,23.578,25.578,23.578z"/><path d="M22.133,25.422c-0.173,0-0.349-0.045-0.509-0.14L9.935,18.36c-0.475-0.281-0.632-0.895-0.351-1.37c0.281-0.474,0.895-0.632,1.37-0.351l11.689,6.922c0.475,0.281,0.632,0.895,0.351,1.37C22.808,25.247,22.475,25.422,22.133,25.422z"/><path d="M10.734,14.878c-0.334,0-0.66-0.167-0.85-0.471c-0.292-0.469-0.148-1.085,0.32-1.377l10.633-6.623c0.468-0.292,1.085-0.149,1.377,0.32s0.148,1.085-0.32,1.377l-10.633,6.623C11.098,14.829,10.915,14.878,10.734,14.878z"/></svg>