<svg xmlns="http://www.w3.org/2000/svg" viewBox="0 0 32 32"><!--! Font Icona - https://fonticona.com | License - https://fonticona.com/license | Copyright 2022 FontIcona.com --><path d="M2.822,20.03c-0.093-0.635-0.141-1.284-0.141-1.928c0-5.524,3.488-10.498,8.68-12.378l0.681,1.881c-4.402,1.594-7.36,5.813-7.36,10.498c0,0.548,0.04,1.099,0.119,1.638L2.822,20.03z"/><path d="M15.842,31.263c-3.23,0-6.337-1.182-8.748-3.329l1.33-1.493c2.043,1.819,4.678,2.822,7.417,2.822c2.807,0,5.49-1.046,7.555-2.946l1.354,1.472C22.315,30.029,19.152,31.263,15.842,31.263z"/><path d="M28.877,19.928l-1.981-0.275c0.071-0.509,0.107-1.031,0.107-1.551c0-4.684-2.958-8.903-7.359-10.497l0.682-1.881c5.19,1.881,8.678,6.855,8.678,12.378C29.002,18.713,28.96,19.328,28.877,19.928z"/><path d="M15.842,11.145c-2.869,0-5.204-2.334-5.204-5.204c0-2.87,2.334-5.204,5.204-5.204s5.204,2.334,5.204,5.204C21.045,8.811,18.711,11.145,15.842,11.145z M15.842,2.737c-1.767,0-3.204,1.438-3.204,3.204s1.437,3.204,3.204,3.204s3.204-1.437,3.204-3.204S17.608,2.737,15.842,2.737z"/><path d="M26.796,29.055c-2.869,0-5.204-2.334-5.204-5.204s2.334-5.204,5.204-5.204S32,20.982,32,23.851S29.666,29.055,26.796,29.055z M26.796,20.647c-1.767,0-3.204,1.437-3.204,3.204s1.437,3.204,3.204,3.204S30,25.618,30,23.851S28.563,20.647,26.796,20.647z"/><path d="M26.796,29.055c-2.869,0-5.204-2.334-5.204-5.204s2.334-5.204,5.204-5.204S32,20.982,32,23.851S29.666,29.055,26.796,29.055z M26.796,20.647c-1.767,0-3.204,1.437-3.204,3.204s1.437,3.204,3.204,3.204S30,25.618,30,23.851S28.563,20.647,26.796,20.647z"/><path d="M5.204,29.055C2.334,29.055,0,26.72,0,23.851s2.334-5.204,5.204-5.204s5.204,2.334,5.204,5.204S8.073,29.055,5.204,29.055z M5.204,20.647C3.437,20.647,2,22.084,2,23.851s1.437,3.204,3.204,3.204s3.204-1.437,3.204-3.204S6.97,20.647,5.204,20.647z"/></svg>