<svg xmlns="http://www.w3.org/2000/svg" viewBox="0 0 32 32"><!--! Font Icona - https://fonticona.com | License - https://fonticona.com/license | Copyright 2022 FontIcona.com --><path d="M3.647,32c-0.552,0-1-0.447-1-1V1c0-0.553,0.448-1,1-1h12.974c2.552,0,4.627,2.442,4.627,5.444v16.928c0,0.553-0.448,1-1,1s-1-0.447-1-1V5.444C19.249,3.577,18.045,2,16.621,2H4.647v29C4.647,31.553,4.199,32,3.647,32z"/><path d="M28.353,32H15.379c-2.552,0-4.627-2.442-4.627-5.444V9.628c0-0.553,0.448-1,1-1s1,0.447,1,1v16.928c0,1.867,1.203,3.444,2.627,3.444h11.974V1c0-0.553,0.448-1,1-1s1,0.447,1,1v30C29.353,31.553,28.905,32,28.353,32z"/></svg>