<svg xmlns="http://www.w3.org/2000/svg" viewBox="0 0 32 32"><!--! Font Icona - https://fonticona.com | License - https://fonticona.com/license | Copyright 2022 FontIcona.com --><path d="M20.327,21.458c-0.159,0-0.319-0.038-0.465-0.115l-3.866-2.031l-3.857,2.031c-0.337,0.179-0.744,0.148-1.053-0.075s-0.463-0.603-0.398-0.978l0.735-4.308L8.3,12.936c-0.272-0.266-0.37-0.663-0.253-1.024c0.118-0.362,0.431-0.626,0.807-0.681l4.312-0.629L15.1,6.689c0.169-0.341,0.516-0.557,0.896-0.557l0,0c0.381,0,0.729,0.216,0.896,0.557l1.933,3.912l4.32,0.629c0.377,0.055,0.69,0.318,0.808,0.681s0.02,0.76-0.254,1.025l-3.129,3.046l0.742,4.306c0.064,0.375-0.089,0.755-0.397,0.979C20.741,21.394,20.534,21.458,20.327,21.458z M15.996,17.182c0.16,0,0.319,0.038,0.465,0.115l2.536,1.332l-0.487-2.825c-0.056-0.325,0.052-0.656,0.288-0.887l2.054-1.999l-2.834-0.413c-0.326-0.047-0.607-0.251-0.753-0.546l-1.269-2.568l-1.27,2.568c-0.146,0.295-0.427,0.499-0.752,0.546l-2.829,0.412l2.05,2.001c0.235,0.229,0.343,0.561,0.287,0.884L13,18.629l2.53-1.332C15.676,17.22,15.836,17.182,15.996,17.182z"/><path d="M16.011,32c-0.212,0-0.425-0.067-0.604-0.202l-8.11-6.134c-0.032-0.024-0.062-0.051-0.092-0.079c-2.224-2.149-3.383-5.153-3.181-8.239L4.022,4.078c0-0.271,0.11-0.531,0.306-0.72c0.195-0.188,0.442-0.293,0.73-0.279c6.607,0.241,10.265-2.807,10.3-2.837c0.375-0.32,0.933-0.322,1.308,0.002c0.033,0.028,3.667,3.057,10.271,2.802c0.254-0.02,0.536,0.089,0.732,0.277c0.196,0.189,0.308,0.449,0.308,0.722v13.333c0.2,3.021-0.959,6.024-3.183,8.174c-0.028,0.027-0.058,0.053-0.089,0.076l-8.089,6.167C16.438,31.932,16.225,32,16.011,32z M8.554,24.106l7.455,5.638l7.437-5.67c1.773-1.738,2.697-4.151,2.534-6.631L25.978,5.062c-5.228-0.029-8.617-1.901-9.967-2.817c-1.349,0.917-4.744,2.795-9.988,2.846v12.32C5.857,19.955,6.78,22.368,8.554,24.106z"/></svg>