<svg xmlns="http://www.w3.org/2000/svg" viewBox="0 0 32 32"><!--! Font Icona - https://fonticona.com | License - https://fonticona.com/license | Copyright 2022 FontIcona.com --><path d="M16.01,32c-0.212,0-0.425-0.067-0.604-0.202l-8.11-6.134c-0.032-0.024-0.062-0.051-0.092-0.079c-2.224-2.149-3.383-5.153-3.181-8.239L4.021,4.078c0-0.271,0.11-0.531,0.306-0.72c0.195-0.188,0.443-0.3,0.73-0.279c6.608,0.231,10.265-2.807,10.3-2.837c0.375-0.321,0.933-0.321,1.308,0.002c0.033,0.028,3.668,3.062,10.271,2.802c0.255-0.014,0.536,0.089,0.732,0.277c0.196,0.189,0.308,0.449,0.308,0.722v13.333c0.2,3.021-0.959,6.024-3.183,8.174c-0.028,0.027-0.058,0.053-0.089,0.076l-8.089,6.167C16.438,31.932,16.224,32,16.01,32z M8.553,24.106l7.455,5.638l7.437-5.67c1.773-1.738,2.697-4.151,2.534-6.631L25.977,5.062c-5.228-0.029-8.617-1.901-9.967-2.817c-1.349,0.917-4.744,2.795-9.988,2.846v12.32C5.856,19.955,6.779,22.368,8.553,24.106z"/><path d="M26.999,13.061H5.043c-0.553,0-1-0.447-1-1s0.447-1,1-1h21.956c0.553,0,1,0.447,1,1S27.552,13.061,26.999,13.061z"/><path d="M16.01,32c-0.553,0-1-0.447-1-1V1c0-0.553,0.447-1,1-1s1,0.447,1,1v30C17.01,31.553,16.562,32,16.01,32z"/></svg>