<svg xmlns="http://www.w3.org/2000/svg" viewBox="0 0 32 32"><!--! Font Icona - https://fonticona.com | License - https://fonticona.com/license | Copyright 2022 FontIcona.com --><path d="M16.011,32c-0.212,0-0.425-0.067-0.604-0.202l-8.11-6.134c-0.032-0.024-0.062-0.051-0.092-0.079c-2.224-2.149-3.383-5.153-3.181-8.239L4.022,4.078c0-0.448,0.299-0.842,0.73-0.963l10.988-3.078c0.175-0.049,0.36-0.05,0.537-0.001l10.967,3.045c0.433,0.12,0.732,0.515,0.732,0.964v13.333c0.2,3.021-0.959,6.024-3.183,8.174c-0.028,0.027-0.058,0.053-0.089,0.076l-8.089,6.167C16.438,31.932,16.225,32,16.011,32z M8.554,24.106l7.455,5.638l7.437-5.67c1.773-1.738,2.697-4.151,2.534-6.631L25.978,4.805l-9.966-2.767L6.022,4.837v12.574C5.857,19.955,6.78,22.368,8.554,24.106z"/><path d="M20.345,22.934h-8.656c-0.312,0-0.605-0.146-0.794-0.393c-0.189-0.247-0.253-0.568-0.171-0.869l1.66-6.124c-0.153-0.154-0.297-0.318-0.43-0.491c-1.714-2.238-1.288-5.453,0.948-7.167c2.235-1.712,5.45-1.288,7.166,0.949c1.571,2.052,1.344,4.925-0.43,6.709l1.671,6.122c0.082,0.301,0.02,0.623-0.17,0.871C20.95,22.788,20.656,22.934,20.345,22.934z M12.996,20.934h6.039l-1.489-5.459c-0.106-0.393,0.034-0.811,0.356-1.058c0.66-0.505,1.084-1.237,1.192-2.061c0.109-0.824-0.108-1.642-0.614-2.301c-1.044-1.362-3.002-1.622-4.361-0.578c-1.361,1.043-1.621,3-0.578,4.361c0.168,0.219,0.362,0.413,0.577,0.578c0.322,0.246,0.464,0.664,0.357,1.056L12.996,20.934z"/></svg>