<svg xmlns="http://www.w3.org/2000/svg" viewBox="0 0 32 32"><!--! Font Icona - https://fonticona.com | License - https://fonticona.com/license | Copyright 2022 FontIcona.com --><path d="M24.679,28.325c-1.443,0-2.227-0.664-2.799-1.148c-0.497-0.42-0.797-0.674-1.507-0.674c-0.71,0-1.009,0.254-1.506,0.674c-0.572,0.484-1.355,1.148-2.798,1.148c-1.441,0-2.225-0.664-2.796-1.148c-0.496-0.42-0.795-0.674-1.504-0.674c-0.709,0-1.008,0.254-1.504,0.674c-0.572,0.484-1.355,1.148-2.798,1.148c-1.442,0-2.226-0.664-2.797-1.148c-0.496-0.42-0.795-0.674-1.504-0.674c-0.552,0-1-0.448-1-1s0.448-1,1-1c1.442,0,2.226,0.664,2.797,1.148c0.496,0.42,0.795,0.674,1.504,0.674s1.009-0.254,1.505-0.674c0.572-0.484,1.355-1.148,2.797-1.148s2.225,0.664,2.797,1.148c0.496,0.42,0.795,0.674,1.503,0.674c0.709,0,1.009-0.254,1.506-0.674c0.572-0.484,1.355-1.148,2.798-1.148s2.227,0.664,2.799,1.148c0.497,0.42,0.797,0.674,1.507,0.674s1.011-0.254,1.508-0.675c0.572-0.484,1.356-1.147,2.799-1.147c0.552,0,1,0.448,1,1s-0.448,1-1,1c-0.71,0-1.01,0.254-1.507,0.674C26.906,27.661,26.122,28.325,24.679,28.325z"/><path d="M8.97,27.91c-0.373,0-0.731-0.21-0.903-0.569l-4.298-9.009c-0.118-0.247-0.129-0.532-0.032-0.787c0.097-0.256,0.295-0.46,0.548-0.566l11.403-4.775c0.247-0.104,0.525-0.104,0.772,0l11.403,4.775c0.252,0.105,0.451,0.31,0.548,0.566c0.098,0.255,0.086,0.54-0.032,0.787l-4.298,9.009c-0.238,0.499-0.834,0.71-1.333,0.472c-0.499-0.238-0.709-0.834-0.472-1.333l3.846-8.062l-10.049-4.208L6.026,18.417l3.846,8.062c0.238,0.499,0.027,1.095-0.472,1.333C9.261,27.878,9.115,27.91,8.97,27.91z"/><path d="M16.075,24.9c-0.552,0-1-0.448-1-1V13.879c0-0.552,0.448-1,1-1s1,0.448,1,1V23.9C17.075,24.453,16.627,24.9,16.075,24.9z"/><path d="M24.529,32c-1.443,0-2.227-0.663-2.799-1.147c-0.497-0.42-0.797-0.674-1.508-0.674c-0.709,0-1.009,0.254-1.506,0.674C18.145,31.336,17.361,32,15.918,32c-1.441,0-2.225-0.664-2.796-1.148c-0.496-0.42-0.795-0.674-1.504-0.674c-0.709,0-1.009,0.254-1.505,0.674C9.541,31.336,8.758,32,7.316,32s-2.225-0.664-2.797-1.148c-0.496-0.42-0.795-0.674-1.504-0.674c-0.552,0-1-0.448-1-1s0.448-1,1-1c1.442,0,2.225,0.664,2.797,1.148C6.308,29.746,6.607,30,7.316,30s1.008-0.254,1.504-0.674c0.572-0.484,1.355-1.148,2.798-1.148c1.442,0,2.225,0.664,2.797,1.148C14.911,29.747,15.21,30,15.918,30c0.709,0,1.009-0.254,1.506-0.674c0.572-0.484,1.355-1.147,2.798-1.147c1.443,0,2.227,0.663,2.8,1.147C23.519,29.746,23.819,30,24.529,30s1.01-0.254,1.507-0.674c0.573-0.484,1.356-1.147,2.8-1.147c0.552,0,1,0.448,1,1s-0.448,1-1,1c-0.711,0-1.011,0.254-1.508,0.674C26.756,31.337,25.972,32,24.529,32z"/><path d="M23.438,17.181c-0.552,0-1-0.448-1-1V7.419H9.712v8.762c0,0.552-0.448,1-1,1s-1-0.448-1-1V6.419c0-0.552,0.448-1,1-1h14.726c0.552,0,1,0.448,1,1v9.762C24.438,16.733,23.99,17.181,23.438,17.181z"/><path d="M12.091,10.002h-0.5c-0.552,0-1-0.448-1-1s0.448-1,1-1h0.5c0.552,0,1,0.448,1,1S12.643,10.002,12.091,10.002z"/><path d="M16.25,10.002h-0.5c-0.552,0-1-0.448-1-1s0.448-1,1-1h0.5c0.552,0,1,0.448,1,1S16.802,10.002,16.25,10.002z"/><path d="M20.409,10.002h-0.5c-0.552,0-1-0.448-1-1s0.448-1,1-1h0.5c0.552,0,1,0.448,1,1S20.961,10.002,20.409,10.002z"/><path d="M14.243,12.165h-0.5c-0.552,0-1-0.448-1-1s0.448-1,1-1h0.5c0.552,0,1,0.448,1,1S14.795,12.165,14.243,12.165z"/><path d="M18.257,12.165h-0.5c-0.552,0-1-0.448-1-1s0.448-1,1-1h0.5c0.552,0,1,0.448,1,1S18.809,12.165,18.257,12.165z"/><path d="M17.628,7.325c-0.552,0-1-0.448-1-1V2h-1.405v4.325c0,0.552-0.448,1-1,1s-1-0.448-1-1V1c0-0.552,0.448-1,1-1h3.405c0.552,0,1,0.448,1,1v5.325C18.628,6.877,18.18,7.325,17.628,7.325z"/><ellipse cx="20.739" cy="20.018" rx="1.375" ry="1.875"/><ellipse cx="11.512" cy="20.018" rx="1.375" ry="1.875"/></svg>