<svg xmlns="http://www.w3.org/2000/svg" viewBox="0 0 32 32"><!--! Font Icona - https://fonticona.com | License - https://fonticona.com/license | Copyright 2022 FontIcona.com --><path d="M15.251,32h-4.147c-0.971,0-1.951-0.689-2.279-1.604l-0.947-2.646c-0.229-0.64-0.385-1.633-0.362-2.312l0.252-7.579c-0.158,0.428-0.313,1.01-0.364,1.381l-1.061,7.796c-0.142,1.041-1.075,1.856-2.125,1.856H2c-0.554,0-1.071-0.232-1.42-0.639s-0.501-0.953-0.418-1.501l1.848-12.175c0.097-0.637,0.39-1.592,0.667-2.172l3.006-6.306c0.355-0.742,1.176-1.476,1.954-1.742l3.08-1.058l0.649,1.891L8.286,6.25C8.02,6.342,7.609,6.708,7.487,6.963l-3.006,6.306c-0.196,0.409-0.427,1.162-0.495,1.611L2.163,26.894h2.054c0.05,0,0.137-0.076,0.144-0.126l1.061-7.796c0.086-0.635,0.358-1.591,0.62-2.177l1.576-3.531c0.438-0.983,1.075-0.998,1.415-0.919c0.341,0.078,0.907,0.37,0.872,1.445L9.515,25.507C9.5,25.93,9.618,26.678,9.761,27.076l0.947,2.646C10.751,29.841,10.977,30,11.104,30h4.147V32z"/><path d="M20.896,32h-7.647v-2h7.647c0.127,0,0.353-0.159,0.396-0.279l0.947-2.644c0.143-0.399,0.26-1.146,0.246-1.569l-0.388-11.419c-0.037-1.067,0.526-1.364,0.865-1.446c0.339-0.084,0.975-0.076,1.432,0.89l1.536,3.253c0.276,0.585,0.561,1.545,0.648,2.187l1.061,7.796c0.007,0.05,0.094,0.126,0.144,0.126h2.066l-1.847-13.022c-0.06-0.425-0.301-1.154-0.506-1.53l-2.912-5.355C24.439,6.72,24,6.349,23.713,6.25l-2.68-0.921l0.649-1.891l2.681,0.921c0.761,0.261,1.593,0.964,1.978,1.67l2.912,5.355c0.322,0.59,0.635,1.539,0.73,2.205l1.868,13.173c0.077,0.547-0.079,1.092-0.43,1.495c-0.351,0.404-0.868,0.636-1.42,0.636h-2.217c-1.05,0-1.984-0.815-2.125-1.856l-1.061-7.796c-0.05-0.363-0.206-0.928-0.367-1.345l0.254,7.543c0.023,0.679-0.133,1.673-0.362,2.312l-0.947,2.644C22.847,31.311,21.867,32,20.896,32z"/><path d="M12.635,12.074c-0.302,0-0.594-0.137-0.787-0.383c-0.091-0.117-2.232-2.896-2.033-6.777C9.813,4.872,9.807,2.521,10.676,0.59C10.837,0.23,11.194,0,11.588,0h4.508c0.552,0,1,0.447,1,1s-0.448,1-1,1h-3.822c-0.38,1.169-0.464,2.486-0.46,2.958c-0.057,1.128,0.128,2.146,0.391,2.992c1.161-3.474,3.591-3.948,3.718-3.971c0.545-0.095,1.062,0.269,1.158,0.812c0.095,0.537-0.259,1.05-0.793,1.154c-0.132,0.031-2.343,0.619-2.655,5.196c-0.028,0.413-0.308,0.766-0.704,0.888C12.833,12.06,12.733,12.074,12.635,12.074z"/><path d="M19.558,12.074c-0.098,0-0.197-0.015-0.294-0.044c-0.396-0.122-0.676-0.475-0.704-0.888c-0.315-4.618-2.563-5.176-2.659-5.197c-0.263-0.07-4.678-1.348-5.174-4.804c-0.079-0.546,0.301-1.053,0.848-1.132c0.547-0.074,1.054,0.302,1.132,0.848c0.256,1.783,2.693,2.862,3.64,3.139c0.445,0.105,2.581,0.77,3.645,3.963c0.262-0.836,0.446-1.839,0.39-2.943C20.38,4.949,20.38,3.407,19.919,2h-3.823c-0.552,0-1-0.447-1-1s0.448-1,1-1h4.509c0.394,0,0.75,0.23,0.912,0.59c0.869,1.932,0.863,4.282,0.862,4.382c0.198,3.823-1.943,6.603-2.035,6.72C20.152,11.938,19.859,12.074,19.558,12.074z"/><path d="M16.095,5.965c-0.452,0-0.861-0.308-0.972-0.767c-0.128-0.536,0.201-1.075,0.736-1.205l0,0c0.031-0.008,3.071-0.785,3.784-3.269c0.152-0.532,0.707-0.838,1.237-0.686c0.531,0.152,0.837,0.706,0.686,1.236C20.529,4.892,16.5,5.896,16.33,5.938C16.251,5.956,16.172,5.965,16.095,5.965z"/><rect x="15.096" y="3.874" width="2" height="27.126"/><rect x="1.445" y="22.572" width="4.36" height="2"/><rect x="26.195" y="22.572" width="4.36" height="2"/></svg>