<svg xmlns="http://www.w3.org/2000/svg" viewBox="0 0 32 32"><!--! Font Icona - https://fonticona.com | License - https://fonticona.com/license | Copyright 2022 FontIcona.com --><path d="M12.431,24.948c-0.951,0-1.909-0.344-2.674-0.978c-1.348-1.118-2.171-2.994-2.446-5.574c-0.11-1.026-0.64-2.036-1.201-3.104c-0.432-0.822-0.879-1.673-1.161-2.591c-0.427-1.387-0.719-2.77-0.868-4.111C3.853,5.567,4.285,3.371,5.4,1.841c0.665-0.913,1.656-1.535,2.79-1.753l0,0c1.468-0.278,3.045,0.12,4.22,1.076c3.478,2.828,3.002,7.442,2.62,11.149c-0.068,0.665-0.135,1.311-0.177,1.924c-0.08,1.165,0.378,2.658,0.746,3.858l0.044,0.144c0.44,1.438,0.838,3.113-0.024,4.788c-0.5,0.972-1.359,1.626-2.42,1.843C12.946,24.922,12.689,24.948,12.431,24.948z M9.12,2.001c-0.187,0-0.372,0.017-0.552,0.052H8.567C8.118,2.139,7.484,2.376,7.016,3.019C6.205,4.133,5.887,5.945,6.072,8.404c0.132,1.182,0.398,2.441,0.788,3.709c0.228,0.74,0.613,1.473,1.021,2.249c0.624,1.188,1.269,2.415,1.419,3.821c0.15,1.406,0.573,3.284,1.735,4.248c0.502,0.416,1.18,0.596,1.764,0.48c0.322-0.066,0.765-0.258,1.042-0.798c0.47-0.914,0.315-1.898-0.11-3.288l-0.044-0.144c-0.416-1.357-0.934-3.046-0.829-4.581c0.043-0.635,0.112-1.304,0.183-1.992c0.367-3.562,0.747-7.246-1.893-9.394C10.583,2.256,9.842,2.001,9.12,2.001z"/><rect x="7.943" y="15.341" transform="matrix(0.968 -0.251 0.251 0.968 -3.7502 3.2809)" width="6.086" height="2"/><path d="M19.569,32c-0.258,0-0.515-0.025-0.767-0.076c-1.062-0.218-1.921-0.872-2.421-1.844c-0.861-1.675-0.464-3.35-0.024-4.788l0.044-0.145c0.368-1.199,0.826-2.692,0.746-3.856c-0.042-0.613-0.109-1.26-0.177-1.925c-0.382-3.707-0.858-8.321,2.62-11.149c1.174-0.956,2.75-1.355,4.22-1.076c1.133,0.218,2.125,0.84,2.79,1.753c1.115,1.53,1.547,3.726,1.322,6.713c-0.152,1.377-0.444,2.76-0.871,4.146c-0.282,0.919-0.729,1.77-1.162,2.593c-0.561,1.067-1.091,2.076-1.201,3.103c-0.275,2.581-1.099,4.457-2.446,5.574C21.479,31.657,20.52,32,19.569,32z M22.88,9.054c-0.722,0-1.463,0.254-2.027,0.714c-2.64,2.147-2.26,5.831-1.893,9.395c0.071,0.688,0.14,1.357,0.183,1.992c0.105,1.534-0.413,3.223-0.829,4.58l-0.044,0.144c-0.425,1.391-0.58,2.374-0.11,3.288c0.278,0.54,0.721,0.732,1.043,0.798c0.584,0.121,1.261-0.064,1.763-0.48c1.162-0.963,1.584-2.842,1.735-4.248c0.15-1.405,0.795-2.633,1.418-3.82c0.408-0.776,0.793-1.509,1.021-2.25c0.39-1.268,0.656-2.527,0.792-3.744c0.182-2.424-0.136-4.235-0.948-5.35c-0.469-0.643-1.102-0.88-1.551-0.966h-0.001C23.251,9.071,23.066,9.054,22.88,9.054z"/><rect x="20.015" y="20.351" transform="matrix(0.251 -0.968 0.968 0.251 -6.9048 37.8644)" width="2" height="6.085"/></svg>