<svg xmlns="http://www.w3.org/2000/svg" viewBox="0 0 32 32"><!--! Font Icona - https://fonticona.com | License - https://fonticona.com/license | Copyright 2022 FontIcona.com --><path d="M20.349,22.732c-3.103,0-6.358-0.459-9.215-1.667l-0.237-0.101c-0.863-0.366-1.678-0.713-2.496-0.753c-4.154-0.209-7.23-0.976-7.359-1.008c-0.36-0.091-0.64-0.374-0.727-0.734C-0.944,13.274,1.95,9.91,2.074,9.77C2.25,9.571,2.498,9.45,2.763,9.433c0.259-0.015,0.526,0.073,0.725,0.25c3.605,3.199,10.668-0.28,10.74-0.315c0.442-0.223,0.979-0.088,1.265,0.316c3.949,5.58,12.171,5.618,12.24,5.578c0.027-0.002,0.071,0.002,0.105,0.005c1.487,0.143,2.609,0.677,3.337,1.587c0.968,1.21,0.826,2.592,0.807,2.745c-0.094,0.757-0.843,1.107-2.065,1.595l-0.099,0.04c-0.594,0.244-1.239,0.443-2.096,0.647C25.622,22.385,23.043,22.732,20.349,22.732z M2.133,17.4c1.069,0.226,3.461,0.668,6.368,0.813c1.172,0.059,2.237,0.511,3.177,0.91l0.233,0.099c4.893,2.069,11.135,1.726,15.345,0.714c0.752-0.18,1.306-0.35,1.797-0.551l0.122-0.049c0.389-0.155,0.641-0.267,0.805-0.346c-0.035-0.254-0.131-0.601-0.381-0.904c-0.373-0.454-1.014-0.73-1.906-0.824c-0.833-0.001-8.795-0.162-13.331-5.76c-2,0.852-7.454,2.774-11.306,0.35C2.476,12.857,1.678,14.8,2.133,17.4z"/><path d="M9.614,22.562c-0.008,0-0.017,0-0.025,0L2.583,22.39c-1.852-0.196-2.236-1.429-2.274-1.568c-0.025-0.093-0.037-0.189-0.035-0.286l0.041-1.66c0.014-0.553,0.454-0.941,1.024-0.976c0.552,0.014,0.988,0.473,0.975,1.024l-0.033,1.359c0.063,0.027,0.195,0.087,0.433,0.112l5.925,0.143l0.023-0.912c0.013-0.552,0.457-0.995,1.024-0.976c0.552,0.014,0.988,0.473,0.975,1.024l-0.047,1.911C10.6,22.13,10.155,22.562,9.614,22.562z"/><path d="M14.932,14.409c-0.292,0-0.581-0.127-0.778-0.371c-0.347-0.43-0.28-1.06,0.149-1.406l1.481-1.197c0.429-0.349,1.059-0.28,1.407,0.148c0.347,0.43,0.28,1.06-0.149,1.406l-1.481,1.197C15.375,14.336,15.153,14.409,14.932,14.409z"/><path d="M16.812,15.767c-0.254,0-0.508-0.096-0.703-0.289c-0.393-0.388-0.396-1.021-0.008-1.414l1.267-1.281c0.388-0.392,1.021-0.397,1.414-0.008c0.393,0.388,0.396,1.021,0.008,1.414l-1.267,1.281C17.328,15.667,17.07,15.767,16.812,15.767z"/><path d="M24.323,22.486c-0.441,0-0.845-0.294-0.965-0.74c-0.369-1.373-0.332-3.413,0.584-4.879c0.557-0.891,1.368-1.462,2.347-1.651c0.542-0.108,1.067,0.249,1.172,0.791c0.105,0.542-0.25,1.067-0.792,1.172c-0.432,0.084-0.769,0.329-1.031,0.748c-0.567,0.908-0.605,2.348-0.349,3.3c0.143,0.533-0.173,1.082-0.706,1.226C24.497,22.475,24.409,22.486,24.323,22.486z"/></svg>