<svg xmlns="http://www.w3.org/2000/svg" viewBox="0 0 32 32"><!--! Font Icona - https://fonticona.com | License - https://fonticona.com/license | Copyright 2022 FontIcona.com --><path d="M23.619,32H8.381c-1.051,0-2.02-0.409-2.729-1.153c-0.688-0.723-1.042-1.671-0.993-2.671l0.803-16.57c0.1-2.056,1.889-3.729,3.99-3.729h13.096c2.101,0,3.891,1.673,3.99,3.729l0.803,16.569c0.048,1-0.305,1.948-0.993,2.671C25.639,31.591,24.67,32,23.619,32z M9.452,9.877c-1.032,0-1.945,0.836-1.992,1.825l-0.803,16.57C6.635,28.72,6.793,29.145,7.1,29.467C7.428,29.811,7.882,30,8.381,30h15.238c0.499,0,0.953-0.189,1.281-0.533c0.307-0.322,0.465-0.747,0.443-1.195L24.54,11.703c-0.047-0.99-0.96-1.826-1.992-1.826H9.452z"/><path d="M21.168,12.113h-2v-7.17C19.168,3.32,17.798,2,16.114,2s-3.053,1.32-3.053,2.943v7.17h-2v-7.17C11.061,2.218,13.328,0,16.114,0c2.787,0,5.054,2.218,5.054,4.943V12.113z"/><circle cx="12.061" cy="11.747" r="1.25"/><circle cx="20.168" cy="11.743" r="1.25"/></svg>