<svg xmlns="http://www.w3.org/2000/svg" viewBox="0 0 32 32"><!--! Font Icona - https://fonticona.com | License - https://fonticona.com/license | Copyright 2022 FontIcona.com --><path d="M28.01,13.1c-0.03,0-0.061-0.001-0.091-0.004c-1.179-0.107-2.202-0.7-2.905-1.585c-0.7,0.889-1.722,1.476-2.913,1.585c-0.061,0.005-0.121,0.005-0.182,0c-1.172-0.107-2.193-0.699-2.897-1.585c-0.699,0.889-1.723,1.476-2.921,1.585c-0.061,0.005-0.121,0.005-0.182,0c-1.179-0.108-2.205-0.706-2.909-1.6c-0.704,0.894-1.73,1.492-2.909,1.6c-0.061,0.005-0.121,0.005-0.182,0c-1.179-0.108-2.205-0.706-2.909-1.6c-0.704,0.894-1.73,1.492-2.909,1.6c-0.061,0.005-0.121,0.005-0.182,0C1.64,12.888-0.004,10.971,0.01,8.537V7.225c0-0.201,0.061-0.396,0.173-0.562l3.868-5.689c0.311-0.457,0.931-0.574,1.39-0.265c0.456,0.311,0.575,0.933,0.265,1.389L2.01,7.533v1.01c-0.008,1.385,0.792,2.396,1.999,2.551C5.31,10.923,6.01,9.667,6.01,8.543c0-0.552,0.447-1,1-1s1,0.448,1,1c0,1.123,0.7,2.379,2,2.551c1.254-0.168,2-1.413,2-2.551c0-0.552,0.447-1,1-1s1,0.448,1,1c0,1.124,0.7,2.379,2,2.551c1.164-0.155,2-1.212,2-2.551c0-0.552,0.447-1,1-1s1,0.448,1,1c0,1.152,0.687,2.38,2,2.551c1.174-0.154,1.991-1.191,2-2.555c0,0,0-0.001,0-0.002c0.003-0.55,0.45-0.994,1-0.994c0.002,0,0.004,0,0.006,0c0.553,0.003,0.997,0.454,0.994,1.006l0,0l0,0c-0.008,1.313,0.846,2.391,2.001,2.545c1.308-0.172,2.006-1.425,1.999-2.545V7.533l-3.695-5.435c-0.311-0.457-0.191-1.079,0.265-1.389c0.46-0.31,1.079-0.191,1.39,0.265l3.868,5.689c0.112,0.166,0.173,0.361,0.173,0.562v1.318c0.015,2.389-1.666,4.349-3.909,4.553C28.07,13.099,28.04,13.1,28.01,13.1z"/><path d="M27.142,2.536H4.878c-0.553,0-1-0.448-1-1s0.447-1,1-1h22.264c0.553,0,1,0.448,1,1S27.694,2.536,27.142,2.536z"/><path d="M7.01,8.226c-0.124,0-0.251-0.023-0.373-0.073c-0.512-0.206-0.761-0.788-0.555-1.3l2.285-5.689C8.572,0.65,9.156,0.4,9.668,0.608c0.512,0.206,0.761,0.788,0.555,1.3L7.938,7.598C7.781,7.988,7.406,8.226,7.01,8.226z"/><path d="M24.999,8.226c-0.403,0-0.784-0.247-0.936-0.646L21.91,1.89c-0.195-0.517,0.065-1.094,0.582-1.289c0.515-0.196,1.093,0.064,1.289,0.581l2.153,5.689c0.195,0.517-0.065,1.094-0.582,1.289C25.236,8.205,25.117,8.226,24.999,8.226z"/><path d="M13.011,8.225c-0.032,0-0.064-0.001-0.098-0.005c-0.55-0.053-0.952-0.542-0.898-1.092l0.554-5.689c0.053-0.55,0.535-0.958,1.092-0.898c0.55,0.053,0.952,0.542,0.898,1.092l-0.554,5.689C13.955,7.839,13.52,8.225,13.011,8.225z"/><path d="M19.009,8.225c-0.502,0-0.934-0.376-0.992-0.886L17.363,1.65c-0.063-0.549,0.33-1.045,0.879-1.108c0.55-0.062,1.044,0.331,1.107,0.879l0.653,5.689c0.063,0.549-0.33,1.045-0.879,1.108C19.085,8.223,19.047,8.225,19.009,8.225z"/><path d="M23.96,31.464H8.06c-2.914,0-5.285-2.371-5.285-5.286V12.1c0-0.552,0.447-1,1-1s1,0.448,1,1v14.079c0,1.812,1.474,3.286,3.285,3.286h15.9c1.812,0,3.285-1.474,3.285-3.286V12.1c0-0.552,0.447-1,1-1s1,0.448,1,1v14.079C29.245,29.093,26.874,31.464,23.96,31.464z"/><rect x="1.182" y="6.225" width="29.828" height="2"/><path d="M24.558,31.464c-0.553,0-1-0.448-1-1v-13.54h-4.771v13.54c0,0.552-0.447,1-1,1s-1-0.448-1-1v-13.54c0-1.103,0.897-2,2-2h4.771c1.103,0,2,0.897,2,2v13.54C25.558,31.017,25.11,31.464,24.558,31.464z"/><path d="M13.233,23.225H8.462c-1.103,0-2-0.897-2-2v-4.3c0-1.103,0.897-2,2-2h4.771c1.103,0,2,0.897,2,2v4.3C15.233,22.328,14.336,23.225,13.233,23.225z M8.462,16.925L8.462,16.925v4.3h4.771v-4.3H8.462z"/><circle cx="20.651" cy="23.511" r="1"/></svg>