<svg xmlns="http://www.w3.org/2000/svg" viewBox="0 0 32 32"><!--! Font Icona - https://fonticona.com | License - https://fonticona.com/license | Copyright 2022 FontIcona.com --><path d="M24.041,30.138H7.959c-2.154,0-4.131-1.662-4.501-3.784l-1.546-8.862c-0.477-0.161-0.908-0.454-1.246-0.854C0.127,16-0.101,15.151,0.042,14.31c0.251-1.477,1.39-2.323,3.123-2.323h25.67c1.733,0,2.872,0.847,3.123,2.323c0,0,0,0,0,0c0.143,0.842-0.085,1.69-0.624,2.329c-0.338,0.4-0.77,0.693-1.246,0.854l-1.546,8.863C28.172,28.476,26.195,30.138,24.041,30.138z M3.165,13.986c-1.039,0-1.109,0.412-1.15,0.658c-0.058,0.338,0.065,0.569,0.179,0.704c0.152,0.18,0.37,0.287,0.584,0.287c0.486,0,0.901,0.35,0.985,0.828l1.666,9.548c0.201,1.153,1.359,2.127,2.53,2.127h16.082c1.171,0,2.329-0.974,2.53-2.127l1.666-9.548c0.084-0.479,0.499-0.828,0.985-0.828c0.214,0,0.432-0.107,0.584-0.287c0.113-0.134,0.236-0.366,0.179-0.704c-0.041-0.246-0.111-0.657-1.15-0.657H3.165z"/><path d="M8.771,13.815c-0.167,0-0.337-0.042-0.493-0.13c-0.479-0.272-0.648-0.883-0.376-1.363l5.605-9.875c0.273-0.479,0.882-0.648,1.364-0.376c0.479,0.272,0.648,0.883,0.376,1.363l-5.605,9.875C9.457,13.633,9.119,13.815,8.771,13.815z"/><path d="M23.229,13.894c-0.364,0-0.715-0.199-0.892-0.546L17.226,3.316c-0.251-0.492-0.056-1.094,0.437-1.345c0.493-0.253,1.094-0.055,1.345,0.437l5.112,10.032c0.251,0.492,0.056,1.094-0.437,1.345C23.537,13.859,23.382,13.894,23.229,13.894z"/><path d="M15.993,28.374c-1.379,0-2.459-1.318-2.459-3v-4.607c0-1.682,1.08-3,2.459-3c1.378,0,2.458,1.318,2.458,3v4.607C18.451,27.056,17.371,28.374,15.993,28.374z M15.993,19.767c-0.118,0-0.459,0.344-0.459,1v4.607c0,0.656,0.341,1,0.459,1s0.458-0.344,0.458-1v-4.607C16.451,20.11,16.111,19.767,15.993,19.767z"/><path d="M22.332,28.346c-0.089,0-0.178-0.006-0.267-0.017c-1.366-0.179-2.267-1.625-2.048-3.293l0.598-4.569c0.218-1.667,1.456-2.837,2.826-2.656c1.366,0.179,2.267,1.625,2.048,3.293l-0.598,4.569c-0.096,0.736-0.406,1.412-0.874,1.904C23.545,28.074,22.942,28.346,22.332,28.346z M23.173,19.794c-0.126,0-0.492,0.298-0.575,0.933L22,25.295c-0.085,0.65,0.208,1.035,0.325,1.05c0.047,0.004,0.14-0.038,0.242-0.146c0.176-0.185,0.301-0.471,0.342-0.786c0,0,0,0,0,0l0.598-4.568c0.085-0.65-0.208-1.036-0.325-1.051C23.179,19.794,23.176,19.794,23.173,19.794z"/><path d="M9.636,28.349c-0.615,0-1.221-0.275-1.693-0.779c-0.466-0.495-0.771-1.173-0.863-1.91l-0.571-4.571c-0.093-0.736,0.038-1.469,0.367-2.063c0.381-0.687,1.001-1.131,1.7-1.218c1.375-0.172,2.603,1.003,2.812,2.671l0.57,4.572c0.092,0.737-0.038,1.469-0.367,2.063c-0.381,0.687-1,1.131-1.7,1.218C9.806,28.344,9.721,28.349,9.636,28.349z M8.832,19.792c-0.003,0-0.006,0-0.009,0c-0.045,0.006-0.126,0.071-0.198,0.203c-0.124,0.223-0.172,0.531-0.133,0.846l0.571,4.572c0.039,0.315,0.162,0.603,0.336,0.788c0.104,0.11,0.209,0.153,0.242,0.148c0.045-0.006,0.126-0.072,0.198-0.203c0.124-0.223,0.172-0.531,0.133-0.846l0,0l-0.57-4.572C9.322,20.092,8.958,19.792,8.832,19.792z"/><path d="M29.223,17.635H2.777c-0.553,0-1-0.448-1-1s0.447-1,1-1h26.445c0.553,0,1,0.448,1,1S29.775,17.635,29.223,17.635z"/></svg>