<svg xmlns="http://www.w3.org/2000/svg" viewBox="0 0 32 32"><!--! Font Icona - https://fonticona.com | License - https://fonticona.com/license | Copyright 2022 FontIcona.com --><path d="M28,12.959c-1.193,0-2.267-0.617-3-1.593c-0.733,0.976-1.807,1.593-3,1.593s-2.267-0.617-3-1.593c-0.733,0.976-1.807,1.593-3,1.593s-2.267-0.617-3-1.593c-0.733,0.976-1.807,1.593-3,1.593c-1.187,0-2.254-0.609-2.987-1.576C6.285,12.355,5.214,12.959,4,12.959c-2.206,0-4-2.106-4-4.696V6.905C0,6.71,0.057,6.52,0.164,6.357l3.866-5.904c0.302-0.462,0.923-0.591,1.384-0.289c0.462,0.303,0.591,0.923,0.289,1.385L2,7.202v1.061c0,1.462,0.916,2.696,2,2.696c1.122,0,2-1.185,2-2.696V6.905c0-0.553,0.448-1,1-1s1,0.447,1,1v1.358c0,1.462,0.916,2.696,2,2.696s2-1.234,2-2.696V6.905c0-0.553,0.448-1,1-1s1,0.447,1,1v1.358c0,1.462,0.916,2.696,2,2.696s2-1.234,2-2.696V6.905c0-0.553,0.448-1,1-1s1,0.447,1,1v1.358c0,1.462,0.916,2.696,2,2.696s2-1.234,2-2.696V6.905c0-0.553,0.448-1,1-1s1,0.447,1,1v1.358c0,1.462,0.916,2.696,2,2.696s2-1.234,2-2.696V7.202l-3.702-5.654c-0.303-0.462-0.173-1.082,0.289-1.385c0.463-0.301,1.083-0.172,1.384,0.289l3.866,5.904C31.943,6.52,32,6.71,32,6.905v1.358C32,10.853,30.206,12.959,28,12.959z"/><path d="M27.134,2H4.866c-0.552,0-1-0.447-1-1s0.448-1,1-1h22.269c0.552,0,1,0.447,1,1S27.687,2,27.134,2z"/><path d="M7,7.905c-0.121,0-0.243-0.021-0.361-0.067c-0.515-0.2-0.771-0.779-0.571-1.294l2.167-5.592c0.2-0.516,0.782-0.769,1.294-0.571c0.515,0.2,0.771,0.779,0.571,1.294L7.933,7.266C7.779,7.662,7.4,7.905,7,7.905z"/><path d="M24.992,7.905c-0.408,0-0.791-0.251-0.939-0.656l-2.162-5.904c-0.19-0.519,0.077-1.093,0.595-1.283c0.517-0.188,1.093,0.076,1.283,0.596l2.162,5.904c0.19,0.519-0.077,1.093-0.595,1.283C25.223,7.885,25.106,7.905,24.992,7.905z"/><path d="M13.001,7.905c-0.031,0-0.062-0.001-0.094-0.004c-0.55-0.052-0.954-0.539-0.902-1.089l0.522-5.592c0.051-0.55,0.527-0.959,1.089-0.903c0.55,0.052,0.954,0.539,0.902,1.089l-0.522,5.592C13.947,7.516,13.511,7.905,13.001,7.905z"/><path d="M18.999,7.905c-0.502,0-0.936-0.378-0.992-0.89L17.35,1.111c-0.061-0.549,0.334-1.043,0.883-1.104c0.543-0.061,1.043,0.334,1.104,0.884l0.656,5.904c0.061,0.549-0.334,1.043-0.883,1.104C19.073,7.903,19.036,7.905,18.999,7.905z"/><rect x="1.176" y="5.905" width="29.824" height="2"/><path d="M28.237,25.226H3.763c-0.552,0-1-0.447-1-1s0.448-1,1-1h24.475c0.552,0,1,0.447,1,1S28.79,25.226,28.237,25.226z"/><path d="M26.924,32H4.875c-1.654,0-3-1.346-3-3V11.959c0-0.553,0.448-1,1-1s1,0.447,1,1V29c0,0.552,0.449,1,1,1h22.049c0.551,0,1-0.448,1-1V11.959c0-0.553,0.448-1,1-1s1,0.447,1,1V29C29.924,30.655,28.579,32,26.924,32z"/></svg>