<svg xmlns="http://www.w3.org/2000/svg" viewBox="0 0 32 32"><!--! Font Icona - https://fonticona.com | License - https://fonticona.com/license | Copyright 2022 FontIcona.com --><path d="M16.12,32c-0.77,0-1.507-0.08-2.149-0.162c-1.114-0.143-2.208-0.392-3.251-0.742c-2.205-0.741-4.131-1.913-5.725-3.485c-1.989-1.962-3.421-4.229-4.255-6.736c-0.368-1.105-0.6-2.288-0.688-3.516l-0.047-0.517L0,15.497c0-0.064,0.006-0.128,0.019-0.191l0.044-0.476c0.028-0.362,0.057-0.723,0.107-1.082c0.258-1.848,0.819-3.596,1.669-5.194c1.78-3.348,4.438-5.793,7.901-7.271c1.593-0.679,3.295-1.082,5.204-1.232l0.539-0.047L16.777,0c0.031,0,0.061,0.001,0.092,0.004l0.445,0.041c3.087,0.229,6.012,1.403,8.691,3.489c0.173,0.135,0.338,0.277,0.503,0.42l0.117,0.101c0.456,0.391,0.587,0.979,0.335,1.498c-0.234,0.479-0.705,0.736-1.279,0.685l-0.708-0.066c-0.586-0.056-1.172-0.113-1.759-0.14c-1.507-0.071-3.067,0.03-4.764,0.309c-1.926,0.316-3.553,0.905-4.974,1.8c-1.158,0.729-2.003,1.595-2.585,2.646c-0.375,0.68-0.633,1.448-0.787,2.349c-0.092,0.537-0.133,1.028-0.125,1.503c0.036,2.096,0.761,3.843,2.217,5.341c0.946,0.973,2.119,1.67,3.035,2.169c1.235,0.673,2.501,1.192,4.027,1.801l0.349,0.139c1.153,0.459,2.306,0.919,3.448,1.405c0.909,0.387,1.663,0.808,2.307,1.288c0.16,0.119,0.649,0.482,0.642,1.115c-0.007,0.633-0.507,0.987-0.671,1.104c-1.851,1.313-3.869,2.205-5.998,2.648c-0.814,0.17-1.675,0.279-2.632,0.333C16.508,31.995,16.312,32,16.12,32z M2,15.589l0.046,1.627c0.076,1.061,0.275,2.079,0.59,3.026c0.734,2.206,2,4.206,3.762,5.944c1.375,1.356,3.043,2.371,4.957,3.013c0.918,0.308,1.884,0.528,2.869,0.654c0.713,0.092,1.549,0.181,2.366,0.132c0.857-0.048,1.622-0.145,2.338-0.294c1.565-0.326,3.064-0.932,4.47-1.805c-0.342-0.195-0.713-0.377-1.125-0.553c-1.127-0.479-2.267-0.934-3.405-1.388l-0.349-0.139c-1.534-0.612-2.913-1.177-4.243-1.902c-1.04-0.566-2.379-1.365-3.512-2.532c-1.801-1.854-2.738-4.107-2.783-6.7c-0.01-0.601,0.04-1.214,0.153-1.875c0.192-1.125,0.522-2.1,1.008-2.979c0.749-1.354,1.818-2.457,3.269-3.371c1.651-1.04,3.521-1.721,5.716-2.081c1.804-0.295,3.469-0.405,5.094-0.337c-1.919-1.178-3.915-1.832-6.057-1.991L16.729,2l-1.626,0.045c-1.691,0.134-3.188,0.486-4.579,1.079c-3.032,1.293-5.36,3.436-6.92,6.37c-0.739,1.391-1.229,2.916-1.455,4.531c-0.044,0.318-0.068,0.64-0.094,0.961l-0.041,0.496C2.013,15.504,2.007,15.547,2,15.589z M25.321,5.572c0,0.001,0.001,0.001,0.002,0.002L25.321,5.572z"/><path d="M29.788,22.609c-0.314,0-0.572-0.125-0.705-0.189l-0.631-0.312c-0.555-0.277-1.079-0.538-1.618-0.759c-1.125-0.461-2.261-0.894-3.397-1.327l-0.965-0.369c-1.199-0.459-2.276-0.889-3.323-1.496c-0.566-0.328-1.218-0.743-1.763-1.338c-0.731-0.798-1.112-1.697-1.135-2.672c-0.025-1.063,0.343-2.013,1.063-2.746c1.478-1.504,3.88-1.649,4.886-1.649h0c0.548,0.003,1.091,0.054,1.572,0.146c0.999,0.191,2.453,0.545,3.705,1.144c1.123,0.536,2.229,1.222,3.287,2.041c0.643,0.498,1.038,1.102,1.175,1.795c0.054,0.275,0.06,0.533,0.059,0.749c-0.003,0.425-0.014,0.847-0.033,1.269c-0.074,1.617-0.418,3.235-1.023,4.812c-0.066,0.171-0.24,0.626-0.735,0.822C30.062,22.587,29.92,22.609,29.788,22.609z M22.146,11.752c-1.465,0-2.767,0.401-3.405,1.051c-0.342,0.348-0.502,0.773-0.491,1.298c0.012,0.491,0.205,0.925,0.61,1.367c0.361,0.394,0.834,0.694,1.291,0.958c0.919,0.533,1.918,0.931,3.036,1.359l0.962,0.368c1.151,0.439,2.303,0.878,3.443,1.345c0.598,0.245,1.171,0.53,1.726,0.807c0.381-1.168,0.597-2.337,0.65-3.501c0.018-0.397,0.027-0.794,0.031-1.191c0-0.114,0.001-0.234-0.021-0.348c-0.026-0.132-0.101-0.34-0.437-0.6c-0.946-0.732-1.93-1.344-2.925-1.818c-1.061-0.506-2.337-0.815-3.221-0.984c-0.362-0.069-0.78-0.107-1.207-0.11C22.175,11.752,22.161,11.752,22.146,11.752z"/></svg>