<svg xmlns="http://www.w3.org/2000/svg" viewBox="0 0 32 32"><!--! Font Icona - https://fonticona.com | License - https://fonticona.com/license | Copyright 2022 FontIcona.com --><path d="M12.144,20.856c-0.256,0-0.512-0.098-0.707-0.293c-0.391-0.391-0.391-1.023,0-1.414L24.619,5.967c0.391-0.391,1.023-0.391,1.414,0s0.391,1.023,0,1.414L12.851,20.563C12.655,20.759,12.399,20.856,12.144,20.856z"/><path d="M27.801,8.665c-1.228,0-2.348-0.449-3.182-1.284c-0.914-0.913-1.365-2.167-1.272-3.532c0.089-1.313,0.679-2.576,1.66-3.556c0.391-0.391,1.023-0.391,1.414,0l5.286,5.286c0.391,0.391,0.391,1.023,0,1.414c-0.98,0.98-2.243,1.57-3.556,1.66C28.034,8.661,27.917,8.665,27.801,8.665z M25.805,2.505c-0.268,0.461-0.427,0.967-0.462,1.48c-0.053,0.779,0.192,1.483,0.691,1.981s1.207,0.745,1.981,0.691c0.513-0.035,1.019-0.195,1.48-0.462L25.805,2.505z"/><path d="M6.136,32.006c-1.366,0-2.925-0.247-4.656-0.907c-0.266-0.102-0.477-0.312-0.578-0.578c-2.576-6.754,1.129-10.898,1.288-11.072l4.772-4.773c0.391-0.391,1.023-0.391,1.414,0l8.949,8.949c0.391,0.391,0.391,1.023,0,1.414l-4.743,4.742C12.431,29.921,10.099,32.006,6.136,32.006z M2.617,29.384c5.301,1.817,8.451-0.93,8.585-1.051l4.001-4.002l-7.535-7.535l-4.036,4.036C3.545,20.933,0.798,24.082,2.617,29.384z"/></svg>