<svg xmlns="http://www.w3.org/2000/svg" viewBox="0 0 32 32"><!--! Font Icona - https://fonticona.com | License - https://fonticona.com/license | Copyright 2022 FontIcona.com --><path d="M15.454,14.985c-1.379,0-2.916-0.456-4.348-1.318c-3.313-1.996-5.018-5.447-3.88-7.855C7.666,4.88,8.465,4.216,9.537,3.892c1.69-0.511,3.891-0.098,5.886,1.104c3.313,1.996,5.018,5.447,3.88,7.855l0,0c-0.439,0.931-1.238,1.595-2.311,1.919C16.515,14.914,15.997,14.985,15.454,14.985z M11.08,5.675c-0.347,0-0.672,0.043-0.964,0.131C9.593,5.964,9.229,6.253,9.035,6.664c-0.595,1.259,0.533,3.74,3.104,5.289c1.496,0.901,3.136,1.245,4.274,0.902c0.523-0.158,0.887-0.447,1.081-0.858l0,0c0.595-1.259-0.533-3.74-3.104-5.289C13.278,6.037,12.086,5.675,11.08,5.675z"/><path d="M11.919,26.578c-0.05,0-0.1-0.004-0.15-0.012c-0.546-0.082-0.922-0.592-0.839-1.138l0.149-0.988c0.082-0.546,0.592-0.924,1.138-0.839c0.546,0.082,0.922,0.592,0.839,1.138l-0.149,0.988C12.832,26.223,12.405,26.578,11.919,26.578z M12.518,22.623c-0.05,0-0.1-0.004-0.15-0.012c-0.546-0.082-0.922-0.592-0.839-1.138l0.149-0.988c0.082-0.546,0.593-0.921,1.138-0.839c0.546,0.082,0.922,0.592,0.839,1.138l-0.149,0.988C13.431,22.268,13.004,22.623,12.518,22.623z M13.116,18.668c-0.05,0-0.1-0.004-0.15-0.012c-0.546-0.082-0.922-0.592-0.839-1.138l0.149-0.988c0.082-0.546,0.593-0.924,1.138-0.839c0.546,0.082,0.922,0.592,0.839,1.138l-0.149,0.988C14.029,18.313,13.603,18.668,13.116,18.668z"/><path d="M6.548,25.79c-0.129,0-0.26-0.024-0.386-0.077c-0.51-0.213-0.75-0.799-0.537-1.309l0.386-0.923c0.213-0.511,0.8-0.751,1.309-0.537c0.51,0.213,0.75,0.799,0.537,1.309l-0.386,0.923C7.311,25.56,6.938,25.79,6.548,25.79z M8.092,22.101c-0.129,0-0.26-0.024-0.387-0.078c-0.509-0.213-0.749-0.799-0.535-1.309l0.387-0.923c0.213-0.509,0.797-0.752,1.309-0.535c0.509,0.213,0.749,0.799,0.535,1.309l-0.387,0.923C8.854,21.87,8.482,22.101,8.092,22.101z M9.637,18.41c-0.129,0-0.26-0.024-0.386-0.077c-0.51-0.214-0.75-0.8-0.537-1.309L9.1,16.103c0.214-0.511,0.801-0.749,1.309-0.537c0.51,0.214,0.75,0.8,0.537,1.309l-0.386,0.922C10.398,18.18,10.027,18.41,9.637,18.41z"/><path d="M2.777,22.014c-0.195,0-0.393-0.057-0.565-0.176c-0.455-0.312-0.57-0.936-0.258-1.391l0.566-0.824c0.313-0.455,0.937-0.57,1.391-0.258c0.455,0.312,0.57,0.936,0.258,1.391L3.603,21.58C3.408,21.863,3.096,22.014,2.777,22.014z M5.044,18.718c-0.195,0-0.393-0.057-0.565-0.176c-0.455-0.313-0.57-0.937-0.258-1.391l0.566-0.823c0.313-0.455,0.937-0.57,1.391-0.258c0.455,0.313,0.57,0.937,0.258,1.391l-0.566,0.823C5.675,18.567,5.362,18.718,5.044,18.718z M7.312,15.423c-0.195,0-0.393-0.057-0.565-0.176c-0.455-0.312-0.57-0.936-0.258-1.391l0.566-0.824c0.313-0.454,0.937-0.571,1.391-0.258c0.455,0.312,0.57,0.936,0.258,1.391L8.137,14.99C7.942,15.272,7.63,15.423,7.312,15.423z"/><path d="M27.684,28.904c-1.539,0-2.972-1.358-3.492-2.771l-0.158-0.432c-1.586-4.311-3.559-9.677-6.168-13.051c-0.338-0.437-0.258-1.064,0.18-1.402c0.437-0.338,1.064-0.258,1.402,0.18c2.798,3.617,4.83,9.144,6.463,13.583l0.158,0.431c0.296,0.804,1.188,1.548,1.717,1.454c0.358-0.064,0.561-0.212,0.697-0.51c1.035-2.253-2.25-9.93-6.03-16.349c-2.028-3.444-4.286-6.887-7.613-7.846c-1.235-0.354-2.413-0.215-3.406,0.403c-1.184,0.735-2.007,2.093-2.317,3.82c-0.098,0.544-0.62,0.904-1.161,0.808C7.41,7.124,7.049,6.604,7.146,6.061c0.412-2.292,1.56-4.127,3.23-5.166c1.469-0.913,3.251-1.134,5.015-0.626c4.034,1.162,6.551,4.961,8.783,8.752c1.909,3.242,7.992,14.134,6.125,18.199c-0.412,0.896-1.159,1.464-2.161,1.644C27.986,28.891,27.834,28.904,27.684,28.904z"/><path d="M29.328,32c-0.416,0-0.804-0.261-0.946-0.676l-1.092-3.19c-0.179-0.523,0.1-1.092,0.622-1.271c0.523-0.177,1.091,0.1,1.271,0.622l1.092,3.19c0.179,0.523-0.1,1.092-0.622,1.271C29.545,31.983,29.436,32,29.328,32z"/><path d="M25.517,25.632c-0.306,0-0.595-0.012-0.86-0.022c-0.552-0.022-0.98-0.488-0.958-1.04c0.021-0.552,0.494-1.013,1.04-0.958c1.664,0.067,2.83,0.012,3.772-1.323c0.319-0.451,0.943-0.558,1.394-0.241c0.451,0.318,0.56,0.942,0.241,1.394C28.789,25.364,26.972,25.632,25.517,25.632z"/><path d="M23.185,21.644c-0.553,0-1-0.447-1-1s0.447-1,1-1c1.787,0,3.107-0.106,3.809-1.49c0.249-0.493,0.852-0.693,1.344-0.439c0.492,0.249,0.689,0.852,0.439,1.344C27.466,21.644,24.786,21.644,23.185,21.644z"/></svg>