<svg xmlns="http://www.w3.org/2000/svg" viewBox="0 0 32 32"><!--! Font Icona - https://fonticona.com | License - https://fonticona.com/license | Copyright 2022 FontIcona.com --><path d="M6.167,26.062H1c-0.553,0-1-0.447-1-1s0.447-1,1-1h4.622L16.87,6.608c0.185-0.285,0.501-0.458,0.841-0.458h10.401l-2.786-2.192c-0.435-0.342-0.509-0.971-0.168-1.404s0.971-0.508,1.404-0.168l5.056,3.979c0.005,0.004,0.01,0.008,0.015,0.012l0,0c0.001,0.001,0.001,0.001,0.002,0.002l0,0c0.001,0,0.001,0,0.001,0.001c0.134,0.109,0.239,0.255,0.302,0.424c0,0.001,0.001,0.001,0.001,0.001c0,0.001,0,0.001,0,0.001c0.006,0.017,0.012,0.034,0.018,0.051c0,0.001,0,0.001,0,0.001c0,0.001,0,0.001,0,0.001c0.05,0.162,0.057,0.33,0.024,0.489c0,0.001,0,0.001,0,0.002l0,0c-0.01,0.045-0.021,0.088-0.036,0.131l0,0c0,0.001,0,0.001-0.001,0.002c-0.06,0.171-0.166,0.325-0.312,0.444l0,0c-0.001,0.002-0.002,0.003-0.004,0.004l0,0c-0.001,0-0.001,0.001-0.001,0.001c-0.002,0-0.002,0.001-0.002,0.001c-0.001,0.001-0.002,0.002-0.002,0.002c-0.001,0-0.001,0.001-0.002,0.001l0,0c-0.001,0.001-0.001,0.001-0.002,0.002l-5.056,3.978c-0.434,0.342-1.063,0.266-1.404-0.168c-0.144-0.183-0.214-0.4-0.214-0.617c0-0.296,0.131-0.59,0.382-0.787l2.785-2.191h-9.855L7.008,25.604C6.823,25.889,6.507,26.062,6.167,26.062z"/><path d="M25.945,29.828c-0.296,0-0.589-0.131-0.786-0.381c-0.342-0.434-0.268-1.062,0.166-1.404l2.793-2.204H17.711c-0.34,0-0.656-0.173-0.841-0.458l-3.768-5.843c-0.299-0.464-0.165-1.083,0.299-1.383c0.464-0.298,1.083-0.166,1.383,0.299l3.472,5.385h9.855l-2.785-2.191c-0.251-0.197-0.382-0.491-0.382-0.787c0-0.217,0.07-0.435,0.214-0.617c0.341-0.434,0.969-0.51,1.404-0.168l5.056,3.978c0.001,0.001,0.001,0.001,0.002,0.002c0,0,0,0,0.001,0c0,0,0,0.001,0.001,0.001c0,0-0.002-0.002,0.002,0.002h0.001c0,0.001,0,0.001,0.001,0.001c0,0,0,0.001,0.001,0.001l0,0c0.148,0.119,0.256,0.275,0.316,0.446v0.001v0.001c0.016,0.045,0.028,0.09,0.038,0.137c0,0.001,0,0.001,0,0.001v0.001c0.032,0.164,0.023,0.336-0.03,0.502l0,0c-0.002,0.002-0.001,0.003-0.001,0.003c0,0.001-0.001,0.001-0.001,0.001c0,0.001,0,0.001,0,0.001c0,0.001,0,0.001,0,0.001c-0.001,0.001-0.001,0.001-0.001,0.002v0.001l-0.001,0.001c0,0.001,0,0.001,0,0.001c0,0.001-0.002,0-0.001,0.003v0.001c0,0.001-0.001,0.001-0.001,0.001c0,0.001,0,0.001,0,0.001v0.001c-0.001,0.001-0.001,0.002-0.002,0.004l0,0c-0.062,0.176-0.169,0.326-0.306,0.439l0,0c-0.001,0-0.001,0.001-0.001,0.001c-0.002,0-0.001,0.001-0.002,0.001c-0.001,0.001-0.001,0.001-0.002,0.002l0,0c-0.004,0.004-0.009,0.007-0.014,0.011l-5.056,3.989C26.38,29.758,26.162,29.828,25.945,29.828z"/><path d="M10.043,13.947c-0.328,0-0.65-0.161-0.842-0.458L5.622,7.938H1c-0.553,0-1-0.447-1-1s0.447-1,1-1h5.167c0.34,0,0.656,0.173,0.841,0.458l3.875,6.009c0.299,0.464,0.165,1.083-0.299,1.383C10.416,13.896,10.229,13.947,10.043,13.947z"/></svg>