<svg xmlns="http://www.w3.org/2000/svg" viewBox="0 0 32 32"><!--! Font Icona - https://fonticona.com | License - https://fonticona.com/license | Copyright 2022 FontIcona.com --><path d="M7.131,32c-1.923,0-3.713-0.734-5.055-2.076c-1.376-1.375-2.112-3.222-2.075-5.199c0.038-1.964,0.836-3.822,2.248-5.234c0.388-0.388,0.827-0.739,1.308-1.046c0.395-0.252,0.913-0.196,1.245,0.136l8.618,8.618c0.332,0.332,0.389,0.85,0.136,1.245c-0.307,0.48-0.658,0.92-1.046,1.308c-1.412,1.412-3.271,2.21-5.234,2.248C7.228,32,7.179,32,7.131,32z M3.994,20.601c-0.116,0.098-0.227,0.199-0.331,0.304c-1.044,1.044-1.635,2.414-1.662,3.858c-0.027,1.429,0.502,2.76,1.489,3.747s2.326,1.518,3.747,1.489c1.444-0.027,2.814-0.618,3.858-1.662c0.104-0.104,0.206-0.215,0.304-0.331L3.994,20.601z"/><path d="M7.736,23.382c-0.256,0-0.502-0.098-0.688-0.275L5.22,21.37c-0.349-0.33-0.412-0.861-0.152-1.266c3.078-4.787,6.054-9.734,8.846-14.702c0.132-0.234,0.167-0.513,0.098-0.768c-0.135-0.49-0.273-0.98-0.415-1.47c-0.149-0.513-0.706-0.819-1.225-0.671c-0.386,0.112-0.77,0.225-1.153,0.34c-0.322,0.097-0.57,0.354-0.664,0.689c-1.521,5.421-3.338,10.795-5.401,15.97c-0.205,0.514-0.79,0.763-1.299,0.559c-0.514-0.204-0.764-0.786-0.559-1.299c2.037-5.11,3.831-10.417,5.333-15.771c0.28-0.998,1.033-1.769,2.014-2.063c0.39-0.117,0.78-0.232,1.173-0.346c1.575-0.457,3.241,0.454,3.701,2.034c0.146,0.5,0.286,0.999,0.423,1.499c0.004,0.012,0.007,0.024,0.011,0.037c0.425-0.013,0.852-0.024,1.279-0.032c0.02,0,0.039,0,0.058,0c1.304,0,2.474,0.862,2.857,2.112l0.265,0.879c0.289,0.971,0.067,2.016-0.592,2.793c-3.727,4.405-7.538,8.828-11.328,13.146c-0.18,0.205-0.435,0.327-0.707,0.34C7.767,23.382,7.751,23.382,7.736,23.382z M7.196,20.489l0.475,0.451c3.556-4.061,7.124-8.208,10.619-12.339c0.222-0.261,0.297-0.609,0.201-0.931l-0.26-0.862c-0.129-0.419-0.505-0.733-0.964-0.698c-0.499,0.009-0.996,0.022-1.491,0.039c-0.037,0.08-0.076,0.158-0.12,0.235C12.98,11.145,10.137,15.886,7.196,20.489z"/><path d="M12.877,28.776c-0.397,0-0.772-0.238-0.929-0.63c-0.205-0.513,0.045-1.095,0.559-1.299c5.177-2.064,10.55-3.881,15.969-5.401c0.336-0.094,0.594-0.343,0.691-0.666c0.114-0.382,0.228-0.767,0.339-1.151c0.073-0.253,0.043-0.519-0.084-0.751c-0.128-0.231-0.336-0.399-0.587-0.473c-0.49-0.144-0.979-0.281-1.468-0.416c-0.255-0.069-0.537-0.034-0.772,0.098c-4.968,2.793-9.913,5.77-14.699,8.846c-0.465,0.302-1.084,0.165-1.382-0.3c-0.299-0.465-0.164-1.084,0.3-1.382c4.819-3.098,9.799-6.095,14.802-8.908c0.692-0.389,1.523-0.492,2.282-0.282c0.499,0.137,0.998,0.278,1.497,0.424c0.763,0.222,1.396,0.729,1.78,1.43s0.475,1.507,0.252,2.271c-0.112,0.391-0.228,0.781-0.345,1.172c-0.297,0.982-1.068,1.735-2.066,2.015c-5.352,1.501-10.657,3.296-15.769,5.333C13.126,28.754,13.001,28.776,12.877,28.776z"/><path d="M9.618,25.264c-0.277,0-0.554-0.115-0.752-0.341c-0.364-0.415-0.323-1.047,0.093-1.411c4.321-3.793,8.745-7.604,13.147-11.329c0.777-0.658,1.821-0.88,2.793-0.591l0.878,0.266c1.269,0.389,2.138,1.587,2.113,2.914c-0.014,0.695-0.034,1.387-0.061,2.076c-0.021,0.552-0.522,1-1.037,0.96c-0.553-0.021-0.982-0.485-0.961-1.038c0.026-0.677,0.045-1.356,0.059-2.038c0.009-0.438-0.279-0.834-0.699-0.963l-0.861-0.26c-0.323-0.097-0.672-0.02-0.933,0.201c-4.393,3.716-8.807,7.521-13.12,11.306C10.088,25.182,9.853,25.264,9.618,25.264z"/><path d="M23.508,13.176c-0.508,0-0.942-0.385-0.994-0.9c-0.06-0.599-0.127-1.199-0.197-1.8c-0.053-0.446-0.416-0.809-0.863-0.861c-0.602-0.071-1.203-0.137-1.802-0.197c-0.55-0.056-0.95-0.546-0.895-1.096c0.056-0.549,0.546-0.943,1.096-0.895c0.61,0.062,1.222,0.128,1.835,0.201c1.375,0.162,2.451,1.236,2.615,2.613c0.072,0.614,0.14,1.226,0.201,1.836c0.055,0.549-0.346,1.04-0.896,1.095C23.574,13.174,23.541,13.176,23.508,13.176z"/></svg>