<svg xmlns="http://www.w3.org/2000/svg" viewBox="0 0 32 32"><!--! Font Icona - https://fonticona.com | License - https://fonticona.com/license | Copyright 2022 FontIcona.com --><path d="M29,32H3c-1.654,0-3-1.346-3-3V3c0-1.654,1.346-3,3-3h26c1.654,0,3,1.346,3,3v26C32,30.654,30.654,32,29,32z M3,2C2.448,2,2,2.448,2,3v26c0,0.552,0.448,1,1,1h26c0.552,0,1-0.448,1-1V3c0-0.552-0.448-1-1-1H3z"/><path d="M26.861,20.078h-2.256c-0.553,0-1-0.447-1-1s0.447-1,1-1h2.256c0.553,0,1,0.447,1,1S27.414,20.078,26.861,20.078z"/><path d="M26.861,6.744h-2.256c-0.553,0-1-0.447-1-1s0.447-1,1-1h2.256c0.553,0,1,0.447,1,1S27.414,6.744,26.861,6.744z"/><path d="M26.861,13.411h-2.256c-0.553,0-1-0.447-1-1s0.447-1,1-1h2.256c0.553,0,1,0.447,1,1S27.414,13.411,26.861,13.411z"/><path d="M20.467,31.744c-0.553,0-1-0.447-1-1V1c0-0.553,0.447-1,1-1s1,0.447,1,1v29.744C21.467,31.297,21.02,31.744,20.467,31.744z"/></svg>