<svg xmlns="http://www.w3.org/2000/svg" viewBox="0 0 32 32"><!--! Font Icona - https://fonticona.com | License - https://fonticona.com/license | Copyright 2022 FontIcona.com --><path d="M25,32h-5.618c-0.553,0-1-0.448-1-1s0.447-1,1-1H25c2.757,0,5-2.243,5-5V7c0-2.757-2.243-5-5-5h-5.618c-0.553,0-1-0.448-1-1s0.447-1,1-1H25c3.859,0,7,3.14,7,7v18C32,28.86,28.859,32,25,32z"/><path d="M23.5,17H1c-0.553,0-1-0.448-1-1s0.447-1,1-1h22.5c0.553,0,1,0.448,1,1S24.053,17,23.5,17z"/><path class="st2" d="M19.382,21.372c-0.256,0-0.512-0.098-0.707-0.293c-0.391-0.391-0.391-1.024,0-1.414L22.34,16l-3.665-3.665c-0.391-0.39-0.391-1.023,0-1.414s1.023-0.391,1.414,0l3.929,3.928c0.312,0.311,0.482,0.72,0.482,1.15s-0.171,0.839-0.482,1.15l-3.929,3.928C19.894,21.274,19.638,21.372,19.382,21.372z M22.604,16.264h0.01H22.604z"/></svg>