<svg xmlns="http://www.w3.org/2000/svg" viewBox="0 0 32 32"><!--! Font Icona - https://fonticona.com | License - https://fonticona.com/license | Copyright 2022 FontIcona.com --><path d="M24.173,22.082c-0.256,0-0.512-0.098-0.707-0.293c-0.391-0.391-0.391-1.023,0-1.414c2.413-2.413,2.419-6.334,0.013-8.74c-0.391-0.391-0.391-1.023,0-1.414s1.023-0.391,1.414,0c3.186,3.186,3.18,8.376-0.013,11.568C24.685,21.984,24.429,22.082,24.173,22.082z"/><path d="M27.964,24.308c-0.256,0-0.512-0.098-0.707-0.293c-0.391-0.391-0.391-1.023,0-1.414c3.645-3.645,3.653-9.566,0.019-13.201c-0.391-0.391-0.391-1.023,0-1.414s1.023-0.391,1.414,0c4.414,4.414,4.406,11.605-0.019,16.029C28.476,24.21,28.22,24.308,27.964,24.308z"/><path d="M20.612,20.087c-0.256,0-0.512-0.098-0.707-0.293c-0.391-0.391-0.391-1.023,0-1.414c1.309-1.31,1.312-3.437,0.007-4.741c-0.39-0.391-0.39-1.024,0-1.414c0.391-0.391,1.024-0.391,1.415,0c2.083,2.085,2.08,5.48-0.008,7.569C21.124,19.989,20.868,20.087,20.612,20.087z"/><path d="M7.814,22.072c-0.256,0-0.512-0.098-0.707-0.293c-3.186-3.186-3.18-8.376,0.013-11.568c0.391-0.391,1.023-0.391,1.414,0s0.391,1.023,0,1.414c-2.413,2.413-2.419,6.334-0.013,8.74c0.391,0.391,0.391,1.023,0,1.414C8.326,21.975,8.07,22.072,7.814,22.072z"/><path d="M4.018,24.308c-0.256,0-0.512-0.098-0.707-0.293c-4.414-4.414-4.406-11.605,0.019-16.029c0.391-0.391,1.023-0.391,1.414,0s0.391,1.023,0,1.414c-3.645,3.645-3.653,9.566-0.019,13.201c0.391,0.391,0.391,1.023,0,1.414C4.529,24.21,4.273,24.308,4.018,24.308z"/><path d="M11.38,20.068c-0.256,0-0.512-0.098-0.708-0.293c-2.083-2.085-2.08-5.48,0.008-7.569c0.391-0.391,1.023-0.391,1.414,0s0.391,1.023,0,1.414c-1.309,1.31-1.312,3.437-0.007,4.741c0.39,0.391,0.39,1.024,0,1.414C11.892,19.971,11.636,20.068,11.38,20.068z"/><path d="M16.194,18.592c-1.424,0-2.582-1.158-2.582-2.582c0-1.423,1.158-2.581,2.582-2.581c1.423,0,2.582,1.158,2.582,2.581C18.775,17.434,17.617,18.592,16.194,18.592z M16.194,15.429c-0.321,0-0.582,0.261-0.582,0.581c0,0.321,0.261,0.582,0.582,0.582s0.582-0.261,0.582-0.582C16.775,15.689,16.515,15.429,16.194,15.429z"/></svg>