<svg xmlns="http://www.w3.org/2000/svg" viewBox="0 0 32 32"><!--! Font Icona - https://fonticona.com | License - https://fonticona.com/license | Copyright 2022 FontIcona.com --><path d="M12.618,32H7c-3.86,0-7-3.14-7-7V7c0-3.86,3.14-7,7-7h5.618c0.552,0,1,0.448,1,1s-0.448,1-1,1H7C4.243,2,2,4.243,2,7v18c0,2.757,2.243,5,5,5h5.618c0.552,0,1,0.448,1,1S13.17,32,12.618,32z"/><path d="M31,17H8.5c-0.552,0-1-0.448-1-1s0.448-1,1-1H31c0.552,0,1,0.448,1,1S31.552,17,31,17z"/><path class="st2" d="M12.618,21.372c-0.256,0-0.512-0.098-0.707-0.293L7.983,17.15C7.672,16.84,7.5,16.431,7.5,16s0.172-0.84,0.483-1.151l3.927-3.927c0.391-0.391,1.023-0.391,1.414,0s0.391,1.023,0,1.414L9.661,16l3.664,3.665c0.391,0.391,0.391,1.023,0,1.414C13.129,21.274,12.874,21.372,12.618,21.372z"/></svg>