<svg xmlns="http://www.w3.org/2000/svg" viewBox="0 0 32 32"><!--! Font Icona - https://fonticona.com | License - https://fonticona.com/license | Copyright 2022 FontIcona.com --><path d="M19.77,27.627c-0.006,0-0.011,0-0.017,0l-7.564-0.025c-1.177-0.004-2.281-0.466-3.109-1.301C8.25,25.466,7.796,24.358,7.8,23.182l0.025-7.563c0.004-1.178,0.466-2.282,1.301-3.11c0.831-0.825,1.933-1.279,3.103-1.279c0.006,0,0.011,0,0.017,0l7.563,0.025c1.178,0.004,2.282,0.466,3.11,1.301c0.829,0.835,1.283,1.942,1.279,3.119l-0.025,7.563c-0.004,1.178-0.466,2.282-1.301,3.11C22.041,27.173,20.939,27.627,19.77,27.627z M12.196,25.602l7.563,0.025c0.003,0,0.007,0,0.01,0c0.639,0,1.239-0.248,1.693-0.698c0.455-0.452,0.708-1.056,0.71-1.698l0.025-7.563c0.002-0.643-0.245-1.247-0.698-1.703c-0.452-0.455-1.056-0.708-1.698-0.71l-7.563-0.025c-0.003,0-0.007,0-0.01,0c-0.639,0-1.239,0.248-1.693,0.698c-0.455,0.452-0.708,1.056-0.71,1.698L9.8,23.189c-0.002,0.643,0.245,1.247,0.698,1.703C10.95,25.347,11.554,25.6,12.196,25.602L12.196,25.602z"/><path d="M23.12,21.442c-0.001,0-0.002,0-0.004,0l-4.493-0.016c-0.552-0.002-0.998-0.451-0.996-1.004c0.002-0.551,0.449-0.996,1-0.996c0.001,0,0.002,0,0.004,0l3.492,0.012l0.008-2.772l-6.891-0.023l-0.012,3.795c-0.001,0.266-0.107,0.52-0.295,0.706s-0.441,0.291-0.705,0.291c-0.001,0-0.002,0-0.004,0l-5.334-0.019c-0.552-0.002-0.998-0.451-0.996-1.003l0.014-4.795c0.001-0.266,0.106-0.52,0.295-0.706c0.188-0.187,0.441-0.291,0.705-0.291c0.001,0,0.002,0,0.004,0l14.226,0.049c0.552,0.002,0.998,0.451,0.996,1.003l-0.014,4.772c-0.001,0.266-0.107,0.52-0.295,0.706S23.384,21.442,23.12,21.442z M9.897,19.42l3.334,0.011l0.009-2.795l-3.335-0.011L9.897,19.42z"/><rect x="12.921" y="20.232" transform="matrix(0.0054 -1 1 0.0054 -3.0202 39.427)" width="10.778" height="2"/><path class="st0" d="M25.322,32H6.678c-1.654,0-3-1.346-3-3V3c0-1.654,1.346-3,3-3h13.457c0.889,0,1.726,0.39,2.297,1.069l5.188,6.174c0.453,0.54,0.703,1.226,0.703,1.93V29C28.322,30.654,26.977,32,25.322,32z M6.678,2c-0.552,0-1,0.448-1,1v26c0,0.552,0.448,1,1,1h18.645c0.552,0,1-0.448,1-1V9.173c0-0.234-0.083-0.463-0.234-0.643L20.9,2.356C20.71,2.13,20.431,2,20.135,2H6.678z"/></svg>