<svg xmlns="http://www.w3.org/2000/svg" viewBox="0 0 32 32"><!--! Font Icona - https://fonticona.com | License - https://fonticona.com/license | Copyright 2022 FontIcona.com --><path d="M16.017,25.917c-5.377,0-9.751-4.417-9.751-9.845s4.374-9.846,9.751-9.846c5.376,0,9.75,4.417,9.75,9.846S21.393,25.917,16.017,25.917z M16.017,8.226c-4.273,0-7.751,3.52-7.751,7.846c0,4.326,3.478,7.845,7.751,7.845s7.75-3.52,7.75-7.845C23.767,11.746,20.29,8.226,16.017,8.226z"/><path d="M7.039,15.769c-0.289,0-0.574-0.124-0.772-0.364L0.922,8.926C0.65,8.597,0.617,8.132,0.841,7.768C1.063,7.404,1.489,7.22,1.91,7.314l1.837,0.408L0.136,1.502c-0.229-0.394-0.163-0.891,0.159-1.211C0.617-0.03,1.117-0.091,1.507,0.138l6.014,3.537L7.217,1.951C7.146,1.54,7.336,1.127,7.695,0.916c0.359-0.212,0.812-0.178,1.137,0.085l6.327,5.126c0.429,0.348,0.495,0.977,0.147,1.406c-0.348,0.428-0.977,0.497-1.407,0.147l-4.25-3.443l0.216,1.225C9.933,5.846,9.771,6.234,9.45,6.457c-0.321,0.221-0.743,0.237-1.077,0.04L3.78,3.795l2.842,4.894c0.2,0.344,0.178,0.772-0.057,1.093c-0.236,0.32-0.639,0.47-1.024,0.386L4.314,9.896l3.495,4.237c0.352,0.426,0.291,1.056-0.135,1.408C7.488,15.694,7.263,15.769,7.039,15.769z"/><path d="M24.961,15.769c-0.224,0-0.449-0.075-0.636-0.229c-0.426-0.352-0.486-0.982-0.135-1.408l3.495-4.237l-1.227,0.272c-0.389,0.085-0.789-0.065-1.024-0.386c-0.234-0.32-0.257-0.749-0.057-1.093l2.842-4.894l-4.593,2.702c-0.336,0.197-0.758,0.181-1.077-0.04c-0.32-0.223-0.482-0.611-0.415-0.995l0.216-1.225l-4.25,3.443c-0.432,0.349-1.06,0.281-1.407-0.147c-0.348-0.429-0.281-1.059,0.147-1.406l6.327-5.126c0.325-0.263,0.777-0.297,1.137-0.085c0.359,0.211,0.55,0.624,0.479,1.035l-0.304,1.725l6.014-3.537c0.39-0.23,0.889-0.168,1.212,0.153c0.322,0.32,0.388,0.818,0.159,1.211l-3.611,6.219l1.837-0.408c0.419-0.092,0.847,0.09,1.069,0.454c0.224,0.364,0.19,0.83-0.081,1.159l-5.345,6.479C25.535,15.645,25.25,15.769,24.961,15.769z"/><path d="M31,32c-0.174,0-0.35-0.045-0.507-0.138l-6.014-3.537l0.304,1.725c0.071,0.411-0.119,0.823-0.479,1.035c-0.359,0.212-0.812,0.178-1.137-0.085l-6.327-5.126c-0.429-0.348-0.495-0.977-0.147-1.406s0.976-0.497,1.407-0.147l4.25,3.443l-0.216-1.225c-0.067-0.384,0.095-0.772,0.415-0.995c0.319-0.223,0.741-0.239,1.077-0.04l4.593,2.702l-2.842-4.894c-0.2-0.344-0.178-0.772,0.057-1.093c0.235-0.321,0.636-0.474,1.024-0.386l1.227,0.272l-3.495-4.237c-0.352-0.426-0.291-1.056,0.135-1.408c0.428-0.353,1.057-0.29,1.408,0.135l5.345,6.479c0.271,0.329,0.305,0.794,0.081,1.159c-0.224,0.363-0.651,0.546-1.069,0.454l-1.837-0.408l3.611,6.219c0.229,0.394,0.163,0.891-0.159,1.211C31.513,31.9,31.258,32,31,32z"/><path d="M1,32c-0.258,0-0.513-0.1-0.705-0.291c-0.322-0.32-0.388-0.818-0.159-1.211l3.611-6.219L1.91,24.686c-0.42,0.093-0.847-0.09-1.069-0.454c-0.224-0.364-0.19-0.83,0.081-1.159l5.345-6.479c0.352-0.425,0.98-0.488,1.408-0.135c0.426,0.352,0.486,0.982,0.135,1.408l-3.495,4.237l1.227-0.272c0.386-0.087,0.789,0.065,1.024,0.386c0.234,0.32,0.257,0.749,0.057,1.093L3.78,28.205l4.593-2.702c0.334-0.199,0.756-0.183,1.077,0.04c0.32,0.223,0.482,0.611,0.415,0.995l-0.216,1.225l4.25-3.443c0.431-0.35,1.06-0.282,1.407,0.147s0.281,1.059-0.147,1.406l-6.327,5.126c-0.324,0.263-0.777,0.297-1.137,0.085c-0.359-0.211-0.55-0.624-0.479-1.035l0.304-1.725l-6.014,3.537C1.35,31.955,1.174,32,1,32z"/><path d="M16.017,22.131c-3.312,0-6.006-2.718-6.006-6.06s2.694-6.06,6.006-6.06s6.005,2.719,6.005,6.06S19.328,22.131,16.017,22.131z M16.017,12.012c-2.209,0-4.006,1.821-4.006,4.06c0,2.238,1.797,4.06,4.006,4.06c2.208,0,4.005-1.821,4.005-4.06C20.021,13.833,18.225,12.012,16.017,12.012z"/></svg>