<svg xmlns="http://www.w3.org/2000/svg" viewBox="0 0 32 32"><!--! Font Icona - https://fonticona.com | License - https://fonticona.com/license | Copyright 2022 FontIcona.com --><path d="M16,30.555c-0.472,0-0.924-0.211-1.241-0.578L0.454,13.374c-0.577-0.67-0.608-1.705-0.071-2.409L6.195,3.35c0.41-0.538,1.195-0.983,1.867-1.059l7.09-0.805c0.476-0.054,1.222-0.054,1.697,0l7.09,0.805c0.672,0.076,1.457,0.521,1.867,1.058l5.812,7.616c0.536,0.703,0.506,1.738-0.071,2.408L17.241,29.976C16.924,30.344,16.472,30.555,16,30.555z M2.015,12.122L16,28.353l13.985-16.231l-5.769-7.56c-0.082-0.107-0.369-0.269-0.503-0.285l-7.09-0.805c-0.332-0.038-0.914-0.038-1.246,0l-7.09,0.805C8.153,4.293,7.866,4.456,7.784,4.563L2.015,12.122z"/><rect x="23.584" y="3.439" transform="matrix(0.998 -0.0626 0.0626 0.998 -0.4214 1.5535)" width="2" height="8.128"/><rect x="10.455" y="19.49" transform="matrix(0.4433 -0.8964 0.8964 0.4433 -6.9992 29.71)" width="19.93" height="2"/><rect x="19.386" y="0.65" transform="matrix(0.7143 -0.6998 0.6998 0.7143 0.9157 16.2694)" width="1.999" height="12.726"/><rect x="26.814" y="9.109" transform="matrix(0.1918 -0.9814 0.9814 0.1918 10.5653 37.1092)" width="2" height="6.062"/><rect x="3.285" y="6.559" transform="matrix(0.0625 -0.998 0.998 0.0625 -0.6544 14.4202)" width="8.128" height="2"/><rect x="10.514" y="10.581" transform="matrix(0.8963 -0.4435 0.4435 0.8963 -7.9179 7.2377)" width="2" height="19.93"/><rect x="5.184" y="6.069" transform="matrix(0.6997 -0.7144 0.7144 0.6997 -1.5828 10.3715)" width="12.727" height="2"/><rect x="1.089" y="11.196" transform="matrix(0.9814 -0.1919 0.1919 0.9814 -2.2636 1.0171)" width="6.061" height="2"/><rect x="6.976" y="10.559" width="17.863" height="2"/></svg>