<svg xmlns="http://www.w3.org/2000/svg" viewBox="0 0 32 32"><!--! Font Icona - https://fonticona.com | License - https://fonticona.com/license | Copyright 2022 FontIcona.com --><path d="M28.394,32c0,0-0.001,0-0.002,0H6.664c-0.552,0-1-0.447-1-1s0.448-1,1-1h21.729c0.196-0.007,1.269-0.114,1.638-1.571c0.136-0.536,0.683-0.855,1.215-0.724c0.535,0.137,0.859,0.681,0.723,1.216C31.351,31.357,29.361,32,28.394,32z"/><path d="M14.83,31.349c-0.153,0-0.308-0.035-0.454-0.109c-0.492-0.251-0.687-0.854-0.436-1.346l4.476-8.765c-1.176-0.056-2.375-0.145-3.563-0.401c-2.839-0.614-4.267-2.713-3.918-5.758c0.313-2.733,1.97-5.412,4.432-7.167c0.239-0.172,0.542-0.229,0.828-0.154c0.285,0.073,0.524,0.268,0.652,0.532l2.885,5.954c0.241,0.497,0.033,1.096-0.464,1.337c-0.497,0.239-1.094,0.034-1.336-0.464l-2.335-4.819c-1.489,1.38-2.466,3.187-2.675,5.01c-0.231,2.013,0.539,3.182,2.354,3.574c1.29,0.279,2.677,0.337,4.018,0.394l0.768,0.033c0.339,0.017,0.647,0.203,0.818,0.497s0.18,0.654,0.025,0.957l-5.183,10.15C15.545,31.15,15.194,31.349,14.83,31.349z"/><path d="M20.403,7.833c-2.206,0-4-1.757-4-3.917c0-2.159,1.794-3.916,4-3.916s4,1.757,4,3.916C24.403,6.076,22.609,7.833,20.403,7.833z M20.403,2c-1.103,0-2,0.859-2,1.916s0.897,1.917,2,1.917s2-0.86,2-1.917S21.506,2,20.403,2z"/><path d="M23.978,16.998c-0.085,0-0.172-0.011-0.258-0.034L1.122,10.929c-0.534-0.143-0.851-0.69-0.708-1.224c0.143-0.534,0.69-0.853,1.224-0.708l22.598,6.035c0.534,0.143,0.851,0.69,0.708,1.224C24.824,16.703,24.42,16.998,23.978,16.998z"/><path d="M1.001,12.421c-0.057,0-0.115-0.005-0.173-0.015c-0.544-0.095-0.908-0.613-0.813-1.157l0.508-2.916C0.618,7.79,1.136,7.431,1.68,7.52c0.544,0.095,0.908,0.613,0.813,1.157l-0.508,2.916C1.9,12.078,1.478,12.421,1.001,12.421z"/></svg>