<svg xmlns="http://www.w3.org/2000/svg" viewBox="0 0 32 32"><!--! Font Icona - https://fonticona.com | License - https://fonticona.com/license | Copyright 2022 FontIcona.com --><path d="M23.091,6.016H8.909c-0.552,0-1-0.447-1-1V3.184c0-0.553,0.448-1,1-1s1,0.447,1,1v0.832h12.182v-0.69c0-0.553,0.448-1,1-1s1,0.447,1,1v1.69C24.091,5.568,23.643,6.016,23.091,6.016z"/><path d="M23.091,4.325c-0.552,0-1-0.447-1-1V2H9.909v1.184c0,0.553-0.448,1-1,1s-1-0.447-1-1V2c0-1.103,0.897-2,2-2h12.182c1.103,0,2,0.897,2,2v1.325C24.091,3.878,23.643,4.325,23.091,4.325z"/><path d="M1,29.276c-0.082,0-0.164-0.01-0.247-0.031c-0.535-0.136-0.859-0.68-0.723-1.215c2.021-7.95,4.699-15.817,7.96-23.385c0.218-0.509,0.805-0.743,1.314-0.522c0.507,0.218,0.741,0.807,0.523,1.313c-3.219,7.471-5.863,15.238-7.858,23.086C1.854,28.976,1.447,29.276,1,29.276z"/><path d="M1,29.276c-0.44,0-0.843-0.292-0.964-0.736c-0.146-0.533,0.168-1.083,0.701-1.229c0.552-0.15,1.002-0.296,1.403-0.425c1.291-0.414,2.223-0.714,4.221-0.522c0.55,0.053,0.953,0.541,0.9,1.091s-0.532,0.967-1.091,0.899c-1.586-0.151-2.236,0.057-3.417,0.437c-0.426,0.137-0.903,0.29-1.488,0.45C1.175,29.265,1.086,29.276,1,29.276z"/><path d="M6.099,30.532c-0.039,0-0.079-0.002-0.118-0.007c-0.549-0.064-0.941-0.562-0.876-1.11c0.969-8.234,2.47-16.52,4.46-24.626c0.131-0.536,0.671-0.872,1.209-0.732c0.537,0.131,0.865,0.673,0.733,1.209C9.536,13.292,8.05,21.496,7.09,29.649C7.03,30.158,6.599,30.532,6.099,30.532z"/><path d="M6.263,30.491c-0.46,0-0.874-0.319-0.976-0.787c-0.118-0.539,0.224-1.072,0.764-1.189c0.468-0.103,0.901-0.211,1.311-0.313c1.823-0.456,3.397-0.849,5.601-0.104c0.523,0.177,0.804,0.744,0.627,1.268c-0.177,0.522-0.743,0.804-1.268,0.627c-1.646-0.555-2.771-0.273-4.476,0.15c-0.428,0.107-0.879,0.22-1.369,0.326C6.406,30.483,6.334,30.491,6.263,30.491z"/><path d="M31,29.25c-0.447,0-0.854-0.301-0.969-0.754c-1.995-7.849-4.639-15.615-7.858-23.085c-0.218-0.507,0.016-1.096,0.522-1.313c0.507-0.221,1.095,0.014,1.314,0.522c3.261,7.565,5.938,15.433,7.96,23.384c0.136,0.535-0.188,1.079-0.723,1.215C31.164,29.24,31.081,29.25,31,29.25z"/><path d="M31,29.25c-0.087,0-0.176-0.012-0.264-0.035c-0.795-0.218-1.397-0.454-1.928-0.663c-1.031-0.406-1.656-0.652-3.023-0.52c-0.555,0.064-1.039-0.35-1.091-0.899s0.35-1.038,0.9-1.091c1.852-0.175,2.821,0.206,3.947,0.648c0.507,0.2,1.032,0.406,1.723,0.595c0.533,0.146,0.847,0.695,0.701,1.229C31.843,28.958,31.44,29.25,31,29.25z"/><path d="M26.061,30.532c-0.5,0-0.932-0.374-0.992-0.883c-0.959-8.152-2.444-16.355-4.416-24.384c-0.132-0.536,0.196-1.078,0.733-1.209c0.535-0.139,1.077,0.196,1.209,0.732c1.991,8.107,3.491,16.393,4.459,24.626c0.064,0.549-0.328,1.046-0.876,1.11C26.14,30.53,26.1,30.532,26.061,30.532z"/><path d="M26.149,30.544c-0.071,0-0.143-0.008-0.215-0.023c-0.609-0.133-1.169-0.286-1.702-0.433c-1.594-0.439-2.747-0.756-4.275-0.24c-0.527,0.179-1.091-0.104-1.268-0.627c-0.177-0.523,0.104-1.091,0.627-1.268c2.107-0.713,3.729-0.266,5.446,0.206c0.5,0.138,1.025,0.282,1.599,0.408c0.54,0.117,0.881,0.65,0.763,1.19C27.022,30.226,26.609,30.544,26.149,30.544z"/><path d="M12.587,31.718c-0.011,0-0.022,0-0.033-0.001c-0.552-0.018-0.985-0.479-0.967-1.032l0.846-25.702c0.019-0.551,0.486-1.011,1.032-0.966c0.552,0.018,0.985,0.479,0.967,1.032l-0.846,25.702C13.568,31.291,13.125,31.718,12.587,31.718z"/><path d="M19.637,32c-0.536,0-0.98-0.425-0.999-0.965l-0.91-25.984c-0.019-0.552,0.413-1.016,0.964-1.034c0.569-0.023,1.016,0.412,1.035,0.964l0.91,25.984c0.019,0.552-0.413,1.016-0.964,1.034C19.66,32,19.648,32,19.637,32z"/><path d="M19.638,32c-0.013,0-0.027,0-0.041-0.001l-7.05-0.282c-0.552-0.021-0.981-0.487-0.959-1.039c0.022-0.551,0.479-0.991,1.039-0.959l7.05,0.282c0.552,0.021,0.981,0.487,0.959,1.039C20.615,31.578,20.172,32,19.638,32z"/><path d="M18.727,6.191c-0.552,0-1-0.447-1-1V1.176c0-0.553,0.448-1,1-1s1,0.447,1,1v4.016C19.727,5.744,19.279,6.191,18.727,6.191z"/></svg>