<svg xmlns="http://www.w3.org/2000/svg" viewBox="0 0 32 32"><!--! Font Icona - https://fonticona.com | License - https://fonticona.com/license | Copyright 2022 FontIcona.com --><path d="M15.204,26.37c-1.286,0-3.23-0.208-4.139-1.358c-0.294-0.373-0.508-0.751-0.695-1.084c-0.356-0.632-0.564-0.971-1.029-1.193c-0.273-0.13-0.582-0.232-0.908-0.342c-0.927-0.309-2.081-0.693-2.754-1.937c-0.827-1.528-0.236-2.879,0.238-3.965c0.004-0.009,0.007-0.017,0.011-0.024c-1.51-1.759-2.333-3.892-2.333-6.073C3.595,4.662,9.16,0,16,0s12.405,4.662,12.405,10.394c0,2.232-0.87,4.418-2.465,6.22c0.463,1.064,0.981,2.372,0.184,3.844c-0.672,1.242-1.826,1.627-2.753,1.936c-0.326,0.109-0.635,0.212-0.907,0.342c-0.467,0.223-0.675,0.562-1.031,1.194c-0.188,0.333-0.4,0.711-0.694,1.083c-1.096,1.389-3.702,1.401-4.837,1.339C15.707,26.361,15.47,26.37,15.204,26.37z M16,2C10.263,2,5.595,5.765,5.595,10.393c0,1.894,0.768,3.683,2.219,5.174c0.273,0.281,0.357,0.696,0.215,1.062c-0.087,0.223-0.184,0.444-0.28,0.664c-0.43,0.984-0.656,1.573-0.311,2.211c0.283,0.522,0.777,0.708,1.628,0.991c0.369,0.124,0.751,0.251,1.136,0.435c1.058,0.504,1.511,1.307,1.91,2.015c0.168,0.297,0.326,0.577,0.524,0.829c0.329,0.417,1.738,0.669,3.202,0.577c0.043-0.002,0.084-0.002,0.127,0c1.465,0.088,2.874-0.161,3.203-0.577c0.197-0.251,0.355-0.531,0.523-0.827c0.399-0.709,0.853-1.513,1.912-2.017c0.384-0.184,0.766-0.311,1.135-0.435c0.851-0.283,1.345-0.469,1.627-0.99c0.347-0.64,0.12-1.228-0.311-2.212c-0.074-0.169-0.147-0.338-0.218-0.508c-0.152-0.373-0.066-0.802,0.22-1.087c1.515-1.512,2.349-3.396,2.349-5.305C26.405,5.765,21.737,2,16,2z"/><path d="M15.975,32h-0.118c-4.812-0.266-7.27-1.898-7.361-4.855c-0.022-0.704,0.038-1.347,0.092-1.914c0.06-0.626,0.111-1.165,0.043-1.636c-0.062-0.435-0.23-0.962-1.018-1.59l1.248-1.562c1.032,0.824,1.588,1.735,1.75,2.868c0.102,0.706,0.036,1.388-0.032,2.108c-0.051,0.533-0.103,1.085-0.085,1.662c0.021,0.649,0.083,2.624,5.419,2.921c5.315-0.297,5.378-2.271,5.398-2.92c0.018-0.578-0.035-1.129-0.085-1.662c-0.149-1.571-0.319-3.353,1.718-4.978l1.248,1.562c-1.191,0.951-1.114,1.759-0.976,3.226c0.055,0.567,0.115,1.211,0.093,1.914c-0.092,2.957-2.55,4.59-7.306,4.854L15.975,32z"/><path d="M7.03,17.449c-0.113,0-0.228-0.019-0.34-0.06c-0.52-0.188-0.788-0.762-0.601-1.28l0.047-0.128c0.097-0.264,0.218-0.592,0.191-0.778c-0.016-0.105-0.088-0.264-0.165-0.432c-0.112-0.246-0.24-0.525-0.306-0.863c-0.271-1.381,0.23-2.145,0.715-2.884l0.099-0.151c0.3-0.465,0.921-0.596,1.383-0.295c0.464,0.301,0.596,0.92,0.295,1.383L8.245,12.12c-0.403,0.615-0.539,0.822-0.425,1.404c0.021,0.106,0.089,0.256,0.162,0.415c0.12,0.263,0.27,0.589,0.325,0.979c0.1,0.688-0.128,1.306-0.295,1.756l-0.042,0.115C7.823,17.196,7.439,17.449,7.03,17.449z"/><path d="M24.81,17.545c-0.408,0-0.791-0.251-0.939-0.657l-0.039-0.106c-0.169-0.453-0.398-1.074-0.298-1.77c0.055-0.388,0.205-0.714,0.325-0.977c0.072-0.158,0.141-0.308,0.161-0.413c0.114-0.584-0.021-0.791-0.426-1.407l-0.103-0.158c-0.301-0.463-0.169-1.082,0.295-1.383c0.463-0.302,1.082-0.169,1.383,0.295l0.099,0.15c0.484,0.739,0.985,1.505,0.715,2.887c-0.066,0.338-0.199,0.628-0.306,0.862c-0.077,0.167-0.149,0.325-0.164,0.429c-0.028,0.192,0.095,0.522,0.193,0.788l0.043,0.117c0.189,0.519-0.078,1.093-0.597,1.282C25.039,17.525,24.924,17.545,24.81,17.545z"/><path d="M14.441,23.469c-0.301,0-0.586-0.069-0.849-0.209c-0.968-0.521-1.104-1.495-0.406-2.894c0.038-0.077,0.074-0.147,0.103-0.212c0.118-0.266,0.188-0.6,0.264-0.954c0.197-0.936,0.496-2.35,2.152-2.748c0.154-0.037,0.314-0.037,0.469,0c1.656,0.398,1.955,1.812,2.152,2.748c0.074,0.354,0.145,0.688,0.263,0.954c0.028,0.064,0.064,0.136,0.103,0.212c0.698,1.399,0.562,2.372-0.405,2.893c-0.674,0.362-1.506,0.251-2.347-0.298C15.426,23.297,14.915,23.469,14.441,23.469z M15.939,18.491c-0.189,0.132-0.279,0.408-0.431,1.122c-0.088,0.42-0.188,0.896-0.394,1.355c-0.025,0.058-0.056,0.121-0.089,0.188c0.055-0.043,0.111-0.09,0.17-0.143c0.211-0.189,0.479-0.277,0.742-0.254c0.273-0.022,0.532,0.063,0.742,0.253c0.059,0.053,0.115,0.1,0.17,0.143c-0.032-0.066-0.062-0.129-0.088-0.187c-0.205-0.46-0.306-0.936-0.394-1.355C16.218,18.899,16.128,18.623,15.939,18.491z"/><path d="M11.591,17.84c-1.579,0-2.863-1.284-2.863-2.863c0-1.639,1.756-2.863,3.325-2.863c1.161,0,2.401,0.752,2.401,2.863C14.454,16.555,13.17,17.84,11.591,17.84z M12.053,14.113c-0.614,0-1.325,0.522-1.325,0.863c0,0.476,0.388,0.863,0.863,0.863s0.863-0.388,0.863-0.863C12.454,14.113,12.183,14.113,12.053,14.113z"/><path d="M19.834,17.85c-1.585,0-2.875-1.289-2.875-2.874c0-2.12,1.245-2.875,2.411-2.875c1.575,0,3.338,1.229,3.338,2.875C22.708,16.561,21.419,17.85,19.834,17.85z M19.37,14.101c-0.134,0-0.411,0-0.411,0.875c0,0.482,0.393,0.874,0.875,0.874s0.874-0.392,0.874-0.874C20.708,14.631,19.99,14.101,19.37,14.101z"/><path d="M16,27.83c-0.553,0-1-0.447-1-1v-1.463c0-0.553,0.447-1,1-1s1,0.447,1,1v1.463C17,27.383,16.553,27.83,16,27.83z"/><path d="M18.78,27.507c-0.553,0-1-0.447-1-1v-1.113c0-0.553,0.447-1,1-1s1,0.447,1,1v1.113C19.78,27.059,19.333,27.507,18.78,27.507z"/><path d="M13.03,27.507c-0.553,0-1-0.447-1-1V25.07c0-0.553,0.447-1,1-1s1,0.447,1,1v1.437C14.03,27.059,13.583,27.507,13.03,27.507z"/></svg>