<svg xmlns="http://www.w3.org/2000/svg" viewBox="0 0 32 32"><!--! Font Icona - https://fonticona.com | License - https://fonticona.com/license | Copyright 2022 FontIcona.com --><path d="M16.973,27.845c-0.29,0-0.624-0.063-0.989-0.244c-0.634,0.312-1.177,0.274-1.557,0.163c-0.571-0.168-0.984-0.559-1.271-0.956c-1.383,0.425-2.898-0.258-3.472-1.62c-0.071-0.167-0.095-0.351-0.069-0.531l0.228-1.578c-1.212-0.205-2.096-0.725-2.633-1.554c-0.84-1.293-0.499-2.852-0.27-3.563c-1.075-3.606-0.811-6.538,0.786-8.719c2.67-3.646,8.03-3.688,8.257-3.688s5.585,0.042,8.245,3.686c1.594,2.182,1.85,5.115,0.765,8.723c0.229,0.711,0.567,2.266-0.271,3.559c-0.539,0.83-1.424,1.351-2.64,1.556l0.234,1.574c0.026,0.181,0.004,0.366-0.067,0.535c-0.128,0.304-0.307,0.582-0.53,0.825c-0.766,0.832-1.917,1.106-2.932,0.799c-0.28,0.394-0.685,0.78-1.246,0.95C17.38,27.81,17.188,27.845,16.973,27.845z M13.572,24.444c0.086,0,0.172,0.011,0.256,0.033c0.331,0.088,0.594,0.338,0.697,0.664c0.106,0.322,0.354,0.672,0.467,0.704l0,0c0.024,0,0.149-0.036,0.354-0.206c0.369-0.306,0.904-0.306,1.273,0c0.239,0.198,0.353,0.205,0.354,0.205c0.099-0.038,0.329-0.375,0.432-0.697c0.104-0.326,0.367-0.58,0.697-0.667c0.331-0.084,0.684-0.003,0.936,0.228c0.347,0.319,0.888,0.296,1.209-0.05c0.014-0.016,0.028-0.032,0.041-0.048l-0.34-2.286c-0.042-0.285,0.04-0.574,0.227-0.794s0.458-0.348,0.746-0.353c0.754-0.012,1.734-0.15,2.12-0.739c0.417-0.637,0.123-1.705-0.025-2.062c-0.091-0.219-0.103-0.467-0.03-0.693c0.995-3.111,0.871-5.553-0.367-7.256c-2.054-2.824-6.592-2.873-6.638-2.873c-0.042,0-4.584,0.049-6.646,2.877c-1.242,1.703-1.373,4.144-0.388,7.254c0.072,0.229,0.061,0.475-0.033,0.695c-0.147,0.354-0.441,1.423-0.023,2.061c0.384,0.586,1.359,0.724,2.109,0.736c0.287,0.005,0.559,0.133,0.744,0.352c0.187,0.219,0.27,0.507,0.229,0.791l-0.33,2.288c0.233,0.296,0.646,0.411,1.004,0.259c0.092-0.039,0.175-0.092,0.247-0.158C13.081,24.537,13.324,24.444,13.572,24.444z"/><path d="M12.099,18.021c-0.242,0-0.485-0.036-0.727-0.112c-0.749-0.235-1.345-0.837-1.637-1.651c-0.261-0.729-0.265-1.573-0.012-2.378l0,0c0.253-0.805,0.739-1.496,1.37-1.944c0.707-0.5,1.542-0.651,2.287-0.417c1.487,0.468,2.212,2.237,1.649,4.029C14.558,17.049,13.353,18.021,12.099,18.021z M12.665,13.409c-0.163,0-0.322,0.093-0.413,0.158c-0.272,0.194-0.499,0.526-0.62,0.913c0,0,0,0,0,0c-0.122,0.386-0.127,0.788-0.014,1.104c0.046,0.129,0.153,0.354,0.354,0.417c0.357,0.114,0.92-0.316,1.15-1.053c0.231-0.736,0.011-1.411-0.341-1.521C12.743,13.414,12.704,13.409,12.665,13.409z M10.678,14.179h0.01H10.678z"/><path d="M20.154,18.02c-1.253,0-2.458-0.97-2.931-2.469c-0.565-1.791,0.155-3.561,1.642-4.031c0.001,0,0.001,0,0.001,0c1.481-0.468,3.095,0.565,3.659,2.356c0.565,1.791-0.155,3.561-1.642,4.031C20.642,17.983,20.396,18.02,20.154,18.02z M19.468,13.427c-0.351,0.111-0.569,0.785-0.338,1.521c0.233,0.737,0.806,1.158,1.151,1.051c0.351-0.111,0.57-0.785,0.338-1.521C20.387,13.743,19.82,13.318,19.468,13.427z"/><path d="M16.973,22.674c-0.203,0-0.406-0.062-0.58-0.186c-0.252-0.179-0.588-0.179-0.84,0c-0.356,0.253-0.836,0.246-1.185-0.018c-0.349-0.264-0.484-0.724-0.336-1.136l0.812-2.253c0.032-0.089,0.076-0.174,0.133-0.251c0.098-0.133,0.466-0.557,1.071-0.539c0.402,0.019,0.761,0.243,0.983,0.617c0.034,0.056,0.062,0.116,0.084,0.178l0.8,2.253c0.146,0.411,0.009,0.87-0.34,1.133C17.397,22.606,17.185,22.674,16.973,22.674z"/><path d="M25.886,7.425c-0.25,0-0.5-0.093-0.694-0.28c-0.397-0.383-0.409-1.016-0.025-1.414l2.67-2.77c0.385-0.397,1.017-0.409,1.414-0.026s0.409,1.016,0.025,1.414l-2.67,2.77C26.409,7.323,26.147,7.425,25.886,7.425z"/><path d="M31,4.656h-2.444c-0.553,0-1-0.448-1-1s0.447-1,1-1H31c0.553,0,1,0.448,1,1S31.553,4.656,31,4.656z"/><path d="M28.556,4.656c-0.553,0-1-0.448-1-1V1c0-0.552,0.447-1,1-1s1,0.448,1,1v2.656C29.556,4.208,29.108,4.656,28.556,4.656z"/><path d="M4.044,29.4c-0.25,0-0.5-0.093-0.694-0.28c-0.397-0.383-0.409-1.016-0.025-1.414l2.07-2.147c0.384-0.396,1.017-0.408,1.414-0.025c0.397,0.383,0.409,1.016,0.025,1.414l-2.07,2.147C4.567,29.297,4.306,29.4,4.044,29.4z"/><path d="M4.044,32c-0.553,0-1-0.448-1-1v-2.6c0-0.552,0.447-1,1-1s1,0.448,1,1V31C5.044,31.552,4.597,32,4.044,32z"/><path d="M4.044,29.4H1c-0.553,0-1-0.448-1-1s0.447-1,1-1h3.044c0.553,0,1,0.448,1,1S4.597,29.4,4.044,29.4z"/><path d="M6.114,7.425c-0.262,0-0.523-0.103-0.72-0.306l-2.67-2.77C2.341,3.952,2.353,3.319,2.75,2.936c0.398-0.382,1.03-0.372,1.414,0.026l2.67,2.77c0.384,0.397,0.372,1.03-0.025,1.414C6.614,7.332,6.364,7.425,6.114,7.425z"/><path d="M3.444,4.656H1c-0.553,0-1-0.448-1-1s0.447-1,1-1h2.444c0.553,0,1,0.448,1,1S3.997,4.656,3.444,4.656z"/><path d="M3.444,4.656c-0.553,0-1-0.448-1-1V1c0-0.552,0.447-1,1-1s1,0.448,1,1v2.656C4.444,4.208,3.997,4.656,3.444,4.656z"/><path d="M27.955,29.4c-0.262,0-0.523-0.102-0.72-0.306l-2.071-2.147c-0.384-0.397-0.372-1.031,0.025-1.414c0.398-0.382,1.031-0.372,1.414,0.025l2.071,2.147c0.384,0.397,0.372,1.031-0.025,1.414C28.455,29.307,28.205,29.4,27.955,29.4z"/><path d="M27.955,32c-0.553,0-1-0.448-1-1v-2.6c0-0.552,0.447-1,1-1s1,0.448,1,1V31C28.955,31.552,28.508,32,27.955,32z"/><path d="M31,29.4h-3.045c-0.553,0-1-0.448-1-1s0.447-1,1-1H31c0.553,0,1,0.448,1,1S31.553,29.4,31,29.4z"/></svg>