<svg xmlns="http://www.w3.org/2000/svg" viewBox="0 0 32 32"><!--! Font Icona - https://fonticona.com | License - https://fonticona.com/license | Copyright 2022 FontIcona.com --><path d="M22.199,31.991c-1.5,0-3.009-0.342-4.396-1.043c-4.645,0.562-9.164-0.995-12.46-4.291c-3.298-3.298-4.852-7.822-4.291-12.459c-1.89-3.741-1.167-8.356,1.812-11.334c2.978-2.978,7.593-3.702,11.334-1.812c4.646-0.563,9.164,0.994,12.46,4.291c3.298,3.298,4.852,7.822,4.291,12.459c1.89,3.741,1.167,8.356-1.812,11.334C27.264,31.01,24.743,31.991,22.199,31.991z M17.987,28.916c0.168,0,0.333,0.042,0.481,0.124c3.016,1.658,6.822,1.115,9.254-1.316c2.433-2.433,2.974-6.238,1.316-9.254c-0.104-0.189-0.145-0.408-0.114-0.622c0.586-4.122-0.756-8.164-3.682-11.09l0,0c-2.925-2.926-6.967-4.269-11.09-3.682c-0.217,0.027-0.433-0.01-0.622-0.114c-3.016-1.658-6.822-1.115-9.254,1.316c-2.433,2.433-2.974,6.238-1.316,9.254c0.104,0.189,0.145,0.408,0.114,0.622c-0.586,4.122,0.756,8.164,3.682,11.09c2.925,2.925,6.964,4.267,11.09,3.682C17.894,28.919,17.94,28.916,17.987,28.916z"/><path d="M16.184,24.915c-2.911,0-5.355-1.686-6.549-3.002c-0.371-0.409-0.34-1.042,0.069-1.412c0.408-0.37,1.04-0.34,1.411,0.067l0,0c0.166,0.181,4.094,4.372,8.66,1.103c0.164-0.163,1.012-1.052,0.82-1.845c-0.185-0.767-1.397-1.51-3.327-2.039l-0.956-0.242c-0.064-0.003-0.128-0.013-0.192-0.029l-1.898-0.48c-2.799-0.766-4.396-1.949-4.766-3.519c-0.482-2.047,1.382-3.745,1.462-3.816c0.028-0.025,0.058-0.048,0.088-0.07c4.844-3.438,9.544-0.628,11.354,1.339c0.373,0.407,0.348,1.039-0.06,1.413c-0.404,0.374-1.038,0.349-1.413-0.059c-0.163-0.176-4.091-4.296-8.666-1.104c-0.173,0.172-1.008,1.054-0.817,1.842c0.185,0.767,1.397,1.51,3.327,2.039l0.956,0.242c0.064,0.003,0.128,0.013,0.192,0.029l1.898,0.48c2.799,0.766,4.396,1.949,4.766,3.519c0.482,2.047-1.382,3.745-1.462,3.816c-0.025,0.022-0.052,0.044-0.079,0.063C19.345,24.457,17.7,24.915,16.184,24.915z"/></svg>