<svg xmlns="http://www.w3.org/2000/svg" viewBox="0 0 32 32"><!--! Font Icona - https://fonticona.com | License - https://fonticona.com/license | Copyright 2022 FontIcona.com --><path d="M5.409,16.197c-0.5,0-1-0.001-1.5-0.005c-0.962-0.008-1.823-0.341-2.559-0.989c-0.52-0.458-0.895-1.024-1.116-1.682c-0.159-0.472-0.23-0.908-0.218-1.333c0.008-0.278,0.05-0.564,0.126-0.876c0.123-0.5,0.34-0.962,0.646-1.371C1.175,9.425,1.663,9.018,2.24,8.732c0.191-0.095,0.39-0.16,0.589-0.22C2.902,8.489,2.976,8.468,3.048,8.44L3.34,8.375l0.207-0.021c0.196-0.021,0.393-0.039,0.589-0.04c2.373-0.004,4.746-0.004,7.117,0c0.321,0.001,0.602,0.029,0.857,0.086c0.734,0.166,1.36,0.48,1.862,0.936c0.509,0.462,0.884,1.037,1.115,1.71c0.185,0.538,0.235,1.112,0.155,1.756c-0.096,0.774-0.417,1.468-0.954,2.062c-0.166,0.183-0.424,0.451-0.764,0.672c-0.229,0.149-0.487,0.28-0.788,0.401c-0.319,0.127-0.617,0.176-0.879,0.219c-0.217,0.036-0.351,0.042-0.471,0.038l-3.739,0v0l-1.118,0.001C6.156,16.196,5.782,16.197,5.409,16.197z M3.626,10.356c-0.078,0.026-0.146,0.048-0.215,0.069c-0.095,0.029-0.192,0.054-0.283,0.099c-0.297,0.147-0.539,0.349-0.738,0.615c-0.146,0.195-0.246,0.408-0.305,0.65c-0.043,0.175-0.066,0.325-0.07,0.459c-0.005,0.182,0.032,0.39,0.114,0.635c0.109,0.326,0.287,0.594,0.543,0.82c0.369,0.325,0.779,0.485,1.252,0.489c0.866,0.007,1.734,0.004,2.601,0.004l4.942-0.001c0.251-0.042,0.411-0.068,0.525-0.114c0.177-0.071,0.321-0.143,0.439-0.22c0.112-0.073,0.228-0.177,0.373-0.338c0.258-0.286,0.407-0.603,0.452-0.966c0.042-0.335,0.021-0.616-0.062-0.86c-0.122-0.355-0.308-0.643-0.567-0.878c-0.247-0.224-0.56-0.376-0.957-0.466c-0.111-0.025-0.25-0.037-0.423-0.038c-2.369-0.004-4.74-0.004-7.11,0c-0.127,0-0.256,0.016-0.384,0.029L3.626,10.356z"/><path d="M19.699,15.282c-0.093,0-0.186-0.003-0.279-0.01c-0.608-0.043-1.183-0.224-1.708-0.537c-0.684-0.407-1.203-0.962-1.541-1.649c-0.274-0.557-0.413-1.14-0.412-1.732c0.004-2.478,0.004-4.954,0-7.431c-0.001-0.713,0.187-1.387,0.56-2.004c0.394-0.65,0.938-1.153,1.618-1.494c0.685-0.344,1.42-0.48,2.182-0.405c0.518,0.052,1.013,0.209,1.474,0.469c0.836,0.47,1.438,1.157,1.788,2.043c0.177,0.45,0.259,0.925,0.259,1.499l-0.001,7.193c0,0.215-0.003,0.429-0.027,0.641c-0.039,0.342-0.133,0.683-0.28,1.011c-0.374,0.838-0.958,1.48-1.737,1.91C20.997,15.116,20.361,15.282,19.699,15.282z M19.714,2c-0.307,0-0.597,0.07-0.88,0.212c-0.343,0.172-0.606,0.415-0.804,0.742c-0.183,0.303-0.272,0.619-0.271,0.966c0.003,2.479,0.003,4.958,0,7.437c0,0.287,0.067,0.563,0.207,0.847c0.167,0.338,0.418,0.604,0.769,0.813c0.255,0.152,0.533,0.239,0.826,0.26c0.379,0.029,0.725-0.054,1.068-0.243c0.4-0.221,0.679-0.53,0.877-0.974c0.063-0.142,0.104-0.284,0.119-0.423c0.016-0.138,0.014-0.278,0.015-0.417L21.64,4.03c0-0.314-0.038-0.557-0.12-0.764c-0.182-0.459-0.47-0.788-0.908-1.034c-0.22-0.124-0.452-0.198-0.692-0.222C19.851,2.003,19.782,2,19.714,2z"/><path d="M26.8,15.282c-0.296,0-0.592,0-0.888-0.001l-0.675,0c-0.075,0-0.14-0.006-0.214-0.015l-0.888-0.1l-0.057-1.891l0.001-1.923c0.003-0.606,0.132-1.177,0.384-1.697c0.413-0.85,1.038-1.477,1.858-1.863c0.26-0.123,0.545-0.246,0.865-0.317c0.356-0.08,0.699-0.108,1.02-0.087c0.898,0.063,1.681,0.369,2.327,0.909c0.497,0.415,0.874,0.919,1.122,1.501c0.139,0.326,0.211,0.639,0.263,0.902c0.061,0.308,0.08,0.583,0.058,0.845c-0.017,0.2-0.054,0.398-0.093,0.595c-0.101,0.507-0.28,0.928-0.564,1.361c-0.239,0.365-0.526,0.679-0.854,0.934c-0.376,0.292-0.792,0.513-1.236,0.658c-0.375,0.122-0.72,0.182-1.054,0.185C27.716,15.281,27.258,15.282,26.8,15.282z M26.079,13.281c0.693-0.001,1.388,0.001,2.082-0.003c0.126-0.001,0.274-0.029,0.451-0.087c0.223-0.072,0.434-0.185,0.625-0.334c0.154-0.12,0.289-0.268,0.409-0.452c0.143-0.218,0.225-0.4,0.26-0.576c0.041-0.204,0.067-0.326,0.078-0.45c0.006-0.074-0.003-0.169-0.027-0.292c-0.032-0.161-0.074-0.348-0.141-0.505c-0.125-0.293-0.31-0.539-0.564-0.751c-0.321-0.268-0.709-0.415-1.186-0.449c-0.124-0.008-0.277,0.007-0.441,0.043c-0.13,0.029-0.293,0.102-0.45,0.176c-0.402,0.189-0.7,0.492-0.91,0.926c-0.122,0.251-0.182,0.524-0.184,0.833L26.079,13.281z"/><path d="M10.206,7.861c-0.148,0-0.29-0.006-0.443-0.036C9.536,7.782,9.31,7.714,9.089,7.636c-0.535-0.188-1.013-0.488-1.42-0.892c-0.402-0.399-0.712-0.877-0.924-1.42c-0.222-0.568-0.293-1.19-0.22-1.901c0.047-0.458,0.195-0.91,0.439-1.345c0.391-0.695,0.93-1.231,1.603-1.592c0.72-0.385,1.49-0.536,2.286-0.446c0.745,0.083,1.411,0.354,1.981,0.809c0.642,0.511,1.089,1.153,1.33,1.91c0.119,0.375,0.176,0.739,0.176,1.116l0,3.986l-3.982,0C10.306,7.86,10.256,7.861,10.206,7.861z M10.414,2.015c-0.312,0-0.609,0.078-0.902,0.234c-0.336,0.18-0.599,0.445-0.803,0.808C8.599,3.252,8.534,3.444,8.515,3.629C8.474,4.022,8.504,4.33,8.608,4.599c0.111,0.285,0.265,0.523,0.47,0.726c0.193,0.192,0.42,0.335,0.674,0.424c0.127,0.045,0.256,0.087,0.387,0.112c0.032,0.002,0.076,0,0.119,0l2.082,0l0-1.989c0-0.167-0.026-0.332-0.082-0.506c-0.12-0.377-0.339-0.689-0.669-0.952c-0.271-0.215-0.593-0.345-0.957-0.385C10.558,2.019,10.485,2.015,10.414,2.015z"/><path d="M24.306,23.688c-1.187,0-2.373-0.001-3.559-0.003c-0.321-0.001-0.602-0.029-0.857-0.086c-0.734-0.166-1.36-0.48-1.862-0.936c-0.509-0.462-0.884-1.037-1.115-1.71c-0.185-0.538-0.235-1.112-0.155-1.756c0.096-0.774,0.417-1.468,0.954-2.062c0.261-0.289,0.504-0.502,0.764-0.672c0.229-0.149,0.486-0.28,0.786-0.4c0.321-0.128,0.618-0.176,0.88-0.219c0.218-0.035,0.351-0.044,0.472-0.038l3.739,0v0l1.118-0.001c0.875-0.001,1.748-0.003,2.621,0.004c0.963,0.008,1.824,0.341,2.559,0.989c0.519,0.458,0.895,1.023,1.116,1.682c0.159,0.472,0.23,0.908,0.218,1.333c-0.008,0.278-0.05,0.564-0.126,0.876c-0.123,0.5-0.34,0.962-0.646,1.371c-0.387,0.517-0.875,0.923-1.452,1.209c-0.191,0.095-0.39,0.16-0.589,0.22c-0.073,0.022-0.147,0.044-0.219,0.071l-0.292,0.065l-0.207,0.021c-0.196,0.021-0.393,0.039-0.588,0.04C26.679,23.687,25.492,23.688,24.306,23.688z M20.532,17.806c-0.252,0.042-0.411,0.068-0.526,0.114c-0.151,0.061-0.3,0.13-0.438,0.22c-0.112,0.073-0.23,0.18-0.372,0.337c-0.259,0.287-0.408,0.604-0.453,0.967c-0.042,0.335-0.021,0.616,0.062,0.86c0.122,0.355,0.308,0.643,0.567,0.878c0.247,0.224,0.56,0.376,0.957,0.466c0.111,0.025,0.25,0.037,0.423,0.038c2.369,0.004,4.74,0.004,7.11,0c0.127,0,0.255-0.016,0.383-0.029l0.129-0.013c0.078-0.026,0.146-0.048,0.215-0.069c0.095-0.029,0.192-0.054,0.283-0.099c0.297-0.147,0.539-0.349,0.738-0.615c0.146-0.195,0.246-0.408,0.305-0.65c0.043-0.175,0.066-0.325,0.07-0.459c0.005-0.182-0.032-0.39-0.114-0.635c-0.109-0.326-0.287-0.594-0.543-0.819c-0.369-0.326-0.779-0.485-1.252-0.489c-0.867-0.007-1.734-0.005-2.601-0.004L20.532,17.806z"/><path d="M12.287,32c-0.134,0-0.269-0.006-0.405-0.02c-0.518-0.052-1.013-0.209-1.474-0.469c-0.836-0.47-1.438-1.157-1.788-2.043c-0.177-0.45-0.259-0.925-0.259-1.499l0.001-7.193c0-0.215,0.003-0.429,0.027-0.641c0.039-0.342,0.133-0.683,0.28-1.011c0.374-0.838,0.958-1.48,1.736-1.91c0.682-0.376,1.412-0.537,2.175-0.487c0.608,0.043,1.183,0.224,1.708,0.537c0.684,0.407,1.203,0.962,1.541,1.649c0.274,0.557,0.413,1.14,0.412,1.732c-0.004,2.478-0.004,4.954,0,7.431c0.001,0.713-0.188,1.388-0.561,2.005c-0.392,0.649-0.937,1.151-1.617,1.493C13.5,31.858,12.904,32,12.287,32z M12.302,18.718c-0.324,0-0.629,0.082-0.931,0.248c-0.399,0.221-0.678,0.53-0.876,0.974c-0.063,0.142-0.104,0.284-0.119,0.423c-0.016,0.138-0.014,0.278-0.015,0.417L10.36,27.97c0,0.314,0.038,0.557,0.12,0.764c0.182,0.459,0.47,0.788,0.908,1.034c0.22,0.124,0.452,0.198,0.692,0.222c0.386,0.037,0.74-0.028,1.086-0.202c0.343-0.172,0.605-0.415,0.803-0.741c0.184-0.304,0.273-0.62,0.272-0.967c-0.003-2.479-0.003-4.958,0-7.437c0-0.287-0.067-0.563-0.207-0.847c-0.167-0.338-0.418-0.604-0.769-0.813c-0.255-0.152-0.533-0.239-0.826-0.26C12.394,18.719,12.347,18.718,12.302,18.718z"/><path d="M4.007,24.619c-0.072,0-0.144-0.002-0.213-0.007c-0.897-0.063-1.68-0.369-2.327-0.909c-0.497-0.415-0.874-0.919-1.122-1.501c-0.139-0.323-0.211-0.637-0.263-0.902c-0.061-0.308-0.08-0.583-0.058-0.845c0.017-0.2,0.054-0.398,0.093-0.595c0.101-0.507,0.28-0.928,0.564-1.361c0.239-0.365,0.526-0.679,0.854-0.934c0.376-0.292,0.792-0.513,1.236-0.658c0.375-0.122,0.72-0.182,1.054-0.185c0.754-0.004,1.508-0.004,2.262-0.003l0.675,0c0.075,0,0.14,0.006,0.214,0.015l0.888,0.1l0.057,1.891L7.92,20.648c-0.003,0.606-0.132,1.177-0.384,1.697c-0.413,0.85-1.038,1.477-1.858,1.863c-0.26,0.123-0.545,0.246-0.865,0.317C4.534,24.588,4.264,24.619,4.007,24.619z M5.197,18.718c-0.453,0-0.905,0.001-1.358,0.004c-0.126,0.001-0.274,0.029-0.451,0.087c-0.223,0.072-0.434,0.185-0.625,0.334c-0.154,0.12-0.289,0.268-0.409,0.452c-0.143,0.218-0.225,0.4-0.26,0.576c-0.041,0.204-0.067,0.326-0.078,0.45c-0.006,0.074,0.003,0.169,0.027,0.292c0.034,0.17,0.074,0.349,0.14,0.503c0.126,0.295,0.31,0.541,0.565,0.753c0.321,0.268,0.709,0.415,1.186,0.449c0.121,0.007,0.276-0.006,0.441-0.043c0.13-0.029,0.293-0.102,0.45-0.176c0.402-0.189,0.7-0.492,0.91-0.926c0.122-0.251,0.182-0.524,0.184-0.833l0.001-1.921C5.68,18.719,5.438,18.718,5.197,18.718z"/><path d="M21.589,31.985c-0.146,0-0.293-0.008-0.441-0.025c-0.745-0.083-1.411-0.354-1.981-0.809c-0.642-0.511-1.09-1.154-1.33-1.911c-0.119-0.374-0.176-0.739-0.176-1.115l0-3.986l3.982,0c0.205-0.003,0.39-0.005,0.595,0.034c0.227,0.043,0.453,0.111,0.673,0.189c0.535,0.188,1.013,0.488,1.42,0.892c0.402,0.399,0.712,0.877,0.924,1.42c0.222,0.568,0.293,1.19,0.22,1.901c-0.047,0.458-0.195,0.91-0.439,1.345c-0.391,0.695-0.93,1.231-1.603,1.592C22.847,31.828,22.229,31.985,21.589,31.985z M19.661,26.14l0,1.989c0,0.167,0.026,0.332,0.082,0.506c0.12,0.377,0.338,0.688,0.669,0.952c0.271,0.215,0.593,0.345,0.957,0.385c0.395,0.046,0.76-0.029,1.121-0.222c0.336-0.18,0.599-0.445,0.803-0.808c0.109-0.195,0.175-0.387,0.194-0.572c0.041-0.393,0.011-0.701-0.094-0.97c-0.111-0.285-0.265-0.523-0.47-0.726c-0.193-0.192-0.42-0.335-0.674-0.424c-0.127-0.045-0.256-0.087-0.387-0.112c-0.034-0.004-0.076,0-0.119,0L19.661,26.14z"/></svg>