<svg xmlns="http://www.w3.org/2000/svg" viewBox="0 0 32 32"><!--! Font Icona - https://fonticona.com | License - https://fonticona.com/license | Copyright 2022 FontIcona.com --><path d="M1.072,32c-0.479,0-0.755-0.29-0.846-0.407c-0.128-0.163-0.498-0.757,0.13-1.537l23.667-29.44c0.284-0.354,0.704-0.576,1.151-0.61c0.445-0.032,0.892,0.121,1.223,0.425l5.053,4.631c0.664,0.608,0.741,1.638,0.175,2.345l-4.5,5.597c-0.074,0.092-0.179,0.402-0.173,0.55l0.229,5.011c0.036,0.79-0.443,1.6-1.141,1.926L1.73,31.838C1.479,31.955,1.26,32,1.072,32z M25.337,2.172L4.185,28.484l21.008-9.809l-0.24-5.032c0-0.001,0-0.001,0-0.001c-0.028-0.622,0.23-1.419,0.612-1.895l4.336-5.393L25.337,2.172z"/><path d="M25.92,13.903c-0.223,0-0.446-0.074-0.632-0.226l-6.335-5.173c-0.428-0.35-0.492-0.979-0.142-1.407c0.349-0.428,0.98-0.49,1.407-0.142l6.335,5.173c0.428,0.35,0.492,0.979,0.142,1.407C26.498,13.778,26.21,13.903,25.92,13.903z"/></svg>