<svg xmlns="http://www.w3.org/2000/svg" viewBox="0 0 32 32"><!--! Font Icona - https://fonticona.com | License - https://fonticona.com/license | Copyright 2022 FontIcona.com --><path d="M29.307,14.46h-2V3.849c0-0.551-0.449-1-1-1H5.49c-0.551,0-1,0.449-1,1V14.46h-2V3.849c0-1.654,1.346-3,3-3h20.817c1.654,0,3,1.346,3,3V14.46z"/><path d="M10.943,15.292c-2.355,0-4.272-1.917-4.272-4.272s1.917-4.272,4.272-4.272s4.272,1.917,4.272,4.272S13.298,15.292,10.943,15.292z M10.943,8.749c-1.253,0-2.272,1.019-2.272,2.272s1.019,2.272,2.272,2.272s2.272-1.019,2.272-2.272S12.196,8.749,10.943,8.749z"/><path d="M20.21,15.292c-2.355,0-4.272-1.917-4.272-4.272s1.917-4.272,4.272-4.272s4.272,1.917,4.272,4.272S22.565,15.292,20.21,15.292z M20.21,8.749c-1.253,0-2.272,1.019-2.272,2.272s1.019,2.272,2.272,2.272s2.272-1.019,2.272-2.272S21.463,8.749,20.21,8.749z"/><path d="M16.597,23.646c-1.634,0-2.756-0.565-2.843-0.61c-0.49-0.254-0.681-0.858-0.426-1.348c0.253-0.487,0.853-0.679,1.342-0.43c0.133,0.067,2.969,1.423,6.012-1.395c0.404-0.375,1.037-0.352,1.413,0.055c0.375,0.405,0.351,1.038-0.055,1.413C20.064,23.161,18.11,23.646,16.597,23.646z"/><path d="M11.209,31.15c-2.409,0-5.023-1.655-6.035-3.958c-0.797-1.815-0.922-4.517-0.363-6.673c-1.356-0.615-3.735-2.102-4.704-5.223c-0.086-0.36-0.372-1.843,0.655-2.497c1.045-0.669,2.336,0.152,3.344,0.941c0.042,0.033,0.081,0.068,0.116,0.107c0.32,0.344,0.668,0.651,1.034,0.913c1.378,0.983,2.881,1.405,5.027,1.41l0.277,0c1.956,0.001,4.173,0.002,5.835,1.706l0.392,0.377c0.8-0.899,2.286-1.996,4.816-1.892c0.552,0.021,0.982,0.486,0.96,1.038c-0.021,0.552-0.458,1.021-1.038,0.96c-2.76-0.09-3.638,1.758-3.675,1.838c-0.136,0.293-0.408,0.509-0.726,0.568c-0.315,0.061-0.647-0.033-0.881-0.258l-1.259-1.214c-1.095-1.122-2.713-1.123-4.426-1.124l-0.281,0c-2.558-0.007-4.465-0.556-6.183-1.782c-0.455-0.324-0.885-0.7-1.281-1.119c-0.341-0.263-0.598-0.429-0.786-0.534c0.003,0.015,0.006,0.029,0.009,0.043c1.008,3.237,4.145,4.143,4.278,4.179c0.273,0.076,0.503,0.265,0.63,0.519s0.141,0.55,0.037,0.814c-0.694,1.754-0.683,4.489,0.023,6.097c0.865,1.967,3.199,3.011,4.746,2.714c1.137-0.216,1.742-1.094,1.799-2.607c0.05-1.107,0.019-3.167-0.279-4.014c-0.183-0.521,0.091-1.092,0.612-1.275c0.52-0.184,1.092,0.09,1.275,0.612c0.523,1.489,0.406,4.43,0.391,4.761c-0.091,2.417-1.372,4.098-3.424,4.489C11.825,31.123,11.519,31.15,11.209,31.15z"/><path d="M20.791,31.15c-0.31,0-0.616-0.027-0.916-0.084c-2.053-0.391-3.333-2.072-3.425-4.497c-0.002-0.13-0.038-2.664,0.07-4.01l1.994,0.159c-0.1,1.252-0.064,3.773-0.064,3.798c0.057,1.491,0.662,2.368,1.799,2.584c1.553,0.297,3.882-0.746,4.746-2.714c0.707-1.608,0.717-4.344,0.023-6.097c-0.105-0.265-0.092-0.562,0.037-0.817c0.128-0.255,0.359-0.443,0.634-0.517c0.128-0.036,3.247-0.936,4.284-4.223c-0.185,0.104-0.439,0.267-0.776,0.526c-0.486,0.535-3.06,3.1-7.633,3.1v-2c4.025,0,6.095-2.375,6.182-2.477c0.043-0.051,0.096-0.102,0.148-0.144c1.008-0.788,2.299-1.608,3.344-0.941c1.026,0.654,0.741,2.137,0.674,2.427c-0.982,3.171-3.366,4.672-4.723,5.292c0.559,2.156,0.434,4.858-0.363,6.674C25.814,29.495,23.2,31.15,20.791,31.15z"/></svg>