<svg xmlns="http://www.w3.org/2000/svg" viewBox="0 0 32 32"><!--! Font Icona - https://fonticona.com | License - https://fonticona.com/license | Copyright 2022 FontIcona.com --><path d="M6.556,32c-0.553,0-1-0.448-1-1V13.556c0-0.552,0.447-1,1-1s1,0.448,1,1V31C7.556,31.552,7.108,32,6.556,32z"/><path d="M6.556,8.667c-0.553,0-1-0.448-1-1V1c0-0.552,0.447-1,1-1s1,0.448,1,1v6.667C7.556,8.219,7.108,8.667,6.556,8.667z"/><path d="M6.556,14.556c-2.175,0-3.944-1.77-3.944-3.944c0-2.175,1.77-3.945,3.944-3.945s3.944,1.77,3.944,3.945C10.5,12.786,8.73,14.556,6.556,14.556z M6.556,8.667c-1.072,0-1.944,0.873-1.944,1.945s0.872,1.944,1.944,1.944S8.5,11.684,8.5,10.611S7.628,8.667,6.556,8.667z"/><path d="M16,20.333c-0.553,0-1-0.448-1-1V1c0-0.552,0.447-1,1-1s1,0.448,1,1v18.333C17,19.886,16.553,20.333,16,20.333z"/><path d="M16,32c-0.553,0-1-0.448-1-1v-5.778c0-0.552,0.447-1,1-1s1,0.448,1,1V31C17,31.552,16.553,32,16,32z"/><path d="M16,26.222c-2.175,0-3.944-1.77-3.944-3.944s1.77-3.944,3.944-3.944s3.944,1.77,3.944,3.944S18.175,26.222,16,26.222z M16,20.333c-1.072,0-1.944,0.872-1.944,1.944s0.872,1.944,1.944,1.944s1.944-0.872,1.944-1.944S17.072,20.333,16,20.333z"/><path d="M25.444,32c-0.553,0-1-0.448-1-1V18.817c0-0.552,0.447-1,1-1s1,0.448,1,1V31C26.444,31.552,25.997,32,25.444,32z"/><path d="M25.444,13.928c-0.553,0-1-0.448-1-1V1c0-0.552,0.447-1,1-1s1,0.448,1,1v11.928C26.444,13.48,25.997,13.928,25.444,13.928z"/><path d="M25.444,19.817c-2.175,0-3.944-1.77-3.944-3.945c0-2.175,1.77-3.944,3.944-3.944s3.944,1.77,3.944,3.944C29.389,18.047,27.619,19.817,25.444,19.817z M25.444,13.928c-1.072,0-1.944,0.872-1.944,1.944s0.872,1.945,1.944,1.945s1.944-0.873,1.944-1.945S26.517,13.928,25.444,13.928z"/></svg>