<svg xmlns="http://www.w3.org/2000/svg" viewBox="0 0 32 32"><!--! Font Icona - https://fonticona.com | License - https://fonticona.com/license | Copyright 2022 FontIcona.com --><path d="M13.674,21.766c-3.925,0-8.161-0.337-12.263-1.298c-0.538-0.126-0.872-0.664-0.746-1.201c0.126-0.539,0.666-0.869,1.202-0.746c12.99,3.042,27.921-0.526,28.07-0.562c0.536-0.135,1.077,0.198,1.208,0.734c0.131,0.537-0.198,1.078-0.734,1.209C29.975,20.009,22.634,21.766,13.674,21.766z"/><path d="M26.443,24.714c-0.279,0-0.52-0.007-0.704-0.016C25.73,24.7,3.651,24.7,3.41,24.701c-0.831,0.025-2.831,0.075-3.312-1.737c-0.229-0.861-0.002-1.625,0.181-2.239l0.09-0.31c0.072-0.264,0.048-0.386-0.066-0.862c-0.571-2.389,0.008-5.131,0.432-7.134c0.111-0.524,0.317-1.501,1.08-2.088C2.538,9.777,3.57,9.619,4.646,9.895c0.606,0.153,0.893-0.074,1.625-0.82c0.115-0.116,0.23-0.233,0.348-0.348c0.285-0.274,0.534-0.552,0.732-0.785c0.351-0.416,0.809-0.641,1.322-0.649c0.011-0.001,0.022-0.001,0.034-0.001c1.163,0,2.175,1.111,3.069,2.094c0.204,0.225,0.392,0.432,0.555,0.589c1.188,1.148,2.291,2.213,3.57,3.057c1.703,1.122,3.643,2.039,5.766,2.726c1.117,0.361,2.313,0.659,3.658,0.912c0.305,0.057,0.671,0.103,1.067,0.152c1.785,0.226,4.007,0.507,5.04,1.998c0.709,1.022,0.585,2.279,0.496,3.197l-0.011,0.116C31.656,24.41,28.245,24.714,26.443,24.714z M3.377,22.701l0.002,0.082C4.363,22.7,6.981,22.7,14.595,22.7h11.19c2.247,0.102,4.1-0.399,4.144-0.777l0.01-0.102c0.067-0.677,0.142-1.444-0.148-1.863c-0.525-0.758-2.404-0.995-3.647-1.152c-0.439-0.056-0.846-0.107-1.185-0.172c-1.429-0.268-2.707-0.587-3.905-0.975c-2.294-0.741-4.398-1.736-6.251-2.958c-1.435-0.946-2.656-2.126-3.837-3.267c-0.211-0.203-0.43-0.442-0.667-0.702C9.957,10.357,9.2,9.526,8.797,9.329c-0.22,0.256-0.488,0.547-0.788,0.837c-0.105,0.102-0.208,0.206-0.311,0.31c-0.75,0.764-1.778,1.809-3.549,1.356c-0.458-0.117-0.897-0.084-1.119,0.085c-0.176,0.136-0.291,0.682-0.34,0.914c-0.384,1.817-0.91,4.305-0.461,6.182c0.152,0.632,0.278,1.16,0.067,1.931l-0.102,0.352C2.04,21.814,1.95,22.148,2.03,22.45C2.097,22.702,2.785,22.719,3.377,22.701z M8.116,8.587l0.763,0.646C8.88,9.231,8.882,9.23,8.883,9.229L8.116,8.587z M8.116,8.587h0.01H8.116z"/><path d="M12.446,14.587c-0.342,0-0.676-0.176-0.862-0.492c-0.281-0.476-0.123-1.088,0.353-1.369l1.421-0.839c0.475-0.28,1.089-0.123,1.37,0.354c0.281,0.476,0.123,1.088-0.353,1.369l-1.421,0.839C12.793,14.542,12.619,14.587,12.446,14.587z"/><path d="M14.924,16.407c-0.342,0-0.676-0.176-0.862-0.492c-0.281-0.476-0.123-1.088,0.353-1.369l1.421-0.839c0.475-0.279,1.088-0.123,1.37,0.354c0.281,0.476,0.123,1.088-0.353,1.369l-1.421,0.839C15.272,16.362,15.097,16.407,14.924,16.407z"/><path d="M18.078,18.123c-0.342,0-0.676-0.176-0.862-0.492c-0.281-0.476-0.123-1.088,0.353-1.369l1.421-0.839c0.475-0.28,1.089-0.123,1.37,0.354c0.281,0.476,0.123,1.088-0.353,1.369l-1.421,0.839C18.425,18.078,18.25,18.123,18.078,18.123z"/></svg>