<svg xmlns="http://www.w3.org/2000/svg" viewBox="0 0 32 32"><!--! Font Icona - https://fonticona.com | License - https://fonticona.com/license | Copyright 2022 FontIcona.com --><path d="M13.895,19.593c-3.993,0-8.311-0.34-12.483-1.316c-0.538-0.126-0.872-0.664-0.746-1.201c0.126-0.539,0.667-0.87,1.202-0.746c12.997,3.042,28.023-0.438,28.174-0.474c0.537-0.122,1.076,0.206,1.203,0.743c0.127,0.538-0.206,1.076-0.743,1.203C30.065,17.906,22.788,19.593,13.895,19.593z"/><path d="M14.467,15.163c-0.28,0-0.559-0.117-0.756-0.346c-0.362-0.417-0.316-1.049,0.101-1.41l1.533-1.328c0.417-0.362,1.048-0.316,1.411,0.102c0.362,0.417,0.316,1.049-0.101,1.41l-1.533,1.328C14.933,15.083,14.699,15.163,14.467,15.163z"/><path d="M18.787,16.136c-0.248,0-0.495-0.091-0.689-0.275c-0.4-0.38-0.417-1.013-0.036-1.413l1.07-1.126c0.381-0.401,1.014-0.417,1.414-0.036c0.4,0.38,0.417,1.013,0.036,1.413l-1.07,1.126C19.315,16.032,19.051,16.136,18.787,16.136z"/><path d="M26.44,22.523c-0.278,0-0.517-0.008-0.701-0.016L3.404,22.508c-0.829,0.023-2.826,0.074-3.307-1.737c-0.229-0.861-0.002-1.625,0.181-2.239l0.09-0.31c0.072-0.264,0.048-0.386-0.066-0.86c-0.518-2.166-0.019-4.476,0.422-6.514l0.123-0.571C0.912,9.968,1.12,9.707,1.407,9.576c0.285-0.132,0.615-0.121,0.891,0.027c0.056,0.028,2.343,1.18,7.008,0.795c2.089-0.168,5.315,0.916,7.671,1.711c0.388,0.131,0.746,0.251,1.062,0.354c0.557,0.18,1.663,0.473,2.945,0.812c1.458,0.386,3.111,0.824,4.447,1.227c0.375,0.112,0.926,0.189,1.51,0.271c1.583,0.222,3.553,0.498,4.493,1.854c0.709,1.022,0.585,2.279,0.496,3.197l-0.011,0.116C31.656,22.219,28.241,22.523,26.44,22.523z M25.785,20.508c2.247,0.103,4.101-0.401,4.144-0.778l0.01-0.102c0.067-0.677,0.142-1.444-0.148-1.863c-0.441-0.636-1.93-0.844-3.126-1.012c-0.663-0.093-1.289-0.18-1.811-0.338c-1.302-0.393-2.938-0.825-4.381-1.208c-1.31-0.347-2.44-0.646-3.048-0.843c-0.322-0.104-0.688-0.228-1.085-0.36c-2.067-0.696-5.182-1.757-6.87-1.612c-3.343,0.271-5.634-0.172-6.911-0.561c-0.357,1.683-0.683,3.508-0.329,4.989c0.152,0.634,0.278,1.161,0.067,1.931l-0.102,0.352C2.04,19.621,1.95,19.955,2.03,20.257c0.067,0.253,0.755,0.268,1.347,0.251H25.785z"/></svg>