<svg xmlns="http://www.w3.org/2000/svg" viewBox="0 0 32 32"><!--! Font Icona - https://fonticona.com | License - https://fonticona.com/license | Copyright 2022 FontIcona.com --><path d="M14.74,32h-9c-0.36,0-0.692-0.193-0.87-0.507c-0.178-0.314-0.173-0.699,0.013-1.008L12.974,17H5.74c-0.553,0-1-0.447-1-1c0-0.553,0.447-1,1-1h9c0.36,0,0.692,0.193,0.87,0.507c0.178,0.314,0.173,0.699-0.013,1.008L7.507,30h7.233c0.553,0,1,0.447,1,1S15.293,32,14.74,32z"/><path d="M19.74,10.333h-5c-0.36,0-0.692-0.193-0.87-0.507c-0.178-0.314-0.173-0.699,0.013-1.008L17.974,2H14.74c-0.553,0-1-0.447-1-1s0.447-1,1-1h5c0.36,0,0.692,0.193,0.87,0.507c0.178,0.314,0.173,0.699-0.013,1.008l-4.091,6.818h3.233c0.553,0,1,0.447,1,1S20.293,10.333,19.74,10.333z"/><path d="M26.406,25.333h-5c-0.36,0-0.692-0.193-0.87-0.507c-0.178-0.314-0.173-0.699,0.013-1.008L24.64,17h-3.233c-0.553,0-1-0.447-1-1c0-0.553,0.447-1,1-1h5c0.36,0,0.692,0.193,0.87,0.507c0.178,0.314,0.173,0.699-0.013,1.008l-4.091,6.818h3.233c0.553,0,1,0.447,1,1S26.959,25.333,26.406,25.333z"/></svg>