<svg xmlns="http://www.w3.org/2000/svg" viewBox="0 0 32 32"><!--! Font Icona - https://fonticona.com | License - https://fonticona.com/license | Copyright 2022 FontIcona.com --><path d="M16,32c-0.553,0-1-0.448-1-1V1c0-0.552,0.447-1,1-1s1,0.448,1,1v30C17,31.552,16.553,32,16,32z"/><path d="M16,10.06c-0.255,0-0.51-0.097-0.704-0.29l-3.762-3.732c-0.393-0.389-0.395-1.022-0.006-1.414c0.39-0.393,1.024-0.394,1.414-0.006L16,7.651l3.058-3.034c0.39-0.389,1.024-0.388,1.414,0.006c0.389,0.392,0.387,1.025-0.006,1.414L16.704,9.77C16.51,9.963,16.255,10.06,16,10.06z"/><path d="M19.762,27.731c-0.257,0-0.515-0.099-0.71-0.295L16,24.36l-3.052,3.076c-0.388,0.393-1.022,0.394-1.414,0.005c-0.393-0.389-0.395-1.022-0.006-1.415l3.762-3.791c0.375-0.378,1.045-0.378,1.42,0l3.762,3.791c0.389,0.392,0.387,1.025-0.006,1.415C20.271,27.634,20.017,27.731,19.762,27.731z"/><path d="M3.177,24.781c-0.338,0-0.668-0.171-0.855-0.481c-0.287-0.472-0.137-1.087,0.336-1.374L28.306,7.364c0.473-0.285,1.088-0.136,1.373,0.336c0.287,0.472,0.137,1.087-0.336,1.374L3.694,24.636C3.532,24.734,3.354,24.781,3.177,24.781z"/><path d="M27.077,14.68c-0.08,0-0.161-0.009-0.242-0.03l-5.143-1.28c-0.533-0.132-0.859-0.67-0.731-1.204l1.24-5.152c0.13-0.538,0.674-0.865,1.207-0.738c0.536,0.129,0.867,0.669,0.738,1.206l-1.009,4.188l4.18,1.041c0.536,0.133,0.862,0.676,0.729,1.212C27.934,14.376,27.525,14.68,27.077,14.68z"/><path d="M8.778,25.782c-0.08,0-0.161-0.009-0.242-0.03C8,25.619,7.674,25.077,7.807,24.541l1.046-4.205l-4.212-1.014c-0.537-0.129-0.867-0.669-0.738-1.206c0.13-0.538,0.672-0.866,1.207-0.738l5.191,1.25c0.259,0.062,0.482,0.226,0.62,0.454c0.139,0.228,0.181,0.501,0.116,0.76l-1.289,5.182C9.635,25.479,9.227,25.782,8.778,25.782z"/><path d="M28.823,24.781c-0.177,0-0.355-0.047-0.518-0.145L2.657,9.074C2.185,8.788,2.034,8.173,2.321,7.701c0.285-0.473,0.901-0.622,1.373-0.336l25.648,15.562c0.473,0.287,0.623,0.901,0.336,1.374C29.491,24.609,29.161,24.781,28.823,24.781z"/><path d="M4.923,14.68c-0.448,0-0.856-0.304-0.97-0.758c-0.133-0.536,0.193-1.079,0.729-1.212l4.18-1.041L7.854,7.481C7.725,6.945,8.056,6.405,8.592,6.275C9.134,6.147,9.67,6.477,9.799,7.014l1.24,5.152c0.128,0.534-0.198,1.072-0.731,1.204l-5.143,1.28C5.084,14.67,5.003,14.68,4.923,14.68z"/><path d="M23.222,25.782c-0.448,0-0.856-0.304-0.97-0.759l-1.289-5.182c-0.064-0.258-0.022-0.532,0.116-0.76c0.138-0.228,0.361-0.391,0.62-0.454l5.191-1.25c0.536-0.128,1.078,0.2,1.207,0.738c0.129,0.537-0.201,1.077-0.738,1.206l-4.212,1.014l1.046,4.205c0.133,0.536-0.193,1.078-0.729,1.211C23.383,25.773,23.302,25.782,23.222,25.782z"/></svg>