<svg xmlns="http://www.w3.org/2000/svg" viewBox="0 0 32 32"><!--! Font Icona - https://fonticona.com | License - https://fonticona.com/license | Copyright 2022 FontIcona.com --><path d="M25.76,15.533c-0.466,0-0.883-0.327-0.979-0.801c-0.488-2.404-1.449-5.669-1.458-5.701c-0.024-0.064-0.09-0.112-0.125-0.118L8.762,8.914c0.005,0.005-0.061,0.053-0.077,0.084c-0.017,0.065-0.978,3.332-1.466,5.734c-0.11,0.541-0.638,0.885-1.179,0.781c-0.541-0.11-0.891-0.639-0.781-1.18c0.505-2.488,1.46-5.732,1.5-5.869c0.194-0.828,1.046-1.518,1.967-1.55l14.511-0.001c0.957,0.033,1.809,0.723,2.017,1.604c0.026,0.083,0.981,3.327,1.486,5.815c0.11,0.541-0.24,1.069-0.781,1.18C25.893,15.526,25.826,15.533,25.76,15.533z"/><path d="M3.725,19.426c0,0-0.001,0-0.002,0c-0.552-0.001-0.999-0.449-0.998-1.002l0.002-1.06c-0.007-0.039-0.071-1.17,0.899-2.271c1.083-1.229,2.98-1.91,5.636-2.023L16,13.068c0.552,0,1,0.447,1,1s-0.448,1-1,1H9.304c-4.566,0.195-4.581,2.16-4.579,2.243l0,1.116C4.724,18.979,4.276,19.426,3.725,19.426z"/><path d="M28.275,19.426c-0.551,0-0.999-0.446-1-0.998l-0.002-1.06c0.003-0.14-0.012-2.104-4.62-2.301L16,15.068c-0.552,0-1-0.447-1-1s0.448-1,1-1h6.696c2.699,0.114,4.595,0.795,5.679,2.024c0.97,1.102,0.906,2.232,0.896,2.357l0.005,0.974c0.001,0.553-0.446,1.001-0.998,1.002C28.277,19.426,28.276,19.426,28.275,19.426z"/><path d="M3.905,17.103h-1.23c-1.393,0-2.526-1.15-2.526-2.564v-0.149c0-1.414,1.133-2.564,2.526-2.564h2.107c1.113,0,2.083,0.727,2.414,1.809c0.161,0.527-0.136,1.087-0.664,1.248c-0.528,0.162-1.087-0.136-1.249-0.664c-0.07-0.231-0.276-0.393-0.501-0.393H2.675c-0.285,0-0.526,0.259-0.526,0.564v0.149c0,0.306,0.241,0.564,0.526,0.564h1.23c0.552,0,1,0.447,1,1S4.458,17.103,3.905,17.103z"/><path d="M29.344,17.103h-1.222c-0.552,0-1-0.447-1-1s0.448-1,1-1h1.222c0.29,0,0.534-0.259,0.534-0.564v-0.149c0-0.306-0.245-0.564-0.534-0.564h-2.119c-0.229,0-0.438,0.162-0.509,0.395c-0.163,0.527-0.726,0.823-1.25,0.662c-0.528-0.162-0.825-0.722-0.663-1.25c0.332-1.08,1.305-1.807,2.421-1.807h2.119c1.397,0,2.534,1.15,2.534,2.564v0.149C31.878,15.952,30.742,17.103,29.344,17.103z"/><ellipse cx="8.532" cy="17.778" rx="1.542" ry="1.489"/><ellipse cx="23.565" cy="17.778" rx="1.542" ry="1.489"/><path d="M17.126,28.372H1c-0.449,0-0.842-0.299-0.963-0.73c-0.121-0.432,0.061-0.892,0.444-1.124c1.424-0.864,1.885-2.053,2.021-2.897c0.208-1.289-0.192-2.675-1.071-3.705c-0.253-0.297-0.31-0.714-0.146-1.067c0.163-0.354,0.518-0.581,0.908-0.581h14.934c0.552,0,1,0.447,1,1s-0.448,1-1,1H3.985c0.508,1.155,0.69,2.441,0.492,3.672c-0.143,0.887-0.475,1.71-0.972,2.434h13.621c0.552,0,1,0.447,1,1S17.678,28.372,17.126,28.372z"/><path d="M31,28.372H14.874c-0.552,0-1-0.447-1-1s0.448-1,1-1h13.621c-0.497-0.724-0.829-1.547-0.972-2.434c-0.198-1.23-0.017-2.517,0.492-3.672H14.874c-0.552,0-1-0.447-1-1s0.448-1,1-1h14.934c0.39,0,0.745,0.227,0.908,0.581c0.164,0.354,0.106,0.771-0.146,1.067c-0.878,1.03-1.279,2.416-1.071,3.705c0.136,0.845,0.597,2.033,2.021,2.897c0.383,0.232,0.565,0.692,0.444,1.124C31.842,28.073,31.449,28.372,31,28.372z"/><path d="M17.281,8.914h-2.562c-0.61,0-1.147-0.25-1.475-0.687c-0.297-0.396-0.386-0.905-0.243-1.396l0.49-1.682c0.252-0.868,1.191-1.522,2.185-1.522h0.649c0.993,0,1.932,0.654,2.185,1.522l0.49,1.682c0.143,0.49,0.054,0.999-0.243,1.396C18.429,8.664,17.891,8.914,17.281,8.914z M17.079,7.393h0.01H17.079z M17.079,7.392C17.079,7.392,17.079,7.392,17.079,7.392L17.079,7.392L17.079,7.392z M14.921,7.39l0,0.002C14.921,7.392,14.921,7.391,14.921,7.39z M15.059,6.913l1.881,0.001l-0.351-1.205c-0.013,0-0.144-0.081-0.265-0.081h-0.649c-0.121,0-0.252,0.081-0.283,0.125L15.059,6.913z"/></svg>