<svg xmlns="http://www.w3.org/2000/svg" viewBox="0 0 32 32"><!--! Font Icona - https://fonticona.com | License - https://fonticona.com/license | Copyright 2022 FontIcona.com --><path d="M16,32c-4.753,0-8.621-3.867-8.621-8.621c0-3.272,1.816-6.223,4.74-7.699l0.901,1.785c-2.246,1.134-3.641,3.4-3.641,5.914C9.379,27.03,12.35,30,16,30s6.621-2.97,6.621-6.621c0-2.511-1.394-4.777-3.637-5.912l0.903-1.784c2.92,1.478,4.734,4.426,4.734,7.696C24.621,28.133,20.753,32,16,32z"/><circle cx="15.857" cy="22.367" r="1.25"/><circle cx="15.857" cy="26.636" r="1.25"/><circle cx="14.436" cy="12.335" r="1.004"/><circle cx="17.632" cy="12.335" r="1.004"/><circle cx="16.005" cy="14.395" r="0.747"/><path d="M22.931,21.173c-0.265,0-0.528-0.105-0.725-0.312c-0.377-0.4-0.359-1.031,0.041-1.408l4.057-3.828c0.4-0.377,1.03-0.359,1.408,0.041c0.377,0.4,0.359,1.031-0.041,1.408l-4.057,3.828C23.422,21.083,23.176,21.173,22.931,21.173z"/><path d="M27.265,17.064c-0.49,0-0.917-0.362-0.985-0.862l-0.33-2.423c-0.074-0.545,0.308-1.047,0.853-1.121c0.538-0.076,1.047,0.307,1.121,0.853l0.33,2.423c0.074,0.545-0.308,1.047-0.853,1.121C27.355,17.061,27.31,17.064,27.265,17.064z"/><path d="M27.266,17.064c-0.242,0-0.484-0.088-0.676-0.265c-0.404-0.374-0.428-1.004-0.055-1.408l2.007-2.171c0.375-0.403,1.004-0.426,1.408-0.055c0.404,0.374,0.428,1.004,0.055,1.408l-2.007,2.171C27.801,16.956,27.534,17.064,27.266,17.064z"/><path d="M29.559,17.735c-0.093,0-0.187-0.013-0.28-0.041l-2.292-0.671c-0.528-0.154-0.831-0.708-0.676-1.235s0.709-0.828,1.235-0.676l2.292,0.671c0.528,0.154,0.831,0.708,0.676,1.235C30.387,17.454,29.989,17.735,29.559,17.735z"/><path d="M9.069,21.173c-0.246,0-0.491-0.09-0.684-0.271l-4.057-3.828c-0.4-0.377-0.418-1.008-0.041-1.408c0.378-0.4,1.008-0.418,1.408-0.041l4.057,3.828c0.4,0.377,0.418,1.008,0.041,1.408C9.598,21.068,9.334,21.173,9.069,21.173z"/><path d="M4.735,17.064c-0.045,0-0.09-0.003-0.136-0.009c-0.545-0.074-0.927-0.576-0.853-1.121l0.33-2.423c0.074-0.545,0.58-0.927,1.121-0.853c0.545,0.074,0.927,0.576,0.853,1.121l-0.33,2.423C5.653,16.702,5.226,17.064,4.735,17.064z"/><path d="M4.734,17.064c-0.268,0-0.536-0.107-0.732-0.32l-2.007-2.171c-0.373-0.404-0.349-1.034,0.055-1.408c0.404-0.371,1.035-0.349,1.408,0.055l2.007,2.171c0.373,0.404,0.349,1.034-0.055,1.408C5.218,16.976,4.976,17.064,4.734,17.064z"/><path d="M2.441,17.735c-0.431,0-0.828-0.282-0.955-0.716c-0.155-0.528,0.148-1.081,0.676-1.235l2.292-0.671c0.526-0.152,1.082,0.148,1.235,0.676c0.155,0.528-0.148,1.081-0.676,1.235l-2.292,0.671C2.628,17.722,2.534,17.735,2.441,17.735z"/><path d="M15.768,10.997c-1.979,0-7.155-0.223-7.179-2.537C8.576,7.196,9.926,6.365,12.6,5.99l0.27,1.92c-1.008,0.142-1.635,0.333-1.997,0.491c0.798,0.314,2.571,0.694,5.133,0.656c2.523-0.025,4.284-0.42,5.09-0.749c-0.367-0.146-0.982-0.317-1.943-0.439l0.245-1.923c2.649,0.337,3.999,1.132,4.011,2.362c0.015,1.433-1.949,1.956-2.595,2.127c-1.29,0.343-2.99,0.542-4.789,0.56C15.947,10.996,15.861,10.997,15.768,10.997z"/><path d="M15.902,8.27c-1.161,0-2.319-0.114-3.378-0.342c-0.54-0.116-0.883-0.648-0.767-1.188s0.644-0.881,1.188-0.767c1.885,0.407,4.225,0.392,6.107-0.038c0.536-0.126,1.074,0.213,1.197,0.751c0.124,0.539-0.213,1.075-0.751,1.198C18.374,8.141,17.137,8.27,15.902,8.27z"/><path d="M11.742,7.577l-0.665-5.458c-0.03-0.596,0.163-1.109,0.521-1.486s0.861-0.594,1.381-0.597L18.945,0c0.004,0,0.008,0,0.012,0c0.515,0,1.015,0.211,1.375,0.58c0.363,0.372,0.562,0.883,0.545,1.402l-0.607,5.542l-1.988-0.219l0.587-5.329l-5.788,0.059l0.646,5.3L11.742,7.577z"/><path d="M16,19.006c-3.215,0-5.831-2.616-5.831-5.831c0-1.434,0.525-2.812,1.479-3.881l1.492,1.332c-0.626,0.702-0.972,1.607-0.972,2.549c0,2.112,1.718,3.831,3.831,3.831s3.831-1.718,3.831-3.831c0-0.965-0.36-1.886-1.013-2.595l1.47-1.355c0.996,1.079,1.543,2.482,1.543,3.951C21.831,16.39,19.215,19.006,16,19.006z"/></svg>