<svg xmlns="http://www.w3.org/2000/svg" viewBox="0 0 32 32"><!--! Font Icona - https://fonticona.com | License - https://fonticona.com/license | Copyright 2022 FontIcona.com --><path d="M16,32C7.178,32,0,24.822,0,16S7.178,0,16,0s16,7.178,16,16S24.822,32,16,32z M16,2C8.28,2,2,8.28,2,16s6.28,14,14,14s14-6.28,14-14S23.72,2,16,2z"/><path d="M19.757,22.9h-7.15c-0.424,0-0.801-0.267-0.943-0.667L9.168,15.18c-0.137-0.388-0.022-0.82,0.289-1.09l5.878-5.087c0.366-0.315,0.903-0.325,1.279-0.024l6.059,4.847c0.322,0.258,0.453,0.687,0.33,1.081L20.711,22.2C20.58,22.617,20.194,22.9,19.757,22.9z M13.313,20.9h5.709l1.866-5.941l-4.875-3.899l-4.733,4.096L13.313,20.9z"/><path d="M10.111,15.847c-0.113,0-0.227-0.02-0.339-0.06l-3.707-1.335c-0.52-0.188-0.789-0.76-0.602-1.28c0.187-0.521,0.761-0.788,1.28-0.602l3.707,1.335c0.52,0.188,0.789,0.76,0.602,1.28C10.905,15.593,10.521,15.847,10.111,15.847z"/><path d="M6.404,14.511c-0.419,0-0.809-0.265-0.949-0.685l-2.24-6.726C3.041,6.577,3.324,6.01,3.848,5.836c0.526-0.175,1.09,0.109,1.265,0.633l2.24,6.726c0.174,0.524-0.109,1.09-0.633,1.265C6.615,14.495,6.509,14.511,6.404,14.511z"/><path d="M1.061,18.351c-0.311,0-0.618-0.145-0.813-0.416c-0.322-0.449-0.22-1.074,0.229-1.396l5.344-3.84c0.449-0.323,1.073-0.221,1.396,0.229c0.322,0.449,0.22,1.073-0.229,1.396l-5.344,3.84C1.467,18.29,1.263,18.351,1.061,18.351z"/><path d="M22.047,15.178c-0.458,0-0.87-0.315-0.975-0.78c-0.121-0.539,0.217-1.074,0.756-1.195l4.101-0.923c0.539-0.122,1.074,0.217,1.195,0.756s-0.217,1.074-0.756,1.195l-4.101,0.923C22.194,15.17,22.12,15.178,22.047,15.178z"/><path d="M26.149,14.256c-0.094,0-0.19-0.014-0.285-0.042c-0.53-0.157-0.832-0.713-0.674-1.243l1.854-6.252c0.157-0.53,0.712-0.832,1.243-0.674c0.53,0.157,0.832,0.713,0.674,1.243l-1.854,6.252C26.979,13.974,26.581,14.256,26.149,14.256z"/><path d="M30.971,17.921c-0.21,0-0.423-0.066-0.604-0.204l-4.823-3.665c-0.44-0.334-0.525-0.961-0.191-1.401c0.334-0.438,0.962-0.524,1.401-0.191l4.823,3.665c0.44,0.334,0.525,0.962,0.191,1.401C31.572,17.784,31.273,17.921,30.971,17.921z"/><path d="M16,10.759c-0.552,0-1-0.448-1-1V6.064c0-0.552,0.448-1,1-1s1,0.448,1,1v3.695C17,10.312,16.552,10.759,16,10.759z"/><path d="M16.001,7.064c-0.317,0-0.629-0.15-0.824-0.431c-0.314-0.455-0.2-1.077,0.254-1.392l5.702-3.942c0.456-0.313,1.078-0.2,1.392,0.254c0.314,0.455,0.2,1.077-0.254,1.392l-5.702,3.942C16.395,7.006,16.197,7.064,16.001,7.064z"/><path d="M15.999,7.064c-0.21,0-0.422-0.066-0.602-0.202L10.184,2.92c-0.44-0.333-0.528-0.96-0.195-1.401c0.333-0.441,0.96-0.528,1.401-0.195l5.213,3.942c0.44,0.333,0.528,0.96,0.195,1.401C16.601,6.927,16.302,7.064,15.999,7.064z"/><path d="M22.448,26.426c-0.301,0-0.599-0.136-0.796-0.394l-2.69-3.525c-0.335-0.438-0.251-1.066,0.188-1.401c0.439-0.337,1.066-0.251,1.401,0.188l2.69,3.525c0.335,0.438,0.251,1.066-0.188,1.401C22.872,26.359,22.659,26.426,22.448,26.426z"/><path d="M9.723,26.426c-0.223,0-0.447-0.074-0.632-0.226c-0.428-0.35-0.491-0.979-0.141-1.407l2.883-3.525c0.349-0.428,0.979-0.49,1.407-0.142c0.428,0.35,0.491,0.979,0.141,1.407l-2.883,3.525C10.3,26.301,10.013,26.426,9.723,26.426z"/><path d="M9.724,26.426c-0.013,0-0.025,0-0.039-0.001l-5.56-0.211c-0.552-0.021-0.982-0.485-0.961-1.037c0.021-0.552,0.469-1.014,1.038-0.961l5.56,0.211c0.552,0.021,0.982,0.485,0.961,1.037C10.703,26.003,10.259,26.426,9.724,26.426z"/><path d="M11.644,31.357c-0.4,0-0.778-0.242-0.932-0.638l-1.92-4.932c-0.201-0.515,0.054-1.094,0.569-1.294c0.513-0.203,1.094,0.055,1.294,0.569l1.92,4.932c0.201,0.515-0.054,1.094-0.569,1.294C11.887,31.336,11.765,31.357,11.644,31.357z"/><path d="M20.894,31.184c-0.103,0-0.207-0.016-0.311-0.05c-0.525-0.171-0.812-0.735-0.64-1.261l1.553-4.758c0.171-0.524,0.734-0.813,1.261-0.64c0.525,0.171,0.812,0.735,0.64,1.261l-1.553,4.758C21.707,30.916,21.315,31.184,20.894,31.184z"/><path d="M27.425,26.426h-4.979c-0.552,0-1-0.447-1-1s0.448-1,1-1h4.979c0.552,0,1,0.447,1,1S27.978,26.426,27.425,26.426z"/></svg>