<svg xmlns="http://www.w3.org/2000/svg" viewBox="0 0 32 32"><!--! Font Icona - https://fonticona.com | License - https://fonticona.com/license | Copyright 2022 FontIcona.com --><path d="M8.207,28.852c-1.924,0-3.799-0.818-5.017-2.365c-1.121-1.424-1.593-3.26-1.295-5.037s1.338-3.356,2.854-4.331l6.134-3.946c1.277-0.822,1.499-2.209,1.508-2.268c0.005-0.033,0.013-0.075,0.021-0.107l2.175-8.517c0.414-1.619,2.073-2.599,3.684-2.186l6.55,1.673c0.784,0.2,1.443,0.693,1.856,1.389c0.413,0.696,0.53,1.511,0.33,2.295l-2.175,8.517c-0.022,0.151-0.979,5.619-3.964,8.017c-0.027,0.021-0.056,0.042-0.085,0.061l-8.903,5.728C10.749,28.5,9.467,28.852,8.207,28.852z M14.36,11.249c-0.07,0.409-0.504,2.388-2.396,3.604L5.831,18.8c-1.043,0.671-1.758,1.757-1.964,2.98c-0.208,1.24,0.11,2.473,0.896,3.47c1.384,1.758,4.035,2.128,6.035,0.841l8.856-5.698c1.967-1.617,2.992-5.479,3.223-6.839l2.192-8.597c0.141-0.55-0.193-1.111-0.743-1.252l-6.55-1.673c-0.551-0.139-1.111,0.193-1.252,0.742L14.36,11.249z M20.242,21.204h0.01H20.242z"/><path d="M23.554,7.865c-0.27,0-0.585-0.033-0.958-0.129c-0.873-0.223-1.303-0.592-1.616-0.861c-0.241-0.208-0.387-0.333-0.806-0.44c-0.421-0.107-0.608-0.067-0.92-0.001c-0.402,0.086-0.955,0.206-1.832-0.019c-0.873-0.223-1.303-0.592-1.616-0.861c-0.241-0.208-0.387-0.333-0.807-0.44c-0.535-0.137-0.858-0.681-0.722-1.216c0.136-0.535,0.68-0.861,1.216-0.722c0.874,0.223,1.304,0.592,1.617,0.861c0.241,0.208,0.387,0.333,0.807,0.44c0.424,0.108,0.608,0.066,0.919,0.001c0.404-0.086,0.959-0.206,1.833,0.019c0.873,0.223,1.302,0.592,1.615,0.861c0.241,0.208,0.387,0.333,0.807,0.44c0.419,0.107,0.608,0.067,0.921,0.001c0.403-0.087,0.958-0.204,1.83,0.019c0.535,0.137,0.858,0.681,0.722,1.216s-0.685,0.857-1.216,0.722c-0.418-0.107-0.607-0.068-0.919,0C24.197,7.804,23.916,7.865,23.554,7.865z"/><path d="M22.489,12.143c-0.257,0-0.554-0.033-0.903-0.122c-0.879-0.224-1.311-0.593-1.626-0.863c-0.246-0.209-0.395-0.336-0.821-0.445c-0.429-0.109-0.618-0.069-0.935-0.002c-0.406,0.083-0.963,0.201-1.84-0.022c-0.879-0.225-1.311-0.594-1.626-0.863c-0.245-0.21-0.394-0.336-0.82-0.445c-0.535-0.137-0.858-0.681-0.722-1.216c0.136-0.536,0.68-0.86,1.216-0.722c0.878,0.224,1.31,0.593,1.625,0.862c0.246,0.21,0.395,0.337,0.822,0.446c0.428,0.108,0.618,0.068,0.934,0.002c0.407-0.084,0.962-0.203,1.84,0.022c0.879,0.224,1.311,0.593,1.626,0.863c0.246,0.209,0.395,0.336,0.821,0.445c0.399,0.101,0.551,0.061,0.854-0.021c0.405-0.109,0.962-0.262,1.871-0.028c0.535,0.137,0.857,0.682,0.721,1.217c-0.136,0.535-0.683,0.859-1.217,0.721c-0.396-0.102-0.55-0.061-0.854,0.021C23.206,12.06,22.899,12.143,22.489,12.143z"/><path d="M16.224,24.789c-0.374,0-0.733-0.211-0.904-0.571c-0.625-1.317-0.771-2.822-0.409-4.236c0.856-3.352,4.281-5.382,7.628-4.525c0.313,0.08,0.62,0.184,0.913,0.309c0.508,0.217,0.744,0.804,0.527,1.313c-0.217,0.508-0.806,0.744-1.312,0.527c-0.199-0.085-0.406-0.155-0.623-0.211c-1.105-0.281-2.255-0.117-3.235,0.465c-0.981,0.582-1.678,1.512-1.96,2.617c-0.246,0.964-0.147,1.988,0.278,2.885c0.237,0.499,0.024,1.096-0.475,1.332C16.513,24.758,16.367,24.789,16.224,24.789z"/><path d="M9.802,31.999C8.981,32,8.168,31.845,7.416,31.533c-1.658-0.689-2.881-2.088-3.441-3.938c-0.16-0.528,0.139-1.087,0.667-1.247c0.531-0.16,1.087,0.14,1.247,0.667c0.39,1.285,1.184,2.209,2.295,2.671c1.18,0.489,2.591,0.406,3.773-0.223l9.504-5.054c2.515-1.739,3.767-6.501,3.778-6.55l2.896-8.385c0.186-0.536-0.1-1.123-0.636-1.309L25.371,7.43c-0.521-0.181-0.799-0.75-0.618-1.272c0.182-0.521,0.749-0.799,1.272-0.618l2.129,0.736c1.578,0.546,2.418,2.274,1.872,3.854l-2.873,8.307c-0.035,0.148-1.44,5.518-4.614,7.66c-0.029,0.02-0.06,0.037-0.09,0.054l-9.553,5.079C11.934,31.741,10.862,31.999,9.802,31.999z M21.979,25.267h0.01H21.979z"/><path d="M27.813,12.39c-0.108,0-0.219-0.018-0.327-0.055c-0.408-0.143-0.601-0.116-0.916-0.077c-0.408,0.053-0.972,0.125-1.824-0.17c-0.521-0.181-0.799-0.75-0.618-1.272c0.181-0.521,0.748-0.797,1.272-0.618c0.41,0.144,0.601,0.116,0.916,0.077c0.409-0.053,0.972-0.125,1.824,0.17c0.521,0.181,0.799,0.75,0.618,1.272C28.615,12.13,28.228,12.39,27.813,12.39z"/><path d="M26.704,15.987c-0.108,0-0.219-0.018-0.327-0.055c-0.417-0.145-0.611-0.12-0.931-0.08c-0.412,0.052-0.977,0.122-1.833-0.175c-0.521-0.181-0.799-0.75-0.618-1.272c0.181-0.521,0.749-0.797,1.272-0.618c0.416,0.144,0.61,0.119,0.931,0.08c0.414-0.051,0.979-0.12,1.833,0.175c0.521,0.181,0.799,0.75,0.618,1.272C27.506,15.727,27.118,15.987,26.704,15.987z"/><path d="M20.243,22.204c-0.348,0-0.685-0.181-0.869-0.504c-0.274-0.479-0.107-1.091,0.372-1.364c1.452-0.83,3.601-1.09,4.998-0.607c0.31,0.107,0.608,0.236,0.886,0.385c0.488,0.259,0.674,0.864,0.414,1.352c-0.259,0.488-0.864,0.676-1.352,0.414c-0.19-0.101-0.393-0.188-0.603-0.26c-0.864-0.298-2.399-0.091-3.352,0.453C20.582,22.162,20.411,22.204,20.243,22.204z"/><path d="M17.76,28.509c-0.404,0-0.785-0.247-0.936-0.647c-0.515-1.365-0.534-2.877-0.057-4.257c0.204-0.591,0.64-1.421,1.014-1.929c0.327-0.445,0.952-0.539,1.398-0.213c0.444,0.328,0.54,0.953,0.213,1.398c-0.258,0.35-0.594,0.989-0.734,1.396c-0.325,0.94-0.312,1.97,0.037,2.898c0.195,0.518-0.066,1.094-0.583,1.288C17.996,28.489,17.877,28.509,17.76,28.509z"/></svg>