<svg xmlns="http://www.w3.org/2000/svg" viewBox="0 0 32 32"><!--! Font Icona - https://fonticona.com | License - https://fonticona.com/license | Copyright 2022 FontIcona.com --><path d="M13.379,32.002c-1.19,0-2.464-0.502-3.268-1.354c-0.758-0.803-1.034-2.047-0.686-3.097c0.302-0.909,1.021-1.526,1.976-1.693c1.524-0.27,2.882,0.753,3.229,2.42c0.112,0.541-0.235,1.07-0.776,1.183c-0.541,0.107-1.069-0.235-1.183-0.776c-0.021-0.101-0.232-0.977-0.926-0.855c-0.227,0.039-0.353,0.145-0.421,0.353c-0.116,0.348-0.01,0.828,0.241,1.094c0.524,0.556,1.625,0.868,2.311,0.659c1.892-0.582,2.268-1.623,2.327-3.463c0.008-0.26,0.014-0.521,0.017-0.782c-0.978,0.181-1.956,0.159-2.847-0.122c-3.472-1.099-5.015-4.874-4.704-7.868c0.402-3.861,3.194-6.11,6.283-8.247c-0.019-0.171-0.038-0.347-0.059-0.526c-0.301-2.647-0.713-6.273,1.693-8.264c0.641-0.528,1.414-0.749,2.181-0.629c0.847,0.137,1.63,0.688,2.147,1.514c2.389,3.807-1.496,7.158-3.865,8.876c0.05,0.616,0.106,1.237,0.167,1.861c0.749-0.071,1.516,0.008,2.253,0.233c1.59,0.485,2.845,1.616,3.442,3.104c0.844,2.099,0.505,4.578-0.882,6.47c-0.879,1.198-2.269,2.285-3.807,2.97c0.001,0.493-0.006,0.985-0.022,1.476c-0.065,2.077-0.562,4.333-3.737,5.311C14.122,31.951,13.755,32.002,13.379,32.002z M15.157,11.755c-2.361,1.71-4.22,3.472-4.499,6.151c-0.232,2.238,0.945,5.004,3.318,5.755c0.666,0.211,1.438,0.188,2.223-0.002c-0.085-2.746-0.382-5.539-0.672-8.263c-0.014-0.126-0.027-0.252-0.04-0.379c-1.062,0.78-1.666,1.699-1.71,2.608c-0.038,0.806,0.362,1.58,1.16,2.24c0.426,0.353,0.484,0.982,0.133,1.408c-0.353,0.426-0.981,0.486-1.408,0.133c-1.282-1.062-1.951-2.438-1.882-3.877c0.077-1.614,1.073-3.149,2.805-4.324c0.215-0.146,0.44-0.274,0.675-0.388C15.225,12.464,15.19,12.109,15.157,11.755z M17.419,14.271c0.032,0.306,0.064,0.61,0.097,0.913c0.269,2.521,0.543,5.098,0.655,7.667c0.904-0.522,1.71-1.212,2.246-1.943c0.982-1.339,1.227-3.079,0.64-4.541c-0.377-0.937-1.147-1.624-2.171-1.937C18.403,14.283,17.904,14.231,17.419,14.271z M18.352,2c-0.164,0-0.325,0.067-0.49,0.204c-1.435,1.187-1.286,3.691-1.05,5.88c2.113-1.7,3.597-3.583,2.41-5.475c-0.209-0.332-0.498-0.557-0.772-0.602C18.417,2.003,18.384,2,18.352,2z"/></svg>