<svg xmlns="http://www.w3.org/2000/svg" viewBox="0 0 32 32"><!--! Font Icona - https://fonticona.com | License - https://fonticona.com/license | Copyright 2022 FontIcona.com --><path d="M31,31.645H1c-0.315,0-0.613-0.149-0.802-0.402C0.01,30.99-0.048,30.663,0.042,30.36l3.75-12.618c0.126-0.424,0.516-0.715,0.958-0.715h22.125c0.433,0,0.816,0.278,0.951,0.689l4.125,12.618c0.1,0.304,0.047,0.638-0.141,0.897C31.622,31.492,31.32,31.645,31,31.645z M2.34,29.645h27.281L26.15,19.027H5.496L2.34,29.645z"/><rect x="15" y="18.027" width="2" height="12.618"/><rect x="2.944" y="23.559" transform="matrix(0.1573 -0.9876 0.9876 0.1573 -16.2748 30.0451)" width="13.046" height="1.999"/><rect x="21.467" y="18.035" transform="matrix(0.9875 -0.1573 0.1573 0.9875 -3.5843 3.841)" width="1.999" height="13.046"/><rect x="3.63" y="21.005" width="24.74" height="2"/><rect x="2.731" y="25.266" width="26.665" height="2"/><path d="M15.784,11.077c-0.415,0-0.835-0.078-1.242-0.244c-1.688-0.688-2.503-2.621-1.816-4.309c0.688-1.689,2.62-2.503,4.31-1.816c1.688,0.688,2.503,2.621,1.815,4.31C18.329,10.299,17.089,11.077,15.784,11.077z M15.788,6.464c-0.172,0-0.344,0.034-0.507,0.103c-0.321,0.136-0.571,0.388-0.703,0.712c-0.271,0.667,0.05,1.431,0.718,1.702c0.666,0.272,1.431-0.05,1.702-0.717c0.132-0.323,0.129-0.678-0.006-1c-0.136-0.321-0.388-0.571-0.712-0.703C16.122,6.496,15.955,6.464,15.788,6.464z"/><path d="M15.855,3.719c-0.002,0-0.004,0-0.007,0c-0.552-0.004-0.997-0.455-0.993-1.007l0.01-1.522c0.004-0.55,0.451-0.993,1-0.993c0.002,0,0.004,0,0.007,0c0.552,0.004,0.997,0.455,0.993,1.007l-0.01,1.522C16.851,3.276,16.404,3.719,15.855,3.719z"/><path d="M15.855,15.345c-0.002,0-0.004,0-0.007,0c-0.552-0.004-0.997-0.455-0.993-1.007l0.01-1.523c0.004-0.55,0.451-0.993,1-0.993c0.002,0,0.004,0,0.007,0c0.552,0.004,0.997,0.455,0.993,1.007l-0.01,1.523C16.851,14.902,16.404,15.345,15.855,15.345z"/><path d="M10.737,8.776c-0.002,0-0.004,0-0.007,0l-1.523-0.01C8.655,8.762,8.21,8.311,8.214,7.759c0.004-0.55,0.451-0.993,1-0.993c0.002,0,0.004,0,0.007,0l1.523,0.01c0.552,0.004,0.997,0.455,0.993,1.007C11.733,8.333,11.286,8.776,10.737,8.776z"/><path d="M22.362,8.776c-0.002,0-0.004,0-0.007,0l-1.522-0.01c-0.552-0.004-0.997-0.455-0.993-1.007c0.004-0.55,0.451-0.993,1-0.993c0.002,0,0.004,0,0.007,0l1.522,0.01c0.552,0.004,0.997,0.455,0.993,1.007C23.358,8.333,22.912,8.776,22.362,8.776z"/><path d="M12.213,5.203c-0.258,0-0.516-0.099-0.712-0.297l-1.07-1.084c-0.388-0.393-0.384-1.026,0.009-1.415c0.393-0.387,1.026-0.384,1.415,0.009l1.07,1.084c0.388,0.393,0.384,1.026-0.009,1.415C12.721,5.106,12.467,5.203,12.213,5.203z"/><path d="M20.433,13.423c-0.258,0-0.516-0.099-0.712-0.298l-1.069-1.084c-0.388-0.393-0.383-1.026,0.01-1.414c0.393-0.388,1.026-0.383,1.414,0.01l1.069,1.084c0.388,0.393,0.383,1.026-0.01,1.414C20.94,13.328,20.687,13.423,20.433,13.423z"/><path d="M19.411,5.25c-0.258,0-0.516-0.099-0.712-0.297c-0.388-0.393-0.384-1.026,0.009-1.415l1.084-1.07c0.393-0.387,1.026-0.384,1.415,0.009c0.388,0.393,0.384,1.026-0.009,1.415l-1.084,1.07C19.919,5.154,19.665,5.25,19.411,5.25z"/><path d="M11.19,13.471c-0.258,0-0.516-0.099-0.712-0.297c-0.388-0.393-0.384-1.026,0.009-1.415l1.084-1.07c0.393-0.388,1.026-0.384,1.415,0.009c0.388,0.393,0.384,1.026-0.009,1.415l-1.084,1.07C11.698,13.375,11.444,13.471,11.19,13.471z"/></svg>