<svg xmlns="http://www.w3.org/2000/svg" viewBox="0 0 32 32"><!--! Font Icona - https://fonticona.com | License - https://fonticona.com/license | Copyright 2022 FontIcona.com --><path d="M26.348,32H5.652c-1.654,0-3-1.346-3-3V3c0-1.654,1.346-3,3-3h20.695c1.654,0,3,1.346,3,3v26C29.348,30.654,28.002,32,26.348,32z M5.652,2c-0.552,0-1,0.449-1,1v26c0,0.552,0.448,1,1,1h20.695c0.552,0,1-0.448,1-1V3c0-0.551-0.448-1-1-1H5.652z"/><path d="M21.581,17.735H10.419c-1.654,0-3-1.346-3-3v-4.074c0-1.654,1.346-3,3-3h11.162c1.654,0,3,1.346,3,3v4.074C24.581,16.389,23.235,17.735,21.581,17.735z M10.419,9.661c-0.552,0-1,0.449-1,1v4.074c0,0.551,0.448,1,1,1h11.162c0.552,0,1-0.449,1-1v-4.074c0-0.551-0.448-1-1-1H10.419z"/><path d="M23.581,32c-0.553,0-1-0.447-1-1v-2.935c0-0.552-0.448-1-1-1H10.419c-0.552,0-1,0.448-1,1V31c0,0.553-0.447,1-1,1s-1-0.447-1-1v-2.935c0-1.654,1.346-3,3-3h11.162c1.654,0,3,1.346,3,3V31C24.581,31.553,24.134,32,23.581,32z"/><path d="M18.588,32c-0.553,0-1-0.447-1-1v-4.935c0-0.553,0.447-1,1-1s1,0.447,1,1V31C19.588,31.553,19.141,32,18.588,32z"/><path d="M13.412,32c-0.553,0-1-0.447-1-1v-4.935c0-0.553,0.447-1,1-1s1,0.447,1,1V31C14.412,31.553,13.965,32,13.412,32z"/><path d="M7.092,5.689L7.092,5.689c-0.688,0-1.25-0.562-1.25-1.25v0c0-0.687,0.562-1.25,1.25-1.25h0c0.687,0,1.25,0.562,1.25,1.25v0C8.342,5.127,7.779,5.689,7.092,5.689z"/><path d="M24.907,5.689L24.907,5.689c-0.688,0-1.25-0.562-1.25-1.25v0c0-0.687,0.562-1.25,1.25-1.25h0c0.688,0,1.25,0.562,1.25,1.25v0C26.157,5.127,25.594,5.689,24.907,5.689z"/><path d="M7.092,24.728L7.092,24.728c-0.688,0-1.25-0.562-1.25-1.25v0c0-0.687,0.562-1.25,1.25-1.25h0c0.687,0,1.25,0.562,1.25,1.25v0C8.342,24.165,7.779,24.728,7.092,24.728z"/><path d="M24.907,24.728L24.907,24.728c-0.688,0-1.25-0.562-1.25-1.25v0c0-0.687,0.562-1.25,1.25-1.25h0c0.688,0,1.25,0.562,1.25,1.25v0C26.157,24.165,25.594,24.728,24.907,24.728z"/></svg>