<svg xmlns="http://www.w3.org/2000/svg" viewBox="0 0 32 32"><!--! Font Icona - https://fonticona.com | License - https://fonticona.com/license | Copyright 2022 FontIcona.com --><path d="M13.027,32c-1.396,0-2.532-1.352-2.532-3.014V13.147c0-0.629-0.346-1.014-0.533-1.014S9.43,12.519,9.43,13.147v3.96c0,1.662-1.136,3.014-2.532,3.014s-2.532-1.276-2.532-2.846c0-0.467-0.379-0.846-0.845-0.846H1c-0.553,0-1-0.447-1-1s0.447-1,1-1h2.521c1.568,0,2.845,1.276,2.845,2.846c0,0.477,0.286,0.846,0.532,0.846c0.188,0,0.532-0.385,0.532-1.014v-3.96c0-1.662,1.136-3.014,2.532-3.014s2.533,1.352,2.533,3.014v15.839c0,0.629,0.345,1.014,0.532,1.014s0.532-0.385,0.532-1.014V3.014C13.56,1.352,14.695,0,16.092,0s2.533,1.352,2.533,3.014v22.818c0,0.629,0.345,1.014,0.532,1.014s0.532-0.385,0.532-1.014V13.147c0-1.662,1.137-3.014,2.533-3.014s2.532,1.352,2.532,3.014v5.772c0,0.628,0.345,1.013,0.532,1.013s0.532-0.385,0.532-1.013v-1.812c0-1.662,1.276-3.014,2.845-3.014H31c0.553,0,1,0.447,1,1s-0.447,1-1,1h-2.336c-0.458,0-0.845,0.464-0.845,1.014v1.812c0,1.661-1.136,3.013-2.532,3.013s-2.532-1.352-2.532-3.013v-5.772c0-0.629-0.345-1.014-0.532-1.014s-0.533,0.385-0.533,1.014v12.685c0,1.662-1.136,3.014-2.532,3.014s-2.532-1.352-2.532-3.014V3.014C16.625,2.385,16.279,2,16.092,2S15.56,2.385,15.56,3.014v25.973C15.56,30.648,14.424,32,13.027,32z"/></svg>