<svg xmlns="http://www.w3.org/2000/svg" viewBox="0 0 32 32"><!--! Font Icona - https://fonticona.com | License - https://fonticona.com/license | Copyright 2022 FontIcona.com --><path d="M16,18.289c-2.951,0-5.352-2.401-5.352-5.352S13.049,7.585,16,7.585s5.352,2.401,5.352,5.352S18.951,18.289,16,18.289z M16,9.585c-1.848,0-3.352,1.503-3.352,3.352s1.503,3.352,3.352,3.352s3.352-1.503,3.352-3.352S17.848,9.585,16,9.585z"/><path d="M18.298,32h-4.596c-1.291,0-2.341-1.05-2.341-2.341v-4.646c-4.993-1.911-8.298-6.675-8.298-12.076C3.063,5.804,8.867,0,16,0s12.937,5.804,12.937,12.937c0,5.401-3.305,10.165-8.298,12.076v4.646C20.639,30.95,19.588,32,18.298,32z M16,2C9.969,2,5.063,6.906,5.063,12.937c0,4.775,3.055,8.96,7.603,10.415l0.695,0.223v6.084c0,0.185,0.156,0.341,0.341,0.341h4.596c0.185,0,0.341-0.156,0.341-0.341v-6.084l0.695-0.223c4.547-1.455,7.603-5.64,7.603-10.415C26.937,6.906,22.031,2,16,2z"/><path d="M20.639,25.813h-2v-5.924c0.011-0.294-0.053-1.012-0.464-1.383c-0.297-0.269-0.789-0.356-1.46-0.261l-0.284-1.979c1.297-0.186,2.341,0.073,3.103,0.772c1.172,1.076,1.114,2.723,1.104,2.907L20.639,25.813z"/></svg>