<svg xmlns="http://www.w3.org/2000/svg" viewBox="0 0 32 32"><!--! Font Icona - https://fonticona.com | License - https://fonticona.com/license | Copyright 2022 FontIcona.com --><path d="M27.851,27.611H4.149c-0.499,0-0.922-0.368-0.99-0.863c-0.383-2.765,1.715-4.735,3.564-6.475c0.894-0.839,1.737-1.632,2.213-2.414c1.062-1.749,1.824-3.521,2.266-5.269c0.112-0.442,0.204-1.421,0.301-2.456C11.904,5.857,12.453,0,16,0s4.096,5.857,4.497,10.135c0.097,1.035,0.188,2.014,0.301,2.456c0.441,1.747,1.204,3.52,2.266,5.268c0.476,0.783,1.319,1.576,2.213,2.415c1.85,1.739,3.947,3.71,3.564,6.475C28.772,27.243,28.35,27.611,27.851,27.611z M5.164,25.611h21.672c-0.264-1.375-1.565-2.598-2.93-3.88c-0.951-0.895-1.936-1.819-2.552-2.835c-1.166-1.918-2.006-3.875-2.496-5.815c-0.149-0.593-0.239-1.549-0.353-2.76C18.272,7.831,17.726,2,16,2s-2.272,5.831-2.506,8.321c-0.113,1.211-0.203,2.167-0.353,2.76c-0.49,1.94-1.33,3.897-2.496,5.816c-0.616,1.015-1.601,1.939-2.552,2.834C6.729,23.014,5.428,24.236,5.164,25.611z"/><path d="M16,8.009c-1.004,0-2.008-0.085-3.005-0.255c-0.544-0.092-0.91-0.608-0.817-1.153c0.092-0.544,0.61-0.909,1.153-0.817c1.771,0.301,3.566,0.301,5.338,0c0.544-0.092,1.062,0.273,1.153,0.817c0.093,0.545-0.273,1.062-0.817,1.153C18.008,7.924,17.004,8.009,16,8.009z"/><path d="M16,11.923c-1.226,0-2.451-0.104-3.669-0.31c-0.544-0.093-0.91-0.609-0.818-1.154c0.093-0.544,0.601-0.902,1.154-0.818c2.211,0.377,4.455,0.377,6.666,0c0.555-0.083,1.062,0.274,1.154,0.818c0.092,0.545-0.274,1.062-0.818,1.154C18.451,11.819,17.226,11.923,16,11.923z"/><path d="M19.802,32h-7.604c-0.313,0-0.609-0.147-0.798-0.397c-0.189-0.25-0.25-0.575-0.164-0.877l1.25-4.389c0.122-0.43,0.515-0.726,0.962-0.726h5.104c0.447,0,0.84,0.296,0.962,0.726l1.25,4.389c0.086,0.302,0.025,0.627-0.164,0.877C20.411,31.853,20.115,32,19.802,32z M13.522,30h4.955l-0.681-2.389h-3.594L13.522,30z"/><path d="M12.499,22.489c-0.553,0-1-0.447-1-1V10.627c0-0.553,0.447-1,1-1s1,0.447,1,1v10.862C13.499,22.042,13.052,22.489,12.499,22.489z"/><path d="M19.501,22.489c-0.553,0-1-0.447-1-1V10.627c0-0.553,0.447-1,1-1s1,0.447,1,1v10.862C20.501,22.042,20.054,22.489,19.501,22.489z"/><path d="M17.969,4.999h-3.865c-0.553,0-1-0.447-1-1s0.447-1,1-1h3.865c0.553,0,1,0.447,1,1S18.521,4.999,17.969,4.999z"/></svg>