<svg xmlns="http://www.w3.org/2000/svg" viewBox="0 0 32 32"><!--! Font Icona - https://fonticona.com | License - https://fonticona.com/license | Copyright 2022 FontIcona.com --><path d="M24.016,32H7.984c-1.654,0-3-1.346-3-3V3c0-1.654,1.346-3,3-3h16.031c1.654,0,3,1.346,3,3v26C27.016,30.654,25.67,32,24.016,32z M7.984,2c-0.552,0-1,0.448-1,1v26c0,0.552,0.448,1,1,1h16.031c0.552,0,1-0.448,1-1V3c0-0.552-0.448-1-1-1H7.984z"/><path d="M16,13.737c-2.922,0-5.299-2.377-5.299-5.299c0-2.921,2.377-5.298,5.299-5.298s5.299,2.377,5.299,5.298C21.299,11.36,18.922,13.737,16,13.737z M16,5.141c-1.819,0-3.299,1.479-3.299,3.298c0,1.819,1.479,3.299,3.299,3.299s3.299-1.479,3.299-3.299C19.299,6.62,17.819,5.141,16,5.141z"/><path d="M16,29.23c-4,0-7.254-3.254-7.254-7.254S12,14.722,16,14.722s7.254,3.254,7.254,7.254S20,29.23,16,29.23z M16,16.722c-2.897,0-5.254,2.356-5.254,5.254S13.103,27.23,16,27.23s5.254-2.356,5.254-5.254S18.897,16.722,16,16.722z"/><path d="M16,24.764c-1.538,0-2.789-1.251-2.789-2.788c0-1.538,1.251-2.789,2.789-2.789s2.789,1.251,2.789,2.789C18.789,23.513,17.538,24.764,16,24.764z M16,21.187c-0.436,0-0.789,0.354-0.789,0.789c0,0.435,0.354,0.788,0.789,0.788s0.789-0.354,0.789-0.788C16.789,21.54,16.436,21.187,16,21.187z"/><circle cx="16.006" cy="8.439" r="1.25"/></svg>