<svg xmlns="http://www.w3.org/2000/svg" viewBox="0 0 32 32"><!--! Font Icona - https://fonticona.com | License - https://fonticona.com/license | Copyright 2022 FontIcona.com --><path d="M20.827,32.007c-2.832,0-6.066-0.308-9.259-1.274c-0.041-0.012-0.08-0.026-0.117-0.043C4.886,28.701,0.314,22.553,0.314,15.686C0.314,7.037,7.351,0,16,0s15.686,7.037,15.686,15.686c0,4.329-1.762,8.399-4.876,11.357l3.106,2.216c0.317,0.226,0.474,0.616,0.401,0.999c-0.071,0.383-0.359,0.689-0.737,0.784C29.342,31.103,25.676,32.007,20.827,32.007z M12.283,28.86c5.594,1.655,11.46,1.145,14.565,0.667l-2.17-1.548c-0.169-0.103-0.308-0.254-0.392-0.443c-0.187-0.415-0.075-0.902,0.279-1.188c3.253-2.617,5.119-6.503,5.119-10.663C29.686,8.139,23.546,2,16,2S2.314,8.139,2.314,15.686c0,6.035,4.047,11.433,9.841,13.127C12.199,28.826,12.242,28.842,12.283,28.86z"/><path d="M17.038,26.023c-2.1,0-4.62-0.718-7.539-2.153c-0.281-0.138-0.48-0.4-0.54-0.708s0.028-0.625,0.237-0.858l2.727-3.036c0.363-0.405,0.983-0.443,1.394-0.092c0.466,0.394,1.954,1.393,3.096,1.278c0.445-0.044,0.798-0.249,1.108-0.642c0.002-0.012,0.006-0.069-0.019-0.132c-0.045-0.116-0.37-0.723-2.394-1.326c-0.12-0.03-3.826-1.007-5.059-3.831c-0.661-1.514-0.493-3.21,0.499-5.04c0.054-0.092,3.953-6.56,12.525-1.694c0.267,0.151,0.449,0.416,0.495,0.718c0.047,0.303-0.049,0.61-0.257,0.833l-2.603,2.789c-0.323,0.346-0.848,0.417-1.249,0.173c-0.519-0.312-2.216-1.126-3.194-0.808c-0.182,0.06-0.408,0.177-0.587,0.546c-0.007,0.108-0.001,0.367,0.17,0.6c0.25,0.341,0.798,0.57,1.583,0.664c2.284,0.38,6.439,2.233,6.146,6.576c-0.005,0.119-0.176,3.56-3.03,5.258C19.556,25.729,18.383,26.023,17.038,26.023z M11.588,22.635c3.503,1.525,6.232,1.798,7.938,0.784c1.933-1.15,2.055-3.622,2.056-3.647c0.245-3.642-4.243-4.456-4.435-4.489c-1.354-0.16-2.362-0.672-2.95-1.515c-0.719-1.03-0.487-2.122-0.458-2.243c0.012-0.051,0.028-0.101,0.048-0.149c0.365-0.887,1.008-1.503,1.858-1.782c1.449-0.475,3.163,0.153,4.125,0.611l1.179-1.263c-5.993-2.763-8.549,1.34-8.66,1.526c-0.674,1.244-0.813,2.317-0.409,3.249c0.837,1.928,3.734,2.703,3.764,2.71c2.186,0.651,3.407,1.52,3.771,2.667c0.258,0.814-0.014,1.563-0.324,1.957c-0.645,0.816-1.505,1.298-2.487,1.394c-1.488,0.148-2.934-0.599-3.798-1.166L11.588,22.635z"/></svg>