<svg xmlns="http://www.w3.org/2000/svg" viewBox="0 0 32 32"><!--! Font Icona - https://fonticona.com | License - https://fonticona.com/license | Copyright 2022 FontIcona.com --><path d="M13.131,26.115H3.054c-1.592,0-2.887-1.295-2.887-2.887c0-1.591,1.295-2.886,2.887-2.886h10.001c0.087-0.074,0.25-0.319,0.25-0.728s-0.163-0.653-0.25-0.728H5.856c-0.08,0-0.161-0.004-0.241-0.011c-1.513-0.084-2.993-0.839-4.034-2.069C0.562,15.603,0,14.033,0,12.386s0.562-3.217,1.581-4.421c1.118-1.322,2.71-2.08,4.366-2.08h8.714c1.592,0,2.887,1.295,2.887,2.887c0,1.591-1.295,2.886-2.887,2.886H6.023c-0.087,0.074-0.25,0.319-0.25,0.728s0.163,0.653,0.25,0.728h7.107c1.656,0,3.248,0.758,4.367,2.08c1.019,1.204,1.58,2.774,1.58,4.421c0,1.647-0.562,3.217-1.581,4.421C16.379,25.357,14.787,26.115,13.131,26.115z M3.054,22.342c-0.489,0-0.887,0.397-0.887,0.886s0.397,0.887,0.887,0.887h10.077c1.066,0,2.103-0.5,2.841-1.372c0.713-0.843,1.106-1.954,1.106-3.128s-0.394-2.286-1.106-3.129c-0.001,0-0.001,0-0.001,0c-0.737-0.872-1.773-1.372-2.84-1.372H5.947c-1.198,0-2.174-1.224-2.174-2.728s0.976-2.728,2.174-2.728h8.714c0.489,0,0.887-0.397,0.887-0.886s-0.397-0.887-0.887-0.887H5.947c-1.066,0-2.103,0.5-2.841,1.372C2.394,10.1,2,11.211,2,12.386s0.394,2.286,1.106,3.129c0.688,0.812,1.653,1.311,2.647,1.366l0.103,0.006h7.274c1.198,0,2.174,1.224,2.174,2.728s-0.976,2.728-2.174,2.728H3.054z"/><path d="M26.795,26.115h-6.861c-0.417,0-0.79-0.259-0.937-0.649s-0.035-0.831,0.279-1.104c0.11-0.096,0.267-0.198,0.428-0.294c0.053-0.032,0.107-0.062,0.149-0.093c0.518-0.459,0.941-0.938,1.403-1.588c0.314-0.445,0.535-0.888,0.655-1.315c0.122-0.431,0.515-0.729,0.963-0.729h3.352v-8.684h-6.205c-0.215,0-0.431-0.024-0.642-0.072c-0.366-0.083-0.655-0.364-0.748-0.727c-0.093-0.364,0.025-0.749,0.307-0.998c0.312-0.276,0.492-0.673,0.492-1.089s-0.18-0.813-0.492-1.09c-0.281-0.249-0.399-0.634-0.307-0.998c0.093-0.363,0.382-0.644,0.748-0.727c0.211-0.048,0.427-0.072,0.642-0.072h6.773C29.665,5.885,32,8.22,32,11.09v9.819C32,23.78,29.665,26.115,26.795,26.115z M22.459,24.115h4.336c1.768,0,3.205-1.438,3.205-3.205V11.09c0-1.767-1.438-3.205-3.205-3.205h-5.48c0.076,0.287,0.116,0.584,0.116,0.887c0,0.302-0.04,0.6-0.116,0.886h5.48c0.789,0,1.432,0.643,1.432,1.432v9.819c0,0.79-0.643,1.432-1.432,1.432h-3.221c-0.177,0.403-0.406,0.804-0.686,1.199C22.745,23.743,22.603,23.934,22.459,24.115z"/></svg>