<svg xmlns="http://www.w3.org/2000/svg" viewBox="0 0 32 32"><!--! Font Icona - https://fonticona.com | License - https://fonticona.com/license | Copyright 2022 FontIcona.com --><path d="M5.433,19.016C2.438,19.016,0,16.491,0,13.387s2.438-5.629,5.433-5.629s5.433,2.525,5.433,5.629S8.428,19.016,5.433,19.016z M5.433,9.758C3.54,9.758,2,11.386,2,13.387s1.54,3.629,3.433,3.629s3.433-1.628,3.433-3.629S7.325,9.758,5.433,9.758z"/><path d="M9.865,19.688c-0.553,0-1-0.448-1-1V8.272c0-0.552,0.447-1,1-1s1,0.448,1,1v10.416C10.865,19.24,10.418,19.688,9.865,19.688z"/><path d="M19.172,19.016c-2.995,0-5.433-2.525-5.433-5.629s2.438-5.629,5.433-5.629s5.432,2.525,5.432,5.629S22.167,19.016,19.172,19.016z M19.172,9.758c-1.893,0-3.433,1.628-3.433,3.629s1.54,3.629,3.433,3.629s3.432-1.628,3.432-3.629S21.064,9.758,19.172,9.758z"/><path d="M14.739,19.688c-0.553,0-1-0.448-1-1V2.497c0-0.552,0.447-1,1-1s1,0.448,1,1v16.19C15.739,19.24,15.292,19.688,14.739,19.688z"/><path d="M18.285,29.523c-0.844,0-1.653-0.358-2.221-0.984l-4.354-4.796c-0.371-0.409-0.341-1.042,0.068-1.413c0.408-0.37,1.041-0.341,1.412,0.068l4.354,4.797c0.192,0.212,0.455,0.328,0.74,0.328c0.31-0.022,0.55-0.117,0.742-0.33l11.23-12.438c0.37-0.41,1.003-0.442,1.412-0.072c0.41,0.37,0.442,1.002,0.072,1.413l-11.23,12.438c-0.566,0.627-1.376,0.988-2.222,0.989C18.288,29.523,18.287,29.523,18.285,29.523z"/></svg>