<svg xmlns="http://www.w3.org/2000/svg" viewBox="0 0 32 32"><!--! Font Icona - https://fonticona.com | License - https://fonticona.com/license | Copyright 2022 FontIcona.com --><path d="M12.349,11.695c-0.303,0-0.602-0.136-0.798-0.396L9.487,8.578l-5.83-0.85c-0.171-0.025-0.332-0.094-0.469-0.2L1.852,6.491C1.416,6.152,1.336,5.524,1.675,5.088c0.338-0.437,0.967-0.517,1.403-0.177l1.129,0.875l5.975,0.871c0.26,0.038,0.494,0.177,0.652,0.386l2.311,3.048c0.334,0.44,0.247,1.067-0.192,1.401C12.771,11.629,12.559,11.695,12.349,11.695z"/><path d="M11.416,13.535c-0.183,0-0.367-0.05-0.532-0.154l-1.601-1.009l-7.068,0.572c-0.193,0.018-0.38-0.024-0.548-0.112l-1.134-0.599c-0.488-0.258-0.676-0.863-0.418-1.351c0.258-0.488,0.864-0.676,1.352-0.417l0.877,0.463l7.11-0.575c0.223-0.021,0.432,0.036,0.614,0.151l1.882,1.187c0.468,0.294,0.607,0.912,0.312,1.379C12.072,13.37,11.748,13.535,11.416,13.535z"/><path d="M2.133,20.937c-0.438,0-0.84-0.291-0.963-0.733c-0.147-0.532,0.165-1.083,0.697-1.231l0.788-0.218l5.349-4.623c0.172-0.148,0.39-0.234,0.616-0.243l2.267-0.085c0.588-0.015,1.016,0.41,1.037,0.962s-0.409,1.016-0.961,1.037l-1.916,0.072l-5.254,4.541c-0.112,0.097-0.245,0.167-0.388,0.207L2.4,20.9C2.312,20.924,2.222,20.937,2.133,20.937z"/><path d="M5.098,30.636c-0.291,0-0.58-0.126-0.777-0.37c-0.348-0.429-0.282-1.059,0.146-1.407l0.451-0.367l1.206-6.473c0.032-0.171,0.108-0.332,0.222-0.464l3.925-4.62c0.356-0.421,0.988-0.471,1.409-0.115c0.421,0.357,0.473,0.989,0.114,1.41l-3.752,4.417l-1.225,6.573c-0.044,0.233-0.169,0.444-0.354,0.593l-0.737,0.599C5.542,30.563,5.318,30.636,5.098,30.636z"/><path d="M19.662,11.695c-0.21,0-0.421-0.065-0.602-0.202c-0.44-0.333-0.528-0.96-0.195-1.4l2.3-3.048c0.158-0.21,0.394-0.35,0.653-0.388l5.978-0.871l1.14-0.878c0.439-0.336,1.065-0.255,1.403,0.183c0.336,0.438,0.255,1.065-0.183,1.402L28.809,7.53c-0.137,0.104-0.297,0.172-0.466,0.197l-5.829,0.85l-2.053,2.72C20.265,11.558,19.966,11.695,19.662,11.695z"/><path d="M20.595,13.535c-0.331,0-0.655-0.164-0.846-0.464c-0.296-0.466-0.157-1.084,0.309-1.38l1.871-1.187c0.184-0.116,0.398-0.172,0.616-0.152l7.12,0.575l0.864-0.46c0.49-0.26,1.093-0.076,1.354,0.412c0.26,0.487,0.075,1.093-0.412,1.353l-1.123,0.599c-0.169,0.09-0.36,0.132-0.551,0.114l-7.079-0.571l-1.588,1.007C20.963,13.484,20.778,13.535,20.595,13.535z"/><path d="M29.878,20.937c-0.089,0-0.179-0.012-0.268-0.037l-1.005-0.278c-0.143-0.04-0.274-0.11-0.387-0.207l-5.265-4.542l-1.906-0.072c-0.552-0.021-0.982-0.485-0.961-1.038c0.021-0.551,0.473-0.977,1.037-0.961l2.256,0.085c0.227,0.009,0.443,0.094,0.615,0.242l5.36,4.624l0.788,0.218c0.532,0.147,0.845,0.699,0.697,1.231C30.718,20.646,30.315,20.937,29.878,20.937z"/><path d="M26.902,30.636c-0.224,0-0.448-0.075-0.635-0.228l-0.727-0.599c-0.181-0.149-0.304-0.357-0.347-0.587l-1.235-6.574l-3.753-4.418c-0.358-0.421-0.307-1.052,0.114-1.41c0.421-0.356,1.053-0.307,1.409,0.115l3.925,4.62c0.113,0.132,0.189,0.292,0.221,0.463l1.218,6.478l0.446,0.368c0.427,0.352,0.487,0.981,0.136,1.408C27.478,30.512,27.191,30.636,26.902,30.636z"/><path d="M16.005,23.995c-3.403,0-6.069-3.61-6.069-8.219c0-2.988,1.188-5.674,3.026-7.11c-0.728-0.798-1.146-1.856-1.133-2.978c-0.023-1.16,0.394-2.225,1.173-3.035c0.78-0.81,1.828-1.268,2.953-1.29l0.193,0.003c1.119,0.045,2.158,0.524,2.92,1.351c0.763,0.826,1.157,1.9,1.112,3.023c0.011,1.086-0.41,2.131-1.136,2.925c1.833,1.436,3.02,4.123,3.02,7.11C22.064,20.384,19.402,23.995,16.005,23.995z M16.064,3.365c-0.662,0.01-1.212,0.25-1.621,0.675s-0.628,0.984-0.616,1.574c-0.01,1.026,0.528,1.873,1.372,2.256c0.372,0.169,0.604,0.546,0.586,0.954s-0.281,0.764-0.666,0.899c-1.845,0.651-3.184,3.196-3.184,6.052c0,3.371,1.863,6.219,4.069,6.219c2.238,0,4.06-2.79,4.06-6.219c0-2.855-1.335-5.4-3.174-6.052c-0.384-0.136-0.646-0.491-0.665-0.897s0.212-0.784,0.582-0.954c0.843-0.387,1.382-1.236,1.374-2.163c0.024-0.639-0.183-1.202-0.583-1.635C17.199,3.641,16.654,3.389,16.064,3.365z"/></svg>