<svg xmlns="http://www.w3.org/2000/svg" viewBox="0 0 32 32"><!--! Font Icona - https://fonticona.com | License - https://fonticona.com/license | Copyright 2022 FontIcona.com --><path d="M21.673,19.012H12.77c-0.553,0-1-0.447-1-1s0.447-1,1-1h8.903c0.553,0,1,0.447,1,1S22.226,19.012,21.673,19.012z"/><path d="M22.552,24.021h-8.902c-0.553,0-1-0.447-1-1s0.447-1,1-1h8.902c0.553,0,1,0.447,1,1S23.104,24.021,22.552,24.021z"/><path d="M19.207,29.032h-8.903c-0.553,0-1-0.447-1-1s0.447-1,1-1h8.903c0.553,0,1,0.447,1,1S19.76,29.032,19.207,29.032z"/><path d="M19.23,14.001h-8.903c-0.553,0-1-0.447-1-1s0.447-1,1-1h8.903c0.553,0,1,0.447,1,1S19.783,14.001,19.23,14.001z"/><path d="M18.351,8.991H9.448c-0.553,0-1-0.447-1-1s0.447-1,1-1h8.902c0.553,0,1,0.447,1,1S18.903,8.991,18.351,8.991z"/><path d="M21.696,3.98h-8.903c-0.553,0-1-0.447-1-1s0.447-1,1-1h8.903c0.553,0,1,0.447,1,1S22.249,3.98,21.696,3.98z"/><path d="M10.849,32c-0.364,0-0.715-0.199-0.892-0.545c-0.251-0.492-0.056-1.095,0.436-1.346c3.43-1.752,5.655-4.089,6.436-6.757c0.613-2.1,0.299-4.301-0.911-6.367c-1.538-2.625-3.038-5.429-3.018-8.296c0.022-3.239,3.124-6.095,5.615-8.39c0.406-0.375,1.057-0.366,1.433,0.04c0.374,0.406,0.367,1.021-0.039,1.396L19.87,1.771c-2.207,2.033-4.954,4.562-4.971,6.933c-0.017,2.361,1.288,4.787,2.744,7.271c1.494,2.553,1.876,5.299,1.104,7.939c-0.938,3.209-3.513,5.968-7.444,7.977C11.157,31.965,11.002,32,10.849,32z"/></svg>