<svg xmlns="http://www.w3.org/2000/svg" viewBox="0 0 32 32"><!--! Font Icona - https://fonticona.com | License - https://fonticona.com/license | Copyright 2022 FontIcona.com --><path d="M15.475,7.248c-1.999,0-3.624-1.626-3.624-3.624S13.477,0,15.475,0c1.998,0,3.624,1.626,3.624,3.624S17.473,7.248,15.475,7.248z M15.475,2c-0.896,0-1.624,0.729-1.624,1.624s0.729,1.624,1.624,1.624c0.895,0,1.624-0.729,1.624-1.624S16.37,2,15.475,2z"/><path d="M16.525,32c-1.419,0-2.574-1.155-2.574-2.574s1.155-2.574,2.574-2.574c1.419,0,2.574,1.155,2.574,2.574S17.944,32,16.525,32z M16.525,28.852c-0.316,0-0.574,0.258-0.574,0.574S16.208,30,16.525,30s0.574-0.258,0.574-0.574S16.841,28.852,16.525,28.852z"/><path d="M29.951,18.574c-1.13,0-2.049-0.919-2.049-2.049c0-1.13,0.919-2.049,2.049-2.049S32,15.395,32,16.525C32,17.655,31.081,18.574,29.951,18.574z"/><path d="M26.471,8.697c-0.965,0-1.75-0.785-1.75-1.75s0.785-1.75,1.75-1.75s1.75,0.785,1.75,1.75S27.436,8.697,26.471,8.697z"/><path d="M3.099,19.624C1.39,19.624,0,18.233,0,16.525c0-1.709,1.39-3.099,3.099-3.099s3.099,1.39,3.099,3.099C6.198,18.233,4.808,19.624,3.099,19.624z M3.099,15.426C2.493,15.426,2,15.919,2,16.525s0.493,1.099,1.099,1.099s1.099-0.493,1.099-1.099S3.705,15.426,3.099,15.426z"/><path d="M7.14,28.484c-1.564,0-2.837-1.272-2.837-2.837S5.576,22.81,7.14,22.81s2.837,1.273,2.837,2.838S8.705,28.484,7.14,28.484z M7.14,24.81c-0.461,0-0.837,0.376-0.837,0.838s0.375,0.837,0.837,0.837s0.837-0.375,0.837-0.837S7.602,24.81,7.14,24.81z"/><path d="M25.91,27.959c-1.275,0-2.312-1.037-2.312-2.312c0-1.275,1.037-2.312,2.312-2.312c1.274,0,2.312,1.037,2.312,2.312C28.222,26.922,27.185,27.959,25.91,27.959z M25.91,25.335c-0.172,0-0.312,0.141-0.312,0.312s0.141,0.312,0.312,0.312s0.312-0.14,0.312-0.312S26.082,25.335,25.91,25.335z"/><path d="M6.615,10.763c-1.854,0-3.361-1.508-3.361-3.361c0-1.853,1.508-3.361,3.361-3.361c1.853,0,3.361,1.508,3.361,3.361C9.976,9.255,8.468,10.763,6.615,10.763z M6.615,6.041c-0.75,0-1.361,0.61-1.361,1.361s0.611,1.361,1.361,1.361s1.361-0.611,1.361-1.361S7.366,6.041,6.615,6.041z"/></svg>