<svg xmlns="http://www.w3.org/2000/svg" viewBox="0 0 32 32"><!--! Font Icona - https://fonticona.com | License - https://fonticona.com/license | Copyright 2022 FontIcona.com --><path d="M14.405,32c-3.074,0-5.945-1.183-8.101-3.337c-2.186-2.187-3.369-5.11-3.334-8.234c0.059-5.25,4.378-9.569,9.629-9.628c2.071,0.009,4.06,0.771,5.528,2.24c1.469,1.468,2.264,3.432,2.24,5.529c-0.04,3.554-2.964,6.478-6.518,6.518c-0.021,0-0.042,0-0.062,0c-1.417,0-2.741-0.545-3.735-1.539c-1.009-1.009-1.556-2.357-1.539-3.798c0.027-2.468,2.059-4.499,4.527-4.527c0.015,0,0.029,0,0.045,0c1.002,0,1.939,0.386,2.644,1.09c0.715,0.715,1.103,1.671,1.091,2.69c-0.02,1.773-1.479,3.233-3.254,3.253c-0.545,0.055-1.005-0.436-1.011-0.989c-0.006-0.552,0.437-1.005,0.989-1.011c0.695-0.008,1.268-0.58,1.275-1.275c0.006-0.478-0.174-0.922-0.505-1.253s-0.789-0.542-1.251-0.505c-1.392,0.016-2.535,1.16-2.551,2.55c-0.01,0.897,0.328,1.736,0.953,2.361c0.616,0.615,1.439,0.953,2.321,0.953c0.014,0,0.026,0,0.039,0c2.477-0.028,4.513-2.064,4.541-4.541c0.018-1.554-0.569-3.007-1.654-4.092c-1.084-1.084-2.556-1.634-4.092-1.654c-4.173,0.047-7.604,3.479-7.651,7.65c-0.029,2.581,0.946,4.995,2.748,6.798c1.803,1.802,4.228,2.74,6.799,2.75c6.822-0.077,12.435-5.689,12.512-12.512c0.047-4.186-1.537-8.101-4.461-11.025C19.687,3.581,15.841,2,11.724,2c-0.063,0-0.107,0.004-0.192,0.001c-0.547,0-0.994-0.44-1-0.989c-0.006-0.552,0.437-1.005,0.988-1.011c4.711-0.053,9.154,1.739,12.463,5.047c3.308,3.308,5.1,7.733,5.047,12.463C28.94,25.41,22.44,31.91,14.541,31.999C14.495,31.999,14.45,32,14.405,32z"/></svg>