<svg xmlns="http://www.w3.org/2000/svg" viewBox="0 0 32 32"><!--! Font Icona - https://fonticona.com | License - https://fonticona.com/license | Copyright 2022 FontIcona.com --><path d="M9.181,31.999c-0.334,0-0.664-0.034-0.982-0.105c-1.412-0.312-2.488-1.287-3.031-2.743c-0.66-1.774-0.638-3.655,0.067-5.589c0.23-0.633,0.407-1.3,0.561-1.949c-0.201,0.058-0.396,0.117-0.589,0.178c-0.985,0.311-2.042,0.151-2.898-0.431c-0.933-0.635-1.517-1.678-1.602-2.862c-0.106-1.501,0.41-2.763,1.458-3.563l0.234-0.243c0.159-0.164,0.294-0.301,0.415-0.449c0.192-0.235,0.214-0.401,0.085-0.657c-0.067-0.136-0.143-0.267-0.216-0.397c-0.068-0.121-0.137-0.242-0.201-0.365c-0.452-0.858-0.5-1.866-0.133-2.765c0.369-0.901,1.114-1.588,2.044-1.885c0.08-0.024,0.156-0.044,0.232-0.063C4.989,8.013,5.124,7.943,5.17,7.915c-0.015-0.02-0.015-0.157-0.083-0.45c-0.455-1.966,0.205-3.69,1.962-5.124c0.366-0.299,0.771-0.53,1.082-0.699c1.912-1.036,3.733-1.056,5.415-0.06l0.18,0.136c0.28,0.261,1.201,0.918,2.091,0.862c0.521-0.043,0.986-0.337,1.424-0.901V1.678c0.215-0.277,0.459-0.482,0.675-0.663c0.089-0.074,0.178-0.148,0.262-0.229c1.106-1.057,2.825-1.044,3.912,0.032c0.541,0.533,0.753,1.243,0.629,2.109c-0.029,0.203-0.066,0.408-0.103,0.612c-0.048,0.259-0.096,0.518-0.119,0.777c0.42-0.162,0.839-0.403,1.281-0.657c1.286-0.737,3.175-1.546,5.182-0.311c1.193,0.732,1.969,1.769,2.244,2.995c0.28,1.253-0.007,2.616-0.808,3.841c-0.536,0.819-1.287,1.47-2.363,2.046c0.337,0.226,0.714,0.482,1.042,0.824c1.153,1.199,1.182,3.027,0.064,4.252c-0.387,0.424-0.9,0.607-1.313,0.755l-0.105,0.038c-0.285,0.104-0.55,0.12-0.762,0.133c-0.033,0.002-0.066,0.004-0.1,0.006c0.131,0.261,0.274,0.482,0.424,0.714c0.086,0.131,0.171,0.263,0.253,0.395c0.576,0.938,1.11,1.978,1.119,3.235c0.01,1.518-0.729,2.991-1.976,3.941c-1.226,0.935-2.744,1.239-4.162,0.843c-0.659-0.186-1.242-0.487-1.807-0.778c-0.216-0.112-0.433-0.224-0.651-0.327c-0.171-0.08-0.447-0.211-0.58-0.241c-0.009,0.021-0.051,0.065-0.107,0.146c-0.104,0.146-0.228,0.545-0.327,0.865c-0.302,0.973-0.806,2.602-2.47,2.614c-0.75,0.011-1.297-0.386-1.691-0.672c-0.155-0.113-0.349-0.253-0.44-0.272c-0.094,0.056-0.384,0.487-0.539,0.719c-0.196,0.292-0.398,0.594-0.649,0.841C12.13,31.368,10.612,31.999,9.181,31.999z M6.239,19.49c0.452,0,0.872,0.156,1.181,0.453c0.418,0.402,0.578,0.991,0.438,1.614c-0.192,0.864-0.416,1.787-0.745,2.688c-0.545,1.496-0.569,2.872-0.071,4.207c0.306,0.821,0.841,1.322,1.589,1.488c1.023,0.223,2.317-0.218,3.219-1.105c0.106-0.104,0.252-0.321,0.394-0.531c0.464-0.691,1.242-1.85,2.612-1.561c0.509,0.107,0.894,0.387,1.202,0.61c0.179,0.13,0.401,0.291,0.5,0.291c0.001,0,0.001,0,0.001,0c0.202-0.002,0.444-0.785,0.575-1.206c0.156-0.504,0.317-1.025,0.606-1.432c1.091-1.536,2.392-0.922,3.171-0.556c0.241,0.114,0.479,0.236,0.717,0.359c0.497,0.257,0.967,0.5,1.43,0.63c0.813,0.229,1.688,0.042,2.408-0.507c0.75-0.572,1.194-1.446,1.188-2.339c-0.005-0.726-0.318-1.379-0.822-2.198l-0.228-0.356c-0.22-0.339-0.447-0.689-0.632-1.092c-0.273-0.601-0.281-1.203-0.021-1.698c0.265-0.505,0.781-0.849,1.454-0.969c0.141-0.025,0.286-0.036,0.431-0.045c0.07-0.005,0.143-0.003,0.209-0.02l0.107-0.039c0.165-0.059,0.44-0.157,0.513-0.223c0.406-0.446,0.395-1.07-0.033-1.515c-0.191-0.199-0.463-0.382-0.751-0.574c-0.183-0.122-0.365-0.245-0.539-0.376l-0.088-0.063c-0.24-0.168-0.642-0.45-0.76-0.969c-0.182-0.777,0.52-1.317,0.75-1.495c0.235-0.182,0.477-0.306,0.689-0.415l0.145-0.076c0.774-0.412,1.297-0.852,1.644-1.382c0.51-0.78,0.692-1.578,0.529-2.309c-0.154-0.688-0.617-1.285-1.339-1.729c-0.883-0.54-1.751-0.453-3.1,0.319C24.241,5.7,23.69,6.017,23.067,6.238c-0.697,0.249-1.358,0.177-1.862-0.204c-0.509-0.385-0.762-1.012-0.712-1.765c0.025-0.364,0.088-0.726,0.153-1.087c0.033-0.179,0.065-0.357,0.091-0.536c0.044-0.309-0.013-0.364-0.054-0.405c-0.322-0.319-0.795-0.323-1.125-0.01c-0.113,0.109-0.235,0.213-0.357,0.315c-0.152,0.128-0.297,0.248-0.381,0.357c-0.99,1.276-2.102,1.612-2.861,1.67c-1.714,0.141-3.118-0.971-3.515-1.319C11.392,2.667,10.353,2.714,9.083,3.4C8.834,3.535,8.548,3.698,8.314,3.89C7.134,4.853,6.752,5.787,7.036,7.014c0.38,1.646-0.187,2.574-1.837,3.013l-0.204,0.053c-0.359,0.115-0.651,0.384-0.795,0.736c-0.146,0.354-0.127,0.735,0.051,1.074c0.056,0.105,0.114,0.21,0.174,0.314c0.09,0.159,0.179,0.318,0.261,0.482c0.487,0.969,0.372,1.971-0.323,2.82c-0.156,0.19-0.326,0.368-0.53,0.577l-0.416,0.41c-0.535,0.389-0.775,1.015-0.716,1.861c0.041,0.568,0.309,1.062,0.732,1.351c0.354,0.24,0.77,0.303,1.176,0.176c0.364-0.114,0.729-0.224,1.099-0.321C5.887,19.513,6.065,19.49,6.239,19.49z M22.496,4.541L22.496,4.541L22.496,4.541z"/></svg>