<svg xmlns="http://www.w3.org/2000/svg" viewBox="0 0 32 32"><!--! Font Icona - https://fonticona.com | License - https://fonticona.com/license | Copyright 2022 FontIcona.com --><path d="M24.618,13.403c-0.171,0-0.344-0.043-0.502-0.136C16.465,8.81,7.75,11.308,7.664,11.334c-0.53,0.156-1.086-0.146-1.242-0.676c-0.156-0.529,0.146-1.085,0.676-1.242c0.39-0.115,9.637-2.764,18.024,2.123c0.478,0.278,0.639,0.891,0.361,1.368C25.298,13.226,24.963,13.403,24.618,13.403z"/><path d="M23.047,18.818c-0.185,0-0.371-0.051-0.537-0.157c-4.293-2.743-9.523-3.381-14.353-1.751c-0.522,0.18-1.091-0.104-1.268-0.627s0.104-1.091,0.627-1.268c5.402-1.826,11.262-1.112,16.069,1.96c0.466,0.297,0.602,0.916,0.305,1.381C23.7,18.655,23.377,18.818,23.047,18.818z"/><path d="M21.16,23.391c-0.204,0-0.409-0.062-0.587-0.191c-4.925-3.576-11.893-1.315-11.962-1.291c-0.522,0.176-1.09-0.108-1.265-0.631c-0.176-0.523,0.105-1.089,0.629-1.265c0.323-0.109,8.006-2.622,13.773,1.568c0.446,0.325,0.546,0.95,0.221,1.397C21.774,23.248,21.47,23.391,21.16,23.391z"/><path d="M16,32C7.178,32,0,24.822,0,16S7.178,0,16,0s16,7.178,16,16S24.822,32,16,32z M16,2C8.28,2,2,8.28,2,16s6.28,14,14,14s14-6.28,14-14S23.72,2,16,2z"/></svg>