<svg xmlns="http://www.w3.org/2000/svg" viewBox="0 0 32 32"><!--! Font Icona - https://fonticona.com | License - https://fonticona.com/license | Copyright 2022 FontIcona.com --><circle cx="24.093" cy="4.71" r="1.25"/><circle cx="26.759" cy="8.179" r="1.25"/><circle cx="28.763" cy="4.405" r="1.25"/><path d="M19.343,32h-6.686c-1.654,0-3-1.346-3-3V10.565c0-1.654,1.346-3,3-3h6.686c1.654,0,3,1.346,3,3V29C22.343,30.654,20.997,32,19.343,32z M11.657,24.704V29c0,0.551,0.449,1,1,1h6.686c0.551,0,1-0.449,1-1V10.565c0-0.551-0.449-1-1-1h-6.686c-0.551,0-1,0.449-1,1V24.704z"/><path d="M17.899,5.695c-0.552,0-1-0.448-1-1V2.212l-1.773,0.645c0.029-0.02-0.025,0.113-0.025,0.228v1.61c0,0.552-0.448,1-1,1s-1-0.448-1-1v-1.61c0-0.939,0.564-1.826,1.342-2.108l2.431-0.884c0.463-0.167,0.95-0.107,1.338,0.166c0.436,0.306,0.687,0.833,0.687,1.446v2.99C18.899,5.247,18.451,5.695,17.899,5.695z"/><path d="M19.838,9.381c-0.552,0-1-0.448-1-1c0-1.565-1.273-2.838-2.838-2.838s-2.838,1.273-2.838,2.838c0,0.552-0.448,1-1,1s-1-0.448-1-1c0-2.668,2.17-4.838,4.838-4.838s4.838,2.17,4.838,4.838C20.838,8.933,20.391,9.381,19.838,9.381z"/></svg>