<svg xmlns="http://www.w3.org/2000/svg" viewBox="0 0 32 32"><!--! Font Icona - https://fonticona.com | License - https://fonticona.com/license | Copyright 2022 FontIcona.com --><path d="M18.221,32h-8.119c-1.568,0-2.885-1.229-2.995-2.799c-1.153-16.356,2.56-18.587,3.315-18.868c0.631-0.233,1.613-0.41,2.286-0.41h4.604c0.225,0,0.442,0.075,0.618,0.214c0.615,0.483,0.773,1.04,0.799,1.422c0.053,0.795-0.423,1.384-0.581,1.556c0.002,0.002,0.003,0.004,0.005,0.006c0.56,0.506,0.671,1.098,0.659,1.5c-0.02,0.688-0.403,1.234-0.697,1.556c0.039,0.054,0.095,0.116,0.15,0.167c3.197,1.584,3.031,4.495,3.022,4.62c-0.036,0.521-0.066,1.405-0.066,1.928V29C21.221,30.655,19.875,32,18.221,32z M11.119,12.208c0.021,0-3.063,2.02-2.019,16.853C9.139,29.587,9.578,30,10.102,30h8.119c0.552,0,1-0.448,1-1v-6.109c0-0.57,0.032-1.497,0.071-2.067c0.003-0.06,0.052-1.759-1.999-2.729c-0.059-0.028-0.113-0.061-0.165-0.1c-0.825-0.607-1.432-1.744-0.815-2.807c0.062-0.105,0.142-0.199,0.236-0.275c0.114-0.097,0.251-0.28,0.264-0.358c-0.201-0.145-0.871-0.849-0.767-1.732c0.04-0.339,0.188-0.646,0.425-0.899h-3.763C12.278,11.923,11.521,12.059,11.119,12.208C11.119,12.208,11.119,12.208,11.119,12.208z"/><path d="M15.849,8.362h-3.437c-0.967,0-1.753-0.739-1.753-1.648V6.578H8.27c-0.948,0-1.249-0.611-1.318-0.799C6.883,5.596,6.714,4.95,7.396,4.363l4.255-3.662C12.123,0.294,12.938,0,13.589,0h8.521c0.967,0,1.753,0.739,1.753,1.648v0.992c0,0.909-0.786,1.648-1.753,1.648h-2.825c-0.042,0.002-0.133,0.045-0.163,0.077L17.79,7.191C17.469,7.868,16.652,8.362,15.849,8.362z M12.659,6.362h3.189c0.043-0.002,0.134-0.045,0.165-0.077l1.331-2.823c0.321-0.679,1.138-1.172,1.94-1.172h2.578V2h-8.274c-0.185,0-0.529,0.127-0.633,0.216l-2.744,2.362h0.694c0.967,0,1.753,0.739,1.753,1.648V6.362z"/><path d="M20.568,8.897c-2.845-2.016-3.144-4.449-2.534-5.922c0.212-0.512,0.798-0.752,1.306-0.542c0.511,0.211,0.753,0.796,0.542,1.306c-0.327,0.793-0.041,2.191,1.843,3.524L20.568,8.897z"/><path d="M12.412,11.923c-0.553,0-1-0.447-1-1V7.362c0-0.553,0.447-1,1-1s1,0.447,1,1v3.562C13.412,11.476,12.965,11.923,12.412,11.923z"/><path d="M15.849,11.923c-0.553,0-1-0.447-1-1V7.362c0-0.553,0.447-1,1-1s1,0.447,1,1v3.562C16.849,11.476,16.401,11.923,15.849,11.923z"/><path d="M24.119,3.141h-1.256c-0.553,0-1-0.447-1-1s0.447-1,1-1h1.256c0.553,0,1,0.447,1,1S24.672,3.141,24.119,3.141z"/></svg>