<svg xmlns="http://www.w3.org/2000/svg" viewBox="0 0 32 32"><!--! Font Icona - https://fonticona.com | License - https://fonticona.com/license | Copyright 2022 FontIcona.com --><path d="M29,32H3c-1.654,0-3-1.346-3-3V3c0-1.654,1.346-3,3-3h26c1.654,0,3,1.346,3,3v26C32,30.654,30.654,32,29,32z M3,2C2.448,2,2,2.449,2,3v26c0,0.551,0.448,1,1,1h26c0.552,0,1-0.449,1-1V3c0-0.551-0.448-1-1-1H3z"/><path d="M16,25.778c-0.553,0-1-0.448-1-1V12.556c0-0.552,0.447-1,1-1s1,0.448,1,1v12.222C17,25.33,16.553,25.778,16,25.778z"/><circle cx="16" cy="7.556" r="1.25"/></svg>