<svg xmlns="http://www.w3.org/2000/svg" viewBox="0 0 32 32"><!--! Font Icona - https://fonticona.com | License - https://fonticona.com/license | Copyright 2022 FontIcona.com --><path d="M5.846,21.867c-1.497,0-2.994-0.57-4.134-1.709c-2.278-2.28-2.278-5.988,0-8.267l8.939-8.939c0.391-0.391,1.023-0.391,1.414,0s0.391,1.023,0,1.414l-8.939,8.939c-1.499,1.5-1.499,3.939,0,5.439c1.5,1.499,3.939,1.499,5.439,0L19.292,8.017c0.391-0.391,1.023-0.391,1.414,0s0.391,1.023,0,1.414L9.979,20.157C8.84,21.297,7.343,21.867,5.846,21.867z"/><path d="M5.893,16.977c-0.256,0-0.512-0.098-0.707-0.293c-0.391-0.391-0.391-1.023,0-1.414L15.316,5.139c2.279-2.279,5.988-2.279,8.268,0l0.596,0.596c0.391,0.391,0.391,1.024,0,1.415c-0.391,0.39-1.023,0.39-1.414,0L22.17,6.553c-1.5-1.499-3.939-1.499-5.439,0L6.6,16.684C6.404,16.879,6.148,16.977,5.893,16.977z"/><path d="M20.642,29.342c-0.256,0-0.512-0.098-0.707-0.293c-0.391-0.391-0.391-1.023,0-1.414l8.939-8.939c1.499-1.5,1.499-3.939,0-5.439c-1.5-1.499-3.939-1.499-5.439,0L12.708,23.983c-0.391,0.391-1.023,0.391-1.414,0s-0.391-1.023,0-1.414l10.727-10.727c2.279-2.279,5.988-2.279,8.268,0c2.278,2.28,2.278,5.988,0,8.267l-8.939,8.939C21.153,29.244,20.897,29.342,20.642,29.342z"/><path d="M12.55,28.571c-1.497,0-2.994-0.57-4.134-1.709l-0.559-0.559c-0.391-0.391-0.391-1.024,0-1.415c0.391-0.39,1.023-0.39,1.414,0l0.559,0.559c1.5,1.499,3.939,1.499,5.439,0L25.4,15.316c0.391-0.391,1.023-0.391,1.414,0s0.391,1.023,0,1.414L16.684,26.861C15.544,28.001,14.047,28.571,12.55,28.571z"/></svg>