<svg xmlns="http://www.w3.org/2000/svg" viewBox="0 0 32 32"><!--! Font Icona - https://fonticona.com | License - https://fonticona.com/license | Copyright 2022 FontIcona.com --><polygon points="24.014,24.026 16.386,24.026 16.386,22.026 22.014,22.026 22.014,18.583 24.014,18.583 "/><path d="M30.993,32H2c-1.103,0-2-0.897-2-2v-5.974c0-1.103,0.897-2,2-2h15.386v2H2V30h28v-5.974c0-0.467-0.002-0.859-0.005-0.946l0.028-0.001c-0.037-0.296-0.037-0.651-0.037-1.053V2h-5.973v16.583h-2V2c0-1.103,0.897-2,2-2h5.973c1.103,0,2,0.897,2,2v20.026c0,0.468,0.002,0.859,0.005,0.945l-0.028,0.002C32,23.27,32,23.625,32,24.026V30C32,31.204,32,32,30.993,32z"/><rect x="26.006" y="21.37" transform="matrix(0.7065 -0.7077 0.7077 0.7065 -11.1911 27.0391)" width="2.001" height="11.285"/><path d="M30.412,5.5h-2.967c-0.553,0-1-0.448-1-1s0.447-1,1-1h2.967c0.553,0,1,0.448,1,1S30.965,5.5,30.412,5.5z"/><path d="M30.412,14.577h-2.967c-0.553,0-1-0.448-1-1s0.447-1,1-1h2.967c0.553,0,1,0.448,1,1S30.965,14.577,30.412,14.577z"/><path d="M30.412,23.653h-2.967c-0.553,0-1-0.447-1-1s0.447-1,1-1h2.967c0.553,0,1,0.447,1,1S30.965,23.653,30.412,23.653z"/><path d="M30.412,10.039h-1.786c-0.553,0-1-0.448-1-1s0.447-1,1-1h1.786c0.553,0,1,0.448,1,1S30.965,10.039,30.412,10.039z"/><path d="M30.412,19.115h-1.786c-0.553,0-1-0.447-1-1s0.447-1,1-1h1.786c0.553,0,1,0.447,1,1S30.965,19.115,30.412,19.115z"/></svg>