<svg xmlns="http://www.w3.org/2000/svg" viewBox="0 0 32 32"><!--! Font Icona - https://fonticona.com | License - https://fonticona.com/license | Copyright 2022 FontIcona.com --><path d="M11.084,29.214c-0.432,0-0.817-0.278-0.951-0.692l-4.094-12.64H1c-0.553,0-1-0.448-1-1s0.447-1,1-1h5.767c0.434,0,0.817,0.279,0.951,0.692l3.16,9.757l4.357-20.75c0.097-0.463,0.506-0.794,0.979-0.794H31c0.553,0,1,0.448,1,1s-0.447,1-1,1H17.025l-4.963,23.633c-0.093,0.443-0.473,0.769-0.926,0.793C11.119,29.213,11.102,29.214,11.084,29.214z"/></svg>