<svg xmlns="http://www.w3.org/2000/svg" viewBox="0 0 32 32"><!--! Font Icona - https://fonticona.com | License - https://fonticona.com/license | Copyright 2022 FontIcona.com --><path d="M0.999,25.067c-0.165,0-0.332-0.041-0.486-0.127c-0.482-0.27-0.655-0.878-0.386-1.36c0.179-0.322,4.462-7.895,10.604-9.61c0.383-0.106,0.794,0.024,1.045,0.333s0.295,0.738,0.11,1.092c-0.01,0.019-0.758,1.5-0.58,2.77c1.573-2.656,4.931-7.731,8.025-8.554c0.372-0.099,0.769,0.025,1.02,0.319c0.25,0.294,0.308,0.707,0.148,1.059c-0.864,1.916-1.813,4.65-2.097,6.636c2.016-2.451,5.517-6.159,8.264-6.159c0.329,0,0.637,0.162,0.823,0.432c0.187,0.271,0.229,0.616,0.111,0.923c-0.326,0.86-0.662,2.027-0.839,3.094c1.111-1.258,2.633-2.57,4.191-2.643c0.541-0.017,1.02,0.401,1.045,0.953c0.025,0.551-0.401,1.02-0.953,1.045c-1.294,0.06-3.284,2.361-4.284,3.977c-0.191,0.31-0.54,0.489-0.901,0.473c-0.364-0.019-0.689-0.234-0.849-0.562c-0.673-1.387-0.309-3.573,0.118-5.169c-2.19,1.27-5.059,4.579-6.672,6.836c-0.201,0.281-0.534,0.44-0.875,0.417c-0.344-0.021-0.652-0.218-0.817-0.521c-0.951-1.75-0.137-5.064,0.725-7.557c-1.978,1.967-4.095,5.237-5.285,7.472c-0.142,0.265-0.394,0.452-0.688,0.511c-0.294,0.058-0.599-0.018-0.831-0.208c-1.456-1.198-1.547-2.911-1.301-4.273c-4.371,2.342-7.478,7.826-7.513,7.889C1.689,24.882,1.35,25.067,0.999,25.067z"/><path d="M29,32H3c-1.654,0-3-1.346-3-3V2.001C0,0.898,0.898,0,2.002,0H29c1.654,0,3,1.346,3,3v26C32,30.654,30.654,32,29,32z M2.002,2H2v27c0,0.551,0.448,1,1,1h26c0.552,0,1-0.449,1-1V3c0-0.551-0.448-1-1-1H2.002z"/></svg>