<svg xmlns="http://www.w3.org/2000/svg" viewBox="0 0 32 32"><!--! Font Icona - https://fonticona.com | License - https://fonticona.com/license | Copyright 2022 FontIcona.com --><path d="M11.5,14.5H3c-1.654,0-3-1.346-3-3V3c0-1.654,1.346-3,3-3h8.5c1.654,0,3,1.346,3,3v8.5C14.5,13.154,13.154,14.5,11.5,14.5z M3,2C2.449,2,2,2.449,2,3v8.5c0,0.551,0.449,1,1,1h8.5c0.551,0,1-0.449,1-1V3c0-0.551-0.449-1-1-1H3z"/><path d="M29,14.5h-8.5c-1.654,0-3-1.346-3-3V3c0-1.654,1.346-3,3-3H29c1.654,0,3,1.346,3,3v8.5C32,13.154,30.654,14.5,29,14.5z M20.5,2c-0.552,0-1,0.449-1,1v8.5c0,0.551,0.448,1,1,1H29c0.552,0,1-0.449,1-1V3c0-0.551-0.448-1-1-1H20.5z"/><path d="M11.5,32H3c-1.654,0-3-1.346-3-3v-8.5c0-1.654,1.346-3,3-3h8.5c1.654,0,3,1.346,3,3V29C14.5,30.654,13.154,32,11.5,32z M3,19.5c-0.551,0-1,0.448-1,1V29c0,0.552,0.449,1,1,1h8.5c0.551,0,1-0.448,1-1v-8.5c0-0.552-0.449-1-1-1H3z"/><path d="M29,32h-8.5c-1.654,0-3-1.346-3-3v-8.5c0-1.654,1.346-3,3-3H29c1.654,0,3,1.346,3,3V29C32,30.654,30.654,32,29,32z M20.5,19.5c-0.552,0-1,0.448-1,1V29c0,0.552,0.448,1,1,1H29c0.552,0,1-0.448,1-1v-8.5c0-0.552-0.448-1-1-1H20.5z"/></svg>