<svg xmlns="http://www.w3.org/2000/svg" viewBox="0 0 32 32"><!--! Font Icona - https://fonticona.com | License - https://fonticona.com/license | Copyright 2022 FontIcona.com --><path d="M25.413,32H6.587c-1.654,0-3-1.346-3-3v-7h2v7c0,0.552,0.449,1,1,1h18.826c0.552,0,1-0.448,1-1v-7h2v7C28.413,30.654,27.067,32,25.413,32z"/><rect x="10.034" y="24.088" width="11.667" height="2"/><rect x="22.372" y="0.029" transform="matrix(0.8549 -0.5187 0.5187 0.8549 -0.0974 13.0986)" width="1.999" height="13.389"/><rect x="19.216" y="4.075" transform="matrix(0.7164 -0.6976 0.6976 0.7164 -1.4593 17.0264)" width="2" height="12.466"/><rect x="16.591" y="8.931" transform="matrix(0.4851 -0.8745 0.8745 0.4851 -4.0811 23.1194)" width="2" height="12.188"/><rect x="15" y="13.855" transform="matrix(0.2357 -0.9718 0.9718 0.2357 -7.2012 30.8311)" width="2" height="12.277"/></svg>