<svg xmlns="http://www.w3.org/2000/svg" viewBox="0 0 32 32"><!--! Font Icona - https://fonticona.com | License - https://fonticona.com/license | Copyright 2022 FontIcona.com --><path d="M29,32H3c-1.654,0-3-1.346-3-3V3c0-1.654,1.346-3,3-3h26c1.654,0,3,1.346,3,3v26C32,30.654,30.654,32,29,32z M3,2C2.449,2,2,2.449,2,3v26c0,0.552,0.449,1,1,1h26c0.552,0,1-0.448,1-1V3c0-0.551-0.448-1-1-1H3z"/><path d="M7.948,20.852c-0.028,0-0.056-0.001-0.084-0.001C5.33,20.8,4.424,19.002,4.434,17.805c0.005-0.549,0.452-0.991,1-0.991c0.003,0,0.006,0,0.009,0c0.547,0.005,0.987,0.447,0.991,0.992c0.011,0.309,0.178,1.02,1.473,1.045c0.215,0.019,0.438-0.028,0.668-0.099c0.338-0.103,0.654-0.366,0.71-0.534c0.063-0.187-0.058-0.416-0.205-0.561c-0.182-0.178-0.412-0.329-0.667-0.439c-0.229-0.099-0.546-0.18-0.796-0.239c-0.414-0.098-0.77-0.212-1.087-0.348c-0.478-0.206-0.918-0.499-1.273-0.846c-0.736-0.72-1.005-1.727-0.702-2.628c0.329-0.982,1.297-1.589,2.026-1.81c0.422-0.129,0.865-0.194,1.288-0.185c2.537,0.051,3.443,1.85,3.433,3.046c-0.004,0.549-0.451,0.992-1,0.992c-0.002,0-0.005,0-0.008,0c-0.552-0.004-0.996-0.456-0.992-1.008c-0.01-0.288-0.174-1.004-1.473-1.03c-0.209-0.015-0.441,0.03-0.666,0.099c-0.341,0.103-0.656,0.366-0.712,0.533c-0.063,0.188,0.058,0.417,0.205,0.562c0.181,0.177,0.412,0.329,0.666,0.438c0.208,0.09,0.456,0.168,0.757,0.239c0.351,0.083,0.758,0.19,1.126,0.349c0.478,0.206,0.918,0.498,1.273,0.845c0.736,0.719,1.005,1.726,0.702,2.628c-0.332,0.983-1.298,1.59-2.025,1.811C8.755,20.788,8.339,20.852,7.948,20.852z"/><path d="M13.368,20.851c-0.552,0-1-0.447-1-1v-7.689c0-0.552,0.448-1,1-1h2.638c1.78,0,3.229,1.449,3.229,3.229s-1.449,3.229-3.229,3.229h-1.638v2.231C14.368,20.403,13.92,20.851,13.368,20.851z M14.368,15.619h1.638c0.678,0,1.229-0.551,1.229-1.229s-0.552-1.229-1.229-1.229h-1.638V15.619z"/><path d="M20.03,20.851c-0.107,0-0.217-0.018-0.323-0.054c-0.523-0.179-0.802-0.747-0.623-1.27l2.631-7.69c0.179-0.522,0.75-0.8,1.27-0.623c0.523,0.179,0.802,0.748,0.623,1.27l-2.631,7.689C20.834,20.59,20.446,20.851,20.03,20.851z"/><path d="M23.994,20.851c-0.107,0-0.217-0.018-0.324-0.054c-0.522-0.179-0.801-0.748-0.622-1.271l2.632-7.689c0.18-0.523,0.747-0.8,1.271-0.623c0.522,0.179,0.801,0.748,0.622,1.27l-2.632,7.69C24.798,20.59,24.41,20.851,23.994,20.851z"/></svg>