<svg xmlns="http://www.w3.org/2000/svg" viewBox="0 0 32 32"><!--! Font Icona - https://fonticona.com | License - https://fonticona.com/license | Copyright 2022 FontIcona.com --><path d="M4.24,5.514c-0.072,0-0.146-0.008-0.219-0.024C3.482,5.37,3.143,4.835,3.264,4.296C3.82,1.807,6.073,0,8.621,0h14.85c2.546,0,4.798,1.804,5.355,4.291c0.121,0.539-0.218,1.074-0.757,1.194c-0.536,0.121-1.073-0.218-1.194-0.757C26.521,3.147,25.089,2,23.471,2H8.621C7.002,2,5.569,3.149,5.215,4.732C5.111,5.198,4.698,5.514,4.24,5.514z"/><path d="M27.96,12.363c-0.553,0-1-0.448-1-1V7.927c0-0.552,0.447-1,1-1s1,0.448,1,1v3.437C28.96,11.916,28.513,12.363,27.96,12.363z"/><path d="M27.96,19.237c-0.553,0-1-0.448-1-1V14.8c0-0.552,0.447-1,1-1s1,0.448,1,1v3.437C28.96,18.789,28.513,19.237,27.96,19.237z"/><path d="M16.521,32c-0.129,0-0.259-0.025-0.383-0.076c-0.374-0.155-0.617-0.52-0.617-0.924v-4.655H8.621c-2.704,0-5.097-1.931-5.564-4.492c-0.1-0.543,0.261-1.064,0.804-1.164c0.543-0.095,1.064,0.261,1.163,0.804c0.293,1.599,1.873,2.852,3.598,2.852h7.899c0.553,0,1,0.448,1,1v3.241l3.948-3.948c0.188-0.188,0.441-0.293,0.707-0.293h1.295c1.61,0,3.08-1.235,3.418-2.874C27,20.93,27.53,20.58,28.07,20.694c0.541,0.112,0.889,0.641,0.777,1.182c-0.534,2.59-2.796,4.47-5.377,4.47H22.59l-5.362,5.362C17.036,31.898,16.78,32,16.521,32z"/><path d="M4.132,19.237c-0.553,0-1-0.448-1-1V14.8c0-0.552,0.447-1,1-1s1,0.448,1,1v3.437C5.132,18.789,4.685,19.237,4.132,19.237z"/><path d="M4.132,12.363c-0.553,0-1-0.448-1-1V7.927c0-0.552,0.447-1,1-1s1,0.448,1,1v3.437C5.132,11.916,4.685,12.363,4.132,12.363z"/><rect x="4.132" y="3.49" width="23.806" height="2"/><rect x="4.132" y="6.927" width="23.806" height="2"/><rect x="4.132" y="10.363" width="23.806" height="2"/><rect x="4.04" y="20.673" width="23.828" height="2"/><rect x="4.132" y="17.237" width="23.828" height="2"/><rect x="4.132" y="13.8" width="23.828" height="2"/></svg>