<svg xmlns="http://www.w3.org/2000/svg" viewBox="0 0 32 32"><!--! Font Icona - https://fonticona.com | License - https://fonticona.com/license | Copyright 2022 FontIcona.com --><path d="M26.079,29.25H5.921c-1.103,0-2-0.897-2-2v-1.347c0-1.404,0.996-2.638,2.369-2.933l5.875-1.353c0.432-0.1,0.743-0.465,0.774-0.909c0.216-3.078-0.051-5.465-0.731-6.548c-0.365-0.582-0.759-1.146-1.151-1.709l-0.48-0.693c-0.714-1.042-1.476-2.316-1.7-3.875C8.757,7.062,8.838,6.184,9.122,5.199C10.144,1.653,12.328,0,15.999,0l0,0c0.004,0,0.01,0,0.014,0c3.617,0,5.863,1.706,6.87,5.214c0.278,0.974,0.358,1.881,0.237,2.697c-0.23,1.546-0.987,2.813-1.696,3.848l-0.48,0.693c-0.393,0.563-0.786,1.127-1.151,1.708c-0.682,1.085-0.95,3.472-0.736,6.548c0.031,0.444,0.342,0.81,0.773,0.909l5.896,1.355c1.358,0.292,2.354,1.525,2.354,2.93v1.347C28.079,28.353,27.182,29.25,26.079,29.25z M16,2c-2.789,0-4.178,1.053-4.956,3.754c-0.201,0.696-0.265,1.316-0.188,1.844c0.165,1.149,0.756,2.135,1.369,3.029l0.473,0.681c0.411,0.59,0.821,1.18,1.203,1.789c1.172,1.865,1.209,5.246,1.034,7.752c-0.095,1.328-1.027,2.42-2.321,2.718l-5.89,1.355c-0.472,0.102-0.804,0.513-0.804,0.98v1.347h9.974c0.001,0,0.002,0,0.003,0h10.182v-1.347c0-0.468-0.332-0.879-0.789-0.978l-5.909-1.358c-1.295-0.297-2.229-1.39-2.321-2.72c-0.174-2.505-0.135-5.884,1.039-7.751c0.382-0.608,0.792-1.198,1.203-1.788l0.472-0.681c0.61-0.89,1.198-1.87,1.368-3.011c0.079-0.531,0.018-1.154-0.183-1.852C20.203,3.127,18.723,2,16.014,2C16.009,2,16.006,2,16,2L16,2z"/><path d="M24.685,32H7.007c-0.553,0-1-0.447-1-1s0.447-1,1-1h17.678c0.553,0,1,0.447,1,1S25.237,32,24.685,32z"/></svg>