<svg xmlns="http://www.w3.org/2000/svg" viewBox="0 0 32 32"><!--! Font Icona - https://fonticona.com | License - https://fonticona.com/license | Copyright 2022 FontIcona.com --><path d="M15.71,32c-0.003,0-0.006,0-0.01,0c-0.36-0.003-0.69-0.2-0.865-0.515L2.078,8.476C1.906,8.167,1.911,7.789,2.09,7.484s0.508-0.493,0.862-0.493h26.096c0.357,0,0.688,0.191,0.867,0.501c0.178,0.31,0.178,0.691-0.001,1L16.575,31.501C16.396,31.81,16.066,32,15.71,32z M4.65,8.991l11.08,19.981L27.312,8.991H4.65z"/><path d="M29.048,25.009H2.952c-0.357,0-0.688-0.191-0.867-0.501c-0.178-0.31-0.178-0.691,0.001-1L15.425,0.499C15.605,0.187,15.945,0.009,16.3,0c0.36,0.003,0.69,0.2,0.865,0.515l12.758,23.009c0.172,0.31,0.167,0.687-0.013,0.992S29.402,25.009,29.048,25.009z M4.688,23.009H27.35L16.271,3.027L4.688,23.009z"/></svg>