<svg xmlns="http://www.w3.org/2000/svg" viewBox="0 0 32 32"><!--! Font Icona - https://fonticona.com | License - https://fonticona.com/license | Copyright 2022 FontIcona.com --><path d="M19.491,32h-6.982c-0.553,0-1-0.447-1-1v-7.582l-5.651,2.957c-0.235,0.123-0.51,0.148-0.763,0.068c-0.253-0.079-0.465-0.256-0.587-0.49l-3.236-6.188c-0.256-0.489-0.067-1.094,0.422-1.35L6.311,16l-4.617-2.415c-0.489-0.256-0.678-0.859-0.422-1.35l3.236-6.187c0.122-0.234,0.334-0.411,0.587-0.49c0.254-0.081,0.528-0.056,0.763,0.068l5.651,2.957V1c0-0.553,0.447-1,1-1h6.982c0.553,0,1,0.447,1,1v7.583l5.651-2.957c0.234-0.124,0.508-0.15,0.763-0.068c0.253,0.079,0.465,0.256,0.587,0.49l3.236,6.187c0.256,0.49,0.067,1.094-0.422,1.35L25.689,16l4.617,2.416c0.489,0.256,0.678,0.86,0.422,1.35l-3.236,6.188c-0.122,0.234-0.334,0.411-0.587,0.49c-0.252,0.081-0.527,0.056-0.763-0.068l-5.651-2.957V31C20.491,31.552,20.044,32,19.491,32z M13.509,30h4.982v-8.233c0-0.35,0.183-0.674,0.482-0.855c0.299-0.181,0.672-0.192,0.981-0.03l6.229,3.259l2.31-4.415l-5.425-2.839c-0.329-0.172-0.536-0.514-0.536-0.886c0-0.372,0.207-0.714,0.536-0.886l5.425-2.838l-2.31-4.415l-6.229,3.259c-0.31,0.162-0.683,0.15-0.981-0.03c-0.3-0.182-0.482-0.506-0.482-0.855V2h-4.982v8.234c0,0.35-0.183,0.674-0.482,0.855c-0.299,0.181-0.672,0.192-0.981,0.03L5.816,7.861l-2.31,4.415l5.425,2.838C9.261,15.286,9.468,15.627,9.468,16c0,0.372-0.207,0.714-0.536,0.886l-5.425,2.839l2.31,4.415l6.229-3.259c0.31-0.162,0.683-0.15,0.981,0.03c0.3,0.182,0.482,0.506,0.482,0.855V30z"/></svg>