<svg xmlns="http://www.w3.org/2000/svg" viewBox="0 0 32 32"><!--! Font Icona - https://fonticona.com | License - https://fonticona.com/license | Copyright 2022 FontIcona.com --><path d="M28.573,23.141c-0.198,0-0.396-0.062-0.563-0.184l-3.318-2.427l-3.334,2.405c-0.335,0.242-0.788,0.241-1.123-0.003c-0.333-0.245-0.472-0.676-0.343-1.069l1.283-3.905l-3.317-2.427c-0.333-0.245-0.472-0.676-0.343-1.069c0.129-0.392,0.495-0.657,0.907-0.657c0.001,0,0.002,0,0.003,0l4.111,0.014l1.283-3.905c0.129-0.392,0.495-0.657,0.907-0.657c0.001,0,0.002,0,0.003,0c0.414,0.001,0.78,0.269,0.906,0.663l1.257,3.914l4.11,0.014c0.414,0.001,0.78,0.269,0.906,0.663c0.127,0.394-0.015,0.825-0.351,1.066l-3.333,2.405l1.257,3.914c0.127,0.394-0.015,0.824-0.351,1.066C28.965,23.081,28.77,23.141,28.573,23.141z M24.695,18.394c0.198,0,0.396,0.062,0.563,0.184l1.506,1.102l-0.57-1.776c-0.127-0.394,0.015-0.824,0.351-1.066l1.513-1.091l-1.865-0.006c-0.414-0.001-0.78-0.269-0.906-0.663l-0.57-1.775l-0.582,1.771c-0.129,0.392-0.495,0.657-0.907,0.657c-0.001,0-0.002,0-0.003,0l-1.865-0.006l1.505,1.101c0.333,0.245,0.472,0.676,0.343,1.069l-0.582,1.772l1.513-1.091C24.304,18.454,24.499,18.394,24.695,18.394z"/><path d="M15.34,31.379C6.859,31.379-0.04,24.48-0.04,16S6.859,0.621,15.34,0.621c3.691,0,7.261,1.328,10.051,3.738c0.386,0.333,0.474,0.897,0.206,1.332c-0.268,0.435-0.812,0.61-1.281,0.417c-1.29-0.531-2.658-0.8-4.067-0.8C14.352,5.308,9.555,10.104,9.555,16s4.797,10.692,10.693,10.692c1.409,0,2.777-0.269,4.067-0.8c0.469-0.192,1.014-0.019,1.281,0.417c0.268,0.435,0.18,0.999-0.206,1.332C22.601,30.052,19.031,31.379,15.34,31.379z M15.34,2.701C8.006,2.701,2.04,8.667,2.04,16s5.966,13.299,13.3,13.299c1.315,0,2.613-0.195,3.853-0.57C12.642,28.191,7.475,22.688,7.475,16S12.642,3.809,19.192,3.271C17.953,2.896,16.655,2.701,15.34,2.701z"/></svg>