<svg xmlns="http://www.w3.org/2000/svg" viewBox="0 0 32 32"><!--! Font Icona - https://fonticona.com | License - https://fonticona.com/license | Copyright 2022 FontIcona.com --><path d="M8.133,32.005c-0.698,0-1.404-0.24-1.981-0.718c-0.857-0.661-1.287-1.77-1.091-2.871l1.27-7.816l-5.141-5.245c-0.513-0.467-0.916-1.114-1.125-1.833l-0.04-0.28v-0.931l0.066-0.173c0.024-0.062,0.055-0.125,0.088-0.187l0.003-0.01c0.348-1.108,1.276-1.91,2.423-2.091c0.396-0.079,0.839-0.143,1.281-0.208l6.205-1.018c0.529-1.138,1.063-2.276,1.599-3.414c0.512-1.088,1.022-2.176,1.528-3.265c0.345-0.835,1.067-1.505,1.967-1.798L15.562,0h0.942l0.442,0.159c0.889,0.257,1.647,0.939,2.021,1.853c0.976,2.094,1.974,4.23,2.975,6.366c0.047,0.076,0.118,0.193,0.17,0.345l6.163,0.945c0.431,0.064,0.86,0.128,1.291,0.213l0.031,0.007c0.477,0.109,0.925,0.334,1.297,0.649c0.623,0.527,1.003,1.267,1.07,2.082c0.066,0.814-0.188,1.606-0.716,2.229c-0.945,1.032-1.906,2.009-2.836,2.954l-2.719,2.793c0.328,1.944,0.637,3.86,0.946,5.784l0.314,1.953c0.147,0.7,0.023,1.474-0.359,2.134c-0.854,1.47-2.746,1.971-4.213,1.117c-0.903-0.491-1.821-1.005-2.739-1.52l-1.386-0.775c-0.39-0.226-0.778-0.443-1.172-0.664c-0.347-0.194-0.698-0.391-1.05-0.592l-6.301,3.504C9.254,31.849,8.696,32.005,8.133,32.005z M2.024,13.086c0.114,0.318,0.305,0.604,0.555,0.833l5.193,5.303c0.406,0.335,0.64,0.944,0.554,1.562l-1.294,7.969c-0.067,0.38,0.074,0.747,0.368,0.974c0.394,0.325,0.906,0.355,1.306,0.097l6.369-3.541c0.557-0.38,1.372-0.379,2.001,0.044c0.29,0.164,0.641,0.36,0.986,0.553c0.402,0.225,0.799,0.447,1.183,0.669l1.377,0.77c0.91,0.51,1.82,1.021,2.74,1.521c0.54,0.313,1.204,0.138,1.504-0.378c0.134-0.231,0.178-0.503,0.123-0.765l-0.323-2c-0.314-1.956-0.628-3.902-0.953-5.829c-0.13-0.58,0.08-1.241,0.559-1.675l2.716-2.793c0.917-0.933,1.866-1.898,2.762-2.874c0.157-0.187,0.245-0.461,0.223-0.743c-0.023-0.282-0.155-0.538-0.371-0.72c-0.126-0.107-0.276-0.184-0.438-0.223c-0.394-0.077-0.788-0.135-1.182-0.193l-6.195-0.953c-0.663-0.044-1.303-0.534-1.549-1.237l-0.029-0.083c-0.035-0.062-0.062-0.112-0.083-0.16c-0.996-2.123-1.994-4.261-2.988-6.399c-0.161-0.389-0.449-0.648-0.81-0.753L16.157,2l-0.299,0.031c-0.396,0.131-0.672,0.386-0.81,0.72c-0.524,1.13-1.037,2.221-1.549,3.312c-0.534,1.135-1.067,2.271-1.595,3.406c-0.243,0.648-0.884,1.145-1.644,1.229l-6.088,0.925c-0.41,0.06-0.819,0.119-1.221,0.198c-0.406,0.064-0.712,0.314-0.844,0.663c-0.021,0.099-0.053,0.184-0.085,0.254V13.086z M16.118,27.986l-0.022,0.012C16.104,27.995,16.111,27.991,16.118,27.986z M6.388,20.66c0.008,0.01,0.017,0.019,0.026,0.027L6.388,20.66z M25.663,20.627l-0.002,0.001C25.662,20.628,25.662,20.628,25.663,20.627z M25.676,20.484c0.001,0.007,0.002,0.014,0.003,0.021C25.678,20.498,25.677,20.491,25.676,20.484z M22.011,8.707l0.021,0.003C22.024,8.708,22.018,8.707,22.011,8.707z"/></svg>