<svg xmlns="http://www.w3.org/2000/svg" viewBox="0 0 32 32"><!--! Font Icona - https://fonticona.com | License - https://fonticona.com/license | Copyright 2022 FontIcona.com --><path d="M15.847,32c-0.25,0-0.501-0.094-0.696-0.281L2.537,19.503c-0.205-0.199-0.315-0.476-0.303-0.761c0.012-0.284,0.145-0.551,0.365-0.731l3.291-2.695l-3.388-3.634c-0.191-0.205-0.288-0.482-0.265-0.763c0.022-0.28,0.162-0.537,0.384-0.71l12.915-10c0.436-0.337,1.065-0.259,1.403,0.179c0.338,0.437,0.258,1.064-0.178,1.403L4.712,11.12l3.368,3.611c0.188,0.202,0.285,0.473,0.266,0.749c-0.018,0.275-0.15,0.531-0.364,0.706l-3.247,2.66l11.808,11.435c0.396,0.385,0.407,1.018,0.022,1.414C16.369,31.898,16.108,32,15.847,32z"/><path d="M15.853,32c-0.288,0-0.573-0.123-0.771-0.362c-0.353-0.426-0.293-1.056,0.132-1.408l11.733-9.715l-3.027-3.246c-0.188-0.202-0.285-0.473-0.266-0.749c0.018-0.275,0.15-0.531,0.364-0.706l3.247-2.66L15.458,1.719c-0.396-0.385-0.407-1.018-0.022-1.414c0.384-0.398,1.016-0.407,1.414-0.023l12.614,12.216c0.205,0.199,0.315,0.476,0.303,0.761c-0.012,0.284-0.145,0.551-0.365,0.731l-3.291,2.695l3.023,3.242c0.188,0.201,0.284,0.471,0.267,0.746c-0.018,0.274-0.148,0.53-0.36,0.706L16.49,31.771C16.304,31.925,16.078,32,15.853,32z"/><path d="M15.853,25.29c-0.263,0-0.526-0.104-0.722-0.309l-8.504-8.877c-0.382-0.398-0.369-1.031,0.03-1.413c0.399-0.384,1.033-0.368,1.414,0.03l8.504,8.877c0.382,0.398,0.369,1.031-0.03,1.413C16.351,25.198,16.102,25.29,15.853,25.29z"/><path d="M20.903,20.852c-0.253,0-0.507-0.096-0.702-0.287l-3.935-3.875c-0.394-0.388-0.398-1.021-0.011-1.415c0.388-0.393,1.021-0.397,1.414-0.011l3.935,3.875c0.394,0.388,0.398,1.021,0.011,1.415C21.42,20.752,21.162,20.852,20.903,20.852z"/><path d="M15.853,17.875c-0.292,0-0.582-0.128-0.779-0.373c-0.347-0.43-0.278-1.06,0.152-1.406l1.116-0.898c0.429-0.346,1.059-0.278,1.406,0.152c0.347,0.43,0.278,1.06-0.152,1.406l-1.116,0.898C16.295,17.803,16.073,17.875,15.853,17.875z"/><path d="M15.7,17.708c-0.269,0-0.536-0.107-0.733-0.32l-5.119-5.519c-0.375-0.404-0.352-1.037,0.053-1.413s1.038-0.353,1.414,0.054l5.119,5.519c0.375,0.404,0.352,1.037-0.053,1.413C16.188,17.62,15.944,17.708,15.7,17.708z"/><path d="M10.582,12.189c-0.296,0-0.589-0.131-0.787-0.382c-0.341-0.435-0.266-1.062,0.168-1.404l4.962-3.901c0.434-0.341,1.063-0.267,1.404,0.168s0.266,1.062-0.168,1.404L11.2,11.976C11.017,12.119,10.798,12.189,10.582,12.189z"/><path d="M24.652,17.587c-0.259,0-0.519-0.101-0.714-0.3l-9.108-9.299c-0.387-0.395-0.38-1.028,0.015-1.415c0.393-0.387,1.028-0.38,1.414,0.015l9.108,9.299c0.387,0.395,0.38,1.028-0.015,1.415C25.157,17.492,24.904,17.587,24.652,17.587z"/><path d="M15.853,25.29c-0.278,0-0.554-0.115-0.751-0.34c-0.365-0.415-0.324-1.047,0.091-1.411l5.051-4.438c0.416-0.364,1.048-0.322,1.411,0.091c0.365,0.415,0.324,1.047-0.091,1.411l-5.051,4.438C16.323,25.208,16.087,25.29,15.853,25.29z"/></svg>