<svg xmlns="http://www.w3.org/2000/svg" viewBox="0 0 32 32"><!--! Font Icona - https://fonticona.com | License - https://fonticona.com/license | Copyright 2022 FontIcona.com --><path d="M9.027,22.395c-3.502,0-7.394-1.197-8.6-4.61c-0.682-1.928-0.553-3.83,0.382-5.652c1.896-3.697,6.736-6.225,10.305-7.266c3.52-1.026,6.903-1.265,9.121-1.284l0.562-0.007c2.732-0.039,6.477-0.093,8.533,2.209c0.804,0.899,1.124,1.95,0.926,3.039c-0.314,1.73-1.843,3.088-3.168,3.782c-0.755,0.396-1.537,0.676-2.294,0.946c-1.286,0.461-2.501,0.896-3.385,1.834c-0.414,0.44-0.785,0.933-1.179,1.453c-0.455,0.604-0.926,1.227-1.49,1.798c-2.203,2.231-5.376,3.559-8.936,3.738C9.549,22.388,9.289,22.395,9.027,22.395z M21.917,5.564c-0.377,0-0.744,0.006-1.092,0.011l-0.572,0.007c-2.092,0.018-5.278,0.241-8.578,1.204l0,0c-3.439,1.003-7.583,3.327-9.086,6.258c-0.683,1.333-0.773,2.666-0.275,4.074c0.93,2.632,4.437,3.41,7.391,3.259c3.059-0.153,5.763-1.271,7.612-3.145c0.472-0.479,0.883-1.022,1.317-1.599c0.408-0.54,0.83-1.1,1.319-1.619c1.214-1.287,2.715-1.825,4.167-2.346c0.724-0.259,1.408-0.504,2.04-0.835c1.122-0.588,1.978-1.539,2.128-2.368c0.086-0.473-0.062-0.914-0.45-1.35C26.604,5.736,24.088,5.564,21.917,5.564z"/><path d="M8.33,28.436c-2.045,0-4.601-0.312-6.197-1.644c-0.919-0.767-1.427-1.768-1.511-2.977c-0.008-0.121-0.495-7.171-0.495-7.171l1.996-0.139c0,0,0.491,7.115,0.495,7.177c0.045,0.647,0.305,1.164,0.796,1.573c1.443,1.205,4.623,1.336,7.117,1.055c2.798-0.314,5.4-1.331,7.327-2.862c0.867-0.69,1.606-1.524,2.391-2.406c0.814-0.918,1.656-1.866,2.675-2.67c1.067-0.843,2.242-1.307,3.379-1.755c0.902-0.356,1.756-0.692,2.502-1.197c1.1-0.743,1.249-2.41,1.181-3.678c-0.047-0.885-0.191-3.575-1.101-4.408l-0.137-0.155c0,0.001,0,0.001,0,0.001c-0.006,0-0.534-0.549-2.181-0.957l0.48-1.941c2.11,0.522,2.973,1.316,3.244,1.631c1.284,1.234,1.576,3.582,1.691,5.723c0.137,2.558-0.575,4.439-2.059,5.441c-0.929,0.629-1.925,1.021-2.888,1.401c-1.048,0.414-2.038,0.804-2.874,1.465c-0.879,0.693-1.627,1.535-2.419,2.428c-0.806,0.906-1.639,1.845-2.641,2.643c-2.217,1.763-5.183,2.93-8.35,3.286C10.17,28.364,9.309,28.436,8.33,28.436z"/><path d="M9.057,19.245c-1.487,0.001-2.408-0.376-2.47-0.401l-0.116-0.058c-1.018-0.594-2.633-2.434-1.458-5.147c0.278-0.644,0.634-1.259,1.057-1.83c1.207-1.632,3.2-2.691,5.332-2.834l0,0c2.224-0.146,3.754,0.084,4.68,0.713c1.843,1.254,1.386,3.804,0.825,5.112c-0.017,0.052-0.95,2.534-4.422,3.81C11.165,19.095,9.997,19.245,9.057,19.245z M7.419,17.021c0.324,0.111,1.984,0.592,4.375-0.288c2.553-0.938,3.229-2.607,3.257-2.678c0.024-0.06,0.824-2.088-0.095-2.713c-0.188-0.129-1-0.532-3.422-0.371l0,0c-1.553,0.104-2.995,0.861-3.857,2.027c-0.331,0.448-0.61,0.932-0.828,1.436C6.155,16.035,7.136,16.832,7.419,17.021z"/><path d="M21.525,11.534c-0.473,0-0.97-0.066-1.479-0.198l0,0c-0.168-0.044-0.322-0.099-0.46-0.162c-0.562-0.254-0.993-0.742-1.176-1.338c-0.182-0.593-0.1-1.235,0.225-1.762l0.07-0.108c0.354-0.526,0.849-0.933,1.44-1.181c1.105-0.461,2.521-0.389,3.607,0.181C24.43,7.32,24.91,7.884,25.069,8.51c0.136,0.536,0.033,1.097-0.291,1.578c-0.847,1.266-2.562,1.424-3.068,1.442C21.649,11.533,21.588,11.534,21.525,11.534z M20.349,9.105c-0.039,0.083-0.034,0.119-0.026,0.146c0.015,0.047,0.046,0.082,0.093,0.104c0.043,0.02,0.084,0.033,0.129,0.044l0.002,0.001c0.388,0.1,0.746,0.139,1.091,0.133c0.658-0.024,1.28-0.259,1.48-0.558c0.001-0.011-0.095-0.134-0.293-0.237c-0.565-0.297-1.35-0.338-1.908-0.106C20.681,8.729,20.484,8.894,20.349,9.105z"/></svg>