<svg xmlns="http://www.w3.org/2000/svg" viewBox="0 0 32 32"><!--! Font Icona - https://fonticona.com | License - https://fonticona.com/license | Copyright 2022 FontIcona.com --><path d="M16,32C7.178,32,0,24.822,0,16S7.178,0,16,0s16,7.178,16,16S24.822,32,16,32z M16,2C8.28,2,2,8.28,2,16s6.28,14,14,14s14-6.28,14-14S23.72,2,16,2z"/><path d="M11.426,26.815c-2.779,0-5.141-2.167-5.376-4.933c-0.014-0.152-0.02-0.307-0.02-0.462h2c0,0.098,0.004,0.195,0.012,0.292c0.148,1.741,1.635,3.104,3.384,3.104c1.872,0,3.396-1.523,3.396-3.396s-1.523-3.396-3.396-3.396c-0.713,0-1.396,0.218-1.973,0.631l-1.164-1.627c0.919-0.657,2.004-1.004,3.137-1.004c2.975,0,5.396,2.42,5.396,5.396S14.4,26.815,11.426,26.815z"/><path d="M20.964,15.698c-2.002,0-3.631-1.628-3.631-3.63s1.629-3.63,3.631-3.63s3.63,1.628,3.63,3.63S22.966,15.698,20.964,15.698z M20.964,10.438c-0.899,0-1.631,0.731-1.631,1.63s0.731,1.63,1.631,1.63c0.898,0,1.63-0.731,1.63-1.63S21.862,10.438,20.964,10.438z"/><path d="M20.964,18.39c-3.486,0-6.322-2.836-6.322-6.322c0-3.486,2.836-6.322,6.322-6.322c3.485,0,6.321,2.836,6.321,6.322C27.285,15.554,24.449,18.39,20.964,18.39z M20.964,7.746c-2.384,0-4.322,1.939-4.322,4.322c0,2.383,1.938,4.322,4.322,4.322c2.383,0,4.321-1.939,4.321-4.322C25.285,9.685,23.347,7.746,20.964,7.746z"/><rect x="10.402" y="13.44" transform="matrix(0.5901 -0.8073 0.8073 0.5901 -5.9915 17.0789)" width="6.844" height="2.001"/><rect x="15.025" y="18.468" transform="matrix(0.8222 -0.5693 0.5693 0.8222 -7.8008 13.9673)" width="6.858" height="2"/><path d="M10.919,24.124c-0.403,0-0.806-0.081-1.188-0.244l-9.144-4.143l0.826-1.821l9.121,4.133c0.234,0.099,0.519,0.102,0.776-0.003c0.258-0.104,0.46-0.303,0.568-0.559c0.109-0.257,0.112-0.541,0.008-0.799s-0.303-0.46-0.56-0.569L0.952,15.443l0.822-1.823l10.354,4.667c0.728,0.309,1.308,0.899,1.612,1.652c0.305,0.754,0.297,1.581-0.021,2.33c-0.316,0.748-0.906,1.328-1.66,1.632C11.691,24.05,11.305,24.124,10.919,24.124z"/></svg>