<svg xmlns="http://www.w3.org/2000/svg" viewBox="0 0 32 32"><!--! Font Icona - https://fonticona.com | License - https://fonticona.com/license | Copyright 2022 FontIcona.com --><path d="M16,32C7.178,32,0,24.822,0,16S7.178,0,16,0s16,7.178,16,16S24.822,32,16,32z M16,2C8.28,2,2,8.28,2,16s6.28,14,14,14s14-6.28,14-14S23.72,2,16,2z"/><path d="M16.324,20.526c-2.496,0-4.526-2.03-4.526-4.526c0-2.496,2.031-4.526,4.526-4.526c2.495,0,4.525,2.03,4.525,4.526C20.85,18.496,18.819,20.526,16.324,20.526z M16.324,13.474c-1.393,0-2.526,1.133-2.526,2.526s1.133,2.526,2.526,2.526c1.393,0,2.525-1.134,2.525-2.526S17.717,13.474,16.324,13.474z"/><path d="M1.089,15.342c-0.49,0-0.917-0.36-0.989-0.859c-0.078-0.547,0.302-1.053,0.849-1.131l8.325-1.186c1.389-2.544,4.076-4.16,6.995-4.16c2.92,0,5.609,1.618,6.998,4.165l7.33,1.099c0.546,0.082,0.923,0.591,0.841,1.137c-0.081,0.545-0.576,0.927-1.138,0.84l-7.843-1.176c-0.334-0.05-0.62-0.265-0.761-0.572c-0.972-2.123-3.102-3.494-5.427-3.494c-2.325,0-4.456,1.371-5.427,3.493c-0.142,0.309-0.431,0.525-0.768,0.574l-8.842,1.26C1.184,15.338,1.137,15.342,1.089,15.342z"/><path d="M18.789,31.716c-0.015,0-0.03,0-0.045-0.001c-0.552-0.024-0.979-0.491-0.955-1.043l0.37-8.397c0.017-0.375,0.241-0.709,0.582-0.865c0.371-0.17,0.728-0.381,1.06-0.626c0.122-0.09,0.203-0.156,0.284-0.225l0.083-0.067l0.331-0.309c0.003-0.003,0.104-0.111,0.105-0.114l0.264-0.294c0.042-0.052,0.11-0.133,0.173-0.219c0.274-0.372,0.486-0.729,0.656-1.102c0.163-0.355,0.518-0.584,0.909-0.584h7.842c0.553,0,1,0.447,1,1s-0.447,1-1,1h-7.229c-0.162,0.288-0.343,0.567-0.541,0.835c-0.107,0.147-0.201,0.263-0.298,0.378c-0.005,0.006-0.085,0.103-0.09,0.108c-0.067,0.077-0.137,0.15-0.206,0.224l-0.304,0.309l0,0l-0.095,0.088c-0.067,0.064-0.135,0.128-0.206,0.189c-0.011,0.01-0.074,0.062-0.085,0.07c-0.137,0.114-0.249,0.206-0.367,0.293c-0.018,0.013-0.073,0.053-0.092,0.064c-0.24,0.18-0.514,0.354-0.804,0.517l-0.345,7.814C19.764,31.297,19.321,31.716,18.789,31.716z"/><path d="M13.741,31.716c-0.532,0-0.975-0.419-0.998-0.956l-0.344-7.816c-0.004-0.002-0.008-0.004-0.012-0.006l0,0c-1.279-0.715-2.349-1.784-3.068-3.053L1.338,20.07c-0.008,0-0.016,0-0.024,0c-0.542,0-0.987-0.433-0.999-0.977c-0.013-0.553,0.424-1.011,0.976-1.023l8.608-0.2c0.401,0.001,0.767,0.221,0.933,0.584c0.523,1.142,1.417,2.111,2.518,2.73c0.004,0.002,0.009,0.005,0.013,0.007c0.102,0.057,0.205,0.108,0.31,0.159c0.012,0.005,0.141,0.069,0.152,0.075c0.312,0.166,0.53,0.494,0.546,0.848l0.37,8.398c0.024,0.552-0.403,1.019-0.955,1.043C13.771,31.716,13.756,31.716,13.741,31.716z"/></svg>