<svg xmlns="http://www.w3.org/2000/svg" viewBox="0 0 32 32"><!--! Font Icona - https://fonticona.com | License - https://fonticona.com/license | Copyright 2022 FontIcona.com --><path d="M9.741,21.534c-0.052,0-0.103-0.004-0.154-0.012c-1.505-0.234-3.199-0.732-4.359-2.644c-1.485-2.443-2.195-5.569-2.795-8.563C2.299,9.649,1.2,3.736,3.65,1.465C4.287,0.876,5.437,0.28,7.289,0.8C7.82,0.95,8.131,1.502,7.981,2.034C7.832,2.567,7.28,2.877,6.748,2.726C5.588,2.399,5.152,2.8,5.01,2.933c-1.104,1.022-1.142,4.364-0.616,6.99c0.564,2.818,1.227,5.751,2.543,7.917c0.58,0.955,1.374,1.434,2.805,1.68c1.432-0.246,2.226-0.725,2.806-1.679c1.316-2.167,1.979-5.1,2.543-7.918c0.525-2.626,0.487-5.968-0.616-6.99c-0.143-0.133-0.579-0.534-1.738-0.207c-0.531,0.15-1.084-0.159-1.233-0.692C11.353,1.502,11.663,0.95,12.194,0.8c1.854-0.521,3.002,0.075,3.639,0.665c2.45,2.271,1.352,8.184,1.218,8.851c-0.6,2.993-1.31,6.119-2.795,8.563c-1.16,1.91-2.855,2.408-4.36,2.643C9.844,21.53,9.793,21.534,9.741,21.534z"/><path d="M15.384,32.003c-2.021,0-4.173-1.036-5.368-2.799c-1.593-2.352-1.532-5.795-1.496-7.853c0.006-0.316,0.011-0.602,0.009-0.846c-0.004-0.553,0.44-1.004,0.992-1.008c0.003,0,0.006,0,0.008,0c0.549,0,0.996,0.442,1,0.992c0.002,0.259-0.003,0.562-0.009,0.896c-0.032,1.82-0.086,4.868,1.152,6.695c1.1,1.621,3.665,2.404,5.176,1.582c2.769-1.503,2.499-4.412,1.727-9.025c-0.786-4.692-1.678-10.012,3.879-12.664c0.496-0.238,1.095-0.026,1.333,0.472s0.026,1.096-0.472,1.333c-3.914,1.868-3.656,5.225-2.768,10.529c0.692,4.134,1.478,8.82-2.744,11.113C17.074,31.818,16.241,32.003,15.384,32.003z"/><path d="M6.688,3.421c-0.185,0-0.371-0.051-0.538-0.157C5.686,2.966,5.55,2.348,5.847,1.882l0.842-1.316C6.987,0.101,7.604-0.036,8.07,0.262C8.535,0.56,8.671,1.178,8.374,1.644L7.532,2.96C7.341,3.258,7.019,3.421,6.688,3.421z"/><path d="M12.448,3.527c-0.459,0-0.873-0.317-0.976-0.784l-0.337-1.527c-0.119-0.54,0.222-1.073,0.761-1.192c0.545-0.117,1.074,0.221,1.192,0.761l0.337,1.527c0.119,0.54-0.222,1.073-0.761,1.192C12.592,3.519,12.52,3.527,12.448,3.527z"/><path d="M25.857,12.169c-2.248,0-4.076-1.828-4.076-4.076s1.828-4.076,4.076-4.076s4.076,1.828,4.076,4.076S28.105,12.169,25.857,12.169z M25.857,6.017c-1.145,0-2.076,0.932-2.076,2.076s0.932,2.076,2.076,2.076s2.076-0.932,2.076-2.076S27.002,6.017,25.857,6.017z"/></svg>