<svg xmlns="http://www.w3.org/2000/svg" viewBox="0 0 32 32"><!--! Font Icona - https://fonticona.com | License - https://fonticona.com/license | Copyright 2022 FontIcona.com --><path d="M23.196,18.648h-5.372c-0.379,0-0.725-0.214-0.895-0.553l-2.496-4.991l-2.496,4.991c-0.17,0.339-0.516,0.553-0.895,0.553H5.671c-0.351,0-0.675-0.184-0.856-0.483c-0.181-0.3-0.191-0.673-0.028-0.982l8.763-16.648c0.346-0.656,1.424-0.656,1.77,0l8.763,16.648c0.163,0.31,0.152,0.683-0.028,0.982C23.871,18.465,23.547,18.648,23.196,18.648z M18.442,16.648h3.098L14.434,3.147L7.327,16.648h3.098l3.114-6.227c0.34-0.678,1.449-0.678,1.789,0L18.442,16.648z"/><path d="M20.481,32c-0.364,0-0.699-0.197-0.875-0.517l-5.848-10.579c-0.172-0.31-0.166-0.687,0.014-0.991s0.508-0.492,0.861-0.492h3.586c0.372,0,0.713,0.206,0.886,0.535l1.376,2.622l1.377-2.622c0.173-0.329,0.515-0.535,0.886-0.535h3.585c0.354,0,0.682,0.188,0.861,0.492s0.186,0.682,0.014,0.991l-5.848,10.579C21.181,31.803,20.846,32,20.481,32z M16.329,21.421l4.152,7.512l4.152-7.512h-1.285l-1.981,3.772c-0.173,0.329-0.515,0.535-0.886,0.535l0,0c-0.372,0-0.713-0.206-0.886-0.535l-1.98-3.772H16.329z"/></svg>