<svg xmlns="http://www.w3.org/2000/svg" viewBox="0 0 32 32"><!--! Font Icona - https://fonticona.com | License - https://fonticona.com/license | Copyright 2022 FontIcona.com --><path d="M16,32c-7.951,0-16-2.079-16-6.053c0-2.399,3.078-4.362,8.445-5.384c0.544-0.102,1.065,0.254,1.169,0.796s-0.253,1.065-0.796,1.169C4.342,23.381,2,24.894,2,25.947C2,27.6,7.454,30,16,30s14-2.4,14-4.053c0-1.055-2.343-2.567-6.821-3.42c-0.543-0.104-0.899-0.627-0.796-1.169c0.103-0.542,0.627-0.899,1.169-0.796C28.921,21.584,32,23.547,32,25.947C32,29.921,23.951,32,16,32z"/><path d="M17.87,27.939h-3.809c-1.583,0-2.871-1.29-2.871-2.875v-5.567c-0.707,0.051-1.404-0.157-1.97-0.596l-0.498-0.388c-1.224-0.952-1.467-2.739-0.541-3.984l3.049-4.101c0.024-0.032,0.05-0.062,0.077-0.092c0.041-0.043,0.145-0.147,0.306-0.277c-1.021-1.093-1.602-2.531-1.602-4.069c0-3.303,2.671-5.99,5.954-5.99c3.282,0,5.953,2.688,5.953,5.99c0,1.521-0.568,2.948-1.57,4.037c0.185,0.146,0.302,0.266,0.347,0.313l0.114,0.133l3.011,4.057c0.924,1.245,0.68,3.032-0.544,3.983l-0.496,0.386c-0.584,0.455-1.308,0.657-2.04,0.592v5.573C20.74,26.649,19.453,27.939,17.87,27.939z M15.246,25.939h2.624c0.479,0,0.87-0.393,0.87-0.875v-7.069c0-0.399,0.237-0.76,0.604-0.918c0.367-0.159,0.792-0.083,1.082,0.189c0.135,0.128,0.296,0.205,0.479,0.229c0.23,0.035,0.461-0.029,0.647-0.175l0.496-0.386c0.367-0.285,0.442-0.841,0.166-1.214L19.2,11.668c0.002,0.002,0.003,0.003,0.003,0.003c-0.004,0-0.354-0.338-0.897-0.479c-0.386-0.101-0.676-0.422-0.735-0.817c-0.061-0.395,0.12-0.787,0.459-0.999c1.184-0.738,1.89-2.004,1.89-3.385c0-2.2-1.773-3.99-3.953-3.99c-2.181,0-3.954,1.79-3.954,3.99c0,1.389,0.714,2.658,1.91,3.395c0.338,0.208,0.521,0.598,0.466,0.99c-0.056,0.394-0.338,0.717-0.721,0.824c-0.46,0.129-0.78,0.396-0.878,0.485l-3.002,4.038c-0.277,0.372-0.202,0.928,0.165,1.213l0.497,0.387c0.185,0.145,0.42,0.202,0.646,0.175c0.165-0.023,0.32-0.093,0.448-0.201c0.296-0.254,0.712-0.311,1.067-0.146c0.354,0.163,0.58,0.518,0.58,0.907v7.007c0,0.482,0.391,0.875,0.871,0.875H15.246z"/><path d="M16,27.026c-0.553,0-1-0.447-1-1v-5.839c0-0.553,0.447-1,1-1s1,0.447,1,1v5.839C17,26.579,16.553,27.026,16,27.026z"/><path d="M11.302,17.629l2.164-3.205l-0.273,3.858c-0.04,0.57-0.536,1-1.106,0.959c-0.57-0.04-1-0.536-0.959-1.106C11.14,17.949,11.205,17.774,11.302,17.629z"/><path d="M18.72,18.282l-0.273-3.858l2.164,3.205c0.32,0.474,0.195,1.117-0.279,1.437c-0.474,0.32-1.117,0.195-1.437-0.279C18.791,18.633,18.733,18.455,18.72,18.282z"/></svg>