<svg xmlns="http://www.w3.org/2000/svg" viewBox="0 0 32 32"><!--! Font Icona - https://fonticona.com | License - https://fonticona.com/license | Copyright 2022 FontIcona.com --><path d="M15.379,31.998c-1.473,0-3.077-0.21-5.031-0.625L5.75,30.116c-0.435-0.119-0.736-0.515-0.736-0.965v-7.694c0-0.344,0.177-0.664,0.469-0.848c0.292-0.182,0.658-0.202,0.967-0.053c6.709,3.246,9.312,2.331,9.95,1.973c0.249-0.14,0.554-0.383,0.589-0.743c0.103-1.042-3.578-2.395-5.149-2.973c-0.843-0.31-1.569-0.577-2.133-0.845c-3.306-1.565-5.217-4.6-5.245-8.324C4.449,8.188,4.81,6.781,5.502,5.573C8.011,1.192,13.41-0.345,17.63,0.068c1.895,0.186,3.68,0.539,5.308,1.052c2.154,0.679,2.511,0.832,2.662,1.44c0.021,0.086,0.031,0.175,0.029,0.262v7.792c0,0.364-0.198,0.699-0.517,0.876c-0.32,0.176-0.709,0.164-1.017-0.03l-1.44-0.908c-1.164-0.649-3.526-1.716-5.763-1.251c-0.785,0.162-1.235,0.538-1.321,0.818c-0.096,0.312,0.224,0.703,0.422,0.907c0.865,0.89,2.187,1.297,3.585,1.727c0.894,0.274,1.817,0.559,2.654,0.988c3.585,1.836,5.559,5.098,5.281,8.724c-0.299,3.918-3.166,7.338-7.304,8.713C18.558,31.727,17.053,31.998,15.379,31.998z M7.014,28.389l3.806,1.041c3.773,0.802,5.999,0.767,8.76-0.15c3.371-1.12,5.703-3.854,5.94-6.967c0.218-2.838-1.313-5.312-4.199-6.792c-0.681-0.349-1.482-0.595-2.33-0.856c-1.577-0.484-3.208-0.986-4.431-2.243c-1.182-1.216-1.071-2.331-0.9-2.888c0.329-1.073,1.387-1.893,2.827-2.191c2.848-0.592,5.676,0.651,7.143,1.465V3.455c-0.265-0.094-0.672-0.231-1.292-0.427c-1.496-0.472-3.146-0.798-4.902-0.97C13.846,1.706,9.301,2.963,7.237,6.567C6.713,7.481,6.452,8.512,6.461,9.629c0.022,2.971,1.479,5.291,4.101,6.533c0.482,0.228,1.204,0.493,1.968,0.774c2.986,1.098,6.703,2.465,6.449,5.045c-0.093,0.951-0.662,1.765-1.601,2.292c-1.261,0.707-4.235,1.416-10.364-1.256V28.389z"/></svg>