<svg xmlns="http://www.w3.org/2000/svg" viewBox="0 0 32 32"><!--! Font Icona - https://fonticona.com | License - https://fonticona.com/license | Copyright 2022 FontIcona.com --><path d="M2.501,20.353c-0.764,0-1.53-0.205-2.083-0.602l1.164-1.625c0.331,0.235,1.177,0.322,1.66,0.079C3.455,18.098,3.456,18,3.457,17.914c0.003-0.204-0.538-0.675-1.263-0.883C1.253,16.763,0.6,16.29,0.252,15.628c-0.415-0.792-0.204-1.517-0.158-1.653c0.209-0.639,0.639-1.142,1.239-1.444c1.365-0.686,3.197-0.108,3.402-0.041l-0.631,1.898l0.315-0.949l-0.312,0.95c-0.019-0.008-1.869-0.541-2.116,0.218c-0.035,0.191,0.382,0.396,0.754,0.502c1.364,0.392,2.732,1.419,2.712,2.834c-0.012,0.886-0.491,1.632-1.313,2.048C3.661,20.233,3.082,20.353,2.501,20.353z"/><path d="M8.491,20.411c-0.561,0-1.047-0.151-1.455-0.453c-1.035-0.766-0.994-2.122-0.986-2.274l-0.001-6.766h2v6.819c-0.006,0.219,0.056,0.525,0.179,0.614c0.118,0.085,0.48,0.104,1.108-0.125l0.686,1.879C9.463,20.31,8.952,20.411,8.491,20.411z"/><rect x="7.049" y="12.386" width="2.63" height="2"/><rect x="10.4" y="12.574" width="2" height="7.403"/><rect x="14.849" y="12.574" width="2" height="7.403"/><polygon points="16.888,11.379 14.81,11.795 14.81,10.132 16.888,9.717 "/><rect x="17.707" y="12.574" width="2" height="9.709"/><path d="M28.135,20.355c-0.463,0-0.902-0.075-1.316-0.225c-1.469-0.531-2.004-1.791-2.06-1.933l-0.037-0.112c-0.502-1.897-0.331-3.382,0.511-4.412c1.108-1.359,2.863-1.303,3.062-1.286c0.002,0,0.005,0,0.007,0c1.213,0,2.195,0.392,2.863,1.162c1.021,1.179,0.831,2.735,0.807,2.909l-0.124,0.857h-5.257c0.014,0.059,0.028,0.118,0.044,0.179c0.065,0.126,0.33,0.572,0.889,0.764c0.686,0.236,1.633,0.032,2.751-0.579l0.959,1.754C30.111,20.048,29.074,20.355,28.135,20.355z M26.569,15.316h3.332c-0.055-0.166-0.136-0.329-0.254-0.464c-0.273-0.31-0.748-0.467-1.41-0.467c-0.055-0.003-0.988-0.03-1.463,0.561C26.69,15.052,26.622,15.176,26.569,15.316z"/><path d="M20.945,20.102c-1.785,0-3.238-1.688-3.238-3.761s1.453-3.76,3.238-3.76c1.786,0,3.239,1.687,3.239,3.76S22.731,20.102,20.945,20.102z M20.945,14.581c-0.671,0-1.238,0.806-1.238,1.76s0.567,1.761,1.238,1.761c0.672,0,1.239-0.807,1.239-1.761S21.617,14.581,20.945,14.581z"/><path d="M12.077,15.611l-1.356-1.469c0.189-0.176,1.904-1.716,3.837-1.415l-0.307,1.977C13.424,14.575,12.38,15.336,12.077,15.611z"/></svg>