<svg xmlns="http://www.w3.org/2000/svg" viewBox="0 0 32 32"><!--! Font Icona - https://fonticona.com | License - https://fonticona.com/license | Copyright 2022 FontIcona.com --><path d="M31,17H1c-0.553,0-1-0.447-1-1s0.447-1,1-1h30c0.553,0,1,0.447,1,1S31.553,17,31,17z"/><path d="M17.17,32.006c-2.989,0-5.98-1.271-7.811-3.055c-0.396-0.386-0.403-1.019-0.018-1.414c0.387-0.396,1.02-0.401,1.414-0.018c2.143,2.088,6.437,3.356,9.638,1.765c2.731-1.247,4.129-4.031,3.354-6.633c-0.988-3.066-3.684-4.383-7.213-5.465c-3.867-1.079-8.643-2.44-10.191-7.247c-1.07-3.59,0.784-7.379,4.403-9.03c4.004-2.001,9.201-0.488,11.895,2.139c0.396,0.386,0.403,1.019,0.018,1.414c-0.386,0.396-1.019,0.403-1.414,0.018c-2.146-2.093-6.441-3.364-9.636-1.766C8.875,3.962,7.478,6.745,8.253,9.347c0.985,3.059,3.703,4.371,7.259,5.459c3.664,1.02,8.596,2.443,10.146,7.253c1.07,3.589-0.784,7.379-4.403,9.03C19.974,31.727,18.572,32.006,17.17,32.006z"/></svg>