<svg xmlns="http://www.w3.org/2000/svg" viewBox="0 0 32 32"><!--! Font Icona - https://fonticona.com | License - https://fonticona.com/license | Copyright 2022 FontIcona.com --><rect x="8.407" y="20.26" transform="matrix(0.7042 -0.71 0.71 0.7042 -8.7903 21.4216)" width="25.811" height="2"/><rect x="0.998" y="14.999" transform="matrix(0.711 -0.7032 0.7032 0.711 -6.6265 15.8734)" width="30" height="2"/><rect x="-2.376" y="9.745" transform="matrix(0.7071 -0.7071 0.7071 0.7071 -4.4705 10.6965)" width="26.105" height="2"/><rect x="9.767" y="8.299" transform="matrix(0.7041 -0.7101 0.7101 0.7041 -11.9429 13.9506)" width="2" height="26.012"/><rect x="14.957" y="0.919" transform="matrix(0.7111 -0.7031 0.7031 0.7111 -6.5825 15.8177)" width="2" height="30.001"/><rect x="20.246" y="-2.47" transform="matrix(0.7072 -0.707 0.707 0.7072 -1.2963 18.1333)" width="2" height="26.203"/><path d="M16,32c-4.273,0-8.292-1.664-11.313-4.687C1.665,24.292,0,20.273,0,16S1.665,7.708,4.687,4.687C7.708,1.664,11.727,0,16,0s8.292,1.664,11.313,4.687l0,0l0,0C30.335,7.708,32,11.727,32,16s-1.665,8.292-4.687,11.313C24.292,30.336,20.273,32,16,32z M16,2c-3.739,0-7.255,1.456-9.899,4.101C3.457,8.745,2,12.261,2,16s1.457,7.255,4.101,9.899C8.745,28.544,12.261,30,16,30s7.255-1.456,9.899-4.101C28.543,23.255,30,19.739,30,16s-1.457-7.255-4.101-9.899l0,0C23.255,3.456,19.739,2,16,2z"/></svg>