<svg xmlns="http://www.w3.org/2000/svg" viewBox="0 0 32 32"><!--! Font Icona - https://fonticona.com | License - https://fonticona.com/license | Copyright 2022 FontIcona.com --><path d="M7.488,28C3.359,28,0,24.641,0,20.512v-4.628h6.465v4.628c0,0.564,0.459,1.023,1.023,1.023s1.023-0.459,1.023-1.023v-9.768c0-4.129,3.359-7.488,7.488-7.488s7.488,3.359,7.488,7.488v2.914l-3.323,2.987l-3.142-3.005v-2.896c0-0.564-0.459-1.023-1.023-1.023s-1.023,0.459-1.023,1.023v9.768C14.977,24.641,11.617,28,7.488,28z M2,17.884v2.628C2,23.538,4.462,26,7.488,26s5.488-2.462,5.488-5.488v-9.768c0-1.667,1.356-3.023,3.023-3.023s3.023,1.356,3.023,3.023v2.042l1.185,1.133l1.28-1.151v-2.023c0-3.026-2.462-5.488-5.488-5.488s-5.488,2.462-5.488,5.488v9.768c0,1.667-1.356,3.023-3.023,3.023s-3.023-1.356-3.023-3.023v-2.628H2z"/><path d="M24.512,28.744c-4.129,0-7.488-3.359-7.488-7.488v-5.733l3.165,2.58l3.3-2.475v5.628c0,0.564,0.459,1.023,1.023,1.023s1.023-0.459,1.023-1.023v-4.91H32v4.91C32,25.385,28.641,28.744,24.512,28.744z M19.023,19.733v1.522c0,3.026,2.462,5.488,5.488,5.488S30,24.282,30,21.256v-2.91h-2.465v2.91c0,1.667-1.356,3.023-3.023,3.023s-3.023-1.356-3.023-3.023v-1.628l-1.351,1.014L19.023,19.733z"/></svg>