<svg xmlns="http://www.w3.org/2000/svg" viewBox="0 0 32 32"><!--! Font Icona - https://fonticona.com | License - https://fonticona.com/license | Copyright 2022 FontIcona.com --><path d="M20.553,32c-0.335,0-0.662-0.168-0.851-0.473l-18.596-30C0.815,1.058,0.96,0.441,1.43,0.15s1.087-0.146,1.376,0.323l18.596,30c0.291,0.469,0.146,1.086-0.323,1.377C20.914,31.952,20.732,32,20.553,32z"/><path d="M1.955,32c-0.18,0-0.361-0.048-0.525-0.15c-0.47-0.291-0.614-0.908-0.323-1.377l18.596-30c0.29-0.469,0.906-0.614,1.376-0.323s0.614,0.908,0.323,1.377l-18.596,30C2.617,31.832,2.29,32,1.955,32z"/><path d="M28.485,27.158c-0.256,0-0.512-0.098-0.707-0.293c-0.391-0.391-0.391-1.023,0-1.414c0.724-0.724,0.724-1.901,0-2.625c-0.725-0.724-1.9-0.724-2.625,0c-0.391,0.391-1.023,0.391-1.414,0s-0.391-1.023,0-1.414c1.504-1.504,3.949-1.504,5.453,0c1.504,1.503,1.504,3.95,0,5.453C28.997,27.061,28.741,27.158,28.485,27.158z"/><path d="M23.644,32c-0.256,0-0.512-0.098-0.707-0.293c-0.391-0.391-0.391-1.023,0-1.414l4.842-4.842c0.391-0.391,1.023-0.391,1.414,0s0.391,1.023,0,1.414l-4.842,4.842C24.155,31.902,23.899,32,23.644,32z"/><path d="M30.044,32h-6.4c-0.553,0-1-0.448-1-1s0.447-1,1-1h6.4c0.553,0,1,0.448,1,1S30.597,32,30.044,32z"/></svg>