<svg xmlns="http://www.w3.org/2000/svg" viewBox="0 0 32 32"><!--! Font Icona - https://fonticona.com | License - https://fonticona.com/license | Copyright 2022 FontIcona.com --><path d="M3.106,32.001c-0.555,0-1.101-0.162-1.586-0.478l0,0c-1.399-0.91-1.871-2.881-1.05-4.393L12.153,5.582c1.457-2.687,3.803-4.559,6.607-5.271c2.651-0.674,5.396-0.209,7.726,1.308c4.893,3.182,6.518,10.114,3.623,15.453l-2.397,4.422c-0.417,0.769-1.122,1.328-1.934,1.534c-0.789,0.2-1.607,0.063-2.3-0.389c-1.422-0.925-1.883-2.854-1.05-4.393l2.398-4.421c1.255-2.314,0.571-5.307-1.523-6.67c-0.945-0.615-2.053-0.804-3.124-0.532c-1.155,0.293-2.129,1.076-2.741,2.205L5.753,30.377c-0.417,0.769-1.122,1.328-1.934,1.534C3.583,31.971,3.343,32.001,3.106,32.001z M21.146,2.012c-0.631,0-1.266,0.079-1.894,0.238c-2.257,0.573-4.154,2.095-5.342,4.285L2.228,28.084c-0.329,0.606-0.154,1.414,0.382,1.762l0,0.001c0.282,0.183,0.545,0.17,0.718,0.126c0.276-0.07,0.514-0.266,0.667-0.549L15.679,7.876c0.881-1.626,2.304-2.759,4.007-3.191c1.615-0.407,3.287-0.128,4.707,0.796c2.948,1.918,3.931,6.09,2.19,9.299L24.186,19.2c-0.329,0.606-0.153,1.414,0.383,1.764c0.282,0.183,0.546,0.17,0.718,0.126c0.276-0.07,0.514-0.266,0.667-0.549l2.397-4.422c2.41-4.444,1.084-10.197-2.956-12.824C24.093,2.447,22.63,2.012,21.146,2.012z"/><rect x="4.924" y="20.702" transform="matrix(0.9478 -0.3189 0.3189 0.9478 -7.2054 3.1195)" width="2" height="5.727"/><rect x="24.196" y="15.202" transform="matrix(0.9873 -0.1587 0.1587 0.9873 -2.231 4.465)" width="5.292" height="2"/><rect x="25.681" y="8.065" transform="matrix(0.9873 -0.1587 0.1587 0.9873 -1.0796 4.6102)" width="5.292" height="2"/><rect x="8.839" y="13.482" transform="matrix(0.9478 -0.319 0.319 0.9478 -4.6998 3.9921)" width="2" height="5.727"/><rect x="12.48" y="6.767" transform="matrix(0.9478 -0.3189 0.3189 0.9478 -2.3671 4.8015)" width="2" height="5.727"/><rect x="18.073" y="0.851" transform="matrix(0.9478 -0.3189 0.3189 0.9478 -0.1886 6.2759)" width="2" height="5.727"/><rect x="21.992" y="3.148" transform="matrix(0.4591 -0.8884 0.8884 0.4591 9.7434 24.2985)" width="5.667" height="2"/></svg>