<svg xmlns="http://www.w3.org/2000/svg" viewBox="0 0 32 32"><!--! Font Icona - https://fonticona.com | License - https://fonticona.com/license | Copyright 2022 FontIcona.com --><path d="M26.223,29.671H5.777c-2.521,0-4.58-2.052-4.589-4.573V18.07c-0.256-0.147-0.496-0.296-0.731-0.448C0.172,17.438,0,17.122,0,16.782v-6.777c0-1.654,1.346-3,3-3h26c1.654,0,3,1.346,3,3v6.762c0,0.01,0,0.02,0,0.029v0.009c0,0.359-0.192,0.69-0.505,0.869l-0.341,0.194c-0.113,0.068-0.228,0.136-0.343,0.202v7.023C30.803,27.619,28.744,29.671,26.223,29.671z M3.188,19.017v6.077c0.005,1.42,1.166,2.577,2.589,2.577h20.445c1.423,0,2.584-1.157,2.589-2.581v-6.076c-4.062,1.67-8.464,2.48-12.836,2.38C11.652,21.509,7.24,20.688,3.188,19.017z M2.659,16.6c4.111,1.939,8.732,2.924,13.315,2.794c4.578,0.112,9.141-0.836,13.249-2.741c0.08-0.04,0.161-0.081,0.242-0.124L30,16.224v-6.219c0-0.552-0.448-1-1-1H3c-0.552,0-1,0.448-1,1v6.223c0.205,0.124,0.416,0.244,0.638,0.361C2.645,16.592,2.652,16.596,2.659,16.6z"/><path d="M20.678,9.005c-0.552,0-1-0.447-1-1c-0.001-2.026-1.649-3.675-3.676-3.676c-0.001,0-0.001,0-0.002,0c-0.981,0-1.905,0.382-2.6,1.076s-1.078,1.617-1.078,2.6c0,0.553-0.448,1-1,1l0,0c-0.553,0-1-0.448-1-1c0.001-1.518,0.592-2.942,1.665-4.015C13.06,2.919,14.484,2.329,16,2.329c0.001,0,0.002,0,0.002,0c3.129,0.001,5.675,2.547,5.676,5.676C21.678,8.557,21.23,9.005,20.678,9.005L20.678,9.005z"/><path d="M7.911,23.327c-0.553,0-1-0.447-1-1v-5.812c0-0.553,0.447-1,1-1s1,0.447,1,1v5.812C8.911,22.88,8.464,23.327,7.911,23.327z"/><path d="M24.188,23.327c-0.553,0-1-0.447-1-1v-5.812c0-0.553,0.447-1,1-1s1,0.447,1,1v5.812C25.188,22.88,24.741,23.327,24.188,23.327z"/></svg>