<svg xmlns="http://www.w3.org/2000/svg" viewBox="0 0 32 32"><!--! Font Icona - https://fonticona.com | License - https://fonticona.com/license | Copyright 2022 FontIcona.com --><path d="M21.615,29.176h-11.23c-1.804,0-3.271-1.468-3.271-3.271V12.087c0-1.804,1.468-3.271,3.271-3.271h11.23c1.804,0,3.271,1.468,3.271,3.271v13.817C24.887,27.708,23.419,29.176,21.615,29.176z M10.385,10.815c-0.701,0-1.271,0.57-1.271,1.271v13.817c0,0.701,0.57,1.271,1.271,1.271h11.23c0.701,0,1.271-0.57,1.271-1.271V12.087c0-0.701-0.57-1.271-1.271-1.271H10.385z"/><circle cx="12.029" cy="30.733" r="1.267"/><circle cx="19.997" cy="30.733" r="1.267"/><path d="M19.076,10.815c-0.553,0-1-0.448-1-1V3.028C18.076,2.461,17.615,2,17.048,2h-2.096c-0.567,0-1.028,0.461-1.028,1.028v6.788c0,0.552-0.447,1-1,1s-1-0.448-1-1V3.028C11.924,1.358,13.282,0,14.952,0h2.096c1.67,0,3.028,1.358,3.028,3.028v6.788C20.076,10.368,19.629,10.815,19.076,10.815z"/><path d="M23.887,16.62H8.113c-0.553,0-1-0.448-1-1s0.447-1,1-1h15.773c0.553,0,1,0.448,1,1S24.439,16.62,23.887,16.62z"/><path d="M23.887,23.875H8.113c-0.553,0-1-0.448-1-1s0.447-1,1-1h15.773c0.553,0,1,0.448,1,1S24.439,23.875,23.887,23.875z"/></svg>