<svg xmlns="http://www.w3.org/2000/svg" viewBox="0 0 32 32"><!--! Font Icona - https://fonticona.com | License - https://fonticona.com/license | Copyright 2022 FontIcona.com --><path d="M16.001,24.558c-1.092,0-2.184-0.212-3.226-0.636C8.407,22.144,6.3,17.143,8.078,12.775c1.779-4.368,6.779-6.472,11.147-4.697l0,0c4.368,1.778,6.475,6.779,4.697,11.147c-0.861,2.116-2.495,3.77-4.601,4.657C18.252,24.333,17.127,24.558,16.001,24.558z M16.009,9.447c-2.587,0-5.044,1.542-6.078,4.082c-1.362,3.347,0.252,7.178,3.598,8.541c1.622,0.661,3.403,0.65,5.016-0.03c1.613-0.68,2.865-1.947,3.525-3.568c1.362-3.347-0.252-7.178-3.598-8.541C17.665,9.603,16.83,9.447,16.009,9.447z"/><path d="M16.153,5.475c-0.002,0-0.004,0-0.007,0c-0.552-0.004-0.997-0.454-0.993-1.007l0.023-3.475c0.003-0.55,0.451-0.993,1-0.993c0.002,0,0.004,0,0.007,0c0.552,0.004,0.997,0.454,0.993,1.007l-0.023,3.475C17.149,5.031,16.702,5.475,16.153,5.475z"/><path d="M16.153,32c-0.002,0-0.004,0-0.007,0c-0.552-0.004-0.997-0.454-0.993-1.007l0.023-3.475c0.003-0.55,0.451-0.993,1-0.993c0.002,0,0.004,0,0.007,0c0.552,0.004,0.997,0.454,0.993,1.007l-0.023,3.475C17.149,31.557,16.702,32,16.153,32z"/><path d="M4.475,17.012c-0.002,0-0.004,0-0.007,0l-3.475-0.023C0.441,16.984-0.004,16.534,0,15.981c0.004-0.55,0.451-0.993,1-0.993c0.002,0,0.004,0,0.007,0l3.475,0.023c0.552,0.004,0.997,0.455,0.993,1.007C5.471,16.568,5.024,17.012,4.475,17.012z"/><path d="M31,17.012c-0.002,0-0.004,0-0.007,0l-3.475-0.023c-0.552-0.004-0.997-0.455-0.993-1.007c0.004-0.55,0.451-0.993,1-0.993c0.002,0,0.004,0,0.007,0l3.475,0.023c0.552,0.004,0.997,0.455,0.993,1.007C31.996,16.568,31.549,17.012,31,17.012z"/><path d="M7.842,8.858c-0.258,0-0.516-0.099-0.712-0.298L4.69,6.087C4.302,5.694,4.306,5.061,4.7,4.673c0.393-0.388,1.025-0.384,1.414,0.01l2.44,2.473c0.388,0.393,0.384,1.026-0.01,1.414C8.349,8.763,8.096,8.858,7.842,8.858z"/><path d="M26.599,27.615c-0.258,0-0.516-0.099-0.712-0.298l-2.44-2.473c-0.388-0.393-0.384-1.026,0.01-1.414c0.393-0.387,1.026-0.384,1.414,0.01l2.44,2.473c0.388,0.393,0.384,1.026-0.01,1.414C27.106,27.519,26.853,27.615,26.599,27.615z"/><path d="M24.266,8.966c-0.258,0-0.516-0.099-0.712-0.298c-0.388-0.393-0.384-1.026,0.01-1.414l2.473-2.44c0.393-0.387,1.025-0.384,1.414,0.01c0.388,0.393,0.384,1.026-0.01,1.414l-2.473,2.44C24.773,8.87,24.52,8.966,24.266,8.966z"/><path d="M5.51,27.723c-0.258,0-0.516-0.099-0.712-0.298c-0.388-0.393-0.384-1.026,0.01-1.414l2.473-2.44c0.393-0.387,1.026-0.384,1.414,0.01c0.388,0.393,0.384,1.026-0.01,1.414l-2.473,2.44C6.017,27.626,5.764,27.723,5.51,27.723z"/></svg>