<svg xmlns="http://www.w3.org/2000/svg" viewBox="0 0 32 32"><!--! Font Icona - https://fonticona.com | License - https://fonticona.com/license | Copyright 2022 FontIcona.com --><circle cx="26.965" cy="12.456" r="1.246"/><path d="M28.822,16.383c-1.667,0-3.272-0.344-5.085-1.063c-0.513-0.204-0.764-0.785-0.56-1.299c0.204-0.514,0.784-0.766,1.298-0.561c2.208,0.878,3.967,1.102,6.072,0.786c0.539-0.083,1.056,0.292,1.139,0.838c0.083,0.547-0.293,1.057-0.839,1.139C30.151,16.328,29.481,16.383,28.822,16.383z"/><path d="M4.094,25.138c-1.286,0-2.587-0.524-3.333-1.76c-0.661-1.095-0.886-2.633-0.69-4.056c0.002-0.025,0.005-0.051,0.009-0.075c0.005-0.033,0.011-0.066,0.017-0.1c0.135-0.83,0.415-1.612,0.837-2.233c0.137-0.258,4.608-8.201,13.901-9.04c0.571-0.05,4.779-0.369,7.598,0.609V7.86c0-0.306,0.14-0.595,0.38-0.784c0.24-0.19,0.554-0.262,0.851-0.188c0.622,0.146,6.115,1.531,7.462,4.703c0.114,0.277,0.665,1.643,0.754,2.341l0.02,0.113c0.096,0.534,0.35,1.954-0.671,3.019c-0.926,0.963-2.539,1.273-4.931,0.946c-1.482-0.316-3.11-0.364-3.583-0.135c0.012,0.043,0.033,0.104,0.07,0.184l0.99,2.423c0.125,0.307,0.09,0.656-0.093,0.932c-0.184,0.276-0.492,0.443-0.823,0.446c-1.845,0.017-1.843,0.016-2.084-0.1c-0.125-0.061-0.235-0.146-0.325-0.251c-1.021-1.192-2.837-2.985-3.681-3.233c-0.58-0.168-0.84-0.009-0.987,0.127c-0.438,0.403-0.629,1.372-0.447,2.254c0.061,0.295-0.013,0.601-0.203,0.834s-0.475,0.369-0.775,0.369l-1.587,0.001h0c-0.426,0-0.806-0.271-0.945-0.674c-0.069-0.195-1.76-4.847-6.281-4.313c-0.026,0.003-2.964,0.401-3.454,2.517c-0.193,1.043-0.065,2.21,0.384,2.955c0.515,0.852,1.729,0.952,2.608,0.613c0.41-0.157,1.339-0.64,1.132-1.723c-0.098-0.511-0.497-1.033-0.889-1.165c-0.135-0.046-0.291-0.058-0.523,0.152c-0.148,0.134-0.192,0.27-0.19,0.301c0.354,0.424,0.3,1.051-0.124,1.405c-0.423,0.354-1.052,0.294-1.408-0.128c-0.751-0.897-0.591-2.186,0.381-3.062c0.719-0.649,1.629-0.854,2.499-0.564c1.072,0.359,1.983,1.463,2.218,2.685c0.332,1.729-0.603,3.285-2.379,3.967C5.27,25.028,4.683,25.138,4.094,25.138z M21.209,20.859h0.01H21.209z M6.257,14.829c3.678,0,5.989,2.65,7.031,4.71c0.08-0.968,0.423-1.949,1.138-2.607c0.758-0.698,1.792-0.9,2.906-0.575c1.212,0.356,2.797,1.863,3.787,2.909l-0.167-0.409c-0.514-1.108-0.134-1.855,0.14-2.197c1.116-1.396,4.254-0.897,5.552-0.618c2.223,0.303,2.941-0.152,3.142-0.363c0.292-0.304,0.228-0.82,0.146-1.281c-0.015-0.084-0.027-0.155-0.034-0.211c-0.038-0.29-0.349-1.173-0.616-1.824c-0.623-1.466-3.132-2.589-4.847-3.167v0.938c0,0.391-0.227,0.745-0.582,0.908s-0.771,0.105-1.069-0.148c-1.306-1.12-5.458-1.222-7.772-1.025c-4.685,0.423-8.029,2.956-10.05,5.077c0.191-0.037,0.315-0.053,0.343-0.057C5.631,14.848,5.949,14.829,6.257,14.829z"/></svg>