<svg xmlns="http://www.w3.org/2000/svg" viewBox="0 0 32 32"><!--! Font Icona - https://fonticona.com | License - https://fonticona.com/license | Copyright 2022 FontIcona.com --><path d="M6.258,32C2.808,32,0,29.084,0,25.499V12.776h2v12.723C2,27.98,3.91,30,6.258,30s4.257-2.02,4.257-4.501V12.69h2v12.809C12.515,29.084,9.708,32,6.258,32z"/><circle cx="6.258" cy="25.383" r="1.5"/><path d="M12.515,14.839h-2V3c0-0.551-0.448-1-1-1H3C2.448,2,2,2.449,2,3v11.839H0V3c0-1.654,1.346-3,3-3h6.515c1.654,0,3,1.346,3,3V14.839z"/><path d="M9.963,31.696l-1.436-1.393l17.023-17.537c0.382-0.392,0.383-1.003,0.005-1.395L20.908,6.56c-0.381-0.394-1.06-0.394-1.438,0l-7.23,7.604l-1.449-1.378l7.235-7.609c1.15-1.192,3.181-1.187,4.321-0.006l4.647,4.812c1.135,1.175,1.13,3.01-0.01,4.179L9.963,31.696z"/><path d="M29,32H6.258v-2H29c0.552,0,1-0.448,1-1v-5.155c0-0.552-0.448-1-1-1H18.176v-2H29c1.654,0,3,1.346,3,3V29C32,30.654,30.654,32,29,32z"/><rect x="1" y="6.312" width="10.515" height="2"/><rect x="1" y="12.646" width="10.515" height="2"/><rect x="1" y="18.896" width="10.515" height="2"/></svg>