<svg xmlns="http://www.w3.org/2000/svg" viewBox="0 0 32 32"><!--! Font Icona - https://fonticona.com | License - https://fonticona.com/license | Copyright 2022 FontIcona.com --><path d="M16.404,25.347c-0.173,0-0.351-0.005-0.536-0.013c-0.282-0.009-7.275-0.304-11.661-6.994c-0.269-0.41-0.201-0.954,0.161-1.285c0.362-0.331,0.91-0.352,1.295-0.048c0.175,0.138,4.056,3.091,9.274,1.71L5.618,9.893c-0.37-0.351-0.417-0.924-0.11-1.33c0.309-0.406,0.874-0.516,1.31-0.255l5.429,3.237L9.178,7.386C8.862,6.957,8.938,6.355,9.35,6.018c0.413-0.337,1.017-0.293,1.375,0.104c1.605,1.772,5.873,6.17,8.547,7.771c0.266-1.629,0.357-4.784-1.993-7.717c-0.288-0.359-0.293-0.868-0.013-1.233c0.28-0.366,0.775-0.49,1.196-0.308c0.081,0.036,7.972,3.628,6.969,13.801c0.653,0.871,2.036,3.161,1.265,6.149c-0.113,0.437-0.504,0.744-0.956,0.75c-0.004,0-0.008,0-0.013,0c-0.442,0-0.832-0.291-0.958-0.715c-0.066-0.208-0.458-1.206-1.809-1.15c-0.707,0.033-1.259,0.314-1.958,0.671C19.941,24.683,18.64,25.346,16.404,25.347z M9.162,20.733c3.321,2.457,6.737,2.601,6.783,2.603c2.054,0.086,3.119-0.451,4.149-0.977c0.804-0.41,1.635-0.834,2.773-0.888c0.787-0.027,1.434,0.125,1.963,0.393c-0.283-1.455-1.121-2.386-1.171-2.441c-0.198-0.215-0.295-0.511-0.26-0.801c0.541-4.467-0.837-7.479-2.378-9.389c0.893,3.42-0.06,6.259-0.117,6.425c-0.18,0.518-0.743,0.797-1.264,0.619c-0.769-0.259-1.688-0.814-2.659-1.528c0.062,0.304-0.02,0.629-0.239,0.871c-0.32,0.352-0.845,0.432-1.253,0.187l-1.929-1.15l3.957,3.746c0.246,0.233,0.357,0.575,0.296,0.908s-0.287,0.612-0.6,0.742C14.125,21.334,11.338,21.251,9.162,20.733z"/><path d="M25.49,32H6.51C2.92,32,0,29.08,0,25.49V6.51C0,2.92,2.92,0,6.51,0H25.49C29.08,0,32,2.92,32,6.51v18.98C32,29.08,29.08,32,25.49,32z M6.51,2C4.023,2,2,4.023,2,6.51v18.98C2,27.977,4.023,30,6.51,30H25.49c2.487,0,4.51-2.023,4.51-4.51V6.51C30,4.023,27.977,2,25.49,2H6.51z"/></svg>