<svg xmlns="http://www.w3.org/2000/svg" viewBox="0 0 32 32"><!--! Font Icona - https://fonticona.com | License - https://fonticona.com/license | Copyright 2022 FontIcona.com --><path d="M10.856,20.929c-0.041,0-0.083-0.002-0.124-0.008c-0.548-0.067-0.938-0.567-0.87-1.115c0.511-4.136,1.145-15.439-2.013-18.034c-0.427-0.351-0.488-0.98-0.138-1.407c0.35-0.428,0.981-0.489,1.407-0.138c4.571,3.755,2.93,18.19,2.729,19.824C11.784,20.558,11.354,20.929,10.856,20.929z"/><path d="M21.856,20.929c-0.041,0-0.083-0.002-0.124-0.008c-0.548-0.067-0.938-0.567-0.87-1.115c0.511-4.136,1.145-15.439-2.013-18.034c-0.427-0.351-0.488-0.98-0.138-1.407c0.35-0.428,0.981-0.489,1.407-0.138c4.571,3.755,2.93,18.19,2.729,19.824C22.784,20.558,22.354,20.929,21.856,20.929z"/><path d="M21.364,8.769h-9.611c-0.552,0-1-0.448-1-1s0.448-1,1-1h9.611c0.552,0,1,0.448,1,1S21.916,8.769,21.364,8.769z"/><path d="M21.364,14.323H11.278c-0.552,0-1-0.448-1-1s0.448-1,1-1h10.086c0.552,0,1,0.448,1,1S21.916,14.323,21.364,14.323z"/><path d="M23.498,22.02c-2.145,0-3.266-0.651-4.254-1.227c-0.881-0.512-1.642-0.955-3.248-0.955c-1.604,0-2.365,0.442-3.246,0.955c-0.988,0.575-2.107,1.227-4.251,1.227c-2.145,0-3.264-0.651-4.252-1.227C3.366,20.281,2.605,19.838,1,19.838c-0.552,0-1-0.448-1-1s0.448-1,1-1c2.145,0,3.264,0.651,4.252,1.227c0.881,0.512,1.642,0.955,3.247,0.955c1.604,0,2.365-0.442,3.246-0.955c0.988-0.575,2.107-1.227,4.251-1.227c2.145,0,3.266,0.651,4.254,1.227c0.881,0.512,1.642,0.955,3.248,0.955s2.367-0.443,3.248-0.955c0.989-0.575,2.109-1.227,4.254-1.227c0.552,0,1,0.448,1,1s-0.448,1-1,1c-1.606,0-2.367,0.443-3.248,0.955C26.764,21.368,25.643,22.02,23.498,22.02z"/><path d="M23.498,27.01c-2.145,0-3.266-0.651-4.254-1.227c-0.881-0.512-1.642-0.955-3.248-0.955c-1.604,0-2.365,0.442-3.246,0.955c-0.988,0.575-2.107,1.227-4.251,1.227c-2.145,0-3.264-0.651-4.252-1.227C3.366,25.271,2.605,24.828,1,24.828c-0.552,0-1-0.448-1-1s0.448-1,1-1c2.145,0,3.264,0.651,4.252,1.227c0.881,0.512,1.642,0.955,3.247,0.955c1.604,0,2.365-0.442,3.246-0.955c0.988-0.575,2.107-1.227,4.251-1.227c2.145,0,3.266,0.651,4.254,1.227c0.881,0.512,1.642,0.955,3.248,0.955s2.367-0.443,3.248-0.955c0.989-0.575,2.109-1.227,4.254-1.227c0.552,0,1,0.448,1,1s-0.448,1-1,1c-1.606,0-2.367,0.443-3.248,0.955C26.764,26.358,25.643,27.01,23.498,27.01z"/><path d="M23.498,32c-2.145,0-3.266-0.651-4.254-1.227c-0.881-0.512-1.642-0.955-3.248-0.955c-1.604,0-2.365,0.442-3.246,0.955C11.763,31.348,10.643,32,8.499,32c-2.145,0-3.264-0.651-4.252-1.227C3.366,30.261,2.605,29.818,1,29.818c-0.552,0-1-0.448-1-1s0.448-1,1-1c2.145,0,3.264,0.651,4.252,1.227C6.133,29.557,6.894,30,8.499,30c1.604,0,2.365-0.442,3.246-0.955c0.988-0.575,2.107-1.227,4.251-1.227c2.145,0,3.266,0.651,4.254,1.227C21.131,29.557,21.892,30,23.498,30s2.367-0.443,3.248-0.955c0.989-0.575,2.109-1.227,4.254-1.227c0.552,0,1,0.448,1,1s-0.448,1-1,1c-1.606,0-2.367,0.443-3.248,0.955C26.764,31.349,25.643,32,23.498,32z"/></svg>