<svg xmlns="http://www.w3.org/2000/svg" viewBox="0 0 32 32"><!--! Font Icona - https://fonticona.com | License - https://fonticona.com/license | Copyright 2022 FontIcona.com --><path d="M22.777,19.258c-2.206,0-4-1.794-4-4s1.794-4,4-4s4,1.794,4,4S24.983,19.258,22.777,19.258z M22.777,13.258c-1.103,0-2,0.897-2,2s0.897,2,2,2s2-0.897,2-2S23.88,13.258,22.777,13.258z"/><path d="M8.081,23.651c-2.935,0-5.623-0.927-7.73-2.726c-0.42-0.358-0.47-0.99-0.111-1.41c0.36-0.42,0.991-0.468,1.41-0.111c2.646,2.26,6.459,2.846,10.459,1.612c1.078-0.333,2.161-0.754,3.208-1.161c2.866-1.113,5.831-2.273,9.229-1.881c2.572,0.291,4.76,1.47,6.959,2.756c0.477,0.279,0.637,0.892,0.358,1.368c-0.279,0.478-0.892,0.636-1.368,0.358c-2.084-1.219-3.987-2.248-6.174-2.496c-2.913-0.326-5.519,0.686-8.28,1.759c-1.08,0.42-2.196,0.854-3.343,1.207C11.126,23.411,9.571,23.651,8.081,23.651z"/><path d="M18.825,20.606c-0.49,0-0.919-0.36-0.989-0.86c-0.453-3.203-2.718-7.087-5.439-9.377c-2.948,0.2-6.578,3.08-7.969,5.673c-0.26,0.485-0.866,0.672-1.354,0.408c-0.486-0.261-0.67-0.867-0.408-1.354c1.748-3.259,6.199-6.738,10.052-6.738c0.231,0.007,0.46,0.072,0.643,0.216c3.259,2.581,5.914,7.061,6.456,10.893c0.077,0.547-0.304,1.053-0.851,1.13C18.919,20.603,18.871,20.606,18.825,20.606z"/><path d="M5.946,23.459c-0.216,0-0.433-0.069-0.616-0.213c-0.435-0.341-0.511-0.97-0.17-1.404c2.91-3.712,6.373-5.897,11.952-7.543c0.537-0.159,1.087,0.148,1.242,0.676c0.156,0.53-0.146,1.086-0.676,1.242c-5.144,1.518-8.314,3.505-10.944,6.859C6.537,23.327,6.243,23.459,5.946,23.459z"/></svg>