<svg xmlns="http://www.w3.org/2000/svg" viewBox="0 0 32 32"><!--! Font Icona - https://fonticona.com | License - https://fonticona.com/license | Copyright 2022 FontIcona.com --><path d="M9.309,32c-0.553,0-1-0.447-1-1V1c0-0.553,0.447-1,1-1s1,0.447,1,1v30C10.309,31.553,9.861,32,9.309,32z"/><path d="M29.248,2H5.896c-0.553,0-1-0.447-1-1s0.447-1,1-1h23.353c0.553,0,1,0.447,1,1S29.801,2,29.248,2z"/><path d="M24.848,15.922H9.309c-0.553,0-1-0.447-1-1s0.447-1,1-1h15.539c0.553,0,1,0.447,1,1S25.4,15.922,24.848,15.922z"/><path d="M15.865,24.725H2.752c-0.553,0-1-0.447-1-1s0.447-1,1-1h13.113c0.553,0,1,0.447,1,1S16.418,24.725,15.865,24.725z"/></svg>