<svg xmlns="http://www.w3.org/2000/svg" viewBox="0 0 32 32"><!--! Font Icona - https://fonticona.com | License - https://fonticona.com/license | Copyright 2022 FontIcona.com --><path d="M21.642,9.107c0.235,0,0.477,0.025,0.727,0.077c0.413,0.086,0.856,0.311,1.154,0.606c0.621,0.613,0.287,1.722-0.517,1.871c-0.079,0.015-0.156,0.022-0.232,0.022c-0.278,0-0.53-0.104-0.717-0.347c-0.228-0.297-0.207-0.622-0.066-0.96c0.078-0.187,0.189-0.54,0.137-0.571c-0.187-0.112-0.428-0.192-0.648-0.192c-0.018,0-0.036,0.001-0.054,0.002c-0.477,0.03-0.884,0.264-1.178,0.645c-0.197,0.255-0.383,0.53-0.515,0.823c-0.581,1.284-0.764,2.668-1.021,4.079c0.261,0.029,0.512,0.048,0.754,0.048c0.445,0,0.863-0.066,1.266-0.261c0.419-0.204,0.477-0.36,0.246-0.764c-0.181-0.317-0.224-0.61,0.037-0.892c0.173-0.188,0.38-0.308,0.615-0.308c0.073,0,0.149,0.012,0.227,0.037c0.363,0.116,0.529,0.415,0.555,0.777c0.045,0.616-0.316,1.02-0.777,1.338c-0.676,0.465-1.433,0.607-2.22,0.607c-0.127,0-0.255-0.004-0.383-0.01c-0.121-0.006-0.241-0.021-0.413-0.037c-0.118,0.639-0.232,1.273-0.353,1.906c-0.359,1.871-0.839,3.699-1.95,5.293c-0.675,0.969-1.467,1.811-2.558,2.321c-0.521,0.244-1.056,0.398-1.609,0.398c-0.249,0-0.502-0.031-0.759-0.1c-0.738-0.198-1.199-0.741-1.213-1.398c-0.015-0.716,0.567-1.296,1.265-1.296c0.045,0,0.089,0.002,0.135,0.007c0.418,0.044,0.786,0.336,0.886,0.73c0.103,0.404,0.022,0.74-0.363,0.985c-0.101,0.064-0.231,0.198-0.211,0.33c0.023,0.15,0.264,0.211,0.415,0.211c0.02,0,0.039-0.001,0.055-0.003c0.614-0.082,1.058-0.458,1.427-0.928c0.671-0.853,0.983-1.866,1.213-2.899c0.402-1.81,0.704-3.643,1.169-5.436c0.194-0.749,0.11-1.2-0.515-1.653c-0.56-0.406-1.06-0.897-1.766-1.032c-0.167-0.032-0.344-0.056-0.518-0.056c-0.111,0-0.22,0.01-0.324,0.034c-0.813,0.186-1.114,1.14-0.581,1.808c0.347,0.433,0.732,0.835,1.086,1.263c1.505,1.818,0.238,3.806-1.693,4.117c-0.218,0.035-0.435,0.053-0.648,0.053c-0.719,0-1.407-0.2-2.038-0.609c-0.624-0.404-1.037-0.952-1.014-1.74c0.011-0.387,0.119-0.787,0.512-0.885c0.086-0.021,0.18-0.031,0.277-0.031c0.233,0,0.482,0.059,0.668,0.162c0.361,0.2,0.415,0.62,0.329,1.013C9.9,18.45,9.797,18.635,9.697,18.81c-0.15,0.262-0.095,0.469,0.139,0.633c0.305,0.213,0.626,0.331,0.96,0.331c0.202,0,0.408-0.043,0.617-0.134c0.767-0.333,0.952-1.174,0.407-1.807c-0.327-0.38-0.699-0.723-1.003-1.119C9.865,15.476,10,13.914,11.126,13.05c0.593-0.455,1.238-0.689,1.932-0.689c0.268,0,0.544,0.035,0.827,0.105c0.674,0.167,1.249,0.51,1.762,0.967c0.293,0.261,0.582,0.526,0.918,0.831c0.062-0.148,0.114-0.262,0.158-0.378c0.502-1.316,1.146-2.548,2.178-3.533C19.692,9.598,20.595,9.107,21.642,9.107 M21.642,7.107c-1.484,0-2.871,0.606-4.122,1.801c-0.724,0.691-1.276,1.459-1.702,2.198c-0.463-0.261-0.948-0.455-1.451-0.58c-0.438-0.109-0.879-0.164-1.309-0.164c-1.138,0-2.197,0.371-3.15,1.102c-0.936,0.719-1.535,1.751-1.687,2.908c-0.035,0.266-0.046,0.534-0.033,0.8c-0.001,0-0.002,0-0.003,0.001c-0.949,0.236-1.98,1.087-2.029,2.768c-0.041,1.41,0.643,2.645,1.926,3.476c0.299,0.194,0.608,0.358,0.926,0.491c-0.554,0.619-0.849,1.41-0.832,2.245c0.032,1.544,1.115,2.866,2.695,3.289c0.417,0.112,0.846,0.168,1.276,0.168c0.809,0,1.612-0.192,2.456-0.586c1.283-0.6,2.348-1.549,3.352-2.989c1.348-1.933,1.889-4.055,2.274-6.06c0.018-0.095,0.036-0.189,0.054-0.284c0.942-0.111,1.761-0.412,2.486-0.911c1.468-1.011,1.701-2.26,1.638-3.13c-0.01-0.135-0.028-0.267-0.053-0.396c0.635-0.381,1.123-0.998,1.353-1.748c0.345-1.125,0.047-2.329-0.777-3.142c-0.565-0.557-1.349-0.972-2.15-1.139C22.399,7.147,22.017,7.107,21.642,7.107L21.642,7.107z"/><path d="M16,32C7.178,32,0,24.822,0,16S7.178,0,16,0s16,7.178,16,16S24.822,32,16,32z M16,2C8.28,2,2,8.28,2,16s6.28,14,14,14s14-6.28,14-14S23.72,2,16,2z"/></svg>