<svg xmlns="http://www.w3.org/2000/svg" viewBox="0 0 32 32"><!--! Font Icona - https://fonticona.com | License - https://fonticona.com/license | Copyright 2022 FontIcona.com --><rect x="15" y="4.839" width="2" height="3.438"/><path d="M9.807,14.686h-2c0-4.085,3.676-7.409,8.193-7.409v2C12.585,9.276,9.807,11.703,9.807,14.686z"/><path d="M12.884,30.345H2c-1.103,0-2-0.897-2-2V16.294c0-0.591,0.255-1.109,0.698-1.425c0.445-0.316,1.019-0.382,1.576-0.189l1.105,0.386l-0.658,1.889L2,16.702v11.643h10.884V30.345z"/><path d="M8.157,18.741c-0.205,0-0.416-0.036-0.625-0.108l-1.587-0.554l0.658-1.889l1.204,0.42l0.003-2.104l2,0.002L9.808,17.02c0,0.589-0.255,1.108-0.698,1.424C8.831,18.641,8.502,18.741,8.157,18.741z"/><rect x="3.9" y="14.697" transform="matrix(0.3296 -0.9441 0.9441 0.3296 -12.4397 15.7921)" width="2" height="3.917"/><path d="M12.884,32c-0.553,0-1-0.447-1-1v-6.307c0-1.103,0.897-2,2-2H16c0.553,0,1,0.447,1,1s-0.447,1-1,1h-2.116V31C13.884,31.553,13.437,32,12.884,32z"/><path d="M4.9,26.452c-0.553,0-1-0.447-1-1V21.91c0-0.553,0.447-1,1-1s1,0.447,1,1v3.542C5.9,26.005,5.453,26.452,4.9,26.452z"/><path d="M24.193,14.686h-2c0-2.982-2.778-5.409-6.193-5.409v-2C20.518,7.276,24.193,10.601,24.193,14.686z"/><path d="M30,30.345H19.116v-2H30V16.702l-0.722,0.252l-0.658-1.889l1.106-0.386c0.556-0.193,1.131-0.126,1.575,0.189C31.745,15.185,32,15.703,32,16.294v12.051C32,29.447,31.103,30.345,30,30.345z"/><path d="M23.843,18.741c-0.344,0-0.673-0.101-0.951-0.298c-0.443-0.315-0.698-0.834-0.698-1.425v-2.512h2v2.104l1.203-0.42l0.658,1.889l-1.588,0.554C24.259,18.705,24.048,18.741,23.843,18.741z"/><rect x="25.142" y="15.655" transform="matrix(0.9443 -0.3291 0.3291 0.9443 -3.9716 9.8461)" width="3.917" height="2"/><path d="M19.116,32c-0.553,0-1-0.447-1-1v-6.307H16c-0.553,0-1-0.447-1-1s0.447-1,1-1h2.116c1.103,0,2,0.897,2,2V31C20.116,31.553,19.669,32,19.116,32z"/><path d="M27.1,26.452c-0.553,0-1-0.447-1-1V21.91c0-0.553,0.447-1,1-1s1,0.447,1,1v3.542C28.1,26.005,27.652,26.452,27.1,26.452z"/><path d="M16,6.153c-1.837,0-3.331-1.38-3.331-3.076S14.163,0,16,0s3.331,1.381,3.331,3.077S17.837,6.153,16,6.153z M16,2c-0.734,0-1.331,0.483-1.331,1.077S15.266,4.153,16,4.153s1.331-0.482,1.331-1.076S16.734,2,16,2z"/><path d="M8.811,23.319c-0.553,0-1-0.447-1-1v-5.019c0-0.553,0.447-1,1-1s1,0.447,1,1v5.019C9.811,22.872,9.363,23.319,8.811,23.319z"/><path d="M23.193,23.513c-0.553,0-1-0.447-1-1v-5.02c0-0.553,0.447-1,1-1s1,0.447,1,1v5.02C24.193,23.065,23.746,23.513,23.193,23.513z"/><path d="M16.002,18.165c-0.553,0-1-0.447-1-1v-3.541c0-0.553,0.447-1,1-1s1,0.447,1,1v3.541C17.002,17.718,16.555,18.165,16.002,18.165z"/></svg>