<svg xmlns="http://www.w3.org/2000/svg" viewBox="0 0 32 32"><!--! Font Icona - https://fonticona.com | License - https://fonticona.com/license | Copyright 2022 FontIcona.com --><path d="M15.211,22.125c-0.801,0-1.555-0.312-2.121-0.879h0l-2.335-2.336c-0.567-0.566-0.879-1.32-0.879-2.121c0-0.802,0.312-1.556,0.879-2.122l9.442-9.441c1.17-1.171,3.073-1.171,4.243,0l2.336,2.336c0.566,0.566,0.878,1.319,0.878,2.121c0,0.801-0.312,1.555-0.878,2.121l-9.443,9.442C16.767,21.812,16.013,22.125,15.211,22.125z M22.318,6.347c-0.256,0-0.513,0.097-0.708,0.292l-9.442,9.442c-0.189,0.189-0.293,0.439-0.293,0.707c0,0.267,0.104,0.518,0.293,0.707l2.336,2.336c0,0,0,0,0,0c0.377,0.379,1.036,0.377,1.414,0l9.442-9.442c0.188-0.188,0.292-0.44,0.292-0.707c0-0.268-0.104-0.519-0.292-0.707l-2.336-2.336C22.831,6.444,22.574,6.347,22.318,6.347z"/><path d="M1,32c-0.256,0-0.512-0.098-0.707-0.293c-0.391-0.391-0.391-1.023,0-1.414l8.63-8.63c0.391-0.391,1.023-0.391,1.414,0s0.391,1.023,0,1.414l-8.63,8.63C1.512,31.902,1.256,32,1,32z"/><path d="M24.552,13.275c-0.256,0-0.512-0.098-0.707-0.293l-1.251-1.251c-0.391-0.391-0.391-1.023,0-1.414c0.39-0.391,1.023-0.391,1.414,0l1.251,1.251c0.391,0.391,0.391,1.023,0,1.414C25.064,13.177,24.808,13.275,24.552,13.275z"/><path d="M22.303,15.524c-0.256,0-0.512-0.098-0.707-0.293l-1.251-1.251c-0.391-0.391-0.391-1.023,0-1.414s1.023-0.391,1.414,0l1.251,1.251c0.391,0.391,0.391,1.023,0,1.414C22.814,15.426,22.559,15.524,22.303,15.524z"/><path d="M20.054,17.773c-0.256,0-0.512-0.098-0.707-0.293l-1.251-1.251c-0.391-0.391-0.391-1.023,0-1.414c0.39-0.391,1.023-0.391,1.414,0l1.251,1.251c0.391,0.391,0.391,1.023,0,1.414C20.566,17.675,20.31,17.773,20.054,17.773z"/><path d="M17.805,20.022c-0.256,0-0.512-0.098-0.707-0.293l-1.251-1.251c-0.391-0.391-0.391-1.023,0-1.414c0.39-0.391,1.023-0.391,1.414,0l1.251,1.251c0.391,0.391,0.391,1.023,0,1.414C18.317,19.924,18.061,20.022,17.805,20.022z"/><path d="M31,5.913c-0.256,0-0.512-0.098-0.707-0.293L26.38,1.707c-0.391-0.391-0.391-1.023,0-1.414s1.023-0.391,1.414,0l3.913,3.913c0.391,0.391,0.391,1.023,0,1.414C31.512,5.815,31.256,5.913,31,5.913z"/><path d="M24.9,8.1c-0.256,0-0.512-0.098-0.707-0.293c-0.391-0.391-0.391-1.023,0-1.414l4.143-4.144c0.391-0.391,1.023-0.391,1.414,0s0.391,1.023,0,1.414l-4.143,4.144C25.412,8.002,25.156,8.1,24.9,8.1z"/><path d="M11.389,23.857c-0.512,0-1.024-0.195-1.414-0.585l-1.374-1.374c-0.779-0.78-0.779-2.048,0-2.828l1.157-1.156c0.779-0.779,2.049-0.779,2.828,0l1.374,1.374c0.78,0.779,0.78,2.049,0,2.828l-1.156,1.156C12.414,23.662,11.902,23.857,11.389,23.857z M11.172,19.328l-1.157,1.156l1.375,1.375l1.156-1.157L11.172,19.328z"/></svg>