<svg xmlns="http://www.w3.org/2000/svg" viewBox="0 0 32 32"><!--! Font Icona - https://fonticona.com | License - https://fonticona.com/license | Copyright 2022 FontIcona.com --><path d="M19.323,25.75c-1.539,0-2.788-0.375-3.729-1.121c-1.449-1.151-1.571-2.716-1.581-2.891L14.013,1c0-0.552,0.447-1,1-1s1,0.448,1,1v20.686c0,0,0-0.001,0-0.001c0.004,0,0.091,0.812,0.854,1.399c0.858,0.662,2.314,0.833,4.21,0.497c0.543-0.1,1.063,0.266,1.159,0.809c0.097,0.544-0.266,1.063-0.81,1.16C20.675,25.683,19.973,25.75,19.323,25.75z"/><path d="M21.251,8.072H10.749c-0.553,0-1-0.448-1-1s0.447-1,1-1h10.502c0.553,0,1,0.448,1,1S21.804,8.072,21.251,8.072z"/></svg>