<svg xmlns="http://www.w3.org/2000/svg" viewBox="0 0 32 32"><!--! Font Icona - https://fonticona.com | License - https://fonticona.com/license | Copyright 2022 FontIcona.com --><path d="M23.853,32H8.146c-1.103,0-2-0.897-2-2V11.215L3.56,11.835c-0.524,0.126-1.063,0.037-1.516-0.253c-0.453-0.289-0.76-0.74-0.866-1.27L0.217,5.527C0.01,4.492,0.631,3.419,1.63,3.083l9.031-3.031c0.524-0.174,1.09,0.106,1.267,0.63c0.175,0.524-0.106,1.091-0.63,1.267L2.267,4.979C2.223,4.994,2.168,5.088,2.178,5.135l0.961,4.784l2.802-0.711C6.494,9.074,7.055,9.19,7.479,9.524c0.424,0.334,0.667,0.853,0.667,1.423V30h15.707V10.948c0-0.57,0.243-1.089,0.666-1.423c0.424-0.333,0.985-0.449,1.539-0.317l2.847,0.682l0.917-4.757c0.009-0.046-0.045-0.14-0.089-0.155l-9.03-3.03c-0.523-0.176-0.806-0.743-0.63-1.267c0.176-0.523,0.745-0.804,1.267-0.63l9.03,3.031c1,0.336,1.621,1.41,1.413,2.444l-0.961,4.786c-0.105,0.529-0.413,0.98-0.867,1.27c-0.454,0.29-0.993,0.378-1.518,0.252l-2.584-0.619V30C25.853,31.102,24.956,32,23.853,32z"/><path d="M16,3.284c-1.919,0-3.837-0.471-5.511-1.413c-0.481-0.271-0.652-0.88-0.381-1.362c0.271-0.481,0.88-0.653,1.362-0.381c2.71,1.524,6.351,1.525,9.062,0c0.481-0.271,1.091-0.1,1.361,0.381c0.271,0.481,0.101,1.091-0.381,1.362C19.838,2.814,17.919,3.284,16,3.284z"/><path d="M15.875,8.829c-3.573,0-6.479-3.143-6.479-7.005h2c0,2.76,2.009,5.005,4.479,5.005s4.478-2.245,4.478-5.005h2C22.353,5.687,19.447,8.829,15.875,8.829z"/></svg>