<svg xmlns="http://www.w3.org/2000/svg" viewBox="0 0 32 32"><!--! Font Icona - https://fonticona.com | License - https://fonticona.com/license | Copyright 2022 FontIcona.com --><path d="M29,32H3c-1.654,0-3-1.346-3-3V3c0-1.654,1.346-3,3-3h26c1.654,0,3,1.346,3,3v26C32,30.654,30.654,32,29,32z M3,2C2.448,2,2,2.448,2,3v26c0,0.552,0.448,1,1,1h26c0.552,0,1-0.448,1-1V3c0-0.552-0.448-1-1-1H3z"/><path d="M19.711,21.322c-0.256,0-0.512-0.098-0.707-0.293l-8.056-8.056c-0.391-0.391-0.391-1.023,0-1.414s1.023-0.391,1.414,0l8.056,8.056c0.391,0.391,0.391,1.023,0,1.414C20.223,21.225,19.967,21.322,19.711,21.322z"/><path d="M11.655,21.322c-0.256,0-0.512-0.098-0.707-0.293c-0.391-0.391-0.391-1.023,0-1.414l8.056-8.056c0.391-0.391,1.023-0.391,1.414,0s0.391,1.023,0,1.414l-8.056,8.056C12.167,21.225,11.911,21.322,11.655,21.322z"/><path d="M7.955,32c-0.553,0-1-0.447-1-1V1c0-0.553,0.447-1,1-1s1,0.447,1,1v30C8.955,31.553,8.508,32,7.955,32z"/><path d="M23.511,32c-0.553,0-1-0.447-1-1V1c0-0.553,0.447-1,1-1s1,0.447,1,1v30C24.511,31.553,24.063,32,23.511,32z"/></svg>