<svg xmlns="http://www.w3.org/2000/svg" viewBox="0 0 32 32"><!--! Font Icona - https://fonticona.com | License - https://fonticona.com/license | Copyright 2022 FontIcona.com --><path d="M3.751,26c-0.06,0-0.121-0.005-0.182-0.017c-0.543-0.1-0.903-0.621-0.803-1.164l1.945-10.587c0.1-0.542,0.619-0.904,1.164-0.803c0.543,0.1,0.903,0.621,0.803,1.164L4.733,25.181C4.645,25.663,4.224,26,3.751,26z"/><path d="M8.236,23.692c-0.055,0-0.111-0.005-0.168-0.014c-0.544-0.093-0.911-0.608-0.819-1.153l1.349-7.968c0.092-0.544,0.604-0.913,1.153-0.819c0.544,0.092,0.911,0.608,0.819,1.153l-1.349,7.968C9.139,23.348,8.715,23.692,8.236,23.692z"/><path d="M28.249,26c-0.474,0-0.894-0.337-0.982-0.819l-1.924-10.474c-0.1-0.543,0.26-1.064,0.803-1.164c0.549-0.099,1.064,0.261,1.164,0.803l1.924,10.474c0.1,0.543-0.259,1.064-0.803,1.164C28.37,25.995,28.309,26,28.249,26z"/><path d="M23.764,23.692c-0.479,0-0.902-0.345-0.985-0.833l-1.329-7.854c-0.092-0.544,0.274-1.061,0.819-1.153c0.546-0.096,1.061,0.275,1.153,0.819l1.329,7.854c0.092,0.545-0.274,1.061-0.819,1.153C23.875,23.688,23.819,23.692,23.764,23.692z"/><path d="M31,10.018c-0.417,0-0.774-0.255-0.924-0.618C29.17,8.879,24.421,8,16,8S2.83,8.879,1.924,9.4C1.774,9.762,1.417,10.018,1,10.018c-0.552,0-1-0.448-1-1C0,6.523,8.701,6,16,6s16,0.523,16,3.018C32,9.57,31.552,10.018,31,10.018z"/><path d="M25.654,15.358c-0.488,0-0.916-0.358-0.988-0.855c-0.08-0.546,0.298-1.054,0.845-1.134c3.347-0.489,4.3-1.059,4.514-1.222c0.1-0.447,0.499-0.78,0.976-0.78c0.552,0,1,0.448,1,1c0,1.026-0.737,2.182-6.2,2.98C25.751,15.355,25.702,15.358,25.654,15.358z"/><path d="M16,15.969c-3.753,0-16-0.26-16-3.602c0-0.552,0.448-1,1-1c0.479,0,0.88,0.338,0.978,0.789C2.734,12.8,7.534,13.969,16,13.969c3.483,0,6.861-0.213,9.511-0.6c0.54-0.078,1.054,0.298,1.134,0.845c0.08,0.546-0.299,1.054-0.845,1.134C23.057,15.748,19.577,15.969,16,15.969z"/><path d="M1,13.367c-0.552,0-1-0.448-1-1v-3.35c0-0.552,0.448-1,1-1s1,0.448,1,1v3.35C2,12.919,1.552,13.367,1,13.367z"/><path d="M31,13.367c-0.552,0-1-0.448-1-1v-3.35c0-0.552,0.448-1,1-1s1,0.448,1,1v3.35C32,12.919,31.552,13.367,31,13.367z"/><path d="M16,12.056c-3.622,0-15.438-0.249-15.438-3.457c0-0.552,0.448-1,1-1c0.47,0,0.864,0.324,0.971,0.762C3.302,8.967,7.929,10.056,16,10.056c3.352,0,6.602-0.201,9.151-0.566c3.154-0.452,4.094-0.978,4.317-1.136C29.578,7.92,29.97,7.6,30.438,7.6c0.552,0,1,0.448,1,1c0,0.994-0.713,2.112-6.002,2.87C22.795,11.848,19.444,12.056,16,12.056z M2.562,8.6h0.01H2.562z"/></svg>