<svg xmlns="http://www.w3.org/2000/svg" viewBox="0 0 32 32"><!--! Font Icona - https://fonticona.com | License - https://fonticona.com/license | Copyright 2022 FontIcona.com --><path d="M29,32H3c-1.654,0-3-1.346-3-3V3c0-1.654,1.346-3,3-3h26c1.654,0,3,1.346,3,3v26C32,30.654,30.654,32,29,32z M3,2C2.448,2,2,2.448,2,3v26c0,0.552,0.448,1,1,1h26c0.552,0,1-0.448,1-1V3c0-0.552-0.448-1-1-1H3z"/><path d="M11.556,21.444c-0.553,0-1-0.447-1-1v-8.889c0-0.553,0.447-1,1-1s1,0.447,1,1v8.889C12.556,20.997,12.108,21.444,11.556,21.444z"/><path d="M16,17H7.111c-0.553,0-1-0.447-1-1s0.447-1,1-1H16c0.553,0,1,0.447,1,1S16.553,17,16,17z"/><path d="M21.833,32c-0.553,0-1-0.447-1-1V1c0-0.553,0.447-1,1-1s1,0.447,1,1v30C22.833,31.553,22.386,32,21.833,32z"/><path d="M31,21.444h-9.167c-0.553,0-1-0.447-1-1s0.447-1,1-1H31c0.553,0,1,0.447,1,1S31.553,21.444,31,21.444z"/><path d="M31,12.333h-9.167c-0.553,0-1-0.447-1-1s0.447-1,1-1H31c0.553,0,1,0.447,1,1S31.553,12.333,31,12.333z"/></svg>