<svg xmlns="http://www.w3.org/2000/svg" viewBox="0 0 32 32"><!--! Font Icona - https://fonticona.com | License - https://fonticona.com/license | Copyright 2022 FontIcona.com --><path d="M29,32H3c-1.654,0-3-1.346-3-3V3c0-1.654,1.346-3,3-3h26c1.654,0,3,1.346,3,3v26C32,30.654,30.654,32,29,32z M3,2C2.448,2,2,2.448,2,3v26c0,0.552,0.448,1,1,1h26c0.552,0,1-0.448,1-1V3c0-0.552-0.448-1-1-1H3z"/><path d="M20.467,21.444c-0.553,0-1-0.447-1-1v-8.889c0-0.553,0.447-1,1-1s1,0.447,1,1v8.889C21.467,20.997,21.02,21.444,20.467,21.444z"/><path d="M24.911,17h-8.889c-0.553,0-1-0.447-1-1s0.447-1,1-1h8.889c0.553,0,1,0.447,1,1S25.464,17,24.911,17z"/><path d="M10.188,32c-0.553,0-1-0.447-1-1V1c0-0.553,0.447-1,1-1s1,0.447,1,1v30C11.188,31.553,10.741,32,10.188,32z"/><path d="M10.188,21.444H1.022c-0.553,0-1-0.447-1-1s0.447-1,1-1h9.166c0.553,0,1,0.447,1,1S10.741,21.444,10.188,21.444z"/><path d="M10.188,12.333H1c-0.553,0-1-0.447-1-1s0.447-1,1-1h9.188c0.553,0,1,0.447,1,1S10.741,12.333,10.188,12.333z"/></svg>