<svg xmlns="http://www.w3.org/2000/svg" viewBox="0 0 32 32"><!--! Font Icona - https://fonticona.com | License - https://fonticona.com/license | Copyright 2022 FontIcona.com --><path d="M29,32H3c-1.654,0-3-1.346-3-3V3c0-1.654,1.346-3,3-3h26c1.654,0,3,1.346,3,3v26C32,30.654,30.654,32,29,32z M3,2C2.448,2,2,2.448,2,3v26c0,0.552,0.448,1,1,1h26c0.552,0,1-0.448,1-1V3c0-0.552-0.448-1-1-1H3z"/><path d="M20.444,21.467h-8.889c-0.553,0-1-0.447-1-1s0.447-1,1-1h8.889c0.553,0,1,0.447,1,1S20.997,21.467,20.444,21.467z"/><path d="M16,25.911c-0.553,0-1-0.447-1-1v-8.889c0-0.553,0.447-1,1-1s1,0.447,1,1v8.889C17,25.464,16.553,25.911,16,25.911z"/><path d="M31,11.188H1c-0.553,0-1-0.447-1-1s0.447-1,1-1h30c0.553,0,1,0.447,1,1S31.553,11.188,31,11.188z"/><path d="M20.444,11.188c-0.553,0-1-0.447-1-1V1.022c0-0.553,0.447-1,1-1s1,0.447,1,1v9.166C21.444,10.741,20.997,11.188,20.444,11.188z"/><path d="M11.333,11.188c-0.553,0-1-0.447-1-1V1c0-0.553,0.447-1,1-1s1,0.447,1,1v9.188C12.333,10.741,11.886,11.188,11.333,11.188z"/></svg>