<svg xmlns="http://www.w3.org/2000/svg" viewBox="0 0 32 32"><!--! Font Icona - https://fonticona.com | License - https://fonticona.com/license | Copyright 2022 FontIcona.com --><path d="M29,32H3c-1.654,0-3-1.346-3-3V3c0-1.654,1.346-3,3-3h26c1.654,0,3,1.346,3,3v26C32,30.654,30.654,32,29,32z M3,2C2.448,2,2,2.448,2,3v26c0,0.552,0.448,1,1,1h26c0.552,0,1-0.448,1-1V3c0-0.552-0.448-1-1-1H3z"/><path d="M11.678,20.711c-0.256,0-0.512-0.098-0.707-0.293c-0.391-0.391-0.391-1.023,0-1.414l8.056-8.056c0.391-0.391,1.023-0.391,1.414,0s0.391,1.023,0,1.414l-8.056,8.056C12.189,20.613,11.934,20.711,11.678,20.711z"/><path d="M19.733,20.711c-0.256,0-0.512-0.098-0.707-0.293l-8.056-8.056c-0.391-0.391-0.391-1.023,0-1.414s1.023-0.391,1.414,0l8.056,8.056c0.391,0.391,0.391,1.023,0,1.414C20.245,20.613,19.989,20.711,19.733,20.711z"/><path d="M31,8.955H1c-0.553,0-1-0.447-1-1s0.447-1,1-1h30c0.553,0,1,0.447,1,1S31.553,8.955,31,8.955z"/><path d="M31,24.511H1c-0.553,0-1-0.447-1-1s0.447-1,1-1h30c0.553,0,1,0.447,1,1S31.553,24.511,31,24.511z"/></svg>