<svg xmlns="http://www.w3.org/2000/svg" viewBox="0 0 32 32"><!--! Font Icona - https://fonticona.com | License - https://fonticona.com/license | Copyright 2022 FontIcona.com --><path d="M29,32H3c-1.654,0-3-1.346-3-3V3c0-1.654,1.346-3,3-3h26c1.654,0,3,1.346,3,3v26C32,30.654,30.654,32,29,32z M3,2C2.448,2,2,2.448,2,3v26c0,0.552,0.448,1,1,1h26c0.552,0,1-0.448,1-1V3c0-0.552-0.448-1-1-1H3z"/><path d="M20.444,12.556h-8.889c-0.553,0-1-0.447-1-1s0.447-1,1-1h8.889c0.553,0,1,0.447,1,1S20.997,12.556,20.444,12.556z"/><path d="M16,17c-0.553,0-1-0.447-1-1V7.111c0-0.553,0.447-1,1-1s1,0.447,1,1V16C17,16.553,16.553,17,16,17z"/><path d="M31,22.833H1c-0.553,0-1-0.447-1-1s0.447-1,1-1h30c0.553,0,1,0.447,1,1S31.553,22.833,31,22.833z"/><path d="M11.556,32c-0.553,0-1-0.447-1-1v-9.167c0-0.553,0.447-1,1-1s1,0.447,1,1V31C12.556,31.553,12.108,32,11.556,32z"/><path d="M20.667,32c-0.553,0-1-0.447-1-1v-9.167c0-0.553,0.447-1,1-1s1,0.447,1,1V31C21.667,31.553,21.22,32,20.667,32z"/></svg>