<svg xmlns="http://www.w3.org/2000/svg" viewBox="0 0 32 32"><!--! Font Icona - https://fonticona.com | License - https://fonticona.com/license | Copyright 2022 FontIcona.com --><path d="M29,32H3c-1.654,0-3-1.346-3-3V3c0-1.654,1.346-3,3-3h26c1.654,0,3,1.346,3,3v26C32,30.654,30.654,32,29,32z M3,2C2.448,2,2,2.449,2,3v26c0,0.551,0.448,1,1,1h26c0.552,0,1-0.449,1-1V3c0-0.551-0.448-1-1-1H3z"/><path d="M31,11.622H1c-0.553,0-1-0.448-1-1s0.447-1,1-1h30c0.553,0,1,0.448,1,1S31.553,11.622,31,11.622z"/><path d="M31,21.411H1.922c-0.553,0-1-0.448-1-1s0.447-1,1-1H31c0.553,0,1,0.448,1,1S31.553,21.411,31,21.411z"/><path d="M10.578,32c-0.553,0-1-0.448-1-1V10.622c0-0.552,0.447-1,1-1s1,0.448,1,1V31C11.578,31.552,11.131,32,10.578,32z"/><path d="M21.188,31.211c-0.553,0-1-0.448-1-1V10.622c0-0.552,0.447-1,1-1s1,0.448,1,1v19.589C22.188,30.763,21.741,31.211,21.188,31.211z"/></svg>