<svg xmlns="http://www.w3.org/2000/svg" viewBox="0 0 32 32"><!--! Font Icona - https://fonticona.com | License - https://fonticona.com/license | Copyright 2022 FontIcona.com --><path d="M25.667,32c-2.498,0-4.53-2.032-4.53-4.53s2.032-4.53,4.53-4.53c2.498,0,4.53,2.032,4.53,4.53S28.165,32,25.667,32z M25.667,24.94c-1.395,0-2.53,1.135-2.53,2.53S24.272,30,25.667,30s2.53-1.135,2.53-2.53S27.062,24.94,25.667,24.94z"/><path d="M18.912,28.632c-1.777-0.047-3.447-0.764-4.704-2.021l-8.819-8.819c-1.304-1.305-2.022-3.039-2.022-4.883c0-1.845,0.718-3.579,2.022-4.883l4.274-4.274c4.995-4.994,13.122-4.996,18.117,0l0.468,0.468c4.809,4.809,5.024,12.539,0.491,17.599l-1.489-1.334c3.825-4.27,3.643-10.793-0.416-14.851l-0.468-0.468c-4.215-4.215-11.074-4.215-15.289,0L6.803,9.441c-0.926,0.927-1.437,2.158-1.437,3.469c0,1.31,0.51,2.542,1.437,3.469l8.819,8.819c0.893,0.893,2.079,1.402,3.341,1.435L18.912,28.632z"/><path d="M4.445,31.994c-0.759,0-1.513-0.289-2.088-0.864L0.87,29.643C0.309,29.081,0,28.336,0,27.543s0.309-1.538,0.87-2.099l7.097-6.546l1.355,1.471l-7.068,6.518C2.101,27.042,2,27.285,2,27.543s0.101,0.502,0.284,0.686l1.487,1.487c0.378,0.377,0.992,0.378,1.37,0l6.487-7.041l1.471,1.355l-6.515,7.07C5.987,31.698,5.214,31.994,4.445,31.994z"/><rect x="12.302" y="5.749" transform="matrix(0.7071 -0.7071 0.7071 0.7071 -7.3751 14.0749)" width="2" height="20.382"/></svg>