<svg xmlns="http://www.w3.org/2000/svg" viewBox="0 0 32 32"><!--! Font Icona - https://fonticona.com | License - https://fonticona.com/license | Copyright 2022 FontIcona.com --><path d="M29.516,28.283H2.484l-0.29-0.492C0.752,25.347-0.007,22.554,0,19.714c0-8.82,7.178-15.998,16-15.998s16,7.178,16,16c0.007,2.837-0.752,5.63-2.194,8.075L29.516,28.283z M3.64,26.283H28.36c1.08-2.015,1.646-4.272,1.64-6.564c0-7.722-6.28-14.002-14-14.002s-14,6.28-14,14C1.994,22.011,2.56,24.269,3.64,26.283z"/><circle cx="16" cy="8.861" r="0.25"/><path d="M16,10.111c-0.689,0-1.25-0.561-1.25-1.25s0.561-1.25,1.25-1.25s1.25,0.561,1.25,1.25S16.689,10.111,16,10.111z M16,8.111c-0.413,0-0.75,0.336-0.75,0.75s0.337,0.75,0.75,0.75s0.75-0.336,0.75-0.75S16.413,8.111,16,8.111z"/><circle cx="26.778" cy="19.639" r="0.25"/><path d="M26.777,20.889c-0.689,0-1.25-0.561-1.25-1.25s0.561-1.25,1.25-1.25s1.25,0.561,1.25,1.25S27.467,20.889,26.777,20.889z M26.777,18.889c-0.413,0-0.75,0.336-0.75,0.75s0.337,0.75,0.75,0.75s0.75-0.336,0.75-0.75S27.19,18.889,26.777,18.889z"/><circle cx="5.222" cy="19.639" r="0.25"/><path d="M5.223,20.889c-0.689,0-1.25-0.561-1.25-1.25s0.561-1.25,1.25-1.25s1.25,0.561,1.25,1.25S5.912,20.889,5.223,20.889z M5.223,18.889c-0.413,0-0.75,0.336-0.75,0.75s0.337,0.75,0.75,0.75s0.75-0.336,0.75-0.75S5.636,18.889,5.223,18.889z"/><circle cx="23.478" cy="12.172" r="0.25"/><path d="M23.478,13.422c-0.689,0-1.25-0.561-1.25-1.25s0.561-1.25,1.25-1.25s1.25,0.561,1.25,1.25S24.167,13.422,23.478,13.422z M23.478,11.422c-0.413,0-0.75,0.336-0.75,0.75s0.337,0.75,0.75,0.75s0.75-0.336,0.75-0.75S23.891,11.422,23.478,11.422z"/><circle cx="8.522" cy="12.172" r="0.25"/><path d="M8.522,13.422c-0.689,0-1.25-0.561-1.25-1.25s0.561-1.25,1.25-1.25s1.25,0.561,1.25,1.25S9.212,13.422,8.522,13.422z M8.522,11.422c-0.413,0-0.75,0.336-0.75,0.75s0.337,0.75,0.75,0.75s0.75-0.336,0.75-0.75S8.936,11.422,8.522,11.422z"/><rect x="16.78" y="15.868" transform="matrix(0.8429 -0.5381 0.5381 0.8429 -5.3181 15.5245)" width="14.286" height="2"/><path d="M16,25.083c-1.777,0-3.223-1.445-3.223-3.222s1.445-3.223,3.223-3.223s3.223,1.446,3.223,3.223S17.777,25.083,16,25.083z M16,20.639c-0.674,0-1.223,0.548-1.223,1.223c0,0.674,0.549,1.222,1.223,1.222s1.223-0.548,1.223-1.222C17.223,21.187,16.674,20.639,16,20.639z"/></svg>