<svg xmlns="http://www.w3.org/2000/svg" viewBox="0 0 32 32"><!--! Font Icona - https://fonticona.com | License - https://fonticona.com/license | Copyright 2022 FontIcona.com --><path d="M22.813,13.178c-0.2,0-0.401-0.015-0.603-0.045c-1.052-0.158-1.979-0.717-2.61-1.573s-0.893-1.906-0.734-2.958c0.327-2.171,2.355-3.673,4.531-3.345l0,0c2.172,0.327,3.672,2.359,3.346,4.531c-0.159,1.052-0.718,1.979-1.573,2.611C24.478,12.91,23.658,13.178,22.813,13.178z M22.804,7.212c-0.964,0-1.812,0.706-1.959,1.687c-0.079,0.524,0.051,1.047,0.365,1.473c0.314,0.426,0.775,0.704,1.299,0.783c0.524,0.078,1.047-0.051,1.474-0.365c0.426-0.314,0.704-0.776,0.782-1.3c0.163-1.081-0.584-2.093-1.664-2.256C23.001,7.22,22.901,7.212,22.804,7.212z"/><path d="M12.578,31.999c-0.81,0-1.57-0.315-2.143-0.887l-9.548-9.549C0.315,20.992,0,20.231,0,19.421s0.315-1.57,0.888-2.143L16.701,1.465c0.527-0.527,1.228-0.84,1.971-0.882l10.127-0.577l0,0c0.841-0.05,1.703,0.272,2.313,0.882c0.609,0.61,0.932,1.454,0.883,2.315l-0.579,10.126c-0.042,0.744-0.355,1.444-0.882,1.97L14.72,31.112C14.148,31.684,13.388,31.999,12.578,31.999z M28.912,2.002L18.785,2.58c-0.253,0.014-0.491,0.121-0.67,0.3L2.302,18.693C2.107,18.888,2,19.146,2,19.421s0.107,0.533,0.302,0.728l9.548,9.549c0.389,0.388,1.066,0.39,1.456,0L29.12,13.883c0.179-0.179,0.285-0.416,0.3-0.669l0.579-10.125c0.017-0.297-0.09-0.577-0.301-0.787C29.487,2.092,29.208,1.982,28.912,2.002L28.912,2.002z"/></svg>