<svg xmlns="http://www.w3.org/2000/svg" viewBox="0 0 32 32"><!--! Font Icona - https://fonticona.com | License - https://fonticona.com/license | Copyright 2022 FontIcona.com --><path class="st0" d="M19.031,12.92c-0.171,0-0.345-0.013-0.52-0.039c-1.9-0.286-3.214-2.065-2.928-3.966c0.286-1.899,2.064-3.214,3.966-2.929c0,0,0,0,0,0c1.9,0.286,3.214,2.065,2.928,3.966C22.217,11.678,20.726,12.92,19.031,12.92z M19.03,7.948c-0.723,0-1.358,0.528-1.469,1.265c-0.059,0.392,0.039,0.784,0.274,1.104c0.236,0.319,0.582,0.527,0.974,0.586c0.807,0.128,1.569-0.438,1.691-1.248c0.122-0.81-0.438-1.568-1.248-1.689C19.177,7.953,19.103,7.948,19.03,7.948z"/><path class="st0" d="M10.507,28.462c-0.777,0-1.555-0.296-2.146-0.888l-7.471-7.471c-1.184-1.184-1.184-3.109,0-4.293L14.034,2.665c0.335-0.334,0.778-0.532,1.248-0.559l8.349-0.476c0.849-0.06,1.708,0.272,2.319,0.884s0.934,1.457,0.884,2.319l-0.477,8.348c-0.027,0.471-0.225,0.913-0.559,1.247L12.653,27.574C12.062,28.166,11.284,28.462,10.507,28.462z M23.807,3.626c-0.021,0-0.041,0-0.062,0.001c0,0,0,0,0,0l-8.35,0.476L2.303,17.225c-0.404,0.404-0.404,1.061,0,1.465l7.471,7.471c0.404,0.404,1.061,0.404,1.465,0l13.146-13.146l0.453-8.294c0.017-0.299-0.09-0.58-0.302-0.792C24.339,3.731,24.082,3.626,23.807,3.626z M23.688,2.629h0.01H23.688z"/><path class="st0" d="M15.668,30.373c-0.777,0-1.555-0.296-2.146-0.888l-2.097-2.097c-0.391-0.391-0.391-1.023,0-1.414s1.023-0.391,1.414,0l2.097,2.097c0.404,0.404,1.061,0.404,1.465,0l13.145-13.146l0.453-8.294c0.017-0.3-0.09-0.58-0.301-0.792s-0.494-0.318-0.791-0.302l-3.01,0.171c-0.546,0.035-1.024-0.39-1.055-0.941s0.391-1.023,0.942-1.055l3.009-0.171c0.874-0.052,1.708,0.273,2.319,0.884c0.611,0.611,0.934,1.456,0.884,2.319l-0.477,8.348c-0.027,0.472-0.226,0.915-0.56,1.248L17.814,29.485C17.223,30.077,16.445,30.373,15.668,30.373z"/></svg>