<svg xmlns="http://www.w3.org/2000/svg" viewBox="0 0 32 32"><!--! Font Icona - https://fonticona.com | License - https://fonticona.com/license | Copyright 2022 FontIcona.com --><line class="st1" x1="17.721" y1="1.265" x2="14.279" y2="1.794"/><path d="M16.75,32h-9.5c-1.103,0-2-0.897-2-2V12.735c0-0.432,0.277-0.815,0.688-0.95c3.472-1.142,2.688-5.633,1.679-9.754C7.489,1.511,7.795,0.982,8.311,0.833L9.706,0.43c0.532-0.151,1.085,0.152,1.238,0.684c0.153,0.53-0.152,1.085-0.684,1.238L9.784,2.489c0.793,3.396,1.731,8.967-2.534,10.927V30h9.5c0.553,0,1,0.447,1,1S17.303,32,16.75,32z"/><path d="M24.75,32h-8c-0.553,0-1-0.447-1-1s0.447-1,1-1h8V13.416c-4.253-1.957-3.334-7.528-2.538-10.954l-0.237-0.055c-0.538-0.125-0.873-0.662-0.749-1.2c0.125-0.538,0.664-0.871,1.2-0.749l1.22,0.282c0.261,0.061,0.485,0.223,0.626,0.45s0.184,0.502,0.12,0.762c-1.091,4.463-1.644,8.743,1.671,9.833c0.41,0.135,0.688,0.519,0.688,0.95V30C26.75,31.103,25.853,32,24.75,32z"/><path d="M16.021,5.206c-3.156-0.065-4.581-1.638-5.099-3.006l-0.714,0.165c-0.535,0.126-1.075-0.211-1.199-0.75C8.885,1.077,9.221,0.54,9.759,0.416l1.693-0.391c0.289-0.065,0.598-0.001,0.836,0.184c0.237,0.183,0.38,0.463,0.389,0.763c0.012,0.21,0.214,2.169,3.344,2.234c3.089-0.065,3.291-2.024,3.304-2.248c0.017-0.294,0.163-0.573,0.398-0.75c0.235-0.178,0.534-0.25,0.825-0.183l1.877,0.433c0.538,0.124,0.874,0.661,0.75,1.199c-0.123,0.539-0.663,0.876-1.199,0.75L21.079,2.2C20.562,3.568,19.146,5.141,16.021,5.206z"/><path d="M16,9.258c-3.042,0-5.425-3.511-5.425-7.993c0-0.553,0.447-1,1-1s1,0.447,1,1c0,3.249,1.568,5.993,3.425,5.993s3.425-2.744,3.425-5.993c0-0.553,0.447-1,1-1s1,0.447,1,1C21.425,5.747,19.042,9.258,16,9.258z"/></svg>