<svg xmlns="http://www.w3.org/2000/svg" viewBox="0 0 32 32"><!--! Font Icona - https://fonticona.com | License - https://fonticona.com/license | Copyright 2022 FontIcona.com --><path d="M15.96,26.225c-3.254,0-5.241-0.314-7.758-0.712c-4.238-0.689-5.176-2.666-5.224-4.203c-0.018-0.858-0.129-1.273-0.515-1.941c-0.271-0.468-0.386-1.05-0.439-1.623c-0.765-0.442-1.251-1.123-1.511-2.101c-0.424-1.596-1.196-5.543,0.797-7.73C2.896,6.175,5.554,6.02,7.493,5.907c1.94-0.164,3.873-0.132,5.74-0.102c0.854,0.013,1.708,0.029,2.564,0.023c0.044-0.001,0.104,0.003,0.155,0.011c0.05-0.007,0.105-0.027,0.153-0.011c0.846,0.002,1.685-0.013,2.525-0.027c1.892-0.034,3.849-0.067,5.81,0.099l0.5,0.039c2.185,0.17,4.902,0.381,6.284,2.879c0.891,1.61,0.854,3.468,0.667,4.743L31.858,13.8c-0.136,0.977-0.371,2.673-1.651,3.372c-0.103,0.542-0.308,1.211-0.613,1.997h-0.002c-0.014,0.043-0.03,0.086-0.051,0.128c-0.4,0.836-0.537,1.242-0.553,2.002c-0.047,1.547-0.986,3.522-5.198,4.206C21.215,25.911,19.213,26.225,15.96,26.225z M10.976,7.781c-1.104,0-2.215,0.026-3.309,0.118C5.924,8.002,3.826,8.124,2.789,9.262c-1.086,1.191-0.889,3.813-0.342,5.869c0.156,0.588,0.369,0.836,0.878,1.02c0.382,0.139,0.642,0.494,0.658,0.9c0.027,0.678,0.099,1.12,0.212,1.316c0.56,0.969,0.758,1.698,0.783,2.89c0.035,1.134,1.214,1.902,3.504,2.275c2.557,0.404,4.381,0.692,7.478,0.692s4.935-0.289,7.478-0.689c2.333-0.378,3.517-1.146,3.551-2.288c0.023-1.101,0.255-1.779,0.731-2.777c0.003-0.009,0.006-0.017,0.01-0.024c0.529-1.365,0.555-1.9,0.555-1.993c-0.002-0.481,0.34-0.896,0.812-0.986c0.485-0.093,0.646-0.971,0.781-1.941l0.036-0.255c0.201-1.371,0.046-2.608-0.438-3.483c-0.861-1.557-2.72-1.7-4.688-1.854l-0.514-0.041c-1.857-0.156-3.764-0.124-5.606-0.091c-0.854,0.015-1.711,0.026-2.566,0.027c-0.05,0-0.1-0.004-0.147-0.012C15.8,7.841,15.638,7.83,15.479,7.83c-0.76,0-1.519-0.013-2.277-0.024C12.467,7.793,11.723,7.781,10.976,7.781z"/><path d="M15.925,17.891c-4.557,0-9.111-0.205-13.825-0.615c-0.55-0.048-0.957-0.532-0.909-1.083c0.048-0.55,0.544-0.961,1.083-0.909c9.336,0.813,18.039,0.812,27.393-0.007c0.546-0.046,1.036,0.359,1.083,0.909c0.048,0.55-0.358,1.035-0.909,1.083C25.091,17.684,20.507,17.891,15.925,17.891z"/><path d="M1.015,13.517c-0.062,0-0.127-0.006-0.191-0.019c-0.542-0.104-0.896-0.629-0.791-1.172c0.2-1.035,1.017-1.774,2.081-1.882c0.547-0.057,1.077,0.059,1.527,0.301c0.579-0.66,1.259-1.033,1.952-0.977c0.631,0.01,1.167,0.292,1.583,0.639c0.814-0.819,1.59-0.93,2.158-0.842c0.42,0.066,0.781,0.25,1.079,0.479c1.236-1.379,2.539-1.49,3.491-1.29c0.748,0.157,1.486,0.584,2.048,1.056c0.559-0.473,1.291-0.899,2.037-1.059c0.947-0.204,2.248-0.098,3.481,1.278c0.295-0.227,0.645-0.406,1.042-0.476c0.573-0.101,1.359,0.002,2.183,0.829c0.438-0.373,1.009-0.683,1.677-0.688c0.007-0.001,0.013-0.001,0.019-0.001c0.726,0,1.38,0.339,1.956,1.01c0.471-0.251,1.025-0.371,1.6-0.312c1.067,0.109,1.868,0.839,2.04,1.856c0.092,0.545-0.275,1.061-0.82,1.152c-0.547,0.083-1.062-0.276-1.152-0.82c-0.012-0.073-0.029-0.174-0.272-0.199c-0.277-0.02-0.586,0.103-0.652,0.274c-0.172,0.44-0.625,0.71-1.094,0.623c-0.404-0.065-0.721-0.37-0.812-0.758c-0.372-0.646-0.67-0.825-0.793-0.826H26.39c-0.242,0-0.649,0.425-0.804,0.682c-0.075,0.177-0.201,0.333-0.373,0.446c-0.45,0.294-1.054,0.181-1.364-0.26c-0.014-0.02-0.026-0.039-0.039-0.06l0,0c-0.488-0.807-0.838-0.98-0.936-0.98c-0.001,0-0.002,0-0.003,0c-0.145,0.005-0.415,0.301-0.526,0.5c-0.051,0.128-0.128,0.246-0.231,0.346c-0.334,0.324-0.845,0.375-1.235,0.124c-0.134-0.085-0.241-0.198-0.319-0.329l0,0c-0.575-0.962-1.179-1.463-1.796-1.489c-0.018,0-0.035-0.001-0.053-0.001c-0.854,0-1.693,0.853-1.884,1.09c-0.098,0.172-0.245,0.315-0.43,0.406c-0.274,0.135-0.594,0.137-0.87,0.006c-0.189-0.09-0.342-0.235-0.44-0.41c-0.196-0.242-1.066-1.134-1.948-1.085c-0.624,0.027-1.232,0.53-1.811,1.497l-0.001-0.001c-0.068,0.115-0.16,0.218-0.273,0.299c-0.384,0.275-0.91,0.246-1.261-0.075c-0.112-0.104-0.197-0.229-0.251-0.363c-0.113-0.202-0.38-0.491-0.529-0.497c-0.105-0.038-0.453,0.167-0.951,0.986l0,0c-0.016,0.025-0.031,0.051-0.05,0.074c-0.316,0.432-0.915,0.537-1.361,0.238c-0.169-0.113-0.292-0.27-0.365-0.444c-0.142-0.236-0.508-0.627-0.725-0.627l0,0c-0.121,0.001-0.463,0.211-0.886,1.003c-0.182,0.34-0.521,0.554-0.931,0.527c-0.386-0.02-0.727-0.259-0.875-0.616c-0.075-0.18-0.349-0.271-0.554-0.248c-0.271,0.027-0.303,0.188-0.319,0.273C1.903,13.185,1.484,13.517,1.015,13.517z M14.985,11.03l0.003,0.001L14.985,11.03z"/><rect x="3.028" y="12.167" transform="matrix(0.9911 -0.1328 0.1328 0.9911 -1.8544 0.6611)" width="2" height="4.124"/><rect x="6.448" y="11.714" transform="matrix(0.9939 -0.1102 0.1102 0.9939 -1.5192 0.907)" width="2" height="4.973"/><rect x="25.977" y="13.256" transform="matrix(0.0615 -0.9981 0.9981 0.0615 12.0734 41.3526)" width="4.101" height="2"/><rect x="22.215" y="13.344" transform="matrix(0.0391 -0.9992 0.9992 0.0391 9.2802 38.337)" width="4.717" height="2"/><path d="M10.119,16.703c-0.031-0.265-0.085-0.637-0.146-1.064c-0.195-1.359-0.463-3.221-0.434-4.303l2,0.055c-0.025,0.911,0.238,2.748,0.413,3.964c0.064,0.446,0.12,0.834,0.153,1.11L10.119,16.703z"/><rect x="14.956" y="10.863" width="2" height="5.536"/><path d="M21.765,16.78l-1.961-0.393c0.458-2.287,0.661-4.04,0.571-4.934l1.99-0.199C22.477,12.373,22.274,14.231,21.765,16.78z"/><path d="M14.159,23.498c-0.163,0-0.312-0.016-0.446-0.04c-0.688-0.123-1.29-0.515-1.802-1.169c-0.28,0.119-0.579,0.184-0.882,0.188c-0.695,0.021-1.419-0.298-2.102-0.917c-0.335,0.145-0.758,0.255-1.249,0.217c-0.603-0.041-1.173-0.282-1.706-0.718c-0.331,0.178-0.704,0.257-1.107,0.228c-0.945-0.068-1.926-0.777-2.232-1.614c-0.189-0.519,0.077-1.093,0.596-1.283c0.516-0.188,1.087,0.074,1.28,0.588c0.076,0.147,0.407,0.337,0.532,0.313c-0.001,0,0.029-0.023,0.071-0.102c0.16-0.296,0.461-0.497,0.797-0.526c0.335-0.033,0.666,0.107,0.874,0.372c0.363,0.461,0.729,0.727,1.033,0.747c0.288,0.028,0.569-0.22,0.572-0.223c0.2-0.192,0.471-0.299,0.751-0.279c0.277,0.016,0.537,0.145,0.715,0.358c0.644,0.775,1.034,0.839,1.145,0.839c0.001,0,0.002,0,0.004,0c0.182-0.002,0.332-0.169,0.389-0.24c0.072-0.092,0.172-0.186,0.271-0.247c0.241-0.148,0.532-0.188,0.804-0.11c0.272,0.079,0.498,0.269,0.621,0.522c0.314,0.646,0.662,1.031,0.978,1.088c0.137,0.024,0.532,0.02,1.156-0.577c0.186-0.178,0.479-0.319,0.737-0.319c0.248,0,0.528,0.128,0.713,0.294c0.569,0.514,0.949,0.536,1.127,0.503c0.348-0.065,0.726-0.474,1.065-1.149c0.129-0.256,0.36-0.444,0.638-0.518c0.273-0.075,0.571-0.024,0.811,0.135c0.104,0.069,0.207,0.175,0.279,0.278c0.045,0.065,0.206,0.278,0.389,0.287c0.182,0.014,0.598-0.194,1.113-0.799c0.354-0.418,0.979-0.471,1.401-0.12c0.073,0.068,0.336,0.303,0.602,0.271c0.309-0.018,0.688-0.286,1.067-0.756c0.266-0.329,0.71-0.456,1.105-0.315c0.249,0.087,0.499,0.283,0.615,0.521c0.118,0.04,0.639-0.272,0.83-0.74c0.211-0.511,0.795-0.751,1.306-0.544c0.511,0.21,0.754,0.795,0.544,1.306c-0.457,1.108-1.592,1.97-2.641,2.004c-0.333,0.01-0.669-0.062-0.954-0.21c-0.553,0.451-1.142,0.696-1.758,0.732c-0.472,0.024-0.883-0.077-1.211-0.221c-0.694,0.611-1.382,0.909-2.12,0.868c-0.31-0.015-0.611-0.095-0.893-0.232c-0.522,0.646-1.132,1.038-1.82,1.168c-0.535,0.101-1.306,0.073-2.188-0.487C15.282,23.352,14.658,23.498,14.159,23.498z"/><path d="M15.959,22.592c-0.552,0-1-0.447-1-0.999l-0.002-3.954c0-0.553,0.447-1.001,0.999-1.001h0.001c0.552,0,1,0.447,1,0.999l0.002,3.954C16.959,22.144,16.512,22.592,15.959,22.592L15.959,22.592z"/><path d="M19.759,21.689c-0.016,0-0.031,0-0.047-0.001c-0.552-0.025-0.979-0.493-0.953-1.045l0.157-3.362c0.026-0.552,0.495-0.992,1.046-0.952c0.552,0.026,0.978,0.494,0.952,1.046l-0.157,3.36C20.732,21.271,20.29,21.689,19.759,21.689z"/><path d="M22.855,21.272c-0.029,0-0.059-0.001-0.088-0.004c-0.55-0.048-0.957-0.532-0.909-1.083l0.273-3.16c0.047-0.551,0.519-0.972,1.082-0.91c0.551,0.047,0.958,0.532,0.91,1.082l-0.273,3.162C23.806,20.88,23.369,21.272,22.855,21.272z"/><path d="M25.987,20.664c-0.042,0-0.085-0.003-0.128-0.008c-0.548-0.07-0.935-0.571-0.865-1.119l0.325-2.517c0.071-0.548,0.567-0.937,1.12-0.862c0.548,0.07,0.934,0.572,0.862,1.12l-0.323,2.513C26.914,20.296,26.483,20.664,25.987,20.664z"/><path d="M12.188,21.84c-0.53,0-0.973-0.417-0.998-0.953l-0.179-3.776c-0.026-0.551,0.4-1.02,0.952-1.046c0.505-0.041,1.02,0.398,1.046,0.952l0.179,3.776c0.026,0.552-0.4,1.02-0.952,1.046C12.221,21.84,12.204,21.84,12.188,21.84z"/><path d="M9.084,21.276c-0.514,0-0.95-0.393-0.995-0.913l-0.251-2.894c-0.048-0.55,0.36-1.035,0.91-1.082c0.559-0.062,1.034,0.359,1.082,0.91l0.251,2.892c0.048,0.551-0.359,1.035-0.909,1.083C9.143,21.275,9.113,21.276,9.084,21.276z"/><path d="M5.992,20.663c-0.495,0-0.926-0.368-0.991-0.872l-0.37-2.872c-0.07-0.548,0.316-1.049,0.864-1.12c0.555-0.062,1.05,0.316,1.12,0.864l0.37,2.872c0.07,0.548-0.316,1.049-0.864,1.12C6.078,20.66,6.034,20.663,5.992,20.663z"/></svg>