<svg xmlns="http://www.w3.org/2000/svg" viewBox="0 0 32 32"><!--! Font Icona - https://fonticona.com | License - https://fonticona.com/license | Copyright 2022 FontIcona.com --><path d="M16,32C7.178,32,0,24.822,0,16S7.178,0,16,0s16,7.178,16,16S24.822,32,16,32z M16,2C8.28,2,2,8.28,2,16s6.28,14,14,14s14-6.28,14-14S23.72,2,16,2z"/><path d="M21.289,25.27c-0.302,0-0.607-0.095-0.888-0.28l-6.109-4.073c-0.401-0.268-0.674-0.69-0.75-1.159c-0.077-0.469,0.049-0.957,0.345-1.338l0.649-0.833l-1.23,0.594c-0.576,0.277-1.451,0.398-2.083,0.288l-4.919-0.876C5.33,17.42,5.177,16.74,5.153,16.535s-0.031-0.902,0.878-1.293l17.272-7.45c0.528-0.228,1.084-0.176,1.484,0.141c0.401,0.316,0.581,0.844,0.482,1.411L22.726,23.99c-0.095,0.542-0.415,0.967-0.877,1.165C21.669,25.232,21.48,25.27,21.289,25.27z M15.646,19.415l5.238,3.492l2.233-12.857L9.163,16.069l2.407,0.429c0.214,0.037,0.669-0.024,0.866-0.12l4.378-2.115c0.909-0.439,1.401,0.003,1.57,0.213s0.497,0.784-0.122,1.579L15.646,19.415z"/></svg>