<svg xmlns="http://www.w3.org/2000/svg" viewBox="0 0 32 32"><!--! Font Icona - https://fonticona.com | License - https://fonticona.com/license | Copyright 2022 FontIcona.com --><path d="M16.526,32c-4.088,0-7.414-3.326-7.414-7.414c0-2.502,1.226-4.75,3.31-6.122V4.104C12.422,1.841,14.263,0,16.526,0s4.104,1.841,4.104,4.104v14.353c2.056,1.365,3.31,3.663,3.31,6.13C23.939,28.674,20.614,32,16.526,32z M16.526,2c-1.16,0-2.104,0.943-2.104,2.104v15.512l-0.515,0.286c-1.75,0.97-2.795,2.721-2.795,4.685c0,2.985,2.429,5.414,5.414,5.414s5.414-2.429,5.414-5.414c0-1.969-1.045-3.724-2.795-4.693l-0.515-0.286V4.104C18.629,2.944,17.686,2,16.526,2z"/><path d="M12.991,4.804H9.061c-0.552,0-1-0.447-1-1s0.448-1,1-1h3.931c0.552,0,1,0.447,1,1S13.543,4.804,12.991,4.804z"/><path d="M12.991,8.202h-2.044c-0.552,0-1-0.447-1-1s0.448-1,1-1h2.044c0.552,0,1,0.447,1,1S13.543,8.202,12.991,8.202z"/><path d="M12.991,11.602H9.061c-0.552,0-1-0.447-1-1s0.448-1,1-1h3.931c0.552,0,1,0.447,1,1S13.543,11.602,12.991,11.602z"/><path d="M12.991,15.001h-2.044c-0.552,0-1-0.447-1-1s0.448-1,1-1h2.044c0.552,0,1,0.447,1,1S13.543,15.001,12.991,15.001z"/><path d="M12.991,18.4H9.061c-0.552,0-1-0.447-1-1s0.448-1,1-1h3.931c0.552,0,1,0.447,1,1S13.543,18.4,12.991,18.4z"/><path d="M16.526,29.209c-2.513,0-4.558-2.045-4.558-4.558s2.044-4.558,4.558-4.558s4.558,2.045,4.558,4.558S19.039,29.209,16.526,29.209z M16.526,22.094c-1.41,0-2.558,1.147-2.558,2.558s1.147,2.558,2.558,2.558s2.558-1.147,2.558-2.558S17.936,22.094,16.526,22.094z"/><path d="M16.526,22.094c-0.552,0-1-0.447-1-1V9.986c0-0.553,0.448-1,1-1s1,0.447,1,1v11.108C17.526,21.647,17.078,22.094,16.526,22.094z"/></svg>