<svg xmlns="http://www.w3.org/2000/svg" viewBox="0 0 32 32"><!--! Font Icona - https://fonticona.com | License - https://fonticona.com/license | Copyright 2022 FontIcona.com --><path d="M22.594,29.637c-0.305,0-0.606-0.139-0.803-0.401c-0.331-0.443-0.24-1.07,0.203-1.401c2.065-1.544,2.428-4.729,2.432-4.761l0.313-2.933l1.536,2.516c0.47,0.771,0.828,1.262,1.088,1.574c-0.375-4.064-3.198-10.12-3.228-10.182l-0.108-0.233l0.016-0.256c0.265-4.123-0.54-7.214-2.391-9.188C19.588,2.172,16.806,2,16.002,2s-3.585,0.171-5.649,2.372C8.501,6.346,7.696,9.437,7.961,13.56l0.016,0.256l-0.108,0.233c-0.029,0.062-2.854,6.12-3.229,10.257c0.271-0.348,0.633-0.868,1.103-1.646l1.338-2.213l0.501,2.539c0.006,0.03,0.61,3.003,2.573,4.907c0.397,0.384,0.407,1.018,0.022,1.415c-0.386,0.397-1.019,0.406-1.415,0.022c-1.229-1.192-2.014-2.67-2.491-3.857c-0.86,1.114-1.679,1.692-2.525,1.428c-1.129-0.353-1.163-1.814-1.126-2.427c0.261-4.096,2.767-9.802,3.33-11.041c-0.249-4.572,0.74-8.081,2.944-10.43C11.507,0.216,14.995,0,16.002,0s4.495,0.216,7.11,3.004c2.203,2.35,3.193,5.858,2.943,10.43c0.563,1.239,3.069,6.944,3.33,11.039c-0.007,0.944-0.339,1.962-1.243,2.211c-0.724,0.198-1.434-0.133-2.274-1.121c-0.451,1.276-1.258,2.816-2.677,3.877C23.012,29.573,22.802,29.637,22.594,29.637z"/><path d="M23.78,32l-5.375-0.284c-1.582-0.084-3.188-0.083-4.771,0l-5.345,0.283c-0.833-0.008-2.432-0.028-2.67-1.241c-0.087-0.445-0.291-1.487,3.448-3.068c0.509-0.216,1.096,0.023,1.311,0.531c0.216,0.509-0.022,1.096-0.531,1.312c-0.312,0.133-0.63,0.281-0.927,0.431l4.608-0.246c1.655-0.088,3.331-0.088,4.982,0l4.632,0.246c-0.295-0.152-0.61-0.302-0.917-0.434c-0.508-0.218-0.743-0.806-0.525-1.314c0.218-0.507,0.803-0.743,1.314-0.525c3.679,1.577,3.472,2.619,3.383,3.063C26.156,31.971,24.551,31.991,23.78,32z M24.507,30.838h0.01H24.507z"/><path d="M16.003,15.689c-3.12,0-6.239-0.364-9.271-1.092l0.467-1.946c5.759,1.383,11.848,1.383,17.608,0l0.467,1.946C22.241,15.325,19.122,15.689,16.003,15.689z"/><path d="M15.463,23.788H9.348v-5.006c-1.354-0.186-2.709-0.43-4.037-0.727l0.438-1.953c1.55,0.347,3.138,0.618,4.719,0.805l0.883,0.105v4.774h2.111v-4.584l1.034,0.009c3.956,0.128,7.93-0.245,11.797-1.109l0.436,1.953c-3.695,0.826-7.498,1.228-11.265,1.179V23.788z"/><circle cx="13.154" cy="6.465" r="1.251"/><path d="M17.516,7.661c-0.265,0-0.529-0.104-0.727-0.312c-0.38-0.401-0.362-1.035,0.038-1.415c1.077-1.018,2.403-1.222,3.734-0.568c0.496,0.244,0.701,0.843,0.458,1.339c-0.242,0.495-0.842,0.702-1.339,0.458c-0.589-0.288-1.003-0.225-1.477,0.224C18.011,7.57,17.763,7.661,17.516,7.661z"/><path d="M10.981,10.543c0,0,2.637,1.523,4.997,1.523c2.518,0,5.045-1.523,5.045-1.523c-1.729-0.871-5.061-0.861-5.061-0.861h0.08C16.042,9.682,13.021,9.578,10.981,10.543"/><path d="M15.978,13.066c-2.597,0-5.379-1.589-5.496-1.657c-0.322-0.186-0.515-0.536-0.5-0.908c0.016-0.372,0.235-0.704,0.572-0.863c2.195-1.04,5.28-0.963,5.514-0.957c0.679,0.005,3.642,0.079,5.405,0.968c0.325,0.164,0.536,0.492,0.55,0.855c0.014,0.364-0.172,0.707-0.483,0.895C21.426,11.468,18.742,13.066,15.978,13.066z M14.12,10.772c1.227,0.349,2.555,0.336,3.722,0.02c-0.78-0.084-1.46-0.098-1.877-0.109v-0.001C15.778,10.678,15.029,10.671,14.12,10.772z"/></svg>