<svg xmlns="http://www.w3.org/2000/svg" viewBox="0 0 32 32"><!--! Font Icona - https://fonticona.com | License - https://fonticona.com/license | Copyright 2022 FontIcona.com --><path d="M16.479,14.675c-2.215,0-4.018-1.803-4.018-4.018s1.803-4.017,4.018-4.017s4.018,1.802,4.018,4.017S18.694,14.675,16.479,14.675z M16.479,8.641c-1.112,0-2.018,0.904-2.018,2.017s0.905,2.018,2.018,2.018s2.018-0.905,2.018-2.018S17.592,8.641,16.479,8.641z"/><path d="M16.479,21.315c-1.572,0-3.088-0.336-4.505-0.997c-0.501-0.233-0.717-0.829-0.483-1.329c0.234-0.501,0.83-0.716,1.329-0.483c1.15,0.537,2.382,0.81,3.659,0.81c4.773,0,8.657-3.884,8.657-8.658C25.137,5.884,21.253,2,16.479,2s-8.657,3.884-8.657,8.657c0,1.192,0.237,2.347,0.705,3.431c0.219,0.507-0.015,1.096-0.521,1.314c-0.51,0.218-1.097-0.016-1.314-0.521c-0.577-1.336-0.869-2.757-0.869-4.224C5.822,4.781,10.604,0,16.479,0s10.657,4.781,10.657,10.657C27.137,16.534,22.355,21.315,16.479,21.315z"/><path d="M5.863,32c-0.006,0-0.011,0-0.017,0c-0.553-0.01-0.992-0.465-0.983-1.017c0.211-12.521,7.684-18.578,8.001-18.83c0.437-0.343,1.063-0.268,1.405,0.163c0.342,0.433,0.27,1.061-0.162,1.403l0,0c-0.07,0.057-7.05,5.765-7.244,17.297C6.854,31.563,6.408,32,5.863,32z"/></svg>