<svg xmlns="http://www.w3.org/2000/svg" viewBox="0 0 32 32"><!--! Font Icona - https://fonticona.com | License - https://fonticona.com/license | Copyright 2022 FontIcona.com --><path d="M28.5,6.224h-25c-0.553,0-1-0.447-1-1s0.447-1,1-1h25c0.553,0,1,0.447,1,1S29.053,6.224,28.5,6.224z"/><path d="M28.5,2h-25c-0.553,0-1-0.447-1-1s0.447-1,1-1h25c0.553,0,1,0.447,1,1S29.053,2,28.5,2z"/><path d="M16,32c-0.553,0-1-0.447-1-1V5.224c0-0.553,0.447-1,1-1s1,0.447,1,1V31C17,31.553,16.553,32,16,32z"/><path d="M19.051,32h-6.102c-0.553,0-1-0.447-1-1s0.447-1,1-1h6.102c0.553,0,1,0.447,1,1S19.604,32,19.051,32z"/></svg>