<svg xmlns="http://www.w3.org/2000/svg" viewBox="0 0 32 32"><!--! Font Icona - https://fonticona.com | License - https://fonticona.com/license | Copyright 2022 FontIcona.com --><path d="M15.943,31.981c-4.259,0-8.263-1.663-11.274-4.685c-6.215-6.233-6.215-16.377,0-22.612C7.681,1.664,11.685,0,15.943,0s8.263,1.664,11.274,4.685l0,0c6.215,6.235,6.215,16.379,0,22.612C24.206,30.318,20.202,31.981,15.943,31.981z M15.943,2C12.22,2,8.719,3.455,6.085,6.097c-5.438,5.456-5.438,14.333,0,19.788c2.634,2.642,6.135,4.097,9.858,4.097s7.225-1.455,9.858-4.097c5.438-5.455,5.438-14.332,0-19.788C23.168,3.455,19.667,2,15.943,2z"/><path d="M15.107,31.104C13.656,17.226,1.757,17.055,1.21,17.055c-0.001,0-0.002,0-0.003,0l-0.008-2H1.2c0.22,0,14.256,0.153,15.896,15.842L15.107,31.104z"/><path d="M31.004,17.054c-0.22,0-14.256-0.152-15.896-15.841l1.988-0.208c1.451,13.878,13.351,14.049,13.897,14.049c0.001,0,0.002,0,0.003,0L31.004,17.054L31.004,17.054z"/></svg>