<svg xmlns="http://www.w3.org/2000/svg" viewBox="0 0 32 32"><!--! Font Icona - https://fonticona.com | License - https://fonticona.com/license | Copyright 2022 FontIcona.com --><path d="M23.533,32c-0.341,0-0.673-0.174-0.86-0.488L16,20.308L9.327,31.512c-0.283,0.474-0.897,0.63-1.371,0.348c-0.475-0.283-0.63-0.896-0.348-1.371l7.532-12.646c0.361-0.605,1.357-0.605,1.719,0l7.532,12.646c0.282,0.475,0.127,1.088-0.348,1.371C23.884,31.955,23.707,32,23.533,32z"/><path d="M27.48,32H4.52c-1.093,0-2.068-0.567-2.608-1.518c-0.54-0.95-0.528-2.078,0.03-3.017L14.836,5.815l-2.563-4.304c-0.282-0.475-0.127-1.088,0.348-1.371c0.475-0.282,1.088-0.127,1.371,0.348L16,3.861l2.009-3.373c0.283-0.475,0.897-0.629,1.371-0.348c0.475,0.283,0.63,0.896,0.348,1.371l-2.563,4.304l12.895,21.649c0.559,0.939,0.57,2.067,0.03,3.017C29.549,31.433,28.573,32,27.48,32z M16,7.77L3.66,28.488c-0.269,0.451-0.097,0.854-0.011,1.005C3.736,29.646,3.994,30,4.52,30H27.48c0.525,0,0.783-0.354,0.87-0.506c0.086-0.152,0.258-0.554-0.011-1.005L16,7.77z"/><path d="M16,19.354c-0.553,0-1-0.448-1-1V5.816c0-0.552,0.447-1,1-1s1,0.448,1,1v12.538C17,18.906,16.553,19.354,16,19.354z"/></svg>