<svg xmlns="http://www.w3.org/2000/svg" viewBox="0 0 32 32"><!--! Font Icona - https://fonticona.com | License - https://fonticona.com/license | Copyright 2022 FontIcona.com --><path d="M29,32H3c-1.654,0-3-1.346-3-3V3c0-1.654,1.346-3,3-3h26c1.654,0,3,1.346,3,3v26C32,30.654,30.654,32,29,32z M3,2C2.449,2,2,2.449,2,3v26c0,0.552,0.449,1,1,1h26c0.551,0,1-0.448,1-1V3c0-0.551-0.449-1-1-1H3z"/><path d="M5.294,12.721c-0.349,0-0.687-0.182-0.871-0.507c-0.272-0.48-0.103-1.091,0.377-1.363l4.735-2.682L4.801,5.488C4.32,5.216,4.151,4.605,4.423,4.125c0.272-0.48,0.883-0.65,1.363-0.377l6.272,3.551c0.313,0.177,0.507,0.51,0.507,0.87s-0.194,0.693-0.507,0.87l-6.272,3.552C5.63,12.679,5.461,12.721,5.294,12.721z"/><path d="M21.455,12.721H14.47c-0.552,0-1-0.448-1-1s0.448-1,1-1h6.985c0.552,0,1,0.448,1,1S22.007,12.721,21.455,12.721z"/></svg>