<svg xmlns="http://www.w3.org/2000/svg" viewBox="0 0 32 32"><!--! Font Icona - https://fonticona.com | License - https://fonticona.com/license | Copyright 2022 FontIcona.com --><path d="M22.411,25.589c-5.288,0-9.589-4.302-9.589-9.589c0-5.288,4.302-9.589,9.589-9.589S32,10.712,32,16C32,21.287,27.698,25.589,22.411,25.589z M22.411,8.411c-4.185,0-7.589,3.405-7.589,7.589s3.405,7.589,7.589,7.589S30,20.185,30,16S26.595,8.411,22.411,8.411z"/><path d="M13.821,17H8.542c-0.552,0-1-0.448-1-1s0.448-1,1-1h5.279c0.552,0,1,0.448,1,1S14.374,17,13.821,17z"/><path d="M1,20.592c-0.186,0-0.372-0.052-0.534-0.154C0.176,20.254,0,19.935,0,19.592v-7.184c0-0.343,0.176-0.663,0.466-0.846c0.29-0.183,0.654-0.204,0.964-0.057l7.542,3.592c0.348,0.166,0.57,0.517,0.57,0.903s-0.222,0.737-0.57,0.903L1.43,20.495C1.293,20.56,1.146,20.592,1,20.592z M2,13.992v4.016L6.216,16L2,13.992z"/></svg>