<svg xmlns="http://www.w3.org/2000/svg" viewBox="0 0 32 32"><!--! Font Icona - https://fonticona.com | License - https://fonticona.com/license | Copyright 2022 FontIcona.com --><path d="M18.157,23.32c-7.633,0-13.843-5.073-13.843-11.309s6.21-11.309,13.843-11.309C25.79,0.702,32,5.775,32,12.011S25.79,23.32,18.157,23.32z M18.157,2.741c-6.509,0-11.804,4.158-11.804,9.27s5.295,9.27,11.804,9.27c6.509,0,11.804-4.158,11.804-9.27S24.666,2.741,18.157,2.741z"/><path d="M7.239,28.355c-2.13,0-3.863-1.411-3.863-3.146s1.733-3.147,3.863-3.147s3.863,1.412,3.863,3.147S9.369,28.355,7.239,28.355z M7.239,23.795c-1.155,0-2.13,0.648-2.13,1.415s0.975,1.414,2.13,1.414s2.13-0.647,2.13-1.414S8.394,23.795,7.239,23.795z"/><path d="M2.012,31.298C0.902,31.298,0,30.535,0,29.597c0-0.938,0.902-1.7,2.012-1.7s2.012,0.763,2.012,1.7C4.024,30.535,3.121,31.298,2.012,31.298z M2.012,28.916c-0.538,0-0.993,0.312-0.993,0.681c0,0.369,0.454,0.682,0.993,0.682s0.993-0.313,0.993-0.682C3.005,29.227,2.55,28.916,2.012,28.916z"/><circle cx="11.734" cy="12.011" r="1.597"/><circle cx="18.157" cy="12.011" r="1.597"/><circle cx="24.58" cy="12.011" r="1.597"/></svg>