<svg xmlns="http://www.w3.org/2000/svg" viewBox="0 0 32 32"><!--! Font Icona - https://fonticona.com | License - https://fonticona.com/license | Copyright 2022 FontIcona.com --><path d="M21.074,27.401c-0.265,0-0.519-0.104-0.707-0.293l-7.738-7.737l0,0l-7.737-7.738c-0.203-0.203-0.309-0.483-0.291-0.77s0.157-0.551,0.384-0.727c3.238-2.52,8.188-1.685,9.883-1.296l4.175-4.175c-0.296-1.146-0.223-2.149,0.222-2.989c0.664-1.257,1.889-1.608,2.026-1.645c0.346-0.089,0.71,0.009,0.96,0.261l9.457,9.457c0.251,0.251,0.351,0.616,0.261,0.96c-0.036,0.138-0.388,1.362-1.645,2.026c-0.84,0.445-1.844,0.518-2.989,0.222l-4.175,4.175c0.388,1.695,1.223,6.645-1.296,9.883c-0.176,0.227-0.44,0.366-0.727,0.384C21.115,27.4,21.095,27.401,21.074,27.401z M14.043,17.957l6.845,6.844c1.484-3.137,0.217-7.646,0.202-7.696c-0.101-0.35-0.004-0.728,0.254-0.984l5.002-5.002c0.273-0.273,0.682-0.367,1.043-0.234c0.582,0.206,1.396,0.392,1.981,0.094c0.175-0.089,0.309-0.209,0.408-0.328l-8.428-8.428c-0.119,0.1-0.239,0.233-0.328,0.408c-0.298,0.587-0.113,1.401,0.094,1.981c0.13,0.363,0.039,0.77-0.234,1.043l-5.002,5.002c-0.257,0.257-0.634,0.355-0.984,0.254c-0.052-0.016-4.561-1.282-7.696,0.202L14.043,17.957z"/><path d="M1,32c-0.256,0-0.512-0.098-0.707-0.293c-0.391-0.391-0.391-1.023,0-1.414l12.336-12.336c0.391-0.391,1.023-0.391,1.414,0s0.391,1.023,0,1.414L1.707,31.707C1.512,31.902,1.256,32,1,32z"/></svg>