<svg xmlns="http://www.w3.org/2000/svg" viewBox="0 0 32 32"><!--! Font Icona - https://fonticona.com | License - https://fonticona.com/license | Copyright 2022 FontIcona.com --><path d="M22.991,29.833c-0.137,0-0.274-0.002-0.414-0.007c-2.474-0.028-4.99-0.244-7.455-0.643c-0.851-0.15-1.698-0.398-2.517-0.64c-1.418-0.416-2.886-0.851-4.21-0.712c-0.558,0.051-1.039-0.345-1.096-0.894c-0.055-0.55,0.345-1.04,0.894-1.096c1.716-0.173,3.371,0.313,4.974,0.783c0.803,0.235,1.56,0.458,2.288,0.587c2.353,0.38,4.768,0.588,7.166,0.615c3.433,0.107,5.627-1.334,6.518-4.295c0.735-2.352,1.285-5.916,0.427-8.246c-0.257-0.704-0.896-1.486-1.404-1.486c-0.378,0-0.891,0.068-1.434,0.141c-0.622,0.083-1.266,0.169-1.841,0.169c-0.323,0-0.627-0.156-0.814-0.42c-0.187-0.263-0.236-0.601-0.131-0.907c0.058-0.166,0.256-0.615,0.47-1.092c0.173-0.387,0.464-1.035,0.512-1.185c0.208-0.715,0.392-1.267,0.563-1.786c0.253-0.761,0.471-1.418,0.718-2.445c0.319-1.218-0.061-2.474-0.986-3.297c-0.29-0.269-0.646-0.413-1.022-0.422c-0.042,0.071-0.122,0.263-0.181,0.75c-0.002,0.178-0.017,0.451-0.153,0.742c-1.125,3.855-4.015,7.033-7.752,8.515c-0.399,0.183-0.963,0.291-1.677,0.427c-1.527,0.292-3.835,0.733-6.159,2.469c-0.443,0.331-1.07,0.24-1.4-0.203c-0.331-0.443-0.24-1.069,0.203-1.4c2.693-2.012,5.274-2.505,6.981-2.831c0.536-0.103,1.043-0.199,1.269-0.302c3.24-1.286,5.705-4.016,6.64-7.321c0.013-0.046,0.028-0.09,0.048-0.133c0.001-0.048,0.004-0.109,0.006-0.135c0.184-1.617,0.851-2.483,1.984-2.574c0.979-0.038,1.875,0.306,2.556,0.936c1.476,1.312,2.088,3.335,1.583,5.266c-0.263,1.089-0.504,1.817-0.76,2.587c-0.166,0.499-0.342,1.028-0.543,1.718c-0.048,0.166-0.158,0.432-0.359,0.888c0.603-0.081,1.173-0.156,1.679-0.156c1.553,0,2.79,1.45,3.282,2.797c1.029,2.797,0.473,6.753-0.393,9.521C29.94,27.812,27.083,29.833,22.991,29.833z"/><path d="M10.103,31.442H1c-0.552,0-1-0.447-1-1V10.32c0-0.552,0.448-1,1-1h9.168c0.402,0,0.766,0.241,0.922,0.612c0.156,0.371,0.074,0.8-0.208,1.087c-0.28,0.291-6.844,7.304,0.08,18.91c0.184,0.31,0.188,0.693,0.011,1.007C10.795,31.249,10.463,31.442,10.103,31.442z M2,29.442h6.401c-3.136-6.038-2.862-10.897-2.018-13.997c0.479-1.758,1.182-3.146,1.794-4.125H2V29.442z"/><circle cx="4.792" cy="26.837" r="1.25"/></svg>