<svg xmlns="http://www.w3.org/2000/svg" viewBox="0 0 32 32"><!--! Font Icona - https://fonticona.com | License - https://fonticona.com/license | Copyright 2022 FontIcona.com --><path d="M24.15,31.465c-0.018,0-0.036,0-0.054,0c-1.743-0.138-1.974-1.968-2.049-2.569c-0.005-0.042-0.008-0.083-0.008-0.125l-0.061-0.205c-0.925-3.263-3.395-5.997-6.594-7.265c-0.27-0.122-0.784-0.216-1.328-0.314c-1.725-0.314-4.331-0.789-6.99-2.807c-0.44-0.334-0.526-0.961-0.192-1.402c0.335-0.44,0.962-0.525,1.402-0.192c2.279,1.729,4.51,2.136,6.14,2.433c0.728,0.133,1.302,0.237,1.753,0.442c3.729,1.477,6.642,4.702,7.748,8.609l0.034,0.132c0.033,0.126,0.078,0.293,0.088,0.489c0.064,0.494,0.139,0.692,0.185,0.773c0.364-0.018,0.709-0.16,0.979-0.409c0.941-0.837,1.321-2.096,1.006-3.296c-0.271-1.053-0.486-1.72-0.736-2.493c-0.167-0.515-0.344-1.06-0.551-1.765c-0.048-0.148-0.336-0.793-0.509-1.178c-0.216-0.482-0.416-0.938-0.474-1.105c-0.105-0.306-0.057-0.644,0.132-0.906c0.188-0.263,0.49-0.419,0.814-0.419c0.576,0,1.22,0.086,1.843,0.17c0.544,0.073,1.057,0.142,1.436,0.142c0.51,0,1.151-0.783,1.406-1.486c0.843-2.289,0.32-5.884-0.384-8.267c-0.891-2.96-3.082-4.403-6.509-4.298c-2.424,0.028-4.842,0.236-7.211,0.62c-0.713,0.126-1.474,0.348-2.28,0.583C11.569,5.828,9.899,6.315,8.18,6.142c-0.549-0.056-0.95-0.546-0.895-1.096C7.341,4.497,7.83,4.099,8.382,4.151c1.326,0.131,2.81-0.298,4.242-0.715c0.821-0.24,1.671-0.488,2.507-0.635c2.479-0.401,4.998-0.619,7.501-0.648c4.307-0.13,7.317,1.895,8.47,5.727c0.829,2.81,1.355,6.784,0.345,9.527c-0.49,1.346-1.729,2.798-3.285,2.798c-0.507,0-1.078-0.076-1.683-0.157c0.202,0.459,0.313,0.727,0.361,0.894c0.199,0.679,0.371,1.208,0.533,1.708c0.25,0.771,0.485,1.498,0.771,2.606c0.505,1.927-0.107,3.953-1.6,5.282C25.896,31.133,25.045,31.465,24.15,31.465z"/><path d="M10.171,22.689H1c-0.552,0-1-0.447-1-1V1.535c0-0.552,0.448-1,1-1h9.107c0.36,0,0.693,0.194,0.871,0.508c0.177,0.314,0.172,0.698-0.014,1.007c-6.983,11.622-0.364,18.646-0.079,18.94c0.28,0.288,0.362,0.717,0.206,1.087S10.573,22.689,10.171,22.689z M2,20.689h6.196c-1.801-2.9-4.406-9.349,0.202-18.154H2V20.689z"/><circle cx="4.786" cy="5.146" r="1.25"/></svg>