<svg xmlns="http://www.w3.org/2000/svg" viewBox="0 0 32 32"><!--! Font Icona - https://fonticona.com | License - https://fonticona.com/license | Copyright 2022 FontIcona.com --><path d="M21.877,9.861c-0.553,0-1-0.448-1-1V7.679c0-0.552,0.447-1,1-1s1,0.448,1,1v1.182C22.877,9.413,22.43,9.861,21.877,9.861z"/><path d="M21.877,15.014c-0.553,0-1-0.448-1-1v-1.181c0-0.552,0.447-1,1-1s1,0.448,1,1v1.181C22.877,14.566,22.43,15.014,21.877,15.014z"/><path d="M21.877,20.167c-0.553,0-1-0.447-1-1v-1.181c0-0.553,0.447-1,1-1s1,0.447,1,1v1.181C22.877,19.72,22.43,20.167,21.877,20.167z"/><path d="M21.877,25.321c-0.553,0-1-0.447-1-1v-1.183c0-0.553,0.447-1,1-1s1,0.447,1,1v1.183C22.877,24.874,22.43,25.321,21.877,25.321z"/><path d="M29,26.319H3c-1.654,0-3-1.346-3-3v-2.816c0-1.13,0.558-2.155,1.456-2.676c0.552-0.321,1.002-1.14,1.002-1.824c0-0.682-0.45-1.498-1.002-1.818C0.558,13.665,0,12.64,0,11.511V8.68c0-1.654,1.346-3,3-3h26c1.654,0,3,1.346,3,3v2.821c0,1.129-0.557,2.155-1.454,2.678c-0.553,0.323-1.004,1.141-1.004,1.823c0,0.684,0.45,1.502,1.004,1.824C31.442,18.347,32,19.373,32,20.503v2.816C32,24.974,30.654,26.319,29,26.319z M3,7.68c-0.551,0-1,0.449-1,1v2.831c0,0.412,0.18,0.782,0.458,0.943c1.177,0.683,2,2.142,2,3.548c0,1.408-0.822,2.87-1.999,3.554C2.18,19.719,2,20.09,2,20.503v2.816c0,0.552,0.449,1,1,1h26c0.552,0,1-0.448,1-1v-2.816c0-0.414-0.181-0.786-0.459-0.948c-1.178-0.684-1.999-2.145-1.999-3.553c0-1.405,0.821-2.866,1.997-3.551c0.28-0.163,0.461-0.536,0.461-0.95V8.68c0-0.551-0.448-1-1-1H3z"/></svg>