<svg xmlns="http://www.w3.org/2000/svg" viewBox="0 0 32 32"><!--! Font Icona - https://fonticona.com | License - https://fonticona.com/license | Copyright 2022 FontIcona.com --><path d="M8.966,20.37H7.323c-0.438,0-0.843-0.218-1.085-0.582c-0.227-0.341-0.279-0.765-0.145-1.148l0.745-2.622l-0.742-2.583c-0.135-0.383-0.084-0.808,0.142-1.15c0.242-0.366,0.648-0.584,1.087-0.584h1.647c0.489,0,0.96,0.23,1.26,0.615l0.855,1.336h3.648l-0.987-4.166c-0.127-0.695,0.046-1.351,0.464-1.853c0.418-0.501,1.033-0.789,1.687-0.789c0.854,0,1.632,0.49,1.996,1.248l2.935,6.127c0.238,0.498,0.027,1.095-0.471,1.334c-0.497,0.238-1.096,0.027-1.334-0.47L16.09,8.956c-0.072-0.149-0.293-0.102-0.343-0.041c-0.027,0.032-0.056,0.086-0.042,0.161l1.268,5.344c0.071,0.297,0.001,0.611-0.189,0.851c-0.189,0.24-0.479,0.38-0.784,0.38h-5.133c-0.509,0-0.993-0.246-1.293-0.658l-0.826-1.294H8.254l0.505,1.762c0.132,0.355,0.132,0.75,0.002,1.106L8.25,18.37h0.498l0.802-1.254c0.329-0.458,0.81-0.705,1.317-0.707l5.128-0.025c0.585,0.013,1.002,0.443,1.005,0.995c0.003,0.552-0.443,1.002-0.995,1.005l-4.91,0.024l-0.803,1.255C9.958,20.125,9.475,20.37,8.966,20.37z"/><path d="M23.681,18.384h-3.75c-0.553,0-1-0.447-1-1c0-0.552,0.447-1,1-1h3.75c0.164,0,0.298-0.134,0.298-0.298V15.95c0-0.165-0.134-0.298-0.298-0.298h-3.754c-0.553,0-1-0.448-1-1s0.447-1,1-1h3.754c1.267,0,2.298,1.031,2.298,2.298v0.136C25.979,17.353,24.947,18.384,23.681,18.384z"/><path d="M15.907,25.155c-0.653,0-1.263-0.282-1.682-0.778c-0.426-0.503-0.603-1.164-0.484-1.812l1.287-5.412c0.128-0.537,0.67-0.869,1.204-0.741c0.538,0.128,0.869,0.667,0.741,1.204l-1.276,5.36c-0.002,0.023,0.027,0.077,0.055,0.11c0.027,0.031,0.057,0.072,0.153,0.069c0.081-0.001,0.149-0.045,0.181-0.111l2.944-6.095c0.241-0.496,0.84-0.705,1.335-0.465c0.498,0.24,0.706,0.838,0.466,1.335l-2.943,6.095c-0.364,0.755-1.111,1.231-1.949,1.242C15.928,25.155,15.917,25.155,15.907,25.155z"/><path d="M11.085,26.319H3c-1.654,0-3-1.346-3-3v-2.816c0-1.13,0.558-2.155,1.456-2.676c0.552-0.321,1.002-1.14,1.002-1.824c0-0.682-0.45-1.498-1.002-1.818C0.558,13.665,0,12.64,0,11.511V8.68c0-1.654,1.346-3,3-3h8.085c0.552,0,1,0.448,1,1s-0.448,1-1,1H3c-0.551,0-1,0.449-1,1v2.831c0,0.412,0.18,0.782,0.458,0.943c1.177,0.683,2,2.142,2,3.548c0,1.408-0.822,2.87-1.999,3.554C2.18,19.719,2,20.09,2,20.503v2.816c0,0.552,0.449,1,1,1h8.085c0.552,0,1,0.447,1,1S11.637,26.319,11.085,26.319z"/><path d="M29,26.319h-8.09c-0.553,0-1-0.447-1-1s0.447-1,1-1H29c0.552,0,1-0.448,1-1v-2.816c0-0.414-0.181-0.786-0.459-0.948c-1.178-0.684-1.999-2.145-1.999-3.553c0-1.405,0.821-2.866,1.997-3.551c0.28-0.163,0.461-0.536,0.461-0.95V8.68c0-0.551-0.448-1-1-1h-8.09c-0.553,0-1-0.448-1-1s0.447-1,1-1H29c1.654,0,3,1.346,3,3v2.821c0,1.129-0.557,2.155-1.454,2.678c-0.553,0.323-1.004,1.141-1.004,1.823c0,0.684,0.45,1.502,1.004,1.824C31.442,18.347,32,19.373,32,20.503v2.816C32,24.974,30.654,26.319,29,26.319z"/></svg>