<svg xmlns="http://www.w3.org/2000/svg" viewBox="0 0 32 32"><!--! Font Icona - https://fonticona.com | License - https://fonticona.com/license | Copyright 2022 FontIcona.com --><path d="M12.656,22.143c-0.207,0-0.413-0.064-0.586-0.19c-0.308-0.223-0.463-0.602-0.399-0.977l0.544-3.212l-2.322-2.266c-0.272-0.266-0.371-0.663-0.253-1.025s0.431-0.625,0.807-0.681l3.22-0.468l1.432-2.909c0.168-0.342,0.515-0.558,0.896-0.559c0,0,0,0,0.001,0c0.38,0,0.728,0.215,0.896,0.556l1.441,2.911l3.222,0.469c0.377,0.055,0.69,0.319,0.808,0.682s0.019,0.76-0.254,1.025l-2.33,2.264l0.552,3.209c0.064,0.376-0.09,0.755-0.397,0.979c-0.307,0.225-0.716,0.254-1.054,0.076l-2.882-1.516l-2.874,1.516C12.976,22.104,12.815,22.143,12.656,22.143z M12.737,15.48l1.248,1.218c0.235,0.229,0.342,0.56,0.288,0.883l-0.293,1.733l1.549-0.817c0.292-0.154,0.64-0.154,0.932,0l1.554,0.816l-0.298-1.729c-0.056-0.325,0.052-0.657,0.288-0.887l1.253-1.217l-1.732-0.252c-0.325-0.047-0.607-0.251-0.752-0.546l-0.775-1.565l-0.77,1.563c-0.145,0.296-0.427,0.5-0.753,0.548L12.737,15.48z M14.331,14.238h0.01H14.331z"/><path d="M29,26.319H3c-1.654,0-3-1.346-3-3v-2.816c0-1.13,0.558-2.155,1.456-2.676c0.552-0.321,1.002-1.14,1.002-1.824c0-0.682-0.45-1.498-1.002-1.818C0.558,13.665,0,12.64,0,11.511V8.68c0-1.654,1.346-3,3-3h26c1.654,0,3,1.346,3,3v2.821c0,1.129-0.557,2.155-1.454,2.678c-0.553,0.323-1.004,1.141-1.004,1.823c0,0.684,0.45,1.502,1.004,1.824C31.442,18.347,32,19.373,32,20.503v2.816C32,24.974,30.654,26.319,29,26.319z M3,7.68c-0.551,0-1,0.449-1,1v2.831c0,0.412,0.18,0.782,0.458,0.943c1.177,0.683,2,2.142,2,3.548c0,1.408-0.822,2.87-1.999,3.554C2.18,19.719,2,20.09,2,20.503v2.816c0,0.552,0.449,1,1,1h26c0.552,0,1-0.448,1-1v-2.816c0-0.414-0.181-0.786-0.459-0.948c-1.178-0.684-1.999-2.145-1.999-3.553c0-1.405,0.821-2.866,1.997-3.551c0.28-0.163,0.461-0.536,0.461-0.95V8.68c0-0.551-0.448-1-1-1H3z"/></svg>