<svg xmlns="http://www.w3.org/2000/svg" viewBox="0 0 32 32"><!--! Font Icona - https://fonticona.com | License - https://fonticona.com/license | Copyright 2022 FontIcona.com --><path d="M1,15.422c-0.24,0-0.475-0.087-0.658-0.247C0.125,14.985,0,14.711,0,14.422V3c0-1.654,1.346-3,3-3h26c1.654,0,3,1.346,3,3v6.033c0,0.507-0.379,0.934-0.883,0.993c-6.96,0.823-14.577,4.774-14.653,4.814c-0.311,0.162-0.683,0.149-0.981-0.03C15.183,14.629,15,14.305,15,13.955v-3.551C6.398,14.66,1.356,15.383,1.135,15.413C1.09,15.419,1.045,15.422,1,15.422z M3,2C2.448,2,2,2.448,2,3v10.203c2.054-0.473,6.803-1.825,13.54-5.313c0.311-0.162,0.681-0.148,0.979,0.033S17,8.429,17,8.777v3.575c2.486-1.164,7.755-3.404,13-4.193V3c0-0.552-0.448-1-1-1H3z M31,9.033h0.01H31z"/><path d="M29,32H3c-1.654,0-3-1.346-3-3v-6.033c0-0.507,0.379-0.934,0.883-0.993c6.961-0.823,14.579-4.755,14.655-4.794c0.311-0.163,0.682-0.149,0.98,0.032C16.817,17.393,17,17.717,17,18.066v3.552c8.647-4.277,13.645-5.001,13.864-5.03c0.286-0.042,0.575,0.047,0.793,0.236C31.875,17.015,32,17.289,32,17.578V29C32,30.654,30.654,32,29,32z M2,23.841V29c0,0.552,0.448,1,1,1h26c0.552,0,1-0.448,1-1V18.799c-2.046,0.477-6.773,1.835-13.541,5.334c-0.312,0.159-0.682,0.146-0.979-0.034C15.182,23.917,15,23.593,15,23.244v-3.578C12.515,20.823,7.244,23.053,2,23.841z"/></svg>