<svg xmlns="http://www.w3.org/2000/svg" viewBox="0 0 32 32"><!--! Font Icona - https://fonticona.com | License - https://fonticona.com/license | Copyright 2022 FontIcona.com --><path d="M9.495,20c-2.206,0-4-1.794-4-4s1.794-4,4-4s4,1.794,4,4S11.701,20,9.495,20z M9.495,14c-1.103,0-2,0.897-2,2s0.897,2,2,2s2-0.897,2-2S10.598,14,9.495,14z"/><path d="M24.5,23.642h-17c-4.136,0-7.5-3.364-7.5-7.5v-0.283c0-4.136,3.364-7.5,7.5-7.5h17c4.136,0,7.5,3.364,7.5,7.5v0.283C32,20.277,28.636,23.642,24.5,23.642z M7.5,10.358c-3.032,0-5.5,2.467-5.5,5.5v0.283c0,3.033,2.468,5.5,5.5,5.5h17c3.032,0,5.5-2.467,5.5-5.5v-0.283c0-3.033-2.468-5.5-5.5-5.5H7.5z"/></svg>