<svg xmlns="http://www.w3.org/2000/svg" viewBox="0 0 32 32"><!--! Font Icona - https://fonticona.com | License - https://fonticona.com/license | Copyright 2022 FontIcona.com --><path d="M24.287,21.959c-2.722,0-4.773-3.788-4.773-8.812c0-5.023,2.052-8.812,4.773-8.812c2.721,0,4.772,3.788,4.772,8.812C29.06,18.171,27.008,21.959,24.287,21.959z M24.287,6.335c-1.158,0-2.773,2.592-2.773,6.812c0,4.221,1.615,6.812,2.773,6.812c1.157,0,2.772-2.592,2.772-6.812C27.06,8.927,25.444,6.335,24.287,6.335z"/><path d="M24.484,16.409c-1.272,0-2.161-1.468-2.161-3.57c0-2.102,0.889-3.569,2.161-3.569c0.553,0,1,0.447,1,1c0,0.487-0.349,0.894-0.811,0.982c-0.125,0.177-0.351,0.717-0.351,1.587s0.226,1.411,0.351,1.588c0.462,0.089,0.811,0.495,0.811,0.982C25.484,15.962,25.037,16.409,24.484,16.409z"/><path d="M16.495,27.665H1.937c-0.445,0-0.836-0.294-0.96-0.722c-0.124-0.427,0.049-0.885,0.425-1.123c3.062-1.941,3.87-11.46,3.923-14.964c0.475-6.191,4.58-6.509,4.754-6.52l14.209-0.002c0.553,0,1,0.447,1,1s-0.447,1-1,1H10.139c-0.028,0.007-2.484,0.289-2.817,4.613c-0.015,1.138-0.243,10.259-3.097,14.717h11.731c0.95-1.493,3.965-6.63,3.61-11.166c-0.043-0.551,0.369-1.032,0.919-1.075c0.542-0.04,1.032,0.369,1.075,0.919c0.474,6.07-4.053,12.619-4.246,12.896C17.128,27.506,16.821,27.665,16.495,27.665z"/><rect x="22.736" y="11.839" width="3.495" height="2"/><path d="M31,13.839h-5.644c-0.553,0-1-0.447-1-1s0.447-1,1-1H31c0.553,0,1,0.447,1,1S31.553,13.839,31,13.839z"/><path d="M6.212,13.839H1c-0.553,0-1-0.447-1-1s0.447-1,1-1h5.212c0.553,0,1,0.447,1,1S6.765,13.839,6.212,13.839z"/><path d="M19.938,17h-1c-0.553,0-1-0.447-1-1s0.447-1,1-1h1c0.553,0,1,0.447,1,1S20.491,17,19.938,17z M15.938,17h-1c-0.553,0-1-0.447-1-1s0.447-1,1-1h1c0.553,0,1,0.447,1,1S16.491,17,15.938,17z M11.938,17h-1c-0.553,0-1-0.447-1-1s0.447-1,1-1h1c0.553,0,1,0.447,1,1S12.491,17,11.938,17z M7.938,17h-1c-0.553,0-1-0.447-1-1s0.447-1,1-1h1c0.553,0,1,0.447,1,1S8.491,17,7.938,17z"/></svg>