<svg xmlns="http://www.w3.org/2000/svg" viewBox="0 0 32 32"><!--! Font Icona - https://fonticona.com | License - https://fonticona.com/license | Copyright 2022 FontIcona.com --><path d="M16,21.085c-4.707,0-9.773-1.268-9.773-4.05s5.066-4.049,9.773-4.049s9.773,1.267,9.773,4.049S20.707,21.085,16,21.085z M16,14.987c-5.049,0-7.773,1.454-7.773,2.049s2.724,2.05,7.773,2.05s7.773-1.455,7.773-2.05S21.049,14.987,16,14.987z"/><path d="M16.038,31.999c-1.694,0-3.762-0.254-5.114-2.091c-0.995-1.353-0.542-2.721-0.211-3.721c0.183-0.554,0.356-1.076,0.311-1.54c-0.089-0.917-0.444-1.238-0.702-1.4c-1.034-0.646-1.852-1.442-2.448-2.062c-1.139-1.187-1.647-2.466-1.647-4.149c0-0.553,0.448-1,1-1s1,0.447,1,1c0,1.173,0.305,1.947,1.089,2.764c0.778,0.809,1.396,1.333,2.067,1.753c0.953,0.596,1.502,1.572,1.632,2.902c0.086,0.884-0.173,1.669-0.403,2.362c-0.333,1.006-0.426,1.432-0.076,1.906c0.665,0.903,1.754,1.302,3.56,1.276c1.69-0.042,2.825-0.265,3.569-1.276c0.35-0.475,0.257-0.9-0.076-1.906c-0.229-0.693-0.489-1.479-0.403-2.362c0.129-1.329,0.678-2.306,1.632-2.902c0.876-0.548,1.514-1.016,1.983-1.653c0.742-1.008,0.973-1.534,0.973-2.863c0-0.553,0.448-1,1-1s1,0.447,1,1c0,1.869-0.439,2.795-1.362,4.049c-0.73,0.99-1.69,1.636-2.533,2.163c-0.258,0.162-0.613,0.483-0.702,1.4c-0.045,0.464,0.128,0.986,0.311,1.54c0.331,1,0.784,2.368-0.211,3.721c-1.471,1.999-3.865,2.059-5.151,2.091C16.096,31.999,16.067,31.999,16.038,31.999z"/><path d="M18.17,14.987H13.83c-3.761,0-6.821-3.361-6.821-7.493V1c0-0.553,0.448-1,1-1h15.982c0.552,0,1,0.447,1,1v6.493C24.991,11.625,21.932,14.987,18.17,14.987z M9.009,2v5.493c0,3.029,2.163,5.493,4.821,5.493h4.341c2.658,0,4.821-2.464,4.821-5.493V2H9.009z"/><path d="M24.921,2H7.079c-0.552,0-1-0.447-1-1s0.448-1,1-1h17.843c0.552,0,1,0.447,1,1S25.474,2,24.921,2z"/><path d="M13.503,5.14h-2.268c-0.552,0-1-0.447-1-1s0.448-1,1-1h2.268c0.552,0,1,0.447,1,1S14.055,5.14,13.503,5.14z"/><path d="M13.503,6.207c-0.552,0-1-0.447-1-1V4.14c0-0.553,0.448-1,1-1s1,0.447,1,1v1.067C14.503,5.76,14.055,6.207,13.503,6.207z"/></svg>