<svg xmlns="http://www.w3.org/2000/svg" viewBox="0 0 32 32"><!--! Font Icona - https://fonticona.com | License - https://fonticona.com/license | Copyright 2022 FontIcona.com --><path d="M2.665,32c-0.286,0-0.57-0.122-0.769-0.359c-0.354-0.424-0.298-1.054,0.127-1.408c4.374-3.654,6.797-5.793,9.809-10.77c1.942-3.21,3.924-5.902,8.398-6.297l8.398-8.399c0.391-0.391,1.023-0.391,1.414,0s0.391,1.023,0,1.414l-8.662,8.663c-0.174,0.174-0.405,0.277-0.65,0.291c-3.493,0.198-5.04,1.815-7.188,5.363c-3.17,5.239-5.822,7.581-10.238,11.27C3.118,31.924,2.891,32,2.665,32z"/><path d="M25.651,6.872c-0.256,0-0.512-0.098-0.707-0.293l-3.217-3.217c-0.195-0.195-0.293-0.451-0.293-0.707s0.098-0.512,0.293-0.707c0.391-0.391,1.023-0.391,1.414,0l3.217,3.217c0.391,0.391,0.391,1.023,0,1.414C26.163,6.775,25.907,6.872,25.651,6.872z"/><path d="M27.308,5.217c-0.256,0-0.512-0.098-0.707-0.293l-3.217-3.217c-0.391-0.391-0.391-1.023,0-1.414s1.023-0.391,1.414,0l2.115,2.114c0.006,0.006,0.013,0.013,0.019,0.02l1.083,1.083c0.391,0.391,0.391,1.023,0,1.414C27.819,5.119,27.563,5.217,27.308,5.217z"/><path d="M20.46,12.064c-0.256,0-0.512-0.098-0.707-0.293l-1.101-1.1c0-0.001,0-0.001-0.001-0.002l-2.115-2.114c-0.391-0.391-0.391-1.023,0-1.414s1.023-0.391,1.414,0l3.217,3.216c0.391,0.391,0.391,1.023,0,1.414C20.972,11.966,20.716,12.064,20.46,12.064z"/><path d="M23.967,8.557c-0.256,0-0.512-0.098-0.707-0.293l-1.101-1.1c0-0.001,0-0.001-0.001-0.002l-2.115-2.114c-0.391-0.391-0.391-1.023,0-1.414s1.023-0.391,1.414,0l3.217,3.216c0.391,0.391,0.391,1.023,0,1.414C24.479,8.459,24.223,8.557,23.967,8.557z"/><path d="M22.267,10.257c-0.256,0-0.512-0.098-0.707-0.293l-3.217-3.217C18.147,6.552,18.05,6.296,18.05,6.04s0.098-0.512,0.293-0.707c0.391-0.391,1.023-0.391,1.414,0l3.217,3.217c0.391,0.391,0.391,1.023,0,1.414C22.778,10.16,22.522,10.257,22.267,10.257z"/></svg>