<svg xmlns="http://www.w3.org/2000/svg" viewBox="0 0 32 32"><!--! Font Icona - https://fonticona.com | License - https://fonticona.com/license | Copyright 2022 FontIcona.com --><path d="M19.43,32c-0.661,0-1.072-0.303-1.278-0.515c-0.931-0.958-0.562-2.7-0.103-4.402l0.051-0.189c0.489-1.802,1.044-3.843,0.275-5.438c-0.376-0.779-1.156-1.264-2.145-1.335c-1.033,0.075-1.886,0.511-2.287,1.171c-0.812,1.335-0.554,3.08-0.304,4.768l0.055,0.373c0.234,1.601,0.392,3.359-0.68,4.123c-0.396,0.283-1.085,0.509-2.101-0.015c-2.067-1.039-4.071-3.322-5.946-6.781c-1.798-3.294-3.019-6.893-3.841-11.322c-0.466-1.935-0.45-5.033,1.162-7.232c1.12-1.527,2.866-2.415,5.05-2.568c1.158-0.092,2.546,0.353,4.158,0.872c1.473,0.474,3.134,1.009,4.525,1.025c0.684-0.311,1.358-0.688,2.009-1.122c0.505-0.335,0.991-0.712,1.461-1.076c1.078-0.836,2.193-1.7,3.585-2.106c1.551-0.494,3.083-0.192,4.413,0.889c2.558,2.081,3.927,6.777,3.602,9.858c-0.107,5.001-1.553,9.976-4.174,14.305c-1.307,2.183-3.945,5.955-6.899,6.646C19.804,31.978,19.607,32,19.43,32z M16.229,18.119c0.019,0,0.037,0.001,0.056,0.002c1.737,0.096,3.192,1.018,3.891,2.466c1.094,2.268,0.406,4.798-0.146,6.831l-0.027,0.099c-0.397,1.476-0.463,2.15-0.424,2.459c1.611-0.391,3.711-2.528,5.625-5.727c2.443-4.033,3.789-8.665,3.894-13.399c0.265-2.535-0.936-6.606-2.869-8.18c-0.802-0.652-1.642-0.824-2.566-0.528c-1.052,0.308-1.972,1.021-2.944,1.774c-0.499,0.387-1.015,0.787-1.578,1.16c-0.798,0.533-1.633,0.993-2.48,1.364c-0.014,0.007-0.028,0.013-0.043,0.019c-1.052,0.458-2.152,0.793-3.272,0.997c-1.732,0.317-3.115,0.45-4.364,0.413C8.428,7.852,7.993,7.391,8.009,6.839C8.025,6.297,8.47,5.869,9.008,5.869c0.011,0,0.021,0,0.03,0c0.798,0.026,1.683-0.034,2.717-0.18c-0.296-0.092-0.587-0.186-0.871-0.277C9.534,4.977,8.263,4.578,7.492,4.63C5.877,4.744,4.674,5.335,3.901,6.387c-1.13,1.541-1.226,3.94-0.818,5.634c0.793,4.267,1.947,7.677,3.642,10.783c1.678,3.095,3.393,5.098,5.097,5.954c0.007,0.004,0.015,0.008,0.021,0.011c0.044-0.293,0.044-0.876-0.125-2.036l-0.057-0.38c-0.288-1.945-0.614-4.149,0.573-6.101c0.762-1.252,2.196-2.028,3.936-2.132C16.19,18.12,16.21,18.119,16.229,18.119z"/></svg>