<svg xmlns="http://www.w3.org/2000/svg" viewBox="0 0 32 32"><!--! Font Icona - https://fonticona.com | License - https://fonticona.com/license | Copyright 2022 FontIcona.com --><path d="M26.714,25.866H5.286c-0.552,0-1-0.448-1-1s0.448-1,1-1h21.428c0.552,0,1,0.448,1,1S27.267,25.866,26.714,25.866z"/><path d="M26.525,8.597H5.286c-0.552,0-1-0.448-1-1s0.448-1,1-1h21.239c0.552,0,1,0.448,1,1S27.078,8.597,26.525,8.597z"/><rect x="4.286" y="7.597" width="2" height="17.269"/><path d="M15.772,25.765c-0.003,0-0.006,0-0.01,0c-0.36-0.003-0.69-0.2-0.865-0.515L7.64,12.16c-0.172-0.31-0.167-0.687,0.013-0.992s0.508-0.493,0.862-0.493H23.36c0.357,0,0.688,0.191,0.867,0.501c0.178,0.31,0.178,0.691-0.001,1l-7.588,13.09C16.458,25.575,16.128,25.765,15.772,25.765z M10.212,12.675l5.58,10.062l5.833-10.062H10.212z"/><path d="M23.36,21.787H8.514c-0.357,0-0.688-0.191-0.867-0.501c-0.178-0.31-0.178-0.691,0.001-1l7.588-13.09c0.181-0.312,0.477-0.504,0.875-0.499c0.36,0.003,0.69,0.2,0.865,0.515l7.258,13.09c0.172,0.31,0.167,0.687-0.013,0.992S23.714,21.787,23.36,21.787z M10.25,19.787h11.413l-5.58-10.062L10.25,19.787z"/><path d="M3.143,28.765C1.38,28.765,0,27.08,0,24.929V7.597c0-2.151,1.38-3.836,3.143-3.836c1.762,0,3.143,1.685,3.143,3.836c0,0.552-0.448,1-1,1s-1-0.448-1-1c0-1.082-0.602-1.836-1.143-1.836S2,6.515,2,7.597v17.269c0,1.145,0.603,1.899,1.143,1.899s1.143-0.754,1.143-1.836c0-0.552,0.448-1,1-1s1,0.448,1,1C6.286,27.08,4.905,28.765,3.143,28.765z"/><path d="M28.857,28.733c-1.683,0-3.018-1.537-3.134-3.55c-0.005-0.042-0.008-0.085-0.008-0.129V7.786c0-0.037,0.002-0.074,0.006-0.11c-0.004-0.036-0.006-0.073-0.006-0.11c0-2.151,1.38-3.836,3.143-3.836C30.62,3.729,32,5.414,32,7.565v17.332C32,27.048,30.62,28.733,28.857,28.733z M27.714,24.897c0,1.082,0.602,1.836,1.143,1.836S30,25.979,30,24.897V7.628c0-1.145-0.603-1.899-1.143-1.899s-1.143,0.754-1.143,1.836c0,0.037-0.002,0.074-0.006,0.11c0.004,0.036,0.006,0.073,0.006,0.11V24.897z"/><path d="M3.143,5.761c-0.552,0-1-0.448-1-1V1.798c0-0.552,0.448-1,1-1s1,0.448,1,1v2.962C4.143,5.313,3.695,5.761,3.143,5.761z"/><path d="M3.143,31.202c-0.552,0-1-0.448-1-1v-2.437c0-0.552,0.448-1,1-1s1,0.448,1,1v2.437C4.143,30.754,3.695,31.202,3.143,31.202z"/><path d="M28.857,5.761c-0.552,0-1-0.448-1-1V1.798c0-0.552,0.448-1,1-1s1,0.448,1,1v2.962C29.857,5.313,29.409,5.761,28.857,5.761z"/><path d="M28.857,31.202c-0.552,0-1-0.448-1-1v-2.437c0-0.552,0.448-1,1-1s1,0.448,1,1v2.437C29.857,30.754,29.409,31.202,28.857,31.202z"/></svg>