<svg xmlns="http://www.w3.org/2000/svg" viewBox="0 0 32 32"><!--! Font Icona - https://fonticona.com | License - https://fonticona.com/license | Copyright 2022 FontIcona.com --><path d="M26.871,14.646H5.347c-0.553,0-1-0.447-1-1s0.447-1,1-1h21.524c0.553,0,1,0.447,1,1S27.424,14.646,26.871,14.646z"/><path d="M16.084,10.245c-4.108,0-8.216-0.167-12.295-0.499C3.238,9.701,2.828,9.218,2.873,8.668c0.046-0.552,0.539-0.957,1.078-0.916c8.051,0.658,16.215,0.658,24.266,0c0.541-0.039,1.033,0.364,1.078,0.916c0.045,0.55-0.365,1.033-0.916,1.078C24.3,10.078,20.192,10.245,16.084,10.245z"/><path d="M16.084,6.657h-0.168c-0.006,0-0.012,0-0.018,0C11.157,6.649,6.362,6.346,1.644,5.755C1.218,5.701,0.873,5.383,0.788,4.963L0.021,1.2c-0.066-0.325,0.032-0.661,0.264-0.898c0.232-0.237,0.567-0.344,0.892-0.286c0.128,0.022,12.939,2.245,29.691-0.007c0.318-0.045,0.643,0.072,0.863,0.309s0.314,0.565,0.249,0.883l-0.768,3.763c-0.085,0.42-0.43,0.738-0.855,0.792c-4.719,0.591-9.514,0.895-14.255,0.902C16.096,6.657,16.09,6.657,16.084,6.657z M2.604,3.857c4.44,0.527,8.943,0.797,13.396,0.8c4.453-0.003,8.956-0.272,13.396-0.8l0.345-1.688C16.578,3.771,5.991,2.695,2.265,2.198L2.604,3.857z"/><path d="M7.27,32c-0.06,0-0.12-0.005-0.181-0.017c-0.543-0.099-0.903-0.619-0.804-1.163c1.223-6.71,1.508-13.898,0.849-21.365C7.085,8.905,7.492,8.42,8.042,8.371c0.567-0.049,1.036,0.358,1.084,0.908c0.676,7.645,0.382,15.013-0.874,21.9C8.164,31.662,7.743,32,7.27,32z"/><path d="M24.948,32c-0.474,0-0.895-0.338-0.982-0.82c-1.256-6.888-1.55-14.256-0.874-21.9c0.049-0.55,0.53-0.958,1.084-0.908c0.55,0.049,0.957,0.534,0.908,1.084c-0.659,7.467-0.374,14.655,0.849,21.365c0.1,0.544-0.261,1.064-0.804,1.163C25.068,31.995,25.008,32,24.948,32z"/><path d="M16.109,14.646c-0.553,0-1-0.447-1-1v-3.271c0-0.553,0.447-1,1-1s1,0.447,1,1v3.271C17.109,14.198,16.662,14.646,16.109,14.646z"/></svg>