<svg xmlns="http://www.w3.org/2000/svg" viewBox="0 0 32 32"><!--! Font Icona - https://fonticona.com | License - https://fonticona.com/license | Copyright 2022 FontIcona.com --><path d="M25.7,32c-0.077,0-0.154-0.009-0.232-0.027c-0.53-0.126-0.861-0.652-0.747-1.184l0.311-1.438c-1.491-0.501-5.057-1.33-8.546,0.615c-0.303,0.168-0.671,0.168-0.974,0c-3.509-1.956-7.062-1.123-8.546-0.619l0.312,1.441c0.115,0.531-0.217,1.058-0.747,1.184c-0.53,0.125-1.063-0.195-1.199-0.722c-1.062-4.105-1.145-7.736-0.251-11.1c0.418-1.576,1.135-3.214,2.071-4.736c0.247-0.402,0.535-0.808,0.829-1.221c0.716-1.004,1.456-2.043,1.586-3.137c0.111-0.928-0.249-1.643-0.705-2.547C8.552,7.894,8.199,7.194,8.013,6.38C7.89,5.842,8.227,5.306,8.765,5.183C9.305,5.057,9.84,5.396,9.962,5.935c0.132,0.575,0.401,1.11,0.687,1.677c0.509,1.011,1.086,2.157,0.905,3.683c-0.191,1.602-1.122,2.908-1.943,4.062c-0.268,0.375-0.53,0.742-0.755,1.107c-0.835,1.358-1.472,2.812-1.842,4.202c-0.552,2.079-0.685,4.289-0.397,6.691c1.867-0.588,5.573-1.294,9.383,0.606c3.811-1.901,7.517-1.193,9.383-0.607c0.288-2.401,0.155-4.611-0.397-6.69c-0.37-1.391-1.006-2.844-1.842-4.203c-0.225-0.364-0.487-0.731-0.755-1.106c-0.821-1.153-1.752-2.46-1.943-4.062c-0.182-1.525,0.396-2.672,0.905-3.683c0.285-0.566,0.555-1.102,0.687-1.677c0.123-0.539,0.66-0.878,1.198-0.752c0.538,0.123,0.875,0.659,0.751,1.197c-0.186,0.813-0.539,1.514-0.85,2.131c-0.456,0.904-0.815,1.619-0.705,2.547c0.13,1.094,0.87,2.133,1.586,3.137c0.294,0.413,0.582,0.818,0.829,1.22c0.937,1.523,1.653,3.161,2.071,4.737c0.894,3.363,0.811,6.994-0.251,11.1C26.551,31.701,26.146,32,25.7,32z"/><path d="M19.87,8.125c-1.186,0-2.352-0.314-3.246-0.92C15.602,6.515,15.025,5.517,15,4.398c-0.013-0.553,0.425-1.01,0.978-1.022c0.537,0.009,1.01,0.427,1.022,0.978c0.01,0.467,0.261,0.869,0.745,1.196c0.941,0.638,2.448,0.764,3.665,0.307c0.955-0.361,1.696-1.128,2.031-2.102c0.277-0.805,0.227-1.64-0.135-2.234c-0.287-0.472-0.137-1.087,0.335-1.374c0.475-0.286,1.088-0.136,1.374,0.335c0.677,1.113,0.792,2.543,0.317,3.924c-0.529,1.538-1.701,2.749-3.216,3.323C21.404,7.994,20.633,8.125,19.87,8.125z"/><path d="M12.169,8.133c-0.76,0-1.532-0.133-2.255-0.404c-1.518-0.575-2.69-1.786-3.219-3.324C6.22,3.024,6.335,1.594,7.012,0.481c0.287-0.472,0.901-0.622,1.374-0.335C8.857,0.433,9.008,1.048,8.721,1.52C8.359,2.115,8.309,2.95,8.586,3.754c0.335,0.974,1.076,1.74,2.033,2.103c1.206,0.452,2.702,0.329,3.636-0.302C14.739,5.228,14.99,4.824,15,4.353c0.012-0.552,0.5-1.018,1.021-0.978c0.552,0.013,0.99,0.47,0.978,1.022c-0.025,1.123-0.602,2.123-1.625,2.814C14.478,7.82,13.337,8.133,12.169,8.133z"/><path d="M16,19.222c-2.899,0-5.798-0.926-8.383-2.776c-0.449-0.322-0.553-0.946-0.231-1.396c0.322-0.448,0.946-0.553,1.395-0.231c4.453,3.188,9.985,3.188,14.438,0c0.449-0.322,1.074-0.218,1.395,0.231c0.322,0.449,0.218,1.073-0.231,1.396C21.797,18.296,18.899,19.222,16,19.222z"/><path d="M16,32c-0.552,0-1-0.447-1-1v-6.388c0-0.553,0.448-1,1-1s1,0.447,1,1V31C17,31.553,16.552,32,16,32z"/><path d="M15.986,25.613c-0.219,0-0.439-0.071-0.624-0.219l-1.166-0.932c-0.431-0.345-0.501-0.975-0.157-1.405c0.345-0.433,0.974-0.502,1.406-0.157l1.166,0.932c0.431,0.345,0.501,0.975,0.157,1.405C16.57,25.484,16.279,25.613,15.986,25.613z"/><path d="M15.987,25.613c-0.293,0-0.584-0.129-0.782-0.376c-0.345-0.432-0.274-1.061,0.157-1.405l1.085-0.867c0.431-0.345,1.061-0.274,1.405,0.157c0.345,0.432,0.274,1.061-0.157,1.405l-1.085,0.867C16.426,25.541,16.206,25.613,15.987,25.613z"/><path d="M16.013,16.545c-0.552,0-1-0.447-1-1v-0.858c0-0.553,0.448-1,1-1s1,0.447,1,1v0.858C17.013,16.098,16.565,16.545,16.013,16.545z"/></svg>