<svg xmlns="http://www.w3.org/2000/svg" viewBox="0 0 32 32"><!--! Font Icona - https://fonticona.com | License - https://fonticona.com/license | Copyright 2022 FontIcona.com --><path d="M21.193,31.293l-1.912-0.586l6.192-20.188L15.288,7.395l-7.26,23.67l-1.912-0.586l7.26-23.67c0.156-0.51,0.502-0.929,0.975-1.18c0.472-0.252,1.012-0.305,1.523-0.146L26.06,8.606c0.509,0.156,0.928,0.503,1.179,0.976c0.25,0.473,0.302,1.014,0.146,1.522L21.193,31.293z"/><rect x="17.298" y="9.42" transform="matrix(0.2933 -0.956 0.956 0.2933 -2.1229 28.6224)" width="2" height="12.654"/><rect x="14.628" y="18.123" transform="matrix(0.2932 -0.9561 0.9561 0.2932 -12.329 32.223)" width="2" height="12.654"/><path d="M24.499,9.174l-1.912-0.586l1.584-5.165l-3.827-1.174l-1.583,5.165l-1.912-0.586l1.584-5.165c0.323-1.056,1.445-1.649,2.498-1.326l3.827,1.174c0.509,0.156,0.928,0.503,1.179,0.976c0.25,0.473,0.303,1.013,0.146,1.522L24.499,9.174z"/><path d="M16.178,16.097c-0.097,0-0.196-0.014-0.294-0.044c-0.528-0.162-0.825-0.722-0.663-1.249l1.294-4.219c0.162-0.528,0.72-0.825,1.25-0.663c0.528,0.162,0.825,0.722,0.663,1.249l-1.294,4.219C17.001,15.82,16.605,16.097,16.178,16.097z"/><path d="M20.33,17.37c-0.097,0-0.196-0.014-0.294-0.044c-0.528-0.162-0.825-0.722-0.663-1.249l1.294-4.219c0.162-0.528,0.722-0.824,1.25-0.663c0.528,0.162,0.825,0.722,0.663,1.249l-1.294,4.219C21.154,17.094,20.758,17.37,20.33,17.37z"/><path d="M13.576,24.578c-0.097,0-0.196-0.014-0.294-0.044c-0.528-0.162-0.825-0.722-0.663-1.249l1.294-4.218c0.162-0.528,0.723-0.824,1.25-0.663c0.528,0.162,0.825,0.722,0.663,1.249l-1.294,4.218C14.4,24.302,14.004,24.578,13.576,24.578z"/><path d="M17.729,25.853c-0.097,0-0.196-0.014-0.294-0.044c-0.528-0.162-0.825-0.722-0.663-1.249l1.294-4.219c0.162-0.528,0.72-0.826,1.25-0.663c0.528,0.162,0.825,0.722,0.663,1.249l-1.294,4.219C18.552,25.576,18.156,25.853,17.729,25.853z"/><path d="M11.3,32c-0.097,0-0.196-0.014-0.294-0.044c-0.528-0.162-0.825-0.722-0.663-1.249l1.294-4.219c0.162-0.528,0.72-0.825,1.25-0.663c0.528,0.162,0.825,0.722,0.663,1.249l-1.294,4.219C12.124,31.724,11.728,32,11.3,32z"/><path d="M15.843,32c-0.097,0-0.196-0.014-0.294-0.044c-0.528-0.162-0.825-0.722-0.663-1.249l0.903-2.944c0.162-0.528,0.723-0.826,1.25-0.663c0.528,0.162,0.825,0.722,0.663,1.249l-0.903,2.944C16.667,31.724,16.271,32,15.843,32z"/><path d="M29.967,32H2.033c-0.552,0-1-0.447-1-1s0.448-1,1-1h27.935c0.552,0,1,0.447,1,1S30.52,32,29.967,32z"/></svg>