<svg xmlns="http://www.w3.org/2000/svg" viewBox="0 0 32 32"><!--! Font Icona - https://fonticona.com | License - https://fonticona.com/license | Copyright 2022 FontIcona.com --><path d="M16.648,31.994c-4.142,0-8.248-1.792-11.059-5.236c-0.333-0.316-0.415-0.833-0.167-1.243l10.5-17.355c0.182-0.301,0.515-0.464,0.862-0.482c0.352,0.002,0.677,0.189,0.856,0.493l10.2,17.355c0.21,0.358,0.178,0.808-0.082,1.132c-0.652,0.814-1.396,1.559-2.211,2.211C22.923,30.972,19.776,31.994,16.648,31.994z M7.511,25.928c4.305,4.805,11.692,5.462,16.787,1.381c0.523-0.419,1.012-0.882,1.459-1.381L16.766,10.63L7.511,25.928z"/><path d="M16.777,9.778c-0.288,0-0.559-0.125-0.745-0.334C12.773,7.249,7.639,7.1,6.15,7.125c-0.005,0-0.01,0-0.015,0c-0.934,0-1.752-0.648-1.949-1.547C3.711,3.415,4.418,0.839,4.449,0.731C4.576,0.276,5.004-0.03,5.476,0.002c2.522,0.161,4.969,0.77,7.27,1.81c2.546,1.453,4.322,3.834,4.973,6.592c0.041,0.113,0.061,0.233,0.06,0.354c0.01,0.468-0.312,0.893-0.786,0.997C16.92,9.771,16.848,9.778,16.777,9.778z M6.555,5.145c1.843,0,5.266,0.214,8.304,1.441c-0.723-1.232-1.76-2.272-3.022-2.995C10.09,2.806,8.179,2.287,6.2,2.071c-0.144,0.794-0.29,2.036-0.061,3.077C6.267,5.146,6.406,5.145,6.555,5.145z"/><path d="M16.778,9.778c-0.187,0-0.374-0.052-0.54-0.158c-0.374-0.239-0.544-0.696-0.42-1.122c1.346-4.617,5.056-5.581,8.507-5.915c0.279-0.029,0.56,0.065,0.769,0.255c0.208,0.189,0.328,0.458,0.328,0.74v2.643c0,0.547-0.215,1.058-0.605,1.438c-0.387,0.377-0.903,0.574-1.438,0.561c-1.287-0.034-4.453,0.019-5.944,1.314C17.247,9.695,17.013,9.778,16.778,9.778z M23.426,4.704c-1.869,0.274-3.35,0.795-4.392,1.927c1.59-0.397,3.271-0.444,4.399-0.411L23.426,4.704z"/><path d="M15.06,26.254c-1.247,0-2.504-0.217-3.714-0.661c-0.519-0.19-0.785-0.765-0.595-1.283c0.19-0.518,0.768-0.782,1.283-0.595c3.032,1.112,6.418,0.475,8.837-1.666c0.414-0.367,1.045-0.327,1.412,0.086c0.366,0.414,0.327,1.045-0.086,1.412C20.192,25.321,17.647,26.254,15.06,26.254z"/><path d="M15.586,21.555c-0.775,0-1.556-0.134-2.309-0.41c-0.519-0.19-0.785-0.765-0.595-1.283c0.19-0.518,0.764-0.784,1.283-0.595c1.622,0.594,3.438,0.253,4.733-0.892c0.415-0.367,1.046-0.326,1.412,0.086c0.366,0.414,0.327,1.046-0.086,1.412C18.778,20.975,17.195,21.555,15.586,21.555z"/></svg>