<svg xmlns="http://www.w3.org/2000/svg" viewBox="0 0 32 32"><!--! Font Icona - https://fonticona.com | License - https://fonticona.com/license | Copyright 2022 FontIcona.com --><path d="M8.532,28.98c-3.797,0-6.886-3.06-6.886-6.821s3.089-6.821,6.886-6.821s6.887,3.06,6.887,6.821S12.329,28.98,8.532,28.98z M8.532,17.338c-2.694,0-4.886,2.163-4.886,4.821s2.191,4.821,4.886,4.821s4.887-2.163,4.887-4.821S11.227,17.338,8.532,17.338z"/><path d="M18.169,22.159h-1c-0.032-4.71-3.871-8.517-8.57-8.517c-0.021,0-0.041-0.006-0.062,0c-2.641,0-5.101,1.172-6.76,3.217c-0.347,0.43-0.976,0.496-1.406,0.146c-0.429-0.348-0.495-0.978-0.146-1.406c2.04-2.515,5.067-3.957,8.306-3.957c0.033,0.006,0.052,0,0.076,0c5.789,0,10.523,4.694,10.563,10.499L18.169,22.159z"/><path d="M25.701,28.86c-2.547,0-4.619-2.053-4.619-4.575s2.072-4.575,4.619-4.575s4.619,2.053,4.619,4.575S28.248,28.86,25.701,28.86z M25.701,21.71c-1.444,0-2.619,1.155-2.619,2.575s1.175,2.575,2.619,2.575s2.619-1.155,2.619-2.575S27.146,21.71,25.701,21.71z"/><path d="M22.793,23.159h-4.624c-0.553,0-1-0.447-1-1s0.447-1,1-1h4.624c0.553,0,1,0.447,1,1S23.346,23.159,22.793,23.159z"/><path d="M28.61,23.159c-0.087,0-0.174-0.011-0.262-0.034c-0.533-0.145-0.849-0.693-0.705-1.227l2.313-8.579c0.01-0.036,0.022-0.072,0.036-0.108c0.007-0.083-0.034-0.124-0.084-0.124h-10.18c-1.149,0-2.212-0.67-2.707-1.708l-2.767-5.8c-0.165-0.346-0.52-0.569-0.902-0.569H6.902c-0.552,0-1,0.448-1,1v7.331c0,0.553-0.447,1-1,1s-1-0.447-1-1V6.01c0-1.654,1.346-3,3-3h6.451c1.149,0,2.212,0.67,2.707,1.708l2.767,5.8c0.165,0.346,0.52,0.569,0.902,0.569h10.18c1.151,0,2.089,0.937,2.091,2.087c0,0.246-0.042,0.484-0.124,0.713l-2.301,8.533C29.455,22.865,29.051,23.159,28.61,23.159z"/><path d="M24.578,13.087c-0.553,0-1-0.447-1-1V6.07c-0.054-0.721,0.414-2.821,3.213-3.036c0.532-0.039,1.031,0.37,1.073,0.921s-0.37,1.031-0.921,1.073C25.555,5.135,25.569,5.912,25.575,6l0.003,6.087C25.578,12.64,25.131,13.087,24.578,13.087z"/><path d="M19.729,13.087H4.902c-0.553,0-1-0.447-1-1s0.447-1,1-1h14.827c0.553,0,1,0.447,1,1S20.282,13.087,19.729,13.087z"/></svg>