<svg xmlns="http://www.w3.org/2000/svg" viewBox="0 0 32 32"><!--! Font Icona - https://fonticona.com | License - https://fonticona.com/license | Copyright 2022 FontIcona.com --><path d="M7.821,25.572c-0.552,0-1-0.447-1-1V8.429H1c-0.552,0-1-0.447-1-1s0.448-1,1-1h13.642c0.552,0,1,0.447,1,1s-0.448,1-1,1H8.821v16.143C8.821,25.124,8.373,25.572,7.821,25.572z"/><path d="M17.358,25.572c-0.552,0-1-0.447-1-1V7.429c0-0.553,0.448-1,1-1s1,0.447,1,1v17.143C18.358,25.124,17.91,25.572,17.358,25.572z"/><path d="M31,25.572c-0.552,0-1-0.447-1-1V7.429c0-0.553,0.448-1,1-1s1,0.447,1,1v17.143C32,25.124,31.552,25.572,31,25.572z"/><path d="M24.119,20.864c-0.001,0-0.002,0-0.004,0c-0.365-0.001-0.7-0.201-0.875-0.522L16.479,7.907c-0.264-0.485-0.084-1.092,0.401-1.356c0.484-0.263,1.093-0.085,1.356,0.401l5.89,10.833l5.999-10.84C30.393,6.461,31,6.286,31.484,6.554c0.483,0.268,0.658,0.876,0.391,1.359l-6.881,12.435C24.817,20.666,24.482,20.864,24.119,20.864z"/></svg>