<svg xmlns="http://www.w3.org/2000/svg" viewBox="0 0 32 32"><!--! Font Icona - https://fonticona.com | License - https://fonticona.com/license | Copyright 2022 FontIcona.com --><path d="M17.702,22.547h-3.404c-1.814,0-3.29-1.476-3.29-3.29V3.29c0-1.814,1.476-3.29,3.29-3.29h3.404c1.814,0,3.29,1.476,3.29,3.29v15.968C20.992,21.072,19.517,22.547,17.702,22.547z M14.298,2c-0.711,0-1.29,0.579-1.29,1.29v15.968c0,0.711,0.579,1.29,1.29,1.29h3.404c0.711,0,1.29-0.579,1.29-1.29V3.29c0-0.711-0.579-1.29-1.29-1.29H14.298z"/><circle cx="16" cy="5.814" r="1.75"/><circle cx="16" cy="11.274" r="1.75"/><circle cx="16" cy="16.734" r="1.75"/><path d="M19.992,8.968c-0.245,0-0.49-0.089-0.683-0.269c-0.403-0.377-0.425-1.01-0.048-1.414l2.982-3.194h-2.252c-0.553,0-1-0.448-1-1s0.447-1,1-1h4.555c0.398,0,0.759,0.236,0.917,0.602c0.159,0.365,0.086,0.79-0.187,1.081l-4.555,4.876C20.526,8.862,20.26,8.968,19.992,8.968z"/><path d="M19.992,15.126c-0.247,0-0.494-0.091-0.688-0.273c-0.401-0.38-0.419-1.013-0.039-1.414l2.959-3.127h-2.232c-0.553,0-1-0.448-1-1s0.448-1,1-1l0,0l4.555,0c0.399,0,0.761,0.238,0.919,0.604c0.157,0.367,0.082,0.792-0.192,1.083l-4.555,4.814C20.521,15.021,20.257,15.126,19.992,15.126z"/><path d="M12.008,8.968c-0.268,0-0.534-0.106-0.73-0.317L6.723,3.774C6.45,3.483,6.377,3.059,6.536,2.693c0.158-0.365,0.519-0.602,0.917-0.602h4.555c0.553,0,1,0.448,1,1s-0.447,1-1,1H9.756l2.982,3.194c0.377,0.404,0.355,1.037-0.048,1.414C12.498,8.879,12.253,8.968,12.008,8.968z"/><path d="M12.008,15.126c-0.265,0-0.529-0.105-0.727-0.312L6.727,10c-0.274-0.291-0.35-0.716-0.192-1.083c0.158-0.367,0.52-0.604,0.919-0.604l4.555,0c0.552,0,1,0.448,1,1s-0.447,1-1,1H9.775l2.959,3.127c0.38,0.401,0.362,1.034-0.039,1.414C12.502,15.036,12.255,15.126,12.008,15.126z"/><path d="M15.997,32c-0.553,0-1-0.448-1-1v-9.333c0-0.552,0.447-1,1-1s1,0.448,1,1V31C16.997,31.552,16.55,32,15.997,32z"/></svg>