<svg xmlns="http://www.w3.org/2000/svg" viewBox="0 0 32 32"><!--! Font Icona - https://fonticona.com | License - https://fonticona.com/license | Copyright 2022 FontIcona.com --><path d="M20.349,22.817c-0.074,0-0.147-0.001-0.223-0.004c-2.74-0.099-5.517-0.099-8.251,0c-3.312,0.093-6.064-2.321-6.344-5.544L4.676,6.413C4.55,4.957,5.046,3.511,6.075,2.348c1.209-1.367,3.025-2.19,4.984-2.259c3.278-0.119,6.603-0.118,9.883,0c1.957,0.069,3.773,0.893,4.982,2.259c1.029,1.163,1.525,2.609,1.398,4.073l-0.854,10.849C26.197,20.419,23.529,22.817,20.349,22.817z M16,20.74c1.402,0,2.805,0.025,4.197,0.075c0.05,0.002,0.101,0.003,0.151,0.003c2.145,0,3.943-1.605,4.127-3.716L25.33,6.255c0.08-0.92-0.241-1.834-0.902-2.582c-0.848-0.958-2.145-1.536-3.557-1.585c-3.232-0.116-6.51-0.116-9.74,0C9.717,2.138,8.42,2.716,7.572,3.673C6.911,4.421,6.59,5.335,6.669,6.248l0.855,10.857c0.187,2.155,2.088,3.8,4.279,3.71C13.195,20.765,14.598,20.74,16,20.74z"/><rect x="12.821" y="6.8" transform="matrix(0.0015 -1 1 0.0015 8.1804 23.7915)" width="6.366" height="2"/><path d="M21.046,11.819c-0.051,0-0.102-0.001-0.153-0.004c-3.313-0.178-6.676-0.178-9.989,0c-1.555,0.089-2.935-1.108-3.055-2.657L7.699,7.114C7.642,6.373,7.887,5.646,8.391,5.071c0.524-0.598,1.289-0.965,2.097-1.009c3.59-0.192,7.23-0.192,10.82,0c0.808,0.043,1.572,0.411,2.097,1.009c0.504,0.575,0.749,1.302,0.691,2.047l-0.15,2.039C23.831,10.654,22.546,11.819,21.046,11.819z M15.896,9.682c1.705,0,3.409,0.045,5.103,0.136c0.494,0.038,0.916-0.338,0.952-0.813l0.15-2.037C22.117,6.76,22.046,6.556,21.9,6.39c-0.172-0.195-0.427-0.316-0.7-0.331c-3.518-0.188-7.088-0.188-10.605,0c-0.273,0.015-0.528,0.135-0.7,0.331C9.749,6.556,9.678,6.76,9.693,6.964l0.149,2.043c0.037,0.471,0.448,0.84,0.954,0.811C12.488,9.727,14.192,9.682,15.896,9.682z"/><circle cx="11.008" cy="16.496" r="1.25"/><circle cx="20.787" cy="16.496" r="1.25"/><path d="M4.773,32c-0.188,0-0.377-0.052-0.545-0.162c-0.463-0.302-0.594-0.921-0.292-1.384l5.436-8.338c0.303-0.463,0.923-0.594,1.384-0.292c0.463,0.302,0.594,0.921,0.292,1.384l-5.436,8.338C5.42,31.84,5.101,32,4.773,32z"/><path d="M27.227,32c-0.327,0-0.646-0.16-0.839-0.454l-5.436-8.338c-0.302-0.462-0.171-1.082,0.292-1.384c0.461-0.301,1.081-0.171,1.384,0.292l5.436,8.338c0.302,0.462,0.171,1.082-0.292,1.384C27.604,31.948,27.414,32,27.227,32z"/><path d="M25.981,30.647H6.019c-0.553,0-1-0.448-1-1s0.447-1,1-1h19.963c0.553,0,1,0.448,1,1S26.534,30.647,25.981,30.647z"/><path d="M23.104,26.28H8.69c-0.553,0-1-0.448-1-1s0.447-1,1-1h14.413c0.553,0,1,0.448,1,1S23.656,26.28,23.104,26.28z"/></svg>