<svg xmlns="http://www.w3.org/2000/svg" viewBox="0 0 32 32"><!--! Font Icona - https://fonticona.com | License - https://fonticona.com/license | Copyright 2022 FontIcona.com --><path d="M29,23.758h-1.631c-0.552,0-1-0.447-1-1s0.448-1,1-1H29c0.551,0,1-0.448,1-1V7.41c0-0.552-0.449-1-1-1H7.13c-0.551,0-1,0.448-1,1v13.348c0,0.552,0.449,1,1,1h12.574c0.552,0,1,0.447,1,1s-0.448,1-1,1H7.13c-1.654,0-3-1.346-3-3V7.41c0-1.654,1.346-3,3-3H29c1.654,0,3,1.346,3,3v13.348C32,22.412,30.654,23.758,29,23.758z"/><path d="M15.313,17.033H13.97c-0.552,0-1.456-0.003-2.009-0.008l-1.357-0.01c-1.642-0.013-2.978-1.359-2.978-3V10.87c0-1.654,1.346-3,3-3h4.687c1.654,0,3,1.346,3,3v3.163C18.313,15.688,16.968,17.033,15.313,17.033z M10.627,9.87c-0.551,0-1,0.448-1,1v3.146c0,0.547,0.445,0.996,0.993,1l1.358,0.01c0.549,0.005,1.445,0.008,1.993,0.008h1.343c0.551,0,1-0.448,1-1V10.87c0-0.552-0.449-1-1-1H10.627z"/><path d="M12.644,17c-0.552,0-1-0.447-1-1V8.87c0-0.553,0.448-1,1-1s1,0.447,1,1V16C13.644,16.553,13.196,17,12.644,17z"/><path d="M24.029,17.033h-0.812c-1.654,0-3-1.346-3-3V10.87c0-1.654,1.346-3,3-3h0.812c1.654,0,3,1.346,3,3v3.163C27.029,15.688,25.683,17.033,24.029,17.033z M23.217,9.87c-0.551,0-1,0.448-1,1v3.163c0,0.552,0.449,1,1,1h0.812c0.551,0,1-0.448,1-1V10.87c0-0.552-0.449-1-1-1H23.217z"/><path d="M23.537,27.59c-2.665,0-4.833-2.168-4.833-4.832c0-2.665,2.168-4.833,4.833-4.833s4.833,2.168,4.833,4.833C28.369,25.422,26.201,27.59,23.537,27.59z M23.537,19.925c-1.562,0-2.833,1.271-2.833,2.833c0,1.562,1.271,2.832,2.833,2.832s2.833-1.271,2.833-2.832C26.369,21.195,25.099,19.925,23.537,19.925z"/><path d="M1,24.722c-0.552,0-1-0.447-1-1v-1.427c0-1.654,1.346-3,3-3h1.994c0.552,0,1,0.447,1,1s-0.448,1-1,1H3c-0.551,0-1,0.448-1,1v1.427C2,24.274,1.552,24.722,1,24.722z"/><circle cx="23.623" cy="22.757" r="1.09"/></svg>