<svg xmlns="http://www.w3.org/2000/svg" viewBox="0 0 32 32"><!--! Font Icona - https://fonticona.com | License - https://fonticona.com/license | Copyright 2022 FontIcona.com --><path d="M16.085,22.665c-4.637,0-8.409-3.772-8.409-8.409s3.772-8.409,8.409-8.409s8.409,3.772,8.409,8.409S20.721,22.665,16.085,22.665z M16.085,7.847c-3.534,0-6.409,2.875-6.409,6.409s2.875,6.409,6.409,6.409s6.409-2.875,6.409-6.409S19.619,7.847,16.085,7.847z"/><path d="M16.085,32c-0.553,0-1-0.447-1-1v-9.335c0-0.553,0.447-1,1-1s1,0.447,1,1V31C17.085,31.552,16.637,32,16.085,32z"/><path d="M19.984,27.332h-7.798c-0.553,0-1-0.447-1-1s0.447-1,1-1h7.798c0.553,0,1,0.447,1,1S20.537,27.332,19.984,27.332z"/><path d="M21.615,10.041c-0.256,0-0.512-0.098-0.707-0.293c-0.391-0.391-0.391-1.023,0-1.414l7.82-7.821c0.391-0.391,1.023-0.391,1.414,0c0.391,0.391,0.391,1.023,0,1.414l-7.82,7.821C22.127,9.943,21.871,10.041,21.615,10.041z"/><path d="M29.631,8.137c-0.553,0-1-0.448-1-1V2h-5.137c-0.553,0-1-0.448-1-1s0.447-1,1-1h5.515c0.909,0,1.622,0.713,1.622,1.623v5.514C30.631,7.69,30.183,8.137,29.631,8.137z M29.009,2h0.01H29.009z"/><path d="M10.384,10.041c-0.256,0-0.512-0.098-0.707-0.293l-7.82-7.821c-0.391-0.391-0.391-1.023,0-1.414s1.023-0.391,1.414,0l7.82,7.821c0.391,0.391,0.391,1.023,0,1.414C10.895,9.943,10.639,10.041,10.384,10.041z"/><path d="M2.369,8.156c-0.553,0-1-0.448-1-1V1.642c0-0.91,0.713-1.623,1.622-1.623h5.515c0.553,0,1,0.448,1,1s-0.447,1-1,1H3.369v5.137C3.369,7.708,2.922,8.156,2.369,8.156z"/><path d="M5.042,10.829c-0.256,0-0.512-0.098-0.707-0.293c-0.391-0.391-0.391-1.023,0-1.414l6.137-6.137c0.391-0.391,1.023-0.391,1.414,0s0.391,1.023,0,1.414l-6.137,6.137C5.553,10.731,5.298,10.829,5.042,10.829z"/></svg>