<svg xmlns="http://www.w3.org/2000/svg" viewBox="0 0 32 32"><!--! Font Icona - https://fonticona.com | License - https://fonticona.com/license | Copyright 2022 FontIcona.com --><path d="M22.477,32H9.101c-0.467,0-0.871-0.322-0.975-0.777L3.383,10.437C3.314,10.14,3.386,9.828,3.575,9.591c0.19-0.238,0.478-0.377,0.782-0.377h22.863c0.305,0,0.592,0.139,0.782,0.377c0.189,0.237,0.261,0.549,0.192,0.846l-4.744,20.786C23.348,31.678,22.943,32,22.477,32z M9.898,30h11.78l4.288-18.786H5.611L9.898,30z"/><path d="M12.267,28.268c-0.456,0-0.868-0.313-0.974-0.777L8.271,14.27c-0.123-0.538,0.213-1.074,0.752-1.197c0.536-0.126,1.074,0.212,1.197,0.752l3.022,13.221c0.123,0.538-0.213,1.074-0.752,1.197C12.415,28.26,12.341,28.268,12.267,28.268z"/><path d="M19.334,28.268c-0.074,0-0.148-0.008-0.224-0.025c-0.538-0.123-0.875-0.659-0.752-1.197l3.021-13.221c0.123-0.54,0.658-0.878,1.197-0.752c0.538,0.123,0.875,0.659,0.752,1.197L20.308,27.49C20.202,27.954,19.79,28.268,19.334,28.268z"/><path d="M15.8,28.268c-0.553,0-1-0.447-1-1V14.146c0-0.553,0.447-1,1-1s1,0.447,1,1v13.121C16.8,27.82,16.353,28.268,15.8,28.268z"/><path d="M29.254,10.725c-0.553,0-1-0.447-1-1c0-2.552-0.755-3.999-1.055-4.145L4.734,5.592C4.501,5.726,3.746,7.173,3.746,9.725c0,0.553-0.447,1-1,1s-1-0.447-1-1c0-2.954,0.936-6.133,2.988-6.133h22.531c2.053,0,2.988,3.179,2.988,6.133C30.254,10.277,29.807,10.725,29.254,10.725z"/><path d="M29.254,10.725H2.746c-0.553,0-1-0.447-1-1s0.447-1,1-1h26.508c0.553,0,1,0.447,1,1S29.807,10.725,29.254,10.725z"/><path d="M12.523,4.97c-0.017,0-0.033,0-0.05-0.001c-0.552-0.027-0.977-0.496-0.95-1.048c0.11-2.267,2.035-4.036,4.313-3.916c2.161-0.126,4.1,1.655,4.218,3.913c0.028,0.551-0.396,1.021-0.947,1.051c-0.559,0.039-1.021-0.396-1.051-0.947c-0.061-1.165-1.031-2.057-2.224-2.019c-1.234-0.058-2.255,0.848-2.312,2.016C13.495,4.554,13.053,4.97,12.523,4.97z"/></svg>