<svg xmlns="http://www.w3.org/2000/svg" viewBox="0 0 32 32"><!--! Font Icona - https://fonticona.com | License - https://fonticona.com/license | Copyright 2022 FontIcona.com --><path d="M20.11,32C13.554,32,8.22,26.674,8.22,20.128S13.554,8.256,20.11,8.256c6.556,0,11.89,5.326,11.89,11.872S26.666,32,20.11,32z M20.11,10.256c-5.454,0-9.891,4.429-9.891,9.872S14.656,30,20.11,30c5.453,0,9.89-4.429,9.89-9.872S25.563,10.256,20.11,10.256z"/><path d="M11.982,13.476c-0.256,0-0.512-0.098-0.706-0.292L3.279,5.2C2.888,4.81,2.888,4.177,3.277,3.786c0.391-0.393,1.025-0.391,1.414-0.002l7.997,7.983c0.392,0.391,0.392,1.023,0.002,1.414C12.495,13.378,12.238,13.476,11.982,13.476z"/><path d="M1,8.473c-0.256,0-0.513-0.098-0.708-0.294c-0.39-0.391-0.39-1.023,0.002-1.414l6.483-6.473c0.389-0.389,1.023-0.391,1.414,0.002c0.39,0.391,0.39,1.023-0.002,1.414L1.706,8.181C1.512,8.375,1.256,8.473,1,8.473z"/></svg>