<svg xmlns="http://www.w3.org/2000/svg" viewBox="0 0 32 32"><!--! Font Icona - https://fonticona.com | License - https://fonticona.com/license | Copyright 2022 FontIcona.com --><path d="M18.446,8.759c-0.256,0-0.512-0.098-0.707-0.293c-0.391-0.391-0.391-1.023,0-1.414l6.759-6.759c0.391-0.391,1.023-0.391,1.414,0s0.391,1.023,0,1.414l-6.759,6.759C18.958,8.661,18.702,8.759,18.446,8.759z"/><path d="M24.67,25.111c-0.489,0-0.917-0.359-0.989-0.857l-2.845-19.73c-0.078-0.547,0.301-1.054,0.848-1.133c0.543-0.082,1.054,0.302,1.133,0.848l2.845,19.73c0.078,0.547-0.301,1.054-0.848,1.133C24.766,25.108,24.717,25.111,24.67,25.111z"/><path d="M30.184,26.331c-0.396,0-0.772-0.238-0.929-0.63L20.897,4.75c-0.205-0.513,0.045-1.095,0.559-1.299c0.508-0.204,1.094,0.045,1.299,0.559l8.357,20.951c0.205,0.513-0.045,1.095-0.559,1.299C30.433,26.309,30.308,26.331,30.184,26.331z"/><path d="M9.675,28.556h-5c-0.553,0-1-0.447-1-1s0.447-1,1-1h5c0.553,0,1,0.447,1,1S10.228,28.556,9.675,28.556z"/><path d="M27.325,28.556h-5c-0.553,0-1-0.447-1-1s0.447-1,1-1h5c0.553,0,1,0.447,1,1S27.878,28.556,27.325,28.556z"/><path d="M27.556,32H4.444C1.994,32,0,30.006,0,27.556c0-2.451,1.994-4.445,4.444-4.445h23.111c2.45,0,4.444,1.994,4.444,4.445C32,30.006,30.006,32,27.556,32z M4.444,25.111C3.097,25.111,2,26.207,2,27.556C2,28.904,3.097,30,4.444,30h23.111C28.903,30,30,28.904,30,27.556c0-1.349-1.097-2.445-2.444-2.445H4.444z"/></svg>