<svg xmlns="http://www.w3.org/2000/svg" viewBox="0 0 32 32"><!--! Font Icona - https://fonticona.com | License - https://fonticona.com/license | Copyright 2022 FontIcona.com --><path d="M17.525,20.624c-0.117,0-0.233-0.021-0.345-0.062L0.655,14.484c-0.4-0.147-0.663-0.531-0.655-0.958c0.009-0.426,0.286-0.8,0.691-0.932l10.536-3.42c0.202-0.064,0.418-0.065,0.62,0.001l16.146,5.287c0.397,0.13,0.672,0.494,0.688,0.912c0.017,0.418-0.229,0.802-0.616,0.962l-10.156,4.211C17.786,20.599,17.655,20.624,17.525,20.624z M4.058,13.604l13.446,4.946l7.301-3.027l-13.27-4.346L4.058,13.604z"/><path d="M17.525,31.822c-0.553,0-1-0.447-1-1V19.624c0-0.553,0.447-1,1-1s1,0.447,1,1v11.198C18.525,31.375,18.078,31.822,17.525,31.822z"/><path d="M17.509,31.821c-0.396,0-0.793-0.077-1.164-0.233L1.837,25.49C0.721,25.021,0,23.935,0,22.725v-9.179c0-0.553,0.447-1,1-1s1,0.447,1,1v9.179c0,0.403,0.24,0.766,0.612,0.922l14.508,6.098c0.251,0.104,0.54,0.104,0.79-0.006l8.174-3.6c0.363-0.16,0.598-0.519,0.598-0.915v-9.811c0-0.553,0.447-1,1-1s1,0.447,1,1v9.811c0,1.188-0.703,2.267-1.792,2.745l-8.173,3.6C18.334,31.737,17.921,31.821,17.509,31.821z"/><path d="M7.905,3.991c-0.105,0-0.213-0.018-0.318-0.054C7.076,3.761,6.793,3.225,6.955,2.709C7,2.564,8.119-0.821,14.023,0.187c0.544,0.092,0.91,0.608,0.817,1.153c-0.093,0.544-0.607,0.913-1.153,0.817C9.614,1.469,8.884,3.256,8.854,3.333C8.702,3.734,8.314,3.991,7.905,3.991z"/><path d="M27.465,16.413c-0.328,0-0.649-0.161-0.841-0.458c-0.3-0.464-0.167-1.082,0.298-1.382c3.862-2.494,3.004-5.716,2.995-5.748c-0.618-2.092-2.036-3.151-2.439-3.418L13.626,2.146c-0.537-0.127-0.87-0.665-0.744-1.203c0.127-0.537,0.667-0.867,1.203-0.744l14.01,3.3c0.091,0.021,0.179,0.056,0.26,0.102c0.103,0.058,2.532,1.452,3.483,4.67c0.057,0.201,1.259,4.696-3.832,7.983C27.839,16.361,27.65,16.413,27.465,16.413z"/><path d="M27.464,16.413c-0.102,0-0.203-0.016-0.303-0.047l-15.991-5.08c-0.261-0.083-0.477-0.27-0.597-0.516L7.01,3.445C6.769,2.948,6.975,2.351,7.472,2.108c0.497-0.24,1.096-0.033,1.337,0.462l3.376,6.939l13.444,4.271L22.645,7.18c-0.215-0.475-0.028-1.035,0.428-1.287l4.153-2.296c0.484-0.27,1.091-0.091,1.358,0.392c0.268,0.483,0.092,1.092-0.392,1.358l-3.346,1.85l3.528,7.805c0.163,0.36,0.099,0.781-0.164,1.077C28.019,16.295,27.744,16.413,27.464,16.413z"/><path d="M23.557,7.768c-0.077,0-0.156-0.009-0.234-0.027L7.676,3.98C7.139,3.852,6.808,3.312,6.937,2.774s0.671-0.867,1.206-0.739l15.646,3.76c0.537,0.129,0.868,0.669,0.739,1.206C24.418,7.46,24.008,7.768,23.557,7.768z"/><path d="M7.127,20.624c-0.553,0-1-0.447-1-1V15.8c0-0.553,0.447-1,1-1s1,0.447,1,1v3.824C8.127,20.177,7.68,20.624,7.127,20.624z"/><path d="M11.034,21.971c-0.553,0-1-0.447-1-1v-3.734c0-0.553,0.447-1,1-1s1,0.447,1,1v3.734C12.034,21.523,11.587,21.971,11.034,21.971z"/><path d="M11.034,21.971c-0.108,0-0.218-0.018-0.326-0.055l-3.907-1.347c-0.521-0.18-0.799-0.749-0.619-1.271s0.748-0.799,1.271-0.619l3.907,1.347c0.521,0.18,0.799,0.749,0.619,1.271C11.837,21.711,11.449,21.971,11.034,21.971z"/></svg>