<svg xmlns="http://www.w3.org/2000/svg" viewBox="0 0 32 32"><!--! Font Icona - https://fonticona.com | License - https://fonticona.com/license | Copyright 2022 FontIcona.com --><path d="M21.345,2.392c0.705-0.012,1.406,0.106,2.069,0.348c-2.429,1.363-4.508,3.271-6.075,5.574c2.058-1.195,4.373-1.878,6.75-1.992c2.462-0.13,4.75,1.267,5.759,3.516c-1.46-0.287-2.943-0.433-4.431-0.435c-2.032-0.038-4.056,0.264-5.988,0.893c7.686,2.58,5.683,7.621,5.683,7.621c-2.395-3.364-7.36-5.237-7.36-5.237c1.886,5.432,2.627,11.196,2.177,16.929h-5.552c1.23-2.689,1.089-16.788,1.089-16.788c-6.706,4.115-8.633,8.231-8.633,8.231c-3.582-4.202,5.639-9.504,5.639-9.504c-6.728,0-10.31,3.266-10.31,3.266c0.37-4.866,4.91-5.727,8.089-5.727c1.033-0.002,2.063,0.085,3.081,0.261c-1.698-2.33-8.143-3.266-8.143-3.266C6.433,5,8.015,4.384,9.664,4.34c1.88,0.068,3.673,0.81,5.052,2.09C16.98,3.088,19.604,2.392,21.345,2.392 M21.345,0.214L21.345,0.214c-2.699,0.053-5.251,1.238-7.033,3.266c-1.408-0.837-3.011-1.291-4.649-1.317C7.537,2.2,5.488,2.969,3.861,4.34C2.922,5.091,2.769,6.461,3.52,7.401c0.224,0.28,0.513,0.5,0.842,0.641c-2.563,1.187-4.244,3.71-4.355,6.532C-0.064,15.46,0.41,16.3,1.205,16.697c0.301,0.15,0.633,0.228,0.969,0.229c0.534-0.001,1.05-0.199,1.448-0.555c0.387-0.306,0.798-0.579,1.23-0.817c-0.452,0.744-0.769,1.562-0.936,2.417c-0.281,1.604,0.189,3.249,1.274,4.464c0.414,0.484,1.018,0.762,1.655,0.762c0.094,0.011,0.189,0.011,0.283,0c0.735-0.088,1.374-0.543,1.698-1.208c1.16-1.923,2.679-3.605,4.475-4.954c-0.087,5.378-0.392,10.582-0.904,11.682c-0.493,1.097-0.004,2.386,1.093,2.879c0.279,0.126,0.582,0.191,0.888,0.191h5.574c1.097,0.01,2.029-0.797,2.177-1.883c0.383-4.301,0.07-8.635-0.925-12.836c0.833,0.585,1.568,1.297,2.177,2.112c0.409,0.574,1.07,0.915,1.775,0.915h0.261c0.779-0.113,1.437-0.637,1.72-1.372c0.595-1.722,0.497-3.607-0.272-5.258c-0.317-0.681-0.731-1.311-1.23-1.873c1.265,0.01,2.526,0.138,3.767,0.381c0.138,0.011,0.276,0.011,0.414,0c1.203,0.004,2.181-0.968,2.184-2.17c0.001-0.263-0.046-0.523-0.138-0.769C30.676,6.27,28.046,4.4,25.047,4.188c0.374-0.418,0.573-0.964,0.555-1.524c-0.03-0.855-0.558-1.613-1.35-1.938C23.324,0.374,22.338,0.201,21.345,0.214z"/></svg>