<svg xmlns="http://www.w3.org/2000/svg" viewBox="0 0 32 32"><!--! Font Icona - https://fonticona.com | License - https://fonticona.com/license | Copyright 2022 FontIcona.com --><path d="M29,32H3c-1.654,0-3-1.346-3-3V3c0-1.654,1.346-3,3-3h26c1.654,0,3,1.346,3,3v26C32,30.654,30.654,32,29,32z M3,2C2.449,2,2,2.448,2,3v26c0,0.552,0.449,1,1,1h26c0.551,0,1-0.448,1-1V3c0-0.552-0.449-1-1-1H3z"/><path d="M11.776,24.634H8.445c-1.654,0-3-1.346-3-3V8.694c0-1.654,1.346-3,3-3h3.331c1.654,0,3,1.346,3,3v12.939C14.776,23.288,13.43,24.634,11.776,24.634z M8.445,7.694c-0.551,0-1,0.448-1,1v12.939c0,0.552,0.449,1,1,1h3.331c0.551,0,1-0.448,1-1V8.694c0-0.552-0.449-1-1-1H8.445z"/><path d="M23.875,18.156h-3.331c-1.654,0-3-1.346-3-3V8.694c0-1.654,1.346-3,3-3h3.331c1.654,0,3,1.346,3,3v6.462C26.875,16.811,25.53,18.156,23.875,18.156z M20.544,7.694c-0.551,0-1,0.448-1,1v6.462c0,0.552,0.449,1,1,1h3.331c0.551,0,1-0.448,1-1V8.694c0-0.552-0.449-1-1-1H20.544z"/></svg>