<svg xmlns="http://www.w3.org/2000/svg" viewBox="0 0 32 32"><!--! Font Icona - https://fonticona.com | License - https://fonticona.com/license | Copyright 2022 FontIcona.com --><path d="M28.916,31.997H3.084c-1.076,0-2.056-0.546-2.622-1.462c-0.565-0.915-0.616-2.035-0.135-2.998L13.243,1.706C13.769,0.655,14.825,0.003,16,0.003s2.231,0.652,2.757,1.703l0,0l12.915,25.831c0.481,0.963,0.431,2.083-0.135,2.998C30.972,31.451,29.992,31.997,28.916,31.997z M16,2.003c-0.419,0-0.781,0.224-0.968,0.598L2.117,28.432c-0.171,0.343-0.154,0.727,0.047,1.053c0.202,0.326,0.537,0.513,0.92,0.513h25.831c0.383,0,0.719-0.187,0.92-0.513c0.201-0.326,0.218-0.71,0.047-1.053L16.968,2.601C16.781,2.227,16.419,2.003,16,2.003z"/><path d="M16,22.699c-0.552,0-1-0.447-1-1V9.855c0-0.553,0.448-1,1-1s1,0.447,1,1v11.844C17,22.252,16.552,22.699,16,22.699z"/><circle cx="16" cy="25.794" r="1.25"/></svg>