<svg xmlns="http://www.w3.org/2000/svg" viewBox="0 0 32 32"><!--! Font Icona - https://fonticona.com | License - https://fonticona.com/license | Copyright 2022 FontIcona.com --><path d="M8.982,20.557c-1.906,0-3.456-1.551-3.456-3.456c0-1.906,1.55-3.457,3.456-3.457s3.456,1.551,3.456,3.457C12.438,19.006,10.888,20.557,8.982,20.557z M8.982,15.644c-0.803,0-1.456,0.653-1.456,1.457c0,0.803,0.653,1.456,1.456,1.456s1.456-0.653,1.456-1.456C10.438,16.297,9.785,15.644,8.982,15.644z"/><path d="M8.982,23.925c-3.763,0-6.825-3.062-6.825-6.824c0-3.764,3.062-6.825,6.825-6.825s6.825,3.062,6.825,6.825C15.807,20.863,12.746,23.925,8.982,23.925z M8.982,12.275c-2.66,0-4.825,2.165-4.825,4.825s2.165,4.824,4.825,4.824s4.825-2.164,4.825-4.824S11.643,12.275,8.982,12.275z"/><path d="M23.018,20.557c-1.906,0-3.456-1.551-3.456-3.456c0-1.906,1.55-3.457,3.456-3.457s3.456,1.551,3.456,3.457C26.474,19.006,24.923,20.557,23.018,20.557z M23.018,15.644c-0.803,0-1.456,0.653-1.456,1.457c0,0.803,0.653,1.456,1.456,1.456s1.456-0.653,1.456-1.456C24.474,16.297,23.82,15.644,23.018,15.644z"/><path d="M23.018,23.925c-3.763,0-6.825-3.062-6.825-6.824c0-3.764,3.062-6.825,6.825-6.825s6.825,3.062,6.825,6.825C29.842,20.863,26.781,23.925,23.018,23.925z M23.018,12.275c-2.66,0-4.825,2.165-4.825,4.825s2.165,4.824,4.825,4.824s4.825-2.164,4.825-4.824S25.678,12.275,23.018,12.275z"/><path d="M16.049,25.469c-0.307,0-0.597-0.141-0.786-0.382l-2.694-3.43c-0.341-0.435-0.266-1.063,0.168-1.404c0.434-0.342,1.063-0.267,1.404,0.168l1.894,2.41l1.814-2.396c0.333-0.439,0.959-0.527,1.401-0.193c0.44,0.333,0.527,0.96,0.194,1.4l-2.597,3.43c-0.187,0.247-0.479,0.394-0.789,0.396C16.055,25.469,16.052,25.469,16.049,25.469z"/><path d="M26.928,13.559c-0.321,0-0.636-0.154-0.829-0.439c-0.31-0.457-0.19-1.079,0.268-1.389l1.372-0.929H25.14c-0.093,0-0.186-0.013-0.275-0.038c-0.067-0.02-0.135-0.047-0.196-0.079c-5.429-2.873-11.909-2.873-17.338,0c-0.071,0.038-0.147,0.066-0.225,0.086c-0.08,0.021-0.165,0.031-0.247,0.031H4.261l1.372,0.929c0.458,0.31,0.577,0.932,0.268,1.389c-0.31,0.457-0.931,0.577-1.389,0.268L0.439,10.63c-0.364-0.246-0.524-0.701-0.396-1.121S0.561,8.802,1,8.802h5.616c5.895-3.029,12.873-3.029,18.768,0H31c0.439,0,0.827,0.287,0.956,0.707s-0.032,0.875-0.396,1.121l-4.073,2.757C27.316,13.503,27.121,13.559,26.928,13.559z"/></svg>