<svg xmlns="http://www.w3.org/2000/svg" viewBox="0 0 32 32"><!--! Font Icona - https://fonticona.com | License - https://fonticona.com/license | Copyright 2022 FontIcona.com --><path d="M29,24.241h-0.959c-0.553,0-1-0.448-1-1s0.447-1,1-1H29c0.552,0,1-0.449,1-1v-1.92c-0.008-0.222-0.167-0.443-0.405-0.533l-2.363-0.807c-0.87-0.34-1.585-0.891-2.108-1.609L22.534,12.5c-0.191-0.253-0.532-0.436-0.902-0.457l-4.38,0.001c-0.553,0-1-0.448-1-1s0.447-1,1-1h4.438c1.018,0.057,1.899,0.53,2.477,1.301l2.596,3.881c0.276,0.376,0.685,0.691,1.157,0.876l2.35,0.802c1.027,0.384,1.696,1.315,1.73,2.383L32,21.241C32,22.896,30.654,24.241,29,24.241z"/><path d="M22.196,24.21H9.783c-0.553,0-1-0.448-1-1s0.447-1,1-1h12.413c0.553,0,1,0.448,1,1S22.749,24.21,22.196,24.21z"/><path d="M25.124,27.127c-2.16,0-3.917-1.757-3.917-3.917c0-2.16,1.757-3.917,3.917-3.917s3.917,1.757,3.917,3.917C29.041,25.37,27.284,27.127,25.124,27.127z M25.124,21.293c-1.057,0-1.917,0.86-1.917,1.917s0.86,1.917,1.917,1.917s1.917-0.86,1.917-1.917S26.181,21.293,25.124,21.293z"/><path d="M6.835,27.127c-2.16,0-3.918-1.757-3.918-3.917c0-2.16,1.758-3.917,3.918-3.917s3.917,1.757,3.917,3.917C10.752,25.37,8.995,27.127,6.835,27.127z M6.835,21.293c-1.058,0-1.918,0.86-1.918,1.917s0.86,1.917,1.918,1.917c1.057,0,1.917-0.86,1.917-1.917S7.892,21.293,6.835,21.293z"/><path d="M26.838,17.657h-7.586c-1.654,0-3-1.346-3-3v-3.612c0-0.552,0.447-1,1-1s1,0.448,1,1v3.612c0,0.551,0.448,1,1,1h7.586c0.553,0,1,0.448,1,1S27.391,17.657,26.838,17.657z"/><path d="M3.938,23.869H3c-1.654,0-3-1.346-3-3v-3.917c0-0.552,0.447-1,1-1s1,0.448,1,1v3.917c0,0.551,0.448,1,1,1h0.938c0.553,0,1,0.448,1,1S4.49,23.869,3.938,23.869z"/><path d="M2,16.952H0V7.873c0-1.654,1.346-3,3-3h12.252c1.654,0,3,1.346,3,3v6.648h-2V7.873c0-0.551-0.448-1-1-1H3c-0.552,0-1,0.449-1,1V16.952z"/></svg>