<svg xmlns="http://www.w3.org/2000/svg" viewBox="0 0 32 32"><!--! Font Icona - https://fonticona.com | License - https://fonticona.com/license | Copyright 2022 FontIcona.com --><path d="M3.731,18.536H3.07c-0.995,0-1.932-0.485-2.506-1.298c-0.574-0.813-0.719-1.858-0.386-2.796l0.902-2.695c0.418-1.255,1.588-2.099,2.911-2.099h3.568c0.553,0,1,0.447,1,1s-0.447,1-1,1H3.992c-0.461,0-0.868,0.294-1.013,0.73L2.063,15.11c-0.117,0.332-0.068,0.687,0.135,0.974c0.202,0.287,0.521,0.452,0.872,0.452h0.661c0.553,0,1,0.447,1,1S4.284,18.536,3.731,18.536z"/><path d="M18.846,18.536h-5.569c-0.553,0-1-0.447-1-1s0.447-1,1-1h5.569c0.553,0,1,0.447,1,1S19.398,18.536,18.846,18.536z"/><path d="M13.896,11.648H3.938c-0.553,0-1-0.447-1-1s0.447-1,1-1h9.958c0.553,0,1,0.447,1,1S14.449,11.648,13.896,11.648z"/><path d="M8.692,27.26c-3.734,0-6.772-3.038-6.772-6.772s3.038-6.772,6.772-6.772c3.735,0,6.773,3.038,6.773,6.772S12.428,27.26,8.692,27.26z M8.692,15.715c-2.632,0-4.772,2.141-4.772,4.772s2.141,4.772,4.772,4.772s4.773-2.141,4.773-4.772S11.324,15.715,8.692,15.715z"/><path d="M8.692,16.454c-0.553,0-1-0.447-1-1v-0.518c0-0.553,0.447-1,1-1s1,0.447,1,1v0.518C9.692,16.007,9.245,16.454,8.692,16.454z"/><path d="M5.458,17.632c-0.286,0-0.57-0.122-0.768-0.358l-0.332-0.396c-0.354-0.423-0.299-1.054,0.125-1.408c0.424-0.356,1.056-0.298,1.408,0.125l0.332,0.396c0.354,0.423,0.299,1.054-0.125,1.408C5.912,17.556,5.684,17.632,5.458,17.632z"/><path d="M3.736,20.613c-0.058,0-0.116-0.005-0.175-0.016l-0.509-0.09c-0.544-0.096-0.907-0.614-0.811-1.158c0.095-0.544,0.615-0.911,1.158-0.811l0.509,0.09c0.544,0.096,0.907,0.614,0.811,1.158C4.635,20.272,4.213,20.613,3.736,20.613z"/><path d="M3.887,24.263c-0.346,0-0.682-0.179-0.867-0.5c-0.276-0.479-0.112-1.09,0.366-1.366l0.448-0.259C4.31,21.86,4.923,22.024,5.2,22.504c0.276,0.479,0.112,1.09-0.366,1.366l-0.448,0.259C4.229,24.22,4.057,24.263,3.887,24.263z"/><path d="M6.794,26.703c-0.114,0-0.23-0.02-0.344-0.061c-0.519-0.19-0.785-0.765-0.596-1.283l0.178-0.485c0.19-0.519,0.768-0.782,1.283-0.596c0.519,0.19,0.785,0.765,0.596,1.283l-0.178,0.485C7.585,26.452,7.201,26.703,6.794,26.703z"/><path d="M10.591,26.703c-0.408,0-0.792-0.252-0.939-0.658L9.475,25.56c-0.189-0.519,0.078-1.093,0.598-1.281c0.518-0.189,1.093,0.079,1.281,0.598l0.177,0.485c0.189,0.519-0.078,1.093-0.598,1.281C10.82,26.684,10.704,26.703,10.591,26.703z"/><path d="M13.499,24.263c-0.17,0-0.342-0.043-0.499-0.134l-0.448-0.259c-0.479-0.276-0.643-0.888-0.366-1.366c0.276-0.478,0.889-0.644,1.366-0.366L14,22.396c0.479,0.276,0.643,0.888,0.366,1.366C14.181,24.083,13.845,24.263,13.499,24.263z"/><path d="M13.649,20.613c-0.477,0-0.898-0.341-0.983-0.826c-0.097-0.544,0.267-1.062,0.811-1.158l0.509-0.09c0.542-0.101,1.062,0.267,1.158,0.811c0.097,0.544-0.267,1.062-0.811,1.158l-0.509,0.09C13.766,20.608,13.707,20.613,13.649,20.613z"/><path d="M11.928,17.632c-0.227,0-0.454-0.076-0.641-0.233c-0.424-0.354-0.479-0.985-0.125-1.408l0.332-0.396c0.354-0.424,0.986-0.479,1.408-0.125c0.424,0.354,0.479,0.985,0.125,1.408l-0.332,0.396C12.498,17.51,12.214,17.632,11.928,17.632z"/><path d="M23.806,27.26c-3.735,0-6.773-3.038-6.773-6.772s3.038-6.772,6.773-6.772c3.734,0,6.772,3.038,6.772,6.772S27.54,27.26,23.806,27.26z M23.806,15.715c-2.632,0-4.773,2.141-4.773,4.772s2.142,4.772,4.773,4.772s4.772-2.141,4.772-4.772S26.438,15.715,23.806,15.715z"/><path d="M23.806,16.454c-0.553,0-1-0.447-1-1v-0.518c0-0.553,0.447-1,1-1s1,0.447,1,1v0.518C24.806,16.007,24.358,16.454,23.806,16.454z"/><path d="M20.57,17.632c-0.286,0-0.57-0.122-0.768-0.358l-0.332-0.396c-0.354-0.423-0.299-1.054,0.125-1.408c0.424-0.356,1.056-0.298,1.408,0.125l0.332,0.396c0.354,0.423,0.299,1.054-0.125,1.408C21.024,17.556,20.796,17.632,20.57,17.632z"/><path d="M18.85,20.613c-0.058,0-0.116-0.005-0.175-0.016l-0.51-0.09c-0.544-0.096-0.907-0.614-0.811-1.158c0.096-0.544,0.614-0.911,1.158-0.811l0.51,0.09c0.544,0.096,0.907,0.614,0.811,1.158C19.748,20.272,19.326,20.613,18.85,20.613z"/><path d="M18.999,24.263c-0.346,0-0.682-0.179-0.867-0.5c-0.276-0.479-0.112-1.09,0.366-1.366l0.448-0.259c0.477-0.277,1.09-0.113,1.366,0.366c0.276,0.479,0.112,1.09-0.366,1.366l-0.448,0.259C19.341,24.22,19.169,24.263,18.999,24.263z"/><path d="M21.907,26.703c-0.113,0-0.229-0.02-0.342-0.061c-0.52-0.188-0.787-0.763-0.598-1.281l0.177-0.485c0.188-0.519,0.766-0.786,1.281-0.598c0.52,0.188,0.787,0.763,0.598,1.281l-0.177,0.485C22.699,26.451,22.315,26.703,21.907,26.703z"/><path d="M25.704,26.703c-0.408,0-0.792-0.252-0.939-0.658l-0.177-0.485c-0.189-0.519,0.078-1.093,0.598-1.281c0.517-0.189,1.093,0.079,1.281,0.598l0.177,0.485c0.189,0.519-0.078,1.093-0.598,1.281C25.934,26.684,25.817,26.703,25.704,26.703z"/><path d="M28.611,24.263c-0.17,0-0.342-0.043-0.499-0.134l-0.448-0.259c-0.479-0.276-0.643-0.888-0.366-1.366c0.276-0.478,0.888-0.644,1.366-0.366l0.448,0.259c0.479,0.276,0.643,0.888,0.366,1.366C29.293,24.083,28.957,24.263,28.611,24.263z"/><path d="M28.762,20.613c-0.477,0-0.898-0.341-0.983-0.826c-0.097-0.544,0.267-1.062,0.811-1.158l0.509-0.09c0.541-0.101,1.063,0.267,1.158,0.811c0.097,0.544-0.267,1.062-0.811,1.158l-0.509,0.09C28.878,20.608,28.819,20.613,28.762,20.613z"/><path d="M27.04,17.632c-0.227,0-0.454-0.076-0.641-0.233c-0.424-0.354-0.479-0.985-0.125-1.408l0.332-0.396c0.354-0.424,0.986-0.479,1.408-0.125c0.424,0.354,0.479,0.985,0.125,1.408l-0.332,0.396C27.61,17.51,27.326,17.632,27.04,17.632z"/><path d="M29.966,18.536h-1.199c-0.553,0-1-0.447-1-1s0.447-1,1-1h1.199l-1.064-4.671c-0.01-0.04-0.017-0.08-0.021-0.121c-0.035-0.037-0.104-0.091-0.191-0.129l-14.768,0.033c0,0-0.001,0-0.002,0c-0.265,0-0.519-0.105-0.706-0.292c-0.188-0.188-0.294-0.442-0.294-0.708V6.848c0-1.162,0.945-2.107,2.107-2.107h5.484c0.87,0.011,1.7,0.325,2.349,0.886c0.026,0.022,0.052,0.047,0.075,0.072l2.582,2.747c0.293,0.268,0.713,0.497,1.163,0.614l2.4,0.584c0.987,0.251,1.711,1.013,1.787,1.847l1.077,4.542c0.145,0.608,0.005,1.239-0.383,1.73C31.173,18.254,30.592,18.536,29.966,18.536z M20.498,6.74h-5.472c-0.06,0-0.107,0.048-0.107,0.107v2.799l8.967-0.021L21.518,7.11C21.23,6.876,20.87,6.745,20.498,6.74z"/></svg>