<svg xmlns="http://www.w3.org/2000/svg" viewBox="0 0 32 32"><!--! Font Icona - https://fonticona.com | License - https://fonticona.com/license | Copyright 2022 FontIcona.com --><path d="M29.929,21.538h-2.438c-0.553,0-1-0.448-1-1s0.447-1,1-1h2.438c0.039,0,0.071-0.032,0.071-0.071v-2.775c-0.007-0.197-0.148-0.406-0.359-0.5l-2.089-0.781c-0.819-0.353-1.478-0.9-1.947-1.601l-2.346-3.815c-0.151-0.22-0.432-0.382-0.744-0.405l-5.851,0.003c-0.553,0-1-0.448-1-1s0.447-1,1-1h5.925c0.998,0.072,1.827,0.55,2.348,1.316l2.351,3.821c0.234,0.348,0.592,0.646,1.013,0.827l2.099,0.786c0.961,0.426,1.568,1.327,1.601,2.317L32,19.466C32,20.608,31.071,21.538,29.929,21.538z"/><path d="M2.703,21.538C1.213,21.538,0,20.325,0,18.834v-1.061c0-0.552,0.447-1,1-1s1,0.448,1,1v1.061c0,0.388,0.315,0.704,0.703,0.704c0.553,0,1,0.448,1,1S3.256,21.538,2.703,21.538z"/><path d="M21.748,21.538h-9.776c-0.553,0-1-0.448-1-1s0.447-1,1-1h9.776c0.553,0,1,0.448,1,1S22.301,21.538,21.748,21.538z"/><path d="M24.62,24.409c-2.135,0-3.872-1.736-3.872-3.871s1.737-3.872,3.872-3.872s3.871,1.737,3.871,3.872S26.755,24.409,24.62,24.409z M24.62,18.666c-1.032,0-1.872,0.839-1.872,1.872c0,1.032,0.84,1.871,1.872,1.871c1.031,0,1.871-0.839,1.871-1.871C26.491,19.505,25.651,18.666,24.62,18.666z"/><path d="M8.356,24.409c-2.135,0-3.871-1.736-3.871-3.871s1.736-3.872,3.871-3.872s3.871,1.737,3.871,3.872S10.491,24.409,8.356,24.409z M8.356,18.666c-1.031,0-1.871,0.839-1.871,1.872c0,1.032,0.84,1.871,1.871,1.871s1.871-0.839,1.871-1.871C10.228,19.505,9.388,18.666,8.356,18.666z"/><path d="M26.832,14.745H16.664c-0.553,0-1-0.448-1-1V8.591c0-0.552,0.447-1,1-1s1,0.448,1,1v4.153h9.168c0.553,0,1,0.448,1,1S27.385,14.745,26.832,14.745z"/><path d="M1,18.848c-0.553,0-1-0.448-1-1v-2.104c0-1.654,1.346-3,3-3h15.539c0.553,0,1,0.448,1,1s-0.447,1-1,1H3c-0.552,0-1,0.449-1,1v2.104C2,18.4,1.553,18.848,1,18.848z"/><path d="M5.485,21.538H2.703c-0.553,0-1-0.448-1-1s0.447-1,1-1h2.782c0.553,0,1,0.448,1,1S6.038,21.538,5.485,21.538z"/></svg>