<svg xmlns="http://www.w3.org/2000/svg" viewBox="0 0 32 32"><!--! Font Icona - https://fonticona.com | License - https://fonticona.com/license | Copyright 2022 FontIcona.com --><path d="M29.722,11.878c-0.924,0-1.928-0.608-2.344-0.859c-1.195-0.723-2.589-1.857-3.924-3.193c-1.291-1.291-5.365-5.638-3.614-7.389c1.042-1.044,2.864,0.06,3.463,0.421c1.195,0.724,2.589,1.857,3.924,3.193l0,0c1.336,1.336,2.47,2.73,3.193,3.925c0.362,0.599,1.464,2.421,0.421,3.464C30.521,11.76,30.129,11.878,29.722,11.878z M21.606,2.204c0.405,0.856,1.431,2.377,3.261,4.208c1.83,1.83,3.35,2.857,4.207,3.261c-0.405-0.856-1.431-2.377-3.261-4.208l0,0C23.983,3.636,22.463,2.609,21.606,2.204z"/><path d="M18.911,23.636c-0.256,0-0.512-0.098-0.707-0.293l-8.133-8.133c-0.391-0.391-0.391-1.023,0-1.414s1.023-0.391,1.414,0l8.133,8.133c0.391,0.391,0.391,1.023,0,1.414C19.423,23.539,19.167,23.636,18.911,23.636z"/><path d="M10.108,16.173c-0.256,0-0.512-0.098-0.707-0.293c-0.391-0.391-0.391-1.023,0-1.414l1.339-1.339c0.391-0.391,1.023-0.391,1.414,0s0.391,1.023,0,1.414l-1.339,1.339C10.62,16.075,10.364,16.173,10.108,16.173z"/><path d="M6.602,19.68c-0.256,0-0.512-0.098-0.707-0.293c-0.391-0.391-0.391-1.023,0-1.414l1.339-1.339c0.391-0.391,1.023-0.391,1.414,0s0.391,1.023,0,1.414l-1.339,1.339C7.114,19.582,6.858,19.68,6.602,19.68z"/><path d="M15.347,27.085c-0.256,0-0.512-0.098-0.707-0.293l-8.073-8.073c-0.391-0.391-0.391-1.023,0-1.414s1.023-0.391,1.414,0l8.073,8.073c0.391,0.391,0.391,1.023,0,1.414C15.858,26.987,15.603,27.085,15.347,27.085z"/><path d="M12.414,29.01c-0.991,0-1.923-0.386-2.624-1.087c-0.701-0.701-1.087-1.633-1.087-2.624c0-0.992,0.386-1.924,1.087-2.625l5.652-5.652c1.447-1.447,3.802-1.447,5.249,0c1.447,1.447,1.447,3.802,0,5.249l0,0l-5.652,5.652C14.338,28.624,13.406,29.01,12.414,29.01z M18.066,17.936c-0.438,0-0.877,0.167-1.21,0.5l-5.652,5.652c-0.323,0.323-0.501,0.753-0.501,1.21c0,0.457,0.178,0.887,0.501,1.21c0.646,0.646,1.774,0.646,2.42,0l5.652-5.652c0.667-0.667,0.667-1.753,0-2.421C18.943,18.102,18.505,17.936,18.066,17.936z M19.984,21.563h0.01H19.984z"/><path d="M12.421,31.997c-1.717,0-3.435-0.654-4.743-1.961c-0.787-0.787-1.37-1.763-1.686-2.822c-0.158-0.529,0.143-1.086,0.672-1.244c0.53-0.16,1.086,0.143,1.244,0.672c0.222,0.743,0.631,1.427,1.183,1.979c1.836,1.835,4.823,1.837,6.658,0.001l5.64-5.64c1.835-1.835,1.835-4.822,0-6.657c-1.837-1.837-4.824-1.835-6.659-0.001l-5.64,5.64c-0.391,0.391-1.023,0.391-1.414,0s-0.391-1.023,0-1.414l5.64-5.64c2.615-2.615,6.87-2.615,9.485,0c2.616,2.617,2.616,6.872,0.001,9.487l-5.64,5.64C15.856,31.343,14.139,31.997,12.421,31.997z"/><path d="M20.381,14.902c-0.256,0-0.512-0.098-0.707-0.293c-0.391-0.391-0.391-1.023,0-1.414c1.859-1.859,4.203-3.77,7.482-3.836l1.215,0.052c0.552,0.024,0.979,0.491,0.955,1.043c-0.023,0.552-0.485,0.974-1.043,0.955l-1.151-0.051c-2.5,0.053-4.387,1.594-6.044,3.251C20.893,14.804,20.637,14.902,20.381,14.902z"/><path d="M13.669,16.97c-0.256,0-0.512-0.098-0.707-0.293c-0.391-0.391-0.391-1.023,0-1.414l3.659-3.659c2.217-2.217,3.477-5.131,3.457-7.995c0-0.077-0.002-0.127-0.003-0.161c-0.055-0.355,0.083-0.728,0.392-0.957c0.443-0.331,1.069-0.237,1.399,0.207c0.207,0.279,0.209,0.551,0.212,0.896c0.024,3.397-1.45,6.832-4.043,9.424l-3.659,3.659C14.181,16.873,13.925,16.97,13.669,16.97z"/><path d="M4.249,30.629L4.249,30.629c-0.266,0-0.52-0.105-0.707-0.293l-2.134-2.135c-0.188-0.188-0.293-0.443-0.293-0.708s0.106-0.52,0.294-0.708l6.605-6.575c0.392-0.39,1.024-0.388,1.415,0.003c0.389,0.392,0.388,1.025-0.003,1.415L3.53,27.497l0.718,0.718l8.576-8.575c0.391-0.391,1.023-0.391,1.414,0s0.391,1.023,0,1.414l-9.283,9.282C4.768,30.524,4.514,30.629,4.249,30.629z"/><path d="M4.641,31.022c-0.256,0-0.512-0.098-0.707-0.293L1.015,27.81c-0.391-0.39-0.391-1.023,0-1.414s1.023-0.391,1.414,0l2.919,2.919c0.391,0.39,0.391,1.023,0,1.414C5.153,30.924,4.897,31.022,4.641,31.022z"/></svg>