<svg xmlns="http://www.w3.org/2000/svg" viewBox="0 0 32 32"><!--! Font Icona - https://fonticona.com | License - https://fonticona.com/license | Copyright 2022 FontIcona.com --><path d="M19.546,26.354h-1c-0.553,0-1-0.448-1-1s0.447-1,1-1h1c0.553,0,1,0.448,1,1S20.099,26.354,19.546,26.354z"/><path d="M13.454,26.354h-1c-0.553,0-1-0.448-1-1s0.447-1,1-1h1c0.553,0,1,0.448,1,1S14.007,26.354,13.454,26.354z"/><path d="M7.361,26.354h-1c-0.553,0-1-0.448-1-1s0.447-1,1-1h1c0.553,0,1,0.448,1,1S7.914,26.354,7.361,26.354z"/><path d="M25.639,26.354h-1c-0.553,0-1-0.448-1-1s0.447-1,1-1h1c0.553,0,1,0.448,1,1S26.191,26.354,25.639,26.354z"/><path d="M16.5,21.574h-1c-0.553,0-1-0.448-1-1s0.447-1,1-1h1c0.553,0,1,0.448,1,1S17.053,21.574,16.5,21.574z"/><path d="M10.692,21.574h-1c-0.553,0-1-0.448-1-1s0.447-1,1-1h1c0.553,0,1,0.448,1,1S11.245,21.574,10.692,21.574z"/><path d="M4.884,21.574h-1c-0.553,0-1-0.448-1-1s0.447-1,1-1h1c0.553,0,1,0.448,1,1S5.437,21.574,4.884,21.574z"/><path d="M22.308,21.574h-1c-0.553,0-1-0.448-1-1s0.447-1,1-1h1c0.553,0,1,0.448,1,1S22.86,21.574,22.308,21.574z"/><path d="M28.116,21.574h-1c-0.553,0-1-0.448-1-1s0.447-1,1-1h1c0.553,0,1,0.448,1,1S28.669,21.574,28.116,21.574z"/><path d="M28.975,15.237h-4.456c-0.846,0-1.656-0.36-2.224-0.988s-0.844-1.471-0.758-2.313l0.162-1.584l-11.401,0.002l0.163,1.585c0.085,0.842-0.191,1.684-0.759,2.312c-0.566,0.627-1.377,0.987-2.223,0.987H3.025c-1.531,0-2.812-1.148-2.979-2.67c-0.235-2.158,0.461-4.321,1.909-5.936c1.448-1.615,3.523-2.541,5.692-2.541h16.706c2.169,0,4.244,0.926,5.692,2.542s2.144,3.778,1.908,5.935C31.786,14.089,30.506,15.237,28.975,15.237z M10.298,8.353h11.403c0.563,0,1.104,0.24,1.482,0.658s0.562,0.98,0.506,1.542l-0.162,1.585c-0.029,0.284,0.061,0.557,0.252,0.77c0.191,0.212,0.454,0.329,0.739,0.329h4.456c0.51,0,0.936-0.382,0.991-0.889c0.174-1.592-0.34-3.189-1.409-4.382c-1.069-1.192-2.602-1.876-4.203-1.876H7.647c-1.602,0-3.134,0.684-4.203,1.876c-1.07,1.193-1.584,2.79-1.41,4.383c0.056,0.506,0.481,0.888,0.991,0.888h4.454c0.285,0,0.548-0.117,0.739-0.328C8.41,12.697,8.5,12.424,8.471,12.14L8.31,10.553C8.254,9.99,8.438,9.428,8.817,9.01C9.195,8.592,9.734,8.353,10.298,8.353z"/></svg>