<svg xmlns="http://www.w3.org/2000/svg" viewBox="0 0 32 32"><!--! Font Icona - https://fonticona.com | License - https://fonticona.com/license | Copyright 2022 FontIcona.com --><path d="M18.904,32.001c-0.846,0-1.405-0.074-1.468-0.083c-6.27-0.705-8.071-6.349-8.144-9.233l0-8.328H7.285c-0.552,0-1-0.447-1-1V9.504c0-0.416,0.257-0.788,0.646-0.936c5.119-1.939,5.452-7.385,5.463-7.616C12.42,0.421,12.86,0,13.393,0h4.604c0.55,0,0.997,0.444,1,0.994l0.041,6.711h4.973c0.552,0,1,0.447,1,1v4.558c0,0.553-0.448,1-1,1H18.95v8.896c0.124,0.891,0.535,1.135,0.672,1.217c0.931,0.556,2.717,0.06,3.27-0.156c0.254-0.103,0.54-0.092,0.789,0.023s0.439,0.327,0.527,0.587l1.457,4.323c0.146,0.433-0.02,0.908-0.402,1.157C23.062,31.741,20.484,32.001,18.904,32.001z M8.285,12.356h2.007c0.552,0,1,0.447,1,1v9.303c0.008,0.242,0.271,6.585,6.394,7.274c0.057,0.008,3.187,0.412,5.821-0.919l-0.884-2.622c-1.056,0.264-2.722,0.473-4.019-0.296c-0.645-0.383-1.454-1.17-1.646-2.753c-0.005-0.04-0.007-0.081-0.007-0.121v-9.96c0-0.553,0.448-1,1-1h5.061V9.705h-4.967c-0.55,0-0.997-0.444-1-0.994L17.002,2h-2.723c-0.318,1.905-1.519,6.143-5.995,8.171V12.356z"/></svg>