<svg xmlns="http://www.w3.org/2000/svg" viewBox="0 0 32 32"><!--! Font Icona - https://fonticona.com | License - https://fonticona.com/license | Copyright 2022 FontIcona.com --><path d="M29,32H3c-1.654,0-3-1.346-3-3V3c0-1.654,1.346-3,3-3h26c1.654,0,3,1.346,3,3v26C32,30.654,30.654,32,29,32z M3,2C2.449,2,2,2.448,2,3v26c0,0.552,0.449,1,1,1h26c0.551,0,1-0.448,1-1V3c0-0.552-0.449-1-1-1H3z"/><path d="M18.093,27.845c-0.63,0-1.047-0.056-1.094-0.062c-4.715-0.53-6.072-4.773-6.126-6.942l0-5.751H9.699c-0.552,0-1-0.447-1-1v-2.785c0-0.416,0.257-0.788,0.646-0.936c3.556-1.348,3.769-5.219,3.771-5.258c0.024-0.534,0.464-0.955,0.999-0.955h3.329c0.55,0,0.997,0.444,1,0.994l0.028,4.576h3.32c0.552,0,1,0.447,1,1v3.295c0,0.553-0.448,1-1,1H18.41v6.135c0.073,0.497,0.274,0.616,0.352,0.662c0.536,0.316,1.678,0.042,2.117-0.132c0.255-0.103,0.541-0.094,0.79,0.021c0.25,0.115,0.44,0.328,0.528,0.588l1.053,3.125c0.146,0.433-0.02,0.908-0.402,1.157C21.2,27.65,19.273,27.845,18.093,27.845z M10.699,13.089h1.174c0.552,0,1,0.447,1,1v6.726c0.005,0.156,0.195,4.514,4.376,4.983c0.044,0.007,2.062,0.265,3.836-0.533l-0.481-1.427c-0.809,0.167-1.946,0.244-2.864-0.3c-0.52-0.309-1.171-0.939-1.324-2.195c-0.005-0.04-0.007-0.081-0.007-0.121v-7.201c0-0.553,0.448-1,1-1h3.382v-1.295h-3.314c-0.55,0-0.997-0.444-1-0.994L16.45,6.155h-1.463c-0.292,1.491-1.238,4.342-4.287,5.807V13.089z"/></svg>