<svg xmlns="http://www.w3.org/2000/svg" viewBox="0 0 32 32"><!--! Font Icona - https://fonticona.com | License - https://fonticona.com/license | Copyright 2022 FontIcona.com --><path d="M13.555,32c-0.26,0-0.51-0.102-0.697-0.283c-0.193-0.188-0.303-0.446-0.303-0.717V1c0-0.552,0.447-1,1-1s1,0.448,1,1v28.899c2.697-0.384,9.736-2.216,10.502-10.87c0.049-0.55,0.525-0.961,1.084-0.908c0.551,0.049,0.957,0.534,0.908,1.084C25.962,31.5,13.707,31.996,13.584,32C13.574,32,13.564,32,13.555,32z"/><path d="M5.946,11.669c-0.457,0-0.87-0.315-0.975-0.781C4.851,10.35,5.189,9.815,5.728,9.694l15.005-3.375c0.544-0.124,1.074,0.217,1.195,0.756c0.121,0.539-0.218,1.074-0.756,1.195L6.167,11.645C6.093,11.662,6.019,11.669,5.946,11.669z"/><path d="M6.156,18.264c-0.457,0-0.87-0.315-0.975-0.78c-0.121-0.539,0.218-1.074,0.756-1.195l15.005-3.375c0.541-0.124,1.074,0.217,1.195,0.756c0.121,0.539-0.218,1.074-0.756,1.195L6.377,18.239C6.303,18.256,6.229,18.264,6.156,18.264z"/></svg>