<svg xmlns="http://www.w3.org/2000/svg" viewBox="0 0 32 32"><!--! Font Icona - https://fonticona.com | License - https://fonticona.com/license | Copyright 2022 FontIcona.com --><path d="M29,32H3c-1.654,0-3-1.346-3-3V3c0-1.654,1.346-3,3-3h26c1.654,0,3,1.346,3,3v26C32,30.654,30.654,32,29,32z M3,2C2.448,2,2,2.449,2,3v26c0,0.552,0.448,1,1,1h26c0.552,0,1-0.448,1-1V3c0-0.551-0.448-1-1-1H3z"/><path d="M11.948,24.613c-4.925,0-8.931-4.007-8.931-8.931s4.006-8.931,8.931-8.931s8.931,4.006,8.931,8.931c0,1.057-0.183,2.091-0.544,3.075c-0.189,0.518-0.76,0.787-1.283,0.594c-0.519-0.19-0.784-0.765-0.594-1.283c0.279-0.762,0.421-1.564,0.421-2.385c0-3.822-3.109-6.931-6.931-6.931s-6.931,3.109-6.931,6.931s3.109,6.931,6.931,6.931c1.782,0,3.476-0.675,4.768-1.901c0.401-0.38,1.035-0.362,1.414,0.037c0.38,0.401,0.363,1.034-0.037,1.414C16.427,23.743,14.244,24.613,11.948,24.613z"/><path d="M11.948,20.051c-2.408,0-4.368-1.96-4.368-4.369s1.96-4.368,4.368-4.368s4.368,1.959,4.368,4.368S14.356,20.051,11.948,20.051z M11.948,13.314c-1.306,0-2.368,1.062-2.368,2.368c0,1.306,1.062,2.369,2.368,2.369s2.368-1.062,2.368-2.369C14.316,14.376,13.254,13.314,11.948,13.314z"/><path d="M26.062,9.454c-1.678,0-3.042-1.365-3.042-3.042s1.364-3.042,3.042-3.042s3.042,1.364,3.042,3.042S27.74,9.454,26.062,9.454z M26.062,5.37c-0.574,0-1.042,0.467-1.042,1.042c0,0.575,0.468,1.042,1.042,1.042s1.042-0.467,1.042-1.042C27.104,5.837,26.637,5.37,26.062,5.37z"/><path d="M22.35,19.356c-0.283,0-0.564-0.12-0.763-0.354c-0.357-0.421-0.306-1.052,0.116-1.409l3.359-2.85V9.165c0-0.552,0.447-1,1-1s1,0.448,1,1v6.042c0,0.293-0.129,0.573-0.354,0.763l-3.713,3.15C22.809,19.278,22.579,19.356,22.35,19.356z"/><circle cx="11.948" cy="15.682" r="1.25"/><circle cx="4.429" cy="4.37" r="1.25"/><circle cx="4.429" cy="27.531" r="1.25"/><path d="M19.591,23.278c-0.069,0-0.139-0.003-0.208-0.008c-0.73-0.055-1.396-0.389-1.871-0.94c-0.477-0.554-0.709-1.261-0.655-1.991c0.055-0.731,0.39-1.396,0.942-1.871l1.334-1.15c1.146-0.986,2.878-0.855,3.861,0.286c0.985,1.145,0.857,2.876-0.285,3.861l-1.336,1.15C20.873,23.047,20.247,23.278,19.591,23.278z M20.92,18.653c-0.171,0-0.342,0.059-0.481,0.179l-1.334,1.15c-0.149,0.128-0.238,0.308-0.253,0.505c-0.015,0.198,0.047,0.389,0.175,0.537c0.127,0.147,0.307,0.236,0.504,0.251c0.207,0.024,0.39-0.048,0.536-0.174c0-0.001,0.001-0.001,0.001-0.001l1.336-1.15c0.308-0.266,0.342-0.732,0.076-1.041C21.334,18.74,21.127,18.653,20.92,18.653z"/><path d="M26.188,28.531c-0.553,0-1-0.447-1-1v-6.968c0-0.553,0.447-1,1-1s1,0.447,1,1v6.968C27.188,28.084,26.74,28.531,26.188,28.531z"/><path d="M27.688,23.897h-3c-0.553,0-1-0.447-1-1s0.447-1,1-1h3c0.553,0,1,0.447,1,1S28.24,23.897,27.688,23.897z"/></svg>