<svg xmlns="http://www.w3.org/2000/svg" viewBox="0 0 32 32"><!--! Font Icona - https://fonticona.com | License - https://fonticona.com/license | Copyright 2022 FontIcona.com --><path d="M16,32c-0.8,0-1.55-0.311-2.113-0.873L0.873,18.113c-1.165-1.166-1.165-3.06,0-4.225L13.887,0.873c1.164-1.165,3.059-1.165,4.225,0l13.014,13.014C31.689,14.45,32,15.2,32,16s-0.31,1.55-0.873,2.113L18.113,31.127C17.551,31.69,16.8,32,16,32z M16,1.999c-0.253,0-0.506,0.096-0.698,0.289L2.287,15.302c-0.385,0.385-0.385,1.012,0,1.397l13.014,13.013c0.37,0.371,1.027,0.371,1.397,0l13.013-13.014C29.898,16.513,30,16.265,30,16c0-0.265-0.102-0.513-0.287-0.698L16.698,2.287C16.505,2.095,16.252,1.999,16,1.999z"/><path d="M10.16,21.941c-0.552,0-1-0.447-1-1v-4.44c0-1.842,1.499-3.341,3.341-3.341h10.828c0.553,0,1,0.448,1,1s-0.447,1-1,1H12.501c-0.739,0-1.341,0.602-1.341,1.341v4.44C11.16,21.494,10.713,21.941,10.16,21.941z"/><path d="M19.211,19.531c-0.256,0-0.512-0.098-0.707-0.293c-0.391-0.391-0.391-1.023,0-1.414l3.665-3.664l-3.665-3.664c-0.391-0.39-0.391-1.023,0-1.414c0.391-0.391,1.023-0.391,1.414,0l3.929,3.928c0.645,0.646,0.645,1.657,0,2.301l-3.929,3.928C19.723,19.434,19.467,19.531,19.211,19.531z M22.432,14.423h0.01H22.432z"/></svg>