<svg xmlns="http://www.w3.org/2000/svg" viewBox="0 0 32 32"><!--! Font Icona - https://fonticona.com | License - https://fonticona.com/license | Copyright 2022 FontIcona.com --><path d="M29.761,2H4.895c-0.553,0-1-0.448-1-1s0.447-1,1-1h24.866c0.553,0,1,0.448,1,1S30.313,2,29.761,2z"/><path d="M2.16,6.978c-0.163,0-0.328-0.04-0.48-0.124C1.195,6.588,1.019,5.98,1.284,5.496l2.733-4.978c0.267-0.484,0.875-0.661,1.358-0.395C5.86,0.389,6.037,0.997,5.771,1.481L3.038,6.459C2.855,6.79,2.514,6.978,2.16,6.978z"/><path d="M2.161,25.589c-0.553,0-1-0.448-1-1V5.978c0-0.552,0.447-1,1-1s1,0.448,1,1v18.611C3.161,25.141,2.714,25.589,2.161,25.589z"/><path d="M9.661,25.589h-7.5c-0.553,0-1-0.448-1-1s0.447-1,1-1h7.5c0.553,0,1,0.448,1,1S10.214,25.589,9.661,25.589z"/><path d="M9.661,32c-0.553,0-1-0.448-1-1v-6.411c0-0.552,0.447-1,1-1s1,0.448,1,1V31C10.661,31.552,10.214,32,9.661,32z"/><path d="M9.661,32c-0.256,0-0.512-0.098-0.707-0.293c-0.391-0.391-0.391-1.023,0-1.414l7.056-7.056c0.391-0.391,1.023-0.391,1.414,0s0.391,1.023,0,1.414l-7.056,7.056C10.173,31.902,9.917,32,9.661,32z"/><path d="M24.461,24.944h-7.744c-0.553,0-1-0.448-1-1s0.447-1,1-1h7.744c0.553,0,1,0.448,1,1S25.014,24.944,24.461,24.944z"/><path d="M24.461,24.944c-0.256,0-0.512-0.098-0.707-0.293c-0.391-0.391-0.391-1.023,0-1.414l5.3-5.3c0.391-0.391,1.023-0.391,1.414,0s0.391,1.023,0,1.414l-5.3,5.3C24.973,24.847,24.717,24.944,24.461,24.944z"/><path d="M29.761,19.645c-0.553,0-1-0.448-1-1V1c0-0.552,0.447-1,1-1s1,0.448,1,1v17.645C30.761,19.197,30.313,19.645,29.761,19.645z"/><path d="M16.528,17.535h-4.045c-0.553,0-1-0.448-1-1V6.257c0-0.552,0.447-1,1-1h4.045c0.553,0,1,0.448,1,1v10.278C17.528,17.087,17.081,17.535,16.528,17.535z M13.483,15.535h2.045V7.257h-2.045V15.535z"/><path d="M24.317,17.535h-4.045c-0.553,0-1-0.448-1-1V6.257c0-0.552,0.447-1,1-1h4.045c0.553,0,1,0.448,1,1v10.278C25.317,17.087,24.87,17.535,24.317,17.535z M21.272,15.535h2.045V7.257h-2.045V15.535z"/><path d="M5.265,21.902c-0.553,0-1-0.448-1-1V1c0-0.552,0.447-1,1-1s1,0.448,1,1v19.902C6.265,21.454,5.817,21.902,5.265,21.902z"/><path d="M12.483,21.907C12.483,21.907,12.483,21.907,12.483,21.907l-7.22-0.005c-0.552,0-0.999-0.448-0.999-1.001c0-0.552,0.448-0.999,1-0.999c0,0,0,0,0.001,0l7.219,0.005c0.552,0,0.999,0.448,0.999,1.001C13.483,21.46,13.035,21.907,12.483,21.907z"/><path d="M12.483,24.474c-0.553,0-1-0.448-1-1v-2.566c0-0.552,0.447-1,1-1s1,0.448,1,1v2.566C13.483,24.026,13.036,24.474,12.483,24.474z"/><path d="M12.483,24.474c-0.268,0-0.534-0.106-0.73-0.317c-0.377-0.403-0.355-1.036,0.048-1.413l2.538-2.372c0.403-0.377,1.037-0.356,1.413,0.048c0.377,0.403,0.355,1.036-0.048,1.413l-2.538,2.372C12.974,24.384,12.729,24.474,12.483,24.474z"/></svg>