<svg xmlns="http://www.w3.org/2000/svg" viewBox="0 0 32 32"><!--! Font Icona - https://fonticona.com | License - https://fonticona.com/license | Copyright 2022 FontIcona.com --><path d="M10.462,30.967c-3.523,0-7.023-1.048-10.025-3.093c-0.369-0.251-0.526-0.717-0.386-1.141c0.14-0.423,0.54-0.698,0.991-0.684c2.403,0.102,4.735-0.505,6.754-1.728c-2.373-0.907-4.067-2.678-4.604-4.924c-0.069-0.289-0.006-0.594,0.173-0.832c0.089-0.118,0.201-0.213,0.328-0.282c-1.819-1.512-2.947-3.794-2.938-6.249c0.001-0.314,0.15-0.61,0.402-0.798c0.226-0.168,0.509-0.233,0.785-0.181c-0.605-1.062-0.974-2.258-1.061-3.5C0.713,5.979,1.028,4.373,1.795,2.946c0.162-0.302,0.468-0.5,0.81-0.524C2.947,2.399,3.276,2.55,3.48,2.825C6.232,6.55,10.343,8.97,14.896,9.584c-0.076-1.498,0.223-3.01,0.877-4.365c0.773-1.716,2.189-3.046,3.975-3.721c1.784-0.674,3.727-0.613,5.465,0.171c0.766,0.345,1.459,0.819,2.06,1.408c0.038,0.037,0.073,0.077,0.105,0.12c0.648-0.32,1.375-0.601,2.112-0.885l1.144-0.444c0.359-0.141,0.768-0.065,1.05,0.199c0.281,0.263,0.387,0.665,0.271,1.033l-2.188,6.91c-0.061,8.846-5.318,16.945-12.827,19.733C14.846,30.563,12.649,30.967,10.462,30.967z M4.423,27.766c3.735,1.545,7.961,1.614,11.802,0.108c6.803-2.525,11.541-9.933,11.541-18.021c0-0.103,0.016-0.204,0.047-0.302l1.604-5.067c-0.45,0.176-0.896,0.353-1.341,0.54c-0.802,0.331-1.709,0.099-2.248-0.562c-0.423-0.404-0.906-0.73-1.438-0.97c-1.253-0.566-2.65-0.609-3.936-0.124c-1.285,0.486-2.305,1.443-2.87,2.696c-0.668,1.386-0.864,2.954-0.562,4.438c0.062,0.305-0.022,0.622-0.227,0.856c-0.205,0.234-0.508,0.36-0.817,0.341c-5.024-0.32-9.667-2.594-12.985-6.309c-0.149,0.646-0.19,1.316-0.119,1.988c0.126,1.782,0.984,3.407,2.357,4.494c0.385,0.304,0.492,0.842,0.254,1.271L5.381,13.33c-0.227,0.409-0.709,0.605-1.155,0.473L2.91,13.418c0.486,2.094,2.072,3.838,4.188,4.467c0.293,0.087,0.53,0.304,0.644,0.588s0.091,0.604-0.062,0.87L7.566,19.54c-0.169,0.295-0.478,0.483-0.817,0.5l-1.156,0.056c0.826,1.472,2.48,2.486,4.642,2.796c0.389,0.056,0.708,0.333,0.818,0.708s-0.01,0.782-0.307,1.038C8.916,26.22,6.743,27.285,4.423,27.766z"/></svg>