<svg xmlns="http://www.w3.org/2000/svg" viewBox="0 0 32 32"><!--! Font Icona - https://fonticona.com | License - https://fonticona.com/license | Copyright 2022 FontIcona.com --><path d="M14.007,32c-0.025,0-0.05,0-0.075,0c-2.574-0.031-4.947-1.568-6.862-4.446c-1.34-2.01-2.449-3.861-3.393-5.66l0,0c-0.759-1.447-1.422-2.889-1.969-4.286c-1.327-3.385-2.489-7.349-1.045-11.078c0.669-1.726,1.958-2.937,3.829-3.599c0.35-0.147,9.886-4.052,21.212-2.617c0.141,0.016,3.854,0.451,5.517,3.053c0.904,1.416,1.024,3.144,0.356,5.133c-0.154,0.463-3.876,11.465-11.022,19.724C19.03,29.984,16.911,32,14.007,32z M20.68,2.003c-8.638,0-15.39,2.761-15.469,2.793C3.844,5.281,2.983,6.078,2.528,7.252c-1.197,3.089-0.145,6.6,1.042,9.626c0.521,1.329,1.152,2.704,1.878,4.086v0.001c0.91,1.735,1.984,3.528,3.285,5.48c1.555,2.336,3.312,3.531,5.222,3.555c2.108,0.026,3.832-1.635,5.088-3.086c6.88-7.952,10.601-18.94,10.638-19.05c0.466-1.387,0.418-2.535-0.142-3.415c-1.142-1.795-4.043-2.146-4.072-2.149C23.829,2.092,22.225,2.003,20.68,2.003z"/><path d="M26.716,17.702c-1.539-0.14-3.146-0.386-4.402-1.695c-1.608-1.681-2.493-4.102-3.274-6.238l-0.367-0.979c-0.742-1.92-1.984-5.133-0.934-7.182c0.396-0.774,1.085-1.309,1.99-1.544l0.504,1.936c-0.458,0.119-0.622,0.341-0.715,0.521c-0.642,1.251,0.48,4.153,1.02,5.548c0.086,0.221,0.162,0.419,0.225,0.588l0.156,0.426c0.713,1.952,1.521,4.164,2.84,5.541c0.778,0.812,1.883,0.973,3.14,1.087L26.716,17.702z"/><path d="M23.415,23.524c-1.34-0.201-3.059-0.61-4.472-2.005c-2.262-2.234-3.522-5.501-4.636-8.383l-0.218-0.564c-0.095-0.242-0.213-0.529-0.346-0.851c-1.039-2.516-2.778-6.727-1.441-9.367c0.512-1.011,1.393-1.676,2.617-1.978l0.479,1.941c-0.651,0.161-1.068,0.459-1.312,0.94c-0.923,1.821,0.718,5.792,1.506,7.699c0.139,0.336,0.263,0.637,0.36,0.89l0.221,0.568c1.04,2.694,2.219,5.748,4.176,7.681c0.791,0.781,1.797,1.215,3.362,1.449L23.415,23.524z"/></svg>