<svg xmlns="http://www.w3.org/2000/svg" viewBox="0 0 32 32"><!--! Font Icona - https://fonticona.com | License - https://fonticona.com/license | Copyright 2022 FontIcona.com --><path d="M16,32c-5.475,0-9.929-4.879-9.929-10.876c0-0.552,0.448-1,1-1s1,0.448,1,1C8.071,26.018,11.628,30,16,30s7.929-3.982,7.929-8.876c0-0.552,0.448-1,1-1s1,0.448,1,1C25.929,27.121,21.475,32,16,32z"/><path d="M7.071,22.124c-0.552,0-1-0.448-1-1V1c0-0.552,0.448-1,1-1s1,0.448,1,1v20.124C8.071,21.676,7.624,22.124,7.071,22.124z"/><path d="M24.929,22.124c-0.552,0-1-0.448-1-1V1c0-0.552,0.448-1,1-1s1,0.448,1,1v20.124C25.929,21.676,25.481,22.124,24.929,22.124z"/></svg>