<svg xmlns="http://www.w3.org/2000/svg" viewBox="0 0 32 32"><!--! Font Icona - https://fonticona.com | License - https://fonticona.com/license | Copyright 2022 FontIcona.com --><path d="M8.521,21.248h-2v-0.97c-0.592,0.359-1.278,0.565-2.011,0.565c-2.212,0-4.011-1.879-4.011-4.188v-5.903h2v5.903c0,1.207,0.902,2.188,2.011,2.188s2.011-0.981,2.011-2.188v-5.903h2V21.248z"/><rect x="9.709" y="10.752" width="2" height="10.496"/><path d="M13.72,20.844c-2.212,0-4.011-1.879-4.011-4.188s1.799-4.188,4.011-4.188s4.012,1.879,4.012,4.188S15.932,20.844,13.72,20.844z M13.72,14.467c-1.108,0-2.011,0.981-2.011,2.188s0.902,2.188,2.011,2.188c1.109,0,2.012-0.981,2.012-2.188S14.829,14.467,13.72,14.467z"/><path d="M22.368,21.439c-2.212,0-4.011-2.013-4.011-4.486s1.799-4.486,4.011-4.486s4.011,2.013,4.011,4.486v1h-5.852c0.312,0.874,1.02,1.486,1.841,1.486c0.691,0,1.327-0.436,1.701-1.165l1.779,0.912C25.137,20.576,23.803,21.439,22.368,21.439z M20.527,15.953h3.682c-0.312-0.874-1.02-1.486-1.841-1.486S20.839,15.079,20.527,15.953z"/><rect x="27.151" y="13.122" width="2" height="8.126"/><path d="M29.031,16.682l-1.76-0.949c0.785-1.455,2.39-3.066,4.356-2.815l-0.256,1.984C30.341,14.759,29.395,16.009,29.031,16.682z"/></svg>