<svg xmlns="http://www.w3.org/2000/svg" viewBox="0 0 32 32"><!--! Font Icona - https://fonticona.com | License - https://fonticona.com/license | Copyright 2022 FontIcona.com --><path d="M18.302,23.754c-4.262,0-7.729-3.467-7.729-7.729s3.467-7.729,7.729-7.729s7.729,3.467,7.729,7.729S22.563,23.754,18.302,23.754z M18.302,10.297c-3.159,0-5.729,2.569-5.729,5.729s2.569,5.729,5.729,5.729s5.729-2.569,5.729-5.729S21.461,10.297,18.302,10.297z"/><path d="M7.73,13.405l-1.941-0.479c1.422-5.765,6.567-9.79,12.513-9.79c1.092,0,2.179,0.137,3.229,0.407l-0.498,1.938c-0.888-0.229-1.807-0.345-2.73-0.345C13.279,5.137,8.932,8.537,7.73,13.405z"/><path d="M18.302,28.914c-5.942,0-11.088-4.023-12.512-9.784l1.941-0.48c1.203,4.866,5.55,8.265,10.57,8.265c0.819,0,1.639-0.092,2.436-0.272l0.443,1.95C20.239,28.806,19.271,28.914,18.302,28.914z"/><path d="M26.959,25.573l-1.344-1.48c2.272-2.062,3.575-5.002,3.575-8.067c0-2.977-1.178-5.755-3.317-7.825l1.391-1.438c2.532,2.45,3.927,5.74,3.927,9.263C31.19,19.654,29.648,23.134,26.959,25.573z"/><rect x="12.681" y="5.364" transform="matrix(0.8566 -0.5159 0.5159 0.8566 -2.1378 8.1973)" width="1.999" height="5.162"/><rect x="25.03" y="15.025" width="5.413" height="2"/><rect x="11.24" y="22.89" transform="matrix(0.509 -0.8608 0.8608 0.509 -13.846 23.5053)" width="4.883" height="1.999"/><path d="M4.946,20.415c-2.421,0-4.39-1.969-4.39-4.39s1.969-4.39,4.39-4.39s4.39,1.969,4.39,4.39S7.367,20.415,4.946,20.415z M4.946,13.636c-1.317,0-2.39,1.072-2.39,2.39s1.072,2.39,2.39,2.39s2.39-1.072,2.39-2.39S6.264,13.636,4.946,13.636z"/><path d="M24.348,32c-2.421,0-4.39-1.969-4.39-4.39s1.969-4.39,4.39-4.39s4.39,1.969,4.39,4.39S26.769,32,24.348,32z M24.348,25.221c-1.317,0-2.39,1.072-2.39,2.39S23.03,30,24.348,30s2.39-1.072,2.39-2.39S25.665,25.221,24.348,25.221z"/><path d="M24.777,8.981c-2.476,0-4.49-2.015-4.49-4.49c0-2.477,2.015-4.491,4.49-4.491c2.477,0,4.491,2.015,4.491,4.491C29.269,6.967,27.254,8.981,24.777,8.981z M24.777,2c-1.373,0-2.49,1.117-2.49,2.491c0,1.373,1.117,2.49,2.49,2.49c1.374,0,2.491-1.117,2.491-2.49C27.269,3.117,26.151,2,24.777,2z"/></svg>