<svg xmlns="http://www.w3.org/2000/svg" viewBox="0 0 32 32"><!--! Font Icona - https://fonticona.com | License - https://fonticona.com/license | Copyright 2022 FontIcona.com --><path d="M16.034,7.698c-0.171,0-0.342-0.044-0.496-0.132l-4.428-2.88c-0.283-0.185-0.453-0.499-0.454-0.836c-0.001-0.338,0.169-0.653,0.451-0.838l4.344-2.849c0.31-0.204,0.706-0.219,1.03-0.04l4.656,2.561c0.306,0.167,0.501,0.481,0.518,0.829s-0.149,0.679-0.438,0.874l-4.622,3.138C16.427,7.641,16.23,7.698,16.034,7.698z M13.484,3.846l2.536,1.653l2.724-1.849l-2.699-1.484L13.484,3.846z"/><path d="M16,32c-0.166,0-0.332-0.041-0.481-0.124L1.973,24.428c-0.32-0.176-0.519-0.512-0.519-0.876V10.819c0-0.342,0.175-0.66,0.463-0.844C2.206,9.792,2.568,9.77,2.878,9.913l4.977,2.326c0.352,0.165,0.576,0.518,0.576,0.906v6.872L16,24.18l7.569-4.162v-8.035l-4.834-2.658c-0.306-0.167-0.501-0.481-0.518-0.829s0.149-0.679,0.438-0.874l4.622-3.138c0.312-0.212,0.714-0.229,1.043-0.049l5.706,3.138c0.32,0.176,0.519,0.512,0.519,0.876v15.104c0,0.364-0.198,0.7-0.519,0.876l-13.545,7.448C16.332,31.959,16.166,32,16,32z M3.454,22.96L16,29.858l12.545-6.898V9.04l-4.651-2.558L21.13,8.358l3.921,2.156c0.32,0.176,0.519,0.511,0.519,0.876v9.219c0,0.364-0.198,0.7-0.519,0.876l-8.569,4.712c-0.299,0.166-0.664,0.166-0.963,0l-8.569-4.712c-0.32-0.176-0.519-0.512-0.519-0.876v-6.827l-2.977-1.392V22.96z"/></svg>