<svg xmlns="http://www.w3.org/2000/svg" viewBox="0 0 32 32"><!--! Font Icona - https://fonticona.com | License - https://fonticona.com/license | Copyright 2022 FontIcona.com --><path d="M16,24.605c-1.865,0-3.542-0.322-5.127-0.985c-2.459-1.029-6.147-4.127-3.211-13.319c0.134-0.418,0.547-0.727,0.965-0.695l3.265,0.042c0.317,0.004,0.613,0.158,0.798,0.415c0.186,0.258,0.238,0.587,0.142,0.889c-1.034,3.241-1.227,7.093,0.135,7.661c0.91,0.381,1.901,0.566,3.033,0.566c1.131,0,2.124-0.185,3.033-0.565c1.362-0.569,1.169-4.421,0.135-7.662c-0.096-0.302-0.044-0.631,0.142-0.889c0.185-0.257,0.481-0.411,0.798-0.415l3.265-0.042c0.442-0.033,0.831,0.277,0.965,0.695c2.937,9.192-0.751,12.29-3.211,13.319C19.542,24.283,17.865,24.605,16,24.605z M9.353,11.615c-1.536,5.3-0.731,8.895,2.292,10.159c1.336,0.56,2.761,0.831,4.355,0.831s3.019-0.271,4.354-0.831c3.024-1.265,3.829-4.859,2.293-10.159l-1.211,0.016c0.792,3.206,1.107,7.683-1.632,8.828c-1.158,0.484-2.402,0.72-3.804,0.72c-1.403,0-2.647-0.236-3.805-0.722c-2.739-1.144-2.424-5.62-1.631-8.826L9.353,11.615z"/><path d="M16,32C7.178,32,0,24.822,0,16S7.178,0,16,0s16,7.178,16,16S24.822,32,16,32z M16,2C8.28,2,2,8.28,2,16s6.28,14,14,14s14-6.28,14-14S23.72,2,16,2z"/></svg>