<svg xmlns="http://www.w3.org/2000/svg" viewBox="0 0 32 32"><!--! Font Icona - https://fonticona.com | License - https://fonticona.com/license | Copyright 2022 FontIcona.com --><path d="M22.287,18.711c-0.002,0-0.004,0-0.006,0c-0.292-0.002-0.568-0.131-0.757-0.353c-0.021-0.024-2.232-2.556-5.35-2.556c-0.05,0-0.099,0-0.149,0.002c-3.252-0.109-5.527,2.526-5.55,2.554c-0.188,0.222-0.465,0.351-0.757,0.353c-0.002,0-0.004,0-0.006,0c-0.289,0-0.564-0.125-0.754-0.344c-1.441-1.655-2.9-2.52-4.337-2.568c-1.691-0.038-2.898,1.102-2.909,1.112c-0.286,0.286-0.717,0.376-1.093,0.221C0.246,16.977,0,16.615,0,16.21C0,8.243,7.178,1.76,16,1.76s16,6.482,16,14.45c0,0.407-0.247,0.773-0.624,0.927c-0.377,0.15-0.81,0.062-1.093-0.229c-0.008-0.007-1.176-1.148-2.905-1.108c-1.437,0.049-2.896,0.913-4.337,2.568C22.852,18.586,22.576,18.711,22.287,18.711z M4.493,13.797c0.052,0,0.104,0.001,0.157,0.002c1.762,0.048,3.471,0.882,5.091,2.481c1.123-0.99,3.392-2.517,6.284-2.476c2.896-0.054,5.114,1.484,6.234,2.475c1.619-1.599,3.328-2.433,5.09-2.48c0.97-0.013,1.804,0.192,2.482,0.481C28.786,8.328,22.981,3.76,16,3.76S3.214,8.328,2.168,14.281C2.81,14.007,3.595,13.797,4.493,13.797z"/><path d="M13.467,32c-1.948,0-3.533-1.651-3.533-3.681c0-0.594,0.14-1.187,0.405-1.712c0.248-0.493,0.848-0.693,1.343-0.442c0.493,0.248,0.691,0.85,0.442,1.343c-0.124,0.248-0.19,0.528-0.19,0.812c0,0.927,0.688,1.681,1.533,1.681S15,29.246,15,28.32V14.805c0-0.553,0.447-1,1-1s1,0.447,1,1V28.32C17,30.349,15.415,32,13.467,32z"/><path d="M16,3.405c-0.553,0-1-0.447-1-1V1c0-0.553,0.447-1,1-1s1,0.447,1,1v1.404C17,2.957,16.553,3.405,16,3.405z"/><path d="M9.577,18.559c-0.501,0-0.934-0.375-0.992-0.885C7.853,11.364,8.726,6.796,11.182,4.098c2.154-2.367,4.727-2.34,4.84-2.338c0.552,0.012,0.99,0.47,0.979,1.021c-0.012,0.545-0.457,0.979-1,0.979c-0.004,0-0.009,0-0.014,0l0,0c-0.092,0-1.843,0.023-3.363,1.726c-1.991,2.229-2.701,6.364-2.052,11.958c0.063,0.549-0.329,1.045-0.878,1.108C9.654,18.557,9.615,18.559,9.577,18.559z"/><path d="M22.423,18.559c-0.038,0-0.077-0.002-0.116-0.007c-0.549-0.063-0.941-0.56-0.878-1.108c0.649-5.594-0.061-9.729-2.052-11.958c-1.521-1.702-3.271-1.726-3.363-1.726h-0.001c-0.001,0-0.002,0-0.003,0c-0.548,0-0.998-0.44-1.005-0.988s0.425-1,0.974-1.012c0.113,0,2.686-0.029,4.84,2.338c2.456,2.698,3.329,7.266,2.597,13.576C23.356,18.184,22.924,18.559,22.423,18.559z"/></svg>