<svg xmlns="http://www.w3.org/2000/svg" viewBox="0 0 32 32"><!--! Font Icona - https://fonticona.com | License - https://fonticona.com/license | Copyright 2022 FontIcona.com --><path d="M31,31.095H1c-0.553,0-1-0.448-1-1c0-4.405,8.243-6.781,16-6.781s16,2.376,16,6.781C32,30.647,31.553,31.095,31,31.095z M2.373,29.095h27.254C28.203,27.152,22.84,25.313,16,25.313S3.797,27.152,2.373,29.095z"/><path d="M1.741,19.795c-0.407,0-0.79-0.251-0.938-0.656c-0.692-1.886,0.772-4.119,3.335-5.082c1.433-0.538,2.965-0.561,4.121-0.062c0.534-1.111,1.659-2.111,3.161-2.676c1.438-0.541,2.975-0.56,4.13-0.058c0.532-1.115,1.659-2.119,3.165-2.685c1.465-0.55,3.035-0.561,4.199-0.028c0.792,0.363,1.354,0.945,1.625,1.683c0.19,0.519-0.075,1.093-0.594,1.284c-0.521,0.19-1.093-0.076-1.283-0.594c-0.084-0.229-0.28-0.416-0.581-0.554c-0.681-0.311-1.701-0.282-2.663,0.082c-1.552,0.583-2.421,1.812-2.161,2.521c0.092,0.25,0.08,0.527-0.033,0.769c-0.113,0.241-0.317,0.428-0.569,0.518c-0.514,0.185-1.1-0.078-1.288-0.592c-0.084-0.229-0.28-0.416-0.581-0.554c-0.681-0.312-1.701-0.28-2.662,0.082c-1.552,0.583-2.421,1.812-2.162,2.521c0.042,0.114,0.062,0.23,0.062,0.344c0,0.408-0.251,0.791-0.656,0.939c-0.518,0.189-1.094-0.076-1.282-0.595C8,16.172,7.805,15.986,7.504,15.848c-0.68-0.312-1.7-0.281-2.663,0.081C3.289,16.513,2.42,17.741,2.68,18.45c0.19,0.519-0.075,1.093-0.594,1.284C1.972,19.775,1.855,19.795,1.741,19.795z"/><path d="M1.761,19.787c-0.407,0-0.79-0.251-0.938-0.656C-1.603,12.525,1.75,5.149,8.295,2.689c3.158-1.187,6.587-1.068,9.654,0.337c3.096,1.418,5.45,3.972,6.631,7.189c0.19,0.519-0.075,1.093-0.594,1.284c-0.521,0.19-1.093-0.076-1.283-0.594c-0.996-2.714-2.98-4.866-5.587-6.061c-2.577-1.181-5.46-1.283-8.118-0.283c-5.521,2.075-8.346,8.302-6.299,13.881c0.19,0.519-0.075,1.093-0.594,1.284C1.991,19.767,1.875,19.787,1.761,19.787z"/><path d="M9.022,17.057c-0.393,0-0.766-0.234-0.925-0.62C4.414,7.487,7.722,3.181,7.864,3.002C8.207,2.57,8.839,2.499,9.27,2.843c0.43,0.342,0.502,0.966,0.165,1.397C9.382,4.311,6.767,7.947,9.947,15.676c0.21,0.511-0.033,1.095-0.544,1.305C9.278,17.033,9.149,17.057,9.022,17.057z"/><path d="M16.349,14.303c-0.422,0-0.814-0.27-0.951-0.692c-2.585-7.987-6.932-8.984-6.976-8.993C7.886,4.505,7.534,3.981,7.64,3.444c0.106-0.537,0.615-0.892,1.157-0.791c0.225,0.042,5.519,1.121,8.503,10.341c0.17,0.526-0.118,1.089-0.644,1.259C16.555,14.287,16.45,14.303,16.349,14.303z"/><path d="M8.646,4.625c-0.407,0-0.79-0.251-0.938-0.656L7.076,2.25C6.886,1.732,7.151,1.157,7.67,0.967c0.517-0.19,1.093,0.076,1.283,0.594l0.632,1.72c0.19,0.518-0.075,1.093-0.594,1.283C8.878,4.605,8.761,4.625,8.646,4.625z"/><path d="M16.204,25.314c-0.407,0-0.79-0.251-0.938-0.655l-4.433-12.058c-0.19-0.519,0.075-1.093,0.594-1.284c0.518-0.191,1.094,0.076,1.283,0.593l4.433,12.058c0.19,0.519-0.075,1.093-0.594,1.284C16.436,25.294,16.318,25.314,16.204,25.314z"/></svg>