<svg xmlns="http://www.w3.org/2000/svg" viewBox="0 0 32 32"><!--! Font Icona - https://fonticona.com | License - https://fonticona.com/license | Copyright 2022 FontIcona.com --><path d="M1.02,10.372c-0.002,0-0.005,0-0.008,0C0.46,10.368,0.016,9.917,0.02,9.364l0.028-3.941C0.051,4.906,0.259,4.42,0.635,4.057C1.015,3.689,1.549,3.511,2.073,3.5c4.655,0.157,9.311,0.244,13.844,0.259c0.553,0.002,0.999,0.451,0.997,1.003s-0.449,0.997-1,0.997c-0.001,0-0.002,0-0.003,0c-4.555-0.015-9.23-0.102-13.898-0.26l0.021,1.909L2.02,9.38C2.016,9.93,1.568,10.372,1.02,10.372z"/><path d="M15.906,28.5c-0.001,0-0.003,0-0.005,0c-0.882-0.004-1.781-0.053-2.672-0.144c-0.422-0.044-0.771-0.349-0.87-0.762c-1.394-5.799-4.46-13.008-11.151-14.419C0.347,12.995-0.059,12.598,0,11.995l0.02-2.631c0.004-0.55,0.451-0.992,1-0.992c0.003,0,0.005,0,0.008,0C1.579,8.376,2.023,8.827,2.02,9.38l-0.014,1.927c7.169,1.737,10.542,9.002,12.124,15.122c0.596,0.045,1.192,0.068,1.781,0.071c0.552,0.003,0.998,0.452,0.995,1.005C16.903,28.056,16.456,28.5,15.906,28.5z M1.983,12.243c0,0.001,0,0.002,0,0.003C1.983,12.245,1.983,12.244,1.983,12.243z M2,12.037v0.034c0,0.058-0.006,0.115-0.017,0.172C1.997,12.172,2.002,12.104,2,12.037z"/><path d="M9.5,17.929l-1.219-1.586c1.908-1.468,2.762-5.3,2.946-7.121l1.087-0.897l0.903,1.1C13.153,10.05,12.51,15.613,9.5,17.929z"/><path d="M15.912,10.279L15.912,10.279c-5.145-0.006-10.206-0.41-15.045-1.2c-0.545-0.09-0.915-0.604-0.826-1.148s0.602-0.917,1.148-0.826c4.734,0.773,9.688,1.169,14.724,1.175c0.553,0.001,1,0.449,0.999,1.001S16.464,10.279,15.912,10.279z"/><path d="M13.331,28.361c-0.16,0-0.321-0.038-0.473-0.119C2.982,22.936,0.15,12.754,0.034,12.323c-0.144-0.533,0.173-1.081,0.705-1.225c0.539-0.143,1.082,0.172,1.227,0.704C1.992,11.9,4.71,21.594,13.806,26.48c0.486,0.262,0.669,0.867,0.407,1.354C14.032,28.171,13.688,28.361,13.331,28.361z"/><path d="M30.98,10.372c-0.549,0-0.996-0.442-1-0.992l-0.028-3.941c-4.633,0.219-9.309,0.306-13.863,0.32c-0.001,0-0.002,0-0.003,0c-0.551,0-0.998-0.445-1-0.997s0.444-1.001,0.997-1.003c4.533-0.015,9.188-0.102,13.836-0.258c0.575-0.024,1.068,0.188,1.446,0.556c0.376,0.363,0.584,0.85,0.587,1.368l0.028,3.939c0.004,0.553-0.44,1.004-0.992,1.008C30.985,10.372,30.982,10.372,30.98,10.372z"/><path d="M16.094,28.5c-0.551,0-0.997-0.444-1-0.995c-0.003-0.553,0.443-1.002,0.995-1.005c0.589-0.003,1.186-0.026,1.781-0.071c1.582-6.12,4.955-13.385,12.124-15.122L29.98,9.38c-0.004-0.553,0.44-1.004,0.992-1.008c0.003,0,0.006,0,0.008,0c0.549,0,0.996,0.442,1,0.992L32,11.995c0.059,0.603-0.347,1-1.208,1.181c-6.691,1.411-9.758,8.62-11.151,14.419c-0.1,0.413-0.448,0.718-0.87,0.762c-0.891,0.091-1.79,0.14-2.672,0.144C16.097,28.5,16.095,28.5,16.094,28.5z M30.017,12.243c0,0.001,0,0.002,0,0.003C30.017,12.245,30.017,12.244,30.017,12.243z M30,12.037c-0.002,0.066,0.003,0.135,0.017,0.206C30.006,12.187,30,12.129,30,12.071V12.037z"/><path d="M22.5,17.929c-3.01-2.315-3.653-7.879-3.718-8.505l0.903-1.1l1.087,0.897c0.185,1.821,1.038,5.653,2.946,7.121L22.5,17.929z"/><path d="M16.088,10.279c-0.552,0-0.999-0.447-1-0.999s0.446-1,0.999-1.001c5.036-0.006,9.989-0.401,14.724-1.175c0.544-0.087,1.06,0.281,1.148,0.826s-0.281,1.059-0.826,1.148C26.294,9.869,21.232,10.273,16.088,10.279L16.088,10.279z"/><path d="M18.669,28.361c-0.356,0-0.701-0.19-0.882-0.526c-0.262-0.487-0.079-1.093,0.407-1.354c9.096-4.887,11.813-14.58,11.84-14.678c0.145-0.531,0.689-0.846,1.227-0.704c0.532,0.144,0.849,0.691,0.705,1.225c-0.116,0.431-2.948,10.612-12.824,15.919C18.99,28.323,18.828,28.361,18.669,28.361z"/></svg>