<svg xmlns="http://www.w3.org/2000/svg" viewBox="0 0 32 32"><!--! Font Icona - https://fonticona.com | License - https://fonticona.com/license | Copyright 2022 FontIcona.com --><path d="M15.995,27.381c-5.099,0-9.337-4.053-9.521-9.189L6.473,1.633c0-0.552,0.447-1,1-1s1,0.448,1,1v16.522c0.148,4.115,3.686,7.359,7.799,7.22c3.928-0.142,7.115-3.329,7.257-7.256L23.527,1c0-0.552,0.447-1,1-1s1,0.448,1,1v17.156c-0.18,5.006-4.214,9.04-9.184,9.219C16.228,27.379,16.111,27.381,15.995,27.381z"/><path d="M31,32H1c-0.553,0-1-0.448-1-1s0.447-1,1-1h30c0.553,0,1,0.448,1,1S31.553,32,31,32z"/><path d="M10.473,2h-6c-0.553,0-1-0.448-1-1s0.447-1,1-1h6c0.553,0,1,0.448,1,1S11.025,2,10.473,2z"/><path d="M27.527,2h-6c-0.553,0-1-0.448-1-1s0.447-1,1-1h6c0.553,0,1,0.448,1,1S28.08,2,27.527,2z"/></svg>