<svg xmlns="http://www.w3.org/2000/svg" viewBox="0 0 32 32"><!--! Font Icona - https://fonticona.com | License - https://fonticona.com/license | Copyright 2022 FontIcona.com --><path d="M6.228,26.772H1c-0.32,0-0.621-0.153-0.81-0.413s-0.24-0.594-0.141-0.898L5.841,7.768c0.069-0.212,0.208-0.395,0.394-0.52l5.468-3.665l1.009-2.301c0.185-0.422,0.637-0.659,1.084-0.584c0.453,0.077,0.795,0.452,0.829,0.91c0.187,2.458,0.979,6.229,2.159,6.913c0.478,0.278,0.641,0.89,0.363,1.367c-0.279,0.478-0.89,0.638-1.367,0.363c-1.448-0.841-2.246-3.167-2.678-5.201c-0.015,0.011-0.029,0.021-0.044,0.031L7.634,8.718L2.38,24.772H5.5l2.779-8.573c0.17-0.524,0.731-0.813,1.26-0.643c0.525,0.17,0.812,0.734,0.643,1.26L7.179,26.08C7.045,26.493,6.661,26.772,6.228,26.772z"/><path d="M31,26.772h-5.228c-0.434,0-0.817-0.279-0.951-0.691l-3.057-9.43c-0.17-0.525,0.117-1.09,0.643-1.26c0.529-0.171,1.091,0.118,1.26,0.643l2.833,8.738h3.12L24.366,8.718l-5.424-3.636c-0.096-0.064-0.179-0.145-0.247-0.236c-1.05,4.2-3.405,11.811-7.512,16.237c-0.376,0.405-1.009,0.429-1.413,0.054c-0.405-0.376-0.429-1.009-0.054-1.413c5.363-5.782,7.649-18.095,7.672-18.219c0.079-0.433,0.431-0.763,0.868-0.814C18.7,0.64,19.112,0.88,19.289,1.283l1.009,2.301l5.468,3.665c0.186,0.125,0.324,0.308,0.394,0.52L31.95,25.46c0.1,0.305,0.048,0.639-0.141,0.898S31.32,26.772,31,26.772z"/><path d="M21.309,21.637H10.45c-0.553,0-1-0.447-1-1s0.447-1,1-1h10.858c0.553,0,1,0.447,1,1S21.861,21.637,21.309,21.637z"/><path d="M10.45,21.404c-0.432,0-0.83-0.281-0.959-0.716L5.832,8.364C5.675,7.834,5.977,7.278,6.507,7.12C7.038,6.961,7.593,7.266,7.75,7.795l3.659,12.324c0.157,0.529-0.145,1.086-0.675,1.243C10.64,21.391,10.544,21.404,10.45,21.404z"/><path d="M21.309,21.637c-0.098,0-0.198-0.015-0.297-0.045c-0.527-0.164-0.822-0.725-0.658-1.252l3.9-12.558c0.163-0.527,0.721-0.82,1.252-0.658c0.527,0.164,0.822,0.725,0.658,1.252l-3.9,12.558C22.131,21.363,21.735,21.637,21.309,21.637z"/><path d="M18.37,2.684c-0.179,0-0.359-0.048-0.522-0.148c-1.158-0.711-2.537-0.711-3.695,0c-0.47,0.289-1.086,0.143-1.375-0.328c-0.29-0.47-0.143-1.086,0.328-1.375c1.812-1.115,3.977-1.115,5.789,0c0.471,0.289,0.618,0.905,0.328,1.375C19.034,2.515,18.706,2.684,18.37,2.684z"/><path d="M9.164,32c-0.04,0-0.081-0.002-0.121-0.007c-0.549-0.067-0.939-0.565-0.873-1.113l1.287-10.597c0.067-0.549,0.574-0.938,1.113-0.873c0.549,0.067,0.939,0.565,0.873,1.113L10.156,31.12C10.094,31.628,9.663,32,9.164,32z"/><path d="M22.594,32c-0.498,0-0.929-0.37-0.991-0.877L20.316,20.76c-0.068-0.548,0.321-1.048,0.869-1.115c0.553-0.081,1.047,0.32,1.115,0.869l1.286,10.363c0.068,0.548-0.321,1.048-0.869,1.115C22.676,31.998,22.635,32,22.594,32z"/><path d="M13.855,24.896c-0.135,0-0.271-0.027-0.403-0.085c-0.505-0.224-0.733-0.813-0.511-1.319l1.843-4.175c0.224-0.504,0.812-0.731,1.319-0.511c0.505,0.224,0.733,0.813,0.511,1.319L14.771,24.3C14.606,24.673,14.24,24.896,13.855,24.896z"/><path d="M18.711,27.734c-0.388,0-0.756-0.227-0.919-0.605l-3.012-7.013c-0.218-0.508,0.017-1.096,0.524-1.313c0.506-0.217,1.095,0.017,1.313,0.524l3.012,7.013c0.218,0.508-0.017,1.096-0.524,1.313C18.977,27.707,18.843,27.734,18.711,27.734z"/></svg>