<svg xmlns="http://www.w3.org/2000/svg" viewBox="0 0 32 32"><!--! Font Icona - https://fonticona.com | License - https://fonticona.com/license | Copyright 2022 FontIcona.com --><path d="M16,32C7.2,32,0,24.8,0,16S7.2,0,16,0s16,7.2,16,16S24.8,32,16,32z M16,2C8.3,2,2,8.3,2,16s6.3,14,14,14s14-6.3,14-14S23.7,2,16,2z"/><path d="M15.7,22.3c-0.6,0-1-0.4-1-1v-9.7c0-0.6,0.4-1,1-1s1,0.4,1,1v9.7C16.7,21.9,16.3,22.3,15.7,22.3z"/><path d="M9.9,30.7c-0.2,0-0.4-0.1-0.6-0.2c-0.5-0.3-0.6-0.9-0.3-1.4l5.8-8.4c0.3-0.5,0.9-0.6,1.4-0.3c0.5,0.3,0.6,0.9,0.3,1.4l-5.8,8.4C10.6,30.6,10.3,30.7,9.9,30.7z"/><path d="M21.5,30.9c-0.3,0-0.6-0.2-0.8-0.4l-5.8-8.6c-0.3-0.5-0.2-1.1,0.3-1.4c0.5-0.3,1.1-0.2,1.4,0.3l5.8,8.6c0.3,0.5,0.2,1.1-0.3,1.4C21.9,30.9,21.7,30.9,21.5,30.9z"/><path d="M15.7,12.7c-2.2,0-4.1-1.8-4.1-4.1s1.8-4.1,4.1-4.1s4.1,1.8,4.1,4.1S18,12.7,15.7,12.7z M15.7,6.5c-1.1,0-2.1,0.9-2.1,2.1c0,1.1,0.9,2.1,2.1,2.1c1.1,0,2.1-0.9,2.1-2.1C17.8,7.4,16.9,6.5,15.7,6.5z"/><path d="M15.7,17c-0.4,0-0.8-0.3-1-0.7c-0.2-0.5,0.1-1.1,0.7-1.3l8.9-2.8c0.5-0.2,1.1,0.1,1.3,0.7c0.2,0.5-0.1,1.1-0.7,1.3L16,16.9C15.9,16.9,15.8,17,15.7,17z"/><path d="M15.7,17c-0.1,0-0.2,0-0.3,0l-8.6-2.8c-0.5-0.2-0.8-0.7-0.6-1.3c0.2-0.5,0.7-0.8,1.3-0.6L16,15c0.5,0.2,0.8,0.7,0.6,1.3C16.5,16.7,16.1,17,15.7,17z"/></svg>