<svg xmlns="http://www.w3.org/2000/svg" viewBox="0 0 32 32"><!--! Font Icona - https://fonticona.com | License - https://fonticona.com/license | Copyright 2022 FontIcona.com --><path d="M24.665,18.996c-0.256,0-0.512-0.098-0.707-0.293c-0.391-0.391-0.391-1.024,0-1.414l4.109-4.108c2.555-2.552,2.557-6.706,0.005-9.261c-1.236-1.237-2.881-1.919-4.63-1.92c-0.001,0-0.002,0-0.003,0c-1.748,0-3.391,0.68-4.627,1.916l-4.11,4.108c-0.391,0.39-1.023,0.39-1.414,0s-0.391-1.024,0-1.415l4.11-4.108C19.013,0.888,21.157,0,23.439,0c0.001,0,0.003,0,0.004,0c2.283,0.001,4.43,0.891,6.043,2.507c3.332,3.334,3.329,8.757-0.005,12.088l-4.109,4.107C25.177,18.898,24.921,18.996,24.665,18.996z"/><path d="M8.55,31.985c-2.089,0-4.174-0.756-5.801-2.264c-3.456-3.204-3.661-8.622-0.458-12.078l4.149-4.134c0.392-0.391,1.023-0.389,1.415,0.003c0.39,0.391,0.388,1.024-0.003,1.414L3.73,19.031c-2.427,2.619-2.27,6.769,0.378,9.223c2.5,2.317,6.413,2.315,8.909-0.007l4.085-4.083c0.391-0.39,1.023-0.39,1.414,0s0.391,1.024,0,1.415l-4.11,4.108C12.759,31.219,10.652,31.985,8.55,31.985z"/><path d="M25.476,26.579c-0.256,0-0.511-0.097-0.706-0.292l-4.224-4.211c-0.392-0.39-0.392-1.023-0.002-1.414c0.391-0.391,1.023-0.392,1.414-0.002l4.224,4.211c0.392,0.39,0.392,1.023,0.002,1.414C25.988,26.48,25.732,26.579,25.476,26.579z"/><path d="M10.392,11.531c-0.256,0-0.512-0.098-0.707-0.293l-4.16-4.159c-0.391-0.39-0.391-1.023,0-1.414s1.023-0.391,1.414,0l4.16,4.159c0.391,0.39,0.391,1.023,0,1.414C10.903,11.433,10.647,11.531,10.392,11.531z"/></svg>