<svg xmlns="http://www.w3.org/2000/svg" viewBox="0 0 32 32"><!--! Font Icona - https://fonticona.com | License - https://fonticona.com/license | Copyright 2022 FontIcona.com --><path d="M15.958,32.045l-0.29-0.088C2.615,28.005,2.465,19.358,2.465,18.992V3.228l0.43-0.298c4.39-3.048,12.459-2.948,13.062-2.927c0.601-0.021,8.674-0.12,13.063,2.927l0.43,0.298v15.765c0,0.366-0.15,9.013-13.203,12.965L15.958,32.045z M4.465,4.295v14.697c0.004,0.299,0.221,7.43,11.492,10.962c11.36-3.562,11.493-10.888,11.493-10.962V4.295c-4.042-2.436-11.396-2.296-11.469-2.292h-0.048C15.861,2.003,8.508,1.858,4.465,4.295z"/><path d="M4.239,11.072L2.861,9.623c0.383-0.365,9.572-8.905,25.798-6.864L28.41,4.743C13.114,2.828,4.325,10.989,4.239,11.072z"/><path d="M9.57,20.731H9.156c-1.36,0-2.467-1.106-2.467-2.467v-5.416c0-0.553,0.448-1,1-1s1,0.447,1,1v5.416c0,0.253,0.214,0.467,0.467,0.467H9.57c0.253,0,0.467-0.214,0.467-0.467v-5.416c0-0.553,0.448-1,1-1s1,0.447,1,1v5.416C12.037,19.625,10.931,20.731,9.57,20.731z"/><path d="M14.026,24.868c-0.552,0-1-0.447-1-1l0-5.33c0-0.02,0-0.039,0-0.059v-4.237c0-1.165,0.752-2.409,2.862-2.409c1.869,0,3.332,1.995,3.332,4.542s-1.463,4.542-3.332,4.542c-0.295,0-0.584-0.052-0.861-0.149v3.101C15.026,24.42,14.579,24.868,14.026,24.868z M15.026,18.254c0.251,0.413,0.57,0.663,0.862,0.663c0.629,0,1.332-1.087,1.332-2.542s-0.703-2.542-1.332-2.542c-0.862,0-0.862,0.246-0.862,0.409V18.254z"/><path d="M22.478,20.742c-1.112,0-2.088-0.602-2.218-0.685c-0.465-0.298-0.6-0.917-0.302-1.382c0.297-0.464,0.914-0.599,1.378-0.304c0.265,0.166,0.942,0.465,1.359,0.342c0.063-0.02,0.228-0.069,0.384-0.393c-0.008-0.001-0.007-0.061-0.019-0.164c-0.014-0.13-0.078-0.305-0.44-0.594c-0.23-0.185-0.474-0.344-0.718-0.505l-0.405-0.269c-0.427-0.282-1.011-0.668-1.328-1.385c-0.192-0.435-0.254-0.945-0.177-1.475c0.012-0.083,0.027-0.163,0.043-0.244c0.015-0.073,0.038-0.144,0.068-0.212c0.445-0.987,1.148-1.375,1.66-1.527c1.402-0.411,2.842,0.473,3.001,0.575c0.465,0.299,0.6,0.917,0.302,1.382c-0.299,0.465-0.917,0.6-1.382,0.302c-0.261-0.164-0.941-0.465-1.355-0.34c-0.06,0.018-0.208,0.062-0.355,0.334l-0.003,0.019c-0.022,0.153-0.012,0.288,0.027,0.378c0.08,0.18,0.322,0.34,0.602,0.524l0.403,0.269c0.294,0.194,0.588,0.39,0.866,0.611c0.262,0.21,1.06,0.848,1.18,1.939c0.052,0.486,0.011,0.856-0.13,1.167c-0.444,0.984-1.147,1.373-1.658,1.524C22.999,20.71,22.734,20.742,22.478,20.742z"/></svg>