<svg xmlns="http://www.w3.org/2000/svg" viewBox="0 0 32 32"><!--! Font Icona - https://fonticona.com | License - https://fonticona.com/license | Copyright 2022 FontIcona.com --><path d="M16,19.444c-0.023,0-0.046-0.001-0.069-0.002c-3.946-0.271-7.82-5.279-7.82-10.109c0-5.819,2.867-9.222,7.866-9.333c0.016,0,0.029,0,0.045,0c4.999,0.111,7.866,3.514,7.866,9.333c0,4.929-3.801,9.842-7.822,10.109C16.044,19.443,16.022,19.444,16,19.444z M16,2c-4.866,0.12-5.889,4.053-5.889,7.333c0,4.042,3.275,7.867,5.89,8.108c2.667-0.236,5.887-3.987,5.887-8.108C21.889,6.053,20.866,2.12,16,2z"/><path d="M16,32c-0.297,0-0.578-0.132-0.768-0.359l-2.778-3.333c-0.182-0.219-0.262-0.504-0.222-0.784l0.889-6.111c0.298-1.644,1.266-2.744,2.661-3.056c0.232-0.051,0.478-0.018,0.688,0.095c0.215,0.114,2.11,1.172,2.404,2.94c0.001,0.007,0.002,0.014,0.003,0.021l0.889,6.111c0.041,0.28-0.04,0.565-0.222,0.784l-2.778,3.333C16.578,31.868,16.297,32,16,32z M14.276,27.369L16,29.438l1.724-2.069l-0.823-5.657c-0.089-0.502-0.625-0.987-1.027-1.275c-0.4,0.219-0.662,0.653-0.779,1.298L14.276,27.369z"/><path d="M13.333,24.223c-0.256,0-0.512-0.098-0.708-0.293l-3.222-3.223c-0.046-0.046-0.088-0.097-0.124-0.151c-0.044-0.065-0.103-0.129-0.161-0.196c-0.269-0.312-0.675-0.784-0.675-1.471c0-0.136,0.027-0.27,0.081-0.395c0.453-1.056,1.045-1.817,1.809-2.326c0.459-0.306,1.08-0.183,1.387,0.277c0.306,0.46,0.182,1.08-0.277,1.387c-0.359,0.239-0.654,0.593-0.914,1.098c0.036,0.043,0.074,0.088,0.106,0.125c0.086,0.1,0.17,0.199,0.243,0.298l3.163,3.163c0.39,0.391,0.39,1.024-0.001,1.414C13.845,24.125,13.589,24.223,13.333,24.223z M10.427,18.788L10.427,18.788L10.427,18.788z"/><path d="M19.111,24.223c-0.256,0-0.512-0.098-0.707-0.293c-0.391-0.391-0.391-1.023,0-1.414c0.96-0.961,1.807-2.02,2.704-3.141c0.035-0.059,0.144-0.188,0.257-0.32c0.032-0.037,0.07-0.082,0.106-0.125c-0.26-0.505-0.555-0.858-0.914-1.098c-0.459-0.307-0.583-0.927-0.277-1.387s0.926-0.583,1.387-0.277c0.764,0.509,1.355,1.271,1.809,2.326c0.054,0.125,0.081,0.259,0.081,0.395c0,0.687-0.406,1.158-0.675,1.471c-0.058,0.067-0.117,0.131-0.16,0.196c-0.941,1.183-1.862,2.335-2.902,3.374C19.623,24.125,19.367,24.223,19.111,24.223z"/><path d="M26.015,27.723h-4.333c-0.276,0-0.5-0.224-0.5-0.5s0.224-0.5,0.5-0.5h4.333c0.276,0,0.5,0.224,0.5,0.5S26.291,27.723,26.015,27.723z"/><path d="M26.015,32c-0.552,0-1-0.447-1-1v-2.777h-2.333V31c0,0.553-0.448,1-1,1s-1-0.447-1-1v-3.777c0-0.553,0.448-1,1-1h4.333c0.552,0,1,0.447,1,1V31C27.015,31.553,26.567,32,26.015,32z"/><path d="M27.553,32H4.41c-0.896,0-1.737-0.396-2.309-1.084c-0.572-0.689-0.805-1.589-0.64-2.469l0.889-4.743c0.188-1.323,0.987-2.442,2.132-2.951l4.34-1.893c0.507-0.221,1.096,0.012,1.316,0.518s-0.011,1.096-0.517,1.316l-4.333,1.89c-0.596,0.265-0.89,0.921-0.965,1.446l-0.896,4.786c-0.075,0.401,0.101,0.688,0.213,0.822C3.752,29.773,4.001,30,4.41,30h23.143c0.301,0,0.583-0.134,0.774-0.367s0.266-0.537,0.206-0.832l-0.957-4.713c-0.213-0.959-0.354-1.277-0.871-1.507L22.48,20.69c-0.504-0.226-0.729-0.817-0.504-1.321c0.226-0.505,0.817-0.728,1.321-0.505l4.223,1.89c1.513,0.673,1.801,1.971,2.012,2.918l0.961,4.73c0.18,0.886-0.045,1.796-0.617,2.496C29.304,31.599,28.457,32,27.553,32z"/></svg>