<svg xmlns="http://www.w3.org/2000/svg" viewBox="0 0 32 32"><!--! Font Icona - https://fonticona.com | License - https://fonticona.com/license | Copyright 2022 FontIcona.com --><path d="M16,18.08c-5.155,0-9.349-4.056-9.349-9.04S10.845,0,16,0s9.349,4.056,9.349,9.04S21.155,18.08,16,18.08z M16,2c-4.052,0-7.349,3.158-7.349,7.04s3.297,7.04,7.349,7.04s7.349-3.158,7.349-7.04S20.052,2,16,2z"/><path d="M28.273,32H3.727c-0.891,0-1.731-0.393-2.305-1.076c-0.572-0.682-0.812-1.573-0.657-2.447C2.033,21.294,8.44,16.08,16,16.08s13.967,5.214,15.235,12.396c0.154,0.874-0.085,1.766-0.657,2.447C30.004,31.607,29.165,32,28.273,32z M16,18.08c-6.588,0-12.167,4.519-13.266,10.744c-0.07,0.397,0.107,0.681,0.22,0.814C3.146,29.868,3.428,30,3.727,30h24.547c0.298,0,0.58-0.132,0.772-0.361c0.112-0.134,0.29-0.417,0.22-0.814C28.167,22.599,22.588,18.08,16,18.08z"/><path d="M19.01,22.816c-0.082,0-0.166-0.01-0.249-0.031c-1.807-0.463-3.717-0.463-5.523,0c-0.523,0.134-1.057-0.171-1.208-0.688l-1.207-4.135c-0.155-0.53,0.149-1.086,0.68-1.24c0.531-0.155,1.086,0.149,1.24,0.68l0.946,3.241c1.526-0.273,3.096-0.273,4.622,0l0.946-3.241c0.155-0.53,0.712-0.833,1.24-0.68c0.53,0.155,0.834,0.71,0.68,1.24l-1.208,4.135C19.842,22.532,19.444,22.816,19.01,22.816z"/><path d="M12.99,31.781c-0.552,0-1-0.447-1-1v-8.962c0-0.553,0.448-1,1-1s1,0.447,1,1v8.962C13.99,31.334,13.542,31.781,12.99,31.781z"/><path d="M19.01,31.781c-0.552,0-1-0.447-1-1v-8.962c0-0.553,0.448-1,1-1s1,0.447,1,1v8.962C20.01,31.334,19.562,31.781,19.01,31.781z"/><path d="M16.001,10.04c-0.324,0-0.642-0.157-0.834-0.447c-0.305-0.461-0.179-1.081,0.281-1.386l4.075-2.701c0.461-0.308,1.081-0.18,1.386,0.28c0.305,0.461,0.179,1.081-0.281,1.386l-4.075,2.701C16.382,9.986,16.19,10.04,16.001,10.04z"/><path d="M16,4.547c-0.552,0-1-0.447-1-1V1c0-0.553,0.448-1,1-1s1,0.447,1,1v2.547C17,4.1,16.552,4.547,16,4.547z"/><path d="M16,18.08c-0.552,0-1-0.447-1-1v-2.785c0-0.553,0.448-1,1-1s1,0.447,1,1v2.785C17,17.633,16.552,18.08,16,18.08z"/><path d="M24.349,10.04h-2.645c-0.552,0-1-0.447-1-1s0.448-1,1-1h2.645c0.552,0,1,0.447,1,1S24.901,10.04,24.349,10.04z"/><path d="M10.542,10.04H7.651c-0.552,0-1-0.447-1-1s0.448-1,1-1h2.892c0.552,0,1,0.447,1,1S11.095,10.04,10.542,10.04z"/><circle cx="16" cy="9.04" r="1.25"/></svg>