<svg xmlns="http://www.w3.org/2000/svg" viewBox="0 0 32 32"><!--! Font Icona - https://fonticona.com | License - https://fonticona.com/license | Copyright 2022 FontIcona.com --><path d="M25.226,32c-0.004,0-0.006,0-0.01,0c-0.218,0-0.432-0.07-0.606-0.204c-6.689-4.038-5.947-12.779-5.912-13.151c0.048-0.514,0.479-0.906,0.995-0.906h11.057c0.516,0,0.947,0.393,0.995,0.906c0.035,0.372,0.778,9.113-5.912,13.152C25.657,31.929,25.444,32,25.226,32z M20.663,19.738c0.016,2.095,0.488,7.297,4.558,10.074c4.088-2.786,4.55-7.982,4.561-10.074H20.663z"/><path d="M14.967,18.08c-4.985,0-9.04-4.055-9.04-9.04S9.982,0,14.967,0s9.041,4.055,9.041,9.04S19.951,18.08,14.967,18.08z M14.967,2c-3.882,0-7.04,3.158-7.04,7.04s3.158,7.04,7.04,7.04c3.882,0,7.041-3.158,7.041-7.04S18.849,2,14.967,2z"/><path d="M14.509,32H3.222c-0.887,0-1.724-0.39-2.297-1.067c-0.572-0.678-0.815-1.565-0.667-2.438C1.472,21.302,7.658,16.08,14.967,16.08c2.843,0,4.886,0.51,7.053,1.759c0.478,0.275,0.643,0.888,0.366,1.366c-0.275,0.478-0.887,0.641-1.366,0.366c-1.552-0.896-3.176-1.491-6.053-1.491c-6.329,0-11.686,4.521-12.738,10.749c-0.067,0.397,0.111,0.68,0.224,0.812C2.645,29.869,2.926,30,3.222,30h11.288c0.552,0,1,0.447,1,1S15.062,32,14.509,32z"/><path d="M14.955,21.997c-2.441,0-4.863-0.845-6.977-2.506c-0.434-0.342-0.509-0.97-0.168-1.404s0.969-0.51,1.404-0.168c2.987,2.35,6.719,2.723,9.978,0.996c0.489-0.259,1.094-0.071,1.352,0.416c0.259,0.488,0.072,1.093-0.416,1.352C18.466,21.562,16.706,21.997,14.955,21.997z"/></svg>