<svg xmlns="http://www.w3.org/2000/svg" viewBox="0 0 32 32"><!--! Font Icona - https://fonticona.com | License - https://fonticona.com/license | Copyright 2022 FontIcona.com --><path d="M30.2,32H1.8c-0.4,0-0.8-0.3-0.9-0.7c-0.1-0.4,0-0.8,0.3-1.1c2.3-1.8,4.7-2.6,6.2-2.8c-0.7-1.7-1.3-3.8-1.2-5.9c0-0.5,0.4-0.9,0.8-0.9c0.7-0.1,1.6,0,2.8,0.5c0.8,0.3,1.5,0.7,2.1,1.1c1.6,1,2.7,2.1,3.4,3.4c0.2,0.4,0.4,0.9,0.7,1.3c0.2-0.4,0.4-0.9,0.6-1.3c0.7-1.4,1.8-2.5,3.4-3.5c0.7-0.4,1.4-0.8,2.1-1.1c1.2-0.4,2.1-0.6,2.8-0.5c0.5,0.1,0.8,0.5,0.8,0.9c0.1,2.1-0.5,4.1-1.1,5.8c1.6,0.2,4.3,0.9,6.3,3c0.3,0.3,0.3,0.7,0.2,1.1S30.6,32,30.2,32z M17,30h9.9c-1.9-0.8-3.7-0.8-3.7-0.8c-0.3,0-0.7-0.2-0.8-0.4c-0.2-0.3-0.2-0.6-0.1-0.9c0.6-1.5,1.3-3.3,1.5-5.2c-0.3,0.1-0.6,0.2-0.9,0.3c-0.6,0.2-1.2,0.6-1.8,0.9c-1.3,0.8-2.1,1.6-2.6,2.6C17.9,27.6,17.2,28.9,17,30z M5.6,30H15c-0.2-1.1-0.9-2.4-1.4-3.5c-0.5-1.1-1.4-1.9-2.6-2.7c-0.6-0.4-1.2-0.7-1.8-0.9c-0.4-0.1-0.7-0.2-0.9-0.3c0.1,1.9,0.8,3.7,1.5,5.2c0.1,0.3,0.1,0.7-0.1,0.9c-0.2,0.3-0.5,0.5-0.8,0.5C8.8,29.2,7.4,29.3,5.6,30z"/><path d="M16,15.2C9.8,15.2,3,13.8,3,10.7C3,9.1,4.8,7.8,8.2,7c0.5-2.9,2.1-5.9,3.6-6.7c0.7-0.4,1.3-0.2,1.6-0.1c0.8,0.4,2.2,0.5,2.6,0.5c0,0,0,0,0,0c0.5,0,1.8-0.1,2.6-0.5c0.5-0.3,1-0.3,1.5,0c1.6,0.8,3,4,3.6,6.8c2.5,0.6,5.2,1.7,5.2,3.7C28.9,13.8,22.2,15.2,16,15.2z M12.6,2.1c-0.7,0.4-2.3,3-2.6,5.8L9.9,8.7L9.2,8.8C6,9.5,5,10.4,5,10.7c0,0.7,3.8,2.5,10.9,2.5s10.9-1.8,10.9-2.5c0-0.3-1-1.2-4.3-1.9L22,8.6L21.9,8c-0.5-3-1.9-5.4-2.5-5.9c-1.4,0.7-3.2,0.7-3.4,0.7C15.8,2.7,14,2.7,12.6,2.1z"/><path d="M15.9,10.9c-2.6,0-5.2-0.7-7.4-2.2L9.6,7c3.9,2.5,8.9,2.5,12.7,0l1.1,1.7C21.1,10.1,18.5,10.9,15.9,10.9z"/><path d="M10.8,20.9c-2.6,0-4.7-2-4.7-4.4c0-1.4,0.7-2.7,1.8-3.5c0.4-0.3,1.1-0.2,1.4,0.2s0.2,1.1-0.2,1.4c-0.6,0.5-1,1.1-1,1.9c0,1.3,1.2,2.4,2.7,2.4s2.7-1.1,2.7-2.4c0-0.7-0.4-1.2-0.7-1.5c-0.4-0.4-0.4-1,0-1.4c0.4-0.4,1-0.4,1.4,0c0.8,0.8,1.2,1.9,1.2,2.9C15.5,18.9,13.4,20.9,10.8,20.9z"/><path d="M21.2,20.9c-2.6,0-4.7-2-4.7-4.4c0-1.1,0.4-2.1,1.2-2.9c0.4-0.4,1-0.4,1.4,0c0.4,0.4,0.4,1,0,1.4c-0.3,0.3-0.7,0.8-0.7,1.5c0,1.3,1.2,2.4,2.7,2.4s2.7-1.1,2.7-2.4c0-0.7-0.4-1.4-1-1.9c-0.4-0.3-0.6-0.9-0.2-1.4c0.3-0.4,0.9-0.6,1.4-0.2c1.2,0.8,1.8,2.1,1.8,3.5C25.8,18.9,23.8,20.9,21.2,20.9z"/><path d="M17.1,17.9h-2.2c-0.6,0-1-0.4-1-1c0-0.6,0.4-1,1-1h2.2c0.6,0,1,0.4,1,1C18.1,17.4,17.6,17.9,17.1,17.9z"/></svg>