<svg xmlns="http://www.w3.org/2000/svg" viewBox="0 0 32 32"><!--! Font Icona - https://fonticona.com | License - https://fonticona.com/license | Copyright 2022 FontIcona.com --><path d="M16,18.08c-4.984,0-9.04-4.056-9.04-9.04S11.016,0,16,0s9.04,4.056,9.04,9.04S20.984,18.08,16,18.08z M16,2c-3.882,0-7.04,3.158-7.04,7.04s3.158,7.04,7.04,7.04s7.04-3.158,7.04-7.04S19.882,2,16,2z"/><path d="M27.746,32h-6.777c-0.553,0-1-0.447-1-1s0.447-1,1-1h6.777c0.297,0,0.577-0.131,0.77-0.358c0.112-0.133,0.29-0.415,0.223-0.812C27.686,22.601,22.328,18.08,16,18.08S4.314,22.601,3.262,28.829c-0.067,0.397,0.11,0.68,0.223,0.812C3.677,29.869,3.957,30,4.254,30h9.809c0.553,0,1,0.447,1,1s-0.447,1-1,1H4.254c-0.887,0-1.724-0.389-2.297-1.067c-0.572-0.678-0.815-1.565-0.668-2.438C2.505,21.302,8.692,16.08,16,16.08s13.495,5.222,14.711,12.415c0.147,0.872-0.096,1.76-0.668,2.438C29.47,31.611,28.633,32,27.746,32z"/><path d="M16,21.994c-2.434,0-4.866-0.834-6.989-2.503c-0.434-0.341-0.51-0.97-0.168-1.404c0.34-0.433,0.968-0.511,1.404-0.168c3.494,2.748,8.012,2.748,11.506,0c0.436-0.343,1.063-0.265,1.404,0.168c0.342,0.435,0.266,1.063-0.168,1.404C20.866,21.16,18.434,21.994,16,21.994z"/><rect x="7.837" y="5.821" transform="matrix(0.9841 -0.1777 0.1777 0.9841 -0.9641 2.8755)" width="15.471" height="2.001"/><rect x="14.826" y="-0.065" transform="matrix(0.3269 -0.9451 0.9451 0.3269 6.3977 17.9867)" width="2.001" height="9.135"/><path d="M15.446,32H8.704v-2h6.742c1.098,0,1.991-0.894,1.991-1.992c0-1.098-0.894-1.991-1.991-1.991H8.704v-2h6.742c2.201,0,3.991,1.79,3.991,3.991S17.647,32,15.446,32z"/><rect x="8.494" y="19.88" transform="matrix(0.8941 -0.4479 0.4479 0.8941 -10.5292 6.9809)" width="2.001" height="11.742"/></svg>