<svg xmlns="http://www.w3.org/2000/svg" viewBox="0 0 32 32"><!--! Font Icona - https://fonticona.com | License - https://fonticona.com/license | Copyright 2022 FontIcona.com --><circle cx="27.391" cy="21.587" r="1.353"/><path class="st0" d="M22.837,31.943c-0.466,0-0.93-0.177-1.284-0.53l-4.095-4.095c-0.707-0.71-0.707-1.861,0-2.569l6.782-6.782c0.316-0.315,0.736-0.504,1.183-0.528l4.341-0.246c-0.006-0.01,0.067-0.003,0.103-0.003c0.48,0,0.944,0.19,1.286,0.532c0.365,0.366,0.557,0.871,0.526,1.387l-0.248,4.342c-0.024,0.444-0.212,0.864-0.527,1.181l-6.781,6.781C23.767,31.767,23.302,31.943,22.837,31.943z M18.848,26.033l3.99,3.989l6.728-6.729l0.222-4.21l-4.259,0.242L18.848,26.033z"/><path d="M15.07,18.08c-4.985,0-9.04-4.055-9.04-9.04S10.085,0,15.07,0s9.041,4.055,9.041,9.04S20.055,18.08,15.07,18.08z M15.07,2c-3.882,0-7.04,3.158-7.04,7.04s3.158,7.04,7.04,7.04c3.882,0,7.041-3.158,7.041-7.04S18.952,2,15.07,2z"/><path d="M14.613,32H3.325c-0.887,0-1.724-0.39-2.297-1.067c-0.572-0.678-0.815-1.565-0.667-2.438C1.576,21.302,7.762,16.08,15.07,16.08c3.386,0,4.862,0.546,6.888,1.769c0.473,0.285,0.625,0.9,0.34,1.373c-0.287,0.474-0.902,0.625-1.373,0.34c-1.812-1.094-2.968-1.481-5.855-1.481c-6.329,0-11.686,4.521-12.738,10.749c-0.067,0.397,0.111,0.68,0.224,0.812C2.748,29.869,3.029,30,3.325,30h11.288c0.552,0,1,0.447,1,1S15.165,32,14.613,32z"/><path d="M15.071,21.994c-2.434,0-4.866-0.834-6.989-2.503c-0.434-0.342-0.509-0.97-0.168-1.404s0.971-0.51,1.404-0.168c3.494,2.746,8.011,2.748,11.505,0c0.436-0.344,1.063-0.266,1.404,0.168c0.342,0.435,0.266,1.063-0.168,1.404C19.937,21.16,17.503,21.994,15.071,21.994z"/></svg>