<svg xmlns="http://www.w3.org/2000/svg" viewBox="0 0 32 32"><!--! Font Icona - https://fonticona.com | License - https://fonticona.com/license | Copyright 2022 FontIcona.com --><path d="M16.001,18.4c-5.073,0-9.2-4.127-9.2-9.2s4.127-9.2,9.2-9.2s9.2,4.127,9.2,9.2S21.074,18.4,16.001,18.4z M16.001,2c-3.97,0-7.2,3.23-7.2,7.2s3.23,7.2,7.2,7.2s7.2-3.23,7.2-7.2S19.971,2,16.001,2z"/><path d="M27.001,32h-22c-0.911,0-1.76-0.386-2.33-1.059c-0.562-0.662-0.801-1.539-0.657-2.405C3.113,21.613,8.99,16.506,15.986,16.4c7.026,0.105,12.903,5.213,14.002,12.143c0.14,0.835-0.104,1.702-0.671,2.371C28.732,31.604,27.889,32,27.001,32z M15.986,18.4c-5.992,0.091-11.05,4.488-11.997,10.457c-0.049,0.296,0.025,0.575,0.208,0.791C4.389,29.875,4.675,30,5.001,30h22c0.294,0,0.589-0.142,0.79-0.378c0.109-0.129,0.283-0.399,0.224-0.758C27.066,22.889,22.008,18.491,15.986,18.4z"/><path d="M19.346,28.896l-0.417-0.167c-0.45-0.181-0.983-0.42-1.528-0.829c-0.919-0.689-2.01-1.654-2.28-3.003c-0.313-1.246,0.363-2.612,1.556-3.104c0.825-0.435,1.824-0.335,2.611,0.207c0.706-0.466,1.656-0.576,2.564-0.236l0.096,0.042c1.228,0.613,1.84,1.874,1.523,3.138c-0.262,1.451-1.47,2.357-2.27,2.956c-0.384,0.289-0.8,0.484-1.167,0.657L19.346,28.896z M17.785,23.521c-0.067,0-0.132,0.015-0.187,0.047l-0.146,0.068c-0.32,0.12-0.456,0.521-0.381,0.82c0.149,0.739,0.943,1.403,1.529,1.843c0.204,0.152,0.411,0.276,0.678,0.402c0.264-0.125,0.525-0.254,0.723-0.402c0.782-0.587,1.391-1.09,1.517-1.778c0.095-0.39-0.068-0.709-0.416-0.901c-0.309-0.102-0.689-0.073-0.832,0.175l-0.262,0.312l-0.711,0.711l-0.909-0.938C18.228,23.656,17.988,23.521,17.785,23.521z"/></svg>