<svg xmlns="http://www.w3.org/2000/svg" viewBox="0 0 32 32"><!--! Font Icona - https://fonticona.com | License - https://fonticona.com/license | Copyright 2022 FontIcona.com --><path d="M24.409,32c-4.036,0-7.319-3.283-7.319-7.319c0-4.035,3.283-7.318,7.319-7.318s7.319,3.283,7.319,7.318C31.729,28.717,28.445,32,24.409,32z M24.409,19.362c-2.933,0-5.319,2.386-5.319,5.318S21.477,30,24.409,30s5.319-2.387,5.319-5.319S27.342,19.362,24.409,19.362z"/><path d="M24.51,27.684c-0.229,0-0.458-0.078-0.646-0.237l-2.337-1.982c-0.422-0.357-0.474-0.988-0.116-1.409s0.988-0.473,1.409-0.116l2.337,1.982c0.422,0.357,0.474,0.988,0.116,1.409C25.075,27.563,24.794,27.684,24.51,27.684z"/><path d="M24.51,27.684c-0.217,0-0.435-0.07-0.618-0.215c-0.434-0.342-0.508-0.971-0.166-1.404l4.744-6.019c0.343-0.434,0.971-0.507,1.404-0.166c0.434,0.342,0.508,0.971,0.166,1.404l-4.744,6.019C25.099,27.553,24.806,27.684,24.51,27.684z"/><path d="M15.024,18.08c-4.985,0-9.04-4.055-9.04-9.04S10.04,0,15.024,0c4.984,0,9.04,4.055,9.04,9.04S20.009,18.08,15.024,18.08z M15.024,2c-3.882,0-7.04,3.158-7.04,7.04s3.158,7.04,7.04,7.04s7.04-3.158,7.04-7.04S18.906,2,15.024,2z"/><path d="M14.567,32H3.279c-0.887,0-1.724-0.39-2.297-1.068c-0.572-0.677-0.815-1.565-0.667-2.437C1.53,21.302,7.716,16.08,15.024,16.08c3.439,0,5.437,0.779,7.377,1.949c0.473,0.285,0.625,0.899,0.34,1.373c-0.285,0.473-0.898,0.625-1.373,0.34c-1.701-1.026-3.356-1.662-6.344-1.662c-6.329,0-11.686,4.521-12.738,10.749c-0.067,0.396,0.111,0.68,0.224,0.812C2.702,29.869,2.983,30,3.279,30h11.288c0.552,0,1,0.447,1,1S15.12,32,14.567,32z"/><path d="M15.025,21.994c-2.433,0-4.866-0.834-6.989-2.503c-0.434-0.341-0.509-0.97-0.168-1.404s0.97-0.51,1.404-0.168c3.494,2.746,8.011,2.746,11.505,0c0.436-0.344,1.063-0.266,1.404,0.168c0.342,0.435,0.266,1.063-0.168,1.404C19.891,21.16,17.458,21.994,15.025,21.994z"/></svg>