<svg xmlns="http://www.w3.org/2000/svg" viewBox="0 0 32 32"><!--! Font Icona - https://fonticona.com | License - https://fonticona.com/license | Copyright 2022 FontIcona.com --><path d="M9.009,10.603c-2.923,0-5.301-2.378-5.301-5.302C3.708,2.378,6.086,0,9.009,0s5.301,2.378,5.301,5.301C14.31,8.225,11.932,10.603,9.009,10.603z M9.009,2c-1.82,0-3.301,1.48-3.301,3.301s1.48,3.302,3.301,3.302s3.301-1.481,3.301-3.302S10.829,2,9.009,2z"/><path d="M14.101,18.049H3.917c-0.987,0-1.915-0.486-2.481-1.301c-0.55-0.792-0.676-1.755-0.346-2.644c1.225-3.291,4.406-5.502,7.919-5.502c3.512,0,6.694,2.211,7.92,5.502c0.33,0.888,0.204,1.852-0.346,2.643C16.017,17.562,15.089,18.049,14.101,18.049z M9.009,10.603c-2.681,0-5.11,1.688-6.044,4.199c-0.136,0.363,0.013,0.66,0.113,0.805c0.192,0.277,0.506,0.442,0.839,0.442h10.184c0.333,0,0.647-0.165,0.84-0.442c0.101-0.145,0.249-0.441,0.113-0.805C14.119,12.29,11.689,10.603,9.009,10.603z"/><path d="M9.01,13.551c-1.076,0-2.68-0.43-4.211-2.481c-0.33-0.442-0.239-1.068,0.203-1.399c0.442-0.329,1.07-0.238,1.4,0.203c0.571,0.766,1.487,1.678,2.607,1.678c1.119,0,2.035-0.912,2.605-1.677c0.33-0.444,0.957-0.533,1.399-0.204c0.443,0.33,0.534,0.957,0.204,1.399C11.688,13.12,10.085,13.551,9.01,13.551z"/><path d="M22.991,24.553c-2.923,0-5.301-2.378-5.301-5.301s2.378-5.301,5.301-5.301s5.301,2.378,5.301,5.301S25.914,24.553,22.991,24.553z M22.991,15.951c-1.82,0-3.301,1.48-3.301,3.301s1.48,3.301,3.301,3.301s3.301-1.48,3.301-3.301S24.812,15.951,22.991,15.951z"/><path d="M28.083,32H17.899c-0.987,0-1.916-0.486-2.481-1.301c-0.551-0.792-0.677-1.756-0.347-2.645c1.226-3.291,4.408-5.502,7.92-5.502s6.694,2.211,7.919,5.502c0.33,0.89,0.204,1.854-0.346,2.645C29.998,31.514,29.07,32,28.083,32z M22.991,24.553c-2.681,0-5.109,1.688-6.045,4.199c-0.136,0.364,0.013,0.661,0.113,0.806C17.252,29.835,17.566,30,17.899,30h10.184c0.333,0,0.646-0.165,0.839-0.442c0.101-0.145,0.249-0.441,0.113-0.806C28.101,26.24,25.672,24.553,22.991,24.553z"/><path d="M22.991,27.505C22.99,27.505,22.99,27.505,22.991,27.505c-1.077,0-2.681-0.431-4.21-2.484c-0.33-0.443-0.238-1.069,0.204-1.399c0.442-0.331,1.068-0.239,1.399,0.204c0.571,0.767,1.486,1.68,2.605,1.68h0.001c1.119,0,2.035-0.913,2.606-1.68c0.331-0.442,0.957-0.534,1.399-0.204s0.534,0.957,0.204,1.399C25.671,27.074,24.066,27.505,22.991,27.505z"/></svg>