<svg xmlns="http://www.w3.org/2000/svg" viewBox="0 0 32 32"><!--! Font Icona - https://fonticona.com | License - https://fonticona.com/license | Copyright 2022 FontIcona.com --><path d="M24.13,9.59c-1.626,0-2.948-1.323-2.948-2.949s1.322-2.949,2.948-2.949s2.949,1.323,2.949,2.949S25.756,9.59,24.13,9.59z M24.13,5.691c-0.522,0-0.948,0.426-0.948,0.949S23.607,7.59,24.13,7.59c0.523,0,0.949-0.426,0.949-0.949S24.653,5.691,24.13,5.691z"/><path d="M31,28.309h-2.021c-0.553,0-1-0.447-1-1s0.447-1,1-1h0.61l-1.235-3.519c-0.184-0.521,0.091-1.092,0.612-1.274c0.521-0.185,1.092,0.091,1.274,0.612l1.703,4.85c0.107,0.306,0.06,0.645-0.128,0.909S31.324,28.309,31,28.309z"/><path d="M25.246,28.309h-2.125c-0.553,0-1-0.447-1-1s0.447-1,1-1h0.931l-0.655-3.674c-0.163-0.911,0.368-2.036,1.234-2.618l2.204-1.478c0.338-0.228,0.483-0.557,0.484-0.648l-1.779-4.843c-0.189-0.52,0.077-1.094,0.596-1.283c0.519-0.188,1.094,0.077,1.283,0.596l1.792,4.903c0.35,0.958-0.193,2.219-1.263,2.936l-2.203,1.479c-0.237,0.159-0.388,0.492-0.379,0.612l0.864,4.843c0.052,0.292-0.027,0.591-0.218,0.817C25.823,28.178,25.542,28.309,25.246,28.309z"/><path d="M26.479,13.704c-0.243,0-0.478-0.089-0.659-0.247c-0.255,0.161-0.58,0.209-0.885,0.094c-0.518-0.192-0.782-0.768-0.59-1.285l0.293-0.79c0.33-0.896,1.018-0.966,1.222-0.966h0.001c0.265,0.001,0.917,0.101,1.252,1.015l0.306,0.836c0.189,0.519-0.077,1.093-0.596,1.283C26.71,13.685,26.594,13.704,26.479,13.704z"/><path d="M20.031,19.911h-0.486c-0.553,0-1-0.447-1-1s0.447-1,1-1h0.486c0.245,0,0.48-0.089,0.663-0.251l2.27-2.006c0.123-0.109,0.218-0.247,0.274-0.401l1.107-2.987c0.191-0.518,0.765-0.783,1.285-0.59c0.518,0.191,0.782,0.767,0.59,1.285l-1.106,2.986c-0.171,0.462-0.457,0.88-0.827,1.206l-2.269,2.006C21.47,19.645,20.764,19.911,20.031,19.911z"/><path d="M7.87,9.59c-1.626,0-2.949-1.323-2.949-2.949S6.244,3.691,7.87,3.691s2.948,1.323,2.948,2.949S9.496,9.59,7.87,9.59z M7.87,5.691c-0.523,0-0.949,0.426-0.949,0.949S7.347,7.59,7.87,7.59c0.522,0,0.948-0.426,0.948-0.949S8.393,5.691,7.87,5.691z"/><path d="M3.021,28.309H1c-0.324,0-0.628-0.157-0.815-0.422s-0.235-0.604-0.128-0.909l1.702-4.85c0.183-0.522,0.755-0.799,1.274-0.612c0.521,0.183,0.796,0.754,0.612,1.274l-1.234,3.519h0.61c0.553,0,1,0.447,1,1S3.574,28.309,3.021,28.309z"/><path d="M8.879,28.309H6.754c-0.296,0-0.577-0.131-0.767-0.358c-0.19-0.227-0.27-0.525-0.218-0.817l0.865-4.85c0.008-0.113-0.143-0.446-0.381-0.606l-2.202-1.478c-1.069-0.717-1.612-1.978-1.264-2.934l1.793-4.905c0.189-0.519,0.766-0.783,1.283-0.596c0.519,0.189,0.785,0.764,0.596,1.283l-1.794,4.905c0.016,0.029,0.161,0.358,0.499,0.586l2.203,1.477c0.867,0.583,1.398,1.708,1.235,2.619l-0.655,3.674h0.931c0.553,0,1,0.447,1,1S9.432,28.309,8.879,28.309z"/><path d="M5.521,13.704c-0.114,0-0.23-0.02-0.344-0.061c-0.519-0.19-0.785-0.765-0.596-1.283l0.306-0.835c0.335-0.915,0.987-1.015,1.252-1.016H6.14c0.204,0,0.892,0.07,1.223,0.968l0.292,0.788c0.192,0.518-0.072,1.093-0.59,1.285c-0.304,0.115-0.63,0.067-0.885-0.094C5.998,13.615,5.764,13.704,5.521,13.704z"/><path d="M12.455,19.911h-0.486c-0.732,0-1.438-0.267-1.987-0.751l-2.27-2.008c-0.369-0.325-0.655-0.743-0.827-1.206l-1.105-2.985c-0.192-0.519,0.072-1.094,0.59-1.285c0.522-0.194,1.094,0.072,1.285,0.59l1.106,2.986c0.058,0.155,0.152,0.293,0.274,0.401l2.271,2.008c0.183,0.161,0.418,0.25,0.663,0.25h0.486c0.553,0,1,0.447,1,1S13.008,19.911,12.455,19.911z"/><path d="M12.105,18.417c-0.553,0-1-0.447-1-1v-6.25c0-0.553,0.447-1,1-1s1,0.447,1,1v6.25C13.105,17.97,12.658,18.417,12.105,18.417z"/><path d="M19.88,18.417c-0.553,0-1-0.447-1-1v-6.531c0-0.553,0.447-1,1-1s1,0.447,1,1v6.531C20.88,17.97,20.433,18.417,19.88,18.417z"/><path d="M19.545,11.886h-7.439c-0.553,0-1-0.447-1-1s0.447-1,1-1h7.439c0.553,0,1,0.447,1,1S20.098,11.886,19.545,11.886z"/><path d="M19.88,18.417h-7.774c-0.553,0-1-0.447-1-1s0.447-1,1-1h7.774c0.553,0,1,0.447,1,1S20.433,18.417,19.88,18.417z"/></svg>