<svg xmlns="http://www.w3.org/2000/svg" viewBox="0 0 32 32"><!--! Font Icona - https://fonticona.com | License - https://fonticona.com/license | Copyright 2022 FontIcona.com --><path d="M31,32c-0.256,0-0.512-0.098-0.707-0.293l-30-30c-0.391-0.391-0.391-1.023,0-1.414s1.023-0.391,1.414,0l30,30c0.391,0.391,0.391,1.023,0,1.414C31.512,31.902,31.256,32,31,32z"/><path d="M25.52,32H4.432c-0.979,0-1.898-0.434-2.524-1.188c-0.611-0.738-0.86-1.696-0.684-2.629c1.062-5.598,5.301-10.187,10.8-11.691c0.529-0.141,1.082,0.168,1.229,0.701c0.146,0.532-0.168,1.082-0.701,1.229c-4.767,1.304-8.442,5.282-9.362,10.135c-0.09,0.473,0.124,0.816,0.26,0.98C3.692,29.831,4.051,30,4.432,30H25.52c0.553,0,1,0.447,1,1S26.072,32,25.52,32z"/><path d="M15.564,21.89c-0.016,0-0.03,0-0.046-0.001c-2.342-0.105-4.611-0.971-6.562-2.503c-0.435-0.341-0.511-0.97-0.169-1.403c0.341-0.435,0.97-0.512,1.403-0.169c1.621,1.272,3.494,1.991,5.417,2.077c0.552,0.024,0.979,0.492,0.954,1.044C16.538,21.471,16.096,21.89,15.564,21.89z"/><path d="M20.471,16.592c-0.32,0-0.636-0.153-0.829-0.439c-0.31-0.457-0.189-1.079,0.268-1.389c1.923-1.303,3.071-3.465,3.071-5.783C22.98,5.132,19.849,2,16,2c-2.346,0-4.522,1.169-5.822,3.127c-0.305,0.459-0.926,0.586-1.386,0.28s-0.586-0.926-0.28-1.386C10.183,1.503,12.982,0,16,0c4.952,0,8.98,4.028,8.98,8.98c0,2.983-1.477,5.765-3.95,7.439C20.858,16.536,20.664,16.592,20.471,16.592z"/></svg>