<svg xmlns="http://www.w3.org/2000/svg" viewBox="0 0 32 32"><!--! Font Icona - https://fonticona.com | License - https://fonticona.com/license | Copyright 2022 FontIcona.com --><path d="M16,19.482c-0.033,0-0.066-0.002-0.1-0.005c-3.61-0.361-7.807-4.882-7.807-10.168C8.094,1.615,12.393,0,16,0c0.014,0,0.028,0,0.042,0.001c5.071,0.216,7.864,3.56,7.864,9.416c0,5.21-4.195,9.687-7.803,10.061C16.069,19.48,16.035,19.482,16,19.482z M15.979,2c-2.533,0.004-5.885,0.776-5.885,7.31c0,4.029,3.221,7.812,5.905,8.166c2.686-0.362,5.908-4.098,5.908-8.059C21.906,4.604,19.967,2.178,15.979,2z"/><path d="M13.086,24.338c-0.256,0-0.512-0.098-0.707-0.293c-0.664-0.663-2.866-3.179-2.959-3.286c-0.029-0.032-0.055-0.066-0.079-0.103c-0.04-0.061-0.09-0.125-0.143-0.193c-0.268-0.351-0.673-0.88-0.673-1.549c0-0.136,0.027-0.27,0.081-0.394c0.324-0.756,0.852-1.493,1.615-2.256c0.391-0.391,1.024-0.391,1.415,0c0.39,0.391,0.39,1.024,0,1.414c-0.465,0.465-0.808,0.9-1.04,1.32c0.057,0.073,0.136,0.176,0.192,0.249c0.063,0.083,0.123,0.162,0.176,0.237c0.299,0.341,2.258,2.573,2.83,3.146c0.391,0.391,0.391,1.023,0,1.414C13.598,24.24,13.342,24.338,13.086,24.338z"/><path d="M19.129,24.338c-0.238,0-0.478-0.085-0.668-0.257c-0.411-0.369-0.444-1.002-0.074-1.412c0.952-1.058,1.82-2.144,2.66-3.193l0.101-0.149c0.062-0.088,0.167-0.236,0.245-0.362c-0.201-0.284-0.566-0.722-0.765-0.96c-0.127-0.151-0.244-0.291-0.336-0.407c-0.345-0.431-0.275-1.061,0.156-1.405c0.431-0.348,1.059-0.277,1.406,0.155l0.31,0.376c0.932,1.117,1.312,1.628,1.312,2.191c0,0.58-0.368,1.103-0.692,1.563l-0.124,0.179c-0.908,1.142-1.795,2.25-2.786,3.351C19.675,24.227,19.403,24.338,19.129,24.338z M21.519,19.167h0.01H21.519z M21.492,18.779L21.492,18.779L21.492,18.779z"/><path d="M16,32c-0.296,0-0.576-0.131-0.766-0.357l-2.806-3.346c-0.183-0.219-0.265-0.505-0.224-0.787c0,0,0.753-5.162,0.861-6.022c0.161-1.284,1.469-2.277,2.54-2.737c0.27-0.115,0.579-0.107,0.842,0.024c1.377,0.689,2.065,1.691,2.242,2.353c0.238,0.822,0.823,5.169,0.999,6.505c0.037,0.277-0.044,0.557-0.223,0.771l-2.698,3.237C16.579,31.868,16.298,32,16.001,32C16.001,32,16,32,16,32z M14.249,27.355l1.749,2.085l1.651-1.98c-0.347-2.597-0.753-5.358-0.873-5.754c-0.004-0.015-0.015-0.05-0.019-0.066c-0.027-0.091-0.244-0.466-0.787-0.833c-0.512,0.309-0.892,0.708-0.92,0.929C14.961,22.446,14.434,26.079,14.249,27.355z"/><path d="M22.367,9.122c-0.256,0-0.512-0.098-0.707-0.293c-0.963-0.963-2.277-2.049-3.688-2.554c0,0.03,0,0.061-0.003,0.091c-0.048,0.605-0.682,1.021-1.244,0.896c-1.893-0.3-6.089-1.009-6.669-3.907c-0.108-0.542,0.243-1.068,0.784-1.177c0.542-0.111,1.069,0.242,1.177,0.784c0.205,1.022,1.788,1.622,3.201,1.969c0.031-0.506,0.439-0.913,0.953-0.937c2.756-0.119,5.274,1.791,6.903,3.421c0.391,0.391,0.391,1.023,0,1.414C22.878,9.024,22.623,9.122,22.367,9.122z"/><path d="M27.632,32H4.368c-0.892,0-1.732-0.393-2.303-1.078c-0.572-0.685-0.808-1.58-0.648-2.458l0.866-4.765c0.243-1.098,0.674-2.265,2.088-2.894l4.643-2.052c0.503-0.222,1.095,0.005,1.319,0.511c0.223,0.505-0.005,1.096-0.51,1.319l-4.641,2.051c-0.522,0.231-0.742,0.573-0.939,1.46l-0.858,4.727c-0.073,0.4,0.104,0.686,0.216,0.819C3.712,29.775,3.96,30,4.368,30h23.265c0.407,0,0.656-0.225,0.768-0.359c0.112-0.134,0.289-0.419,0.216-0.819l-0.866-4.765c-0.088-0.774-0.356-1.167-0.933-1.423l-4.721-1.931c-0.511-0.209-0.756-0.793-0.547-1.305c0.21-0.51,0.795-0.756,1.304-0.547l4.749,1.942c1.263,0.561,1.969,1.558,2.126,2.974l0.856,4.696c0.16,0.878-0.077,1.773-0.648,2.458C29.364,31.607,28.524,32,27.632,32z"/></svg>