<svg xmlns="http://www.w3.org/2000/svg" viewBox="0 0 32 32"><!--! Font Icona - https://fonticona.com | License - https://fonticona.com/license | Copyright 2022 FontIcona.com --><path d="M15.979,22.968c-3.621,0-6.566-2.945-6.566-6.565s2.945-6.565,6.566-6.565c3.62,0,6.565,2.945,6.565,6.565l0,0l0,0c0.001,3.588-2.808,6.473-6.395,6.565H15.979z M15.979,11.837c-2.518,0-4.566,2.048-4.566,4.565s2.048,4.565,4.566,4.565h0.145c2.468-0.064,4.422-2.069,4.421-4.565l0,0C20.545,13.885,18.497,11.837,15.979,11.837z"/><path d="M10.404,8.485c-0.015,0-0.029,0-0.044-0.001c-0.552-0.023-0.98-0.49-0.956-1.042c0.156-3.622,3.231-6.447,6.853-6.287c3.436,0.148,6.139,2.852,6.287,6.287c0.024,0.552-0.404,1.019-0.956,1.042c-0.536,0.026-1.018-0.404-1.042-0.956c-0.103-2.391-1.984-4.271-4.375-4.375c-2.524-0.114-4.661,1.854-4.769,4.375C11.379,8.065,10.937,8.485,10.404,8.485z"/><path d="M22.724,30.851H9.276c-0.552,0-1-0.447-1-1v-2.069c-0.03-3.397,2.267-6.312,5.586-7.077c0.534-0.128,1.075,0.211,1.199,0.75c0.124,0.538-0.212,1.075-0.75,1.199c-2.397,0.553-4.057,2.658-4.035,5.119v1.078h11.448v-1.069c0.017-2.445-1.698-4.599-4.079-5.126c-0.539-0.12-0.879-0.654-0.759-1.193c0.119-0.539,0.651-0.876,1.193-0.76c3.295,0.731,5.669,3.711,5.646,7.086v2.062C23.724,30.403,23.276,30.851,22.724,30.851z M10.276,29.851h0.01H10.276z"/><path d="M7.709,19.472c-3.624,0-6.573-2.947-6.575-6.571C1.132,9.273,4.08,6.321,7.707,6.319c0,0,0.001,0,0.002,0c3.034,0,5.66,2.057,6.386,5.002c0.132,0.536-0.195,1.078-0.731,1.21c-0.532,0.136-1.078-0.194-1.21-0.731c-0.505-2.05-2.333-3.48-4.444-3.48c0,0-0.001,0-0.001,0c-2.523,0.002-4.575,2.056-4.573,4.579c0.001,2.522,2.054,4.573,4.576,4.573c0.001,0,0.001,0,0.003,0h0.145c0.765-0.011,1.535-0.223,2.212-0.612c0.479-0.274,1.09-0.109,1.365,0.368c0.275,0.479,0.111,1.091-0.368,1.366c-0.971,0.558-2.076,0.861-3.195,0.878H7.714C7.712,19.472,7.711,19.472,7.709,19.472z"/><path d="M9.4,27.364H1c-0.552,0-1-0.447-1-1v-2.068c-0.006-3.386,2.295-6.28,5.598-7.037c0.535-0.123,1.075,0.213,1.198,0.751c0.124,0.539-0.213,1.075-0.751,1.198C3.659,19.755,1.996,21.847,2,24.294v1.07h7.4c0.552,0,1,0.447,1,1S9.952,27.364,9.4,27.364z"/><path d="M24.31,19.513c-0.001,0-0.002,0-0.004,0h-0.144c-1.152-0.031-2.257-0.352-3.222-0.927c-0.475-0.283-0.63-0.896-0.347-1.371c0.282-0.475,0.897-0.63,1.371-0.348c0.673,0.401,1.442,0.624,2.226,0.646h0.117c0.001,0,0.002,0,0.003,0c2.522,0,4.575-2.051,4.577-4.573s-2.05-4.576-4.573-4.578c-0.001,0-0.002,0-0.004,0c-2.11,0-3.937,1.431-4.442,3.48c-0.132,0.537-0.675,0.867-1.21,0.731c-0.536-0.132-0.864-0.674-0.731-1.21c0.726-2.945,3.351-5.002,6.384-5.002c0.002,0,0.003,0,0.005,0c3.625,0.002,6.574,2.954,6.571,6.58C30.884,16.565,27.934,19.513,24.31,19.513z"/><path d="M31,27.364h-8.379c-0.552,0-1-0.447-1-1s0.448-1,1-1H30v-1.068c0.007-2.444-1.649-4.535-4.026-5.089c-0.538-0.125-0.873-0.662-0.748-1.2c0.125-0.539,0.663-0.88,1.201-0.747c3.291,0.765,5.583,3.66,5.573,7.039v2.065C32,26.917,31.552,27.364,31,27.364z"/></svg>