<svg xmlns="http://www.w3.org/2000/svg" viewBox="0 0 32 32"><!--! Font Icona - https://fonticona.com | License - https://fonticona.com/license | Copyright 2022 FontIcona.com --><path d="M24.47,32c-4.036,0-7.319-3.283-7.319-7.319c0-4.035,3.283-7.318,7.319-7.318s7.319,3.283,7.319,7.318C31.789,28.717,28.506,32,24.47,32z M24.47,19.362c-2.933,0-5.319,2.386-5.319,5.318S21.537,30,24.47,30s5.319-2.387,5.319-5.319S27.402,19.362,24.47,19.362z"/><path d="M26.603,25.681h-4.267c-0.553,0-1-0.447-1-1s0.447-1,1-1h4.267c0.553,0,1,0.447,1,1S27.155,25.681,26.603,25.681z"/><path d="M24.47,27.814c-0.553,0-1-0.447-1-1v-4.268c0-0.553,0.447-1,1-1s1,0.447,1,1v4.268C25.47,27.367,25.022,27.814,24.47,27.814z"/><path d="M14.964,18.08c-4.985,0-9.04-4.055-9.04-9.04S9.979,0,14.964,0c4.984,0,9.04,4.055,9.04,9.04S19.948,18.08,14.964,18.08z M14.964,2c-3.882,0-7.04,3.158-7.04,7.04s3.158,7.04,7.04,7.04s7.04-3.158,7.04-7.04S18.846,2,14.964,2z"/><path d="M14.507,32H3.219c-0.887,0-1.724-0.39-2.297-1.068c-0.572-0.677-0.815-1.565-0.667-2.437C1.47,21.302,7.656,16.08,14.964,16.08c3.439,0,5.437,0.779,7.377,1.949c0.473,0.285,0.625,0.899,0.34,1.373c-0.285,0.473-0.899,0.625-1.373,0.34c-1.701-1.026-3.356-1.662-6.344-1.662c-6.328,0-11.686,4.521-12.738,10.749c-0.067,0.396,0.111,0.68,0.224,0.812C2.642,29.869,2.922,30,3.219,30h11.288c0.552,0,1,0.447,1,1S15.059,32,14.507,32z"/><path d="M14.964,21.994c-2.433,0-4.866-0.834-6.989-2.503c-0.434-0.341-0.509-0.97-0.168-1.404c0.342-0.435,0.969-0.51,1.404-0.168c3.494,2.746,8.011,2.746,11.505,0c0.436-0.344,1.063-0.266,1.404,0.168c0.342,0.435,0.266,1.063-0.168,1.404C19.83,21.16,17.397,21.994,14.964,21.994z"/></svg>