<svg xmlns="http://www.w3.org/2000/svg" viewBox="0 0 32 32"><!--! Font Icona - https://fonticona.com | License - https://fonticona.com/license | Copyright 2022 FontIcona.com --><path d="M24.492,32c-4.035,0-7.318-3.283-7.318-7.319c0-4.035,3.283-7.318,7.318-7.318c4.036,0,7.319,3.283,7.319,7.318C31.812,28.717,28.528,32,24.492,32z M24.492,19.362c-2.933,0-5.318,2.386-5.318,5.318S21.56,30,24.492,30s5.319-2.387,5.319-5.319S27.425,19.362,24.492,19.362z"/><path d="M26.626,25.681h-4.268c-0.553,0-1-0.447-1-1s0.447-1,1-1h4.268c0.553,0,1,0.447,1,1S27.179,25.681,26.626,25.681z"/><path d="M14.941,18.08c-4.985,0-9.04-4.055-9.04-9.04S9.956,0,14.941,0s9.04,4.055,9.04,9.04S19.926,18.08,14.941,18.08z M14.941,2c-3.882,0-7.04,3.158-7.04,7.04s3.158,7.04,7.04,7.04c3.881,0,7.04-3.158,7.04-7.04S18.822,2,14.941,2z"/><path d="M14.484,32H3.196c-0.887,0-1.724-0.39-2.297-1.068c-0.572-0.677-0.815-1.565-0.667-2.437c1.215-7.193,7.402-12.415,14.71-12.415c3.439,0,5.436,0.779,7.376,1.949c0.473,0.285,0.625,0.899,0.34,1.373c-0.285,0.473-0.898,0.625-1.373,0.34c-1.701-1.026-3.356-1.662-6.343-1.662c-6.329,0-11.686,4.521-12.738,10.749c-0.067,0.396,0.111,0.68,0.224,0.812C2.619,29.869,2.899,30,3.196,30h11.288c0.552,0,1,0.447,1,1S15.036,32,14.484,32z"/><path d="M14.941,21.994c-2.433,0-4.866-0.834-6.989-2.503c-0.434-0.341-0.509-0.97-0.168-1.404s0.969-0.51,1.404-0.168c3.494,2.748,8.01,2.748,11.504,0c0.437-0.341,1.063-0.266,1.404,0.168c0.342,0.435,0.267,1.062-0.168,1.404C19.808,21.16,17.374,21.994,14.941,21.994z"/></svg>