<svg xmlns="http://www.w3.org/2000/svg" viewBox="0 0 32 32"><!--! Font Icona - https://fonticona.com | License - https://fonticona.com/license | Copyright 2022 FontIcona.com --><path d="M25.062,32h-2.429c-0.489,0-0.906-0.354-0.986-0.836l-0.218-1.306l-1.078,0.771c-0.397,0.283-0.943,0.238-1.288-0.106l-1.718-1.718c-0.346-0.346-0.391-0.891-0.106-1.288l0.771-1.078l-1.306-0.218c-0.482-0.08-0.836-0.497-0.836-0.986v-2.429c0-0.489,0.354-0.906,0.836-0.986l1.306-0.218l-0.771-1.078c-0.284-0.397-0.239-0.942,0.106-1.288l1.718-1.718c0.345-0.346,0.891-0.391,1.288-0.106l1.078,0.771l0.218-1.306c0.08-0.482,0.497-0.836,0.986-0.836h2.429c0.489,0,0.906,0.354,0.986,0.836l0.218,1.306l1.078-0.771c0.396-0.284,0.941-0.239,1.288,0.106l1.718,1.718c0.346,0.346,0.391,0.891,0.106,1.289l-0.771,1.077l1.306,0.218c0.482,0.08,0.836,0.497,0.836,0.986v2.429c0,0.489-0.354,0.906-0.836,0.986l-1.306,0.218l0.771,1.077c0.284,0.398,0.239,0.943-0.106,1.289l-1.718,1.718c-0.347,0.345-0.893,0.39-1.288,0.106l-1.078-0.771l-0.218,1.306C25.968,31.646,25.551,32,25.062,32z M23.48,30h0.733l0.262-1.569c0.06-0.36,0.311-0.658,0.655-0.779c0.131-0.046,0.259-0.1,0.383-0.158c0.327-0.155,0.714-0.119,1.008,0.091l1.295,0.925l0.52-0.519l-0.926-1.295c-0.212-0.297-0.246-0.685-0.089-1.014c0.058-0.121,0.111-0.245,0.155-0.373c0.12-0.347,0.42-0.6,0.781-0.66l1.569-0.262v-0.733l-1.569-0.262c-0.36-0.06-0.658-0.311-0.779-0.655c-0.046-0.13-0.099-0.256-0.157-0.378c-0.157-0.329-0.123-0.717,0.089-1.014l0.926-1.295l-0.52-0.519l-1.295,0.925c-0.294,0.211-0.68,0.247-1.008,0.091c-0.123-0.058-0.248-0.111-0.378-0.156c-0.347-0.12-0.6-0.42-0.66-0.781l-0.262-1.569H23.48l-0.262,1.569c-0.06,0.36-0.311,0.658-0.655,0.779c-0.131,0.046-0.259,0.1-0.383,0.158c-0.326,0.155-0.714,0.119-1.008-0.091l-1.295-0.925l-0.52,0.52l0.925,1.295c0.211,0.294,0.245,0.68,0.091,1.008c-0.058,0.123-0.111,0.248-0.156,0.378c-0.12,0.347-0.42,0.6-0.781,0.66l-1.569,0.262v0.733l1.569,0.262c0.36,0.06,0.658,0.311,0.779,0.655c0.046,0.131,0.1,0.259,0.158,0.383c0.154,0.328,0.12,0.714-0.091,1.008l-0.925,1.295l0.52,0.52l1.295-0.925c0.295-0.21,0.682-0.246,1.008-0.091c0.123,0.058,0.248,0.111,0.378,0.156c0.347,0.12,0.6,0.42,0.66,0.781L23.48,30z"/><circle cx="23.847" cy="24.229" r="1.389"/><path d="M14.925,18.08c-4.985,0-9.04-4.055-9.04-9.04S9.94,0,14.925,0s9.041,4.055,9.041,9.04S19.91,18.08,14.925,18.08z M14.925,2c-3.882,0-7.04,3.158-7.04,7.04s3.158,7.04,7.04,7.04c3.882,0,7.041-3.158,7.041-7.04S18.808,2,14.925,2z"/><path d="M14.468,32H3.18c-0.887,0-1.724-0.39-2.297-1.068c-0.572-0.677-0.815-1.565-0.667-2.437c1.216-7.193,7.402-12.415,14.71-12.415c3.439,0,5.436,0.779,7.376,1.949c0.473,0.285,0.625,0.899,0.34,1.373c-0.285,0.473-0.899,0.625-1.373,0.34c-1.701-1.026-3.356-1.662-6.343-1.662c-6.328,0-11.686,4.521-12.738,10.749c-0.067,0.396,0.111,0.68,0.224,0.812C2.603,29.869,2.884,30,3.18,30h11.288c0.552,0,1,0.447,1,1S15.021,32,14.468,32z"/><path d="M14.91,21.991c-2.453,0-4.873-0.85-6.973-2.5c-0.434-0.342-0.509-0.97-0.168-1.404c0.342-0.435,0.97-0.51,1.404-0.168c2.625,2.064,5.843,2.612,8.834,1.509c0.517-0.193,1.093,0.072,1.284,0.591c0.192,0.518-0.072,1.093-0.591,1.284C17.455,21.764,16.178,21.991,14.91,21.991z"/></svg>