<svg xmlns="http://www.w3.org/2000/svg" viewBox="0 0 32 32"><!--! Font Icona - https://fonticona.com | License - https://fonticona.com/license | Copyright 2022 FontIcona.com --><path d="M16,18.011c-5.006,0-9.08-4.073-9.08-9.08c0-0.553,0.448-1,1-1s1,0.447,1,1c0,3.904,3.176,7.08,7.08,7.08s7.08-3.176,7.08-7.08c0-0.553,0.448-1,1-1s1,0.447,1,1C25.08,13.938,21.006,18.011,16,18.011z"/><path d="M27.816,32H4.184c-0.886,0-1.722-0.389-2.295-1.065s-0.817-1.565-0.671-2.438C2.436,21.262,8.652,16.011,16,16.011s13.564,5.251,14.782,12.485c0.146,0.873-0.098,1.762-0.671,2.438S28.702,32,27.816,32z M16,18.011c-6.368,0-11.754,4.55-12.809,10.817c-0.067,0.398,0.112,0.681,0.225,0.814C3.611,29.873,3.884,30,4.184,30h23.632c0.3,0,0.573-0.127,0.769-0.357c0.112-0.134,0.292-0.416,0.225-0.814C27.754,22.561,22.368,18.011,16,18.011z"/><path d="M16,7.566c-0.552,0-1-0.447-1-1V3.364c0-0.553,0.448-1,1-1s1,0.447,1,1v3.202C17,7.119,16.552,7.566,16,7.566z"/><path d="M17.601,5.965h-3.201c-0.552,0-1-0.447-1-1s0.448-1,1-1h3.201c0.552,0,1,0.447,1,1S18.153,5.965,17.601,5.965z"/><path d="M15.596,22.667c-2.732,0-5.334-1.175-7.141-3.225c-0.365-0.414-0.326-1.046,0.089-1.411c0.414-0.367,1.045-0.326,1.411,0.089c1.427,1.618,3.483,2.547,5.641,2.547c2.158,0,4.213-0.929,5.641-2.547c0.366-0.414,0.997-0.455,1.411-0.089c0.415,0.365,0.454,0.997,0.089,1.411C20.93,21.492,18.327,22.667,15.596,22.667z"/><path d="M24.08,9.931H7.92c-0.552,0-1-0.447-1-1s0.448-1,1-1H24.08c0.552,0,1,0.447,1,1S24.632,9.931,24.08,9.931z"/><path d="M23.976,9.931c-0.105,0-0.211-0.017-0.316-0.052c-0.524-0.175-0.807-0.741-0.632-1.265l2.207-6.609L6.586,2l2.208,6.614c0.175,0.523-0.108,1.09-0.632,1.265c-0.526,0.174-1.09-0.108-1.265-0.632L4.584,2.321C4.551,2.22,4.533,2.112,4.533,2.005C4.533,0.899,5.433,0,6.539,0h18.745c1.105,0,2.005,0.899,2.005,2.005c0,0.107-0.018,0.215-0.051,0.316l-2.312,6.926C24.785,9.666,24.395,9.931,23.976,9.931z"/><path d="M16,14.803c-0.818,0-1.637-0.254-2.351-0.761c-0.45-0.32-0.556-0.944-0.235-1.395c0.32-0.45,0.943-0.558,1.395-0.236c0.734,0.523,1.648,0.523,2.383,0c0.451-0.321,1.075-0.214,1.395,0.236c0.32,0.45,0.215,1.074-0.235,1.395C17.637,14.549,16.818,14.803,16,14.803z"/></svg>