<svg xmlns="http://www.w3.org/2000/svg" viewBox="0 0 32 32"><!--! Font Icona - https://fonticona.com | License - https://fonticona.com/license | Copyright 2022 FontIcona.com --><path d="M16,18.08c-4.984,0-9.04-4.056-9.04-9.04S11.016,0,16,0s9.04,4.056,9.04,9.04S20.984,18.08,16,18.08z M16,2c-3.882,0-7.04,3.158-7.04,7.04s3.158,7.04,7.04,7.04s7.04-3.158,7.04-7.04S19.882,2,16,2z"/><path d="M27.746,32H4.254c-0.887,0-1.724-0.389-2.297-1.067c-0.572-0.678-0.815-1.565-0.668-2.438C2.505,21.302,8.692,16.08,16,16.08s13.495,5.222,14.711,12.415c0.147,0.872-0.096,1.76-0.668,2.438C29.47,31.611,28.633,32,27.746,32z M16,18.08c-6.328,0-11.686,4.521-12.738,10.749c-0.067,0.397,0.11,0.68,0.223,0.812C3.677,29.869,3.957,30,4.254,30h23.492c0.297,0,0.577-0.131,0.77-0.358c0.112-0.133,0.29-0.415,0.223-0.812C27.686,22.601,22.328,18.08,16,18.08z"/><circle cx="13.045" cy="7.046" r="1.25"/><circle cx="18.962" cy="7.046" r="1.25"/><path d="M20.277,16.241c-0.553,0-1-0.447-1-1v-5.103c0-0.29,0.126-0.565,0.345-0.756l3.348-2.9c0.417-0.36,1.048-0.316,1.411,0.101c0.361,0.418,0.316,1.05-0.101,1.411l-3.003,2.602v4.646C21.277,15.794,20.83,16.241,20.277,16.241z"/><path d="M20.277,12.677c-0.553,0-1-0.447-1-1v-0.79L15.99,9.92l-3.277,0.967v0.79c0,0.553-0.447,1-1,1s-1-0.447-1-1v-1.538c0-0.443,0.292-0.834,0.717-0.959l4.277-1.261c0.184-0.056,0.38-0.056,0.565,0L20.56,9.18c0.426,0.125,0.718,0.516,0.718,0.959v1.538C21.277,12.229,20.83,12.677,20.277,12.677z"/><path d="M11.713,16.241c-0.553,0-1-0.447-1-1v-4.646L7.708,7.994C7.29,7.633,7.245,7.001,7.606,6.584c0.36-0.419,0.995-0.462,1.41-0.102l3.351,2.9c0.22,0.189,0.346,0.466,0.346,0.756v5.103C12.713,15.794,12.266,16.241,11.713,16.241z"/><path d="M15.993,24.671c-0.272,0-0.545-0.111-0.742-0.33l-5.08-5.628c-0.37-0.41-0.338-1.042,0.072-1.412c0.409-0.369,1.041-0.339,1.412,0.072l5.08,5.628c0.37,0.41,0.338,1.042-0.072,1.412C16.472,24.586,16.232,24.671,15.993,24.671z"/><path d="M15.992,24.671c-0.228,0-0.457-0.078-0.646-0.237c-0.421-0.356-0.474-0.987-0.116-1.409l4.766-5.628c0.354-0.421,0.985-0.474,1.409-0.116c0.421,0.356,0.474,0.987,0.116,1.409l-4.766,5.628C16.559,24.551,16.276,24.671,15.992,24.671z"/></svg>