<svg xmlns="http://www.w3.org/2000/svg" viewBox="0 0 32 32"><!--! Font Icona - https://fonticona.com | License - https://fonticona.com/license | Copyright 2022 FontIcona.com --><path d="M24.456,32c-4.036,0-7.319-3.283-7.319-7.319c0-4.035,3.283-7.318,7.319-7.318c4.035,0,7.318,3.283,7.318,7.318C31.774,28.717,28.491,32,24.456,32z M24.456,19.362c-2.933,0-5.319,2.386-5.319,5.318S21.523,30,24.456,30s5.318-2.387,5.318-5.319S27.389,19.362,24.456,19.362z"/><path d="M26.354,27.58c-0.256,0-0.512-0.098-0.707-0.293l-3.798-3.798c-0.391-0.391-0.391-1.023,0-1.414s1.023-0.391,1.414,0l3.798,3.798c0.391,0.391,0.391,1.023,0,1.414C26.866,27.482,26.61,27.58,26.354,27.58z"/><path d="M22.557,27.58c-0.256,0-0.512-0.098-0.707-0.293c-0.391-0.391-0.391-1.023,0-1.414l3.798-3.798c0.391-0.391,1.023-0.391,1.414,0s0.391,1.023,0,1.414l-3.798,3.798C23.068,27.482,22.812,27.58,22.557,27.58z"/><path d="M14.978,18.08c-4.985,0-9.04-4.055-9.04-9.04S9.993,0,14.978,0s9.04,4.055,9.04,9.04S19.963,18.08,14.978,18.08z M14.978,2c-3.882,0-7.04,3.158-7.04,7.04s3.158,7.04,7.04,7.04c3.881,0,7.04-3.158,7.04-7.04S18.859,2,14.978,2z"/><path d="M14.521,32H3.233c-0.887,0-1.724-0.39-2.297-1.067c-0.572-0.678-0.815-1.565-0.667-2.438C1.483,21.302,7.67,16.08,14.978,16.08c3.439,0,5.436,0.779,7.376,1.949c0.473,0.285,0.625,0.899,0.34,1.373c-0.285,0.473-0.898,0.625-1.373,0.34c-1.701-1.026-3.356-1.662-6.343-1.662c-6.329,0-11.686,4.521-12.738,10.749c-0.067,0.397,0.111,0.68,0.224,0.812C2.656,29.869,2.937,30,3.233,30h11.288c0.552,0,1,0.447,1,1S15.073,32,14.521,32z"/><path d="M14.979,21.994c-2.433,0-4.866-0.834-6.989-2.503c-0.434-0.341-0.509-0.97-0.168-1.404s0.969-0.51,1.404-0.168c3.494,2.746,8.01,2.746,11.504,0c0.437-0.344,1.063-0.266,1.404,0.168c0.342,0.435,0.266,1.063-0.168,1.404C19.844,21.16,17.411,21.994,14.979,21.994z"/></svg>