<svg xmlns="http://www.w3.org/2000/svg" viewBox="0 0 32 32"><!--! Font Icona - https://fonticona.com | License - https://fonticona.com/license | Copyright 2022 FontIcona.com --><path d="M16.212,19.531c-4.522,0-8.202-3.68-8.202-8.202c0-1.791,0.567-3.492,1.641-4.922c0.332-0.441,0.958-0.53,1.4-0.199c0.441,0.332,0.531,0.959,0.199,1.4c-0.812,1.08-1.24,2.367-1.24,3.721c0,3.42,2.782,6.202,6.202,6.202s6.202-2.782,6.202-6.202c0-1.354-0.429-2.641-1.24-3.721c-0.332-0.441-0.242-1.068,0.199-1.4c0.442-0.331,1.068-0.242,1.4,0.199c1.073,1.43,1.641,3.131,1.641,4.922C24.414,15.852,20.735,19.531,16.212,19.531z"/><path d="M26.487,32H5.938c-0.902,0-1.75-0.399-2.327-1.096c-0.565-0.682-0.795-1.566-0.632-2.428c1.202-6.342,6.768-10.945,13.233-10.945s12.031,4.604,13.233,10.945c0.163,0.861-0.067,1.746-0.632,2.428C28.237,31.601,27.389,32,26.487,32z M16.212,19.531c-5.505,0-10.245,3.919-11.268,9.318c-0.071,0.375,0.099,0.648,0.207,0.779C5.347,29.864,5.634,30,5.938,30h20.548c0.304,0,0.591-0.136,0.787-0.371c0.108-0.13,0.278-0.404,0.207-0.779C26.457,23.45,21.718,19.531,16.212,19.531z"/><path d="M16.212,23.038c-2.202,0-4.403-0.755-6.325-2.266c-0.434-0.342-0.509-0.97-0.168-1.404c0.341-0.435,0.97-0.51,1.404-0.168c3.091,2.43,7.086,2.43,10.177,0c0.434-0.34,1.063-0.267,1.404,0.168s0.266,1.062-0.168,1.404C20.616,22.283,18.415,23.038,16.212,23.038z"/><path d="M16.212,9.965c-0.108,0-0.217-0.018-0.321-0.053L4.163,5.93C3.757,5.792,3.484,5.411,3.484,4.982s0.273-0.81,0.679-0.947l11.728-3.982c0.208-0.07,0.435-0.07,0.643,0l11.728,3.982c0.406,0.138,0.679,0.519,0.679,0.947s-0.273,0.81-0.679,0.947L16.534,9.912C16.43,9.947,16.321,9.965,16.212,9.965z M7.595,4.982l8.618,2.927l8.618-2.927l-8.618-2.927L7.595,4.982z"/><path d="M5.003,16.606c-0.552,0-1-0.447-1-1V4.982c0-0.553,0.448-1,1-1s1,0.447,1,1v10.624C6.003,16.159,5.555,16.606,5.003,16.606z"/><circle cx="5.003" cy="15.606" r="1.5"/></svg>