<svg xmlns="http://www.w3.org/2000/svg" viewBox="0 0 32 32"><!--! Font Icona - https://fonticona.com | License - https://fonticona.com/license | Copyright 2022 FontIcona.com --><path d="M16.068,19.667c-0.045,0-0.091-0.003-0.137-0.01C12.188,19.142,8,14.664,8,9.444C8,3.442,10.875,0,15.889,0h0.445c5.013,0,7.889,3.442,7.889,9.444c0,5.231-4.211,9.579-7.99,10.209C16.178,19.662,16.123,19.667,16.068,19.667z M15.889,2C11.021,2,10,6.048,10,9.444c0,4.014,3.275,7.711,6.055,8.208c2.887-0.586,6.167-4.232,6.167-8.208C22.222,6.048,21.201,2,16.333,2H15.889z"/><path d="M13.103,24.925l-0.854-0.712c-0.707-0.59-2.868-3.053-3.112-3.332l-0.075-0.096c-0.035-0.052-0.079-0.092-0.12-0.135c-0.225-0.236-0.602-0.631-0.709-1.4c-0.201-1.433,2.631-4.072,2.66-4.098c0.415-0.364,1.046-0.322,1.411,0.093c0.364,0.416,0.322,1.048-0.094,1.411c-0.746,0.653-1.754,1.945-1.969,2.434c0.021,0.046,0.06,0.087,0.148,0.18c0.101,0.105,0.197,0.212,0.286,0.333c0.552,0.629,1.352,1.523,1.983,2.197c0.521-1.009,1.116-2.131,2.103-2.723c0.474-0.285,1.088-0.132,1.372,0.343c0.284,0.474,0.131,1.088-0.343,1.372c-0.525,0.315-0.988,1.214-1.396,2.006c-0.224,0.436-0.436,0.847-0.672,1.201L13.103,24.925z M10.208,19.176L10.208,19.176L10.208,19.176z"/><path d="M18.897,24.925l-0.942-1.422c-0.575-0.89-1.445-2.233-2.194-2.683c-0.474-0.283-0.627-0.897-0.344-1.371c0.284-0.475,0.897-0.629,1.372-0.344c0.968,0.58,1.816,1.748,2.488,2.764c0.653-0.694,1.51-1.652,2.082-2.305l0.172-0.174c0.089-0.087,0.225-0.22,0.248-0.27c-0.072-0.666-0.822-1.417-1.485-2.08c-0.39-0.391-0.39-1.023,0-1.414s1.023-0.391,1.414,0c0.854,0.855,1.917,1.919,2.064,3.385c0.005,0.982-0.507,1.481-0.846,1.812l-0.108,0.105c-0.2,0.231-2.361,2.694-3.068,3.284L18.897,24.925z"/><circle cx="18.799" cy="26.95" r="1"/><path d="M12.667,7.778c-0.444,0-0.667-0.333-0.778-0.667c-0.111-0.444-0.111-0.778-0.222-1.222c-0.111-0.444-0.111-0.778-0.111-1.222l1.222,0.222C11.889,5.556,11,6.222,10.111,6.778c0.333-1.111,0.656-2.253,1.434-3.031c0.4-0.265,0.922-0.048,1.233,0.142C12.872,3.941,12.945,4.021,13,4.111c0,0,0.066,0.119,0.111,0.222c0.061,0.142,0.333,0.778,0.444,1.111h5.556c0-0.556-0.005-0.679,0.012-0.921l0.064-0.431c0,0,0.1-0.527,0.662-0.691c0,0,0.242-0.093,0.483-0.068c0.221,0.022,0.333,0.222,0.444,0.333c0.111,0.111,0.667,0.889,1.111,1.444c0.444,0.556,0.667,1,1.111,1.556C22.111,6.556,21.556,6.333,21,6s-1.111-0.667-1.667-0.889l1.222-0.556c0,0.778,0.111,1.556,0.111,2.333c0,0.444-0.333,0.889-0.889,1C18.111,7.889,14.889,7.889,12.667,7.778z"/><path d="M26.539,16.61c-0.46,0-0.928-0.068-1.388-0.21c-1.093-0.271-2.87-1.501-3.59-2.222c-0.39-0.391-0.39-1.024,0-1.414c0.391-0.391,1.024-0.391,1.415,0c0.575,0.575,2.048,1.544,2.711,1.709c0.197,0.061,0.393,0.101,0.585,0.12c-0.551-0.424-0.983-1.011-1.22-1.722c-0.469-1.406-1.137-2.19-2.104-2.466c-0.531-0.152-0.839-0.705-0.687-1.236s0.704-0.835,1.236-0.688c1.613,0.461,2.775,1.725,3.452,3.757c0.283,0.849,1.199,1.304,2.091,1.027c0.41-0.125,0.857,0.024,1.108,0.375c0.25,0.351,0.248,0.821-0.005,1.17C29.303,15.964,27.955,16.61,26.539,16.61z"/><path d="M15.77,32c-0.552,0-1-0.447-1-1V19.993c0-0.553,0.448-1,1-1s1,0.447,1,1V31C16.77,31.553,16.322,32,15.77,32z"/><path d="M27.871,32H4.091c-0.898,0-1.742-0.397-2.314-1.091s-0.802-1.597-0.631-2.479l0.873-4.51c0.313-1.564,1.027-2.533,2.186-2.969l4.445-1.666c0.518-0.191,1.093,0.068,1.288,0.586c0.194,0.517-0.068,1.093-0.585,1.287l-4.444,1.666c-0.336,0.126-0.71,0.401-0.926,1.482l-0.871,4.503c-0.078,0.402,0.098,0.69,0.21,0.826C3.432,29.772,3.681,30,4.091,30h23.78c0.302,0,0.585-0.135,0.776-0.369c0.191-0.235,0.265-0.54,0.203-0.836l-0.939-4.479c-0.177-0.796-0.492-1.351-0.86-1.509l-5.013-1.878c-0.517-0.194-0.779-0.771-0.585-1.287c0.195-0.519,0.772-0.777,1.288-0.586l5.056,1.896c1.039,0.445,1.739,1.456,2.069,2.942l0.942,4.49c0.187,0.889-0.035,1.802-0.607,2.507C29.627,31.596,28.778,32,27.871,32z"/></svg>