<svg xmlns="http://www.w3.org/2000/svg" viewBox="0 0 32 32"><!--! Font Icona - https://fonticona.com | License - https://fonticona.com/license | Copyright 2022 FontIcona.com --><path d="M16,18.378c-5.066,0-9.188-4.122-9.188-9.189C6.812,4.122,10.934,0,16,0s9.188,4.122,9.188,9.188C25.188,14.256,21.066,18.378,16,18.378z M16,2c-3.964,0-7.188,3.225-7.188,7.188s3.225,7.189,7.188,7.189s7.188-3.226,7.188-7.189S19.964,2,16,2z"/><path d="M27.045,32H4.955c-0.881,0-1.715-0.385-2.288-1.055c-0.57-0.667-0.818-1.544-0.684-2.406c1.087-6.932,6.975-12.046,14-12.161c7.059,0.115,12.946,5.229,14.033,12.161c0.135,0.862-0.113,1.739-0.684,2.406C28.76,31.615,27.926,32,27.045,32z M15.983,18.378C9.966,18.477,4.896,22.881,3.96,28.85c-0.062,0.389,0.116,0.665,0.227,0.796C4.38,29.871,4.66,30,4.955,30h22.09c0.295,0,0.575-0.129,0.769-0.354c0.11-0.131,0.288-0.407,0.227-0.796C27.104,22.881,22.034,18.477,15.983,18.378z"/></svg>