<svg xmlns="http://www.w3.org/2000/svg" viewBox="0 0 32 32"><!--! Font Icona - https://fonticona.com | License - https://fonticona.com/license | Copyright 2022 FontIcona.com --><path d="M16,18.08c-4.985,0-9.04-4.056-9.04-9.04S11.015,0,16,0s9.04,4.056,9.04,9.04S20.985,18.08,16,18.08z M16,2c-3.882,0-7.04,3.158-7.04,7.04s3.158,7.04,7.04,7.04s7.04-3.158,7.04-7.04S19.882,2,16,2z"/><path d="M27.746,32h-7.228c-0.552,0-1-0.447-1-1s0.448-1,1-1h7.228c0.297,0,0.577-0.131,0.77-0.358c0.113-0.133,0.291-0.415,0.224-0.812C27.686,22.601,22.329,18.08,16,18.08S4.314,22.601,3.261,28.829c-0.067,0.397,0.111,0.68,0.224,0.812C3.677,29.869,3.958,30,4.254,30h7.228c0.552,0,1,0.447,1,1s-0.448,1-1,1H4.254c-0.887,0-1.724-0.389-2.297-1.067c-0.572-0.677-0.815-1.565-0.668-2.438C2.505,21.302,8.692,16.08,16,16.08s13.495,5.222,14.711,12.415c0.147,0.872-0.096,1.761-0.668,2.438C29.47,31.611,28.632,32,27.746,32z"/><path d="M16,31.717c-0.27,0-0.528-0.108-0.716-0.302l-3.02-3.096c-0.249-0.256-0.343-0.624-0.247-0.968l1.743-6.218c-1.821-1.92-1.263-3.189-1.123-3.438c0.05-0.09,0.114-0.171,0.189-0.24c1.366-1.276,2.961-1.368,3.139-1.374c0.248,0.006,1.843,0.098,3.209,1.374c0.075,0.069,0.138,0.149,0.188,0.238c0.195,0.346,0.647,1.56-1.13,3.423l1.75,6.234c0.096,0.344,0.002,0.713-0.247,0.969l-3.02,3.096C16.528,31.608,16.27,31.717,16,31.717z M14.099,27.336L16,29.284l1.901-1.948l-1.754-6.249c-0.102-0.362,0.009-0.752,0.286-1.007c0.722-0.663,1-1.146,1.087-1.402c-0.729-0.527-1.495-0.594-1.559-0.599c0.006,0.005-0.756,0.071-1.486,0.604c0.082,0.256,0.355,0.744,1.085,1.416c0.277,0.255,0.387,0.644,0.286,1.006L14.099,27.336z M17.553,18.505L17.553,18.505L17.553,18.505z"/></svg>