<svg xmlns="http://www.w3.org/2000/svg" viewBox="0 0 32 32"><!--! Font Icona - https://fonticona.com | License - https://fonticona.com/license | Copyright 2022 FontIcona.com --><path d="M16,18.08c-4.985,0-9.04-4.056-9.04-9.04S11.015,0,16,0s9.04,4.056,9.04,9.04S20.985,18.08,16,18.08z M16,2c-3.882,0-7.04,3.158-7.04,7.04s3.158,7.04,7.04,7.04s7.04-3.158,7.04-7.04S19.882,2,16,2z"/><path d="M27.746,32H4.254c-0.887,0-1.724-0.389-2.297-1.067c-0.572-0.677-0.815-1.565-0.668-2.438C2.505,21.302,8.692,16.08,16,16.08s13.495,5.222,14.711,12.415c0.147,0.872-0.096,1.761-0.668,2.438C29.47,31.611,28.632,32,27.746,32z M16,18.08c-6.329,0-11.686,4.521-12.739,10.749c-0.067,0.397,0.111,0.68,0.224,0.812C3.677,29.869,3.958,30,4.254,30h23.491c0.297,0,0.577-0.131,0.77-0.358c0.113-0.133,0.291-0.415,0.224-0.812C27.686,22.601,22.329,18.08,16,18.08z"/><path d="M23.737,29.665c-0.552,0-1-0.447-1-1V24.04c0-0.553,0.448-1,1-1s1,0.447,1,1v4.625C24.737,29.218,24.29,29.665,23.737,29.665z"/><path d="M26.05,27.353h-4.625c-0.552,0-1-0.447-1-1s0.448-1,1-1h4.625c0.552,0,1,0.447,1,1S26.602,27.353,26.05,27.353z"/><path d="M16,32c-0.105,0-0.213-0.017-0.319-0.052c-0.523-0.177-0.805-0.743-0.629-1.267l4.439-13.196c0.176-0.523,0.741-0.803,1.267-0.63c0.523,0.177,0.805,0.743,0.629,1.267l-4.439,13.196C16.807,31.736,16.418,32,16,32z"/><path d="M16,32c-0.417,0-0.807-0.264-0.948-0.681L10.61,18.123c-0.176-0.523,0.105-1.091,0.629-1.267c0.522-0.179,1.091,0.105,1.267,0.628l4.442,13.196c0.176,0.523-0.105,1.091-0.629,1.267C16.213,31.983,16.105,32,16,32z"/></svg>