<svg xmlns="http://www.w3.org/2000/svg" viewBox="0 0 32 32"><!--! Font Icona - https://fonticona.com | License - https://fonticona.com/license | Copyright 2022 FontIcona.com --><path d="M24.304,32c-4.035,0-7.318-3.283-7.318-7.319c0-4.035,3.283-7.318,7.318-7.318c4.036,0,7.319,3.283,7.319,7.318C31.623,28.717,28.34,32,24.304,32z M24.304,19.362c-2.933,0-5.318,2.386-5.318,5.318S21.371,30,24.304,30s5.319-2.387,5.319-5.319S27.236,19.362,24.304,19.362z"/><path d="M24.427,25.659c-0.553,0-1-0.447-1-1v-2.433c0-0.553,0.447-1,1-1s1,0.447,1,1v2.433C25.427,25.212,24.979,25.659,24.427,25.659z"/><path d="M21.871,28.212c-0.256,0-0.512-0.098-0.707-0.293c-0.391-0.391-0.391-1.024,0-1.414l2.556-2.553c0.391-0.391,1.023-0.391,1.414,0s0.391,1.024,0,1.414l-2.556,2.553C22.383,28.114,22.127,28.212,21.871,28.212z"/><path d="M24.304,20.568c-0.553,0-1-0.447-1-1v-1.206c0-0.553,0.447-1,1-1s1,0.447,1,1v1.206C25.304,20.121,24.856,20.568,24.304,20.568z"/><path d="M24.304,32c-0.553,0-1-0.447-1-1v-1.206c0-0.553,0.447-1,1-1s1,0.447,1,1V31C25.304,31.553,24.856,32,24.304,32z"/><path d="M30.623,25.681h-1.206c-0.553,0-1-0.447-1-1s0.447-1,1-1h1.206c0.553,0,1,0.447,1,1S31.176,25.681,30.623,25.681z"/><path d="M19.232,25.681h-1.206c-0.553,0-1-0.447-1-1s0.447-1,1-1h1.206c0.553,0,1,0.447,1,1S19.785,25.681,19.232,25.681z"/><path d="M15.129,18.08c-4.985,0-9.04-4.055-9.04-9.04S10.145,0,15.129,0s9.04,4.055,9.04,9.04S20.114,18.08,15.129,18.08z M15.129,2c-3.882,0-7.04,3.158-7.04,7.04s3.158,7.04,7.04,7.04c3.881,0,7.04-3.158,7.04-7.04S19.011,2,15.129,2z"/><path d="M14.672,32H3.384c-0.887,0-1.724-0.39-2.297-1.068c-0.572-0.677-0.815-1.565-0.667-2.437c1.216-7.193,7.402-12.415,14.71-12.415c3.407,0,5.303,0.731,7.258,1.911c0.473,0.285,0.625,0.9,0.34,1.373c-0.287,0.473-0.902,0.626-1.373,0.34c-1.745-1.054-3.254-1.624-6.225-1.624c-6.328,0-11.686,4.521-12.738,10.749c-0.067,0.396,0.111,0.68,0.224,0.812C2.807,29.869,3.088,30,3.384,30h11.288c0.552,0,1,0.447,1,1S15.225,32,14.672,32z"/><path d="M15.13,21.994c-2.433,0-4.866-0.834-6.989-2.503c-0.434-0.341-0.509-0.97-0.168-1.404s0.969-0.51,1.404-0.168c3.495,2.748,8.01,2.748,11.504,0c0.437-0.341,1.063-0.266,1.404,0.168c0.342,0.435,0.267,1.062-0.168,1.404C19.996,21.16,17.562,21.994,15.13,21.994z"/></svg>