<svg xmlns="http://www.w3.org/2000/svg" viewBox="0 0 32 32"><!--! Font Icona - https://fonticona.com | License - https://fonticona.com/license | Copyright 2022 FontIcona.com --><path d="M16,18.08c-4.985,0-9.04-4.056-9.04-9.04S11.015,0,16,0s9.04,4.056,9.04,9.04S20.985,18.08,16,18.08z M16,2c-3.882,0-7.04,3.158-7.04,7.04s3.158,7.04,7.04,7.04s7.04-3.158,7.04-7.04S19.882,2,16,2z"/><path d="M27.746,32H4.254c-0.887,0-1.724-0.389-2.297-1.067c-0.572-0.677-0.815-1.565-0.668-2.438C2.505,21.302,8.692,16.08,16,16.08s13.495,5.222,14.711,12.415c0.147,0.872-0.096,1.761-0.668,2.438C29.47,31.611,28.632,32,27.746,32z M16,18.08c-6.329,0-11.686,4.521-12.739,10.749c-0.067,0.397,0.111,0.68,0.224,0.812C3.677,29.869,3.958,30,4.254,30h23.491c0.297,0,0.577-0.131,0.77-0.358c0.113-0.133,0.291-0.415,0.224-0.812C27.686,22.601,22.329,18.08,16,18.08z"/><path d="M20.872,28.585c-0.552,0-1-0.447-1-1V22.96c0-0.553,0.448-1,1-1s1,0.447,1,1v4.625C21.872,28.138,21.424,28.585,20.872,28.585z"/><path d="M23.185,26.272H18.56c-0.552,0-1-0.447-1-1s0.448-1,1-1h4.625c0.552,0,1,0.447,1,1S23.737,26.272,23.185,26.272z"/><path d="M16,21.994c-2.433,0-4.866-0.834-6.989-2.503c-0.434-0.341-0.509-0.97-0.168-1.404c0.342-0.435,0.97-0.51,1.404-0.168c3.494,2.746,8.011,2.746,11.505,0c0.433-0.342,1.062-0.267,1.404,0.168c0.341,0.435,0.266,1.063-0.168,1.404C20.866,21.16,18.433,21.994,16,21.994z"/></svg>