<svg xmlns="http://www.w3.org/2000/svg" viewBox="0 0 32 32"><!--! Font Icona - https://fonticona.com | License - https://fonticona.com/license | Copyright 2022 FontIcona.com --><rect x="26.502" y="17.139" transform="matrix(0.4963 -0.8682 0.8682 0.4963 -2.8598 33.5741)" class="st0" width="2" height="4.225"/><path class="st0" d="M20.843,32c-0.186,0-0.372-0.047-0.54-0.142c-0.377-0.213-0.594-0.628-0.553-1.059l0.433-4.336c0.056-0.549,0.223-1.069,0.495-1.546l5.271-9.222c0.261-0.456,0.684-0.783,1.19-0.921c0.506-0.137,1.037-0.069,1.492,0.19l1.991,1.138c0.941,0.539,1.269,1.742,0.731,2.682l-5.271,9.224c-0.274,0.479-0.639,0.886-1.082,1.21l-3.51,2.569C21.3,31.929,21.072,32,20.843,32z M20.312,30.173c-0.002,0.001-0.004,0.003-0.007,0.005L20.312,30.173z M27.639,16.701l-0.575,1.074l-4.649,8.135c-0.133,0.232-0.214,0.486-0.241,0.754l-0.231,2.315l1.878-1.375c0.213-0.156,0.395-0.359,0.526-0.59l5.271-9.222L27.639,16.701z"/><path d="M15.14,18.08c-4.985,0-9.04-4.055-9.04-9.04S10.155,0,15.14,0c4.984,0,9.04,4.055,9.04,9.04S20.124,18.08,15.14,18.08z M15.14,2C11.258,2,8.1,5.158,8.1,9.04s3.158,7.04,7.04,7.04s7.04-3.158,7.04-7.04S19.021,2,15.14,2z"/><path d="M14.683,32H3.395c-0.887,0-1.724-0.39-2.297-1.068c-0.572-0.677-0.815-1.565-0.667-2.437C1.646,21.302,7.832,16.08,15.14,16.08c3.386,0,4.861,0.546,6.888,1.769c0.473,0.285,0.625,0.9,0.34,1.373c-0.287,0.474-0.902,0.625-1.373,0.34c-1.812-1.094-2.968-1.481-5.854-1.481c-6.328,0-11.686,4.521-12.738,10.749c-0.067,0.396,0.111,0.68,0.224,0.812C2.817,29.869,3.098,30,3.395,30h11.288c0.552,0,1,0.447,1,1S15.235,32,14.683,32z"/><path d="M15.14,21.994c-2.433,0-4.866-0.834-6.989-2.503c-0.434-0.341-0.509-0.97-0.168-1.404c0.342-0.435,0.969-0.51,1.404-0.168c3.494,2.746,8.011,2.746,11.505,0c0.437-0.344,1.063-0.266,1.404,0.168c0.342,0.435,0.266,1.063-0.168,1.404C20.006,21.16,17.573,21.994,15.14,21.994z"/></svg>