<svg xmlns="http://www.w3.org/2000/svg" viewBox="0 0 32 32"><!--! Font Icona - https://fonticona.com | License - https://fonticona.com/license | Copyright 2022 FontIcona.com --><path d="M16,18.08c-4.985,0-9.04-4.056-9.04-9.04S11.015,0,16,0s9.04,4.056,9.04,9.04S20.985,18.08,16,18.08z M16,2c-3.882,0-7.04,3.158-7.04,7.04s3.158,7.04,7.04,7.04s7.04-3.158,7.04-7.04S19.882,2,16,2z"/><path d="M27.746,32H4.254c-0.887,0-1.724-0.389-2.297-1.067c-0.572-0.677-0.815-1.565-0.668-2.438C2.505,21.302,8.692,16.08,16,16.08s13.495,5.222,14.711,12.415c0.147,0.872-0.096,1.761-0.668,2.438C29.47,31.611,28.632,32,27.746,32z M15.928,30h11.818c0.297,0,0.577-0.131,0.77-0.358c0.113-0.133,0.291-0.415,0.224-0.812C27.686,22.601,22.329,18.08,16,18.08S4.314,22.601,3.261,28.829c-0.067,0.397,0.111,0.68,0.224,0.812C3.677,29.869,3.958,30,4.254,30H15.928z"/><path d="M19.268,12.108h-6.535c-2.18,0-3.953-1.574-3.953-3.509c0-1.936,1.773-3.51,3.953-3.51h6.535c2.18,0,3.953,1.574,3.953,3.51C23.22,10.534,21.447,12.108,19.268,12.108z M12.732,7.09c-1.059,0-1.953,0.691-1.953,1.51c0,0.817,0.894,1.509,1.953,1.509h6.535c1.059,0,1.953-0.691,1.953-1.509c0-0.818-0.894-1.51-1.953-1.51H12.732z"/><circle cx="13.558" cy="8.599" r="1.071"/><circle cx="18.442" cy="8.599" r="1.071"/><path d="M9.306,5.845c-0.195,0-0.392-0.057-0.565-0.176l-4.43-3.042C3.855,2.314,3.74,1.692,4.053,1.236c0.312-0.454,0.935-0.572,1.39-0.258l4.43,3.042c0.456,0.312,0.571,0.935,0.258,1.391C9.938,5.693,9.625,5.845,9.306,5.845z"/><path d="M9.422,7.053H4.596c-0.552,0-1-0.447-1-1s0.448-1,1-1h4.827c0.552,0,1,0.447,1,1S9.975,7.053,9.422,7.053z"/><path d="M23.747,20.438c-0.16,0-0.323-0.038-0.474-0.12c-0.486-0.262-0.667-0.869-0.405-1.354l4.495-8.329c0.262-0.486,0.867-0.67,1.355-0.405c0.486,0.262,0.667,0.869,0.405,1.354l-4.495,8.329C24.447,20.247,24.103,20.438,23.747,20.438z"/><path d="M16,20.831c-2.176,0-4.353-0.557-6.251-1.671c-0.477-0.279-0.636-0.892-0.357-1.368c0.28-0.477,0.893-0.638,1.369-0.356c3.184,1.867,7.296,1.867,10.479,0c0.475-0.282,1.089-0.12,1.369,0.356c0.279,0.477,0.12,1.089-0.357,1.368C20.353,20.274,18.176,20.831,16,20.831z"/></svg>