<svg xmlns="http://www.w3.org/2000/svg" viewBox="0 0 32 32"><!--! Font Icona - https://fonticona.com | License - https://fonticona.com/license | Copyright 2022 FontIcona.com --><path d="M27.746,32H4.254c-0.887,0-1.724-0.389-2.297-1.067c-0.572-0.677-0.815-1.565-0.668-2.438C2.505,21.302,8.692,16.08,16,16.08s13.495,5.222,14.711,12.415c0.147,0.872-0.096,1.761-0.668,2.438C29.47,31.611,28.632,32,27.746,32z M16,18.08c-6.329,0-11.686,4.521-12.739,10.749c-0.067,0.397,0.111,0.68,0.224,0.812C3.677,29.869,3.958,30,4.254,30h23.491c0.297,0,0.577-0.131,0.77-0.358c0.113-0.133,0.291-0.415,0.224-0.812C27.686,22.601,22.329,18.08,16,18.08z"/><path d="M16,21.994c-2.433,0-4.866-0.834-6.989-2.503c-0.434-0.341-0.509-0.97-0.168-1.404c0.342-0.435,0.97-0.51,1.404-0.168c3.494,2.746,8.011,2.746,11.505,0c0.433-0.342,1.062-0.267,1.404,0.168c0.341,0.435,0.266,1.063-0.168,1.404C20.866,21.16,18.433,21.994,16,21.994z"/><path d="M15.895,9.095c-0.14,0-0.28-0.007-0.421-0.02c-0.55-0.052-0.954-0.539-0.903-1.089c0.051-0.55,0.529-0.955,1.088-0.903c1.073,0.112,2.103-0.493,2.552-1.478c0.283-0.619,0.308-1.311,0.07-1.948s-0.709-1.144-1.328-1.426c-0.359-0.164-0.741-0.247-1.131-0.229c-0.576,0.018-1.013-0.419-1.029-0.971s0.418-1.013,0.97-1.029c0.7-0.021,1.381,0.118,2.021,0.409c1.104,0.505,1.947,1.409,2.371,2.548c0.424,1.138,0.38,2.373-0.125,3.478C19.287,8.064,17.66,9.095,15.895,9.095z"/><path d="M16,18.08c-4.174,0-7.785-2.828-8.779-6.878c-0.132-0.536,0.196-1.078,0.733-1.209c0.535-0.138,1.077,0.196,1.209,0.732C9.938,13.878,12.749,16.08,16,16.08s6.062-2.202,6.837-5.354c0.132-0.537,0.672-0.871,1.209-0.732c0.537,0.131,0.865,0.673,0.733,1.209C23.785,15.252,20.174,18.08,16,18.08z"/><path d="M23.807,8.116c-0.45,0-0.858-0.306-0.97-0.762C22.063,4.202,19.251,2,16,2S9.937,4.202,9.163,7.354C9.031,7.891,8.487,8.223,7.954,8.087C7.417,7.956,7.089,7.414,7.221,6.878C8.215,2.828,11.825,0,16,0s7.785,2.828,8.779,6.878c0.132,0.536-0.196,1.078-0.733,1.209C23.966,8.107,23.886,8.116,23.807,8.116z"/><path d="M8.192,11.964H6.8c-1.612,0-2.924-1.312-2.924-2.924S5.188,6.116,6.8,6.116h1.392c0.552,0,1,0.447,1,1s-0.448,1-1,1H6.8c-0.509,0-0.924,0.414-0.924,0.924S6.291,9.964,6.8,9.964h1.392c0.552,0,1,0.447,1,1S8.744,11.964,8.192,11.964z"/><path d="M25.2,11.964h-1.392c-0.552,0-1-0.447-1-1s0.448-1,1-1H25.2c0.509,0,0.924-0.414,0.924-0.924S25.709,8.116,25.2,8.116h-1.392c-0.552,0-1-0.447-1-1s0.448-1,1-1H25.2c1.612,0,2.924,1.312,2.924,2.924S26.812,11.964,25.2,11.964z"/></svg>