<svg xmlns="http://www.w3.org/2000/svg" viewBox="0 0 32 32"><!--! Font Icona - https://fonticona.com | License - https://fonticona.com/license | Copyright 2022 FontIcona.com --><path class="st0" d="M29.866,31.999h-9.565c-1.066,0-1.935-0.868-1.935-1.935v-5.14c0-1.066,0.868-1.935,1.935-1.935h9.565c1.066,0,1.935,0.868,1.935,1.935v5.14C31.801,31.131,30.933,31.999,29.866,31.999z M20.366,24.99v5.074l9.5-0.065l-0.065-5.074L20.366,24.99z M20.302,24.99L20.302,24.99L20.302,24.99z"/><path class="st0" d="M28.839,24.99c-0.553,0-1-0.447-1-1v-2.404c0-1.088-0.269-3.616-2.757-3.616c-2.483,0-2.752,2.528-2.752,3.616v2.404c0,0.553-0.447,1-1,1s-1-0.447-1-1v-2.404c0-3.412,1.865-5.617,4.752-5.617c2.89,0,4.757,2.205,4.757,5.617v2.404C29.839,24.543,29.392,24.99,28.839,24.99z"/><path d="M14.951,18.08c-4.985,0-9.04-4.055-9.04-9.04S9.966,0,14.951,0c4.984,0,9.04,4.055,9.04,9.04S19.936,18.08,14.951,18.08z M14.951,2c-3.882,0-7.04,3.158-7.04,7.04s3.158,7.04,7.04,7.04s7.04-3.158,7.04-7.04S18.833,2,14.951,2z"/><path d="M14.494,32H3.207c-0.887,0-1.724-0.39-2.297-1.067c-0.572-0.678-0.815-1.565-0.667-2.438C1.457,21.302,7.643,16.08,14.951,16.08c3.439,0,5.437,0.779,7.377,1.949c0.473,0.285,0.625,0.899,0.34,1.373c-0.286,0.473-0.899,0.625-1.373,0.34c-1.701-1.026-3.356-1.662-6.344-1.662c-6.329,0-11.686,4.521-12.738,10.749c-0.067,0.397,0.111,0.68,0.224,0.812C2.629,29.869,2.91,30,3.207,30h11.288c0.552,0,1,0.447,1,1S15.046,32,14.494,32z"/><path d="M14.952,21.994c-2.433,0-4.865-0.834-6.988-2.503c-0.434-0.342-0.509-0.97-0.168-1.404s0.971-0.51,1.404-0.168c3.494,2.746,8.01,2.748,11.504,0c0.436-0.344,1.063-0.266,1.404,0.168c0.342,0.435,0.266,1.063-0.168,1.404C19.817,21.16,17.385,21.994,14.952,21.994z"/></svg>