<svg xmlns="http://www.w3.org/2000/svg" viewBox="0 0 32 32"><!--! Font Icona - https://fonticona.com | License - https://fonticona.com/license | Copyright 2022 FontIcona.com --><path d="M2.805,32c-1.416,0-2.525-0.866-2.525-1.973V26.4c0-1.106,1.109-1.973,2.525-1.973s2.525,0.866,2.525,1.973v3.627C5.331,31.134,4.221,32,2.805,32z M2.28,29.882C2.371,29.935,2.553,30,2.805,30s0.435-0.065,0.525-0.118v-3.336c-0.091-0.053-0.273-0.118-0.525-0.118s-0.435,0.065-0.525,0.118V29.882z"/><path d="M16.536,32c-1.396,0-2.491-0.866-2.491-1.973V26.4c0-1.106,1.094-1.973,2.491-1.973s2.49,0.866,2.49,1.973v3.627C19.026,31.134,17.933,32,16.536,32z M16.045,29.889c0.171,0.1,0.811,0.1,0.981,0v-3.35c-0.17-0.1-0.81-0.1-0.981,0V29.889z"/><path d="M11.723,31.13h-4.07c-2.424,0-4.322-1.346-4.322-3.063V17.049c0-3.748,2.852-6.756,6.357-6.756s6.357,3.008,6.357,6.705c0,0.009,0,0.017,0,0.025c0,0.009,0,0.017,0,0.025v10.855C16.045,29.713,14.147,31.13,11.723,31.13z M9.688,12.293c-2.403,0-4.357,2.11-4.357,4.705v11.068c0,0.375,0.882,1.063,2.322,1.063h4.07c1.308,0,2.322-0.659,2.322-1.226V17.049c0-0.009,0-0.017,0-0.025c0-0.009,0-0.017,0-0.025C14.045,14.403,12.091,12.293,9.688,12.293z"/><path d="M9.688,12.293c-0.552,0-1-0.447-1-1v-4.82C8.688,2.903,11.442,0,14.827,0c3.385,0,6.139,2.903,6.139,6.473c0,0.553-0.448,1-1,1s-1-0.447-1-1C18.966,4.007,17.109,2,14.827,2s-4.139,2.007-4.139,4.473v4.82C10.688,11.846,10.24,12.293,9.688,12.293z"/><path d="M29.05,31.729h-6.447c-0.849,0-1.627-0.39-2.136-1.069s-0.664-1.537-0.424-2.352c0.332-1.129,1.385-1.916,2.561-1.916h6.447c1.176,0,2.229,0.787,2.561,1.915c0,0,0,0,0,0.001c0.239,0.814,0.084,1.672-0.424,2.352S29.899,31.729,29.05,31.729z M22.603,28.393c-0.295,0-0.559,0.197-0.642,0.479c-0.06,0.204-0.021,0.419,0.106,0.59c0.127,0.17,0.322,0.268,0.535,0.268h6.447c0.213,0,0.408-0.098,0.535-0.268c0.127-0.171,0.167-0.386,0.106-0.59l0,0c-0.083-0.282-0.347-0.479-0.642-0.479H22.603z"/><circle cx="9.688" cy="17.85" r="1.25"/><path d="M9.688,24.526C9.688,24.526,9.688,24.526,9.688,24.526c-2.445,0-4.665-0.886-6.092-2.429c-0.375-0.405-0.35-1.038,0.056-1.413s1.039-0.349,1.413,0.056c1.034,1.118,2.762,1.786,4.623,1.786c0,0,0,0,0,0c1.861,0,3.589-0.668,4.623-1.786c0.375-0.403,1.008-0.431,1.413-0.056c0.406,0.375,0.431,1.008,0.056,1.413C14.353,23.641,12.132,24.526,9.688,24.526z"/><path d="M7.779,30.948c-0.552,0-1-0.447-1-1v-6.489c0-0.553,0.448-1,1-1s1,0.447,1,1v6.489C8.779,30.501,8.332,30.948,7.779,30.948z"/><path d="M11.639,30.948c-0.552,0-1-0.447-1-1v-6.402c0-0.553,0.448-1,1-1s1,0.447,1,1v6.402C12.639,30.501,12.191,30.948,11.639,30.948z"/><path d="M25.154,28.393c-0.449,0-0.857-0.304-0.97-0.759l-5.189-20.92c-0.133-0.536,0.194-1.079,0.73-1.212c0.532-0.129,1.078,0.193,1.211,0.729l5.189,20.92c0.133,0.536-0.194,1.079-0.73,1.212C25.315,28.383,25.234,28.393,25.154,28.393z"/><path d="M18.96,7.597c-0.446,0-0.853-0.3-0.968-0.752c-0.137-0.535,0.186-1.08,0.721-1.217l2.054-0.526c0.533-0.14,1.08,0.186,1.217,0.721s-0.186,1.08-0.721,1.217l-2.054,0.526C19.125,7.587,19.042,7.597,18.96,7.597z"/><path d="M19.471,9.902c-0.446,0-0.853-0.3-0.968-0.752c-0.137-0.535,0.186-1.08,0.721-1.217l2.054-0.526c0.534-0.139,1.08,0.186,1.217,0.721c0.137,0.535-0.186,1.08-0.721,1.217L19.72,9.871C19.637,9.893,19.553,9.902,19.471,9.902z"/><path d="M20.097,12.208c-0.446,0-0.853-0.3-0.968-0.752c-0.137-0.535,0.186-1.08,0.721-1.217l2.054-0.526c0.533-0.139,1.08,0.185,1.217,0.721c0.137,0.535-0.186,1.08-0.721,1.217l-2.054,0.526C20.262,12.198,20.179,12.208,20.097,12.208z"/></svg>