<svg xmlns="http://www.w3.org/2000/svg" viewBox="0 0 32 32"><!--! Font Icona - https://fonticona.com | License - https://fonticona.com/license | Copyright 2022 FontIcona.com --><path d="M29,21.843h-1.064c-0.553,0-1-0.447-1-1s0.447-1,1-1H29c0.552,0,1-0.448,1-1v-2.414c0.001-0.066-0.034-0.117-0.087-0.138l-2.774-0.953c-0.894-0.336-1.643-0.902-2.192-1.646l-2.685-4.015c-0.206-0.272-0.568-0.467-0.961-0.489L2.939,9.189C2.422,9.189,2,9.611,2,10.129v8.721c0,0.518,0.422,0.939,0.939,0.939c0.553,0,1,0.447,1,1s-0.447,1-1,1C1.318,21.789,0,20.471,0,18.85v-8.721c0-1.621,1.318-2.939,2.939-2.939h18.418c1.04,0.058,1.943,0.542,2.535,1.332l2.688,4.02c0.294,0.396,0.73,0.726,1.235,0.916l2.78,0.955c0.862,0.33,1.412,1.14,1.403,2.027v2.403C32,20.497,30.654,21.843,29,21.843z"/><path d="M21.882,21.789H9.025c-0.553,0-1-0.447-1-1s0.447-1,1-1h12.856c0.553,0,1,0.447,1,1S22.435,21.789,21.882,21.789z"/><path d="M24.914,24.811c-2.218,0-4.021-1.804-4.021-4.021s1.804-4.021,4.021-4.021s4.021,1.804,4.021,4.021S27.132,24.811,24.914,24.811z M24.914,18.768c-1.114,0-2.021,0.907-2.021,2.021s0.907,2.021,2.021,2.021s2.021-0.907,2.021-2.021S26.028,18.768,24.914,18.768z"/><path d="M5.972,24.811c-2.218,0-4.021-1.804-4.021-4.021s1.804-4.021,4.021-4.021s4.021,1.804,4.021,4.021S8.189,24.811,5.972,24.811z M5.972,18.768c-1.114,0-2.021,0.907-2.021,2.021s0.907,2.021,2.021,2.021s2.021-0.907,2.021-2.021S7.086,18.768,5.972,18.768z"/><path d="M27.067,15.214h-7.563c-0.553,0-1-0.447-1-1V8.189c0-0.553,0.447-1,1-1s1,0.447,1,1v5.024h6.563c0.553,0,1,0.447,1,1S27.62,15.214,27.067,15.214z"/><path d="M19.504,15.214H1c-0.553,0-1-0.447-1-1s0.447-1,1-1h18.504c0.553,0,1,0.447,1,1S20.057,15.214,19.504,15.214z"/><path d="M13.364,14.621c-0.553,0-1-0.447-1-1V8.189c0-0.553,0.447-1,1-1s1,0.447,1,1v5.432C14.364,14.174,13.917,14.621,13.364,14.621z"/><path d="M6.936,14.621c-0.553,0-1-0.447-1-1V8.189c0-0.553,0.447-1,1-1s1,0.447,1,1v5.432C7.936,14.174,7.488,14.621,6.936,14.621z"/></svg>