<svg xmlns="http://www.w3.org/2000/svg" viewBox="0 0 32 32"><!--! Font Icona - https://fonticona.com | License - https://fonticona.com/license | Copyright 2022 FontIcona.com --><path d="M22.6,32H9.4C4.217,32,0,27.783,0,22.6V9.4C0,4.217,4.217,0,9.4,0H22.6C27.783,0,32,4.217,32,9.4v13.2C32,27.783,27.783,32,22.6,32z M9.4,2C5.319,2,2,5.319,2,9.4v13.2C2,26.681,5.319,30,9.4,30H22.6c4.081,0,7.4-3.319,7.4-7.4V9.4C30,5.319,26.681,2,22.6,2H9.4z"/><path d="M20.45,27.1h-8.889c-3.663-0.007-6.648-2.992-6.656-6.654v-8.891C4.913,7.892,7.898,4.907,11.56,4.9h8.891c3.526,0.015,6.442,2.782,6.643,6.298l-0.031,9.938C27.06,24.481,24.156,27.1,20.45,27.1z M20.446,6.9h-8.885c-2.561,0.005-4.65,2.095-4.656,4.658v8.887c0.006,2.561,2.096,4.65,4.658,4.656h8.887c2.586,0,4.611-1.742,4.611-3.967l0.033-9.881C24.956,8.849,22.913,6.91,20.446,6.9z"/><path d="M16,19.701c-2.041,0-3.701-1.66-3.701-3.701s1.66-3.701,3.701-3.701s3.701,1.66,3.701,3.701S18.041,19.701,16,19.701z M16,14.299c-0.938,0-1.701,0.763-1.701,1.701s0.763,1.701,1.701,1.701s1.701-0.763,1.701-1.701S16.938,14.299,16,14.299z"/><path d="M20.672,21.671c-0.256,0-0.512-0.098-0.707-0.293l-2.5-2.5c-0.391-0.391-0.391-1.023,0-1.414s1.023-0.391,1.414,0l2.5,2.5c0.391,0.391,0.391,1.023,0,1.414C21.184,21.574,20.928,21.671,20.672,21.671z"/><path d="M13.828,14.829c-0.256,0-0.512-0.098-0.707-0.293l-2.5-2.5c-0.391-0.391-0.391-1.023,0-1.414s1.023-0.391,1.414,0l2.5,2.5c0.391,0.391,0.391,1.023,0,1.414C14.34,14.731,14.084,14.829,13.828,14.829z"/><path d="M11.328,21.671c-0.256,0-0.512-0.098-0.707-0.293c-0.391-0.391-0.391-1.023,0-1.414l2.5-2.5c0.391-0.391,1.023-0.391,1.414,0s0.391,1.023,0,1.414l-2.5,2.5C11.84,21.574,11.584,21.671,11.328,21.671z"/><path d="M18.172,14.829c-0.256,0-0.512-0.098-0.707-0.293c-0.391-0.391-0.391-1.023,0-1.414l2.5-2.5c0.391-0.391,1.023-0.391,1.414,0s0.391,1.023,0,1.414l-2.5,2.5C18.684,14.731,18.428,14.829,18.172,14.829z"/><path d="M27.345,14.299h-2.5c-0.553,0-1-0.448-1-1s0.447-1,1-1h2.5c0.553,0,1,0.448,1,1S27.897,14.299,27.345,14.299z"/><path d="M27.345,19.919h-2.5c-0.553,0-1-0.448-1-1s0.447-1,1-1h2.5c0.553,0,1,0.448,1,1S27.897,19.919,27.345,19.919z"/></svg>