<svg xmlns="http://www.w3.org/2000/svg" viewBox="0 0 32 32"><!--! Font Icona - https://fonticona.com | License - https://fonticona.com/license | Copyright 2022 FontIcona.com --><path d="M26,29.5H6c-0.552,0-1-0.447-1-1s0.448-1,1-1h20c0.552,0,1,0.447,1,1S26.552,29.5,26,29.5z"/><path d="M26,4.5H6c-0.552,0-1-0.448-1-1s0.448-1,1-1h20c0.552,0,1,0.448,1,1S26.552,4.5,26,4.5z"/><path d="M3.5,27c-0.552,0-1-0.447-1-1V6c0-0.552,0.448-1,1-1s1,0.448,1,1v20C4.5,26.553,4.052,27,3.5,27z"/><path d="M28.5,27c-0.552,0-1-0.447-1-1V6c0-0.552,0.448-1,1-1s1,0.448,1,1v20C29.5,26.553,29.052,27,28.5,27z"/><path d="M6,7H1C0.448,7,0,6.552,0,6V1c0-0.552,0.448-1,1-1h5c0.552,0,1,0.448,1,1v5C7,6.552,6.552,7,6,7z M2,5h3V2H2V5z"/><path d="M31,7h-5c-0.552,0-1-0.448-1-1V1c0-0.552,0.448-1,1-1h5c0.552,0,1,0.448,1,1v5C32,6.552,31.552,7,31,7z M27,5h3V2h-3V5z"/><path d="M6,32H1c-0.552,0-1-0.447-1-1v-5c0-0.553,0.448-1,1-1h5c0.552,0,1,0.447,1,1v5C7,31.553,6.552,32,6,32z M2,30h3v-3H2V30z"/><path d="M31,32h-5c-0.552,0-1-0.447-1-1v-5c0-0.553,0.448-1,1-1h5c0.552,0,1,0.447,1,1v5C32,31.553,31.552,32,31,32z M27,30h3v-3h-3V30z"/></svg>