<svg xmlns="http://www.w3.org/2000/svg" viewBox="0 0 32 32"><!--! Font Icona - https://fonticona.com | License - https://fonticona.com/license | Copyright 2022 FontIcona.com --><path d="M12.891,32H2c-0.552,0-1-0.447-1-1V16.952c0-0.261,0.102-0.511,0.283-0.697C6.391,11.006,2.686,3.676,2.525,3.367C2.387,3.1,2.376,2.785,2.495,2.51C2.614,2.235,2.85,2.026,3.139,1.944l6.688-1.905c0.316-0.089,0.655-0.02,0.908,0.188c0.254,0.209,0.389,0.527,0.362,0.854c-0.771,9.46,5.225,13.854,5.481,14.037c0.448,0.32,0.555,0.943,0.236,1.393c-0.318,0.45-0.941,0.558-1.391,0.24c-0.28-0.197-6.57-4.747-6.391-14.407L4.78,3.556C5.749,6.084,7.48,12.42,3,17.349V30h9.891c0.519-0.246,2.258-1.339,2.11-4.717c-0.024-0.552,0.403-1.019,0.955-1.043c0.534-0.034,1.019,0.402,1.043,0.955c0.202,4.608-2.451,6.232-3.269,6.62C13.469,31.939,13.188,32,12.891,32z"/><path d="M30,32H19.143c-0.349,0-0.693-0.092-0.996-0.266c-0.94-0.534-3.137-2.24-3.146-6.493c-0.001-0.552,0.445-1.001,0.998-1.002c0.001,0,0.002,0,0.002,0c0.551,0,0.999,0.446,1,0.998c0.007,3.295,1.638,4.477,2.138,4.761L29,30V17.349c-4.48-4.929-2.749-11.265-1.78-13.793l-4.253-1.212c0.179,9.66-6.111,14.21-6.391,14.407c-0.453,0.318-1.076,0.21-1.394-0.241c-0.317-0.451-0.21-1.073,0.239-1.392l0,0c0.256-0.183,6.252-4.577,5.481-14.037c-0.027-0.327,0.108-0.646,0.362-0.854c0.253-0.208,0.593-0.278,0.908-0.188l6.688,1.905c0.289,0.082,0.525,0.291,0.644,0.566c0.119,0.275,0.108,0.59-0.03,0.856c-0.16,0.31-3.866,7.64,1.242,12.889C30.898,16.442,31,16.692,31,16.952V31C31,31.553,30.552,32,30,32z"/><path d="M16,26.24c-0.552,0-1-0.447-1-1v-9.306c0-0.553,0.448-1,1-1s1,0.447,1,1v9.306C17,25.792,16.552,26.24,16,26.24z"/><path d="M16,4.341c-2.334,0-4.667-0.867-6.571-2.602C9.021,1.368,8.991,0.735,9.363,0.326c0.372-0.406,1.004-0.438,1.413-0.065c3.027,2.758,7.422,2.758,10.449,0c0.408-0.373,1.041-0.341,1.413,0.065c0.372,0.408,0.342,1.041-0.066,1.413C20.667,3.474,18.334,4.341,16,4.341z"/><path d="M30,24H2c-0.552,0-1-0.447-1-1s0.448-1,1-1h28c0.552,0,1,0.447,1,1S30.552,24,30,24z"/></svg>