<svg xmlns="http://www.w3.org/2000/svg" viewBox="0 0 32 32"><!--! Font Icona - https://fonticona.com | License - https://fonticona.com/license | Copyright 2022 FontIcona.com --><path d="M17.524,32h-2.982c-0.476,0-0.886-0.335-0.98-0.802l-0.635-3.14c-0.218-0.056-0.434-0.117-0.649-0.184l-2.147,2.352c-0.326,0.355-0.857,0.43-1.266,0.176l-2.534-1.571c-0.404-0.25-0.576-0.751-0.411-1.197l1.115-3.006c-0.019-0.02-0.037-0.039-0.056-0.06l-3.023,1.014C3.5,25.734,3,25.542,2.765,25.12l-1.451-2.605c-0.231-0.415-0.138-0.937,0.223-1.246l2.433-2.083c-0.008-0.031-0.016-0.062-0.024-0.092l-3.131-0.586C0.342,18.419,0,18.006,0,17.524v-2.981c0-0.476,0.335-0.886,0.802-0.98l3.14-0.635c0.055-0.218,0.116-0.435,0.184-0.649l-2.353-2.146C1.417,9.808,1.343,9.276,1.597,8.867l1.571-2.535c0.25-0.404,0.751-0.575,1.198-0.411l3.007,1.115C7.392,7.018,7.411,6.999,7.431,6.98L6.418,3.957c-0.153-0.456,0.041-0.956,0.461-1.19l2.605-1.452c0.415-0.233,0.937-0.14,1.247,0.223l2.083,2.434c0.031-0.008,0.062-0.017,0.092-0.024l0.586-3.13C13.58,0.343,13.993,0,14.475,0h2.982c0.476,0,0.886,0.335,0.98,0.802l0.607,3l-1.96,0.396L16.639,2h-1.334l-0.554,2.96c-0.075,0.402-0.388,0.719-0.79,0.798c-0.398,0.078-0.794,0.181-1.177,0.306c-0.384,0.125-0.806,0.006-1.069-0.301L9.744,3.459l-1.166,0.65l0.958,2.857c0.13,0.387,0.011,0.814-0.3,1.079C8.932,8.304,8.638,8.585,8.361,8.881c-0.275,0.295-0.7,0.396-1.078,0.255L4.437,8.08L3.734,9.215l2.224,2.029c0.302,0.275,0.406,0.707,0.262,1.09c-0.199,0.53-0.355,1.081-0.465,1.639c-0.078,0.396-0.387,0.707-0.783,0.787L2,15.361v1.333l2.96,0.554c0.402,0.076,0.718,0.389,0.797,0.79c0.078,0.395,0.181,0.791,0.306,1.179c0.125,0.384,0.006,0.805-0.301,1.067l-2.303,1.972l0.649,1.166l2.857-0.958c0.387-0.131,0.814-0.012,1.079,0.3c0.262,0.308,0.543,0.602,0.835,0.874c0.295,0.275,0.396,0.701,0.256,1.079l-1.055,2.846l1.133,0.703l2.03-2.224c0.276-0.302,0.709-0.406,1.09-0.263c0.533,0.2,1.084,0.356,1.638,0.465c0.396,0.078,0.708,0.387,0.788,0.783L15.36,30h1.334l0.554-2.96c0.075-0.402,0.388-0.719,0.789-0.798c0.399-0.078,0.795-0.182,1.178-0.306c0.385-0.126,0.806-0.006,1.069,0.301l1.972,2.304l1.165-0.65l-0.958-2.857c-0.13-0.387-0.011-0.814,0.3-1.079c0.303-0.258,0.597-0.539,0.875-0.835c0.276-0.294,0.702-0.395,1.078-0.255l2.846,1.056l0.703-1.135l-2.223-2.029c-0.302-0.275-0.406-0.707-0.262-1.09c0.199-0.53,0.355-1.081,0.465-1.639c0.078-0.396,0.387-0.707,0.783-0.787L30,16.639v-1.333l-2.191-0.411l0.368-1.965l3.007,0.563C31.657,13.581,32,13.994,32,14.476v2.981c0,0.476-0.335,0.886-0.802,0.98l-3.139,0.635c-0.056,0.218-0.117,0.435-0.184,0.649l2.352,2.146c0.355,0.324,0.429,0.855,0.176,1.265l-1.571,2.535c-0.25,0.405-0.75,0.576-1.198,0.411l-3.007-1.115c-0.019,0.019-0.039,0.037-0.058,0.056l1.013,3.023c0.153,0.456-0.041,0.956-0.461,1.19l-2.604,1.452c-0.415,0.233-0.937,0.14-1.247-0.223l-2.083-2.434c-0.031,0.008-0.062,0.017-0.092,0.024l-0.586,3.13C18.419,31.657,18.006,32,17.524,32z"/><path d="M24.579,16.164h-1.5c-0.238,0-0.443-0.168-0.49-0.4l-0.32-1.582c-0.111-0.028-0.221-0.06-0.33-0.094l-1.082,1.186c-0.164,0.179-0.429,0.215-0.633,0.088l-1.275-0.791c-0.202-0.125-0.288-0.376-0.205-0.599l0.562-1.515c-0.01-0.011-0.021-0.021-0.031-0.032l-1.523,0.51c-0.229,0.077-0.479-0.021-0.596-0.23l-0.73-1.311c-0.116-0.208-0.069-0.468,0.112-0.623l1.226-1.05c-0.004-0.017-0.009-0.033-0.013-0.05l-1.577-0.295c-0.237-0.044-0.408-0.251-0.408-0.491v-1.5c0-0.238,0.167-0.442,0.401-0.49l1.582-0.32c0.028-0.11,0.059-0.221,0.093-0.33l-1.185-1.082C16.478,5,16.441,4.734,16.568,4.529l0.791-1.274c0.125-0.202,0.375-0.288,0.599-0.205l1.515,0.562c0.011-0.011,0.021-0.021,0.032-0.031l-0.51-1.522c-0.077-0.229,0.021-0.479,0.23-0.596l1.311-0.73c0.208-0.116,0.469-0.07,0.624,0.111l1.049,1.227c0.017-0.005,0.034-0.009,0.05-0.014l0.295-1.577c0.044-0.236,0.251-0.408,0.492-0.408h1.5c0.238,0,0.443,0.168,0.49,0.4l0.32,1.582c0.11,0.028,0.22,0.06,0.33,0.094l1.082-1.185c0.163-0.18,0.429-0.215,0.632-0.088l1.275,0.79c0.202,0.125,0.288,0.376,0.206,0.599l-0.562,1.515c0.011,0.011,0.021,0.022,0.031,0.033L29.872,3.3c0.229-0.077,0.479,0.021,0.596,0.23l0.73,1.311c0.116,0.208,0.069,0.468-0.112,0.623l-1.226,1.05c0.004,0.017,0.009,0.033,0.013,0.051l1.577,0.295c0.237,0.044,0.408,0.251,0.408,0.491v1.5c0,0.238-0.167,0.442-0.401,0.49l-1.582,0.32c-0.028,0.11-0.06,0.221-0.093,0.329l1.185,1.082c0.178,0.162,0.215,0.428,0.088,0.633l-0.791,1.275c-0.125,0.201-0.375,0.289-0.599,0.205l-1.515-0.562c-0.011,0.011-0.021,0.021-0.033,0.031l0.511,1.522c0.077,0.229-0.021,0.479-0.231,0.596l-1.311,0.729c-0.208,0.117-0.468,0.07-0.623-0.111l-1.049-1.226c-0.017,0.005-0.033,0.009-0.05,0.014l-0.296,1.576C25.026,15.992,24.819,16.164,24.579,16.164z M23.487,15.164h0.676l0.28-1.491c0.038-0.201,0.193-0.359,0.394-0.398c0.203-0.04,0.4-0.092,0.594-0.154c0.19-0.062,0.402-0.003,0.533,0.15l0.994,1.16l0.591-0.329l-0.483-1.439c-0.065-0.193-0.005-0.407,0.149-0.54c0.155-0.132,0.302-0.272,0.441-0.42c0.137-0.148,0.351-0.199,0.539-0.128l1.435,0.531l0.356-0.574l-1.121-1.023c-0.151-0.138-0.203-0.354-0.131-0.544c0.101-0.27,0.179-0.547,0.234-0.825c0.039-0.198,0.193-0.354,0.392-0.394l1.498-0.304V7.766l-1.492-0.279c-0.201-0.037-0.359-0.193-0.398-0.394c-0.041-0.203-0.092-0.402-0.155-0.596c-0.062-0.191-0.002-0.402,0.151-0.533l1.161-0.994l-0.329-0.59l-1.44,0.482c-0.193,0.065-0.408,0.007-0.541-0.15c-0.131-0.155-0.272-0.301-0.42-0.439c-0.147-0.138-0.198-0.35-0.127-0.539L27.8,2.299l-0.575-0.356l-1.023,1.12c-0.138,0.151-0.353,0.2-0.544,0.132c-0.271-0.102-0.549-0.18-0.824-0.233c-0.199-0.039-0.354-0.193-0.395-0.392L24.136,1.07h-0.676l-0.279,1.492c-0.038,0.201-0.194,0.359-0.395,0.398c-0.203,0.04-0.401,0.092-0.595,0.154C22,3.179,21.789,3.118,21.658,2.965l-0.994-1.161l-0.591,0.329l0.483,1.44c0.065,0.194,0.005,0.408-0.151,0.541c-0.155,0.131-0.301,0.271-0.439,0.419c-0.137,0.148-0.351,0.198-0.539,0.128L17.993,4.13l-0.356,0.574l1.121,1.023c0.151,0.138,0.203,0.354,0.131,0.545c-0.1,0.267-0.179,0.544-0.234,0.824c-0.039,0.198-0.193,0.354-0.392,0.394l-1.498,0.304V8.47l1.492,0.279c0.201,0.037,0.359,0.193,0.398,0.394c0.041,0.203,0.092,0.401,0.155,0.595c0.062,0.191,0.002,0.402-0.151,0.533l-1.161,0.994l0.329,0.591l1.44-0.482c0.193-0.064,0.407-0.006,0.539,0.149c0.132,0.154,0.272,0.302,0.421,0.44c0.147,0.138,0.198,0.35,0.127,0.539l-0.532,1.435l0.575,0.356l1.023-1.121c0.137-0.152,0.353-0.203,0.545-0.131c0.264,0.1,0.542,0.178,0.825,0.234c0.198,0.039,0.353,0.193,0.393,0.391L23.487,15.164z M31.358,8.851h0.01H31.358z"/><path d="M23.812,11.41c-1.815,0-3.292-1.478-3.292-3.293s1.477-3.293,3.292-3.293s3.292,1.478,3.292,3.293S25.627,11.41,23.812,11.41z M23.812,5.924c-1.209,0-2.194,0.983-2.194,2.193s0.984,2.193,2.194,2.193s2.194-0.983,2.194-2.193S25.021,5.924,23.812,5.924z"/><path d="M16.259,24.621c-4.793,0-8.692-3.899-8.692-8.691c0-4.793,3.899-8.692,8.692-8.692v2c-3.69,0-6.692,3.002-6.692,6.692c0,3.689,3.002,6.691,6.692,6.691s6.692-3.002,6.692-6.691h2C24.951,20.722,21.052,24.621,16.259,24.621z"/></svg>