<svg xmlns="http://www.w3.org/2000/svg" viewBox="0 0 32 32"><!--! Font Icona - https://fonticona.com | License - https://fonticona.com/license | Copyright 2022 FontIcona.com --><rect x="7.004" y="11.604" width="3.892" height="2"/><rect x="7.004" y="15.341" width="5.431" height="2"/><polygon points="16,27.578 7.695,7.466 9.544,6.702 16,22.338 22.456,6.702 24.305,7.466 "/><rect x="21.104" y="11.604" width="3.892" height="2"/><rect x="19.565" y="15.341" width="5.431" height="2"/><rect x="12.435" y="15.341" width="7.131" height="2"/><path d="M16,32C7.178,32,0,24.822,0,16S7.178,0,16,0s16,7.178,16,16S24.822,32,16,32z M16,2C8.28,2,2,8.28,2,16s6.28,14,14,14s14-6.28,14-14S23.72,2,16,2z"/></svg>