<svg xmlns="http://www.w3.org/2000/svg" viewBox="0 0 32 32"><!--! Font Icona - https://fonticona.com | License - https://fonticona.com/license | Copyright 2022 FontIcona.com --><path d="M12.831,32C6.639,32,1.602,26.963,1.602,20.771S6.639,9.541,12.831,9.541c0.717,0,1.435,0.068,2.133,0.202c0.542,0.104,0.896,0.629,0.793,1.172c-0.104,0.542-0.621,0.894-1.172,0.793c-0.573-0.111-1.164-0.167-1.754-0.167c-5.089,0-9.229,4.141-9.229,9.229S7.742,30,12.831,30s9.229-4.141,9.229-9.229c0-1.19-0.224-2.35-0.664-3.445c-0.206-0.512,0.042-1.095,0.555-1.301c0.509-0.203,1.094,0.04,1.301,0.555c0.536,1.333,0.809,2.744,0.809,4.191C24.061,26.963,19.023,32,12.831,32z"/><path d="M24.374,15.198c-0.422,0-0.854-0.04-1.29-0.122c-0.385-0.073-1.132-0.247-1.825-0.598c-0.493-0.249-0.691-0.85-0.442-1.343c0.249-0.492,0.851-0.692,1.343-0.442c0.493,0.249,1.07,0.375,1.296,0.418c1.121,0.213,2.258,0.021,2.887-0.483c1.165-0.934,1.827-2.714,2.025-5.444c0.121-1.687-0.107-3.079-0.734-4.354c-0.118,0.15-0.248,0.303-0.394,0.453c-1.198,1.237-2.737,1.846-4.096,2.383c-2.176,0.859-3.316,1.394-3.44,3.239c-0.052,0.757,0.099,1.051,0.186,1.101c0.313,0.177,1.533-0.1,3.271-1.286c0.455-0.309,1.077-0.193,1.39,0.263c0.312,0.456,0.193,1.078-0.263,1.39c-1.619,1.106-3.869,2.242-5.392,1.369c-0.61-0.349-1.312-1.147-1.188-2.971c0.216-3.192,2.599-4.134,4.701-4.965c1.228-0.485,2.496-0.986,3.395-1.914c0.267-0.274,0.471-0.587,0.688-0.917c0.126-0.191,0.251-0.381,0.386-0.565C27.064,0.152,27.363,0,27.682,0c0.001,0,0.001,0,0.001,0c0.318,0,0.617,0.151,0.806,0.407c1.937,2.635,1.997,5.212,1.873,6.921c-0.153,2.115-0.607,5.128-2.768,6.86C26.772,14.847,25.623,15.198,24.374,15.198z"/><path d="M23.725,10.545c-0.319,0-0.633-0.152-0.826-0.436c-0.312-0.456-0.195-1.078,0.261-1.39c0.824-0.563,1.354-1.028,1.573-1.276c0.611-0.685,1.04-1.337,1.045-1.344c0.302-0.461,0.922-0.592,1.384-0.29s0.592,0.921,0.291,1.383c-0.021,0.031-0.511,0.78-1.227,1.582c-0.392,0.44-1.099,1.022-1.938,1.596C24.115,10.488,23.919,10.545,23.725,10.545z"/><path d="M18.386,11.015c-0.47,0-0.889-0.332-0.981-0.811c-0.618-3.212-1.61-5.263-3.791-7.836c-0.357-0.421-0.306-1.053,0.116-1.409c0.421-0.356,1.053-0.305,1.409,0.116c2.4,2.832,3.547,5.204,4.23,8.75c0.104,0.543-0.251,1.067-0.793,1.172C18.512,11.009,18.448,11.015,18.386,11.015z"/><path d="M9.773,31.463c-0.371,0-0.728-0.207-0.9-0.563c-0.241-0.497-0.034-1.095,0.463-1.336c6.073-2.946,9.324-12.826,8.068-19.36c-0.104-0.542,0.251-1.066,0.794-1.171c0.538-0.101,1.065,0.252,1.171,0.794c1.418,7.381-2.198,18.159-9.16,21.536C10.068,31.431,9.92,31.463,9.773,31.463z"/></svg>