<svg xmlns="http://www.w3.org/2000/svg" viewBox="0 0 32 32"><!--! Font Icona - https://fonticona.com | License - https://fonticona.com/license | Copyright 2022 FontIcona.com --><path d="M8.547,32c-0.129,0-0.259-0.024-0.383-0.076C7.791,31.77,7.547,31.404,7.547,31v-5.645C4.178,23.1,2.03,19.195,2.031,15.249v-3.207C2.03,5.736,7.2,0.235,13.321,0.03c1.781-0.041,3.576-0.04,5.346-0.001c0.004,0,0.008,0,0.012,0.001C24.8,0.235,29.97,5.736,29.969,12.042v3.207c0.001,6.305-5.168,11.806-11.29,12.011c-1.661,0.038-3.333,0.04-4.985,0.008l-4.439,4.439C9.063,31.898,8.808,32,8.547,32z M9.547,24.941v3.645l3.01-3.01c0.14-0.141,0.317-0.234,0.508-0.273c0.106-0.029,0.213-0.042,0.318-0.042c1.733,0.039,3.498,0.039,5.239,0c4.975-0.167,9.347-4.846,9.346-10.012v-3.207C27.97,6.877,23.601,2.2,18.617,2.029c-1.739-0.039-3.501-0.039-5.24,0C8.402,2.196,4.03,6.875,4.031,12.042v3.207c-0.001,3.448,1.977,6.865,5.04,8.705C9.42,24.164,9.598,24.557,9.547,24.941z"/><path d="M19.092,13.942c-0.552,0-1-0.447-1-1c0-0.998-0.812-1.81-1.809-1.81c-0.552,0-1-0.447-1-1s0.448-1,1-1c2.1,0,3.809,1.709,3.809,3.81C20.092,13.495,19.645,13.942,19.092,13.942z"/><path d="M21.777,13.131c-0.552,0-1-0.447-1-1c0-2.03-1.652-3.683-3.682-3.683c-0.552,0-1-0.447-1-1s0.448-1,1-1c3.133,0,5.682,2.549,5.682,5.683C22.777,12.684,22.329,13.131,21.777,13.131z"/><path d="M24.462,12.318c-0.552,0-1-0.447-1-1c0-3.062-2.492-5.555-5.555-5.555c-0.552,0-1-0.447-1-1s0.448-1,1-1c4.166,0,7.555,3.389,7.555,7.555C25.462,11.871,25.014,12.318,24.462,12.318z"/><path d="M19.254,23.511c-0.507,0-1.045-0.096-1.611-0.289c-0.276-0.068-8.458-2.292-11.061-11.358c-0.019-0.066-0.031-0.134-0.036-0.202C6.535,11.518,6.319,8.12,9.51,6.567c0.431-0.211,0.95-0.084,1.238,0.3l3.089,4.12c0.321,0.429,0.248,1.034-0.167,1.374l-1.365,1.116c0.421,1.004,1.535,3.015,3.94,3.888l1.01-1.02c0.342-0.346,0.883-0.395,1.283-0.115l4.103,2.867c0.326,0.228,0.486,0.627,0.408,1.017c-0.042,0.205-0.449,2.03-2.011,2.93C20.496,23.355,19.9,23.511,19.254,23.511z M8.538,11.428c2.317,7.847,9.38,9.801,9.681,9.881c0.795,0.266,1.369,0.26,1.821,0.002c0.411-0.236,0.677-0.656,0.839-1.005l-2.796-1.954l-0.846,0.854c-0.252,0.255-0.624,0.357-0.97,0.262c-4.772-1.283-6.054-5.864-6.106-6.059c-0.102-0.38,0.028-0.785,0.333-1.034l1.168-0.955l-1.96-2.614C8.608,9.723,8.536,11.063,8.538,11.428z"/></svg>