<svg xmlns="http://www.w3.org/2000/svg" viewBox="0 0 32 32"><!--! Font Icona - https://fonticona.com | License - https://fonticona.com/license | Copyright 2022 FontIcona.com --><path d="M28,21.267H4c-0.552,0-1-0.447-1-1s0.448-1,1-1h24c0.553,0,1,0.447,1,1S28.553,21.267,28,21.267z"/><path d="M28,26.633H4c-0.552,0-1-0.447-1-1s0.448-1,1-1h24c0.553,0,1,0.447,1,1S28.553,26.633,28,26.633z"/><path d="M28,32H4c-0.552,0-1-0.447-1-1s0.448-1,1-1h24c0.553,0,1,0.447,1,1S28.553,32,28,32z"/><path d="M11.471,15.224c-0.342,0-0.684-0.085-0.994-0.256c-0.658-0.362-1.066-1.054-1.066-1.805V2.062c0-0.75,0.408-1.44,1.063-1.803c0.656-0.364,1.459-0.341,2.094,0.057l8.809,5.552c0.603,0.38,0.962,1.032,0.962,1.744s-0.359,1.364-0.962,1.744l-8.807,5.551C12.236,15.117,11.854,15.224,11.471,15.224z M11.411,13.163c0,0,0.092,0.051,0.093,0.051l0,0l8.807-5.551V7.56l-8.807-5.551l-0.093,0.053V13.163L11.411,13.163z"/></svg>