<svg xmlns="http://www.w3.org/2000/svg" viewBox="0 0 32 32"><!--! Font Icona - https://fonticona.com | License - https://fonticona.com/license | Copyright 2022 FontIcona.com --><path d="M29,32H3c-1.654,0-3-1.346-3-3V3c0-1.654,1.346-3,3-3h26c1.654,0,3,1.346,3,3v26C32,30.654,30.654,32,29,32z M3,2C2.448,2,2,2.448,2,3v26c0,0.552,0.448,1,1,1h26c0.552,0,1-0.448,1-1V3c0-0.552-0.448-1-1-1H3z"/><path d="M31,9.711H1c-0.553,0-1-0.447-1-1s0.447-1,1-1h30c0.553,0,1,0.447,1,1S31.553,9.711,31,9.711z"/><path d="M5.255,9.711c-0.15,0-0.304-0.034-0.448-0.106c-0.493-0.248-0.692-0.85-0.444-1.343L8.24,0.551c0.248-0.493,0.846-0.692,1.343-0.444c0.493,0.248,0.692,0.85,0.444,1.343L6.149,9.16C5.974,9.51,5.621,9.711,5.255,9.711z"/><path d="M23.61,9.711c-0.15,0-0.304-0.034-0.447-0.106c-0.494-0.247-0.693-0.848-0.445-1.342l3.866-7.711c0.247-0.493,0.849-0.693,1.342-0.445c0.494,0.247,0.693,0.848,0.445,1.342l-3.866,7.711C24.33,9.509,23.977,9.711,23.61,9.711z"/><path d="M14.933,9.711c-0.15,0-0.304-0.034-0.448-0.106c-0.493-0.248-0.692-0.85-0.444-1.343l3.878-7.711c0.248-0.493,0.847-0.692,1.343-0.444c0.493,0.248,0.692,0.85,0.444,1.343L15.827,9.16C15.651,9.51,15.299,9.711,14.933,9.711z"/><path d="M12.124,27.641c-0.287,0-0.574-0.071-0.834-0.216c-0.544-0.303-0.883-0.878-0.883-1.501V13.787c0-0.624,0.339-1.199,0.884-1.501c0.545-0.304,1.212-0.286,1.741,0.044l9.751,6.071h0.001c0.507,0.316,0.81,0.861,0.809,1.459c0,0.598-0.303,1.142-0.811,1.457l-9.751,6.065C12.754,27.555,12.439,27.641,12.124,27.641z M12.407,14.297v11.118l8.934-5.557L12.407,14.297z M21.725,20.098L21.725,20.098L21.725,20.098z"/></svg>