<svg xmlns="http://www.w3.org/2000/svg" viewBox="0 0 32 32"><!--! Font Icona - https://fonticona.com | License - https://fonticona.com/license | Copyright 2022 FontIcona.com --><path d="M4.896,26.771c-0.844,0-3.045-0.198-4.212-2.095l-0.84-1.366l1.598-0.153c0.031-0.004,3.208-0.33,5.014-2.244l0.296-0.313h18.496l0.296,0.313c1.818,1.928,4.98,2.24,5.012,2.243l1.604,0.148l-0.844,1.372c-1.456,2.366-4.522,2.089-4.652,2.076L5.237,26.757C5.231,26.759,5.105,26.771,4.896,26.771z M3.919,24.648c0.646,0.159,1.214,0.113,1.225,0.113l21.619-0.005c0.061,0.003,0.655,0.051,1.313-0.109c-1.155-0.368-2.544-0.995-3.672-2.049H7.596C6.467,23.654,5.075,24.281,3.919,24.648z"/><path d="M6.839,18.378c-0.714,0-2.613-0.17-3.624-1.812L2.37,15.194l1.604-0.148c0.023-0.002,2.581-0.267,4.024-1.797l0.296-0.313h15.41l0.296,0.313c1.443,1.53,4.001,1.795,4.027,1.798l1.595,0.154l-0.838,1.365c-1.257,2.042-3.893,1.805-4.004,1.795L7.12,18.366C7.117,18.367,7.014,18.378,6.839,18.378z M6.766,16.375c0.147,0.004,0.252-0.005,0.256-0.004l17.858-0.005c0.029,0.001,0.161,0.01,0.346,0.006c-0.787-0.315-1.635-0.773-2.36-1.437H9.135C8.406,15.602,7.556,16.061,6.766,16.375z"/><path d="M8.383,10.752c-0.858,0-2.296-0.324-3.069-1.581L4.506,7.857l1.527-0.202C6.066,7.65,9.586,7.135,13.305,4.13c0.431-0.347,1.059-0.279,1.407,0.149c0.347,0.43,0.279,1.06-0.149,1.407c-1.885,1.521-3.716,2.471-5.175,3.055L22.23,8.737c-1.586-0.6-3.429-1.576-4.896-3.146c-0.376-0.404-0.354-1.037,0.049-1.414c0.404-0.375,1.037-0.356,1.414,0.049c2.682,2.873,7.107,3.422,7.152,3.428l1.557,0.183l-0.82,1.335c-0.873,1.419-2.586,1.651-3.469,1.562L8.683,10.737C8.594,10.747,8.493,10.752,8.383,10.752z"/><path d="M7.184,22.045c-0.553,0-1-0.447-1-1v-3.208c0-0.553,0.447-1,1-1s1,0.447,1,1v3.208C8.184,21.598,7.736,22.045,7.184,22.045z"/><path d="M24.816,22.224c-0.553,0-1-0.447-1-1v-3.387c0-0.553,0.447-1,1-1s1,0.447,1,1v3.387C25.816,21.776,25.369,22.224,24.816,22.224z"/><path d="M8.727,14.936c-0.553,0-1-0.447-1-1v-3.229c0-0.553,0.447-1,1-1s1,0.447,1,1v3.229C9.727,14.488,9.279,14.936,8.727,14.936z"/><path d="M23.273,14.936c-0.553,0-1-0.447-1-1v-3.229c0-0.553,0.447-1,1-1s1,0.447,1,1v3.229C24.273,14.488,23.826,14.936,23.273,14.936z"/><path d="M16,5.807c-1.649,0-2.991-1.303-2.991-2.903S14.351,0,16,0s2.991,1.303,2.991,2.903S17.649,5.807,16,5.807z M16,2c-0.547,0-0.991,0.405-0.991,0.903S15.453,3.807,16,3.807s0.991-0.405,0.991-0.903S16.547,2,16,2z"/><path d="M17.991,32H6.214c-1.103,0-2-0.897-2-2v-3.693c0-0.553,0.447-1,1-1s1,0.447,1,1V30h11.777c0.553,0,1,0.447,1,1S18.544,32,17.991,32z"/><path d="M26.368,32H14.389c-0.553,0-1-0.447-1-1s0.447-1,1-1h11.979v-3.7c0-0.553,0.447-1,1-1s1,0.447,1,1V30C28.368,31.103,27.471,32,26.368,32z"/><path d="M13.251,31.249c-0.553,0-1-0.447-1-1v-4.075c0-0.553,0.447-1,1-1s1,0.447,1,1v4.075C14.251,30.802,13.804,31.249,13.251,31.249z"/><path d="M19.338,31.249c-0.553,0-1-0.447-1-1v-4.075c0-0.553,0.447-1,1-1s1,0.447,1,1v4.075C20.338,30.802,19.891,31.249,19.338,31.249z"/></svg>