<svg xmlns="http://www.w3.org/2000/svg" viewBox="0 0 32 32"><!--! Font Icona - https://fonticona.com | License - https://fonticona.com/license | Copyright 2022 FontIcona.com --><path d="M15.098,30.085c-0.522,0-1.035-0.094-1.538-0.279c-3.626-1.34-5.114-7.216-5.176-7.466l-3.28-10.622C5.058,11.657,5.025,11.651,5,11.647c-0.38-0.064-1.269,0.425-1.821,0.908c-0.201,0.176-0.467,0.257-0.731,0.246c-0.266-0.02-0.515-0.144-0.688-0.346l-1.519-1.771c-0.174-0.204-0.26-0.469-0.237-0.735S0.154,9.436,0.36,9.265L7.66,3.188c1.722-1.203,3.214-1.477,4.506-0.864c2.501,1.186,2.969,5.28,3.032,6.006l1.781,8.718c0.257,0.959,0.57,1.239,0.668,1.262c0.182,0.035,0.651-0.269,0.941-0.608c2.058-2.146,2.65-4.892,2.655-4.919c0.224-1.021,0.18-1.769-0.117-2.011c-0.45-0.367-1.77-0.086-2.548,0.26c-0.327,0.142-0.705,0.104-0.993-0.105s-0.444-0.556-0.409-0.909c0.611-6.019,5.79-7.473,6.01-7.531c2.817-0.889,5.073-0.736,6.66,0.465c2.224,1.685,2.155,4.748,2.151,4.878c-1.434,11.939-12.952,20.619-13.442,20.982C17.37,29.66,16.213,30.084,15.098,30.085z M4.938,9.643c0.132,0,0.265,0.011,0.396,0.033c0.667,0.113,1.206,0.505,1.559,1.134c0.035,0.062,0.062,0.127,0.083,0.194l3.333,10.802c0.367,1.47,1.759,5.319,3.945,6.125c0.933,0.345,1.953,0.103,3.125-0.736c0.098-0.073,11.302-8.529,12.627-19.516l0,0c-0.005,0,0.004-2.105-1.375-3.141c-1.042-0.781-2.686-0.827-4.884-0.133c-0.179,0.05-3.219,0.936-4.271,4.284c0.941-0.16,2.077-0.148,2.913,0.53c0.948,0.772,1.221,2.111,0.811,3.981c-0.026,0.125-0.717,3.329-3.125,5.836c-0.091,0.113-1.349,1.554-2.858,1.226c-1.022-0.226-1.757-1.153-2.184-2.757l-1.807-8.834c-0.008-0.04-0.014-0.081-0.017-0.122c-0.076-0.949-0.587-3.798-1.902-4.419c-0.593-0.282-1.414-0.063-2.437,0.646l-6.451,5.375l0.25,0.291C3.266,10.057,4.1,9.643,4.938,9.643z"/></svg>