<svg xmlns="http://www.w3.org/2000/svg" viewBox="0 0 32 32"><!--! Font Icona - https://fonticona.com | License - https://fonticona.com/license | Copyright 2022 FontIcona.com --><path d="M23.4,19.1C23.4,19.1,23.4,19.1,23.4,19.1c-0.5,0-1-0.2-1.4-0.6l-6.5-6.5c-0.7-0.7-0.7-2,0-2.7l5.5-5.5c2.4-2.4,6.2-2.3,8.5,0l0.7,0.7c2.3,2.3,2.3,6.2,0,8.5l-5.5,5.5C24.4,18.9,23.9,19.1,23.4,19.1z M17,10.7l6.4,6.4l5.4-5.4c1.6-1.6,1.6-4.1,0-5.7l-0.7-0.7c-1.6-1.6-4.1-1.6-5.7,0L17,10.7z"/><path d="M8.6,19.1c-0.5,0-1-0.2-1.4-0.6l-5.5-5.5C0.6,11.9,0,10.4,0,8.8s0.6-3.1,1.8-4.3l0.7-0.7c2.3-2.3,6.2-2.3,8.5,0l5.5,5.5c0.7,0.7,0.7,2,0,2.7L10,18.6C9.6,18.9,9.1,19.1,8.6,19.1z M6.7,4.1c-1,0-2.1,0.4-2.8,1.2L3.2,5.9C2.4,6.7,2,7.7,2,8.8c0,1.1,0.4,2.1,1.2,2.8l5.5,5.5l6.3-6.4L9.5,5.3C8.7,4.5,7.7,4.1,6.7,4.1z"/><path d="M10.6,11c-0.3,0-0.5-0.1-0.7-0.3l-2-2c-0.4-0.4-1.1-0.4-1.6,0C6,9.1,5.4,9,5,8.6c-0.4-0.4-0.4-1,0-1.4c1.2-1.2,3.2-1.1,4.4,0.1l2,2c0.4,0.4,0.4,1,0,1.4C11.1,10.9,10.9,11,10.6,11z"/><circle cx="18.4" cy="22.9" r="1.5"/><circle cx="12.9" cy="25.6" r="1.2"/><circle cx="17.7" cy="28.6" r="1.2"/><circle cx="16" cy="18.1" r="1.2"/></svg>