<svg xmlns="http://www.w3.org/2000/svg" viewBox="0 0 32 32"><!--! Font Icona - https://fonticona.com | License - https://fonticona.com/license | Copyright 2022 FontIcona.com --><path d="M16.076,32.004c-1.272,0-2.554-0.154-3.821-0.465c-4.143-1.018-7.642-3.593-9.852-7.253c-4.555-7.544-2.141-17.399,5.38-21.969c3.641-2.212,7.922-2.871,12.057-1.856c4.144,1.017,7.642,3.593,9.852,7.252v0c4.555,7.544,2.142,17.4-5.379,21.969C21.788,31.217,18.955,32.004,16.076,32.004z M16.022,1.997c-2.517,0-4.993,0.688-7.2,2.03C2.24,8.025,0.13,16.65,4.116,23.253c1.933,3.201,4.992,5.454,8.615,6.344c3.617,0.886,7.359,0.31,10.542-1.623c6.581-3.999,8.692-12.624,4.705-19.227c-1.933-3.201-4.992-5.454-8.615-6.343C18.255,2.131,17.135,1.997,16.022,1.997z"/><path d="M16.266,17.124l-0.569-0.273c-0.083-0.039-8.296-3.91-14.186-0.412l-1.021-1.72c5.878-3.489,13.284-0.854,15.459,0.057c1.373-1.272,5.497-5.542,6.552-11.732l1.971,0.336c-1.394,8.189-7.457,13.143-7.715,13.35L16.266,17.124z"/><path d="M20.762,10.256c-0.099-0.054-10.061-5.392-16.813-1.397L2.931,7.138c7.735-4.577,18.343,1.119,18.79,1.363L20.762,10.256z"/><path d="M22.285,30.195c-6.722-4.436-7.219-13.755-7.236-14.15l1.998-0.092c0.004,0.087,0.478,8.704,6.34,12.572L22.285,30.195z"/><path d="M12.926,31.273c-7.321-8.17-5.85-17.165-5.783-17.543l1.971,0.343c-0.015,0.083-1.349,8.445,5.303,15.867L12.926,31.273z"/><path d="M18.252,24.422l-0.766-1.848c0.091-0.038,9.117-3.917,10.435-14.122l1.984,0.256C28.436,20.089,18.667,24.251,18.252,24.422z"/></svg>