<svg xmlns="http://www.w3.org/2000/svg" viewBox="0 0 32 32"><!--! Font Icona - https://fonticona.com | License - https://fonticona.com/license | Copyright 2022 FontIcona.com --><path d="M22.084,30.199c-0.735,0-1.455-0.292-2.021-0.848c-0.04-0.039-0.077-0.082-0.11-0.128l-5.099-7.048c-0.187-0.192-0.446-0.303-0.717-0.303H9.833c-1.658-0.068-2.924-1.477-2.924-3.207v-5.331c0-1.73,1.266-3.139,2.882-3.206l4.344-0.001c0.271,0,0.531-0.11,0.718-0.303l5.1-7.047c0.033-0.045,0.07-0.088,0.11-0.127c0.851-0.837,2.047-1.077,3.122-0.624c1.158,0.486,1.906,1.659,1.906,2.989l0.001,21.971c0,1.329-0.748,2.502-1.905,2.988C22.826,30.126,22.453,30.199,22.084,30.199z M21.516,27.972c0.359,0.313,0.712,0.234,0.896,0.158c0.328-0.139,0.68-0.512,0.68-1.145L23.091,5.015c0-0.633-0.352-1.006-0.68-1.145c-0.185-0.076-0.536-0.154-0.896,0.158l-5.078,7.017c-0.02,0.027-0.041,0.053-0.063,0.078c-0.568,0.638-1.384,1.004-2.24,1.004H9.833c-0.491,0.021-0.924,0.563-0.924,1.207v5.331c0,0.644,0.433,1.186,0.966,1.208l4.261-0.001c0.855,0,1.672,0.366,2.24,1.004c0.022,0.025,0.043,0.052,0.063,0.079L21.516,27.972z"/></svg>