<svg xmlns="http://www.w3.org/2000/svg" viewBox="0 0 32 32"><!--! Font Icona - https://fonticona.com | License - https://fonticona.com/license | Copyright 2022 FontIcona.com --><path d="M31,20.467c-0.256,0-0.513-0.098-0.708-0.294L23.37,13.24c-0.39-0.391-0.39-1.024,0.002-1.414c0.389-0.39,1.023-0.391,1.414,0.001l6.922,6.934c0.39,0.391,0.39,1.023-0.002,1.414C31.512,20.37,31.256,20.467,31,20.467z"/><path d="M24.078,20.467c-0.256,0-0.512-0.098-0.706-0.292c-0.392-0.391-0.392-1.023-0.002-1.414l6.922-6.934c0.391-0.392,1.025-0.392,1.414-0.001c0.392,0.39,0.392,1.023,0.002,1.414l-6.922,6.933C24.591,20.37,24.334,20.467,24.078,20.467z"/><path d="M15.174,30.199c-0.735,0-1.455-0.292-2.021-0.848c-0.04-0.039-0.077-0.082-0.11-0.128l-5.134-7.095c-0.125-0.134-0.397-0.255-0.683-0.255H2.924C1.266,21.805,0,20.397,0,18.667v-5.332c0-1.73,1.266-3.139,2.882-3.206l4.344-0.001c0.271,0,0.53-0.11,0.717-0.303l5.101-7.048c0.033-0.045,0.069-0.088,0.109-0.127c0.851-0.836,2.046-1.076,3.122-0.625c1.159,0.486,1.907,1.659,1.907,2.989v21.972c0,1.329-0.748,2.502-1.906,2.988C15.917,30.126,15.544,30.199,15.174,30.199z M14.606,27.972c0.357,0.312,0.713,0.234,0.896,0.158c0.329-0.139,0.68-0.512,0.68-1.145V5.014c0-0.633-0.352-1.006-0.68-1.144c-0.184-0.077-0.537-0.154-0.895,0.158l-5.079,7.018c-0.02,0.027-0.041,0.053-0.063,0.078c-0.568,0.638-1.384,1.004-2.24,1.004H2.924C2.433,12.15,2,12.692,2,13.335v5.332c0,0.644,0.433,1.186,0.966,1.208l4.26-0.001c0.857,0,1.673,0.366,2.24,1.005L14.606,27.972z"/></svg>