<svg xmlns="http://www.w3.org/2000/svg" viewBox="0 0 32 32"><!--! Font Icona - https://fonticona.com | License - https://fonticona.com/license | Copyright 2022 FontIcona.com --><path d="M28.733,25.35c-0.553,0-1-0.447-1-1V7.651c0-0.552,0.447-1,1-1s1,0.448,1,1V24.35C29.733,24.903,29.286,25.35,28.733,25.35z"/><path d="M24.2,20.501c-0.553,0-1-0.447-1-1v-7c0-0.552,0.447-1,1-1s1,0.448,1,1v7C25.2,20.053,24.753,20.501,24.2,20.501z"/><path d="M17.441,30.199c-0.735,0-1.455-0.291-2.022-0.848c-0.04-0.039-0.077-0.082-0.11-0.128l-5.134-7.095c-0.125-0.134-0.397-0.255-0.683-0.255H5.19c-1.658-0.068-2.924-1.477-2.924-3.207v-5.332c0-1.73,1.266-3.139,2.882-3.206l4.344-0.001c0.271,0,0.53-0.11,0.717-0.303l5.101-7.048c0.033-0.045,0.069-0.088,0.109-0.127c0.852-0.836,2.048-1.076,3.123-0.624c1.158,0.486,1.906,1.659,1.906,2.988v21.972c0,1.329-0.748,2.502-1.905,2.988C18.185,30.126,17.811,30.199,17.441,30.199z M16.873,27.972c0.357,0.313,0.712,0.234,0.897,0.158c0.328-0.139,0.68-0.512,0.68-1.145V5.014c0-0.633-0.352-1.006-0.68-1.144c-0.184-0.078-0.538-0.155-0.896,0.158l-5.079,7.018c-0.02,0.027-0.041,0.053-0.063,0.078c-0.568,0.638-1.384,1.004-2.24,1.004H5.19C4.7,12.15,4.267,12.692,4.267,13.335v5.332c0,0.644,0.433,1.186,0.966,1.208l4.26-0.001c0.857,0,1.673,0.366,2.24,1.005L16.873,27.972z"/></svg>