<svg xmlns="http://www.w3.org/2000/svg" viewBox="0 0 32 32"><!--! Font Icona - https://fonticona.com | License - https://fonticona.com/license | Copyright 2022 FontIcona.com --><path d="M26.467,20.502c-0.553,0-1-0.447-1-1v-7c0-0.552,0.447-1,1-1s1,0.448,1,1v7C27.467,20.054,27.02,20.502,26.467,20.502z"/><path d="M19.708,30.199c-0.735,0-1.455-0.292-2.021-0.848c-0.04-0.039-0.077-0.082-0.11-0.128l-5.1-7.047c-0.187-0.192-0.446-0.303-0.717-0.303H7.457c-1.658-0.068-2.924-1.477-2.924-3.207v-5.332c0-1.729,1.266-3.138,2.881-3.206l4.345-0.001c0.271,0,0.53-0.11,0.717-0.303l5.101-7.048c0.033-0.045,0.07-0.088,0.109-0.127c0.853-0.837,2.048-1.077,3.123-0.624c1.158,0.485,1.906,1.659,1.906,2.988v21.971c0,1.329-0.748,2.502-1.905,2.988C20.45,30.126,20.077,30.199,19.708,30.199z M19.14,27.972c0.358,0.313,0.712,0.234,0.896,0.158c0.328-0.139,0.68-0.512,0.68-1.145V5.015c0-0.633-0.352-1.006-0.68-1.144c-0.184-0.078-0.536-0.155-0.895,0.158l-5.08,7.017c-0.02,0.027-0.041,0.053-0.062,0.078c-0.568,0.638-1.384,1.004-2.24,1.004H7.457c-0.49,0.021-0.924,0.563-0.924,1.207v5.332c0,0.644,0.433,1.186,0.966,1.208l4.26-0.001c0.855,0,1.672,0.366,2.24,1.004c0.022,0.025,0.043,0.052,0.063,0.079L19.14,27.972z"/></svg>