<svg xmlns="http://www.w3.org/2000/svg" viewBox="0 0 32 32"><!--! Font Icona - https://fonticona.com | License - https://fonticona.com/license | Copyright 2022 FontIcona.com --><path d="M26.518,29.182H8.276c-0.553,0-1-0.447-1-1V17.54c0-0.553,0.447-1,1-1s1,0.447,1,1v9.642h16.241v-9.906H15.398c-0.553,0-1-0.447-1-1s0.447-1,1-1h11.119c0.553,0,1,0.447,1,1v11.906C27.518,28.734,27.07,29.182,26.518,29.182z"/><path d="M31,29.182H3.793c-0.361,0-0.694-0.194-0.871-0.51c-0.178-0.314-0.171-0.7,0.017-1.009l1.888-3.109c0.181-0.299,0.505-0.481,0.854-0.481h2.596c0.553,0,1,0.447,1,1s-0.447,1-1,1H6.243L5.57,27.182h23.652l-0.673-1.109h-2.032c-0.553,0-1-0.447-1-1s0.447-1,1-1h2.595c0.35,0,0.674,0.183,0.854,0.481l1.888,3.109c0.188,0.309,0.194,0.694,0.017,1.009C31.694,28.987,31.361,29.182,31,29.182z"/><path d="M18.036,26.921c-0.244,0-0.481-0.09-0.665-0.254l-1.689-1.506c-0.413-0.367-0.449-0.999-0.081-1.411c0.367-0.413,0.999-0.448,1.411-0.081l0.899,0.801l2.27-2.862c0.344-0.433,0.972-0.507,1.404-0.162c0.433,0.343,0.506,0.972,0.162,1.404l-2.928,3.692c-0.171,0.216-0.423,0.352-0.697,0.375C18.094,26.92,18.064,26.921,18.036,26.921z"/><path d="M3.086,12.849c-0.255,0-0.51-0.097-0.704-0.29l-1.477-1.466C0.312,10.504-0.01,9.719,0,8.883c0.011-0.837,0.352-1.614,0.961-2.189l3.229-3.041c0.68-0.641,1.602-0.936,2.525-0.804c0.926,0.13,1.73,0.666,2.207,1.471l0.901,1.525c0.239,0.403,0.165,0.919-0.178,1.239l-5.877,5.495C3.576,12.759,3.331,12.849,3.086,12.849z M6.286,4.818c-0.268,0-0.526,0.102-0.725,0.289L2.333,8.148C2.122,8.348,2.004,8.617,2,8.907c-0.003,0.29,0.108,0.562,0.313,0.766l0.793,0.787l4.587-4.288L7.201,5.338C7.036,5.06,6.757,4.874,6.437,4.829C6.386,4.822,6.336,4.818,6.286,4.818z"/><path d="M16.528,22.053c-0.956,0-1.92-0.232-2.555-0.464c-1.296-0.473-2.562-1.108-3.785-1.723c-2.979-1.497-6.528-4.371-7.695-8.021c-0.169-0.526,0.121-1.089,0.647-1.257c0.528-0.168,1.089,0.122,1.257,0.647c0.979,3.062,4.19,5.588,6.643,6.819c1.219,0.612,2.432,1.221,3.619,1.654c1.102,0.402,2.454,0.465,2.836,0.132c0.148-0.131,0.239-0.256,0.231-0.32c-0.032-0.253-0.571-0.875-1.922-1.551c-0.219-0.098-0.358-0.157-0.453-0.197c-0.241-0.103-0.242-0.101-0.823-0.426c-0.783-0.44-1.248-1.091-1.25-1.744c-0.002-0.453,0.223-0.851,0.599-1.065c0.399-0.229,0.886-0.206,1.327,0.06c1.149,0.689,1.819,0.687,3.157,0.679l5.086-0.001c-0.458-1.195-1.347-2.56-1.745-3.105c-0.593-0.861-1.501-1.492-2.96-2.067c-1.122-0.443-2.574-0.553-4.111-0.669C12.208,9.25,9.702,9.061,7.88,7.53C7.457,7.175,7.402,6.544,7.758,6.121c0.354-0.422,0.986-0.477,1.409-0.122c1.328,1.116,3.508,1.28,5.615,1.44c1.617,0.122,3.29,0.249,4.694,0.802c1.149,0.454,2.8,1.235,3.858,2.773c0.212,0.289,2.215,3.089,2.386,5.18c0.022,0.278-0.072,0.554-0.262,0.759s-0.456,0.322-0.735,0.322l-6.292,0.001c0.765,0.631,1.19,1.296,1.278,1.993c0.068,0.53-0.033,1.322-0.9,2.079C18.21,21.872,17.372,22.053,16.528,22.053z"/></svg>