<svg xmlns="http://www.w3.org/2000/svg" viewBox="0 0 32 32"><!--! Font Icona - https://fonticona.com | License - https://fonticona.com/license | Copyright 2022 FontIcona.com --><path d="M22.571,5.405c-0.313,0-0.623-0.147-0.817-0.423C20.434,3.115,18.282,2,16,2c-2.283,0-4.434,1.114-5.752,2.98C9.931,5.431,9.307,5.539,8.854,5.22C8.403,4.901,8.296,4.277,8.615,3.826C10.308,1.431,13.068,0,16,0c2.931,0,5.692,1.431,7.387,3.828c0.319,0.451,0.212,1.075-0.239,1.394C22.973,5.346,22.771,5.405,22.571,5.405z"/><path d="M16,18.08c-3.678,0-6.96-2.197-8.361-5.598c-0.21-0.511,0.033-1.095,0.544-1.306c0.508-0.207,1.096,0.034,1.306,0.544c1.091,2.648,3.647,4.359,6.512,4.359c2.836,0,5.382-1.688,6.487-4.301c0.215-0.509,0.802-0.746,1.311-0.531s0.746,0.802,0.531,1.311C22.91,15.913,19.641,18.08,16,18.08z"/><path d="M27.746,32H4.254c-0.887,0-1.724-0.389-2.297-1.067c-0.572-0.678-0.815-1.565-0.668-2.438C2.505,21.302,8.692,16.08,16,16.08s13.495,5.222,14.711,12.415c0.147,0.872-0.096,1.76-0.668,2.438C29.47,31.611,28.633,32,27.746,32z M16,18.08c-6.328,0-11.686,4.521-12.738,10.749c-0.067,0.397,0.11,0.68,0.223,0.812C3.677,29.869,3.957,30,4.254,30h23.492c0.297,0,0.577-0.131,0.77-0.358c0.112-0.133,0.29-0.415,0.223-0.812C27.686,22.601,22.328,18.08,16,18.08z"/><path d="M16,21.994c-2.434,0-4.866-0.834-6.989-2.503c-0.434-0.341-0.51-0.97-0.168-1.404c0.341-0.434,0.968-0.512,1.404-0.168c3.494,2.748,8.012,2.748,11.506,0c0.437-0.344,1.063-0.266,1.404,0.168c0.342,0.435,0.266,1.063-0.168,1.404C20.866,21.16,18.434,21.994,16,21.994z"/><path d="M23.563,13.097H8.437c-2.286,0-4.146-1.86-4.146-4.147V7.551c0-2.287,1.86-4.147,4.146-4.147h15.127c2.286,0,4.146,1.86,4.146,4.147v1.398C27.71,11.236,25.85,13.097,23.563,13.097z M8.437,5.403c-1.184,0-2.146,0.963-2.146,2.147v1.398c0,1.185,0.963,2.147,2.146,2.147h15.127c1.184,0,2.146-0.963,2.146-2.147V7.551c0-1.185-0.963-2.147-2.146-2.147H8.437z"/><path d="M22.897,8.75H9.074c-0.553,0-1-0.447-1-1s0.447-1,1-1h13.823c0.553,0,1,0.447,1,1S23.45,8.75,22.897,8.75z"/></svg>