<svg xmlns="http://www.w3.org/2000/svg" viewBox="0 0 32 32"><!--! Font Icona - https://fonticona.com | License - https://fonticona.com/license | Copyright 2022 FontIcona.com --><path d="M16,29.909c-0.356,0-0.686-0.189-0.864-0.498l-15-25.818c-0.18-0.309-0.181-0.69-0.003-1.001C0.312,2.282,0.643,2.091,1,2.091h6.115c0.354,0,0.684,0.188,0.862,0.494L16,16.27l8.022-13.685c0.179-0.306,0.508-0.494,0.862-0.494H31c0.357,0,0.688,0.191,0.867,0.501c0.178,0.311,0.177,0.692-0.003,1.001l-15,25.818C16.686,29.72,16.356,29.909,16,29.909z M2.737,4.091L16,26.919L29.263,4.091h-3.805l-8.596,14.662c-0.357,0.611-1.367,0.611-1.725,0L6.542,4.091H2.737z"/><path d="M16,9.458c-0.373,0-0.715-0.207-0.887-0.538l-2.513-4.829H7.115c-0.553,0-1-0.447-1-1s0.447-1,1-1h6.093c0.373,0,0.715,0.208,0.887,0.538l1.87,3.596l1.717-3.567c0.167-0.347,0.518-0.566,0.901-0.566h6.302c0.553,0,1,0.447,1,1s-0.447,1-1,1h-5.673l-2.311,4.801c-0.164,0.341-0.507,0.561-0.886,0.566C16.011,9.458,16.005,9.458,16,9.458z"/></svg>