<svg xmlns="http://www.w3.org/2000/svg" viewBox="0 0 32 32"><!--! Font Icona - https://fonticona.com | License - https://fonticona.com/license | Copyright 2022 FontIcona.com --><path d="M23.5,32c-0.459,0-0.859-0.312-0.97-0.757L16,5.123l-6.53,26.12C9.359,31.688,8.959,32,8.5,32s-0.859-0.312-0.97-0.757l-7.5-30C-0.104,0.707,0.222,0.164,0.757,0.03C1.293-0.103,1.836,0.222,1.97,0.757l6.53,26.12l6.53-26.12C15.141,0.312,15.541,0,16,0s0.859,0.312,0.97,0.757l6.53,26.12l6.53-26.12c0.134-0.536,0.68-0.86,1.213-0.728c0.536,0.134,0.861,0.677,0.728,1.213l-7.5,30C24.359,31.688,23.959,32,23.5,32z"/></svg>