<svg xmlns="http://www.w3.org/2000/svg" viewBox="0 0 32 32"><!--! Font Icona - https://fonticona.com | License - https://fonticona.com/license | Copyright 2022 FontIcona.com --><path d="M21.25,24c-0.417,0-0.79-0.259-0.937-0.648L16,11.848l-4.313,11.504C11.54,23.741,11.167,24,10.75,24s-0.79-0.259-0.937-0.648l-5.25-14C4.37,8.834,4.632,8.258,5.149,8.063c0.519-0.192,1.093,0.068,1.288,0.585l4.313,11.504l4.313-11.504C15.21,8.259,15.583,8,16,8s0.79,0.259,0.937,0.648l4.313,11.504l4.313-11.504c0.194-0.517,0.771-0.777,1.288-0.585c0.517,0.194,0.779,0.771,0.585,1.288l-5.25,14C22.04,23.741,21.667,24,21.25,24z"/></svg>