<svg xmlns="http://www.w3.org/2000/svg" viewBox="0 0 32 32"><!--! Font Icona - https://fonticona.com | License - https://fonticona.com/license | Copyright 2022 FontIcona.com --><path d="M26.311,29.652H3c-1.654,0-3-1.346-3-3V9.39c0-1.654,1.346-3,3-3h23.311c1.654,0,3,1.346,3,3v4.874h-2V9.39c0-0.552-0.448-1-1-1H3c-0.552,0-1,0.448-1,1v17.262c0,0.552,0.448,1,1,1h23.311c0.552,0,1-0.448,1-1V21.78h2v4.872C29.311,28.306,27.965,29.652,26.311,29.652z"/><path d="M28.311,22.779h-6.873c-2.623,0-4.758-2.135-4.758-4.758s2.135-4.758,4.758-4.758h6.873v2h-6.873c-1.521,0-2.758,1.237-2.758,2.758s1.237,2.758,2.758,2.758h6.873V22.779z"/><circle cx="22.458" cy="17.901" r="1.25"/><path d="M31,22.779h-3.053c-0.553,0-1-0.447-1-1s0.447-1,1-1H30v-5.516h-2.053c-0.553,0-1-0.447-1-1s0.447-1,1-1H31c0.553,0,1,0.447,1,1v7.516C32,22.331,31.553,22.779,31,22.779z"/><path d="M1,11.512c-0.553,0-1-0.447-1-1V5.528c0-1.753,1.427-3.18,3.18-3.18l23.131-0.001c0.552,0,1,0.447,1,1c0,0.552-0.447,1-1,1L3.18,4.348C2.529,4.348,2,4.877,2,5.528v4.984C2,11.065,1.553,11.512,1,11.512z"/></svg>