<svg xmlns="http://www.w3.org/2000/svg" viewBox="0 0 32 32"><!--! Font Icona - https://fonticona.com | License - https://fonticona.com/license | Copyright 2022 FontIcona.com --><path d="M16,29.072c-4.288,0-7.777-3.489-7.777-7.777s3.489-7.777,7.777-7.777s7.777,3.489,7.777,7.777S20.288,29.072,16,29.072z M16,15.518c-3.186,0-5.777,2.592-5.777,5.777s2.591,5.777,5.777,5.777s5.777-2.592,5.777-5.777S19.186,15.518,16,15.518z"/><path d="M16,32c-5.903,0-10.705-4.803-10.705-10.705S10.097,10.59,16,10.59s10.705,4.803,10.705,10.705S21.903,32,16,32z M16,12.59c-4.8,0-8.705,3.905-8.705,8.705S11.2,30,16,30s8.705-3.905,8.705-8.705S20.8,12.59,16,12.59z"/><path d="M21.592,14.334c-0.341,0-0.673-0.174-0.86-0.488c-0.802-1.346-1.51-2.794-2.194-4.194c-0.667-1.364-1.357-2.776-2.117-4.052c-0.283-0.475-0.127-1.088,0.347-1.371c0.473-0.283,1.088-0.128,1.371,0.348c0.803,1.347,1.511,2.796,2.196,4.197c0.667,1.363,1.356,2.773,2.115,4.049c0.283,0.475,0.127,1.088-0.347,1.371C21.943,14.289,21.766,14.334,21.592,14.334z"/><path d="M10.408,14.334c-0.174,0-0.351-0.045-0.511-0.141c-0.475-0.283-0.63-0.896-0.347-1.371c0.759-1.275,1.449-2.686,2.115-4.049c0.685-1.401,1.393-2.851,2.196-4.197c0.283-0.476,0.897-0.631,1.371-0.348c0.475,0.283,0.63,0.896,0.347,1.371c-0.76,1.275-1.45,2.688-2.117,4.052c-0.685,1.4-1.392,2.849-2.194,4.194C11.081,14.16,10.749,14.334,10.408,14.334z"/><path d="M16,6.489c-1.789,0-3.245-1.455-3.245-3.244S14.211,0,16,0s3.245,1.456,3.245,3.245S17.789,6.489,16,6.489z M16,2c-0.687,0-1.245,0.559-1.245,1.245c0,0.686,0.558,1.244,1.245,1.244s1.245-0.559,1.245-1.244C17.245,2.559,16.687,2,16,2z"/></svg>