<svg xmlns="http://www.w3.org/2000/svg" viewBox="0 0 32 32"><!--! Font Icona - https://fonticona.com | License - https://fonticona.com/license | Copyright 2022 FontIcona.com --><path d="M13.587,31.595H9.542c-1.103,0-2-0.897-2-2v-2.396c0-1.103,0.897-2,2-2h4.045c1.103,0,2,0.897,2,2v2.396C15.587,30.697,14.69,31.595,13.587,31.595z M9.542,27.198v2.396h4.045v-2.396H9.542z"/><path d="M20.019,31.585c-0.512,0-1.024-0.195-1.414-0.585l-1.694-1.694c-0.78-0.779-0.78-2.049,0-2.828l2.86-2.86c0.753-0.754,2.076-0.754,2.829,0l1.694,1.694c0.377,0.377,0.584,0.879,0.584,1.414s-0.208,1.037-0.584,1.414L21.433,31C21.043,31.39,20.531,31.585,20.019,31.585z M21.185,25.031l-2.861,2.86l1.694,1.694l2.861-2.86L21.185,25.031z"/><path d="M13.587,24.202H9.542c-1.103,0-2-0.897-2-2v-2.396c0-1.103,0.897-2,2-2h4.045c1.103,0,2,0.897,2,2v2.396C15.587,23.305,14.69,24.202,13.587,24.202z M9.542,19.807v2.396h4.045v-2.396H9.542z"/><path d="M30.797,31.595c-0.003,0-0.006,0-0.009,0l-4.333-0.037c-0.549-0.005-0.991-0.451-0.991-1V16.682c0-0.537-0.437-0.973-0.973-0.973H7.508c-0.536,0-0.973,0.437-0.973,0.973v13.913c0,0.553-0.448,1-1,1H1.203c-0.552,0-1-0.447-1-1V13.076c0-0.929,0.443-1.817,1.186-2.375l13.957-10.5C15.519,0.07,15.729,0,15.946,0h0.107c0.217,0,0.428,0.07,0.601,0.201L30.611,10.7c0.743,0.559,1.186,1.447,1.186,2.376v17.519c0,0.267-0.106,0.522-0.296,0.71C31.314,31.49,31.061,31.595,30.797,31.595z M2.203,29.595h2.333V16.682c0-1.639,1.333-2.973,2.973-2.973h16.983c1.639,0,2.973,1.334,2.973,2.973v12.884l2.333,0.02v-16.51c0-0.304-0.145-0.595-0.389-0.778L16,2.211L2.591,12.298c-0.243,0.183-0.388,0.474-0.388,0.777V29.595z"/></svg>