<svg xmlns="http://www.w3.org/2000/svg" viewBox="0 0 32 32"><!--! Font Icona - https://fonticona.com | License - https://fonticona.com/license | Copyright 2022 FontIcona.com --><path d="M25.257,32H6.743c-1.654,0-3-1.346-3-3V3c0-1.654,1.346-3,3-3h18.514c1.654,0,3,1.346,3,3v26C28.257,30.654,26.911,32,25.257,32z M6.743,2c-0.552,0-1,0.449-1,1v26c0,0.552,0.448,1,1,1h18.514c0.552,0,1-0.448,1-1V3c0-0.551-0.448-1-1-1H6.743z"/><rect x="4.957" y="6.994" width="22.3" height="2"/><rect x="10.855" y="1" width="2" height="6.994"/><path d="M16,27.272c-4.562,0-8.272-3.711-8.272-8.272s3.711-8.273,8.272-8.273s8.272,3.711,8.272,8.273S20.562,27.272,16,27.272z M16,12.727c-3.459,0-6.272,2.814-6.272,6.273s2.813,6.272,6.272,6.272s6.272-2.813,6.272-6.272S19.459,12.727,16,12.727z"/><path d="M24.083,5.497h-1c-0.553,0-1-0.448-1-1s0.447-1,1-1h1c0.553,0,1,0.448,1,1S24.636,5.497,24.083,5.497z M20.083,5.497h-1c-0.553,0-1-0.448-1-1s0.447-1,1-1h1c0.553,0,1,0.448,1,1S20.636,5.497,20.083,5.497z M16.083,5.497h-1c-0.553,0-1-0.448-1-1s0.447-1,1-1h1c0.553,0,1,0.448,1,1S16.636,5.497,16.083,5.497z"/><path d="M24.219,22.604c-0.553,0-1-0.447-1-1v-5.208c0-0.552,0.447-1,1-1s1,0.448,1,1v5.208C25.219,22.157,24.771,22.604,24.219,22.604z"/></svg>