<svg xmlns="http://www.w3.org/2000/svg" viewBox="0 0 32 32"><!--! Font Icona - https://fonticona.com | License - https://fonticona.com/license | Copyright 2022 FontIcona.com --><path d="M16,26.166c-5.608,0-10.17-4.562-10.17-10.171c0-5.607,4.562-10.17,10.17-10.17s10.17,4.562,10.17,10.17C26.17,21.604,21.608,26.166,16,26.166z M16,7.826c-4.505,0-8.17,3.665-8.17,8.17c0,4.506,3.665,8.171,8.17,8.171s8.17-3.665,8.17-8.171C24.17,11.491,20.505,7.826,16,7.826z"/><path d="M25.146,13.022h-0.879c-0.552,0-1-0.447-1-1s0.448-1,1-1h0.879c0.552,0,1,0.447,1,1S25.698,13.022,25.146,13.022z"/><path d="M25.146,21.738h-0.879c-0.552,0-1-0.447-1-1s0.448-1,1-1h0.879c0.552,0,1,0.447,1,1S25.698,21.738,25.146,21.738z"/><path d="M16.045,22.898c-0.235,0-0.47-0.083-0.659-0.248l-3.704-3.243c-2.899-2.686-2.728-4.854-2.078-6.202c0.628-1.303,1.905-2.195,3.415-2.386c1.1-0.139,2.175,0.126,3.026,0.723c0.851-0.597,1.923-0.861,3.026-0.723c1.509,0.19,2.786,1.083,3.415,2.386c0.65,1.349,0.821,3.517-2.057,6.184l-3.725,3.262C16.515,22.815,16.28,22.898,16.045,22.898z M13.603,12.782c-0.109,0-0.221,0.007-0.333,0.021c-0.834,0.105-1.531,0.58-1.864,1.271c-0.648,1.343,0.521,2.834,1.614,3.848l3.024,2.647l3.045-2.666c1.073-0.995,2.242-2.486,1.594-3.829c-0.333-0.69-1.029-1.165-1.864-1.271c-0.8-0.103-1.535,0.163-2.01,0.727c-0.381,0.451-1.148,0.451-1.529,0C14.872,13.045,14.273,12.782,13.603,12.782z"/><path d="M20.721,9.296c-1.093-1.568-1.13-5.84-1.109-7.296h-7.224c0.021,1.455-0.016,5.727-1.109,7.296L9.638,8.154c0.605-0.869,0.799-4.282,0.744-6.428c-0.012-0.454,0.157-0.883,0.475-1.209C11.177,0.189,11.626,0,12.09,0h7.82c0.463,0,0.913,0.188,1.233,0.517c0.317,0.326,0.486,0.755,0.475,1.208c-0.055,2.146,0.139,5.56,0.744,6.429L20.721,9.296z"/><path d="M19.91,32h-7.82c-0.463,0-0.912-0.188-1.232-0.517c-0.318-0.326-0.487-0.756-0.475-1.209c0.055-2.146-0.139-5.559-0.745-6.429l1.642-1.143c1.093,1.57,1.13,5.842,1.109,7.297h7.224c-0.021-1.454,0.016-5.727,1.109-7.297l1.642,1.143c-0.605,0.87-0.8,4.282-0.745,6.428c0.012,0.454-0.157,0.884-0.475,1.21C20.822,31.812,20.373,32,19.91,32z"/></svg>