<svg xmlns="http://www.w3.org/2000/svg" viewBox="0 0 32 32"><!--! Font Icona - https://fonticona.com | License - https://fonticona.com/license | Copyright 2022 FontIcona.com --><path d="M27.245,24.5c-1.372,0-2.085-0.76-2.606-1.315C24.193,22.71,23.976,22.5,23.49,22.5c-0.483,0-0.701,0.209-1.145,0.684c-0.521,0.555-1.233,1.316-2.604,1.316s-2.083-0.761-2.604-1.316c-0.444-0.474-0.661-0.684-1.145-0.684s-0.7,0.209-1.145,0.684c-0.52,0.556-1.233,1.316-2.603,1.316c-1.371,0-2.083-0.761-2.604-1.316C9.197,22.709,8.98,22.5,8.497,22.5s-0.701,0.209-1.145,0.684C6.832,23.739,6.119,24.5,4.749,24.5c-1.371,0-2.083-0.761-2.604-1.316C1.7,22.709,1.483,22.5,1,22.5c-0.552,0-1-0.448-1-1s0.448-1,1-1c1.37,0,2.083,0.761,2.604,1.316C4.048,22.291,4.265,22.5,4.749,22.5s0.7-0.209,1.145-0.684C6.414,21.261,7.126,20.5,8.497,20.5c1.37,0,2.083,0.761,2.604,1.316c0.444,0.475,0.662,0.684,1.145,0.684c0.483,0,0.7-0.209,1.144-0.684c0.521-0.556,1.233-1.316,2.604-1.316s2.083,0.761,2.604,1.316c0.444,0.474,0.661,0.684,1.145,0.684s0.7-0.209,1.145-0.684c0.521-0.555,1.233-1.316,2.604-1.316c1.372,0,2.085,0.76,2.606,1.315c0.446,0.475,0.663,0.685,1.148,0.685s0.703-0.21,1.148-0.685C28.915,21.26,29.628,20.5,31,20.5c0.552,0,1,0.448,1,1s-0.448,1-1,1c-0.485,0-0.703,0.21-1.148,0.685C29.331,23.74,28.617,24.5,27.245,24.5z"/><path d="M27.245,18c-1.372,0-2.085-0.76-2.606-1.315C24.193,16.21,23.976,16,23.49,16c-0.483,0-0.701,0.209-1.145,0.684C21.825,17.239,21.112,18,19.741,18s-2.083-0.761-2.604-1.316C16.693,16.209,16.477,16,15.993,16s-0.7,0.209-1.145,0.684C14.329,17.239,13.616,18,12.246,18c-1.371,0-2.083-0.761-2.604-1.316C9.197,16.209,8.98,16,8.497,16s-0.701,0.209-1.145,0.684C6.832,17.239,6.119,18,4.749,18c-1.371,0-2.083-0.761-2.604-1.316C1.7,16.209,1.483,16,1,16c-0.552,0-1-0.448-1-1s0.448-1,1-1c1.37,0,2.083,0.761,2.604,1.316C4.048,15.791,4.265,16,4.749,16s0.7-0.209,1.145-0.684C6.414,14.761,7.126,14,8.497,14c1.37,0,2.083,0.761,2.604,1.316C11.545,15.791,11.762,16,12.246,16c0.483,0,0.7-0.209,1.144-0.684C13.91,14.761,14.623,14,15.993,14s2.083,0.761,2.604,1.316C19.041,15.791,19.258,16,19.741,16s0.7-0.209,1.145-0.684C21.407,14.761,22.12,14,23.49,14c1.372,0,2.085,0.76,2.606,1.315C26.542,15.79,26.76,16,27.245,16s0.703-0.21,1.148-0.685C28.915,14.76,29.628,14,31,14c0.552,0,1,0.448,1,1s-0.448,1-1,1c-0.485,0-0.703,0.21-1.148,0.685C29.331,17.24,28.617,18,27.245,18z"/><path d="M27.245,11.5c-1.372,0-2.085-0.76-2.606-1.315C24.193,9.71,23.976,9.5,23.49,9.5c-0.483,0-0.701,0.209-1.145,0.684c-0.521,0.555-1.233,1.316-2.604,1.316s-2.083-0.761-2.604-1.316C16.693,9.709,16.477,9.5,15.993,9.5s-0.7,0.209-1.145,0.684c-0.52,0.556-1.233,1.316-2.603,1.316c-1.371,0-2.083-0.761-2.604-1.316C9.197,9.709,8.98,9.5,8.497,9.5s-0.701,0.209-1.145,0.684C6.832,10.739,6.119,11.5,4.749,11.5c-1.371,0-2.083-0.761-2.604-1.316C1.7,9.709,1.483,9.5,1,9.5c-0.552,0-1-0.448-1-1s0.448-1,1-1c1.37,0,2.083,0.761,2.604,1.316C4.048,9.291,4.265,9.5,4.749,9.5s0.7-0.209,1.145-0.684C6.414,8.261,7.126,7.5,8.497,7.5c1.37,0,2.083,0.761,2.604,1.316C11.545,9.291,11.762,9.5,12.246,9.5c0.483,0,0.7-0.209,1.144-0.684C13.91,8.261,14.623,7.5,15.993,7.5s2.083,0.761,2.604,1.316C19.041,9.291,19.258,9.5,19.741,9.5s0.7-0.209,1.145-0.684C21.407,8.261,22.12,7.5,23.49,7.5c1.372,0,2.085,0.76,2.606,1.315C26.542,9.29,26.76,9.5,27.245,9.5s0.703-0.21,1.148-0.685C28.915,8.26,29.628,7.5,31,7.5c0.552,0,1,0.448,1,1s-0.448,1-1,1c-0.485,0-0.703,0.21-1.148,0.685C29.331,10.74,28.617,11.5,27.245,11.5z"/></svg>