<svg xmlns="http://www.w3.org/2000/svg" viewBox="0 0 32 32"><!--! Font Icona - https://fonticona.com | License - https://fonticona.com/license | Copyright 2022 FontIcona.com --><path d="M19.28,32H12.72c-1.654,0-3-1.346-3-3v-9.447h2V29c0,0.552,0.448,1,1,1h6.561c0.552,0,1-0.448,1-1v-9.41h2V29C22.28,30.655,20.935,32,19.28,32z"/><path d="M21.28,22.805c-0.553,0-1-0.447-1-1v-4.492c0-0.142-0.029-0.279-0.087-0.408l-0.338-0.754c-0.59-1.314-0.583-2.82,0.02-4.129l0.313-0.686c0.061-0.134,0.092-0.273,0.092-0.418V8.37c0-0.552-0.448-1-1-1H12.72c-0.552,0-1,0.448-1,1v2.548c0,0.145,0.031,0.286,0.092,0.42l0.314,0.685c0.601,1.311,0.607,2.815,0.018,4.128l-0.336,0.753c-0.059,0.13-0.088,0.268-0.088,0.409v4.456c0,0.553-0.447,1-1,1s-1-0.447-1-1v-4.456c0-0.426,0.088-0.839,0.263-1.227l0.336-0.753c0.354-0.788,0.35-1.69-0.011-2.477l-0.315-0.688c-0.181-0.398-0.272-0.818-0.272-1.251V8.37c0-1.654,1.346-3,3-3h6.561c1.654,0,3,1.346,3,3v2.548c0,0.435-0.092,0.855-0.273,1.251l-0.314,0.687c-0.361,0.786-0.365,1.688-0.012,2.478l0.338,0.754c0.174,0.387,0.262,0.8,0.262,1.226v4.492C22.28,22.358,21.833,22.805,21.28,22.805z"/><path d="M19.489,7.37h-6.942c-1.217,0-2.206-0.995-2.206-2.219V4.635c0-1.224,0.989-2.219,2.206-2.219h6.942c1.217,0,2.206,0.995,2.206,2.219v0.517C21.695,6.375,20.706,7.37,19.489,7.37z M12.547,4.416c-0.111,0-0.206,0.101-0.206,0.219v0.517c0,0.116,0.097,0.219,0.206,0.219h6.942c0.111,0,0.206-0.101,0.206-0.219V4.635c0-0.118-0.095-0.219-0.206-0.219H12.547z"/><rect x="13.862" y="2.53" width="2" height="0.96"/><rect x="16.131" y="2.53" width="2" height="0.96"/><path d="M17.353,2h-2.668c-0.553,0-1-0.447-1-1s0.447-1,1-1h2.668c0.553,0,1,0.447,1,1S17.905,2,17.353,2z"/></svg>