<svg xmlns="http://www.w3.org/2000/svg" viewBox="0 0 32 32"><!--! Font Icona - https://fonticona.com | License - https://fonticona.com/license | Copyright 2022 FontIcona.com --><path d="M18.145,32c-0.552,0-1-0.448-1-1V1c0-0.552,0.448-1,1-1s1,0.448,1,1v30C19.145,31.552,18.697,32,18.145,32z"/><path d="M13.855,29.011c-0.552,0-1-0.448-1-1V3.989c0-0.552,0.448-1,1-1s1,0.448,1,1v24.022C14.855,28.563,14.408,29.011,13.855,29.011z"/><path d="M9.567,23.322c-0.552,0-1-0.448-1-1V11.011c0-0.552,0.448-1,1-1s1,0.448,1,1v11.311C10.567,22.875,10.119,23.322,9.567,23.322z"/><path d="M5.289,20.133c-0.552,0-1-0.448-1-1V14.2c0-0.552,0.448-1,1-1s1,0.448,1,1v4.933C6.289,19.686,5.841,20.133,5.289,20.133z"/><path d="M1,18.411c-0.552,0-1-0.448-1-1v-1.489c0-0.552,0.448-1,1-1s1,0.448,1,1v1.489C2,17.963,1.552,18.411,1,18.411z"/><path d="M22.433,25.156c-0.552,0-1-0.448-1-1V9.178c0-0.552,0.448-1,1-1s1,0.448,1,1v14.978C23.433,24.708,22.985,25.156,22.433,25.156z"/><path d="M26.711,20.133c-0.552,0-1-0.448-1-1V14.2c0-0.552,0.448-1,1-1s1,0.448,1,1v4.933C27.711,19.686,27.263,20.133,26.711,20.133z"/><path d="M31,18.489c-0.552,0-1-0.448-1-1v-1.645c0-0.552,0.448-1,1-1s1,0.448,1,1v1.645C32,18.041,31.552,18.489,31,18.489z"/></svg>