<svg xmlns="http://www.w3.org/2000/svg" viewBox="0 0 32 32"><!--! Font Icona - https://fonticona.com | License - https://fonticona.com/license | Copyright 2022 FontIcona.com --><path d="M28,21.267H4c-0.552,0-1-0.448-1-1s0.448-1,1-1h24c0.552,0,1,0.448,1,1S28.552,21.267,28,21.267z"/><path d="M28,26.633H4c-0.552,0-1-0.448-1-1s0.448-1,1-1h24c0.552,0,1,0.448,1,1S28.552,26.633,28,26.633z"/><path d="M28,32H4c-0.552,0-1-0.448-1-1s0.448-1,1-1h24c0.552,0,1,0.448,1,1S28.552,32,28,32z"/><path d="M11.533,13.2c-0.552,0-1-0.448-1-1V3.889c0-0.552,0.448-1,1-1s1,0.448,1,1V12.2C12.533,12.752,12.085,13.2,11.533,13.2z"/><path d="M20.467,13.2c-0.552,0-1-0.448-1-1V3.889c0-0.552,0.448-1,1-1s1,0.448,1,1V12.2C21.467,12.752,21.019,13.2,20.467,13.2z"/><path d="M24.922,11.389c-0.552,0-1-0.448-1-1V5.844c0-0.552,0.448-1,1-1s1,0.448,1,1v4.544C25.922,10.941,25.475,11.389,24.922,11.389z"/><path d="M7.078,11.389c-0.552,0-1-0.448-1-1V5.844c0-0.552,0.448-1,1-1s1,0.448,1,1v4.544C8.078,10.941,7.63,11.389,7.078,11.389z"/><path d="M16,16.089c-0.552,0-1-0.448-1-1V1c0-0.552,0.448-1,1-1s1,0.448,1,1v14.089C17,15.641,16.552,16.089,16,16.089z"/></svg>