<svg xmlns="http://www.w3.org/2000/svg" viewBox="0 0 32 32"><!--! Font Icona - https://fonticona.com | License - https://fonticona.com/license | Copyright 2022 FontIcona.com --><path d="M15.788,28.184c-0.524,0-1.038-0.014-1.537-0.039c-0.551-0.029-0.975-0.5-0.946-1.051c0.028-0.552,0.504-0.977,1.051-0.947c1.075,0.057,2.218,0.048,3.402-0.025c6.91-0.433,12.121-5.617,12.121-12.062C29.878,7.41,24.468,2,17.819,2c-6.63,0-12.028,5.379-12.06,12.002c0.055,0.5,0.272,3.219-1.241,4.949C3.995,19.55,3.341,19.96,2.564,20.18c0.645,1.169,2.059,3.045,4.931,4.394c0.5,0.235,0.715,0.83,0.48,1.33c-0.235,0.501-0.831,0.713-1.331,0.48c-5.252-2.467-6.438-6.578-6.486-6.752c-0.083-0.301-0.021-0.623,0.168-0.871c0.189-0.249,0.483-0.395,0.795-0.395c0.84,0,1.457-0.238,1.887-0.728c0.862-0.98,0.84-2.821,0.759-3.448c-0.006-0.042-0.009-0.088-0.009-0.131C3.759,6.307,10.066,0,17.819,0s14.059,6.307,14.059,14.06c0,7.515-6.017,13.559-13.997,14.058C17.169,28.161,16.469,28.184,15.788,28.184z"/><path d="M19.369,20.638c-2.942,0-5.564-1.869-6.525-4.65c-0.18-0.521,0.097-1.091,0.619-1.271c0.522-0.18,1.091,0.097,1.272,0.619c0.683,1.976,2.545,3.303,4.635,3.303s3.952-1.327,4.635-3.303c0.181-0.522,0.749-0.799,1.272-0.619c0.522,0.181,0.799,0.75,0.619,1.271C24.934,18.769,22.311,20.638,19.369,20.638z"/><circle cx="14.807" cy="10.869" r="1.5"/><circle cx="23.752" cy="10.869" r="1.5"/><path d="M10.484,32c-2.656,0-4.816-2.16-4.816-4.816s2.161-4.816,4.816-4.816s4.816,2.16,4.816,4.816S13.14,32,10.484,32z M10.484,24.367c-1.553,0-2.816,1.264-2.816,2.816S8.931,30,10.484,30s2.816-1.264,2.816-2.816S12.037,24.367,10.484,24.367z"/><path d="M21.676,32c-2.656,0-4.817-2.16-4.817-4.816c0-0.553,0.448-1,1-1s1,0.447,1,1c0,1.553,1.264,2.816,2.817,2.816c1.553,0,2.816-1.264,2.816-2.816c0-0.605-0.188-1.182-0.545-1.666c-0.328-0.444-0.232-1.07,0.212-1.398c0.444-0.326,1.071-0.232,1.398,0.213c0.612,0.83,0.935,1.816,0.935,2.852C26.493,29.84,24.332,32,21.676,32z"/></svg>