<svg xmlns="http://www.w3.org/2000/svg" viewBox="0 0 32 32"><!--! Font Icona - https://fonticona.com | License - https://fonticona.com/license | Copyright 2022 FontIcona.com --><path d="M21.661,27.907h-0.012c-1.68-0.007-3.158-1.02-3.769-2.581L16,20.512l-1.881,4.814c-0.61,1.562-2.089,2.574-3.765,2.581c-1.686,0-3.165-1.001-3.785-2.55L0.291,9.659c-0.402-1.006-0.39-2.109,0.038-3.106c0.427-0.996,1.217-1.767,2.224-2.169C3.559,3.98,4.662,3.996,5.658,4.422c0.997,0.427,1.768,1.216,2.17,2.223l2.466,6.165l1.926-4.928c0.612-1.567,2.097-2.581,3.78-2.581s3.167,1.013,3.781,2.581l1.925,4.928l2.466-6.165c0.402-1.007,1.173-1.796,2.17-2.224c0.995-0.428,2.1-0.439,3.106-0.037c1.006,0.402,1.796,1.173,2.223,2.169c0.428,0.997,0.44,2.101,0.038,3.107l-6.278,15.696C24.811,26.906,23.331,27.907,21.661,27.907z M16,15.016l3.744,9.582c0.31,0.792,1.059,1.307,1.909,1.31l0.008,1v-1c0.848,0,1.598-0.508,1.912-1.294l6.278-15.696c0.205-0.511,0.198-1.07-0.019-1.575c-0.217-0.506-0.617-0.896-1.128-1.101c-0.513-0.206-1.07-0.197-1.576,0.019c-0.505,0.217-0.896,0.616-1.1,1.127l-4.345,10.862L17.918,8.61c-0.311-0.796-1.064-1.31-1.918-1.31c-0.854,0-1.606,0.514-1.917,1.309l-3.768,9.64L5.971,7.387C5.55,6.334,4.35,5.818,3.295,6.241C2.784,6.445,2.384,6.836,2.167,7.342C1.95,7.847,1.943,8.406,2.148,8.916l6.278,15.698c0.314,0.785,1.064,1.293,1.912,1.293c0.858-0.003,1.607-0.518,1.917-1.31L16,15.016z"/></svg>