<svg xmlns="http://www.w3.org/2000/svg" viewBox="0 0 32 32"><!--! Font Icona - https://fonticona.com | License - https://fonticona.com/license | Copyright 2022 FontIcona.com --><path d="M11.333,30.28c-6.859,0-10.618-4.211-11.239-8.516C-0.801,15.561,4.619,8.601,9.877,6.753c2.704-0.951,4.661-0.857,5.823,0.271c0.854,0.832,1.053,2.006,1.024,3.015c2.301-0.854,4.226-0.715,4.326-0.706c1.565,0.166,2.344,0.947,2.726,1.573c0.771,1.263,0.594,2.92,0.342,4.014c1.319,0.354,2.318,0.995,2.976,1.918c1.09,1.529,0.789,3.198,0.751,3.383c-1.411,6.894-8.507,9.194-14.211,9.911C12.831,30.232,12.064,30.28,11.333,30.28z M13.107,8.095c-0.665,0-1.534,0.182-2.566,0.545c-4.421,1.554-9.196,7.783-8.467,12.84c0.787,5.459,6.421,7.278,11.31,6.668c5.056-0.635,11.328-2.596,12.502-8.327c0-0.001,0.175-1.004-0.434-1.84c-0.503-0.69-1.424-1.128-2.735-1.3c-0.305-0.039-0.573-0.217-0.73-0.48c-0.156-0.265-0.183-0.586-0.072-0.872c0.222-0.579,0.728-2.447,0.154-3.382c-0.139-0.228-0.415-0.538-1.203-0.622l0,0c-0.003,0.001-2.486-0.158-4.919,1.294c-0.357,0.214-0.809,0.184-1.136-0.076c-0.324-0.259-0.456-0.691-0.329-1.087c0.178-0.562,0.526-2.316-0.179-2.999C14.054,8.215,13.647,8.095,13.107,8.095z"/><path d="M12.62,27.194c-5.318,0-9.484-2.659-9.484-6.055s4.166-6.055,9.484-6.055s9.484,2.659,9.484,6.055S17.938,27.194,12.62,27.194z M12.62,17.085c-4.057,0-7.484,1.856-7.484,4.055s3.428,4.055,7.484,4.055s7.484-1.856,7.484-4.055S16.677,17.085,12.62,17.085z"/><path d="M12.143,24.716c-2.033,0-3.688-1.493-3.688-3.329s1.654-3.329,3.688-3.329s3.688,1.493,3.688,3.329S14.176,24.716,12.143,24.716z M12.143,20.058c-0.931,0-1.688,0.597-1.688,1.329s0.757,1.329,1.688,1.329s1.688-0.597,1.688-1.329S13.073,20.058,12.143,20.058z"/><path d="M26.985,12.06c-0.038,0-0.077-0.002-0.115-0.007c-0.549-0.063-0.942-0.56-0.879-1.107c0.125-1.087-0.063-1.916-0.562-2.465c-0.822-0.903-2.277-0.882-2.306-0.887c-0.006,0-0.013,0-0.02,0c-0.541,0-0.988-0.432-1.002-0.976c-0.014-0.55,0.417-1.007,0.967-1.024c0.1,0.001,2.375-0.053,3.825,1.525c0.915,0.996,1.279,2.36,1.083,4.055C27.919,11.684,27.486,12.06,26.985,12.06z"/><path d="M30.826,13.444c-0.05,0-0.101-0.004-0.152-0.012c-0.546-0.083-0.921-0.594-0.837-1.14c0.44-2.874-0.012-5.059-1.342-6.495c-2.14-2.31-5.951-2.053-5.987-2.047c-0.559,0.042-1.03-0.37-1.074-0.919c-0.043-0.55,0.366-1.03,0.916-1.075c0.194-0.016,4.793-0.349,7.602,2.67c1.774,1.906,2.4,4.654,1.862,8.169C31.738,13.091,31.312,13.444,30.826,13.444z"/></svg>