<svg xmlns="http://www.w3.org/2000/svg" viewBox="0 0 32 32"><!--! Font Icona - https://fonticona.com | License - https://fonticona.com/license | Copyright 2022 FontIcona.com --><path d="M21.33,24.957c-0.57,0-1.177-0.105-1.815-0.317c-0.332-0.081-9.776-2.574-12.787-12.769c-0.02-0.067-0.033-0.137-0.038-0.207c-0.012-0.159-0.258-3.93,3.372-5.646c0.425-0.2,0.932-0.078,1.219,0.293l3.599,4.665c0.333,0.434,0.258,1.054-0.169,1.395l-1.665,1.323c0.479,1.144,1.823,3.589,4.827,4.599l1.255-1.233c0.34-0.333,0.868-0.382,1.263-0.113l4.78,3.247c0.334,0.228,0.499,0.634,0.417,1.03c-0.018,0.089-0.471,2.188-2.226,3.202C22.748,24.779,22.069,24.957,21.33,24.957z M8.68,11.422c2.731,9.015,11.306,11.277,11.393,11.299c0.966,0.317,1.71,0.304,2.279-0.021c0.543-0.31,0.876-0.854,1.066-1.278l-3.474-2.359l-1.091,1.071c-0.251,0.246-0.615,0.341-0.954,0.254c-5.47-1.431-6.942-6.546-7.002-6.763c-0.107-0.387,0.028-0.8,0.341-1.05l1.455-1.155L10.234,8.23C8.751,9.321,8.676,11.017,8.68,11.422z"/><path d="M1,32c-0.297,0-0.586-0.133-0.779-0.373c-0.254-0.315-0.293-0.753-0.098-1.108l3.252-5.925c-2.021-2.655-3.086-5.806-3.086-9.155C0.29,6.926,7.402,0,16.145,0S32,6.926,32,15.438s-7.113,15.438-15.855,15.438c-2.257,0-4.451-0.465-6.525-1.383l-8.336,2.465C1.19,31.986,1.095,32,1,32z M16.145,2C8.505,2,2.29,8.028,2.29,15.438c0,3.105,1.055,6.015,3.051,8.413c0.263,0.315,0.306,0.761,0.108,1.121l-2.404,4.38l6.366-1.882c0.234-0.07,0.487-0.05,0.709,0.054c1.909,0.897,3.937,1.353,6.025,1.353c7.64,0,13.855-6.028,13.855-13.438S23.785,2,16.145,2z"/></svg>