<svg xmlns="http://www.w3.org/2000/svg" viewBox="0 0 32 32"><!--! Font Icona - https://fonticona.com | License - https://fonticona.com/license | Copyright 2022 FontIcona.com --><path d="M27.136,27.92c-2.682,0-4.864-2.162-4.864-4.82c0-2.657,2.182-4.819,4.864-4.819S32,20.442,32,23.1C32,25.758,29.818,27.92,27.136,27.92z M27.136,20.28c-1.58,0-2.864,1.265-2.864,2.819s1.285,2.82,2.864,2.82S30,24.654,30,23.1S28.715,20.28,27.136,20.28z"/><path d="M17.812,22.506c-0.06,0-0.119-0.005-0.179-0.017l-9.365-1.702C7.865,20.714,7.547,20.402,7.467,20l-1.638-8.177c-0.063-0.313,0.028-0.638,0.244-0.873c0.216-0.235,0.526-0.352,0.849-0.317l21.292,2.407c0.41,0.047,0.75,0.34,0.854,0.739c0.105,0.399-0.045,0.821-0.379,1.064L18.4,22.315C18.228,22.439,18.022,22.506,17.812,22.506z M9.294,18.941l8.276,1.504l7.859-5.707L8.059,12.774L9.294,18.941z"/><path d="M9.858,27.264c-0.323,0-0.664-0.078-1.018-0.266c-0.919-0.487-1.486-1.654-1.319-2.714l0.71-4.496c0.086-0.545,0.604-0.918,1.144-0.831c0.546,0.086,0.918,0.598,0.832,1.144l-0.71,4.495c-0.037,0.231,0.127,0.554,0.28,0.635c0.09,0.051,0.39,0.057,1.184-0.923l3.207-3.959c0.348-0.43,0.978-0.494,1.407-0.148c0.429,0.348,0.495,0.978,0.148,1.406l-3.207,3.96C12.137,26.034,11.141,27.264,9.858,27.264z"/><path d="M24.467,20.062c-0.297,0-0.591-0.132-0.788-0.384l-1.19-1.522c-0.34-0.436-0.264-1.063,0.172-1.404c0.434-0.339,1.063-0.263,1.403,0.172l1.19,1.522c0.34,0.436,0.264,1.063-0.172,1.404C24.899,19.992,24.683,20.062,24.467,20.062z"/><path d="M6.81,12.627c-0.249,0-0.498-0.092-0.692-0.278L3.36,9.706C2.961,9.324,2.948,8.691,3.33,8.293c0.383-0.398,1.016-0.413,1.414-0.03l2.758,2.643c0.399,0.382,0.412,1.015,0.03,1.413C7.335,12.523,7.073,12.627,6.81,12.627z"/><path d="M4.052,9.984H1c-0.552,0-1-0.447-1-1s0.448-1,1-1h3.052c0.552,0,1,0.447,1,1S4.604,9.984,4.052,9.984z"/><circle cx="27.136" cy="23.1" r="1.25"/><path d="M14.065,11.068c-0.047,0-0.095-0.003-0.144-0.01c-0.547-0.079-0.926-0.586-0.848-1.133c0.188-1.308,0.538-3.741,2.231-4.511c1.727-0.783,3.545,0.1,5.006,0.81c0.354,0.173,0.691,0.337,1,0.461c0.442,0.176,0.718,0.503,0.785,0.897c0.148,0.253,0.185,0.568,0.073,0.863c-0.198,0.516-0.776,0.774-1.291,0.578c-0.345-0.132-0.59-0.366-0.71-0.654c-0.234-0.105-0.479-0.225-0.731-0.347c-1.14-0.555-2.432-1.181-3.303-0.788c-0.698,0.317-0.975,2.248-1.08,2.976C14.982,10.709,14.554,11.068,14.065,11.068z"/><path d="M8.577,12.237c-0.395,0-0.758-0.228-0.905-0.621c-0.424-1.138,0.199-2.803,1.265-4.954l0.105-0.215c0.405-0.83,1.083-2.219,2.463-2.352c1.202-0.118,2.318,0.46,3.302,0.97c0.261,0.135,0.514,0.267,0.753,0.373c0.504,0.225,0.731,0.815,0.506,1.32c-0.225,0.505-0.817,0.733-1.321,0.506c-0.272-0.121-0.56-0.269-0.857-0.423c-0.739-0.383-1.585-0.818-2.191-0.756c-0.177,0.018-0.466,0.434-0.858,1.238L10.729,7.55c-1.229,2.48-1.235,3.185-1.181,3.372c0.149,0.516-0.125,1.092-0.636,1.261C8.801,12.22,8.688,12.237,8.577,12.237z"/><path d="M24.749,14.579c-0.169,0-0.341-0.043-0.498-0.134c-0.479-0.275-0.643-0.887-0.368-1.365c0.413-0.716,0.15-1.599-0.332-2.966c-0.114-0.323-0.228-0.649-0.329-0.976c-0.059-0.191-0.105-0.361-0.145-0.511c-0.015-0.055-0.027-0.104-0.039-0.151c-0.421,0.032-1.166,0.483-1.667,0.788c-0.25,0.151-0.488,0.295-0.704,0.41c-0.308,0.163-0.614,0.337-0.919,0.51c-0.769,0.435-1.563,0.884-2.416,1.208c-0.472,0.179-1.449,0.475-2.483,0.787c-1.061,0.32-2.263,0.684-2.664,0.849c-0.51,0.211-1.096-0.031-1.306-0.542c-0.211-0.51,0.031-1.095,0.542-1.306c0.492-0.204,1.637-0.55,2.85-0.916c0.957-0.289,1.945-0.588,2.352-0.741c0.71-0.271,1.405-0.664,2.141-1.08c0.321-0.182,0.642-0.363,0.965-0.534c0.185-0.099,0.39-0.224,0.605-0.354c0.832-0.505,1.873-1.135,2.888-1.075c1.371,0.075,1.612,0.975,1.788,1.631c0.034,0.128,0.073,0.273,0.124,0.438c0.093,0.303,0.199,0.604,0.305,0.901c0.506,1.437,1.08,3.065,0.179,4.629C25.432,14.399,25.095,14.579,24.749,14.579z"/></svg>