<svg xmlns="http://www.w3.org/2000/svg" viewBox="0 0 32 32"><!--! Font Icona - https://fonticona.com | License - https://fonticona.com/license | Copyright 2022 FontIcona.com --><path d="M9.511,31.291C4.267,31.291,0,27.024,0,21.78c0-5.245,4.267-9.512,9.511-9.512s9.511,4.267,9.511,9.512C19.021,27.024,14.755,31.291,9.511,31.291z M9.511,14.269C5.369,14.269,2,17.639,2,21.78s3.369,7.511,7.511,7.511s7.511-3.369,7.511-7.511S13.652,14.269,9.511,14.269z"/><path d="M7.764,14.449c-0.444,0-0.85-0.299-0.967-0.749L3.942,2.709H1.18c-0.553,0-1-0.447-1-1s0.447-1,1-1h3.536c0.455,0,0.854,0.308,0.968,0.749l3.049,11.74c0.139,0.534-0.182,1.08-0.717,1.219C7.932,14.439,7.847,14.449,7.764,14.449z"/><path d="M28.269,16.206H14.941c-0.553,0-1-0.447-1-1s0.447-1,1-1h13.327c0.553,0,1,0.447,1,1S28.821,16.206,28.269,16.206z"/><path d="M26.754,30.062c-0.454,0-0.863-0.311-0.972-0.769L22.49,15.438c-0.128-0.538,0.204-1.077,0.741-1.204c0.541-0.128,1.076,0.205,1.204,0.741l3.068,12.916l3.298-0.666c0.548-0.109,1.07,0.241,1.179,0.782c0.109,0.542-0.241,1.069-0.782,1.179l-4.245,0.857C26.886,30.057,26.819,30.062,26.754,30.062z"/><path d="M25.263,23.765h-7.314c-0.553,0-1-0.447-1-1s0.447-1,1-1h7.314c0.553,0,1,0.447,1,1S25.815,23.765,25.263,23.765z"/><path d="M9.511,26.453c-2.576,0-4.673-2.097-4.673-4.673c0-2.577,2.097-4.674,4.673-4.674c2.577,0,4.674,2.097,4.674,4.674C14.185,24.356,12.088,26.453,9.511,26.453z M9.511,19.106c-1.474,0-2.673,1.199-2.673,2.674c0,1.474,1.199,2.673,2.673,2.673c1.475,0,2.674-1.199,2.674-2.673C12.185,20.306,10.985,19.106,9.511,19.106z"/></svg>