<svg xmlns="http://www.w3.org/2000/svg" viewBox="0 0 32 32"><!--! Font Icona - https://fonticona.com | License - https://fonticona.com/license | Copyright 2022 FontIcona.com --><path d="M23.5,19.8c-0.3,0-0.5-0.1-0.7-0.3c-3.8-3.8-9.9-3.8-13.6,0c-0.4,0.4-1,0.4-1.4,0s-0.4-1,0-1.4c2.2-2.2,5.1-3.4,8.2-3.4c0,0,0,0,0,0c3.1,0,6,1.2,8.2,3.4c0.4,0.4,0.4,1,0,1.4C24,19.7,23.8,19.8,23.5,19.8z"/><path d="M26.8,14.1c-0.3,0-0.5-0.1-0.7-0.3c-5.6-5.6-14.7-5.6-20.3,0c-0.4,0.4-1,0.4-1.4,0s-0.4-1,0-1.4c6.4-6.4,16.7-6.3,23.1,0c0.4,0.4,0.4,1,0,1.4C27.3,14,27.1,14.1,26.8,14.1z"/><path d="M30.7,8.1c-0.3,0-0.5-0.1-0.7-0.3C26.3,4.1,21.3,2,16,2c0,0,0,0,0,0C10.7,2,5.7,4.1,2,7.8c-0.4,0.4-1,0.4-1.4,0s-0.4-1,0-1.4C4.7,2.3,10.1,0,16,0c0,0,0,0,0,0c5.8,0,11.3,2.3,15.4,6.4c0.4,0.4,0.4,1,0,1.4C31.2,8,31,8.1,30.7,8.1z"/><path d="M16,32c-3,0-5.4-2.4-5.4-5.4s2.4-5.4,5.4-5.4s5.4,2.4,5.4,5.4S19,32,16,32z M16,23.1c-1.9,0-3.4,1.5-3.4,3.4S14.1,30,16,30c1.9,0,3.4-1.5,3.4-3.4S17.9,23.1,16,23.1z"/></svg>