<svg xmlns="http://www.w3.org/2000/svg" viewBox="0 0 32 32"><!--! Font Icona - https://fonticona.com | License - https://fonticona.com/license | Copyright 2022 FontIcona.com --><path d="M5.583,7.4H1c-0.552,0-1-0.447-1-1s0.448-1,1-1h4.583c0.552,0,1,0.447,1,1S6.136,7.4,5.583,7.4z"/><path d="M14.418,7.4H9.834c-0.552,0-1-0.447-1-1s0.448-1,1-1h4.583c0.552,0,1,0.447,1,1S14.97,7.4,14.418,7.4z"/><path d="M22.975,7.4h-4.583c-0.552,0-1-0.447-1-1s0.448-1,1-1h4.583c0.552,0,1,0.447,1,1S23.527,7.4,22.975,7.4z"/><path d="M31,7.4h-4.583c-0.552,0-1-0.447-1-1s0.448-1,1-1H31c0.552,0,1,0.447,1,1S31.552,7.4,31,7.4z"/><path d="M10.683,26.296c-0.397,0-0.773-0.238-0.929-0.63L2.217,6.771C2.013,6.258,2.263,5.676,2.775,5.472C3.291,5.265,3.87,5.518,4.075,6.03l7.537,18.896c0.205,0.513-0.045,1.095-0.558,1.299C10.932,26.273,10.806,26.296,10.683,26.296z"/><path d="M11.103,26.1c-0.078,0-0.157-0.019-0.231-0.057c-0.245-0.128-0.339-0.43-0.212-0.675l9.793-18.75c0.128-0.245,0.431-0.337,0.675-0.212c0.245,0.128,0.339,0.43,0.212,0.675l-9.793,18.75C11.458,26.002,11.283,26.1,11.103,26.1z"/><path d="M19.421,26.296c-0.397,0-0.773-0.238-0.929-0.63L10.955,6.771C10.75,6.258,11,5.676,11.513,5.472c0.515-0.207,1.095,0.046,1.299,0.559l7.537,18.896c0.205,0.513-0.045,1.095-0.558,1.299C19.669,26.273,19.544,26.296,19.421,26.296z"/><path d="M19.958,25.796c-0.074,0-0.15-0.017-0.221-0.052c-0.248-0.122-0.35-0.422-0.227-0.67l9.255-18.75c0.122-0.246,0.424-0.348,0.669-0.227c0.248,0.122,0.35,0.422,0.227,0.67l-9.255,18.75C20.32,25.693,20.143,25.796,19.958,25.796z"/></svg>