<svg xmlns="http://www.w3.org/2000/svg" viewBox="0 0 32 32"><!--! Font Icona - https://fonticona.com | License - https://fonticona.com/license | Copyright 2022 FontIcona.com --><path d="M15.083,13.412h-3.788c-0.553,0-1-0.448-1-1s0.447-1,1-1h3.788c1.544,0,2.801-1.257,2.801-2.801s-1.257-2.801-2.801-2.801c-1.545,0-2.802,1.257-2.802,2.801c0,0.552-0.447,1-1,1s-1-0.448-1-1c0-2.647,2.154-4.801,4.802-4.801s4.801,2.154,4.801,4.801S17.73,13.412,15.083,13.412z"/><path d="M11.295,13.412H5.11c-0.553,0-1-0.448-1-1s0.447-1,1-1h6.185c0.553,0,1,0.448,1,1S11.848,13.412,11.295,13.412z"/><path d="M27.198,18.112h-3.819c-0.553,0-1-0.448-1-1s0.447-1,1-1h3.819c1.545,0,2.802-1.257,2.802-2.801s-1.257-2.801-2.802-2.801c-1.544,0-2.801,1.257-2.801,2.801c0,0.552-0.447,1-1,1s-1-0.448-1-1c0-2.647,2.153-4.801,4.801-4.801S32,10.664,32,13.311S29.846,18.112,27.198,18.112z"/><path d="M23.379,18.112H1c-0.553,0-1-0.448-1-1s0.447-1,1-1h22.379c0.553,0,1,0.448,1,1S23.932,18.112,23.379,18.112z"/><path d="M15.809,22.566H4.892c-0.553,0-1-0.448-1-1s0.447-1,1-1h10.917c0.553,0,1,0.448,1,1S16.361,22.566,15.809,22.566z"/><path d="M19.596,30.169c-2.647,0-4.801-2.154-4.801-4.801c0-0.552,0.447-1,1-1s1,0.448,1,1c0,1.544,1.257,2.801,2.801,2.801c1.545,0,2.802-1.257,2.802-2.801s-1.257-2.801-2.802-2.801h-3.787c-0.553,0-1-0.448-1-1s0.447-1,1-1h3.787c2.647,0,4.802,2.154,4.802,4.801S22.243,30.169,19.596,30.169z"/></svg>