<svg xmlns="http://www.w3.org/2000/svg" viewBox="0 0 32 32"><!--! Font Icona - https://fonticona.com | License - https://fonticona.com/license | Copyright 2022 FontIcona.com --><path d="M16,16.978c-5.612,0-10.178-4.007-10.178-8.933c0-0.052,0.004-0.104,0.013-0.156l1.111-7.044C7.022,0.358,7.441,0,7.934,0h16.133c0.492,0,0.911,0.358,0.987,0.844l1.111,7.044c0.009,0.051,0.013,0.104,0.013,0.156C26.178,12.97,21.612,16.978,16,16.978z M7.822,8.12c0.049,3.789,3.698,6.858,8.178,6.858s8.129-3.069,8.178-6.858L23.212,2H8.788L7.822,8.12z"/><path d="M16,32c-0.553,0-1-0.448-1-1V15.978c0-0.552,0.447-1,1-1s1,0.448,1,1V31C17,31.552,16.553,32,16,32z"/><path d="M20,32h-8c-0.553,0-1-0.448-1-1s0.447-1,1-1h8c0.553,0,1,0.448,1,1S20.553,32,20,32z"/><path d="M21.14,8.969c-1.388,0-2.768-0.241-4.09-0.717l-0.519-0.175c-3.279-1.114-6.111-2.073-9.004-0.045C7.074,8.349,6.452,8.239,6.134,7.786C5.817,7.334,5.927,6.71,6.379,6.394c3.729-2.611,7.481-1.336,10.796-0.211l0.533,0.181c1.178,0.424,2.379,0.623,3.62,0.604c1.278,0,1.94-0.388,2.947-1.257c0.416-0.361,1.05-0.316,1.41,0.104c0.361,0.418,0.314,1.049-0.104,1.41c-1.279,1.104-2.382,1.744-4.237,1.744C21.276,8.968,21.208,8.969,21.14,8.969z"/></svg>