<svg xmlns="http://www.w3.org/2000/svg" viewBox="0 0 32 32"><!--! Font Icona - https://fonticona.com | License - https://fonticona.com/license | Copyright 2022 FontIcona.com --><path d="M8.118,22.784c-0.561,0-1.108-0.092-1.632-0.277c-3.724-1.315-5.084-6.754-3.097-12.382C3.821,8.904,4.41,7.743,5.138,6.673C5.394,6.297,5.87,6.142,6.3,6.294l10.585,3.766c0.443,0.158,0.716,0.603,0.657,1.068c-0.158,1.241-0.461,2.468-0.899,3.645c-1.157,3.382-3.357,6.145-5.876,7.363C9.875,22.567,8.98,22.784,8.118,22.784z M6.379,8.445c-0.445,0.742-0.815,1.529-1.104,2.347c-1.56,4.417-0.7,8.919,1.878,9.829c1.028,0.366,2.059,0.046,2.743-0.286c2.018-0.977,3.882-3.365,4.864-6.236c0.298-0.801,0.523-1.612,0.675-2.433L6.379,8.445z"/><path d="M3.932,30.962c-0.11,0-0.222-0.018-0.332-0.057c-0.521-0.183-0.795-0.754-0.612-1.275l2.932-8.342c0.183-0.521,0.751-0.798,1.275-0.611c0.521,0.183,0.795,0.754,0.612,1.275l-2.932,8.342C4.731,30.705,4.345,30.962,3.932,30.962z"/><path d="M6.864,31.994c-0.11,0-0.222-0.019-0.332-0.057l-5.864-2.065c-0.521-0.184-0.794-0.755-0.611-1.275c0.184-0.521,0.754-0.792,1.275-0.611l5.864,2.065c0.521,0.184,0.794,0.755,0.611,1.275C7.663,31.737,7.277,31.994,6.864,31.994z"/><path d="M23.26,16.728c-3.238,0-6.867-3.008-8.746-7.566c-0.48-1.218-0.808-2.478-0.978-3.759c-0.06-0.45,0.191-0.885,0.612-1.057l10.396-4.265c0.426-0.175,0.916-0.037,1.187,0.334c0.758,1.036,1.389,2.166,1.874,3.355c1.383,3.267,1.572,6.783,0.499,9.394c-0.638,1.553-1.675,2.66-2.999,3.205C24.516,16.611,23.896,16.728,23.26,16.728z M15.641,5.895c0.163,0.859,0.407,1.704,0.728,2.519c1.792,4.346,5.451,7.149,7.975,6.106c1.035-0.426,1.61-1.386,1.91-2.115c0.861-2.097,0.671-5.11-0.496-7.866c-0.33-0.809-0.731-1.578-1.2-2.302L15.641,5.895z"/><path d="M28.124,24.598c-0.394,0-0.767-0.233-0.926-0.62l-3.354-8.175c-0.209-0.512,0.035-1.096,0.546-1.305c0.51-0.212,1.095,0.034,1.305,0.545l3.354,8.175c0.209,0.512-0.035,1.096-0.546,1.305C28.378,24.574,28.25,24.598,28.124,24.598z"/><path d="M25.247,25.785c-0.394,0-0.767-0.233-0.925-0.62c-0.21-0.511,0.034-1.095,0.544-1.305l5.753-2.365c0.513-0.208,1.095,0.034,1.305,0.545s-0.034,1.095-0.544,1.305l-5.753,2.365C25.502,25.761,25.374,25.785,25.247,25.785z"/><path d="M15.483,9.747c-0.538,0-0.982-0.427-0.999-0.969c-0.018-0.552,0.416-1.014,0.968-1.03l12.262-0.389c0.535-0.045,1.014,0.415,1.031,0.968c0.018,0.552-0.416,1.014-0.968,1.03L15.515,9.746C15.504,9.747,15.494,9.747,15.483,9.747z"/><path d="M3.553,16.711c-0.505,0-0.938-0.381-0.993-0.895c-0.058-0.549,0.34-1.042,0.889-1.1L15.6,13.429c0.54-0.058,1.042,0.339,1.1,0.889c0.058,0.549-0.34,1.042-0.889,1.1L3.66,16.705C3.625,16.709,3.589,16.711,3.553,16.711z"/></svg>