<svg xmlns="http://www.w3.org/2000/svg" viewBox="0 0 32 32"><!--! Font Icona - https://fonticona.com | License - https://fonticona.com/license | Copyright 2022 FontIcona.com --><path d="M19,32h-6c-1.654,0-3-1.346-3-3V16.892c0-1.654,1.346-3,3-3h6c1.654,0,3,1.346,3,3V29C22,30.655,20.654,32,19,32z M13,15.892c-0.552,0-1,0.448-1,1V29c0,0.552,0.448,1,1,1h6c0.552,0,1-0.448,1-1V16.892c0-0.552-0.448-1-1-1H13z"/><path d="M14.947,32H3c-1.654,0-3-1.346-3-3v-8.153c0-1.654,1.346-3,3-3h8c0.553,0,1,0.447,1,1s-0.447,1-1,1H3c-0.552,0-1,0.448-1,1V29c0,0.552,0.448,1,1,1h11.947c0.553,0,1,0.447,1,1S15.5,32,14.947,32z"/><path d="M29,32H18.632c-0.553,0-1-0.447-1-1s0.447-1,1-1H29c0.552,0,1-0.448,1-1v-5.56c0-0.552-0.448-1-1-1h-8c-0.553,0-1-0.447-1-1s0.447-1,1-1h8c1.654,0,3,1.346,3,3V29C32,30.655,30.654,32,29,32z"/><path d="M18.812,11.234c-0.16,0-0.32-0.038-0.467-0.116l-2.518-1.33l-2.518,1.33c-0.336,0.179-0.745,0.149-1.054-0.074c-0.309-0.223-0.463-0.603-0.398-0.978l0.481-2.825l-2.04-2c-0.271-0.266-0.368-0.662-0.251-1.023c0.118-0.361,0.431-0.625,0.807-0.68l2.814-0.411l1.261-2.566c0.336-0.686,1.459-0.686,1.795,0l1.261,2.566l2.814,0.411c0.376,0.055,0.688,0.318,0.807,0.68c0.117,0.361,0.021,0.758-0.251,1.023l-2.04,2l0.481,2.825c0.064,0.375-0.09,0.755-0.398,0.978C19.226,11.169,19.02,11.234,18.812,11.234z M15.828,7.657c0.16,0,0.321,0.039,0.467,0.116l1.19,0.629l-0.229-1.341c-0.056-0.323,0.051-0.652,0.285-0.882l0.974-0.954l-1.34-0.196c-0.326-0.048-0.607-0.253-0.753-0.549l-0.595-1.211L15.233,4.48c-0.146,0.296-0.427,0.501-0.753,0.549l-1.34,0.196l0.974,0.954c0.234,0.229,0.341,0.559,0.285,0.882l-0.229,1.341l1.19-0.629C15.507,7.696,15.668,7.657,15.828,7.657z"/></svg>