<svg xmlns="http://www.w3.org/2000/svg" viewBox="0 0 32 32"><!--! Font Icona - https://fonticona.com | License - https://fonticona.com/license | Copyright 2022 FontIcona.com --><path d="M5.047,22.822c-0.729,0-1.256-0.583-1.492-1.104L0.053,11.385c-0.177-0.522,0.104-1.091,0.627-1.268c0.524-0.177,1.09,0.104,1.268,0.627l3.142,9.282c0.041-0.131,0.083-0.279,0.128-0.447l1.683-6.57c0.146-0.525,0.721-1.396,1.984-1.463c0.035-0.002,0.068-0.002,0.104,0c1.264,0.066,1.838,0.938,1.979,1.442l1.69,6.597c0.041,0.157,0.081,0.296,0.119,0.42l3.148-9.261c0.178-0.523,0.745-0.804,1.268-0.627c0.523,0.177,0.804,0.745,0.627,1.268l-3.467,10.24c-0.285,0.643-0.855,1.276-1.646,1.191c-1.144-0.096-1.646-1.434-1.985-2.729l-1.687-6.582c0.015,0.057-0.021,0.051-0.097,0.043c-0.076,0.01-0.12,0.03-0.131,0.049l-1.654,6.484c-0.342,1.302-0.844,2.639-1.987,2.735C5.125,22.82,5.086,22.822,5.047,22.822z"/><path d="M19.967,22.908c-0.553,0-1-0.447-1-1v-7.645c0-0.553,0.447-1,1-1s1,0.447,1,1v7.645C20.967,22.461,20.52,22.908,19.967,22.908z"/><path d="M18.98,12.316c-0.148-0.462-0.138-0.785-0.093-1.077c0.055-0.283,0.168-0.514,0.332-0.701c0.163-0.187,0.379-0.328,0.653-0.416c0.283-0.081,0.604-0.128,1.082-0.037c0.149,0.464,0.141,0.788,0.095,1.079c-0.055,0.283-0.168,0.514-0.334,0.699c-0.165,0.185-0.381,0.326-0.655,0.415C19.776,12.357,19.456,12.406,18.98,12.316z"/><path d="M27.257,17.487c-0.326,0-0.646-0.159-0.838-0.453l-2.672-4.088c-0.33-0.571-0.527-0.841-0.625-0.96c-0.124-0.053-0.239-0.131-0.338-0.236c-0.378-0.402-0.358-1.035,0.044-1.413c0.222-0.208,0.564-0.309,0.869-0.267c0.563,0.083,1.022,0.562,1.753,1.83l2.643,4.04c0.303,0.462,0.173,1.082-0.29,1.384C27.634,17.435,27.444,17.487,27.257,17.487z M24.197,11.794c-0.086,0.081-0.184,0.145-0.287,0.189C24.009,11.941,24.106,11.88,24.197,11.794z"/><path d="M27.255,17.487c-0.188,0-0.378-0.053-0.546-0.163c-0.463-0.302-0.593-0.922-0.29-1.384l2.673-4.088c0.701-1.221,1.16-1.699,1.724-1.782c0.308-0.042,0.647,0.059,0.869,0.267c0.402,0.378,0.422,1.011,0.044,1.413c-0.099,0.105-0.215,0.184-0.339,0.236c-0.096,0.116-0.285,0.376-0.595,0.912l-2.702,4.136C27.901,17.328,27.581,17.487,27.255,17.487z M30.315,11.794c0.09,0.085,0.187,0.146,0.284,0.188C30.497,11.938,30.401,11.875,30.315,11.794z"/><path d="M30.958,22.914c-0.048,0-0.096-0.004-0.142-0.011c-0.564-0.082-1.023-0.562-1.754-1.83l-2.644-4.039c-0.303-0.462-0.173-1.081,0.29-1.384c0.461-0.303,1.082-0.173,1.384,0.29l2.673,4.087c0.33,0.57,0.527,0.841,0.624,0.96c0.124,0.052,0.239,0.13,0.337,0.234c0.38,0.401,0.361,1.034-0.04,1.413C31.499,22.812,31.223,22.914,30.958,22.914z M30.61,20.987c-0.102,0.042-0.203,0.105-0.297,0.194C30.402,21.097,30.504,21.032,30.61,20.987z"/><path d="M23.555,22.914c-0.265,0-0.541-0.102-0.729-0.279c-0.401-0.379-0.42-1.012-0.04-1.413c0.099-0.104,0.214-0.183,0.338-0.235c0.095-0.116,0.285-0.376,0.594-0.911l2.701-4.135c0.302-0.462,0.921-0.592,1.384-0.29s0.593,0.922,0.29,1.384l-2.672,4.087c-0.701,1.221-1.16,1.7-1.725,1.782C23.65,22.91,23.603,22.914,23.555,22.914z M23.904,20.988c0.106,0.045,0.206,0.109,0.295,0.193C24.106,21.093,24.006,21.03,23.904,20.988z"/></svg>