<svg xmlns="http://www.w3.org/2000/svg" viewBox="0 0 32 32"><!--! Font Icona - https://fonticona.com | License - https://fonticona.com/license | Copyright 2022 FontIcona.com --><path d="M23.5,31.3c-0.4,0-0.8-0.3-1-0.7L16,9L9.5,30.6c-0.1,0.4-0.5,0.7-1,0.7c-0.4,0-0.8-0.3-0.9-0.7L0,2c-0.1-0.5,0.2-1.1,0.7-1.2C1.3,0.6,1.8,1,2,1.5l6.6,25.1L15,5.3c0.1-0.4,0.5-0.7,1-0.7s0.8,0.3,1,0.7l6.5,21.3L30,1.5c0.1-0.5,0.7-0.8,1.2-0.7C31.8,0.9,32.1,1.5,32,2l-7.5,28.5C24.4,30.9,24,31.3,23.5,31.3C23.5,31.3,23.5,31.3,23.5,31.3z"/><path d="M31,14.3H1c-0.6,0-1-0.4-1-1s0.4-1,1-1h30c0.6,0,1,0.4,1,1S31.6,14.3,31,14.3z"/><path d="M31,19.1H1c-0.6,0-1-0.4-1-1s0.4-1,1-1h30c0.6,0,1,0.4,1,1S31.6,19.1,31,19.1z"/></svg>