<svg xmlns="http://www.w3.org/2000/svg" viewBox="0 0 32 32"><!--! Font Icona - https://fonticona.com | License - https://fonticona.com/license | Copyright 2022 FontIcona.com --><path d="M26.883,3.115c1.279,0.009,2.39,0.882,2.701,2.123c0,0,1.144,3.474-1.031,9.277l-4.845,14.369h-1.732L17.4,15.722l-4.536,13.163h-1.691L3.958,8.011H2.062V6.3h8.617v1.711H8.494l4.711,15.008l3.36-9.7l-1.855-5.309h-1.845V6.3h8.617v1.711h-2.185l4.711,15.008l2.288-6.597c0,0,0.938-4.381-0.66-6.525c0,0-1.979-2.701-1.546-4.402l0,0C24.304,4.121,25.491,3.109,26.883,3.115 M26.883,1.053c-2.097,0.002-3.954,1.355-4.597,3.35c-0.254-0.108-0.528-0.164-0.804-0.165h-8.617c-0.386-0.001-0.765,0.106-1.093,0.309c-0.328-0.203-0.707-0.31-1.093-0.309H2.062C0.923,4.239,0,5.162,0,6.3v0v1.711c0,1.139,0.923,2.062,2.062,2.062h0.381l6.834,19.492c0.283,0.81,1.039,1.361,1.897,1.381h1.691c0.88-0.001,1.662-0.56,1.948-1.392l2.598-7.535l2.618,7.545c0.289,0.828,1.071,1.382,1.948,1.381h1.732c0.88-0.001,1.662-0.56,1.948-1.392l4.927-14.318c2.196-6.03,1.237-9.875,1.031-10.566C31.046,2.528,29.101,1.04,26.883,1.053z M22.08,9.99c0.327-0.103,0.624-0.284,0.866-0.526c0.306,0.572,0.65,1.123,1.031,1.649c0.701,0.928,0.608,3.34,0.33,4.773l-0.196,0.557L22.049,9.99H22.08z M11.277,9.99c0.174-0.054,0.34-0.131,0.495-0.227c0.328,0.203,0.707,0.31,1.093,0.309h0.381l1.185,3.247L13.4,16.412L11.339,9.96L11.277,9.99z"/></svg>