<svg xmlns="http://www.w3.org/2000/svg" viewBox="0 0 32 32"><!--! Font Icona - https://fonticona.com | License - https://fonticona.com/license | Copyright 2022 FontIcona.com --><path d="M12.378,28.678c-0.011,0-0.021,0-0.032,0c-0.436-0.014-0.812-0.309-0.931-0.729L6.588,10.811H5.188c-0.553,0-1-0.448-1-1s0.447-1,1-1h4.322c0.553,0,1,0.448,1,1s-0.447,1-1,1H8.665l3.818,13.553l3.344-9.508c0.184-0.521,0.754-0.793,1.275-0.612c0.521,0.183,0.795,0.754,0.611,1.275l-4.393,12.491C13.181,28.411,12.801,28.678,12.378,28.678z"/><path d="M20.289,28.667c-0.011,0-0.021,0-0.031,0c-0.437-0.014-0.812-0.309-0.932-0.728l-4.827-17.127H13.1c-0.553,0-1-0.448-1-1s0.447-1,1-1h2.156c0.448,0,0.841,0.298,0.963,0.729l4.176,14.814l2.747-7.813c0.172-0.462,0.322-0.876,0.454-1.248c0.188-0.568-0.172-0.978-0.508-1.222c-1.714-1.253-3.268-3.658-2.016-6.319c0.063-0.128,0.124-0.233,0.191-0.334c0.431-0.658,1.099-1.115,1.877-1.277c0.777-0.162,1.573-0.013,2.24,0.423c1.946,1.558,1.387,4.526,1.053,6.299c-0.146,0.689-0.463,1.715-0.948,3.086c-0.002,0.004-0.004,0.009-0.005,0.014c-0.003,0.009-0.007,0.018-0.01,0.026c-0.135,0.379-0.282,0.785-0.443,1.218l-3.795,10.792C21.092,28.399,20.712,28.667,20.289,28.667z M23.769,8.076c-0.071,0-0.145,0.007-0.218,0.022c-0.256,0.054-0.476,0.203-0.618,0.422c-0.025,0.038-0.043,0.07-0.06,0.103c-0.937,1.992,0.996,3.542,1.393,3.833c0.062,0.045,0.122,0.091,0.181,0.139c0.007-0.032,0.014-0.063,0.021-0.091c0.236-1.256,0.673-3.573-0.26-4.323C24.107,8.118,23.945,8.076,23.769,8.076z"/><path d="M16,32C7.178,32,0,24.822,0,16S7.178,0,16,0s16,7.178,16,16S24.822,32,16,32z M16,2C8.28,2,2,8.28,2,16s6.28,14,14,14s14-6.28,14-14S23.72,2,16,2z"/></svg>