<svg xmlns="http://www.w3.org/2000/svg" viewBox="0 0 32 32"><!--! Font Icona - https://fonticona.com | License - https://fonticona.com/license | Copyright 2022 FontIcona.com --><path d="M2.312,30.943c-0.104,0-0.208-0.016-0.307-0.046c-0.199-0.028-0.347-0.104-0.457-0.243c-0.249-0.154-0.669-0.404-0.671-0.405c-0.236-0.141-0.403-0.373-0.464-0.642l-0.39-1.766c-0.033-0.153-0.031-0.312,0.008-0.464l0.153-0.602c0.041-0.163,0.123-0.313,0.238-0.436l7.491-8.021c0.841-0.898,1.681-1.795,2.513-2.698c0.926-0.963,1.405-2.49,1.41-2.505c0.163-0.526,0.723-0.821,1.25-0.661c0.526,0.162,0.823,0.72,0.662,1.247c-0.024,0.081-0.618,1.993-1.866,3.291c-0.821,0.891-1.664,1.792-2.509,2.694L2.06,27.517L2.027,27.64l0.246,1.113c0.076,0.046,0.147,0.09,0.214,0.132c0.536-0.113,1.516-0.319,1.972-0.415l0.75-0.631l0.769-1.827c0.136-0.323,0.432-0.551,0.778-0.602l1.126-0.164l0.441-0.473c0.076-0.082,0.166-0.15,0.265-0.203l2.334-1.232l2.678-2.795c0.973-1.104,1.978-0.438,2.357-0.186c0.592,0.442,0.717,0.316,0.8,0.233l0.439-0.467c0.72-0.767,1.479-0.786,2.148-0.803c0.139-0.003,0.287-0.007,0.449-0.018c0.537-0.033,1.029,0.377,1.067,0.928s-0.378,1.029-0.929,1.067c-0.193,0.014-0.371,0.018-0.537,0.022c-0.571,0.015-0.61,0.033-0.743,0.174l-0.463,0.491c-0.445,0.443-1.596,1.275-3.28,0.082l-2.655,2.771c-0.074,0.077-0.16,0.143-0.255,0.192l-2.328,1.229l-0.565,0.606c-0.155,0.167-0.362,0.275-0.588,0.308l-0.915,0.133L6.967,28.82c-0.031,0.078-0.072,0.152-0.123,0.221c-0.051,0.071-0.111,0.133-0.178,0.187l-1.111,0.935c-0.126,0.106-0.276,0.18-0.438,0.213l-1.298,0.273c-0.521,0.109-0.937,0.197-1.268,0.237l0.007,0.027C2.478,30.933,2.395,30.943,2.312,30.943z"/><path d="M21.767,21.505c-1.959,0-3.878-0.564-5.56-1.656c-2.296-1.49-3.875-3.786-4.444-6.463c-0.347-1.638-0.283-3.327,0.176-4.909c0.745-2.622,2.471-4.801,4.856-6.13s5.146-1.65,7.773-0.903s4.807,2.473,6.136,4.858c1.33,2.386,1.65,5.147,0.903,7.774c-1.036,3.645-3.98,6.404-7.686,7.201c0,0-0.001,0-0.002,0C23.203,21.429,22.482,21.505,21.767,21.505z M23.712,20.299h0.01H23.712z M21.76,3.05c-1.383,0-2.75,0.352-3.991,1.044c-1.919,1.069-3.308,2.822-3.908,4.936c-0.369,1.273-0.419,2.625-0.146,3.918c0.464,2.177,1.734,4.025,3.582,5.225c1.847,1.199,4.052,1.607,6.206,1.149l0,0c2.979-0.641,5.349-2.861,6.182-5.792c0.601-2.113,0.343-4.334-0.727-6.253c-1.069-1.919-2.822-3.307-4.936-3.908C23.275,3.155,22.515,3.05,21.76,3.05z"/><path d="M30.68,14.176c-0.065,0-0.132-0.013-0.196-0.04c-2.459-1.048-4.918-2.757-6.924-4.814c-1.962-1.901-3.572-4.241-4.647-6.757c-0.108-0.254,0.01-0.547,0.264-0.656c0.251-0.109,0.548,0.01,0.656,0.264c1.022,2.395,2.556,4.622,4.434,6.441c1.926,1.975,4.27,3.605,6.61,4.603c0.254,0.108,0.372,0.402,0.264,0.656C31.059,14.062,30.874,14.176,30.68,14.176z"/><path d="M24.16,20.696c-0.194,0-0.379-0.114-0.46-0.304c-0.996-2.339-2.628-4.684-4.593-6.6c-1.831-1.889-4.059-3.422-6.451-4.443c-0.254-0.108-0.372-0.402-0.264-0.656c0.107-0.254,0.4-0.373,0.656-0.264c2.514,1.073,4.854,2.684,6.767,4.657c2.048,1.997,3.758,4.456,4.805,6.914c0.108,0.254-0.01,0.548-0.264,0.656C24.292,20.683,24.226,20.696,24.16,20.696z"/><path d="M15.248,18.294c-0.128,0-0.256-0.049-0.354-0.146c-1.779-1.781-0.123-6.447,3.617-10.188c3.786-3.787,8.342-5.391,10.152-3.581c0.195,0.195,0.195,0.512,0,0.707s-0.512,0.195-0.707,0c-1.216-1.216-5.213,0.056-8.738,3.581c-3.487,3.489-4.808,7.581-3.617,8.773c0.195,0.196,0.195,0.512,0,0.708C15.504,18.246,15.376,18.294,15.248,18.294z"/><path d="M16.812,18.849c-0.003,0-0.005,0-0.007,0c-0.809-0.001-1.451-0.238-1.912-0.703c-0.195-0.196-0.193-0.512,0.002-0.707c0.197-0.195,0.514-0.193,0.707,0.003c0.268,0.269,0.673,0.406,1.204,0.407c0.002,0,0.004,0,0.006,0c1.885,0,4.828-1.679,7.328-4.179c3.652-3.653,4.942-7.456,3.816-8.584c-0.195-0.196-0.195-0.512,0-0.708c0.195-0.194,0.512-0.195,0.707,0c1.732,1.734,0.056,6.125-3.816,9.998C22.132,17.095,18.979,18.849,16.812,18.849z"/></svg>