<svg xmlns="http://www.w3.org/2000/svg" viewBox="0 0 32 32"><!--! Font Icona - https://fonticona.com | License - https://fonticona.com/license | Copyright 2022 FontIcona.com --><path d="M23.283,32c-2.519,0-4.868-0.966-6.526-2.667c-0.5,0.025-1.014,0.025-1.514,0C13.585,31.034,11.235,32,8.717,32C3.91,32,0,28.463,0,24.115c0-1.396,0.4-2.747,1.164-3.941C0.392,18.425,0,16.578,0,14.676C0,6.584,7.178,0,16,0s16,6.584,16,14.676c0,1.902-0.392,3.749-1.164,5.498C31.6,21.368,32,22.72,32,24.115C32,28.463,28.09,32,23.283,32z M17.172,27.307c0.29,0,0.566,0.126,0.757,0.347C19.216,29.145,21.168,30,23.283,30C26.987,30,30,27.36,30,24.115c0-1.157-0.385-2.278-1.111-3.241c-0.228-0.302-0.267-0.706-0.1-1.045C29.593,18.2,30,16.466,30,14.676C30,7.687,23.72,2,16,2S2,7.687,2,14.676c0,1.79,0.407,3.524,1.211,5.153c0.167,0.339,0.128,0.743-0.1,1.045C2.385,21.837,2,22.958,2,24.115C2,27.36,5.013,30,8.717,30c2.115,0,4.067-0.855,5.354-2.347c0.205-0.238,0.511-0.375,0.827-0.344c0.727,0.051,1.477,0.051,2.203,0C17.125,27.308,17.148,27.307,17.172,27.307z"/><path d="M17.306,22.064c-5.001,0-8.686-3.232-8.881-3.407c-0.411-0.368-0.446-1-0.078-1.412c0.368-0.411,0.999-0.447,1.412-0.078c0.229,0.204,5.261,4.564,11.154,2.188c0.512-0.202,1.095,0.041,1.302,0.554c0.206,0.513-0.042,1.095-0.554,1.302C20.141,21.822,18.674,22.064,17.306,22.064z"/><path d="M10.577,15.469H7.322c-0.553,0-1-0.447-1-1v-3.611c0-0.553,0.447-1,1-1h3.255c0.553,0,1,0.447,1,1v3.611C11.577,15.021,11.13,15.469,10.577,15.469z M8.322,13.469h1.255v-1.611H8.322V13.469z"/><path d="M24.259,15.469h-9.604c-0.553,0-1-0.447-1-1v-3.611c0-0.553,0.447-1,1-1h9.604c0.553,0,1,0.447,1,1v3.611C25.259,15.021,24.812,15.469,24.259,15.469z M15.655,13.469h7.604v-1.611h-7.604V13.469z"/></svg>