<svg xmlns="http://www.w3.org/2000/svg" viewBox="0 0 32 32"><!--! Font Icona - https://fonticona.com | License - https://fonticona.com/license | Copyright 2022 FontIcona.com --><path d="M16,32C7.178,32,0,24.822,0,16S7.178,0,16,0s16,7.178,16,16S24.822,32,16,32z M16,2C8.28,2,2,8.28,2,16s6.28,14,14,14s14-6.28,14-14S23.72,2,16,2z"/><path d="M18.771,20.066c-0.109,0-0.22-0.018-0.329-0.056l-3.722-1.297c-0.521-0.182-0.797-0.752-0.615-1.273c0.182-0.521,0.75-0.797,1.273-0.615l3.722,1.297c0.521,0.182,0.797,0.752,0.615,1.273C19.572,19.808,19.186,20.066,18.771,20.066z"/><path d="M19.9,25.818c-0.377,0-0.737-0.213-0.907-0.577l-2.988-6.4c-0.233-0.5-0.018-1.096,0.483-1.329c0.501-0.232,1.096-0.018,1.329,0.483l2.988,6.4c0.233,0.5,0.018,1.096-0.483,1.329C20.186,25.788,20.042,25.818,19.9,25.818z"/><path d="M13.132,25.818c-0.173,0-0.348-0.045-0.508-0.139c-0.476-0.281-0.633-0.895-0.353-1.37l3.778-6.4c0.28-0.475,0.894-0.632,1.37-0.353c0.476,0.281,0.633,0.895,0.353,1.37l-3.778,6.4C13.808,25.643,13.474,25.818,13.132,25.818z"/><path d="M19.832,18.875c-0.114,0-0.23-0.02-0.344-0.062l-5.048-1.851c-0.519-0.189-0.785-0.764-0.595-1.282s0.767-0.785,1.282-0.595l4.109,1.506l1.162-3.169l-4.108-1.507c-0.519-0.189-0.785-0.764-0.595-1.282s0.766-0.785,1.282-0.595l5.048,1.851c0.249,0.091,0.452,0.277,0.563,0.518c0.111,0.241,0.123,0.517,0.031,0.766l-1.851,5.047C20.622,18.624,20.239,18.875,19.832,18.875z"/><path d="M23.568,19.213c-0.111,0-0.223-0.019-0.329-0.056l-3.229-1.125c-0.521-0.182-0.797-0.752-0.615-1.273c0.182-0.521,0.75-0.798,1.273-0.615l2.284,0.796l0.466-1.34l-2.283-0.796c-0.521-0.182-0.797-0.752-0.615-1.273s0.751-0.797,1.273-0.615l3.228,1.125c0.521,0.182,0.797,0.752,0.615,1.273l-1.124,3.229c-0.087,0.25-0.271,0.456-0.509,0.571C23.866,19.18,23.718,19.213,23.568,19.213z"/><path d="M14.376,17.842c-0.116,0-0.232-0.021-0.345-0.062l-7.068-2.592c-0.518-0.189-0.784-0.764-0.594-1.282L8.96,6.838c0.091-0.249,0.277-0.452,0.518-0.563c0.242-0.111,0.518-0.123,0.766-0.031l7.068,2.592c0.518,0.189,0.784,0.764,0.594,1.282l-2.591,7.068c-0.091,0.249-0.277,0.452-0.518,0.563C14.663,17.811,14.52,17.842,14.376,17.842z M8.591,13.655l5.19,1.903l1.902-5.19l-5.19-1.903L8.591,13.655z"/></svg>