<svg xmlns="http://www.w3.org/2000/svg" viewBox="0 0 32 32"><!--! Font Icona - https://fonticona.com | License - https://fonticona.com/license | Copyright 2022 FontIcona.com --><path d="M29,25.339H3c-1.654,0-3-1.346-3-3V9.662C0,8.763,0.397,7.92,1.09,7.348c0.693-0.572,1.598-0.803,2.478-0.632l10.726,2.07c1.132,0.219,2.279,0.219,3.412,0l10.726-2.07c0.881-0.168,1.785,0.061,2.478,0.632C31.603,7.92,32,8.763,32,9.662v12.677C32,23.993,30.654,25.339,29,25.339z M2.999,8.662c-0.23,0-0.454,0.08-0.635,0.229C2.132,9.082,2,9.362,2,9.662v12.677c0,0.552,0.449,1,1,1h26c0.552,0,1-0.448,1-1V9.662c0-0.299-0.133-0.58-0.363-0.771c-0.23-0.19-0.529-0.268-0.826-0.21l-10.726,2.07c-1.383,0.268-2.787,0.268-4.17,0L3.189,8.68C3.126,8.668,3.062,8.662,2.999,8.662z"/><path d="M10.866,14.221c-0.771,0-1.518-0.298-2.077-0.834L4.018,8.812c-0.399-0.382-0.412-1.015-0.03-1.414C4.371,7,5.004,6.986,5.402,7.369l4.771,4.574c0.206,0.197,0.467,0.294,0.76,0.275c0.285-0.02,0.539-0.153,0.716-0.377l1.768-2.232c0.343-0.434,0.972-0.505,1.405-0.163c0.433,0.343,0.506,0.972,0.163,1.405l-1.768,2.232c-0.523,0.661-1.306,1.073-2.147,1.13C11.001,14.218,10.934,14.221,10.866,14.221z"/><path d="M21.535,14.247c-0.05,0-0.1-0.001-0.149-0.003c-0.842-0.042-1.632-0.44-2.168-1.091l-1.809-2.201c-0.351-0.427-0.289-1.057,0.138-1.407c0.426-0.352,1.058-0.289,1.407,0.138l1.809,2.201c0.182,0.22,0.438,0.35,0.724,0.364c0.267,0.021,0.552-0.088,0.754-0.289l4.688-4.658c0.392-0.39,1.024-0.388,1.414,0.005c0.39,0.392,0.388,1.025-0.004,1.414l-4.688,4.658C23.088,13.934,22.324,14.247,21.535,14.247z"/><path d="M7.527,17.889h-2.9c-0.552,0-1-0.447-1-1c0-0.552,0.448-1,1-1h2.9c0.552,0,1,0.448,1,1C8.527,17.441,8.079,17.889,7.527,17.889z"/><path d="M25.677,17.889h-13.6c-0.552,0-1-0.447-1-1c0-0.552,0.448-1,1-1h13.6c0.553,0,1,0.448,1,1C26.677,17.441,26.229,17.889,25.677,17.889z"/><path d="M7.527,21.639h-2.9c-0.552,0-1-0.447-1-1s0.448-1,1-1h2.9c0.552,0,1,0.447,1,1S8.079,21.639,7.527,21.639z"/><path d="M25.677,21.639h-13.6c-0.552,0-1-0.447-1-1s0.448-1,1-1h13.6c0.553,0,1,0.447,1,1S26.229,21.639,25.677,21.639z"/></svg>