<svg xmlns="http://www.w3.org/2000/svg" viewBox="0 0 32 32"><!--! Font Icona - https://fonticona.com | License - https://fonticona.com/license | Copyright 2022 FontIcona.com --><path d="M5.655,31.931c-1.426,0-2.863-0.58-3.989-1.714c-2.071-2.064-2.223-5.326-0.339-7.423c0.032-0.036,0.067-0.07,0.104-0.101l12.805-10.716c-0.41-2.214-0.963-7.591,1.139-9.681c2.322-2.298,7.497-2.769,10.402-1.644c0.313,0.122,0.545,0.392,0.616,0.721c0.071,0.328-0.027,0.67-0.263,0.911l-4.134,4.229l0.399,3.019l3.034,0.401l4.354-4.032c0.242-0.224,0.574-0.315,0.901-0.241c0.321,0.073,0.586,0.3,0.708,0.606c1.156,2.917,0.689,8.101-1.646,10.415c-2.258,2.226-8.436,1.366-10.422,0.891c-0.537-0.129-0.868-0.668-0.739-1.206c0.13-0.537,0.665-0.867,1.206-0.74c2.682,0.644,7.347,0.818,8.549-0.368c1.272-1.261,1.915-4.327,1.573-6.753l-3.471,3.214c-0.219,0.202-0.517,0.297-0.811,0.257l-4.26-0.563c-0.448-0.059-0.801-0.412-0.86-0.86l-0.563-4.26c-0.04-0.305,0.062-0.611,0.276-0.83l3.242-3.318c-2.304-0.281-5.338,0.237-6.687,1.571c-1.211,1.204-1.088,5.859-0.474,8.41c0.089,0.369-0.04,0.757-0.331,1.001L2.785,24.169c-1.142,1.266-1.024,3.318,0.297,4.635c1.349,1.36,3.361,1.506,4.682,0.342c0.413-0.361,1.047-0.336,1.413,0.067c0.368,0.404,0.354,1.018-0.044,1.391C8.123,31.494,6.894,31.931,5.655,31.931z"/><ellipse transform="matrix(0.7103 -0.7039 0.7039 0.7103 -16.4131 11.7778)" cx="6.101" cy="25.827" rx="1.799" ry="1.763"/><path d="M8.448,30.875c-0.226,0-0.454-0.077-0.641-0.233c-0.424-0.354-0.479-0.985-0.125-1.409l11.111-13.275c0.353-0.421,0.985-0.48,1.408-0.125c0.424,0.354,0.479,0.985,0.125,1.408L9.216,30.517C9.019,30.752,8.734,30.875,8.448,30.875z"/></svg>