<svg xmlns="http://www.w3.org/2000/svg" viewBox="0 0 32 32"><!--! Font Icona - https://fonticona.com | License - https://fonticona.com/license | Copyright 2022 FontIcona.com --><path d="M16,32C7.178,32,0,24.822,0,16S7.178,0,16,0s16,7.178,16,16S24.822,32,16,32z M16,2C8.28,2,2,8.28,2,16s6.28,14,14,14s14-6.28,14-14S23.72,2,16,2z"/><path d="M16.053,5.851c-0.214,0-0.415-0.068-0.581-0.186c-1.786-1.197-3.669-2.015-5.598-2.43C9.335,3.119,8.991,2.587,9.107,2.047c0.115-0.539,0.65-0.882,1.188-0.767c1.984,0.427,3.918,1.226,5.756,2.378c1.84-1.152,3.773-1.951,5.758-2.378c0.538-0.115,1.071,0.228,1.188,0.767c0.116,0.54-0.228,1.072-0.768,1.188c-1.919,0.413-3.794,1.225-5.572,2.413C16.486,5.777,16.276,5.851,16.053,5.851z"/><path d="M3.196,24.817c-0.097,0-0.195-0.014-0.292-0.044c-0.528-0.162-0.825-0.72-0.664-1.248C2.339,23.2,4.635,15.807,9.656,9.529c-1.56-1.015-3.217-2.003-4.939-2.945C4.232,6.319,4.054,5.711,4.318,5.227c0.265-0.485,0.873-0.664,1.357-0.398c2.122,1.16,4.147,2.389,6.022,3.653c0.437,0.295,0.569,0.878,0.304,1.333c-0.045,0.077-0.099,0.146-0.159,0.206C6.635,16.131,4.177,24.03,4.152,24.11C4.021,24.541,3.625,24.817,3.196,24.817z"/><path d="M26.683,27.632c-0.437,0-0.837-0.289-0.961-0.729c-0.02-0.065-1.725-5.763-9.671-12.604C8.047,21.188,6.398,26.843,6.382,26.9c-0.147,0.532-0.7,0.843-1.231,0.695c-0.532-0.148-0.843-0.7-0.694-1.232C4.53,26.097,6.38,19.747,15.41,12.221c0.305-0.254,0.732-0.303,1.088-0.126c0.069,0.035,0.136,0.078,0.195,0.127c9.029,7.526,10.879,13.875,10.953,14.142c0.148,0.532-0.162,1.083-0.694,1.232C26.862,27.62,26.771,27.632,26.683,27.632z"/><path d="M28.907,24.817c-0.429,0-0.824-0.277-0.956-0.708c-0.024-0.08-2.502-8.041-7.752-14.159c-0.186-0.216-0.271-0.501-0.232-0.784c0.038-0.282,0.194-0.535,0.431-0.695c1.807-1.224,3.724-2.382,6.03-3.642c0.485-0.266,1.092-0.087,1.357,0.398c0.265,0.485,0.086,1.092-0.398,1.357c-1.862,1.018-3.46,1.964-4.949,2.934c5.028,6.28,7.326,13.682,7.426,14.008c0.162,0.528-0.136,1.086-0.663,1.248C29.103,24.803,29.004,24.817,28.907,24.817z"/></svg>