<svg xmlns="http://www.w3.org/2000/svg" viewBox="0 0 32 32"><!--! Font Icona - https://fonticona.com | License - https://fonticona.com/license | Copyright 2022 FontIcona.com --><path d="M22.643,25.75c-0.302,0-0.601-0.136-0.797-0.396L8.562,7.854C8.228,7.415,8.313,6.787,8.753,6.453c0.44-0.333,1.067-0.248,1.401,0.192l13.284,17.5c0.334,0.439,0.248,1.067-0.192,1.401C23.066,25.684,22.854,25.75,22.643,25.75z"/><path d="M9.357,25.75c-0.21,0-0.423-0.066-0.604-0.203c-0.44-0.334-0.526-0.962-0.192-1.401l13.284-17.5c0.334-0.438,0.961-0.524,1.401-0.192c0.44,0.334,0.526,0.962,0.192,1.401l-13.284,17.5C9.958,25.613,9.659,25.75,9.357,25.75z"/></svg>