<svg xmlns="http://www.w3.org/2000/svg" viewBox="0 0 32 32"><!--! Font Icona - https://fonticona.com | License - https://fonticona.com/license | Copyright 2022 FontIcona.com --><path d="M25.094,32c-0.338,0-0.668-0.171-0.856-0.481l-18.187-30C5.765,1.046,5.916,0.431,6.388,0.145S7.476,0.01,7.762,0.481l18.187,30c0.287,0.473,0.136,1.087-0.336,1.374C25.45,31.953,25.271,32,25.094,32z"/><path d="M6.906,32c-0.177,0-0.355-0.046-0.518-0.145c-0.472-0.286-0.623-0.901-0.336-1.374l18.187-30c0.286-0.472,0.902-0.624,1.374-0.336c0.472,0.286,0.623,0.901,0.336,1.374l-18.187,30C7.574,31.829,7.244,32,6.906,32z"/></svg>