<svg xmlns="http://www.w3.org/2000/svg" viewBox="0 0 32 32"><!--! Font Icona - https://fonticona.com | License - https://fonticona.com/license | Copyright 2022 FontIcona.com --><path d="M1,32c-0.256,0-0.512-0.098-0.707-0.293c-0.391-0.391-0.391-1.023,0-1.414l30-30c0.391-0.391,1.023-0.391,1.414,0s0.391,1.023,0,1.414l-30,30C1.512,31.902,1.256,32,1,32z"/><path d="M31,32c-0.256,0-0.512-0.098-0.707-0.293l-30-30c-0.391-0.391-0.391-1.023,0-1.414s1.023-0.391,1.414,0l30,30c0.391,0.391,0.391,1.023,0,1.414C31.512,31.902,31.256,32,31,32z"/></svg>