<svg xmlns="http://www.w3.org/2000/svg" viewBox="0 0 32 32"><!--! Font Icona - https://fonticona.com | License - https://fonticona.com/license | Copyright 2022 FontIcona.com --><path d="M26.374,32H5.626c-1.654,0-3-1.346-3-3V3c0-1.654,1.346-3,3-3h20.748c1.654,0,3,1.346,3,3v26C29.374,30.654,28.028,32,26.374,32z M5.626,2c-0.552,0-1,0.448-1,1v26c0,0.552,0.448,1,1,1h20.748c0.552,0,1-0.448,1-1V3c0-0.552-0.448-1-1-1H5.626z"/><path d="M8.933,27.167c-0.151,0-0.285-0.021-0.396-0.046c-1.188-0.277-1.904-1.722-2.088-3.03c-0.297-2.114-0.324-4.308-0.082-6.52c0.256-2.339,0.59-4.196,1.051-5.847C7.905,9.98,8.572,7.59,10.377,6.418c0.669-0.434,1.273-0.756,1.963-1.043c0.214-0.09,0.423-0.16,0.634-0.23c0.195-0.065,0.393-0.13,0.597-0.222c0.482-0.219,1.045-0.024,1.294,0.439c0.248,0.464,0.094,1.041-0.353,1.32c-0.144,0.09-0.325,0.188-0.524,0.294c-0.311,0.166-1.135,0.606-1.201,0.854c0.123,0.07,0.858,0.183,1.212,0.236c0.358,0.055,0.696,0.106,0.985,0.205l0,0c1.682,0.572,1.966,1.889,2.024,2.972c0.113,2.068,0.241,4.413-0.878,6.496c-0.547,1.018-1.32,1.792-2.067,2.541c-0.68,0.681-1.322,1.324-1.733,2.093c-0.228,0.425-0.393,0.905-0.567,1.415c-0.255,0.742-0.519,1.51-1.011,2.231C10.117,26.951,9.431,27.167,8.933,27.167z M10.931,8.568c-0.814,0.93-1.252,2.496-1.587,3.694c-0.431,1.543-0.745,3.299-0.988,5.525c-0.225,2.048-0.199,4.075,0.074,6.025c0.085,0.603,0.336,1.09,0.505,1.287c0.043-0.044,0.098-0.109,0.164-0.206c0.34-0.5,0.55-1.11,0.771-1.756c0.193-0.562,0.393-1.142,0.695-1.708c0.551-1.029,1.329-1.809,2.081-2.562c0.676-0.677,1.313-1.315,1.722-2.075c0.854-1.588,0.746-3.546,0.644-5.439c-0.049-0.889-0.233-1.038-0.673-1.188l0,0c-0.121-0.041-0.398-0.083-0.642-0.12C12.862,9.917,11.396,9.694,10.931,8.568z"/><path d="M13.446,14.249c-1.582,0-3.162-0.403-4.253-1.413c-0.606-0.561-1.058-1.259-1.306-2.018c-0.172-0.524,0.114-1.09,0.64-1.261c0.524-0.174,1.09,0.115,1.261,0.64c0.141,0.43,0.412,0.846,0.764,1.171c1.137,1.053,3.465,1.069,5.179,0.539c0.528-0.164,1.087,0.135,1.25,0.662c0.162,0.527-0.134,1.087-0.662,1.25C15.442,14.088,14.444,14.249,13.446,14.249z"/><path d="M10.745,17.706c-0.513,0-1.021-0.053-1.515-0.159c-0.814-0.178-1.474-0.584-2.064-0.997c-0.453-0.316-0.563-0.939-0.247-1.392c0.315-0.453,0.938-0.564,1.392-0.247c0.486,0.339,0.9,0.585,1.344,0.681c1.064,0.229,2.286,0.101,3.347-0.354c0.369-0.158,0.749-0.368,1.16-0.642c0.106-0.07,0.209-0.147,0.312-0.226c0.332-0.248,0.707-0.529,1.203-0.69c0.522-0.17,1.09,0.117,1.26,0.643c0.171,0.525-0.117,1.089-0.643,1.26c-0.18,0.059-0.395,0.219-0.621,0.389c-0.135,0.101-0.269,0.2-0.405,0.291c-0.513,0.341-0.996,0.607-1.477,0.813C12.82,17.493,11.775,17.706,10.745,17.706z"/><path d="M10.067,21.948c-1.366,0-2.673-0.559-3.563-1.947c-0.298-0.465-0.163-1.084,0.302-1.382c0.464-0.299,1.083-0.163,1.382,0.302c1.253,1.954,3.817,0.522,4.106,0.354c0.474-0.28,1.088-0.123,1.369,0.354c0.28,0.476,0.122,1.089-0.354,1.369C12.314,21.584,11.171,21.948,10.067,21.948z"/><path d="M23.067,27.167c-0.498,0-1.185-0.216-1.818-1.147c-0.492-0.721-0.756-1.488-1.011-2.23c-0.175-0.51-0.34-0.99-0.567-1.415c-0.411-0.769-1.054-1.412-1.733-2.093c-0.747-0.749-1.521-1.523-2.067-2.541c-1.119-2.083-0.991-4.428-0.878-6.496c0.059-1.083,0.343-2.399,2.024-2.972c0.289-0.099,0.627-0.15,0.985-0.205c0.354-0.054,1.089-0.166,1.249-0.324c-0.104-0.16-0.928-0.601-1.238-0.767c-0.199-0.106-0.381-0.204-0.524-0.294c-0.446-0.279-0.601-0.856-0.353-1.32s0.812-0.658,1.294-0.439c0.204,0.092,0.401,0.156,0.597,0.222c0.211,0.07,0.42,0.141,0.635,0.23c0.688,0.287,1.293,0.609,1.962,1.043c1.805,1.173,2.472,3.562,2.959,5.308c0.461,1.649,0.795,3.507,1.051,5.846c0.242,2.212,0.215,4.405-0.082,6.52c-0.184,1.309-0.9,2.753-2.088,3.03C23.353,27.146,23.219,27.167,23.067,27.167z M23.161,25.183h0.01H23.161z M21.069,8.568c-0.465,1.126-1.932,1.349-2.767,1.477c-0.243,0.037-0.521,0.079-0.642,0.12l0,0c-0.439,0.15-0.624,0.3-0.673,1.188c-0.103,1.894-0.21,3.852,0.644,5.439c0.408,0.76,1.046,1.398,1.722,2.075c0.752,0.754,1.53,1.533,2.081,2.562c0.303,0.566,0.502,1.146,0.695,1.708c0.222,0.646,0.432,1.256,0.771,1.755c0.066,0.098,0.121,0.163,0.164,0.207c0.169-0.198,0.42-0.685,0.505-1.287c0.273-1.95,0.299-3.978,0.074-6.025c-0.243-2.227-0.558-3.982-0.988-5.524C22.321,11.065,21.884,9.498,21.069,8.568z M17.339,9.218h0.01H17.339z"/><path d="M18.554,14.249c-0.998,0-1.996-0.16-2.872-0.43c-0.528-0.163-0.824-0.723-0.662-1.25c0.163-0.526,0.722-0.824,1.25-0.662c1.714,0.529,4.043,0.513,5.178-0.538c0.353-0.326,0.624-0.742,0.765-1.172c0.171-0.524,0.731-0.815,1.261-0.64c0.525,0.171,0.812,0.736,0.64,1.261c-0.248,0.759-0.699,1.457-1.307,2.019C21.716,13.845,20.136,14.249,18.554,14.249z"/><path d="M21.255,17.706c-1.03,0-2.075-0.214-3.047-0.631c-0.479-0.206-0.963-0.473-1.477-0.813c-0.136-0.091-0.269-0.189-0.401-0.289c-0.228-0.171-0.443-0.332-0.624-0.391c-0.525-0.171-0.813-0.734-0.643-1.26c0.17-0.525,0.734-0.812,1.26-0.643c0.497,0.161,0.873,0.443,1.206,0.692c0.103,0.077,0.205,0.154,0.31,0.224c0.411,0.273,0.791,0.483,1.159,0.642c1.06,0.455,2.281,0.584,3.35,0.354c0.441-0.096,0.855-0.342,1.342-0.681c0.452-0.316,1.076-0.207,1.392,0.247c0.316,0.452,0.206,1.075-0.247,1.392c-0.591,0.413-1.25,0.819-2.062,0.997C22.276,17.653,21.768,17.706,21.255,17.706z"/><path d="M21.933,21.948c-1.104,0-2.247-0.364-3.242-0.951c-0.476-0.28-0.634-0.894-0.354-1.369c0.28-0.477,0.894-0.634,1.369-0.354c0.288,0.17,2.853,1.602,4.106-0.354c0.299-0.465,0.917-0.601,1.382-0.302c0.465,0.298,0.6,0.917,0.302,1.382C24.605,21.388,23.299,21.948,21.933,21.948z"/></svg>