<svg xmlns="http://www.w3.org/2000/svg" viewBox="0 0 32 32"><!--! Font Icona - https://fonticona.com | License - https://fonticona.com/license | Copyright 2022 FontIcona.com --><path d="M31.001,21.549c-0.069,0-0.141-0.007-0.211-0.022l-3.538-0.761c-0.54-0.116-0.884-0.648-0.768-1.188c0.115-0.539,0.65-0.883,1.188-0.767l3.538,0.761c0.54,0.116,0.884,0.648,0.768,1.188C31.877,21.228,31.462,21.549,31.001,21.549z"/><path d="M22.463,19.615c-0.069,0-0.141-0.007-0.211-0.022l-3.962-0.852c-0.54-0.116-0.884-0.648-0.768-1.188s0.649-0.883,1.188-0.768l3.962,0.852c0.54,0.116,0.884,0.648,0.768,1.188C23.339,19.294,22.924,19.615,22.463,19.615z"/><path d="M13.501,17.515c-0.069,0-0.141-0.007-0.211-0.022l-3.962-0.852c-0.54-0.116-0.884-0.648-0.768-1.188c0.116-0.54,0.649-0.885,1.188-0.768l3.962,0.852c0.54,0.116,0.884,0.648,0.768,1.188C14.377,17.194,13.962,17.515,13.501,17.515z"/><path d="M4.539,15.44c-0.069,0-0.141-0.007-0.211-0.022l-3.538-0.76c-0.54-0.116-0.884-0.647-0.768-1.188c0.115-0.54,0.65-0.884,1.188-0.768l3.538,0.76c0.54,0.116,0.884,0.647,0.768,1.188C5.415,15.119,5,15.44,4.539,15.44z"/><path d="M31,27.757h-3.538c-0.553,0-1-0.448-1-1s0.447-1,1-1H31c0.553,0,1,0.448,1,1S31.553,27.757,31,27.757z"/><path d="M22.462,27.757H18.5c-0.553,0-1-0.448-1-1s0.447-1,1-1h3.962c0.553,0,1,0.448,1,1S23.015,27.757,22.462,27.757z"/><path d="M13.5,27.757H9.538c-0.553,0-1-0.448-1-1s0.447-1,1-1H13.5c0.553,0,1,0.448,1,1S14.053,27.757,13.5,27.757z"/><path d="M4.538,27.757H1c-0.553,0-1-0.448-1-1s0.447-1,1-1h3.538c0.553,0,1,0.448,1,1S5.091,27.757,4.538,27.757z"/><path d="M7.538,31.047h-1c-1.654,0-3-1.346-3-3V13.455c0-1.654,1.346-3,3-3h1c1.654,0,3,1.346,3,3v14.592C10.538,29.701,9.192,31.047,7.538,31.047z M6.538,12.455c-0.552,0-1,0.449-1,1v14.592c0,0.551,0.448,1,1,1h1c0.552,0,1-0.449,1-1V13.455c0-0.551-0.448-1-1-1H6.538z"/><circle cx="7.038" cy="14.872" r="0.75"/><circle cx="7.038" cy="26.761" r="0.75"/><path d="M16.5,31.047h-1c-1.654,0-3-1.346-3-3V15.935c0-1.654,1.346-3,3-3h1c1.654,0,3,1.346,3,3v12.112C19.5,29.701,18.154,31.047,16.5,31.047z M15.5,14.935c-0.552,0-1,0.449-1,1v12.112c0,0.551,0.448,1,1,1h1c0.552,0,1-0.449,1-1V15.935c0-0.551-0.448-1-1-1H15.5z"/><circle cx="16" cy="26.938" r="0.75"/><circle cx="16" cy="17.187" r="0.75"/><path d="M25.462,31.047h-1c-1.654,0-3-1.346-3-3v-9.825c0-1.654,1.346-3,3-3h1c1.654,0,3,1.346,3,3v9.825C28.462,29.701,27.116,31.047,25.462,31.047z M24.462,17.222c-0.552,0-1,0.449-1,1v9.825c0,0.551,0.448,1,1,1h1c0.552,0,1-0.449,1-1v-9.825c0-0.551-0.448-1-1-1H24.462z"/><circle cx="24.962" cy="27.053" r="0.75"/><circle cx="24.962" cy="19.113" r="0.75"/><path d="M11.028,6.955c-0.523,0-1.041-0.139-1.506-0.41C8.83,6.142,8.336,5.493,8.132,4.718s-0.094-1.583,0.31-2.276c0.403-0.692,1.053-1.186,1.827-1.39c0.775-0.202,1.583-0.094,2.275,0.31s1.187,1.052,1.391,1.827s0.094,1.583-0.311,2.275c-0.402,0.692-1.051,1.186-1.826,1.39C11.543,6.921,11.285,6.955,11.028,6.955z M11.034,2.953c-0.085,0-0.171,0.011-0.256,0.034c-0.258,0.068-0.475,0.232-0.608,0.463c-0.135,0.231-0.172,0.5-0.104,0.759c0.067,0.258,0.232,0.475,0.463,0.609c0.231,0.135,0.499,0.172,0.759,0.104c0.258-0.068,0.475-0.232,0.608-0.463C12.031,4.226,12.068,3.957,12,3.699c-0.067-0.258-0.232-0.475-0.463-0.609c-0.001,0-0.001,0-0.001,0C11.381,2.999,11.209,2.953,11.034,2.953z"/><path d="M26.619,14.04c-0.171,0-0.345-0.044-0.503-0.136l-13.859-8.08c-0.477-0.278-0.638-0.89-0.36-1.367c0.28-0.477,0.892-0.637,1.368-0.36l13.859,8.08c0.477,0.278,0.638,0.89,0.36,1.367C27.298,13.862,26.963,14.04,26.619,14.04z"/></svg>