<svg xmlns="http://www.w3.org/2000/svg" viewBox="0 0 32 32"><!--! Font Icona - https://fonticona.com | License - https://fonticona.com/license | Copyright 2022 FontIcona.com --><path d="M16.193,24.424c-0.392,0-0.764-0.231-0.923-0.615L8.53,7.635c-0.212-0.51,0.028-1.096,0.538-1.308c0.512-0.215,1.096,0.029,1.308,0.538l6.739,16.174c0.212,0.51-0.028,1.096-0.538,1.308C16.451,24.399,16.321,24.424,16.193,24.424z"/><path d="M9.453,32c-0.431,0-0.829-0.28-0.958-0.715c-0.158-0.529,0.144-1.086,0.673-1.243c3.977-1.185,6.062-6.896,6.083-6.954l6.366-16.203c0.202-0.515,0.783-0.766,1.296-0.565c0.514,0.202,0.767,0.782,0.565,1.296l-6.354,16.174c-0.086,0.243-2.43,6.693-7.384,8.169C9.644,31.986,9.547,32,9.453,32z"/></svg>