<svg xmlns="http://www.w3.org/2000/svg" viewBox="0 0 32 32"><!--! Font Icona - https://fonticona.com | License - https://fonticona.com/license | Copyright 2022 FontIcona.com --><path d="M16,17.325c-0.361,0-0.694-0.194-0.871-0.509L6.494,1.491C6.222,1.01,6.393,0.4,6.874,0.129c0.481-0.271,1.092-0.101,1.362,0.38L16,14.288l7.764-13.778c0.271-0.482,0.881-0.653,1.362-0.38c0.481,0.271,0.652,0.881,0.38,1.362l-8.635,15.325C16.694,17.13,16.361,17.325,16,17.325z"/><path d="M16,32c-0.552,0-1-0.448-1-1V16.325c0-0.552,0.448-1,1-1s1,0.448,1,1V31C17,31.552,16.552,32,16,32z"/></svg>