<svg xmlns="http://www.w3.org/2000/svg" viewBox="0 0 32 32"><!--! Font Icona - https://fonticona.com | License - https://fonticona.com/license | Copyright 2022 FontIcona.com --><path d="M11.473,28.336H5.12c-0.336,0-0.65-0.169-0.835-0.449c-0.185-0.281-0.217-0.636-0.084-0.944l2.625-6.128L0.083,5.321c-0.134-0.309-0.104-0.665,0.081-0.947C0.349,4.092,0.663,3.922,1,3.922h6.369c0.398,0,0.758,0.236,0.917,0.601l2.782,6.393l2.847-6.645c0.158-0.368,0.52-0.606,0.919-0.606h6.353c0.336,0,0.649,0.169,0.835,0.449c0.185,0.281,0.217,0.636,0.084,0.945l-9.713,22.671C12.235,28.098,11.873,28.336,11.473,28.336z M6.637,26.336h4.177L19.67,5.664h-4.176l-3.499,8.167c-0.157,0.367-0.518,0.605-0.917,0.606c-0.001,0-0.002,0-0.003,0c-0.398,0-0.758-0.236-0.917-0.601L6.714,5.922H2.526l6.307,14.49c0.11,0.253,0.111,0.54,0.002,0.793L6.637,26.336z"/><path d="M25.087,19.133L25.087,19.133l-6.148-0.003c-0.339,0-0.653-0.171-0.838-0.455c-0.185-0.283-0.214-0.641-0.076-0.949l5.932-13.404c0.16-0.362,0.519-0.595,0.914-0.595c1.954,0,4.169,0,6.153,0.047c0.334,0.008,0.643,0.182,0.821,0.464s0.205,0.635,0.069,0.94l-5.913,13.359C25.841,18.899,25.482,19.133,25.087,19.133z M20.475,17.131l3.962,0.002l5.039-11.387c-1.299-0.017-2.637-0.019-3.954-0.02L20.475,17.131z"/><path d="M19.686,28.336c-2.247,0-4.075-1.798-4.075-4.007s1.828-4.006,4.075-4.006c2.246,0,4.074,1.797,4.074,4.006S21.932,28.336,19.686,28.336z M19.686,22.323c-1.144,0-2.075,0.899-2.075,2.006s0.932,2.007,2.075,2.007s2.074-0.9,2.074-2.007S20.829,22.323,19.686,22.323z"/></svg>