<svg xmlns="http://www.w3.org/2000/svg" viewBox="0 0 32 32"><!--! Font Icona - https://fonticona.com | License - https://fonticona.com/license | Copyright 2022 FontIcona.com --><path d="M14.247,25.175H3c-1.654,0-3-1.346-3-3V10.261c0-1.654,1.346-3,3-3h11.247c1.654,0,3,1.346,3,3v11.914C17.247,23.829,15.901,25.175,14.247,25.175z M3,9.261c-0.551,0-1,0.448-1,1v11.914c0,0.552,0.449,1,1,1h11.247c0.551,0,1-0.448,1-1V10.261c0-0.552-0.449-1-1-1H3z"/><path d="M20.97,32c-0.268,0-0.524-0.107-0.712-0.298l-6.726-6.825c-0.388-0.394-0.383-1.026,0.01-1.414c0.394-0.389,1.026-0.383,1.415,0.01l5.985,6.074c2.039-2.357,3.538-5.181,4.36-8.227c0.144-0.531,0.693-0.849,1.226-0.705c0.533,0.145,0.849,0.693,0.705,1.227c-0.999,3.703-2.915,7.109-5.54,9.85c-0.187,0.195-0.445,0.307-0.715,0.309C20.975,32,20.973,32,20.97,32z"/><path d="M26.379,11.416c-0.448,0-0.855-0.303-0.969-0.757c-0.763-3.04-2.218-5.852-4.232-8.191l-6.212,6.484c-0.382,0.399-1.015,0.414-1.414,0.03c-0.399-0.382-0.412-1.015-0.03-1.413l6.956-7.261c0.232-0.242,0.569-0.352,0.901-0.293c0.235,0.043,0.444,0.168,0.593,0.348c2.593,2.724,4.452,6.114,5.379,9.81c0.135,0.535-0.191,1.079-0.727,1.213C26.542,11.406,26.46,11.416,26.379,11.416z"/><path d="M29.922,23.621c-0.091,0-0.183-0.012-0.274-0.038l-13.674-3.892l0.548-1.924l12.724,3.621c0.959-3.518,1-7.278,0.115-10.778l-12.84,3.636l-0.545-1.924l13.806-3.908c0.522-0.153,1.07,0.149,1.229,0.67c1.358,4.451,1.309,9.367-0.137,13.845C30.737,23.351,30.345,23.621,29.922,23.621z"/><path d="M8.304,20.993c-0.552,0-1-0.447-1-1v-3.098L4.63,12.832c-0.304-0.462-0.176-1.082,0.286-1.385c0.463-0.306,1.082-0.176,1.385,0.285l2.002,3.044l2.002-3.044c0.304-0.461,0.924-0.591,1.385-0.285c0.461,0.303,0.589,0.923,0.286,1.385l-2.673,4.063v3.098C9.304,20.546,8.856,20.993,8.304,20.993z"/></svg>