<svg xmlns="http://www.w3.org/2000/svg" viewBox="0 0 32 32"><!--! Font Icona - https://fonticona.com | License - https://fonticona.com/license | Copyright 2022 FontIcona.com --><path d="M15.401,15.757c-0.832,0-1.578-0.425-2.089-1.204c-0.417-0.633-0.796-1.292-1.175-1.95l-0.182-0.315C10.89,10.44,9.824,8.592,8.777,6.732C8.489,6.217,8.269,5.674,8.074,5.164c-0.58-1.509-0.175-2.782,1.171-3.678c0.898-0.598,1.856-0.889,2.591-1.075c0.871-0.222,1.911-0.443,3.028-0.407c0.517,0.018,1.077,0.126,1.621,0.313c1.021,0.353,1.673,1.174,1.793,2.254l0.016,0.139c0.081,0.732,0.165,1.49,0.092,2.364L18.338,6.11c-0.048,1.055-0.097,2.11-0.152,3.166c-0.072,1.358-0.149,2.719-0.247,4.077c-0.09,1.269-0.91,2.178-2.139,2.373C15.665,15.746,15.532,15.757,15.401,15.757z M14.62,2c-0.805,0-1.606,0.175-2.291,0.35c-0.863,0.219-1.473,0.466-1.977,0.801C9.791,3.525,9.699,3.816,9.942,4.448c0.195,0.51,0.368,0.927,0.58,1.306c1.042,1.85,2.104,3.692,3.167,5.535l0.182,0.315c0.36,0.625,0.719,1.25,1.114,1.851c0.223,0.339,0.415,0.31,0.502,0.294c0.268-0.042,0.429-0.145,0.457-0.54c0.097-1.346,0.174-2.694,0.245-4.041c0.056-1.051,0.104-2.101,0.152-3.15l0.051-1.097c0.059-0.686-0.008-1.291-0.086-1.991L16.29,2.79c-0.034-0.309-0.171-0.483-0.457-0.582c-0.358-0.123-0.717-0.194-1.036-0.205C14.738,2.001,14.679,2,14.62,2z"/><path d="M23.664,30.127c-0.012,0-0.022,0-0.034,0c-0.159-0.002-0.317-0.021-0.471-0.055c-1.174-0.261-1.739-1.247-2.152-1.967l-0.121-0.209c-0.488-0.824-0.964-1.658-1.437-2.494c-0.426-0.751-0.923-1.644-1.374-2.56c-0.233-0.476-0.354-1.003-0.34-1.488c0.019-0.711,0.365-1.353,0.951-1.758c0.594-0.41,1.329-0.507,2.018-0.269c0.735,0.254,1.434,0.604,2.03,0.911c1.289,0.664,2.568,1.351,3.844,2.043c0.428,0.232,0.821,0.481,1.169,0.739c0.691,0.512,1.706,1.638,0.703,3.418c-0.583,1.034-1.306,1.883-2.146,2.522C25.505,29.569,24.633,30.127,23.664,30.127z M19.955,21.2c-0.057,0-0.101,0.021-0.13,0.041c-0.059,0.04-0.088,0.097-0.09,0.169c-0.005,0.161,0.047,0.371,0.135,0.551c0.428,0.867,0.907,1.729,1.32,2.456c0.466,0.825,0.936,1.647,1.417,2.463l0.134,0.23c0.266,0.462,0.54,0.94,0.854,1.01l0.062,0.007c0.002,0,0.004,0,0.006,0c0.432,0,1.157-0.55,1.431-0.758c0.622-0.473,1.166-1.116,1.614-1.912c0.264-0.469,0.219-0.555-0.152-0.828c-0.273-0.204-0.587-0.401-0.932-0.589c-1.263-0.685-2.528-1.365-3.806-2.023c-0.56-0.288-1.157-0.587-1.77-0.799C20.015,21.205,19.984,21.2,19.955,21.2z"/><path d="M13.561,32c-0.04,0-0.079-0.001-0.119-0.003c-1.961-0.068-3.661-0.681-5.049-1.819c-1.032-0.847-1.235-2.209-0.493-3.313c0.71-1.056,1.508-2.191,2.512-3.574c0.522-0.72,1.094-1.455,1.749-2.25c0.669-0.814,1.664-1.096,2.659-0.744c0.93,0.327,1.487,1.132,1.531,2.209c0.035,0.824,0.051,1.648,0.046,2.474l0,0c-0.003,0.482-0.015,0.964-0.033,1.444l-0.01,0.265c-0.043,1.153-0.088,2.347-0.38,3.514C15.695,31.319,14.776,32,13.561,32z M13.983,22.147c-0.104,0-0.184,0.052-0.277,0.164c-0.629,0.764-1.176,1.468-1.674,2.154c-0.989,1.363-1.774,2.48-2.471,3.516c-0.172,0.256-0.142,0.451,0.101,0.65c1.057,0.866,2.316,1.313,3.852,1.368c0.437-0.009,0.494-0.179,0.521-0.283c0.241-0.965,0.282-2.052,0.322-3.104l0.01-0.267c0.018-0.458,0.028-0.918,0.031-1.379c0.005-0.794-0.011-1.587-0.044-2.379c-0.014-0.341-0.12-0.378-0.196-0.405C14.09,22.159,14.033,22.147,13.983,22.147z"/><path d="M20.161,18.973c-0.004,0-0.009,0-0.013,0h-0.002c-1.185-0.007-1.803-0.646-2.113-1.183c-0.475-0.82-0.442-1.741,0.091-2.525c0.227-0.336,0.513-0.675,0.897-1.065c1.246-1.259,2.501-2.508,3.757-3.757l0.092-0.092c0.153-0.152,0.32-0.29,0.487-0.426c1.195-0.969,2.525-0.924,3.649,0.127c0.789,0.74,1.432,1.668,1.908,2.76c0.212,0.487,0.377,0.976,0.491,1.454c0.316,1.323-0.183,2.361-1.405,2.922c-0.544,0.25-1.122,0.388-1.632,0.51l-0.105,0.025c-0.659,0.157-1.32,0.3-1.981,0.442l-1.83,0.401c-0.438,0.098-0.876,0.194-1.314,0.288C20.776,18.935,20.455,18.973,20.161,18.973z M20.157,16.973c0.001,0,0.003,0,0.005,0c0.149,0,0.331-0.023,0.555-0.072c0.436-0.093,0.868-0.189,1.301-0.286l1.844-0.404c0.646-0.139,1.293-0.279,1.937-0.433l0.107-0.025c0.461-0.11,0.896-0.214,1.262-0.382c0.342-0.157,0.395-0.219,0.294-0.64c-0.087-0.364-0.214-0.741-0.379-1.119c-0.372-0.852-0.844-1.539-1.442-2.099c-0.392-0.368-0.602-0.375-1.022-0.035c-0.116,0.094-0.232,0.187-0.338,0.292l-0.091,0.09c-1.252,1.246-2.503,2.491-3.744,3.745c-0.296,0.299-0.507,0.548-0.665,0.781c-0.101,0.147-0.104,0.249-0.016,0.401C19.82,16.886,19.87,16.971,20.157,16.973z"/><path d="M5.445,21.798c-0.237,0-0.472-0.014-0.7-0.042c-0.88-0.105-2.346-0.757-2.238-3.936V17.82c0.008-0.226,0.022-0.436,0.037-0.615c0.055-0.648,0.191-1.34,0.404-2.055c0.22-0.737,0.683-1.324,1.304-1.652c0.609-0.321,1.334-0.374,2.044-0.149c1.331,0.425,2.65,0.887,3.967,1.349l0.382,0.134c0.918,0.322,1.655,0.602,2.319,0.879c1.178,0.492,1.759,1.466,1.594,2.673c-0.131,0.968-0.847,1.736-1.824,1.959c-1.068,0.242-2.137,0.476-3.207,0.709l-1.566,0.348c-0.525,0.123-1.051,0.244-1.583,0.328C6.071,21.775,5.756,21.798,5.445,21.798z M4.506,17.889c-0.037,1.087,0.156,1.844,0.479,1.882c0.35,0.044,0.723,0.036,1.083-0.021c0.483-0.076,0.961-0.188,1.44-0.3l1.594-0.354c1.063-0.232,2.127-0.464,3.189-0.705c0.16-0.037,0.267-0.141,0.286-0.278c0.032-0.233,0.03-0.385-0.383-0.558c-0.627-0.263-1.33-0.528-2.21-0.837l-0.382-0.134c-1.3-0.456-2.601-0.912-3.913-1.331c-0.2-0.063-0.369-0.06-0.503,0.011c-0.143,0.076-0.257,0.238-0.323,0.457c-0.174,0.583-0.284,1.139-0.327,1.653C4.524,17.526,4.512,17.7,4.506,17.889L4.506,17.889z"/></svg>