<svg xmlns="http://www.w3.org/2000/svg" viewBox="0 0 32 32"><!--! Font Icona - https://fonticona.com | License - https://fonticona.com/license | Copyright 2022 FontIcona.com --><path d="M16,32c-0.552,0-1-0.447-1-1V16.454L5.19,1.55C4.887,1.089,5.015,0.469,5.476,0.165C5.938-0.141,6.558-0.011,6.861,0.45L16,14.335L25.139,0.45c0.304-0.461,0.923-0.591,1.385-0.285c0.292,0.191,0.45,0.511,0.45,0.836c0,0.188-0.053,0.38-0.165,0.549L17,16.454V31C17,31.553,16.552,32,16,32z"/><path d="M25.974,18.005H6.026c-0.552,0-1-0.447-1-1s0.448-1,1-1h19.948c0.552,0,1,0.447,1,1S26.526,18.005,25.974,18.005z"/><path d="M25.974,23.34H6.026c-0.552,0-1-0.447-1-1s0.448-1,1-1h19.948c0.552,0,1,0.447,1,1S26.526,23.34,25.974,23.34z"/></svg>