<svg xmlns="http://www.w3.org/2000/svg" viewBox="0 0 32 32"><!--! Font Icona - https://fonticona.com | License - https://fonticona.com/license | Copyright 2022 FontIcona.com --><path d="M16,32C7.178,32,0,24.822,0,16S7.178,0,16,0s16,7.178,16,16S24.822,32,16,32z M16,2C8.28,2,2,8.28,2,16s6.28,14,14,14s14-6.28,14-14S23.72,2,16,2z"/><path d="M14.646,31.82c-1.114,0-2.227-0.165-3.286-0.505l0.611-1.904c2.716,0.873,5.875,0.34,8.042-1.353c1.86-1.454,3.068-4.755,1.826-7.167c-1.211-2.352-3.232-3.011-5.572-3.773c-1.678-0.546-3.412-1.111-4.925-2.359C9.302,13.076,8.5,9.995,9.298,6.908c0.929-3.593,3.707-6.233,7.248-6.892l0.365,1.967c-3.31,0.615-5.103,3.206-5.676,5.425c-0.605,2.337-0.063,4.617,1.38,5.808c1.22,1.007,2.703,1.49,4.272,2.001c2.41,0.785,5.143,1.675,6.731,4.758c1.77,3.437,0.147,7.689-2.373,9.659C19.42,31.06,17.034,31.82,14.646,31.82z"/><path d="M16.48,26.45c-1.608,0-2.917-1.308-2.917-2.916s1.308-2.916,2.917-2.916c1.608,0,2.916,1.308,2.916,2.916S18.088,26.45,16.48,26.45z M16.48,22.618c-0.505,0-0.917,0.411-0.917,0.916s0.411,0.916,0.917,0.916c0.505,0,0.916-0.411,0.916-0.916S16.985,22.618,16.48,22.618z"/><path d="M16.542,11.544c-1.608,0-2.916-1.308-2.916-2.917c0-1.608,1.308-2.916,2.916-2.916s2.916,1.308,2.916,2.916C19.458,10.236,18.15,11.544,16.542,11.544z M16.542,7.711c-0.505,0-0.916,0.411-0.916,0.916c0,0.505,0.411,0.917,0.916,0.917s0.916-0.411,0.916-0.917C17.458,8.123,17.047,7.711,16.542,7.711z"/></svg>