<svg xmlns="http://www.w3.org/2000/svg" viewBox="0 0 32 32"><!--! Font Icona - https://fonticona.com | License - https://fonticona.com/license | Copyright 2022 FontIcona.com --><path d="M26,27.461H6c-3.309,0-6-2.836-6-6.322V10.861c0-3.486,2.691-6.322,6-6.322h20c3.309,0,6,2.836,6,6.322v10.278C32,24.625,29.309,27.461,26,27.461z M6,6.539c-2.206,0-4,1.939-4,4.322v10.278c0,2.383,1.794,4.322,4,4.322h20c2.206,0,4-1.939,4-4.322V10.861c0-2.383-1.794-4.322-4-4.322H6z"/><path d="M12.566,21.972c-0.177,0-0.353-0.047-0.51-0.14c-0.304-0.18-0.49-0.507-0.49-0.86v-9.944c0-0.353,0.187-0.68,0.49-0.86c0.302-0.18,0.68-0.188,0.989-0.018l9.089,4.967c0.32,0.175,0.521,0.512,0.521,0.877c0,0.366-0.199,0.702-0.52,0.877l-9.089,4.978C12.896,21.931,12.731,21.972,12.566,21.972z M13.566,12.714v6.57l6.005-3.289L13.566,12.714z"/></svg>